<svg xml:space="preserve" id="ftransit18-cf0e-pcB_svg__Calque_1" x="0" y="0" style="enable-background:new 0 0 500 375" version="1.1" viewBox="0 0 500 375" xmlns="http://www.w3.org/2000/svg"><style>.ftransit18-cf0e-pcB_svg__st1,.ftransit18-cf0e-pcB_svg__st2{fill:none;stroke:#fff;stroke-miterlimit:10}.ftransit18-cf0e-pcB_svg__st2{stroke-width:.5}</style><g id="ftransit18-cf0e-pcB_svg__Calque_2_00000023962945234971031020000001900437258414017193_"><path d="M500.9 358.3 486.1 375M194.7 47.3c28.6-13.6 50.1-21.4 56.2-22.7 14.4-2.9 37.3-8.2 47.6-1.1 17 10.5 172.4 106.5 185 115.6 12.6 9 17.4 23.1 17.4 23.1M51.2 375c1.1-9.1 4.3-29.3 6.1-30s10.1-3.6 10.1-3.6S71.9 191.1 95 112.8c4.9-8.5 16.5-18.2 31.2-27.9M310.9 375v-77.5l-6.2-7-21.6-8.8h-13.5L256 294.4l-1.7 80.6m-130.5 0s5.7-89.1 13.4-101.4c1.4-23.9 10.5-151.6 16.3-162.4-5.8-8.3-3.9-17.5 0-36.8M69.2 375c-1.1-4.8-2-25.7-1.7-33.6" class="ftransit18-cf0e-pcB_svg__st1"/><path d="m67.4 348.5-8.7 2.2-1.3-5.7m-2.7 30c.8-8.1 3.3-21.9 4-24.3m198.5-57.4c0-20.1 5.9-241.6 6.2-251.8s-8.2-10.9-18.4-7.8-128 51.6-150.1 79.2" class="ftransit18-cf0e-pcB_svg__st1"/><path d="m500.9 245.4-131.2 17.4s-28.6-23.5-32-44.3-10.6-108.6-7.1-113.7c3.4-5.1 5.1-8.2 15.3-4.4 10.2 3.7 141.6 63.3 146 66.7 5.9 4.3 9 39.5 9 39.5m-265-121.2c8.9-.1 10.9 2.4 11.2 7.5s-3.1 161.4-3.4 165.4c-.3 4.1-1.7 21.8-41.9 29.3-40.9-6-99.3-23.9-106.6-25.7-6.9-5.8-11.2-12-11.2-15.8 0-3.7 2.5-97.4 10.9-107.6s131.8-53 141-53.1zm-50.5-26.5c1.2-3.7 3.9-8.8 6.5-10" class="ftransit18-cf0e-pcB_svg__st2"/><path d="M128.6 87.7c-5.1-5.3-6.4-13.9-6.1-16.6s4.3-7.6 5.4-8.9c1.2-1.4 22-14.9 26.8-17.2s14.1-2.2 19.1-2.1c5 .1 21.3 3.7 21.1 4.7-.2.1-3.2 1.5-3.2 1.5" class="ftransit18-cf0e-pcB_svg__st2"/><path d="M163.7 317.6c.1.7 0 5.5-.4 5.9s-18.8-1.9-27.2-8.4c-1.4-8.6 2-7.7 2.3-7.5.2.1 25 8.3 25.3 10z" class="ftransit18-cf0e-pcB_svg__st1"/><path d="M469.6 375c1.4-19 4.8-109.6-6.9-124.5-1.9-17.8-5.9-86-9.5-101.9 2.4-1-4-26.6-5.1-28.3-1-1.7 41.1 25.6 44.4 29.9 4.4 5.8 7.2 21.1 7.5 25.4" class="ftransit18-cf0e-pcB_svg__st2"/><path d="m468.3 269.6-110.1 30.3v-18.2L466 258.8" class="ftransit18-cf0e-pcB_svg__st2"/></g></svg>