<svg xml:space="preserve" style="enable-background:new 0 0 500 375" viewBox="0 0 500 375" xmlns="http://www.w3.org/2000/svg"><style>.ftransit18-f2W6pHaR_svg__st2,.ftransit18-f2W6pHaR_svg__st3{fill:none;stroke:#fff;stroke-miterlimit:10}.ftransit18-f2W6pHaR_svg__st3{stroke-width:.5}</style><g id="ftransit18-f2W6pHaR_svg__Calque_2"><path d="M222.1 325.4c3.8 18.8 15.6 30.8 35.3 35 17.6 0 29.7-12.7 38.9-38.1 8-22 5.3-49-22.2-56.3-3.2-.8-6.6-1-10.2-.6m151.9-20.2c1.5 9.3 7.7 11.5 15.1 11.5 8.5 0 12.9-11.8 13.8-25.1.8-11.1-.1-19.1-6.3-20.7" class="ftransit18-f2W6pHaR_svg__st2"/><path d="m300 296.3 123.6-54.7s10.6-22.2 14.4-29.4 9.3-9.7 10.2-2.8c.8 6.9-2 17.9-2.7 19M81.3 50.8s-12.2 6.9-15.7 13.6-5.3 14.4-7.3 30.2-1.2 131.9-.6 142.8c-2.6.9-5.5 1.1-6.8 2.2-.7 2.4-2 15.9-2 15.9s-1.5 21.8 1.8 30.4 19 24 26.4 30.9c7.4 6.9 42.8 33.2 56 36.6s38.8-8.4 38.8-8.4 56.6-21.8 58.2-23.4c1.6-1.6 19-48.4 41-62.1 14.9-7.7 30.8-7 36.5 12.7 1.9 13.3-6.2 19.8-7.9 22.3m139.7-130.2s-14.3-39.4-17-44.8c-1.5-3.1-8.7-18.6-18-26.5s-40.1-16.4-40.1-16.4L218.4 31.2l-38.7-12s-16.5-2.1-26.8 0-30.6 10-30.6 10" class="ftransit18-f2W6pHaR_svg__st2"/><path d="M444.9 229s7.2-4.5 7.2-22.5c-1-1.2-1.8-1.8-2.7-3.1-1-1.3 0-17.2-2.7-23.8M122.5 29.1c-6.3 4.2-6.3 8-6.3 8L83.3 52.6s-7.2-6.5-6.7-10.5 3.3-7.3 5.2-8.5c1.9-1.2 12.1-7 13.7-7.3 1.7-.3 14.1-4.4 30 1.5m308.8 150.8 5.6-.3s.5.7 1.8.9c1.3.2 10.8.5 13.6-.7 2.3-1 2.6-3 2.6-5 .1-2.9-.6-12.1-2.2-14.6s-6.4-3.7-11.6-2.8c-5.3.8-5.1 13.1-5.1 13.1s-3.2 0-4.1-.6c-.3-.2-1.2 0-1.2 0 .1.2.6 10 .6 10zM79 202.1l8.7 2.5s.5 3.2.2 4c-.3.8-11.1-1.9-11.5-3.2-.4-1.5-.1-4.2 2.6-3.3zm331.4-17.5v2.1s6.4-.2 6.8-.7.6-2.5.3-2.5-6.6.5-7.1 1.1zM151.1 290l.1-97s5.8-7 6.8-7.5 7.9-.6 8.9 0 14.5 5.5 15.5 8.7 0 88.8 0 88.8.1 7.3-5 8.9c-5.1 1.6-18.9.8-19.9.7s-6.4-2.6-6.4-2.6zm-18.6 6.7-32.1-19.1-.7 13.4 30.8 21.2z" class="ftransit18-f2W6pHaR_svg__st2"/><path d="M440 177.9c-.3-1.4-.5-6.3-.6-8.2m11.7 9.4c3-1 4.7-2 4.6-6-.1-3.9 0-10.9-1.7-14-.8-1.4-4.2-2.9-5.9-3.1M305.7 293.8c15.2-23.5-.2-41.4-5.4-44.5-5.2-3-17.6-13.5-44.9 13.3-19.6 3.5-56.6 16.8-73.1 20.4m-43.4 40.8c-12.2-6.8-62.4-43-66.1-46.2-1.8-1.5-12.6-10.7-14-37.2l-6.5 1.4-2.1 16.1s-1.1 7.4.5 20.6c1.7 14.1 54.4 53.9 77.5 62.4 11.2 4.1 9.4-5.3 11-20.7.9-8.1 3.7-25.3 3.7-25.3l10.8-3.7m-95-51-.6-2.4m123.5 50c-3.9 11.1-23.5 10.9-26.9 11.1-4.3-.2-2 55-15.7 55m15.5-54.9-11.4-3.9M449 203.3c-1.5-5.5-8.5-6.3-15.9 10.3s-10.9 28.6-10.9 28.6" class="ftransit18-f2W6pHaR_svg__st3"/><path d="M98.5 45.5c-1.6 9.1-1.4 17.7-1.2 21.4.2 2.5 1.3 4.9 2.6 7-3.1 16.7-5.7 92.6-4 112.6-2 4.1-1.6 3.9-2.4 8.7-1 8.5-4.5 76.4 3.7 100.2" class="ftransit18-f2W6pHaR_svg__st3"/><path d="m146.3 64.3-1.2 115.6s-9.4 11.6-15.5 12.5-59.3-11.3-59.3-11.3-7.3-6-8-13.7c-.7-7.7 2.2-70.4 3.4-76.2 1.5-7.4 71-32.9 80.6-26.9zm254.9 98s.9-36.5 0-43.4c-.5-3.5-.8-8.6-9.9-11.2S225 71.6 225 71.6s-20.4-7.1-21.2 11c-.8 18 .7 59.4 1.6 63.5.8 4.2 16.2 27.5 24.6 30.6 8.4 3.1 161.6-4.4 161.6-4.4s9.5 1.5 9.6-10zm37.8 4.6s-13.9-36.6-15.4-39.5c-1.3-2.8-11.5-8.5-12.7-7.3-1.3 3.7.7 44.1.9 45.4.2 1.4 1.5 8.4 9.8 11.4 6 2.4 20.6 5.7 21.5 4.3.2-.5 0-1.8 0-1.8" class="ftransit18-f2W6pHaR_svg__st3"/><path d="M400.1 251.6c4.3-9 6.2-23.6 6.7-30 .5-6.4.1-107.3.1-109.5.6-1 15.2 6.2 16.9 10.4" class="ftransit18-f2W6pHaR_svg__st3"/></g></svg>