<svg xml:space="preserve" style="enable-background:new 0 0 500 375" viewBox="0 0 500 375" xmlns="http://www.w3.org/2000/svg"><style>.ftransit18-4NMPqEV6_svg__st2,.ftransit18-4NMPqEV6_svg__st3{fill:none;stroke:#fff;stroke-miterlimit:10}.ftransit18-4NMPqEV6_svg__st3{stroke-width:.5}</style><g id="ftransit18-4NMPqEV6_svg__Calque_2"><path d="M146.1 264.9c0 50.8 36.5 92.5 90.3 98.8 51.3 0 91.2-23.9 94-84.8.1-60-40.8-99.1-92.1-99.1s-92.2 34.3-92.2 85.1z" class="ftransit18-4NMPqEV6_svg__st2"/><path d="m.1 265.2 130.3 13.7s-24.2-50.7 18.7-89.5c31.2-23.8 73.3-39.4 133.8-11.9 63 31.6 67.1 94.3 58.2 115.7 4.9 7.4 103.7 1.1 122.8-21.4 11.7-14 26.1-45.8 24.1-76.2-2.2-10.9-17.6-20-18.8-23.7.5-5.4 7.4-43.4-8.1-77.5C449 70.9 438.8 70 437.8 67.6s-5.8-8.5-15.4-15.4c-26.7-17.7-86.5-38.1-130-52.2" class="ftransit18-4NMPqEV6_svg__st2"/><path d="M469.1 171.7c-.8 12.8-123.5 1.1-145.4 2.4-22.9-21.3-78.7-48.7-138.7-31.9-55.8 16.9-93.5 76.7-71.5 134.8M322.7 26.8s38.3 38.7 41 44.7c2.7 5.9 14.8 38.3 15.1 40.3s66.5 6.5 76.1 13c-1-15.1-8.4-44.7-18.2-53.7-19.3-23-84.9-37.6-114-44.3zM114.2 0s.3 4.5 3.3 10.3c4.2 8 18.9 22.3 32.8 26.2 3.4 1 11.3-.5 11.3-.5l6.1 7.1 15 1.7V0" class="ftransit18-4NMPqEV6_svg__st2"/><path d="M161.7 35.7c13.2-.6 16-24.6 16.5-35.7m299.7 213c2.3 1.6-7 33.2-9.6 35.6-3.7 4.9-27.3 11.8-37.6 9-8-4.5-10.9-21.8-9.8-25.1s5.6-12.2 14.2-15.1c29-.5 40.5-6 42.8-4.4z" class="ftransit18-4NMPqEV6_svg__st3"/><path d="m343.5 257.8-15.2-2m-182.2 9.1s-9.7 3.4-15.4 14.3" class="ftransit18-4NMPqEV6_svg__st2"/><path d="M236.5 0s53.1 56.2 52.7 57.5C292.9 67.9 80.7 41.3 46 33.6c-31.8-9-46-14.9-46-14.9" class="ftransit18-4NMPqEV6_svg__st3"/><path d="M199.6 0s.3 50.4 1.3 54.4c1 3.9-15.1 82.7-18.3 88.7M322.2 26.6 291.5 0m170.6 96.7c-3.1-1.9-8.8-5-14-4.3" class="ftransit18-4NMPqEV6_svg__st3"/></g></svg>