<svg fill="none" viewBox="0 0 1005 650" xmlns="http://www.w3.org/2000/svg"><path stroke="#fff" stroke-width="2" d="m266.558 532.491-47.826-9.882c-12.092-1.733-11.714-6.079-7.213-15.636 4.345-5.941 7.208-8.533 12.728-12.267 6.345-2.027 11.466-2.249 21.542-2.104 60.81 5.411 91.923 7.155 144.856 9.168 38.411 1.396 61.396 1.658 102.983 1.896"/><path stroke="#fff" stroke-width="2" d="m749.681 530.384 48.157-8.115c12.148-1.286 11.93-5.644 7.784-15.359-4.124-6.097-6.889-8.793-12.268-12.728-6.265-2.258-11.375-2.669-21.45-2.895-60.967 3.169-95.177 8.749-147.214 10.292-38.528 1.142-90.994 3.353-132.561 2.06m259.658-239.78 44.5 6m0 0 11.5-24.5c4.739-8.101 7.818-11.804 15-15 8.479-6.007 13.784-9.162 17.5-17l2-26c2.118-4.066 3.871-5.14 7.5-6h9m-62.5 88.5-3 7.5c-.274 3.761.242 5.698 5.5 8l43.5 9c10.705 1.829 15.157 1.375 22.5 0 22.902-5.117 35.173-9.207 54.5-22 7-5.862 6.002-11.876 3.5-23m-656.5 19-47 8m0 0-15-27c-4.739-8.101-13.317-13.304-20.5-16.5-8.479-6.007-11.784-6.162-15.5-14l-4-25c-2.117-4.066-1.871-6.14-5.5-7l-9.5-2m70 91.5 3.5 7.5c.274 3.761-4.742 6.198-10 8.5l-41 11.5c-10.705 1.829-25.279-.125-32.623-1.5-22.902-5.117-35.173-9.207-54.5-22-7-5.862-7.88-12.876-5.377-24"/><path stroke="#fff" stroke-width="2" d="m255.287 160.198 45-54.34c13.474-12.392 21.841-19.503 33.076-25.397 4.192-2.2 8.798-3.454 13.482-4.146l36.942-5.457c88.629-6.125 138.15-6.82 226 0l43.629 5.02c8.451.972 16.582 3.98 23.495 8.938 41.572 29.808 53.608 46.581 76.376 75.204m-498 .178c190.612-4.148 310.053-4.216 498-.178m-498 .178-10 .219m508-.397c5.278.114 10.61.23 16 .35m-524 .047-5.758.129c-9.007.202-17.619 3.127-25.809 6.882-8.829 4.048-18.519 6.353-36.434 7.431-17.053 3.335-24.464 6.089-30.882 10.934-2.145 1.619-4.266 3.278-6.488 4.791-13.587 9.252-24.765 20.384-45.63 43.275-13.584 19.602-22.24 34.054-36.352 59.876-2.753 5.037-4.649 10.513-5.547 16.183-4.065 25.667-5.404 42.997-3.6 73.441 7.77 63.028 10.202 77.989 12.325 86.981 1.027 4.353 1.674 8.783 1.674 13.256v12.234c0 8.871 1.883 17.951 7.898 24.472 5.521 5.985 12.862 11.448 23.579 18.013 10.184 6.24 21.201 11.07 32.727 14.203 15.581 4.235 30.252 6.901 53.296 10.341l139.5 16c94.719 6.63 148.251 6.432 244 3.5 115.024-4.158 180.457-8.839 296.441-26.867a48.947 48.947 0 0 0 7.933-1.903c36.583-12.221 53.967-24.698 70.253-49.818 4.754-7.332 6.887-16.002 7.17-24.735 1.158-35.795 5.074-62.92 10.703-106.677-.349-56.278-3.373-85.296-29.5-118.5-25.171-35.614-40.119-52.566-65.367-70.601-2.728-1.949-5.669-3.611-8.799-4.815-13.37-5.141-23.518-5.912-40.334-7.084a53.782 53.782 0 0 1-3.198-.267c-13.673-1.597-26.039-10.416-39.801-10.722m-524 .047c-13.506 5.246-17.064 13.024-13 39.442 6.398 23.277 11.259 36.448 22.53 55.825 1.622 2.788 3.499 5.443 5.825 7.677 6.009 5.771 12.001 8.807 21.099 12.084 3.666 1.32 7.503 2.107 11.38 2.49l29.666 2.924c117.859 1.915 192.555 1.801 295.44-1.266 23.011-.686 112.815.933 130.56-13.734 6.028-4.983 12.323-16.657 14.85-21.658.785-1.555 1.444-3.18 2.018-4.825 15.076-43.181 21.059-65.602 3.632-79.006"/><path stroke="#fff" stroke-width="2" d="M926.21 436.619c-45.083 26.12-77.329 38.757-158.032 54.6M84.142 432.617c44.091 27.762 75.85 41.577 155.915 60.38"/></svg>