<svg fill="none" viewBox="0 0 1005 650" xmlns="http://www.w3.org/2000/svg"><path stroke="#fff" stroke-width="2" d="M29.123 186.805c36.25 14.864 55.334 18.139 89.31 23.723M754.768 75.167c20.703 40.44 33.055 69.679 55.353 124.197M732.44 73.307l49.772 126.057M347.29 106.333l30.235 20.932"/><path stroke="#fff" stroke-width="2" d="m168.205 233.786 38.357-33.735c.167-.147.354-.277.549-.384 55.009-29.957 89.114-43.285 150.878-65.89l81.403-27.909c64.927-19.762 101.967-28.19 169.782-35.818 59.069-3.495 92.267-5.592 146.06 0 101.664 19.982 150.178 40.482 209.786 106.521m-796.815 57.215h111.894a3 3 0 0 1 3 3v.784a3 3 0 0 1-.989 2.226l-27.851 25.155c-42.317 33.211-65.43 50.261-95.357 51.633-25.746-1.844-40.315-3.643-66.289-15.045a3 3 0 0 1-1.156-.895l-12.823-16.361a3 3 0 0 0-.462-.471c-6.49-5.276-11.403-7.689-20.209-11.883l-8.645-5.619c-.431-.281-.793-.664-1.003-1.134-.84-1.874-.93-3.628.251-7.804.061-.217.15-.428.259-.625l13.79-24.822c3.408-4.59 5.696-5.46 10.233-5.117 37.764 3.384 58.928 5.268 95.357 6.978ZM511.957 95.971c95.902-28.89 223.74-23.415 245.603-20.339 21.862 3.076 69.718 14.741 110.707 33.026 40.375 21.475 60.298 38.214 93.257 70.488a3.02 3.02 0 0 1 .852 2.739l-3.969 19.841a2.27 2.27 0 0 1-2.225 1.825l-168.852-4.187c-95.81-4.308-159.962-5.666-230.253-12.559l-14.885-1.677m-30.235-89.157a340 340 0 0 0-18.607 6.175l-2.325.735m20.932-6.91 30.235 89.157m0 0-15.35-1.73m0 0-2.791-.314-33.026-3.722c-48.882-9.11-68.273-14.007-86.211-22.186a3 3 0 0 1-.581-.351c-9.161-7.051-13.632-11.195-14.787-16.262-.286-1.256.53-2.458 1.729-2.929 39.133-15.368 61.599-22.671 99.85-34.753m35.817 80.517-35.817-80.517M157.506 317.049l21.801 75.144c.041.141.094.283.155.416 7.017 15.22 13.713 16.911 25.726 19.287q.228.045.46.055l135.13 5.572 30.7-1.861"/><path stroke="#fff" stroke-width="2" d="M144.946 128.195c115.788-44.39 179.781-63.382 290.724-76.751 66.149-6.86 101.138-7.48 162.805-7.443 68.61 1.046 106.666 4.39 153.036 11.164 40.593 10.598 68.613 18.41 93.962 29.02m-700.527 44.01-70.013 19.474a3 3 0 0 1-.457.09l-46.883 5.462c-.522.06-1.029.26-1.441.586-11.078 8.768-4.805 19.009 4.366 36.254 2.316 5.427 2.972 9.951.056 27.115a3 3 0 0 1-.18.633l-4.7 11.537a3 3 0 0 0-.2 1.49c.605 4.959 1.19 8.16 4.845 15.611.117.239.268.464.444.663l13.304 15.02c.543.614.812 1.422.744 2.239l-2.585 31.021a3.04 3.04 0 0 1-.992 1.994c-12.592 11.4-18.418 20.073-24.969 36.859a3 3 0 0 0-.203 1c-.61 20.857 2.21 30.001 7.458 45.998l13.398 28.643q.093.198.155.407c4.288 14.197 6.433 20.664 9.627 28.894q.078.2.184.389c8.645 15.309 15.272 24.06 29.664 39.815 26.848 25.328 40.265 35.316 63.262 50.702 15.511 7.701 24.582 11.161 40.713 15.752.145.042.299.073.449.092 43.779 5.543 62.71 7.41 91.873 9.739h31.402c1.255 0 2.381-.79 2.817-1.968 11.587-31.3 18.626-49.915 24.772-73.989.055-.217.137-.432.239-.632 15.769-30.843 24.449-48.333 48.686-75.052 21.556-23.086 34.503-33.098 58.61-47.446 26.946-14.247 40.589-16.522 64.657-19.536 23.663-.51 36.099 1.455 55.819 11.629 14.536 7.891 22.57 13.18 35.352 33.956 8.613 15.101 10.304 28.693 10.698 57.214-.749 21.166-3.977 32.163-10.134 48.39-.84 2.213 1.078 4.496 3.4 4.031l3.598-.719q.345-.07.665-.216l39.949-18.367q.2-.093.411-.154l112.822-32.965 121.406-35.817 95.823-24.188 9.386-2.235q.382-.09.728-.277l5.701-3.07M144.946 128.195c-.435 3.872 3.957 5.522 16.746 7.908 41.682 5.972 58.702 3.206 86.984-3.722l98.149-26.048C406.364 88.6 439.586 79.171 497.07 68.19c57.103-9.621 87.894-12.65 141.408-15.35 70.322 1.094 90.649 1.013 113.033 5.116 37.649 6.487 58.135 12.594 93.962 26.228m125.592 82.154c-24.052-20.698-39.506-32.098-70.238-52.098-19.617-12.991-36.767-22.276-55.354-30.056"/><path stroke="#fff" stroke-width="2" d="m797.097 199.364 2.121 3.817c.136.245.237.509.3.782l1.301 5.635m0 0 22.046 51.901c.185.435.264.914.231 1.385-2.055 29.611-4.313 47.627-16.147 87.839a3 3 0 0 0-.111.574c-1.068 11.424-.896 17.64 1.155 26.902a3.05 3.05 0 0 1-.351 2.219l-17.987 30.128m11.164-200.948-91.171-3.721-106.521-5.117-101.87-8.373m299.562 17.211 81.867 2.326h71.419a3 3 0 0 0 2.959-2.507l.978-5.866M789.655 410.546l174.071-44.098a3 3 0 0 1 .737-.092h7.293q.24 0 .478-.039l14.182-2.287m-196.761 46.516-95.357 24.188c-17.399 2.957-27.216 4.659-38.864-5.4a3 3 0 0 1-.381-.398c-14.225-17.952-23.66-31.244-44.484-63.976l-72.099-97.683-30.235-41.399c-7.714-8.326-9.243-15.714-6.978-33.491m0 0v-5.56c0-.323.052-.643.154-.949l1.707-5.12m-1.861 11.629-17.676-3.256c-35.989-7.337-54.779-12.641-84.193-25.584-24.185-13.638-30.699-19.266-42.33-29.305M40.75 297.978s-4.215 18.346-.93 33.956c3.73 11.804 8.165 18.193 23.533 28.71.124.085.262.165.398.23 6.326 3.045 6.543 3.184 10.49.83"/><path stroke="#fff" stroke-linejoin="round" stroke-width="2" d="M468.231 602.191c35.353-8.88 58.176-21.423 77.421-43.952 31.53-36.913 49.992-85.383 35.741-131.79-4.806-15.649-17.305-31.335-31.319-39.797-29.119-17.583-55.391-25.24-95.579-7.408-38.934 17.276-67.516 43.106-86.423 81.275-28.439 57.411 9.57 147.408 73.565 144.322 8.083-.389 16.883-1.331 26.594-2.65Z"/></svg>