<svg fill="none" viewBox="0 0 1005 650" xmlns="http://www.w3.org/2000/svg"><path stroke="#fff" stroke-width="2" d="M976.877 186.805c-36.249 14.864-55.334 18.139-89.31 23.723M251.232 75.167c-20.703 40.44-33.055 69.679-55.353 124.197M273.56 73.307l-49.772 126.057m434.922-93.031-30.235 20.932"/><path stroke="#fff" stroke-width="2" d="m837.795 233.786-38.357-33.735a3.073 3.073 0 0 0-.549-.384c-55.009-29.957-89.114-43.285-150.878-65.89l-81.403-27.909c-64.927-19.762-101.967-28.19-169.782-35.818-59.069-3.495-92.267-5.592-146.06 0C149.102 90.032 100.588 110.532 40.98 176.571m796.815 57.215H725.901a3 3 0 0 0-3 3v.784a3 3 0 0 0 .989 2.226l27.851 25.155c42.317 33.211 65.43 50.261 95.357 51.633 25.746-1.844 40.315-3.643 66.289-15.045.45-.198.852-.508 1.156-.895l12.823-16.361c.136-.173.291-.332.462-.471 6.489-5.276 11.403-7.689 20.209-11.883l8.645-5.619c.431-.281.793-.664 1.003-1.134.84-1.874.929-3.628-.251-7.804a2.893 2.893 0 0 0-.259-.625l-13.79-24.822c-3.408-4.59-5.696-5.46-10.233-5.117-37.764 3.384-58.928 5.268-95.357 6.978ZM494.043 95.971c-95.902-28.89-223.74-23.415-245.603-20.339-21.862 3.076-69.718 14.741-110.707 33.026-40.375 21.475-60.298 38.214-93.257 70.488a3.022 3.022 0 0 0-.852 2.739l3.969 19.841a2.27 2.27 0 0 0 2.225 1.825l168.852-4.187c95.81-4.308 159.962-5.666 230.253-12.559l14.885-1.677m30.235-89.157a339.735 339.735 0 0 1 18.607 6.175l2.325.735m-20.932-6.91-30.235 89.157m0 0 15.35-1.73m0 0 2.791-.314 33.026-3.722c48.882-9.11 68.273-14.007 86.211-22.186.205-.094.402-.213.581-.351 9.161-7.051 13.632-11.195 14.787-16.262.286-1.256-.53-2.458-1.729-2.929-39.133-15.368-61.599-22.671-99.85-34.753m-35.817 80.517 35.817-80.517m333.519 214.168-21.801 75.144a3.055 3.055 0 0 1-.155.416c-7.017 15.22-13.713 16.911-25.726 19.287-.151.03-.306.048-.46.055l-135.13 5.572-30.7-1.861"/><path stroke="#fff" stroke-width="2" d="M861.054 128.195C745.266 83.805 681.273 64.813 570.33 51.444c-66.149-6.86-101.138-7.48-162.805-7.443-68.61 1.046-106.666 4.39-153.036 11.164-40.593 10.598-68.613 18.41-93.962 29.02m700.527 44.01 70.014 19.474c.149.042.302.072.456.09l46.883 5.462c.522.06 1.029.26 1.441.586 11.078 8.768 4.805 19.009-4.366 36.254-2.315 5.427-2.973 9.951-.056 27.115.037.215.098.431.18.633l4.701 11.537c.191.471.261.985.199 1.49-.606 4.959-1.19 8.16-4.845 15.611a2.99 2.99 0 0 1-.444.663l-13.304 15.02a3.003 3.003 0 0 0-.744 2.239l2.585 31.021a3.04 3.04 0 0 0 .992 1.994c12.592 11.4 18.418 20.073 24.969 36.859.123.316.193.662.203 1 .61 20.857-2.211 30.001-7.458 45.998l-13.398 28.643a2.989 2.989 0 0 0-.155.407c-4.288 14.197-6.433 20.664-9.627 28.894a3.208 3.208 0 0 1-.184.389c-8.645 15.309-15.272 24.06-29.664 39.815-26.848 25.328-40.265 35.316-63.262 50.702-15.511 7.701-24.582 11.161-40.713 15.752a2.98 2.98 0 0 1-.449.092c-43.779 5.543-62.71 7.41-91.873 9.739h-31.402a3.013 3.013 0 0 1-2.817-1.968c-11.587-31.3-18.626-49.915-24.772-73.989a3.055 3.055 0 0 0-.239-.632c-15.769-30.843-24.449-48.333-48.686-75.052-21.556-23.086-34.503-33.098-58.61-47.446-26.946-14.247-40.589-16.522-64.657-19.536-23.663-.51-36.099 1.455-55.819 11.629-14.536 7.891-22.57 13.18-35.352 33.956-8.613 15.101-10.304 28.693-10.698 57.214.749 21.166 3.977 32.163 10.134 48.39.84 2.213-1.078 4.496-3.4 4.031l-3.598-.719a3.041 3.041 0 0 1-.665-.216l-39.949-18.367a2.907 2.907 0 0 0-.411-.154L249.372 439.85l-121.406-35.817-95.823-24.188-9.386-2.235a2.968 2.968 0 0 1-.728-.277l-5.701-3.07m844.726-246.068c.435 3.872-3.957 5.522-16.746 7.908-41.682 5.972-58.702 3.206-86.984-3.722l-98.149-26.048C599.636 88.6 566.414 79.171 508.93 68.19c-57.103-9.621-87.894-12.65-141.408-15.35-70.322 1.094-90.649 1.013-113.033 5.116-37.649 6.487-58.135 12.594-93.962 26.228M34.935 166.338c24.051-20.698 39.506-32.098 70.238-52.098 19.617-12.991 36.767-22.276 55.354-30.056"/><path stroke="#fff" stroke-width="2" d="m208.903 199.364-2.121 3.817a3.006 3.006 0 0 0-.3.782l-1.301 5.635m0 0-22.046 51.901a3.016 3.016 0 0 0-.231 1.385c2.055 29.611 4.313 47.627 16.147 87.839.055.185.093.382.111.574 1.068 11.424.896 17.64-1.155 26.902a3.047 3.047 0 0 0 .351 2.219l17.987 30.128m-11.164-200.948 91.171-3.721 106.521-5.117 101.87-8.373m-299.562 17.211-81.867 2.326H51.895a3 3 0 0 1-2.959-2.507l-.977-5.866m168.386 206.995L42.274 366.448a3 3 0 0 0-.737-.092h-7.293c-.16 0-.32-.013-.478-.039l-14.182-2.287m196.761 46.516 95.357 24.188c17.399 2.957 27.216 4.659 38.864-5.4.138-.119.268-.255.381-.398 14.225-17.952 23.66-31.244 44.484-63.976l72.099-97.683 30.235-41.399c7.714-8.326 9.243-15.714 6.978-33.491m0 0v-5.56c0-.323-.052-.643-.154-.949l-1.707-5.12m1.861 11.629 17.676-3.256c35.989-7.337 54.779-12.641 84.193-25.584 24.185-13.638 30.699-19.266 42.33-29.305M965.25 297.978s4.215 18.346.93 33.956c-3.73 11.804-8.165 18.193-23.533 28.71a3.025 3.025 0 0 1-.398.23c-6.326 3.045-6.543 3.184-10.49.83"/><path stroke="#fff" stroke-linejoin="round" stroke-width="2" d="M537.769 602.191c-35.353-8.88-58.176-21.423-77.421-43.952-31.53-36.913-49.992-85.383-35.741-131.79 4.806-15.649 17.305-31.335 31.319-39.797 29.119-17.583 55.391-25.24 95.579-7.408 38.934 17.276 67.516 43.106 86.423 81.275 28.439 57.411-9.57 147.408-73.565 144.322-8.083-.389-16.883-1.331-26.594-2.65Z"/></svg>