<svg fill="none" viewBox="0 0 1005 650" xmlns="http://www.w3.org/2000/svg"><path stroke="#fff" stroke-linejoin="round" stroke-width="2" d="m870.818 491.443 1.043-.369 1.948-.661.58-.191m-12.962 6.905-.065.034-.488.151-.784.184-1.253.294-1.657.385-1.994.455-2.265.505-2.468.536-2.762.578-3.147.636-3.626.707-4.197.792-4.701.855-5.135.899-5.354.896-.144.024-5.362.852-.426.068-5.369.803-.642.096-5.377.747-.792.111-5.385.684-.871.111-5.394.613-.879.1-5.402.539-.876.088-5.41.462-.862.074-5.415.384-.838.059-5.42.301-.803.045-5.423.243-.401.018-5.058.188-1.956.063-1.969.064-2.428.079-1.489.026-.774-.021-.049-.001-.208-.006-.078-.002-1.286-.09-2.019-.155-2.405-.188-2.441-.195-2.132-.172-1.478-.12-.968-.079-.599-.05-.373-.032-.285-.024-.184-.038"/><path stroke="#fff" stroke-linejoin="round" stroke-width="2" d="m778.39 510.44 5.408-.463.879-.075 5.402-.538.889-.089 5.394-.612.885-.101 5.386-.684.868-.11 5.377-.746.783-.109"/><path stroke="#fff" stroke-linejoin="round" stroke-width="2" d="M752.55 512.049h.002l.016-.001 2.816-.109 5.161-.204 5.424-.245.445-.02 5.421-.301.82-.045 5.415-.383.86-.061 5.408-.462.869-.074 5.402-.536.848-.085 5.394-.608.798-.09 5.386-.679.72-.091 5.377-.743.596-.082 5.37-.799.429-.064 5.362-.85.221-.035 5.326-.89 4.992-.874 4.583-.834 4.1-.775 3.542-.692 3.081-.624 2.707-.569 2.425-.527 2.229-.499 1.968-.45 1.638-.381 1.241-.291.776-.183.467-.154.484-.206.349-.148.224-.104.361-.198.035-.02m-.285.147.263-.141m-110.301 15.864 1.253-.884m-2.037 1.368.008-.005.777-.479-.775.478zm0 0-1.611.994m-17.105-3.825-.001.002-.067.128.004.145.057.243.108.381.158.557.209.725.262.884.314 1.032.37 1.174.408 1.163.43 1.006.449.783.121.2.522.558.231.101.756.217.309.024.411.032.459-.058 1.176-.205 1.727-.663 2.433-1.168 2.768-1.461.699-.384 1.426-.813m0 0 .727-.415.011-.007.627-.357-.749.431zm203.936-89.91.06-.166.19-.643.094-.319.045-.154.012-.055v-.004l.06-.278.001-.002m-90.248 49.775.781.106h.007l1.474-.076 1.852-.261 2.104-.416 2.244-.542 2.27-.641 2.28-.71 2.275-.747 2.254-.755 2.226-.7 1.628-.543.815-.272 13.3-4.614c7.26-2.614 11.336-4.036 18.458-7.6 7.854-4.118 12.249-6.404 20.63-11.944 4.895-3.549 7.465-6.064 11.672-11.672 2.208-3.379 3.068-5.17 3.8-8.143m-51.362 19.678-2.623 1.035-1.346.506-1.297.487-.305.114-.228.081-1.28.457-1.571.56-3.235 1.096-2.057.67M37.778 417.318l.138.01 4.4.313 4.935.418 5.193.491 5.306.544 5.273.573 5.09.582 5.03.602 5.092.638 5.281.685 5.381.717.218.029 5.379.729.624.085 5.379.737 1.123.154 5.379.738 1.716.236 5.379.736 2.406.329 5.379.735 2.969.405 5.379.734 3.402.465 5.379.733 3.702.505 5.379.733 3.863.527 5.379.736 4.07.557 5.378.742 4.326.597 5.377.75 4.631.645 5.376.76 4.988.705 5.374.767 5.286.754 5.374.771 5.373.771.148.022 5.374.774 5.373.773.323.047 5.373.773 5.374.774.43.062 5.373.773 5.373.774.539.078 5.374.773 5.373.774.649.094 5.373.773 5.374.774.761.11 5.374.773 5.373.774.876.126 5.373.773 5.373.774.936.135 5.373.773 5.374.774.939.136 5.373.773 5.374.774.885.127 5.373.774 5.374.774.77.11 5.374.774 5.373.773.708.103 5.373.773 5.374.774.701.101 5.374.773 5.373.775.752.108 5.373.773 5.374.774.86.124 5.374.774 5.373.774.915.132 5.374.774 5.373.775.915.132 5.373.775 5.373.776.855.124 5.373.777 5.373.777.734.106 5.373.779 5.373.778.21.03 5.373.78 4.639.673 5.372.78 3.266.475 5.372.781 1.456.212 5.342.79 4.188.649 3.379.569 2.92.552 2.47.512 2.03.447 1.598.358 1.176.244.98.174 1.012.15 1.27.171 1.76.236 2.005.269 2.009.27 1.765.236 1.275.172.833.066.814.004 1.022-.179m1.834-.496-1.394.382-.44.114 1.341-.346 1.771-.497 1.978-.576 1.972-.585 1.749-.523 1.318-.394 1.085-.444.933-.392.951-.632.994-.809.587-.57 1.14-1.105 1.028-1.147"/><path stroke="#fff" stroke-linejoin="round" stroke-width="2" d="m28.606 417.099.41-.005.23-.003 2.12-.025 3.442.097 2.587.138.521.027M28 417.21l1.246-.118m455.401 34.021.498.079.79.148.411.135.186.168.118.249.068.387.04.583.032.836.044 1.144.077 1.437.093 1.169.042.543.214 1.969.317 2.207.406 2.328.485 2.331.55 2.216.606 1.984.074.212.535 1.512.532 1.354.032.082.47 1.12.327.779.193.503 1.795 4.318m-5.075-256.61.083-.055.033-.027.021-.065-.035-.076-.273-.203-.687-.445-1.261-.8-1.995-1.263-2.829-1.855-3.199-2.188-.098-.068-.467-.319-.698-.498-3.975-2.831-.089-.063-.033-.024-1.03-.762-.114-.085-4.364-3.229-.408-.301-4.34-3.262-2.693-2.024-4.334-3.269-3.805-2.869-4.341-3.26-3.107-2.333-.583-.439-.431-.323-.128-.095-.642-.483-4.356-3.24-.265-.197-1.753-1.305-.021-.015-.208-.154-.807-.601-2.897-2.155-.786-.576-1.967-1.44-2.149-1.574-4.379-3.209-1.861-1.362-3.196-2.293-4.411-3.165-4.136-2.967-4.451-3.108-4.452-3.108-3.22-2.249-3.649-2.462-.054-.036-4.004-2.702-3.902-2.633-.679-.457-.422-.275-4.551-2.96-4.551-2.96-2.668-1.735-4.607-2.873-4.606-2.873-2.637-1.645-4.606-2.731-.255-.152-4.67-2.769-1.741-1.032-4.746-2.636-4.745-2.636-.977-.543-4.824-2.491-4.823-2.492-.183-.093-4.898-2.341-2.435-1.163-2.012-.961-4.967-2.19-.874-.386-3.17-1.398-5.026-2.051-3.795-1.548-.063-.025-1.455-.546-.063-.024-.222-.083-1.222-.46-5.082-1.909-.327-.123-.035-.013-.162-.061-.031-.012-.129-.044-.074-.026-.055-.019-2.307-.792-.07-.023-1.848-.635-.023-.008-3.834-1.317-.155-.047-5.184-1.61-.207-.065-2.506-.778-1.036-.287-.834-.23-1.531-.424-.783-.217-.839-.232-2.707-.75-.533-.129h-.001l-5.276-1.28-1.842-.448-1.624-.343-1.734-.367-4.449-.94-5.337-.992-2.852-.529-5.356-.89-3.436-.573-5.37-.792-3.781-.557-5.385-.688-3.891-.497-.207-.021-5.399-.57-3.569-.377-5.412-.43-2.723-.216-.72-.057-5.42-.306-3.144-.177-5.425-.203-2.874-.107-4.956-.112-.362-.008-2.742-.062-4.359-.055-3.488-.043h-.238l-3.919.006-1.098.002h-1.129l-.789.002h-.603l-5.006.093-2.837.052-5.425.203-2.514.094-.105.005-.117.005-4.476.257-1.998.115-1.898.109-4.369.332-1.233.094-2.979.225-5.33.5-3.341.312-5.395.6-2.752.307-.499.056-5.384.698-3.127.405-5.37.798-3 .447-.136.022m-1.395.235-5.354.9-1.338.225-.132.025"/><path stroke="#fff" stroke-linejoin="round" stroke-width="2" d="m83.826 89.567.3-.051 5.352-.908.721-.123.315-.053.243-.042.066-.01.221-.038.08-.014h.007l.005-.002.243-.04.485-.083.158-.026.186-.032.2-.033.175-.03m0 0 .018-.003.174-.028zm349.662 133.281.561.581 2.22 2.297 1.604 1.66 1.014 1.049.577.58.062.054.231.198.015.007.14.064.005.003.022.005.159.043.093.01.512.038.423.014.124.005.22.007.33.012.083.002 1.874.052 3.092.086 2.629.048 1.188.021 1.373.002.437.001 2.32.003.81-.021 3.22-.085M295.036 117.207l4.974 2.177 3.916 1.714 4.918 2.3 4.328 2.024 4.849 2.44 4.786 2.408 4.771 2.59 4.771 2.591.521.283 4.683 2.747 4.619 2.71 1.228.72 4.602 2.88 4.602 2.88 1.614 1.01 3.172 2.102 4.526 2.999 3.222 2.136 3.344 2.339 4.448 3.113 3.033 2.122 4.367 3.225.929.686.222.164 3.916 2.891 1.092.807 4.289 3.328 4.29 3.328 1.431 1.11 1.279 1.043 2.192 1.784.459.374.173.141.56.456.102.083.142.116 4.21 3.428.151.123 1.266 1.084.147.127.38.325.473.406 4.123 3.532 1.908 1.635 4.017 3.652.71.646 2.362 2.147 3.916 3.76 2.087 2.004 3.829 3.849 1.214 1.221 3.773 3.904.444.459 2.23 2.308 3.903 4.041"/><path stroke="#fff" stroke-linejoin="round" stroke-width="2" d="m464.363 228.183 3.328-.08.144-.005.197-.005.236-.006.264-.006 1.592-.032M91.136 88.326l-5.353.902-1.227.207-.168.03"/><path stroke="#fff" stroke-linejoin="round" stroke-width="2" d="m90.88 88.37-5.353.903-1.074.181-.065.011-.189.034m-.191.035-.182.033-.153.028-5.335 1.01-1.45.275-1.118.212"/><path stroke="#fff" stroke-linejoin="round" stroke-width="2" d="m76.888 90.88-.939.177-.179.034-.152.03-5.314 1.11-2.602.545-5.292 1.21-2.509.574-5.27 1.306-2.439.605-5.245 1.398-2.395.638-5.22 1.485m51.799-11.664-.011.001-.24.04-.752.128-5.353.905-.428.072-.147.025-.193.035.223-.038h.001l5.353-.906.684-.117.46-.078.095-.015m549.963 88.98-4.073-2.461-4.676-2.76-4.675-2.759-.621-.366-.02-.011-4.702-2.714-4.703-2.713-1.439-.83-4.734-2.658-4.734-2.657-2.057-1.155-4.768-2.596-4.768-2.596-2.448-1.333-4.806-2.525-4.806-2.525-2.614-1.374-4.843-2.453-4.842-2.454-2.518-1.275-4.881-2.376-4.391-2.137"/><path stroke="#fff" stroke-linejoin="round" stroke-width="2" d="m567.827 137.092-4.881-2.377-4.279-2.084-2.777-1.353-4.924-2.288-4.923-2.287-1.548-.72-4.974-2.177-4.973-2.177-.656-.288-.126-.053-5.023-2.061-4.933-2.024-5.071-1.941-4.376-1.674-5.113-1.824-3.962-1.412-5.151-1.717-3.689-1.229-5.187-1.604-3.397-1.05-.122-.037-5.221-1.485-3.085-.878-5.256-1.359-2.748-.711-5.29-1.222-.914-.212m188.043 86.119 3.428 2.115 3.158 1.948.819.504 4.624 2.846 4.299 2.584 3.288 1.925 2.408 1.371 1.663.924 1.053.586.579.33.242.157.958.521c6.59 3.087 10.268 3.77 16.829 4.886"/><path stroke="#fff" stroke-linejoin="round" stroke-width="2" d="m656.699 187.082-3.407-2.108-4.629-2.837-3.091-1.894-4.65-2.802-.136-.081-4.071-2.453m195.212 56.78-4.144-1.429-5.17-1.656-4.016-1.286-5.209-1.527-4.107-1.203-5.249-1.386-4.375-1.155-5.284-1.244-4.816-1.134-5.314-1.109-5.315-1.108-.109-.023-5.337-.996-5.337-.996-.471-.088-5.354-.897-5.354-.898-.619-.104-5.368-.807-5.369-.808-.558-.084-5.38-.725-5.381-.726-.641-.087-5.388-.671-5.137-.639-5.392-.628-4.233-.493-.94-.11m-2.253-.196-2.761-.392-.02-.004-1.438-.204-.262-.037-1.143-.163-.328-.046-1.385-.197-2.241-.318-.848-.12-.279-.043-3.435-.518-2.811-.439-1.95-.326-.941-.181-.023-.005-.454-.088"/><path stroke="#fff" stroke-linejoin="round" stroke-width="2" d="m711.534 207.594-2.411-.327-.038-.005-.919-.125-.861-.117-1.491-.203-2.843-.386m9.772 1.262-.182-.023-3.814-.471"/><path stroke="#fff" stroke-linejoin="round" stroke-width="2" d="m712.217 207.649-1.485-.192-.071-.01-1.914-.248-2.933-.381m208.611 57.226-.141-.1-2.077-1.463-1.81-1.24-2.503-1.744-1.199-.833-3.112-2.063-.566-.37-3.514-2.166-4.017-2.207-4.513-2.227-5.002-2.228-5.035-2.029-.516-.208-5.098-1.868-1.06-.388-5.154-1.704-1.713-.566-5.205-1.544-2.473-.734-5.247-1.394-3.337-.887-.462-.117-5.28-1.263-4.328-1.035-5.306-1.149-3.83-.829m87.9 36.033-1.052-.722-1.287-.885-1.217-.821-1.986-1.349"/><path stroke="#fff" stroke-linejoin="round" stroke-width="2" d="m945.998 291.532.029-.032.149-.156.004-.005.054-.08.007-.067-.006-.013-.11-.119-.302-.24-.563-.426-.242-.183-.02-.016-.027-.02-.603-.457-1.209-.965-1.512-1.291-1.797-1.653-2.065-2.05-2.217-2.271-2.215-2.283-.036-.037-2.179-2.204-1.999-1.927-1.924-1.734-1.951-1.62-2.078-1.587-.072-.055-.276-.207-2.305-1.643-1.758-1.192"/><path stroke="#fff" stroke-linejoin="round" stroke-width="2" d="m946.241 291.191-.056.041-.077.042-.05.028-.211.104-.138.056-.032.014-.164.067-.013.005-.125.043-.197.068-.161.056-.698.209-.42.111-.236.062-.16.042-.072.019-.055.014-.158.039-.889.22-.113.027-.246.059-.025.006-.027.006-.082.02-.245.058-.191.046-.082.02-.093.022h-.001l-.097.023-.036.009-.069.016-.095.022-.06.014-.284.068-.063.015-.038.009-.055.013-.014.004-.109.027-.074.018-.053.013-.152.037-.052.013-.004.001h-.002m-444.196-65.588-1.627-.588-.011-.003-.116-.043-1.507-.635-.026-.013-1.207-.574-.793-.409-.1-.051-.045-.023-.225-.12-.399-.212-.394-.215-.21-.111-.113-.051-.093-.025-.482-.214"/><path stroke="#fff" stroke-linejoin="round" stroke-width="2" d="m875.931 321.635.005-.032.012-.07-.006-.03-.006-.032-.038-.066-.052-.023-.298-.129-.675-.245-.265-.096-.887-.311-.91-.32-.221-.078-.212-.074-.001-.001-.424-.148-.586-.206-1.473-.518-.496-.177-.514-.184-.433-.154-.24-.086-.477-.171-.375-.133-1.281-.458-.845-.31-.615-.225-.393-.144-.046-.017-.156-.058-.988-.361-.313-.115-1.132-.415-1.267-.481-.376-.143-.023-.008-.69-.262-.679-.257-1.9-.721-2.889-1.143-.097-.038-1.1-.436-.083-.033-.984-.389-3.528-1.429-.404-.163-.117-.047-.997-.404-.069-.028-.059-.024-.445-.18-2.277-.927-.05-.02-.009-.003-.452-.185-.418-.169-.025-.011-.031-.012-.095-.039-.06-.024-2.921-1.189-.577-.232-4.127-1.667-2.602-1.05-3.664-1.456-4.864-1.933-5.056-1.977-3.178-1.243-.187-.073-.006-.002-.005-.002-.204-.08-.126-.049-.05-.019-.608-.238-5.069-1.945-3.28-1.259-1.633-.627-.23-.087-5.082-1.907-1.28-.48-.254-.096-3.232-1.212-.134-.051-.936-.341-.338-.123-5.1-1.86-3.735-1.363-5.125-1.793-5.163-1.807-5.044-1.677-.3-.1-.013-.004-.53-.176-.09-.03-.461-.153-.609-.203-2.437-.81-.384-.128-.38-.126-.364-.121-.132-.044-.973-.306-.061-.019-.151-.047-.746-.234-.06-.019-.134-.042-.06-.019-.412-.129-.119-.037-.02-.007-.174-.054-.158-.05-.095-.03-.105-.032-.093-.03-.067-.021-.082-.025-.065-.021-.014-.004-.025-.008-.222-.07-.123-.039-.078-.024-.015-.005-.043-.013-.054-.017-.095-.03-.26-.082-.318-.099-.017-.005-.25-.079-.175-.055-.068-.021-.324-.102-.212-.067-5.18-1.625-.429-.135-3.982-1.176-.441-.131-5.207-1.538-1.647-.487-1.208-.356-5.12-1.434-5.228-1.463-2.871-.803-5.246-1.394-5.247-1.394-3.19-.847-5.265-1.326-5.264-1.326-3.352-.844-5.281-1.256-5.282-1.256-3.252-.773-.137-.03-4.243-.939-.573-.127-.744-.164-5.301-1.174-3.101-.685-1.976-.402-5.32-1.081-5.32-1.082-1.706-.347-5.338-.986-5.339-.987-4.208-.777-5.356-.892-5.355-.891-4.937-.823-5.367-.822-4.656-.713-5.366-.822-.785-.121-5.373-.772-.556-.08-5.374-.772-5.039-.725-.124-.018-5.378-.741-1.381-.191-.675-.093-4.592-.633-.765-.105-1.968-.272-1.662-.229h-.003l-5.38-.726-2.474-.334-2.031-.274-.087-.012-.043-.005-3.669-.495-1.406-.19-1.309-.177-3.481-.461-3.993-.53-3.061-.407-1.29-.171-.134-.018-.093-.011-.065-.009-.129-.018-3.117-.413-.881-.116-5.383-.706-5.383-.706-1.808-.237-1.53-.199-2.002-.261-.141-.018-4.026-.524-2.997-.391-.514-.066-5.252-.684-1.336-.175-4.463-.594-2.546-.366-.215-.03-.574-.097-.235-.04-.135-.023-.066-.01-.068-.012-.182-.031-.722-.121-2.123-.403-.348-.074-1.821-.391-.399-.099-1.725-.427-1.97-.576-.017-.005m84.012 83.148.086-.003 5.426-.177 2.253-.074 5.426.169 2.511.077 5.409.463 2.429.208 5.378.733 2.082.284 2.458.465 4.344.822 5.264 1.328.356.09.236.059 4.651 1.444.226.07 1.505.544 2.362.854 1.138.453.866.345.606.241.217.087.218.087.184.073.445.177.789.315.124.05.439.164.529.198.142.034.065.015.242.059.095-.01.179-.042.099-.023m-188.662-92.166-.081.01-.368.046-.293.036-.194.025-.102.017-.057.026-.015.013-.007.036.029.045.048.051.047.049.12.16.262.38.478.71.135.202.374.563.036.055.057.084.164.248.43.665.494.767.952 1.553.849 1.51.616 1.307.399 1.213.204 1.237.005.256.007.408.001.035.012.674-.133 1.626-.231 1.7-.268 1.594-.241 1.303-.154.829-.113.747-.12 1.057-.175 1.763-.278 2.866-.358 3.683-.417 4.212-.454 4.451-.467 4.395-.449 4.091-.395 3.539-.311 2.74-.191 1.69-.098.932-.031.464.011.285.028.398.037.45.039.442.037.371.025.241-.007.301-.062.555-.137.998-.237 1.636-.285 1.958-.279 1.903-.009.063-.241 1.658-.147 1.035-.093 1.026-.084 1.633-.104 2.544-.012.31-.19 4.691-.217 5.424-.025.65-.21 5.425-.061 1.582-.201 5.425-.039 1.049-.037 1.012-.015.434-.188 5.426-.057 1.655-.092 2.784-.017.504-.005.168-.014.419-.12 3.652-.065 2.03-.012.354-.164 5.136-.019.59-.172 5.426-.047 1.482-.054 1.679-.038 1.186-.052 1.602-.036 1.118-.06 1.871-.039 1.243-.173 5.426-.006.206-.018.546-.165 5.427-.019.608-.041 1.356-.153 5.427-.055 1.937-.111 4.412-.074 2.929-.12 5.427-.041 1.87-.103 5.428-.034 1.808-.084 5.428-.016 1.053-.011.672-.062 5.142-.024 1.91-.052 5.429-.011 1.129-.042 5.429-.002.248-.029 4.412-.019 2.766.003 1.511.002.024.026.456.009.161.074.177.011.01.109.107.041.028.407.11.899.142 1.609.222 2.536.352 3.127.451 3.379.515 3.291.548 2.858.546 2.414.515 1.957.453 1.49.359 1.009.233.816.167.914.158 1.3.206 1.979.315 2.322.369 2.329.37 1.994.318.081.013 1.239.196.791.107.413.008.12-.026.19-.075.288-.113.249-.097.112-.044.409-.161.434-.17"/><path stroke="#fff" stroke-linejoin="round" stroke-width="2" d="m564.752 312.715.298-.054 5.34-.979 1.869-.342 5.4-.563 2.193-.228"/><path stroke="#fff" stroke-linejoin="round" stroke-width="2" d="m485.601 450.74.191-.088.119-.177.045-.625-.029-1.429-.103-2.593-.178-4.119-.152-5.307-.022-5.428-.004-.725.164-5.426.037-1.233.421-5.412.11-1.408.359-3.028.454-3.831.759-4.901.291-1.874 1.006-5.335.232-1.228.13-.586 1.175-5.3.075-.34 1.4-5.245.202-.753.459-1.421 1.444-4.466.741-1.91 1.546-3.98.71-1.55 1.401-3.058.643-1.403 1.023-1.926.257-.483 1.931-3.633 2.833-4.632.826-1.352 3.122-4.441.977-1.39.462-.571 2.059-2.539.295-.364.156-.193 1.556-1.919 3.715-3.958 1.264-1.345 4.007-3.664 1.444-1.321 4.285-3.334 1.661-1.293 4.543-2.973 1.92-1.257 4.76-2.611 2.112-1.159 2.26-1.023 4.907-2.222 5.106-1.845 2.242-.809 5.243-1.411.857-.231m-104.255-84.461.4.007 1.919.038 3.315-.012 3.183-.13.512-.055 11.784-2.299 6.786-1.628m386.984 97.442-.1.088-.151.134-.021.019-.415.387-.533.481-.4.336-.194.162-.03.025-.301.224-.389.288-.026.017-.702.431-.717.378-.658.309-.042.018-.508.216-.395.161-.157.059-.116.044-.19.066m-704.67-114.855-.122.064-.016.015-.081.08-.087.185-.091.334-.119.528-.17.77-.237 1.016-.317 1.266-.413 1.521-.523 1.782-.631 2.087-.738 2.438-.841 2.836-.942 3.28-.996 3.618-1 3.854-.957 3.982-.862 4.003-.747 3.77-.43 2.316-.032.173-.035.192-.112.603-.448 2.545-.266 1.553-.098 1.198.057 1.483.198 2.408.322 3.973.255 3.063.174 2.097.466 5.409.048.564.49 5.406.09 1.002.522 5.404.104 1.066.544 5.401.105 1.048.385 3.738.24 2.327.029.284.196 1.895.036.351.199 1.922.206 2 .547 5.401.052.508.539 5.402.015.152.504 5.104.361 3.675.087.884.038.385.024.239.323 3.298.201 2.042.021.21.107 1.096.006.055.295 3.002.164 1.656.105 1.064.022.222.232 2.333.182 2.599.052 2.851-.134 3.311-.094.989-.284 2.992-.516 4.178-.547 3.902-.474 3.15-.043.281-.249 1.64-.078 1.244.169 1.116.45 1.539.763 2.513.996 3.238 1.149 3.715 1.225 3.949 1.223 3.94.158.511.988 3.185.999 3.223.781 2.52.492 1.587.084.258.151.461.049.152.121.28.037.087.106.09.126.035.706.143 1.989.311 3.898.587 5.369.809 1.083.162 5.368.808 2.972.448 5.368.807 4.185.629 5.368.807 4.706.707 5.369.806 4.513.677 5.369.805 4.482.673 5.369.804 4.622.693 5.369.804 4.935.739 5.369.805 5.43.814 5.369.804 5.369.804.416.063 5.368.804 5.369.804.626.093 5.368.805 5.369.804.684.103 5.369.804 5.369.804.584.088 5.369.804 5.37.804.672.101 5.369.804 5.369.804.955.144 5.369.804 5.369.804 1.438.215 5.368.804 5.369.804 2.131.319 5.369.805 5.368.804 2.253.338 5.368.806 5.37.805 1.778.267 5.368.808 5.368.808.685.103 5.368.811 4.319.652 5.368.815 2.752.418 5.367.817 1.363.208 5.366.819.16.025 4.517.69 3.671.561 2.991.457 2.481.379 2.141.329 1.798.275 1.45.223 1.097.169.743.114.461.056.254-.006.167-.014.225-.066.292-.108.126-.046M42.08 107.428l5.208-1.53 1.172-.323 5.233-1.446 1.218-.308 5.262-1.334 1.525-.347 5.294-1.205 2.108-.427 5.32-1.078 2.562-.463L82.324 98l2.88-.466 5.359-.865.373-.058 3.058-.437 5.374-.767 3.088-.382 5.388-.667 3.032-.318 5.4-.566 2.888-.246 5.41-.462 2.653-.172 5.417-.35.579-.027 1.159-.049 1.164-.048 5.424-.227 2.113-.042 5.428-.107 2.173.001 5.279.003.664.002c59.084.873 81.586 5.729 116 16.736 15.002 5.454 23.831 9.244 39.902 16.558"/><path stroke="#fff" stroke-linejoin="round" stroke-width="2" d="m243.34 104.547-1.293-.274-3.686-.784-.974-.206-1.393-.296-.585-.124-1.383-.247-.634-.113-3.478-.62-2.682-.478-3.111-.47-5.368-.812-3.246-.419-5.385-.693-2.997-.328-5.397-.59-.245-.028c-21.843-1.639-31.327-1.825-45.848-1.52-45.624.06-70.443 4.449-114.006 16.286"/><path stroke="#fff" stroke-linejoin="round" stroke-width="2" d="m243.126 104.493.213.053 4.798 1.21 3.073.774.48.142 5.208 1.535.832.246.188.055.013.004.719.212.854.252 4.872 1.647.788.267.043.014.002.001 2.981 1.009 5.083 1.906 3.929 1.474 5.028 2.047 4.24 1.727 4.977 2.168 4.474 1.95 4.93 2.273 4.628 2.135 4.876 2.388 4.767 2.336 4.811 2.514 4.888 2.553 4.739 2.647 4.74 2.647.25.14 4.658 2.789 1.823 1.093 3.251 1.946 4.574 2.924 4.575 2.924.605.386 3.29 2.234 4.491 3.05 2.013 1.367 4.409 3.168 1.257.903 3.13 2.249 1.059.76 1.473 1.115 2.563 1.941.047.036.054.04 1.252.948 2.219 1.68.28.212 2.048 1.55 4.249 3.378 1.622 1.29.59.469.18.143.571.454 1.218.968 1.345 1.07 3.156 2.636.187.157.39.325.45.376 4.166 3.48.958.801"/><path stroke="#fff" stroke-linejoin="round" stroke-width="2" d="m402.666 191.648.037.033 4.071 3.592 4.07 3.592.527.465 3.952 3.72 3.823 3.6 1.783 1.769 3.853 3.825 1.049 1.042 3.773 3.904 1.66 1.718 3.717 3.957.299.319 2.443 2.6 1.297 1.325.216.168.372.291.15.018.301.019.439.028.25.018h.005l.249.02.19.016.393.028.265.012.231.017.328.015.04.001.37.012.116.004.06.002"/><path stroke="#fff" stroke-linejoin="round" stroke-width="2" d="m448.696 227.861-.232.033-.509.054-.441.03-.225.012-.31-.005-.299-.009-.435-.026-.655-.036-.771-.042-.781-.041-.688-.036-.354-.018-.06-.003-.076-.003-.362-.019-.049-.003-.258-.016-.323-.021-.409-.022-.456-.027h-.01l-.244-.015-.25-.015m6.734.342.281.003"/><path stroke="#fff" stroke-linejoin="round" stroke-width="2" d="m447.989 227.9-.452.045-.304.03-.254.01m.703-.032.345-.026.474-.051.168-.024m253.695-21.23-.038-.009-.254-.061-.627-.15-.699-.146-.766-.151-.783-.118-.745-.091-.656-.065-.513-.046-.317-.03-.166-.012-.057.011-.076.024-.048.051-.027.097-.01.162-.003.237-.003.214-.002.11-.005.387-.006.432-.006.452"/><path stroke="#fff" stroke-linejoin="round" stroke-width="2" d="m926.831 283.678-.196-.14-.6-.432-.524-.377-.566-.407-2.149-1.506-1.188-.831-.129-.088-.402-.273-3.234-2.199-4.332-2.856-4.571-2.93-.462-.297-4.608-2.869-.512-.319-.051-.032-.435-.271-4.649-2.804-.12-.072-1.288-.777-1.34-.779-3.299-1.918-.399-.232-1.3-.757-.05-.029-3.114-1.735-1.491-.831-1.997-1.112-4.801-2.537-2.072-1.095-4.863-2.413-2.333-1.158-4.928-2.277-2.643-1.222-4.992-2.132-3.002-1.282-5.046-2.002-3.323-1.317-5.092-1.882-3.602-1.332-5.131-1.773-3.841-1.326-5.165-1.67-4.037-1.305-5.202-1.551-2.732-.815-.015-.005-.076-.022-.03-.009-.103-.031-.053-.016-.066-.019-.071-.021-.011-.004-.071-.021-.021-.006-.136-.041-.052-.015-.091-.028-.795-.237-5.24-1.423-4.699-1.276-5.273-1.288-5.163-1.261-5.306-1.15-5.305-1.15-.406-.088-5.327-1.048-5.326-1.048-.77-.151-5.341-.974-5.341-.973-.978-.178-5.351-.922-5.35-.921-1.039-.18-5.355-.889-5.355-.891-.955-.158-5.359-.868-5.359-.868-.148-.024-5.361-.854-3.974-.632-5.361-.851-1.816-.288-2.099-.335m230.835 81.581-.087-.065-.136-.101-.002-.001-.088-.066-.135-.1-.064-.048-.022-.016-.029-.021-.107-.08-.167-.124-.182-.135-.017-.013-.073-.054-.174-.129-.051-.038-.036-.027-.014-.01-.017-.012-.017-.013-.04-.03-.548-.407-2.907-2.128-.076-.055-.559-.402-.399-.287-.061-.044-.068-.049m6.076 4.455.028.021.011.007.195.146.007.005.233.173.009.007.052.037v.001l.002.002.016.011.107.08.012.009.008.005.018.014.054.04.009.006.217.163.028.021.073.055.014.011.383.286.007.005.035.027.026.02.056.042.069.051.029.021.041.032.069.051.028.022.081.06.116.087.138.104.038.028.271.203.019.014.053.04.119.089.009.006.013.011.106.078.119.09.009.006.014.011.002.002.002.001.016.013.22.163.033.026.142.106.162.122.007.005.017.013.024.018.036.027.086.065.04.03.087.065.008.007.037.027.012.009.048.036.111.083.015.011.175.133.011.008.053.04.303.228.093.07.005.003.028.022.003.002h.001l.042.032.019.014.005.004.014.011.113.085.177.133.033.025.048.035.029.022.029.023.009.006.182.137.142.106.019.014.076.057.021.017.045.034.003.002.047.035.013.01.012.009.185.139.054.041.055.041.054.04.014.011.063.047.206.155h.001l.053.04.049.036.103.078.026.019.063.048.005.004.079.059.139.104.057.043h.001l.025.019.012.009.004.004.006.004.018.013.064.049.14.104.039.03.061.046.012.008.165.124.008.006.026.019.022.017.04.03.093.07.122.091.101.076.006.004.063.048.035.026.111.084.035.027.071.053.007.005.033.025.018.014.131.099.051.039.007.004.041.032.107.081.164.124.029.021.061.047.013.009.005.005.038.028.012.009.032.024.09.069.068.051.088.067.038.028.011.008.126.095.187.142.032.024.039.029.039.03.014.011.034.025.044.034.088.066.024.018.136.103.023.018.013.009.024.018.079.062.187.143.043.034.035.027.02.015.004.003.043.033.042.033.082.063.015.011.152.118.002.001.032.025.093.072.071.054.089.069.062.048.027.021.007.005.041.031.001.002.035.027.079.06.071.055.085.066.017.013.033.026.117.089.089.069.08.062.003.002.013.01.015.012.014.011h.001l.033.026.049.038.019.014.003.002.031.026.103.082.01.007.028.023.034.027.008.007.166.133.007.006.062.049.028.023.028.022.012.01.007.006.019.015.141.113.038.03.039.031.031.025.03.024.014.011.054.043.081.065.054.044.033.026.023.019.004.003.027.022.011.008.015.012.094.075.075.06.009.008.03.024.001.001.013.01.08.064.096.077.019.016.071.056.003.003.028.022.005.004.008.007.012.01.008.006.004.004.065.055.028.025.077.065.013.011.061.052.026.021.037.032.193.165.11.094.033.027.322.276.455.387.761.71.233.217.085.08.098.091.043.041.998 1.063.775 1.002.063.092.555.958.35.917.037.106.165.88.016.143-.001.201-.002.847-.01.281-.013.384c-.272 1.312-.542 1.947-1.097 2.777M696.673 207.937l-.079-.012-.037-.005.037.004.006.001.161.017.319.031.515.048.659.068.749.093.783.122.766.155.743.187.155.046.562.17.688.243.654.269.576.306-1.067.598-6.786 1.629-17.101 2.443-21.172 3.257-49.131 6.515c-28.958 3.311-45.444 4.492-75.19 5.7 0 0-17.915.814-17.915 1.086m181.026-22.983v-.001M185.61 237.817l-.815-.524-.993-.355-1.238-.257-1.547-.23-1.285-.183-.459-.065-.174-.025-2.019-.231-1.852-.107-.837.061-.046.003-.535.038-.718.395.092.018.1.006.071-.011"/><path stroke="#fff" stroke-linejoin="round" stroke-width="2" d="m184.779 237.335.027.017.78.502.697.763.612.881.559.871.529.733.53.467.038.032.924.317 1.709.281 2.736.342.157.019 4.48.56.518.065.102.013.173.021.161.02.212.027.173.021.589.074.027.003.065.009.078.009.304.038.009.001.324.041.126.016.125.016.129.015.129.017.187.023.018.002.047.006.213.027.146.018.499.062.039.005.132.017.331.041.312.039.07.009.017.002.062.008.036.004.342.043.013.001.065.009.199.025.251.031.366.046.084.01.17.022.925.115.279.035.184.023.295.037.021.002.081.01.403.051.697.087.153.019.043.006.622.077.163.02.245.031.036.005.431.054.068.009.068.008.501.063.071.008.498.063.045.005.107.014.99.124.284.035.103.013.397.05.051.006.037.005.39.049.07.009.298.037.793.1 1.113.14.481.06.148.018.113.014.362.046.192.024 2.013.289.072.016.422.093.154.034.417.091.063.014.523.266"/><path stroke="#fff" stroke-linejoin="round" stroke-width="2" d="m188.513 241.568.92.316 1.707.28 2.796.349.093.011 4.479.559.635.079.094.012.514.064.726.091.269.033.326.041.293.037.465.058.212.026.074.009.141.018.189.024.53.066.74.092.107.013.037.005.486.061.209.026.239.03.418.052.182.023.035.004 1.693.212.128.016.353.044.887.111.601.075.122.016.813.102.106.013.498.063.694.086.99.125.866.108.061.008.434.054.187.024.044.005m6.941 1.207-.564-.297-.009-.003-.409-.094-.727-.167m1.683.594.001.002.286.39.085.478-.053.546-.125.596-.04.189-.092.437-.031.1-.111.351-.033.104-.014.046-.296.514-.002.003m-46.407-14.019.113-.007.687-.041.123-.008.475-.028 1.828.121 1.993.242.071.01.46.067 1.36.199 1.522.223 1.216.247.969.341"/><path stroke="#fff" stroke-linejoin="round" stroke-width="2" d="m220.398 250.002-.213.174-.2.164-.428.112-.233.061m-45.222-14.535-.149.054-.599.317-.095.051-.039.042-.153.63.234.875.013.035.468 1.082.4.908.168.379"/><path stroke="#fff" stroke-linejoin="round" stroke-width="2" d="m174.183 239.973.17.386.656 1.372.719 1.286.762 1.056.828.716 1.022.423 1.489.291 2.181.285 3.105.405 3.813.498 1.284.167.137.018.215.028.513.067.111.014.071.01.03.003.06.009.313.04.043.006.086.011.421.055.038.005.042.005.404.053.1.013.436.057.556.072.262.034.299.039.076.01.026.003.18.024.24.031.18.024.143.018.517.067.521.068.582.076.264.034.314.041.149.02.246.032.021.002 1.053.137.151.019.156.021.137.017.18.024.421.054.716.093 1.261.164.552.072h.006l.013.002.321.042.527.068.632.082.986.128 1.273.165.133.017.12.015.039.005.25.033.136.018.354.045.049.007.104.013 1.626.211.264.034 1.601.207.471.061.791.103.824.107 1.226.158 2.376.308 1.618.169.186.011 1.042.009.154-.013m228.692-22.531-11.943-.321h-3.8l-4.886-.494h-14.115l-10.315-.543m-93.047.734-.825-.079-1.327-.132-5.402-.537-5.402-.537-.787-.078-5.4-.56-5.399-.56-1.756-.182-1.971-.214-5.05-.55-.461-.05-1.839-.2-.421-.046-2.087-.227-5.394-.611-5.395-.61-.453-.051-5.391-.629-5.393-.629-5.391-.641-5.065-.602-5.391-.646-4.287-.513-.573-.069-5.389-.65-4.643-.559-5.39-.653-4.416-.535-5.389-.654-4.179-.507-5.39-.656-3.932-.478-5.389-.656-3.183-.387-5.389-.656-1.941-.236-5.389-.657-.22-.027-1.526-.186-.444-.054-1.443-.176-.608-.081-.43.012m107.739 12.962 1.875.204.421.046 1.84.2.412.045 1.884.205 3.174.346 2.223.241 5.4.561 5.4.56 1.754.182 5.402.538 5.402.537.495.05 1.619.16.696.067m41.351 3.754 5.41.455.151.013 5.41.442 2.013.164 1.392.113 5.412.433 1.299.104 4.164.335 2.232.182.927.077.256.024.223.021.867.071 2.192.176 4.206.336 5.412.432 1.509.12 5.341.426 3.247.26 5.412.435 3.778.303 5.411.439 3.287.267 4.418.367.847.07.059.005 1.765.146 5.409.459.321.028 4.636.403 2.701.24.236.021.871.077.59.054.469.042 2.198.197 2.7.246 2.141.197 1.578.147 1.014.094.649.041m-73.932-6.294-.251-.025-.92-.077-2.22-.181-4.149-.334-5.412-.434-1.278-.102-5.411-.443-3.383-.276-2.759-.233m100.354 8.368-.158.016-.245-.111-.512.008-.657-.044-1.012-.096-1.573-.15-2.132-.199-2.689-.249-2.416-.22-.825-.075-.636-.057-.236-.021-2.918-.262-4.609-.404-5.409-.46-.289-.024M166.65 202.526l-.096.01-.241.025-.299.043-.219.074-.205.135-.273.225-.418.342-.488.406-.481.413-.396.364-.236.261-.11.25-.02.338.034.519.053.795.061.937.062.943.053.812.021.309.015.237.112.326.28.155"/><path stroke="#fff" stroke-linejoin="round" stroke-width="2" d="m314.418 228.615.711.051.177.014 1.304.106 2.601.222 4.077.36 4.747.414 4.602.384 3.795.289 1.094.081 1.497.111 2.812.163 3.242.175 3.736.143 2.867.079 1.697.046.74.017 4.076.09.101.002 4.398.084 1.847.032 1.776.031 2.191.038 2.222.023.305.003.812.008.258-.01.136-.006m-1.206.009.345.017 1.057.027 2.067.039 3.401.063 4.373.085 4.985.105 5.239.123 4.126.111.663.017.352.01m-90.654-8.766.01.004.114.008"/><path stroke="#fff" stroke-linejoin="round" stroke-width="2" d="m307.222 223.266-.159.048-.076.091.024.143.114.204.196.273.221.28.048.06.339.416.386.478.432.548.473.573.513.553.009.008.4.358.14.124.046.031.533.351.626.29.686.214.114.024.775.153.858.107 1.261.082.124.006m-7.381-3.908-.333-.409m70.581-47.966.302 1.717.281 1.601.086.486.023.128.024.139.048.27.15.842.558 3.15.031.173.051.291.053.296.039.224.955 5.344.127.706.402 2.224m-3.793-22.193.019-.074.072-.039.121-.015"/><path stroke="#fff" stroke-linejoin="round" stroke-width="2" d="m377.529 171.722-.064.102-.031.141.066.558.228 1.358.213 1.21.232 1.316.302 1.707m-201.417 25.677c.072-.091.124-.092.238 0l-.029-.305-.271-2.861-.512-5.405-.361-3.99-.49-5.407-.411-5.013-.356-4.325-.193-2.782-.074-1.07-.376-5.416-.004-.064-.079-1.522-.284-5.422-.113-2.175-.03-.827-.188-5.39-.034-.944-.047-1.353-.003-.089-.009-.239-.008-.259-.076-4.244-.008-.454-.036-2.026v-.018l-.041-2.281v-2.464l-.001-.627v-2.065l-.001-3.79.06-3.496.002-.129.05-2.91.027-1.611.009-.498.004-.229.011-.369.06-2.033.018-.636.024-.799.131-4.425.065-1.703.207-5.425.172-3.937.067-1.541.145-3.32.052-1.088v-.271M35.298 366.676l.016.017.303.333 2.702 2.976 3.046 3.097.051.049 3.144 2.871 3.289 2.62 3.495 2.359 3.763 2.086 1.28.57 2.849 1.271 4.59 1.623 5.153 1.435 5.303 1.16.514.112 5.342.97 1.063.194 5.36.858 1.551.249 5.369.807 1.97.296 5.369.807 2.314.347 5.369.806 2.383.357 5.368.805 2.171.326 5.368.804 1.668.25 5.369.804.868.13 5.369.803.273.041 5.258.785 5.088.758 5.138.765 4.864.723 4.259.633 3.322.493 2.048.304 1.083.153.432.039.13.011.19-.023.261-.056.162-.04"/><path stroke="#fff" stroke-linejoin="round" stroke-width="2" d="m32.304 363.18 2.554 2.983.44.513.023.026.295.324m130.938-164.491-.075-.015-.225-.045m-4.383 7.948-.123-.304-.073-.536-.016-.119-.1-.705-.133-.937-.123-.875-.078-.719-.002-.469.081-.314.169-.252.274-.281.395-.401.457-.459.454-.456.391-.39.267-.264.21-.167.943-.369c.054-.089.106-.102.272 0"/><path stroke="#fff" stroke-linejoin="round" stroke-width="2" d="m42.211 192.373 3.087.516.959.16 2.476.414.203.034 1.282.205 1.14.183 4.825.773 5.365.833 2.37.369 5.366.819 2.823.431 5.368.814 3.24.491 5.368.817 3.627.552 5.368.817 3.995.607 3.105.471.359.055.292.044.019.003.39.059 5.367.814.179.027.569.086 1.158.174.036.006.289.043 3.747.566.127.019.475.072.458.069.387.058.062.009.06.01 2.671.403 4.766.713.053.008.897.134.154.023 1.941.291.166.025 2.371.354 1.886.282.065.009.982.146 5.37.8 1.637.244 5.37.797 3.419.507 5.37.795 1.499.222 4.171.618 2.207.305.993.081.51.016 1.494-.097.449.08"/><path stroke="#fff" stroke-linejoin="round" stroke-width="2" d="m162.139 210.55-.268-.127-1.018-.086-2.213-.306-4.171-.618-5.37-.795-1.499-.222-5.369-.797-3.418-.507-5.37-.799-1.199-.179-.964-.144-.07-.01-2.335-.348-2.089-.312-.166-.025-1.943-.291-.157-.024-.897-.134-.05-.007-5.045-.756-2.385-.359-.033-.006-.209-.031-.639-.096-.537-.081-.094-.015-3.823-.576-.28-.043-.036-.005-1.154-.174-.848-.128-5.264-.799-.39-.059-.017-.002-.294-.044-.359-.055-3.386-.514-5.367-.816-3.994-.607-5.367-.817-3.627-.551-5.368-.814-3.24-.492-5.368-.818-2.822-.431-5.364-.833-2.371-.368-5.276-.844-1.5-.24-.471-.075-2.004-.335-.961-.161m826.463 298.092 1.912-.636.335-.108 2.302-.743 2.949-.94 2.919-.924 2.557-.805 1.867-.585 1.402-.44 1.164-.362 1.148-.355 1.351-.419 1.575-.492 1.817-.576 2.078-.668 2.356-.769 2.584-.869.121-.042 2.759-.968 2.884-1.064 2.958-1.158 2.996-1.241 3.002-1.31 2.974-1.37 2.915-1.417 2.829-1.449 2.721-1.466.212-.114 2.59-1.468.403-.237.695-.411 1.089-.634 2.428-1.452 1.288-.78 2.297-1.443 1.298-.851 2.19-1.44 2.112-1.445 2.06-1.455 1.981-1.463 1.105-.84 1.874-1.468 1.747-1.471 1.598-1.475 1.464-1.469.741-.757 1.347-1.456 1.247-1.439 1.163-1.414 1.074-1.399.978-1.393.461-.659.875-1.393.765-1.403.266-.553.651-1.398.533-1.38.147-.436.105-.31.409-1.347.057-.219.282-1.303.158-1.254.036-1.197.003-.165-.084-1.135-.202-1.066-.285-.986-.051-.149-.331-.895-.345-.792-.325-.678-.302-.577-.273-.488-.24-.411-.202-.348-.104-.168-.221-.348-.295-.414-.423-.545-.607-.74-.241-.275-.544-.62"/><path stroke="#fff" stroke-linejoin="round" stroke-width="2" d="m963.816 418.984-.396-.469-.895-1.004-.568-.622"/><path stroke="#fff" stroke-linejoin="round" stroke-width="2" d="m900.023 443.69.424-.123.658-.19 2.587-.747 2.544-.732 1.514-.436.536-.155.81-.235.946-.275.809-.235 1.074-.312 4.022-1.193 3.609-1.115.789-.255.375-.121.283-.091 1.081-.35.074-.024.3-.097.371-.12 1.523-.517.109-.037 1.386-.471 2.836-1.014 2.009-.753.722-.271 2.623-1.038 1.667-.7.851-.356.09-.041 2.321-1.037 2.304-1.103.665-.336 1.534-.778 2.096-1.114 1.995-1.103.662-.376 1.234-.703.208-.122.502-.294.469-.276.646-.379.262-.159.005-.003.36-.218.04-.025.004-.002.141-.086.632-.383.335-.204 1.758-1.105 1.764-1.144.442-.292 1.727-1.173 1.661-1.192 1.545-1.189.015-.012 1.427-1.198 1.3-1.185 1.186-1.16 1.078-1.123.981-1.076.888-1.038.803-1.009.722-.988.649-.975.326-.517.563-.969m2.672-15.713.393 1.59.185.999.149 1.008.093.996-.012.993-.075.658-.108.992-.206.994-.302.996-.243.624-.391.997-.367.923-.441 1.066-.458 1.047m0 0-.421.868-.468.962.417-.86z"/><path stroke="#fff" stroke-linejoin="round" stroke-width="2" d="m970.947 315.501 1.657 1.851 1.539 1.72 1.796 2.237.669.944.517.949.628 1.233.268.799.085.764.113 1.282-.16 1.79-.241 2.691-.357 3.548-.51 4.357-.1.748-.703 5.133-.36 2.268-1.212 42.158m-26.833-75.946.904-.74.818-.772.697-.761.454-.575.125-.159.018-.022c.372-.427.511-.682.744-1.101"/><path stroke="#fff" stroke-linejoin="round" stroke-width="2" d="m947.76 314.015-.016.012-1.106.789-1.297.807-1.487.81-1.693.807-1.867.8-2.01.787-2.122.767-2.199.743-2.277.724-2.354.709-2.431.699-2.508.694-2.594.672-2.688.633-2.787.577-2.896.502-3.01.417-3.133.32-3.263.209-3.366.088m45.488-35.126-.022.011-.049.026-.015.008-.06.031-.06.031-.076.033-.036.015-.169.073-.046.019-.073.026-.198.07-.22.078-.222.066-.471.141-.308.08-.001.001-.238.061-.164.043-.077.02-.118.03m29.083 25.033-1.344-1.52-2.879-3.138-2.703-2.899-2.413-2.567-1.359-1.446-.79-.819-.273-.267-.573-.542-.747-.699-.251-.235-1.544-1.437-2.21-2.053-2.507-2.327-2.438-2.263-.643-.596-1.37-1.271m-5.004-.961-.035.008-.119.027-.903.211-.093.021-.115.026-.124.028-.049.011-.012.003-.061.013-.216.049-.036.008h-.001l-.309.069-.008.002-.12.027-.013.003-.052.011-.143.032-.121.026-.006.002-.099.021-.265.059-.028.007h-.001l-.016.003h-.001l-.078.018-.051.011-.112.026-.011.002-.106.024-.045.01-.009.002-.001.001-.023.005-.073.016-.122.072-.013.008-.017.011-.057.033-.034.023-.007.076v.023"/><path stroke="#fff" stroke-linejoin="round" stroke-width="2" d="m949.93 294.543-1.389-1.29-1.221-1.135-.644-.585-.262-.204-.078.003-.092.035-.026.017-.097.065-.062.051m.108-.069-.094.061m-5.86 2.069-.009-.006-.171-.11-.039-.025-.023-.004-.014-.002h-.006m-74.322 48.272-.333.029-.409.036-1.97.169-.687.059-1.546.133-.003.001-.197.016-.048.005-.084.006-2.199.165-.584.044-1.964.147-1.295.098-5.417.352-1.957.128-1.838.106-.31.017-3.809.22-2.263.129-4.556.229-4.094.206-2.714.114-.184.008-.051.002-.842.035-.292.013-4.568.192-2.904.093-3.366.108-1.727.055-.207.007-5.438.109-2.399.049-5.429.037-2.12.014-4.805-.037-.17-.001h-.001l-.155-.002-2.214-.017-1.83-.042-.216-.006-.406-.009h-.032l-.149-.004-.052-.001-4.543-.105-5.417-.346-1.763-.113-5.384-.696-1.818-.234-2.589-.562-4.699-1.02-.002-.001-1.146-.371-.531-.172-.011-.004-.365-.118-3.465-1.123-.325-.106-1.601-.518-.998-.412-.059-.025-.023-.009-.02-.009-.046-.019-1.131-.465-1.47-.607-2.126-.877-.275-.113-.067-.028-.214-.088-.198-.082-1.033-.426-.711-.342-.065-.031-.92-.443-.212-.102-1.939-.934-.096-.046-3.998-1.924-.624-.331-.982-.522-1.124-.597-.312-.166-1.35-.717-2.466-1.31-.841-.446-.131-.07-.018-.009-.437-.232-2.763-1.555-.407-.229-.429-.242-.529-.297-.02-.011-.379-.214-.408-.229-.543-.306-.612-.345-.47-.264-.156-.087-.232-.131-.142-.08-.332-.187-.244-.137-.098-.056-.276-.155-.658-.37-.489-.285-.732-.427-.196-.114-.022-.013-.711-.415-1.004-.585-.365-.213-.584-.341-.003-.001-.364-.212-.111-.065-.43-.251-.478-.278-.059-.036-.358-.208-.348-.203-.179-.104-.067-.039-.189-.11-.008-.005-.014-.009-.285-.166-.27-.157-.259-.151-.774-.451-.116-.068-4.662-2.781-.175-.105-2.611-1.558-2.612-1.58-.25-.151-2.852-1.725-.095-.057-.733-.443-.848-.513-.467-.283-.584-.353-.471-.284-.397-.241-1.368-.812-.434-.257-.706-.365-.053-.024-.108-.05-.287-.049-.657-.01-1.271.043-2.1.106-1.532.086-1.611.091-3.949.274-1.306.115-2.886.252-.322.028-.056.006-.906.101-.739.083-.068.007-3.076.344-4.726.679-.213.031-4.716.788-.801.149-3.373.626"/><path stroke="#fff" stroke-linejoin="round" stroke-width="2" d="m665.597 336.861-.678-.461-.833-.566-.937-.637-1.623-1.104-.695-.437-.974-.614-.926-.583-.994-.626-1.848-1.164-.27-.161-.84-.503-1.153-.691-.793-.475-.058-.035-1.542-.923-.067-.04-.529-.318-.103-.061-.232-.134-.164-.095-.387-.225-.207-.119-.493-.286-.844-.488-2.311-1.339-.074-.042-.085-.05-.424-.241-.109-.062-.256-.145-.099-.056-.142-.081-.419-.237-.268-.152-.984-.559-.836-.474-.232-.131-.937-.532-.871-.494-.088-.05-.075-.043-.301-.171-.511-.301-.035-.02-.135-.08-.453-.267-.348-.275-.003-.027.072-.076.088-.085.051-.049.369-.286.136-.093.076-.052.514-.355.039-.026 1.303-.846 1.987-1.242 1.891-1.163.445-.274 2.348-1.429.824-.495 1.199-.722 1.357-.8 1.152-.535 1.411-.426 2.131-.471 3.313-.668"/><path stroke="#fff" stroke-linejoin="round" stroke-width="2" d="m662.489 309.568-3.397.627-3.309.663-2.127.465-1.009.302-.398.119m209.45 161.973v-.271l.005-.013.486-1.257 1.111-1.746.437-.552.441-.557.839-1.06 2.36-2.671 2.089-2.236.946-1.012.286-.291 3.135-3.194 1.022-.982.048-.047 2.448-2.353 1.045-.924 1.559-1.378.722-.638 2.849-2.161 1.286-.806 1.194-.749.462-.232 1.428-.718 2.027-.837 1.969-.749 1.566-.541.539-.187.738-.236.52-.166 1.167-.373.115-.035 2.818-.853 1.055-.311.694-.204m-56.389 57.414 1.494-.301 1.663-.333 2.769-.577 2.472-.533 2.263-.501 1.99-.451 1.653-.381 1.252-.293.788-.182.368-.112.188-.057.022-.006.048-.015.224-.112.365-.186.399-.221.67-.385 1.033-.594 1.27-.744 1.376-.833 1.351-.851 1.194-.796.86-.603.39-.28.032-.022.021-.016"/><path stroke="#fff" stroke-linejoin="round" stroke-width="2" d="m661.535 334.094 1.619 1.103.935.637.831.566.676.461.244.167.733.498 1.914 1.402 1.292.947.342.25.35.256.677.496.078.057 1.678 1.316.685.538.28.219.099.077 1.195.936.199.157.145.114.592.494.176.147 3.013 2.518.143.119 1.154 1.023.004.004.782.693.221.196 1.419 1.257 1.227 1.179.319.306 1.084 1.041.062.06.429.412.2.191.254.269 2.895 3.057.075.088.905 1.058.105.124.503.589.255.297 1.22 1.428 1.478 1.913.584.754.153.199.033.042.168.216.33.427.258.335.061.078.098.139 2.479 3.513.484.685.163.252.333.512.394.607.687 1.058 1.476 2.272.339.564.517.86.192.319.157.262.295.49.742 1.234.19.317.607 1.009.159.286.799 1.428.441.789.432.772.246.439.803 1.438.14.251 1.406 2.722.36.697.358.695.233.452.506.979.085.165 1.711 3.633.289.613.37.786.232.492.045.097.171.363 1.872 4.416.216.509.146.346.158.372.202.477.042.097 1.912 5.12.155.413.328.88.022.065.119.368 1.686 5.161.035.109.098.297.193.594.102.361.074.26 1.473 5.226.1.356.054.191.103.365.193.806.035.145.418 1.747.918 3.834.011.048.08.33.172.866.004.019.181.916.783 3.936.119.601.081.407v.002l.02.098.039.2.098.62.625 3.97.058.37.099.631.087.548.159 1.009.017.116.253 2.153.106.911.018.155.013.11.092.783.07.598.123 1.055.211 1.803.073.931.025.313.049.624.013.159.025.319.016.215.009.108.064.807.01.133.112 1.42.096 1.225.033.42.042.533.032.412.025.313.002.025.003.067.051 1.167.037.845.026.607.078 1.805.032.743.033.754.106 2.444.115 5.427.054 2.542.006.264.04 5.428.014 1.937.002 5.429v.403l.019 3.633.044 2.089.078 1.195.122.952.173 1.357.216 1.641.249 1.808.274 1.854.291 1.782.284 1.633.256 1.407.207 1.105.136.726.094.43.082.215.096.093.138.065.113.018.255.041.787.077 1.378.119 2.14.184 2.526.216 2.531.218 2.154.185 1.395.12 1.205.057h.008l.26-.001h.024l1.294-.004 2.541-.064 2.768-.082 1.299-.039 5.209-.188 5.423-.24.543-.023 5.421-.3.917-.051 5.415-.381.906-.064 5.409-.462.897-.077 5.402-.539.891-.089 5.393-.615.887-.101 5.385-.687.884-.113 5.377-.749.809-.113 5.369-.804.661-.1 5.361-.853.444-.07 5.355-.897.157-.026 5.147-.901 4.711-.856 4.206-.792 3.633-.707 1.617-.326m43.759-174.832-.171-.04-.326-.077-3.138-.739-.194-.056-2.652-.771-.371-.108-.023-.007-2.347-.78-1.356-.491-.709-.254-.806-.288-.169-.06-.527-.18-.163-.056-.083-.023-.018-.004-.284-.078-.008-.002-.105-.021-.329-.069-.258.081-.015.005-.035.034-.133.128-.092.088"/><path stroke="#fff" stroke-linejoin="round" stroke-width="2" d="m893.598 326.208-.108-.016-2.675-.417-1.017-.158"/><path stroke="#fff" stroke-linejoin="round" stroke-width="2" d="m897.184 326.502-.044-.003-3.651-.307m7.207.388h-.04l-2.362-.055-1.154-.027m-23.805-2.63-.002.001-.122.075-.609.374-.563.293-.16.085-.664.305-.102.042-.106.044-.348.144-.256.099-.143.056-.215.081-.053.02-.277.114-.215.135-.056.046"/><path stroke="#fff" stroke-linejoin="round" stroke-width="2" d="m869.479 325.8.023-.019.157-.099.137-.068.131-.061m5.822-3.752-.141.131-.069.066-.346.33-.534.491-.155.131-.294.249-.012.01-.04.034-.015.012-.113.096-.221.165-.234.174-.242.18"/><path stroke="#fff" stroke-linejoin="round" stroke-width="2" d="m874.127 323.324.046-.041.016-.014.55-.483.517-.496.284-.285.116-.115m-223.008-10.265-.39.115-1.145.524-1.351.791-1.234.742-.783.471-2.345 1.428-.447.275-1.888 1.163-1.987 1.244-1.306.848-.086.059-.453.312-.056.039-.081.056-.093.064-.285.221-.088.068-.085.086-.058.059-.076.097m57.543-13.24-.095.003-.757.074-.09.016m255.987-11.819-1.635-1.624-.603-.591-2.266-2.283-.657-.649-2.03-2.06-2.644-2.617-1.832-1.795-1.804-1.701-1.814-1.642-1.212-1.077-1.863-1.623-1.655-1.402-1.334-1.108-.899-.742-1.913-1.56-.596-.485-2.093-1.578-.337-.252-.697-.491"/><path stroke="#fff" stroke-linejoin="round" stroke-width="2" d="m953.901 298.097-1.056-.998-.21-.198-.385-.371-1.251-1.208-1.154-1.115"/><path stroke="#fff" stroke-linejoin="round" stroke-width="2" d="m959.522 303.455-.248-.257-.839-.811-1.322-1.254-1.911-1.812-1.302-1.225-.979-.919m-69.331 36.339-.098-.056-2.135-1.226-.915-.526-.125-.072-.02-.011-.028-.016-.096-.055-.016-.01-.169-.096-.023-.014-.242-.135-.474-.265-.116-.065-.02-.012-.414-.232-1.692-.948-.482-.27-.385-.216-.556-.3-.567-.305-1.196-.645-.635-.343-.618-.333-.033-.018-.033-.018-.142-.076-.004-.002-1.115-.562-.311-.157-.326-.164-.666-.336-.461-.232-.034-.018-.112-.055-.151-.077-.124-.063-.095-.048-.406-.182-.11-.05-.971-.438-.609-.274-1.231-.554-.637-.25-.872-.341-.695-.272-.612-.239-.751-.294-1.781-.607-.075-.025-1.339-.457-.06-.02-.868-.296-3.222-.985-1.071-.328-.709-.216-.293-.082-.085-.024-.975-.274-.017-.005-.007-.002-.02-.005-.297-.083-.029-.009-1.086-.304-2.776-.779-.445-.116-2.172-.561-.79-.204-2.466-.638-4.259-1.004-.169-.04-.441-.104-.027-.006-.03-.007-.141-.033-.789-.186-5.314-1.108-.212-.044-.268-.049-.605-.11-1.529-.277-.131-.024-.521-.095-.138-.025-.366-.067-1.844-.335-.342-.055-.496-.079-2.208-.351-.462-.073-.278-.045-.662-.104-.034-.006-1.004-.16-4.193-.599-.393-.056-.375-.053-.185-.026-.005-.002-.009-.001-.195-.028-.146-.021-.052-.007-.228-.033-.544-.072-.698-.093-.355-.047-2.438-.326-.354-.047-1.902-.254-.573-.073-.319-.04-.489-.063-1.78-.226-3.142-.401-1.082-.133-.02-.003-.273-.033-1.202-.148-.278-.035-.208-.025-.376-.047-.025-.003-.335-.041-.233-.029-.293-.036-1.478-.182-1.177-.142-.291-.035-1.691-.205-1.77-.213-3.239-.386-2.239-.238-1.777-.134-1.86-.078-2.487-.064-3.122-.063-3.165-.063-.282-.006h-.015l-.302-.006h-.012l-.153-.004-.063-.001-4.182-.093-3.151-.084-1.21-.032-.219-.006-.484-.013-.961-.026-1.285-.036-.329-.008-3.018-.084-2.474-.066-3.524-.093-1.715-.041-.576-.013-.898-.021-.142-.004-2.949-.069-5.429-.103-1.008-.019-3.974-.059-.395-.005-.632-.01-.604-.009-.143-.002-.67-.01h-.036l-.18-.002-.39-.004h-.002l-.561-.006-.162-.002-1.337-.014-1.655-.017-.571-.006-.202-.003-.535-.006-.227-.002-.368-.004h-.094l-.068-.001-.575-.003h-.076l-.389-.003-.202-.001-.713-.005h-.033l-.404-.002-.376-.002-.406-.003-.116-.001h-.016l-.182-.001h-.098l-.215-.002-.3-.002-.28-.001-1.316-.008-3.261-.003-2.056-.002-4.717.018-1.333.009-2.724.021-3.426.026-2.582.021-1.824.06-1.083.144-.409.269.034.075.167.363 1.028.777.079.059.361.228.599.379.444.281.497.315.409.259.76.463 2.513 1.53.25.153.247.15 4.635 2.827.342.208.57.348 4.413 2.648.741.445.311.186.231.139.304.182.014.009.026.016.169.101.057.034.186.112.29.174.058.034.356.208.002.001.071.041.477.279.43.251.099.058.367.214.009.006.575.335.365.214 1.006.587.69.403.042.025.196.115.732.427 1.14.666.274.16"/><path stroke="#fff" stroke-linejoin="round" stroke-width="2" d="m703.307 312.005 4.639 2.821.853.519 4.471 2.677 1.062.635.216.129.312.187.05.03.159.095.052.031.191.115.248.148m36.299 18.878 1.13.465.047.019.02.008.023.009.059.025.987.405 1.613.522.326.105 3.469 1.124.363.118.011.003.531.172 1.113.36.034.008 4.701 1.018 2.542.55 5.384.694 1.807.232 5.418.344 1.754.111 4.627.106.052.001.15.004h.017l.014.001.382.008.217.005 1.759.04 2.246.017.151.001h.005l.168.002 4.762.036 5.429-.038 2.106-.014 2.532-.051 5.291-.106.295-.009 1.738-.055 3.367-.107 2.794-.088 4.751-.196.292-.013.841-.034.05-.002.185-.008 2.524-.104 4.214-.208 4.431-.217 2.392-.136 3.81-.215.31-.017 1.705-.097 5.418-.347 1.952-.125 1.435-.107 1.964-.146.583-.043 2.135-.159.065-.005.132-.011.198-.017h.002l1.546-.133.688-.059 1.998-.171.407-.034.126-.011 4.489-.435.821-.087 1.4-.149.128-.013.438-.046.426-.045.302-.032.437-.047.147-.015.044-.005.159-.018.582-.064.351-.039.704-.077.114-.013 1.053-.116.973-.108.211-.023.591-.068.561-.064.687-.078.93-.106.414-.047.299-.034.432-.05.219-.026.718-.084 1.871-.219 1.781-.213.843-.101.532-.066 1.312-.161 1.153-.188.155-.026.208-.07.362-.121.079-.249-.062-.098-.272-.334-.772-.547-1.442-.871-2.201-1.277-3.052-1.765-.08-.045M402.37 226.712l.909-.07.269-.04.407-.118.021-.006.135-.081-.036-.297-.246-.691-.201-.511-.297-.752-.79-2.013-1.045-2.593-1.262-3-1.441-3.236-1.584-3.303-1.725-3.213-1.304-2.076-.561-.894-2.225-2.918-.475-.622-2.201-2.091-2.284-1.603-.916-.555-.233-.142-2.248-1.176-.101-.053-1.633-.67-.641-.263-2.115-.742-1.918-.58-1.684-.45-1.412-.346-1.102-.274-.836-.21-.613-.156-.436-.11-.3-.074-1.763-.335-.214-.028-2.143-.013-2.571.19-3.053.276-2.602.266-.859.088-3.799.426-4.063.491-4.252.547-4.312.653-4.24.805-.16.032-4.034 1.001-1.416.478-2.274.767-3.359 1.501-3.041 1.765-2.739 2.041-2.452 2.327-2.165 2.536-1.881 2.669-1.599 2.727-1.319 2.706-1.018 2.45-.036.085-.26.717-.285.787-.194.534-.063.172-.014.046-.55 1.685-.34 1.101-.027.112-.121.503.016.274.129.086.05.014m-.052-.074-.128-.026"/><path stroke="#fff" stroke-linejoin="round" stroke-width="2" d="m404.111 226.398-.267.078-.157.046-.904.072-.673.014-.766.016h-2.032l-2.68-.018-3.39-.024-4.04-.029-4.632-.038-2.956-.027h-.055l-2.155-.019-.595-.006-.05-.001-4.996-.048-1.712-.018-.701-.008-3.379-.036-.277-.004-5.34-.066-5.103-.075-4.249-.08-3.663-.097-3.342-.124-3.293-.164M286.741 99.259l38.588-.572 5.322-.238 5.425-.19.086-.002 5.427-.149.203-.005 5.428-.119.251-.005 5.428-.097.233-.004 5.429-.084.15-.002 5.429-.07h.083l5.459-.058 5.419-.042 4.771-.025.621-.002 5.326-.014h5.334l3.345.01 1.614.004 2.567.014.321.001 2.002.011.781.007.962.008.116.002.154.001 2.716.025 4.593.06 4.478.084 4.387.109 4.282.13 3.815.136.346.012 4.026.163 3.878.175 2.367.117 1.372.068 3.61.195 3.492.205 3.382.214 3.271.223.472.035.023.001.022.002.157.011 2.481.183.538.043 2.498.197 1.573.135 1.339.115 2.75.263 2.553.281 2.319.303.381.062.407.066h.001l.901.145.115.019.245.04 1.3.251 7.989 1.895c18.239 5.507 28.523 9.098 46.959 16.558l45.06 21.444"/><path stroke="#fff" stroke-linejoin="round" stroke-width="2" d="m480.785 103.558-.016-.027-.067-.048-.185-.078-.358-.136-.584-.223-.28-.104-.809-.293-1.015-.339-1.208-.365-.839-.25-1.627-.472-2.672-.776-3.677-1.02-1.673-.437-.548-.142-4.219-1.09-5.282-1.254-.409-.097-2.089-.48-5.307-1.14-1.367-.293-2.373-.484-5.326-1.054-2.02-.4-2.649-.49-5.34-.98-2.365-.433-2.917-.5-5.352-.907-2.401-.406-3.146-.504-5.366-.82-2.138-.328-3.347-.496-5.38-.732-1.914-.26-3.535-.477-3.663-.442-5.391-.64-1.785-.212-3.827-.406-5.401-.55-1.641-.167-3.967-.363-5.408-.468-1.526-.131-4.074-.311-5.415-.387-1.492-.106-4.143-.251-5.42-.31-1.539-.089-4.245-.207-5.424-.243-1.668-.074-4.382-.18-4.532-.169-4.727-.171-4.885-.177-5.007-.181-5.089-.189-5.13-.195-5.135-.199-5.101-.199-5.026-.195-4.911-.186-4.835-.165-2.648-.09-4.847-.161-4.817-.126-5.427-.112-2.142-.045-4.85-.073-5.429-.034-2.092-.013-4.937-.006-5.429.058-1.921.02-4.972.055-4.92.114-5.427.167-1.644.05-4.814.17-2.84.13-3.584.165-4.618.224-5.437.31-4.431.274-4.124.266-2.491.158-1.27.089-4.257.321-4.125.364-4.028.404-3.912.44-.45.054-2.647.334-1.127.142-1.617.228-1.999.282-3.438.54-3.114.53-.785.141m16.175 13.731-.368 2.185-.602 3.56-.761 4.571-.103.631-.743 4.583-.835 5.364-.019.124-.788 5.386-.47 3.459-.187 1.378-.014.106-.058.428-.247 1.973-.047.375-.08.645-.145 1.159-.061.484-.102.814-.298 2.61-.344 3.007-.564 5.399-.049.477-.209 2.271-.177 1.927-.127 1.376-.06.654-.421 5.412-.076.968-.022.287-.177 2.795-.278 4.406-.132 2.728-.245 5.097-.213 5.425-.042 1.075v.004l-.014.363-.005.121-.03.776-.006.184-.181 5.426-.046 1.398-.016.537-.003.095-.005.148-.007.269-.004.107-.007.249-.008.281-.004.116-.007.248-.005.159-.009.295-.005.159-.016.571-.002.049-.008.275-.01.325-.049 1.67-.061 2.033-.012.421-.022.761-.006.181-.045 1.76v.249l-.001.401.031.078.018.03.054.049h.001l.043.022.06.018.075.022.083.024.086.023.076.02.031.007.058.015.079.015.291.041.712.099.316.044 1.029.142 1.611.225.583.081.179.025 2.482.343.186.026m20.178-104.608v.543"/><path stroke="#fff" stroke-linejoin="round" stroke-width="2" d="m151.223 200.469.3.042 2.479.343.062.009.123.017 3.304.451 3.562.476 3.619.468 1.583.2.396.051.15.019 1.31.165.569.071 2.447.306 2.35.291 1.439.179.092.011.674.085.335.041.151.014.211.017.247.018.255.018.236.017.179.012M143.997 82.104l1.716-.256 1.74-.26.67-.09 3.013-.412 3.781-.472 3.499-.398.314-.035.043-.005"/><path stroke="#fff" stroke-linejoin="round" stroke-width="2" d="m137.589 83.145.575-.098 2.81-.464 3.023-.48.249-.039m31.041-3.739-.484.025-4.207.278-4.039.325-3.938.367-.979.092-1.866.19-3.882.395-3.005.3-3.813.391-4.271.461-3.687.39-4.327.491-3.548.41-4.041.5-3.426.433-5.377.747-2.03.283-3.13.467-4.945.754"/><path stroke="#fff" stroke-linejoin="round" stroke-width="2" d="M197.041 77.764h-2.684l-5.044.056-4.942.113-4.744.17-4.34.222-.102.005m-23.519 2.837-1.055.094-2.488.236m279.163 16.686-5.427-.148-.592-.016-5.428-.127-1.985-.046-5.428-.108-2.26-.045-3.145-.052-.157-.003-.118-.002m170.015 43.777.501.268 4.786 2.562 4.786 2.562 1.07.593 4.748 2.632 4.749 2.632 1.701.972 4.713 2.693 4.714 2.694 2.021 1.177 4.692 2.731 4.691 2.732 2.03 1.194 4.68 2.751 4.68 2.751 1.724 1.016 4.678 2.754 4.679 2.754 1.096.641 4.688 2.739 4.687 2.739.256.149 4.695 2.726 4.695 2.727 3.902 2.254 4.7 2.715 2.634 1.516 4.705 2.707 1.158.665.684.392.941.54 3.072 1.764c6.058 2.688 9.758 3.346 16.302 4.68M158.415 80.216l3.288-.339m210.4 151.694 1.112.011m23.41.561 1.212.042m68.579 58.264h-.001m-5.22-62.24.037-.007m156.72-5.15-.296.021m72.581-10.316-.026.029m10.519-6.673-1.127-.162m171.248 285.47 1.292-.455.05-.018m11.295-166.973-.395-.115m6.378 1.681-3.332-.795m7.321 120.995-.127.52m1.924-1.108-.111.457m1.296-.488.096-.377"/><path stroke="#fff" stroke-width="2" d="m342.93 225.75-35.831-2.443m327.089 95.548c-18.182-2.151-29.498-1.456-53.475 6.244-29.602 9.153-44.532 17.094-62.974 45.059-14.709 29.446-16.659 46.546-13.844 77.632 7.836 34.442 17.361 50.244 40.717 74.104 16.711 13.807 27.384 19.171 47.685 26.299q.089.03.182.045c30.022 4.601 42.08 1.334 62.338-5.986 8.326-3.696 14.972-7.406 37.731-23.072 10.745-8.368 16.32-14.064 24.701-27.687 5.799-9.013 7.741-15.404 11.4-26.602"/></svg>