<svg fill="none" viewBox="0 0 1005 650" xmlns="http://www.w3.org/2000/svg"><path stroke="#fff" stroke-width="2" d="M140.531 585.3c4.033-12.721 6.555-19.609 24.516-18.965l121.654 4.626c165.309 6.063 257.285 6.544 419.543 0l130.905-6.476c21.146.159 30.831 1.927 31.917 17.577M105.839 425.254c310.791 11.028 485.879 10.734 799.307 0m-789.13 103.614c305.637 23.895 477.041 23.316 782.654 0m-709.107-364.5c30.263-7.907 48.681-11.663 84.186-16.652 56.628-6.566 87.906-9.019 143.394-12.489 99.096-2.968 150.752-1.263 239.607 4.626 54.64 2.81 77.82 5.713 110.553 12.489 20.798 3.578 31.772 6.279 51.344 11.101"/><path stroke="#fff" stroke-width="2" d="M845.013 177.322c-1.981 2.07-3.3 2.62-6.476 1.85-60.561-11.298-96.262-16.722-168.835-21.741-124.548-4.338-195.615-6.771-329.344.926-65.311 4.345-101.389 9.532-165.135 21.277-6.022 1.438-8.688 1.498-10.176-1.85"/><path stroke="#fff" stroke-linejoin="round" stroke-width="2" d="M818.184 163.444c-24.422-34.492-37.308-51.989-60.133-77.248-15.61-16.584-23.299-22.44-35.617-25.44-53.856-8.41-84.948-12.35-145.707-14.803-64.747-2.435-100.929-2.768-165.134 0-53.818 2.266-83.31 4.217-129.055 14.34-17.398 4.16-28.245 14.062-48.569 39.318-16.712 22.743-26.659 37.994-44.406 65.221-13.716 5.08-22.017 7.919-24.053 12.951l-50.42 22.666c-16.513 5.498-22.627 21.224-29.603 65.684-2.392 25.911-2.786 38.697-3.238 61.058-6.71 16.926-10.084 31.299-15.728 61.058-2.054 28.921-2.002 45.532 0 76.323 3.849 25.884 5.342 39.72 18.04 74.935 4.809 11.605 8.923 18.634 16.894 26.438 4.562 4.465 9.995 7.945 15.816 10.564 6.778 3.049 13.481 5.58 23.26 9.254 29.9 7.18 62.725 10.266 145.707 14.34 193.604 4.718 287.374 10.602 503.73-6.476l80.023-11.102c26.102-8.806 40.603-20.244 50.42-42.555 12.176-32.156 16.227-50.892 18.502-85.575l.067-1.62c1.072-25.974 1.693-41.025-1.455-66.839-2.726-21.654-5.094-30.847-10.176-44.406l-3.238-57.82c-3.134-30.228-6.012-45.822-14.339-69.847-3.273-4.377-7.03-7.393-18.04-14.339l-47.182-22.203c.979-1.672.652-2.406 0-3.701-10.317-5.71-16.081-7.351-26.366-10.176Z"/><path stroke="#fff" stroke-width="2" d="M276.523 62.143c-10.85 12.032-16.018 19.523-19.427 37.467-.1 6.097.259 9.444 9.713 13.877 16.116 2.694 26.911 2.753 46.257 2.776l143.394-3.238 150.332.925 106.389 1.85c21.936-1.212 30.019-2.865 33.725-6.506 1.101-1.082 1.725-2.55 2.039-4.06 1.71-8.215-2.493-15.928-10.323-29.214-7.861-10.035-11.082-12.522-16.189-15.265M84.099 284.634l85.574 1.756m-54.12-86.404 52.732.886m0 0 2.313.039 62.446 4.625c21.54 3.645 32.307 11.678 46.718 48.107l5.778 11.554a1 1 0 0 1-.863 1.447l-71.523 2.263c-7.438.861-11.557 1.882-18.503 5.089l-20.353 12.489-4.625-.095m-1.388-85.518-5.088 4.664 6.476 80.854m0 0c5.28 38.446 8.447 55.473 14.802 69.479 3.238 8.274 6.586 13.234 11.576 17.27 6.723 5.437 15.358 7.763 23.879 9.228 31.417 5.403 66.676 7.157 127.366 9.582 133.848.354 208.899.529 342.759-2.313 42.442-.927 63.715-1.781 91.124-4.626 15.311-1.74 24.527-4.711 32.761-11.55 6.893-5.725 11.3-13.837 14.361-22.258 7.59-20.877 9.394-37.546 11.624-64.255l.222-2.313m2.553-84.186 5.088 4.626-7.641 79.56m2.553-84.186c19.938-.633 30.953-.818 49.494 0m-49.494 0-55.507 3.238c-20.116 2.312-27.112 7.585-37.468 18.965-6.493 10.046-9.918 16.363-15.264 30.067l-4.626 12.026 68.459 3.238c16.556-.01 25.654 5.245 41.853 16.652m0 0h50.197c17.811-.243 26.19-.591 33.305-2.312M111.39 519.617l11.564-7.608m0 0 5.495-3.616a2 2 0 0 1 1.138-.329l115.598 2.206c1.801.035 2.642 2.247 1.318 3.47l-8.251 7.616q-.121.112-.257.201c-2.943 1.919-4.917 2.517-9.114 2.685-50.655-3.854-74.66-5.703-99.914-7.863l-4.163-.926c-2.461-.891-2.385-1.77-1.85-3.444Zm778.029 7.608-11.564-7.608m0 0-5.496-3.616a2 2 0 0 0-1.137-.329l-115.598 2.206c-1.801.035-2.642 2.247-1.318 3.47l8.251 7.616q.12.112.257.201c2.943 1.919 4.917 2.517 9.114 2.685 50.655-3.854 74.66-5.703 99.914-7.863l4.163-.926c2.461-.891 2.385-1.77 1.85-3.444Z"/><path stroke="#fff" stroke-width="2" d="M285.313 266.133c102.508-2.619 162.412-3.454 279.85-2.313l165.135.926"/></svg>