<svg fill="none" viewBox="0 0 1005 650" xmlns="http://www.w3.org/2000/svg"><path stroke="#fff" stroke-width="2" d="m73 333.798 20.538 9.242a3 3 0 0 1 .77.501L208.94 446.189q.312.279.536.633l12.353 19.56c-11.585-39.052-17.986-61.053-17.298-108.172.003-.2.028-.412.071-.608 8.433-38.267 18.204-43.394 40.406-35.993a3 3 0 0 1 .749.374c27.444 18.99 44.11 43.212 78.785 144.399l27.775 71.794c6.922 15.454 9.103 24.778 28.601 35.513.144.08.302.15.457.204 29.651 10.336 52.338 14.237 118.199 13.019 68.027-5.937 107.331-10.217 195.994-33.015 50.329-13.216 76.889-19.607 146.408-56.425.211-.112.418-.255.597-.414 24.287-21.563 38.224-32.414 60.472-58.822a3 3 0 0 0 .683-1.544l2.444-18.571a3 3 0 0 1 .273-.915c7.655-15.918 10.49-22.119 15.511-33.1l9.433-30.394m0 0-4.047-12.14a3 3 0 0 0-.417-.814c-6.098-8.518-8.175-14.787-9.686-27.922l-3.668-58.693m17.818 99.569c-17.036 27.417-41.278 42.205-109.002 67.602-101.098 28.12-158.293 37.297-260.975 45.068-49.655 2.623-72.167-1.059-114.243-5.765m466.402-206.474v-55.964c0-.745.276-1.464.781-2.012 3.701-4.015 6.784-6.738 15.997-12.162.665-.392 1.167-1.023 1.353-1.773 1.413-5.702.01-7.812-3.292-10.367a2.9 2.9 0 0 0-1.552-.588l-32.816-2.524a3 3 0 0 1-.75-.156l-42.083-14.547-66.029-26.573m128.391 126.666-1.562 67.163a3 3 0 0 1-.149.861c-4.185 12.62-9.723 16.703-21.347 22.112-38.044 21.435-66.077 31.324-128.392 45.068-36.118 9.821-57.521 13.391-97.472 16.769-29.447 4.707-41.547 1.582-54.825-14.431a3 3 0 0 1-.345-.519c-10.422-19.931-15.336-34.862-22.913-65.753M95.534 142.521c6.532-13.043 10.668-19.973 20.438-30.395 9.816-10.13 14.608-14.053 22.272-18.866m646.936 34.217-19.914-8.014-83.848-32.491-68.65-18.866c-15.975-3.465-24.907-6.441-38.255-8.385L499.05 47.668 405.77 44l-137.301 3.668-4.192.385m520.903 79.424v2.705a3 3 0 0 1-2.905 2.998l-178.94 5.672-80.956-4.178a3 3 0 0 1-.537-.077c-37.4-8.84-59.66-17.629-100.351-36.62m0 0-48.736-22.01-44.544-15.197c-16.762-3.88-26.918-7.605-41.924-9.433l-22.01-3.284m157.214 49.924-34.587 21.486m-122.627-71.41-42.086 4.8a57 57 0 0 0-9.985 2.031c-16.819 5.058-28.334 9.461-45.64 17.656-4.03 1.908-7.808 4.309-11.29 7.094L138.244 93.26m448.322 232.153c10.58-8.331 17.695-12.911 37.37-20.302.236-.089.488-.149.739-.176l73.623-7.853c2.163-.231 3.368-2.615 2.238-4.474-7.787-12.805-15.175-22.021-29.933-38.257a3 3 0 0 0-.413-.378c-8.352-6.332-12.926-10.05-29.123-11.359l-128.392-3.145-35.111-2.096m109.002 88.04c-51.662 1.886-80.843 3.028-120.007 0m11.005-88.04-86.448-6.496c-2.06-.155-3.656 1.769-3.124 3.765l3.009 11.283c.063.237.157.468.276.683 11.401 20.55 20.62 33.953 42.533 61.191a3 3 0 0 0 .59.56c11.973 8.652 18.555 14.513 32.159 17.054m11.005-88.04 7.209-31.927a3 3 0 0 0 .035-1.135c-1.054-6.338-2.356-9.928-7.1-15.505a3 3 0 0 0-.312-.315c-33.581-29.222-53.491-44.272-90.492-69.028m79.655 205.95-15.481 79.468a3 3 0 0 1-1.29 1.929l-27.35 18.07a3 3 0 0 1-2.071.468l-95.825-13.467-19.913-3.145m82.275-289.273-68.65-36.16c-23.28-9.334-34.928-12.79-53.977-16.769-18.889-4.84-28.986-3.763-47.164-3.144-15.269 1.929-23.333 3.61-36.683 7.86-12.694 4.382-19.07 7.81-29.871 14.674l-12.315 7.336m258.093 35.636c-28.506 27.472-50.892 39.264-104.809 52.404m0 0-121.579 9.433-44.02 1.572H84.005M291.528 181.3c-4.781 16.786-13.526 24.158-36.846 34.207a3.1 3.1 0 0 0-1.394 1.206c-38.67 62.941-50.887 90.375-54.517 123.897l-7.275 61.839a2.6 2.6 0 0 1-.309.989c-1.544 2.745-3.555 3.19-8.603 1.795a2.9 2.9 0 0 1-1.052-.544l-57.886-46.785m70.933-285.081-39.828 109.674m39.828-109.674 17.817-1.573c18.859-.58 29.416.392 48.213 4.193 17.157 2.324 26.642 5.815 43.496 13.101M194.579 72.823l-11.529 2.62m-96.949 110.05c78.198-2.988 123.082-5.652 205.427-12.578 43.395-9.724 61.224-19.301 85.943-40.875m-240.537 61.313L118.357 236.7c-.19.442-.27.924-.235 1.404l7.781 104.783q.025.344-.027.684l-2.23 14.333m0 0-37.365-29.728a3 3 0 0 0-.38-.257l-10.805-6.174m63.148-139.248L183.05 75.443m0 0c-24.042 9.236-42.239 19.25-62.714 40.695a3 3 0 0 0-.311.385l-18.727 27.57"/><path stroke="#fff" stroke-width="2" d="M699.236 296.066c82.206-9.419 126.337-16.92 197.566-38.779m-3.144-88.04c-160.792 14.704-232.253 23.71-332.77 40.876M269.002 342.707c-15.222 2.545-29.643 7.826-37.572 21.067-6.356 10.613-11.017 26.708-13.784 66.973 2.51 35.438 7.266 59.377 19.835 98.464 1.622 5.043 3.709 9.935 6.078 14.674 13.724 27.452 21.72 47.754 41.958 54.457 12.877 2.629 20.505 2.999 36.205-2.313l53.652-25.362"/><path stroke="#fff" stroke-width="2" d="M224.459 382.011c15.031-12.921 42.87-12.701 61.828 36.158 8.117 27.675 22.097 48.342 23.066 101.14-.941 25.689-3.917 57.274-18.341 80.179"/></svg>