<svg fill="none" viewBox="0 0 1005 650" xmlns="http://www.w3.org/2000/svg"><path stroke="#fff" stroke-linejoin="round" stroke-width="2" d="m135.401 491.443-1.043-.369-1.947-.661-.581-.191m12.962 6.905.065.034.488.151.784.184 1.254.294 1.656.385 1.994.455 2.265.505 2.468.536 2.763.578 3.147.636 3.626.707 4.197.792 4.7.855 5.135.899 5.355.896.143.024 5.362.852.426.068 5.369.803.643.096 5.377.747.791.111 5.386.684.87.111 5.394.613.88.1 5.401.539.876.088 5.41.462.862.074 5.415.384.838.059 5.42.301.803.045 5.423.243.401.018 5.058.188 1.956.063 1.97.064 2.427.079 1.489.026.775-.021.048-.001.208-.006.078-.002 1.286-.09 2.02-.155 2.404-.188 2.441-.195 2.132-.172 1.478-.12.968-.079.599-.05.373-.032.285-.024.184-.038"/><path stroke="#fff" stroke-linejoin="round" stroke-width="2" d="m227.83 510.44-5.409-.463-.879-.075-5.402-.538-.889-.089-5.394-.612-.885-.101-5.385-.684-.869-.11-5.377-.746-.783-.109"/><path stroke="#fff" stroke-linejoin="round" stroke-width="2" d="M253.669 512.049h-.002l-.015-.001-2.816-.109-5.162-.204-5.424-.245-.445-.02-5.421-.301-.82-.045-5.415-.383-.859-.061-5.409-.462-.869-.074-5.402-.536-.847-.085-5.395-.608-.798-.09-5.386-.679-.719-.091-5.378-.743-.596-.082-5.369-.799-.429-.064-5.362-.85-.221-.035-5.327-.89-4.992-.874-4.583-.834-4.099-.775-3.543-.692-3.08-.624-2.708-.569-2.424-.527-2.23-.499-1.968-.45-1.638-.381-1.24-.291-.777-.183-.467-.154-.484-.206-.348-.148-.225-.104-.361-.198-.034-.02m.284.147-.263-.141m110.301 15.864-1.253-.884m2.037 1.368-.008-.005-.776-.479.774.478.01.006Zm0 0 1.611.994m17.105-3.825.001.002.068.128-.005.145-.057.243-.108.381-.158.557-.209.725-.261.884-.315 1.032-.369 1.174-.409 1.163-.43 1.006-.449.783-.121.2-.522.558-.231.101-.755.217-.31.024-.411.032-.458-.058-1.177-.205-1.727-.663-2.433-1.168-2.768-1.461-.698-.384-1.426-.813m0 0-.728-.415-.011-.007-.627-.357.749.431.617.348Zm-203.937-89.91-.06-.166-.19-.643-.094-.319-.045-.154-.012-.055v-.004l-.06-.278v-.002m90.248 49.775-.782.106h-.007l-1.474-.076-1.851-.261-2.105-.416-2.244-.542-2.27-.641-2.28-.71-2.275-.747-2.254-.755-2.225-.7-1.629-.543-.814-.272-13.301-4.614c-7.259-2.614-11.336-4.036-18.458-7.6-7.854-4.118-12.25-6.404-20.63-11.944-4.895-3.549-7.464-6.064-11.672-11.672-2.208-3.379-3.067-5.17-3.8-8.143m51.363 19.678 2.622 1.035 1.347.506 1.297.487.305.114.227.081 1.28.457 1.572.56 3.235 1.096 2.056.67m848.692-31.269-.138.01-4.4.313-4.935.418-5.193.491-5.306.544-5.272.573-5.09.582-5.03.602-5.093.638-5.281.685-5.381.717-.217.029-5.38.729-.624.085-5.379.737-1.123.154-5.379.738-1.716.236-5.379.736-2.406.329-5.379.735-2.969.405-5.379.734-3.402.465-5.379.733-3.702.505-5.379.733-3.863.527-5.378.736-4.071.557-5.378.742-4.326.597-5.377.75-4.631.645-5.376.76-4.987.705-5.374.767-5.286.754-5.374.771-5.374.771-.148.022-5.374.774-5.373.773-.323.047-5.373.773-5.373.774-.43.062-5.373.773-5.374.774-.539.078-5.373.773-5.374.774-.649.094-5.373.773-5.374.774-.761.11-5.374.773-5.373.774-.875.126-5.374.773-5.373.774-.936.135-5.373.773-5.374.774-.939.136-5.373.773-5.374.774-.885.127-5.373.774-5.374.774-.77.11-5.373.774-5.374.773-.708.103-5.373.773-5.374.774-.701.101-5.374.773-5.373.775-.751.108-5.374.773-5.373.774-.861.124-5.373.774-5.374.774-.915.132-5.374.774-5.373.775-.915.132-5.373.775-5.373.776-.855.124-5.373.777-5.373.777-.734.106-5.373.779-5.373.778-.209.03-5.373.78-4.639.673-5.373.78-3.266.475-5.372.781-1.456.212-5.342.79-4.188.649-3.379.569-2.92.552-2.47.512-2.03.447-1.598.358-1.176.244-.98.174-1.011.15-1.271.171-1.759.236-2.006.269-2.008.27-1.765.236-1.276.172-.832.066-.815.004-1.022-.179"/><path stroke="#fff" stroke-linejoin="round" stroke-width="2" d="m510.081 480.377 1.394.382.441.114-1.342-.346-1.77-.497-1.979-.576-1.971-.585-1.75-.523-1.318-.394-1.084-.444-.934-.392-.951-.632-.994-.809-.587-.57-1.14-1.105-1.028-1.147m482.545-55.754-.411-.005-.229-.003-2.12-.025-3.442.097-2.586.138-.522.027m9.916-.118-1.246-.118m-455.401 34.021-.498.079-.789.148-.411.135-.186.168-.118.249-.068.387-.04.583-.032.836-.044 1.144-.078 1.437-.092 1.169-.042.543-.215 1.969-.316 2.207-.407 2.328-.484 2.331-.55 2.216-.606 1.984-.075.212-.534 1.512-.532 1.354-.033.082-.47 1.12-.326.779-.194.503-1.794 4.318m5.074-256.61-.083-.055-.032-.027-.022-.065.035-.076.273-.203.687-.445 1.261-.8 1.995-1.263 2.829-1.855 3.199-2.188.098-.068.467-.319.698-.498 3.975-2.831.089-.063.033-.024 1.03-.762.114-.085 4.365-3.229.407-.301 4.34-3.262 2.693-2.024 4.335-3.269 3.804-2.869 4.342-3.26 3.106-2.333.584-.439.43-.323.128-.095.643-.483 4.356-3.24.264-.197 1.754-1.305.02-.015.208-.154.807-.601 2.897-2.155.786-.576 1.967-1.44 2.149-1.574 4.379-3.209 1.861-1.362 3.196-2.293 4.411-3.165 4.137-2.967 4.451-3.108 4.451-3.108 3.22-2.249 3.649-2.462.054-.036 4.004-2.702 3.903-2.633.678-.457.423-.275 4.551-2.96 4.551-2.96 2.667-1.735 4.607-2.873 4.606-2.873 2.637-1.645 4.606-2.731.256-.152 4.669-2.769 1.741-1.032 4.746-2.636 4.746-2.636.976-.543 4.824-2.491 4.823-2.492.183-.093 4.898-2.341 2.436-1.163 2.011-.961 4.967-2.19.874-.386 3.17-1.398 5.026-2.051 3.796-1.548.063-.025 1.454-.546.064-.024.221-.083 1.222-.46 5.082-1.909.327-.123.036-.013.161-.061.031-.012.129-.044.074-.026.055-.019 2.308-.792.069-.023 1.849-.635.022-.008 3.834-1.317.155-.047 5.184-1.61.207-.065 2.506-.778 1.037-.287.834-.23 1.53-.424.783-.217.839-.232 2.707-.75.533-.129h.002l5.275-1.28 1.842-.448 1.625-.343 1.733-.367 4.449-.94 5.338-.992 2.851-.529 5.356-.89 3.436-.573 5.371-.792 3.78-.557 5.385-.688 3.891-.497.207-.021 5.399-.57 3.569-.377 5.412-.43 2.723-.216.72-.057 5.421-.306 3.143-.177 5.425-.203 2.874-.107 4.956-.112.362-.008 2.743-.062 4.358-.055 3.489-.043h.237l3.919.006 1.098.002h1.129l.789.002h.603l5.007.093 2.836.052 5.425.203 2.514.094.105.005.117.005 4.476.257 1.998.115 1.898.109 4.369.332 1.233.094 2.979.225 5.33.5 3.341.312 5.395.6 2.752.307.499.056 5.384.698 3.127.405 5.37.798 3.001.447.135.022m1.396.235 5.353.9 1.338.225.132.025"/><path stroke="#fff" stroke-linejoin="round" stroke-width="2" d="m922.394 89.567-.3-.051-5.353-.908-.721-.123-.315-.053-.243-.042-.066-.01-.221-.038-.081-.014h-.005l-.006-.002-.243-.04-.485-.083-.157-.026-.187-.032-.199-.033-.176-.03m0 0-.018-.003-.173-.028.191.032ZM563.975 221.363l-.562.581-2.22 2.297-1.603 1.66-1.014 1.049-.578.58-.062.054-.231.198-.015.007-.139.064-.006.003-.021.005-.16.043-.093.01-.511.038-.424.014-.124.005-.219.007-.331.012-.083.002-1.874.052-3.091.086-2.63.048-1.187.021-1.374.002-.437.001-2.32.003-.81-.021-3.219-.085m172.546-110.892-4.973 2.177-3.917 1.714-4.918 2.3-4.328 2.024-4.849 2.44-4.786 2.408-4.77 2.59-4.771 2.591-.522.283-4.682 2.747-4.62 2.71-1.228.72-4.602 2.88-4.602 2.88-1.614 1.01-3.172 2.102-4.525 2.999-3.223 2.136-3.344 2.339-4.448 3.113-3.033 2.122-4.367 3.225-.929.686-.222.164-3.915 2.891-1.093.807-4.289 3.328-4.289 3.328-1.431 1.11-1.28 1.043-2.192 1.784-.459.374-.173.141-.56.456-.102.083-.142.116-4.21 3.428-.151.123-1.265 1.084-.148.127-.38.325-.473.406-4.123 3.532-1.907 1.635-4.018 3.652-.71.646-2.362 2.147-3.916 3.76-2.087 2.004-3.829 3.849-1.214 1.221-3.772 3.904-.445.459-2.23 2.308-3.903 4.041"/><path stroke="#fff" stroke-linejoin="round" stroke-width="2" d="m541.856 228.183-3.327-.08-.145-.005-.196-.005-.237-.006-.263-.006-1.593-.032M915.083 88.326l5.353.902 1.227.207.169.03"/><path stroke="#fff" stroke-linejoin="round" stroke-width="2" d="m915.34 88.37 5.353.903 1.073.181.066.011.188.034m.191.035.182.033.153.028 5.335 1.01 1.45.275 1.118.212"/><path stroke="#fff" stroke-linejoin="round" stroke-width="2" d="m929.331 90.88.939.177.179.034.152.03 5.314 1.11 2.602.545 5.293 1.21 2.508.574 5.27 1.306 2.439.605 5.246 1.398 2.394.638 5.221 1.485m-51.8-11.664.012.001.24.04.751.128 5.353.905.428.072.148.025.192.035-.223-.038h-.001l-5.353-.906-.684-.117-.461-.078-.094-.015m-549.963 88.98 4.074-2.461 4.675-2.76 4.675-2.759.621-.366.02-.011 4.702-2.714 4.703-2.713 1.44-.83 4.733-2.658 4.734-2.657 2.057-1.155 4.768-2.596 4.768-2.596 2.448-1.333 4.806-2.525 4.806-2.525 2.614-1.374 4.843-2.453 4.842-2.454 2.518-1.275 4.881-2.376 4.391-2.137"/><path stroke="#fff" stroke-linejoin="round" stroke-width="2" d="m438.392 137.092 4.882-2.377 4.278-2.084 2.777-1.353 4.924-2.288 4.923-2.287 1.549-.72 4.973-2.177 4.973-2.177.656-.288.126-.053 5.023-2.061 4.934-2.024 5.07-1.941 4.376-1.674 5.114-1.824 3.961-1.412 5.151-1.717 3.689-1.229 5.187-1.604 3.397-1.05.122-.037 5.222-1.485 3.084-.878 5.256-1.359 2.749-.711 5.289-1.222.915-.212m-188.044 86.119-3.428 2.115-3.158 1.948-.819.504-4.623 2.846-4.3 2.584-3.288 1.925-2.408 1.371-1.663.924-1.053.586-.579.33-.241.157-.959.521c-6.59 3.087-10.268 3.77-16.829 4.886"/><path stroke="#fff" stroke-linejoin="round" stroke-width="2" d="m349.52 187.082 3.407-2.108 4.629-2.837 3.091-1.894 4.651-2.802.135-.081 4.071-2.453m-195.212 56.78 4.144-1.429 5.17-1.656 4.016-1.286 5.209-1.527 4.107-1.203 5.249-1.386 4.375-1.155 5.284-1.244 4.816-1.134 5.315-1.109 5.314-1.108.11-.023 5.336-.996 5.337-.996.471-.088 5.354-.897 5.354-.898.619-.104 5.368-.807 5.369-.808.559-.084 5.38-.725 5.38-.726.642-.087 5.387-.671 5.137-.639 5.393-.628 4.232-.493.94-.11m2.253-.196 2.761-.392.021-.004 1.437-.204.262-.037 1.143-.163.328-.046 1.385-.197 2.241-.318.848-.12.28-.043 3.434-.518 2.811-.439 1.95-.326.941-.181.023-.005.454-.088"/><path stroke="#fff" stroke-linejoin="round" stroke-width="2" d="m294.686 207.594 2.411-.327.037-.005.919-.125.861-.117 1.491-.203 2.844-.386m-9.772 1.262.181-.023 3.815-.471"/><path stroke="#fff" stroke-linejoin="round" stroke-width="2" d="m294.003 207.649 1.484-.192.071-.01 1.915-.248 2.932-.381M91.794 264.044l.14-.1 2.078-1.463 1.81-1.24 2.502-1.744 1.2-.833 3.112-2.063.566-.37 3.514-2.166 4.017-2.207 4.513-2.227 5.002-2.228 5.035-2.029.516-.208 5.098-1.868 1.06-.388 5.154-1.704 1.713-.566 5.205-1.544 2.473-.734 5.247-1.394 3.337-.887.462-.117 5.28-1.263 4.328-1.035 5.306-1.149 3.83-.829"/><path stroke="#fff" stroke-linejoin="round" stroke-width="2" d="m86.392 267.721 1.052-.722 1.287-.885 1.217-.821 1.987-1.349"/><path stroke="#fff" stroke-linejoin="round" stroke-width="2" d="m60.221 291.532-.029-.032-.149-.156-.004-.005-.054-.08-.006-.067.005-.013.11-.119.302-.24.563-.426.242-.183.02-.016.027-.02.604-.457 1.209-.965 1.511-1.291 1.797-1.653 2.066-2.05 2.216-2.271 2.215-2.283.037-.037 2.178-2.204 2-1.927 1.923-1.734 1.951-1.62 2.078-1.587.072-.055.276-.207 2.305-1.643 1.758-1.192"/><path stroke="#fff" stroke-linejoin="round" stroke-width="2" d="m59.978 291.191.056.041.077.042.05.028.211.104.138.056.032.014.164.067.013.005.125.043.197.068.16.056.7.209.419.111.236.062.16.042.072.019.055.014.158.039.889.22.113.027.246.059.025.006.027.006.082.02.245.058.19.046.083.02.093.022h.001l.097.023.036.009.069.016.095.022.06.014.284.068.063.015.038.009.055.013.014.004.11.027.073.018.053.013.152.037.052.013.004.001h.002m444.196-65.588 1.627-.588.011-.003.116-.043 1.507-.635.026-.013 1.207-.574.793-.409.1-.051.046-.023.224-.12.399-.212.394-.215.21-.111.113-.051.093-.025.482-.214"/><path stroke="#fff" stroke-linejoin="round" stroke-width="2" d="m130.288 321.635-.005-.032-.012-.07.006-.03.006-.032.038-.066.052-.023.298-.129.675-.245.266-.096.886-.311.91-.32.221-.078.212-.074.001-.001.424-.148.586-.206 1.474-.518.495-.177.514-.184.433-.154.241-.086.476-.171.375-.133 1.281-.458.845-.31.615-.225.393-.144.047-.017.155-.058.988-.361.313-.115 1.132-.415 1.267-.481.376-.143.024-.008.689-.262.679-.257 1.9-.721 2.889-1.143.097-.038 1.1-.436.084-.033.983-.389 3.529-1.429.404-.163.116-.047.997-.404.069-.028.06-.024.444-.18 2.278-.927.05-.02.008-.003.452-.185.419-.169.025-.011.031-.012.094-.039.06-.024 2.921-1.189.578-.232 4.127-1.667 2.602-1.05 3.663-1.456 4.864-1.933 5.056-1.977 3.178-1.243.187-.073.006-.002.005-.002.204-.08.126-.049.05-.019.608-.238 5.069-1.945 3.28-1.259 1.633-.627.23-.087 5.083-1.907 1.279-.48.255-.096 3.231-1.212.135-.051.936-.341.337-.123 5.101-1.86 3.735-1.363 5.124-1.793 5.163-1.807 5.044-1.677.3-.1.013-.004.53-.176.09-.03.461-.153.609-.203 2.437-.81.384-.128.38-.126.364-.121.132-.044.973-.306.061-.019.152-.047.746-.234.059-.019.134-.042.061-.019.411-.129.12-.037.02-.007.173-.054.158-.05.095-.03.105-.032.093-.03.067-.021.082-.025.065-.021.015-.004.024-.008.222-.07.123-.039.078-.024.016-.005.043-.013.053-.017.095-.03.26-.082.318-.099.017-.005.251-.079.174-.055.068-.021.324-.102.213-.067 5.179-1.625.43-.135 3.981-1.176.442-.131 5.206-1.538 1.647-.487 1.208-.356 5.12-1.434 5.228-1.463 2.871-.803 5.247-1.394 5.247-1.394 3.189-.847 5.265-1.326 5.264-1.326 3.352-.844 5.282-1.256 5.281-1.256 3.252-.773.137-.03 4.243-.939.573-.127.744-.164 5.301-1.174 3.102-.685 1.975-.402 5.32-1.081 5.32-1.082 1.706-.347 5.339-.986 5.338-.987 4.208-.777 5.356-.892 5.355-.891 4.937-.823 5.367-.822 4.656-.713 5.366-.822.785-.121 5.373-.772.556-.08 5.374-.772 5.039-.725.125-.018 5.378-.741 1.381-.191.674-.093 4.593-.633.765-.105 1.967-.272 1.662-.229h.004l5.38-.726 2.474-.334 2.03-.274.087-.012.043-.005 3.669-.495 1.406-.19 1.31-.177 3.48-.461 3.993-.53 3.061-.407 1.291-.171.133-.018.094-.011.065-.009.128-.018 3.118-.413.881-.116 5.382-.706 5.383-.706 1.808-.237 1.53-.199 2.002-.261.141-.018 4.026-.524 2.997-.391.514-.066 5.252-.684 1.336-.175 4.463-.594 2.546-.366.216-.03.573-.097.235-.04.136-.023.065-.01.069-.012.181-.031.723-.121 2.122-.403.348-.074 1.821-.391.399-.099 1.725-.427 1.971-.576.016-.005m-84.012 83.148-.086-.003-5.426-.177-2.253-.074-5.426.169-2.511.077-5.409.463-2.428.208-5.379.733-2.082.284-2.457.465-4.344.822-5.264 1.328-.356.09-.237.059-4.65 1.444-.227.07-1.505.544-2.362.854-1.138.453-.866.345-.606.241-.217.087-.217.087-.185.073-.445.177-.788.315-.125.05-.438.164-.53.198-.142.034-.065.015-.242.059-.095-.01-.179-.042-.099-.023m188.663-92.166.08.01.368.046.293.036.194.025.102.017.057.026.015.013.007.036-.029.045-.048.051-.047.049-.119.16-.263.38-.478.71-.135.202-.374.563-.036.055-.056.084-.165.248-.429.665-.495.767-.952 1.553-.849 1.51-.615 1.307-.4 1.213-.203 1.237-.005.256-.007.408-.001.035-.013.674.134 1.626.23 1.7.268 1.594.242 1.303.153.829.114.747.119 1.057.175 1.763.278 2.866.358 3.683.418 4.212.454 4.451.466 4.395.449 4.091.396 3.539.31 2.74.191 1.69.098.932.031.464-.011.285-.028.398-.037.45-.039.442-.037.371-.025.241.007.301.062.555.138.998.236 1.636.285 1.958.279 1.903.01.063.241 1.658.146 1.035.094 1.026.083 1.633.104 2.544.012.31.19 4.691.217 5.424.026.65.21 5.425.061 1.582.2 5.425.039 1.049.037 1.012.016.434.187 5.426.057 1.655.092 2.784.017.504.005.168.014.419.121 3.652.065 2.03.011.354.165 5.136.018.59.172 5.426.047 1.482.054 1.679.039 1.186.051 1.602.036 1.118.06 1.871.039 1.243.173 5.426.007.206.017.546.165 5.427.019.608.041 1.356.153 5.427.055 1.937.111 4.412.074 2.929.12 5.427.041 1.87.103 5.428.034 1.808.084 5.428.017 1.053.01.672.062 5.142.024 1.91.052 5.429.011 1.129.042 5.429.002.248.03 4.412.019 2.766-.004 1.511-.002.024-.025.456-.01.161-.074.177-.011.01-.108.107-.042.028-.407.11-.899.142-1.609.222-2.536.352-3.127.451-3.379.515-3.291.548-2.858.546-2.414.515-1.957.453-1.49.359-1.009.233-.816.167-.914.158-1.3.206-1.979.315-2.322.369-2.329.37-1.994.318-.081.013-1.239.196-.791.107-.413.008-.12-.026-.19-.075-.288-.113-.249-.097-.112-.044-.409-.161-.434-.17"/><path stroke="#fff" stroke-linejoin="round" stroke-width="2" d="m441.467 312.715-.298-.054-5.34-.979-1.869-.342-5.4-.563-2.192-.228"/><path stroke="#fff" stroke-linejoin="round" stroke-width="2" d="m520.619 450.74-.192-.088-.119-.177-.045-.625.029-1.429.103-2.593.178-4.119.152-5.307.023-5.428.003-.725-.164-5.426-.037-1.233-.421-5.412-.109-1.408-.36-3.028-.454-3.831-.759-4.901-.29-1.874-1.007-5.335-.232-1.228-.13-.586-1.174-5.3-.076-.34-1.4-5.245-.201-.753-.46-1.421-1.444-4.466-.741-1.91-1.545-3.98-.711-1.55-1.401-3.058-.642-1.403-1.024-1.926-.256-.483-1.932-3.633-2.832-4.632-.827-1.352-3.122-4.441-.976-1.39-.463-.571-2.059-2.539-.295-.364-.156-.193-1.556-1.919-3.715-3.958-1.263-1.345-4.007-3.664-1.445-1.321-4.285-3.334-1.661-1.293-4.543-2.973-1.92-1.257-4.76-2.611-2.112-1.159-2.26-1.023-4.907-2.222-5.106-1.845-2.242-.809-5.243-1.411-.856-.231m104.254-84.461-.4.007-1.918.038-3.316-.012-3.183-.13-.512-.055-11.784-2.299-6.786-1.628m-386.984 97.442.1.088.151.134.021.019.416.387.532.481.4.336.194.162.031.025.3.224.389.288.027.017.701.431.717.378.658.309.042.018.509.216.394.161.157.059.116.044.19.066m704.67-114.855.122.064.015.015.082.08.087.185.09.334.12.528.17.77.236 1.016.317 1.266.413 1.521.524 1.782.631 2.087.737 2.438.841 2.836.943 3.28.995 3.618 1.001 3.854.957 3.982.862 4.003.747 3.77.43 2.316.032.173.035.192.112.603.448 2.545.266 1.553.097 1.198-.057 1.483-.197 2.408-.323 3.973-.254 3.063-.175 2.097-.465 5.409-.049.564-.489 5.406-.09 1.002-.523 5.404-.103 1.066-.544 5.401-.106 1.048-.385 3.738-.239 2.327-.029.284-.196 1.895-.036.351-.199 1.922-.206 2-.547 5.401-.052.508-.539 5.402-.015.152-.505 5.104-.361 3.675-.086.884-.038.385-.024.239-.323 3.298-.201 2.042-.021.21-.107 1.096-.006.055-.296 3.002-.163 1.656-.105 1.064-.023.222-.231 2.333-.182 2.599-.052 2.851.134 3.311.094.989.284 2.992.515 4.178.548 3.902.474 3.15.043.281.249 1.64.078 1.244-.169 1.116-.45 1.539-.763 2.513-.996 3.238-1.149 3.715-1.225 3.949-1.223 3.94-.158.511-.988 3.185-.999 3.223-.781 2.52-.492 1.587-.084.258-.151.461-.049.152-.121.28-.037.087-.106.09-.127.035-.705.143-1.989.311-3.898.587-5.369.809-1.083.162-5.369.808-2.971.448-5.368.807-4.185.629-5.369.807-4.705.707-5.369.806-4.513.677-5.369.805-4.483.673-5.368.804-4.622.693-5.369.804-4.935.739-5.369.805-5.43.814-5.369.804-5.369.804-.416.063-5.368.804-5.37.804-.625.093-5.369.805-5.369.804-.683.103-5.369.804-5.369.804-.585.088-5.369.804-5.369.804-.672.101-5.37.804-5.368.804-.955.144-5.369.804-5.369.804-1.438.215-5.369.804-5.369.804-2.13.319-5.369.805-5.369.804-2.252.338-5.369.806-5.369.805-1.778.267-5.368.808-5.368.808-.685.103-5.368.811-4.32.652-5.367.815-2.753.418-5.367.817-1.362.208-5.367.819-.159.025-4.518.69-3.671.561-2.99.457-2.481.379-2.141.329-1.798.275-1.45.223-1.098.169-.742.114-.461.056-.254-.006-.167-.014-.225-.066-.292-.108-.126-.046M964.14 107.428l-5.209-1.53-1.172-.323-5.233-1.446-1.217-.308-5.263-1.334-1.525-.347-5.294-1.205-2.107-.427-5.321-1.078-2.561-.463-5.342-.966-2.88-.466-5.359-.865-.374-.058-3.058-.437-5.374-.767-3.088-.382-5.387-.667-3.033-.318-5.399-.566-2.889-.246-5.409-.462-2.654-.172-5.417-.35-.579-.027-1.159-.049-1.164-.048-5.424-.227-2.113-.042-5.427-.107-2.173.001-5.279.003-.665.002c-59.084.873-81.586 5.729-116 16.736-15.001 5.454-23.831 9.244-39.902 16.558"/><path stroke="#fff" stroke-linejoin="round" stroke-width="2" d="m762.879 104.547 1.293-.274 3.686-.784.975-.206 1.392-.296.585-.124 1.383-.247.635-.113 3.477-.62 2.682-.478 3.111-.47 5.368-.812 3.247-.419 5.384-.693 2.997-.328 5.397-.59.245-.028c21.843-1.639 31.327-1.825 45.848-1.52 45.624.06 70.444 4.449 114.006 16.286"/><path stroke="#fff" stroke-linejoin="round" stroke-width="2" d="m763.093 104.493-.213.053-4.798 1.21-3.073.774-.48.142-5.208 1.535-.832.246-.188.055-.013.004-.718.212-.855.252-4.872 1.647-.788.267-.043.014-.002.001-2.981 1.009-5.083 1.906-3.929 1.474-5.028 2.047-4.24 1.727-4.977 2.168-4.474 1.95-4.93 2.273-4.628 2.135-4.875 2.388-4.767 2.336-4.812 2.514-4.888 2.553-4.739 2.647-4.74 2.647-.25.14-4.658 2.789-1.823 1.093-3.251 1.946-4.574 2.924-4.575 2.924-.605.386-3.289 2.234-4.492 3.05-2.013 1.367-4.409 3.168-1.257.903-3.13 2.249-1.059.76-1.472 1.115-2.564 1.941-.047.036-.054.04-1.252.948-2.219 1.68-.28.212-2.047 1.55-4.25 3.378-1.622 1.29-.59.469-.18.143-.571.454-1.217.968-1.346 1.07-3.156 2.636-.187.157-.39.325-.45.376-4.166 3.48-.958.801"/><path stroke="#fff" stroke-linejoin="round" stroke-width="2" d="m603.554 191.648-.038.033-4.07 3.592-4.071 3.592-.526.465-3.953 3.72-3.823 3.6-1.782 1.769-3.853 3.825-1.05 1.042-3.773 3.904-1.659 1.718-3.718 3.957-.299.319-2.443 2.6-1.297 1.325-.216.168-.371.291-.15.018-.302.019-.439.028-.25.018h-.004l-.25.02-.19.016-.393.028-.265.012-.231.017-.327.015-.04.001-.371.012-.115.004-.061.002"/><path stroke="#fff" stroke-linejoin="round" stroke-width="2" d="m557.523 227.861.233.033.508.054.441.03.225.012.31-.005.299-.009.435-.026.655-.036.771-.042.782-.041.688-.036.353-.018.061-.003.075-.003.362-.019.05-.003.258-.016.322-.021.409-.022.456-.027h.011l.243-.015.25-.015m-6.734.342-.28.003"/><path stroke="#fff" stroke-linejoin="round" stroke-width="2" d="m558.23 227.9.452.045.304.03.254.01m-.702-.032-.346-.026-.474-.051-.167-.024m-253.696-21.23.038-.009.254-.061.627-.15.699-.146.766-.151.783-.118.745-.091.656-.065.513-.046.317-.03.166-.012.057.011.076.024.048.051.027.097.011.162.002.237.004.214.001.11.005.387.006.432.006.452"/><path stroke="#fff" stroke-linejoin="round" stroke-width="2" d="m79.389 283.678.195-.14.6-.432.525-.377.566-.407 2.15-1.506 1.186-.831.13-.088.402-.273 3.234-2.199 4.332-2.856 4.57-2.93.463-.297 4.608-2.869.512-.319.051-.032.435-.271 4.649-2.804.12-.072 1.288-.777 1.34-.779 3.298-1.918.399-.232 1.301-.757.05-.029 3.114-1.735 1.49-.831 1.998-1.112 4.8-2.537 2.073-1.095 4.863-2.413 2.333-1.158 4.928-2.277 2.642-1.222 4.993-2.132 3.002-1.282 5.046-2.002 3.323-1.317 5.091-1.882 3.603-1.332 5.131-1.773 3.841-1.326 5.165-1.67 4.036-1.305 5.203-1.551 2.732-.815.015-.005.075-.022.03-.009.104-.031.053-.016.065-.019.071-.021.011-.004.072-.021.021-.006.135-.041.053-.015.091-.028.795-.237 5.239-1.423 4.699-1.276 5.274-1.288 5.163-1.261 5.306-1.15 5.305-1.15.406-.088 5.326-1.048 5.327-1.048.769-.151 5.341-.974 5.341-.973.979-.178 5.35-.922 5.35-.921 1.039-.18 5.355-.889 5.356-.891.954-.158 5.359-.868 5.36-.868.147-.024 5.362-.854 3.974-.632 5.361-.851 1.816-.288 2.098-.335M73.312 288.133l.088-.065.135-.101.002-.001.088-.066.136-.1.064-.048.02-.016.03-.021.108-.08.166-.124.183-.135.017-.013.072-.054.174-.129.051-.038.036-.027.015-.01.016-.012.017-.013.04-.03.549-.407 2.906-2.128.076-.055.559-.402.4-.287.06-.044.069-.049m-6.077 4.455-.028.021-.01.007-.196.146-.007.005-.233.173-.009.007-.051.037v.001l-.002.002-.016.011-.108.08-.012.009-.007.005-.019.014-.054.04-.008.006-.217.163-.028.021-.073.055-.015.011-.382.286-.007.005-.035.027-.026.02-.057.042-.069.051-.028.021-.041.032-.07.051-.028.022-.08.06-.116.087-.139.104-.038.028-.27.203-.02.014-.053.04-.118.089-.01.006-.013.011-.105.078-.12.09-.008.006-.014.011-.003.002-.002.001-.016.013-.22.163-.033.026-.141.106-.162.122-.007.005-.018.013-.023.018-.037.027-.086.065-.04.03-.086.065-.008.007-.037.027-.012.009-.048.036-.111.083-.015.011-.176.133-.01.008-.053.04-.303.228-.094.07-.004.003-.028.022-.004.002-.042.032-.02.014-.005.004-.014.011-.112.085-.178.133-.033.025-.047.035-.029.022-.03.023-.009.006-.182.137-.141.106-.02.014-.075.057-.022.017-.045.034-.003.002-.047.035-.012.01-.012.009-.185.139-.055.041-.055.041-.053.04-.014.011-.064.047-.206.155-.053.04-.05.036-.102.078-.027.019-.063.048-.005.004-.079.059-.138.104-.058.043-.026.019-.012.009-.004.004-.005.004-.019.013-.064.049-.14.104-.039.03-.06.046-.013.008-.165.124-.008.006-.025.019-.023.017-.04.03-.093.07-.121.091-.101.076-.006.004-.064.048-.034.026-.112.084-.035.027-.07.053-.007.005-.033.025-.018.014-.132.099-.05.039-.007.004-.042.032-.106.081-.164.124-.03.021-.061.047-.013.009-.005.005-.038.028-.011.009-.033.024-.09.069-.068.051-.088.067-.038.028-.01.008-.126.095-.188.142-.032.024-.038.029-.04.03-.014.011-.033.025-.045.034-.087.066-.024.018-.136.103-.024.018-.012.009-.024.018-.08.062-.186.143-.044.034-.035.027-.02.015-.003.003-.044.033-.041.033-.082.063-.015.011-.153.118-.001.001-.033.025-.093.072-.07.054-.09.069-.062.048-.027.021-.007.005-.04.031-.002.002-.035.027-.078.06-.071.055-.085.066-.017.013-.034.026-.116.089-.09.069-.079.062-.003.002-.013.01-.015.012-.015.011-.033.026-.05.038-.018.014-.003.002-.032.026-.102.082-.01.007-.029.023-.033.027-.008.007-.166.133-.008.006-.061.049-.029.023-.028.022-.012.01-.007.006-.019.015-.141.113-.037.03-.04.031-.03.025-.03.024-.015.011-.053.043-.081.065-.055.044-.033.026-.022.019-.005.003-.027.022-.01.008-.015.012-.095.075-.074.06-.01.008-.03.024v.001l-.013.01-.08.064-.097.077-.019.016-.07.056-.003.003-.029.022-.004.004-.008.007-.013.01-.007.006-.005.004-.064.055-.029.025-.076.065-.013.011-.062.052-.025.021-.038.032-.193.165-.11.094-.032.027-.323.276-.455.387-.76.71-.233.217-.085.08-.098.091-.044.041-.997 1.063-.775 1.002-.064.092-.554.958-.35.917-.038.106-.164.88-.017.143.001.201.003.847.01.281.012.384c.272 1.312.543 1.947 1.097 2.777m254.436-102.628.079-.012.037-.005-.037.004-.005.001-.162.017-.318.031-.516.048-.659.068-.748.093-.784.122-.766.155-.742.187-.156.046-.561.17-.688.243-.655.269-.575.306 1.066.598 6.786 1.629 17.101 2.443 21.173 3.257 49.131 6.515c28.957 3.311 45.444 4.492 75.189 5.7 0 0 17.915.814 17.915 1.086m-181.026-22.983v-.001m510.985 29.893.814-.524.993-.355 1.238-.257 1.547-.23 1.285-.183.459-.065.174-.025 2.019-.231 1.852-.107.837.061.046.003.535.038.718.395-.092.018-.1.006-.07-.011"/><path stroke="#fff" stroke-linejoin="round" stroke-width="2" d="m821.44 237.335-.027.017-.78.502-.696.763-.613.881-.559.871-.529.733-.529.467-.039.032-.924.317-1.709.281-2.736.342-.157.019-4.48.56-.517.065-.103.013-.173.021-.161.02-.212.027-.173.021-.589.074-.026.003-.066.009-.078.009-.304.038-.008.001-.324.041-.126.016-.126.016-.128.015-.13.017-.187.023-.017.002-.048.006-.213.027-.146.018-.499.062-.039.005-.132.017-.33.041-.313.039-.07.009-.017.002-.062.008-.036.004-.342.043-.013.001-.065.009-.199.025-.25.031-.367.046-.084.01-.17.022-.925.115-.279.035-.184.023-.294.037-.022.002-.08.01-.404.051-.697.087-.152.019-.044.006-.622.077-.162.02-.246.031-.036.005-.431.054-.068.009-.068.008-.5.063-.072.008-.498.063-.044.005-.107.014-.991.124-.284.035-.103.013-.397.05-.051.006-.037.005-.39.049-.07.009-.297.037-.794.1-1.113.14-.481.06-.148.018-.112.014-.363.046-.192.024-2.013.289-.072.016-.422.093-.153.034-.418.091-.062.014-.524.266"/><path stroke="#fff" stroke-linejoin="round" stroke-width="2" d="m817.707 241.568-.921.316-1.707.28-2.796.349-.093.011-4.478.559-.636.079-.094.012-.514.064-.726.091-.268.033-.327.041-.293.037-.465.058-.212.026-.074.009-.141.018-.189.024-.53.066-.74.092-.106.013-.038.005-.486.061-.209.026-.239.03-.418.052-.182.023-.035.004-1.692.212-.129.016-.352.044-.888.111-.601.075-.122.016-.813.102-.106.013-.498.063-.693.086-.991.125-.866.108-.061.008-.434.054-.186.024-.044.005m-6.941 1.207.564-.297.008-.003.41-.094.726-.167m-1.682.594-.001.002-.287.39-.085.478.053.546.125.596.04.189.092.437.032.1.11.351.033.104.015.046.296.514.002.003m46.406-14.019-.113-.007-.687-.041-.123-.008-.474-.028-1.829.121-1.993.242-.071.01-.46.067-1.36.199-1.522.223-1.216.247-.969.341"/><path stroke="#fff" stroke-linejoin="round" stroke-width="2" d="m785.821 250.002.213.174.2.164.429.112.232.061m45.222-14.535.149.054.599.317.095.051.039.042.153.63-.234.875-.013.035-.468 1.082-.4.908-.167.379"/><path stroke="#fff" stroke-linejoin="round" stroke-width="2" d="m832.037 239.973-.17.386-.657 1.372-.719 1.286-.762 1.056-.828.716-1.022.423-1.488.291-2.182.285-3.105.405-3.813.498-1.284.167-.136.018-.216.028-.513.067-.111.014-.071.01-.03.003-.06.009-.313.04-.043.006-.086.011-.421.055-.038.005-.041.005-.405.053-.1.013-.436.057-.556.072-.262.034-.298.039-.077.01-.025.003-.181.024-.24.031-.179.024-.144.018-.517.067-.521.068-.582.076-.263.034-.315.041-.149.02-.246.032-.021.002-1.052.137-.152.019-.156.021-.136.017-.181.024-.42.054-.717.093-1.261.164-.552.072h-.006l-.013.002-.32.042-.528.068-.632.082-.985.128-1.273.165-.134.017-.12.015-.039.005-.25.033-.136.018-.354.045-.049.007-.104.013-1.626.211-.264.034-1.6.207-.472.061-.791.103-.824.107-1.226.158-2.376.308-1.618.169-.186.011-1.042.009-.154-.013M557.97 227.922l11.943-.321h3.801l4.885-.494h14.115l10.315-.543m93.047.734.825-.079 1.327-.132 5.402-.537 5.402-.537.787-.078 5.4-.56 5.4-.56 1.755-.182 1.971-.214 5.05-.55.461-.05 1.839-.2.421-.046 2.087-.227 5.394-.611 5.395-.61.453-.051 5.392-.629 5.393-.629 5.391-.641 5.065-.602 5.39-.646 4.287-.513.573-.069 5.39-.65 4.642-.559 5.39-.653 4.416-.535 5.389-.654 4.179-.507 5.39-.656 3.933-.478 5.388-.656 3.183-.387 5.389-.656 1.941-.236 5.389-.657.22-.027 1.526-.186.444-.054 1.443-.176.608-.081.43.012m-107.739 12.962-1.875.204-.421.046-1.839.2-.413.045-1.883.205-3.175.346-2.223.241-5.4.561-5.4.56-1.754.182-5.402.538-5.402.537-.494.05-1.62.16-.696.067m-41.351 3.754-5.41.455-.151.013-5.41.442-2.013.164-1.392.113-5.412.433-1.299.104-4.164.335-2.232.182-.927.077-.256.024-.222.021-.868.071-2.192.176-4.205.336-5.412.432-1.51.12-5.34.426-3.248.26-5.411.435-3.779.303-5.411.439-3.287.267-4.418.367-.847.07-.059.005-1.765.146-5.409.459-.321.028-4.635.403-2.702.24-.235.021-.872.077-.59.054-.468.042-2.198.197-2.701.246-2.14.197-1.578.147-1.015.094-.649.041m73.932-6.294.252-.025.919-.077 2.221-.181 4.148-.334 5.412-.434 1.278-.102 5.411-.443 3.383-.276 2.76-.233m-100.354 8.368.158.016.244-.111.512.008.657-.044 1.012-.096 1.573-.15 2.132-.199 2.689-.249 2.416-.22.825-.075.637-.057.235-.021 2.918-.262 4.609-.404 5.41-.46.288-.024m261.506-34.764.096.01.241.025.299.043.219.074.206.135.272.225.418.342.488.406.481.413.396.364.236.261.11.25.02.338-.034.519-.053.795-.061.937-.062.943-.053.812-.021.309-.015.237-.112.326-.28.155"/><path stroke="#fff" stroke-linejoin="round" stroke-width="2" d="m691.801 228.615-.71.051-.178.014-1.303.106-2.602.222-4.076.36-4.747.414-4.602.384-3.796.289-1.094.081-1.497.111-2.812.163-3.242.175-3.736.143-2.867.079-1.697.046-.74.017-4.076.09-.101.002-4.398.084-1.846.032-1.777.031-2.191.038-2.221.023-.305.003-.813.008-.257-.01-.137-.006m1.206.009-.345.017-1.057.027-2.066.039-3.402.063-4.373.085-4.985.105-5.239.123-4.126.111-.663.017-.351.01m90.653-8.766-.01.004-.114.008"/><path stroke="#fff" stroke-linejoin="round" stroke-width="2" d="m698.997 223.266.159.048.076.091-.024.143-.114.204-.196.273-.221.28-.048.06-.338.416-.387.478-.432.548-.473.573-.513.553-.009.008-.4.358-.139.124-.047.031-.533.351-.626.29-.686.214-.114.024-.774.153-.859.107-1.26.082-.125.006m7.382-3.908.332-.409m-70.581-47.966-.301 1.717-.282 1.601-.086.486-.022.128-.025.139-.047.27-.15.842-.559 3.15-.03.173-.052.291-.053.296-.039.224-.955 5.344-.127.706-.401 2.224m3.792-22.193-.019-.074-.072-.039-.12-.015"/><path stroke="#fff" stroke-linejoin="round" stroke-width="2" d="m628.691 171.722.063.102.032.141-.067.558-.228 1.358-.213 1.21-.232 1.316-.302 1.707m201.417 25.677c-.072-.091-.124-.092-.238 0l.03-.305.27-2.861.512-5.405.361-3.99.49-5.407.412-5.013.355-4.325.193-2.782.074-1.07.377-5.416.003-.064.08-1.522.283-5.422.113-2.175.03-.827.189-5.39.033-.944.048-1.353.002-.089.009-.239.009-.259.075-4.244.008-.454.036-2.026v-.018l.041-2.281v-2.464l.001-.627v-2.065l.001-3.79-.06-3.496-.002-.129-.05-2.91-.027-1.611-.009-.498-.004-.229-.01-.369-.061-2.033-.018-.636-.024-.799-.13-4.425-.065-1.703-.208-5.425-.172-3.937-.067-1.541-.145-3.32-.052-1.088v-.271m139.067 270.132-.015.017-.303.333-2.702 2.976-3.046 3.097-.052.049-3.144 2.871-3.289 2.62-3.495 2.359-3.763 2.086-1.279.57-2.85 1.271-4.59 1.623-5.153 1.435-5.303 1.16-.514.112-5.342.97-1.063.194-5.36.858-1.551.249-5.369.807-1.97.296-5.368.807-2.315.347-5.368.806-2.384.357-5.368.805-2.171.326-5.368.804-1.668.25-5.369.804-.868.13-5.369.803-.273.041-5.258.785-5.088.758-5.138.765-4.864.723-4.259.633-3.322.493-2.048.304-1.083.153-.432.039-.13.011-.19-.023-.261-.056-.162-.04"/><path stroke="#fff" stroke-linejoin="round" stroke-width="2" d="m973.915 363.18-2.554 2.983-.439.513-.023.026-.296.324M839.665 202.535l.075-.015.225-.045m4.383 7.948.123-.304.073-.536.017-.119.1-.705.133-.937.122-.875.078-.719.003-.469-.082-.314-.169-.252-.273-.281-.396-.401-.457-.459-.454-.456-.391-.39-.267-.264-.21-.167-.943-.369c-.054-.089-.105-.102-.272 0"/><path stroke="#fff" stroke-linejoin="round" stroke-width="2" d="m964.008 192.373-3.086.516-.96.16-2.476.414-.203.034-1.282.205-1.14.183-4.825.773-5.365.833-2.37.369-5.366.819-2.823.431-5.367.814-3.241.491-5.368.817-3.627.552-5.367.817-3.995.607-3.106.471-.359.055-.292.044-.019.003-.389.059-5.368.814-.178.027-.57.086-1.158.174-.036.006-.289.043-3.747.566-.127.019-.475.072-.458.069-.387.058-.061.009-.061.01-2.671.403-4.766.713-.053.008-.897.134-.154.023-1.941.291-.166.025-2.371.354-1.886.282-.065.009-.982.146-5.37.8-1.637.244-5.37.797-3.418.507-5.371.795-1.499.222-4.171.618-2.206.305-.994.081-.51.016-1.494-.097-.448.08"/><path stroke="#fff" stroke-linejoin="round" stroke-width="2" d="m844.08 210.55.269-.127 1.017-.086 2.213-.306 4.171-.618 5.371-.795 1.498-.222 5.37-.797 3.417-.507 5.37-.799 1.199-.179.965-.144.07-.01 2.335-.348 2.088-.312.166-.025 1.943-.291.157-.024.897-.134.05-.007 5.045-.756 2.385-.359.033-.006.21-.031.638-.096.537-.081.094-.015 3.823-.576.28-.043.036-.005 1.154-.174.848-.128 5.264-.799.391-.059.016-.002.294-.044.359-.055 3.386-.514 5.367-.816 3.994-.607 5.367-.817 3.627-.551 5.368-.814 3.241-.492 5.367-.818 2.822-.431 5.365-.833 2.37-.368 5.276-.844 1.5-.24.471-.075 2.005-.335.961-.161M134.076 490.966l-1.912-.636-.334-.108-2.303-.743-2.948-.94-2.92-.924-2.557-.805-1.866-.585-1.403-.44-1.164-.362-1.148-.355-1.35-.419-1.575-.492-1.818-.576-2.078-.668-2.356-.769-2.584-.869-.121-.042-2.759-.968-2.884-1.064-2.957-1.158-2.997-1.241-3.002-1.31-2.974-1.37-2.914-1.417-2.83-1.449-2.721-1.466-.212-.114-2.59-1.468-.403-.237-.695-.411-1.088-.634-2.429-1.452-1.287-.78-2.298-1.443-1.297-.851-2.19-1.44-2.113-1.445-2.06-1.455-1.98-1.463-1.106-.84-1.874-1.468-1.747-1.471-1.598-1.475-1.464-1.469-.74-.757-1.347-1.456-1.247-1.439-1.164-1.414-1.073-1.399-.978-1.393-.462-.659-.874-1.393-.766-1.403-.265-.553-.652-1.398-.533-1.38-.147-.436-.104-.31-.41-1.347-.056-.219-.283-1.303-.158-1.254-.035-1.197-.004-.165.085-1.135.202-1.066.284-.986.051-.149.331-.895.345-.792.326-.678.301-.577.273-.488.24-.411.202-.348.105-.168.22-.348.296-.414.423-.545.606-.74.241-.275.544-.62"/><path stroke="#fff" stroke-linejoin="round" stroke-width="2" d="m42.403 418.984.396-.469.895-1.004.569-.622"/><path stroke="#fff" stroke-linejoin="round" stroke-width="2" d="m106.196 443.69-.424-.123-.658-.19-2.586-.747-2.545-.732-1.514-.436-.535-.155-.81-.235-.947-.275-.809-.235-1.073-.312-4.023-1.193-3.609-1.115-.788-.255-.376-.121-.282-.091-1.081-.35-.075-.024-.3-.097-.371-.12-1.523-.517-.109-.037-1.386-.471-2.836-1.014-2.009-.753-.721-.271-2.624-1.038-1.667-.7-.85-.356-.091-.041-2.32-1.037-2.304-1.103-.666-.336-1.534-.778-2.096-1.114-1.995-1.103-.662-.376-1.234-.703-.207-.122-.503-.294-.47-.276-.645-.379-.261-.159-.006-.003-.36-.218-.04-.025-.004-.002-.14-.086-.632-.383-.336-.204-1.758-1.105-1.764-1.144-.442-.292-1.727-1.173-1.66-1.192-1.546-1.189-.015-.012-1.426-1.198-1.301-1.185-1.186-1.16-1.078-1.123-.98-1.076-.889-1.038-.803-1.009-.722-.988-.649-.975-.326-.517-.563-.969m-2.672-15.713-.393 1.59-.185.999-.149 1.008-.093.996.012.993.075.658.108.992.206.994.302.996.244.624.39.997.367.923.44 1.066.459 1.047m0 0 .42.868.47.962-.418-.86-.472-.97Z"/><path stroke="#fff" stroke-linejoin="round" stroke-width="2" d="m35.272 315.501-1.657 1.851-1.539 1.72-1.795 2.237-.67.944-.517.949-.628 1.233-.268.799-.085.764L28 327.28l.16 1.79.241 2.691.357 3.548.51 4.357.1.748.703 5.133.36 2.268 1.212 42.158m26.833-75.946-.904-.74-.818-.772-.697-.761-.454-.575-.125-.159-.018-.022c-.372-.427-.51-.682-.744-1.101"/><path stroke="#fff" stroke-linejoin="round" stroke-width="2" d="m58.459 314.015.017.012 1.106.789 1.297.807 1.487.81 1.692.807 1.867.8 2.01.787 2.122.767 2.2.743 2.276.724 2.354.709 2.431.699 2.509.694 2.594.672 2.687.633 2.787.577 2.896.502 3.01.417 3.134.32 3.262.209 3.366.088m-45.488-35.126.022.011.05.026.014.008.06.031.06.031.076.033.036.015.17.073.046.019.072.026.199.07.22.078.221.066.472.141.307.08.001.001.238.061.164.043.078.02.117.03m-29.083 25.033 1.344-1.52 2.88-3.138 2.703-2.899 2.412-2.567 1.36-1.446.789-.819.273-.267.574-.542.746-.699.251-.235 1.544-1.437 2.21-2.053 2.507-2.327 2.439-2.263.642-.596 1.37-1.271m5.004-.961.035.008.12.027.903.211.093.021.115.026.124.028.048.011.013.003.06.013.216.049.037.008.31.069.007.002.12.027.014.003.052.011.142.032.121.026.006.002.1.021.264.059.029.007.016.003h.002l.078.018.05.011.112.026.012.002.106.024.045.01.008.002.002.001.022.005.073.016.122.072.014.008.016.011.058.033.034.023.006.076v.023"/><path stroke="#fff" stroke-linejoin="round" stroke-width="2" d="m56.289 294.543 1.389-1.29 1.221-1.135.644-.585.262-.204.078.003.092.035.026.017.097.065.062.051m-.108-.069.094.061m5.86 2.069.01-.006.17-.11.04-.025.022-.004.015-.002h.005m74.322 48.272.334.029.408.036 1.97.169.687.059 1.546.133.003.001.197.016.049.005.084.006 2.198.165.584.044 1.964.147 1.295.098 5.417.352 1.957.128 1.838.106.31.017 3.809.22 2.263.129 4.557.229 4.093.206 2.714.114.184.008.051.002.842.035.293.013 4.567.192 2.904.093 3.367.108 1.726.055.207.007 5.439.109 2.398.049 5.429.037 2.12.014 4.805-.037.17-.001h.001l.155-.002 2.214-.017 1.83-.042.217-.006.405-.009h.032l.149-.004.052-.001 4.543-.105 5.417-.346 1.764-.113 5.383-.696 1.818-.234 2.589-.562 4.699-1.02.002-.001 1.147-.371.53-.172.011-.004.366-.118 3.464-1.123.325-.106 1.601-.518.998-.412.06-.025.022-.009.02-.009.047-.019 1.13-.465 1.471-.607 2.125-.877.275-.113.067-.028.214-.088.198-.082 1.033-.426.711-.342.065-.031.92-.443.212-.102 1.94-.934.096-.046 3.997-1.924.624-.331.982-.522 1.125-.597.311-.166 1.35-.717 2.466-1.31.841-.446.131-.07.018-.009.437-.232 2.763-1.555.407-.229.43-.242.528-.297.02-.011.379-.214.408-.229.543-.306.612-.345.471-.264.155-.087.232-.131.142-.08.333-.187.243-.137.098-.056.277-.155.657-.37.489-.285.732-.427.196-.114.023-.013.71-.415 1.004-.585.365-.213.585-.341.002-.001.364-.212.111-.065.43-.251.478-.278.06-.036.357-.208.348-.203.18-.104.066-.039.189-.11.008-.005.015-.009.285-.166.269-.157.259-.151.774-.451.116-.068 4.662-2.781.175-.105 2.612-1.558 2.611-1.58.251-.151 2.851-1.725.095-.057.733-.443.848-.513.468-.283.583-.353.471-.284.397-.241 1.369-.812.433-.257.706-.365.053-.024.108-.05.287-.049.657-.01 1.272.043 2.1.106 1.532.086 1.61.091 3.949.274 1.307.115 2.885.252.322.028.056.006.906.101.739.083.069.007 3.076.344 4.725.679.213.031 4.716.788.801.149 3.373.626"/><path stroke="#fff" stroke-linejoin="round" stroke-width="2" d="m340.623 336.861.678-.461.832-.566.937-.637 1.623-1.104.695-.437.974-.614.927-.583.993-.626 1.849-1.164.269-.161.84-.503 1.153-.691.793-.475.058-.035 1.542-.923.068-.04.528-.318.104-.061.231-.134.164-.095.387-.225.207-.119.493-.286.844-.488 2.312-1.339.073-.042.085-.05.424-.241.11-.062.255-.145.099-.056.142-.081.419-.237.268-.152.984-.559.836-.474.232-.131.937-.532.872-.494.088-.05.074-.043.301-.171.512-.301.034-.02.136-.08.452-.267.348-.275.004-.027-.073-.076-.088-.085-.051-.049-.369-.286-.136-.093-.076-.052-.514-.355-.039-.026-1.303-.846-1.987-1.242-1.89-1.163-.446-.274-2.348-1.429-.824-.495-1.199-.722-1.357-.8-1.152-.535-1.411-.426-2.131-.471-3.313-.668"/><path stroke="#fff" stroke-linejoin="round" stroke-width="2" d="m343.73 309.568 3.397.627 3.31.663 2.127.465 1.008.302.399.119M144.52 473.717l.001-.27-.001-.001-.005-.013-.485-1.257-1.112-1.746-.437-.552-.441-.557-.839-1.06-2.36-2.671-2.089-2.236-.945-1.012-.286-.291-3.136-3.194-1.022-.982-.048-.047-2.447-2.353-1.046-.924-1.559-1.378-.722-.638-2.849-2.161-1.285-.806-1.195-.749-.462-.232-1.428-.718-2.027-.837-1.969-.749-1.565-.541-.539-.187-.739-.236-.52-.166-1.166-.373-.116-.035-2.818-.853-1.055-.311-.693-.204m56.388 57.414-1.494-.301-1.662-.333-2.77-.577-2.472-.533-2.263-.501-1.99-.451-1.653-.381-1.252-.293-.788-.182-.368-.112-.188-.057-.022-.006-.048-.015-.224-.112-.365-.186-.399-.221-.67-.385-1.033-.594-1.269-.744-1.377-.833-1.351-.851-1.194-.796-.86-.603-.39-.28-.032-.022-.021-.016"/><path stroke="#fff" stroke-linejoin="round" stroke-width="2" d="m344.685 334.094-1.62 1.103-.935.637-.83.566-.677.461-.244.167-.732.498-1.915 1.402-1.292.947-.342.25-.349.256-.678.496-.077.057-1.679 1.316-.685.538-.28.219-.099.077-1.194.936-.2.157-.145.114-.591.494-.176.147-3.014 2.518-.143.119-1.154 1.023-.004.004-.781.693-.221.196-1.419 1.257-1.227 1.179-.32.306-1.084 1.041-.062.06-.429.412-.2.191-.254.269-2.895 3.057-.075.088-.904 1.058-.106.124-.503.589-.255.297-1.22 1.428-1.478 1.913-.584.754-.153.199-.033.042-.167.216-.33.427-.259.335-.061.078-.097.139-2.48 3.513-.483.685-.164.252-.333.512-.394.607-.687 1.058-1.476 2.272-.339.564-.517.86-.191.319-.158.262-.294.49-.743 1.234-.19.317-.607 1.009-.159.286-.799 1.428-.441.789-.432.772-.246.439-.803 1.438-.14.251-1.406 2.722-.36.697-.357.695-.234.452-.505.979-.086.165-1.711 3.633-.289.613-.37.786-.232.492-.045.097-.171.363-1.872 4.416-.216.509-.146.346-.158.372-.202.477-.041.097-1.913 5.12-.155.413-.328.88-.021.065-.12.368-1.685 5.161-.036.109-.097.297-.194.594-.102.361-.074.26-1.472 5.226-.101.356-.054.191-.103.365-.193.806-.035.145-.418 1.747-.918 3.834-.011.048-.079.33-.173.866-.003.019-.182.916-.782 3.936-.12.601-.081.407v.002l-.019.098-.04.2-.098.62-.625 3.97-.058.37-.099.631-.086.548-.159 1.009-.018.116-.253 2.153-.106.911-.018.155-.013.11-.092.783-.069.598-.124 1.055-.211 1.803-.073.931-.024.313-.05.624-.012.159-.025.319-.017.215-.009.108-.063.807-.011.133-.111 1.42-.097 1.225-.033.42-.042.533-.032.412-.025.313-.002.025-.003.067-.05 1.167-.037.845-.026.607-.079 1.805-.032.743-.033.754-.106 2.444-.115 5.427-.054 2.542-.005.264-.041 5.428-.014 1.937-.002 5.429v.403l-.018 3.633-.044 2.089-.079 1.195-.122.952-.173 1.357-.216 1.641-.249 1.808-.274 1.854-.291 1.782-.284 1.633-.256 1.407-.207 1.105-.136.726-.094.43-.082.215-.096.093-.138.065-.113.018-.255.041-.787.077-1.378.119-2.14.184-2.525.216-2.531.218-2.155.185-1.395.12-1.204.057h-.009l-.26-.001h-.024l-1.294-.004-2.541-.064-2.768-.082-1.299-.039-5.209-.188-5.423-.24-.543-.023-5.421-.3-.917-.051-5.415-.381-.905-.064-5.41-.462-.897-.077-5.402-.539-.891-.089-5.393-.615-.887-.101-5.385-.687-.884-.113-5.377-.749-.809-.113-5.369-.804-.661-.1-5.361-.853-.444-.07-5.355-.897-.157-.026-5.147-.901-4.711-.856-4.205-.792-3.634-.707-1.617-.326M116.25 325.658l.171-.04.327-.077 3.138-.739.193-.056 2.652-.771.371-.108.023-.007 2.347-.78 1.356-.491.71-.254.805-.288.17-.06.526-.18.164-.056.083-.023.017-.004.284-.078.009-.002.104-.021.329-.069.258.081.015.005.036.034.133.128.091.088"/><path stroke="#fff" stroke-linejoin="round" stroke-width="2" d="m112.621 326.208.108-.016 2.675-.417 1.017-.158"/><path stroke="#fff" stroke-linejoin="round" stroke-width="2" d="m109.036 326.502.044-.003 3.65-.307m-7.207.388h.04l2.362-.055 1.154-.027m23.806-2.63.001.001.122.075.609.374.563.293.16.085.664.305.103.042.105.044.348.144.257.099.142.056.215.081.053.02.277.114.215.135.056.046"/><path stroke="#fff" stroke-linejoin="round" stroke-width="2" d="m136.741 325.8-.024-.019-.157-.099-.137-.068-.131-.061m-5.822-3.752.142.131.069.066.345.33.535.491.154.131.295.249.012.01.04.034.014.012.113.096.222.165.233.174.242.18"/><path stroke="#fff" stroke-linejoin="round" stroke-width="2" d="m132.093 323.324-.047-.041-.015-.014-.55-.483-.517-.496-.285-.285-.116-.115m223.008-10.265.391.115 1.145.524 1.35.791 1.234.742.783.471 2.345 1.428.447.275 1.888 1.163 1.987 1.244 1.307.848.085.059.453.312.056.039.081.056.093.064.285.221.088.068.085.086.058.059.077.097m-57.544-13.24.096.003.756.074.09.016M55.22 295.321l1.636-1.624.603-.591 2.265-2.283.658-.649 2.03-2.06 2.643-2.617 1.832-1.795 1.804-1.701 1.814-1.642 1.212-1.077 1.863-1.623 1.655-1.402 1.334-1.108.899-.742 1.913-1.56.597-.485 2.092-1.578.337-.252.698-.491"/><path stroke="#fff" stroke-linejoin="round" stroke-width="2" d="m52.319 298.097 1.055-.998.21-.198.385-.371 1.25-1.208 1.155-1.115"/><path stroke="#fff" stroke-linejoin="round" stroke-width="2" d="m46.697 303.455.248-.257.84-.811 1.321-1.254 1.911-1.812 1.302-1.225.98-.919m69.331 36.339.097-.056 2.135-1.226.916-.526.124-.072.021-.011.027-.016.096-.055.017-.01.168-.096.023-.014.242-.135.474-.265.116-.065.021-.012.413-.232 1.693-.948.482-.27.384-.216.556-.3.567-.305 1.196-.645.635-.343.619-.333.032-.018.033-.018.143-.076.003-.002 1.115-.562.312-.157.325-.164.666-.336.461-.232.035-.018.111-.055.151-.077.125-.063.095-.048.405-.182.11-.05.972-.438.608-.274 1.231-.554.638-.25.872-.341.695-.272.611-.239.751-.294 1.781-.607.075-.025 1.34-.457.059-.02.868-.296 3.222-.985 1.071-.328.709-.216.293-.082.085-.024.975-.274.018-.005.006-.002.02-.005.297-.083.03-.009 1.085-.304 2.777-.779.444-.116 2.172-.561.79-.204 2.467-.638 4.258-1.004.169-.04.441-.104.027-.006.031-.007.14-.033.789-.186 5.315-1.108.211-.044.268-.049.606-.11 1.528-.277.131-.024.521-.095.138-.025.366-.067 1.844-.335.342-.055.497-.079 2.207-.351.463-.073.278-.045.661-.104.034-.006 1.004-.16 4.193-.599.394-.056.375-.053.184-.026.005-.002.009-.001.195-.028.146-.021.052-.007.228-.033.544-.072.699-.093.355-.047 2.438-.326.354-.047 1.901-.254.573-.073.319-.04.49-.063 1.779-.226 3.142-.401 1.082-.133.02-.003.273-.033 1.202-.148.278-.035.208-.025.376-.047.025-.003.335-.041.233-.029.293-.036 1.478-.182 1.177-.142.292-.035 1.69-.205 1.77-.213 3.239-.386 2.239-.238 1.778-.134 1.859-.078 2.488-.064 3.122-.063 3.164-.063.282-.006h.015l.302-.006h.012l.154-.004.062-.001 4.182-.093 3.151-.084 1.21-.032.22-.006.483-.013.961-.026 1.285-.036.329-.008 3.018-.084 2.475-.066 3.524-.093 1.714-.041.576-.013.898-.021.142-.004 2.95-.069 5.428-.103 1.008-.019 3.974-.059.395-.005.632-.01.604-.009.144-.002.67-.01h.035l.18-.002.39-.004h.003l.56-.006.163-.002 1.336-.014 1.656-.017.571-.006.202-.003.534-.006.227-.002.368-.004h.094l.068-.001.576-.003h.076l.388-.003.202-.001.714-.005h.032l.405-.002.375-.002.406-.003.116-.001h.016l.183-.001h.097l.215-.002.301-.002.279-.001 1.316-.008 3.261-.003 2.056-.002 4.717.018 1.334.009 2.723.021 3.426.026 2.582.021 1.825.06 1.083.144.408.269-.034.075-.167.363-1.028.777-.078.059-.361.228-.6.379-.444.281-.497.315-.408.259-.76.463-2.514 1.53-.25.153-.247.15-4.635 2.827-.341.208-.57.348-4.414 2.648-.741.445-.311.186-.231.139-.303.182-.014.009-.027.016-.168.101-.057.034-.187.112-.29.174-.058.034-.356.208-.001.001-.071.041-.478.279-.43.251-.099.058-.366.214-.01.006-.575.335-.364.214-1.006.587-.691.403-.042.025-.196.115-.731.427-1.141.666-.274.16"/><path stroke="#fff" stroke-linejoin="round" stroke-width="2" d="m302.912 312.005-4.638 2.821-.854.519-4.471 2.677-1.062.635-.216.129-.312.187-.049.03-.16.095-.052.031-.191.115-.248.148M254.36 338.27l-1.13.465-.047.019-.02.008-.022.009-.06.025-.987.405-1.613.522-.325.105-3.47 1.124-.362.118-.011.003-.531.172-1.114.36-.034.008-4.701 1.018-2.542.55-5.384.694-1.807.232-5.418.344-1.754.111-4.627.106-.052.001-.15.004h-.016l-.015.001-.382.008-.217.005-1.759.04-2.246.017-.151.001h-.005l-.168.002-4.762.036-5.429-.038-2.106-.014-2.532-.051-5.291-.106-.295-.009-1.737-.055-3.368-.107-2.793-.088-4.752-.196-.291-.013-.842-.034-.05-.002-.184-.008-2.525-.104-4.214-.208-4.431-.217-2.392-.136-3.81-.215-.31-.017-1.705-.097-5.418-.347-1.951-.125-1.436-.107-1.964-.146-.583-.043-2.135-.159-.065-.005-.132-.011-.197-.017h-.003l-1.546-.133-.688-.059-1.998-.171-.406-.034-.126-.011-4.49-.435-.82-.087-1.4-.149-.129-.013-.438-.046-.426-.045-.302-.032-.437-.047-.146-.015-.044-.005-.16-.018-.581-.064-.352-.039-.704-.077-.114-.013-1.053-.116-.973-.108-.21-.023-.592-.068-.561-.064-.687-.078-.93-.106-.414-.047-.299-.034-.432-.05-.218-.026-.719-.084-1.871-.219-1.781-.213-.843-.101-.532-.066-1.311-.161-1.154-.188-.155-.026-.208-.07-.362-.121-.078-.249.062-.098.271-.334.772-.547 1.442-.871 2.201-1.277 3.052-1.765.08-.045M603.85 226.712l-.909-.07-.27-.04-.407-.118-.021-.006-.135-.081.036-.297.246-.691.202-.511.296-.752.79-2.013 1.045-2.593 1.262-3 1.442-3.236 1.583-3.303 1.725-3.213 1.304-2.076.561-.894 2.226-2.918.475-.622 2.2-2.091 2.284-1.603.916-.555.234-.142 2.247-1.176.102-.053 1.633-.67.64-.263 2.115-.742 1.918-.58 1.684-.45 1.412-.346 1.102-.274.836-.21.613-.156.436-.11.3-.074 1.763-.335.214-.028 2.143-.013 2.572.19 3.052.276 2.602.266.86.088 3.798.426 4.063.491 4.252.547 4.312.653 4.24.805.16.032 4.034 1.001 1.416.478 2.274.767 3.359 1.501 3.042 1.765 2.738 2.041 2.452 2.327 2.165 2.536 1.881 2.669 1.599 2.727 1.319 2.706 1.019 2.45.035.085.26.717.286.787.193.534.063.172.014.046.55 1.685.34 1.101.027.112.121.503-.015.274-.129.086-.051.014m.052-.074.128-.026"/><path stroke="#fff" stroke-linejoin="round" stroke-width="2" d="m602.108 226.398.268.078.157.046.904.072.672.014.767.016h2.031l2.681-.018 3.39-.024 4.04-.029 4.631-.038 2.957-.027h.055l2.155-.019.595-.006.049-.001 4.997-.048 1.711-.018.702-.008 3.379-.036.277-.004 5.339-.066 5.103-.075 4.25-.08 3.662-.097 3.343-.124 3.293-.164m55.962-126.483-38.588-.572-5.322-.238-5.425-.19-.086-.002-5.427-.149-.203-.005-5.427-.119-.252-.005-5.428-.097-.233-.004-5.428-.084-.151-.002-5.429-.07h-.083l-5.458-.058-5.419-.042-4.771-.025-.622-.002-5.326-.014h-5.333l-3.346.01-1.614.004-2.567.014-.32.001-2.002.011-.782.007-.962.008-.116.002-.154.001-2.715.025-4.593.06-4.479.084-4.387.109-4.282.13-3.815.136-.346.012-4.026.163-3.878.175-2.366.117-1.373.068-3.61.195-3.491.205-3.383.214-3.271.223-.472.035-.022.001-.023.002-.157.011-2.481.183-.538.043-2.497.197-1.574.135-1.339.115-2.75.263-2.552.281-2.319.303-.382.062-.407.066h-.001l-.901.145-.115.019-.244.04-1.301.251-7.989 1.895c-18.239 5.507-28.523 9.098-46.959 16.558l-45.06 21.444"/><path stroke="#fff" stroke-linejoin="round" stroke-width="2" d="m525.434 103.558.016-.027.067-.048.185-.078.358-.136.584-.223.28-.104.809-.293 1.015-.339 1.208-.365.839-.25 1.628-.472 2.672-.776 3.677-1.02 1.672-.437.548-.142 4.219-1.09 5.282-1.254.409-.097 2.089-.48 5.308-1.14 1.367-.293 2.372-.484 5.326-1.054 2.02-.4 2.65-.49 5.339-.98 2.365-.433 2.917-.5 5.353-.907 2.401-.406 3.145-.504 5.367-.82 2.137-.328 3.347-.496 5.38-.732 1.914-.26 3.535-.477 3.663-.442 5.391-.64 1.785-.212 3.827-.406 5.401-.55 1.642-.167 3.966-.363 5.408-.468 1.527-.131 4.073-.311 5.415-.387 1.492-.106 4.143-.251 5.42-.31 1.539-.089 4.245-.207 5.424-.243 1.669-.074 4.381-.18 4.532-.169 4.727-.171 4.886-.177 5.006-.181 5.089-.189 5.13-.195 5.136-.199 5.1-.199 5.027-.195 4.91-.186 4.835-.165 2.648-.09 4.847-.161 4.817-.126 5.428-.112 2.141-.045 4.85-.073 5.429-.034 2.092-.013 4.937-.006 5.429.058 1.922.02 4.971.055 4.921.114 5.426.167 1.644.05 4.814.17 2.84.13 3.584.165 4.618.224 5.438.31 4.43.274 4.124.266 2.491.158 1.271.089 4.256.321 4.125.364 4.028.404 3.912.44.45.054 2.648.334 1.126.142 1.617.228 1.999.282 3.438.54 3.114.53.785.141m-16.175 13.731.368 2.185.602 3.56.762 4.571.102.631.743 4.583.835 5.364.019.124.788 5.386.47 3.459.187 1.378.015.106.058.428.247 1.973.046.375.081.645.145 1.159.06.484.102.814.299 2.61.343 3.007.564 5.399.05.477.208 2.271.178 1.927.126 1.376.06.654.422 5.412.075.968.022.287.177 2.795.278 4.406.132 2.728.246 5.097.212 5.425.042 1.075v.004l.014.363.005.121.031.776.006.184.18 5.426.047 1.398.015.537.003.095.005.148.008.269.003.107.007.249.009.281.003.116.007.248.005.159.009.295.005.159.017.571.001.049.008.275.01.325.05 1.67.06 2.033.012.421.023.761.005.181.046 1.76v.65l-.031.078-.018.03-.054.049-.044.022-.06.018-.075.022-.083.024-.086.023-.076.02-.03.007-.058.015-.08.015-.291.041-.712.099-.316.044-1.029.142-1.61.225-.584.081-.179.025-2.482.343-.185.026M831.855 96.272v.543"/><path stroke="#fff" stroke-linejoin="round" stroke-width="2" d="m854.997 200.469-.301.042-2.478.343-.062.009-.124.017-3.304.451-3.561.476-3.62.468-1.582.2-.397.051-.149.019-1.311.165-.568.071-2.448.306-2.35.291-1.439.179-.092.011-.674.085-.335.041-.15.014-.212.017-.247.018-.255.018-.236.017-.179.012m33.3-121.686-1.717-.256-1.739-.26-.671-.09-3.013-.412-3.781-.472-3.498-.398-.315-.035-.043-.005"/><path stroke="#fff" stroke-linejoin="round" stroke-width="2" d="m868.63 83.145-.575-.098-2.81-.464-3.022-.48-.25-.039m-31.041-3.739.484.025 4.208.278 4.038.325 3.939.367.979.092 1.865.19 3.882.395 3.005.3 3.813.391 4.271.461 3.687.39 4.327.491 3.548.41 4.042.5 3.425.433 5.377.747 2.03.283 3.13.467 4.946.754"/><path stroke="#fff" stroke-linejoin="round" stroke-width="2" d="M809.179 77.764h2.683l5.044.056 4.943.113 4.743.17 4.34.222.102.005m23.519 2.837 1.056.094 2.487.236M578.933 98.183l5.427-.148.593-.016 5.427-.127 1.986-.046 5.427-.108 2.26-.045 3.145-.052.157-.003.119-.002m-170.015 43.777-.501.268-4.786 2.562-4.786 2.562-1.07.593-4.748 2.632-4.749 2.632-1.701.972-4.713 2.693-4.714 2.694-2.021 1.177-4.692 2.731-4.691 2.732-2.03 1.194-4.68 2.751-4.68 2.751-1.724 1.016-4.678 2.754-4.679 2.754-1.097.641-4.687 2.739-4.687 2.739-.256.149-4.695 2.726-4.695 2.727-3.902 2.254-4.7 2.715-2.634 1.516-4.705 2.707-1.158.665-.684.392-.941.54-3.072 1.764c-6.058 2.688-9.758 3.346-16.303 4.68M847.805 80.216l-3.289-.339M634.117 231.571l-1.113.011m-23.41.561-1.211.042m-68.579 58.264h.001m5.219-62.24-.037-.007m-156.719-5.15.295.021m-72.581-10.316.026.029m-10.518-6.673 1.127-.162m-171.248 285.47-1.293-.455-.049-.018m-11.296-166.973.395-.115m-6.378 1.681 3.332-.795m-7.32 120.995.126.52m-1.924-1.108.112.457m-1.297-.488-.096-.377"/><path stroke="#fff" stroke-width="2" d="m663.29 225.75 35.83-2.443m-327.088 95.548c18.181-2.151 29.497-1.456 53.474 6.244 29.602 9.153 44.532 17.094 62.974 45.059 14.709 29.446 16.659 46.546 13.844 77.632-7.836 34.442-17.361 50.244-40.716 74.104-16.711 13.807-27.384 19.171-47.685 26.299-.059.02-.122.036-.183.045-30.022 4.601-42.08 1.334-62.338-5.986-8.326-3.696-14.972-7.406-37.73-23.072-10.746-8.368-16.321-14.064-24.702-27.687-5.799-9.013-7.74-15.404-11.4-26.602"/></svg>