<svg fill="none" viewBox="0 0 500 375" xmlns="http://www.w3.org/2000/svg"><path stroke="#fff" stroke-miterlimit="10" d="m433.48 5 33.33 8.28 2.75 12.23 2.75 50.14L468 88.49l22.63 38.52v11.62s-12.23 15-15.6 29.35c0 0-1.52 10.09 6.12 15.29l1.53 11.31-6.73 4 2.14 15a174.404 174.404 0 0 1-39 44.33l-34.8 10.04s32.1-155.46-133-168.3c0 0-160-5.05-139 174.72H9"/><path stroke="#fff" stroke-miterlimit="10" d="M269.129 369.5c68.312 0 123.69-55.378 123.69-123.69s-55.378-123.69-123.69-123.69-123.69 55.378-123.69 123.69 55.378 123.69 123.69 123.69Z"/><path stroke="#fff" stroke-miterlimit="10" d="M132.34 274.37c.57-1 2.75-5.27 2.75-5.27l11.1-9.63m258.099 8.48-5.62-4.12s-.3-5.19-6.23-8.27M9 205.13l99-4.13S127.75 85.89 256.62 77.18c0 0 145.14-11 173.35 128 0 0 25.86.63 46.52-3"/><path stroke="#fff" stroke-miterlimit="10" d="M259.33 5s-.46 20.29-21.65 74.32M387.17 5l1.22 4.3s36.23 40.67 42 45.56c0 0 37.31-.33 41.35 11.14M170.4 40.83s-.23-4.81 2.87-5.27c0 0 22.93-2.29 33.48 0a5.574 5.574 0 0 1 3.55 3.9s21.61-2.18 22.47-3.9c.46-.92 4.47-5.27 2.87-9.17 0 0-4.8-1.16-16.4-4.47-.8-.23-55.6-1-64.78 4.35A12.454 12.454 0 0 0 151 38.65s15.73 3.21 19.4 2.18Z"/></svg>