<svg fill="none" viewBox="0 0 500 375" xmlns="http://www.w3.org/2000/svg"><path stroke="#fff" stroke-miterlimit="10" d="m493 283.426-19.13-28.89c-19.18-58.24-72.5-159.59-72.5-159.59-53.2-61-82.09-62.83-82.09-62.83-77.5-13.76-142.17 0-142.17 0-44.48 11.01-88.28 69.48-88.28 69.48-7.56 15.82-69 155.69-69 155.69L7 274.256"/><path stroke="#fff" stroke-miterlimit="10" d="M97.78 101.826s265.07 5.5 299 0c0 0 70.63 142.62 84.39 184.36 0 0-66.64 59.61-231.21 63.05 0 0-190.71-5.73-236.79-65.81 0 0 77.73-171.74 84.61-181.6Zm357.771 105.77 4.29-19.32s10.75-10.79 33.12-6m-23.592 59.54c.33-.92 0-8 0-8s22.32-19.22 23.63-22.22M7 181.006s14.84-.15 18.36.77c0 0 9.48 5.81 10.24 7.34l4.75 21.48m-33.35 7s18.36 16.66 19.12 16.66l1 6.49"/></svg>