<svg fill="none" viewBox="0 0 500 375" xmlns="http://www.w3.org/2000/svg"><path stroke="#fff" stroke-miterlimit="10" d="M370.65 148.39a947.666 947.666 0 0 1 122.28 21.67m-486 22.02s134.26-64.85 347.89-45.28M6.93 251.69s35.36 74.84 92.53 118m95.079-.02s177.62-140.45 298.39-169.8"/><path stroke="#fff" stroke-miterlimit="10" d="M220.68 369.67S375.69 241.61 494.92 210"/><path stroke="#fff" stroke-miterlimit="10" d="M373.711 263.76s13.9 95.94 10.46 105.91m6.329-115.35s19.12 104 17.29 115.35M406.18 246s23.16 102 23.62 123.7m-78.261-219.51s3-5 8.86-4.74l6-9.86h3.21l-1.07 10.47s3.36 3.67 3.52 5.28c.04 0-18.69.66-20.52-1.15Z"/></svg>