<svg fill="none" viewBox="0 0 500 375" xmlns="http://www.w3.org/2000/svg"><path stroke="#fff" stroke-miterlimit="10" d="M169.78 11.89s84.07 41 116.18 63.62c0 0 140.68 5.81 207 30.57M7 252.64l262.75 28.21S251.87 167.3 378.44 163.18c0 0 96.36-2.76 114.56 81.85"/><path stroke="#fff" stroke-miterlimit="10" d="M382.22 363.36c53.759 0 97.34-42.349 97.34-94.59 0-52.241-43.581-94.59-97.34-94.59-53.76 0-97.34 42.349-97.34 94.59 0 52.241 43.58 94.59 97.34 94.59Zm-112.47-82.55 17.32-32.03M139.28 48.98s18.11-10.31 37.83-6l32.79 17.47-4.58 14s17.65 4.81 35.77 4.12l3.44 9.18s-67.19 1.37-94.7-11.7c0-.01-7.57-.93-10.55-27.07Z"/><path stroke="#fff" stroke-miterlimit="10" d="M141.39 61.3s40.31 6.26 63.93 13.14M139.28 11s78 42.8 101.81 67.56M7 81.32l180.28 3.64M32.89 11S26 56.55 28.07 79.48l-4.82 6.65-2.52 23.16 1.07 2.75s8.26 72.31 13.2 92.49l2.14 37.29 8.84 15"/><path stroke="#fff" stroke-miterlimit="10" d="m7 215.84 250.22 25.37s15.28-92.94 117.55-91.11c0 0 72.28-7.33 118.23 60.54m-451.63-93.1s-3.38 1.9-2.92 2.53l18.45.57s3.33-2.75 5.79-1.83c0 0 6.94 1.14 7.46 4.12l-.75 4.53h-2.06l-35.66-.92-2.75-1.37-.75-4.87 2.36-2.18c3.58-.569 7.21-.763 10.83-.58Z"/><path stroke="#fff" stroke-miterlimit="10" d="M244.53 87.74s11 86.54 0 152.19"/></svg>