<svg xmlns="http://www.w3.org/2000/svg" data-name="Layer 1" width="637.78998" height="636.2282" viewBox="0 0 637.78998 636.2282" xmlns:xlink="http://www.w3.org/1999/xlink"><path d="M822.975,414.83591c-15.98005,17.94-18.81,42-21.37,66.54-1.91,18.15-3.67,36.57-10.5,52.98a86.179,86.179,0,0,1-26.67,34.6c-1.05.82-2.12,1.61-3.21,2.38h-58.27c-.09-.79-.16-1.59-.23-2.38a145.52505,145.52505,0,0,1,19.4-85.65,140.5442,140.5442,0,0,1,21.75-27.77c9.09,15.87,20.31,31.21,20.31,31.21l-5.07-44.48A144.49482,144.49482,0,0,1,822.975,414.83591Z" transform="translate(-281.10501 -131.8859)" fill="#f2f2f2"/><path d="M918.895,467.24588c-38.8,15.53-50.23,65.4-81.83,92.76a83.25177,83.25177,0,0,1-12.56,8.95c-1.44.84-2.9,1.63995-4.39,2.38H736.235c.2-.79.38995-1.59.6-2.38,8.94-34.69,31.11-65.95,61.26-85.4,1.16-.75,2.33-1.48,3.51-2.18a141.24938,141.24938,0,0,1,28.34-12.98c1.06,18.25,4.26,36.99,4.26,36.99l15.3-42.07A144.47962,144.47962,0,0,1,918.895,467.24588Z" transform="translate(-281.10501 -131.8859)" fill="#f2f2f2"/><path d="M918.775,570.14591a1.18651,1.18651,0,0,1-1.19006,1.19H282.295a1.19,1.19,0,1,1,0-2.38H917.58493A1.18646,1.18646,0,0,1,918.775,570.14591Z" transform="translate(-281.10501 -131.8859)" fill="#ccc"/><path d="M680.51608,579.01871H569.50046a39.04688,39.04688,0,1,1,0-78.09375H680.51608a39.04688,39.04688,0,1,1,0,78.09375Z" transform="translate(-281.10501 -131.8859)" fill="#2f2e41"/><polygon points="296.957 589.503 312.076 600.303 360.93 547.126 338.615 531.186 296.957 589.503" fill="#ffb6b6"/><path d="M577.73222,713.69726l4.2556,3.04,21.441,5.11269,4.07842,13.11708.0012.00086a23.32036,23.32036,0,0,1,5.41912,32.52964l-.4405.61659-48.75017-34.82488Z" transform="translate(-281.10501 -131.8859)" fill="#2f2e41"/><path d="M663.895,563.8859,649.4081,542.58415c-1.77528-23.116,16.01756-43.47657,39.19717-43.93108C701.5139,498.4,714.1318,504.59068,720.8615,525.529c17.30493,53.84138-98.627,178.42189-98.627,178.42189L598.02592,691.616l-2.30225-14.95072,12.244-9.01528L606.921,654.8238l11.81924-6.84927Z" transform="translate(-281.10501 -131.8859)" fill="#2f2e41"/><path d="M626.04945,306.36211l17.90663,13.63527,21.59537,6.63626s8.92773,125.58109,16.97209,133.62545.78934,8.26058,2.40576,18.7107,5.54519,31.87166,5.54519,31.87166c-54.29971,28.74321-101.11175,29.51424-138.71368-4.12021a9.36575,9.36575,0,0,1,5.11-10.5713c6.99836-3.71339-6.4514-21.04519-.73207-23.94307s-2.325-28.0365-2.325-28.0365l5.27706-52.44983-4.16913-8.38419,10.17423-51.30187,17.65425-6.44733,7.05212-16.99123Z" transform="translate(-281.10501 -131.8859)" fill="#274b9f"/><circle cx="326.61317" cy="131.46744" r="35.41985" fill="#ffb6b6"/><path d="M493.63619,195.99118a15.52283,15.52283,0,0,1-3.72473,23.50921l11.2834,53.99658-26.65257-10.55243-6.62886-49.65828a15.60694,15.60694,0,0,1,25.72266-17.295Z" transform="translate(-281.10501 -131.8859)" fill="#ffb6b6"/><path d="M468.17661,232.07481l10.778,99.25508.38186.18735c.31468.15464,13.96949,6.85215,30.73085,14.82846,2.82758,1.34557,2.42223,7.17424,5.3775,8.56733,2.03563.95958,7.41125-2.52227,9.4681-1.56039,18.32089,8.56764,36.84644,16.8986,44.22954,19.156a45.81727,45.81727,0,0,0,30.45828-.98064l.23509-.10766.123-.228a23.25078,23.25078,0,0,0-5.35661-28.58253,164.69124,164.69124,0,0,0-67.24732-34.4302l-14.1-3.45955-18.05844-70.70493Z" transform="translate(-281.10501 -131.8859)" fill="#274b9f"/><path d="M578.86826,232.92457c2.91283-8.47416,17.41317-14.35191,40.92039-15.16919,23.50724-.81735,29.4691,26.88493,29.4691,26.88493,15.69282,12.73007-16.75684,46.81171-18.32675,45.58418l.70578-6.40327c1.169-10.60622,6.13549-18.88181-.18081-29.93532l-6.06521.06964-11.50371,2.21209a3.32793,3.32793,0,0,1-2.82765-5.76577l.10533-.09274-.2615-.40463c-4.0526,1.85923-8.22837,3.58326-12.65888,3.84364-4.98438.293-10.43358-1.6907-12.821-6.076a10.20966,10.20966,0,0,1-1.14545-3.88465c-6.72142,2.68543-9.795,10.97158-9.795,10.97158S575.95544,241.39872,578.86826,232.92457Z" transform="translate(-281.10501 -131.8859)" fill="#2f2e41"/><path d="M560.186,161.00555a38.75608,38.75608,0,0,0-32.23142-28.1869c-.16718-.02482-.32591.008-.49238-.00334a4.59993,4.59993,0,0,0-.65709-.15924c-35.20539-4.78781-75.84415,12.93-90.51653,48.05068-7.26421-10.12484-18.84648-16.66623-31.234-16.0159-15.80318.82975-29.74984,12.93464-34.02214,28.85611a4.806,4.806,0,0,0,1.98745,5.13927c2.76069,2.08059,4.64642,3.53882,8.04308,4.296q9.59024,2.1379,19.24875,3.91695,18.84684,3.47058,37.89041,5.61182a535.6311,535.6311,0,0,0,77.60882,3.08682c8.62837-.28294,16.94913-.58422,24.85459-4.59134a37.62328,37.62328,0,0,0,14.25813-13.09278C561.82611,187.375,563.6492,173.21136,560.186,161.00555Z" transform="translate(-281.10501 -131.8859)" fill="#3f3d56"/><path d="M556.305,162.86588a34.154,34.154,0,0,0-10.92-16.66,37.52807,37.52807,0,0,0-18.91-8.14h-.42l-.38995-.07a2.70878,2.70878,0,0,0-.38-.09,92.17355,92.17355,0,0,0-34.67,2.48c-21.71,5.71-42.27,19.23-51.87,41.04l-1.37,3.13-2.05-2.73c-6.75-8.93-16.87-14.14-27.32-14.14-.51995,0-1.04.01-1.57.04-14.52.72-27.46,11.16-31.48,25.39a2.45891,2.45891,0,0,0,1.18,2.61l.16.12c2.57,1.83,4.12,2.94,6.97,3.55,6.21,1.31994,12.53,2.54,18.78,3.63,12.12,2.12,24.56,3.87,36.96,5.2a546.786,546.786,0,0,0,66.04,3.07q4.845-.06,9.67-.21c8.28-.25,16.11-.5,23.53-4.07a34.2724,34.2724,0,0,0,13.18006-11.52A39.071,39.071,0,0,0,556.305,162.86588Z" transform="translate(-281.10501 -131.8859)" fill="#fff"/><path d="M505.045,211.29587a546.786,546.786,0,0,1-66.04-3.07c-12.4-1.33-24.84-3.08-36.96-5.2-6.25-1.09-12.57-2.31006-18.78-3.63-2.85-.61-4.4-1.72-6.97-3.55l-.16-.12a2.45891,2.45891,0,0,1-1.18-2.61c4.02-14.23,16.96-24.67,31.48-25.39.53-.03,1.05-.04,1.57-.04,10.45,0,20.57,5.21,27.32,14.14l2.05,2.73,1.37-3.13c9.6-21.81,30.16-35.33,51.87-41.04,4.38,3.96,7.2,10.03,5.6,15.66-1.93,6.83-9.57,11.09-10.85,18.07-1.17,6.37,3.39,12.29,8.08,16.75,4.69,4.45,10.12,8.92,11.48,15.24A13.96707,13.96707,0,0,1,505.045,211.29587Z" transform="translate(-281.10501 -131.8859)" fill="#274b9f"/><circle cx="242.78998" cy="42" r="18" fill="#274b9f"/><path d="M531.4404,171.96549l-6.75-6.75a1.12458,1.12458,0,0,0-1.59082,0l-6.75,6.75a1.12488,1.12488,0,0,0,1.59082,1.59082l4.82959-4.82959V181.7609a1.125,1.125,0,0,0,2.25,0V168.72672l4.82959,4.82959a1.12488,1.12488,0,1,0,1.59082-1.59082Z" transform="translate(-281.10501 -131.8859)" fill="#fff"/><polygon points="393.424 574.435 379.244 586.442 326.184 537.462 347.112 519.741 393.424 574.435" fill="#ffb6b6"/><path d="M689.78423,717.00325l-45.72167,38.71539-.4897-.57828a23.32037,23.32037,0,0,1,2.726-32.86508l.00113-.001,2.98607-13.408,20.948-6.85834,3.99124-3.3796Z" transform="translate(-281.10501 -131.8859)" fill="#2f2e41"/><path d="M586.895,570.8859l11.7206-25.417c-.13141-23.1837-19.53813-42.01233-42.67663-40.55938-12.88573.80914-24.95187,8.0164-29.93715,29.43715-12.81929,55.082,112.9636,169.70823,112.9636,169.70823l23.11237-14.28363,1.06515-15.08939-12.94377-7.978-.01155-12.86884-12.3424-5.85425Z" transform="translate(-281.10501 -131.8859)" fill="#2f2e41"/><path d="M577.782,521.92076V433.62641a6.74813,6.74813,0,0,1,6.74051-6.74051h66.68184a6.74812,6.74812,0,0,1,6.74047,6.74051v88.29435a6.74812,6.74812,0,0,1-6.74047,6.74051H584.52251A6.74813,6.74813,0,0,1,577.782,521.92076Z" transform="translate(-281.10501 -131.8859)" fill="#e6e6e6"/><path d="M582.89691,495.25217V438.48855a6.31971,6.31971,0,0,1,6.31269-6.31269H646.517a6.32,6.32,0,0,1,6.313,6.31269v78.57a6.32,6.32,0,0,1-6.313,6.31269H611.01626A28.151,28.151,0,0,1,582.89691,495.25217Z" transform="translate(-281.10501 -131.8859)" fill="#fff"/><path d="M592.1757,454.32663a6.17548,6.17548,0,0,1,6.16874-6.16873h39.754a6.16873,6.16873,0,0,1,0,12.33746h-39.754A6.17549,6.17549,0,0,1,592.1757,454.32663Z" transform="translate(-281.10501 -131.8859)" fill="#e6e6e6"/><path d="M592.1757,473.51823a6.17549,6.17549,0,0,1,6.16874-6.16873h39.754a6.16873,6.16873,0,0,1,0,12.33747h-39.754A6.17549,6.17549,0,0,1,592.1757,473.51823Z" transform="translate(-281.10501 -131.8859)" fill="#e6e6e6"/><path d="M592.1757,492.70984a6.17548,6.17548,0,0,1,6.16874-6.16873h39.754a6.16873,6.16873,0,0,1,0,12.33746h-39.754A6.17548,6.17548,0,0,1,592.1757,492.70984Z" transform="translate(-281.10501 -131.8859)" fill="#e6e6e6"/><path d="M637.26707,529.56213a15.52284,15.52284,0,0,1,17.69725-15.91742l25.23622-49.0518,14.0599,24.98065-26.12022,42.75067a15.60695,15.60695,0,0,1-30.873-2.76208Z" transform="translate(-281.10501 -131.8859)" fill="#ffb6b6"/><path d="M679.7669,517.56283,733.895,433.67072l-.17866-.386c-.20438-.44224-12.46157-26.91467-24.33823-51.16171-1.829-3.734-3.64893-7.41521-5.41446-10.94045q-1.143-2.28216-2.25185-4.46887c-4.98823-9.83421-9.34657-17.96241-11.948-21.82344a45.81737,45.81737,0,0,0-24.27869-18.41776l-.25042-.0644-.23909.09968a23.25079,23.25079,0,0,0-13.83718,25.57708A164.69133,164.69133,0,0,0,681.718,421.17717l8.775,11.56629L659.9987,499.0412Z" transform="translate(-281.10501 -131.8859)" fill="#274b9f"/></svg>