<svg version="1.1" id="Layer_3" xmlns="http://www.w3.org/2000/svg" x="0" y="0" viewBox="0 0 2048 1536" style="enable-background:new 0 0 2048 1536" xml:space="preserve"><style>.st0,.st1{fill:none;stroke:#fff;stroke-width:4.6183;stroke-linecap:round;stroke-linejoin:round;stroke-miterlimit:10}.st1{stroke-width:2.4266}</style><path class="st0" d="M1814.5 355.5c46.9 45.2 144.3 164.9 163.1 188.5 59.5 75 75.3 130.3 47.1 143.9-19 9.1-67.8 18.1-173.8 16.2-85.5-22-227.2-151.6-324.8-239.3 85.4-19.8 213.8-59.7 288.4-109.3.5-.3 1-.7 1.5-1 72.7-49 36-134.6-21.9-146.3-127.4-25.8-364.1-57.6-439.8-67.1.6-1.9-.9-8.6-2.2-13.4-1.3-4.8 2.2-19.7 8.9-35.6-19.4-1-43.5-.6-58.2 3.5-14.6 4.1-32.4 20.3-50.3 34.3-184.4-23-383.9-37.1-606-33.9-222.1 3.3-542 52.7-646.5 79"/><path class="st0" d="M1997.3 570.4c16.1 14.4 34 35.1 50.7 58.8M2048 1381.7c-25.3 48.4-80.9 124.3-112.3 154.3M1653.2 1536c-27.9-165.9-167.6-288.5-414.8-353.8s-420.4 51.5-373.2 235.3l46.7-85.1"/><path class="st0" d="M981.3 1185.9c-22 37.5-72.2 119.6-74.2 177.7-2 58.1 13.8 116.4 61 172.4M0 1177.7s843 258.5 857.4 262.9c14.4 4.4 16.8 1.2 23.4-10-8.3 2.2-15.6-6.6-15.6-13.1-57.8-7.7-247.2-80.5-439.4-146.2C260.2 1214.7 93 1165 0 1148.9M1220.5 667.9c-153.7 0-484.3 12-957.2-25.5C55.9 625.9 0 615.9 0 615.9"/><path class="st0" d="M0 243.1c132.2-24.2 295-25.1 456.2-5.4s499.6 73.3 740.3 190.2c98.4 47.8 117.1 64.4 86.2 103.7-30.9 39.3-111.6 106.1-154.4 137"/><path class="st0" d="M0 642.3c153.5 20.3 391.3 41.3 557.5 50.9 166.2 9.6 492.9 3.8 640 0 53.5-60.2 120.4-126.1 134.7-151.9 14.3-25.8 17.8-67.4-35.8-95.5-219-114.6-476.2-187.1-792.8-228.6S0 217.2 0 217.2"/><path class="st1" d="M1469.6 156.4c-24.3 9.6-89.4 69.5-83.7 161.1 20.9 40.8 88.9 101.3 140.1 147.2M1771.7 380.2c-17.3 18.9-33.5 47.4-40.6 84.5 25.4 66.1 78.8 164.8 123.6 239.6 22.4 56.9 120.2 120 193.4 157.6"/><path class="st1" d="M2048 775c-40.8 27.5-105.4 39.7-152.2 44.8s-210.6 12.2-239 13.7c-28.5 1.5-43.2 10.7-59 23.9-15.8 13.2-44.2 37.1-50.3 43.7-6.1 6.6-11.2 15.3 5.6 30 21.4 18.8 177.5 136.8 236 168.8s127.7 18.8 170.4-16.3 88.6-108.3 88.6-108.3M1789 1099.9c-70.2 50.9-192.8 169.4-213.1 185.1s-50.3 34.2-50.3 34.2M1197.5 693.2c-6.3 51-35.9 139.6-51.1 180.5-15.2 40.9-46.9 121.5-192.4 247.7-51.5 44.7-184.3 174.1-246.3 248.8M1252.9 810.7c8.6-22.1 12.7-52.9 63.7-54.4s104.8.7 153 16c16.4 5.2 35 16 33.9 55.1-1.1 39.1-3.7 85.6-11.2 112.4-7.4 26.8-13.4 39.1-65.2 41-51.8 1.9-125.8-13-154.5-23.1-28.7-10.1-35.4-31.6-35.4-52.1 0-20.4 3.4-63.6 15.7-94.9z"/><path class="st1" d="M787.4 894.8c-25.2-3.6-43.9-4.4-53-4.4-16.2 0-21.1 29.9-7.7 34.9s57.1 16.7 57.1 16.7c.5-3.6 11.3-1.1 26.6 2.2s76.3 18.1 91.7 22.8 73.8 9.9 86.7 8.2c12.9-1.6 20-34.5 0-42.2-20-7.7-63.1-16.5-82.1-19.5-9.6 10.2-33.8 6.6-52.7 3.6-18.9-3-50.9-8.7-57.4-10.3-6.3-1.7-9.9-2.8-9.2-12z"/><path class="st1" d="M787.4 894.8c7.2-15.5 16.2-25.9 40.4-24.8 24.2 1.1 67.3 11.1 78.9 43.5M783.9 942c1 9.2 6.5 24.4 29.6 32.2 23 7.8 45.2 12.5 60.2 13.8 15 1.2 25.4-8.1 29.9-20.6M280.1 199.4c-1.5 8.1-4.3 25-4.3 25-20 59.2-79.8 268.2-89.6 411.6-6.7 6.5-8.1 20.3-8.2 26.7-7.1 28.7-16.9 71.7-24.9 88.9-8 17.2-18.6 123.9 16.2 200.6s59.1 114.2 56.4 133.5c-2.6 19.4-5.8 60-7.9 75.2 21 20.1 46.1 43.6 67.6 64.2M0 751.1c6.4 3.1 15.4 16 18.5 24.9M0 782.5c6 1 12.7-2.7 18.5-6.5 18.4 1.5 45.7 9.4 53 15.2s10.9 32.7-1.5 33.4-50-4.6-70-11.1"/><path class="st1" d="M20.6 818.7c.1 8.3-.6 19.7-20.6 19"/><path class="st0" d="M1024 1536c-36.1-36.3-113.8-203.5 71.3-248.2 160-38.6 376.8 110.3 391.7 248.2"/><path class="st1" d="M911.4 324.8c-13.3 49.3-64.4 261.1-81.5 343.7M937.9 332.2c-17.6 69.3-56.4 230.1-80.1 336.9M226.9 223.9c-23.9 42.4-89.8 293.5-110.8 405.6M334 226.7c-32.3 100.2-64.2 275.2-70.7 415.6"/></svg>