<svg version="1.1" id="Calque_1" xmlns="http://www.w3.org/2000/svg" x="0" y="0" viewBox="0 0 500 375" style="enable-background:new 0 0 500 375" xml:space="preserve"><style>.st0{fill:none;stroke:#fff;stroke-width:1.0006;stroke-miterlimit:10}</style><g id="Calque_2_00000083773552151697880450000016067752756355302534_"><path class="st0" d="M95.7 202.4c0 73.8 60.5 145.9 140.7 145.9s154-58.1 154-132.1c0-90-68.2-152.8-148.4-152.8s-146.3 65.2-146.3 139z"/><path class="st0" d="M500 252.6c-27.5 8.7-58.7 12.2-86.5 7.1 21.1-56.4-6.6-155.6-95.1-195.5-88.3-40-178-15-222.7 46.8-32 44.3-27 87.4-23.4 110 1.4 9 2.6 14.7 1.2 16-13 0-29.9-.7-49-1.9-7.9-.5-16.1-1.1-24.6-1.7"/><path class="st0" d="M95.7 199.9c-5.7.8-17.9 15.1-23.3 21.1m314.2 26.6 26.9 12M402.2 0c14.8 8.9 28.7 16.3 36.9 19.1 11.7 4 36.9 8.7 60.9 12.4M52.4 0c-3.8 70.5-15.8 182.3-27.8 235"/></g></svg>
