<svg version="1.1" id="Calque_1" xmlns="http://www.w3.org/2000/svg" x="0" y="0" viewBox="0 0 500 375" style="enable-background:new 0 0 500 375" xml:space="preserve"><style>.st2,.st3{fill:none;stroke:#fff;stroke-miterlimit:10}.st3{stroke-width:.5}</style><g id="Calque_2_00000142178367445084673670000010317333153613417401_"><path class="st2" d="M0 79.7C12 76 82.5 32.6 293.2 37.3c86.1-4.7 191.9 13.2 206.7 15.8M70.7 374.9c27-33.1 155.8-192.9 287-259.9C452.8 66.6 490 70.1 500 67.5"/><path class="st2" d="M147.5 244.2c8.5-13.7 69-77 89.1-92.7 48.8-38.3 104-60.2 149.7-75C426 63.7 465.9 52.8 500 55.2M0 77.1C3.3 74.5 18.6 64 26.8 61s25.7-9.4 43.9-13.3 47.8-8.2 65.8-10 53.9-4.6 71.6-5.2c17.7-.6 74.1.3 79.6 1.5s6.7 2.3 7.3 3.1"/><path class="st3" d="M152 374.9c65.1-91.8 162-200.8 255-246.8 54.8-30.2 93-37.3 93-37.3M400.1 375c25.8-29.4 95.6-124.5 99.8-134.6"/><path class="st3" d="M408.1 127.5c11.7 51.9 11.4 212.7 12.6 222.3 1.3 1.5 5 11.2 6.5 25.1M0 109.6c26.9 37.5 163.4 148.5 170.3 153M385.2 39.1c1.6-4.4 8.6-12.2 12.6-13.7s7.8-1 8.1-.8c.3.2-1.1 3.7-.8 5.9.3 2.2 2.6 6.9 2.6 7.4s.4 1.3 0 2.9"/></g></svg>
