<svg xml:space="preserve" id="fesc20-YPcJPAZE_svg__Calque_1" x="0" y="0" version="1.1" viewBox="0 0 500 375" xmlns="http://www.w3.org/2000/svg"><style>.fesc20-YPcJPAZE_svg__st0{fill:none;stroke:#fff;stroke-width:1.0006;stroke-miterlimit:10}</style><g id="fesc20-YPcJPAZE_svg__Calque_2_00000083773552151697880450000016067752756355302534_"><path d="M404.3 202.4c0 73.8-60.5 145.9-140.7 145.9s-154-58.1-154-132.1c0-90 68.2-152.8 148.4-152.8s146.3 65.2 146.3 139z" class="fesc20-YPcJPAZE_svg__st0"/><path d="M0 252.6c27.5 8.7 58.7 12.2 86.4 7.1-21-56.5 6.7-155.7 95.1-195.6S359.6 49.2 404.3 111c32 44.3 27 87.4 23.4 110-1.4 9-2.6 14.7-1.2 16 13 0 29.9-.7 49-1.9 7.9-.5 16.1-1.1 24.6-1.7" class="fesc20-YPcJPAZE_svg__st0"/><path d="M404.3 199.9c5.7.8 17.9 15.1 23.3 21.1m-314.2 26.6-26.9 12M97.8 0C83 8.9 69.2 16.3 60.9 19.1 49.2 23.1 24 27.8 0 31.5M447.6 0c3.8 70.5 15.8 182.3 27.8 235" class="fesc20-YPcJPAZE_svg__st0"/></g></svg>