<svg xml:space="preserve" id="fesc20-hp3Tk53x_svg__Layer_3" x="0" y="0" version="1.1" viewBox="0 0 2048 1536" xmlns="http://www.w3.org/2000/svg"><style>.fesc20-hp3Tk53x_svg__st0,.fesc20-hp3Tk53x_svg__st1{fill:none;stroke:#fff;stroke-width:4.6183;stroke-linecap:round;stroke-linejoin:round;stroke-miterlimit:10}.fesc20-hp3Tk53x_svg__st1{stroke-width:2.4266}</style><path d="M0 608.4c84.4-47.2 425.6-127.8 611.8-157.5 48.4-7.7 95.5-27.4 136.2-58.3s219.4-142.6 318-186c45-36.1 102.5-65.3 244.3-71.6 133-21.8 284.6-29.1 365.8-27.9 94.7-28.2 284.9-23.5 372-19.9" class="fesc20-hp3Tk53x_svg__st0"/><path d="M2048 113.8c-124.1-3-325.7-7-508.5 90.8-210.5 112.6-525.9 430.7-631.2 459.1-70.7 19-132.8 28.6-200 21.6-16.1-1.7-57.2-5.4-93.9-25.3-32.4-17.5-94.9-92.3-95.3-116.1-.6-30.1 54.9-79.4 118-98.1M0 1398.6c110.6-162 332.5-264 544.2-288.2s485.9 45.9 499.9 280.6c39.5-10.2 95.3-21.4 125-43.9s92.8-69.6 204.4-104.4 545.5-174.9 674.5-204.6" class="fesc20-hp3Tk53x_svg__st0"/><path d="M2048 1162.6c-145.5 49.5-561.8 173.1-678.1 210.2-116.2 37.1-273.8 76-371.9 97l-7.4-13.8c2.5-8.3 4.4-40.6 3.3-50-10.2-23.9-25.6-60.9-31.2-68.9-12.3-17.8-33.8-31.1-68.3-39.1" class="fesc20-hp3Tk53x_svg__st0"/><path d="M8.5 1536c57.3-181 262.4-321.1 507.5-362 256.5-42.7 477.9 49.1 477.9 232.1" class="fesc20-hp3Tk53x_svg__st0"/><path d="M846.1 1203.2c34.2 54.4 76.4 151.9 82.8 208.2 6.4 56.4-7.3 97.3-21.8 124.6m-738.6-216.3c-16 32.9-49.6 162.3-61.7 216.3m141 0c56.9-152.1 251.7-244.9 398.5-228s213.7 121.3 173.8 228m707.4-856.9c223.6-45.6 450.9-92.2 520.5-107.8m-816 167.8c-127 25.7-216.6 43.8-216.6 43.8 20.2-60.6 282.5-349.6 523.9-504 87.3-55.9 208.1-130 508.7-121.2" class="fesc20-hp3Tk53x_svg__st0"/><path d="M1167.1 730.1c32.2-9.7 142.3 41.9 246.2 41.9 19.6 0 48-11.1 55.1-12.9s49-22.3 59.1-79.6c4.2-24.1-19.3-52.5-47.9-67.2s-87.9-48.2-138.7-45-99.9 18.6-124 39.2c-24.2 20.6-28.3 41.4-28.6 48.1-.8 16.6 6.2 28.7 6.2 28.7l-60.3 8c-2.1 13.6.5 29.7 32.9 38.8M2048 546.3l-524 110.1m-345.2 72.5-151.9 31.9" class="fesc20-hp3Tk53x_svg__st0"/><path d="M1068.9 752c16.2-48.3 319-361.8 561.4-491.1 188.1-100.3 417.7-79.1 417.7-79.1m-755.6 329.7v62.7" class="fesc20-hp3Tk53x_svg__st0"/><path d="M1015.4 783c-27.1 66.1 41.4 472.6 64.9 598.9 0 11.6 9.1 42.1 34.2 41.7s794.5-235.5 933.4-281.3m-1230-459.4c3.2 6.3 9.5 15.8 7.1 21.7s-39.2 91.1-97.1 113.9-489.7 103.6-582.4 119.7" class="fesc20-hp3Tk53x_svg__st1"/><path d="M0 927.6c42.5-3.3 110.9-.3 126.1 2.1 19.1 3 27.2 7.9 12.5 28.4C124 978.6 57 1044.7 0 1082.7m1916.4-899.6c9.4 63.4-9.5 319.2-35.3 398.3m77.8-400.9c19.5 93.3-1.1 327.3-13.9 387.4l9.1 7.7 1.3 15.5c16.8 122.2.1 201.6-29.6 265.5-29.8 64-45.6 102.2-49.1 125.5s8.9 86.8 0 103.7m-23.2 7v24.1c10.1 6.1 7.5 34.5 1.8 40.2.7 7.2-9.7 34.9-35.2 56.8M708.9 427.1c-62.1 41.4-67.2 64.7-47.8 89.4s88.5 69.7 178.7 108.7c21.7 9.4 35.2 14.3 65.6 0 114.8-53.9 397.3-263.7 504.5-361 22.1-20.1 14.5-35.9-18.8-45.7s-123.7-17.1-165.3-18.9c-105.8-4.7-162.9 12-193.5 28.3-30.7 16.4-273.7 166.1-323.4 199.2m1290.6-247.3c13.5 64.5 21.8 281.8 7 375.2" class="fesc20-hp3Tk53x_svg__st1"/><path d="M1757.4 763.1c-13.6 3.8-35.4 9-41.5 18.6s-.3 21.2 15.7 21.2c25.8.1 116.5-14.1 171.6-33.7 9-3.2 22.9-21.5-9.3-31.7-18.3.9-50.5 7.8-50.5 7.8 7 10.2-1.5 12.2-7.8 13.9-6.4 1.7-29 9.4-44.9 7.7-13.1-1.3-24.9-3.4-33.3-3.8" class="fesc20-hp3Tk53x_svg__st1"/><path d="M1843.3 745.4c-3.8-6.9-8.4-14.9-25.3-14.2-21.9.9-53 6.4-56.7 32.2m0 38.1c.2 7 .2 16.8 14.2 16.6s51.4-5.6 64.8-31.5" class="fesc20-hp3Tk53x_svg__st1"/><path d="M1676 107.2c-61.3 20.9-101.2 40.6-157.5 92.5m-434.3-.8c32.7-15.9 110.5-48.6 226-63.8" class="fesc20-hp3Tk53x_svg__st0"/><path d="M1539.5 204.6c-83.8-23.4-373.4-49.1-473.5 2" class="fesc20-hp3Tk53x_svg__st0"/></svg>