<svg xml:space="preserve" id="fesc20-dKVLig1i_svg__Calque_1" x="0" y="0" style="enable-background:new 0 0 500 375" version="1.1" viewBox="0 0 500 375" xmlns="http://www.w3.org/2000/svg"><style>.fesc20-dKVLig1i_svg__st2,.fesc20-dKVLig1i_svg__st3{fill:none;stroke:#fff;stroke-miterlimit:10}.fesc20-dKVLig1i_svg__st3{stroke-width:.5}</style><g id="fesc20-dKVLig1i_svg__Calque_2_00000083773552151697880450000016067752756355302534_"><path d="M183 269.1c0 46.6 46.4 92.1 97 92.1s89-36.7 89-83.4c0-56.8-46.2-99.6-96.8-99.6S183 222.5 183 269.1z" class="fesc20-dKVLig1i_svg__st2"/><path d="M0 276.4s123.3 14.5 169 14.5c3.1-2.9-14.2-40.5 14-79.5s84.8-54.8 140.6-29.6 73.3 87.8 60 123.4c39.7 7.3 90.7-13.3 99.8-36.6 0 0-2-7.6-2.6-9.7 2.9-19.2-2.3-29.5-1.9-37.1-1.6-14 11.4-42.1 9.9-62.9-3.8-6.8-20.2-21.7-48.6-34.6-36.9-16-151.7-32.7-202.9-36.9-42-27.6-77.6-44-113.8-61.8C91.9 10.1 56.8 0 56.8 0" class="fesc20-dKVLig1i_svg__st2"/><path d="M337.7 111.5c-4 3.4 46 36.4 62 41.9 16 5.4 71.4 13 74.4 11.7s5.9-4.5 5.4-8.8-15.7-18.8-25.4-23.7c-9.6-4.8-65.2-23.4-116.4-21.1zm45.9 193.7-17-7.6M183 267.5c-3.6.5-11.3 9.5-14.7 13.3M111.5 83l16.9 2.6s-1.7 9.3-13.5 10.2c-3.9.2-6.6-.7-8.3-.5-4.4 1-14.1 2.4-29.1 1.2-15.1-1.2-33.1-4.4-37.1-8.1s-15.3-21.1-13-27.1c2.2-6 5.4-8.4 15.3-9.2s42.9-2 57.3 6c14.3 8.2 14 15.9 14.1 16.9.1.9-2.6 8-2.6 8z" class="fesc20-dKVLig1i_svg__st2"/><path d="M111 83.2c-6.4-1.3-64.7-11.2-79.4-8.1m205.6 12.7c-12.9-1.5-48.1-5.4-59.6-9.6C162.3 75.5 81.2 12.5 46.3 0" class="fesc20-dKVLig1i_svg__st3"/><path d="M337.7 111.3c-24.2-1.5-112.2-5.5-124.1-10.3-7.3-4.4-13.4-10.9-16.5-18.5m-59 207.2c11.1-48.5 22.1-176 17.1-187C146 80 72.9 20.6 16.9 0m138.4 103L.1 92.6m446.3 155.2s-2.2-34.6-5.1-39.1c-3.3.9.5 26.3 5.1 39.1z" class="fesc20-dKVLig1i_svg__st3"/></g></svg>