<svg version="1.1" id="Calque_1" xmlns="http://www.w3.org/2000/svg" x="0" y="0" viewBox="0 0 500 375" style="enable-background:new 0 0 500 375" xml:space="preserve"><style>.st1,.st2{fill:none;stroke:#fff;stroke-miterlimit:10}.st2{stroke-width:.5}</style><g id="Calque_3"><path class="st1" d="M500 239.2c-26.3 12-48.2 62.5-52.1 65.6-71.2 4.8-328.8.2-340.1-4.5-14.5-26.9-20.7-51.6-46.5-68.1-24.5-15.6-44.4-20.5-61.3-18.5M0 53.3c21.8-2 132.1-16.3 209.1-13.2 43.3 2.1 90.1 5.5 123.4 19.8s104.9 57.1 115.7 65.7c7 1.1 45 5.5 51.8 7"/><path class="st1" d="M332.1 59.8c-4.5-3.2-16.4-9.9-23-12.9s-25.3-8.6-79.7-12.1C179 31.6 74.9 38.1 56.5 41.9c-10.7 2.3-17 7.2-17 7.2M80.6 168.1c3.8.3 10.1 1.2 11.4 2 .8.5 2.1 4 0 5.2s-12 1.2-12.2 1.1c-.3-.1-23.6-1.3-23.6-1.3s-11.8-.2-15.1-1.5c-2.7-1.1-3-4.1-1.6-5.5 1.5-1.6 7.7-1.7 17.2-1.3.8.4 23.9 1.3 23.9 1.3zM300.2 180c2.4.1 9.9 0 11.9 1.5 1.3 2.4.8 4.8-.7 5.9-3.7.7-9.3.5-11.2.5s-24.3-1.1-24.3-1.1-12.5-.4-14.5-1.5c-2.4-.8-4.2-5.1 0-6.7 2.8 0 12.8-.2 15.6 0 2.9.3 23.2 1.4 23.2 1.4zM500 344.2c-13.1-3.8-19.3-10.1-25.3-16.5-6-6.5-14-16.9-16.5-20.2-2.1-2.8-5.3-8.7-5.7-9.9M100.9 286.5c-.5 5.1-2.1 11-3.5 14.5-2 5.1-14.3 24.1-20.9 30.1-7.1 6.5-17.2 17.1-41.2 17-23.2-.1-31.6-3.4-35.3-5.2M412.3 127.3c1.5-2 18.3.8 21.2 2.9 2.9 2.1 10.1 9.4 9.9 13.2-1.1 4.4-1.4 6.3-1.4 6.3l1.4.4s-.1 2.2-.4 2.5-4.5 5.2-5.6 6c-1.2.8-7.4 4.2-10.7 5.6s-14.9.8-16.2 0c-1.3-.8-3.2-2.1-2.7-5.1.4-3.2 3.1-30 4.5-31.8z"/><path class="st2" d="M412.6 127.4c.8 2.3 2 11.7 1.9 14.7s-2.8 19.7-3.8 21.8"/><path class="st2" d="M441.5 150c-.4 1.8-1.8 3.5-3.6 4.2-1.9.8-23.4.8-25.1.5"/><path class="st2" d="M432.5 161.5c21 1.4 34.8 2.4 34.8 2.4S441 130 387.9 99.6s-63.3-32.5-78.5-37.3-72.8-16.1-137-12.2-71.3 1.5-103 8.1S8.4 77.8 0 82.9M0 118.1s2.4.6 34.6 9.3 187.4 19.4 197.3 20.3c6.5.6 107.9 7.6 175.5 12.2"/><path class="st2" d="M430.7 305.7c30.9-56.4 57.8-114.4 36.6-141.8M240.1 305.9c.3-38.8 6.8-134.4-8.2-158.2-4.9-30.9-14.2-98-14.2-98M25 215.6c-3.9-23-12.2-56.6 10.9-88 16.7-29.5 39.7-70.7 39.7-70.7M62.4 40.7c-.3 0-8-.3-8-.3l.6 1.3M500 146.9c-4.1-.3-24.4.1-51.9-21"/></g></svg>
