<svg xml:space="preserve" viewBox="0 0 500 375" xmlns="http://www.w3.org/2000/svg"><style>.fesc20-EJ0tXYBW_svg__st1,.fesc20-EJ0tXYBW_svg__st2{fill:none;stroke:#fff;stroke-miterlimit:10}.fesc20-EJ0tXYBW_svg__st2{stroke-width:.5}</style><g id="fesc20-EJ0tXYBW_svg__Calque_2"><path d="M430.5 202.5c0 1.2 9.6 4.4 18.3 5.4 8.2.7 11.8-7.3 19.9-26.3 7.3-17.1 9.6-39.5.5-41.9M225.8 321.4c.9 8.2 27 31.6 39.6 31.6 23.9 0 45.5-21.7 55.5-43.4 17.8-36.5 18.9-77.6-2.9-87.3-5.9-2.7-12.7-5.4-18.3-6.9" class="fesc20-EJ0tXYBW_svg__st1"/><path d="M334.6 264.8s58.2-30.4 107.3-71.7c4.8-5.9 18.1-41.3 26.3-51.8s13.1-12.2 10.1 5.9c-2.2 8.5-3.8 13.7-3.8 13.7m-24.8-64.4c-1-3.6-15.6-24.3-26.5-34.3-9.4-8.8-23.9-17.1-28.4-18.8-28.2-7.3-63.2-8.1-75.7-7.5-7.6.3-46.2 3.3-52 4.3-1.1 0-4.3-.9-4.3-.9s2.5-5.6 10.6-6.6 38.8-2.9 52.5-2.9c10.4-.2 36.1 1.3 51.6 4.7 8.4 1.9 22.6 5.6 31.1 16.5" class="fesc20-EJ0tXYBW_svg__st1"/><path d="M474 164.1s11.1-22 8.2-44.6c-1.1-7.3-4.7-8.8-8.9-11.1M271 33.4c-18.6-1.1-77.7 1.6-98.5 3.2-16.4 1.2-89.1 8.5-93.8 9.9-3.5 1-8.7 3.7-7.9 8.2 1.3 2.1 4.7 2.7 5.6 4.2.5 1.9.8 5.6-2 8.9-2.6 3.1-54.6 57.1-57.5 61.5-2.9 4.3-1 12 .5 17.5s11.2 22.4 12.8 24.6c.3 2.5-2.2 3.5-2.2 6.6s4.4 20.5 4.8 22.5c.4 1.9-8.9 3.9-11.4 14.4s1.5 22.6 4.6 30.1 16.1 31.2 36.5 49c16.4 14.4 47.4 42.5 64.7 46.3 6.8-.4 10.1-4.8 24-1.5 14.5 3.4 55.9-1.8 70.1-12.2 9.7-7.1 19.8-52.2 56.6-93 12.8-12.8 44.4-40.2 58.6-15.2 9.3 21.6-.1 37-1.7 42.4" class="fesc20-EJ0tXYBW_svg__st1"/><path d="m445.1 111.8-.2-4.6s.8 0 .9-.2c.1-1-.1-2.7 1.8-7.4 1.8-4.7 3.2-4.9 6.4-5.2 3.2-.4 10.9 2.1 12.2 2.4s9.9 2.4 9.1 7.5-6.5 9.9-7.7 10.5-14.7.4-17.8 0-3.8-2.8-3.8-2.8zm-20.5 22.1s-8.7 1.8-9.3 2.4c-.6.5-2.1 1.5-1.6 4.9.3 1.8 14-2.2 15.1-2.9s1.6-3.5.2-4.1c-1.2-.5-3.4-.5-4.4-.3zm-78.1 18-13.7 3.1s-7.2.9-7.1 4.1c.1 3.3.7 4.9 5.6 4.3s20.3-5.3 22.3-6.6c1.9-1.4 2.3-4-.6-4.9-3-1-5.4-.3-6.5 0zm-197.2 58.8c12.4 3.1 33 6.3 53.1-4.9s34-36.5 32.7-39.3-4.5-4.1-13.4-3.8-82.1 3.9-92.7 3.5c-16.5-.7-47.5-3.7-56.2-4.8-4.9-.6-6.4 3.5-4.6 7.1s13.7 21.8 18.1 25.6c4.5 3.8 16.7 11.4 63 16.6z" class="fesc20-EJ0tXYBW_svg__st1"/><path d="M463.7 115c4.8-2.6 8.8-10.1 7.8-12.8-1.3-3.2-15.7-7.4-18.6-7.4m-6.7 16.9c-.2-1.9-.1-3.4-.1-4.6M33 200.4c.4 1.8 2.1 10.2 5.4 16.7 4 7.1 26 37.2 77.9 60.4 21.7 10.1 46.2 9 51.8 8.9l11.6 8.3" class="fesc20-EJ0tXYBW_svg__st2"/><path d="M180.6 296.4c-10.1 9-49.3 11.6-77 1.1-33.3-12.7-77.8-52.5-82.9-77.7M190.2 35.1v-1.7s-8.6-9.1-13.4-10.2-8.9-1.1-9.3-.8 2.3 4.3 1.9 6.1c-.4 1.7-2 5.4-1.9 8m279.2 77.1c-6 1-106.4 13.5-143.7 8.2-23.6-3.5-65-10.2-62.1-17.3 1-8 37.3-47.1 62.5-53.6 22-5.7 63.4-8.8 86.8-2.9 28.1 5.1 44.8 28.7 57.8 50.6m-10.7 98.3c4.2-5.7 32.7-64 19.6-81.8" class="fesc20-EJ0tXYBW_svg__st2"/><path d="M392.1 230.1c7.8-39.9 25.3-92 4.8-110.9-3-9.6-16.3-68-19.7-73.4m-57.6 162.1c1.8-19.5-8.1-70-16.5-86.1.9-11.7 6.8-66.3 6.7-72.4M30.1 114.5c-1.3 23.3 94.5 34.5 110.3 27.6 11.9-13 54.5-67.2 47.9-74.1-8.2-5.9-99.1-13.2-112-4.2" class="fesc20-EJ0tXYBW_svg__st2"/><path d="M155 38.3c27.2 3 73.1 4.2 78.8 18.9 8.3 22.4-23 40.2-74 79.5-6.8 3.1-38.2 36.9-38.1 40.6 3 10.6-.2 23.1 0 29.3 1.5 7.6 11.8 27.7.8 43.7-2 5.4 3.1 27.9 2.6 30.6m-22.6-57.7c-9.6-10.7-31.2-36.2-32.4-37.5-12.6-5.1-35.4-14.2-46.7-25.9" class="fesc20-EJ0tXYBW_svg__st2"/><path d="m77.3 194.1-4.7 15.1-36.4-26.8 2.8-11.1" class="fesc20-EJ0tXYBW_svg__st1"/><path d="M233.4 304.9c-8.8 3.4-32.6 14.9-39.8 9.5-7.1-5.4-25.5-42-33.7-47.7-10.6-7.2-33.5-12.7-33.5-12.7m41.6 32.3-16.4-23.9" class="fesc20-EJ0tXYBW_svg__st2"/></g></svg>