<svg version="1.1" id="Layer_3" xmlns="http://www.w3.org/2000/svg" x="0" y="0" viewBox="0 0 2048 1536" style="enable-background:new 0 0 2048 1536" xml:space="preserve"><style>.st0,.st1{fill:none;stroke:#fff;stroke-width:4.6183;stroke-linecap:round;stroke-linejoin:round;stroke-miterlimit:10}.st1{stroke-width:2.4266}</style><path class="st0" d="M0 202.9c90-36 237.5-55.2 399.7-56.3 162.2-1.1 381-10.8 679.2 45.1 162.2 30.4 430.5 183.1 540.6 278.2 24.8 21.4 34 42.3-11.8 57.6-45.8 15.3-272.3 72.5-458.1 90.5C814.9 650.1 321.1 645.4 0 630.1M0 1241.9c239 65.6 738.3 218.8 855.5 221.1 1 12-3 31.4 3.5 36.2 6.4 4.8 9.9 0 14.2-5.1 4.3-5.1 21.8-35.2 21.8-35.2"/><path class="st0" d="M855.5 1463c-19.7-21.7-24.5-69.6-19.2-98.1 8.5-45.7 48.8-173.6 222.1-201.5 55.6-8.9 137.5-6.9 207.3 5.2 209.5 36.2 463.7 216.5 503.6 367.3"/><path class="st0" d="M1024 1170.7c-30.4 39.5-59.6 83.6-87.9 132.5-36.4 62.8-58.7 142.3-24.4 232.8M1658.4 1372.9c10 21.7 21.5 64.3 25.5 88.1 3.4 20.3 2.4 49.1 3.9 75M993.4 1536c-25.3-78 6.8-244.8 264.9-202.2 188.2 31 275 202.2 275 202.2"/><path class="st0" d="M0 1117.8c57.8 13.1 479 101.4 566.5 131.3 87.4 29.9 87.2 70.6 142.2 97.8 11.6 5.8 80.3 24.6 80.3 24.6-5.3-167.8 160.2-272.3 343.2-272.3 196.8 0 555.6 75.8 710.5 436.7M1262.4 98.4c34.2 1 108.7 4.6 158.5 7.3 23.9-26.2 66.7-65.3 135.7-58.8-14.5 20.6-21 29-19.1 43.1s.8 21.4-.4 24.4c109.9 7.6 392.8 35.5 479.8 48.9 15.7 2.4 25.5 21.7 10.6 30.6-14.9 8.9-84.6 48.9-91.3 55.9l-1.6 5.9c29.3 22.9 73.3 63.6 113.2 99"/><path class="st1" d="M2048 565.1c-176.7-101.4-367.3-194-413.3-254.2s.7-150 48.7-184.2"/><path class="st1" d="M1636.9 313.7c76.8-17.5 282.7-70.4 351.5-96.8"/><path class="st0" d="M0 227.7c92.7-31 171.9-47.3 323.9-53.7s483.4-1.6 711 42.9c162.8 31.8 350.1 196.2 480.5 311.5-263.8 58.4-439.9 77.6-687.9 87.7S162.2 617.8 0 608.4"/><path class="st1" d="M255.1 178c-32.5 63.2-96.1 345.2-104.9 436.7M369.9 172.6c-23 83.5-66.9 323.5-67.6 445.7M306.3 174.8c-39.2 108.3-77 335.2-86.5 441.7M213.6 616.4c-6.2 5.4-7.7 21.3-7.7 21.3M202.6 637.6c-24.1 28.2-76.7 106.4-60.8 183.2 21.6 104.4 70.8 176.4 78.6 211.8 11.4 51.6-7.6 125.1 13.9 136.3M249.5 1172.2c5.7 21.1-20 77.6 42.4 128.5"/><path class="st1" d="M0 1218.4s561.5 159.7 744.1 206.3c43.2 11 56.1 3.6 51.8-14.5-4.3-18.1-6.9-28.4-7-38.6M0 763.1c4.6-2.1 6.6-4.1 13.6-4.1s41.2 2.1 53.3 11.2c12.1 9.1 11.3 26.9-4.6 28.9s-48.8-1-62.3-2.8"/><path class="st1" d="M0 816.4c9.7.5 13.4-4.3 14.2-18.5M10.5 759.1C9 752.5 4.7 746.6 0 742.5M824 829c-18.7-1.2-40.8-.9-53.7 1.7-12.8 2.6-20.1 28.6-1.5 35.3s46.7 8.5 78.4 10.5c31.8 2 136.2 19 176.6 16 25.7-1.9 28.4-34.1 5.9-40.2s-56.6-9.9-80.2-11.1c-21.6 7-106.8 9.4-125.5-12.2z"/><path class="st1" d="M827.2 831.9c-.3-9.6 9.4-26 31-26.8 21.6-.9 50.7 1.7 65.3 5.5 14.6 3.8 26.8 19.2 26.2 30.6M944.5 887.8c-4.5 12.4-15.8 23.4-34.5 22.9-18.7-.6-53.4-4.7-63.6-8.5-10.2-3.8-19-14.6-20.7-27.1M993.7 177c2.3 21 112.6 295.9 155.6 415.4-3.6 12.5 11.2 39 15.7 82 8.9 85.5-12 276.1-29.7 357.3-3.4 15.6-3.1 67.5-3.1 67.5M2048 817c-46 .4-134.5 4-194.9 16.6-26.5 5.5-25.3 26.1 8.7 58.2s131.7 121.9 186.2 142.9"/><path class="st1" d="M1914.9 940c-38.6 67.1-113 203.2-179.2 305.9-14.7 22.8-32.9 47.2-48 63.6M1403.7 811.9c-37.6.1-73.8 2.4-93.8 46.6-9 20-16.7 62.8-15.7 87.6 1 24.7 6.2 57.6 50.9 71.9 44.7 14.3 81.4 18.1 120.9 20.9 39.5 2.9 72.3-2.9 87.1-41.9s15.2-88.5 12.4-111.8c-2.9-23.3-18.6-50.9-52.8-58.5-34.2-7.7-82.1-14.9-109-14.8zM1934.8 255.8c-14 28.3 1.5 60.6 27.6 84.8 26.1 24.2 56.9 52.8 85.6 78.9"/><path class="st0" d="M0 145.2C68 100.6 263.2 75 405.6 61.5 619.3 41.3 1128.4 69 1183 75.4c45.5 5.3 61.2 13.2 79.4 23 16.7 9 26.1 18.4 26.1 18.4l-3.4 6.7c-140.5-11-394-31-665.9-34.4S144.1 112.7 0 161.9"/></svg>