<svg version="1.1" id="Calque_1" xmlns="http://www.w3.org/2000/svg" x="0" y="0" viewBox="0 0 500 375" style="enable-background:new 0 0 500 375" xml:space="preserve"><style>.st2,.st3{fill:none;stroke:#fff;stroke-miterlimit:10}.st3{stroke-width:.5}</style><g id="Calque_2_00000139254352491326140360000018411356500236003210_"><path class="st2" d="M453.2 234s15.4-57.4.1-70.9c-15.8-12.9-42.3 21.2-56.3 45.8-14.2 25-54.5 106.9-62.4 115.6-17.5 22.9-82.5 30-112.3 27.4-44.7-3.8-75.3-13.9-95.3-25.7-20-11.8-96.1-77.5-102.7-93.6-1.4-3.8-6.8-18.5-5.7-38.7 4.4-11.3 17.4-15.6 19.2-16.5 1.7-.9-22.2-93.6-17.8-106.3C31 58.5 64 29.4 99.1 0M499.2 211.4c-3.5 1.7-47.4 37.2-47.4 37.2"/><path class="st2" d="M364.2 62.5c5.6 11.4-25.3 43.9-39.6 50.1-25.1 7.3-46.6 6.5-81.8 0-36.6-5.2-93.2-.9-107.6-9.1-13.3-7.7-39.2-37.3-33.5-47.7s74.2-16.4 109.5-17.3c35.7-1 143.1 6.2 153 24zM473.4 102.7c-1.4.5-6.4-.3-10.2-1-2.1-.4-6-1.5-6.6-2.5-1-3.4-2.5-7.9-1-8.3s16.7-.1 20.2.9c3.7 1 6.1 1.9 6.3 3.2.1 2 .2 3.2-1.2 4.9-1.5.8-5 2-7.5 2.8zM499.6 6.9c-1.5-1.7-4.8-5.7-6.5-6.9"/><path class="st2" d="M263.4 0c-8.8 6-50.7 34.3-55.5 42.2s-13.4 58-13.7 71.6c-.3 13.7-8.8 124.8-7.9 136 0 0-126.3-29.7-147.5-71.3M319.1 336.4c-.2 6.6 3 12.1 7.5 16 4.4 4 39.5 22.5 39.5 22.5M418.6 178.5c4.9.9 14.5 2.6 17 3.7 2.4 1.1 11.2 7.6 13.7 15.6 2.1 6.5 6.5 23.3 2.4 52.6s-10.3 50.4-13.3 58.5c-3.4 9.3-11.2 30.1-23.5 49-4.4 6.8-12.5 14.5-15.2 17.1"/><path class="st3" d="M499.2 11.4c-2.3-2.5-9.2-10.1-11-11.4M364.2 0c5.2 6.1 48.8 34.4 58.7 40.6s50 27.1 76.3 35.5"/><path class="st3" d="M479.9 0c5.5 10.4 19.3 73.9 19.3 79M422.9 0c1.6 14.4 2.3 26 1.9 41.8-.1 3.9 30.3 36.3 25.5 119.5M491.8 216.8c4.4-30.2 7.5-42.1 7.5-62M284.4 274.5c-6.8-4.5-20.1-12.9-25.6-17.9-3-5.5-25.1-51.8-23.4-51.7 2.3-.6 16.1 3.8 22.6 10.9 8.8 9.3 27.9 59.6 26.4 58.7zM233.4 0c-4.3 5.3-7.7 10-8.3 10.2-.7.2-125.5 15.5-183 39.3M110.8 112.1l-10.4 34-55.8-12 8.4-25.8z"/><path class="st3" d="M284.4 274.5c-24.8 8.5-57.5 13-95.3 7.2S75 247.7 48.8 226.6s-30.1-27.7-30.1-32.9"/><path class="st3" d="M258.7 256.4c-25.3 1.1-61.3-3.5-71.9-6.3"/></g></svg>
