<svg xml:space="preserve" id="fesc20-P0oSEh8p_svg__Calque_1" x="0" y="0" style="enable-background:new 0 0 500 375" version="1.1" viewBox="0 0 500 375" xmlns="http://www.w3.org/2000/svg"><style>.fesc20-P0oSEh8p_svg__st2,.fesc20-P0oSEh8p_svg__st3{fill:none;stroke:#fff;stroke-miterlimit:10}.fesc20-P0oSEh8p_svg__st3{stroke-width:.5}</style><g id="fesc20-P0oSEh8p_svg__Calque_2_00000180364932541321992000000010498276491350870713_"><path d="M500 230.8c-25.6 23.1-30.1 72.4-35.8 83.4 8.3 4.8-423.4-1-425.6-4.8-7.1-10.5-16.2-73.6-38.6-86.9" class="fesc20-P0oSEh8p_svg__st2"/><path d="M35 300.9c-1.9 10.6-10.7 23.7-13.6 27.4-3.2 4.1-12.5 15-21.3 19.3m499.9-.2c-16.7-9.4-32.1-32.9-33.4-40M409.3 85.2c-18.3-9.6-36.7-19.1-45.4-22.6-18.7-7.5-41.1-20.9-78.3-29.2s-90.9-9.5-110.2-9.7C156.2 23.5 34.7 28.3-.1 35.6M500 121.5c-13.2-2.4-30-5.1-41.9-10.7-5.1-2.4-19.9-10.3-36.3-18.9M0 133.8s27.3 1.5 28.6 1.7c1.3.2 7.8 1.4 8 3.1.1 1.3-.2 4.4-3.1 5.4-2.6.8-10.6.7-11.4.6-.9-.1-21.9-1.1-21.9-1.1m230.1 1.5c8.5-1.1 48.3 2.2 50.5 2.5s5.1 3.1 5 4.4c-.2 1.3.4 3.4-3.8 4.2s-10.5.5-10.5.5l-28.1-1.4s-14.3-.3-16.7-1.6c-2.4-1.2-3.8-2.6-3.1-5 .8-2.5 3.8-3.2 6.7-3.6z" class="fesc20-P0oSEh8p_svg__st2"/><path d="M390.9 126.8s-.8-37.4 0-39.6 0-3.3 5.8-3.2c5.8.1 14.1 1 19 3.2s11.4 10.2 11.5 11.9c.1 1.7-1.1 8.9-.9 10.9s4.1 7.4 3 10.8-6 6.6-12.7 7.1c-6.7.4-25.7-1.1-25.7-1.1z" class="fesc20-P0oSEh8p_svg__st2"/><path d="M391.2 126.2c1.2-5.5 1.8-16.6 1.7-17.6-.1-1.1.3-23.5-.3-24.3m-101-49.5c-6-4-20.4-8.2-32.5-10.1s-64.6-4.5-79.2-4.2c-14.6.3-48.1.5-82.5 2.7s-75.7 5.9-81.9 10m425.1 282.5c8.2-16.7 42.8-135.4 27.8-167.3-13.7-24.8-42-41.7-42-41.7" class="fesc20-P0oSEh8p_svg__st3"/><path d="M388.2 84.3c-16.7-9.2-66.7-34.6-91.1-40.8-25-7.6-66.7-15.3-128.3-13.6S26.1 34.8 0 45.6m54.3 265.5C40.6 295.2 39.7 245.9 0 204.8" class="fesc20-P0oSEh8p_svg__st3"/><path d="M201.3 314.3c1-26.8 5.1-165.1.9-179s-8.2-21.9-8.2-21.9l-8.2-83.6" class="fesc20-P0oSEh8p_svg__st3"/><path d="M454.7 130C435.1 130 60.5 107.8 0 98.4" class="fesc20-P0oSEh8p_svg__st3"/></g></svg>