<svg xml:space="preserve" id="fesc20-4Wqx52oU_svg__Calque_1" x="0" y="0" version="1.1" viewBox="0 0 500 375" xmlns="http://www.w3.org/2000/svg"><style>.fesc20-4Wqx52oU_svg__st2,.fesc20-4Wqx52oU_svg__st3{fill:none;stroke:#fff;stroke-miterlimit:10}.fesc20-4Wqx52oU_svg__st3{stroke-width:.5}</style><g id="fesc20-4Wqx52oU_svg__Calque_2_00000030457872860456090870000017019885749487749268_"><path d="M358.5 272.8c0 52.4-39.7 92.4-93.9 92.4S162.8 322 159.7 263.8c1.1-49.8 44.2-90 100.7-94.2 56.6-.1 98.1 50.9 98.1 103.2z" class="fesc20-4Wqx52oU_svg__st2"/><path d="M402.3 0s73.8 62.9 74 66.9 1.5 9.7 0 11.5c-1.5 1.7-5 4.5-5.2 6.2s.5 5.2.7 7.5c.2 2.2 3.7 5 2.2 11.2s-9.7 27.7-10 32.9c-.4 10 3.7 15 5.2 18.7s-6 33.9-6 33.9 18.2 7.7 18.7 14.2.5 18.4-1.2 25.2c-1.7 6.7-10.9 26.6-34.9 41.6-13.2 9.2-64.5 14.5-67.8 14-1.2-.4-1.2-30.1-5.5-44.1-4-13-12.7-45.6-56.8-70-49.8-27.7-114.6-15.8-140.5 12-22.4 23.9-36.6 55.1-26.4 101.2 5.2 4.2-148.8-6-148.8-6" class="fesc20-4Wqx52oU_svg__st2"/><path d="M471.3 61.1c-13.7-7.2-105.8-5.2-105.4 4.1s41.2 33.7 52.2 38.4c12.9 3.1 41.9 3.6 43.9 2.8 4.9-2.1 6.9-3.5 12.1-3.2m-332.6-2.4 31.3-1.6s18.5-.6 21-3.5 3.8-7.4-2.5-8.3c-6.3-1-32.1-.3-35.4 0s-26.7 1.8-29.1 3.9c-2.4 2.2-3.3 7.2 1.5 9 4.3.9 13.2.5 13.2.5z" class="fesc20-4Wqx52oU_svg__st2"/><path d="M0 68.7s170.4-16.3 217.7-28.1S323.9 16.5 319.8 9.9 307.6 0 307.6 0" class="fesc20-4Wqx52oU_svg__st3"/><path d="M200.1 0c4.8 8.2 12.6 27.1 17.6 40.7s7.4 19.7 3.2 55c-2.5 35-2.1 46.2-2.1 46.2s-41.3 11-60.6 36.8c-21.3 28.5-28.6 54-24.6 105.1M359.4 0c6.6 3.6 85.2 45.4 88.2 39.4m-72.5 211.8c21.1-2 48.4-1.4 55.9-9.5 7.5-8 38.2-81.7 38.2-81.7" class="fesc20-4Wqx52oU_svg__st3"/><path d="M451.9 200c8.2-1.7 10.2-4.1 11-11.1m-19.1 29c17.7-1.3 34.9-2.3 38.2-12.5" class="fesc20-4Wqx52oU_svg__st3"/><path d="m148.7 283.1 11.5-13.1m197.1-12.7c4.8 1.1 8.8.9 18.8 4.5" class="fesc20-4Wqx52oU_svg__st2"/></g></svg>