<svg xml:space="preserve" id="haccord-Gtt0JNQl_svg__Calque_1" x="0" y="0" version="1.1" viewBox="0 0 500 375" xmlns="http://www.w3.org/2000/svg"><style>.haccord-Gtt0JNQl_svg__st2,.haccord-Gtt0JNQl_svg__st3{fill:none;stroke:#fff;stroke-miterlimit:10}.haccord-Gtt0JNQl_svg__st3{stroke-width:.5}</style><g id="haccord-Gtt0JNQl_svg__Calque_2_00000007398166573968683450000008714117515399826608_"><path d="M500 237.2c-3.9 3.5-26.4 25.7-33.3 81.7-24 2.9-439.6-1.3-439.6-1.3s4-51.8-27-82.3" class="haccord-Gtt0JNQl_svg__st2"/><path d="M0 338.9c5.2-3.3 25.1-19.4 27.2-24.2m472.8 25c-2.6-1.2-29.8-21.1-31.6-32.1m-91-185.9c-19.3-11.1-42.6-23.5-64.5-31.8-50-19-128-16.7-128-16.7S64.6 75 0 96.3m500 58.9s-71-6.9-76.2-7.1c-2.4-.1-15-8.1-32.7-18.5" class="haccord-Gtt0JNQl_svg__st2"/><path d="m406.6 146.7 12.1 8.6-42.1-1.8-1-.9-5.7-.3s-8.2-5.3-9.2-6.1-2.9-13.8-2.1-18 6.5-7.9 7.1-7.9 10.9 0 17.4 3.9c6.6 3.9 14.6 10.9 14.9 12.2s-.6 5.3-.5 5.9 1.8 3.6 2.4 3.9c.6.1 6.7.5 6.7.5zm-189.3 30.4 28.2 1s12.6-.5 13.5-1.4 1.6-4.1 1.3-5.2-11.6-2.7-13-2.9c-1.5-.2-29.3-1.2-29.3-1.2s-12.6.1-14 1.4-.1 5.5 1.3 6.1c1.5.6 12 2.2 12 2.2zM0 164.9s27.2-.4 31.3 0c4.2.4 14.9.7 15.1 2s0 4.9-1.8 5.7-11 1.6-12.8 1.7c-1.8.2-28.3 0-28.3 0l-3.5-.2" class="haccord-Gtt0JNQl_svg__st2"/><path d="M398.4 144c-2.9 2.5-10.4 8.6-22.9 8.2M500 168.7c-25-3.6-38.2-10.8-49-18.1m-44.3-4.2-9.1-5.4m-34.3-19.5s-34.8-19.6-53.1-26.2-49.3-17.5-123.8-17.1C73.8 81.1 22.4 99.7.1 104.5M0 214.6C6.2 226 57.8 300.1 61.9 318m314.6-164.4-183.1-7.3L0 144m439.8 176c7.6-30.5 23.3-74.4 18.5-109.6-6.1-26.4-13.2-41.9-39.6-55.2" class="haccord-Gtt0JNQl_svg__st3"/><path d="m186.4 78.2 7 68s3.1 5.1 3.1 10.4.5 131.7-5 162.4" class="haccord-Gtt0JNQl_svg__st3"/></g></svg>