<svg xmlns="http://www.w3.org/2000/svg" viewBox="0 0 500 375" style="enable-background:new 0 0 500 375" xml:space="preserve"><style>.st1,.st2{fill:none;stroke:#fff;stroke-miterlimit:10}.st2{stroke-width:.5}</style><g id="Calque_2"><path class="st1" d="M240.2 299.5c-5.8 5.5-12.9 9.7-19.9 12.4-20 7.9-43.6-14-55-42.9s-11.2-60.1 14.7-65.6M57.9 183.4c-2.8 1.2-6.2 1.7-9.8 2.3-10.2 1.6-17.8-10.4-22.8-27.5-3.7-12.6-5.7-26.6.9-30.8"/><path class="st1" d="M160.8 255.3c-9.9-6.8-104.1-72-109.9-77.6-7.3-16.5-16-42.2-25.5-51.6-9.2-9.1-5.3 7.5-3.5 14.2M160.1 252.1c-1-4.2-8.1-17.6-7.2-34.7 1.4-26 26.7-19.5 45.4 0 14.9 15.6 37.2 60.8 42.9 85.3 1.1 4.8 78.8 33.3 101.5 34.6 22.8 1.2 52-14 60.1-19.1 33.8-21.1 49.5-42.2 54-48 4.5-5.8 10.9-20.2 11.6-22 .7-1.8 5.3-20.9 5-22-.3-1.1 6.4-17.7 6.7-20.2.3-2.5-1.3-16.2-1.8-21s-3.9-8.9-3.7-10.5c.2-1.6 3.3-12.4 4.4-20.1 1.1-7.7-4.3-14.5-4.5-15.8 1.8-1.7 2.5-4.1 1.3-6.6s-30.2-13.7-34.9-15.1-60.4-25.5-69.1-30.2-51-23.3-66.9-26.9c-6.4-1.5-15.5-3.6-25-5.4 0 0-.4-.2-.5-.1M52 97.5c.9-.2 1.5-.4 1.7-.4C55 96.8 70.9 73 79.6 67s14.1-9.6 26.9-12c12.8-2.4 50.8-4.7 71.7-5.4 20.9-.7 72 1.1 79.3 1.6 4 .3 8.2.6 13 1.5 0 0 .3 0 .4.2"/><path class="st1" d="M22.8 147.7c-2.7-5.4-6.1-19.9-5.7-23.7s.9-5.1 1.2-6-.8-4.5-.2-5.6c.6-1.2 8.5-7.1 10-8.3M430.5 187.5c1.4 0-13.2 21.9-14.5 23.2-1.3 1.3-31.5 11.1-31.5 11.1l2.2 6.1s15.9.3 33.7-4.1c1 .1-3.4 9.3-3.4 9.3s-46.5 12.4-72.1 9.7c-32.7-3.5-55.3-36.1-62.7-50.5 4-3 17.5-6.9 20.3-6.5 2.8.4 52 12.9 71.6 11.1 17.8-1.5 55.4-8.4 56.4-9.4zM137.8 149.5l6 .9 12 4.4s5.8 3.4 6 3.9c.2.4.4 3.6-.6 4.4-.9.7-8.5-.9-10.2-1.7s-13-4.8-13.7-6.2c-.7-1.5-.6-5 .5-5.7zM74.9 127.3h3.4l6.2 2.1s3.3 1.9 3.6 2.6c.4.9.5 3.4-.4 3.4s-13.2-2.1-13.8-3.8c-.6-1.5-.1-4.3 1-4.3zM56.8 106.6s-3.3.3-3.9.7c-.6.4-1 .9-2.7 1.1-1.6.2-13.9 2.5-15.5 2s-7.3-6.2-7-8.4 10.7-8.1 17-10c4.8-1.4 5.4 1.3 6.2 2.6s1.9 6.9 2 7.1c.1.2 4.9-.4 4.9-.4l-1 5.3z"/><path class="st2" d="M52.9 107c.1-1.4-.1-4.8-.3-5.3M34.9 110.4c-1.6-1.4-5.6-6-5.5-7.9.1-1.2 6.2-6.2 7.1-6.7M420.9 224.1c5.2-9.6 9-18.7 11.3-20.6 1.4-1.1 15.9-8.8 27.2-17.6 7.6-5.9 14.1-15.4 16.1-15.1M332.2 294.9s5.3-3.5 5.9-3.5 21.7 1.4 29 0c14.9-1.8 40.9-13.5 42.6-15.2 1.7-1.7 1.6.7 1.6.7s-8.3 8.8-30.6 15.2c-6.3 1.3-15.1 5.4-48.5 2.8zM205.9 76.5s96.8 65.1 100.7 65.6c3.9.5 15.2 1.4 23.1 0 15.9-2.8 82.7-22.9 83.8-26.7 1.1-3.7-6.1-9.4-8.1-10.3-2-.9-78.7-37.3-82.3-38.2-1.3-.3-16.4-2.9-36.4-1.6-33.5 2.1-78.9 9-80.8 11.2z"/><path class="st2" d="M306.6 142.1c.8 5 4.5 18 7.2 21.6 1.9 2.5 46.5 21.8 49.9 24.8 3.4 3 12.9 8 20.5 33.1M474.6 174.7c-2.7 10.6-5.6 24-7.6 27.4s-10.1 18.6-26.8 30.8c-10.8 9.1-33.4 21.7-35.9 20.9s-14-12.7-14.2-14.7-3.5-10.9-3.5-10.9M57.2 106.9s119.4 28.7 135.2 34.9c4.6.7 22.6-4.8 29-5.4 3.2.6 29 8.1 29.7 7 .2-.3.2-1.5 0-1.8-.4-.5-53.6-52.7-79-64.7-15.8-7.7-39.1-23-73.7-15.6C79 64.9 55.2 97.8 53 101.1"/><path class="st2" d="M144 243.3c3-40 33.8-101.8 35.3-105.6 1.5-3.8 1.4-55.9 1.4-55.9M121.2 59.4l-23 57.4s-7 4-7.9 10.5c-2.9 21 7 72.1 12.3 87.4M43.4 109.6c-9.2 18.8-.7 39 13.8 73"/><path class="st1" d="M18.4 117.6c.8-2.1 3.8-6.9 2.4-7.8"/><path class="st2" d="M474.4 138.5c-13.6 11-56.8 29.6-83.3 37.3-19.2 5.6-27.5 10.9-28.9 11.7M274.7 64.9c-1-.2-17.6-4.2-17.7-5.4s4.8-4.3 6.3-4.8 6.3-2.6 14.5-1.3c3.3.4 1.4 4.9 1.5 6.3s1.1 4 1 4.6c-.1.3-4 .6-5.6.6z"/></g></svg>