<svg version="1.1" id="Calque_1" xmlns="http://www.w3.org/2000/svg" x="0" y="0" viewBox="0 0 500 375" style="enable-background:new 0 0 500 375" xml:space="preserve"><style>.st1,.st2{fill:none;stroke:#fff;stroke-miterlimit:10}.st2{stroke-width:.5}</style><g id="Calque_2_00000181074242716089945440000010576457827532314043_"><path class="st1" d="M23 375c-4.3-6.4-12.5-14.6-12.5-18.5s8.2-32 3-83.1c2.5-35.2 90.3-137.7 101.8-153.3 11.2-21.3 29.9-61.5 38.7-72.4 5.6-6.6 21.1-20.2 26.7-20.8 5.6-.7 129.4-3.5 139.3.4s22.5 15.9 26.5 20.5c7.9 9.5 26.6 48.9 38.2 73.1 4.3 4.3 79.1 92.7 102.3 150.3-5.6 50.9 2.5 80.5 2.5 84.8 0 4.3-11.4 16.5-12.4 19"/><path class="st1" d="M115.9 118.8c-2.6-3.2-5.8-3.8-10.1-4.7-1.9-.4-7.2-2-8.3-2.9-2-1.6-8.9-8.6-8.6-12.1s9-8.4 10.9-8.6c1.8-.3 12.1-.7 13.7.7 2.9 2.5 4.5 9.2 4.7 13.7.1 1.8 2.7 1.9 3.8 2M378.2 107.2c1.5-.2 2.7-.6 3.4-1.1.7-.5 2.4-13.1 4.3-14.7s12-1.7 15.3-.4c3.1 1.3 9.6 5.3 9.8 7.8.2 2.6-3.3 9-7.5 11.7-2.7 1.5-12.5 4.2-17.3 5.6-1.2.6-2.2 3.2-1.8 3.7"/><path class="st2" d="M74.2 172c-12.1 19-54.5 81.8-51.1 122.1 1.6 24.3 158.4 30.4 214.3 30.4 76.4 0 222.4-12.8 239-23.5 15.1-15.3-28.2-97.8-50.3-128.6M198.3 26.2c-3.1 1.5-9.5 7.5-7.7 9.2 1.7 1.7 44.1-.8 59.3-1.1 13.8-.2 59.2 3.1 59.9.8.8-2.3-5.7-8-10.5-9.5M248.7 24.9c.2-1.2.7-3.3 1.2-3.2.6 0 1.2 2.8 1.2 3.3M160.3 48.3c-5.3 7.6-42.5 79.7-40.9 80.3 31.3 11.7 101.4 9.2 130.5 9.1 29.2-.1 113.8.3 130.9-8.7 2.5-1.3-37.7-78.5-41.1-80s-76.5-2.9-89.7-3.5c-13.2-.5-88.7 1.4-89.7 2.8zM382 105.1c.8.9 7.1 5.6 8.7 5.4 9-1 16-4.3 17.7-5M92.8 106.4c1.8.7 13.3 4.7 16.3 4 4.2-1 8.5-5 9.1-5.4"/></g></svg>
