<svg xml:space="preserve" viewBox="0 0 500 375" xmlns="http://www.w3.org/2000/svg"><path d="M0 150.5C21.7 122.2 93.5 43.5 125.5 31s228.6-5.1 238-3.3c30.6 5.9 111.6 85 136.5 122.9" style="fill:none;stroke:#fff;stroke-miterlimit:10"/><path d="m0 174.2 29.5-41.4s130.4-5.4 220.5-5.4 220.3 5.4 220.3 5.4l29.7 41.4M165.3 25.4s-10.8 4-8.3 5.3c1.2.6 47.1-2.1 93.1-1.9 46.9.2 93.8 3.4 93.2 2.3-1.3-2.2-13.5-5.4-13.5-5.4m-91.1 97c1.1 2.9 20.9 2.5 22.3.4s2.5-19.3.6-23.5-7.2-8.6-7.6-9.6-.7-2.9-1.4-4.2c-.5-1-4.8-1.5-5.5 0-.6 1.5-.3 3.3-1.4 4.9s-6.6 6.5-7.5 8.9c-.9 2.5-1.2 20.4.5 23.1z" style="fill:none;stroke:#fff;stroke-width:.5;stroke-miterlimit:10"/></svg>