<svg xml:space="preserve" id="haccord-KN23XXkX_svg__Calque_1" x="0" y="0" style="enable-background:new 0 0 500 375" version="1.1" viewBox="0 0 500 375" xmlns="http://www.w3.org/2000/svg"><style>.haccord-KN23XXkX_svg__st2,.haccord-KN23XXkX_svg__st3{fill:none;stroke:#fff;stroke-miterlimit:10}.haccord-KN23XXkX_svg__st3{stroke-width:.5}</style><g id="haccord-KN23XXkX_svg__Calque_2_00000104668629844934639870000010554595635428706479_"><path d="M206.9 269.4c0 45.2 39.3 81.9 84.5 81.9 56.7 0 81.9-36.7 81.9-81.9s-36.7-81.9-81.9-81.9-84.5 36.7-84.5 81.9z" class="haccord-KN23XXkX_svg__st2"/><path d="m0 282.5 191.9 17.4 15.4-22.7m165.4 4.5 12.3 32.1s43 1.2 54.6-5 40.7-31.2 41.6-40.5c1.2-1.4-6.9-11.5-6.9-11.5s13.6-23.8 14.8-49c-1.7-3.9-9.4-4.9-9.4-4.9l-1.5-18.7s7.6-11.9 5.7-15-14-14-45.1-26.3c-62.7-21.5-161-26.4-198.2-28.3-27.1-13.1-72.3-44.5-112.5-58S60.6 39 60.6 39 44.9 29.5 0 27.6" class="haccord-KN23XXkX_svg__st2"/><path d="M385 313.8c1.9-35.6 8.9-53.8-16.4-93.9-30.9-40.2-110.6-63.1-161.2 1.8-19.2 33.2-16.4 64.8-15.5 78.2m-52.5-193.1 7.7 10.4s-56.1-2.6-58.6-2.6-20.5-.3-22.8-.4-30.1-1.9-35.5-6.5c-5.4-4.5-11.2-13.2-10.8-17.3.4-4.1 27.7-12.2 42.8-11.9 15.1.3 25.8 1 30.1 3.7 4.3 2.7 15.8 10.5 16.9 15.6.8 2.6.2 5.6.2 5.6s28.4 3.3 30 3.4zm339.4 57.3c-5.6 1.6-98.1-3.5-105-3.5s-4.3 3.6-2.3 5.4c2.1 1.8 33.1 25.1 36.7 26.3s65.6 10.6 71.9 10.7" class="haccord-KN23XXkX_svg__st2"/><path d="M461.5 153.1c-1.1 1.7-5.4 8.7-6.8 11.1m-19.9-1.5c-4.9-2.7-38-10.9-44.1-12.2-33.3-7.2-144.1-16.3-165.8-18.4-19.8-3.2-36.7-21.9-36.7-21.9M0 111.5l51.9 1.7m87.7-6.7c-4.1-4.2-55-45-85.6-59.7C32.9 37 15.2 34.5.1 34.4m161.8 262.8c11.2-38.7 10.8-121.8 2.3-149.7-7.6-18.9-16.5-30-16.5-30" class="haccord-KN23XXkX_svg__st3"/><path d="M240.7 114.8c-7.4-.4-77.2-6.8-79.8-6.8-15.3-9.7-60-48.1-100.6-68.8m413.8 217.5c-4.9 8.7-35.8 21.6-41.2 22.4-2.5-2 20-29.4 22.6-31s26.8-13.4 27-9.6" class="haccord-KN23XXkX_svg__st3"/></g></svg>