<svg version="1.1" id="Calque_1" xmlns="http://www.w3.org/2000/svg" x="0" y="0" viewBox="0 0 500 375" style="enable-background:new 0 0 500 375" xml:space="preserve"><style>.st1,.st2{fill:none;stroke:#fff;stroke-miterlimit:10}.st2{stroke-width:.5}</style><g id="Calque_2_00000014625803849485603720000017380849096970170241_"><path class="st1" d="M268.3 0C252 4.2 114 51.4 109 52.9c-39.1 6.8-73.9 2.7-78.8 10.4-1.4 3.1 3.5 6.6 3.1 9.3-.4 2.7-8.2 17.3-8.2 19.2s6 39.8 5.7 41.4c-.4 1.6-9.5 13.2-10.4 37.6.9 22.1 12.5 53.8 13.3 56.9 1 3.7 5.3 20.2 35.4 45.6s122.6 84.3 176.2 76.4c53.6-7.8 123.5-39.4 128.8-43.9 5.3-4.6 8-11.3 9.5-21.5 8.1-19.8 44-91.9 57.1-110.2 14.5-20.2 29.8-28.2 31.5-13.1 1.6 15.1-3.6 43.9-6.7 48.5M459.5 239.3l40.5-40.1M490.4 0c1.3.5 8.7 7 9.6 7.7"/><path class="st1" d="M104.9 101.4c-6.5 3.2 15.6 75.3 18.5 77.7s115.7 5.4 130.8 1.7 52.4-13.2 67.8-34.6 27.1-37 25.6-40.4-23.6-13.1-29-13.9-101.6 8-111.6 7.6-100.7 1.2-102.1 1.9z"/><path class="st1" d="M296.3 40.4c2.3 3 4.2 14 1.1 18.9-7.2 7-63.1 19.8-67.3 22.8-5.7 4.1-17.1 12.5-23.1 17.4-2.9 4.1-33.6 78-35 82.4M30.8 132.9c1.5 9.5 4.7 23.5 7.5 29.2 8.7 17.7 75.9 47.8 104.6 50.2M370.2 307.8c3.5 4.5 29.6 14.8 36.6 15.3 7 .6 18-9.3 21.1-12.5 4.6-4.8 13.8-22.4 16.8-28.5 4.5-9.1 15.3-44.1 16.4-48.4 1.9-7.3 5.9-28 5.4-43.4-.4-10.3-7-21.4-9-22.9-3.2-1.9-8.4-3.8-8.4-3.8M477.3 95.1c-2.6 1.5-4.9 2.7-4.8 3.8.1 1.1-.1 5.1 1.1 6.2s3.5.7 3.8.9c.3.2 16-3.4 16.9-4.9.9-1.6 0-6.4 0-6.4s-5.9-1.4-7.8-1c-2 .4-9.2 1.4-9.2 1.4z"/><path class="st2" d="M43.2 121.9v27s15.5 12.3 55.1 24.6c.1-1.8.7-34.8.7-34.8s-52.1-13.1-55.8-16.8zM33.2 71.5C56.8 70.3 147.5 69 225 85.8M270.8 275.2l-7.6-6s-39.7 1-59.9-2.9c-27.2-5.5-68.1-19.6-69.1-19.9-1.1-.3-2.4.9-2 1.5.5.6 5 4.6 6.4 5.8 18.1 8.9 48.8 17.5 65 20.2 31.5 5 66 2.2 67.2 1.3z"/><path class="st2" d="M31.3 135.7c-2.4 7.1-7.4 18.6-6.6 24.8 2.1 6.7 14.2 23.1 34.7 33.1s61.1 32.1 72.7 26.2c12.4-6.4 35.5-32 39.8-37.9M272.6 0c-12.3 4-143.9 47.4-150.8 51.4 28.5-2.8 92.4-5.6 112.4-5 20 .7 53.3-2 67.1-7.8C315 32.9 379.6 0 379.6 0M434.8 0c-10.9 4.3-61.7 42.8-59.6 50.1 1.1 3.9 26.7.7 32.3 1.3 5.7.7 27.1 15.4 33.7 16s58.9 2.2 58.9 2.2M500.4 12.7c-1.6-2.1-18.1-12.7-21-12.7.7 1.9 18.5 38.8 20.6 52.8"/><path class="st2" d="M437.3 0c.3 5.7 12.1 62.5 12.8 66.4s10.4 11.2 14.7 21.8c4 11.2 23.2 53.6 4 141.9"/></g></svg>
