<svg xml:space="preserve" id="haccord-bSAv3Hrj_svg__Layer_3" x="0" y="0" version="1.1" viewBox="0 0 2048 1536" xmlns="http://www.w3.org/2000/svg"><style>.haccord-bSAv3Hrj_svg__st0,.haccord-bSAv3Hrj_svg__st1{fill:none;stroke:#fff;stroke-width:4.6183;stroke-linecap:round;stroke-linejoin:round;stroke-miterlimit:10}.haccord-bSAv3Hrj_svg__st1{stroke-width:2.4266}</style><path d="M0 192.7c34.5-13 184.5-38.6 270.4-37 120.1-17.4 355.4-35.9 452.6-32.1s251 2.7 447.7 39.1c29.3-14.7 64.1-29.3 141.3-15.8-.5 15.2-12.2 33.5-8.7 45.6 85.5 24.7 309.3 112.7 502.5 183.3 92.9 33.9 181.8 58.2 242.1 72.1M1626.3 1536c19.6-134.2-141.6-347.5-456.3-406.2-147.7-27.6-395.3 19-323.3 275.9-249.5-63.9-676.2-200-846.7-258.8" class="haccord-bSAv3Hrj_svg__st0"/><path d="M0 227.9c135.4-33.8 359.6-45.2 712.4 44.1 357.1 90.4 751.6 292.9 982.3 422 14.2 7.9 25.8 20.3-6.4 20-36.6-.3-195.3-23.1-215.8-26.5s-38.4-1.7-63.2 8.5-103.3 28.4-127.6 32.6c-23.8 4.2-61.7 8.6-85.7 5.5C880.8 693.7 282.4 628.9 0 591.6M1333 202c-50 16.2-146.6 66.8-193.9 97.4 138.2 49 623.8 254.4 748.9 312.1s141.6 66.6 140.9-8.2-94.9-161.1-204.2-199.9c-22.4-7.9-43.7-21.8-78-38C1665 327 1461.6 250.1 1333 202" class="haccord-bSAv3Hrj_svg__st0"/><path d="M970.4 352.9c25.2 71 102.5 312 114.4 367.4s14.4 106.7 14.4 106.7c-69.4 109.6-256.7 325-359.7 482.2m-442-1104.4c-3.1 6.4-5.3 15.4-5.2 18.7C265.6 303 211 485.3 192 590.7c-5.7 5-14.7 14.9-17.1 22.9-20.5 23.6-39.7 50.2-49.9 65.9 4.6 36.5 13.3 65.8 12.6 111.1-.8 45.3 15.4 148.3 73.7 258.3 39.2 74 51.1 75.5 52.7 88.2s2.8 33.3 0 54" class="haccord-bSAv3Hrj_svg__st1"/><path d="M0 1112.2c101.5 31.7 576.6 177.8 833.9 212.8" class="haccord-bSAv3Hrj_svg__st1"/><path d="M0 246.9c150-28 303.4-39.7 514.6 3.9 211.6 43.7 499.2 110.5 863.9 309.4 14.3 7.8 28.6 13 44.9 35.8s39.7 52 52.7 69.6" class="haccord-bSAv3Hrj_svg__st0"/><path d="M1689.2 690.9c-24 5.2-179.8-19.6-213.2-25.4-18.9-3.2-41.6 1.3-58.5 7.2s-146.3 38.4-184 37.7-120.9-11.7-249.6-26.7S217.9 591.9 0 572.9" class="haccord-bSAv3Hrj_svg__st0"/><path d="M253.7 222c-27.9 55.3-97.8 269.2-122.6 363.8m208.3-360.3c-31.9 87.6-71.5 291.4-79.6 374.2" class="haccord-bSAv3Hrj_svg__st1"/><path d="M910.6 354.4c20.1 75.2 34 127.9 27 160.8s-21.4 113.5-32.1 159.3m52.6 471.4c-21.3 43.5-85.6 138.6-66.8 226 18.9 87.4 69.9 137.5 93 164.2m587.7-174.2c3.7 51.2.2 114.5-13.8 174.1" class="haccord-bSAv3Hrj_svg__st0"/><path d="M1470.8 1536c27.3-107.5-79.7-243.2-243.3-292.8s-285.2 22-285.2 131.4c0 93.7 81.7 161.4 81.7 161.4" class="haccord-bSAv3Hrj_svg__st0"/><path d="M1516.9 1298.2c9.6 1.5 31.7 12.9 67.7 13.1 140.1.6 369.5 3.6 463.4-2.8M777.7 826.4c-.3 4.5.3 9.7 12.7 13.6s92.9 15.7 100.8 16.9c7.8 1.2 16.6-1.8 19.9-5.4 22.9 3 61.9 15.4 69.4 20.2s5.5 30.8-19.9 31.7c-50.4 1.8-194.9-26.9-223.3-35.6-19.6-6.1-26-20.8-27.6-31.9-.9-6.5 4-12.3 10.6-12.3 15.5-.1 39.4 2.5 57.4 2.8M0 711.3c10.9 3.9 38.8 10.4 60.2.8 20 4.7 34.6 8 42.7 14.1s7.2 25-5.1 26.8-69.4-2.5-97.7-7.2" class="haccord-bSAv3Hrj_svg__st1"/><path d="M781.1 835.3c-1.9-8.8 6-26.4 28.4-26.7s62.7 7.9 76.8 14.9 20.6 16.8 20.8 30.7m-120 25.1c2.6 10.1 11.1 19 30.3 24.1 19.3 5.1 40 8.2 52.4 9.6 12.5 1.4 24.9-5.7 27.9-14.6M58.6 712.7c-2.4-9.8-16.2-20.7-28-24.3S0 683.1 0 683.1m0 73.7c13.2 7.6 27.6 11.7 40.9 11.2s17.1-10.6 16.6-16m1214.6 64.2c-2.9 11.2-13.2 53.6-12.6 82.8.3 18.3 3 35.9 31.6 43.6s112.1 22.3 133.4 23.3 42.9-3 49.2-26 14.6-77.5 15.3-93.5.7-33.9-35.3-41.9c-35.9-8-115.5-16.3-140.4-16.6s-36.4 9.8-41.2 28.3" class="haccord-bSAv3Hrj_svg__st1"/></svg>