<svg xml:space="preserve" id="haccord-PGr3RzzP_svg__Calque_1" x="0" y="0" style="enable-background:new 0 0 500 375" version="1.1" viewBox="0 90 500 210" xmlns="http://www.w3.org/2000/svg"><style>.haccord-PGr3RzzP_svg__st2,.haccord-PGr3RzzP_svg__st3{fill:none;stroke:#fff;stroke-miterlimit:10}.haccord-PGr3RzzP_svg__st3{stroke-width:.5}</style><g id="haccord-PGr3RzzP_svg__Calque_2_00000134965045821227899840000017634587864921505464_"><path d="M370.1 239.9c3 16.4 20 30.7 38 30.7 19.8 0 36.4-14.9 36.4-33.3 0-16.7-12.7-32.1-29.9-34.8m-299.8.2c-17.3 3.1-30.4 13.3-33.1 30.9 0 21 16.2 37.4 36.8 37.4 19.1 0 34.8-14.6 37.1-33.4" class="haccord-PGr3RzzP_svg__st2"/><path d="m366.8 253.3-209.5-.9s.1-8.5-1.3-13.2-4.2-17.1-18.3-27.8c-12.1-9.2-35.2-14.5-51.1 1.2-14.2 13.4-8.9 32-8.5 34.7 0 0-32.6-3.6-40.5-7.5s-13.1-11.6-13.2-12.1 0-3.2 0-3.2-3.2-11-3.2-12.5c.1-1.5.7-11.8 1.2-12.6s4.1-6.9 4.1-6.9-1-.7-1.9-1.9c-1.4-2.1-.1-14.2.5-15.7s4.1-4.5 4.7-5.5c0-.7-.1-2.6.5-4.2.6-1.1 5.9-7.1 13.7-9.5 9.7-2.5 33.4-6.4 43.5-7.1 9.6-3.7 48.4-19.5 61.4-22.5 13.2-2.9 56.6-7.9 76.3-8.1 18.5-.2 53 2.7 66.4 7.9 14.8 5.7 41.6 21.3 46.1 24.6 3.7 1.3 28.2 2.9 42.9 5.2 10.4 1.7 46.6 9.1 57.7 13 7.2 2.5 33.2 12.2 39.4 20.8.4 2.3-3.2 5.2-3.8 5.9s2 9.2 2 9.2 3.2-.3 3.5.6c-.8 3.9-2.3 14.5-1.8 16.2s-5.6 7.5-5.6 8 2 1.9 2 2.5-.9 1.8-.9 3c0 2.6-.4 6.2-.9 7-.4.8-5.3 6.3-7.1 6.9-1.8.7-15.4 3.2-17.6 2.6.5-2.1 4.5-9.8 3.1-22.1-1-10.7-6.6-18.3-18.6-24.3-13.9-5.7-31.8-.7-41.9 6.3-15.8 11.4-21.6 31.2-23.3 42z" class="haccord-PGr3RzzP_svg__st2"/><path d="M476.2 204.8c-2.5.2-11.9 2.4-17-.2-5.5-2.8-14.3-10.7-14.1-11.6.2-.9 17.1-.6 20.7-.9 3.5-.3 10.1-2.8 10.4-3.7M27.3 172.9c2.4.9 17.2 1.6 18.4 1.4s5.8 3.6 5.6 4.3c-.2.7-10.6 10.2-14.6 12-4 1.9-6.9 2.6-10.1 1.9m128.9-11.1h-13.6s-6.5.3-6.7.9c-.2.5-.3 2.1.6 3 .7.6 4.1.9 6.6.9h13.5s4.9-.3 5.7-.6c.8-.3 1.3-2.8.9-3.3-.4-.6-6.1-.9-7-.9zm106.4 1.9-13.5-.3s-6.6-.2-6.8.4c-.2.6-.6 3 .6 3.3 1.2.4 5.9.7 6.6.7.7 0 12.7.2 12.7.2s6.3 0 6.7-.2c.4-.3.8-2.7.4-3.1-.6-.7-5.1-.8-6.7-1zm82.7-14 5.4 5.3s-13.4-.5-14.1-.3c-.8.2-7.6 3-9.5 3.1s-8.8-.2-9.1-.7c-.4-.6-1.1-5.7-.7-6.6.4-.9 5.3-9 8.7-10.1s12.6 5.3 13.4 7.6c.1.3 0 1.1 0 1.1l5.9.6z" class="haccord-PGr3RzzP_svg__st2"/><path d="M167 123.2c-1.4-1-7-3.5-8.5-3.6s-9.1-.2-9.5.3c-.3.5.8 2.6.8 3.6s.1 2.5.1 2.5M21.3 210.9c.6 1.3 3.5 2.9 5.1 3.6.4.4 1.3 2.1 1.3 2.1s-5.4-2.1-6.2-3.6m456.2 7.3c-3.8 6.1-10.7 13.6-11.5 15.8s-1.4 7.8.9 9.1 2.1.6 2.1.6m-3.9-65.1c3.3 2.4 5.7 3.7 5.7 4.2s0 4.6-1.5 6.1m-3.3.7c-3-1.1-13-3.8-14.9-4-14.5-2.4-54.3-5.5-59.9-5.6-12.1-.1-24.1-10.2-26.9-12.8M270 121.6c.8 1 2.5 2.5 1.9 3.2-.3.3-10.3-1.2-20.1-2.1-10-.8-19.8-.9-20.1-1.5-.6-1 1.2-2.9 1.2-2.9m105.4 32.4c1.9 1.1 11.7 7.1 14.1 8.5 2.4 1.4 12.7 8.5 12 10.3-1.3.9-10.2.3-10.7.3s-42.1-30.6-60.9-37.5c.2-1 1.8-4 0-5.9m-148.1.9c-1.3 1.4-3.6 3.4-5 5.2-14.1 4.2-64.3 21.4-67.4 22.8-3.1 1.4 12.8-5.4 15.3-6.4" class="haccord-PGr3RzzP_svg__st3"/><path d="M30.1 169.6c2.5-.2 19.2-3.6 20.1-4.2.9-.7 6.8-5 8.7-6 2.3-1.1 13.1-3.9 13.1-3.9M344.6 169c-2.8-2-33.7-23.8-46.6-29.4-15.3-6.5-32.6-12.2-69.2-12.2-32.9-.2-72.7 8.7-79.8 10.4-12.7 1.8-67.2 23.4-67.4 24.3-.2.9 16.6.2 19.4.5s15.1 5.8 17.5 6c1.5.1 61.9.6 116.6 1.7 35.7.7 68.8 2.7 81.1 3.1m37.9 79.8c4.8-11.4 12.7-38.6 11.7-50.6-1-11.5-5.8-21.1-15.3-27.8" class="haccord-PGr3RzzP_svg__st3"/><path d="M236.4 252.7c2.3-20.3 1.2-65.6.8-74.5-.5-5.7-1.9-7.8-1.9-7.8l-7.1-43M149 137.8l-19.1 31s-5.3 6.4-5.2 8.3c2.9 9.1 41 59.8 49.9 75.4m163.7-83.6c-.4 1.7-2.6 2.9-5.9 3.6-3.6.7-14.9.7-16-.3" class="haccord-PGr3RzzP_svg__st3"/></g></svg>