<svg version="1.1" id="Calque_1" xmlns="http://www.w3.org/2000/svg" x="0" y="0" viewBox="0 0 500 375" style="enable-background:new 0 0 500 375" xml:space="preserve"><style>.st2,.st3{fill:none;stroke:#fff;stroke-miterlimit:10}.st3{stroke-width:.5}</style><g id="Calque_2_00000134965045821227899840000017634587864921505464_"><path class="st2" d="M129.9 239.9c-3 16.4-20 30.7-38 30.7-19.8 0-36.4-14.9-36.4-33.3 0-16.7 12.7-32.1 29.9-34.8M385.2 202.7c17.3 3.1 30.4 13.3 33.1 30.9 0 21-16.2 37.4-36.8 37.4-19.1 0-34.8-14.6-37.1-33.4"/><path class="st2" d="m133.2 253.3 209.5-.9s-.1-8.5 1.3-13.2 4.2-17.1 18.3-27.8c12.1-9.2 35.2-14.5 51.1 1.2 14.2 13.4 8.9 32 8.5 34.7 0 0 32.6-3.6 40.5-7.5s13.1-11.6 13.2-12.1 0-3.2 0-3.2 3.2-11 3.2-12.5c-.1-1.5-.7-11.8-1.2-12.6s-4.1-6.9-4.1-6.9 1-.7 1.9-1.9c1.4-2.1.1-14.2-.5-15.7s-4.1-4.5-4.7-5.5c0-.7.1-2.6-.5-4.2-.6-1.1-5.9-7.1-13.7-9.5-9.7-2.5-33.4-6.4-43.5-7.1-9.6-3.7-48.4-19.5-61.4-22.5-13.2-2.9-56.6-7.9-76.3-8.1-18.5-.2-53 2.7-66.4 7.9-14.8 5.7-41.6 21.3-46.1 24.6-3.7 1.3-28.2 2.9-42.9 5.2-10.4 1.7-46.6 9.1-57.7 13-7.2 2.5-33.2 12.2-39.4 20.8-.4 2.3 3.2 5.2 3.8 5.9s-2 9.2-2 9.2-3.2-.3-3.5.6c.8 3.9 2.3 14.5 1.8 16.2s5.6 7.5 5.6 8-2 1.9-2 2.5.9 1.8.9 3c0 2.6.4 6.2.9 7 .4.8 5.3 6.3 7.1 6.9 1.8.7 15.4 3.2 17.6 2.6-.5-2.1-4.5-9.8-3.1-22.1C50.4 218.6 56 211 68 205c13.9-5.7 31.8-.7 41.9 6.3 15.8 11.4 21.6 31.2 23.3 42z"/><path class="st2" d="M23.8 204.8c2.5.2 11.9 2.4 17-.2 5.5-2.8 14.3-10.7 14.1-11.6-.2-.9-17.1-.6-20.7-.9-3.5-.3-10.1-2.8-10.4-3.7M472.7 172.9c-2.4.9-17.2 1.6-18.4 1.4s-5.8 3.6-5.6 4.3c.2.7 10.6 10.2 14.6 12 4 1.9 6.9 2.6 10.1 1.9M344.5 181.4h13.6s6.5.3 6.7.9c.2.5.3 2.1-.6 3-.7.6-4.1.9-6.6.9h-13.5s-4.9-.3-5.7-.6c-.8-.3-1.3-2.8-.9-3.3.4-.6 6.1-.9 7-.9zM238.1 183.3l13.5-.3s6.6-.2 6.8.4c.2.6.6 3-.6 3.3-1.2.4-5.9.7-6.6.7-.7 0-12.7.2-12.7.2s-6.3 0-6.7-.2c-.4-.3-.8-2.7-.4-3.1.6-.7 5.1-.8 6.7-1zM155.4 169.3l-5.4 5.3s13.4-.5 14.1-.3c.8.2 7.6 3 9.5 3.1s8.8-.2 9.1-.7c.4-.6 1.1-5.7.7-6.6-.4-.9-5.3-9-8.7-10.1s-12.6 5.3-13.4 7.6c-.1.3 0 1.1 0 1.1l-5.9.6z"/><path class="st3" d="M333 123.2c1.4-1 7-3.5 8.5-3.6s9.1-.2 9.5.3c.3.5-.8 2.6-.8 3.6s-.1 2.5-.1 2.5M478.7 210.9c-.6 1.3-3.5 2.9-5.1 3.6-.4.4-1.3 2.1-1.3 2.1s5.4-2.1 6.2-3.6M22.3 220.3c3.8 6.1 10.7 13.6 11.5 15.8s1.4 7.8-.9 9.1-2.1.6-2.1.6M34.7 180.7c-3.3 2.4-5.7 3.7-5.7 4.2s0 4.6 1.5 6.1M33.8 191.7c3-1.1 13-3.8 14.9-4 14.5-2.4 54.3-5.5 59.9-5.6 12.1-.1 24.1-10.2 26.9-12.8M230 121.6c-.8 1-2.5 2.5-1.9 3.2.3.3 10.3-1.2 20.1-2.1 10-.8 19.8-.9 20.1-1.5.6-1-1.2-2.9-1.2-2.9M161.7 150.7c-1.9 1.1-11.7 7.1-14.1 8.5-2.4 1.4-12.7 8.5-12 10.3 1.3.9 10.2.3 10.7.3s42.1-30.6 60.9-37.5c-.2-1-1.8-4 0-5.9M355.3 127.3c1.3 1.4 3.6 3.4 5 5.2 14.1 4.2 64.3 21.4 67.4 22.8 3.1 1.4-12.8-5.4-15.3-6.4"/><path class="st3" d="M469.9 169.6c-2.5-.2-19.2-3.6-20.1-4.2-.9-.7-6.8-5-8.7-6-2.3-1.1-13.1-3.9-13.1-3.9M155.4 169c2.8-2 33.7-23.8 46.6-29.4 15.3-6.5 32.6-12.2 69.2-12.2 32.9-.2 72.7 8.7 79.8 10.4 12.7 1.8 67.2 23.4 67.4 24.3.2.9-16.6.2-19.4.5s-15.1 5.8-17.5 6c-1.5.1-61.9.6-116.6 1.7-35.7.7-68.8 2.7-81.1 3.1M145.9 253.2c-4.8-11.4-12.7-38.6-11.7-50.6 1-11.5 5.8-21.1 15.3-27.8"/><path class="st3" d="M263.6 252.7c-2.3-20.3-1.2-65.6-.8-74.5.5-5.7 1.9-7.8 1.9-7.8l7.1-43M351 137.8l19.1 31s5.3 6.4 5.2 8.3c-2.9 9.1-41 59.8-49.9 75.4M161.7 168.9c.4 1.7 2.6 2.9 5.9 3.6 3.6.7 14.9.7 16-.3"/></g></svg>