<svg version="1.1" id="Calque_1" xmlns="http://www.w3.org/2000/svg" x="0" y="0" viewBox="0 0 500 375" style="enable-background:new 0 0 500 375" xml:space="preserve"><style>.st1,.st2{fill:none;stroke:#fff;stroke-miterlimit:10}.st2{stroke-width:.5}</style><g id="Calque_2_00000070080854275787566550000008805269472720427920_"><path class="st1" d="M416.4 45.8c24.2 4.7 49.5 11.3 83.6 21.4M0 93.8c19.3-12.7 74-41.9 172.7-56 48.5-6.9 94-6.9 126.1-4.8 39.3 2.6 67.2 4.9 92.8 8.6M199.9 375C250 285.1 349.2 175.9 390 147.8c43.3-29.8 70.1-44.6 110-55.4"/><path class="st2" d="M0 100.7C12 93.2 26.3 84 26.3 84s2.8 31.1 28.4 54.1c40.3 36.2 104.6 89.4 182.9 136.2-11.2 20.9-58.5 90.2-63.4 100.6M98.2 66.7s134.8 74.5 155.4 81c17.6 4.5 108.5-45 123.6-55.3.3-6.9-160.1-53.9-183.3-51.2-14.7 1.7-89.8 19.6-95.7 25.5zM389.4 44.4c.8-1.8 9.5-10.8 13.6-11.9 4-1.1 11.8-2.9 12.7-1.8s-.8 7.4-.7 9c.1 1.6 1.8 5.9 1.5 6.6-.3.8-27.9.1-27.1-1.9zM231.4 375c5.5-10.4 61.4-107.6 132.3-170.9 53.8-48 108.1-84.1 136.3-90.4M438.2 375c22.4-26.9 57.8-76.1 61.8-82.4"/><path class="st2" d="M461.4 130.7c1.4 6.1 21.8 165.7 20.7 187 8.5 16.3 14 27.4 17.9 41.1"/></g></svg>
