<svg xml:space="preserve" id="haccord-boMeNVsC_svg__Calque_1" x="0" y="0" style="enable-background:new 0 0 500 375" version="1.1" viewBox="0 0 500 375" xmlns="http://www.w3.org/2000/svg"><style>.haccord-boMeNVsC_svg__st0{fill:none;stroke:#fff;stroke-width:1.0006;stroke-miterlimit:10}</style><path d="M98.4 210.3c0 81 70.4 146.8 151.4 146.8 101.6 0 146.8-65.8 146.8-146.8S330.8 63.5 249.8 63.5 98.4 129.3 98.4 210.3z" class="haccord-boMeNVsC_svg__st0"/><path d="M99.1 224.3 71.5 265l-53.8-4.9L0 258.5m500 27.1c-30 5.7-82.5 4.3-82.5 4.3l-22-57.5" class="haccord-boMeNVsC_svg__st0"/><path d="M417.5 289.9c3.4-63.8 15.9-96.4-29.4-168.3-55.4-72-198.2-113.1-288.9 3.2C64.9 184.3 69.9 241 71.5 265M500 19.9c-46.6-2-96-4.5-102.5-4.5-12.4 0-7.7 6.5-4.1 9.7 3.8 3.2 59.3 45 65.8 47.1 2.4.8 19.7 3.7 40.9 7M24 0c13.1 56.4 12.8 194.2-6.3 260.1M500 16.4C486 11.7 456.8 4.2 439.5 0" class="haccord-boMeNVsC_svg__st0"/></svg>