<svg width="1104px" height="835px" viewBox="0 0 1104 835" fill="none" xmlns="http://www.w3.org/2000/svg">
  <path
    opacity="0.1"
    d="M51.1699 330.79C67.9999 377 103.62 417 159.92 436.39C276.92 476.66 540.78 455.89 737.7 432.05C839.57 419.72 929.09 385.7 994.13 337.79L51.1699 330.79Z"
    fill="#274B9F"
  />
  <path
    opacity="0.1"
    d="M1083.85 113.09H975.85C970.72 113.09 966.51 110.39 966.51 107.09C966.51 103.79 970.72 101.09 975.85 101.09H994.53C989.39 101.09 985.19 98.39 985.19 95.09C985.19 91.79 989.39 89.09 994.53 89.09H981.19C976.05 89.09 971.85 86.39 971.85 83.09C971.85 79.79 976.05 77.09 981.19 77.09H1037.57C1025.06 73.34 1010.47 70.68 993.57 69.29C839.77 56.57 784.86 65 765.49 73.61C740.36 84.7834 713.755 92.2868 686.49 95.89C591.57 108.47 414.14 123.62 253.32 91C173.39 74.81 113.98 102.17 78.3701 147.9H1102.62C1101.28 134.6 1097.28 122.33 1089.93 111.59C1088.06 112.592 1085.97 113.107 1083.85 113.09V113.09Z"
    fill="#274B9F"
  />
  <path
    opacity="0.1"
    d="M42.0002 234.25C37.8509 261.15 39.2771 288.615 46.1902 314.94L994.86 337.25C1021.12 317.81 1043.37 296.09 1060.77 272.62L42.0002 234.25ZM417.21 291.81H398.57C403.7 291.81 407.9 294.52 407.9 297.81C407.9 301.1 403.7 303.81 398.57 303.81H290.57C285.43 303.81 281.23 301.11 281.23 297.81C281.23 294.51 285.43 291.81 290.57 291.81H309.24C304.11 291.81 299.9 289.11 299.9 285.81C299.9 282.51 304.11 279.81 309.24 279.81H295.82C290.69 279.81 286.48 277.1 286.48 273.81C286.48 270.52 290.69 267.81 295.82 267.81H403.87C409.01 267.81 413.21 270.51 413.21 273.81C413.21 277.11 409.01 279.81 403.87 279.81H417.21C422.35 279.81 426.55 282.51 426.55 285.81C426.55 289.11 422.35 291.81 417.21 291.81Z"
    fill="#274B9F"
  />
  <path
    opacity="0.1"
    d="M1102.66 148.35L66.9397 164.55C54.3078 185.659 45.8859 209.016 42.1396 233.33H1084.51C1091.18 219.342 1096.21 204.631 1099.51 189.49C1102.66 175.15 1103.9 161.27 1102.66 148.35ZM252.43 201.43H233.75C238.89 201.43 243.09 204.14 243.09 207.43C243.09 210.72 238.89 213.43 233.75 213.43H125.75C120.61 213.43 116.41 210.73 116.41 207.43C116.41 204.13 120.61 201.43 125.75 201.43H144.43C139.29 201.43 135.09 198.73 135.09 195.43C135.09 192.13 139.29 189.43 144.43 189.43H131.04C125.9 189.43 121.7 186.72 121.7 183.43C121.7 180.14 125.9 177.43 131.04 177.43H239.04C244.17 177.43 248.37 180.13 248.37 183.43C248.37 186.73 244.17 189.43 239.04 189.43H252.38C257.51 189.43 261.71 192.13 261.71 195.43C261.71 198.73 257.57 201.43 252.43 201.43Z"
    fill="#274B9F"
  />
  <path d="M586.3 263.6H580.73V570.65H586.3V263.6Z" fill="#535F89" />
  <path
    d="M591.57 628.08C589.02 630.061 585.883 631.137 582.655 631.137C579.426 631.137 576.289 630.061 573.74 628.08C571.25 611.65 577.57 579.36 579.06 572.08L579.37 570.62H586.57C587.049 571.096 587.426 571.664 587.68 572.29C592.57 582.82 591.57 628.08 591.57 628.08Z"
    fill="#535F89"
  />
  <path
    opacity="0.1"
    d="M585.06 564V570.63H582.06V564C582.542 563.919 583.03 563.879 583.52 563.88C584.035 563.879 584.55 563.92 585.06 564V564Z"
    fill="black"
  />
  <path
    opacity="0.1"
    d="M587.63 572.32C586.363 572.996 584.946 573.34 583.51 573.32C581.951 573.358 580.413 572.949 579.08 572.14L579.39 570.68H586.57C587.028 571.151 587.388 571.709 587.63 572.32V572.32Z"
    fill="black"
  />
  <path
    d="M583.51 572.159C586.829 572.159 589.52 570.561 589.52 568.589C589.52 566.618 586.829 565.02 583.51 565.02C580.191 565.02 577.5 566.618 577.5 568.589C577.5 570.561 580.191 572.159 583.51 572.159Z"
    fill="#DCE2ED"
  />
  <path
    d="M557.1 214.14L578.26 204.01L609.46 211.47L585.25 193.17L557.1 214.14Z"
    fill="#274B9F"
  />
  <path
    d="M563.29 217.38L557.1 214.14L578.26 204.01L609.46 211.47L603.97 214.14L578.26 208.37L563.29 217.38Z"
    fill="#274B9F"
  />
  <path
    opacity="0.1"
    d="M563.29 217.38L557.1 214.14L578.26 204.01L609.46 211.47L603.97 214.14L578.26 208.37L563.29 217.38Z"
    fill="black"
  />
  <path
    opacity="0.2"
    d="M562.45 214.99L579.48 262.71H587.92L603.69 212.03L578.26 206.12L562.45 214.99Z"
    fill="#274B9F"
  />
  <path
    d="M592.1 249.28L588.74 260.1L587.92 262.71H579.48L578.85 260.94L574.87 249.79L581.26 245.95L592.1 249.28Z"
    fill="#274B9F"
  />
  <path
    opacity="0.2"
    d="M578.26 208.37L582.29 262.71H579.48L563.29 217.38L578.26 208.37Z"
    fill="#274B9F"
  />
  <path opacity="0.1" d="M585.25 193.17L578.26 204.01L557.1 214.14L585.25 193.17Z" fill="black" />
  <path
    opacity="0.1"
    d="M588.74 260.1L587.93 262.71H579.48L578.85 260.94C579.561 260.244 580.412 259.706 581.346 259.361C582.28 259.016 583.276 258.873 584.27 258.94C585.841 258.885 587.393 259.288 588.74 260.1V260.1Z"
    fill="black"
  />
  <path
    opacity="0.1"
    d="M585.06 263.6V268.25C584.8 268.25 584.54 268.25 584.27 268.25C583.522 268.253 582.777 268.166 582.05 267.99V263.6H585.06Z"
    fill="black"
  />
  <path
    d="M584.26 267.17C587.579 267.17 590.27 265.572 590.27 263.6C590.27 261.628 587.579 260.03 584.26 260.03C580.941 260.03 578.25 261.628 578.25 263.6C578.25 265.572 580.941 267.17 584.26 267.17Z"
    fill="#DCE2ED"
  />
  <path d="M802.76 412.94H799.08V615.94H802.76V412.94Z" fill="#535F89" />
  <path
    d="M806.26 653.91C804.575 655.219 802.503 655.929 800.37 655.929C798.237 655.929 796.164 655.219 794.48 653.91C792.83 643.05 797.01 621.69 797.99 616.91C798.12 616.28 798.2 615.91 798.2 615.91H802.91C803.228 616.224 803.479 616.598 803.65 617.01C806.91 624 806.26 653.91 806.26 653.91Z"
    fill="#535F89"
  />
  <path
    opacity="0.1"
    d="M801.94 611.55V615.94H799.94V611.55C800.27 611.49 800.605 611.463 800.94 611.47C801.275 611.471 801.61 611.498 801.94 611.55V611.55Z"
    fill="black"
  />
  <path
    opacity="0.1"
    d="M803.65 617C802.808 617.437 801.869 617.657 800.92 617.64C799.891 617.663 798.876 617.396 797.99 616.87C798.12 616.24 798.2 615.87 798.2 615.87H802.91C803.231 616.192 803.483 616.577 803.65 617V617Z"
    fill="black"
  />
  <path
    d="M800.92 616.94C803.113 616.94 804.89 615.883 804.89 614.58C804.89 613.276 803.113 612.22 800.92 612.22C798.728 612.22 796.95 613.276 796.95 614.58C796.95 615.883 798.728 616.94 800.92 616.94Z"
    fill="#DCE2ED"
  />
  <path
    d="M783.46 380.24L797.45 373.54L818.08 378.48L802.07 366.38L783.46 380.24Z"
    fill="#274B9F"
  />
  <path
    d="M787.55 382.38L783.46 380.24L797.45 373.54L818.08 378.48L814.45 380.24L797.45 376.43L787.55 382.38Z"
    fill="#274B9F"
  />
  <path
    opacity="0.1"
    d="M787.55 382.38L783.46 380.24L797.45 373.54L818.08 378.48L814.45 380.24L797.45 376.43L787.55 382.38Z"
    fill="black"
  />
  <path
    opacity="0.2"
    d="M786.99 380.8L798.25 412.35H803.84L814.26 378.85L797.45 374.94L786.99 380.8Z"
    fill="#274B9F"
  />
  <path
    d="M806.6 403.47L804.38 410.63L803.84 412.36H798.25L797.84 411.19L795.21 403.82L799.43 401.28L806.6 403.47Z"
    fill="#274B9F"
  />
  <path
    opacity="0.2"
    d="M797.45 376.43L800.12 412.35H798.25L787.55 382.38L797.45 376.43Z"
    fill="#274B9F"
  />
  <path
    opacity="0.1"
    d="M802.07 366.38L797.45 373.54L783.46 380.24L802.07 366.38Z"
    fill="black"
  />
  <path
    opacity="0.1"
    d="M804.38 410.63L803.84 412.35H798.26L797.84 411.18C798.309 410.717 798.87 410.359 799.487 410.128C800.104 409.897 800.762 409.799 801.42 409.84C802.462 409.81 803.491 410.085 804.38 410.63V410.63Z"
    fill="black"
  />
  <path
    opacity="0.1"
    d="M801.94 412.94V416H801.42C800.928 416.002 800.438 415.945 799.96 415.83V412.9L801.94 412.94Z"
    fill="black"
  />
  <path
    d="M801.42 415.3C803.613 415.3 805.39 414.243 805.39 412.94C805.39 411.637 803.613 410.58 801.42 410.58C799.228 410.58 797.45 411.637 797.45 412.94C797.45 414.243 799.228 415.3 801.42 415.3Z"
    fill="#DCE2ED"
  />
  <path
    opacity="0.1"
    d="M445 834.08C690.767 834.08 890 814.381 890 790.08C890 765.78 690.767 746.08 445 746.08C199.233 746.08 0 765.78 0 790.08C0 814.381 199.233 834.08 445 834.08Z"
    fill="#274B9F"
  />
  <path
    d="M446.84 687.69C446.84 687.69 357.64 683.94 348.25 509.29C338.86 334.64 431.82 305.06 431.82 305.06C431.82 305.06 461.27 288.61 474.33 287.93C487.39 287.25 531.04 291.36 531.04 291.36L482.92 282.08C482.92 282.08 550.63 256.31 570.92 254.25L497.72 269.71C497.72 269.71 496.72 229.16 514.22 215.76C514.22 215.76 499.22 214.64 491.31 243.85C489.058 252.278 484.862 260.061 479.058 266.573C473.254 273.086 466.004 278.147 457.89 281.35C430.74 291.94 393.2 308.66 384.65 322.98C384.65 322.98 368.84 339.48 371.25 296.52C373.66 253.56 384.99 216.78 389.12 215.75C389.12 215.75 421.42 181.39 466.79 179.33C466.79 179.33 440.33 168.67 395.65 202.01C395.65 202.01 391.87 185.17 408.71 165.23C425.55 145.29 451.71 103.37 480.19 98.91C480.19 98.91 440.33 96.5 408.71 148.05C408.71 148.05 397.02 155.61 395.99 136.37C394.96 117.13 388.09 93.06 388.09 93.06C388.09 93.06 378.46 137.4 398.74 157.33C398.74 157.33 359.9 207.85 361.62 264.56C361.62 264.56 349.62 290.33 345.13 260.09C345.13 260.09 342.54 218.44 337.37 183.09C335.279 168.851 336.149 154.334 339.924 140.447C343.699 126.56 350.298 113.601 359.31 102.38C367.9 91.69 373.88 81.31 370.56 75.86L325.56 129.47C325.56 129.47 287.71 41.86 260.22 23C232.73 4.14 229.29 0 229.29 0L273.62 51.89L217.95 32.23L273.62 58C273.62 58 299.4 79 314.18 136.36C328.96 193.72 330.33 229.49 330.33 229.49C330.33 229.49 250.94 166.6 235.82 168.66L287.19 207.52C301.165 218.085 312.707 231.528 321.039 246.939C329.37 262.351 334.294 279.371 335.48 296.85V296.85C335.48 296.85 236.16 271.42 212.1 266.61L166.74 220.21L201.11 264.21L130.31 263.21L89.76 234.34C89.76 234.34 121.76 261.15 118.62 262.87C115.48 264.59 68.79 266.65 68.79 266.65C68.79 266.65 187.7 265.96 200.79 274.55C213.88 283.14 243.06 286.24 243.06 286.24L158.86 298.95L259.22 291.74C259.22 291.74 335.17 305.48 339.29 329.2C339.29 329.2 323.82 369.56 313.52 385.56C304.96 398.86 287.74 441.92 284.31 479.73C280.88 517.54 276.06 575.61 289.12 611.01C302.18 646.41 306.99 666.69 300.46 677.34C293.93 687.99 287.74 701.74 309.05 704.49C330.36 707.24 423.84 703.12 423.84 703.12C423.84 703.12 452.35 708.72 446.84 687.69Z"
    fill="#DEA3A2"
  />
  <path
    opacity="0.1"
    d="M396.88 668.94C387.53 664.173 376.806 662.832 366.57 665.15C349.07 668.94 322.26 666.93 319.82 666.51"
    fill="black"
  />
  <path
    opacity="0.1"
    d="M340.89 463.14C340.89 463.14 336.63 530.32 344.2 543.57L340.89 463.14Z"
    fill="black"
  />
  <path
    opacity="0.1"
    d="M325.17 543.57C325.17 543.57 330.63 606.49 334.41 618.79C338.19 631.09 325.17 543.57 325.17 543.57Z"
    fill="black"
  />
  <path
    opacity="0.1"
    d="M319.85 388.86C315.98 390.28 299.42 423.86 302.74 433.81C306.06 443.76 319.85 388.86 319.85 388.86Z"
    fill="black"
  />
  <path
    opacity="0.1"
    d="M361.83 354C360.04 354.81 352.33 374.16 353.83 379.88C355.33 385.6 361.83 354 361.83 354Z"
    fill="black"
  />
  <path
    opacity="0.1"
    d="M290.13 466.81C292.05 486.32 293.13 499.09 291.87 514.71C290.842 526.84 291.016 539.043 292.39 551.14"
    fill="black"
  />
  <path
    opacity="0.1"
    d="M497.47 239.66C495.14 242.32 494.36 246.01 494.25 249.55C494.14 253.09 494.59 256.63 494.36 260.16C494.11 263.87 492.36 268.23 488.66 268.72"
    fill="black"
  />
  <path
    opacity="0.1"
    d="M434.01 123.35C429.303 128.019 425.131 133.198 421.57 138.79C420.534 140.552 419.353 142.224 418.04 143.79C416.04 145.97 413.5 147.52 411.22 149.38C405.863 153.731 402.051 159.692 400.35 166.38"
    fill="black"
  />
  <path
    opacity="0.1"
    d="M254.35 22.9299C255.481 25.1284 256.971 27.1224 258.76 28.8299C260.32 30.3099 262.1 31.5699 263.51 33.1899C264.625 34.6029 265.628 36.1008 266.51 37.6699C270.13 43.4599 274.68 48.6099 279.22 53.6699"
    fill="black"
  />
  <path
    opacity="0.1"
    d="M337.57 122.35C334.57 124.2 333.84 128.16 333.9 131.65C333.96 135.14 334.56 138.78 333.27 142.02C332.68 143.5 331.72 144.8 331.1 146.26C330.04 148.78 330.04 151.6 330.1 154.34C330.15 157.5 330.25 160.67 330.39 163.83C330.55 167.63 330.91 171.77 333.5 174.56"
    fill="black"
  />
  <path
    opacity="0.1"
    d="M335.1 310.68C333.146 309.075 331.066 307.63 328.88 306.36C326.886 305.139 324.737 304.193 322.49 303.55C319.06 302.64 315.49 302.78 311.93 302.41C308.37 302.04 304.71 301.06 302.31 298.41"
    fill="black"
  />
  <path
    opacity="0.1"
    d="M195.36 267.26C199.54 267.38 203.88 267.53 207.6 269.44C209.5 270.44 211.15 271.82 213.01 272.86C215.425 274.198 218.14 274.903 220.9 274.91"
    fill="black"
  />
  <path
    opacity="0.1"
    d="M253.34 284.52C252.44 283.82 251.08 284.36 250.34 285.22C249.6 286.08 249.19 287.22 248.42 288.02C246.89 289.67 244.42 289.86 242.15 289.94"
    fill="black"
  />
  <path
    opacity="0.1"
    d="M277.25 195.69L281.25 197.8C285.432 199.807 289.408 202.218 293.12 205"
    fill="black"
  />
  <path
    opacity="0.1"
    d="M323.17 235C325.81 234.37 328.09 237.19 328.56 239.86C329.03 242.53 328.48 245.35 329.23 247.96C330.069 250.228 331.441 252.262 333.23 253.89"
    fill="black"
  />
  <path
    opacity="0.1"
    d="M367.87 239.89C370.28 247.07 365.18 254.89 366.67 262.32C367.12 264.58 368.17 266.68 368.67 268.93C370.06 274.83 367.67 281.11 363.81 285.8"
    fill="black"
  />
  <path d="M224.19 181.64H217.24V564.92H224.19V181.64Z" fill="#535F89" />
  <path
    d="M230.79 636.61C227.609 639.084 223.694 640.427 219.665 640.427C215.635 640.427 211.72 639.084 208.54 636.61C205.44 616.1 213.32 575.79 215.18 566.75L215.57 564.92H224.47C225.061 565.518 225.533 566.224 225.86 567C232.02 580.12 230.79 636.61 230.79 636.61Z"
    fill="#535F89"
  />
  <path
    opacity="0.1"
    d="M222.64 556.64V564.92H218.89V556.63C219.495 556.531 220.107 556.485 220.72 556.49C221.363 556.488 222.005 556.538 222.64 556.64V556.64Z"
    fill="black"
  />
  <path
    opacity="0.1"
    d="M225.86 567C224.275 567.829 222.507 568.245 220.72 568.21C218.772 568.259 216.85 567.753 215.18 566.75L215.57 564.92H224.47C225.062 565.518 225.533 566.224 225.86 567Z"
    fill="black"
  />
  <path
    d="M220.72 566.799C224.862 566.799 228.22 564.807 228.22 562.349C228.22 559.892 224.862 557.899 220.72 557.899C216.578 557.899 213.22 559.892 213.22 562.349C213.22 564.807 216.578 566.799 220.72 566.799Z"
    fill="#DCE2ED"
  />
  <path d="M187.74 119.9L214.16 107.25L253.11 116.56L222.88 93.72L187.74 119.9Z" fill="#274B9F" />
  <path
    d="M195.47 123.94L187.74 119.9L214.16 107.25L253.11 116.56L246.25 119.9L214.16 112.7L195.47 123.94Z"
    fill="#274B9F"
  />
  <path
    opacity="0.1"
    d="M195.47 123.94L187.74 119.9L214.16 107.25L253.11 116.56L246.25 119.9L214.16 112.7L195.47 123.94Z"
    fill="black"
  />
  <path
    opacity="0.2"
    d="M194.42 120.96L215.68 180.52H226.22L245.9 117.27L214.16 109.89L194.42 120.96Z"
    fill="#274B9F"
  />
  <path
    d="M231.44 163.76L227.23 177.27L226.22 180.53H215.68L214.89 178.32L209.93 164.41L217.9 159.61L231.44 163.76Z"
    fill="#274B9F"
  />
  <path
    opacity="0.2"
    d="M214.16 112.7L219.19 180.52H215.68L195.47 123.94L214.16 112.7Z"
    fill="#274B9F"
  />
  <path opacity="0.1" d="M222.88 93.72L214.16 107.25L187.74 119.9L222.88 93.72Z" fill="black" />
  <path
    opacity="0.1"
    d="M227.24 177.27L226.24 180.53H215.68L214.9 178.32C216.09 176.82 218.66 175.78 221.66 175.78C223.625 175.728 225.563 176.246 227.24 177.27V177.27Z"
    fill="black"
  />
  <path
    opacity="0.1"
    d="M222.64 181.64V187.44C222.32 187.44 221.99 187.49 221.64 187.49C220.707 187.492 219.777 187.381 218.87 187.16V181.64H222.64Z"
    fill="black"
  />
  <path
    d="M221.65 186.09C225.793 186.09 229.15 184.098 229.15 181.64C229.15 179.182 225.793 177.19 221.65 177.19C217.508 177.19 214.15 179.182 214.15 181.64C214.15 184.098 217.508 186.09 221.65 186.09Z"
    fill="#DCE2ED"
  />
  <path
    opacity="0.1"
    d="M914.02 690.49C923.31 690.49 930.84 689.218 930.84 687.65C930.84 686.081 923.31 684.81 914.02 684.81C904.731 684.81 897.2 686.081 897.2 687.65C897.2 689.218 904.731 690.49 914.02 690.49Z"
    fill="#274B9F"
  />
  <path
    d="M902.73 674.44C902.73 674.44 912.321 674.14 915.211 672.08C918.101 670.02 929.97 667.57 930.68 670.87C931.39 674.17 945.101 687.29 934.271 687.38C923.441 687.47 909.101 685.69 906.221 683.93C903.341 682.17 902.73 674.44 902.73 674.44Z"
    fill="#A8A8A8"
  />
  <path
    opacity="0.2"
    d="M934.46 686.23C923.63 686.32 909.3 684.54 906.46 682.78C904.27 681.44 903.39 676.64 903.1 674.43H902.78C902.78 674.43 903.38 682.16 906.27 683.92C909.16 685.68 923.49 687.45 934.32 687.37C937.45 687.37 938.52 686.23 938.47 684.58C937.98 685.59 936.79 686.21 934.46 686.23Z"
    fill="black"
  />
  <path
    opacity="0.1"
    d="M1011.56 656.72C1018.71 656.72 1024.5 655.739 1024.5 654.53C1024.5 653.32 1018.71 652.34 1011.56 652.34C1004.41 652.34 998.62 653.32 998.62 654.53C998.62 655.739 1004.41 656.72 1011.56 656.72Z"
    fill="#274B9F"
  />
  <path
    d="M1002.87 644.36C1002.87 644.36 1010.25 644.13 1012.48 642.55C1014.71 640.97 1023.83 639.07 1024.38 641.61C1024.93 644.15 1035.48 654.25 1027.14 654.31C1018.8 654.37 1007.78 653.02 1005.56 651.66C1003.34 650.3 1002.87 644.36 1002.87 644.36Z"
    fill="#A8A8A8"
  />
  <path
    opacity="0.2"
    d="M1027.29 653.43C1018.96 653.5 1007.93 652.13 1005.71 650.78C1004.02 649.78 1003.34 646.05 1003.12 644.35H1002.87C1002.87 644.35 1003.34 650.3 1005.56 651.65C1007.78 653 1018.81 654.37 1027.14 654.3C1029.55 654.3 1030.38 653.43 1030.33 652.16C1030 652.94 1029.08 653.42 1027.29 653.43Z"
    fill="black"
  />
  <path
    opacity="0.1"
    d="M952.84 798.05C969.9 798.05 983.73 795.713 983.73 792.83C983.73 789.947 969.9 787.61 952.84 787.61C935.78 787.61 921.95 789.947 921.95 792.83C921.95 795.713 935.78 798.05 952.84 798.05Z"
    fill="#274B9F"
  />
  <path
    d="M932.1 768.56C932.1 768.56 949.72 768.01 955.03 764.23C960.34 760.45 982.14 755.93 983.46 762C984.78 768.07 1009.94 792.16 990.04 792.32C970.14 792.48 943.82 789.23 938.57 786C933.32 782.77 932.1 768.56 932.1 768.56Z"
    fill="#A8A8A8"
  />
  <path
    opacity="0.2"
    d="M990.4 790.21C970.5 790.37 944.17 787.11 938.87 783.89C934.87 781.43 933.23 772.6 932.69 768.53H932.1C932.1 768.53 933.22 782.77 938.57 786C943.92 789.23 970.2 792.49 990.09 792.32C995.84 792.32 997.82 790.24 997.71 787.21C996.86 789 994.67 790.18 990.4 790.21Z"
    fill="black"
  />
  <path
    d="M634.09 547.23C634.09 547.23 685.32 545.07 690.71 444.77C696.1 344.47 642.71 327.47 642.71 327.47C642.71 327.47 625.8 318.02 618.3 317.63C610.8 317.24 585.73 319.63 585.73 319.63L613.36 314.3C613.36 314.3 574.48 299.5 562.83 298.3L604.83 307.18C604.83 307.18 605.42 283.89 595.35 276.18C595.35 276.18 603.93 275.54 608.51 292.31C609.799 297.152 612.207 301.624 615.54 305.365C618.873 309.106 623.038 312.013 627.7 313.85C643.3 319.94 664.86 329.54 669.77 337.76C669.77 337.76 678.85 347.24 677.46 322.56C676.07 297.88 669.57 276.76 667.2 276.17C667.2 276.17 648.65 256.44 622.59 255.25C622.59 255.25 637.79 249.14 663.45 268.25C663.45 268.25 665.62 258.58 655.95 247.13C646.28 235.68 631.28 211.6 614.89 209.04C614.89 209.04 637.79 207.65 655.95 237.26C655.95 237.26 662.66 241.6 663.25 230.55C663.84 219.5 667.79 205.68 667.79 205.68C667.79 205.68 673.32 231.14 661.67 242.59C661.67 242.59 683.98 271.59 682.99 304.18C682.99 304.18 689.9 318.98 692.47 301.61C692.47 301.61 693.95 277.69 696.92 257.4C698.119 249.221 697.619 240.884 695.451 232.907C693.283 224.93 689.494 217.486 684.32 211.04C679.39 204.91 675.95 198.94 677.86 195.81L703.72 226.6C703.72 226.6 725.43 176.27 741.22 165.41C757.01 154.55 758.99 152.19 758.99 152.19L733.57 182L765.57 170.75L733.57 185.56C733.57 185.56 718.77 197.56 710.28 230.56C701.79 263.56 701 284.05 701 284.05C701 284.05 746.57 248 755.29 249.14L725.78 271.45C717.754 277.519 711.124 285.241 706.338 294.093C701.553 302.944 698.723 312.72 698.04 322.76V322.76C698.04 322.76 755.04 308.15 768.91 305.39L794.91 278.74L775.22 304L815.88 303.41L839.18 286.83C839.18 286.83 820.82 302.23 822.57 303.22C824.32 304.21 851.2 305.39 851.2 305.39C851.2 305.39 782.9 305 775.4 309.93C767.9 314.86 751.12 316.64 751.12 316.64L799.5 324L741.86 319.85C741.86 319.85 698.24 327.75 695.86 341.37C695.86 341.37 704.75 364.55 710.67 373.74C715.58 381.37 725.47 406.11 727.44 427.82C729.41 449.53 732.18 482.89 724.68 503.22C717.18 523.55 714.42 535.22 718.17 541.32C721.92 547.42 725.47 555.32 713.23 556.91C700.99 558.5 647.3 556.12 647.3 556.12C647.3 556.12 630.92 559.31 634.09 547.23Z"
    fill="#DEA3A2"
  />
  <path
    opacity="0.1"
    d="M662.78 536.46C668.145 533.726 674.298 532.959 680.17 534.29C690.17 536.46 705.62 535.29 707.02 535.07"
    fill="black"
  />
  <path
    opacity="0.1"
    d="M694.94 418.26C694.94 418.26 697.38 456.85 693.04 464.45L694.94 418.26Z"
    fill="black"
  />
  <path
    opacity="0.1"
    d="M703.96 464.45C703.96 464.45 700.83 500.59 698.66 507.66C696.49 514.73 703.96 464.45 703.96 464.45Z"
    fill="black"
  />
  <path
    opacity="0.1"
    d="M707.02 375.6C709.24 376.42 718.75 395.71 716.85 401.41C714.95 407.11 707.02 375.6 707.02 375.6Z"
    fill="black"
  />
  <path
    opacity="0.1"
    d="M682.91 355.58C683.91 356.04 688.37 367.16 687.48 370.44C686.59 373.72 682.91 355.58 682.91 355.58Z"
    fill="black"
  />
  <path
    opacity="0.1"
    d="M724.09 420.37C722.99 431.58 722.39 438.91 723.09 447.88C723.684 454.846 723.583 461.854 722.79 468.8"
    fill="black"
  />
  <path
    opacity="0.1"
    d="M605 289.91C606.249 291.536 606.905 293.54 606.86 295.59C606.93 297.59 606.66 299.65 606.79 301.68C606.92 303.71 607.95 306.31 610.07 306.6"
    fill="black"
  />
  <path
    opacity="0.1"
    d="M641.46 223.1C644.154 225.793 646.538 228.778 648.57 232C649.154 233.018 649.823 233.985 650.57 234.89C651.792 236.059 653.103 237.132 654.49 238.1C657.569 240.607 659.757 244.04 660.73 247.89"
    fill="black"
  />
  <path
    opacity="0.1"
    d="M744.64 165.43C743.988 166.691 743.133 167.836 742.11 168.82C741.21 169.67 740.19 170.39 739.38 171.32C738.73 172.129 738.145 172.989 737.63 173.89C735.465 177.164 733.026 180.248 730.34 183.11"
    fill="black"
  />
  <path
    opacity="0.1"
    d="M696.85 222.53C698.56 223.59 699 225.87 698.96 227.87C698.92 229.87 698.58 231.97 699.33 233.87C699.67 234.72 700.22 235.47 700.57 236.31C701.082 237.796 701.283 239.373 701.16 240.94C701.16 242.76 701.07 244.58 700.99 246.39C700.9 248.58 700.69 250.95 699.21 252.56"
    fill="black"
  />
  <path
    opacity="0.1"
    d="M698.26 330.7C699.384 329.782 700.578 328.953 701.83 328.22C702.979 327.518 704.216 326.974 705.51 326.6C707.511 326.245 709.537 326.044 711.57 326C713.625 325.93 715.588 325.124 717.1 323.73"
    fill="black"
  />
  <path
    opacity="0.1"
    d="M778.57 305.76C776.17 305.83 773.68 305.91 771.57 307.01C770.48 307.57 769.57 308.38 768.46 309.01C767.075 309.782 765.515 310.188 763.93 310.19"
    fill="black"
  />
  <path
    opacity="0.1"
    d="M745.22 315.67C745.508 315.516 745.842 315.472 746.16 315.545C746.478 315.619 746.758 315.805 746.95 316.07C747.38 316.56 747.61 317.2 748.06 317.68C748.93 318.63 750.36 318.74 751.65 318.78"
    fill="black"
  />
  <path
    opacity="0.1"
    d="M731.49 264.66L729.18 265.86C726.784 267.019 724.506 268.409 722.38 270.01"
    fill="black"
  />
  <path
    opacity="0.1"
    d="M705.12 287.22C703.6 286.86 702.29 288.48 702.02 290.02C701.75 291.56 702.02 293.17 701.63 294.67C701.156 295.971 700.378 297.14 699.36 298.08"
    fill="black"
  />
  <path
    opacity="0.1"
    d="M679.44 290C678.06 294.12 680.99 298.62 680.13 302.88C679.87 304.18 679.27 305.39 678.96 306.68C678.16 310.07 679.54 313.68 681.75 316.37"
    fill="black"
  />
  <path
    d="M381.09 372.72C364.67 394.86 351.15 459.99 347.36 479.62L318.76 478.49C320.56 461.6 355.14 393.4 364.76 374.69C369.91 374 375.42 373.3 381.09 372.72Z"
    fill="#274B9F"
  />
  <path d="M738.41 364.86H725.73V382.72H738.41V364.86Z" fill="#DCE0ED" />
  <path
    opacity="0.1"
    d="M738.41 364.86V370.67C737.516 370.924 736.59 371.048 735.66 371.04L725.74 370.96V364.86H738.41Z"
    fill="black"
  />
  <path
    d="M720.38 319.36H732.38C735.243 319.364 738.039 320.222 740.41 321.826C742.782 323.429 744.62 325.705 745.69 328.36C749.19 336.99 752.16 350.71 744.36 364.36C743.491 365.89 742.229 367.16 740.705 368.039C739.181 368.918 737.449 369.374 735.69 369.36L720.41 369.23L720.38 319.36Z"
    fill="#DCE0ED"
  />
  <path
    d="M720.38 369.23C727.46 369.23 733.2 358.069 733.2 344.3C733.2 330.532 727.46 319.37 720.38 319.37C713.299 319.37 707.56 330.532 707.56 344.3C707.56 358.069 713.299 369.23 720.38 369.23Z"
    fill="#F0F0F4"
  />
  <path d="M625.81 365.07H613.13V380.7H625.81V365.07Z" fill="#DCE0ED" />
  <path
    opacity="0.1"
    d="M625.81 365.07V370.07C624.912 370.325 623.983 370.449 623.05 370.44L613.13 370.35V365.1L625.81 365.07Z"
    fill="black"
  />
  <path
    d="M607.78 319.58H619.78C622.642 319.582 625.438 320.44 627.808 322.044C630.178 323.648 632.015 325.924 633.08 328.58C636.59 337.21 639.56 350.93 631.76 364.58C630.889 366.11 629.625 367.38 628.099 368.259C626.574 369.138 624.841 369.594 623.08 369.58L607.81 369.44L607.78 319.58Z"
    fill="#DCE0ED"
  />
  <path
    d="M607.78 369.44C614.86 369.44 620.6 358.279 620.6 344.51C620.6 330.742 614.86 319.58 607.78 319.58C600.7 319.58 594.96 330.742 594.96 344.51C594.96 358.279 600.7 369.44 607.78 369.44Z"
    fill="#F0F0F4"
  />
  <path
    d="M610.98 328.69C610.98 328.69 606.25 329.45 608.71 335.69C610.016 338.72 610.965 341.891 611.54 345.14C611.54 345.14 616.27 347.6 616.08 339.47C615.89 331.34 610.98 328.69 610.98 328.69Z"
    fill="#DCE0ED"
  />
  <path
    d="M130.6 766.9C171.905 766.9 205.39 730.201 205.39 684.93C205.39 639.659 171.905 602.96 130.6 602.96C89.2942 602.96 55.8096 639.659 55.8096 684.93C55.8096 730.201 89.2942 766.9 130.6 766.9Z"
    fill="#636780"
  />
  <path
    opacity="0.1"
    d="M158.62 608.07C119.49 610.7 88.4902 646.32 88.4902 689.88C88.4902 724.99 108.63 754.94 136.94 766.61C176.08 763.98 207.08 728.36 207.08 684.8C207.08 649.69 186.93 619.74 158.62 608.07Z"
    fill="black"
  />
  <path
    d="M715.94 584.92C749.464 584.92 776.64 549.483 776.64 505.77C776.64 462.057 749.464 426.62 715.94 426.62C682.417 426.62 655.24 462.057 655.24 505.77C655.24 549.483 682.417 584.92 715.94 584.92Z"
    fill="#636780"
  />
  <path
    opacity="0.1"
    d="M698.98 429.93C673.8 439.58 655.42 469.93 655.42 505.88C655.42 544.3 676.42 576.32 704.26 583.52C729.43 573.87 747.82 543.52 747.82 507.57C747.82 469.15 726.82 437.13 698.98 429.93Z"
    fill="black"
  />
  <path
    d="M487.92 488.87L489.05 460.14C489.05 460.14 483.41 447.74 477.78 446.62C472.15 445.5 459.19 444.79 459.19 444.79C459.19 444.79 449.05 486.05 455.81 498.45C462.57 510.85 487.92 488.87 487.92 488.87Z"
    fill="#274B9F"
  />
  <path
    opacity="0.1"
    d="M487.92 488.87L489.05 460.14C489.05 460.14 483.41 447.74 477.78 446.62C472.15 445.5 459.19 444.79 459.19 444.79C459.19 444.79 449.05 486.05 455.81 498.45C462.57 510.85 487.92 488.87 487.92 488.87Z"
    fill="black"
  />
  <path
    d="M383.98 485.77C383.98 485.77 380.49 445.93 402.38 445.21C405.2 445.12 408.02 445.05 410.83 444.78C426 443.31 467.39 440.12 462.43 449.57C462.43 449.57 452.57 484.22 459.33 492.95L383.98 485.77Z"
    fill="#274B9F"
  />
  <path
    d="M694.26 559.64L723.62 560.49C723.62 560.49 728.69 506.4 730.38 502.18C732.07 497.96 732.92 477.67 727.43 474.72C721.94 471.77 703.57 468.17 703.57 468.17L690.031 499L688.98 526.89L694.26 559.64Z"
    fill="#274B9F"
  />
  <path
    opacity="0.1"
    d="M694.26 559.64L723.62 560.49C723.62 560.49 728.69 506.4 730.38 502.18C732.07 497.96 732.92 477.67 727.43 474.72C721.94 471.77 703.57 468.17 703.57 468.17L690.031 499L688.98 526.89L694.26 559.64Z"
    fill="black"
  />
  <path
    d="M623.27 469.86L623.14 463.86C623.13 463.385 623.217 462.914 623.397 462.474C623.576 462.035 623.844 461.637 624.183 461.305C624.522 460.974 624.926 460.715 625.369 460.545C625.812 460.376 626.286 460.299 626.76 460.32C641.32 460.93 694.28 463.47 703.55 468.2C703.55 468.2 693.41 543.62 704.61 561.58L700.81 622L571.09 612.28L623.27 469.86Z"
    fill="#274B9F"
  />
  <path
    opacity="0.1"
    d="M613.13 374.61C616.73 374.25 621.02 373.87 625.81 373.49V380.7H613.13V374.61Z"
    fill="black"
  />
  <path
    opacity="0.1"
    d="M738.41 381.8V382.71H725.74V377.23C730.137 378.22 734.394 379.755 738.41 381.8V381.8Z"
    fill="black"
  />
  <path
    d="M381.03 470.18C381.086 469.877 381.258 469.608 381.51 469.43C381.788 469.328 382.088 469.3 382.38 469.35V469.35C382.38 469.67 382.38 469.86 382.38 469.86C381.736 470.436 381.132 471.054 380.57 471.71C380.75 471.2 380.88 470.69 381.03 470.18ZM426.92 456.72C426.925 456.65 426.925 456.58 426.92 456.51C427.558 454.909 428.289 453.346 429.11 451.83C428.31 453.37 427.57 455 426.92 456.72V456.72ZM433.76 443.78C432.68 445.39 431.37 447.47 430.08 449.88C431.045 447.7 432.281 445.651 433.76 443.78V443.78ZM255.09 583.72C260.18 583.92 264.42 583.83 264.42 583.83C263.5 584.25 259.41 584.06 255.09 583.72ZM264.43 583.82C264.62 583.7 266.5 582.6 270.89 583.04C270.89 583 266.57 582.85 264.43 583.82V583.82ZM435.24 506.9L437.1 474.9C437.1 474.9 436.41 491.24 436.64 498.31C436.725 501.24 436.25 504.159 435.24 506.91V506.9Z"
    fill="url(#paint0_linear_269_886)"
  />
  <path
    d="M328.82 568.18C328.82 568.18 328.29 569.82 327.59 571.9C326.45 575.29 324.84 579.9 324.29 580.33C323.74 580.76 319.48 581.04 314.84 581.33C307.647 581.748 300.552 579.494 294.92 575C294.92 575 297.35 573.25 299.92 571.22C302.49 569.19 305.19 566.89 305.74 565.76C306.51 564.21 310.91 561.54 313.56 560.04C314.75 559.36 315.56 558.92 315.56 558.92L328.82 568.18Z"
    fill="#F899A5"
  />
  <path
    d="M323.2 582.31C323.2 582.31 276.44 580.16 273.65 579.54C270.86 578.92 270.29 575.64 270.29 575.64C269.36 573.46 274.29 573.93 274.29 573.93C274.79 574.01 280.29 574.93 285.47 575.59C289.62 576.12 293.55 576.48 294.47 576.09C296.56 575.22 300.73 575.59 300.73 575.59C298.36 567.75 291.18 565.88 288.11 565.44L288.3 565.25C289.116 564.49 290.011 563.82 290.97 563.25C300.5 563.64 305.54 576.78 305.54 576.78H305.62C306.7 577.12 318.19 580.68 320.47 581.01C322.85 581.38 323.2 582.31 323.2 582.31Z"
    fill="#F3B4B4"
  />
  <path
    d="M298.75 586.48C298.57 587.07 297.75 587.48 296.41 587.59C295.684 587.642 294.956 587.642 294.23 587.59C289.785 587.207 285.412 586.225 281.23 584.67C280.51 584.42 279.83 584.2 279.17 584.01H279.09C277.502 583.535 275.876 583.201 274.23 583.01C269.99 582.57 268.18 583.67 268 583.79C268 583.79 263.9 583.88 259 583.68C255.232 583.577 251.477 583.182 247.77 582.5V582.5C247.24 582.39 246.77 582.26 246.28 582.13C245.403 581.907 244.559 581.571 243.77 581.13C238.61 578.03 255.99 575.94 255.99 575.94C257.976 575.698 259.825 574.804 261.25 573.4L261.43 573.2L261.87 572.76C262.542 572.175 263.246 571.627 263.98 571.12L264.62 570.69C268.08 568.35 272.74 565.85 272.74 565.85C275.982 564.97 278.945 563.276 281.35 560.93C281.792 560.494 282.194 560.019 282.55 559.51V559.51L292.16 557.03L298.78 572.93C298.78 572.93 298.83 573.79 298.88 575.08C298.99 578.54 299.18 585.08 298.75 586.48Z"
    fill="#F899A5"
  />
  <path
    opacity="0.1"
    d="M296.41 587.59C295.685 587.642 294.956 587.642 294.23 587.59C289.785 587.206 285.412 586.224 281.23 584.67C280.51 584.42 279.83 584.2 279.17 584.01H279.09C277.503 583.535 275.876 583.2 274.23 583.01C269.99 582.57 268.18 583.67 268 583.79C268 583.79 263.9 583.88 259 583.68C255.232 583.576 251.478 583.182 247.77 582.5V582.5C247.24 582.39 246.77 582.26 246.28 582.13C246.92 582.051 247.566 582.024 248.21 582.05V582.05C248.7 582.11 254.26 582.79 259.44 583.22C263.62 583.57 267.56 583.76 268.44 583.33C270.49 582.33 274.67 582.55 274.67 582.55C271.97 574.82 264.67 573.27 261.62 572.96C261.68 572.89 261.75 572.83 261.8 572.76C262.579 571.983 263.433 571.286 264.35 570.68H264.55C273.96 570.83 279.5 583.55 279.5 583.55H279.58C280.67 583.84 292.31 586.91 294.58 587.14C295.211 587.188 295.829 587.34 296.41 587.59Z"
    fill="black"
  />
  <path
    d="M296.96 588.78C296.96 588.78 250.15 588.66 247.34 588.17C244.53 587.68 243.81 584.41 243.81 584.41C242.81 582.28 247.7 582.54 247.7 582.54C248.19 582.6 253.7 583.28 258.93 583.72C263.1 584.06 267.05 584.25 267.93 583.83C269.93 582.83 274.16 583.05 274.16 583.05C271.45 575.32 264.16 573.77 261.11 573.46L261.29 573.26C262.079 572.475 262.943 571.768 263.87 571.15C273.41 571.15 279.02 584.03 279.02 584.03H279.1C280.19 584.31 291.83 587.38 294.1 587.61C296.57 587.86 296.96 588.78 296.96 588.78Z"
    fill="#F3B4B4"
  />
  <path
    opacity="0.1"
    d="M328.82 568.18C328.82 568.18 328.29 569.82 327.59 571.9C327.31 571.71 318.1 565.58 314.59 561.56C314.178 561.108 313.822 560.608 313.53 560.07C314.72 559.39 315.53 558.95 315.53 558.95L328.82 568.18Z"
    fill="black"
  />
  <path
    d="M355.76 547.9L354.1 553.27L338.2 561.93C338.2 561.93 333.9 564.98 333.2 566.42C332.632 567.379 331.726 568.092 330.66 568.42C329.872 569.4 329.138 570.421 328.46 571.48C328.46 571.48 319.02 565.22 315.46 561.14C314.36 559.88 313.83 558.82 314.33 558.23C316.41 555.73 328.89 546.75 328.89 546.75C328.89 546.75 336.51 536.75 336.84 536.93C337.17 537.11 341 533.42 343.25 531.33L344.79 529.89L355.76 547.9Z"
    fill="#BDD3E8"
  />
  <path
    d="M431.57 439.79L416.09 467.17L410.41 478L380.16 473.59L380.84 472.14L383.4 466.77L384.57 464.31L384.75 463.98L388.1 457.91L388.29 457.66L390.72 454.22L395.61 447.31C396.165 447.272 396.708 447.129 397.21 446.89C398.061 446.453 398.715 445.71 399.04 444.81C400.77 440.53 397.6 432.3 397.6 432.3C397.6 432.3 409.08 404.3 413.06 419.71C416 431.14 424.73 436.66 429.06 438.71C429.874 439.122 430.712 439.482 431.57 439.79V439.79Z"
    fill="#F899A5"
  />
  <path
    d="M379.57 533.92V536.57C379.57 536.57 389.57 546.14 388.25 553.94C386.93 561.74 389.72 571.46 389.72 571.46L399.78 570.74L398.26 535.1L379.57 533.92Z"
    fill="#BDD3E8"
  />
  <path
    opacity="0.05"
    d="M399.78 570.74L389.72 571.46C389.72 571.46 386.93 561.75 388.25 553.94C389.57 546.13 379.57 536.57 379.57 536.57V533.92L398.26 535.1L398.36 537.42L399.78 570.74Z"
    fill="black"
  />
  <path
    opacity="0.05"
    d="M344.08 532.89C340.897 535.847 337.948 539.046 335.26 542.46C331.72 547.17 325.69 553.94 325.69 553.94L318.48 558.21L315.48 561.12C314.38 559.86 313.85 558.8 314.35 558.21C316.43 555.71 328.91 546.73 328.91 546.73C328.91 546.73 336.53 536.73 336.86 536.91C337.19 537.09 341.02 533.4 343.27 531.31L344.08 532.89Z"
    fill="black"
  />
  <path
    opacity="0.1"
    d="M298.85 575.08C298.558 575.33 298.281 575.597 298.02 575.88C298.02 575.88 297.87 580.58 294.19 569.54C290.51 558.5 281.38 561.15 281.38 561.15C281.348 561.129 281.323 561.098 281.31 561.062C281.298 561.026 281.298 560.986 281.31 560.95C281.31 560.65 281.84 560.13 282.51 559.53L292.12 557.05L298.74 572.95C298.74 572.95 298.8 573.79 298.85 575.08Z"
    fill="black"
  />
  <path
    d="M332.76 512.28L327.16 512.43L323.33 517.88C323.33 517.88 317 524.65 315.09 526.34C313.18 528.03 300.81 539.66 297.28 545.7C297.28 545.7 294.04 547.32 294.04 548.94C294.04 550.56 287.86 555.27 287.86 555.27C287.86 555.27 281.38 559.68 282.26 560.27C282.26 560.27 291.39 557.62 295.07 568.66C298.75 579.7 298.9 574.99 298.9 574.99C299.536 574.293 300.283 573.705 301.11 573.25C301.99 572.93 306.18 566.9 307.47 566.75C308.422 566.562 309.318 566.158 310.09 565.57L317.59 558.21L324.81 553.94C324.81 553.94 330.81 547.17 334.37 542.46C337.063 539.048 340.015 535.849 343.2 532.89L332.76 512.28Z"
    fill="#BDD3E8"
  />
  <path
    opacity="0.1"
    d="M304.79 547.91C304.79 547.91 314.79 552.76 314.36 553.79C313.93 554.82 304.79 547.91 304.79 547.91Z"
    fill="black"
  />
  <path
    opacity="0.1"
    d="M312.69 546.729C312.69 546.729 313.47 551.1 317.45 550.9C321.43 550.7 312.69 546.729 312.69 546.729Z"
    fill="black"
  />
  <path
    opacity="0.1"
    d="M298.75 559C298.75 559 299.34 561.5 303.02 561.94C306.7 562.38 298.75 559 298.75 559Z"
    fill="black"
  />
  <path
    opacity="0.1"
    d="M336.22 547.91C336.22 547.91 341.07 549.91 341.51 552.69C341.95 555.47 336.22 547.91 336.22 547.91Z"
    fill="black"
  />
  <path
    opacity="0.1"
    d="M324.29 558.21C326.17 559.02 331.58 565.09 331.47 565.75C331.36 566.41 324.29 558.21 324.29 558.21Z"
    fill="black"
  />
  <path
    opacity="0.1"
    d="M332.9 553.899C333.465 553.699 334.073 553.658 334.659 553.782C335.245 553.905 335.785 554.188 336.22 554.599C337.57 555.999 332.9 553.899 332.9 553.899Z"
    fill="black"
  />
  <path
    d="M368.57 505.81C368.57 505.81 349.8 499.73 351.24 505.81C352.68 511.89 368.57 515.3 368.57 515.3V505.81Z"
    fill="#F899A5"
  />
  <path
    opacity="0.1"
    d="M431.57 439.79L416.09 467.17L410.41 478L380.16 473.59L380.84 472.14C381.548 471.159 382.355 470.254 383.25 469.44C383.18 468.547 383.231 467.649 383.4 466.77C383.555 465.724 384.026 464.751 384.75 463.98L384.87 463.87C386.29 462.62 387.64 459.39 388.29 457.66C388.55 456.97 388.69 456.51 388.69 456.51L390.69 454.22L397.18 446.89L399.01 444.81L400.73 442.87L394.57 451.63C394.57 451.63 391.63 456.93 391.48 457.63C391.33 458.33 386.48 464.84 386.48 464.84C386.48 464.84 378.24 472.06 392.96 472.2C407.68 472.34 416.66 458 416.66 458L429.08 438.76C429.888 439.154 430.72 439.498 431.57 439.79V439.79Z"
    fill="black"
  />
  <path
    opacity="0.1"
    d="M398.36 537.42L392.59 537.02L379.56 535.93V533.93L398.26 535.1L398.36 537.42Z"
    fill="black"
  />
  <path
    d="M429.03 437.21C429.03 437.21 431.68 440.15 434.33 440.3C434.33 440.3 429.47 445.45 427.7 450.46C427.7 450.46 419.44 464.36 425.35 469.15C431.26 473.94 434.69 474.89 434.69 474.89L432.9 506.89C432.9 506.89 437.27 528.89 438.9 530.53C440.53 532.17 440.08 535.83 440.08 535.83C440.08 535.83 439.01 539.51 440.13 540.83C441.25 542.15 441.55 548.93 441.55 548.93C441.55 548.93 434.93 545.54 433.55 545.54C432.17 545.54 428.55 538.62 428.55 538.62L392.55 536.12L376.72 534.8L379.22 490.8C379.22 490.8 372.01 478.97 381.87 469.87C381.87 469.87 381.49 466.06 383.49 464.3C385.49 462.54 387.32 456.94 387.32 456.94L399.39 443.3L393.21 452.09C393.21 452.09 390.26 457.39 390.12 458.09C389.98 458.79 385.12 465.31 385.12 465.31C385.12 465.31 376.88 472.52 391.6 472.67C406.32 472.82 415.3 458.39 415.3 458.39L429.03 437.21Z"
    fill="#E6EBEF"
  />
  <path
    opacity="0.1"
    d="M417.25 495.21C417.25 495.21 422.37 498.96 427.85 499.11C433.33 499.26 417.25 495.21 417.25 495.21Z"
    fill="black"
  />
  <path
    opacity="0.1"
    d="M423.87 483.32C423.87 483.32 427.92 481.32 430.2 482.99C432.48 484.66 423.87 483.32 423.87 483.32Z"
    fill="black"
  />
  <path
    opacity="0.1"
    d="M421.96 490C421.96 490 422.22 492.36 428.22 492.65C434.22 492.94 421.96 490 421.96 490Z"
    fill="black"
  />
  <path
    d="M433.88 440.3L435.14 440.97C437.691 441.914 440.366 442.484 443.08 442.66C448.16 443.1 452.58 447.96 453.46 452.59C453.68 453.75 453.86 455.3 454.01 456.96C454.52 462.954 454.427 468.984 453.73 474.96C453.25 479.19 452.73 483.96 453.02 484.66C453.46 485.98 450.59 506.52 450.59 506.52C450.59 506.52 449.93 523.3 445.73 524.85C441.53 526.4 418.13 526.39 418.13 526.39L408.2 509.17L431.38 510.27C433.413 506.635 434.406 502.511 434.25 498.35C434.03 491.28 434.69 474.94 434.69 474.94C434.69 474.94 420.69 471.94 423.53 461.01C426.37 450.08 433.88 440.3 433.88 440.3Z"
    fill="#F899A5"
  />
  <path
    d="M389.72 571.46C389.72 571.46 380.37 574.55 376.72 572.93C373.07 571.31 365.13 565.13 365.13 565.13C365.13 565.13 360.03 560.13 355.18 554.54L354.56 553.82C350.36 548.93 346.56 543.82 346.56 541.29C346.584 540.24 346.452 539.192 346.17 538.18C345.747 536.717 345.07 535.339 344.17 534.11C343.667 533.404 343.091 532.754 342.45 532.17L327.14 512.44C327.14 512.44 331.56 507.73 331.56 506.44C331.56 505.15 336.86 497.91 343.63 501.74C346.48 503.34 353.29 509.31 360.23 515.68C369.78 524.44 379.55 533.97 379.55 533.97C379.55 533.97 380.24 534.71 381.25 535.86C383.84 538.86 388.52 544.51 388.89 547.37C389.43 551.29 389.72 571.46 389.72 571.46Z"
    fill="#BDD3E8"
  />
  <path
    opacity="0.05"
    d="M381.27 535.81C374.02 543.03 363.11 552.71 355.19 554.54L354.98 554.59L354.57 553.82L346.21 538.18L344.09 534.18L344.2 534.07L360.26 515.6C369.81 524.36 379.58 533.89 379.58 533.89C379.58 533.89 380.26 534.66 381.27 535.81Z"
    fill="black"
  />
  <path
    d="M439.88 549.34V552.69C439.88 552.69 444.52 569.07 436.13 573.69C431.89 576.04 422.86 576.6 414.96 576.58C409.692 576.595 404.586 574.754 400.539 571.381C396.492 568.007 393.763 563.316 392.83 558.13C392.518 556.565 392.487 554.956 392.74 553.38C392.74 553.38 388.99 526.55 388.1 526.38C388.1 526.38 367.01 550.53 354.1 553.31L343.2 532.93L360.61 512.93C360.61 512.93 373.53 492.4 377.28 490.52C381.03 488.64 384.79 483.38 384.79 483.38C384.79 483.38 399.92 470.76 409.96 492.07C420 513.38 426.52 530.59 428.96 536.98C428.96 536.98 432.5 544.22 434.7 544.2H434.77C436.127 544.213 437.423 544.76 438.38 545.722C439.336 546.684 439.875 547.984 439.88 549.34V549.34Z"
    fill="#BDD3E8"
  />
  <path
    opacity="0.1"
    d="M387.66 525.24C389.685 523.004 391.224 520.372 392.18 517.51C393.85 512.65 391.68 522.44 388.1 526.34L387.66 525.24Z"
    fill="black"
  />
  <path
    d="M368.01 403.73C368.16 405.13 369.21 406.38 370.29 407.55C372.586 410.035 375.051 412.357 377.67 414.5C378.79 415.43 380 416.4 380.37 417.61C380.565 418.509 380.502 419.445 380.19 420.31C379.256 423.695 377.941 426.962 376.27 430.05C375.585 431.024 375.205 432.18 375.18 433.37C375.45 435.99 379.18 437.46 381.9 439.19C385.47 441.5 387.53 444.99 387.4 448.47C387.18 453.9 382.03 458.59 380.82 463.95C384.161 463.915 387.465 463.236 390.55 461.95C393.41 460.6 395.55 458.25 395.43 455.75C395.347 455.361 395.4 454.955 395.58 454.6C395.955 454.214 396.447 453.961 396.98 453.88C399.65 453.23 402.91 453.44 404.87 451.95C406.83 450.46 406.38 447.84 405.54 445.75C403.26 440.03 399.96 434.53 397.97 428.75C397.169 426.83 396.873 424.737 397.11 422.67C397.47 420.67 398.7 418.76 399.75 416.86C402.048 412.733 403.534 408.205 404.13 403.52C404.45 400.88 404.44 398.13 403.05 395.69C401.5 392.94 398.21 390.76 394.32 389.91C386.81 388.26 382.81 391.91 376.94 394.34C372.57 396.2 367.57 399.53 368.01 403.73Z"
    fill="#4B3648"
  />
  <path
    opacity="0.1"
    d="M380.82 463.5C381.43 463.5 382.04 463.43 382.65 463.38C383.9 458.07 388.97 453.38 389.19 448.03C389.32 444.55 387.25 441.03 383.69 438.74C381.01 437.01 377.24 435.54 376.97 432.93C376.997 431.737 377.376 430.578 378.06 429.6C379.732 426.513 381.047 423.245 381.98 419.86C382.293 418.995 382.355 418.059 382.16 417.16C381.79 415.95 380.58 414.98 379.46 414.06C376.843 411.898 374.377 409.559 372.08 407.06C371 405.9 369.95 404.65 369.8 403.25C369.34 399.05 374.31 395.71 378.73 393.86C383.32 391.92 386.73 389.3 391.67 389.04C385.79 388.66 382.08 391.7 376.94 393.86C372.52 395.71 367.55 399.05 368.01 403.25C368.16 404.65 369.21 405.9 370.29 407.06C372.587 409.559 375.053 411.898 377.67 414.06C378.79 414.98 380 415.95 380.37 417.16C380.565 418.059 380.503 418.995 380.19 419.86C379.257 423.245 377.942 426.513 376.27 429.6C375.586 430.578 375.207 431.737 375.18 432.93C375.45 435.54 379.18 437.01 381.9 438.74C385.47 441.05 387.53 444.55 387.4 448.03C387.18 453.45 382.03 458.15 380.82 463.5Z"
    fill="black"
  />
  <path
    opacity="0.1"
    d="M397.67 438.87C410.66 438.87 421.19 428.34 421.19 415.35C421.19 402.36 410.66 391.83 397.67 391.83C384.681 391.83 374.15 402.36 374.15 415.35C374.15 428.34 384.681 438.87 397.67 438.87Z"
    fill="black"
  />
  <path
    d="M398.11 437.99C411.1 437.99 421.63 427.46 421.63 414.47C421.63 401.48 411.1 390.95 398.11 390.95C385.12 390.95 374.59 401.48 374.59 414.47C374.59 427.46 385.12 437.99 398.11 437.99Z"
    fill="#F899A5"
  />
  <path
    d="M383.63 403.44C381.79 402.86 379.86 402.22 378.63 400.59C377.4 398.96 377.18 396.02 378.75 394.68C379.626 394.131 380.58 393.716 381.58 393.45C385.53 391.7 386.2 385.57 388.88 381.74C389.753 380.421 390.967 379.361 392.393 378.675C393.819 377.988 395.404 377.7 396.98 377.84C398.64 378.213 400.273 378.694 401.87 379.28C405.78 380.34 409.96 379.5 413.93 380.22C421.73 381.65 427.7 388.99 430.93 397.22C432.42 401.01 433.46 405.02 434.64 408.97C436.426 414.892 438.563 420.703 441.04 426.37C441.547 427.72 442.288 428.969 443.23 430.06C445.73 432.61 450.15 432.42 451.69 435.85C452.54 437.75 452.14 440.08 451.86 442.23C450.906 449.489 451.534 456.867 453.7 463.86C455.39 469.22 458.62 474.64 463.55 475.41C461.66 478.05 457.96 477.8 455.62 475.91C453.28 474.02 451.88 470.98 450.31 468.21C448.985 465.873 447.47 463.649 445.78 461.56C444.895 460.311 443.718 459.298 442.35 458.61C438.99 457.25 435.42 460.03 432.42 462.45C429.95 464.45 427.28 466.32 424.33 466.7C422.812 466.931 421.261 466.617 419.952 465.813C418.643 465.01 417.661 463.769 417.18 462.31C416.05 458.48 418.33 453.31 415.84 450.53C414.94 449.53 413.62 449.16 412.54 448.39C409.36 446.13 408.97 440.96 409.4 436.58C409.83 432.2 410.73 427.5 409.03 423.65C408.057 421.724 406.695 420.022 405.03 418.65C397.906 412.068 389.742 406.709 380.87 402.79"
    fill="#4B3648"
  />
  <g opacity="0.1">
    <path
      opacity="0.1"
      d="M426.86 466C425.34 466.233 423.786 465.92 422.475 465.117C421.165 464.313 420.181 463.07 419.7 461.61C418.57 457.79 420.86 452.61 418.36 449.83C417.46 448.83 416.14 448.46 415.07 447.7C411.88 445.44 411.49 440.27 411.93 435.89C412.37 431.51 413.26 426.8 411.55 422.95C410.574 421.026 409.213 419.324 407.55 417.95C400.432 411.336 392.268 405.946 383.39 402L386.17 402.66C384.33 402.08 382.39 401.43 381.17 399.81C379.95 398.19 379.72 395.24 381.3 393.89C382.173 393.344 383.124 392.933 384.12 392.67C388.12 390.92 388.74 384.79 391.42 380.96C392.29 379.708 393.445 378.68 394.79 377.96C393.573 378.166 392.41 378.615 391.371 379.28C390.332 379.944 389.437 380.812 388.74 381.83C386.06 385.66 385.4 391.83 381.44 393.54C380.44 393.806 379.486 394.221 378.61 394.77C377.04 396.11 377.23 399.06 378.49 400.68C379.75 402.3 381.69 402.95 383.49 403.53L380.72 402.88C389.593 406.818 397.753 412.198 404.87 418.8C406.535 420.171 407.897 421.874 408.87 423.8C410.58 427.65 409.68 432.35 409.24 436.73C408.8 441.11 409.24 446.28 412.38 448.54C413.46 449.31 414.78 449.66 415.68 450.68C418.17 453.47 415.89 458.63 417.02 462.46C417.501 463.918 418.483 465.16 419.792 465.963C421.1 466.767 422.651 467.081 424.17 466.85C425.29 466.694 426.378 466.357 427.39 465.85C427.216 465.91 427.039 465.96 426.86 466V466Z"
      fill="black"
    />
    <path
      opacity="0.1"
      d="M458.139 475.16C455.799 473.27 454.399 470.23 452.839 467.47C451.517 465.129 449.998 462.904 448.299 460.82C447.42 459.566 446.241 458.552 444.869 457.87C444.004 457.573 443.084 457.47 442.174 457.571C441.265 457.671 440.389 457.971 439.609 458.45C440.482 458.328 441.371 458.435 442.189 458.76C443.559 459.445 444.737 460.458 445.619 461.71C447.309 463.799 448.824 466.023 450.149 468.36C451.719 471.13 453.149 474.17 455.459 476.06C457.459 477.64 460.339 478.06 462.349 476.61C460.819 476.638 459.328 476.125 458.139 475.16V475.16Z"
      fill="black"
    />
  </g>
  <path
    d="M802 561.55L782.84 561.83L743.26 489.9L736.65 477.89L741.72 447.47L745.62 454.83L802 561.55Z"
    fill="#DCE0ED"
  />
  <path
    d="M628.76 473.1L620.88 484.93L597.3 453.05L586.51 438.45L592.99 429.72L597.95 435.74L628.76 473.1Z"
    fill="#DCE0ED"
  />
  <path
    opacity="0.1"
    d="M597.95 435.73C597.95 436.34 598.02 436.97 598.06 437.6L597.3 453.05L586.51 438.45L592.99 429.72L597.95 435.73Z"
    fill="black"
  />
  <path
    opacity="0.1"
    d="M745.62 454.83L743.26 489.9L736.65 477.89L741.72 447.47L745.62 454.83Z"
    fill="black"
  />
  <path
    d="M575.57 458.17C575.57 458.17 566.11 387.52 600.57 376.95C601.012 376.821 601.464 376.728 601.92 376.67C609.85 375.72 683.72 367.2 722.07 377.32C722.07 377.32 748.27 381.27 747.99 395.32L736.37 567.46H717.5L723.69 453.66C723.69 453.66 732.69 404.08 717.78 400.66C702.87 397.24 634.96 391.66 611.02 398.41C611.02 398.41 593.55 394.46 596.37 437.56L595.24 460.66L575.57 458.17Z"
    fill="#DCE0ED"
  />
  <path
    d="M632.99 479.15C633.149 477.285 632.823 475.41 632.045 473.707C631.268 472.004 630.064 470.531 628.55 469.43C623.27 465.43 607 456.76 607 456.76L601.72 457.18L585.88 496.48L586.93 579.93L615.45 615.21L632.99 479.15Z"
    fill="#274B9F"
  />
  <path
    opacity="0.1"
    d="M632.99 479.15C633.149 477.285 632.823 475.41 632.045 473.707C631.268 472.004 630.064 470.531 628.55 469.43C623.27 465.43 607 456.76 607 456.76L601.72 457.18L585.88 496.48L586.93 579.93L615.45 615.21L632.99 479.15Z"
    fill="black"
  />
  <path
    d="M519.19 566.62L519.75 480.98C519.75 480.98 517.22 447.74 537.08 447.18C537.08 447.18 583.91 447.52 604.26 454.13C604.902 454.336 605.49 454.683 605.981 455.145C606.473 455.607 606.855 456.173 607.1 456.801C607.345 457.429 607.447 458.104 607.399 458.777C607.35 459.45 607.153 460.103 606.82 460.69C602.82 467.74 595.94 486.41 592.64 534.29V585.63L519.19 566.62Z"
    fill="#274B9F"
  />
  <path
    d="M617.99 621.34L532.77 619.35H532.69L490.81 618.38L495.66 562.39L518.9 563.24L592.85 579.72L615.45 615.21L617.99 621.34Z"
    fill="#274B9F"
  />
  <path
    opacity="0.1"
    d="M617.99 621.34L532.77 619.35H532.69L490.81 618.38L495.66 562.39L518.9 563.24L592.85 579.72L615.45 615.21L617.99 621.34Z"
    fill="black"
  />
  <path
    d="M617.99 621.34L532.77 619.35L531.37 581.83L592.85 579.72L615.45 615.21L617.99 621.34Z"
    fill="#274B9F"
  />
  <path
    opacity="0.1"
    d="M532.69 619.35L490.81 618.35L495.67 562.35C495.67 562.35 508.77 583.27 531.37 581.79L532.69 619.35Z"
    fill="white"
  />
  <path
    d="M833.27 664.64C831.58 680.7 820.17 678.16 820.17 678.16L818.04 677.97L796.93 676.05L797.78 651.12C797.78 651.12 809.27 650.34 819.19 652.41C827.11 654.05 834.02 657.51 833.27 664.64Z"
    fill="#DCE0ED"
  />
  <path
    d="M540.03 421.27C540.03 421.27 501.16 439 498.34 444.08C495.52 449.16 476.34 471.08 476.34 471.08L484.65 485.08L523.1 454.51L540.03 421.27Z"
    fill="#4C4981"
  />
  <path
    d="M510.41 511.919L492.41 509.229L479.17 524.849C479.17 524.849 460.72 534 458.57 538C456.42 542 449.71 553.72 446.75 553.81C443.79 553.9 441.02 558.22 441 559.93C440.98 561.64 429.73 581.279 426.94 582.409C424.15 583.539 419.31 589.92 419.43 591.18C419.55 592.44 408.93 605 408.93 605C408.93 605 390.93 633.17 388.25 634.07C385.57 634.97 375.2 653.16 372.57 655.32C369.94 657.48 362.57 659.419 363.47 661.169C364.37 662.919 382.47 687.659 381.37 694.669C381.37 694.669 394.84 684.009 395.37 680.729C395.9 677.449 412.57 660.15 412.57 660.15L499.88 569.469L516.71 512.32L510.41 511.919Z"
    fill="#CEDDF9"
  />
  <path
    opacity="0.1"
    d="M558.75 541.05C558.75 541.05 562.34 582.27 550.44 588.51C538.54 594.75 530.44 594.03 528.15 596.78C525.86 599.53 511.91 601.96 510.43 604.46C508.95 606.96 469.86 628.81 469.86 628.81C469.86 628.81 443.12 644.57 438.93 648C434.74 651.43 411.93 661.46 408.04 666.18C404.15 670.9 379.73 686.37 379.73 686.37C379.73 686.37 372.58 664.37 364.36 662.44C364.36 662.44 384.12 658.55 385.29 655.44C386.46 652.33 392.36 648.99 392.36 648.99C392.36 648.99 420.49 632.67 421.36 628.99C422.23 625.31 429.16 620.07 429.16 620.07C429.16 620.07 440.33 604.8 444.44 603.33C448.55 601.86 472.92 576.84 472.92 576.84C472.92 576.84 489.49 568.08 491.33 565.2C493.17 562.32 524.57 546 524.57 546L488.78 501.53L500.1 498.05L533.63 507.05L539.63 517.92L558.75 541.05Z"
    fill="black"
  />
  <path
    d="M560.77 541.65C560.77 541.65 564.37 582.87 552.47 589.11C540.57 595.35 532.47 594.64 530.17 597.38C527.87 600.12 513.93 602.57 512.45 605.06C510.97 607.55 471.89 629.42 471.89 629.42C471.89 629.42 445.15 645.17 440.95 648.57C436.75 651.97 413.95 662.04 410.06 666.76C406.17 671.48 381.75 686.94 381.75 686.94C381.75 686.94 374.57 665 366.38 663C366.38 663 386.15 659.12 387.31 656C388.47 652.88 394.38 649.54 394.38 649.54C394.38 649.54 422.51 633.22 423.38 629.54C424.25 625.86 431.19 620.61 431.19 620.61C431.19 620.61 442.36 605.34 446.47 603.88C450.58 602.42 474.94 577.38 474.94 577.38C474.94 577.38 491.51 568.62 493.35 565.74C495.19 562.86 479.15 524.74 479.15 524.74L490.83 502.04L502.15 498.57L535.68 507.57L541.68 518.44L560.77 541.65Z"
    fill="#CEDDF9"
  />
  <path
    d="M600.57 433.77L573.22 452.77C573.22 452.77 540.17 440.51 553.22 435.59C561.78 432.36 564.86 415.69 565.96 404.59C566.54 398.81 566.57 394.59 566.57 394.59C566.57 394.59 603.86 394.53 597 406.43C595.18 409.708 594.386 413.456 594.72 417.19C595.24 426 600.57 433.77 600.57 433.77Z"
    fill="#FEC2BE"
  />
  <path
    opacity="0.1"
    d="M594.66 417.2C589.152 418.487 583.375 417.959 578.192 415.694C573.008 413.428 568.697 409.547 565.9 404.63C566.48 398.85 566.51 394.63 566.51 394.63C566.51 394.63 603.8 394.57 596.94 406.47C595.127 409.739 594.333 413.476 594.66 417.2V417.2Z"
    fill="black"
  />
  <path
    d="M614 398.5C612.056 405.081 607.614 410.64 601.624 413.99C595.635 417.339 588.573 418.213 581.948 416.424C575.322 414.635 569.66 410.326 566.17 404.417C562.68 398.508 561.64 391.469 563.271 384.803C564.903 378.138 569.078 372.375 574.902 368.746C580.727 365.118 587.74 363.912 594.442 365.386C601.145 366.86 607.004 370.897 610.769 376.635C614.534 382.372 615.906 389.355 614.59 396.09C614.43 396.89 614.24 397.7 614 398.5Z"
    fill="#FEC2BE"
  />
  <path
    opacity="0.1"
    d="M561.48 423.11C561.48 423.11 556.89 423.11 556.6 429.64C556.31 436.17 551.67 435.69 551.67 435.69L530.11 458.08C530.11 458.08 520.43 481.26 520.51 482.2C520.59 483.14 518.33 487.06 518.84 489.04C519.35 491.02 518.64 497.04 516.84 496.51C515.04 495.98 512.04 497.83 512.08 500.78C512.12 503.73 496.93 512.78 497.55 514.98C498.17 517.18 540.8 539.83 540.8 539.83L558.54 553.58L575.1 522.73L588.9 480.22L596.57 455.54L602.92 448.44L600 431.78C600 431.78 597.38 424.57 595.24 425.58C593.1 426.59 585.24 435.08 577.86 435.82C570.48 436.56 566.17 437.46 564.45 435.82C562.73 434.18 552.28 433 561.48 423.11Z"
    fill="black"
  />
  <path
    opacity="0.1"
    d="M562.96 420.94C562.96 420.94 557.5 421.1 557.2 427.62C556.9 434.14 552.27 433.67 552.27 433.67L530.71 456.06C530.71 456.06 521.03 479.23 521.12 480.18C521.21 481.13 518.93 485.03 519.44 487.02C519.95 489.01 519.25 495.02 517.44 494.49C515.63 493.96 512.63 495.81 512.67 498.76C512.71 501.71 497.52 510.76 498.15 512.96C498.78 515.16 541.39 537.81 541.39 537.81L559.14 551.56L575.7 520.7L589.5 478.19L597.24 453.52L603.58 446.42L600.66 429.76C600.66 429.76 598.04 422.55 595.9 423.56C593.76 424.57 585.9 433.06 578.53 433.79C571.16 434.52 566.84 435.44 565.12 433.79C563.4 432.14 564.43 430.28 562.96 420.94Z"
    fill="black"
  />
  <path
    d="M562.76 421.61C562.76 421.61 557.29 421.77 557 428.29C556.71 434.81 552.07 434.35 552.07 434.35L530.51 456.73C530.51 456.73 520.83 479.91 520.92 480.85C521.01 481.79 518.73 485.71 519.24 487.69C519.75 489.67 519.05 495.69 517.24 495.16C515.43 494.63 512.44 496.48 512.48 499.43C512.52 502.38 497.33 511.43 497.96 513.63C498.59 515.83 541.2 538.49 541.2 538.49L558.94 552.23L575.5 521.38L589.31 478.87L597.04 454.19L603.39 447.09L600.47 430.43C600.47 430.43 597.85 423.22 595.71 424.24C593.57 425.26 585.71 433.73 578.34 434.47C570.97 435.21 566.64 436.12 564.92 434.47C563.2 432.82 564.23 431 562.76 421.61Z"
    fill="white"
  />
  <path
    opacity="0.1"
    d="M562.95 421.58C560.392 421.327 557.864 420.832 555.4 420.1C552.76 419.1 542.99 419.88 542.99 419.88C542.99 419.88 531.77 420.57 529.7 423.81C527.63 427.05 518.7 444.58 515.64 445.68C512.58 446.78 494.49 475.9 490.79 478.46C487.09 481.02 471.15 512.25 471.15 512.25C471.15 512.25 482.93 506.69 488.32 514.83C488.46 515.04 488.6 515.25 488.73 515.48C493.91 524.56 498.73 517.56 498.73 517.56C498.73 517.56 515.88 501.94 517.25 499.22C518.62 496.5 528.76 476.04 531.37 470.39C533.98 464.74 556.08 436.83 556.82 435.59C557.56 434.35 562.95 421.58 562.95 421.58Z"
    fill="black"
  />
  <path
    d="M562.95 421.58C559.945 421.167 556.974 420.539 554.06 419.7C551.41 418.7 541.64 419.48 541.64 419.48C541.64 419.48 530.42 420.17 528.35 423.4C526.28 426.63 517.35 444.18 514.29 445.27C511.23 446.36 493.14 475.49 489.44 478.06C485.74 480.63 469.8 511.85 469.8 511.85C469.8 511.85 481.58 506.29 486.98 514.43C487.11 514.63 487.25 514.85 487.38 515.08C492.56 524.15 497.38 517.16 497.38 517.16C497.38 517.16 514.54 501.53 515.9 498.82C517.26 496.11 527.41 475.64 530.02 469.99C532.63 464.34 554.73 436.43 555.47 435.18C556.21 433.93 562.95 421.58 562.95 421.58Z"
    fill="#4C4981"
  />
  <path
    opacity="0.1"
    d="M595.78 422.62C595.78 422.62 609.96 432.91 611.78 436.03C613.6 439.15 632.17 448.91 632.17 448.91C632.17 448.91 639.17 461.83 638.12 466.48C637.07 471.13 635.96 475.56 636.87 478.04C637.78 480.52 638.34 480.5 636.99 483.77C635.64 487.04 636.11 487.36 637.99 490.3C639.87 493.24 609.99 502.3 609.99 502.3C609.99 502.3 605.99 502.92 605.56 504.83C605.13 506.74 582.22 557.15 578.91 565.16C575.6 573.17 565.14 605.16 556.36 605.61C547.58 606.06 554.36 605.73 554.36 605.73C554.36 605.73 555.71 579.73 550.31 570.73C544.91 561.73 555.57 527 555.57 527C555.57 527 591.06 424.88 595.78 422.62Z"
    fill="black"
  />
  <path
    d="M595.78 422.62C595.78 422.62 611.31 433.32 613.13 436.43C614.95 439.54 633.57 449.31 633.57 449.31C633.57 449.31 640.57 462.23 639.52 466.88C638.47 471.53 637.36 475.97 638.27 478.44C639.18 480.91 639.74 480.9 638.39 484.17C637.04 487.44 637.5 487.76 639.39 490.71C641.28 493.66 611.39 502.71 611.39 502.71C611.39 502.71 607.39 503.34 606.96 505.24C606.53 507.14 583.57 557.58 580.24 565.58C576.91 573.58 566.47 605.53 557.69 606C548.91 606.47 555.69 606.12 555.69 606.12C555.69 606.12 557.04 580.12 551.64 571.12C546.24 562.12 556.99 527.37 556.99 527.37C556.99 527.37 591.06 424.88 595.78 422.62Z"
    fill="#4C4981"
  />
  <path
    d="M613.8 525.55C613.8 525.55 582.34 532.55 581.36 534.55C580.38 536.55 554.36 552.06 568.01 559.55C581.66 567.04 603.11 549 603.11 549L620.11 538.15L613.8 525.55Z"
    fill="#FEC2BE"
  />
  <path
    d="M627.86 483.61C628.37 483.76 639.33 490.71 639.33 490.71C639.33 490.71 644.49 507.85 645.62 512.05C646.75 516.25 649.62 523.72 649.43 525.12C649.24 526.52 652.55 534.31 647.27 537.87C641.99 541.43 636.45 540.87 633.91 543.25C631.37 545.63 613.86 553.25 611.65 553.85C609.44 554.45 622.57 527.74 606.36 523.63C606.36 523.63 617.97 524.72 618.57 522.69C619.17 520.66 619.84 515.36 617.67 513.43C615.5 511.5 606.13 502.27 606.13 502.27L627.86 483.61Z"
    fill="#4C4981"
  />
  <path
    opacity="0.1"
    d="M614.57 396.09C613.201 395.361 612.104 394.211 611.44 392.81C610.37 390.73 609.3 388.19 607.02 387.66C605.74 387.35 604.19 387.73 603.24 386.82C602.5 386.1 602.52 384.93 602.51 383.9C602.543 381.55 601.878 379.243 600.6 377.27C599.952 376.297 599.068 375.504 598.031 374.964C596.995 374.424 595.838 374.154 594.67 374.18C591.42 374.4 588.59 377.36 585.39 376.77C583.98 376.51 582.63 375.56 581.25 375.93C580.712 376.099 580.214 376.379 579.79 376.75C576.802 379.1 574.499 382.208 573.12 385.75C571.8 389.11 571.36 392.75 569.78 396.04C569.15 397.32 567.94 398.69 566.58 398.29C564.46 397.66 565.58 394.99 564.4 393.82C563.918 393.443 563.339 393.211 562.73 393.15C562.426 389.416 562.927 385.661 564.197 382.137C565.468 378.613 567.479 375.402 570.095 372.721C572.711 370.04 575.872 367.951 579.364 366.595C582.856 365.238 586.598 364.646 590.338 364.858C594.078 365.071 597.729 366.082 601.045 367.824C604.361 369.567 607.265 372 609.562 374.96C611.858 377.919 613.493 381.337 614.357 384.982C615.221 388.627 615.294 392.415 614.57 396.09V396.09Z"
    fill="black"
  />
  <path
    d="M566.8 397.61C568.16 398.01 569.37 396.61 570 395.37C571.58 392.12 572 388.44 573.34 385.08C574.721 381.536 577.028 378.428 580.02 376.08C580.441 375.706 580.935 375.423 581.47 375.25C582.85 374.89 584.21 375.83 585.61 376.09C588.81 376.69 591.61 373.72 594.89 373.5C596.06 373.475 597.217 373.746 598.254 374.288C599.29 374.83 600.173 375.626 600.82 376.6C602.105 378.566 602.77 380.872 602.73 383.22C602.73 384.22 602.73 385.42 603.47 386.14C604.41 387.06 605.96 386.68 607.25 386.98C609.53 387.52 610.59 390.05 611.67 392.13C612.75 394.21 614.92 396.39 617.09 395.49C617.74 395.22 618.27 394.69 618.94 394.49C620.17 394.08 621.64 394.75 622.74 394.07C624.14 393.21 623.74 391.07 622.83 389.64C621.92 388.21 620.83 386.64 621.4 385.11C621.768 384.368 622.282 383.708 622.91 383.17C624.517 381.314 625.352 378.913 625.244 376.46C625.136 374.007 624.094 371.689 622.33 369.98C621.44 369.18 620.4 368.56 619.53 367.74C617.78 366.1 616.85 363.8 615.53 361.74C613.924 359.254 611.738 357.195 609.16 355.74C608.035 355.047 606.773 354.606 605.46 354.45C603.65 354.31 601.87 354.99 600.06 355.17C594 355.78 588.79 350.99 582.86 349.63C582.188 349.41 581.475 349.339 580.773 349.422C580.07 349.505 579.393 349.74 578.79 350.11C577.61 351.03 577.36 352.68 576.79 354.11C575.6 357.17 572.72 359.31 569.66 360.49C566.13 361.84 561.66 362.57 560.19 366.04C558.91 369.04 560.57 372.48 559.9 375.64C559.38 378.11 557.53 380.04 556.1 382.12C554.67 384.2 553.62 387 554.86 389.2C555.627 390.382 556.768 391.273 558.1 391.73C559.76 392.41 563.46 392.05 564.58 393.15C565.7 394.25 564.68 397 566.8 397.61Z"
    fill="#9A5E7F"
  />
  <path
    opacity="0.1"
    d="M626.04 513.66C626.64 513.72 637.57 515.66 640.14 519.34C642.71 523.02 626.04 513.66 626.04 513.66Z"
    fill="black"
  />
  <path
    opacity="0.1"
    d="M620.57 502C620.57 502 632.49 504.7 633.87 505.85C635.25 507 620.57 502 620.57 502Z"
    fill="black"
  />
  <path
    opacity="0.1"
    d="M624.49 472.57C624.49 472.57 633.26 476.41 634.26 478.79C635.26 481.17 624.49 472.57 624.49 472.57Z"
    fill="black"
  />
  <path
    opacity="0.1"
    d="M512.41 572C513.32 572.64 534.86 588.62 533.1 589.2C531.34 589.78 512.41 572 512.41 572Z"
    fill="black"
  />
  <path
    opacity="0.1"
    d="M512.25 582C512.25 582 524.87 588.1 522.76 590.65C520.65 593.2 512.25 582 512.25 582Z"
    fill="black"
  />
  <g opacity="0.1">
    <path
      opacity="0.1"
      d="M560.36 374.29C560.93 371.58 559.79 368.65 560.26 365.99C560.26 365.99 560.26 365.99 560.26 366.04C559 368.96 560.59 372.37 560 375.49C560.15 375.1 560.27 374.699 560.36 374.29V374.29Z"
      fill="black"
    />
    <path
      opacity="0.1"
      d="M621.8 383.74C621.709 384.004 621.662 384.281 621.66 384.56C622.036 384.056 622.454 383.584 622.91 383.15C623.975 381.986 624.704 380.556 625.02 379.01C624.637 380.043 624.056 380.99 623.31 381.8C622.681 382.338 622.168 382.998 621.8 383.74V383.74Z"
      fill="black"
    />
    <path
      opacity="0.1"
      d="M623.149 392.7C622.049 393.38 620.569 392.7 619.339 393.12C618.669 393.35 618.139 393.87 617.489 394.12C615.319 395.02 613.139 392.85 612.069 390.77C610.999 388.69 609.929 386.15 607.649 385.61C606.369 385.31 604.809 385.69 603.869 384.77C603.129 384.06 603.149 382.89 603.129 381.86C603.167 379.511 602.506 377.203 601.229 375.23C600.577 374.258 599.692 373.465 598.654 372.923C597.617 372.382 596.46 372.109 595.289 372.13C592.049 372.35 589.219 375.32 586.019 374.73C584.609 374.46 583.249 373.52 581.869 373.88C581.335 374.057 580.842 374.339 580.419 374.71C577.427 377.057 575.12 380.166 573.739 383.71C573.356 384.669 573.023 385.647 572.739 386.64C572.909 386.11 573.089 385.58 573.299 385.06C574.68 381.516 576.987 378.407 579.979 376.06C580.4 375.686 580.894 375.403 581.429 375.23C582.809 374.87 584.169 375.81 585.569 376.07C588.769 376.67 591.569 373.7 594.849 373.48C596.019 373.455 597.176 373.726 598.213 374.268C599.249 374.81 600.132 375.605 600.779 376.58C602.064 378.546 602.729 380.852 602.689 383.2C602.689 384.2 602.689 385.4 603.429 386.12C604.369 387.04 605.919 386.66 607.209 386.96C609.489 387.5 610.549 390.03 611.629 392.11C612.709 394.19 614.879 396.37 617.049 395.47C617.699 395.2 618.229 394.67 618.899 394.47C620.129 394.06 621.599 394.73 622.699 394.05C622.995 393.856 623.234 393.588 623.392 393.271C623.55 392.955 623.622 392.603 623.599 392.25C623.478 392.426 623.325 392.578 623.149 392.7V392.7Z"
      fill="black"
    />
    <path
      opacity="0.1"
      d="M570.4 394C569.78 395.28 568.56 396.64 567.2 396.24C565.08 395.62 566.2 392.95 565.03 391.78C563.86 390.61 560.21 391.04 558.55 390.36C557.219 389.9 556.079 389.01 555.31 387.83C554.758 386.79 554.608 385.584 554.89 384.44C554.534 385.18 554.35 385.99 554.35 386.81C554.35 387.631 554.534 388.441 554.89 389.18C555.656 390.362 556.797 391.253 558.13 391.71C559.79 392.39 563.49 392.03 564.61 393.13C565.73 394.23 564.66 396.97 566.78 397.59C568.14 397.99 569.35 396.59 569.98 395.35C570.622 393.959 571.141 392.513 571.53 391.03C571.227 392.047 570.849 393.04 570.4 394Z"
      fill="black"
    />
  </g>
  <path
    opacity="0.1"
    d="M525.78 444.3C525.78 444.3 517.17 457.15 518.2 459.84C519.23 462.53 525.78 444.3 525.78 444.3Z"
    fill="black"
  />
  <path
    opacity="0.1"
    d="M527.04 486.17C527.04 486.17 531.61 488.08 533.28 489.87C534.95 491.66 527.04 486.17 527.04 486.17Z"
    fill="black"
  />
  <path
    opacity="0.1"
    d="M537.08 499.27C537.08 499.27 546.84 501.629 547.67 503.159C548.5 504.689 537.08 499.27 537.08 499.27Z"
    fill="black"
  />
  <path
    opacity="0.1"
    d="M538.78 512.63C538.78 512.63 547.61 513.79 548.61 517.21C549.61 520.63 538.78 512.63 538.78 512.63Z"
    fill="black"
  />
  <path
    opacity="0.1"
    d="M833.27 664.64C831.58 680.7 820.17 678.16 820.17 678.16L818.04 677.97C815.753 674.371 814.583 670.174 814.68 665.91C814.68 660.32 816.46 655.38 819.19 652.41C827.11 654.05 834.02 657.51 833.27 664.64Z"
    fill="black"
  />
  <path
    d="M506.79 454.22C487.5 454.22 471.87 475.35 471.87 501.41C471.87 527.47 487.5 548.59 506.79 548.59C526.08 548.59 541.72 527.46 541.72 501.41C541.72 475.36 526.09 454.22 506.79 454.22ZM501.86 538.73C487.16 538.73 475.25 523.41 475.25 504.5C475.25 485.59 487.16 470.28 501.86 470.28C516.56 470.28 528.48 485.6 528.48 504.5C528.48 523.4 516.57 538.73 501.86 538.73V538.73Z"
    fill="#636780"
  />
  <path
    d="M508.48 515.92L524.82 531.97L530.73 517.6L507.07 503.8L508.48 515.92Z"
    fill="#636780"
  />
  <path
    d="M532.57 357L546.79 358.73L552.07 365L544.07 401L527.07 459L515.91 498.82L508.07 523L503.07 555L498.07 577L483.07 592L452.57 556L447.57 544L435.57 519.5L466.57 505L500.57 502L516.57 461L529.57 413.5L532.57 357Z"
    fill="#274B9F"
  />
  <path
    d="M244.82 528.59L226.23 684.65L460.31 674.79L433.27 598.17L388.2 568.87L491.3 570.56L491.86 527.75L450.17 518.73L366.23 511.97L303.13 509.16L242.85 528.87"
    fill="#274B9F"
  />
  <path
    opacity="0.1"
    d="M244.82 528.59L226.23 684.65L460.31 674.79L433.27 598.17L388.2 568.87L491.3 570.56L491.86 527.75L450.17 518.73L366.23 511.97L303.13 509.16L242.85 528.87"
    fill="black"
  />
  <path
    d="M564.63 684.11C564.63 722.89 551.74 758.19 515.99 754.33C470.9 753.33 467.36 722.89 467.36 684.11C467.36 645.33 489.13 616.47 515.99 616.47C542.85 616.47 564.63 645.33 564.63 684.11Z"
    fill="#636780"
  />
  <path
    opacity="0.1"
    d="M564.91 684.18C564.91 654.18 551.86 630.08 533.5 620.74C509.92 625.22 491.8 652.34 491.8 687.74C491.8 719.52 494.18 745.74 519.86 754.67C552.89 755.84 564.91 721.63 564.91 684.18Z"
    fill="black"
  />
  <path
    d="M610.57 623.25L596.82 639L621.57 634.75L640.07 617.75L656.57 584.75L679.82 570.5L736.82 578.25L789.57 580.25L809.04 562.96L787.32 560L765.32 559.5L710.07 558.25L644.32 556.5L630.82 592.5L620.57 617.25L610.57 623.25Z"
    fill="#274B9F"
  />
  <path
    d="M799.75 687.46C798.62 689.15 761.75 694.79 761.75 694.79L659.75 713.38L484.57 715.91L464.01 698.44L453.21 700.36L452.77 700.44L308.49 726.05L306.14 725.72L266.82 720.11L61.4502 690.84L63.7502 661.03L65.1102 643.43L67.9202 606.9L69.9202 597.32L88.2102 595.64L96.7502 594.86L230.04 582.63L247.47 581.03L257.24 580.14L352.45 567.14L491.32 570.52L491.88 527.7L546.81 358.7C558.92 360.7 558.64 368.84 558.64 368.84L511.87 528L511.3 625.75C608.55 635.57 611.69 614.38 627.07 621.52L645.67 562.09L809.04 562.94C815.57 570.84 799.75 687.46 799.75 687.46Z"
    fill="#274B9F"
  />
  <path
    d="M394.4 598.729L446.23 710L463.69 715.63L467.92 697.599L448.48 635.909L428.48 600.14L394.4 598.729Z"
    fill="#274B9F"
  />
  <path
    opacity="0.15"
    d="M394.4 598.729L446.23 710L463.69 715.63L467.92 697.599L448.48 635.909L428.48 600.14L394.4 598.729Z"
    fill="black"
  />
  <path
    d="M360.66 827.74C412.503 827.74 454.53 780.068 454.53 721.26C454.53 662.453 412.503 614.78 360.66 614.78C308.817 614.78 266.79 662.453 266.79 721.26C266.79 780.068 308.817 827.74 360.66 827.74Z"
    fill="#636780"
  />
  <path
    opacity="0.1"
    d="M394.15 621.43C345.03 624.85 306.15 671.11 306.15 727.69C306.15 773.3 331.43 812.21 366.96 827.37C416.08 823.95 454.96 777.69 454.96 721.11C454.96 675.5 429.68 636.59 394.15 621.43Z"
    fill="black"
  />
  <path
    d="M109.05 535.07L104.4 557L90.1799 624.11L29.0499 618.19C29.0499 618.19 25.3899 606.93 34.9699 602.7C34.9699 602.7 38.1099 564.57 49.4099 552.56C50.6175 551.19 52.1369 550.13 53.8399 549.47L109.05 535.07Z"
    fill="#274B9F"
  />
  <path
    opacity="0.1"
    d="M104.4 557L90.1799 624.11L29.0499 618.19C29.0499 618.19 25.3899 606.93 34.9699 602.7C34.9699 602.7 38.1099 564.57 49.4099 552.56L104.4 557Z"
    fill="white"
  />
  <path
    d="M246.8 541C254.68 554.22 235.57 676.19 235.57 676.19L85.3896 651.4L90.7396 544.64C93.8396 525.49 105.11 523.24 105.11 523.24C158.11 496.48 279.75 490.84 279.75 490.84C390.75 495.06 491.86 527.74 491.86 527.74C365.67 508.31 246.8 541 246.8 541Z"
    fill="#274B9F"
  />
  <path
    opacity="0.1"
    d="M235.57 676.19L85.3896 651.4L90.7396 544.64C93.8396 525.49 105.11 523.24 105.11 523.24C105.11 523.24 214.68 512.81 246.8 541C254.68 554.22 235.57 676.19 235.57 676.19Z"
    fill="black"
  />
  <path
    d="M219.66 669.15L94.1201 648L98.5701 556.91C101.16 540.57 110.57 538.65 110.57 538.65C110.57 538.65 202.19 529.75 229.04 553.79C235.67 565.08 219.66 669.15 219.66 669.15Z"
    fill="#274B9F"
  />
  <path
    opacity="0.1"
    d="M209.33 625.49C218.819 625.49 226.51 611.49 226.51 594.22C226.51 576.95 218.819 562.95 209.33 562.95C199.842 562.95 192.15 576.95 192.15 594.22C192.15 611.49 199.842 625.49 209.33 625.49Z"
    fill="black"
  />
  <path
    d="M209.33 624.65C218.819 624.65 226.51 610.65 226.51 593.38C226.51 576.11 218.819 562.11 209.33 562.11C199.842 562.11 192.15 576.11 192.15 593.38C192.15 610.65 199.842 624.65 209.33 624.65Z"
    fill="#DCE0ED"
  />
  <path
    d="M211.57 570.28C211.57 570.28 204.57 571.4 208.19 580.7C211.81 590 212.41 594.78 212.41 594.78C212.41 594.78 219.41 598.45 219.17 586.33C218.93 574.21 211.57 570.28 211.57 570.28Z"
    fill="#F0F0F4"
  />
  <path
    opacity="0.1"
    d="M117.22 611.05C126.09 611.05 133.28 597.968 133.28 581.83C133.28 565.693 126.09 552.61 117.22 552.61C108.35 552.61 101.16 565.693 101.16 581.83C101.16 597.968 108.35 611.05 117.22 611.05Z"
    fill="black"
  />
  <path
    d="M117.22 610.2C126.09 610.2 133.28 597.117 133.28 580.98C133.28 564.842 126.09 551.76 117.22 551.76C108.35 551.76 101.16 564.842 101.16 580.98C101.16 597.117 108.35 610.2 117.22 610.2Z"
    fill="#DCE0ED"
  />
  <path
    d="M119.47 557.88C119.47 557.88 112.47 559.01 116.09 568.31C119.71 577.61 120.32 582.39 120.32 582.39C120.32 582.39 127.32 586.05 127.08 573.94C126.84 561.83 119.47 557.88 119.47 557.88Z"
    fill="#F0F0F4"
  />
  <path
    opacity="0.1"
    d="M189.57 567.739C188.45 579.289 182.81 664.919 182.81 664.919L173.25 663.32L167.94 662.45L160.86 661.26L160 661.119L132.11 656.469L137.62 565.64C137.805 562.722 139.108 559.988 141.257 558.006C143.407 556.024 146.237 554.947 149.16 554.999C149.443 554.985 149.727 554.985 150.01 554.999C151.94 555.169 154.01 555.369 156.18 555.609C157.09 555.709 158.02 555.809 158.95 555.929C161.63 556.249 164.4 556.64 167.11 557.08C168.49 557.32 169.85 557.57 171.2 557.83C173.47 558.28 175.67 558.779 177.7 559.349C179.07 559.729 180.38 560.14 181.58 560.59C186.62 562.41 189.91 564.759 189.57 567.739Z"
    fill="black"
  />
  <path
    d="M149.16 554.999L143.7 656.999L140.6 656.719L146.01 555.309C147.04 555.059 148.1 554.954 149.16 554.999V554.999Z"
    fill="#274B9F"
  />
  <path
    d="M158.95 555.92L153.84 659H149.05L156.18 555.59C157.09 555.7 158.02 555.8 158.95 555.92Z"
    fill="#274B9F"
  />
  <path
    d="M171.2 557.82L163.14 661.26H160.03V661.12L167.1 557.12C168.49 557.31 169.85 557.56 171.2 557.82Z"
    fill="#274B9F"
  />
  <path
    d="M181.57 560.58L173.28 663.32V663.52L167.93 662.95V662.45L177.65 559.34C179.07 559.72 180.38 560.13 181.57 560.58Z"
    fill="#274B9F"
  />
  <path
    opacity="0.1"
    d="M67.0096 640.14C67.0096 640.14 56.6596 586.69 80.3196 583.94C103.98 581.19 181.73 586.94 179.4 608.87C177.07 630.8 174.57 664.22 174.57 664.22L158.52 660.63C158.52 660.63 170.52 610.35 151.76 608.45C133 606.55 86.8996 601.26 86.8996 601.26C86.8996 601.26 74.4296 599.15 81.6196 643.26L67.0096 640.14Z"
    fill="black"
  />
  <path
    d="M67.0096 645.21C67.0096 645.21 56.6596 588.38 80.3196 585.63C103.98 582.88 181.73 588.63 179.4 610.56C177.07 632.49 174.57 665.91 174.57 665.91L158.52 662.32C158.52 662.32 170.52 612.04 151.76 610.14C133 608.24 86.8696 603 86.8696 603C86.8696 603 74.3996 604.27 81.5896 648.43L67.0096 645.21Z"
    fill="#DCE0ED"
  />
  <path
    d="M484.57 715.909L463.73 715.629C448.52 648.629 423.44 606.899 423.44 606.899C414.96 602.389 322.57 602.999 322.57 602.999C312.99 604.689 310.46 635.119 310.46 635.119C310.46 635.119 318.63 642.119 310.74 646.669C307.22 648.669 295.62 649.059 282.26 648.369C265.68 647.509 246.36 644.989 236.38 641.879C218.38 636.239 232.71 625.819 232.71 625.819C232.71 625.819 235.25 622.439 236.94 603.819C238.1 592.965 241.608 582.493 247.22 573.129C248 571.839 248.49 571.129 248.49 571.129C249.436 570.227 250.555 569.526 251.78 569.069C275.66 559.069 392.71 568.589 392.71 568.589L436.09 582.399C437.29 582.879 439.14 585.939 441.42 590.829C455.13 620.219 484.57 715.909 484.57 715.909Z"
    fill="#274B9F"
  />
  <path
    opacity="0.1"
    d="M484.57 715.909L463.73 715.629C448.52 648.629 423.44 606.899 423.44 606.899C414.96 602.389 322.57 602.999 322.57 602.999C312.99 604.689 310.46 635.119 310.46 635.119C310.46 635.119 318.63 642.119 310.74 646.669C307.22 648.669 295.62 649.059 282.26 648.369C265.68 647.509 246.36 644.989 236.38 641.879C218.38 636.239 232.71 625.819 232.71 625.819C232.71 625.819 235.25 622.439 236.94 603.819C238.1 592.965 241.608 582.493 247.22 573.129C248 571.839 248.49 571.129 248.49 571.129C249.436 570.227 250.555 569.526 251.78 569.069C275.66 559.069 392.71 568.589 392.71 568.589L436.09 582.399C437.29 582.879 439.14 585.939 441.42 590.829C455.13 620.219 484.57 715.909 484.57 715.909Z"
    fill="black"
  />
  <path
    d="M441.42 590.82C401.42 575.26 291.02 583.52 291.02 583.52C279.3 573.52 257.25 572.84 247.22 573.11C248 571.82 248.49 571.11 248.49 571.11C249.436 570.208 250.555 569.507 251.78 569.05C275.66 559.05 392.71 568.57 392.71 568.57L436.09 582.38C437.29 582.87 439.14 585.93 441.42 590.82Z"
    fill="#274B9F"
  />
  <path
    d="M297.5 587.74C294.97 596.47 284.57 631.41 284.57 631.41C283.481 636.998 282.717 642.644 282.28 648.32C265.7 647.46 246.38 644.94 236.4 641.83C218.4 636.19 232.73 625.77 232.73 625.77C232.73 625.77 235.27 622.39 236.96 603.77C238.2 592.123 242.156 580.93 248.51 571.09C249.455 570.188 250.575 569.487 251.8 569.03C267.44 572.75 299.42 581.13 297.5 587.74Z"
    fill="#274B9F"
  />
  <path
    opacity="0.1"
    d="M297.5 587.74C294.97 596.47 284.57 631.41 284.57 631.41C283.481 636.998 282.717 642.644 282.28 648.32C265.7 647.46 246.38 644.94 236.4 641.83C218.4 636.19 232.73 625.77 232.73 625.77C232.73 625.77 235.27 622.39 236.96 603.77C238.2 592.123 242.156 580.93 248.51 571.09C249.455 570.188 250.575 569.487 251.8 569.03C267.44 572.75 299.42 581.13 297.5 587.74Z"
    fill="white"
  />
  <path
    d="M323.28 365.91C312.08 367.6 307.22 390.84 307.22 390.84L276.8 492.46L491.86 527.74L546.79 358.74C496.3 335.91 323.28 365.91 323.28 365.91ZM496.28 474.5C496.28 474.5 495.01 484.22 486.77 485.07L347.34 479.62L318.74 478.49L309.15 478.12H308.47C308.47 478.12 297.9 480.02 299.59 471.12C299.59 471.12 311.21 386.62 331.71 380.28C331.71 380.28 333.84 379.83 337.57 379.13C343.43 378.02 353.21 376.28 364.73 374.69C369.89 373.98 375.4 373.3 381.07 372.69C396.56 371.11 413.21 370.26 426.99 371.59C426.99 371.59 529.66 362.08 522.27 384.9C522.29 384.93 500.74 467.53 496.3 474.5H496.28Z"
    fill="#274B9F"
  />
  <path
    d="M309.17 478.12H308.49C308.49 478.12 297.92 480.02 299.61 471.12C299.61 471.12 311.23 386.62 331.73 380.28C331.73 380.28 333.86 379.83 337.59 379.13C330.15 393.65 306.27 443.36 309.17 478.12Z"
    fill="#274B9F"
  />
  <path
    opacity="0.1"
    d="M309.17 478.12H308.49C308.49 478.12 297.92 480.02 299.61 471.12C299.61 471.12 311.23 386.62 331.73 380.28C331.73 380.28 333.86 379.83 337.59 379.13C330.15 393.65 306.27 443.36 309.17 478.12Z"
    fill="black"
  />
  <path
    opacity="0.1"
    d="M328.1 686.55C326.876 688.827 325.029 690.708 322.774 691.973C320.519 693.237 317.951 693.833 315.37 693.69L311.06 693.5L270.45 691.75L255.81 691.12L242.29 690L63.75 661L65.11 643.4L85.64 646.34L94.14 647.56L220.19 665.56L236.78 668L244.83 669.15L278.92 668.9L315.82 668.63C317.682 668.595 319.532 668.935 321.26 669.63C324.429 670.888 326.991 673.32 328.41 676.42C329.165 678.012 329.531 679.761 329.477 681.523C329.423 683.284 328.951 685.007 328.1 686.55V686.55Z"
    fill="black"
  />
  <path
    d="M328.1 688.24C326.876 690.517 325.029 692.398 322.774 693.662C320.519 694.927 317.951 695.523 315.37 695.38L255.81 692.81L242.29 691.68L51.89 660.79L36.89 658.36L28.77 657C12.72 653.62 17.51 637.56 17.51 637.56C18.63 630.23 46.24 623.47 55.25 623.76C61.31 623.95 62.15 633.28 62.05 639.39C62.05 642.39 61.73 644.6 61.73 644.6L70.64 645.88L244.83 670.8L315.83 670.28C318.461 670.233 321.05 670.948 323.284 672.339C325.518 673.73 327.301 675.738 328.42 678.12C329.172 679.712 329.536 681.459 329.48 683.219C329.424 684.978 328.951 686.699 328.1 688.24V688.24Z"
    fill="#DCE0ED"
  />
  <path
    opacity="0.1"
    d="M42.29 633.939C42.29 633.939 49.9 643.229 61.73 644.639C61.73 644.639 56.94 634.219 42.29 633.939Z"
    fill="black"
  />
  <path
    opacity="0.1"
    d="M40.32 660.14C40.32 660.14 15.25 659.57 15.25 673.14C15.25 686.71 31.03 688.92 31.03 688.92L254.97 732L318.63 733.12C318.63 733.12 340.88 715.38 317.78 707.49L253.57 709.15L40.04 670C40.04 670 45.67 662.39 40.32 660.14Z"
    fill="black"
  />
  <path
    d="M318.63 734.78L254.97 733.66L55.85 695.34L41.28 692.53L31.03 690.53C31.03 690.53 15.25 688.27 15.25 674.75C15.25 665.05 28.17 662.6 35.46 661.99C38.33 661.76 40.32 661.8 40.32 661.8C45.67 664.05 40.04 671.65 40.04 671.65L47.81 673.08L253.57 710.84L317.79 709.15C340.88 717 318.63 734.78 318.63 734.78Z"
    fill="#DCE0ED"
  />
  <path
    d="M59.1901 649.15L72.4301 643.23L79.1901 642.95L78.6301 699.85L57.7901 695.63L49.0501 690L44.8301 666.34C44.8301 666.34 46.5201 656.48 47.3601 655.64C48.2001 654.8 59.1901 649.15 59.1901 649.15Z"
    fill="#DCE0ED"
  />
  <path
    opacity="0.1"
    d="M59.1901 649.15L72.4301 643.23L79.1901 642.95L78.6301 699.85L57.7901 695.63L49.0501 690L44.8301 666.34C44.8301 666.34 46.5201 656.48 47.3601 655.64C48.2001 654.8 59.1901 649.15 59.1901 649.15Z"
    fill="black"
  />
  <path
    opacity="0.1"
    d="M55.8504 695.34L56.0904 695.63L41.4504 692.81L41.2804 692.53C33.5704 680.08 32.9004 670 35.4604 662C38.3304 661.77 40.3204 661.81 40.3204 661.81C45.6704 664.06 40.0404 671.66 40.0404 671.66L47.8104 673.09C47.2904 684.25 54.4204 693.58 55.8504 695.34Z"
    fill="black"
  />
  <path
    opacity="0.1"
    d="M77.5097 643C75.0297 643.946 72.7396 644.946 70.6396 646C61.1596 650.56 55.3096 655.68 51.8896 660.87L36.8896 658.44C43.3796 644.96 58.8896 638.8 58.8896 638.8L62.0296 639.51L77.5097 643Z"
    fill="black"
  />
  <path
    d="M60.5701 638.729C60.5701 638.729 19.4501 655.07 43.1101 692.81L57.7601 695.63C57.7601 695.63 28.7601 662.39 79.1601 642.95L60.5701 638.729Z"
    fill="#DCE0ED"
  />
  <path
    d="M158.63 657.039L173.84 656.479L171.3 717.599L146.79 713.099L136.37 708.029L131.58 695.909L128.2 683.799L136.37 672.81L145.67 666.62L158.63 657.039Z"
    fill="#DCE0ED"
  />
  <path
    opacity="0.1"
    d="M158.63 657.039L173.84 656.479L171.3 717.599L146.79 713.099L136.37 708.029L131.58 695.909L128.2 683.799L136.37 672.81L145.67 666.62L158.63 657.039Z"
    fill="black"
  />
  <path
    d="M156.94 700.98C160.983 700.98 164.26 695.433 164.26 688.59C164.26 681.747 160.983 676.2 156.94 676.2C152.897 676.2 149.62 681.747 149.62 688.59C149.62 695.433 152.897 700.98 156.94 700.98Z"
    fill="#DCE0ED"
  />
  <path
    d="M103.77 723.16C101.66 712.39 93.4201 710.06 93.4201 710.06C93.4201 710.06 77.5701 705.42 77.1501 723C77.1501 723 77.3601 733.78 84.5501 737.16L84.9701 749.16C84.9701 749.16 85.6001 760.36 79.2601 759.3C72.9201 758.24 73.7701 748.3 73.7701 748.3C73.7701 748.3 70.3901 737.74 62.1501 743.23C62.1501 743.23 60.2501 749.15 64.4801 752.11C66.9401 753.83 67.0301 757.35 66.6801 759.99C66.434 761.62 66.5424 763.284 66.9981 764.868C67.4537 766.452 68.2457 767.919 69.3201 769.17C70.5358 770.626 72.1186 771.732 73.9049 772.372C75.6911 773.012 77.6159 773.163 79.4801 772.81C82.8912 772.14 85.9851 770.361 88.2801 767.75C92.1466 763.551 94.3198 758.068 94.3801 752.36L94.6901 736.9C94.6901 736.9 105.88 733.94 103.77 723.16ZM90.7701 734.04C88.9901 734.04 87.25 733.512 85.77 732.523C84.2899 731.534 83.1364 730.128 82.4552 728.484C81.774 726.839 81.5958 725.03 81.943 723.284C82.2903 721.538 83.1475 719.934 84.4061 718.676C85.6648 717.417 87.2685 716.56 89.0143 716.213C90.7601 715.865 92.5697 716.044 94.2142 716.725C95.8588 717.406 97.2644 718.56 98.2533 720.04C99.2423 721.52 99.7701 723.26 99.7701 725.04C99.7595 727.418 98.808 729.695 97.1235 731.374C95.439 733.053 93.1584 733.997 90.7801 734L90.7701 734.04Z"
    fill="#DCE0ED"
  />
  <path
    d="M87.0901 705.41C86.5782 705.624 86.1163 705.942 85.7339 706.344C85.3514 706.746 85.0568 707.223 84.8687 707.745C84.6806 708.267 84.6032 708.822 84.6413 709.376C84.6794 709.929 84.8322 710.469 85.0901 710.96C86.7501 714.07 88.7401 718.09 88.5501 719.15C88.2301 720.94 92.2501 719.47 92.7701 719.04C93.2901 718.61 100.59 719.04 101.01 714.04C101.43 709.04 97.1101 706.43 97.1101 706.43L98.8001 695.55L88.8001 694.71L88.9101 704.64L87.0901 705.41Z"
    fill="#636780"
  />
  <path
    opacity="0.1"
    d="M87.0901 705.41C86.5782 705.624 86.1163 705.942 85.7339 706.344C85.3514 706.746 85.0568 707.223 84.8687 707.745C84.6806 708.267 84.6032 708.822 84.6413 709.376C84.6794 709.929 84.8322 710.469 85.0901 710.96C86.7501 714.07 88.7401 718.09 88.5501 719.15C88.2301 720.94 92.2501 719.47 92.7701 719.04C93.2901 718.61 100.59 719.04 101.01 714.04C101.43 709.04 97.1101 706.43 97.1101 706.43L98.8001 695.55L88.8001 694.71L88.9101 704.64L87.0901 705.41Z"
    fill="black"
  />
  <path
    opacity="0.1"
    d="M89.8301 705.21C89.8301 705.21 93.2101 716.83 91.7301 717.21C90.2501 717.59 89.8301 705.21 89.8301 705.21Z"
    fill="black"
  />
  <path
    opacity="0.1"
    d="M93.6299 702.46C93.6299 702.46 97.0099 714.08 95.5299 714.46C94.0499 714.84 93.6299 702.46 93.6299 702.46Z"
    fill="black"
  />
  <path
    d="M134.13 667.46L128.49 702.39C128.49 702.39 121.49 701.44 117.67 700.61C116.828 700.493 116.01 700.24 115.25 699.86C115.05 699.66 114.64 699.68 114.09 699.79C112.21 700.17 108.87 701.72 108.22 700.41C108.173 700.309 108.109 700.218 108.03 700.14C107.37 699.42 106.09 699.94 104.85 700.14C104.175 700.315 103.458 700.221 102.85 699.88C101.85 699.18 99.7001 700.3 97.9801 700.67C96.8901 700.91 95.9801 700.86 95.5201 699.88C95.3549 699.561 95.1165 699.286 94.8244 699.078C94.5324 698.869 94.1951 698.733 93.8401 698.68V698.68C92.2201 698.27 89.9501 698.55 88.6401 698.27C88.1201 698.17 87.7701 697.97 87.6401 697.62C87.3801 696.86 85.9301 696.5 84.3801 696.2C82.4901 695.84 80.4601 695.57 80.3101 694.81C80.3101 694.55 80.0801 694.44 79.8001 694.43C78.7525 694.589 77.7216 694.843 76.7201 695.19V695.19C75.8801 695.41 75.1701 695.41 74.9701 694.81C74.7701 694.21 73.7801 694.21 72.6701 694.48C71.7801 694.7 70.7901 695.05 70.0301 695.23C69.2701 695.41 68.8501 695.41 68.7701 695.08C68.4901 693.96 64.8301 696.5 63.9901 694.24C63.1501 691.98 51.5701 677 66.5701 657.6C66.5701 657.6 70.5701 657.88 73.6901 658.44C74.7244 658.578 75.7342 658.861 76.6901 659.28V659.28C77.7601 659.89 80.0501 659.76 82.1201 659.91C83.1612 659.924 84.1861 660.17 85.1201 660.63C85.4915 660.832 85.7891 661.147 85.9701 661.53C86.4401 662.6 87.5201 662.82 88.7001 662.76C90.3001 662.66 92.0801 662.06 92.7001 662.38H92.7601C93.9401 662.89 98.3601 662.38 99.1101 663.13L99.1701 663.2C99.4901 663.67 101.17 663.2 102.99 662.94C104.36 662.76 105.74 662.74 106.49 663.49C107.264 664.104 108.246 664.394 109.23 664.3C110.428 664.212 111.632 664.259 112.82 664.44C113.094 664.52 113.34 664.676 113.53 664.89C114.24 665.78 115.96 665.66 117.53 665.74C118.315 665.707 119.093 665.901 119.77 666.3C120.013 666.469 120.289 666.585 120.58 666.64C122.74 667.14 127.37 666.3 127.37 666.3L134.13 667.46Z"
    fill="#636780"
  />
  <path
    opacity="0.1"
    d="M72.6702 694.459C71.7802 694.679 70.7902 695.029 70.0302 695.209C58.5902 677.459 68.2202 663.979 73.6402 658.439C74.6745 658.578 75.6844 658.861 76.6402 659.279C65.1302 672.539 70.4702 689.099 72.6702 694.459Z"
    fill="black"
  />
  <path
    opacity="0.1"
    d="M79.8096 694.41C78.762 694.569 77.7311 694.824 76.7296 695.17C66.9396 677.86 77.0096 664.91 82.0996 659.92C83.1407 659.934 84.1656 660.18 85.0996 660.64C74.1496 672.62 77.3996 687.53 79.8096 694.41Z"
    fill="black"
  />
  <path
    opacity="0.1"
    d="M88.6396 698.25C88.1196 698.15 87.7696 697.95 87.6396 697.6C87.3796 696.84 85.9296 696.48 84.3796 696.18C75.7896 680.5 83.4696 668.45 88.6796 662.77C90.2796 662.67 92.0596 662.07 92.6796 662.39H92.7396C80.6596 676 86.5096 693.2 88.6396 698.25Z"
    fill="black"
  />
  <path
    opacity="0.1"
    d="M97.99 700.65C96.9 700.89 95.99 700.84 95.53 699.86C95.3648 699.541 95.1263 699.266 94.8343 699.058C94.5423 698.849 94.2049 698.713 93.85 698.66V698.66C83.85 681.19 94.05 668.13 99.14 663.16L99.2 663.23C99.52 663.7 101.2 663.23 103.02 662.97C88.78 677.34 96.1 696.42 97.99 700.65Z"
    fill="black"
  />
  <path
    opacity="0.1"
    d="M108.01 700.13C107.35 699.41 106.07 699.93 104.83 700.13C94.3897 682.79 103.98 669.69 109.26 664.34C110.458 664.253 111.662 664.3 112.85 664.48C100.66 677.59 105.69 694.3 108.01 700.13Z"
    fill="black"
  />
  <path
    opacity="0.1"
    d="M117.67 700.61C116.828 700.493 116.01 700.24 115.25 699.86C115.05 699.66 114.64 699.68 114.09 699.79C104.84 683.95 112.22 671.72 117.53 665.79C118.315 665.757 119.093 665.951 119.77 666.35C120.013 666.519 120.289 666.635 120.58 666.69C110.46 679.73 115.57 695.45 117.67 700.61Z"
    fill="black"
  />
  <path
    d="M390.74 793.94C416.095 793.94 436.65 763.675 436.65 726.34C436.65 689.006 416.095 658.74 390.74 658.74C365.385 658.74 344.83 689.006 344.83 726.34C344.83 763.675 365.385 793.94 390.74 793.94Z"
    fill="#636780"
  />
  <path
    opacity="0.1"
    d="M389.19 782.11C407.625 782.11 422.57 757.58 422.57 727.32C422.57 697.061 407.625 672.53 389.19 672.53C370.754 672.53 355.81 697.061 355.81 727.32C355.81 757.58 370.754 782.11 389.19 782.11Z"
    fill="black"
  />
  <path
    d="M389.19 780.42C407.625 780.42 422.57 755.89 422.57 725.63C422.57 695.37 407.625 670.84 389.19 670.84C370.754 670.84 355.81 695.37 355.81 725.63C355.81 755.89 370.754 780.42 389.19 780.42Z"
    fill="#F0F0F4"
  />
  <path
    d="M395.24 695.63C397.416 695.63 399.18 692.604 399.18 688.87C399.18 685.137 397.416 682.11 395.24 682.11C393.064 682.11 391.3 685.137 391.3 688.87C391.3 692.604 393.064 695.63 395.24 695.63Z"
    fill="#636780"
  />
  <path
    d="M411.02 754.789C413.196 754.789 414.96 751.763 414.96 748.029C414.96 744.296 413.196 741.27 411.02 741.27C408.844 741.27 407.08 744.296 407.08 748.029C407.08 751.763 408.844 754.789 411.02 754.789Z"
    fill="#636780"
  />
  <path
    d="M368.48 726.62C370.656 726.62 372.42 723.593 372.42 719.86C372.42 716.126 370.656 713.1 368.48 713.1C366.304 713.1 364.54 716.126 364.54 719.86C364.54 723.593 366.304 726.62 368.48 726.62Z"
    fill="#636780"
  />
  <path
    d="M380.03 766.05C382.206 766.05 383.97 763.024 383.97 759.29C383.97 755.557 382.206 752.53 380.03 752.53C377.854 752.53 376.09 755.557 376.09 759.29C376.09 763.024 377.854 766.05 380.03 766.05Z"
    fill="#636780"
  />
  <path
    d="M726.79 601.26C726.79 601.26 759.79 689.15 758.06 694.64C758.06 694.64 772 703.09 775.38 700.98C778.76 698.87 775.81 659.98 775.81 659.98L769.47 625.76L762.28 605.48L726.79 601.26Z"
    fill="#274B9F"
  />
  <path
    opacity="0.15"
    d="M726.79 601.26C726.79 601.26 759.79 689.15 758.06 694.64C758.06 694.64 772 703.09 775.38 700.98C778.76 698.87 775.81 659.98 775.81 659.98L769.47 625.76L762.28 605.48L726.79 601.26Z"
    fill="black"
  />
  <path
    d="M416.65 718.169C418.826 718.169 420.59 715.143 420.59 711.409C420.59 707.676 418.826 704.649 416.65 704.649C414.474 704.649 412.71 707.676 412.71 711.409C412.71 715.143 414.474 718.169 416.65 718.169Z"
    fill="#636780"
  />
  <path
    d="M395.24 743.8C401.619 743.8 406.79 736.609 406.79 727.74C406.79 718.87 401.619 711.68 395.24 711.68C388.862 711.68 383.69 718.87 383.69 727.74C383.69 736.609 388.862 743.8 395.24 743.8Z"
    fill="#636780"
  />
  <path
    d="M763.57 718.73C763.57 769.6 746.67 815.91 699.77 810.84C640.62 809.57 635.97 769.6 635.97 718.73C635.97 667.86 664.51 630 699.75 630C734.99 630 763.57 667.85 763.57 718.73Z"
    fill="#636780"
  />
  <path
    opacity="0.1"
    d="M763.92 718.81C763.92 679.43 746.8 647.81 722.71 635.59C691.78 641.47 668.01 677.05 668.01 723.46C668.01 765.15 671.14 799.46 704.82 811.26C748.15 812.82 763.92 768 763.92 718.81Z"
    fill="black"
  />
  <path
    opacity="0.1"
    d="M788.48 697.18C788.48 697.18 780.03 704.36 775.38 699.29C775.38 699.29 763.97 608.02 749.61 607.6L700.17 607.18C700.17 607.18 694.26 609.71 691.72 620.7L659.72 711.7L484.57 714.22L471.19 686.22L616.12 686.64V686.58C616.9 683.77 641.12 597.3 657.39 586.58C657.943 586.206 658.545 585.913 659.18 585.71C659.18 585.71 719.6 577.71 739.46 583.17C739.46 583.17 760.16 587.82 765.23 594.17C765.91 594.88 773.75 603.71 776.18 629.17L788.48 697.18Z"
    fill="black"
  />
  <path
    d="M788.48 698.87C788.48 698.87 780.03 706.05 775.38 700.98C775.38 700.98 763.97 609.71 749.61 609.29L700.17 608.87C700.17 608.87 694.26 611.4 691.72 622.39L659.72 713.39L484.57 715.91L471.19 687.91L616.12 688.33V688.27C616.9 685.46 641.12 598.99 657.39 588.27C657.943 587.896 658.545 587.603 659.18 587.4C659.18 587.4 719.6 579.4 739.46 584.86C739.46 584.86 760.16 589.51 765.23 595.86V595.91C765.91 596.62 773.75 605.45 776.18 630.91L788.48 698.87Z"
    fill="#274B9F"
  />
  <path
    opacity="0.1"
    d="M788.48 698.87C788.48 698.87 780.03 706.05 775.38 700.98C775.38 700.98 763.97 609.71 749.61 609.29L700.17 608.87C700.17 608.87 694.26 611.4 691.72 622.39L659.72 713.39L484.57 715.91L471.19 687.91L616.12 688.33V688.27C616.9 685.46 641.12 598.99 657.39 588.27C657.943 587.896 658.545 587.603 659.18 587.4C659.18 587.4 719.6 579.4 739.46 584.86C739.46 584.86 760.16 589.51 765.23 595.86V595.91C765.91 596.62 773.75 605.45 776.18 630.91L788.48 698.87Z"
    fill="black"
  />
  <path
    d="M681.16 599.15C676.93 607.15 640.6 706.05 640.6 706.05L616.09 688.3V688.24C616.87 685.43 641.09 598.87 657.38 588.24C667.98 590 684.03 593.7 681.16 599.15Z"
    fill="#274B9F"
  />
  <path
    d="M633.84 553.939L613.98 618.999L510.46 615.999L511.3 625.719C511.3 625.719 592.43 637.549 627.07 621.489L645.67 562.059L809.04 562.899L777.92 555.579L633.84 553.939Z"
    fill="#274B9F"
  />
  <path
    opacity="0.1"
    d="M633.84 553.939L613.98 618.999L510.46 615.999L511.3 625.719C511.3 625.719 592.43 637.549 627.07 621.489L645.67 562.059L809.04 562.899L777.92 555.579L633.84 553.939Z"
    fill="white"
  />
  <path
    opacity="0.1"
    d="M148.49 656.47C148.49 656.47 92.9997 684.36 134.12 710.56L145.12 713.09C145.12 713.09 104.84 684.09 172.12 656.47H148.49Z"
    fill="black"
  />
  <path
    d="M150.18 656.47C150.18 656.47 94.6901 684.36 135.81 710.56L146.81 713.09C146.81 713.09 106.53 684.09 173.81 656.47H150.18Z"
    fill="#DCE0ED"
  />
  <path
    d="M724.25 778.73C741.283 778.73 755.09 755.082 755.09 725.91C755.09 696.738 741.283 673.09 724.25 673.09C707.218 673.09 693.41 696.738 693.41 725.91C693.41 755.082 707.218 778.73 724.25 778.73Z"
    fill="#636780"
  />
  <path
    opacity="0.1"
    d="M723.21 769.85C735.592 769.85 745.63 750.688 745.63 727.05C745.63 703.412 735.592 684.25 723.21 684.25C710.828 684.25 700.79 703.412 700.79 727.05C700.79 750.688 710.828 769.85 723.21 769.85Z"
    fill="black"
  />
  <path
    d="M723.21 768.16C735.592 768.16 745.63 748.997 745.63 725.36C745.63 701.722 735.592 682.56 723.21 682.56C710.828 682.56 700.79 701.722 700.79 725.36C700.79 748.997 710.828 768.16 723.21 768.16Z"
    fill="#F0F0F4"
  />
  <path
    d="M727.28 701.92C728.743 701.92 729.93 699.556 729.93 696.64C729.93 693.724 728.743 691.36 727.28 691.36C725.816 691.36 724.63 693.724 724.63 696.64C724.63 699.556 725.816 701.92 727.28 701.92Z"
    fill="#636780"
  />
  <path
    d="M737.88 748.14C739.344 748.14 740.531 745.776 740.531 742.86C740.531 739.944 739.344 737.58 737.88 737.58C736.417 737.58 735.23 739.944 735.23 742.86C735.23 745.776 736.417 748.14 737.88 748.14Z"
    fill="#636780"
  />
  <path
    d="M709.3 726.13C710.764 726.13 711.95 723.766 711.95 720.85C711.95 717.934 710.764 715.57 709.3 715.57C707.837 715.57 706.65 717.934 706.65 720.85C706.65 723.766 707.837 726.13 709.3 726.13Z"
    fill="#636780"
  />
  <path
    d="M717.06 756.94C718.524 756.94 719.71 754.576 719.71 751.66C719.71 748.744 718.524 746.38 717.06 746.38C715.597 746.38 714.41 748.744 714.41 751.66C714.41 754.576 715.597 756.94 717.06 756.94Z"
    fill="#636780"
  />
  <path
    d="M741.66 719.53C743.123 719.53 744.31 717.166 744.31 714.25C744.31 711.334 743.123 708.97 741.66 708.97C740.196 708.97 739.01 711.334 739.01 714.25C739.01 717.166 740.196 719.53 741.66 719.53Z"
    fill="#636780"
  />
  <path
    d="M727.28 739.55C731.565 739.55 735.039 733.935 735.039 727.01C735.039 720.084 731.565 714.47 727.28 714.47C722.994 714.47 719.52 720.084 719.52 727.01C719.52 733.935 722.994 739.55 727.28 739.55Z"
    fill="#636780"
  />
  <path
    opacity="0.1"
    d="M276.37 491C276.37 491 370.18 494.38 491.86 527.76L276.37 491Z"
    fill="black"
  />
  <path
    d="M723.92 326.77C723.92 326.77 718.83 327.59 721.48 334.31C724.13 341.03 724.57 344.5 724.57 344.5C724.57 344.5 729.67 347.15 729.46 338.38C729.25 329.61 723.92 326.77 723.92 326.77Z"
    fill="#DCE0ED"
  />
  <path
    d="M474.41 463L474.35 463.08C473.284 464.411 472.593 466.003 472.35 467.69C471.53 473.03 470.75 483.97 478.52 482.16C482.892 481.185 486.903 479.006 490.1 475.87C490.979 474.938 491.66 473.836 492.102 472.633C492.543 471.43 492.737 470.15 492.67 468.87V468.87C492.679 467.668 492.391 466.482 491.831 465.418C491.271 464.353 490.456 463.444 489.46 462.77L486.57 461.11C485.755 460.626 484.818 460.383 483.87 460.41L478.87 460.59C478 460.658 477.153 460.907 476.384 461.322C475.616 461.737 474.944 462.309 474.41 463Z"
    fill="#FEC2BE"
  />
  <path
    d="M530.57 371.5L515.64 445.68L505.07 468L512.07 481L527.57 444.5C527.57 444.5 544.57 391 544.57 389.5C544.57 388 530.57 371.5 530.57 371.5Z"
    fill="#274B9F"
  />
  <defs>
    <linearGradient
      id="paint0_linear_269_886"
      x1="346.09"
      y1="584.07"
      x2="346.09"
      y2="443.78"
      gradientUnits="userSpaceOnUse"
    >
      <stop stop-color="#808080" stop-opacity="0.25" />
      <stop offset="0.54" stop-color="#808080" stop-opacity="0.12" />
      <stop offset="1" stop-color="#808080" stop-opacity="0.1" />
    </linearGradient>
  </defs>
</svg>
