<svg xmlns="http://www.w3.org/2000/svg" width="120" height="32" fill="none"><g clip-path="url(#a)"><path fill="url(#b)" d="M25.308.648a7.56 7.56 0 1 0 0 15.12 7.56 7.56 0 0 0 0-15.12Zm0 12.654a5.094 5.094 0 1 1 0-10.189 5.094 5.094 0 0 1 0 10.19Z"/><path fill="url(#c)" d="M25.307 9.933a1.725 1.725 0 1 0 0-3.45 1.725 1.725 0 0 0 0 3.45Z"/><path fill="url(#d)" d="M51.825 8.167 59.343.648h-3.487L48.34 8.164l.003.003-.003.002 7.598 7.598h3.488l-7.6-7.6Z"/><path fill="url(#e)" d="M12.408 3.095 7.272 8.231.082 1.04v3.487l7.188 7.188.002-.003.003.003 5.133-5.134v9.185h2.465V.63l-2.465 2.465Z"/><path fill="url(#f)" d="M42.974.566v9.448L33.032.878v3.348l9.942 9.134 2.465 2.266V.566h-2.465Z"/></g><defs><linearGradient id="b" x1="25.308" x2="25.308" y1=".648" y2="15.767" gradientUnits="userSpaceOnUse"><stop stop-color="#50CAF9"/><stop offset="1" stop-color="#2B59FF" stop-opacity=".87"/></linearGradient><linearGradient id="c" x1="25.307" x2="25.307" y1="6.482" y2="9.933" gradientUnits="userSpaceOnUse"><stop stop-color="#50CAF9"/><stop offset="1" stop-color="#2B59FF" stop-opacity=".87"/></linearGradient><linearGradient id="d" x1="53.883" x2="53.883" y1=".648" y2="15.767" gradientUnits="userSpaceOnUse"><stop stop-color="#50CAF9"/><stop offset="1" stop-color="#2B59FF" stop-opacity=".87"/></linearGradient><linearGradient id="e" x1="7.478" x2="7.478" y1=".63" y2="15.767" gradientUnits="userSpaceOnUse"><stop stop-color="#50CAF9"/><stop offset="1" stop-color="#2B59FF" stop-opacity=".87"/></linearGradient><linearGradient id="f" x1="39.236" x2="39.236" y1=".566" y2="15.626" gradientUnits="userSpaceOnUse"><stop stop-color="#50CAF9"/><stop offset="1" stop-color="#2B59FF" stop-opacity=".87"/></linearGradient><clipPath id="a"><path fill="#fff" d="M0 0h59.344v15.201H0z" transform="translate(.086 .566)"/></clipPath></defs></svg>
