<svg id="aff5cc16-68fc-4941-99a6-342d95847e23" data-name="Layer 1" xmlns="http://www.w3.org/2000/svg" width="797.87012" height="624.83692" viewBox="0 0 797.87012 624.83692"><path d="M996.1748,743.23847a48.08442,48.08442,0,0,1-7.6499,17.18c-.43994.68-.91015,1.34-1.39013,2H897.20508c-.26026-.66-.51026-1.33-.74024-2a89.07626,89.07626,0,0,1-5.04-28.13c-.12988-7.93,1.87012-17.12,8.98-20.64a12.33358,12.33358,0,0,1,17.65039,13.05,119.44069,119.44069,0,0,1,10.18994-22.16c3.50976-5.94,8.43994-12.12,15.31982-12.68,7.98-.66,14.64014,7.09,15.78027,15.02.89991,6.33-.76025,12.63995-2.91015,18.75a20.79906,20.79906,0,0,1,31.33008-7.16C995.56494,722.49848,998.13477,733.57843,996.1748,743.23847Z" transform="translate(-201.06494 -137.58154)" fill="#f2f2f2"/><path d="M311.4043,477.70947a.9971.9971,0,0,1-.59034-.19335c-27.02966-19.811-49.45361-23.57764-63.50183-23.24219-15.20483.35937-24.15564,5.45752-24.24426,5.50879a1,1,0,0,1-1.00683-1.728c.37609-.21924,9.39013-5.377,25.06567-5.77637,14.38916-.37549,37.32178,3.4336,64.86963,23.62451a1,1,0,0,1-.592,1.80664Z" transform="translate(-201.06494 -137.58154)" fill="#ccc"/><path d="M445.7605,589.52832a1.00149,1.00149,0,0,1-.18555-.01709c-30.19409-5.66308-57.93432-25.6123-84.80627-60.98779a298.56124,298.56124,0,0,0-28.26258-32.42578,1,1,0,0,1,1.40064-1.42774,300.59409,300.59409,0,0,1,28.45447,32.64356c26.55822,34.96289,53.89831,54.66455,83.58239,60.23193a1,1,0,0,1-.1831,1.98291Z" transform="translate(-201.06494 -137.58154)" fill="#ccc"/><path d="M474.5708,590.80615a1,1,0,0,1-.08594-1.99609c41.1128-3.59766,84.93164-28.77881,135.66968-57.93652l4.91235-2.82227c31.53565-18.10986,61.07886-23.14111,87.80884-14.95752,41.22534,12.62256,61.38843,52.979,61.5874,53.38477a1,1,0,0,1-1.79614.87988c-.19555-.39844-20.0039-40.001-60.39551-52.35791-26.175-8.00781-55.17993-3.0332-86.20849,14.78516l-4.91187,2.82177c-50.94336,29.27588-94.93945,54.55909-136.49194,58.19483C474.62964,590.80518,474.6001,590.80615,474.5708,590.80615Z" transform="translate(-201.06494 -137.58154)" fill="#ccc"/><path d="M869.91575,426.53869c0,17.67311-16.3416,15-36.5,15s-36.5,2.67311-36.5-15,7.98246-49,36.5-49C862.91575,377.53869,869.91575,408.86557,869.91575,426.53869Z" transform="translate(-201.06494 -137.58154)" fill="#2f2e41"/><polygon points="554.552 611.793 542.883 608.032 551.838 561.234 569.06 566.786 554.552 611.793" fill="#ffb8b8"/><path d="M754.94713,761.64469,717.32294,749.517l.15338-.4759a15.386,15.386,0,0,1,19.36451-9.92448l.00093.0003,22.97946,7.40726Z" transform="translate(-201.06494 -137.58154)" fill="#2f2e41"/><polygon points="697.785 612.179 685.525 612.178 679.692 564.891 697.787 564.891 697.785 612.179" fill="#ffb8b8"/><path d="M901.97592,761.64469l-39.53052-.00147v-.5A15.38605,15.38605,0,0,1,877.83188,745.757h.001l24.1438.001Z" transform="translate(-201.06494 -137.58154)" fill="#2f2e41"/><path d="M905.9326,571.5465a11.29458,11.29458,0,0,1-10.417-15.6211l-41.18213-93.58007a9.05222,9.05222,0,1,1,17.05737-6.06543l39.991,94.05468a10.901,10.901,0,0,1,1.40722.89844,11.30716,11.30716,0,0,1,1.88819,16.2041h0A11.31792,11.31792,0,0,1,905.9326,571.5465Z" transform="translate(-201.06494 -137.58154)" fill="#ffb8b8"/><path d="M760.89891,578.5465a11.31753,11.31753,0,0,1-8.74463-4.10938h0a11.30715,11.30715,0,0,1,1.88818-16.2041,10.90042,10.90042,0,0,1,1.40723-.89844l40.00342-94.08691a9.05214,9.05214,0,1,1,17.05737,6.06641L771.3159,562.9254a11.29458,11.29458,0,0,1-10.417,15.6211Z" transform="translate(-201.06494 -137.58154)" fill="#ffb8b8"/><circle cx="632.22876" cy="279.36659" r="24.56103" fill="#ffb8b8"/><path d="M815.81028,537.0924l-.20434-.16114c-13.39551-10.57617-18.41089-46.07226-20.20825-66.291a16.07445,16.07445,0,0,1,14.02148-17.44141l45.26294-5.72949a16.11071,16.11071,0,0,1,18.07422,17.36523l-4.87158,56.585Z" transform="translate(-201.06494 -137.58154)" fill="#274b9f"/><path d="M880.60618,721.17345a4.47739,4.47739,0,0,1-4.40137-3.61133L851.67869,595.87365a1.49989,1.49989,0,0,0-2.5498-.74414L798.8452,649.31115,774.09959,710.9215a4.50445,4.50445,0,0,1-5.22827,2.8125l-18.46826-4.26172a4.50046,4.50046,0,0,1-3.31641-5.61719l15.84351-55.65527A54.086,54.086,0,0,1,770.7827,631.777l42.64208-60.41016,2.011-35.19141,52.5271-18.18164.19507.10743c36.115,19.98535,35.93384,92.41113,35.74194,169.08984-.02221,8.94922-.04541,18.2041-.00415,27.24023a4.48375,4.48375,0,0,1-4.01636,4.48926l-18.77807,2.22559A4.46416,4.46416,0,0,1,880.60618,721.17345Z" transform="translate(-201.06494 -137.58154)" fill="#2f2e41"/><path d="M804.91575,414.53866v0h9.71436l4.28564-12,.85694,12h4.64306l2.5-7,.5,7h34.5v0a26,26,0,0,0-26-26h-5A26,26,0,0,0,804.91575,414.53866Z" transform="translate(-201.06494 -137.58154)" fill="#2f2e41"/><path d="M998.93506,761.41846a1.00308,1.00308,0,0,1-1,1h-381a1,1,0,0,1,0-2h381A1.00308,1.00308,0,0,1,998.93506,761.41846Z" transform="translate(-201.06494 -137.58154)" fill="#3f3d56"/><rect x="458.95703" y="367.48872" width="2" height="207.9298" transform="translate(-201.55404 -137.10388) rotate(-0.05947)" fill="#ccc"/><path d="M459.83643,355.41846c2.11328,5.67743,5.7163,12.72064,9.52978,17.08484l-9.51562-3.43054-9.50586,3.45025C454.14844,368.15094,457.73682,361.10022,459.83643,355.41846Z" transform="translate(-201.06494 -137.58154)" fill="#ccc"/><path d="M210.06494,473.41846a9,9,0,1,1,9-9A9.01031,9.01031,0,0,1,210.06494,473.41846Zm0-16a7,7,0,1,0,7,7A7.00787,7.00787,0,0,0,210.06494,457.41846Z" transform="translate(-201.06494 -137.58154)" fill="#ccc"/><path d="M322.06494,494.41846a9,9,0,1,1,9-9A9.01031,9.01031,0,0,1,322.06494,494.41846Zm0-16a7,7,0,1,0,7,7A7.00787,7.00787,0,0,0,322.06494,478.41846Z" transform="translate(-201.06494 -137.58154)" fill="#ccc"/><circle cx="259" cy="452.83692" r="9" fill="#274b9f"/><path id="ee70bbe5-0fd0-40b4-b554-505cd54c2bbd" data-name="Path 336" d="M536.3654,142.23153a7.6,7.6,0,0,0-6.95-4.65h-138.725a7.524,7.524,0,0,0-7.52,7.52v175.5a7.524,7.524,0,0,0,7.52,7.52h138.73a7.53,7.53,0,0,0,7.52-7.52v-175.5a7.3855,7.3855,0,0,0-.57-2.87Zm-1.1,178.37a5.857,5.857,0,0,1-5.85,5.85h-138.725a5.851,5.851,0,0,1-5.85-5.849v-175.5a5.858,5.858,0,0,1,5.85-5.85h138.73a5.87906,5.87906,0,0,1,5.43,3.68,6.4848,6.4848,0,0,1,.22.66,5.80051,5.80051,0,0,1,.2,1.51Z" transform="translate(-201.06494 -137.58154)" fill="#3f3d56"/><path id="bb8eb027-3740-4f02-8c9d-654f9a39902f" data-name="Path 337" d="M507.41539,179.01654h-41.786a3.343,3.343,0,1,1,0-6.686h41.786a3.343,3.343,0,1,1,0,6.686Z" transform="translate(-201.06494 -137.58154)" fill="#274b9f"/><path id="a3866511-4942-4881-be97-faab4fa34b50" data-name="Path 338" d="M507.41539,196.56656h-41.786a3.343,3.343,0,1,1,0-6.686h41.786a3.343,3.343,0,1,1,0,6.686Z" transform="translate(-201.06494 -137.58154)" fill="#274b9f"/><path id="f08ee3fb-4385-42a6-afa4-53200aaca409" data-name="Path 339" d="M444.18941,206.55954h-30.537a3.765,3.765,0,0,1-3.761-3.761v-36.036a3.765,3.765,0,0,1,3.761-3.761h30.537a3.765,3.765,0,0,1,3.761,3.761v36.036A3.765,3.765,0,0,1,444.18941,206.55954Z" transform="translate(-201.06494 -137.58154)" fill="#274b9f"/><path id="e369717a-749a-4a1f-a229-45e0da930cc4" data-name="Path 340" d="M507.12541,232.50256h-94.436a3.343,3.343,0,0,1,0-6.686h94.436a3.343,3.343,0,1,1,0,6.686Z" transform="translate(-201.06494 -137.58154)" fill="#ccc"/><path id="ef6b24b5-2440-48fd-9253-b825a44f6e02" data-name="Path 341" d="M507.12541,250.05255h-94.436a3.343,3.343,0,0,1,0-6.686h94.436a3.343,3.343,0,1,1,0,6.686Z" transform="translate(-201.06494 -137.58154)" fill="#ccc"/><path id="b0b55a8a-1954-4430-a74d-a6cc3d1b9380" data-name="Path 342" d="M507.12541,267.60254h-94.436a3.343,3.343,0,0,1,0-6.686h94.436a3.343,3.343,0,1,1,0,6.686Z" transform="translate(-201.06494 -137.58154)" fill="#ccc"/><path id="e502a05a-d93f-45a7-9287-4aafc935958a" data-name="Path 343" d="M507.12541,285.15256h-94.436a3.343,3.343,0,0,1,0-6.686h94.436a3.343,3.343,0,1,1,0,6.686Z" transform="translate(-201.06494 -137.58154)" fill="#ccc"/><path id="aff42eff-eedb-45ff-aa19-27d63bd3a4a4" data-name="Path 344" d="M507.12541,302.70254h-94.436a3.343,3.343,0,0,1,0-6.686h94.436a3.343,3.343,0,1,1,0,6.686Z" transform="translate(-201.06494 -137.58154)" fill="#ccc"/></svg>