<svg xml:space="preserve" id="haccord-H_eRrLBl_svg__Calque_1" x="0" y="0" style="enable-background:new 0 0 500 375" version="1.1" viewBox="0 0 500 375" xmlns="http://www.w3.org/2000/svg"><style>.haccord-H_eRrLBl_svg__st0{fill:none;stroke:#fff;stroke-width:1.0006;stroke-miterlimit:10}</style><path d="M385 126.1c8.9 20.9 14 45.7 14 75.1 0 79.6-51.3 160.3-161.3 157.5-74.5-1.9-156.7-80.1-155.2-163C84.4 98.9 161.4 38.4 248.9 41c6.2 0 17.2 1 23.3 1.8" class="haccord-H_eRrLBl_svg__st0"/><path d="M398.1 219.3h23.1m-334 13.2-22.5 23.9L0 251" class="haccord-H_eRrLBl_svg__st0"/><path d="M500 260.7c-27.8 2.3-54.2 3.8-74.1 3.7-.3-14-2-29.4-4.7-45-3.6-20.3-9-41.1-15.8-59.6-5.8-11.7-12.6-23-20.3-33.7-27.6-38.5-66.8-69.4-112.8-83.3-32.2-9.7-67.8-11-104.9-.6C76.7 67.5 57.3 156.8 57.3 172.8c0 15.5 4.4 57.4 7.5 83.6M110.7 0C58.6 90.1 31.2 153.1 0 235.8" class="haccord-H_eRrLBl_svg__st0"/></svg>