<svg xml:space="preserve" id="haccord-OXYy5gET_svg__Calque_1" x="0" y="0" style="enable-background:new 0 0 500 375" version="1.1" viewBox="0 0 500 375" xmlns="http://www.w3.org/2000/svg"><style>.haccord-OXYy5gET_svg__st2,.haccord-OXYy5gET_svg__st3{fill:none;stroke:#fff;stroke-miterlimit:10}.haccord-OXYy5gET_svg__st3{stroke-width:.5}</style><g id="haccord-OXYy5gET_svg__Calque_2_00000181783403720177913040000011128437969771162553_"><path d="M211.8 230.7c-4.9 11.5-7.7 25.2-7.7 41.4 0 43.8 28.3 89.8 88.8 86.7 41 0 85.5-44.1 85.4-89.7-1.9-53.3-43.4-86.6-91.6-85.2-3.4 0-6.9.2-10.3.6" class="haccord-OXYy5gET_svg__st2"/><path d="m500 293.1-111.9 9.4-12.6-13.4m-171.4-7h-12" class="haccord-OXYy5gET_svg__st2"/><path d="M388.8 301.1c1.7-14.4 4.8-36.2 3.4-44.6s-2.5-51.5-59.7-73.6c-58.6-12.6-109.3 20.7-131.9 66.4-6.6 18-10.9 39.9-11.3 57.6-35.4.1-108.4-8.6-122.3-13.2S28.4 270.2 25 262c-3.4-8.2-9.6-35.5-9.1-45.6s5.5-28.9 5.5-28.9L35 165.8s-3.1-6-2.4-13.9 1-36 1.7-37.2 9.1-10.6 8.9-12.2-3-6.4-2.3-7.4c.8-1 8.8-1.3 17.1-2.5s81.2-18.1 89.7-20.5c8.6-2.3 108.1-33.8 113-34.6 4.9-.9 64.4-18.8 83.6-22C360.1 12.7 420 4.9 459.4 5.1c36.6.2 35.2 0 41.1.3" class="haccord-OXYy5gET_svg__st2"/><path d="m408.9 134.7-33.5.4s-13-.8-14.1-1.8-4-6.2-2.5-7.8c1.5-1.6 12.1-2.7 17.9-2.9 5.1-.2 32.2 0 32.2 0s16.2 1.1 16.5 2.3c.3 1.2.7 5.5-.8 6.8-1.4 1.4-14.9 3-15.7 3zm-374.6-20c2.2-2.7 56.4-6 68.2-4.9 8.8 1.8 21.4 8 20.4 9.8-2.7 4.6-39.1 31.9-46.4 35.4-16.3 7.8-30.8 9.5-41.7 10.3" class="haccord-OXYy5gET_svg__st2"/><path d="m291.1 28.6-13.5.4c-.4.8.4 3.5.4 3.5M16.6 210.9c1.2 9 15.4 12.7 23.4 14.1 1.1 1.4 5.3 6.7 5.3 6.7s-27.5-5.3-29.2-14.5M500 12.9s-84.6-.2-140.2 13c-55.9 13.2-135.7 39.6-155.2 50.7-17.6 9.4 41.7-2.2 55.5 4 18.1 8.1 36.5 12 74 13.8C346.2 93 500 98.5 500 98.5" class="haccord-OXYy5gET_svg__st3"/><path d="M426.8 299.3c-23.9-64.2-42.2-105.2-95.2-189.3 1.4-6.9 2.5-15.6 2.5-15.6l25.7-68.5M125.4 77.4c-5 4.7-12.6 9.9-15.8 11.2-5.9 2.5-58.8 11.6-62.3 14.8-1.9 1.7-9.1 9.4-10 10.2" class="haccord-OXYy5gET_svg__st3"/></g></svg>