<svg xml:space="preserve" id="haccord-mdZ7optI_svg__Calque_1" x="0" y="0" style="enable-background:new 0 0 500 375" version="1.1" viewBox="0 0 500 375" xmlns="http://www.w3.org/2000/svg"><style>.haccord-mdZ7optI_svg__st2,.haccord-mdZ7optI_svg__st3{fill:none;stroke:#fff;stroke-miterlimit:10}.haccord-mdZ7optI_svg__st3{stroke-width:.5}</style><g id="haccord-mdZ7optI_svg__Calque_2_00000007398166573968683450000008714117515399826608_"><path d="M0 237.2c3.9 3.5 26.4 25.7 33.3 81.7 24 2.9 439.6-1.3 439.6-1.3s-4-51.8 27-82.3" class="haccord-mdZ7optI_svg__st2"/><path d="M500 338.9c-5.2-3.3-25.1-19.4-27.2-24.2M0 339.7c2.6-1.2 29.8-21.1 31.6-32.1m91-185.9c19.3-11.1 42.6-23.5 64.5-31.8 50-19 128-16.7 128-16.7S435.4 75 500 96.3M0 155.2s71-6.9 76.2-7.1c2.4-.1 15-8.1 32.7-18.5" class="haccord-mdZ7optI_svg__st2"/><path d="m93.4 146.7-12.1 8.6 42.1-1.8 1-.9 5.7-.3s8.2-5.3 9.2-6.1 2.9-13.8 2.1-18c-.8-4.2-6.5-7.9-7.1-7.9s-10.9 0-17.4 3.9c-6.6 3.9-14.6 10.9-14.9 12.2s.6 5.3.5 5.9c-.1.6-1.8 3.6-2.4 3.9-.6.1-6.7.5-6.7.5zm189.3 30.4-28.2 1s-12.6-.5-13.5-1.4-1.6-4.1-1.3-5.2c.3-1.1 11.6-2.7 13-2.9 1.5-.2 29.3-1.2 29.3-1.2s12.6.1 14 1.4c1.4 1.3.1 5.5-1.3 6.1-1.5.6-12 2.2-12 2.2zM500 164.9s-27.2-.4-31.3 0c-4.2.4-14.9.7-15.1 2s0 4.9 1.8 5.7 11 1.6 12.8 1.7c1.8.2 28.3 0 28.3 0l3.5-.2" class="haccord-mdZ7optI_svg__st2"/><path d="M101.6 144c2.9 2.5 10.4 8.6 22.9 8.2M0 168.7c25-3.6 38.2-10.8 49-18.1m44.3-4.2 9.1-5.4m34.3-19.5s34.8-19.6 53.1-26.2 49.3-17.5 123.8-17.1c112.6 2.9 164 21.5 186.3 26.3m.1 110.1c-6.2 11.4-57.8 85.5-61.9 103.4M123.5 153.6l183.1-7.3L500 144M60.2 320c-7.6-30.5-23.3-74.4-18.5-109.6 6.1-26.4 13.2-41.9 39.6-55.2" class="haccord-mdZ7optI_svg__st3"/><path d="m313.6 78.2-7 68s-3.1 5.1-3.1 10.4c0 5.3-.5 131.7 5 162.4" class="haccord-mdZ7optI_svg__st3"/></g></svg>