<svg xml:space="preserve" style="enable-background:new 0 0 500 375" viewBox="0 0 500 375" xmlns="http://www.w3.org/2000/svg"><style>.haccord-zNA0vVT0_svg__st1,.haccord-zNA0vVT0_svg__st2{fill:none;stroke:#fff;stroke-miterlimit:10}.haccord-zNA0vVT0_svg__st2{stroke-width:.5}</style><g id="haccord-zNA0vVT0_svg__Calque_2"><path d="M259.8 299.5c5.8 5.5 12.9 9.7 19.9 12.4 20 7.9 43.6-14 55-42.9s11.2-60.1-14.7-65.6m122.1-20c2.8 1.2 6.2 1.7 9.8 2.3 10.2 1.6 17.8-10.4 22.8-27.5 3.7-12.6 5.7-26.6-.9-30.8" class="haccord-zNA0vVT0_svg__st1"/><path d="M339.2 255.3c9.9-6.8 104.1-72 109.9-77.6 7.3-16.5 16-42.2 25.5-51.6 9.2-9.1 5.3 7.5 3.5 14.2M339.9 252.1c1-4.2 8.1-17.6 7.2-34.7-1.4-26-26.7-19.5-45.4 0-14.9 15.6-37.2 60.8-42.9 85.3-1.1 4.8-78.8 33.3-101.5 34.6-22.8 1.2-52-14-60.1-19.1-33.8-21.1-49.5-42.2-54-48-4.5-5.8-10.9-20.2-11.6-22-.7-1.8-5.3-20.9-5-22 .3-1.1-6.4-17.7-6.7-20.2-.3-2.5 1.3-16.2 1.8-21s3.9-8.9 3.7-10.5c-.2-1.6-3.3-12.4-4.4-20.1-1.1-7.7 4.3-14.5 4.5-15.8-1.8-1.7-2.5-4.1-1.3-6.6s30.2-13.7 34.9-15.1 60.4-25.5 69.1-30.2 51-23.3 66.9-26.9c6.4-1.5 15.5-3.6 25-5.4 0 0 .4-.2.5-.1M448 97.5c-.9-.2-1.5-.4-1.7-.4-1.3-.3-17.2-24.1-25.9-30.1s-14.1-9.6-26.9-12c-12.8-2.4-50.8-4.7-71.7-5.4-20.9-.7-72 1.1-79.3 1.6-4 .3-8.2.6-13 1.5 0 0-.3 0-.4.2" class="haccord-zNA0vVT0_svg__st1"/><path d="M477.2 147.7c2.7-5.4 6.1-19.9 5.7-23.7s-.9-5.1-1.2-6 .8-4.5.2-5.6c-.6-1.2-8.5-7.1-10-8.3M69.5 187.5c-1.4 0 13.2 21.9 14.5 23.2 1.3 1.3 31.5 11.1 31.5 11.1l-2.2 6.1s-15.9.3-33.7-4.1c-1 .1 3.4 9.3 3.4 9.3s46.5 12.4 72.1 9.7c32.7-3.5 55.3-36.1 62.7-50.5-4-3-17.5-6.9-20.3-6.5-2.8.4-52 12.9-71.6 11.1-17.8-1.5-55.4-8.4-56.4-9.4zm292.7-38-6 .9-12 4.4s-5.8 3.4-6 3.9c-.2.4-.4 3.6.6 4.4.9.7 8.5-.9 10.2-1.7s13-4.8 13.7-6.2c.7-1.5.6-5-.5-5.7zm62.9-22.2h-3.4l-6.2 2.1s-3.3 1.9-3.6 2.6c-.4.9-.5 3.4.4 3.4s13.2-2.1 13.8-3.8c.6-1.5.1-4.3-1-4.3zm18.1-20.7s3.3.3 3.9.7c.6.4 1 .9 2.7 1.1 1.6.2 13.9 2.5 15.5 2s7.3-6.2 7-8.4-10.7-8.1-17-10c-4.8-1.4-5.4 1.3-6.2 2.6s-1.9 6.9-2 7.1c-.1.2-4.9-.4-4.9-.4l1 5.3z" class="haccord-zNA0vVT0_svg__st1"/><path d="M447.1 107c-.1-1.4.1-4.8.3-5.3m17.7 8.7c1.6-1.4 5.6-6 5.5-7.9-.1-1.2-6.2-6.2-7.1-6.7M79.1 224.1c-5.2-9.6-9-18.7-11.3-20.6-1.4-1.1-15.9-8.8-27.2-17.6-7.6-5.9-14.1-15.4-16.1-15.1m143.3 124.1s-5.3-3.5-5.9-3.5-21.7 1.4-29 0c-14.9-1.8-40.9-13.5-42.6-15.2-1.7-1.7-1.6.7-1.6.7s8.3 8.8 30.6 15.2c6.3 1.3 15.1 5.4 48.5 2.8zM294.1 76.5s-96.8 65.1-100.7 65.6c-3.9.5-15.2 1.4-23.1 0-15.9-2.8-82.7-22.9-83.8-26.7-1.1-3.7 6.1-9.4 8.1-10.3 2-.9 78.7-37.3 82.3-38.2 1.3-.3 16.4-2.9 36.4-1.6 33.5 2.1 78.9 9 80.8 11.2z" class="haccord-zNA0vVT0_svg__st2"/><path d="M193.4 142.1c-.8 5-4.5 18-7.2 21.6-1.9 2.5-46.5 21.8-49.9 24.8-3.4 3-12.9 8-20.5 33.1m-90.4-46.9c2.7 10.6 5.6 24 7.6 27.4s10.1 18.6 26.8 30.8c10.8 9.1 33.4 21.7 35.9 20.9s14-12.7 14.2-14.7 3.5-10.9 3.5-10.9m329.4-121.3s-119.4 28.7-135.2 34.9c-4.6.7-22.6-4.8-29-5.4-3.2.6-29 8.1-29.7 7-.2-.3-.2-1.5 0-1.8.4-.5 53.6-52.7 79-64.7 15.8-7.7 39.1-23 73.7-15.6 19.4 3.6 43.2 36.5 45.4 39.8" class="haccord-zNA0vVT0_svg__st2"/><path d="M356 243.3c-3-40-33.8-101.8-35.3-105.6-1.5-3.8-1.4-55.9-1.4-55.9m59.5-22.4 23 57.4s7 4 7.9 10.5c2.9 21-7 72.1-12.3 87.4m59.2-105.1c9.2 18.8.7 39-13.8 73" class="haccord-zNA0vVT0_svg__st2"/><path d="M481.6 117.6c-.8-2.1-3.8-6.9-2.4-7.8" class="haccord-zNA0vVT0_svg__st1"/><path d="M25.6 138.5c13.6 11 56.8 29.6 83.3 37.3 19.2 5.6 27.5 10.9 28.9 11.7m87.5-122.6c1-.2 17.6-4.2 17.7-5.4s-4.8-4.3-6.3-4.8-6.3-2.6-14.5-1.3c-3.3.4-1.4 4.9-1.5 6.3s-1.1 4-1 4.6c.1.3 4 .6 5.6.6z" class="haccord-zNA0vVT0_svg__st2"/></g></svg>