<svg xml:space="preserve" style="enable-background:new 0 0 500 375" viewBox="0 0 500 375" xmlns="http://www.w3.org/2000/svg"><style>.jgc21-2_5eHL-F_svg__st2,.jgc21-2_5eHL-F_svg__st3{fill:none;stroke:#fff;stroke-miterlimit:10}.jgc21-2_5eHL-F_svg__st3{stroke-width:.5}</style><g id="jgc21-2_5eHL-F_svg__Calque_2"><path d="M430.5 208c.7 8.3 10 9.7 24.4 12 8.6.8 13.9-18.9 17.3-29.6 4.6-18 5.3-32.4-.9-35.4-1.4-.7-3.6-1.6-6-1.9m-223 163.2c3.1 10.1 31.8 32.7 48.2 32 20.2-1.5 37.8-21.9 49.5-52.6 14.1-46 9-67.9-16.7-75.6-8.1-2.5-15.9-5.3-23.9-5.7" class="jgc21-2_5eHL-F_svg__st2"/><path d="M185.8 46.2c-31.7.6-56.8 1.9-65.2 2.8-16.8 1.7-64.7 8.3-69.8 14.2s-1.6 7.5-.6 8.1 10.2 4.2 10.2 4.2-29.7 39.1-34.9 51.7c-2.5 6.2-6.1 10-6.6 12.5s-1.2 6.3-2.9 11.1c-2.1 6.1-1.9 14.6-.9 17.5s10.4 18.9 12 21c-1 1.6-2.3 3.1-3.7 6.3-1.3 3-5.2 17-4.5 21.3.7 4.2 2.3 10.5 3 11.7s-2.9 6.1 2.3 15.2c-.3 1.4-1 2.7-1.2 3.8.4 2.6 53 63.9 73.8 82.7 6 5.4 29.3 11.3 57.1 10.1 25.4-1.2 82.8-17 90.9-25.8 8.1-8.8 21.7-50.3 24.1-56.2s12.9-35.9 32.6-45.5c21.6-7.1 37.7-15.5 41-12 5.1 4.7 6.5 30.1 5.1 52.7M439 110.5s-19.6-28.3-31.3-36.9-14.1-9.5-27.2-12.4m95.2 104.2s5.4-14.7 4.6-23.8c-.9-9-8.9-19.1-11.8-19.8-2.9-.7-9.1-1.4-9.1-1.4" class="jgc21-2_5eHL-F_svg__st2"/><path d="M347.5 258.2s89.9-55.7 96.5-57.1c6.6-1.5 19-48.5 23.2-51.8s10.8-4.8 11.4-2.3-2.8 17.6-2.8 17.6M436.5 121s19.4 2.4 21.1 1.2 4.1-4.2 5.1-7.8c.6-2.2.3-5-.4-6.2-.5-.9-3-3.3-9.2-4.2-5.1-.7-10.4-.8-11.8.7-1.5 1.5-3.2 8-3.2 9.8-1.3.3-3.1.4-3.4.8s.4 4.5 1.8 5.7z" class="jgc21-2_5eHL-F_svg__st2"/><path d="M457.3 122c1.7-2.6 4.7-8.6 3.6-12.8-.9-3.5-9.1-5.5-13.4-5.6m-7 17.6c-1.4-1-2.1-4.3-2.2-6.5" class="jgc21-2_5eHL-F_svg__st3"/><path d="M380.4 61.2s-42.7-6.1-80.6-9.7c-44.5-4.2-109.1-3.7-112.3-4s-2-2.2 2.2-5.1 8.9-4.7 18.8-4.1c10 .5 59 1.9 94.5 6 22.1 2.8 66.7 7.5 72.5 11.1 5.7 3.7 4.9 5.8 4.9 5.8z" class="jgc21-2_5eHL-F_svg__st2"/><path d="M187.4 44.1s-19.7-.4-21 .2c-1.3.5-2.6 2.3-2.6 2.3" class="jgc21-2_5eHL-F_svg__st2"/><path d="M164 46.8s-10.2-10-14.1-11c-4-1-15-2.7-16-.5s-.7 8-1.1 9c-.4 1-1.4 3.1-1.5 3.9" class="jgc21-2_5eHL-F_svg__st3"/><path d="M210.2 166.8c5-1.8 17.7 5.5-1.4 22.1-38.3 19.6-122.2 10.7-129 .7S71 177.4 65 176c-6-1.4-3.2-8.4 4.2-9.3 7.3-.9 39.7 15.1 141 .1zM425 134s-12 1.2-12.5 1.7-1 3-.3 4.1c.7 1.1 1.7 1.4 2.3 1.4.7 0 10-.7 11.6-1.6 1.4-1 1.8-5-1.1-5.6zm-65.3 11.5s-22.7 3-23.1 3.5-1.1 3.5 0 5c.6.8 3 2.3 4 2.2s19.5-2.6 20.4-3.3c1.5-1 3.5-7.5-1.3-7.4z" class="jgc21-2_5eHL-F_svg__st2"/><path d="M77.7 281.1c-.2 2.1.6 6.7 5 12.4 7.5 6.4 32.7 14.7 62 10.3-8.3-5.2-12.2-7-16.1-7.5-6.8-1.5-32.5-3.3-50.9-15.2zM60.8 75.4c2.9-4.2 94.9-9.5 120.3 2.4-3.1 13-15.7 45-23.3 58-6.3 9-16.1 10.8-21 11-35.9 3.4-112.2-4.8-111.6-18.9" class="jgc21-2_5eHL-F_svg__st3"/><path d="M165.5 73.5s-29 71.1-29.6 73.3c-2.1 9.7-9.7 21.4-9.7 23.1s1.9 3 1.9 3m-7.7.4c-1.4 1-8.3 7.1-4.1 12.3.4 1.2 1.2 13.5 1.2 13.5l-5.2 5.3c-1.7 11.3 10.3 33.2 11.1 36.6.7 3.3-10.2 13.4-13.8 20.5-5.1 10-8.5 17.8-21.3 14.5-20.9-5.3-63.9-43.5-69.5-58.9" class="jgc21-2_5eHL-F_svg__st3"/><path d="M107.8 264.9c-10.3-3.8-13.5-3.2-29.5-14.5-16.1-11.3-36-26.7-41.4-35.3-2.5-4-5.2-9.1-4.5-17.2.6-2.1-2.4-4.4-5-8.4m95.5 53c-6.4-.6-36.6-8.8-41.2-12.3-8.2-8.8-23-27.3-24.8-29-10.6-5.2-35.8-21.5-37.1-23.8" class="jgc21-2_5eHL-F_svg__st3"/><path d="M70 216.8s-1.1 5.6-1.3 5.3c-.2-.3-31.2-22-31.2-22l1-9.5M437.8 204c3.4-9.3 31-72.8 5.9-82.2m-46.2 105.8c1.8-6.6 25.7-90.8 2.5-100.7-3.8-14.5-16.6-53.7-19.2-56.3m-42.4 129.7c.2-8.6-7.2-53.1-18.3-64.2-1.2-13.4-11.3-66.6-11.9-67.9" class="jgc21-2_5eHL-F_svg__st3"/><path d="M443.8 122.5s-183.4 20.1-185.3 20.3c-9.2 1-17 .4-26.2-11.5-2.7-11.8-1-54.8-1.2-60.4 20.9-5.3 137.6-1.6 150.4-.2 13.1 1.4 22.7 2.3 31.9 12.6 11.2 12.3 24.5 31.3 24.5 31.3" class="jgc21-2_5eHL-F_svg__st3"/></g></svg>