<svg version="1.1" id="Calque_1" xmlns="http://www.w3.org/2000/svg" x="0" y="0" viewBox="0 0 500 375" style="enable-background:new 0 0 500 375" xml:space="preserve"><style>.st1,.st2{fill:none;stroke:#fff;stroke-miterlimit:10}.st2{stroke-width:.5}</style><g id="Calque_3"><path class="st1" d="M378.7 375c-15.6-8.8-40.9-23.2-42.8-25.2-2.2-2.1-4-5.4-5-8.3 12-7.2 21.3-15.2 26.6-23.4 11.3-17.4 41.3-99.9 45.6-108.5 2.5-4.9 18.4-45.9 29.1-61.1 9.2 1 24.3 2.9 32.3 5.2l1.5.3c11.1 3.1 15.8 24.2 14.1 54.1-.3 5.2-.8 10.6-1.5 16.3-2 16.8-5.7 35.5-11.2 54.9-12.1 43-29.5 78.6-45.3 95.7"/><path class="st1" d="m499.9 203.4-21.1 20.9c.7-5.7 1.2-11.1 1.5-16.3 7.3-23.9 14.4-78.7 7.1-86.4-11.9-5.2-38 8.9-51.7 22.8-1 1-2.1 2.3-3.3 4-10.7 15.1-26.6 56.2-29.1 61.1-4.3 8.7-34.4 91.2-45.6 108.5-5.3 8.2-14.6 16.3-26.6 23.4-13.5 8-30.2 14.8-48.2 19-34 8.1-114.6-24.9-137.1-35.8-20.1-11.7-99.1-78-111.6-99.5-5.6-6.8-24.2-76.6-20.4-88.5 6.3-10.2 16-18.6 21.9-25.8-4.6-12.8-2.9-29.7-2.9-29.7l2.5-1.2s-.8-2.9 0-6c8-9.1 27.4-17.8 46.5-24.8 53.5-17 161.5-26.6 184.9-27.4C276.1 14.1 302.4 0 302.4 0"/><path class="st2" d="m484.2 0-8.3 31.5s-75.1-6-83-4.7c-15.3-.9-54.8-8.3-126.3-5.2"/><path class="st1" d="M75.1 262.6c-20.2-17.6-38-35.4-40.5-40.8-5.4-11.6-20.2-67.8-17.5-70.8 1.7.9 21 11.5 43.8 20.6 29 11.6 61.8 20.6 67.4 31.6 8.4 13.2 21.6 99.7 7.5 99.3-6.6 3.9-37.1-19.5-60.7-39.9zM290.8 67.2c.5-2.6 0-4 0-9.9 5.7-10 23.4-24.4 55-25.8 75.3-5.9 154.1 9.2 154.1 9.2"/></g><path class="st1" d="M35.3 79.9c12.8-.3 123.1-9.2 123.8-9.3 10-1.1 194.9-6.8 208.3-2.3 8.9 3 8.9 28.9-29.4 51.8-45.9 13.2-152.2 5.4-164.4 11.4-11.4-29.8-11.1-53.9-12.2-61"/><path class="st2" d="M173.6 131.5c-13.6 4-21.4 21.7-28.8 22.7-7.4 1-100.3-20.1-104.9-23.9-2.2-6.6-2.9-15.6-4.1-19.5M79.4 210.9l-50.2-29.4 7.4 24.4L88 243.1zM312.8 245.5c9.8 6.6-15.4 64.7-25.3 67.6-17.3.8-61-2.2-89-11.2-6.9-2.8-7.8-48.7-9-64.4 42.8 8.2 116.6 2 123.3 8z"/><path class="st1" d="m497.6 0-5.4 39.4"/></svg>
