<svg version="1.1" id="Calque_1" xmlns="http://www.w3.org/2000/svg" x="0" y="0" viewBox="0 0 500 375" style="enable-background:new 0 0 500 375" xml:space="preserve"><style>.st1,.st2{fill:none;stroke:#fff;stroke-miterlimit:10}.st2{stroke-width:.5}</style><g id="Calque_2_00000031170199477610277330000013173548607395344550_"><path class="st1" d="M0 251s153.2 28.4 167.5 31.4c.8-.4 4.4-3.6 6.8-5.3 2.3 34.8 19.1 72.8 68.6 83.4 50.4 7.9 64-28.4 68.7-41.5 4.7-13.1 6.4-28.2 6.4-28.2 3.4.3 5.4.5 5.6.6 1.2.3 4.1 15.2 6.8 17.3 2.7 2.1 73.1 4.4 106.2-3.7 33.6-8.3 32.9-36.5 32.9-38.5 0-2.1 5.6-31.5 5.3-35.1s-2.8-11.4-14.6-28.3c3.4-7 17.5-27.4 18.7-36.8 7.9-32.4-38.4-80.6-54.5-103.1 1.6-1.1 9.8-4.8 12.7-9 .4-2-1.1-5.2-3.5-8.2-13.1-19.1-230.8-8.5-238.4-8.1C175.6 40 59.3 41.3 26.4 55.5 13 61 0 71 0 71"/><path class="st1" d="M167.5 282.4c-6.8-10 7.7-65.5 21.9-74.4 17.7-5.4 88.2 2.1 96.5 10.8 22.9 17.8 35.6 48.7 37.7 72.5M61.1 47.3c4.2-5.3 7.3-6.7 11.4-7.6 23.7-5.5 262.4-19 279.8-12.7 9.9 3.7 12.4 8.1 12.4 8.1"/><path class="st1" d="M174.4 277.1c.8-15.7 5.9-29.5 26.4-44.6s29-18.5 49.2-17.6 47.1 19.1 58.7 39c3.6 6.3 10.5 20.1 9.4 36.9M145.6 147.1c.5 3.4 1.5 6.9 5.6 7.4 6.1.5 35.6 1.6 38.1-.1 2.3-1.6 4.5-4.9 3.1-7.2-4.1-.7-41.5-.9-46.8-.1zM0 147c.7 1.1 1.4 2.2 4.3 2.3s22.7.7 25.7-.4c1.9-.7 2.9-3.4 2.7-6.2-8.8-.6-26.8-.3-32.7-.6M472.6 141.3c2.7 1.6 3.6 13.4-3 25.4s-73.9 8.1-81 4.3-18.2-10.7-16.8-16.8c1.5-6.1 16.1-5.7 16.8-5.4s62 .9 70.8-1.2c8.9-2 11.9-3.5 13.2-6.3zM470 249.6c.2-.1.5 6.3-2.4 10.7-3.3 4.9-16.3 10.8-22.8 9 0-.2 8.5-7.8 13.5-11 5.8-3.6 11-8.3 11.7-8.7z"/><path class="st1" d="M424.1 62.9c-4-5.3-8.1-6.7-20.1-3.4 4.4 6.4 53 80 58.1 87.5 6.8 5.9 3.7 12.6 2.6 23.2 12.9 3.4-5 28.9-9.8 38.6.1 3.1 10.9 14.8 12.2 17.3 3 6.5 2.7 13.8 7.1 9.9"/><path class="st2" d="M458.1 214.7c1.5-2.1 1.4-6.9 1.8-11.7M0 77.6c12.8-9.1 15.5-11.3 35.4-15.9 37.2-7.6 244.1-10.1 288.3-5.9 5.9 20.9 22.7 64.5 4.8 69.4-31.9 5.2-264.4.3-328.5 2.5"/><path class="st2" d="M57 261.6c-3-9-2.8-13.9-5.2-23.4-6.5-25.7-19.3-80.1-11.2-94.4 3.2-7 8.9-9.6 12.5-16.7 2.6-8.1 6.6-33.6 21.4-69.3M199.5 206.2c.3-8.7 1.2-19.7 2-25.7s8.3-46.2 10-52.8c-2.2-35.1-.7-66.7 0-73.8M357.5 29c5 .1 8.9-.1 10.9.4 1.1.1.8 5.1.7 5.9M447.3 124.7c5.9 0 19.9.8 19.9-3.6"/></g></svg>
