<svg xml:space="preserve" id="jgc21-KyUUVU2P_svg__Calque_1" x="0" y="0" version="1.1" viewBox="0 0 500 375" xmlns="http://www.w3.org/2000/svg"><style>.jgc21-KyUUVU2P_svg__st1{fill:none;stroke:#fff;stroke-miterlimit:10}</style><g id="jgc21-KyUUVU2P_svg__Calque_2_00000020364391857248929470000003587141141236549544_"><path d="M0 220.5c42.9-51.5 95.1-88.6 102-95.4 7.3-12.1 40.2-85.1 57.9-96.2 21.1-13.5 80.7-11 90.1-11s65.5-.2 82.7 7c21.6 5.5 58.9 90.1 64.1 98.3 8.4 11.1 68.7 53.4 103.2 97.4M0 300.2c17.8 13.1 34.3 17.9 44 20 10 2.2 101.3 7.5 206 8.5 6.4 0 194.7-3.2 210.6-9.8 6.6-1.9 26.5-9.3 39.4-20" class="jgc21-KyUUVU2P_svg__st1"/><path d="M0 325.6c4.8 3.3 26.4 16.7 34.6 20 8.1 0 11.4-23.1 11.7-24.9m453.7 4.1c-8.8 6.3-20.9 12.9-33.3 20-10.4 2.8-12.9-17.9-13.4-24.2M174.7 22.9c1-3.9 1.3-5 3.1-6.1 1.9-1 9.2-1.2 22.3 2.1m98.8.4c3.2-.9 17.6-4.8 21.8-2.9 4.1 1.9 3.8 3.8 3.9 6.1m59.6 75.7c.5-4.5.4-11.5 4.1-14.4s21.9-6.3 27.3 2.1.7 18.3-5.6 21.9c-6.4 2.1-17.4 4.4-18.7 4.7M115.9 98.1c-.3-2.9-.4-10.9-2.8-13.3-2.6-2.7-19.6-7.1-27.5 0-6.6 8.4-1.8 16 3.2 22.4 5.5 2.6 16.4 4.4 19.6 5.6" class="jgc21-KyUUVU2P_svg__st1"/><path d="M106 124.7c6.3-14.3 36-76 46-85 2.4-3.7 74.1-5.2 100.7-5s85.3 1.6 93.8 4.3c7.9 4.1 45.4 81.1 47.8 87-7.8 3.5-99.2-.5-144.4 0-38.1-.1-139.8 4.1-143.9-1.3zm87.8-104.9c-2 1.5-4.9 3.2-2.3 3.5 2.6.2 45.4.2 57.4.1s60.3 1 60.3-.5c0-1.2-1.4-2.2-2.3-2.8M85.2 102c3 1.2 14.8 5.8 18.3 5.3s9.3-3.2 9.3-3.2m303.4-2.8c-4.4 3-14.2 5.6-19.1 5.8s-10-3.1-10-3.1M34.4 345.7c10.3 6.4 22.2 18.4 30.3 29.3m401.9-30c-5.5 3.2-19.8 13.8-30.2 30" style="stroke-width:.5;fill:none;stroke:#fff;stroke-miterlimit:10"/></g></svg>