<svg xmlns="http://www.w3.org/2000/svg" viewBox="0 0 500 375" style="enable-background:new 0 0 500 375" xml:space="preserve"><style>.st2,.st3{fill:none;stroke:#fff;stroke-miterlimit:10}.st3{stroke-width:.5}</style><g id="Calque_2"><path class="st2" d="m-.5 277.1 1.8 2.1s-.8 13.5 0 18.8c.8 5.4 3.8 16.6 8.9 25.5.1 2.3 2.5 9.8 5.2 14-.2.7-.5 1.8.2 3.4 3.6 8.6 18.7 28.2 22.3 34.1M472.9 179.5l-3.7 4.1-11.2 14.2s-.8 5.7-.5 7 1.5 1.9 3.1 1.9 8.4-.7 12.2-4.1c3.8-3.4 8.5-8.5 7.2-15.6-1.3-7-7.1-7.5-7.1-7.5zM487.7 199.7s6.8 2.3 8.9 1.6c2.1-.7 3.8-4.9 3.8-4.9M416.8 374.9s24.9-60.6 25.6-72.4c.1-1.7.7-8.1-.4-8.9"/><path class="st2" d="M397.4 374.9S452 272.5 458.2 264c2.8-5 2.1-10 2.1-10s35.4-72.3 40.1-75.4M471.2 34.1c.6.1 1.1.2 1.7.3 21.8 4.4 26 15.4 28.3 21.8M436.7 29.3c-45.7-4.8-101.2-5.6-119.9-5.5-18.8.1-116.7 11.4-124.5 12.3-.3 0-.4.1-.4.1M.6 157.4s25.7-54 30.4-57.4c-3.7-2.5-11.9-4.6-15.6-9.6-.3-.7.8-10.5 6.2-15.1 4.9-4.2 28.1-15 65.2-21.7 20.3-4.4 45.8-8.8 72.5-12.8"/><path class="st2" d="M85.2 53.7c4.9-6.7 9.7-11.6 15.9-13.4 33.4-9.2 183.4-22.9 200.1-21.1 14.1.8 16 4.5 16 4.5M471.4 33.9c-9.7.3-47.1 9.2-85.4 21.1-35.9 11.2-73.2 25.3-95.7 35.5-4.6 0-9.1-2-9.6-3.8.7-2.2 7.1-12.9 15.4-18.1 35.4-17.9 136.2-39.9 157.5-42.1 11.1-.3 18.3-.2 17.8 7.4zM153.8 375s-59.2-29.8-63.4-35.6c-4.3-5.8-4.3-8.7 9-8.7 16.4 4.9 66.6 40.9 126.6 43.2 65.7 2.2 117-53.6 123.7-58.7s5.2 4.7 4.3 7.4c-.9 2.7-38.3 43.9-54.2 52.4"/><path class="st3" d="M0 209.1C7.2 225.6 89.5 324 235.5 320.9c52.8-5.2 46.6-103.7 61.7-155-131.5-2.7-216.8-45.8-264.9-65.8M1.6 279.2s38.8 56.7 85.6 95.8M156.5 58.9s13 2.6 16.1 2.5c3.1-.1 36.5-6.7 35.7-9.4-.7-3.6-17-18.9-25.4-19.6-8.4-.7-20.6 1-22.8 3.5-1.6 1.7.4 11.3-.6 14.2s-3.4 4.2-3.4 5.3c-.1 1.2-.2 2.9.4 3.5zM500 61.2s-1.9-11.6-11.1-10.8c-6.8 0-91.2 42.1-130.6 71.9 4.2 25.7 3.8 101.2 7.6 108.4 3.2 6.1 8.5 9.2 16.8 5.6S500 114.9 500 114.9"/><path class="st3" d="M427.4 79.7s11.2 57.2 12.1 99.9c1.5 4.5 20.9 33.7 20.9 74.5M480.4 53.4c4.8 9.2 12.8 64.4 11.6 70.2 3.1 3.3 4.9 7.9 8.1 14.6"/></g></svg>