<svg xml:space="preserve" style="enable-background:new 0 0 500 375" viewBox="0 100 500 210" xmlns="http://www.w3.org/2000/svg"><style>.jgc21-1j-oTPag_svg__st2,.jgc21-1j-oTPag_svg__st3{fill:none;stroke:#fff;stroke-miterlimit:10}.jgc21-1j-oTPag_svg__st3{stroke-width:.5}</style><g id="jgc21-1j-oTPag_svg__Calque_2"><path d="M388.4 225.4c6.5-3.8 14.9-6.1 25.3-6.1 20.6 0 43.2 19.3 43.2 41.1s-20.4 40.3-41 40.3-45.4-19.6-45.4-41.3c0-2.2.1-4.4.4-6.5M73.4 260c0 20.8 17.9 40 40.8 40s43.9-22.5 43.9-43.2-18.1-38-41-38-43.7 20.4-43.7 41.2zm205.9-73.9-26.6-1.2s-2.2-.1-.9 2.6c1.1 1.6 3 2.1 4.4 2.3s18.6.9 20 .8c1.9-.2 5-1.9 3.1-4.5zm-113.5-3s-23.7-.9-25.1-.9c-2 0-3.1 4.1.5 4.6 5.4.6 21.6.6 22.7.6 1.6.1 4.9-3.1 1.9-4.3z" class="jgc21-1j-oTPag_svg__st2"/><path d="M362.9 267.2s26.8-48.3 33.6-51c8.1-3.2 47.8-4.1 56.4 3.9 9.2 9.9 12.6 29.5 3.8 45.6.3 6.1 22.9-3.6 22.2-12.1-.5-2.7-2-3-2-3.8s.8-12.2.8-12.2 2.2-.9 2.6-5.4c.6-.8 2.9-1.5 1.5-8.6-.1-1 .6-5 .5-6-1.5-3.2-10.3-11.2-10.3-12.5s.9-11-.1-12.9c-1-1.9-11.3-8.3-14.1-9-14.6-4.9-71.3-15-105.1-15.7-4.6-3.2-42.4-26-55.3-32.2-10.8-5.3-21.3-9.6-40.1-10.2-10.6-.3-66.9-1.3-114.6-.9-36.3.4-67.6 2.1-70.2 2.5-6 .9-24.3 2.4-26.4 5.5-1.9 3.8-.9 4 3.8 6.4-3.8 3.7-26 33-27.9 36.5-.3.5.3 1.2.5 1.6-1 .6-2 1.6-2.5 2.5-.5.9.2 2.5.6 3 0 2.1-.1 2.7-.2 4.5 0 1-1.8 1.1-1.6 2.2.9 6.4 4.4 13.9 5.1 17.1-.4 2.2-3.5 4.3-4.4 6.7-.9 2.6-.8 11.2-.1 13.6 1 3.4-.3 4.2-.5 7.2 1.3 2 3.8 6.7 4.5 9.9-.9 2.2-.8 4.7-.3 5.5 1.8 2.3 6.4 7.6 47.5 12.4.5-2.7-8.3-29.4 14.5-47.7 14.1-3.5 43.2-1.7 50.9.6 2.6 3.1 15 11.5 28.3 50.3 30.5 1.4 189.2 2.2 198.6 2.7z" class="jgc21-1j-oTPag_svg__st2"/><path d="M340.2 174.6s2.4-1.5 2.6-2.9-.9-5.5-4.7-7.8-11.8-2.7-13.5-2.3c-1.7.4-2.9 3.6-2.9 4.1 0 .5-.7 11.2.3 13.1.6 1.1 7.7 0 13.4-.7 3.8-.4 6.9-.2 7-.7.2-1.3-1.5-2.6-2.2-2.8z" class="jgc21-1j-oTPag_svg__st2"/><path d="M339.6 174.7c-2.8 1.4-16.3 1.5-17.9 1.3" class="jgc21-1j-oTPag_svg__st3"/><path d="M472.2 195.5c-1.9 2.8-9.2 2-10.2 2.3-1.4.6 5.8 10.4 8.4 11s2.8-1.5 2.5-1.8m-451-30c3 .5 25.6 1.1 26.9 1.7 1.4.6 5.5 2.5-2.2 7.8-7.7 5.4-26.4.6-26.4.6m236.1-61.9c-1.2-.9-9.8-3.1-12.2-3.6-1.1-.2-44.2-2.1-85.5-1.9-38.6.2-75.6 2.5-76.6 2.6-2.1.2-6.4.6-9 4.4" class="jgc21-1j-oTPag_svg__st2"/><path d="M461.5 252.8c.2-.1 13.4 2.1 15.2-3m3.4-17.6c-1 .9-2.4 1.9-2.6 5.3M104.1 120.9c-1-.9-10.4-1.9-10.4.2m202.9 14.3s-1.8.3-2.6.8c10 4.9 51.3 29.4 65.6 42.2 2.5.6 12.3.7 12.9-3.1.2-5.8-17.8-7.3-20.1-7.4" class="jgc21-1j-oTPag_svg__st3"/><path d="M471.1 195.9c-.2-1.8 1.7-3.2-12-7.4s-79.8-7.6-81.6-7.7c-3.4-.2-7.8-.6-10-2.5M19.8 227.7c1.2 2 4.1 6.9 4.2 7.1.1.2-4-.3-5.2-1.1m31.6-94.9c1.1.3 2.7 1 4.4 1.6-17.3 18.8-22 28.6-27.4 26.9m300.3-6c-16.3-11.1-31.3-19.9-36.1-22.1-9.8-4.7-26.9-8.3-44-8.5-26.3-1.6-159.3 1.9-163.8 3.3-3.6 6.3-15.2 25.2-15.4 29.5.9 5 3.3 6 6.7 7.3 3.5 1.2 280.1 10.7 280.1 10.7" class="jgc21-1j-oTPag_svg__st3"/><path d="M350.7 267c3.8-12.6 16.5-70.8 4.6-85.4-4-3.2-8.2-6.5-12.5-9.6m-109.3-41.7s6 36.2 7.9 47.2c3.1 7.7 8.6 28.2 5.3 88.4M143 131.6s-8.4 33.3-10.7 41.8c-3.7 5.6-4 31.5-2.1 39.7" class="jgc21-1j-oTPag_svg__st3"/><path d="m370.4 262.2-4.1-.4M162 258.9h-3.7M73.2 260l-2.5 1.5" class="jgc21-1j-oTPag_svg__st2"/></g></svg>