<svg xml:space="preserve" id="jgc21-m2dDoMup_svg__Layer_3" x="0" y="0" version="1.1" viewBox="0 0 2048 1536" xmlns="http://www.w3.org/2000/svg"><style>.jgc21-m2dDoMup_svg__st0,.jgc21-m2dDoMup_svg__st1{fill:none;stroke:#fff;stroke-width:4.6183;stroke-linecap:round;stroke-linejoin:round;stroke-miterlimit:10}.jgc21-m2dDoMup_svg__st1{stroke-width:2.4266}</style><path d="M0 253.6c45.7-22.9 170.6-53 256.4-63.1s1148.3-84.9 1791.6-45.7" class="jgc21-m2dDoMup_svg__st0"/><path d="M210.8 197.1c13.2-15.2 25.6-38.8 103-47.9 180.4-21.3 1132.7-76.5 1474.1-64.1 75.9 2.8 103.4 15.5 143.9 54.1" class="jgc21-m2dDoMup_svg__st0"/><path d="M395 179.5c21-12.4 40.3-26.1 84.4-30.2 264.6-24.1 941.3-52.1 1111.5-43.8 39.3 1.9 57.7 3.9 71.5 9.4s31.2 18.6 31.2 18.6M0 296c77.2-24.6 155.5-43.4 336.7-42.4s532.6-15.6 714.5-12 487.9 13 642.5 21 311.5 5.2 354.3 38.9" class="jgc21-m2dDoMup_svg__st0"/><path d="M0 273.2c77.2-24.6 152.7-42.2 333.8-44 187-1.8 535.5-17.9 717.4-14.3s487.9 8.5 642.5 16.4c154.6 8 318.8 9.7 354.3 29.5M0 615.2c256.4 11 1618.4 68 1704.1 63.7 62-3.1 88.4-41 99.5-57.3s4.7-42.3.1-57.6c-4.6-15.2-71.2-219.1-101.3-301" class="jgc21-m2dDoMup_svg__st0"/><path d="M0 631.8c132.7 5.1 889.5 41.9 1044.3 47.4s592.6 22.2 643.4 21 76-7.8 101.2-29.5 55.1-45.8 47.3-86.5-80.4-252.1-105.8-319.9M0 1240.4c108 29.1 659.2 174.8 772.9 208.8 5.6 1.7 10.6-5.6 14.6-11.1s58.8-78.2 58.8-78.2" class="jgc21-m2dDoMup_svg__st0"/><path d="M772.9 1449.3c-13.2-10.6-.6-69.9 10.8-99.8s51.4-147.5 90.6-205.2c11.3-16.7 48.6-48.6 113.2-43.3s326.4 46.9 426.3 71.3c66.5 16.2 116.6 63.9 151.9 108.6 35.3 44.6 103.9 177.3 113.2 255.2" class="jgc21-m2dDoMup_svg__st0"/><path d="M1119.7 1118.7c-66.9 13.4-126.1 45.6-166.6 85.8-34.9 34.7-98.9 126.8-116.8 179.1s-16.5 124.3-5.7 152.4m542.1-372.9c99.5 46.4 246.1 193.5 236.9 372.9m.4-19.1 68.5 15.9" class="jgc21-m2dDoMup_svg__st0"/><path d="M0 1177.5s684.4 175.8 695.4 177.9 19.3 2.6 22.6-8.7 36.8-150.7 78.6-222.7c41.7-72 102.8-98.8 194.7-97.9s380.9 52.8 452.9 69.8 127.7 56.5 179.6 119.2 109.9 170.3 142.4 320.8" class="jgc21-m2dDoMup_svg__st0"/><path d="M236.6 255.4C205.4 311.8 131 543.8 113.8 620m168.5-389.8c-2.3 4.5-3.8 12.8-4.1 23.8-25.9 63.4-78.7 221.3-109.5 368.3-4.9 3.7-6.4 10.5-6.7 16.6-17.5 17.4-51.1 62-59.8 73.6-2.8 3.7 1.6 12.2-1.2 23.8s-19 89.3 0 186.6 39.6 154.9 65.2 205c10.9 21.3 10.1 43.1 5.5 51.5-4.6 8.3.3 14.5 3.6 22.9 3.2 8.3 5.9 15.9 6.7 21.9-3.1 9.7-5.1 10.6-1.5 20.8 3.5 10.1 8.9 23.3 12.2 33.3" class="jgc21-m2dDoMup_svg__st1"/><path d="M0 1227.3c101.8 28 679.2 176.8 767.4 205.9M323.8 253.6c-34.5 117.2-64.9 236-83.6 371.8m602-382.4c-35.2 106.4-81.5 313.2-95.3 403.1m113.3-403.5c-38.9 113.1-84.1 345.3-95 404.2m219.9-405.7c-7.6 80.2-9.6 312.6-8.3 414.1m54.2-440.8c-1.4 3.6-1.4 18.3 0 26.9-.4 55.2.2 274.9 9.7 416.4V679c-7.5 44.1-16.2 98.2-16.7 106.5-.6 9.7 2.8 15 0 28.1s-27.2 119.3-32.9 153.5c1.3 21.9-2.6 58.9-2.6 58.9-4.8 16.8-10.9 56.6-10.1 74.4m595.1 62.7c63.4 6.4 115.4 9.5 162.6 5.6s110.2-18.9 163.7-60.6 107.6-90.5 148.2-123.5m0-145.5c-15.9 13.1-25.5 28.4 0 59.4m-765.5-88.7c-.9-25.3 9.1-46.1 48.4-45.7 39.3.5 177.9 6.4 218.3 14.6 36.1 7.3 34.3 37 32.4 53-1.8 16-7.2 81.7-8.2 98.6s-6.9 32-40.2 32.4c-33.3.5-202.8-22.8-222.4-26.9s-42.1-5.6-38-41.7c4.2-36 10.7-58.3 9.7-84.3m-554-52.8c.9 4.3 13.2 5.6 29.6 7 16.4 1.3 82.7 3.6 93.4 0 26.1-.2 57.5.9 74.6 4.1 10.5 2 11.1 11.1 10 17.6s-1.3 29.6-35.7 32.6-155.3-4.2-193.7-11.3c-38.4-7-38.4-31-36.6-41.8s13-12.2 20.7-11.7c12.5.9 25.4 2.3 37.7 3.5" class="jgc21-m2dDoMup_svg__st1"/><path d="M728.5 757c10-12.6 36.9-24.9 60.6-24.7s45.1 5.7 62.4 31.6m-127 45.7c0 8.6.8 25.8 29 33.8 28.2 8.1 65.3 5 89.5-25.2M0 701.4c7.8-2.1 44.7-1.8 53.8 2.7s8.6 32.5-8.2 36.4-45.6 3-45.6 3" class="jgc21-m2dDoMup_svg__st1"/><path d="M901.8 1536c-14.1-89 43.8-225.6 242.9-210.8 178.7 13.3 288.6 164.2 313.4 210.8" class="jgc21-m2dDoMup_svg__st0"/></svg>