<svg xml:space="preserve" id="jgc21-zkvFMHnS_svg__Calque_1" x="0" y="0" style="enable-background:new 0 0 500 375" version="1.1" viewBox="0 0 500 375" xmlns="http://www.w3.org/2000/svg"><style>.jgc21-zkvFMHnS_svg__st1,.jgc21-zkvFMHnS_svg__st2{fill:none;stroke:#fff;stroke-miterlimit:10}.jgc21-zkvFMHnS_svg__st2{stroke-width:.5}</style><g id="jgc21-zkvFMHnS_svg__Calque_2_00000110455256398871394270000017111246539998867857_"><path d="M126.7 37.4c5.5-.4 8.3-.6 10.2-.7 11.1-.8 91.2 5.6 97.2 7.1 5.6 1.3 13.2 3.2 25.2 9.3 16.6 7.6 58.8 42.9 66.2 50.6 12.1 3.1 95.1 19.4 113.8 24.9 16.1 5.2 32.2 19 33 20.8.5 2.1-.3 18.5-1 24 3.4 3.7 14.9 18.1 13.3 26.4-1.6 8.4-15.4 47.6-17 52.6-1.6 5-48.9 58.9-60.7 65.9-11.8 7.1-48.4 23.8-73.6 20.4-25.1-3.4-40.2-18.4-40.2-18.4s-14.7-62.6-30.9-84.2c-14.4-19-59.9-41.7-72.7-37.9-13.9 8.6-16.4 54.4-11 60.1 3.3 2.8-78.6-50.9-114.3-74.7-.9-2-16.2-36.3-21.7-48.4-2.7-5-13.8-8.9-14.3-7.7-.7 3.5 2.7 22.3 2.7 23.7s-13.9-49-9.3-59.5c6.2-9.1 9.8-30.8 18.2-41.4 5-4.9 35.9-8.6 61.4-10.9" class="jgc21-zkvFMHnS_svg__st1"/><path d="M405.1 191.5c1.6 1.9-3.8 20.3-15.8 25s-70.3 6.8-73.6 4.7c-3.2-2.2-20-17.1-16.6-24.1 2.1-5.6 10.2-1.6 22.6-.1 12.5 1.4 68 .1 83.4-5.5zm-90.5-97.7c.6-4.6-.5-7.4-2.9-9.4-2.5-2-8.7-3-11.1-2.3m-75-39.4c-1.3-1.6-3.2-2.6-6.4-2.8-3.2-.2-18 0-20.1.4m-98-.9c1.1-.1 17.7.4 19.1.6s6.3-1 8.1-1.4c.3-.1-4.7-3.2-9.6-4.3s-33.6 1.3-44.2 2.8c-10.6 1.6-24.5 4.5-25.7 6.3s-1.3 2.7-1.3 3.5m113.4 74.4s-6-1.5-7.1-1.5-36.1-.3-39.7-.7-6.7-.5-8.9-3.1-6-13.4-4.1-17.2 10.1-6.2 17.5-6.8c7.1-.6 16.3-1.1 21.9 2.5s9 14.4 8.7 15.2c-.2.3-.5 1.9-.6 2.2 1.1.1 3.1-.1 6.2 1.1s4.2 3.1 4.6 4.1c.4 1.1 1.5 4.2 1.5 4.2zm-57.9.7c.2.2.7 3 .4 3.7-.2.5-1 1-1.7 1.1-.8 0-12.4-1.3-14.4-3.6-.3-.3-1.3-3.1-1.2-3.7.3-1.6.4-2.5 2-2.7 1.7.3 4.4.8 4.9 1.3.6 1.1 4 2.7 6.7 2.3 2.4.3 3.3 1.6 3.3 1.6zm-49.6-15.6c0 .1.7 3.3-.4 3.6-1.3.5-10.1-.3-10.6-2.4s-.9-3.9.4-4.2c1.2-.3 4.6-.5 5 .6.5 1 2.9 1.5 4 1.6 1.2.1 1.5.5 1.6.8zm419.1 46.8c-2.7 4.9-42.2 32.6-67.3 38.3" class="jgc21-zkvFMHnS_svg__st1"/><path d="M344.2 197.5c-.8-6.3-4.1-13.6-24.8-24.6s-130-42.6-131.7-47.7M295.1 322c-8.8 9.8-25.5 22.8-31.5 25.8s-11.5 7-20.6 4.7-28.9-8.6-50-46c-21.6-45.1-12.2-68.8-8.6-75.7.6-1.4 7.8-9.9 10.1-10.8 6-2.6 27.7-11.7 30.1-11.6M80.1 194.1c-.7 2.5-1.3 5.9-3.4 7.6-2.1 1.7-15 6-22.1 6.2s-11.1-9.8-11.1-9.8-8.2-16.6-10.1-28.1c-1.3-7.5-3.8-21.3-.6-28.8 2.1-3.3 9.9-3.5 10.8-3.6" class="jgc21-zkvFMHnS_svg__st1"/><path d="M325.7 105.7c-4.3-3.7-52.4-45.1-63.1-49.9-10.7-4.8-113.2-7.4-123.2-2.6-3-.1 35.1 62.8 38 70.1 7.4 7.9 90.4-10.1 96.4-10.9 6-.8 39.8-5 51.9-6.7zm158.4 95.8c-4.4 4.7-38.3 39.8-62.7 58.2-3.2 4.9-10.5 31.7-11.9 46.7.6 16 56.7-50.7 57.7-53.3" class="jgc21-zkvFMHnS_svg__st2"/><path d="m472.8 227.1-29.6 30.5-5.8 15.7 30.2-32.5zM144.3 98.3c.7-1 2-10.3 2-10.3-.9-4-11.2-27.4-23.1-33.7-11.8-6.3-55.3-3.4-81.9 2.6-5.7 14.8-10.3 25.4-8.9 31.2.9 1.9 67.4 18.3 68.9 18.5m369.8 66.3c-.9 5.6-3.1 14.1-4.5 15.8-1.4 1.6-41.9 38.4-56.2 42.2-5 2.3-10.1-11.5-19.6-15" class="jgc21-zkvFMHnS_svg__st2"/><path d="M165.6 250.1c-1.8-11.7-12.4-93.3-5.9-107.7s7.3-13.4 7.7-15.6c.4-2.2-29.8-70.5-43-76.5-15.1-6.8-45-2.1-63.9.3-2.5 4.3-11.8 38.3-12.2 42.1-7.8 9.6-10.3 20.1-9.6 38.3" class="jgc21-zkvFMHnS_svg__st2"/><path d="M98.3 46.9c-.4 5.4-9 42.3-7.9 56.9-1.2 1.9-3.4 4.3-6.9 13 .4 3.9.9 30.8 15.9 90" class="jgc21-zkvFMHnS_svg__st2"/></g></svg>