<svg xml:space="preserve" style="enable-background:new 0 0 500 375" viewBox="0 0 500 375" xmlns="http://www.w3.org/2000/svg"><style>.jgc21-s7WDTRmE_svg__st2,.jgc21-s7WDTRmE_svg__st3{fill:none;stroke:#fff;stroke-miterlimit:10}.jgc21-s7WDTRmE_svg__st3{stroke-width:.5}</style><g id="jgc21-s7WDTRmE_svg__Calque_2"><path d="M203.6 266.1c3.3 50.1 48.3 90.9 99.4 90.9s92.8-34.9 92.8-85.1c0-57.8-41.9-105.5-99.4-105.7-57-.1-96.2 48.7-92.8 99.9z" class="jgc21-s7WDTRmE_svg__st2"/><path d="M.1 254.9 184 271.1c2.5-1.9 7.8-9.8 13-12.3 2.8-1 6.3-.3 6.3-.3m191.8 24.9c10.9 7 45.4 5.5 59.6-5.3 12.4-9.1 17.1-14 20.8-31.3.5-3.1-1.5-6-1-7.7 1.1-7.2 10.3-29.5 13.1-47.6s1.9-20.2 1.4-25.3c-3.6-5.8-20.7-23-21.4-23.4 0-4.5 5-29.1-.3-34.5-4.5-4.7-17.7-12.3-29.5-16.1-52.4-17.9-188.6-21.3-212.2-22.3C203.5 52.9 125.3 11.1 100 0" class="jgc21-s7WDTRmE_svg__st2"/><path d="M405.9 286.9c13.8-35.6 7.1-94-26.7-125.2-27.3-14.4-129.2-17.9-144.6-5.9-14.9 11.5-52.1 80.5-50.8 115M132.4 64.2c0 3.8-14.3 5.2-28 4C90.6 67 48.7 58 45.1 57.4c-5.6-1-15.3-28.3-9.2-35.8 18.6-11.2 66.3 2.4 75.4 9.6 3.9 3.1 11.1 11.8 9.7 18.1-1.2 4.6-6.1 6.4-6.7 7.5 1.2.3 11.4 1.8 14.2 3.1.8.4 3.7 2.4 3.9 4.3zm335.2 78.4c-3.5.3-18.5 1.8-24.2-2.4-5.7-4.3-29.2-24.7-24.6-29 4.7-4.3 48.8 1.5 50.6 3.5" class="jgc21-s7WDTRmE_svg__st2"/><path d="M113.9 57c-12.2 0-58-11.4-75.1-7.9M97 24.5C76.3 9.7 61.4 0 61.4 0m92.5 268.5c.6-50.3-1.6-181.4 3.5-194.6-11.6-11.3-24.8-22.4-37.6-32.4m37.4 32.2L0 70m225.4 0s-39.1-.5-52.2-1C152.6 48.9 87.9 5.3 76.7 0m404.6 200.2s-1.1 8.1-4.6 12.1c-3.3 3.9-14.9 5.9-14.9 5.9s.1-8.7 2.7-11.5c2.5-2.9 10.4-1.3 16.8-6.5z" class="jgc21-s7WDTRmE_svg__st3"/><path d="M452.5 111.4s.2-2.9 0-5.2c-.2-2.2-13.8-11-39.1-16.8-27.1-6.2-203.4-15.3-207.5-15.7-5.1-.5-10.2-2-12.4-4.2" class="jgc21-s7WDTRmE_svg__st3"/></g></svg>