<svg version="1.1" id="Calque_1" xmlns="http://www.w3.org/2000/svg" x="0" y="0" viewBox="0 0 500 375" style="enable-background:new 0 0 500 375" xml:space="preserve"><style>.st1,.st2{fill:none;stroke:#fff;stroke-miterlimit:10}.st2{stroke-width:.5}</style><g id="Calque_2_00000081635668517147655680000016976085372847535547_"><path class="st1" d="M95.3 293c-3.4 9.8-14.5 31.8-23.1 40.8-13.5 17.7-31 29.9-72.2 28.1M.7 218.5s5.4-2.5 17.7-2.3c11.3.2 18.1 1.5 23.2 3.5"/><path class="st1" d="M0 211.1s24.9-1.8 32.4 2.9c23.3 7.6 55.8 73.3 68.7 85.6 4.9.5 78 .8 159.8 2.2 96 1.6 201.2 3.9 206.6 2.6 7.3-2.9 25.5-32.1 32.4-36.7M35.9 152c-1.1 2.4 2.6 6.5 4.6 7.5 1.9 1 47.3 3 49.9 1.1s3.7-4 2.9-7c-1.8-1.3-56.5-2.6-57.4-1.6zM263.1 157c-1.7 4 .5 6.7 4.1 8.1s45.2 3.3 48.3 1.4c3.1-1.9 6.6-4.9 3.4-7.5-11.5-.5-39.6-2.2-55.8-2zM447.8 122c12.2 9.1 21.8 16.6 26.9 21 4.1-.6 11.2-.6 13.7 0 1.5.2 10.1 2.5 11.7 2.7M0 35.1s249.6-4.1 289.4 4.1c38 2.9 97.8 39.7 140 69.5"/><path class="st1" d="M0 26.9s217.5-4.8 240.1 0 29.7 7.4 34.5 10.5M500 125.9s-49.4-5.9-52.6-5"/><path class="st1" d="M415.3 108.4s-3.5 22.7-3.8 33.7c.3 2.6.6 3.6.6 3.6s12 1.4 16.9 0 9.3-2.9 11.9-4.8.1-3.9.1-4.5 5.9-3.1 7.3-5.8c1.4-2.6.6-12.5-8.1-17.8s-21.5-5.7-24.9-4.4z"/><path class="st2" d="M412.7 145.4c1.7.9 3.8-6.3 4.6-16.8.8-10.5 1.5-20.3-1.7-20.3"/><path class="st2" d="M441 136.3c-1.7 1-4.7 2.9-10.5 3-5.9.1-14.2.1-14.9 0M0 127l403.1 14.6-5.5-38.8s-53.7-41.6-94.4-46.9C246.6 43.7-.5 53.7-.5 53.7"/><path class="st2" d="M22 211.3s-13.2-46.1 5.4-82.6c4.1-20 14.9-73.7 18.2-82.3M446.6 132.6c9.1 7.2 15.9 12.7 19.7 15.2 27.4 22.2 5.3 96.1-22.6 156"/><path class="st2" d="M0 48.2S258.4 38 306.1 51.5c33.7 4.8 75.8 32.1 108.8 56.7"/><path class="st2" d="M251.5 301c.9-22 11-106.5-10.1-165.2-5.3-24.9-14.9-90.8-14.9-90.8"/><path class="st1" d="M472.7 300.3c1.6 4.2 4.1 10.5 8 16.5 4 6 16.7 18.4 19.3 20.2"/></g></svg>
