<svg xmlns="http://www.w3.org/2000/svg" viewBox="0 0 500 375" style="enable-background:new 0 0 500 375" xml:space="preserve"><style>.st2,.st3{fill:none;stroke:#fff;stroke-miterlimit:10}.st3{stroke-width:.5}</style><g id="Calque_2"><path class="st2" d="M111.6 225.4c-6.5-3.8-14.9-6.1-25.3-6.1-20.6 0-43.2 19.3-43.2 41.1s20.4 40.3 41 40.3 45.4-19.6 45.4-41.3c0-2.2-.1-4.4-.4-6.5M426.6 260c0 20.8-17.9 40-40.8 40s-43.9-22.5-43.9-43.2 18.1-38 41-38 43.7 20.4 43.7 41.2zM220.7 186.1l26.6-1.2s2.2-.1.9 2.6c-1.1 1.6-3 2.1-4.4 2.3s-18.6.9-20 .8c-1.9-.2-5-1.9-3.1-4.5zM334.2 183.1s23.7-.9 25.1-.9c2 0 3.1 4.1-.5 4.6-5.4.6-21.6.6-22.7.6-1.6.1-4.9-3.1-1.9-4.3z"/><path class="st2" d="M137.1 267.2s-26.8-48.3-33.6-51c-8.1-3.2-47.8-4.1-56.4 3.9-9.2 9.9-12.6 29.5-3.8 45.6-.3 6.1-22.9-3.6-22.2-12.1.5-2.7 2-3 2-3.8s-.8-12.2-.8-12.2-2.2-.9-2.6-5.4c-.6-.8-2.9-1.5-1.5-8.6.1-1-.6-5-.5-6 1.5-3.2 10.3-11.2 10.3-12.5s-.9-11 .1-12.9c1-1.9 11.3-8.3 14.1-9 14.6-4.9 71.3-15 105.1-15.7 4.6-3.2 42.4-26 55.3-32.2 10.8-5.3 21.3-9.6 40.1-10.2 10.6-.3 66.9-1.3 114.6-.9 36.3.4 67.6 2.1 70.2 2.5 6 .9 24.3 2.4 26.4 5.5 1.9 3.8.9 4-3.8 6.4 3.8 3.7 26 33 27.9 36.5.3.5-.3 1.2-.5 1.6 1 .6 2 1.6 2.5 2.5.5.9-.2 2.5-.6 3 0 2.1.1 2.7.2 4.5 0 1 1.8 1.1 1.6 2.2-.9 6.4-4.4 13.9-5.1 17.1.4 2.2 3.5 4.3 4.4 6.7.9 2.6.8 11.2.1 13.6-1 3.4.3 4.2.5 7.2-1.3 2-3.8 6.7-4.5 9.9.9 2.2.8 4.7.3 5.5-1.8 2.3-6.4 7.6-47.5 12.4-.5-2.7 8.3-29.4-14.5-47.7-14.1-3.5-43.2-1.7-50.9.6-2.6 3.1-15 11.5-28.3 50.3-30.5 1.4-189.2 2.2-198.6 2.7z"/><path class="st2" d="M159.8 174.6s-2.4-1.5-2.6-2.9.9-5.5 4.7-7.8 11.8-2.7 13.5-2.3c1.7.4 2.9 3.6 2.9 4.1 0 .5.7 11.2-.3 13.1-.6 1.1-7.7 0-13.4-.7-3.8-.4-6.9-.2-7-.7-.2-1.3 1.5-2.6 2.2-2.8z"/><path class="st3" d="M160.4 174.7c2.8 1.4 16.3 1.5 17.9 1.3"/><path class="st2" d="M27.8 195.5c1.9 2.8 9.2 2 10.2 2.3 1.4.6-5.8 10.4-8.4 11s-2.8-1.5-2.5-1.8M478.1 177c-3 .5-25.6 1.1-26.9 1.7-1.4.6-5.5 2.5 2.2 7.8 7.7 5.4 26.4.6 26.4.6M243.7 125.2c1.2-.9 9.8-3.1 12.2-3.6 1.1-.2 44.2-2.1 85.5-1.9 38.6.2 75.6 2.5 76.6 2.6 2.1.2 6.4.6 9 4.4"/><path class="st3" d="M38.5 252.8c-.2-.1-13.4 2.1-15.2-3M19.9 232.2c1 .9 2.4 1.9 2.6 5.3M395.9 120.9c1-.9 10.4-1.9 10.4.2M203.4 135.4s1.8.3 2.6.8c-10 4.9-51.3 29.4-65.6 42.2-2.5.6-12.3.7-12.9-3.1-.2-5.8 17.8-7.3 20.1-7.4"/><path class="st3" d="M28.9 195.9c.2-1.8-1.7-3.2 12-7.4s79.8-7.6 81.6-7.7c3.4-.2 7.8-.6 10-2.5M480.2 227.7c-1.2 2-4.1 6.9-4.2 7.1-.1.2 4-.3 5.2-1.1M449.6 138.8c-1.1.3-2.7 1-4.4 1.6 17.3 18.8 22 28.6 27.4 26.9M172.3 161.3c16.3-11.1 31.3-19.9 36.1-22.1 9.8-4.7 26.9-8.3 44-8.5 26.3-1.6 159.3 1.9 163.8 3.3 3.6 6.3 15.2 25.2 15.4 29.5-.9 5-3.3 6-6.7 7.3-3.5 1.2-280.1 10.7-280.1 10.7"/><path class="st3" d="M149.3 267c-3.8-12.6-16.5-70.8-4.6-85.4 4-3.2 8.2-6.5 12.5-9.6M266.5 130.3s-6 36.2-7.9 47.2c-3.1 7.7-8.6 28.2-5.3 88.4M357 131.6s8.4 33.3 10.7 41.8c3.7 5.6 4 31.5 2.1 39.7"/><path class="st2" d="m129.6 262.2 4.1-.4M338 258.9h3.7M426.8 260l2.5 1.5"/></g></svg>