<svg version="1.1" id="Calque_1" xmlns="http://www.w3.org/2000/svg" x="0" y="0" viewBox="0 0 500 375" style="enable-background:new 0 0 500 375" xml:space="preserve"><style>.st1,.st2{fill:none;stroke:#fff;stroke-miterlimit:10}.st2{stroke-width:.5}</style><g id="Calque_2_00000090989842029549688630000013240342862851896969_"><path class="st1" d="M46.6 231.6s-8.4-50.8-4.4-57.4c2.2-4.5 33.8 3.4 41.8 13.3 17.2 20.9 48 119.6 60.5 129.7 21.5 20.3 91.5 38.7 122 38.7 30.4 0 70-7.2 79.2-16.7s106-89.9 106-89.9 6-3.5 6.6-6.1 4-16.6 3.5-24.6c-.6-8 1.7-17.3 1.7-22.5s-5.2-21.2-5.2-21.2-8-11.5-8.9-13.2c3.7-7.7 12.9-24.2 14.7-30.7 3.7-18.7-21.3-76.4-55.2-106.9 11.5-9.8 9.8-13.3 3.2-24.2M0 211.8l47.2 37M0 69.8s10.8-24.4 22.7-34.2S79.8 3.1 87.1 0"/><path class="st1" d="M79.4 0c-2 1.2-33.1 18.1-34 19.2s-2.9 3.7-2.9 3.7M34.3 118.4s8.1.1 11.4-.5c3.3-.6 7.6-5.4 6.1-9.4-5.1-.5-20.4-.5-22 0-1.3 1.4-3.8 7.2-1.9 8.2s6.4 1.7 6.4 1.7zM0 220.8c.8-.3 2.9-.5 4.4-5.6M164.8 330.2c-1.6 6.7-7.3 12.3-10.8 15.8s-42.4 26-52.7 25.7c-14.3 1.1-40.9-38.1-47.5-80.4s-12.7-70.7 1.6-86.9C62.6 197.3 89 195 89 195M376.1 98.3c-10.4-5.9-202.1-9.7-211.3 0s3.4 27.6 8.4 30.1c20.3 8.2 171.9 7.5 182.5 1.8 4.1-.5 10.4-12.7 14-15.6s13.3 0 15.2-2.7c1.8-2.7 3.4-10-8.8-13.6zM264.4 297.3c10.4 6 75.9 2.1 97.2-12.9 10-9.9 8.4-19.7 8.4-19.7-43.2 17.6-79.6 17-89.3 21.9s-15 8.9-16.3 10.7zM462.3 207.2c-3.6 4.7-5.4 5.5-6.1 6.4 1.3 4 2 4.9 3 5.3 2.5-1.1 2.5-6.4 2.5-6.4"/><path class="st1" d="M449.4 161.8c-.8 12.4-5.4 24.8-10.8 34.3-26.5 17.9-89.4 44.5-118.8 47.3-7-11.8-22.1-34.8-25.7-41 1.5-12.9 18.7-64 2.6-68.2-.1-1.1.2-22.8.5-23.6 2.4-9.1-4.4-14.7-7.9-17.9-1.5 0-8.9-.6-11.4-.6C279.1 73 246.4 0 246.4 0"/><path class="st2" d="M294.1 202.5c10.3 1.5 64.6-5.4 68.5-9.4 12.6-13 28.3-38.6 32.9-40.8 4.5-2.2 48.9-9.4 60.8-11.6 1.6.6-7.4 20.2-11.3 26.4 0 .9 4.5-5.8 4.5-5.8"/><path class="st2" d="m381.6 169.1 3.3 18.4 49.9-16.6-3.6-22.3-39.6 7.3M370.4 264.4c10.8-3.1 62.1-32.2 85.6-51M369.1 272.6c8-2.5 36.7-19.1 46.1-25.6 10.4-7.2 35-23.2 41.9-31M269.5 57.5c13.1 1.1 142.2 12 178.9 23.7-8.6-18.7-40.1-56-47.5-63.6-7.7-6.1-26.5-15-34.3-17.6M0 73.7c1.9-4.7 9.9-21 18.6-29.9 6.2-8.9 86.5-42 94.4-43.8M157.4-.3c0 9.4-1.3 49.7-9.9 65.5C134.3 85 88 78.4 0 101.8"/><path class="st2" d="M45.4 173c-.9-12.1.5-28.7.7-29.5 2-13.4 18.8-55.6 25.1-56.6C75.8 55.2 88.4 14.7 91.7 8M.1 121.6c1.6-7.8 4.7-15 9.5-22.2 5.5-14.6 13.5-46.9 23.6-65M13.2 222.1c-.6-5.9-2-17-2-25.1C6 180.3 2.1 166.1.1 153.6M319.8 243.8c3.7 5 10.2 11.3 18.8 12.2 24.8 2.6 92.9-30.3 124.9-58.4"/></g></svg>
