<svg xml:space="preserve" style="enable-background:new 0 0 500 375" viewBox="0 0 500 375" xmlns="http://www.w3.org/2000/svg"><style>.jgc21-XXh8GWm8_svg__st1,.jgc21-XXh8GWm8_svg__st2{fill:none;stroke:#fff;stroke-miterlimit:10}.jgc21-XXh8GWm8_svg__st2{stroke-width:.5}</style><g id="jgc21-XXh8GWm8_svg__Calque_2"><path d="M500 209.6c-21.5 31.4-34.6 75.8-45.9 82.4-13.1-.2-403.8-4.2-409.2-4.6-11-5.5-34.7-76.8-45-88.6" class="jgc21-XXh8GWm8_svg__st1"/><path d="M39.1 280.6C36.7 296 28 319.4-.4 336.7M500 336c-7.8-3.7-32.8-23.5-38.6-52.6M368.3 71.6c-25.1-13.5-51-26.1-69.9-32.5-36.9-13.4-72.5-12.2-79.9-12.9-96.4-3-198.7-.5-218.1 0m500 94.1c-6.6 0-39-2.8-42.5-3.5-9.9-2-13.6-3.2-20.2-4-4.8-3.6-16.5-11-31.6-19.9m-184.4 27.2c-.3 3.6.7 6.7 6 7.8 5.2 1.1 47.6 1.2 48.7 1 1.4-.3 5.1-4.5 3.9-6.8-1.3-2.4-11.8-3.2-14.2-3.4-3.6-.2-25.9-1.2-30.4-1.2-4.3 0-13.7.4-14 2.6zM0 123.3l38 .7s12.1.2 12.9-3.6c.3-2.7.1-3.8-3.7-5.3-3.2-1.1-6.4-1.5-10.1-1.7-3.7-.2-32.6-1-37.5-.5" class="jgc21-XXh8GWm8_svg__st1"/><path d="M230.2 26.5c-4.8-2.8-11.3-4.8-14.6-5.4-19.1-3.3-202.8-2-215.5-.7m371.5 85.7s-1.8-3.9-2.8-10c-.6-3.4-1.1-26 0-30.8 10.6-1.6 19.6 2.1 23.6 4.5 3.2 2 16.4 13.6 14 23.2-3 5.5-6 6.7-7.6 7.7.7 3 4.7 6.1 5.1 7.5-2 4.1-21.6 2.9-25.5 1.6-1 .5-1.9-3.1-3.3-3.3-1.6-.2-3.5-.4-3.5-.4z" class="jgc21-XXh8GWm8_svg__st1"/><path d="M398.5 100.5c-5.1-7.7-12.7-11.9-30.1-10.9m-.4-11.4c-28.8-16.5-60.6-32.8-87.5-40.9-34-12.6-246.2-7.5-280.6-4.9m428.6 259.3c14.2-72.1 33.1-156.2 0-176.8-7.3-4.6-16.3-10.2-26.2-16.3" class="jgc21-XXh8GWm8_svg__st2"/><path d="M192.3 29.8c2.9 25 8.2 65.7 10.1 76.6 11.5 13.3 16.2 133.7 7.5 182.9M24 31.2C23.5 33.3 5.5 63.6-.3 76.7" class="jgc21-XXh8GWm8_svg__st2"/><path d="M429.1 115.4S72.2 99-.4 101.7" class="jgc21-XXh8GWm8_svg__st2"/></g></svg>