<svg xml:space="preserve" style="enable-background:new 0 0 500 375" viewBox="0 0 500 375" xmlns="http://www.w3.org/2000/svg"><style>.jgc21-RAVpqaE4_svg__st2,.jgc21-RAVpqaE4_svg__st3{fill:none;stroke:#fff;stroke-miterlimit:10}.jgc21-RAVpqaE4_svg__st3{stroke-width:.5}</style><g id="jgc21-RAVpqaE4_svg__Calque_2"><path d="M179.5 281.8c3.7 49.4 40.3 83.2 88 83.2s95.5-46 95.5-95.6-40.5-88.1-88.2-89.7c-71.9-2.5-98.7 55.7-95.3 102.1zM388 99.1s-41-1.3-43.3-2.1c-3-.5-8.2-2.2-7.4-9.4 1.5-4.2 62.1-3 62.7 2.1.8 4.8-.2 10.2-12 9.4zM500 267l-126 8.1-11-8.1m-183.8 1.2h-15.5" class="jgc21-RAVpqaE4_svg__st2"/><path d="M374 275.1c9.9-7.5-13.5-93.8-28.4-109-17.8-17.5-113.9-15.3-132.3-2.4-20 15.8-44.2 44.3-52.1 117-4.3 6.4-123.4-7.3-135.4-25.2-8.4-12-6.6-26.9-7.4-28.7-3.4-4.5-4.5-6.9-2.9-15.5.9-4.8 1.7-8 1.7-8s-4.4-2.4-4.1-17.6c.7-9.9 2.7-16.1 4.6-17.9s11.9-14.5 12.1-17.8c-.5-4-15.9-35.7-13.7-41.4 1.5-3.9 4.8-4.6 5.3-7.3.3-3.2-.6-9.3-1.5-12.1-.9-2.8-2.6-4.8 3.2-10.2.1-.5-1.3-2.7-1-4C32.4 62.4 57.6 26 77.5 4.3c-.5-.8-1.4-2-3-4.7" class="jgc21-RAVpqaE4_svg__st2"/><path d="M23.1 78.9c8.4-8 84.4-9.4 91.6-.5 5.9 7.3-5.8 15.4-17.4 20-11.1 4.4-73.4 2.9-77 4.9" class="jgc21-RAVpqaE4_svg__st2"/><path d="M500 79.3S192.2 61.6 186.1 60.4c-10-1.8-31.4-2.7-30.8-21.9C159.8 22.4 171.5 0 171.5 0" class="jgc21-RAVpqaE4_svg__st3"/><path d="m318.6 0-4.2 68.5s12.7 80.8 13.3 89.6M17.5 203.2c6.7 3.7 17.1 17.2 18.7 20 .1.7-19.5-1-21.4-5.3m63-213.5 4.1-4.6m3.6.1s-27.2 33-44.8 54.4c-8.2 9.9-14.8 17.4-14.9 18-.4 2 2.5 4.1 2.5 4.1m8.6-20.6 4.7-2.7" class="jgc21-RAVpqaE4_svg__st3"/></g></svg>