<svg xmlns="http://www.w3.org/2000/svg" viewBox="0 0 528.12 327.55"><defs><style>.cls-1{stroke:#fff;stroke-linecap:round;stroke-linejoin:round}.cls-1,.cls-2,.cls-3{fill:none}.cls-4{fill:#e1a25b}.cls-5{fill:#f49796;stroke:#f49796}.cls-2,.cls-3,.cls-5,.cls-6{stroke-miterlimit:10;stroke-width:2px}.cls-6{fill:#31333e;stroke:#595e72}.cls-2{stroke:#e1a25b}.cls-3{stroke:#62b0ef}.cls-7{font-family:sans-serif;font-size:13px;isolation:isolate}.cls-7,.cls-8{fill:#fff}</style></defs><g id="door_back_right" class="car-part selectable"><path class="cls-1" d="M30.85 71.39c.7-2 5.8-6.7 8.1-12.9-.04-.7-.11-1.64-.18-2.76 1.24 2.31 6.55 7 17.98 14.76 4.05 2.79 10.75 6.14 19.7 10.28-.13 3.29-1.71 14.04-3.4 16.12-3.67 15.47 4.71 48.2 11.37 68.07l-27.76-19.94c-22.17-41.66-30.02-64.93-25.81-73.63h0Zm1.2 13.3c.3 1 2.7 2.2 3.4 2.6.8.4 4.3 1.9 4.9 2.2.6.3 1.5.4 1.6.2s.9-2.9.5-3.4c-.3-.4-1.1-1-2.1-1.7-.3-.2-3.3-1.6-3.8-1.9s-1.9-.9-2.2-.9c-.6-.1-2.2.7-2.3.8-.2.5-.3 1.1 0 2.1Z"/><path id="handle_back_left" class="cls-1 car-part" d="M32.05 84.69c.3 1 2.7 2.2 3.4 2.6.8.4 4.3 1.9 4.9 2.2.6.3 1.5.4 1.6.2s.9-2.9.5-3.4c-.3-.4-1.1-1-2.1-1.7-.3-.2-3.3-1.6-3.8-1.9s-1.9-.9-2.2-.9c-.6-.1-2.2.7-2.3.8-.2.5-.3 1.1 0 2.1Z"/></g><g id="door_front_right" class="car-part selectable"><path class="cls-1" d="M73.05 96.89c1.69-2.08 3.27-12.83 3.4-16.12 6.76 3.12 14.78 6.69 23.9 10.82l.16.3c-1.42.73-2.4 1.45-2.66 2.1-.9 2.21-.37 5.98.78 8.5h0c.5 1.15 1.14 2.03 1.82 2.4 2.3 1.2 7.6 3.4 16.5 3.8 9 .5 20.7.2 23 .5.15.02.32.05.52.1l-.02.1c10.6 4.6 18.5 7.9 20.4 8.6l.12-.1c1.32 8.64-2.43 12.98-4.52 16.9-6.1 10.96-7.43 39.92 1.06 82.65l-73.09-52.48c-6.66-19.87-15.04-52.6-11.37-68.07Zm2.8 13.9c.7 1.3 10.9 6.1 11.8 6.7.3.1 3 .6 3.5.3.2-.3.3-3 .2-3.7-.2-.6-2-2.1-3.1-2.9-1.1-.8-4.7-2.3-6.5-3.2-1-.5-3-1.4-3.5-1.7-1 .1-1.6.3-2.1 1-.4 1.1-.4 2.5-.3 3.5h0Z"/><path id="handle_front_left" class="cls-1 car-part" d="M75.85 110.79c.7 1.3 10.9 6.1 11.8 6.7.3.1 3 .6 3.5.3.2-.3.3-3 .2-3.7-.2-.6-2-2.1-3.1-2.9-1.1-.8-4.7-2.3-6.5-3.2-1-.5-3-1.4-3.5-1.7-1 .1-1.6.3-2.1 1-.4 1.1-.4 2.5-.3 3.5h0Z"/></g><path id="mirror_right" class="cls-1 car-part selectable" d="M98.63 102.49h0c.5 1.15 1.14 2.03 1.82 2.4 2.3 1.2 7.6 3.4 16.5 3.8 9 .5 20.7.2 23 .5.15.02.32.05.52.1l-.02.1c10.6 4.6 18.5 7.9 20.4 8.6l.12-.1c-.25-1.72-.71-3.61-1.42-5.7-2.65-7.53-9.34-22.11-16.68-36.36l-.14.07v25.18c-.66-.23-1.27-.33-1.98-.29-.93.05-1.3.13-1.44.2.22-.43 1.08-2.14.64-3.1-.5-1.1-5.3-11-9.4-12.2s-5.8-1.7-9.3-.7c-2.79.8-15.17 4.01-20.74 6.9-1.42.73-2.4 1.45-2.66 2.1-.9 2.21-.37 5.98.78 8.5h0Z"/><path id="window_front_right" class="cls-1 car-part selectable" d="M76.45 80.69v.08c6.76 3.12 14.78 6.69 23.9 10.82l.16.3c5.57-2.89 17.95-6.1 20.74-6.9 3.5-1 5.2-.5 9.3.7 4.1 1.2 8.9 11.1 9.4 12.2.44.96-.42 2.67-.64 3.1.14-.07.51-.15 1.44-.2.71-.04 1.32.06 1.98.29V75.9l.14-.07c-8.44-16.41-17.74-32.41-22.72-36.74-1.55-1.35-3.12-2.65-4.74-3.9-8.1-6.26-17.2-11-28.46-11.5h-.2c-6.7 16.5-10.3 55.1-10.3 57Z"/><path id="window_back_right" class="cls-1 car-part selectable" d="M38.77 55.72h0c1.24 2.32 6.55 7.01 17.98 14.77 4.05 2.79 10.75 6.14 19.7 10.28v-.08c0-1.9 3.6-40.5 10.3-57h.2-.2c-9.11-.39-19.53 0-29.82 4.36h-.01c-4.91 2.07-9.78 5.04-14.47 9.25-4.05 5.67-3.97 13.64-3.68 18.43Z"/><path id="tail_light_right" class="cls-1 car-part selectable" d="M19.43 78.3c.51-2.12 2.96-9.63 3.52-11.21.59-1.67 2.81-4.77 5.72-8.85-3.03 2.23-5.65 3.48-8.22 6.05-.57 1.22-1 6.89-1.02 14.01Z"/><path id="fender_back_right" class="cls-1 car-part selectable" d="M19.43 78.3v.02c-.02 10.38.85 23.83 3.52 31.07.22.57 2.12 5.54 3.16 7.79 0 0-.21-2.17-.22-2.21-.56-2.3-1.3-5.67-2.44-10.58-1.2-7-.6-13.1 8-4.3.12.11.25.24.38.37 5.45 5.65 15.25 27.94 21.05 41.85h.01l3.76 2.7c-22.17-41.65-30.01-64.92-25.8-73.62.7-2 5.8-6.7 8.1-12.9-.04-.7-.11-1.64-.18-2.76h0c-.29-4.8-.37-12.77 3.68-18.44 4.69-4.21 9.56-7.18 14.47-9.25l-13.73-1.05c-7.45 7.22-10.56 26.94-11.44 28.7-1.08 1-2.09 1.82-3.07 2.54h-.01c-2.91 4.09-5.13 7.19-5.72 8.86-.56 1.58-3.01 9.09-3.52 11.21h0Z"/><path id="roof" class="cls-1 car-part selectable" d="m43.19 26.99 13.73 1.05h.01c10.29-4.35 20.71-4.75 29.82-4.36h.2c11.26.5 20.36 5.24 28.46 11.5h14.14c32.4-7.5 116.5-10 127.7-8.3.27.12.56.25.85.39l.66-1.38c-.29-.14-.57-.28-.86-.41-.28-.14-.57-.27-.85-.4-29.2-12.7-80.3-14.2-102.6-14-8.56.07-23.35.77-39.39 2.05-2.15.17-4.33.35-6.51.55-25.87 2.28-53.19 6.02-62 11.1-1.21.44-2.32 1.2-3.36 2.2h0Z"/><path id="rocker_panel_right" class="cls-1 car-part selectable" d="M56.65 145.01h.01l100.85 72.43 7.69 5.52c.71 3.81 2 7.34 3.95 10.15 5.17 8.25 6.22 11.8 6.38 12.39.01.06.02.09.02.09s-5.56-4.28-14.27-10.98c-17.54-13.51-47.84-36.88-71.21-55.06h-.01c-10.51-8.16-19.6-15.29-25.51-19.99-.23-.18-.45-.36-.66-.53-3.5-2.8-5.76-4.65-6.34-5.23 0 0-1-2.55-2.63-6.55-.6-1.46-1.28-3.12-2.03-4.92l3.76 2.69h0Z"/><g id="wheel_back_right" class="car-part selectable"><path class="cls-1" d="M26.05 106.29c1.6-4.5 3.2-5.4 5.2-5.8l.58-.03c6.16 6.38 17.86 33.99 23.09 46.78 1.63 4 2.63 6.55 2.63 6.55.58.58 2.84 2.43 6.34 5.23l-.14.17c-4.5 2.1-10.4 3.5-14.2 3.4-3.8-.1-8.2-5.2-10.7-9.5-3.5-6.7-9.2-21.6-11.2-29.1-.4-1.5-.95-3.87-1.38-6.47l-.37-2.51c-.4-3.25-.52-6.57.15-8.72h0Zm9.72 29.96c3.67 8.96 8.21 15.58 10.15 14.79 1.93-.79.53-8.7-3.13-17.66-3.67-8.96-8.21-15.59-10.15-14.8-1.93.8-.53 8.7 3.13 17.67h0Z"/><path class="cls-1" d="M35.77 136.25c3.67 8.96 8.21 15.58 10.15 14.79 1.93-.79.53-8.7-3.13-17.66-3.67-8.96-8.21-15.59-10.15-14.8-1.93.8-.53 8.7 3.13 17.67h0Z"/></g><g id="wheel_front_right" class="car-part selectable"><path class="cls-1" d="M172.35 214.29c1-7.9 3.5-14.1 11.1-18.1 7.7-4.1 10.1-4.3 10.1-4.3l.07-.18c16.31 6.41 33.92 24.44 44.03 41.48 2.8 4.57 5.23 9.03 7.35 13.36 9.01 18.38 12.37 34.33 14.09 45.32l-.14.02c-2.8 2.3-11.9 11.5-19.1 13.9-3.8 1.2-12.6 4.4-24.3-3.4-11.7-7.8-27.4-25-36-47.2-1.29-3.06-2.51-6.33-3.58-9.82-2.72-8.94-4.41-19.28-3.62-31.08h0Zm21.92 50.61c10.06 17.43 24.33 28.04 31.86 23.69s5.48-22.01-4.58-39.44-24.33-28.03-31.86-23.68c-7.53 4.35-5.48 22 4.58 39.43h0Z"/><path class="cls-1" d="M194.27 264.9c10.06 17.43 24.33 28.04 31.86 23.69s5.48-22.01-4.58-39.44-24.33-28.03-31.86-23.68c-7.53 4.35-5.48 22 4.58 39.43h0Z"/></g><path id="fender_front_right" class="cls-1 car-part selectable" d="m157.51 217.44 7.69 5.52c-2.54-13.61 2.29-30.9 10.65-32.77 5.39-1.7 11.49-.95 17.77 1.52 16.31 6.41 33.92 24.44 44.03 41.48 2.8 4.57 5.23 9.03 7.35 13.36l25.65-16.76c-6.9-7.4-26.1-49.9-21-51.9v-.3c-10.4-5.4-58.6-24.9-62.2-37-3.3-19.8-4.4-25.9 2.6-27.5v-.1c-6.91-.69-15.47-1.61-20-2.7l-9.08 7.6c1.32 8.64-2.43 12.98-4.52 16.9-6.1 10.96-7.43 39.92 1.06 82.65h0Z"/><path id="license_plate_front" class="cls-1 car-part selectable" d="M431.32 282.55s.04-.05.13-.15L464 244.03l5.47-17.99s-.03.03-.08.09c-.03.02-.06.06-.1.1l-.02.02c-2.72 2.75-31.83 32.27-36.44 37.36l-.55 6.95-.89 11.19c-.01.13-.02.24-.03.34l-.03.38s-.01.08 0 .08Z"/><path id="grill_radiator" class="cls-1 car-part selectable" d="M420.35 274.39c3.2.39 8.88-2.43 11.93-3.83l.55-6.95c4.61-5.09 33.72-34.61 36.44-37.36q1.81-1.83.02-.02c-2.7 2.73.07-.08.1-.1.05-.06.08-.09.08-.09s6.59-10.05 6.96-11.29c4.38-14.57 7.42-27.78 7.9-34.35h-.08c-11 29.89-53.8 53.29-73.3 69.29-7.7 4.6 5.2 24.4 9.4 24.7h0Z"/><path id="fog_light_front_right" class="cls-1 car-part selectable" d="M305.55 291.69c7.3.5 33.1-.5 37.4-1.9 2.6-3.2-26.3-27.2-30.3-29.2s-24.1-8.7-25.3-7.9c-2.1 1.6 16.5 30.3 18.2 39h0Z"/><path id="bumper_front" class="cls-1 car-part selectable" d="M270.65 229.79c6.9 7.5 31.8 11.6 43.4 11.2s47.9 7.5 58.8 5.1c10.6-2.3 28.3-9.5 31.7-17.7.19-4.62-21.62-12.65-28.63-15.22l.03-.08c6.8-2.3 13-6.1 20.3-10.2 9.6-5.3 51.1-28.8 67-53l.05-.05c6.17 5.8 10.67 10.22 11.75 11.45l.1-.06c3.23 5.56 6.36 11.85 9.2 18.96 0 .07-.01.14-.02.21h-.08c-11 29.89-53.8 53.29-73.3 69.29-7.7 4.6 5.2 24.4 9.4 24.7 3.2.39 8.88-2.43 11.93-3.83l-.89 11.19c-.01.13-.02.24-.03.34l-.03.38v.08s.03-.05.12-.15L464 244.03l5.47-17.99s6.59-10.05 6.96-11.29c-2.66 8.84-5.8 18.18-9.18 26.84-9.1 23.2-42.2 73.2-89.6 80.9-42.6 6.4-79.9 9.8-116.2-16.1-.83-2.22-1.24-7.3-2.36-14.52-1.72-10.99-5.08-26.94-14.09-45.32l25.65-16.76h0Zm34.9 61.9c7.3.5 33.1-.5 37.4-1.9 2.6-3.2-26.3-27.2-30.3-29.2s-24.1-8.7-25.3-7.9c-2.1 1.6 16.5 30.3 18.2 39h0Z"/><path id="head_light_right" class="cls-1 car-part selectable" d="M270.65 229.79c6.9 7.5 31.8 11.6 43.4 11.2s47.9 7.5 58.8 5.1c10.6-2.3 28.3-9.5 31.7-17.7.19-4.62-21.62-12.65-28.63-15.22-.28-.1-.54-.2-.77-.28-6-2.1-123-33.9-125.5-35-5.1 2 14.1 44.5 21 51.9h0Z"/><path id="head_light_right-2" class="cls-1 car-part selectable" d="M416.55 110.59c10.53 6.16 32.86 26.19 46.75 39.25 6.17 5.8 10.67 10.22 11.75 11.45l.1-.06c-8.49-14.61-17.61-24.09-23.7-29.74-11.25-10.47-28.04-17.65-34.88-20.94l-.02.04h0Z"/><path id="hood" class="cls-1 car-part selectable" d="M187.45 140.59c3.6 12.1 51.8 31.6 62.2 37v.3c2.5 1.1 119.5 32.9 125.5 35 .23.08.49.18.77.28l.03-.08c6.8-2.3 13-6.1 20.3-10.2 9.6-5.3 51.1-28.8 67-53l.05-.05c-13.89-13.06-36.22-33.09-46.75-39.25l.02-.04c-1.07-.52-1.89-.94-2.42-1.26-17.4-10.8-61.6-27.3-82.6-33.2l-2.3 2.5c-13.5 13.7-121.4 37.6-137.1 34.6-.67-.07-1.37-.13-2.09-.2v.1c-7.01 1.6-5.91 7.7-2.61 27.5h0Z"/><path id="windshield_front" class="cls-1 car-part selectable" d="M129.55 35.19c4.2 12.4 25.3 43.4 40.5 75.1 4.53 1.09 13.09 2.01 20.01 2.7.72.07 1.42.13 2.09.2 15.7 3 123.6-20.9 137.1-34.6-1.08-2.66-52.84-42.72-71.15-51.31-.29-.14-.58-.27-.85-.39-11.2-1.7-95.3.8-127.7 8.3h0Z"/><path class="cls-1 background" d="M258.1 27.28c18.31 8.59 70.07 48.65 71.15 51.31l2.3-2.5c-17.34-12.74-45.43-37.37-72.79-50.19l-.66 1.38Z"/><path id="pillar" class="cls-1 car-part selectable" d="M115.41 35.19c1.62 1.25 3.19 2.55 4.74 3.9 9.3 8.1 33.7 56.9 39.4 73.1.71 2.09 1.17 3.98 1.42 5.7l9.08-7.6c-15.2-31.7-36.3-62.7-40.5-75.1h-14.14 0Z"/><path class="cls-1 background" d="M23.45 104.39c1.14 4.91 1.89 8.32 2.45 10.62-.4-3.25-.52-6.57.15-8.72 1.6-4.5 3.2-5.4 5.2-5.8l.58-.03c-.13-.13-.26-.26-.38-.37-8.6-8.8-9.2-2.7-8 4.3ZM165.2 222.96c.71 3.81 2 7.34 3.95 10.15 5.17 8.25 6.22 11.8 6.38 12.39l.44-.13c-2.72-8.94-4.41-19.28-3.62-31.08 1-7.9 3.5-14.1 11.1-18.1 7.7-4.1 10.1-4.3 10.1-4.3l.07-.18c-6.28-2.47-12.38-3.22-17.77-1.52-8.36 1.87-13.19 19.16-10.65 32.77h0Z"/><g id="damage-pill_hood"><circle class="cls-6 damage-pill-background" cx="352.48" cy="133.92" r="19.13"/><circle class="cls-3 severity-low" cx="352.48" cy="133.92" r="9.1"/><circle class="cls-5 severity-high" cx="352.48" cy="133.92" r="9.1"/><circle class="cls-8 severity-none" cx="352.48" cy="133.92" r="9.1"/><g class="severity-medium"><circle class="cls-2 severity-medium severity-medium" cx="352.48" cy="133.92" r="9.1"/><path class="cls-4 severity-medium" d="M352.48 124.82v18.1c-5 0-9.1-4.1-9.1-9.1s4.1-9 9.1-9Z"/></g></g><g id="damage-pill-pricing_hood"><path class="cls-6 damage-pill-background" d="M407.46 153.06h-54.98c-10.56 0-19.13-8.58-19.13-19.13 0-10.56 8.58-19.13 19.13-19.13h54.98c10.56 0 19.13 8.58 19.13 19.13 0 10.56-8.58 19.13-19.13 19.13Z"/><text class="cls-7 damage-pill-text" transform="translate(374.56 138.21)">9999€</text><circle class="cls-3 severity-low" cx="352.48" cy="133.92" r="9.1"/><circle class="cls-5 severity-high" cx="352.48" cy="133.92" r="9.1"/><circle class="cls-8 severity-none" cx="352.48" cy="133.92" r="9.1"/><g class="severity-medium"><circle class="cls-2 severity-medium severity-medium" cx="352.48" cy="133.92" r="9.1"/><path class="cls-4 severity-medium" d="M352.48 124.82v18.1c-5 0-9.1-4.1-9.1-9.1s4.1-9 9.1-9Z"/></g></g><g id="damage-pill_head_light_right"><circle class="cls-6 damage-pill-background" cx="329.57" cy="220.8" r="19.13"/><circle class="cls-3 severity-low" cx="329.57" cy="220.8" r="9.1"/><circle class="cls-5 severity-high" cx="329.57" cy="220.8" r="9.1"/><circle class="cls-8 severity-none" cx="329.57" cy="220.8" r="9.1"/><g class="severity-medium"><circle class="cls-2 severity-medium severity-medium" cx="329.57" cy="220.8" r="9.1"/><path class="cls-4 severity-medium" d="M329.57 211.7v18.1c-5 0-9.1-4.1-9.1-9.1s4.1-9 9.1-9Z"/></g></g><g id="damage-pill-pricing_head_light_right"><path class="cls-6 damage-pill-background" d="M384.55 239.93h-54.98c-10.56 0-19.13-8.58-19.13-19.13 0-10.56 8.58-19.13 19.13-19.13h54.98c10.56 0 19.13 8.58 19.13 19.13 0 10.56-8.58 19.13-19.13 19.13Z"/><text class="cls-7 damage-pill-text" transform="translate(351.66 225.08)">9999€</text><circle class="cls-3 severity-low" cx="329.57" cy="220.8" r="9.1"/><circle class="cls-5 severity-high" cx="329.57" cy="220.8" r="9.1"/><circle class="cls-8 severity-none" cx="329.57" cy="220.8" r="9.1"/><g class="severity-medium"><circle class="cls-2 severity-medium severity-medium" cx="329.57" cy="220.8" r="9.1"/><path class="cls-4 severity-medium" d="M329.57 211.7v18.1c-5 0-9.1-4.1-9.1-9.1s4.1-9 9.1-9Z"/></g></g><g id="damage-pill_bumper_front"><circle class="cls-6 damage-pill-background" cx="377.41" cy="278.55" r="19.13"/><circle class="cls-3 severity-low" cx="377.41" cy="278.55" r="9.1"/><circle class="cls-5 severity-high" cx="377.41" cy="278.55" r="9.1"/><circle class="cls-8 severity-none" cx="377.41" cy="278.55" r="9.1"/><g class="severity-medium"><circle class="cls-2 severity-medium severity-medium" cx="377.41" cy="278.55" r="9.1"/><path class="cls-4 severity-medium" d="M377.41 269.45v18.1c-5 0-9.1-4.1-9.1-9.1s4.1-9 9.1-9Z"/></g></g><g id="damage-pill-pricing_bumper_front"><path class="cls-6 damage-pill-background" d="M432.39 297.69h-54.98c-10.56 0-19.13-8.58-19.13-19.13 0-10.56 8.58-19.13 19.13-19.13h54.98c10.56 0 19.13 8.58 19.13 19.13 0 10.56-8.58 19.13-19.13 19.13Z"/><text class="cls-7 damage-pill-text" transform="translate(399.49 282.84)">9999€</text><circle class="cls-3 severity-low" cx="377.41" cy="278.55" r="9.1"/><circle class="cls-5 severity-high" cx="377.41" cy="278.55" r="9.1"/><circle class="cls-8 severity-none" cx="377.41" cy="278.55" r="9.1"/><g class="severity-medium"><circle class="cls-2 severity-medium severity-medium" cx="377.41" cy="278.55" r="9.1"/><path class="cls-4 severity-medium" d="M377.41 269.45v18.1c-5 0-9.1-4.1-9.1-9.1s4.1-9 9.1-9Z"/></g></g><g id="damage-pill_grill_radiator"><circle class="cls-6 damage-pill-background" cx="452.4" cy="228.35" r="19.13"/><circle class="cls-3 severity-low" cx="452.4" cy="228.35" r="9.1"/><circle class="cls-5 severity-high" cx="452.4" cy="228.35" r="9.1"/><circle class="cls-8 severity-none" cx="452.4" cy="228.35" r="9.1"/><g class="severity-medium"><circle class="cls-2 severity-medium severity-medium" cx="452.4" cy="228.35" r="9.1"/><path class="cls-4 severity-medium" d="M452.4 219.25v18.1c-5 0-9.1-4.1-9.1-9.1s4.1-9 9.1-9Z"/></g></g><g id="damage-pill-pricing_grill_radiator"><path class="cls-6 damage-pill-background" d="M507.38 247.49H452.4c-10.56 0-19.13-8.58-19.13-19.13 0-10.56 8.58-19.13 19.13-19.13h54.98c10.56 0 19.13 8.58 19.13 19.13 0 10.56-8.58 19.13-19.13 19.13Z"/><text class="cls-7 damage-pill-text" transform="translate(474.48 232.64)">9999€</text><circle class="cls-3 severity-low" cx="452.4" cy="228.35" r="9.1"/><circle class="cls-5 severity-high" cx="452.4" cy="228.35" r="9.1"/><circle class="cls-8 severity-none" cx="452.4" cy="228.35" r="9.1"/><g class="severity-medium"><circle class="cls-2 severity-medium severity-medium" cx="452.4" cy="228.35" r="9.1"/><path class="cls-4 severity-medium" d="M452.4 219.25v18.1c-5 0-9.1-4.1-9.1-9.1s4.1-9 9.1-9Z"/></g></g><g id="damage-pill_license_plate_front"><circle class="cls-6 damage-pill-background" cx="453" cy="252.58" r="19.13"/><circle class="cls-3 severity-low" cx="453" cy="252.58" r="9.1"/><circle class="cls-5 severity-high" cx="453" cy="252.58" r="9.1"/><circle class="cls-8 severity-none" cx="453" cy="252.58" r="9.1"/><g class="severity-medium"><circle class="cls-2 severity-medium severity-medium" cx="453" cy="252.58" r="9.1"/><path class="cls-4 severity-medium" d="M453 243.48v18.1c-5 0-9.1-4.1-9.1-9.1s4.1-9 9.1-9Z"/></g></g><g id="damage-pill-pricing_license_plate_front"><path class="cls-6 damage-pill-background" d="M507.99 271.71h-54.98c-10.56 0-19.13-8.58-19.13-19.13 0-10.56 8.58-19.13 19.13-19.13h54.98c10.56 0 19.13 8.58 19.13 19.13 0 10.56-8.58 19.13-19.13 19.13Z"/><text class="cls-7 damage-pill-text" transform="translate(475.09 256.86)">9999€</text><circle class="cls-3 severity-low" cx="453" cy="252.58" r="9.1"/><circle class="cls-5 severity-high" cx="453" cy="252.58" r="9.1"/><circle class="cls-8 severity-none" cx="453" cy="252.58" r="9.1"/><g class="severity-medium"><circle class="cls-2 severity-medium severity-medium" cx="453" cy="252.58" r="9.1"/><path class="cls-4 severity-medium" d="M453 243.48v18.1c-5 0-9.1-4.1-9.1-9.1s4.1-9 9.1-9Z"/></g></g><g id="damage-pill_fog_light_front_right"><circle class="cls-6 damage-pill-background" cx="309.67" cy="275.43" r="19.13"/><circle class="cls-3 severity-low" cx="309.67" cy="275.43" r="9.1"/><circle class="cls-5 severity-high" cx="309.67" cy="275.43" r="9.1"/><circle class="cls-8 severity-none" cx="309.67" cy="275.43" r="9.1"/><g class="severity-medium"><circle class="cls-2 severity-medium severity-medium" cx="309.67" cy="275.43" r="9.1"/><path class="cls-4 severity-medium" d="M309.67 266.33v18.1c-5 0-9.1-4.1-9.1-9.1s4.1-9 9.1-9Z"/></g></g><g id="damage-pill-pricing_fog_light_front_right"><path class="cls-6 damage-pill-background" d="M364.65 294.56h-54.98c-10.56 0-19.13-8.58-19.13-19.13 0-10.56 8.58-19.13 19.13-19.13h54.98c10.56 0 19.13 8.58 19.13 19.13 0 10.56-8.58 19.13-19.13 19.13Z"/><text class="cls-7 damage-pill-text" transform="translate(331.76 279.71)">9999€</text><circle class="cls-3 severity-low" cx="309.67" cy="275.43" r="9.1"/><circle class="cls-5 severity-high" cx="309.67" cy="275.43" r="9.1"/><circle class="cls-8 severity-none" cx="309.67" cy="275.43" r="9.1"/><g class="severity-medium"><circle class="cls-2 severity-medium severity-medium" cx="309.67" cy="275.43" r="9.1"/><path class="cls-4 severity-medium" d="M309.67 266.33v18.1c-5 0-9.1-4.1-9.1-9.1s4.1-9 9.1-9Z"/></g></g><g id="damage-pill_wheel_front_right"><circle class="cls-6 damage-pill-background" cx="208.38" cy="254.3" r="19.13"/><circle class="cls-3 severity-low" cx="208.38" cy="254.3" r="9.1"/><circle class="cls-5 severity-high" cx="208.38" cy="254.3" r="9.1"/><circle class="cls-8 severity-none" cx="208.38" cy="254.3" r="9.1"/><g class="severity-medium"><circle class="cls-2 severity-medium severity-medium" cx="208.38" cy="254.3" r="9.1"/><path class="cls-4 severity-medium" d="M208.38 245.2v18.1c-5 0-9.1-4.1-9.1-9.1s4.1-9 9.1-9Z"/></g></g><g id="damage-pill-pricing_wheel_front_right"><path class="cls-6 damage-pill-background" d="M263.36 273.43h-54.98c-10.56 0-19.13-8.58-19.13-19.13 0-10.56 8.58-19.13 19.13-19.13h54.98c10.56 0 19.13 8.58 19.13 19.13 0 10.56-8.58 19.13-19.13 19.13Z"/><text class="cls-7 damage-pill-text" transform="translate(230.47 258.58)">9999€</text><circle class="cls-3 severity-low" cx="208.38" cy="254.3" r="9.1"/><circle class="cls-5 severity-high" cx="208.38" cy="254.3" r="9.1"/><circle class="cls-8 severity-none" cx="208.38" cy="254.3" r="9.1"/><g class="severity-medium"><circle class="cls-2 severity-medium severity-medium" cx="208.38" cy="254.3" r="9.1"/><path class="cls-4 severity-medium" d="M208.38 245.2v18.1c-5 0-9.1-4.1-9.1-9.1s4.1-9 9.1-9Z"/></g></g><g id="damage-pill_fender_front_right"><circle class="cls-6 damage-pill-background" cx="193.61" cy="170.24" r="19.13"/><circle class="cls-3 severity-low" cx="193.61" cy="170.24" r="9.1"/><circle class="cls-5 severity-high" cx="193.61" cy="170.24" r="9.1"/><circle class="cls-8 severity-none" cx="193.61" cy="170.24" r="9.1"/><g class="severity-medium"><circle class="cls-2 severity-medium severity-medium" cx="193.61" cy="170.24" r="9.1"/><path class="cls-4 severity-medium" d="M193.61 161.14v18.1c-5 0-9.1-4.1-9.1-9.1s4.1-9 9.1-9Z"/></g></g><g id="damage-pill-pricing_fender_front_right"><path class="cls-6 damage-pill-background" d="M248.6 189.37h-54.98c-10.56 0-19.13-8.58-19.13-19.13 0-10.56 8.58-19.13 19.13-19.13h54.98c10.56 0 19.13 8.58 19.13 19.13 0 10.56-8.58 19.13-19.13 19.13Z"/><text class="cls-7 damage-pill-text" transform="translate(215.7 174.52)">9999€</text><circle class="cls-3 severity-low" cx="193.61" cy="170.24" r="9.1"/><circle class="cls-5 severity-high" cx="193.61" cy="170.24" r="9.1"/><circle class="cls-8 severity-none" cx="193.61" cy="170.24" r="9.1"/><g class="severity-medium"><circle class="cls-2 severity-medium severity-medium" cx="193.61" cy="170.24" r="9.1"/><path class="cls-4 severity-medium" d="M193.61 161.14v18.1c-5 0-9.1-4.1-9.1-9.1s4.1-9 9.1-9Z"/></g></g><g id="damage-pill_pillar"><circle class="cls-6 damage-pill-background" cx="142.9" cy="69.92" r="19.13"/><circle class="cls-3 severity-low" cx="142.9" cy="69.92" r="9.1"/><circle class="cls-5 severity-high" cx="142.9" cy="69.92" r="9.1"/><circle class="cls-8 severity-none" cx="142.9" cy="69.92" r="9.1"/><g class="severity-medium"><circle class="cls-2 severity-medium severity-medium" cx="142.9" cy="69.92" r="9.1"/><path class="cls-4 severity-medium" d="M142.9 60.82v18.1c-5 0-9.1-4.1-9.1-9.1s4.1-9 9.1-9Z"/></g></g><g id="damage-pill-pricing_pillar"><path class="cls-6 damage-pill-background" d="M197.88 89.05H142.9c-10.56 0-19.13-8.58-19.13-19.13 0-10.56 8.58-19.13 19.13-19.13h54.98c10.56 0 19.13 8.58 19.13 19.13 0 10.56-8.58 19.13-19.13 19.13Z"/><text class="cls-7 damage-pill-text" transform="translate(164.98 74.2)">9999€</text><circle class="cls-3 severity-low" cx="142.9" cy="69.92" r="9.1"/><circle class="cls-5 severity-high" cx="142.9" cy="69.92" r="9.1"/><circle class="cls-8 severity-none" cx="142.9" cy="69.92" r="9.1"/><g class="severity-medium"><circle class="cls-2 severity-medium severity-medium" cx="142.9" cy="69.92" r="9.1"/><path class="cls-4 severity-medium" d="M142.9 60.82v18.1c-5 0-9.1-4.1-9.1-9.1s4.1-9 9.1-9Z"/></g></g><g id="damage-pill_window_front_right"><circle class="cls-6 damage-pill-background" cx="103.6" cy="61.39" r="19.13"/><circle class="cls-3 severity-low" cx="103.6" cy="61.39" r="9.1"/><circle class="cls-5 severity-high" cx="103.6" cy="61.39" r="9.1"/><circle class="cls-8 severity-none" cx="103.6" cy="61.39" r="9.1"/><g class="severity-medium"><circle class="cls-2 severity-medium severity-medium" cx="103.6" cy="61.39" r="9.1"/><path class="cls-4 severity-medium" d="M103.6 52.29v18.1c-5 0-9.1-4.1-9.1-9.1s4.1-9 9.1-9Z"/></g></g><g id="damage-pill-pricing_window_front_right"><path class="cls-6 damage-pill-background" d="M158.58 80.52H103.6c-10.56 0-19.13-8.58-19.13-19.13 0-10.56 8.58-19.13 19.13-19.13h54.98c10.56 0 19.13 8.58 19.13 19.13 0 10.56-8.58 19.13-19.13 19.13Z"/><text class="cls-7 damage-pill-text" transform="translate(125.68 65.67)">9999€</text><circle class="cls-3 severity-low" cx="103.6" cy="61.39" r="9.1"/><circle class="cls-5 severity-high" cx="103.6" cy="61.39" r="9.1"/><circle class="cls-8 severity-none" cx="103.6" cy="61.39" r="9.1"/><g class="severity-medium"><circle class="cls-2 severity-medium severity-medium" cx="103.6" cy="61.39" r="9.1"/><path class="cls-4 severity-medium" d="M103.6 52.29v18.1c-5 0-9.1-4.1-9.1-9.1s4.1-9 9.1-9Z"/></g></g><g id="damage-pill_window_back_right"><circle class="cls-6 damage-pill-background" cx="61.35" cy="49.13" r="19.13"/><circle class="cls-3 severity-low" cx="61.35" cy="49.13" r="9.1"/><circle class="cls-5 severity-high" cx="61.35" cy="49.13" r="9.1"/><circle class="cls-8 severity-none" cx="61.35" cy="49.13" r="9.1"/><g class="severity-medium"><circle class="cls-2 severity-medium severity-medium" cx="61.35" cy="49.13" r="9.1"/><path class="cls-4 severity-medium" d="M61.35 40.03v18.1c-5 0-9.1-4.1-9.1-9.1s4.1-9 9.1-9Z"/></g></g><g id="damage-pill-pricing_window_back_right"><path class="cls-6 damage-pill-background" d="M116.33 68.26H61.35c-10.56 0-19.13-8.58-19.13-19.13C42.22 38.57 50.8 30 61.35 30h54.98c10.56 0 19.13 8.58 19.13 19.13 0 10.56-8.58 19.13-19.13 19.13Z"/><text class="cls-7 damage-pill-text" transform="translate(83.43 53.41)">9999€</text><circle class="cls-3 severity-low" cx="61.35" cy="49.13" r="9.1"/><circle class="cls-5 severity-high" cx="61.35" cy="49.13" r="9.1"/><circle class="cls-8 severity-none" cx="61.35" cy="49.13" r="9.1"/><g class="severity-medium"><circle class="cls-2 severity-medium severity-medium" cx="61.35" cy="49.13" r="9.1"/><path class="cls-4 severity-medium" d="M61.35 40.03v18.1c-5 0-9.1-4.1-9.1-9.1s4.1-9 9.1-9Z"/></g></g><g id="damage-pill_mirror_right"><circle class="cls-6 damage-pill-background" cx="119.16" cy="96.91" r="19.13"/><circle class="cls-3 severity-low" cx="119.16" cy="96.91" r="9.1"/><circle class="cls-5 severity-high" cx="119.16" cy="96.91" r="9.1"/><circle class="cls-8 severity-none" cx="119.16" cy="96.91" r="9.1"/><g class="severity-medium"><circle class="cls-2 severity-medium severity-medium" cx="119.16" cy="96.91" r="9.1"/><path class="cls-4 severity-medium" d="M119.16 87.81v18.1c-5 0-9.1-4.1-9.1-9.1s4.1-9 9.1-9Z"/></g></g><g id="damage-pill-pricing_mirror_right"><path class="cls-6 damage-pill-background" d="M174.14 116.05h-54.98c-10.56 0-19.13-8.58-19.13-19.13 0-10.56 8.58-19.13 19.13-19.13h54.98c10.56 0 19.13 8.58 19.13 19.13 0 10.56-8.58 19.13-19.13 19.13Z"/><text class="cls-7 damage-pill-text" transform="translate(141.24 101.2)">9999€</text><circle class="cls-3 severity-low" cx="119.16" cy="96.91" r="9.1"/><circle class="cls-5 severity-high" cx="119.16" cy="96.91" r="9.1"/><circle class="cls-8 severity-none" cx="119.16" cy="96.91" r="9.1"/><g class="severity-medium"><circle class="cls-2 severity-medium severity-medium" cx="119.16" cy="96.91" r="9.1"/><path class="cls-4 severity-medium" d="M119.16 87.81v18.1c-5 0-9.1-4.1-9.1-9.1s4.1-9 9.1-9Z"/></g></g><g id="damage-pill_door_front_right"><circle class="cls-6 damage-pill-background" cx="111.08" cy="141.33" r="19.13"/><circle class="cls-3 severity-low" cx="111.08" cy="141.33" r="9.1"/><circle class="cls-5 severity-high" cx="111.08" cy="141.33" r="9.1"/><circle class="cls-8 severity-none" cx="111.08" cy="141.33" r="9.1"/><g class="severity-medium"><circle class="cls-2 severity-medium severity-medium" cx="111.08" cy="141.33" r="9.1"/><path class="cls-4 severity-medium" d="M111.08 132.23v18.1c-5 0-9.1-4.1-9.1-9.1s4.1-9 9.1-9Z"/></g></g><g id="damage-pill-pricing_door_front_right"><path class="cls-6 damage-pill-background" d="M166.06 160.47h-54.98c-10.56 0-19.13-8.58-19.13-19.13 0-10.56 8.58-19.13 19.13-19.13h54.98c10.56 0 19.13 8.58 19.13 19.13 0 10.56-8.58 19.13-19.13 19.13Z"/><text class="cls-7 damage-pill-text" transform="translate(133.16 145.62)">9999€</text><circle class="cls-3 severity-low" cx="111.08" cy="141.33" r="9.1"/><circle class="cls-5 severity-high" cx="111.08" cy="141.33" r="9.1"/><circle class="cls-8 severity-none" cx="111.08" cy="141.33" r="9.1"/><g class="severity-medium"><circle class="cls-2 severity-medium severity-medium" cx="111.08" cy="141.33" r="9.1"/><path class="cls-4 severity-medium" d="M111.08 132.23v18.1c-5 0-9.1-4.1-9.1-9.1s4.1-9 9.1-9Z"/></g></g><g id="damage-pill_door_back_right"><circle class="cls-6 damage-pill-background" cx="50.35" cy="96.46" r="19.13"/><circle class="cls-3 severity-low" cx="50.35" cy="96.46" r="9.1"/><circle class="cls-5 severity-high" cx="50.35" cy="96.46" r="9.1"/><circle class="cls-8 severity-none" cx="50.35" cy="96.46" r="9.1"/><g class="severity-medium"><circle class="cls-2 severity-medium severity-medium" cx="50.35" cy="96.46" r="9.1"/><path class="cls-4 severity-medium" d="M50.35 87.36v18.1c-5 0-9.1-4.1-9.1-9.1s4.1-9 9.1-9Z"/></g></g><g id="damage-pill-pricing_door_back_right"><path class="cls-6 damage-pill-background" d="M105.33 115.6H50.35c-10.56 0-19.13-8.58-19.13-19.13 0-10.56 8.58-19.13 19.13-19.13h54.98c10.56 0 19.13 8.58 19.13 19.13 0 10.56-8.58 19.13-19.13 19.13Z"/><text class="cls-7 damage-pill-text" transform="translate(72.44 100.75)">9999€</text><circle class="cls-3 severity-low" cx="50.35" cy="96.46" r="9.1"/><circle class="cls-5 severity-high" cx="50.35" cy="96.46" r="9.1"/><circle class="cls-8 severity-none" cx="50.35" cy="96.46" r="9.1"/><g class="severity-medium"><circle class="cls-2 severity-medium severity-medium" cx="50.35" cy="96.46" r="9.1"/><path class="cls-4 severity-medium" d="M50.35 87.36v18.1c-5 0-9.1-4.1-9.1-9.1s4.1-9 9.1-9Z"/></g></g><g id="damage-pill_rocker_panel_right"><circle class="cls-6 damage-pill-background" cx="103.87" cy="187.1" r="19.13"/><circle class="cls-3 severity-low" cx="103.87" cy="187.1" r="9.1"/><circle class="cls-5 severity-high" cx="103.87" cy="187.1" r="9.1"/><circle class="cls-8 severity-none" cx="103.87" cy="187.1" r="9.1"/><g class="severity-medium"><circle class="cls-2 severity-medium severity-medium" cx="103.87" cy="187.1" r="9.1"/><path class="cls-4 severity-medium" d="M103.87 178v18.1c-5 0-9.1-4.1-9.1-9.1s4.1-9 9.1-9Z"/></g></g><g id="damage-pill-pricing_rocker_panel_right"><path class="cls-6 damage-pill-background" d="M158.85 206.23h-54.98c-10.56 0-19.13-8.58-19.13-19.13 0-10.56 8.58-19.13 19.13-19.13h54.98c10.56 0 19.13 8.58 19.13 19.13 0 10.56-8.58 19.13-19.13 19.13Z"/><text class="cls-7 damage-pill-text" transform="translate(125.95 191.38)">9999€</text><circle class="cls-3 severity-low" cx="103.87" cy="187.1" r="9.1"/><circle class="cls-5 severity-high" cx="103.87" cy="187.1" r="9.1"/><circle class="cls-8 severity-none" cx="103.87" cy="187.1" r="9.1"/><g class="severity-medium"><circle class="cls-2 severity-medium severity-medium" cx="103.87" cy="187.1" r="9.1"/><path class="cls-4 severity-medium" d="M103.87 178v18.1c-5 0-9.1-4.1-9.1-9.1s4.1-9 9.1-9Z"/></g></g><g id="damage-pill_windshield_front"><circle class="cls-6 damage-pill-background" cx="240.16" cy="64.39" r="19.13"/><circle class="cls-3 severity-low" cx="240.16" cy="64.39" r="9.1"/><circle class="cls-5 severity-high" cx="240.16" cy="64.39" r="9.1"/><circle class="cls-8 severity-none" cx="240.16" cy="64.39" r="9.1"/><g class="severity-medium"><circle class="cls-2 severity-medium severity-medium" cx="240.16" cy="64.39" r="9.1"/><path class="cls-4 severity-medium" d="M240.16 55.29v18.1c-5 0-9.1-4.1-9.1-9.1s4.1-9 9.1-9Z"/></g></g><g id="damage-pill-pricing_windshield_front"><path class="cls-6 damage-pill-background" d="M295.14 83.52h-54.98c-10.56 0-19.13-8.58-19.13-19.13 0-10.56 8.58-19.13 19.13-19.13h54.98c10.56 0 19.13 8.58 19.13 19.13 0 10.56-8.58 19.13-19.13 19.13Z"/><text class="cls-7 damage-pill-text" transform="translate(262.24 68.67)">9999€</text><circle class="cls-3 severity-low" cx="240.16" cy="64.39" r="9.1"/><circle class="cls-5 severity-high" cx="240.16" cy="64.39" r="9.1"/><circle class="cls-8 severity-none" cx="240.16" cy="64.39" r="9.1"/><g class="severity-medium"><circle class="cls-2 severity-medium severity-medium" cx="240.16" cy="64.39" r="9.1"/><path class="cls-4 severity-medium" d="M240.16 55.29v18.1c-5 0-9.1-4.1-9.1-9.1s4.1-9 9.1-9Z"/></g></g><g id="damage-pill_roof"><circle class="cls-6 damage-pill-background" cx="153.31" cy="20.13" r="19.13"/><circle class="cls-3 severity-low" cx="153.31" cy="20.13" r="9.1"/><circle class="cls-5 severity-high" cx="153.31" cy="20.13" r="9.1"/><circle class="cls-8 severity-none" cx="153.31" cy="20.13" r="9.1"/><g class="severity-medium"><circle class="cls-2 severity-medium severity-medium" cx="153.31" cy="20.13" r="9.1"/><path class="cls-4 severity-medium" d="M153.31 11.03v18.1c-5 0-9.1-4.1-9.1-9.1s4.1-9 9.1-9Z"/></g></g><g id="damage-pill-pricing_roof"><path class="cls-6 damage-pill-background" d="M208.3 39.27h-54.98c-10.56 0-19.13-8.58-19.13-19.13 0-10.56 8.58-19.13 19.13-19.13h54.98c10.56 0 19.13 8.58 19.13 19.13 0 10.56-8.58 19.13-19.13 19.13Z"/><text class="cls-7 damage-pill-text" transform="translate(175.4 24.42)">9999€</text><circle class="cls-3 severity-low" cx="153.31" cy="20.13" r="9.1"/><circle class="cls-5 severity-high" cx="153.31" cy="20.13" r="9.1"/><circle class="cls-8 severity-none" cx="153.31" cy="20.13" r="9.1"/><g class="severity-medium"><circle class="cls-2 severity-medium severity-medium" cx="153.31" cy="20.13" r="9.1"/><path class="cls-4 severity-medium" d="M153.31 11.03v18.1c-5 0-9.1-4.1-9.1-9.1s4.1-9 9.1-9Z"/></g></g><g id="damage-pill_fender_back_right"><circle class="cls-6 damage-pill-background" cx="28.44" cy="68.27" r="19.13"/><circle class="cls-3 severity-low" cx="28.44" cy="68.27" r="9.1"/><circle class="cls-5 severity-high" cx="28.44" cy="68.27" r="9.1"/><circle class="cls-8 severity-none" cx="28.44" cy="68.27" r="9.1"/><g class="severity-medium"><circle class="cls-2 severity-medium severity-medium" cx="28.44" cy="68.27" r="9.1"/><path class="cls-4 severity-medium" d="M28.44 59.17v18.1c-5 0-9.1-4.1-9.1-9.1s4.1-9 9.1-9Z"/></g></g><g id="damage-pill-pricing_fender_back_right"><path class="cls-6 damage-pill-background" d="M83.42 87.41H28.44c-10.56 0-19.13-8.58-19.13-19.13 0-10.56 8.58-19.13 19.13-19.13h54.98c10.56 0 19.13 8.58 19.13 19.13 0 10.56-8.58 19.13-19.13 19.13Z"/><text class="cls-7 damage-pill-text" transform="translate(50.52 72.56)">9999€</text><circle class="cls-3 severity-low" cx="28.44" cy="68.27" r="9.1"/><circle class="cls-5 severity-high" cx="28.44" cy="68.27" r="9.1"/><circle class="cls-8 severity-none" cx="28.44" cy="68.27" r="9.1"/><g class="severity-medium"><circle class="cls-2 severity-medium severity-medium" cx="28.44" cy="68.27" r="9.1"/><path class="cls-4 severity-medium" d="M28.44 59.17v18.1c-5 0-9.1-4.1-9.1-9.1s4.1-9 9.1-9Z"/></g></g><g id="damage-pill_wheel_back_right"><circle class="cls-6 damage-pill-background" cx="33" cy="129.55" r="19.13"/><circle class="cls-3 severity-low" cx="33" cy="129.55" r="9.1"/><circle class="cls-5 severity-high" cx="33" cy="129.55" r="9.1"/><circle class="cls-8 severity-none" cx="33" cy="129.55" r="9.1"/><g class="severity-medium"><circle class="cls-2 severity-medium severity-medium" cx="33" cy="129.55" r="9.1"/><path class="cls-4 severity-medium" d="M33 120.45v18.1c-5 0-9.1-4.1-9.1-9.1s4.1-9 9.1-9Z"/></g></g><g id="damage-pill-pricing_wheel_back_right"><path class="cls-6 damage-pill-background" d="M87.98 148.69H33c-10.56 0-19.13-8.58-19.13-19.13 0-10.56 8.58-19.13 19.13-19.13h54.98c10.56 0 19.13 8.58 19.13 19.13 0 10.56-8.58 19.13-19.13 19.13Z"/><text class="cls-7 damage-pill-text" transform="translate(55.08 133.84)">9999€</text><circle class="cls-3 severity-low" cx="33" cy="129.55" r="9.1"/><circle class="cls-5 severity-high" cx="33" cy="129.55" r="9.1"/><circle class="cls-8 severity-none" cx="33" cy="129.55" r="9.1"/><g class="severity-medium"><circle class="cls-2 severity-medium severity-medium" cx="33" cy="129.55" r="9.1"/><path class="cls-4 severity-medium" d="M33 120.45v18.1c-5 0-9.1-4.1-9.1-9.1s4.1-9 9.1-9Z"/></g></g><g id="damage-pill_tail_light_right"><circle class="cls-6 damage-pill-background" cx="20.13" cy="66.87" r="19.13"/><circle class="cls-3 severity-low" cx="20.13" cy="66.87" r="9.1"/><circle class="cls-5 severity-high" cx="20.13" cy="66.87" r="9.1"/><circle class="cls-8 severity-none" cx="20.13" cy="66.87" r="9.1"/><g class="severity-medium"><circle class="cls-2 severity-medium severity-medium" cx="20.13" cy="66.87" r="9.1"/><path class="cls-4 severity-medium" d="M20.13 57.77v18.1c-5 0-9.1-4.1-9.1-9.1s4.1-9 9.1-9Z"/></g></g><g id="damage-pill-pricing_tail_light_right"><path class="cls-6 damage-pill-background" d="M75.12 86H20.13C9.57 86 1 77.42 1 66.87c0-10.56 8.58-19.13 19.13-19.13h54.98c10.56 0 19.13 8.58 19.13 19.13C94.24 77.43 85.66 86 75.11 86Z"/><text class="cls-7 damage-pill-text" transform="translate(42.22 71.15)">9999€</text><circle class="cls-3 severity-low" cx="20.13" cy="66.87" r="9.1"/><circle class="cls-5 severity-high" cx="20.13" cy="66.87" r="9.1"/><circle class="cls-8 severity-none" cx="20.13" cy="66.87" r="9.1"/><g class="severity-medium"><circle class="cls-2 severity-medium severity-medium" cx="20.13" cy="66.87" r="9.1"/><path class="cls-4 severity-medium" d="M20.13 57.77v18.1c-5 0-9.1-4.1-9.1-9.1s4.1-9 9.1-9Z"/></g></g></svg>
