<svg xmlns="http://www.w3.org/2000/svg" viewBox="0 0 538.53 315.99"><defs><style>.cls-1{stroke:#fff;stroke-linecap:round;stroke-linejoin:round}.cls-1,.cls-2,.cls-3{fill:none}.cls-4{fill:#e1a25b}.cls-5{fill:#f49796;stroke:#f49796}.cls-2,.cls-3,.cls-5,.cls-6{stroke-miterlimit:10;stroke-width:2px}.cls-6{fill:#31333e;stroke:#595e72}.cls-2{stroke:#e1a25b}.cls-3{stroke:#62b0ef}.cls-7{font-family:sans-serif;font-size:13px;isolation:isolate}.cls-7,.cls-8{fill:#fff}</style></defs><g id="door_front_right" class="car-part selectable"><path class="cls-1" d="M387.14 153.75c.8-2.8 14-31.4 6.8-52.4-3.8-8.8-5.23-12.56-6.1-15 4.2-1 52.78-15.68 58.18-17.18h0c1.21.04 2.56.07 3.93.1 1.01 1.39 2.6 2.9 5.49 6.08 6.5 18.5-8.96 55.52-14.09 65.48l-53.46 33.46c-.3-2.4-1.55-17.74-.75-20.54Zm15.6-42.7c1.3.6 15.3-5.7 15.8-8.2s-1.9-3.4-2.1-3.4c-.2.1-2.2.4-2.8.6l-6.8 2.8s-4.7 2.3-4.8 3.2c-.2.9-.6 4.4.7 5h0Z"/><path id="handle_front_left" class="cls-1 car-part" d="M402.74 111.05c1.3.6 15.3-5.7 15.8-8.2s-1.9-3.4-2.1-3.4c-.2.1-2.2.4-2.8.6l-6.8 2.8s-4.7 2.3-4.8 3.2c-.2.9-.6 4.4.7 5h0Z"/></g><g id="door_back_right" class="car-part selectable"><path class="cls-1" d="M351.64 95.15c6.5-.7 32-7.8 36.2-8.8.87 2.44 2.3 6.2 6.1 15 7.2 21-6 49.6-6.8 52.4-.8 2.8.45 18.14.75 20.54l-55.43 38.75c-9.19-37.29-28.12-49.25-41.62-82.19-16.6-18.9-15.8-25.8-16.4-26.9 7 .5 70.7-8.1 77.2-8.8h0Zm-40.7 52.8c1.5-.1 9.3-2.2 10.1-2.6 1.2-.5 12.7-5.8 12.7-5.8s7.1-4 7.1-5.4-.6-3.8-1.9-4.4c-1-.3-4.9.7-6.5 1.4-.1 0-12.7 5-12.7 5s-7 3.4-7.6 3.7c-.9.5-2.3 1.9-2.5 2.6-.4 1.3-.2 4.9 1.3 5.5h0Z"/><path id="handle_back_left" class="cls-1 car-part" d="M310.94 147.95c1.5-.1 9.3-2.2 10.1-2.6 1.2-.5 12.7-5.8 12.7-5.8s7.1-4 7.1-5.4-.6-3.8-1.9-4.4c-1-.3-4.9.7-6.5 1.4-.1 0-12.7 5-12.7 5s-7 3.4-7.6 3.7c-.9.5-2.3 1.9-2.5 2.6-.4 1.3-.2 4.9 1.3 5.5h0Z"/></g><path id="fender_front_right" class="cls-1 car-part selectable" d="m441.35 140.83 5.89-3.48c6.71-22.61 15.48-39.39 21.25-45.68.93-1.02 1.79-1.77 2.55-2.22 3.8-2.2 4.3 1.5 4.2 5.1-.1 3.02-.6 6.39-1.33 9.83-.24 1.12-.5 2.24-.78 3.37a132.002 132.002 0 0 1-3.39 11.33c-.03.09-.06.19-.1.28-.15.45-.31.89-.46 1.31 9.49-24.12 8.55-31.73 7.76-37.32.1-2.8.3-14.5-3.1-15.5-1-.4-4.38-1.54-8.38-3.14-.2.53-.41.96-.62 1.24-.6.8-2.3 2.7-4.3 3.1-1.06.21-5.96.28-10.59.22 1.01 1.39 2.6 2.9 5.49 6.08 6.5 18.5-8.96 55.52-14.09 65.48Z"/><path id="window_back_right" class="cls-1 car-part selectable" d="M250.74 78.15c6.4 9.4 23.1 24.7 23.7 25.8 7 .5 70.7-8.1 77.2-8.8s32-7.8 36.2-8.8c-1.7-4.2-8.09-40.64-23.46-72.12-21.01 1.77-64.07 9.52-105.54 40.22-3.28 3.32-6.28 6.29-8.26 9.28-2.92 4.4-3.65 8.82.16 14.42h0Z"/><path id="window_front_right" class="cls-1 car-part selectable" d="M364.38 14.23c15.37 31.48 21.76 67.92 23.46 72.12 4.2-1 52.78-15.68 58.18-17.18h0c-2.43-.09-4.33-.23-4.86-.42-1-.4-2.52-.5-2.52-.5l-1.2-5.2 2.9-1.1s.37-2.62 1.33-5.25c-5.6-6.9-12.03-16.95-25.43-27.45-2.2-1.72-4.5-3.29-6.86-4.71-12.04-7.24-25.53-10.62-33.64-10.79-2.11-.04-6.02.03-11.36.48Z"/><path id="pillar" class="cls-1 car-part selectable" d="M409.38 24.54c2.36 1.42 4.66 2.99 6.86 4.71 13.4 10.5 19.83 20.55 25.43 27.45.34-.92.75-1.85 1.24-2.66-8.14-10.24-17.71-20.66-27.55-29.16h0l-5.97-.34h-.01Z"/><path id="mirror_right" class="cls-1 car-part selectable" d="M440.34 61.95s.37-2.62 1.33-5.25c.34-.92.75-1.85 1.24-2.66.61-1.01 1.35-1.85 2.23-2.29.23-.12.47-.22.72-.32 1.22-1 3.76-.72 6.98.32 3.7 1.2 12.4 5.5 13.2 6.5.8.9.7 2 .5 2.8-.33 1.31-.7 2.66-1.08 3.66-.2.53-.41.96-.62 1.24-.6.8-2.3 2.7-4.3 3.1-1.06.21-5.96.28-10.59.22-1.37-.03-2.72-.06-3.93-.11-2.43-.08-4.33-.22-4.86-.41-1-.4-2.52-.5-2.52-.5l-1.2-5.2 2.9-1.1Z"/><path id="roof" class="cls-1 car-part selectable" d="M61.14 31.85c10-5.1 91.1 18.1 96.7 19.6 1.75.46 4.5 1.24 7.91 2.23 14.48 4.21 40.94 12.12 54.29 14.47l30.54-4.42c1.98-2.99 4.98-5.96 8.26-9.28 41.47-30.7 84.53-38.45 105.54-40.22 5.34-.45 9.25-.52 11.36-.48 8.11.17 21.6 3.55 33.64 10.79l5.97.34c-.44-.39-.87-.76-1.31-1.13-10.3-8.7-18.2-12.5-34.9-16.1-15.2-3-51.6-5.8-64.7-6.3-13.3-.5-59.79-1.4-84.4-.4-31.01 1.26-77.2 8.65-99.7 13-9.1 1.76-66.5 13.7-67.9 14.3s-1.2 2.1-1.3 3.6h0Z"/><path id="rocker_panel_right" class="cls-1 car-part selectable" d="M312.94 241.75s1 0 1.4-.1c.42-.1 8.73-6.12 20.91-15.05 12.69-9.31 29.58-21.79 46.09-34.05 23.18-17.22 45.61-33.99 54.59-40.9 2.07-1.6 3.43-2.67 3.91-3.1 1.1-2.5 6.67-8.62 7.4-11.2l-5.89 3.48-53.46 33.46-55.43 38.75-13.7 10.01c-1.93 7.59-4.5 13.86-5.53 16.96-.09.58-.19 1.16-.29 1.74h0Z"/><path class="cls-1 background" d="M472.44 101.35c-.07 4.56-1.42 12.61-3.84 20.8.18-.45.35-.89.52-1.32 2.76-7.64 5.84-18.24 6.12-26.28.1-3.6-.4-7.3-4.2-5.1-.76.45-1.62 1.2-2.55 2.22 2.2 1.4 4.05 3.18 3.95 9.68ZM289.04 189.25c2.7 1.4 9.5 3.5 12.4 5.9s9.8 5.9 12 15.4c1.98 8.55 1.45 19.12-.21 29.46 1.03-3.1 3.6-9.37 5.53-16.96 1.61-6.37 2.77-13.68 2.18-20.8-2.2-9.3-7.3-15-15.3-16.6-4.95-.42-10.67.98-16.6 3.6h0Z"/><path id="fender_back_right" class="cls-1 car-part selectable" d="M242.04 147.45c-2.6 10.3-38.8 45.1-41.5 46.7l45.41 34.03c.88-1.39 1.75-2.74 2.59-4.03 8.37-13.06 25.13-28.11 40.5-34.9 5.93-2.62 11.65-4.02 16.6-3.6 8 1.6 13.1 7.3 15.3 16.6.59 7.12-.57 14.43-2.18 20.8l13.7-10.01c-9.19-37.29-28.12-49.25-41.62-82.19-16.6-18.9-15.8-25.8-16.4-26.9-.6-1.1-17.3-16.4-23.7-25.8-3.81-5.6-3.08-10.02-.16-14.42l-30.54 4.42c-5.69 9.68-33.18 45.34-49.59 50.76 0 .02-.01.03-.01.04-1.3 4.8-9.4 19.1-17.6 23.9 10.7.4 62.7-7 67.4-6.5 4.7.5 18 5.9 21.8 11.1h0Z"/><path id="tail_light_right" class="cls-1 car-part selectable" d="M89.24 145.65c3.7-.7 52.9-3.2 63.6-2.8s62.7-7 67.4-6.5c4.7.5 18 5.9 21.8 11.1-2.6 10.3-38.8 45.1-41.5 46.7-2.7 1.6-6 1.8-16.3 2.7s-31.6-3.2-34.9-4.3c-3.1-1-19.9-11.1-19.9-11.1l-39.4-12.6c-1.9-1.7-9.4-14.2-9.9-16.7.3-2 5.4-5.8 9.1-6.5h0Z"/><path id="tail_light_left" class="cls-1 car-part selectable" d="M19.14 109.35c-.06 1.01.37 2.63 1.1 4.59-.19-8.8 12.1-24.39 14.2-26.59-1.4.7-7.4 3-9.9 5.5s-5.1 11.6-5.4 16.5h0Z"/><path id="windshield_back" class="cls-1 car-part selectable" d="M32.44 96.45c1.9 12.4 44.8 30.3 57.1 32 12.3 1.7 64.4-4.2 80.8-9.5.04 0 .07-.02.11-.04 1.32-4.95 7.39-42.48 6.29-49.96-1.06-7.25-6.14-13-10.99-15.27-3.41-.99-6.16-1.77-7.91-2.23-5.6-1.5-86.7-24.7-96.7-19.6-.1 1.5 2.7 1.4 3.5 2.3.8 1 2.5 5.8 1.9 8.9-.3 1.5-3.47 7.91-4.5 9.6-.99 1.63-16.96 22.15-24.17 30.85v.02s-.07.06-.12.13c-.02.03-.05.06-.08.1l-.09.12c-1.03 1.35-4.55 6.37-5.14 12.58Z"/><path id="trunk" class="cls-1 car-part selectable" d="M20.24 113.94h0c1.73 4.65 5.1 11.21 7.47 16.13q1.58 3.28.01.02c2.39 2.98 5.14 5.87 8.31 8.69 9.21 8.21 21.96 15.88 39.51 23.85 4.51 2.05 9.33 4.12 14.5 6.22-1.9-1.7-9.4-14.2-9.9-16.7.3-2 5.4-5.8 9.1-6.5s52.9-3.2 63.6-2.8c8.2-4.8 16.3-19.1 17.6-23.9 0 0 .01-.02.01-.04-.04.02-.07.03-.11.04-16.4 5.3-68.5 11.2-80.8 9.5s-55.2-19.6-57.1-32c.59-6.21 4.11-11.23 5.14-12.58-1.72 2.03-2.87 3.34-3.14 3.48-2.1 2.2-14.39 17.79-14.2 26.59h0Zm10.1 22.61c-.04-.93-1.14-3.37-2.62-6.46 2.39 2.98 5.14 5.87 8.31 8.69v17.02l39.71 30.19-.2-23.36c4.51 2.05 9.33 4.12 14.5 6.22l39.4 12.6c.3 3.7 0 23.8-2.9 30.1s-9.9 11.9-11.5 12.3-7 .5-12.7-2.2c-5.7-2.8-46.1-21.9-60.4-44.8s-13-34.2-13-34.2 2.7-2.6 1.4-6.1h0Z"/><path id="license_plate_back" class="cls-1 car-part selectable" d="M36.03 138.78v17.02l39.71 30.19-.2-23.36c-17.55-7.97-30.3-15.64-39.51-23.85h0Z"/><g id="wheel_back_right" class="car-part selectable"><path class="cls-1" d="M245.95 228.18c.88-1.39 1.75-2.74 2.59-4.03 8.37-13.06 25.13-28.11 40.5-34.9 2.7 1.4 9.5 3.5 12.4 5.9s9.8 5.9 12 15.4c1.98 8.55 1.45 19.12-.21 29.46-.09.58-.19 1.16-.29 1.74-.09.57-.2 1.14-.3 1.7-1.2 3.8-8.5 34.1-34.5 57.9-11.9 9.6-22.9 15.9-34.4 13.7-8.89-2.29-25.18-17.38-26.6-18.71 5.48-28.59 18.37-51.7 28.81-68.16h0Zm13.39 68.79c7.54 3.99 22.66-9.82 33.78-30.85 11.11-21.02 14.01-41.3 6.46-45.29-7.54-3.98-22.66 9.83-33.78 30.85-11.11 21.03-14.01 41.3-6.46 45.29Z"/><path class="cls-1" d="M259.34 296.97c7.54 3.99 22.66-9.82 33.78-30.85 11.11-21.02 14.01-41.3 6.46-45.29-7.54-3.98-22.66 9.83-33.78 30.85-11.11 21.03-14.01 41.3-6.46 45.29Z"/></g><path id="fog_light_back_right" class="cls-1 car-part selectable" d="M171.54 294.35c5 1.6 10.9 2.2 12.6 2 0 0-17-26.5-19.3-27.2s-14.2 3.4-14.6 4.8c-.5 1.8 11.2 12.8 21.3 20.4h0Z"/><path class="cls-1 background" d="M170.45 118.91c16.41-5.42 43.9-41.08 49.59-50.76-13.35-2.35-39.81-10.26-54.29-14.47 4.85 2.27 9.93 8.02 10.99 15.27 1.1 7.48-4.97 45.01-6.29 49.96h0Z"/><path id="bumper_back" class="cls-1 car-part selectable" d="M16.44 166.15c.4-8.8 12.5-28.3 13.9-29.6 1.3 3.5-1.4 6.1-1.4 6.1s-1.3 11.3 13 34.2 54.7 42 60.4 44.8c5.7 2.7 11.1 2.6 12.7 2.2s8.6-6 11.5-12.3 3.2-26.4 2.9-30.1c0 0 16.8 10.1 19.9 11.1 3.3 1.1 24.6 5.2 34.9 4.3s13.6-1.1 16.3-2.7l45.41 34.03c-10.44 16.46-23.33 39.57-28.81 68.16-.5 2.56-.93 5.16-1.3 7.81-23.3 13.4-61.8 5.9-72.3 3.9-45.6-10.3-57-20.3-76-36.3-20.2-17.1-36.8-43.1-40.7-56.2-.8-3.2-.7-3.7-1.1-5.1-1-3.1-3.8-6.3-4.2-10.9-.4-4.6-1.1-11.2-.5-16.1.6-4.8-5.1-8.5-4.6-17.3h0Zm155.1 128.2c5 1.6 10.9 2.2 12.6 2 0 0-17-26.5-19.3-27.2s-14.2 3.4-14.6 4.8c-.5 1.8 11.2 12.8 21.3 20.4h0Z"/><g id="wheel_front_right" class="car-part selectable"><path class="cls-1" d="M439.84 148.55c1.1-2.5 6.67-8.62 7.4-11.2 6.71-22.61 15.48-39.39 21.25-45.68 2.2 1.4 4.05 3.18 3.95 9.68-.07 4.56-1.42 12.61-3.84 20.8-.05.17-.1.34-.15.5-1 3.33-2.17 6.67-3.51 9.8-3.5 8.3-6.9 17.4-15.6 22.5-3.7.8-12.41-2.9-13.41-3.3 2.07-1.6 3.43-2.67 3.91-3.1Zm13.75-3.78c1.65.64 6.04-6.8 9.8-16.61 3.77-9.8 5.49-18.27 3.84-18.9-1.65-.63-6.04 6.8-9.81 16.61-3.76 9.8-5.48 18.27-3.83 18.9Z"/><path class="cls-1" d="M453.59 144.77c1.65.64 6.04-6.8 9.8-16.61 3.77-9.8 5.49-18.27 3.84-18.9-1.65-.63-6.04 6.8-9.81 16.61-3.76 9.8-5.48 18.27-3.83 18.9Z"/></g><g id="damage-pill_tail_light_right"><circle class="cls-6 damage-pill-background" cx="174.14" cy="166.65" r="19.13"/><circle class="cls-3 severity-low" cx="174.14" cy="166.65" r="9.1"/><circle class="cls-5 severity-high" cx="174.14" cy="166.65" r="9.1"/><circle class="cls-8 severity-none" cx="174.14" cy="166.65" r="9.1"/><g class="severity-medium"><circle class="cls-2 severity-medium severity-medium" cx="174.14" cy="166.65" r="9.1"/><path class="cls-4 severity-medium" d="M174.14 157.55v18.1c-5 0-9.1-4.1-9.1-9.1s4.1-9 9.1-9Z"/></g></g><g id="damage-pill-pricing_tail_light_right"><path class="cls-6 damage-pill-background" d="M229.12 185.79h-54.98c-10.56 0-19.13-8.58-19.13-19.13 0-10.56 8.58-19.13 19.13-19.13h54.98c10.56 0 19.13 8.58 19.13 19.13 0 10.56-8.58 19.13-19.13 19.13Z"/><text class="cls-7 damage-pill-text" transform="translate(196.22 170.94)">9999€</text><circle class="cls-3 severity-low" cx="174.14" cy="166.65" r="9.1"/><circle class="cls-5 severity-high" cx="174.14" cy="166.65" r="9.1"/><circle class="cls-8 severity-none" cx="174.14" cy="166.65" r="9.1"/><g class="severity-medium"><circle class="cls-2 severity-medium severity-medium" cx="174.14" cy="166.65" r="9.1"/><path class="cls-4 severity-medium" d="M174.14 157.55v18.1c-5 0-9.1-4.1-9.1-9.1s4.1-9 9.1-9Z"/></g></g><g id="damage-pill_bumper_back"><circle class="cls-6 damage-pill-background" cx="83.37" cy="244.27" r="19.13"/><circle class="cls-3 severity-low" cx="83.37" cy="244.27" r="9.1"/><circle class="cls-5 severity-high" cx="83.37" cy="244.27" r="9.1"/><circle class="cls-8 severity-none" cx="83.37" cy="244.27" r="9.1"/><g class="severity-medium"><circle class="cls-2 severity-medium severity-medium" cx="83.37" cy="244.27" r="9.1"/><path class="cls-4 severity-medium" d="M83.37 235.17v18.1c-5 0-9.1-4.1-9.1-9.1s4.1-9 9.1-9Z"/></g></g><g id="damage-pill-pricing_bumper_back"><path class="cls-6 damage-pill-background" d="M138.35 263.41H83.37c-10.56 0-19.13-8.58-19.13-19.13 0-10.56 8.58-19.13 19.13-19.13h54.98c10.56 0 19.13 8.58 19.13 19.13 0 10.56-8.58 19.13-19.13 19.13Z"/><text class="cls-7 damage-pill-text" transform="translate(105.46 248.56)">9999€</text><circle class="cls-3 severity-low" cx="83.37" cy="244.27" r="9.1"/><circle class="cls-5 severity-high" cx="83.37" cy="244.27" r="9.1"/><circle class="cls-8 severity-none" cx="83.37" cy="244.27" r="9.1"/><g class="severity-medium"><circle class="cls-2 severity-medium severity-medium" cx="83.37" cy="244.27" r="9.1"/><path class="cls-4 severity-medium" d="M83.37 235.17v18.1c-5 0-9.1-4.1-9.1-9.1s4.1-9 9.1-9Z"/></g></g><g id="damage-pill_license_plate_back"><circle class="cls-6 damage-pill-background" cx="55.21" cy="162.39" r="19.13"/><circle class="cls-3 severity-low" cx="55.21" cy="162.39" r="9.1"/><circle class="cls-5 severity-high" cx="55.21" cy="162.39" r="9.1"/><circle class="cls-8 severity-none" cx="55.21" cy="162.39" r="9.1"/><g class="severity-medium"><circle class="cls-2 severity-medium severity-medium" cx="55.21" cy="162.39" r="9.1"/><path class="cls-4 severity-medium" d="M55.21 153.29v18.1c-5 0-9.1-4.1-9.1-9.1s4.1-9 9.1-9Z"/></g></g><g id="damage-pill-pricing_license_plate_back"><path class="cls-6 damage-pill-background" d="M110.19 181.52H55.21c-10.56 0-19.13-8.58-19.13-19.13 0-10.56 8.58-19.13 19.13-19.13h54.98c10.56 0 19.13 8.58 19.13 19.13 0 10.56-8.58 19.13-19.13 19.13Z"/><text class="cls-7 damage-pill-text" transform="translate(77.29 166.67)">9999€</text><circle class="cls-3 severity-low" cx="55.21" cy="162.39" r="9.1"/><circle class="cls-5 severity-high" cx="55.21" cy="162.39" r="9.1"/><circle class="cls-8 severity-none" cx="55.21" cy="162.39" r="9.1"/><g class="severity-medium"><circle class="cls-2 severity-medium severity-medium" cx="55.21" cy="162.39" r="9.1"/><path class="cls-4 severity-medium" d="M55.21 153.29v18.1c-5 0-9.1-4.1-9.1-9.1s4.1-9 9.1-9Z"/></g></g><g id="damage-pill_fog_light_back_right"><circle class="cls-6 damage-pill-background" cx="164.81" cy="280.83" r="19.13"/><circle class="cls-3 severity-low" cx="164.81" cy="280.83" r="9.1"/><circle class="cls-5 severity-high" cx="164.81" cy="280.83" r="9.1"/><circle class="cls-8 severity-none" cx="164.81" cy="280.83" r="9.1"/><g class="severity-medium"><circle class="cls-2 severity-medium severity-medium" cx="164.81" cy="280.83" r="9.1"/><path class="cls-4 severity-medium" d="M164.81 271.73v18.1c-5 0-9.1-4.1-9.1-9.1s4.1-9 9.1-9Z"/></g></g><g id="damage-pill-pricing_fog_light_back_right"><path class="cls-6 damage-pill-background" d="M219.8 299.97h-54.98c-10.56 0-19.13-8.58-19.13-19.13 0-10.56 8.58-19.13 19.13-19.13h54.98c10.56 0 19.13 8.58 19.13 19.13 0 10.56-8.58 19.13-19.13 19.13Z"/><text class="cls-7 damage-pill-text" transform="translate(186.9 285.12)">9999€</text><circle class="cls-3 severity-low" cx="164.81" cy="280.83" r="9.1"/><circle class="cls-5 severity-high" cx="164.81" cy="280.83" r="9.1"/><circle class="cls-8 severity-none" cx="164.81" cy="280.83" r="9.1"/><g class="severity-medium"><circle class="cls-2 severity-medium severity-medium" cx="164.81" cy="280.83" r="9.1"/><path class="cls-4 severity-medium" d="M164.81 271.73v18.1c-5 0-9.1-4.1-9.1-9.1s4.1-9 9.1-9Z"/></g></g><g id="damage-pill_wheel_front_right"><circle class="cls-6 damage-pill-background" cx="461.16" cy="125.15" r="19.13"/><circle class="cls-3 severity-low" cx="461.16" cy="125.15" r="9.1"/><circle class="cls-5 severity-high" cx="461.16" cy="125.15" r="9.1"/><circle class="cls-8 severity-none" cx="461.16" cy="125.15" r="9.1"/><g class="severity-medium"><circle class="cls-2 severity-medium severity-medium" cx="461.16" cy="125.15" r="9.1"/><path class="cls-4 severity-medium" d="M461.16 116.05v18.1c-5 0-9.1-4.1-9.1-9.1s4.1-9 9.1-9Z"/></g></g><g id="damage-pill-pricing_wheel_front_right"><path class="cls-6 damage-pill-background" d="M516.14 144.29h-54.98c-10.56 0-19.13-8.58-19.13-19.13 0-10.56 8.58-19.13 19.13-19.13h54.98c10.56 0 19.13 8.58 19.13 19.13 0 10.56-8.58 19.13-19.13 19.13Z"/><text class="cls-7 damage-pill-text" transform="translate(483.24 129.44)">9999€</text><circle class="cls-3 severity-low" cx="461.16" cy="125.15" r="9.1"/><circle class="cls-5 severity-high" cx="461.16" cy="125.15" r="9.1"/><circle class="cls-8 severity-none" cx="461.16" cy="125.15" r="9.1"/><g class="severity-medium"><circle class="cls-2 severity-medium severity-medium" cx="461.16" cy="125.15" r="9.1"/><path class="cls-4 severity-medium" d="M461.16 116.05v18.1c-5 0-9.1-4.1-9.1-9.1s4.1-9 9.1-9Z"/></g></g><g id="damage-pill_fender_front_right"><circle class="cls-6 damage-pill-background" cx="463.42" cy="80.94" r="19.13"/><circle class="cls-3 severity-low" cx="463.42" cy="80.94" r="9.1"/><circle class="cls-5 severity-high" cx="463.42" cy="80.94" r="9.1"/><circle class="cls-8 severity-none" cx="463.42" cy="80.94" r="9.1"/><g class="severity-medium"><circle class="cls-2 severity-medium severity-medium" cx="463.42" cy="80.94" r="9.1"/><path class="cls-4 severity-medium" d="M463.42 71.84v18.1c-5 0-9.1-4.1-9.1-9.1s4.1-9 9.1-9Z"/></g></g><g id="damage-pill-pricing_fender_front_right"><path class="cls-6 damage-pill-background" d="M518.4 100.07h-54.98c-10.56 0-19.13-8.58-19.13-19.13 0-10.56 8.58-19.13 19.13-19.13h54.98c10.56 0 19.13 8.58 19.13 19.13 0 10.56-8.58 19.13-19.13 19.13Z"/><text class="cls-7 damage-pill-text" transform="translate(485.5 85.22)">9999€</text><circle class="cls-3 severity-low" cx="463.42" cy="80.94" r="9.1"/><circle class="cls-5 severity-high" cx="463.42" cy="80.94" r="9.1"/><circle class="cls-8 severity-none" cx="463.42" cy="80.94" r="9.1"/><g class="severity-medium"><circle class="cls-2 severity-medium severity-medium" cx="463.42" cy="80.94" r="9.1"/><path class="cls-4 severity-medium" d="M463.42 71.84v18.1c-5 0-9.1-4.1-9.1-9.1s4.1-9 9.1-9Z"/></g></g><g id="damage-pill_pillar"><circle class="cls-6 damage-pill-background" cx="429.31" cy="40.9" r="19.13"/><circle class="cls-3 severity-low" cx="429.31" cy="40.9" r="9.1"/><circle class="cls-5 severity-high" cx="429.31" cy="40.9" r="9.1"/><circle class="cls-8 severity-none" cx="429.31" cy="40.9" r="9.1"/><g class="severity-medium"><circle class="cls-2 severity-medium severity-medium" cx="429.31" cy="40.9" r="9.1"/><path class="cls-4 severity-medium" d="M429.31 31.8v18.1c-5 0-9.1-4.1-9.1-9.1s4.1-9 9.1-9Z"/></g></g><g id="damage-pill-pricing_pillar"><path class="cls-6 damage-pill-background" d="M484.29 60.03h-54.98c-10.56 0-19.13-8.58-19.13-19.13 0-10.56 8.58-19.13 19.13-19.13h54.98c10.56 0 19.13 8.58 19.13 19.13 0 10.56-8.58 19.13-19.13 19.13Z"/><text class="cls-7 damage-pill-text" transform="translate(451.39 45.18)">9999€</text><circle class="cls-3 severity-low" cx="429.31" cy="40.9" r="9.1"/><circle class="cls-5 severity-high" cx="429.31" cy="40.9" r="9.1"/><circle class="cls-8 severity-none" cx="429.31" cy="40.9" r="9.1"/><g class="severity-medium"><circle class="cls-2 severity-medium severity-medium" cx="429.31" cy="40.9" r="9.1"/><path class="cls-4 severity-medium" d="M429.31 31.8v18.1c-5 0-9.1-4.1-9.1-9.1s4.1-9 9.1-9Z"/></g></g><g id="damage-pill_window_front_right"><circle class="cls-6 damage-pill-background" cx="404.81" cy="51.81" r="19.13"/><circle class="cls-3 severity-low" cx="404.81" cy="51.81" r="9.1"/><circle class="cls-5 severity-high" cx="404.81" cy="51.81" r="9.1"/><circle class="cls-8 severity-none" cx="404.81" cy="51.81" r="9.1"/><g class="severity-medium"><circle class="cls-2 severity-medium severity-medium" cx="404.81" cy="51.81" r="9.1"/><path class="cls-4 severity-medium" d="M404.81 42.71v18.1c-5 0-9.1-4.1-9.1-9.1s4.1-9 9.1-9Z"/></g></g><g id="damage-pill-pricing_window_front_right"><path class="cls-6 damage-pill-background" d="M459.79 70.94h-54.98c-10.56 0-19.13-8.58-19.13-19.13 0-10.56 8.58-19.13 19.13-19.13h54.98c10.56 0 19.13 8.58 19.13 19.13 0 10.56-8.58 19.13-19.13 19.13Z"/><text class="cls-7 damage-pill-text" transform="translate(426.89 56.1)">9999€</text><circle class="cls-3 severity-low" cx="404.81" cy="51.81" r="9.1"/><circle class="cls-5 severity-high" cx="404.81" cy="51.81" r="9.1"/><circle class="cls-8 severity-none" cx="404.81" cy="51.81" r="9.1"/><g class="severity-medium"><circle class="cls-2 severity-medium severity-medium" cx="404.81" cy="51.81" r="9.1"/><path class="cls-4 severity-medium" d="M404.81 42.71v18.1c-5 0-9.1-4.1-9.1-9.1s4.1-9 9.1-9Z"/></g></g><g id="damage-pill_window_back_right"><circle class="cls-6 damage-pill-background" cx="329.25" cy="60.05" r="19.13"/><circle class="cls-3 severity-low" cx="329.25" cy="60.05" r="9.1"/><circle class="cls-5 severity-high" cx="329.25" cy="60.05" r="9.1"/><circle class="cls-8 severity-none" cx="329.25" cy="60.05" r="9.1"/><g class="severity-medium"><circle class="cls-2 severity-medium severity-medium" cx="329.25" cy="60.05" r="9.1"/><path class="cls-4 severity-medium" d="M329.25 50.95v18.1c-5 0-9.1-4.1-9.1-9.1s4.1-9 9.1-9Z"/></g></g><g id="damage-pill-pricing_window_back_right"><path class="cls-6 damage-pill-background" d="M329.25 79.19h-54.98c-10.56 0-19.13-8.58-19.13-19.13 0-10.56 8.58-19.13 19.13-19.13h54.98c10.56 0 19.13 8.58 19.13 19.13 0 10.56-8.58 19.13-19.13 19.13Z"/><text class="cls-7 damage-pill-text" transform="translate(296.35 64.34)">9999€</text><circle class="cls-3 severity-low" cx="274.27" cy="60.05" r="9.1"/><circle class="cls-5 severity-high" cx="274.27" cy="60.05" r="9.1"/><circle class="cls-8 severity-none" cx="274.27" cy="60.05" r="9.1"/><g class="severity-medium"><circle class="cls-2 severity-medium severity-medium" cx="274.27" cy="60.05" r="9.1"/><path class="cls-4 severity-medium" d="M274.27 50.95v18.1c-5 0-9.1-4.1-9.1-9.1s4.1-9 9.1-9Z"/></g></g><g id="damage-pill_mirror_right"><circle class="cls-6 damage-pill-background" cx="450.43" cy="60.05" r="19.13"/><circle class="cls-3 severity-low" cx="450.43" cy="60.05" r="9.1"/><circle class="cls-5 severity-high" cx="450.43" cy="60.05" r="9.1"/><circle class="cls-8 severity-none" cx="450.43" cy="60.05" r="9.1"/><g class="severity-medium"><circle class="cls-2 severity-medium severity-medium" cx="450.43" cy="60.05" r="9.1"/><path class="cls-4 severity-medium" d="M450.43 50.95v18.1c-5 0-9.1-4.1-9.1-9.1s4.1-9 9.1-9Z"/></g></g><g id="damage-pill-pricing_mirror_right"><path class="cls-6 damage-pill-background" d="M505.41 79.19h-54.98c-10.56 0-19.13-8.58-19.13-19.13 0-10.56 8.58-19.13 19.13-19.13h54.98c10.56 0 19.13 8.58 19.13 19.13 0 10.56-8.58 19.13-19.13 19.13Z"/><text class="cls-7 damage-pill-text" transform="translate(472.52 64.34)">9999€</text><circle class="cls-3 severity-low" cx="450.43" cy="60.05" r="9.1"/><circle class="cls-5 severity-high" cx="450.43" cy="60.05" r="9.1"/><circle class="cls-8 severity-none" cx="450.43" cy="60.05" r="9.1"/><g class="severity-medium"><circle class="cls-2 severity-medium severity-medium" cx="450.43" cy="60.05" r="9.1"/><path class="cls-4 severity-medium" d="M450.43 50.95v18.1c-5 0-9.1-4.1-9.1-9.1s4.1-9 9.1-9Z"/></g></g><g id="damage-pill_door_front_right"><circle class="cls-6 damage-pill-background" cx="423.57" cy="111.09" r="19.13"/><circle class="cls-3 severity-low" cx="423.57" cy="111.09" r="9.1"/><circle class="cls-5 severity-high" cx="423.57" cy="111.09" r="9.1"/><circle class="cls-8 severity-none" cx="423.57" cy="111.09" r="9.1"/><g class="severity-medium"><circle class="cls-2 severity-medium severity-medium" cx="423.57" cy="111.09" r="9.1"/><path class="cls-4 severity-medium" d="M423.57 101.99v18.1c-5 0-9.1-4.1-9.1-9.1s4.1-9 9.1-9Z"/></g></g><g id="damage-pill-pricing_door_front_right"><path class="cls-6 damage-pill-background" d="M478.55 130.23h-54.98c-10.56 0-19.13-8.58-19.13-19.13 0-10.56 8.58-19.13 19.13-19.13h54.98c10.56 0 19.13 8.58 19.13 19.13 0 10.56-8.58 19.13-19.13 19.13Z"/><text class="cls-7 damage-pill-text" transform="translate(445.65 115.38)">9999€</text><circle class="cls-3 severity-low" cx="423.57" cy="111.09" r="9.1"/><circle class="cls-5 severity-high" cx="423.57" cy="111.09" r="9.1"/><circle class="cls-8 severity-none" cx="423.57" cy="111.09" r="9.1"/><g class="severity-medium"><circle class="cls-2 severity-medium severity-medium" cx="423.57" cy="111.09" r="9.1"/><path class="cls-4 severity-medium" d="M423.57 101.99v18.1c-5 0-9.1-4.1-9.1-9.1s4.1-9 9.1-9Z"/></g></g><g id="damage-pill_door_back_right"><circle class="cls-6 damage-pill-background" cx="349.47" cy="139.35" r="19.13"/><circle class="cls-3 severity-low" cx="349.47" cy="139.35" r="9.1"/><circle class="cls-5 severity-high" cx="349.47" cy="139.35" r="9.1"/><circle class="cls-8 severity-none" cx="349.47" cy="139.35" r="9.1"/><g class="severity-medium"><circle class="cls-2 severity-medium severity-medium" cx="349.47" cy="139.35" r="9.1"/><path class="cls-4 severity-medium" d="M349.47 130.25v18.1c-5 0-9.1-4.1-9.1-9.1s4.1-9 9.1-9Z"/></g></g><g id="damage-pill-pricing_door_back_right"><path class="cls-6 damage-pill-background" d="M404.45 158.49h-54.98c-10.56 0-19.13-8.58-19.13-19.13 0-10.56 8.58-19.13 19.13-19.13h54.98c10.56 0 19.13 8.58 19.13 19.13 0 10.56-8.58 19.13-19.13 19.13Z"/><text class="cls-7 damage-pill-text" transform="translate(371.56 143.64)">9999€</text><circle class="cls-3 severity-low" cx="349.47" cy="139.35" r="9.1"/><circle class="cls-5 severity-high" cx="349.47" cy="139.35" r="9.1"/><circle class="cls-8 severity-none" cx="349.47" cy="139.35" r="9.1"/><g class="severity-medium"><circle class="cls-2 severity-medium severity-medium" cx="349.47" cy="139.35" r="9.1"/><path class="cls-4 severity-medium" d="M349.47 130.25v18.1c-5 0-9.1-4.1-9.1-9.1s4.1-9 9.1-9Z"/></g></g><g id="damage-pill_rocker_panel_right"><circle class="cls-6 damage-pill-background" cx="392.33" cy="179.08" r="19.13"/><circle class="cls-3 severity-low" cx="392.33" cy="179.08" r="9.1"/><circle class="cls-5 severity-high" cx="392.33" cy="179.08" r="9.1"/><circle class="cls-8 severity-none" cx="392.33" cy="179.08" r="9.1"/><g class="severity-medium"><circle class="cls-2 severity-medium severity-medium" cx="392.33" cy="179.08" r="9.1"/><path class="cls-4 severity-medium" d="M392.33 169.98v18.1c-5 0-9.1-4.1-9.1-9.1s4.1-9 9.1-9Z"/></g></g><g id="damage-pill-pricing_rocker_panel_right"><path class="cls-6 damage-pill-background" d="M447.31 198.21h-54.98c-10.56 0-19.13-8.58-19.13-19.13 0-10.56 8.58-19.13 19.13-19.13h54.98c10.56 0 19.13 8.58 19.13 19.13 0 10.56-8.58 19.13-19.13 19.13Z"/><text class="cls-7 damage-pill-text" transform="translate(414.41 183.36)">9999€</text><circle class="cls-3 severity-low" cx="392.33" cy="179.08" r="9.1"/><circle class="cls-5 severity-high" cx="392.33" cy="179.08" r="9.1"/><circle class="cls-8 severity-none" cx="392.33" cy="179.08" r="9.1"/><g class="severity-medium"><circle class="cls-2 severity-medium severity-medium" cx="392.33" cy="179.08" r="9.1"/><path class="cls-4 severity-medium" d="M392.33 169.98v18.1c-5 0-9.1-4.1-9.1-9.1s4.1-9 9.1-9Z"/></g></g><g id="damage-pill_windshield_back"><circle class="cls-6 damage-pill-background" cx="103.23" cy="80.87" r="19.13"/><circle class="cls-3 severity-low" cx="103.23" cy="80.87" r="9.1"/><circle class="cls-5 severity-high" cx="103.23" cy="80.87" r="9.1"/><circle class="cls-8 severity-none" cx="103.23" cy="80.87" r="9.1"/><g class="severity-medium"><circle class="cls-2 severity-medium severity-medium" cx="103.23" cy="80.87" r="9.1"/><path class="cls-4 severity-medium" d="M103.23 71.77v18.1c-5 0-9.1-4.1-9.1-9.1s4.1-9 9.1-9Z"/></g></g><g id="damage-pill-pricing_windshield_back"><path class="cls-6 damage-pill-background" d="M158.21 100.01h-54.98c-10.56 0-19.13-8.58-19.13-19.13 0-10.56 8.58-19.13 19.13-19.13h54.98c10.56 0 19.13 8.58 19.13 19.13 0 10.56-8.58 19.13-19.13 19.13Z"/><text class="cls-7 damage-pill-text" transform="translate(125.31 85.16)">9999€</text><circle class="cls-3 severity-low" cx="103.23" cy="80.87" r="9.1"/><circle class="cls-5 severity-high" cx="103.23" cy="80.87" r="9.1"/><circle class="cls-8 severity-none" cx="103.23" cy="80.87" r="9.1"/><g class="severity-medium"><circle class="cls-2 severity-medium severity-medium" cx="103.23" cy="80.87" r="9.1"/><path class="cls-4 severity-medium" d="M103.23 71.77v18.1c-5 0-9.1-4.1-9.1-9.1s4.1-9 9.1-9Z"/></g></g><g id="damage-pill_trunk"><circle class="cls-6 damage-pill-background" cx="50.39" cy="130.09" r="19.13"/><circle class="cls-3 severity-low" cx="50.39" cy="130.09" r="9.1"/><circle class="cls-5 severity-high" cx="50.39" cy="130.09" r="9.1"/><circle class="cls-8 severity-none" cx="50.39" cy="130.09" r="9.1"/><g class="severity-medium"><circle class="cls-2 severity-medium severity-medium" cx="50.39" cy="130.09" r="9.1"/><path class="cls-4 severity-medium" d="M50.39 120.99v18.1c-5 0-9.1-4.1-9.1-9.1s4.1-9 9.1-9Z"/></g></g><g id="damage-pill-pricing_trunk"><path class="cls-6 damage-pill-background" d="M105.37 149.23H50.39c-10.56 0-19.13-8.58-19.13-19.13 0-10.56 8.58-19.13 19.13-19.13h54.98c10.56 0 19.13 8.58 19.13 19.13 0 10.56-8.58 19.13-19.13 19.13Z"/><text class="cls-7 damage-pill-text" transform="translate(72.48 134.38)">9999€</text><circle class="cls-3 severity-low" cx="50.39" cy="130.09" r="9.1"/><circle class="cls-5 severity-high" cx="50.39" cy="130.09" r="9.1"/><circle class="cls-8 severity-none" cx="50.39" cy="130.09" r="9.1"/><g class="severity-medium"><circle class="cls-2 severity-medium severity-medium" cx="50.39" cy="130.09" r="9.1"/><path class="cls-4 severity-medium" d="M50.39 120.99v18.1c-5 0-9.1-4.1-9.1-9.1s4.1-9 9.1-9Z"/></g></g><g id="damage-pill_tail_light_left"><circle class="cls-6 damage-pill-background" cx="20.13" cy="100.65" r="19.13"/><circle class="cls-3 severity-low" cx="20.13" cy="100.65" r="9.1"/><circle class="cls-5 severity-high" cx="20.13" cy="100.65" r="9.1"/><circle class="cls-8 severity-none" cx="20.13" cy="100.65" r="9.1"/><g class="severity-medium"><circle class="cls-2 severity-medium severity-medium" cx="20.13" cy="100.65" r="9.1"/><path class="cls-4 severity-medium" d="M20.13 91.55v18.1c-5 0-9.1-4.1-9.1-9.1s4.1-9 9.1-9Z"/></g></g><g id="damage-pill-pricing_tail_light_left"><path class="cls-6 damage-pill-background" d="M75.12 119.78H20.13C9.57 119.78 1 111.2 1 100.65c0-10.56 8.58-19.13 19.13-19.13h54.98c10.56 0 19.13 8.58 19.13 19.13 0 10.56-8.58 19.13-19.13 19.13Z"/><text class="cls-7 damage-pill-text" transform="translate(42.22 104.93)">9999€</text><circle class="cls-3 severity-low" cx="20.13" cy="100.65" r="9.1"/><circle class="cls-5 severity-high" cx="20.13" cy="100.65" r="9.1"/><circle class="cls-8 severity-none" cx="20.13" cy="100.65" r="9.1"/><g class="severity-medium"><circle class="cls-2 severity-medium severity-medium" cx="20.13" cy="100.65" r="9.1"/><path class="cls-4 severity-medium" d="M20.13 91.55v18.1c-5 0-9.1-4.1-9.1-9.1s4.1-9 9.1-9Z"/></g></g><g id="damage-pill_roof"><circle class="cls-6 damage-pill-background" cx="226.81" cy="27.95" r="19.13"/><circle class="cls-3 severity-low" cx="226.81" cy="27.95" r="9.1"/><circle class="cls-5 severity-high" cx="226.81" cy="27.95" r="9.1"/><circle class="cls-8 severity-none" cx="226.81" cy="27.95" r="9.1"/><g class="severity-medium"><circle class="cls-2 severity-medium severity-medium" cx="226.81" cy="27.95" r="9.1"/><path class="cls-4 severity-medium" d="M226.81 18.85v18.1c-5 0-9.1-4.1-9.1-9.1s4.1-9 9.1-9Z"/></g></g><g id="damage-pill-pricing_roof"><path class="cls-6 damage-pill-background" d="M281.79 47.08h-54.98c-10.56 0-19.13-8.58-19.13-19.13 0-10.56 8.58-19.13 19.13-19.13h54.98c10.56 0 19.13 8.58 19.13 19.13 0 10.56-8.58 19.13-19.13 19.13Z"/><text class="cls-7 damage-pill-text" transform="translate(248.9 32.23)">9999€</text><circle class="cls-3 severity-low" cx="226.81" cy="27.95" r="9.1"/><circle class="cls-5 severity-high" cx="226.81" cy="27.95" r="9.1"/><circle class="cls-8 severity-none" cx="226.81" cy="27.95" r="9.1"/><g class="severity-medium"><circle class="cls-2 severity-medium severity-medium" cx="226.81" cy="27.95" r="9.1"/><path class="cls-4 severity-medium" d="M226.81 18.85v18.1c-5 0-9.1-4.1-9.1-9.1s4.1-9 9.1-9Z"/></g></g><g id="damage-pill_fender_back_right"><circle class="cls-6 damage-pill-background" cx="253.14" cy="123.37" r="19.13"/><circle class="cls-3 severity-low" cx="253.14" cy="123.37" r="9.1"/><circle class="cls-5 severity-high" cx="253.14" cy="123.37" r="9.1"/><circle class="cls-8 severity-none" cx="253.14" cy="123.37" r="9.1"/><g class="severity-medium"><circle class="cls-2 severity-medium severity-medium" cx="253.14" cy="123.37" r="9.1"/><path class="cls-4 severity-medium" d="M253.14 114.27v18.1c-5 0-9.1-4.1-9.1-9.1s4.1-9 9.1-9Z"/></g></g><g id="damage-pill-pricing_fender_back_right"><path class="cls-6 damage-pill-background" d="M308.13 142.5h-54.98c-10.56 0-19.13-8.58-19.13-19.13 0-10.56 8.58-19.13 19.13-19.13h54.98c10.56 0 19.13 8.58 19.13 19.13 0 10.56-8.58 19.13-19.13 19.13Z"/><text class="cls-7 damage-pill-text" transform="translate(275.23 127.65)">9999€</text><circle class="cls-3 severity-low" cx="253.14" cy="123.37" r="9.1"/><circle class="cls-5 severity-high" cx="253.14" cy="123.37" r="9.1"/><circle class="cls-8 severity-none" cx="253.14" cy="123.37" r="9.1"/><g class="severity-medium"><circle class="cls-2 severity-medium severity-medium" cx="253.14" cy="123.37" r="9.1"/><path class="cls-4 severity-medium" d="M253.14 114.27v18.1c-5 0-9.1-4.1-9.1-9.1s4.1-9 9.1-9Z"/></g></g><g id="damage-pill_wheel_back_right"><circle class="cls-6 damage-pill-background" cx="284.71" cy="253.37" r="19.13"/><circle class="cls-3 severity-low" cx="284.71" cy="253.37" r="9.1"/><circle class="cls-5 severity-high" cx="284.71" cy="253.37" r="9.1"/><circle class="cls-8 severity-none" cx="284.71" cy="253.37" r="9.1"/><g class="severity-medium"><circle class="cls-2 severity-medium severity-medium" cx="284.71" cy="253.37" r="9.1"/><path class="cls-4 severity-medium" d="M284.71 244.27v18.1c-5 0-9.1-4.1-9.1-9.1s4.1-9 9.1-9Z"/></g></g><g id="damage-pill-pricing_wheel_back_right"><path class="cls-6 damage-pill-background" d="M339.7 272.51h-54.98c-10.56 0-19.13-8.58-19.13-19.13 0-10.56 8.58-19.13 19.13-19.13h54.98c10.56 0 19.13 8.58 19.13 19.13 0 10.56-8.58 19.13-19.13 19.13Z"/><text class="cls-7 damage-pill-text" transform="translate(306.8 257.66)">9999€</text><circle class="cls-3 severity-low" cx="284.71" cy="253.37" r="9.1"/><circle class="cls-5 severity-high" cx="284.71" cy="253.37" r="9.1"/><circle class="cls-8 severity-none" cx="284.71" cy="253.37" r="9.1"/><g class="severity-medium"><circle class="cls-2 severity-medium severity-medium" cx="284.71" cy="253.37" r="9.1"/><path class="cls-4 severity-medium" d="M284.71 244.27v18.1c-5 0-9.1-4.1-9.1-9.1s4.1-9 9.1-9Z"/></g></g></svg>
