<svg xmlns="http://www.w3.org/2000/svg" viewBox="0 0 527.24 307.88"><defs><style>.cls-1{stroke:#fff;stroke-linecap:round;stroke-linejoin:round}.cls-1,.cls-2,.cls-3{fill:none}.cls-4{fill:#e1a25b}.cls-5{fill:#f49796;stroke:#f49796}.cls-2,.cls-3,.cls-5,.cls-6{stroke-miterlimit:10;stroke-width:2px}.cls-6{fill:#31333e;stroke:#595e72}.cls-2{stroke:#e1a25b}.cls-3{stroke:#62b0ef}.cls-7{font-family:sans-serif;font-size:13px;isolation:isolate}.cls-7,.cls-8{fill:#fff}</style></defs><g id="door_back_right" class="car-part selectable"><path class="cls-1" d="M386.82 86.28h.02c17.99 9.26 6.32 63.32.23 87.32l-52.41 27.47c.63-20.18-1.54-36.96-6.04-41.1-.74-.79-2.14-.97-4.1-.7.14-8.85-7.24-53.04-18.3-64.1v-.04c26.41-2.9 56.63-6.21 80.59-8.84h.01Zm-64.09 26.78c.6.8 3 2.3 4 2.2s19.5-2.6 20.4-3.3c1.5-1 3.5-7.5-1.3-7.4 0 0-22.7 3-23.1 3.5-.4.5-1.1 3.5 0 5h0Z"/><path id="handle_back_left" class="cls-1 car-part" d="M322.73 113.06c.6.8 3 2.3 4 2.2s19.5-2.6 20.4-3.3c1.5-1 3.5-7.5-1.3-7.4 0 0-22.7 3-23.1 3.5-.4.5-1.1 3.5 0 5h0Z"/></g><g id="door_front_right" class="car-part selectable"><path class="cls-1" d="M386.84 86.28c24.94-2.73 43.32-5.29 43.32-5.29 20.45 8.2 5.78 51.05-1.95 71.19l-41.14 21.41c6.09-24 17.76-78.06-.23-87.32h0Zm11.49 12.58c.7 1.1 1.7 1.4 2.3 1.4.7 0 10-.7 11.6-1.6 1.4-1 1.8-5-1.1-5.6 0 0-12 1.2-12.5 1.7s-1 3-.3 4.1h0Z"/><path id="handle_front_left" class="cls-1 car-part" d="M398.33 98.86c.7 1.1 1.7 1.4 2.3 1.4.7 0 10-.7 11.6-1.6 1.4-1 1.8-5-1.1-5.6 0 0-12 1.2-12.5 1.7s-1 3-.3 4.1h0Z"/></g><path id="window_front_right" class="cls-1 car-part selectable" d="M366.96 29.7c2.69 2.94 15.39 41.83 19.17 56.26.23.1.46.21.69.32h.02c24.94-2.73 43.32-5.29 43.32-5.29-.11-.05-.22-.09-.33-.13-1.16-.12-2.26-.24-3.23-.34-2.35-.26-3.97-.46-3.97-.46-1.4-1.2-2.1-5.3-1.8-5.7.28-.38 1.89-.49 3.16-.75-.79-1.13-13.61-19.33-24.46-31.25-2.38-2.67-4.79-4.7-7.28-6.28-7.13-4.52-14.91-5.28-24.62-6.32-.2-.02-.42-.04-.67-.06Z"/><path id="window_back_right" class="cls-1 car-part selectable" d="M294.36 27.34c.84 2.64 10.67 54.5 11.87 67.78 26.41-2.9 56.63-6.21 80.59-8.84-.23-.11-.46-.22-.69-.32-3.78-14.43-16.48-53.32-19.17-56.26h-.01c-7.84-.72-39.86-1.95-72.59-2.36h0Z"/><path id="quarter_window_back_right" class="cls-1 car-part selectable" d="M218.43 90.36c9.2 11.9 17 12.5 26.2 11.5.73-.08 28.1-3.08 61.6-6.74-1.2-13.28-11.03-65.14-11.87-67.78-33.04-.42-66.8 0-77.13 2.62.2 5.6-1.5 48.6 1.2 60.4Z"/><path id="tail_light_right" class="cls-1 car-part selectable" d="M55.33 125.76c4.45-.55 18.18 5.17 51.1 6.34h.11c2.45.09 5.01.15 7.69.18 20.35.24 47.12-1.24 82.1-6.42 5-1.8 17.7 5.5-1.4 22.1-22.94 11.74-62.23 13.25-91.52 10.43h-.01c-19.62-1.89-34.75-5.72-37.47-9.73-6.8-10-8.8-12.2-14.8-13.6-6-1.4-3.2-8.4 4.2-9.3h0Z"/><path id="license_plate_back" class="cls-1 car-part selectable" d="m21.89 165.39 31.72 27.01 2.52-16.54.03-.02c-6.24-7.43-12.05-14.56-13.13-15.58-4.48-2.2-11.57-6.38-18.36-10.66l-.04.06-2.74 15.73h0Z"/><path id="trunk" class="cls-1 car-part selectable" d="M2.13 109.86c1.7-4.8 2.4-8.6 2.9-11.1.48-2.4 3.83-6.01 6.3-11.79-.56 13.98 74.43 22.15 110.68 18.97-2.12 9.68-9.68 21.32-9.68 23.02s1.9 3 1.9 3v.32c-2.68-.03-5.24-.09-7.69-.18h-.11c-32.92-1.17-46.65-6.89-51.1-6.34-7.4.9-10.2 7.9-4.2 9.3 6 1.4 8 3.6 14.8 13.6 2.72 4.01 17.85 7.84 37.47 9.73l-4.97 5.07c-1.7 11.3 10.3 33.2 11.1 36.6.09.42-.01.96-.27 1.59l-.23-.09c-6.4-.6-36.6-8.8-41.2-12.3-3.26-3.5-7.56-8.52-11.67-13.42-6.24-7.43-12.05-14.56-13.13-15.58-4.48-2.2-11.57-6.38-18.36-10.66-8.52-5.35-16.57-10.84-18.4-12.73q-1.22-1.26-.01 0c-2.4-4.18-4.58-8.19-5.03-9.5-1-2.9-1.2-11.4.9-17.5h0Zm2.9 66.1c.04.26.09.53.14.81 6.46 15.77 48.63 53.06 69.26 58.29 11.29 2.91 15.27-2.82 19.55-11.08.57-1.1 1.15-2.24 1.75-3.42 3.14-6.19 11.82-14.66 13.53-18.91l-.23-.09c-6.4-.6-36.6-8.8-41.2-12.3-3.26-3.5-7.56-8.52-11.67-13.42l-.03.02-2.52 16.54-31.72-27.01 2.74-15.73.04-.06c-8.52-5.35-16.57-10.84-18.4-12.73 2.88 5.04 6.09 10.34 6.96 11.49-1 1.6-2.3 3.1-3.7 6.3-1.3 3-5.2 17-4.5 21.3h0Z"/><path id="fog_light_back_right" class="cls-1 car-part selectable" d="M68.83 252.56c7.5 6.4 32.7 14.7 62 10.3-8.3-5.2-12.2-7-16.1-7.5-6.8-1.5-32.5-3.3-50.9-15.2-.2 2.1.6 6.7 5 12.4h0Z"/><path id="bumper_back" class="cls-1 car-part selectable" d="M10.33 202.86c-.3 1.4-1 2.7-1.2 3.8.4 2.6 53 63.9 73.8 82.7 6 5.4 29.3 11.3 57.1 10.1 23.61-1.12 74.86-14.84 88.48-23.85 1.03-.67 1.85-1.33 2.42-1.95 4.38-4.76 10.36-19.06 15.31-32.14l-12.98 2.68-1.23 2.67a11.41 11.41 0 0 1-8.08 6.42l-75.14 15.46c-4.02.82-8.21.09-11.71-2.05l-6.27-3.84c-29.3 4.4-54.5-3.9-62-10.3-4.4-5.7-5.2-10.3-5-12.4-14.8-10.29-44-34.05-55.8-52.5.7 1.2-2.9 6.1 2.3 15.2Zm64.1 32.2c11.29 2.91 15.27-2.82 19.55-11.08.57-1.1 1.15-2.24 1.75-3.42 3.14-6.19 11.82-14.66 13.53-18.91.26-.63.36-1.17.27-1.59-.8-3.4-12.8-25.3-11.1-36.6l4.97-5.07h.01c29.29 2.82 68.58 1.31 91.52-10.43l32.87 30.56c5.28 4.9 12.46 7.21 19.61 6.29l28.18-3.64c-12.02 12.81-18.71 31.73-20.56 36.29-1.1 2.71-4.57 12.94-8.79 24.06l-12.98 2.68-1.23 2.67a11.41 11.41 0 0 1-8.08 6.42l-75.14 15.46c-4.02.82-8.21.09-11.71-2.05l-6.27-3.84c-8.3-5.2-12.2-7-16.1-7.5-6.8-1.5-32.5-3.3-50.9-15.2-14.8-10.29-44-34.05-55.8-52.5-.66-1.12-2.86-7.99-2.86-10.89 6.46 15.77 48.63 53.06 69.26 58.29h0Z"/><path id="fender_back_right" class="cls-1 car-part selectable" d="M122.01 105.94c.31-.02.62-.05.92-.08 4.9-.2 14.7-2 21-11 7.6-13 20.2-45 23.3-58l50-6.9c.2 5.6-1.5 48.6 1.2 60.4 9.2 11.9 17 12.5 26.2 11.5.73-.08 28.1-3.08 61.6-6.74v.04c11.06 11.06 18.44 55.25 18.3 64.1-6.73.92-20.17 7.2-36.9 12.7-.77.37-1.52.78-2.26 1.22 0 0 0 0 0 0-3.59 2.09-6.83 4.85-9.77 7.98l-28.18 3.64c-7.15.92-14.33-1.39-19.61-6.29l-32.87-30.56c19.1-16.6 6.4-23.9 1.4-22.1-34.98 5.18-61.75 6.66-82.1 6.42v-.32s-1.9-1.3-1.9-3 7.56-13.34 9.68-23.02h0Z"/><path id="windshield_back" class="cls-1 car-part selectable" d="M11.63 86.26c5.2-12.6 34.9-51.7 34.9-51.7l.4-.1c2.46-3.56 69.05-7.92 104.69-1.89 6.38 1.08 11.76 2.49 15.61 4.29-3.1 13-15.7 45-23.3 58-6.3 9-16.1 10.8-21 11-.3.03-.61.06-.92.08-36.25 3.18-111.24-4.99-110.68-18.97h0c.11-.24.2-.47.3-.71h0Z"/><path id="roof" class="cls-1 car-part selectable" d="M36.33 30.36c1 .6 10.2 4.2 10.2 4.2l.4-.1c2.46-3.56 69.05-7.92 104.69-1.89 6.38 1.08 11.76 2.49 15.61 4.29l50-6.9c10.33-2.62 44.09-3.04 77.13-2.62 32.73.41 64.75 1.64 72.59 2.35h.01c.25.03.47.05.67.07 9.71 1.04 17.49 1.8 24.62 6.32h5.62c-1.42-1.33-2.78-2.49-4.04-3.42-11.7-8.6-15.87-10.82-28.97-13.72-.02 0-.07-.02-.09-.02-17.69-3.91-40.17-6.44-78.77-8.84-44.61-2.77-136.22-4.75-179.28-2.02-16.85 1.07-64.7 8.3-69.8 14.2-5.1 5.9-1.6 7.5-.6 8.1h0Z"/><path id="pillar" class="cls-1 car-part selectable" d="M392.25 36.08c2.49 1.58 4.9 3.61 7.28 6.28 10.85 11.92 23.67 30.12 24.46 31.25.08 0 .16-.03.24-.05 0-.77.31-2.42.79-4.15-1.36-1.95-16.03-22.88-27.15-33.33h-5.62Z"/><path id="mirror_right" class="cls-1 car-part selectable" d="M420.83 74.36c.28-.38 1.89-.49 3.16-.75.08 0 .16-.03.24-.05 0-.77.31-2.42.79-4.15.63-2.31 1.55-4.79 2.41-5.65.88-.94 3.27-1.25 6.2-1.18.14 0 .27.01.41.01 1.64.06 3.43.23 5.19.47 6.2.9 8.7 3.3 9.2 4.2.7 1.2 1 4 .4 6.2-.66 2.38-1.94 4.5-3.22 6.01-.65.77-1.3 1.38-1.88 1.79-.05.04-.12.07-.21.09-1.54.56-8.28.04-13.69-.49-1.16-.12-2.26-.24-3.23-.34-2.35-.26-3.97-.46-3.97-.46-1.4-1.2-2.1-5.3-1.8-5.7Z"/><path id="rocker_panel_right" class="cls-1 car-part selectable" d="M333.82 212.46c.17-2.68.77-8.69.85-11.4l52.41-27.47 41.14-21.41 10.01-5.27h0c-2.61 6.1-6.15 12.81-8.1 13.25-.84.18-3.01 1.23-6.18 2.93-2.05 1.1-4.52 2.48-7.31 4.07-8.82 5.03-20.84 12.19-33 19.52-23.78 14.35-48.07 29.38-49.9 30.51.08-1.63.11-3.21.08-4.73h-.01Z"/><path id="fender_front_right" class="cls-1 car-part selectable" d="m428.21 152.18 10.01-5.27h0c4.95-11.62 9.37-27.02 12.88-34.81.88-1.95 1.63-3.28 2.22-3.74 4.2-3.3 10.8-4.8 11.4-2.3s-2.8 17.6-2.8 17.6h-.09c.02.22.03.43.04.65.56-1.54 5.3-15.08 4.55-23.65-.9-9-8.9-19.1-11.8-19.8-2.71-.65-8.3-1.31-9.02-1.39-.65.77-1.3 1.38-1.88 1.79-.05.04-.12.07-.21.09-1.54.56-8.28.04-13.69-.49.11.04.22.08.33.13 20.45 8.2 5.78 51.05-1.95 71.19Z"/><path class="cls-1 background" d="m451.11 112.1.32.06c2.4.3 4.6 1.2 6 1.9 2.67 1.29 4.06 4.7 4.41 9.61h.09s3.4-15.11 2.8-17.61-7.2-1-11.4 2.3c-.59.46-1.34 1.79-2.22 3.74ZM285.36 173.19l.17.27c8 .4 15.8 3.2 23.9 5.7 16.01 4.8 24.02 15.1 24.39 33.3.17-2.68.77-8.69.85-11.4.63-20.18-1.54-36.96-6.04-41.1-.74-.79-2.14-.97-4.1-.7-6.73.92-20.17 7.2-36.9 12.7-.77.37-1.52.78-2.26 1.22 0 0 0 0 0 0h0Z"/><g id="wheel_front_right" class="car-part selectable"><path class="cls-1" d="M423.95 163.09c3.17-1.7 5.34-2.75 6.18-2.93 1.95-.44 5.49-7.15 8.1-13.25 4.95-11.62 9.37-27.02 12.88-34.81l.32.06c2.4.3 4.6 1.2 6 1.9 2.67 1.29 4.06 4.7 4.41 9.61.02.21.03.42.04.64.33 6.42-1.02 15.24-3.55 25.15-3.4 10.7-8.7 30.4-17.3 29.6-14.34-2.29-23.62-3.69-24.39-11.9 2.79-1.59 5.26-2.97 7.31-4.07Zm20.38 6.34c2.49.66 6.95-8.05 9.96-19.46 3.01-11.4 3.43-21.17.94-21.83s-6.94 8.05-9.95 19.46c-3.01 11.4-3.44 21.17-.95 21.83h0Z"/><path class="cls-1" d="M444.33 169.43c2.49.66 6.95-8.05 9.96-19.46 3.01-11.4 3.43-21.17.94-21.83s-6.94 8.05-9.95 19.46c-3.01 11.4-3.44 21.17-.95 21.83h0Z"/></g><g id="wheel_back_right" class="car-part selectable"><path class="cls-1" d="M230.93 273.66c4.38-4.76 10.36-19.06 15.31-32.14 4.22-11.12 7.69-21.35 8.79-24.06 1.85-4.56 8.54-23.48 20.56-36.29 2.94-3.13 6.18-5.89 9.77-7.98l.17.27c8 .4 15.8 3.2 23.9 5.7 16.01 4.8 24.02 15.1 24.39 33.3.03 1.52 0 3.1-.08 4.73-.47 10.2-3.03 22.61-7.61 37.57-11.7 30.7-29.3 51.1-49.5 52.6-16.27.69-44.64-21.54-48.12-31.75 1.03-.67 1.85-1.33 2.42-1.95h0Zm56.62 13.9c8.93 3.01 22.29-12.71 29.85-35.12 7.56-22.41 6.46-43.01-2.47-46.03-8.93-3.01-22.3 12.72-29.86 35.12-7.56 22.41-6.45 43.02 2.48 46.03Z"/><path class="cls-1" d="M287.55 287.56c8.93 3.01 22.29-12.71 29.85-35.12 7.56-22.41 6.46-43.01-2.47-46.03-8.93-3.01-22.3 12.72-29.86 35.12-7.56 22.41-6.45 43.02 2.48 46.03Z"/></g><g id="damage-pill_tail_light_right"><circle class="cls-6 damage-pill-background" cx="136.75" cy="146.59" r="19.13"/><circle class="cls-3 severity-low" cx="136.75" cy="146.59" r="9.1"/><circle class="cls-5 severity-high" cx="136.75" cy="146.59" r="9.1"/><circle class="cls-8 severity-none" cx="136.75" cy="146.59" r="9.1"/><g class="severity-medium"><circle class="cls-2 severity-medium severity-medium" cx="136.75" cy="146.59" r="9.1"/><path class="cls-4 severity-medium" d="M136.75 137.49v18.1c-5 0-9.1-4.1-9.1-9.1s4.1-9 9.1-9Z"/></g></g><g id="damage-pill-pricing_tail_light_right"><path class="cls-6 damage-pill-background" d="M191.73 165.73h-54.98c-10.56 0-19.13-8.58-19.13-19.13 0-10.56 8.58-19.13 19.13-19.13h54.98c10.56 0 19.13 8.58 19.13 19.13 0 10.56-8.58 19.13-19.13 19.13Z"/><text class="cls-7 damage-pill-text" transform="translate(158.83 150.88)">9999€</text><circle class="cls-3 severity-low" cx="136.75" cy="146.59" r="9.1"/><circle class="cls-5 severity-high" cx="136.75" cy="146.59" r="9.1"/><circle class="cls-8 severity-none" cx="136.75" cy="146.59" r="9.1"/><g class="severity-medium"><circle class="cls-2 severity-medium severity-medium" cx="136.75" cy="146.59" r="9.1"/><path class="cls-4 severity-medium" d="M136.75 137.49v18.1c-5 0-9.1-4.1-9.1-9.1s4.1-9 9.1-9Z"/></g></g><g id="damage-pill_bumper_back"><circle class="cls-6 damage-pill-background" cx="175.58" cy="224.55" r="19.13"/><circle class="cls-3 severity-low" cx="175.58" cy="224.55" r="9.1"/><circle class="cls-5 severity-high" cx="175.58" cy="224.55" r="9.1"/><circle class="cls-8 severity-none" cx="175.58" cy="224.55" r="9.1"/><g class="severity-medium"><circle class="cls-2 severity-medium severity-medium" cx="175.58" cy="224.55" r="9.1"/><path class="cls-4 severity-medium" d="M175.58 215.45v18.1c-5 0-9.1-4.1-9.1-9.1s4.1-9 9.1-9Z"/></g></g><g id="damage-pill-pricing_bumper_back"><path class="cls-6 damage-pill-background" d="M230.57 243.69h-54.98c-10.56 0-19.13-8.58-19.13-19.13 0-10.56 8.58-19.13 19.13-19.13h54.98c10.56 0 19.13 8.58 19.13 19.13 0 10.56-8.58 19.13-19.13 19.13Z"/><text class="cls-7 damage-pill-text" transform="translate(197.67 228.84)">9999€</text><circle class="cls-3 severity-low" cx="175.58" cy="224.55" r="9.1"/><circle class="cls-5 severity-high" cx="175.58" cy="224.55" r="9.1"/><circle class="cls-8 severity-none" cx="175.58" cy="224.55" r="9.1"/><g class="severity-medium"><circle class="cls-2 severity-medium severity-medium" cx="175.58" cy="224.55" r="9.1"/><path class="cls-4 severity-medium" d="M175.58 215.45v18.1c-5 0-9.1-4.1-9.1-9.1s4.1-9 9.1-9Z"/></g></g><g id="damage-pill_license_plate_back"><circle class="cls-6 damage-pill-background" cx="39.02" cy="169.1" r="19.13"/><circle class="cls-3 severity-low" cx="39.02" cy="169.1" r="9.1"/><circle class="cls-5 severity-high" cx="39.02" cy="169.1" r="9.1"/><circle class="cls-8 severity-none" cx="39.02" cy="169.1" r="9.1"/><g class="severity-medium"><circle class="cls-2 severity-medium severity-medium" cx="39.02" cy="169.1" r="9.1"/><path class="cls-4 severity-medium" d="M39.02 160v18.1c-5 0-9.1-4.1-9.1-9.1s4.1-9 9.1-9Z"/></g></g><g id="damage-pill-pricing_license_plate_back"><path class="cls-6 damage-pill-background" d="M94.01 188.23H39.03c-10.56 0-19.13-8.58-19.13-19.13 0-10.56 8.58-19.13 19.13-19.13h54.98c10.56 0 19.13 8.58 19.13 19.13 0 10.56-8.58 19.13-19.13 19.13Z"/><text class="cls-7 damage-pill-text" transform="translate(61.11 173.38)">9999€</text><circle class="cls-3 severity-low" cx="39.02" cy="169.1" r="9.1"/><circle class="cls-5 severity-high" cx="39.02" cy="169.1" r="9.1"/><circle class="cls-8 severity-none" cx="39.02" cy="169.1" r="9.1"/><g class="severity-medium"><circle class="cls-2 severity-medium severity-medium" cx="39.02" cy="169.1" r="9.1"/><path class="cls-4 severity-medium" d="M39.02 160v18.1c-5 0-9.1-4.1-9.1-9.1s4.1-9 9.1-9Z"/></g></g><g id="damage-pill_trunk"><circle class="cls-6 damage-pill-background" cx="25.44" cy="122.6" r="19.13"/><circle class="cls-3 severity-low" cx="25.44" cy="122.6" r="9.1"/><circle class="cls-5 severity-high" cx="25.44" cy="122.6" r="9.1"/><circle class="cls-8 severity-none" cx="25.44" cy="122.6" r="9.1"/><g class="severity-medium"><circle class="cls-2 severity-medium severity-medium" cx="25.44" cy="122.6" r="9.1"/><path class="cls-4 severity-medium" d="M25.44 113.5v18.1c-5 0-9.1-4.1-9.1-9.1s4.1-9 9.1-9Z"/></g></g><g id="damage-pill-pricing_trunk"><path class="cls-6 damage-pill-background" d="M80.42 141.73H25.44c-10.56 0-19.13-8.58-19.13-19.13 0-10.56 8.58-19.13 19.13-19.13h54.98c10.56 0 19.13 8.58 19.13 19.13 0 10.56-8.58 19.13-19.13 19.13Z"/><text class="cls-7 damage-pill-text" transform="translate(47.52 126.88)">9999€</text><circle class="cls-3 severity-low" cx="25.44" cy="122.6" r="9.1"/><circle class="cls-5 severity-high" cx="25.44" cy="122.6" r="9.1"/><circle class="cls-8 severity-none" cx="25.44" cy="122.6" r="9.1"/><g class="severity-medium"><circle class="cls-2 severity-medium severity-medium" cx="25.44" cy="122.6" r="9.1"/><path class="cls-4 severity-medium" d="M25.44 113.5v18.1c-5 0-9.1-4.1-9.1-9.1s4.1-9 9.1-9Z"/></g></g><g id="damage-pill_fog_light_back_right"><circle class="cls-6 damage-pill-background" cx="95.17" cy="258.13" r="19.13"/><circle class="cls-3 severity-low" cx="95.17" cy="258.13" r="9.1"/><circle class="cls-5 severity-high" cx="95.17" cy="258.13" r="9.1"/><circle class="cls-8 severity-none" cx="95.17" cy="258.13" r="9.1"/><g class="severity-medium"><circle class="cls-2 severity-medium severity-medium" cx="95.17" cy="258.13" r="9.1"/><path class="cls-4 severity-medium" d="M95.17 249.03v18.1c-5 0-9.1-4.1-9.1-9.1s4.1-9 9.1-9Z"/></g></g><g id="damage-pill-pricing_fog_light_back_right"><path class="cls-6 damage-pill-background" d="M150.15 277.26H95.17c-10.56 0-19.13-8.58-19.13-19.13 0-10.56 8.58-19.13 19.13-19.13h54.98c10.56 0 19.13 8.58 19.13 19.13 0 10.56-8.58 19.13-19.13 19.13Z"/><text class="cls-7 damage-pill-text" transform="translate(117.25 262.41)">9999€</text><circle class="cls-3 severity-low" cx="95.17" cy="258.13" r="9.1"/><circle class="cls-5 severity-high" cx="95.17" cy="258.13" r="9.1"/><circle class="cls-8 severity-none" cx="95.17" cy="258.13" r="9.1"/><g class="severity-medium"><circle class="cls-2 severity-medium severity-medium" cx="95.17" cy="258.13" r="9.1"/><path class="cls-4 severity-medium" d="M95.17 249.03v18.1c-5 0-9.1-4.1-9.1-9.1s4.1-9 9.1-9Z"/></g></g><g id="damage-pill_wheel_front_right"><circle class="cls-6 damage-pill-background" cx="450.51" cy="145.59" r="19.13"/><circle class="cls-3 severity-low" cx="450.51" cy="145.59" r="9.1"/><circle class="cls-5 severity-high" cx="450.51" cy="145.59" r="9.1"/><circle class="cls-8 severity-none" cx="450.51" cy="145.59" r="9.1"/><g class="severity-medium"><circle class="cls-2 severity-medium severity-medium" cx="450.51" cy="145.59" r="9.1"/><path class="cls-4 severity-medium" d="M450.51 136.49v18.1c-5 0-9.1-4.1-9.1-9.1s4.1-9 9.1-9Z"/></g></g><g id="damage-pill-pricing_wheel_front_right"><path class="cls-6 damage-pill-background" d="M505.49 164.73h-54.98c-10.56 0-19.13-8.58-19.13-19.13 0-10.56 8.58-19.13 19.13-19.13h54.98c10.56 0 19.13 8.58 19.13 19.13 0 10.56-8.58 19.13-19.13 19.13Z"/><text class="cls-7 damage-pill-text" transform="translate(472.59 149.88)">9999€</text><circle class="cls-3 severity-low" cx="450.51" cy="145.59" r="9.1"/><circle class="cls-5 severity-high" cx="450.51" cy="145.59" r="9.1"/><circle class="cls-8 severity-none" cx="450.51" cy="145.59" r="9.1"/><g class="severity-medium"><circle class="cls-2 severity-medium severity-medium" cx="450.51" cy="145.59" r="9.1"/><path class="cls-4 severity-medium" d="M450.51 136.49v18.1c-5 0-9.1-4.1-9.1-9.1s4.1-9 9.1-9Z"/></g></g><g id="damage-pill_fender_front_right"><circle class="cls-6 damage-pill-background" cx="452.12" cy="97.91" r="19.13"/><circle class="cls-3 severity-low" cx="452.12" cy="97.91" r="9.1"/><circle class="cls-5 severity-high" cx="452.12" cy="97.91" r="9.1"/><circle class="cls-8 severity-none" cx="452.12" cy="97.91" r="9.1"/><g class="severity-medium"><circle class="cls-2 severity-medium severity-medium" cx="452.12" cy="97.91" r="9.1"/><path class="cls-4 severity-medium" d="M452.12 88.81v18.1c-5 0-9.1-4.1-9.1-9.1s4.1-9 9.1-9Z"/></g></g><g id="damage-pill-pricing_fender_front_right"><path class="cls-6 damage-pill-background" d="M507.11 117.05h-54.98c-10.56 0-19.13-8.58-19.13-19.13 0-10.56 8.58-19.13 19.13-19.13h54.98c10.56 0 19.13 8.58 19.13 19.13 0 10.56-8.58 19.13-19.13 19.13Z"/><text class="cls-7 damage-pill-text" transform="translate(474.21 102.2)">9999€</text><circle class="cls-3 severity-low" cx="452.12" cy="97.91" r="9.1"/><circle class="cls-5 severity-high" cx="452.12" cy="97.91" r="9.1"/><circle class="cls-8 severity-none" cx="452.12" cy="97.91" r="9.1"/><g class="severity-medium"><circle class="cls-2 severity-medium severity-medium" cx="452.12" cy="97.91" r="9.1"/><path class="cls-4 severity-medium" d="M452.12 88.81v18.1c-5 0-9.1-4.1-9.1-9.1s4.1-9 9.1-9Z"/></g></g><g id="damage-pill_pillar"><circle class="cls-6 damage-pill-background" cx="409.9" cy="53.6" r="19.13"/><circle class="cls-3 severity-low" cx="409.9" cy="53.6" r="9.1"/><circle class="cls-5 severity-high" cx="409.9" cy="53.6" r="9.1"/><circle class="cls-8 severity-none" cx="409.9" cy="53.6" r="9.1"/><g class="severity-medium"><circle class="cls-2 severity-medium severity-medium" cx="409.9" cy="53.6" r="9.1"/><path class="cls-4 severity-medium" d="M409.9 44.5v18.1c-5 0-9.1-4.1-9.1-9.1s4.1-9 9.1-9Z"/></g></g><g id="damage-pill-pricing_pillar"><path class="cls-6 damage-pill-background" d="M464.89 72.73h-54.98c-10.56 0-19.13-8.58-19.13-19.13 0-10.56 8.58-19.13 19.13-19.13h54.98c10.56 0 19.13 8.58 19.13 19.13 0 10.56-8.58 19.13-19.13 19.13Z"/><text class="cls-7 damage-pill-text" transform="translate(431.99 57.89)">9999€</text><circle class="cls-3 severity-low" cx="409.9" cy="53.6" r="9.1"/><circle class="cls-5 severity-high" cx="409.9" cy="53.6" r="9.1"/><circle class="cls-8 severity-none" cx="409.9" cy="53.6" r="9.1"/><g class="severity-medium"><circle class="cls-2 severity-medium severity-medium" cx="409.9" cy="53.6" r="9.1"/><path class="cls-4 severity-medium" d="M409.9 44.5v18.1c-5 0-9.1-4.1-9.1-9.1s4.1-9 9.1-9Z"/></g></g><g id="damage-pill_window_front_right"><circle class="cls-6 damage-pill-background" cx="394.27" cy="59.01" r="19.13"/><circle class="cls-3 severity-low" cx="394.27" cy="59.01" r="9.1"/><circle class="cls-5 severity-high" cx="394.27" cy="59.01" r="9.1"/><circle class="cls-8 severity-none" cx="394.27" cy="59.01" r="9.1"/><g class="severity-medium"><circle class="cls-2 severity-medium severity-medium" cx="394.27" cy="59.01" r="9.1"/><path class="cls-4 severity-medium" d="M394.27 49.91v18.1c-5 0-9.1-4.1-9.1-9.1s4.1-9 9.1-9Z"/></g></g><g id="damage-pill-pricing_window_front_right"><path class="cls-6 damage-pill-background" d="M449.25 78.14h-54.98c-10.56 0-19.13-8.58-19.13-19.13 0-10.56 8.58-19.13 19.13-19.13h54.98c10.56 0 19.13 8.58 19.13 19.13 0 10.56-8.58 19.13-19.13 19.13Z"/><text class="cls-7 damage-pill-text" transform="translate(416.35 63.29)">9999€</text><circle class="cls-3 severity-low" cx="394.27" cy="59.01" r="9.1"/><circle class="cls-5 severity-high" cx="394.27" cy="59.01" r="9.1"/><circle class="cls-8 severity-none" cx="394.27" cy="59.01" r="9.1"/><g class="severity-medium"><circle class="cls-2 severity-medium severity-medium" cx="394.27" cy="59.01" r="9.1"/><path class="cls-4 severity-medium" d="M394.27 49.91v18.1c-5 0-9.1-4.1-9.1-9.1s4.1-9 9.1-9Z"/></g></g><g id="damage-pill_window_back_right"><circle class="cls-6 damage-pill-background" cx="341.72" cy="60.7" r="19.13"/><circle class="cls-3 severity-low" cx="341.72" cy="60.7" r="9.1"/><circle class="cls-5 severity-high" cx="341.72" cy="60.7" r="9.1"/><circle class="cls-8 severity-none" cx="341.72" cy="60.7" r="9.1"/><g class="severity-medium"><circle class="cls-2 severity-medium severity-medium" cx="341.72" cy="60.7" r="9.1"/><path class="cls-4 severity-medium" d="M341.72 51.6v18.1c-5 0-9.1-4.1-9.1-9.1s4.1-9 9.1-9Z"/></g></g><g id="damage-pill-pricing_window_back_right"><path class="cls-6 damage-pill-background" d="M396.7 79.84h-54.98c-10.56 0-19.13-8.58-19.13-19.13 0-10.56 8.58-19.13 19.13-19.13h54.98c10.56 0 19.13 8.58 19.13 19.13 0 10.56-8.58 19.13-19.13 19.13Z"/><text class="cls-7 damage-pill-text" transform="translate(363.81 64.99)">9999€</text><circle class="cls-3 severity-low" cx="341.72" cy="60.7" r="9.1"/><circle class="cls-5 severity-high" cx="341.72" cy="60.7" r="9.1"/><circle class="cls-8 severity-none" cx="341.72" cy="60.7" r="9.1"/><g class="severity-medium"><circle class="cls-2 severity-medium severity-medium" cx="341.72" cy="60.7" r="9.1"/><path class="cls-4 severity-medium" d="M341.72 51.6v18.1c-5 0-9.1-4.1-9.1-9.1s4.1-9 9.1-9Z"/></g></g><g id="damage-pill_mirror_right"><circle class="cls-6 damage-pill-background" cx="436.13" cy="72.73" r="19.13"/><circle class="cls-3 severity-low" cx="436.13" cy="72.74" r="9.1"/><circle class="cls-5 severity-high" cx="436.13" cy="72.74" r="9.1"/><circle class="cls-8 severity-none" cx="436.13" cy="72.74" r="9.1"/><g class="severity-medium"><circle class="cls-2 severity-medium severity-medium" cx="436.13" cy="72.74" r="9.1"/><path class="cls-4 severity-medium" d="M436.13 63.64v18.1c-5 0-9.1-4.1-9.1-9.1s4.1-9 9.1-9Z"/></g></g><g id="damage-pill-pricing_mirror_right"><path class="cls-6 damage-pill-background" d="M491.12 91.87h-54.98c-10.56 0-19.13-8.58-19.13-19.13 0-10.56 8.58-19.13 19.13-19.13h54.98c10.56 0 19.13 8.58 19.13 19.13 0 10.56-8.58 19.13-19.13 19.13Z"/><text class="cls-7 damage-pill-text" transform="translate(458.22 77.02)">9999€</text><circle class="cls-3 severity-low" cx="436.13" cy="72.74" r="9.1"/><circle class="cls-5 severity-high" cx="436.13" cy="72.74" r="9.1"/><circle class="cls-8 severity-none" cx="436.13" cy="72.74" r="9.1"/><g class="severity-medium"><circle class="cls-2 severity-medium severity-medium" cx="436.13" cy="72.74" r="9.1"/><path class="cls-4 severity-medium" d="M436.13 63.64v18.1c-5 0-9.1-4.1-9.1-9.1s4.1-9 9.1-9Z"/></g></g><g id="damage-pill_door_front_right"><circle class="cls-6 damage-pill-background" cx="417.97" cy="119.33" r="19.13"/><circle class="cls-3 severity-low" cx="417.97" cy="119.33" r="9.1"/><circle class="cls-5 severity-high" cx="417.97" cy="119.33" r="9.1"/><circle class="cls-8 severity-none" cx="417.97" cy="119.33" r="9.1"/><g class="severity-medium"><circle class="cls-2 severity-medium severity-medium" cx="417.97" cy="119.33" r="9.1"/><path class="cls-4 severity-medium" d="M417.97 110.23v18.1c-5 0-9.1-4.1-9.1-9.1s4.1-9 9.1-9Z"/></g></g><g id="damage-pill-pricing_door_front_right"><path class="cls-6 damage-pill-background" d="M472.95 138.46h-54.98c-10.56 0-19.13-8.58-19.13-19.13 0-10.56 8.58-19.13 19.13-19.13h54.98c10.56 0 19.13 8.58 19.13 19.13 0 10.56-8.58 19.13-19.13 19.13Z"/><text class="cls-7 damage-pill-text" transform="translate(440.05 123.61)">9999€</text><circle class="cls-3 severity-low" cx="417.97" cy="119.33" r="9.1"/><circle class="cls-5 severity-high" cx="417.97" cy="119.33" r="9.1"/><circle class="cls-8 severity-none" cx="417.97" cy="119.33" r="9.1"/><g class="severity-medium"><circle class="cls-2 severity-medium severity-medium" cx="417.97" cy="119.33" r="9.1"/><path class="cls-4 severity-medium" d="M417.97 110.23v18.1c-5 0-9.1-4.1-9.1-9.1s4.1-9 9.1-9Z"/></g></g><g id="damage-pill_door_back_right"><circle class="cls-6 damage-pill-background" cx="363.98" cy="131.6" r="19.13"/><circle class="cls-3 severity-low" cx="363.98" cy="131.6" r="9.1"/><circle class="cls-5 severity-high" cx="363.98" cy="131.6" r="9.1"/><circle class="cls-8 severity-none" cx="363.98" cy="131.6" r="9.1"/><g class="severity-medium"><circle class="cls-2 severity-medium severity-medium" cx="363.98" cy="131.6" r="9.1"/><path class="cls-4 severity-medium" d="M363.98 122.5v18.1c-5 0-9.1-4.1-9.1-9.1s4.1-9 9.1-9Z"/></g></g><g id="damage-pill-pricing_door_back_right"><path class="cls-6 damage-pill-background" d="M418.97 150.73h-54.98c-10.56 0-19.13-8.58-19.13-19.13 0-10.56 8.58-19.13 19.13-19.13h54.98c10.56 0 19.13 8.58 19.13 19.13 0 10.56-8.58 19.13-19.13 19.13Z"/><text class="cls-7 damage-pill-text" transform="translate(386.07 135.88)">9999€</text><circle class="cls-3 severity-low" cx="363.98" cy="131.6" r="9.1"/><circle class="cls-5 severity-high" cx="363.98" cy="131.6" r="9.1"/><circle class="cls-8 severity-none" cx="363.98" cy="131.6" r="9.1"/><g class="severity-medium"><circle class="cls-2 severity-medium severity-medium" cx="363.98" cy="131.6" r="9.1"/><path class="cls-4 severity-medium" d="M363.98 122.5v18.1c-5 0-9.1-4.1-9.1-9.1s4.1-9 9.1-9Z"/></g></g><g id="damage-pill_rocker_panel_right"><circle class="cls-6 damage-pill-background" cx="394.45" cy="176.1" r="19.13"/><circle class="cls-3 severity-low" cx="394.45" cy="176.1" r="9.1"/><circle class="cls-5 severity-high" cx="394.45" cy="176.1" r="9.1"/><circle class="cls-8 severity-none" cx="394.45" cy="176.1" r="9.1"/><g class="severity-medium"><circle class="cls-2 severity-medium severity-medium" cx="394.45" cy="176.1" r="9.1"/><path class="cls-4 severity-medium" d="M394.45 167v18.1c-5 0-9.1-4.1-9.1-9.1s4.1-9 9.1-9Z"/></g></g><g id="damage-pill-pricing_rocker_panel_right"><path class="cls-6 damage-pill-background" d="M449.43 195.23h-54.98c-10.56 0-19.13-8.58-19.13-19.13 0-10.56 8.58-19.13 19.13-19.13h54.98c10.56 0 19.13 8.58 19.13 19.13 0 10.56-8.58 19.13-19.13 19.13Z"/><text class="cls-7 damage-pill-text" transform="translate(416.53 180.38)">9999€</text><circle class="cls-3 severity-low" cx="394.45" cy="176.1" r="9.1"/><circle class="cls-5 severity-high" cx="394.45" cy="176.1" r="9.1"/><circle class="cls-8 severity-none" cx="394.45" cy="176.1" r="9.1"/><g class="severity-medium"><circle class="cls-2 severity-medium severity-medium" cx="394.45" cy="176.1" r="9.1"/><path class="cls-4 severity-medium" d="M394.45 167v18.1c-5 0-9.1-4.1-9.1-9.1s4.1-9 9.1-9Z"/></g></g><g id="damage-pill_windshield_back"><circle class="cls-6 damage-pill-background" cx="85.65" cy="63.73" r="19.13"/><circle class="cls-3 severity-low" cx="85.65" cy="63.73" r="9.1"/><circle class="cls-5 severity-high" cx="85.65" cy="63.73" r="9.1"/><circle class="cls-8 severity-none" cx="85.65" cy="63.73" r="9.1"/><g class="severity-medium"><circle class="cls-2 severity-medium severity-medium" cx="85.65" cy="63.73" r="9.1"/><path class="cls-4 severity-medium" d="M85.65 54.63v18.1c-5 0-9.1-4.1-9.1-9.1s4.1-9 9.1-9Z"/></g></g><g id="damage-pill-pricing_windshield_back"><path class="cls-6 damage-pill-background" d="M140.63 82.87H85.65c-10.56 0-19.13-8.58-19.13-19.13 0-10.56 8.58-19.13 19.13-19.13h54.98c10.56 0 19.13 8.58 19.13 19.13 0 10.56-8.58 19.13-19.13 19.13Z"/><text class="cls-7 damage-pill-text" transform="translate(107.73 68.02)">9999€</text><circle class="cls-3 severity-low" cx="85.65" cy="63.73" r="9.1"/><circle class="cls-5 severity-high" cx="85.65" cy="63.73" r="9.1"/><circle class="cls-8 severity-none" cx="85.65" cy="63.73" r="9.1"/><g class="severity-medium"><circle class="cls-2 severity-medium severity-medium" cx="85.65" cy="63.73" r="9.1"/><path class="cls-4 severity-medium" d="M85.65 54.63v18.1c-5 0-9.1-4.1-9.1-9.1s4.1-9 9.1-9Z"/></g></g><g id="damage-pill_roof"><circle class="cls-6 damage-pill-background" cx="186.55" cy="20.13" r="19.13"/><circle class="cls-3 severity-low" cx="186.55" cy="20.13" r="9.1"/><circle class="cls-5 severity-high" cx="186.55" cy="20.13" r="9.1"/><circle class="cls-8 severity-none" cx="186.55" cy="20.13" r="9.1"/><g class="severity-medium"><circle class="cls-2 severity-medium severity-medium" cx="186.55" cy="20.13" r="9.1"/><path class="cls-4 severity-medium" d="M186.55 11.03v18.1c-5 0-9.1-4.1-9.1-9.1s4.1-9 9.1-9Z"/></g></g><g id="damage-pill-pricing_roof"><path class="cls-6 damage-pill-background" d="M241.53 39.27h-54.98c-10.56 0-19.13-8.58-19.13-19.13 0-10.56 8.58-19.13 19.13-19.13h54.98c10.56 0 19.13 8.58 19.13 19.13 0 10.56-8.58 19.13-19.13 19.13Z"/><text class="cls-7 damage-pill-text" transform="translate(208.64 24.42)">9999€</text><circle class="cls-3 severity-low" cx="186.55" cy="20.13" r="9.1"/><circle class="cls-5 severity-high" cx="186.55" cy="20.13" r="9.1"/><circle class="cls-8 severity-none" cx="186.55" cy="20.13" r="9.1"/><g class="severity-medium"><circle class="cls-2 severity-medium severity-medium" cx="186.55" cy="20.13" r="9.1"/><path class="cls-4 severity-medium" d="M186.55 11.03v18.1c-5 0-9.1-4.1-9.1-9.1s4.1-9 9.1-9Z"/></g></g><g id="damage-pill_fender_back_right"><circle class="cls-6 damage-pill-background" cx="270.67" cy="136.87" r="19.13"/><circle class="cls-3 severity-low" cx="270.67" cy="136.87" r="9.1"/><circle class="cls-5 severity-high" cx="270.67" cy="136.87" r="9.1"/><circle class="cls-8 severity-none" cx="270.67" cy="136.87" r="9.1"/><g class="severity-medium"><circle class="cls-2 severity-medium severity-medium" cx="270.67" cy="136.87" r="9.1"/><path class="cls-4 severity-medium" d="M270.67 127.77v18.1c-5 0-9.1-4.1-9.1-9.1s4.1-9 9.1-9Z"/></g></g><g id="damage-pill-pricing_fender_back_right"><path class="cls-6 damage-pill-background" d="M325.66 156.01h-54.98c-10.56 0-19.13-8.58-19.13-19.13 0-10.56 8.58-19.13 19.13-19.13h54.98c10.56 0 19.13 8.58 19.13 19.13 0 10.56-8.58 19.13-19.13 19.13Z"/><text class="cls-7 damage-pill-text" transform="translate(292.76 141.16)">9999€</text><circle class="cls-3 severity-low" cx="270.67" cy="136.87" r="9.1"/><circle class="cls-5 severity-high" cx="270.67" cy="136.87" r="9.1"/><circle class="cls-8 severity-none" cx="270.67" cy="136.87" r="9.1"/><g class="severity-medium"><circle class="cls-2 severity-medium severity-medium" cx="270.67" cy="136.87" r="9.1"/><path class="cls-4 severity-medium" d="M270.67 127.77v18.1c-5 0-9.1-4.1-9.1-9.1s4.1-9 9.1-9Z"/></g></g><g id="damage-pill_wheel_back_right"><circle class="cls-6 damage-pill-background" cx="303.08" cy="241.29" r="19.13"/><circle class="cls-3 severity-low" cx="303.08" cy="241.29" r="9.1"/><circle class="cls-5 severity-high" cx="303.08" cy="241.29" r="9.1"/><circle class="cls-8 severity-none" cx="303.08" cy="241.29" r="9.1"/><g class="severity-medium"><circle class="cls-2 severity-medium severity-medium" cx="303.08" cy="241.29" r="9.1"/><path class="cls-4 severity-medium" d="M303.08 232.19v18.1c-5 0-9.1-4.1-9.1-9.1s4.1-9 9.1-9Z"/></g></g><g id="damage-pill-pricing_wheel_back_right"><path class="cls-6 damage-pill-background" d="M358.06 260.42h-54.98c-10.56 0-19.13-8.58-19.13-19.13 0-10.56 8.58-19.13 19.13-19.13h54.98c10.56 0 19.13 8.58 19.13 19.13 0 10.56-8.58 19.13-19.13 19.13Z"/><text class="cls-7 damage-pill-text" transform="translate(325.16 245.57)">9999€</text><circle class="cls-3 severity-low" cx="303.08" cy="241.29" r="9.1"/><circle class="cls-5 severity-high" cx="303.08" cy="241.29" r="9.1"/><circle class="cls-8 severity-none" cx="303.08" cy="241.29" r="9.1"/><g class="severity-medium"><circle class="cls-2 severity-medium severity-medium" cx="303.08" cy="241.29" r="9.1"/><path class="cls-4 severity-medium" d="M303.08 232.19v18.1c-5 0-9.1-4.1-9.1-9.1s4.1-9 9.1-9Z"/></g></g><g id="damage-pill_quarter_window_back_right"><circle class="cls-6 damage-pill-background" cx="260.89" cy="62.57" r="19.13"/><circle class="cls-3 severity-low" cx="260.89" cy="62.57" r="9.1"/><circle class="cls-5 severity-high" cx="260.89" cy="62.57" r="9.1"/><circle class="cls-8 severity-none" cx="260.89" cy="62.57" r="9.1"/><g class="severity-medium"><circle class="cls-2 severity-medium severity-medium" cx="260.89" cy="62.57" r="9.1"/><path class="cls-4 severity-medium" d="M260.89 53.47v18.1c-5 0-9.1-4.1-9.1-9.1s4.1-9 9.1-9Z"/></g></g><g id="damage-pill-pricing_quarter_window_back_right"><path class="cls-6 damage-pill-background" d="M315.87 81.71h-54.98c-10.56 0-19.13-8.58-19.13-19.13 0-10.56 8.58-19.13 19.13-19.13h54.98c10.56 0 19.13 8.58 19.13 19.13 0 10.56-8.58 19.13-19.13 19.13Z"/><text class="cls-7 damage-pill-text" transform="translate(282.98 66.86)">9999€</text><circle class="cls-3 severity-low" cx="260.89" cy="62.57" r="9.1"/><circle class="cls-5 severity-high" cx="260.89" cy="62.57" r="9.1"/><circle class="cls-8 severity-none" cx="260.89" cy="62.57" r="9.1"/><g class="severity-medium"><circle class="cls-2 severity-medium severity-medium" cx="260.89" cy="62.57" r="9.1"/><path class="cls-4 severity-medium" d="M260.89 53.47v18.1c-5 0-9.1-4.1-9.1-9.1s4.1-9 9.1-9Z"/></g></g></svg>
