<svg width="500" height="375" fill="none" xmlns="http://www.w3.org/2000/svg"><path d="M190 5.33s45.5 17.17 70.5 36.17c0 0 143 1 213 61l10 25s-4 59-12 70l2 7s14 34-114 95l-61 16H183.08s-24.58-8-37.58-17l-4-8s-46-207-101-193c0 0-32 10.76 0 94.88l.81 1.54M7.5 183.5l40 38" stroke="#fff" stroke-miterlimit="10"/><path d="M144.63 296.77 113.5 311.5l-7.52.66c-18.48.34-44.37-37.73-59.38-94.73-15.01-57-12.1-105.93 5-111.7l10.39-3M23 5s8.5 31.5 9.5 35.5v4.82h-15M7.25 25.16 9.5 29.5l1 7L7 37.68" stroke="#fff" stroke-miterlimit="10"/><path d="M10.5 36.5s7 7 8 11l-7 6L7 55.87M36.88 5s9.2 23.5 10.91 31.5c0 0 183.71-5 212.71 5M119.5 97.5l4-10h12.34s206.66 28 232.66 28c0 0-47 41-55 43 0 0-120 0-147-8 0 0-29-25-47-53ZM368.5 115.5h11.93s51.07-2 93.07-13" stroke="#fff" stroke-miterlimit="10"/><path d="M351.5 169.5c-11 3-147-4-147-4-9-1-38-15-38-15" stroke="#fff" stroke-miterlimit="10"/><path d="M380.43 115.5 351.5 167l-1 4.53s31 82 33 83c0 0 3 3 4 3h4s64-28 80-60" stroke="#fff" stroke-miterlimit="10"/><path d="m427.5 177.5 2-3 47-23-4 27-48 33-2-1 5-33ZM47.79 36.5l-2.29 16 2 2s85.22-.24 147.61 40.88" stroke="#fff" stroke-miterlimit="10"/></svg>
