<svg width="500" height="375" fill="none" xmlns="http://www.w3.org/2000/svg"><path d="M7 93.94S57.5 66.5 69.5 62.5c0 0 126-57 293-15 0 0 54 16 128 76l2.5.93M462.9 102.4l29.85 3.46" stroke="#fff" stroke-miterlimit="10"/><path d="M361.18 47.17c-7.32-.33-59.68 9.33-59.68 9.33s42 17 150 104c0 0 33-1.62 41.5-10.31M7.25 163.34l7.25 14.16 14 17 1 1M493 293.27c-41.5 16.78-49.5 66.23-49.5 66.23l-302-119-41-13c-26-83-66-85-66-85s-26.76.92-9.36 38.23" stroke="#fff" stroke-miterlimit="10"/><path d="m103.5 228.5-21 11-6.12 1.81c-12.88 2.19-29.69-11.47-41.92-34.89-12.93-24.73-14.28-49.56-3-55.44A36.18 36.18 0 0 1 45 145.67M304.5 147.5v12s30 18 71-5v-2.86l3-5.14s-21-21-37-23.52l-7 .52s-22 10-30 24Z" stroke="#fff" stroke-miterlimit="10"/><path d="M304.5 147.5s35 10 74-1M339.23 166.21l1.27 3.29s12 2 18 1c0 0 11.29-7.91 14.15-14.46" stroke="#fff" stroke-miterlimit="10"/><path d="M371.82 157.61c11.32 3.11 51.56 8.6 51.56 8.6C372.26 108.91 299.5 68.5 299.5 68.5c-49-23-97.62-21.34-97.62-21.34C101.26 47.83 49.5 79.5 49.5 79.5l-2 5s7 10 32 18c0 0 223.3 43.34 226.15 43.17M423.38 166.21l9.63 27.4v24.61S418.5 292.5 410.5 310.5l-8 19-.44 1.23" stroke="#fff" stroke-miterlimit="10"/><path d="M113.15 56.83S89.5 89.5 86.5 100.5c0 0-4.89-1.61-8 1.69 0 0-10.75 12.42-14.9 15.36l-1.15 14s12 44 46 83a36.545 36.545 0 0 0 17 10l302 116 18.69 8.45" stroke="#fff" stroke-miterlimit="10"/><path d="M197.28 47.22s-9 58.24-6.41 75.76c0 0-4.35 30.93-3.36 43.23 0 0 4 42.29 8 53.29 0 0 0 7-1 9 0 0-1 19.84-1.52 21.92M462.89 316.38s-2.61 31.8 0 39l4.36 14.33" stroke="#fff" stroke-miterlimit="10"/><path d="m207.5 157.5-2 3 1 2.15s13 2.85 15 2.85c0 0 5-2 6-3 0 0 7.95 2.41 7.47 3.71l.53 3.29-3 3s-29-4-37-8l-2-4 3-5s10 1 11 2ZM81.5 130.5l-2 2v1.62s7 2.38 11 1.38c0 0 3.9-1.75 4-2.38 0 0 4 1.38 5 3.38v3l-2 2s-18-2-24-5l-1-2v-2.16l1.72-1.84s4.28-1 7.28 0Z" stroke="#fff" stroke-miterlimit="10"/></svg>
