<svg width="500" height="375" viewBox="0 0 500 375" fill="none" xmlns="http://www.w3.org/2000/svg">
<path d="M169.78 11.8899C169.78 11.8899 253.85 52.8899 285.96 75.5099C285.96 75.5099 426.64 81.3199 492.96 106.08" stroke="white" stroke-miterlimit="10"/>
<path d="M7 252.64L269.75 280.85C269.75 280.85 251.87 167.3 378.44 163.18C378.44 163.18 474.8 160.42 493 245.03" stroke="white" stroke-miterlimit="10"/>
<path d="M382.22 363.36C435.979 363.36 479.56 321.011 479.56 268.77C479.56 216.529 435.979 174.18 382.22 174.18C328.46 174.18 284.88 216.529 284.88 268.77C284.88 321.011 328.46 363.36 382.22 363.36Z" stroke="white" stroke-miterlimit="10"/>
<path d="M269.75 280.81L287.07 248.78" stroke="white" stroke-miterlimit="10"/>
<path d="M139.28 48.98C139.28 48.98 157.39 38.67 177.11 42.98L209.9 60.45L205.32 74.45C205.32 74.45 222.97 79.26 241.09 78.57L244.53 87.75C244.53 87.75 177.34 89.12 149.83 76.05C149.83 76.04 142.26 75.12 139.28 48.98Z" stroke="white" stroke-miterlimit="10"/>
<path d="M141.39 61.3C141.39 61.3 181.7 67.5601 205.32 74.4401" stroke="white" stroke-miterlimit="10"/>
<path d="M139.28 11C139.28 11 217.28 53.8 241.09 78.56" stroke="white" stroke-miterlimit="10"/>
<path d="M7 81.3201L187.28 84.9601" stroke="white" stroke-miterlimit="10"/>
<path d="M32.89 11C32.89 11 26 56.55 28.07 79.48L23.25 86.13L20.73 109.29L21.8 112.04C21.8 112.04 30.06 184.35 35 204.53L37.14 241.82L45.98 256.82" stroke="white" stroke-miterlimit="10"/>
<path d="M7 215.84L257.22 241.21C257.22 241.21 272.5 148.27 374.77 150.1C374.77 150.1 447.05 142.77 493 210.64" stroke="white" stroke-miterlimit="10"/>
<path d="M41.3702 117.54C41.3702 117.54 37.9902 119.44 38.4502 120.07L56.9002 120.64C56.9002 120.64 60.2302 117.89 62.6902 118.81C62.6902 118.81 69.6302 119.95 70.1502 122.93L69.4002 127.46H67.3402L31.6802 126.54L28.9302 125.17L28.1802 120.3L30.5402 118.12C34.1203 117.551 37.7498 117.357 41.3702 117.54V117.54Z" stroke="white" stroke-miterlimit="10"/>
<path d="M244.53 87.74C244.53 87.74 255.53 174.28 244.53 239.93" stroke="white" stroke-miterlimit="10"/>
</svg>
