<svg width="500" height="375" viewBox="0 0 500 375" fill="none" xmlns="http://www.w3.org/2000/svg">
<path d="M356.961 5C356.961 5 389.521 16 391.961 17.79L398.841 26.2L399.451 39.5L461.071 94.68L493.011 113.94" stroke="white" stroke-miterlimit="10"/>
<path d="M493 259.55L473 278.81C473 278.81 489 210.25 443 196.49C443 196.49 347.84 174.02 306.11 330.4L133.16 369.31" stroke="white" stroke-miterlimit="10"/>
<path d="M7 86.4299C7 86.4299 353.29 88.2599 381.72 89.6399C381.72 89.6399 310.18 7.41994 305.59 5.18994" stroke="white" stroke-miterlimit="10"/>
<path d="M478.399 105.14L471.379 112.11V118.76L490.639 150.4L492.999 151.78" stroke="white" stroke-miterlimit="10"/>
<path d="M7.5 341.41L307.89 279.96C307.89 279.96 343.2 187.78 404.19 179.52" stroke="white" stroke-miterlimit="10"/>
<path d="M466.33 189.15C466.33 189.15 487.2 201.77 489.03 243.5L493.03 241.89" stroke="white" stroke-miterlimit="10"/>
<path d="M119.859 5C119.859 5 109.779 71.1 107.939 87L94.6394 137.83C94.6394 137.83 93.0694 244.42 98.5294 274C98.5294 274 99.8294 288.82 96.1694 297.08L89.3594 318.94L96.9294 361.59L104.609 369.5" stroke="white" stroke-miterlimit="10"/>
<path d="M352.37 135.61L358.56 138.37L360.97 139.05L381.72 138.14L382.87 137.33L379.08 134.33L379.77 133.07C379.77 133.07 391.69 133.64 392.5 135.25L394.9 138V144.42L393.18 145.11C393.18 145.11 346.18 148.32 342.62 148.11L339.07 146.62V141.12L341.82 138.59C341.82 138.59 347.55 135.73 352.37 135.61Z" stroke="white" stroke-miterlimit="10"/>
<path d="M8.5693 159.65L45.5693 158.12L47.5693 156.9L52.1593 151.24L55.2193 150.17L79.5193 152.62L81.5193 154.91L80.4493 164.39L77.8493 165.77C77.8493 165.77 21.8993 169.89 7.5293 171.42" stroke="white" stroke-miterlimit="10"/>
<path d="M309.279 319L314.459 330.1C314.459 330.1 346.249 365.26 349.619 368.01" stroke="white" stroke-miterlimit="10"/>
<path d="M397.07 201.83L426.99 207.52C426.99 207.52 477.89 221.46 471.4 282.36C471.4 282.36 462.76 340.75 415.68 369.52" stroke="white" stroke-miterlimit="10"/>
</svg>
