<svg width="500" height="375" fill="none" xmlns="http://www.w3.org/2000/svg"><path d="M356.961 5s32.56 11 35 12.79l6.88 8.41.61 13.3 61.62 55.18 31.94 19.26M493 259.55l-20 19.26s16-68.56-30-82.32c0 0-95.16-22.47-136.89 133.91l-172.95 38.91M7 86.43s346.29 1.83 374.72 3.21c0 0-71.54-82.22-76.13-84.45M478.399 105.14l-7.02 6.97v6.65l19.26 31.64 2.36 1.38" stroke="#fff" stroke-miterlimit="10"/><path d="m7.5 341.41 300.39-61.45s35.31-92.18 96.3-100.44M466.33 189.15s20.87 12.62 22.7 54.35l4-1.61" stroke="#fff" stroke-miterlimit="10"/><path d="M119.859 5s-10.08 66.1-11.92 82l-13.3 50.83S93.07 244.42 98.53 274c0 0 1.3 14.82-2.36 23.08l-6.81 21.86 7.57 42.65 7.68 7.91M352.37 135.61l6.19 2.76 2.41.68 20.75-.91 1.15-.81-3.79-3 .69-1.26s11.92.57 12.73 2.18l2.4 2.75v6.42l-1.72.69s-47 3.21-50.56 3l-3.55-1.49v-5.5l2.75-2.53s5.73-2.86 10.55-2.98ZM8.57 159.65l37-1.53 2-1.22 4.59-5.66 3.06-1.07 24.3 2.45 2 2.29-1.07 9.48-2.6 1.38s-55.95 4.12-70.32 5.65M309.279 319l5.18 11.1s31.79 35.16 35.16 37.91M397.07 201.83l29.92 5.69s50.9 13.94 44.41 74.84c0 0-8.64 58.39-55.72 87.16" stroke="#fff" stroke-miterlimit="10"/></svg>
