<svg id="17C0fh" data-name="rear" width="500" height="375" fill="none" xmlns="http://www.w3.org/2000/svg">
  <g clip-path="url(#17C0fh-a)">
    <g clip-path="url(#17C0fh-b)" stroke="#fff" stroke-miterlimit="10">
      <path d="M118.375 32.48s115.069-34.24 258.203 0c0 0 54.448 48.272 71.848 107.21l16.233 15.852v30.799l10.149 41.475s.561 102.72-26.943 116.192c0 0-239.276 30.872-402.82 0 0 0-27.145-58.938-17.041-113.947l11.787-39.853-2.958-34.666 16.99-19.781S93.117 47.074 118.376 32.48Z" stroke-width="1.684"/>
      <path d="M72.834 348.584s12.422-27.027 42.733-26.466c0 0 192.092 3.368 264.159 0 0 0 41.419-6.736 51.41 23.856" stroke-width="1.684"/>
      <path d="M77.725 348.585s3.603-18.046 30.546-15.801c0 0 203.841 8.033 264.984-.19 0 0 44.872-9.823 52.163 13.987" stroke-width=".561"/>
      <path d="M102.095 53.251s152.239-23.575 290.26 0c0 0 42.037 51.08 35.301 67.358 0 0-240.949 23.137-354.822-2.464 0 0 10.177-38.512 29.261-64.894Z" stroke-width="1.684"/>
      <path d="M102.096 53.252s158.413-55.57 290.26 0" stroke-width=".561"/>
      <path d="m72.834 118.148-7.225 27.162 7.225 59.982s8.492 49.474 32.067 55.649c0 0 97.371 17.4 295.66 0 0 0 25.747-12.349 27.824-55.009l8.813-60.06-9.542-25.259" stroke-width="1.684"/>
      <path d="M38.712 193.861s-1.875 11.787 34.122 13.32l42.172-.129s22.452-15.717 26.942-23.575h217.571s20.426 19.645 28.413 22.452c3.239 1.123 40.454 0 40.454 0s16.11.561 32.388-9.542l3.884-10.042m-31.502-51.173s13.584 2.84 15.268 4.524" stroke-width="1.684"/>
      <path d="M36.832 155.541s13.623-9.677 28.779-10.238c0 0 310.966-6.736 371.588.561 0 0 22.924 4.199 27.459 9.677" stroke-width=".561"/>
      <path d="m67.744 162.984 74.206 20.494m217.568-.004 74.94-18.9m-106.67 25.074H175.066V226.6h152.722v-36.952Z" stroke-width="1.684"/>
      <path d="m158.709 183.477 10.182 46.027s2.245 7.297 16.278 7.859h137.409s8.055-.758 12.787-10.761l9.497-43.125" stroke-width=".561"/>
      <path d="M74.873 214.555s-10.385 53.678 35.082 60.975c0 0 176.251 10.665 281.778 0 0 0 42.66-8.229 35.363-57.72M30.754 299.322s25.405 17.867 46.97-4.367l8.095-4.271s277.972 7.858 331.797 0l10.771 3.008s15.79 23.912 40.089 7.645" stroke-width=".561"/>
    </g>
  </g>
  <defs>
    <clipPath id="17C0fh-a">
      <path fill="#fff" transform="translate(22.172 16.426)" d="M0 0h456.755v342.189H0z"/>
    </clipPath>
    <clipPath id="17C0fh-b">
      <path fill="#fff" transform="translate(24.91 16.426)" d="M0 0h450.745v342.153H0z"/>
    </clipPath>
  </defs>
</svg>
