<svg width="500" height="375" viewBox="0 0 500 375" fill="none" xmlns="http://www.w3.org/2000/svg">
<path d="M493 87.3498L431 85.0498C431 85.0498 290.21 13.4598 265 5.0498" stroke="white" stroke-miterlimit="10"/>
<path d="M491.84 272.16C491.84 272.16 398.03 299 400.32 369.5" stroke="white" stroke-miterlimit="10"/>
<path d="M116.141 5C116.141 5 28.4106 30.68 7.00064 46.17" stroke="white" stroke-miterlimit="10"/>
<path d="M300.34 369.5L25.8698 268.5L16.7798 258.26C16.7798 258.26 9.45985 227.38 6.99985 223.71" stroke="white" stroke-miterlimit="10"/>
<path d="M40.8008 273.98C40.8008 273.98 38.7108 283.98 32.4108 287.75L7.00079 298.3" stroke="white" stroke-miterlimit="10"/>
<path d="M491.84 277.439C491.84 277.439 439.91 293.439 425.54 344.159L422.79 368.759" stroke="white" stroke-miterlimit="10"/>
<path d="M425.539 344.16L406.749 336.79" stroke="white" stroke-miterlimit="10"/>
<path d="M364.66 93.1897C364.66 93.1897 314.1 93.5397 289.34 84.5897C289.34 84.5897 240.27 72.8997 219.4 74.5097C219.4 74.5097 220.09 85.7397 228.34 93.1897C228.34 93.1897 266.41 103.19 284.06 102.48L370.51 106.15L364.66 93.1897Z" stroke="white" stroke-miterlimit="10"/>
<path d="M308.991 89.3104L317.621 68.8304L316.241 66.3804L271.761 44.6804C271.761 44.6804 259.531 41.6204 248.521 44.0604C248.521 44.0604 223.151 49.2604 216.271 55.8404C216.271 55.8404 217.181 70.3604 219.401 74.4904" stroke="white" stroke-miterlimit="10"/>
<path d="M364.66 93.19C364.66 93.19 263.43 15.07 221.93 5" stroke="white" stroke-miterlimit="10"/>
<path d="M146.48 5C146.48 5 55.9105 25 32.6805 39.35C32.6805 39.35 8.42049 74.73 7.00049 81.96" stroke="white" stroke-miterlimit="10"/>
<path d="M274.9 102.13L7.0004 99.5" stroke="white" stroke-miterlimit="10"/>
<path d="M446.061 262.3C446.061 262.3 395.061 290.3 380.371 346.45C380.371 346.45 17.0805 239.6 11.2705 230.73" stroke="white" stroke-miterlimit="10"/>
<path d="M112.34 13.1504C112.34 13.1504 99.9298 66.0204 99.4798 99.5004L93.7498 104.5L87.7498 131.94L89.2798 137.14C89.2798 137.14 90.3498 203.33 98.1398 240.94L97.8398 260.94L100.06 282.06L94.4298 293.67" stroke="white" stroke-miterlimit="10"/>
<path d="M370.51 106.15L372.34 113.49L375.34 163.24C375.34 163.24 373.13 286.57 360.13 340.48" stroke="white" stroke-miterlimit="10"/>
<path d="M126.459 144.98L119.349 148.11H116.059L102.689 147.35V145.59L107.429 143.07L106.279 141.84C106.279 141.84 97.2791 142.53 95.2791 144.52L94.0591 147.19C94.0591 147.19 93.9091 150.86 94.9791 153.08C94.9791 153.08 121.499 157.44 134.979 156.75L137.039 155.45L136.659 149.33L134.979 147.96L126.459 144.98Z" stroke="white" stroke-miterlimit="10"/>
</svg>
