<?xml version='1.0' encoding='ascii'?>
<svg xmlns="http://www.w3.org/2000/svg" version="1.1" width="1024" height="768">
    <g id="ViewLayer_001_silhouette" xmlns:inkscape="http://www.inkscape.org/namespaces/inkscape" inkscape:groupmode="lineset" inkscape:label="ViewLayer_001_silhouette">
        <g xmlns:inkscape="http://www.inkscape.org/namespaces/inkscape" inkscape:groupmode="layer" id="strokes" inkscape:label="strokes">
            <path fill="none" stroke-width="3.0" stroke-linecap="butt" stroke-opacity="1.0" stroke="rgb(255, 255, 255)" stroke-linejoin="round" d=" M 350.919, 368.213 349.745, 366.724 348.021, 364.620 341.790, 357.018 336.447, 350.500 336.273, 350.288 335.140, 348.906 334.966, 348.694 334.910, 348.625 333.230, 346.575 332.511, 345.698 330.679, 343.463 330.071, 342.721 329.966, 342.593 329.775, 342.361 329.582, 342.125 329.156, 341.605 325.866, 338.645 324.443, 338.091 323.291, 337.934 320.413, 338.186 318.830, 338.324 318.357, 338.366 314.452, 338.707 313.055, 338.833 313.135, 339.518 313.142, 339.580 313.166, 339.787 313.586, 343.401 314.007, 345.677 314.057, 345.950 314.126, 346.322 314.134, 346.367 314.316, 347.347 314.707, 349.463 314.929, 350.665 315.322, 352.791 315.349, 352.937 315.394, 353.182 315.688, 354.770 315.734, 355.016 317.204, 362.970 318.822, 371.720 319.289, 374.121 317.403, 375.583 316.596, 376.578 311.538, 385.205 310.829, 386.414 310.920, 387.004 " />
            <path fill="none" stroke-width="3.0" stroke-linecap="butt" stroke-opacity="1.0" stroke="rgb(255, 255, 255)" stroke-linejoin="round" d=" M 385.246, 377.666 385.180, 377.069 378.242, 369.867 375.894, 367.429 372.243, 365.445 362.413, 363.607 361.266, 363.393 356.765, 363.235 348.021, 364.620 " />
            <path fill="none" stroke-width="3.0" stroke-linecap="butt" stroke-opacity="1.0" stroke="rgb(255, 255, 255)" stroke-linejoin="round" d=" M 313.055, 338.833 314.116, 338.964 314.642, 339.185 315.342, 339.480 " />
            <path fill="none" stroke-width="3.0" stroke-linecap="butt" stroke-opacity="1.0" stroke="rgb(255, 255, 255)" stroke-linejoin="round" d=" M 385.180, 377.069 377.653, 370.485 376.935, 369.858 " />
            <path fill="none" stroke-width="3.0" stroke-linecap="butt" stroke-opacity="1.0" stroke="rgb(255, 255, 255)" stroke-linejoin="round" d=" M 350.919, 368.213 341.371, 371.187 331.641, 374.217 326.674, 376.664 326.155, 374.216 323.152, 364.677 322.201, 361.654 319.747, 353.859 319.258, 352.305 319.184, 352.068 319.154, 351.975 318.490, 349.863 317.171, 345.673 317.145, 345.592 316.745, 344.322 315.342, 339.480 316.784, 339.366 325.866, 338.645 " />
            <path fill="none" stroke-width="3.0" stroke-linecap="butt" stroke-opacity="1.0" stroke="rgb(255, 255, 255)" stroke-linejoin="round" d=" M 331.065, 394.533 330.972, 393.921 331.007, 383.921 331.015, 381.635 " />
            <path fill="none" stroke-width="3.0" stroke-linecap="butt" stroke-opacity="1.0" stroke="rgb(255, 255, 255)" stroke-linejoin="round" d=" M 817.536, 778.447 818.446, 768.489 818.545, 767.404 819.214, 760.085 819.673, 754.548 820.501, 744.582 821.328, 734.617 822.156, 724.651 822.577, 719.579 823.319, 709.607 824.062, 699.635 824.805, 689.662 825.539, 679.802 826.215, 669.825 826.891, 659.847 827.178, 655.623 827.218, 655.034 827.246, 654.610 827.923, 644.633 828.167, 641.034 828.643, 633.513 828.975, 628.282 828.983, 628.146 828.997, 627.923 829.019, 627.577 829.634, 617.876 830.266, 607.896 830.542, 603.541 830.851, 598.488 830.886, 597.920 831.496, 587.939 831.835, 582.402 831.855, 582.072 831.856, 582.059 832.098, 578.106 832.542, 570.841 " />
            <path fill="none" stroke-width="3.0" stroke-linecap="butt" stroke-opacity="1.0" stroke="rgb(255, 255, 255)" stroke-linejoin="round" d=" M 926.386, 773.184 923.811, 763.521 923.646, 762.901 923.544, 762.518 923.527, 762.454 921.404, 754.488 918.759, 744.844 916.243, 735.671 913.528, 726.047 910.904, 716.743 908.119, 707.138 905.386, 697.709 902.533, 688.125 899.691, 678.579 896.774, 669.014 893.830, 659.363 892.423, 654.857 889.575, 645.732 889.378, 645.101 889.214, 644.573 887.809, 640.073 886.231, 635.124 883.194, 625.597 881.639, 620.719 878.549, 611.208 875.459, 601.698 875.333, 601.313 874.354, 598.342 874.265, 598.072 874.213, 597.913 871.082, 588.416 868.925, 581.873 868.358, 580.171 865.221, 570.746 864.884, 569.733 863.829, 566.565 863.739, 566.293 863.720, 566.237 862.449, 562.418 859.873, 554.714 859.706, 554.214 859.325, 553.074 858.166, 549.610 857.569, 547.824 " />
            <path fill="none" stroke-width="3.0" stroke-linecap="butt" stroke-opacity="1.0" stroke="rgb(255, 255, 255)" stroke-linejoin="round" d=" M -0.883, 573.518 2.067, 577.325 8.332, 585.119 8.498, 585.325 14.516, 592.506 20.264, 599.072 25.927, 605.273 31.775, 611.412 38.122, 617.835 45.247, 624.852 45.321, 624.925 52.541, 631.844 53.851, 633.099 59.069, 637.804 60.486, 639.081 63.413, 641.720 64.564, 642.758 66.645, 644.488 74.334, 650.881 78.499, 654.345 86.513, 660.477 94.455, 666.554 96.847, 668.384 103.595, 673.193 105.567, 674.598 105.659, 674.664 109.202, 677.188 109.618, 677.485 111.781, 679.026 112.072, 679.234 112.232, 679.348 113.026, 679.914 114.960, 681.292 115.730, 681.841 115.741, 681.849 115.824, 681.908 118.291, 683.666 118.339, 683.700 118.446, 683.776 120.012, 684.893 120.459, 685.211 120.976, 685.563 121.540, 685.946 124.274, 687.807 124.335, 687.848 124.541, 687.988 127.147, 689.761 127.192, 689.792 127.264, 689.841 127.692, 690.132 129.195, 691.155 129.276, 691.210 129.276, 691.210 129.441, 691.322 129.900, 691.634 130.418, 691.987 132.019, 693.076 133.223, 693.895 133.495, 694.080 133.997, 694.422 133.997, 694.422 135.870, 695.696 138.617, 697.565 138.710, 697.629 141.555, 699.564 145.549, 702.282 145.549, 702.282 148.053, 703.985 148.339, 704.174 156.691, 709.673 159.219, 711.337 159.219, 711.337 164.867, 715.056 166.475, 716.115 174.828, 721.614 177.395, 723.305 185.819, 728.693 186.178, 728.922 189.623, 731.126 192.157, 732.747 192.157, 732.747 200.581, 738.136 204.089, 740.380 204.089, 740.380 204.209, 740.456 205.682, 741.399 214.183, 746.666 217.616, 748.792 217.616, 748.792 218.067, 749.072 218.067, 749.072 218.067, 749.072 220.083, 750.321 221.588, 751.253 221.588, 751.253 222.423, 751.771 223.307, 752.319 223.601, 752.501 230.202, 756.590 238.780, 761.731 247.358, 766.871 249.530, 768.173 " />
            <path fill="none" stroke-width="3.0" stroke-linecap="butt" stroke-opacity="1.0" stroke="rgb(255, 255, 255)" stroke-linejoin="round" d=" M 129.195, 691.155 129.276, 691.210 129.276, 691.210 129.439, 691.322 129.896, 691.635 130.412, 691.989 132.004, 693.079 133.204, 693.902 133.471, 694.084 133.971, 694.427 133.971, 694.427 135.838, 695.707 138.573, 697.581 138.664, 697.643 141.496, 699.583 145.532, 702.349 145.532, 702.349 148.346, 704.277 149.315, 704.941 157.649, 710.468 159.174, 711.480 159.174, 711.480 164.539, 715.038 166.418, 716.285 174.752, 721.812 178.509, 724.304 185.713, 728.950 189.100, 731.135 191.858, 732.914 191.858, 732.914 200.262, 738.335 203.328, 740.313 203.725, 740.568 203.725, 740.568 206.383, 742.283 206.600, 742.423 215.077, 747.728 217.620, 749.319 217.620, 749.319 218.071, 749.602 218.072, 749.602 218.072, 749.602 220.085, 750.862 221.569, 751.791 221.569, 751.791 222.424, 752.326 223.293, 752.869 223.604, 753.064 230.895, 757.627 239.446, 762.812 247.996, 767.998 249.986, 769.204 " />
            <path fill="none" stroke-width="3.0" stroke-linecap="butt" stroke-opacity="1.0" stroke="rgb(255, 255, 255)" stroke-linejoin="round" d=" M 87.077, 641.663 81.112, 636.971 78.551, 634.957 75.402, 632.479 73.915, 631.310 73.912, 631.307 73.778, 631.194 66.159, 624.717 63.063, 622.085 55.638, 615.387 54.405, 614.275 47.063, 607.472 40.554, 601.277 34.518, 595.331 28.640, 589.308 22.647, 582.924 16.351, 575.950 10.931, 569.721 9.609, 568.201 3.169, 560.550 2.311, 559.531 -1.264, 555.147 " />
            <path fill="none" stroke-width="3.0" stroke-linecap="butt" stroke-opacity="1.0" stroke="rgb(255, 255, 255)" stroke-linejoin="round" d=" M 73.915, 631.310 73.778, 631.194 66.160, 624.717 63.196, 622.197 55.770, 615.499 54.537, 614.387 47.195, 607.583 40.684, 601.388 34.649, 595.441 28.769, 589.418 22.775, 583.033 16.478, 576.058 10.957, 569.713 9.735, 568.307 3.294, 560.658 2.434, 559.637 -1.235, 555.137 " />
            <path fill="none" stroke-width="3.0" stroke-linecap="butt" stroke-opacity="1.0" stroke="rgb(255, 255, 255)" stroke-linejoin="round" d=" M 309.904, 768.795 305.099, 766.994 304.801, 766.882 303.829, 766.518 302.558, 766.010 302.479, 765.978 302.268, 765.894 302.105, 765.829 299.348, 764.726 291.194, 761.465 291.105, 761.429 287.522, 759.996 286.554, 759.571 283.142, 758.072 280.907, 757.089 279.680, 756.550 278.870, 756.194 278.565, 756.060 277.950, 755.790 277.761, 755.707 277.401, 755.549 277.385, 755.542 275.880, 754.881 274.046, 754.075 273.057, 753.640 271.356, 752.893 271.259, 752.850 270.853, 752.672 270.604, 752.563 270.466, 752.502 270.221, 752.394 268.704, 751.728 268.592, 751.678 268.156, 751.487 268.076, 751.448 266.812, 750.833 266.755, 750.805 265.844, 750.361 264.812, 749.859 264.223, 749.572 264.216, 749.568 264.041, 749.483 262.594, 748.778 262.221, 748.597 260.843, 747.926 260.790, 747.900 260.445, 747.732 260.414, 747.717 260.108, 747.568 259.041, 747.048 258.976, 747.017 258.793, 746.928 258.336, 746.705 258.192, 746.635 256.421, 745.773 256.224, 745.677 256.203, 745.667 255.906, 745.522 253.994, 744.591 253.716, 744.456 246.725, 741.052 246.680, 741.030 245.286, 740.351 243.986, 739.654 243.925, 739.622 235.111, 734.898 226.297, 730.175 219.876, 726.734 219.068, 726.301 219.043, 726.288 218.689, 726.098 217.870, 725.623 217.870, 725.623 214.266, 723.532 210.940, 721.601 210.678, 721.450 210.678, 721.450 202.029, 716.431 193.380, 711.411 188.929, 708.829 180.407, 703.597 171.998, 698.434 169.743, 697.049 168.110, 696.047 165.504, 694.447 164.912, 694.084 164.912, 694.084 164.756, 693.988 164.455, 693.803 163.494, 693.213 162.403, 692.543 162.001, 692.296 161.800, 692.173 161.303, 691.868 161.052, 691.714 158.736, 690.292 158.655, 690.242 157.952, 689.789 156.588, 688.911 156.026, 688.549 155.839, 688.429 155.522, 688.225 155.522, 688.225 155.466, 688.189 155.456, 688.182 155.210, 688.024 155.054, 687.923 154.489, 687.560 153.620, 687.000 152.055, 685.992 151.746, 685.794 148.915, 683.971 148.773, 683.879 148.588, 683.760 145.754, 681.936 145.677, 681.886 145.579, 681.823 142.539, 679.865 142.176, 679.632 140.080, 678.282 139.296, 677.777 139.089, 677.644 138.319, 677.148 138.165, 677.049 137.921, 676.892 137.570, 676.666 136.358, 675.886 136.297, 675.846 136.182, 675.773 135.528, 675.351 133.199, 673.852 132.410, 673.344 132.272, 673.255 131.962, 673.055 131.356, 672.665 130.513, 672.122 129.484, 671.424 128.092, 670.480 128.070, 670.465 123.757, 667.540 115.481, 661.927 107.205, 656.314 106.579, 655.890 105.783, 655.311 " />
            <path fill="none" stroke-width="3.0" stroke-linecap="butt" stroke-opacity="1.0" stroke="rgb(255, 255, 255)" stroke-linejoin="round" d=" M 478.303, 296.161 468.412, 297.629 458.520, 299.097 448.628, 300.565 438.737, 302.033 428.845, 303.501 418.953, 304.969 409.062, 306.437 407.758, 306.630 397.912, 308.380 388.066, 310.130 378.221, 311.880 368.375, 313.630 358.529, 315.380 348.684, 317.130 338.838, 318.880 328.992, 320.630 325.773, 321.202 315.993, 323.292 306.214, 325.381 296.435, 327.470 286.655, 329.559 276.876, 331.649 267.097, 333.738 257.317, 335.827 247.538, 337.917 237.759, 340.006 227.980, 342.095 218.200, 344.185 210.729, 345.781 201.063, 348.346 191.398, 350.911 181.732, 353.475 172.067, 356.040 162.402, 358.605 152.736, 361.170 143.071, 363.735 133.405, 366.300 122.925, 369.081 113.281, 371.728 103.638, 374.375 100.219, 375.313 99.694, 375.457 " />
            <path fill="none" stroke-width="3.0" stroke-linecap="butt" stroke-opacity="1.0" stroke="rgb(255, 255, 255)" stroke-linejoin="round" d=" M 99.518, 373.725 100.043, 373.581 109.686, 370.932 119.329, 368.282 122.730, 367.348 132.395, 364.780 142.060, 362.213 151.725, 359.646 161.390, 357.079 171.054, 354.511 180.719, 351.944 190.384, 349.377 200.049, 346.810 210.562, 344.017 220.343, 341.935 230.124, 339.853 239.904, 337.771 249.685, 335.689 259.466, 333.607 269.247, 331.525 279.028, 329.443 288.809, 327.361 298.590, 325.279 308.370, 323.197 318.151, 321.114 325.653, 319.518 335.501, 317.781 345.349, 316.044 355.197, 314.308 365.045, 312.571 374.893, 310.834 384.741, 309.098 394.589, 307.361 404.437, 305.624 407.699, 305.049 417.589, 303.572 427.480, 302.095 437.370, 300.618 447.260, 299.141 457.151, 297.664 467.041, 296.188 476.931, 294.711 478.283, 294.509 488.257, 293.779 498.230, 293.049 508.203, 292.319 518.177, 291.589 528.150, 290.859 538.123, 290.129 544.907, 289.633 552.522, 289.740 " />
            <path fill="none" stroke-width="3.0" stroke-linecap="butt" stroke-opacity="1.0" stroke="rgb(255, 255, 255)" stroke-linejoin="round" d=" M 94.777, 373.975 94.977, 373.606 97.367, 373.656 99.518, 373.725 99.606, 374.592 99.694, 375.457 100.758, 375.401 110.748, 374.970 115.798, 374.752 125.591, 376.773 129.735, 377.627 132.247, 378.146 142.041, 380.167 148.137, 381.424 153.220, 383.086 162.724, 386.194 167.676, 387.813 167.859, 387.873 168.258, 388.003 169.856, 388.526 173.928, 389.857 183.433, 392.965 186.205, 393.872 195.474, 397.625 201.504, 400.067 208.737, 402.997 211.752, 404.218 216.978, 406.335 217.252, 406.445 217.487, 406.541 217.895, 406.706 218.724, 407.042 218.975, 407.143 228.243, 410.897 229.486, 411.400 231.062, 412.038 239.583, 415.489 248.222, 420.526 256.860, 425.563 265.499, 430.600 269.632, 433.010 273.558, 435.299 273.704, 435.384 279.887, 438.989 288.526, 444.026 297.165, 449.063 304.939, 453.596 309.422, 456.502 312.142, 458.265 312.384, 458.422 312.521, 458.511 313.054, 458.856 315.609, 460.513 324.000, 465.952 332.392, 471.391 340.783, 476.831 345.706, 480.022 346.426, 480.489 348.040, 481.535 356.431, 486.974 364.822, 492.413 365.286, 492.714 365.671, 492.963 367.649, 494.246 376.040, 499.685 379.532, 501.949 387.564, 507.906 395.595, 513.864 403.627, 519.822 407.750, 522.881 415.782, 528.839 421.106, 532.788 429.137, 538.746 435.860, 543.733 436.049, 543.873 441.478, 547.901 446.665, 551.748 446.865, 551.897 447.550, 552.405 447.752, 552.555 450.592, 554.662 453.249, 556.632 454.541, 557.591 454.622, 557.651 462.654, 563.609 470.685, 569.567 473.563, 571.702 475.917, 573.859 476.246, 574.161 476.698, 574.575 480.921, 578.446 481.069, 578.581 481.828, 579.277 489.200, 586.034 491.013, 587.695 491.215, 587.880 491.324, 587.981 492.142, 588.730 494.291, 590.700 495.769, 592.055 503.141, 598.812 503.543, 599.180 506.996, 602.345 508.172, 603.423 508.530, 603.751 508.726, 603.931 510.285, 605.359 512.651, 607.528 513.256, 608.083 518.142, 612.561 518.167, 612.584 518.832, 613.193 523.072, 617.079 524.370, 618.270 527.991, 621.588 529.849, 623.291 532.503, 625.742 " />
            <path fill="none" stroke-width="3.0" stroke-linecap="butt" stroke-opacity="1.0" stroke="rgb(255, 255, 255)" stroke-linejoin="round" d=" M 556.823, 289.375 546.824, 289.225 540.898, 289.137 530.925, 289.874 520.953, 290.612 510.980, 291.349 501.007, 292.087 491.034, 292.825 481.062, 293.562 474.280, 294.064 464.393, 295.560 454.505, 297.056 444.618, 298.552 434.730, 300.049 424.843, 301.545 414.955, 303.041 405.068, 304.537 404.022, 304.696 394.192, 306.531 384.362, 308.367 374.532, 310.203 364.702, 312.038 354.872, 313.874 345.042, 315.710 335.211, 317.546 325.381, 319.381 322.199, 319.976 312.421, 322.072 302.643, 324.168 292.866, 326.265 283.088, 328.361 273.310, 330.457 263.532, 332.554 253.755, 334.650 243.977, 336.747 234.199, 338.843 224.421, 340.939 214.643, 343.036 206.684, 344.742 196.997, 347.227 187.311, 349.711 177.624, 352.196 167.938, 354.681 158.252, 357.165 148.565, 359.650 138.879, 362.134 129.192, 364.619 118.645, 367.324 108.980, 369.890 99.315, 372.455 95.502, 373.467 94.977, 373.606 " />
            <path fill="none" stroke-width="3.0" stroke-linecap="butt" stroke-opacity="1.0" stroke="rgb(255, 255, 255)" stroke-linejoin="round" d=" M 1036.745, 350.112 1027.139, 347.333 1017.533, 344.555 1007.927, 341.776 1006.220, 341.282 996.511, 338.889 986.801, 336.495 984.581, 335.948 974.767, 334.027 964.953, 332.106 955.139, 330.186 945.325, 328.265 935.512, 326.344 925.698, 324.423 915.884, 322.502 906.070, 320.582 899.993, 319.392 890.127, 317.763 880.260, 316.133 870.394, 314.504 860.528, 312.874 850.661, 311.245 840.795, 309.615 834.346, 308.550 824.445, 307.143 814.545, 305.735 804.644, 304.328 794.744, 302.921 784.843, 301.514 774.943, 300.106 768.116, 299.136 758.153, 298.278 748.190, 297.420 738.226, 296.562 728.263, 295.704 718.300, 294.846 708.420, 293.995 698.439, 293.373 688.458, 292.751 678.478, 292.128 668.497, 291.506 660.275, 290.993 650.285, 290.526 640.296, 290.059 630.307, 289.591 620.318, 289.124 616.780, 288.958 606.782, 288.787 596.783, 288.616 586.784, 288.444 576.786, 288.273 570.960, 288.173 560.996, 289.020 556.823, 289.375 552.522, 289.740 542.558, 290.587 532.594, 291.435 522.630, 292.282 512.666, 293.129 503.056, 293.946 493.096, 294.839 483.136, 295.732 478.925, 296.110 478.303, 296.161 " />
            <path fill="none" stroke-width="3.0" stroke-linecap="butt" stroke-opacity="1.0" stroke="rgb(255, 255, 255)" stroke-linejoin="round" d=" M 1025.737, 351.228 1023.759, 351.428 1022.427, 351.564 1020.975, 351.711 1019.741, 351.836 1012.889, 352.531 1010.506, 353.242 1010.007, 353.391 1000.424, 356.250 990.857, 359.105 981.274, 361.965 971.692, 364.824 962.109, 367.684 959.159, 368.564 950.091, 372.780 941.023, 376.997 931.956, 381.213 926.066, 383.951 916.998, 388.167 907.930, 392.384 904.167, 394.134 903.889, 394.263 900.906, 395.650 900.662, 395.763 899.305, 396.394 899.145, 396.469 898.499, 396.769 897.870, 397.061 897.732, 397.134 897.519, 397.246 897.251, 397.386 896.309, 397.879 896.244, 397.913 895.567, 398.268 893.762, 399.213 893.581, 399.308 892.387, 399.934 891.810, 400.236 891.180, 400.566 890.904, 400.711 890.011, 401.178 889.729, 401.326 888.315, 402.066 887.940, 402.263 887.932, 402.267 887.226, 402.637 887.118, 402.694 887.085, 402.711 887.083, 402.712 886.747, 402.888 886.554, 402.989 885.052, 403.776 885.052, 403.776 884.214, 404.215 884.214, 404.215 881.492, 405.641 881.313, 405.734 881.305, 405.739 880.245, 406.294 879.253, 406.814 879.127, 406.880 878.617, 407.147 878.330, 407.297 878.160, 407.386 877.616, 407.671 876.539, 408.235 876.042, 408.496 874.828, 409.132 872.961, 410.110 872.895, 410.144 872.215, 410.501 872.185, 410.516 867.919, 412.751 866.460, 413.515 866.453, 413.519 865.665, 413.932 865.658, 413.935 864.930, 414.316 864.922, 414.321 862.115, 415.791 861.847, 415.931 861.695, 416.011 860.884, 416.436 858.495, 417.687 858.407, 417.734 858.358, 417.759 856.740, 418.607 855.705, 419.149 854.218, 419.928 854.154, 419.962 853.868, 420.112 852.875, 420.632 852.633, 420.758 852.049, 421.064 852.034, 421.072 851.672, 421.262 851.051, 421.587 850.994, 421.617 850.600, 421.823 850.291, 421.985 844.968, 424.774 844.907, 424.805 844.078, 425.240 844.011, 425.275 843.705, 425.435 843.007, 425.801 842.956, 425.827 842.758, 425.931 842.334, 426.153 842.142, 426.254 837.786, 428.536 837.275, 428.803 836.530, 429.194 836.487, 429.216 836.226, 429.353 835.224, 429.878 826.366, 434.518 825.824, 434.802 824.253, 435.624 823.745, 435.891 823.717, 435.905 823.712, 435.908 823.710, 435.909 823.709, 435.909 823.709, 435.910 823.709, 435.910 823.709, 435.910 823.473, 436.034 823.409, 436.067 823.399, 436.072 823.381, 436.081 820.903, 437.379 820.607, 437.535 820.541, 437.569 820.316, 437.687 820.297, 437.697 820.201, 437.747 820.142, 437.778 819.975, 437.866 819.802, 437.956 819.664, 438.029 819.243, 438.249 818.586, 438.593 818.482, 438.648 817.138, 439.450 817.126, 439.457 816.971, 439.550 816.941, 439.568 816.779, 439.665 815.719, 440.298 815.305, 440.545 813.133, 441.841 812.052, 442.486 811.995, 442.521 811.860, 442.601 811.616, 442.747 809.082, 444.260 808.748, 444.459 808.624, 444.533 808.302, 444.725 808.274, 444.742 808.128, 444.829 808.067, 444.866 808.019, 444.894 807.784, 445.034 806.159, 446.005 805.188, 446.585 804.899, 446.757 796.312, 451.883 790.622, 455.281 790.450, 455.383 789.447, 455.982 787.401, 457.203 786.867, 457.522 786.702, 457.621 784.358, 459.020 784.104, 459.172 784.054, 459.202 783.206, 459.708 783.026, 459.816 782.883, 459.901 782.317, 460.239 781.624, 460.652 781.424, 460.772 781.200, 460.906 780.860, 461.109 780.619, 461.252 780.493, 461.328 780.139, 461.539 779.671, 461.819 777.038, 463.390 775.739, 464.166 775.559, 464.273 775.205, 464.485 773.140, 465.718 771.332, 466.797 770.561, 467.257 770.530, 467.276 770.208, 467.468 770.083, 467.543 770.034, 467.572 769.853, 467.680 769.233, 468.050 768.753, 468.337 768.438, 468.524 767.988, 468.793 767.745, 468.938 765.593, 470.223 764.978, 470.590 764.601, 470.815 764.001, 471.174 762.459, 472.094 762.303, 472.187 761.579, 472.620 761.568, 472.626 760.698, 473.146 760.330, 473.365 759.632, 473.782 756.448, 475.683 755.744, 476.103 754.097, 477.086 753.407, 477.498 752.107, 478.274 751.983, 478.348 751.393, 478.701 751.279, 478.769 751.126, 478.860 751.031, 478.917 751.012, 478.928 750.336, 479.332 750.314, 479.345 750.127, 479.457 749.801, 479.651 749.570, 479.789 749.516, 479.821 749.119, 480.059 747.701, 480.905 747.269, 481.163 746.574, 481.578 745.226, 482.382 745.145, 482.431 744.699, 482.697 744.489, 482.822 744.477, 482.830 744.332, 482.916 742.825, 483.816 742.198, 484.190 742.109, 484.244 741.471, 484.625 739.937, 485.540 739.660, 485.705 739.620, 485.729 739.457, 485.827 739.251, 485.950 738.910, 486.153 738.612, 486.331 737.363, 487.077 737.103, 487.232 737.060, 487.258 736.872, 487.370 736.860, 487.377 736.631, 487.514 736.092, 487.836 735.915, 487.941 735.819, 487.998 735.500, 488.189 735.270, 488.326 734.803, 488.605 734.189, 488.972 733.720, 489.252 733.542, 489.358 732.781, 489.812 732.192, 490.164 732.069, 490.238 731.719, 490.446 731.709, 490.452 730.852, 490.964 730.621, 491.102 730.550, 491.144 730.462, 491.197 730.462, 491.197 729.937, 491.510 729.835, 491.571 729.674, 491.667 728.865, 492.150 728.784, 492.199 728.559, 492.333 728.540, 492.344 727.237, 493.122 726.944, 493.297 726.436, 493.600 726.322, 493.668 725.516, 494.149 724.812, 494.570 724.144, 494.969 723.849, 495.145 723.374, 495.428 723.096, 495.594 722.787, 495.779 722.641, 495.866 722.477, 495.964 722.477, 495.964 722.175, 496.144 721.213, 496.719 721.134, 496.766 721.112, 496.779 721.112, 496.779 719.468, 497.761 718.570, 498.296 713.800, 501.144 713.212, 501.495 712.868, 501.701 711.379, 502.589 711.073, 502.772 710.733, 502.975 710.098, 503.355 710.097, 503.355 709.853, 503.501 707.627, 504.829 707.627, 504.829 707.215, 505.076 706.988, 505.211 706.600, 505.443 706.360, 505.586 705.942, 505.836 705.926, 505.845 705.896, 505.863 705.769, 505.939 705.715, 505.971 705.674, 505.996 705.672, 505.997 705.667, 506.000 705.663, 506.002 704.584, 506.646 704.393, 506.760 704.393, 506.760 704.354, 506.784 704.044, 506.969 703.914, 507.046 703.914, 507.046 703.812, 507.107 703.700, 507.174 703.228, 507.456 702.200, 508.070 701.987, 508.197 701.422, 508.534 701.393, 508.551 701.056, 508.753 701.033, 508.766 701.033, 508.766 700.830, 508.888 700.830, 508.888 700.829, 508.888 700.829, 508.888 700.829, 508.888 700.772, 508.922 700.543, 509.059 699.574, 509.638 698.621, 510.206 698.490, 510.285 698.415, 510.329 698.415, 510.330 698.412, 510.331 696.599, 511.413 696.580, 511.425 696.580, 511.425 696.564, 511.435 696.291, 511.598 696.291, 511.598 696.010, 511.765 695.432, 512.110 695.432, 512.110 695.143, 512.283 688.882, 516.020 688.312, 516.361 688.085, 516.497 687.191, 517.120 687.191, 517.120 687.122, 517.168 686.641, 517.504 685.907, 518.016 685.005, 518.645 683.434, 519.741 682.512, 520.384 680.531, 521.766 680.141, 522.038 679.767, 522.299 679.485, 522.496 678.761, 523.001 677.848, 523.638 676.097, 524.859 675.166, 525.508 673.905, 526.388 673.786, 526.471 673.001, 527.019 672.868, 527.111 672.857, 527.119 672.857, 527.119 672.531, 527.347 671.477, 528.082 670.563, 528.720 668.902, 529.878 668.822, 529.934 668.545, 530.127 668.262, 530.324 668.016, 530.496 666.897, 531.277 666.166, 531.786 666.056, 531.863 665.993, 531.908 665.908, 531.967 664.933, 532.647 664.783, 532.752 664.355, 533.050 664.355, 533.050 664.218, 533.146 663.971, 533.318 663.866, 533.391 663.234, 533.832 662.251, 534.518 661.288, 535.189 660.761, 535.557 659.954, 536.120 659.428, 536.487 659.337, 536.551 659.255, 536.607 657.676, 537.709 657.663, 537.718 656.669, 538.411 656.577, 538.476 653.003, 540.969 652.690, 541.187 652.532, 541.298 646.988, 545.165 646.649, 545.401 646.268, 545.667 644.578, 546.846 641.063, 549.298 640.814, 549.472 640.433, 549.738 640.264, 549.855 632.063, 555.577 623.861, 561.298 622.787, 562.047 614.586, 567.768 610.453, 570.651 610.434, 570.664 610.040, 570.939 605.305, 574.242 597.103, 579.964 588.901, 585.685 580.700, 591.406 575.410, 595.096 569.700, 599.079 561.559, 604.886 554.025, 610.258 546.096, 615.913 539.387, 620.697 535.649, 623.363 534.918, 623.885 534.842, 623.939 534.605, 625.703 534.448, 626.880 " />
            <path fill="none" stroke-width="3.0" stroke-linecap="butt" stroke-opacity="1.0" stroke="rgb(255, 255, 255)" stroke-linejoin="round" d=" M 534.842, 623.939 536.605, 625.870 540.140, 629.740 546.036, 636.349 546.351, 637.733 547.279, 641.808 549.499, 651.559 551.719, 661.309 553.939, 671.060 555.416, 677.545 558.894, 686.921 562.372, 696.296 565.850, 705.672 569.328, 715.047 572.960, 724.835 " />
            <path fill="none" stroke-width="3.0" stroke-linecap="butt" stroke-opacity="1.0" stroke="rgb(255, 255, 255)" stroke-linejoin="round" d=" M 1038.734, 376.271 1029.657, 380.467 1020.580, 384.663 1011.503, 388.859 1002.426, 393.055 1000.018, 394.168 996.156, 396.613 987.707, 401.962 979.258, 407.311 977.326, 408.534 976.988, 408.748 976.969, 408.760 976.395, 409.123 976.135, 409.288 976.103, 409.308 975.881, 409.449 975.859, 409.462 973.247, 411.116 972.608, 411.521 972.277, 411.730 972.112, 411.835 971.730, 412.077 970.922, 412.588 970.853, 412.632 970.707, 412.724 970.652, 412.759 970.129, 413.090 970.090, 413.115 969.129, 413.723 968.850, 413.900 968.497, 414.123 968.391, 414.190 968.388, 414.192 968.251, 414.279 967.838, 414.540 967.818, 414.553 967.594, 414.695 967.339, 414.856 967.290, 414.888 967.212, 414.937 967.065, 415.030 967.029, 415.053 967.002, 415.069 966.933, 415.114 966.916, 415.124 966.901, 415.133 966.850, 415.166 966.306, 415.510 966.288, 415.522 966.252, 415.545 966.144, 415.613 965.750, 415.862 965.618, 415.946 965.123, 416.259 964.649, 416.560 963.970, 416.989 963.808, 417.092 961.958, 418.263 961.062, 418.830 960.765, 419.018 960.760, 419.021 959.999, 419.503 959.993, 419.507 959.920, 419.553 959.589, 419.763 956.702, 421.590 956.535, 421.696 956.354, 421.811 955.767, 422.182 955.313, 422.470 954.965, 422.690 954.802, 422.793 953.859, 423.390 953.517, 423.607 952.961, 423.959 952.861, 424.022 952.658, 424.150 951.437, 424.923 951.437, 424.923 950.680, 425.403 950.679, 425.403 949.867, 425.917 947.245, 427.577 947.176, 427.620 947.075, 427.685 946.744, 427.894 946.637, 427.962 945.631, 428.599 945.628, 428.601 945.233, 428.851 945.158, 428.898 945.151, 428.903 945.085, 428.945 945.052, 428.965 945.051, 428.966 944.931, 429.042 944.522, 429.301 944.452, 429.345 944.354, 429.407 944.353, 429.408 944.273, 429.459 942.105, 430.976 941.663, 431.285 941.156, 431.640 939.988, 432.457 939.547, 432.766 937.890, 433.926 937.890, 433.926 936.210, 435.101 935.521, 435.583 935.235, 435.784 933.718, 436.845 933.717, 436.846 933.156, 437.239 933.028, 437.329 933.027, 437.329 931.999, 438.048 930.390, 439.175 930.015, 439.437 929.849, 439.554 928.169, 440.729 927.867, 440.940 926.799, 441.688 926.005, 442.243 920.840, 445.858 920.298, 446.238 919.938, 446.490 911.745, 452.224 911.499, 452.396 910.424, 453.148 909.524, 453.778 909.494, 453.799 908.899, 454.215 908.215, 454.694 908.136, 454.749 904.788, 457.092 904.730, 457.133 904.503, 457.292 904.409, 457.358 904.405, 457.360 904.380, 457.378 903.993, 457.649 903.518, 457.981 903.272, 458.153 903.226, 458.186 902.426, 458.745 902.425, 458.746 902.364, 458.789 901.479, 459.408 900.237, 460.278 899.265, 460.958 898.388, 461.572 897.894, 461.918 896.526, 462.874 894.618, 464.210 893.832, 464.760 889.820, 467.568 889.023, 468.126 888.960, 468.170 888.935, 468.188 888.603, 468.420 888.577, 468.438 887.718, 469.039 883.990, 471.648 883.203, 472.199 880.413, 474.151 879.614, 474.711 879.532, 474.768 879.237, 474.975 879.210, 474.993 878.350, 475.595 874.179, 478.514 873.307, 479.125 873.281, 479.143 872.915, 479.399 872.889, 479.417 872.018, 480.027 870.734, 480.925 869.360, 481.989 869.166, 482.139 869.166, 482.139 868.449, 482.695 868.438, 482.703 868.339, 482.779 867.682, 483.288 866.825, 483.951 866.548, 484.166 866.238, 484.406 865.963, 484.619 864.651, 485.635 858.604, 490.316 856.906, 491.631 856.578, 491.884 853.765, 494.062 849.098, 497.675 848.549, 498.100 846.454, 499.723 846.164, 499.946 844.386, 501.323 843.500, 502.009 843.380, 502.102 843.372, 502.108 843.254, 502.200 842.110, 503.085 840.912, 504.012 833.005, 510.134 825.097, 516.256 817.190, 522.377 816.907, 522.597 811.205, 527.011 810.598, 527.481 804.798, 531.970 802.266, 533.931 801.393, 534.607 801.001, 534.911 793.169, 540.974 792.265, 541.673 792.106, 541.796 792.083, 541.814 791.797, 542.035 788.753, 544.393 787.208, 545.588 784.805, 547.449 784.798, 547.454 783.016, 548.834 783.015, 548.835 777.766, 552.898 777.639, 552.996 773.317, 556.342 770.737, 558.340 769.738, 559.113 768.829, 559.816 768.566, 560.020 766.952, 561.270 766.933, 561.285 766.589, 561.551 758.681, 567.673 750.774, 573.794 747.489, 576.338 746.808, 576.865 743.356, 579.537 740.509, 581.741 735.858, 585.865 735.336, 586.328 734.925, 586.692 729.954, 591.099 722.472, 597.733 718.554, 601.206 712.720, 606.379 706.638, 611.771 699.155, 618.405 691.673, 625.039 684.190, 631.673 676.708, 638.307 669.225, 644.941 667.651, 646.337 660.168, 652.971 652.685, 659.605 645.640, 665.852 644.737, 666.652 643.423, 667.817 635.940, 674.451 634.386, 675.829 628.511, 681.038 625.433, 683.767 622.716, 686.176 617.253, 691.019 609.945, 697.845 602.637, 704.671 595.329, 711.497 588.021, 718.323 580.713, 725.149 577.068, 728.554 576.226, 729.341 " />
            <path fill="none" stroke-width="3.0" stroke-linecap="butt" stroke-opacity="1.0" stroke="rgb(255, 255, 255)" stroke-linejoin="round" d=" M 574.629, 728.261 576.226, 729.341 576.005, 739.338 575.785, 749.336 575.714, 752.569 575.561, 759.504 575.341, 769.502 575.121, 779.499 575.016, 784.274 " />
            <path fill="none" stroke-width="3.0" stroke-linecap="butt" stroke-opacity="1.0" stroke="rgb(255, 255, 255)" stroke-linejoin="round" d=" M 613.148, 687.402 605.830, 694.218 598.513, 701.034 591.195, 707.850 583.878, 714.665 576.560, 721.481 573.795, 724.057 572.960, 724.835 571.386, 723.776 " />
            <path fill="none" stroke-width="3.0" stroke-linecap="butt" stroke-opacity="1.0" stroke="rgb(255, 255, 255)" stroke-linejoin="round" d=" M 575.689, 789.111 581.610, 781.053 587.531, 772.994 593.379, 765.035 599.300, 756.977 605.221, 748.918 611.141, 740.859 617.062, 732.800 618.599, 730.710 625.682, 723.651 632.765, 716.592 635.750, 713.617 642.834, 706.558 649.917, 699.499 657.000, 692.440 664.083, 685.381 671.167, 678.323 678.250, 671.264 685.333, 664.205 688.884, 660.666 691.137, 658.421 698.220, 651.362 705.303, 644.303 706.745, 642.866 708.585, 641.033 714.520, 635.118 721.603, 628.060 724.344, 625.329 725.674, 624.003 732.757, 616.944 733.863, 615.842 735.355, 614.355 735.395, 614.315 735.923, 613.789 737.012, 612.704 737.419, 612.298 737.911, 611.807 741.328, 608.403 741.346, 608.385 745.177, 604.567 748.309, 601.949 748.466, 601.819 749.448, 600.997 749.460, 600.988 750.119, 600.437 750.756, 599.905 750.900, 599.784 751.318, 599.435 752.251, 598.656 754.251, 596.984 761.924, 590.572 765.149, 587.877 766.424, 586.812 766.706, 586.576 767.101, 586.246 767.420, 585.979 774.035, 580.451 774.220, 580.297 775.221, 579.460 776.640, 578.274 777.037, 577.942 777.968, 577.164 778.083, 577.068 778.434, 576.775 780.795, 574.802 782.813, 573.115 784.381, 571.805 784.503, 571.704 785.933, 570.508 790.145, 566.988 790.156, 566.979 790.500, 566.692 790.918, 566.343 791.763, 565.636 791.800, 565.606 793.049, 564.561 800.723, 558.149 808.400, 551.734 811.461, 549.175 811.532, 549.116 811.676, 548.996 811.891, 548.816 811.897, 548.811 812.375, 548.412 812.415, 548.379 820.088, 541.966 820.737, 541.424 820.901, 541.287 821.095, 541.125 821.931, 540.426 824.422, 538.345 827.218, 536.008 828.849, 534.645 829.436, 534.155 835.008, 529.498 842.682, 523.086 845.192, 520.988 847.477, 519.078 847.858, 518.760 848.058, 518.593 850.836, 516.271 851.749, 515.508 853.289, 514.221 860.029, 508.589 862.239, 506.742 862.684, 506.370 863.357, 505.807 863.566, 505.633 864.093, 505.192 864.859, 504.553 868.525, 501.489 869.057, 501.044 871.397, 499.089 874.980, 496.095 882.405, 490.516 886.245, 487.632 886.346, 487.556 886.488, 487.449 886.612, 487.356 886.945, 487.106 886.967, 487.089 887.776, 486.482 887.776, 486.482 887.966, 486.339 887.977, 486.330 888.072, 486.259 888.893, 485.642 888.919, 485.623 889.211, 485.404 889.237, 485.384 890.055, 484.769 893.089, 482.490 893.851, 481.918 896.850, 479.665 897.661, 479.055 897.687, 479.036 897.948, 478.840 897.974, 478.820 898.789, 478.208 902.667, 475.295 903.485, 474.680 903.510, 474.661 903.845, 474.409 903.870, 474.390 904.686, 473.778 905.734, 472.990 906.371, 472.512 906.566, 472.365 908.065, 471.239 908.824, 470.669 911.565, 468.609 912.135, 468.181 912.404, 467.980 912.434, 467.957 912.736, 467.730 912.761, 467.711 913.576, 467.098 915.956, 465.311 915.994, 465.282 916.934, 464.576 917.623, 464.059 918.101, 463.699 918.444, 463.442 918.468, 463.424 918.810, 463.166 918.834, 463.149 919.615, 462.562 919.654, 462.533 920.439, 461.943 920.484, 461.909 921.288, 461.305 921.828, 460.899 922.218, 460.606 925.025, 458.497 925.101, 458.441 925.525, 458.122 925.759, 457.946 927.361, 456.743 927.497, 456.641 934.835, 451.128 935.183, 450.866 935.844, 450.370 936.033, 450.228 942.121, 445.654 942.797, 445.146 943.854, 444.352 944.153, 444.127 944.226, 444.072 945.713, 442.955 945.896, 442.818 946.252, 442.550 947.168, 441.862 947.190, 441.846 947.284, 441.775 947.458, 441.644 947.483, 441.626 947.768, 441.411 947.799, 441.391 947.820, 441.378 947.825, 441.374 948.189, 441.136 948.299, 441.064 948.572, 440.886 949.012, 440.598 949.293, 440.414 949.621, 440.200 949.716, 440.138 952.423, 438.368 953.071, 437.944 953.250, 437.827 953.456, 437.692 953.666, 437.555 953.771, 437.486 953.988, 437.344 954.072, 437.289 954.098, 437.272 954.147, 437.240 954.169, 437.226 954.262, 437.165 954.582, 436.956 955.210, 436.545 955.718, 436.213 955.741, 436.198 955.876, 436.109 956.114, 435.954 956.246, 435.868 957.522, 435.033 957.592, 434.988 958.479, 434.407 960.298, 433.218 961.048, 432.728 961.048, 432.728 961.459, 432.459 961.673, 432.319 961.777, 432.251 961.777, 432.251 961.787, 432.244 963.103, 431.384 964.478, 430.484 964.575, 430.421 966.447, 429.197 966.472, 429.181 966.779, 428.980 966.786, 428.975 967.361, 428.600 967.362, 428.599 968.695, 427.727 969.777, 427.019 969.947, 426.908 970.703, 426.414 971.033, 426.198 971.073, 426.172 971.465, 425.915 972.026, 425.549 972.929, 424.959 973.008, 424.907 973.104, 424.844 973.475, 424.601 973.554, 424.549 974.215, 424.117 974.238, 424.102 974.379, 424.010 975.146, 423.509 975.277, 423.423 975.358, 423.370 975.405, 423.340 975.548, 423.246 975.560, 423.238 975.607, 423.207 975.696, 423.149 975.725, 423.130 975.816, 423.071 975.962, 422.975 976.608, 422.552 976.768, 422.448 977.960, 421.668 977.960, 421.668 978.709, 421.179 978.709, 421.179 979.388, 420.735 980.253, 420.169 980.523, 419.992 980.524, 419.992 980.824, 419.796 981.186, 419.559 981.279, 419.498 981.282, 419.496 981.794, 419.161 982.324, 418.815 982.417, 418.754 982.877, 418.453 982.915, 418.428 983.672, 417.934 983.871, 417.803 983.901, 417.784 983.971, 417.738 985.538, 416.713 986.365, 416.173 987.120, 415.679 987.230, 415.607 987.849, 415.202 988.046, 415.073 988.567, 414.733 989.273, 414.271 989.827, 413.909 991.487, 412.823 992.129, 412.403 992.386, 412.235 992.975, 411.850 996.595, 409.483 996.850, 409.316 997.848, 408.663 998.232, 408.413 1003.164, 405.187 1003.961, 404.771 1004.353, 404.566 1004.687, 404.392 1006.520, 403.434 1013.127, 399.982 1021.990, 395.351 1030.853, 390.720 1031.982, 390.129 " />
            <path fill="none" stroke-width="3.0" stroke-linecap="butt" stroke-opacity="1.0" stroke="rgb(255, 255, 255)" stroke-linejoin="round" d=" M 530.732, 627.074 527.997, 624.548 525.999, 622.708 522.366, 619.360 516.855, 614.285 516.167, 613.651 516.118, 613.606 514.669, 612.270 511.280, 609.149 511.280, 609.149 510.667, 608.585 507.845, 605.985 507.342, 605.521 507.298, 605.481 506.236, 604.502 503.826, 602.282 502.417, 600.985 496.429, 595.468 495.832, 594.918 495.521, 594.632 492.333, 591.696 492.209, 591.582 491.397, 590.833 491.283, 590.729 491.082, 590.543 485.582, 585.477 479.822, 580.171 479.066, 579.474 478.916, 579.336 478.735, 579.169 474.688, 575.441 474.235, 575.025 473.907, 574.722 471.791, 572.773 463.774, 566.797 455.756, 560.820 454.769, 560.084 454.693, 560.027 453.401, 559.064 451.704, 557.800 450.704, 557.054 447.866, 554.938 447.663, 554.786 446.981, 554.279 446.779, 554.128 446.349, 553.807 441.598, 550.265 436.258, 546.285 434.154, 544.717 426.137, 538.740 420.587, 534.603 417.606, 532.381 411.226, 527.625 408.186, 525.359 400.168, 519.382 392.151, 513.405 384.133, 507.429 377.814, 502.718 369.435, 497.260 365.704, 494.830 365.684, 494.817 363.727, 493.542 363.342, 493.292 354.963, 487.834 346.576, 482.370 346.214, 482.135 344.606, 481.087 343.883, 480.616 335.504, 475.158 327.124, 469.701 318.745, 464.243 313.778, 461.007 311.230, 459.348 310.693, 458.998 310.550, 458.904 310.308, 458.747 310.023, 458.561 307.598, 456.982 303.566, 454.355 303.320, 454.195 294.693, 449.139 286.065, 444.083 279.814, 440.419 274.379, 437.234 273.640, 436.801 273.503, 436.721 272.762, 436.287 269.565, 434.413 260.938, 429.357 252.310, 424.301 243.683, 419.245 238.078, 415.960 230.333, 412.806 228.812, 412.187 219.551, 408.415 218.569, 408.015 218.296, 407.904 218.105, 407.826 218.055, 407.806 217.239, 407.474 216.846, 407.313 216.575, 407.203 216.302, 407.092 212.316, 405.469 211.107, 404.976 208.215, 403.799 208.082, 403.744 200.763, 400.764 191.502, 396.992 184.803, 394.264 175.304, 391.139 172.716, 390.287 168.612, 388.937 166.904, 388.375 166.619, 388.281 166.445, 388.224 165.734, 387.990 165.214, 387.819 155.715, 384.694 152.606, 383.671 152.219, 383.543 152.040, 383.484 151.102, 383.176 147.964, 382.143 146.817, 381.766 137.026, 379.733 131.085, 378.499 128.568, 377.977 118.777, 375.944 114.549, 375.066 104.559, 375.497 99.612, 375.711 99.555, 375.713 98.483, 375.763 98.398, 374.918 98.320, 374.144 98.313, 374.073 96.165, 374.003 94.777, 373.975 93.782, 373.955 93.359, 374.087 83.812, 377.063 74.265, 380.038 64.718, 383.014 62.733, 383.633 " />
            <path fill="none" stroke-width="3.0" stroke-linecap="butt" stroke-opacity="1.0" stroke="rgb(255, 255, 255)" stroke-linejoin="round" d=" M 5.638, 401.219 7.186, 400.763 7.448, 400.686 17.041, 397.863 26.679, 395.027 36.272, 392.205 37.818, 391.750 47.417, 388.945 57.015, 386.140 66.614, 383.336 76.212, 380.531 85.811, 377.726 93.300, 375.538 94.048, 375.319 94.533, 375.177 96.886, 374.490 97.888, 374.197 98.090, 374.138 98.313, 374.073 " />
            <path fill="none" stroke-width="3.0" stroke-linecap="butt" stroke-opacity="1.0" stroke="rgb(255, 255, 255)" stroke-linejoin="round" d=" M 98.483, 375.763 98.374, 375.795 98.058, 375.886 93.397, 377.239 92.932, 377.374 92.152, 377.600 82.548, 380.387 72.944, 383.174 63.340, 385.960 53.737, 388.747 44.133, 391.534 40.592, 392.561 " />
            <path fill="none" stroke-width="3.0" stroke-linecap="butt" stroke-opacity="1.0" stroke="rgb(255, 255, 255)" stroke-linejoin="round" d=" M 95.740, 374.126 94.994, 374.341 94.502, 374.482 94.416, 374.507 93.770, 374.693 93.301, 374.828 83.692, 377.596 74.082, 380.364 64.473, 383.131 62.733, 383.633 53.123, 386.401 43.514, 389.168 40.779, 389.956 31.369, 393.340 26.679, 395.027 " />
            <path fill="none" stroke-width="3.0" stroke-linecap="butt" stroke-opacity="1.0" stroke="rgb(255, 255, 255)" stroke-linejoin="round" d=" M 7.448, 400.686 5.340, 400.947 -0.699, 402.101 " />
            <path fill="none" stroke-width="3.0" stroke-linecap="butt" stroke-opacity="1.0" stroke="rgb(255, 255, 255)" stroke-linejoin="round" d=" M 99.132, 375.834 98.405, 376.042 93.244, 377.517 92.784, 377.648 92.001, 377.872 91.557, 377.998 81.942, 380.746 72.327, 383.493 62.712, 386.241 53.097, 388.988 43.482, 391.736 40.592, 392.561 37.641, 393.404 36.574, 393.709 " />
            <path fill="none" stroke-width="3.0" stroke-linecap="butt" stroke-opacity="1.0" stroke="rgb(255, 255, 255)" stroke-linejoin="round" d=" M 572.873, 786.870 573.098, 776.872 573.324, 766.875 573.427, 762.328 573.652, 752.330 573.679, 751.133 573.905, 741.136 574.130, 731.138 574.145, 730.496 571.008, 726.818 567.579, 717.424 564.149, 708.031 560.720, 698.637 557.291, 689.244 553.861, 679.850 553.502, 678.866 551.297, 669.112 549.092, 659.358 546.886, 649.605 544.793, 640.345 544.218, 637.801 541.803, 635.076 538.337, 631.167 535.303, 627.823 534.739, 627.202 534.448, 626.880 533.045, 625.334 532.503, 625.742 532.395, 625.823 531.211, 626.714 530.732, 627.074 529.584, 627.937 529.440, 628.046 527.009, 629.875 519.017, 635.886 511.026, 641.898 503.035, 647.909 495.043, 653.921 487.052, 659.932 479.061, 665.944 471.069, 671.955 463.966, 677.299 455.974, 683.310 447.983, 689.322 439.992, 695.333 434.306, 699.611 431.057, 702.050 427.990, 704.353 427.417, 704.784 427.238, 704.918 425.870, 705.945 425.395, 706.302 417.399, 712.307 409.402, 718.312 406.686, 720.351 406.680, 720.356 406.380, 720.581 406.325, 720.623 398.328, 726.628 390.332, 732.632 382.336, 738.637 375.902, 743.469 " />
            <path fill="none" stroke-width="3.0" stroke-linecap="butt" stroke-opacity="1.0" stroke="rgb(255, 255, 255)" stroke-linejoin="round" d=" M 31.241, 560.902 24.659, 553.374 20.014, 548.061 17.634, 545.339 11.051, 537.811 4.469, 530.282 -2.113, 522.754 -8.695, 515.226 -15.277, 507.697 -17.853, 504.751 " />
            <path fill="none" stroke-width="3.0" stroke-linecap="butt" stroke-opacity="1.0" stroke="rgb(255, 255, 255)" stroke-linejoin="round" d=" M 574.145, 730.496 573.195, 730.661 572.123, 730.847 562.270, 732.555 552.418, 734.264 550.296, 734.632 540.443, 736.341 530.590, 738.050 528.741, 738.370 526.543, 738.752 525.311, 738.965 525.269, 738.973 525.250, 738.976 525.123, 738.998 515.270, 740.707 507.058, 742.131 506.966, 742.147 506.695, 742.194 496.842, 743.903 486.989, 745.612 486.686, 745.664 486.209, 745.747 483.431, 746.229 481.988, 746.479 481.752, 746.520 479.414, 746.926 479.188, 746.965 469.335, 748.674 459.482, 750.382 452.866, 751.530 452.833, 751.536 452.250, 751.637 449.332, 752.143 439.346, 752.666 429.360, 753.189 419.373, 753.712 410.316, 754.187 410.039, 754.201 409.394, 754.235 405.354, 754.447 395.358, 754.176 387.239, 753.957 381.823, 753.067 380.781, 752.896 370.913, 751.276 367.727, 750.754 366.674, 750.581 364.115, 750.161 363.894, 750.104 363.238, 749.937 362.088, 749.643 361.008, 749.368 351.319, 746.895 348.201, 746.099 347.736, 745.980 347.015, 745.796 346.309, 745.616 346.020, 745.542 345.584, 745.431 345.567, 745.427 343.933, 745.009 334.706, 742.654 329.115, 740.369 324.870, 738.634 317.193, 735.497 314.327, 734.325 313.169, 733.852 310.384, 732.714 309.119, 732.197 308.144, 731.798 308.108, 731.784 307.219, 731.420 305.050, 730.534 305.030, 730.526 303.856, 730.046 303.372, 729.848 303.131, 729.749 301.750, 729.185 301.184, 728.954 300.962, 728.863 300.759, 728.780 300.272, 728.581 299.306, 728.186 298.222, 727.743 298.025, 727.663 297.124, 727.294 297.059, 727.268 291.439, 724.971 284.235, 722.026 279.882, 720.247 277.009, 719.073 274.495, 718.046 273.287, 717.552 272.641, 717.288 271.156, 716.681 271.153, 716.680 271.153, 716.680 270.308, 716.334 269.688, 716.081 269.243, 715.899 264.355, 713.901 262.428, 713.114 262.290, 713.057 256.264, 710.594 254.516, 709.880 254.089, 709.705 253.779, 709.579 253.201, 709.342 252.014, 708.857 251.727, 708.740 251.678, 708.720 251.603, 708.689 " />
            <path fill="none" stroke-width="3.0" stroke-linecap="butt" stroke-opacity="1.0" stroke="rgb(255, 255, 255)" stroke-linejoin="round" d=" M 571.008, 726.818 570.069, 726.952 569.293, 727.064 559.394, 728.481 549.495, 729.898 544.584, 730.601 534.685, 732.019 529.403, 732.775 526.552, 733.183 516.653, 734.600 508.779, 735.728 508.668, 735.744 508.385, 735.784 498.486, 737.201 496.531, 737.481 491.667, 738.178 481.768, 739.595 479.381, 739.937 476.059, 740.412 474.374, 740.653 472.546, 740.915 471.967, 740.998 462.124, 742.407 462.080, 742.414 461.529, 742.492 457.721, 743.038 " />
            <path fill="none" stroke-width="3.0" stroke-linecap="butt" stroke-opacity="1.0" stroke="rgb(255, 255, 255)" stroke-linejoin="round" d=" M -1.432, 551.638 0.800, 554.459 7.005, 562.301 12.482, 569.222 18.687, 577.064 19.409, 577.977 26.691, 584.830 33.973, 591.684 41.255, 598.537 48.537, 605.391 55.819, 612.244 63.101, 619.098 70.383, 625.951 75.301, 630.580 76.717, 631.912 79.528, 634.558 81.743, 636.643 87.077, 641.663 93.794, 647.985 102.327, 653.199 103.059, 653.646 105.783, 655.311 114.316, 660.526 122.849, 665.740 124.358, 666.662 126.501, 667.971 128.000, 668.887 129.917, 670.059 129.947, 670.077 131.338, 670.927 131.400, 670.965 134.116, 672.625 134.324, 672.752 134.373, 672.782 135.260, 673.324 137.760, 674.852 138.480, 675.292 138.554, 675.337 138.616, 675.375 141.458, 677.112 141.709, 677.265 142.356, 677.661 144.671, 679.075 145.007, 679.280 148.200, 681.232 148.257, 681.266 148.387, 681.346 151.405, 683.190 151.467, 683.228 151.594, 683.305 154.803, 685.267 154.965, 685.366 155.251, 685.540 155.806, 685.879 155.818, 685.887 157.361, 686.830 157.371, 686.836 157.521, 686.928 157.791, 687.092 158.464, 687.504 159.770, 688.302 159.770, 688.302 159.904, 688.384 161.158, 689.150 163.280, 690.447 164.347, 691.099 164.617, 691.264 166.929, 692.677 167.973, 693.314 168.625, 693.713 168.625, 693.713 177.158, 698.928 185.691, 704.142 194.224, 709.356 202.757, 714.571 206.649, 716.949 208.912, 718.332 208.912, 718.332 209.053, 718.418 212.790, 720.702 216.937, 723.236 216.937, 723.236 218.046, 723.914 218.254, 724.041 219.132, 724.577 227.665, 729.792 234.384, 733.898 243.609, 737.759 243.861, 737.865 243.964, 737.908 246.744, 739.072 246.802, 739.096 253.661, 741.967 253.976, 742.098 253.978, 742.100 253.994, 742.106 255.752, 742.842 256.138, 743.004 256.204, 743.031 256.375, 743.103 258.149, 743.845 258.239, 743.883 258.802, 744.119 259.860, 744.562 260.697, 744.912 260.764, 744.940 262.001, 745.458 262.480, 745.658 263.653, 746.149 263.934, 746.267 263.953, 746.275 264.600, 746.546 265.484, 746.916 266.422, 747.308 266.489, 747.336 267.526, 747.770 268.232, 748.066 270.288, 748.927 270.755, 749.122 272.437, 749.826 273.386, 750.223 273.661, 750.338 274.588, 750.726 275.326, 751.035 275.379, 751.057 275.380, 751.058 276.221, 751.410 276.278, 751.434 279.208, 752.660 280.081, 753.026 280.169, 753.063 281.058, 753.435 286.176, 755.577 286.269, 755.616 286.676, 755.786 288.198, 756.423 290.263, 757.288 294.006, 758.854 297.526, 760.328 297.709, 760.404 297.894, 760.482 297.983, 760.519 299.903, 761.323 304.974, 763.446 308.048, 764.732 311.706, 766.263 313.628, 767.068 313.844, 767.158 321.442, 769.561 " />
            <path fill="none" stroke-width="3.0" stroke-linecap="butt" stroke-opacity="1.0" stroke="rgb(255, 255, 255)" stroke-linejoin="round" d=" M 639.694, 787.715 645.501, 779.574 651.308, 771.433 657.115, 763.292 662.922, 755.151 668.729, 747.010 670.514, 744.508 675.764, 738.084 682.092, 730.341 688.420, 722.598 694.748, 714.855 699.898, 708.552 706.572, 701.105 713.067, 693.858 719.740, 686.410 726.414, 678.963 726.670, 678.677 727.916, 677.344 732.754, 672.170 738.821, 665.682 739.435, 665.026 739.946, 664.479 746.776, 657.174 749.961, 653.768 756.891, 646.559 763.821, 639.349 767.839, 635.169 768.304, 634.686 768.591, 634.387 770.615, 632.282 772.509, 630.312 779.455, 623.118 781.332, 621.174 782.417, 620.050 783.878, 618.538 790.824, 611.344 790.985, 611.177 791.173, 610.983 791.178, 610.978 793.546, 608.525 796.323, 605.649 803.029, 599.147 808.654, 593.692 811.222, 591.202 811.677, 590.761 815.493, 587.061 817.631, 584.987 819.587, 583.091 " />
            <path fill="none" stroke-width="3.0" stroke-linecap="butt" stroke-opacity="1.0" stroke="rgb(255, 255, 255)" stroke-linejoin="round" d=" M 639.270, 788.536 645.075, 780.393 650.879, 772.250 656.683, 764.107 662.488, 755.964 668.292, 747.821 669.842, 745.647 675.929, 738.185 682.251, 730.437 688.572, 722.688 694.894, 714.940 699.161, 709.709 702.353, 706.138 709.017, 698.683 713.096, 694.119 719.760, 686.663 725.944, 679.745 728.097, 677.438 732.727, 672.479 736.260, 668.693 738.799, 665.973 739.412, 665.316 739.924, 664.768 746.748, 657.458 749.245, 654.783 756.172, 647.570 763.099, 640.358 767.845, 635.415 768.311, 634.931 768.598, 634.632 770.782, 632.357 771.826, 631.270 778.770, 624.074 781.307, 621.446 782.393, 620.321 783.853, 618.808 784.933, 617.688 790.330, 612.096 791.134, 611.264 791.332, 611.058 791.572, 610.809 794.107, 608.182 795.712, 606.519 802.889, 599.555 803.006, 599.442 808.633, 593.982 811.134, 591.555 811.147, 591.543 815.649, 587.175 817.096, 585.771 819.055, 583.870 819.587, 583.091 819.563, 582.851 819.319, 580.388 819.050, 577.631 819.026, 577.387 819.014, 577.264 818.797, 575.032 818.750, 574.550 818.608, 573.111 818.129, 568.241 818.086, 567.819 817.417, 561.204 816.835, 555.539 816.748, 554.705 816.550, 552.815 816.438, 552.593 815.800, 551.326 814.802, 550.351 814.667, 550.218 813.966, 549.533 813.959, 549.526 813.833, 549.403 813.697, 549.311 813.119, 548.918 812.421, 548.443 " />
            <path fill="none" stroke-width="3.0" stroke-linecap="butt" stroke-opacity="1.0" stroke="rgb(255, 255, 255)" stroke-linejoin="round" d=" M 664.055, 683.857 671.176, 676.836 678.297, 669.815 682.877, 665.300 " />
            <path fill="none" stroke-width="3.0" stroke-linecap="butt" stroke-opacity="1.0" stroke="rgb(255, 255, 255)" stroke-linejoin="round" d=" M 765.149, 587.877 757.711, 594.562 754.773, 597.203 752.868, 598.915 751.979, 599.713 751.581, 600.071 751.443, 600.196 750.529, 601.017 750.163, 601.346 749.261, 602.156 749.107, 602.295 746.287, 604.829 742.107, 608.717 741.233, 609.530 737.970, 612.566 737.476, 613.025 737.066, 613.406 736.417, 614.009 735.864, 614.524 735.822, 614.564 734.258, 616.018 726.936, 622.829 725.674, 624.003 " />
            <path fill="none" stroke-width="3.0" stroke-linecap="butt" stroke-opacity="1.0" stroke="rgb(255, 255, 255)" stroke-linejoin="round" d=" M 724.344, 625.329 731.667, 618.519 734.325, 616.048 735.889, 614.593 735.932, 614.554 736.485, 614.039 737.073, 613.492 737.482, 613.112 737.976, 612.653 745.300, 605.843 746.950, 604.309 749.164, 602.320 749.319, 602.181 750.220, 601.370 750.573, 601.053 751.500, 600.220 751.639, 600.096 752.926, 598.939 760.365, 592.256 766.424, 586.812 " />
            <path fill="none" stroke-width="3.0" stroke-linecap="butt" stroke-opacity="1.0" stroke="rgb(255, 255, 255)" stroke-linejoin="round" d=" M 820.542, 582.165 822.477, 580.288 822.792, 579.983 823.326, 579.466 823.506, 579.291 823.714, 579.089 823.768, 579.037 824.654, 578.178 826.765, 576.131 828.200, 574.739 831.910, 571.142 831.911, 571.141 832.260, 570.820 832.538, 570.564 832.560, 570.544 834.979, 568.321 837.398, 566.098 840.716, 563.049 841.800, 562.053 843.771, 560.241 844.041, 559.993 844.060, 559.976 849.218, 555.236 850.703, 553.871 850.875, 553.713 852.535, 552.187 852.650, 552.082 852.869, 551.880 853.672, 551.142 855.263, 549.680 856.100, 548.911 857.502, 547.623 857.593, 547.539 864.956, 540.773 872.319, 534.006 879.682, 527.240 883.652, 523.591 888.312, 519.605 893.682, 515.011 894.539, 514.279 902.073, 507.835 909.673, 501.335 910.786, 500.383 911.375, 499.878 912.616, 498.817 916.202, 495.750 917.632, 494.527 918.133, 494.098 918.133, 494.098 918.320, 493.938 918.350, 493.913 921.012, 491.635 921.618, 491.117 921.732, 491.019 921.758, 490.997 921.783, 490.976 922.062, 490.737 922.086, 490.717 922.836, 490.076 923.092, 489.857 923.911, 489.156 924.727, 488.458 925.068, 488.166 926.294, 487.118 926.342, 487.077 927.097, 486.431 927.122, 486.410 927.356, 486.209 927.380, 486.188 928.135, 485.543 931.704, 482.490 932.472, 481.833 933.052, 481.337 934.121, 480.423 934.928, 479.733 935.508, 479.236 935.848, 478.981 936.615, 478.403 940.361, 475.584 941.200, 474.953 941.225, 474.934 941.550, 474.690 941.575, 474.671 942.414, 474.039 946.538, 470.935 947.364, 470.314 948.326, 469.590 948.717, 469.296 949.550, 468.669 949.595, 468.635 949.618, 468.618 950.134, 468.229 950.922, 467.637 954.169, 465.193 954.245, 465.136 954.918, 464.629 960.502, 460.427 962.141, 459.193 962.493, 458.928 963.117, 458.459 971.107, 452.446 971.503, 452.148 972.139, 451.669 973.239, 450.841 973.545, 450.611 975.096, 449.444 975.305, 449.286 975.666, 449.014 977.247, 447.825 977.619, 447.545 978.063, 447.211 978.183, 447.121 978.184, 447.120 978.345, 446.998 978.854, 446.616 978.856, 446.614 978.905, 446.577 979.367, 446.230 980.411, 445.509 980.689, 445.316 981.407, 444.820 983.170, 443.602 983.170, 443.602 984.124, 442.944 986.517, 441.291 986.906, 441.022 987.516, 440.600 989.733, 439.069 991.121, 438.111 991.121, 438.110 991.289, 437.995 991.683, 437.722 991.683, 437.722 993.216, 436.663 995.439, 435.128 995.445, 435.124 996.254, 434.565 996.276, 434.549 996.810, 434.180 997.623, 433.619 998.076, 433.306 998.664, 432.900 999.810, 432.108 1000.153, 431.871 1000.568, 431.585 1000.929, 431.335 1001.444, 430.979 1003.746, 429.389 1003.799, 429.353 1003.852, 429.316 1004.068, 429.168 1004.579, 428.818 1004.579, 428.818 1004.638, 428.777 1004.727, 428.716 1004.814, 428.657 1005.256, 428.354 1005.311, 428.316 1005.312, 428.315 1006.423, 427.553 1006.529, 427.481 1007.283, 426.964 1008.226, 426.318 1008.796, 425.926 1009.382, 425.524 1010.625, 424.672 1010.626, 424.672 1010.789, 424.560 1010.880, 424.497 1011.365, 424.165 1011.366, 424.164 1012.281, 423.536 1012.350, 423.489 1012.684, 423.261 1013.270, 422.876 1014.276, 422.215 1014.506, 422.063 1014.888, 421.812 1014.975, 421.755 1015.090, 421.679 1015.768, 421.234 1015.885, 421.157 " />
            <path fill="none" stroke-width="3.0" stroke-linecap="butt" stroke-opacity="1.0" stroke="rgb(255, 255, 255)" stroke-linejoin="round" d=" M 819.563, 582.851 820.011, 582.942 821.949, 581.062 822.766, 580.270 823.279, 579.771 823.700, 579.363 823.909, 579.161 823.962, 579.109 824.628, 578.463 826.957, 576.203 827.680, 575.502 828.690, 574.521 831.418, 571.874 831.773, 571.548 832.122, 571.227 832.400, 570.971 832.542, 570.841 835.449, 568.167 837.469, 566.310 840.935, 563.122 842.002, 562.140 843.988, 560.314 844.257, 560.066 844.276, 560.049 849.274, 555.452 849.921, 554.857 850.767, 554.080 850.771, 554.076 852.718, 552.285 852.746, 552.259 853.080, 551.952 853.568, 551.503 853.882, 551.214 855.117, 550.078 856.310, 548.982 857.161, 548.199 857.545, 547.846 857.569, 547.824 864.929, 541.054 872.290, 534.285 879.650, 527.516 883.307, 524.153 888.168, 519.991 893.911, 515.074 894.764, 514.343 901.749, 508.363 902.293, 507.897 908.622, 502.478 909.709, 501.548 911.031, 500.416 911.619, 499.912 912.829, 498.876 915.795, 496.336 916.413, 495.807 917.617, 494.776 917.775, 494.641 918.345, 494.153 918.345, 494.153 918.492, 494.027 918.532, 493.993 921.220, 491.691 921.626, 491.344 921.741, 491.246 921.966, 491.053 921.991, 491.032 922.270, 490.793 922.294, 490.772 923.044, 490.130 923.115, 490.070 923.920, 489.380 924.938, 488.508 925.279, 488.216 925.418, 488.097 925.615, 487.929 926.024, 487.578 926.064, 487.544 926.497, 487.173 926.547, 487.130 927.302, 486.484 927.326, 486.463 927.561, 486.263 927.585, 486.242 928.339, 485.596 931.900, 482.547 932.654, 481.902 933.395, 481.267 934.463, 480.353 935.128, 479.784 935.257, 479.673 936.009, 479.107 936.777, 478.528 940.604, 475.644 941.442, 475.013 941.467, 474.994 941.791, 474.749 941.816, 474.731 942.656, 474.098 946.748, 471.014 947.539, 470.419 948.763, 469.496 948.954, 469.352 949.786, 468.725 949.831, 468.691 950.052, 468.525 950.369, 468.286 951.157, 467.693 954.401, 465.248 954.477, 465.190 955.150, 464.683 960.585, 460.588 962.353, 459.256 962.705, 458.991 963.328, 458.521 963.582, 458.330 971.569, 452.312 971.721, 452.197 972.356, 451.718 973.455, 450.890 973.761, 450.660 973.836, 450.603 975.311, 449.492 975.520, 449.334 975.881, 449.062 976.829, 448.348 976.929, 448.272 977.132, 448.119 977.460, 447.872 977.694, 447.696 978.144, 447.357 978.395, 447.168 978.395, 447.167 978.558, 447.045 978.980, 446.727 979.065, 446.663 979.068, 446.661 979.133, 446.612 980.651, 445.562 980.929, 445.370 981.646, 444.874 983.407, 443.655 983.407, 443.655 984.355, 443.000 986.752, 441.342 987.136, 441.077 987.531, 440.804 987.750, 440.652 988.794, 439.930 989.964, 439.121 991.310, 438.190 991.310, 438.190 991.352, 438.161 991.871, 437.801 991.871, 437.801 993.404, 436.741 995.722, 435.138 995.733, 435.130 996.528, 434.581 996.564, 434.556 997.032, 434.232 997.725, 433.753 997.844, 433.671 998.300, 433.355 998.883, 432.952 999.319, 432.650 999.508, 432.520 1000.053, 432.143 1000.213, 432.032 1000.791, 431.632 1001.151, 431.383 1001.666, 431.027 1001.806, 430.930 1002.034, 430.773 1003.508, 429.753 1004.022, 429.400 1004.065, 429.370 1004.133, 429.324 1004.657, 428.964 1004.764, 428.891 1004.792, 428.872 1004.801, 428.866 1004.801, 428.865 1004.835, 428.842 1005.277, 428.539 1005.533, 428.363 1005.534, 428.362 1005.596, 428.319 1006.632, 427.608 1006.749, 427.528 1007.489, 427.020 1008.433, 426.372 1009.003, 425.980 1009.589, 425.578 1010.842, 424.718 1010.843, 424.717 1010.994, 424.614 1011.085, 424.551 1011.581, 424.210 1011.582, 424.210 1012.442, 423.619 1012.499, 423.582 1012.557, 423.543 1013.487, 422.932 1014.340, 422.371 1014.405, 422.328 1014.727, 422.116 1014.848, 422.036 1014.984, 421.947 1015.116, 421.860 1015.195, 421.808 1015.643, 421.514 1015.829, 421.240 1015.885, 421.157 1015.662, 420.736 1015.301, 420.054 1015.259, 419.975 1014.951, 419.394 1014.648, 418.821 1014.530, 418.598 1014.369, 418.293 1014.014, 417.623 1013.469, 416.597 1013.330, 416.334 1013.329, 416.334 1012.416, 414.613 1010.733, 411.458 1010.047, 410.174 1009.360, 408.889 1008.690, 407.637 1007.900, 406.956 1006.171, 406.105 1004.930, 405.667 1004.734, 405.598 1004.602, 405.551 1004.561, 405.576 1004.233, 405.766 1003.828, 406.001 1003.772, 406.034 1001.257, 407.495 999.560, 408.564 999.143, 408.826 998.136, 409.461 997.863, 409.632 993.993, 412.070 993.414, 412.435 993.149, 412.602 992.440, 413.049 991.911, 413.382 990.790, 414.098 990.225, 414.458 989.505, 414.918 988.968, 415.261 988.728, 415.415 988.103, 415.814 987.984, 415.890 987.221, 416.377 986.356, 416.929 984.783, 417.933 984.751, 417.954 984.681, 417.998 983.778, 418.575 983.742, 418.598 983.207, 418.940 983.203, 418.942 983.011, 419.065 982.569, 419.347 982.080, 419.660 982.076, 419.662 981.950, 419.742 981.583, 419.977 981.306, 420.154 981.306, 420.154 981.031, 420.330 980.119, 420.912 979.457, 421.334 979.457, 421.334 978.694, 421.822 978.693, 421.822 977.444, 422.620 976.768, 423.052 976.147, 423.448 976.044, 423.514 976.000, 423.542 975.909, 423.600 975.852, 423.637 975.800, 423.670 975.743, 423.706 975.731, 423.714 975.587, 423.806 975.469, 423.882 975.300, 423.989 974.557, 424.464 974.120, 424.743 973.813, 424.939 973.717, 425.000 973.693, 425.016 973.685, 425.021 973.605, 425.072 973.571, 425.093 973.512, 425.131 973.153, 425.360 972.651, 425.680 972.063, 426.056 971.632, 426.331 971.354, 426.509 971.290, 426.550 970.344, 427.154 970.335, 427.160 969.252, 427.851 967.795, 428.781 967.794, 428.782 967.211, 429.155 967.209, 429.156 966.673, 429.498 965.920, 430.020 965.893, 430.038 964.708, 430.859 964.613, 430.926 963.754, 431.521 962.556, 432.350 962.485, 432.400 962.484, 432.400 962.122, 432.651 961.943, 432.775 961.787, 432.883 961.787, 432.883 961.619, 432.999 960.999, 433.429 959.332, 434.584 958.478, 435.176 958.410, 435.223 957.300, 435.992 957.050, 436.165 956.918, 436.257 956.568, 436.499 956.509, 436.540 955.412, 437.300 955.104, 437.514 955.028, 437.566 955.013, 437.576 954.992, 437.591 954.945, 437.624 954.920, 437.641 954.630, 437.842 954.573, 437.881 954.325, 438.053 954.321, 438.056 954.000, 438.279 953.363, 438.720 951.131, 440.266 950.966, 440.380 950.473, 440.722 950.268, 440.864 949.756, 441.219 949.595, 441.331 949.473, 441.415 949.117, 441.661 949.117, 441.662 949.106, 441.669 948.772, 441.901 948.560, 442.047 948.428, 442.139 948.428, 442.139 948.246, 442.265 947.460, 442.809 947.081, 443.072 946.886, 443.207 945.302, 444.305 945.225, 444.358 944.905, 444.580 943.777, 445.361 943.061, 445.857 936.536, 450.378 936.335, 450.517 935.629, 451.007 935.260, 451.262 927.497, 456.641 " />
            <path fill="none" stroke-width="3.0" stroke-linecap="butt" stroke-opacity="1.0" stroke="rgb(255, 255, 255)" stroke-linejoin="round" d=" M 905.734, 472.990 904.706, 473.783 903.907, 474.399 903.882, 474.418 903.554, 474.671 903.529, 474.690 902.727, 475.309 898.925, 478.240 898.126, 478.856 898.100, 478.876 897.844, 479.073 897.819, 479.093 897.023, 479.706 894.005, 482.033 893.253, 482.613 890.365, 484.840 889.563, 485.458 889.537, 485.477 889.250, 485.699 889.224, 485.719 888.516, 486.264 888.420, 486.339 888.323, 486.414 888.125, 486.566 888.125, 486.566 887.528, 487.026 887.333, 487.177 887.223, 487.262 887.105, 487.352 886.966, 487.460 886.613, 487.732 882.845, 490.637 874.925, 496.743 871.751, 499.190 871.426, 499.441 869.485, 501.022 868.937, 501.469 865.120, 504.580 864.296, 505.252 863.771, 505.679 863.553, 505.856 862.867, 506.416 862.413, 506.786 860.092, 508.677 853.289, 514.221 850.862, 516.199 848.099, 518.451 " />
            <path fill="none" stroke-width="3.0" stroke-linecap="butt" stroke-opacity="1.0" stroke="rgb(255, 255, 255)" stroke-linejoin="round" d=" M 851.749, 515.508 859.501, 509.190 860.107, 508.697 862.443, 506.793 863.802, 505.686 864.324, 505.260 868.978, 501.467 869.526, 501.020 871.767, 499.194 871.841, 499.134 879.761, 493.029 882.858, 490.641 886.627, 487.735 886.990, 487.456 887.247, 487.258 888.140, 486.570 888.140, 486.570 888.337, 486.417 888.435, 486.342 888.540, 486.261 889.239, 485.722 889.265, 485.703 889.552, 485.481 889.578, 485.461 890.380, 484.843 893.263, 482.620 894.015, 482.041 897.038, 479.710 897.834, 479.096 897.860, 479.077 898.116, 478.880 898.141, 478.860 898.940, 478.244 902.743, 475.312 903.545, 474.694 903.570, 474.675 903.898, 474.422 903.923, 474.403 904.722, 473.786 906.374, 472.513 906.566, 472.365 " />
            <path fill="none" stroke-width="3.0" stroke-linecap="butt" stroke-opacity="1.0" stroke="rgb(255, 255, 255)" stroke-linejoin="round" d=" M 814.785, 548.608 816.701, 550.477 816.704, 550.480 816.751, 550.526 817.013, 551.043 817.185, 551.384 817.388, 551.786 817.502, 552.010 817.788, 554.724 817.826, 555.089 818.370, 560.366 819.026, 566.820 819.082, 567.374 819.689, 573.512 819.751, 574.137 819.760, 574.224 820.096, 577.667 820.107, 577.779 820.132, 578.034 820.273, 579.472 820.542, 582.165 820.011, 582.942 " />
            <path fill="none" stroke-width="3.0" stroke-linecap="butt" stroke-opacity="1.0" stroke="rgb(255, 255, 255)" stroke-linejoin="round" d=" M 1034.487, 389.470 1025.516, 393.889 1020.027, 396.592 1017.031, 398.332 1015.132, 399.435 1013.917, 400.141 1008.285, 403.413 1005.833, 404.836 1005.009, 405.315 1004.961, 405.348 1004.697, 405.527 1004.734, 405.598 " />
            <path fill="none" stroke-width="3.0" stroke-linecap="butt" stroke-opacity="1.0" stroke="rgb(255, 255, 255)" stroke-linejoin="round" d=" M 1005.009, 405.315 1006.575, 405.868 1008.303, 406.718 1009.092, 407.398 1009.760, 408.649 1010.456, 409.950 1011.131, 411.214 1012.811, 414.366 1013.657, 415.961 1013.919, 416.454 1013.926, 416.468 1014.057, 416.713 1014.406, 417.372 1014.904, 418.314 1014.970, 418.439 1015.540, 419.515 1015.649, 419.721 1016.251, 420.860 1016.273, 420.902 " />
            <path fill="none" stroke-width="3.0" stroke-linecap="butt" stroke-opacity="1.0" stroke="rgb(255, 255, 255)" stroke-linejoin="round" d=" M 1016.031, 421.258 1016.273, 420.902 1016.317, 420.873 1017.063, 420.383 1017.706, 419.961 1018.654, 419.337 1019.408, 418.842 1020.643, 418.031 1020.705, 417.990 1020.886, 417.871 1021.487, 417.476 1025.750, 414.675 " />
            <path fill="none" stroke-width="3.0" stroke-linecap="butt" stroke-opacity="1.0" stroke="rgb(255, 255, 255)" stroke-linejoin="round" d=" M 1015.829, 421.240 1016.029, 421.258 1016.031, 421.258 1016.544, 420.921 1016.820, 420.739 1017.250, 420.456 1017.933, 420.007 1018.526, 419.617 1018.870, 419.391 1019.165, 419.197 1020.869, 418.076 1020.922, 418.041 1021.111, 417.917 1021.556, 417.624 1023.864, 416.106 1025.816, 414.822 " />
            <path fill="none" stroke-width="3.0" stroke-linecap="butt" stroke-opacity="1.0" stroke="rgb(255, 255, 255)" stroke-linejoin="round" d=" M 804.151, 770.856 804.942, 760.887 805.021, 759.884 805.803, 750.016 806.028, 747.136 806.808, 737.167 807.588, 727.197 807.945, 722.636 808.713, 712.665 809.482, 702.695 809.817, 698.348 810.574, 688.377 811.332, 678.406 811.444, 676.937 811.533, 675.751 811.576, 675.171 811.607, 674.756 812.354, 664.784 812.846, 658.214 813.583, 648.241 813.703, 646.617 814.042, 642.031 814.769, 632.057 815.043, 628.305 815.055, 628.138 815.073, 627.881 815.109, 627.378 815.452, 622.618 815.508, 621.844 815.857, 616.983 816.371, 609.760 816.444, 608.733 816.494, 608.028 816.942, 601.485 817.140, 597.807 817.166, 593.638 817.045, 592.406 817.027, 592.220 816.974, 591.688 816.923, 591.207 816.721, 589.310 " />
            <path fill="none" stroke-width="3.0" stroke-linecap="butt" stroke-opacity="1.0" stroke="rgb(255, 255, 255)" stroke-linejoin="round" d=" M 815.649, 587.175 815.705, 587.217 815.977, 587.695 815.978, 587.697 816.721, 589.310 816.341, 588.335 815.978, 587.697 " />
            <path fill="none" stroke-width="3.0" stroke-linecap="butt" stroke-opacity="1.0" stroke="rgb(255, 255, 255)" stroke-linejoin="round" d=" M 37.641, 393.404 27.927, 395.776 19.250, 397.895 17.558, 398.308 8.200, 400.593 5.638, 401.219 " />
            <path fill="none" stroke-width="3.0" stroke-linecap="butt" stroke-opacity="1.0" stroke="rgb(255, 255, 255)" stroke-linejoin="round" d=" M 535.372, 626.750 536.186, 626.170 " />
            <path fill="none" stroke-width="3.0" stroke-linecap="butt" stroke-opacity="1.0" stroke="rgb(255, 255, 255)" stroke-linejoin="round" d=" M 574.134, 761.392 573.427, 762.328 " />
            <path fill="none" stroke-width="3.0" stroke-linecap="butt" stroke-opacity="1.0" stroke="rgb(255, 255, 255)" stroke-linejoin="round" d=" M 706.133, 642.567 698.894, 649.466 696.622, 651.631 " />
            <path fill="none" stroke-width="3.0" stroke-linecap="butt" stroke-opacity="1.0" stroke="rgb(255, 255, 255)" stroke-linejoin="round" d=" M 774.908, 579.337 773.930, 580.183 " />
            <path fill="none" stroke-width="3.0" stroke-linecap="butt" stroke-opacity="1.0" stroke="rgb(255, 255, 255)" stroke-linejoin="round" d=" M 777.703, 576.920 777.591, 577.017 776.682, 577.804 " />
            <path fill="none" stroke-width="3.0" stroke-linecap="butt" stroke-opacity="1.0" stroke="rgb(255, 255, 255)" stroke-linejoin="round" d=" M 780.351, 574.631 779.850, 575.064 " />
            <path fill="none" stroke-width="3.0" stroke-linecap="butt" stroke-opacity="1.0" stroke="rgb(255, 255, 255)" stroke-linejoin="round" d=" M 779.675, 575.275 780.399, 574.649 " />
            <path fill="none" stroke-width="3.0" stroke-linecap="butt" stroke-opacity="1.0" stroke="rgb(255, 255, 255)" stroke-linejoin="round" d=" M 776.342, 578.157 777.639, 577.036 777.751, 576.939 " />
            <path fill="none" stroke-width="3.0" stroke-linecap="butt" stroke-opacity="1.0" stroke="rgb(255, 255, 255)" stroke-linejoin="round" d=" M 773.978, 580.201 774.955, 579.356 " />
            <path fill="none" stroke-width="3.0" stroke-linecap="butt" stroke-opacity="1.0" stroke="rgb(255, 255, 255)" stroke-linejoin="round" d=" M 847.523, 518.920 845.256, 520.768 " />
            <path fill="none" stroke-width="3.0" stroke-linecap="butt" stroke-opacity="1.0" stroke="rgb(255, 255, 255)" stroke-linejoin="round" d=" M 848.087, 518.493 850.846, 516.244 " />
            <path fill="none" stroke-width="3.0" stroke-linecap="butt" stroke-opacity="1.0" stroke="rgb(255, 255, 255)" stroke-linejoin="round" d=" M 845.244, 520.810 847.511, 518.962 " />
            <path fill="none" stroke-width="3.0" stroke-linecap="butt" stroke-opacity="1.0" stroke="rgb(255, 255, 255)" stroke-linejoin="round" d=" M 829.053, 534.005 834.719, 529.387 " />
            <path fill="none" stroke-width="3.0" stroke-linecap="butt" stroke-opacity="1.0" stroke="rgb(255, 255, 255)" stroke-linejoin="round" d=" M 908.784, 470.639 908.035, 471.216 " />
            <path fill="none" stroke-width="3.0" stroke-linecap="butt" stroke-opacity="1.0" stroke="rgb(255, 255, 255)" stroke-linejoin="round" d=" M 908.046, 471.224 908.795, 470.647 " />
            <path fill="none" stroke-width="3.0" stroke-linecap="butt" stroke-opacity="1.0" stroke="rgb(255, 255, 255)" stroke-linejoin="round" d=" M 1005.524, 748.485 1005.781, 748.116 " />
            <path fill="none" stroke-width="3.0" stroke-linecap="butt" stroke-opacity="1.0" stroke="rgb(255, 255, 255)" stroke-linejoin="round" d=" M 1012.986, 770.359 1015.173, 766.919 1015.951, 765.694 1019.475, 760.150 1022.239, 755.801 1023.010, 754.589 1024.415, 752.379 " />
            <path fill="none" stroke-width="3.0" stroke-linecap="butt" stroke-opacity="1.0" stroke="rgb(255, 255, 255)" stroke-linejoin="round" d=" M 1002.034, 430.773 1002.170, 431.134 1002.364, 431.646 1002.496, 431.997 1002.752, 432.673 1003.253, 434.000 1003.432, 434.474 1003.649, 435.047 1003.955, 435.858 1004.013, 436.009 1004.013, 436.011 1004.282, 436.722 1004.282, 436.722 1005.711, 440.504 1006.220, 441.850 1006.220, 441.851 1006.489, 442.562 1006.490, 442.564 1006.607, 442.873 1007.062, 444.078 1007.417, 445.018 1007.728, 445.842 1007.772, 445.956 1007.779, 445.976 1008.830, 448.758 1009.089, 449.441 1009.373, 450.194 1009.378, 450.208 1010.892, 454.214 1010.984, 454.456 1011.435, 455.651 1011.441, 455.667 1011.444, 455.673 1011.712, 456.384 1011.719, 456.401 1011.976, 457.083 1012.105, 457.425 1012.257, 457.825 1012.361, 458.100 1012.987, 459.758 1013.114, 460.094 1013.590, 461.353 1013.868, 462.089 1017.403, 471.443 1018.670, 474.795 1018.950, 475.536 1019.114, 475.971 1020.981, 480.913 1021.284, 481.714 1021.293, 481.737 1021.318, 481.804 1022.754, 485.603 1022.785, 485.685 1023.664, 488.011 1024.155, 489.310 " />
            <path fill="none" stroke-width="3.0" stroke-linecap="butt" stroke-opacity="1.0" stroke="rgb(255, 255, 255)" stroke-linejoin="round" d=" M 1024.461, 446.924 1023.572, 444.769 1023.558, 444.733 1023.295, 444.097 1023.264, 444.021 1022.789, 442.867 1022.461, 442.072 1022.451, 442.049 1022.144, 441.303 1022.139, 441.292 1021.642, 440.087 1021.288, 439.227 1020.894, 438.272 1020.874, 438.223 1020.828, 438.110 1020.649, 437.677 1020.568, 437.479 1019.847, 435.730 1019.702, 435.379 1019.556, 435.025 1019.484, 434.851 1018.761, 433.097 1018.508, 432.483 1018.057, 431.388 1018.054, 431.382 1017.805, 430.777 1017.798, 430.759 1017.719, 430.568 1017.388, 429.766 1017.344, 429.659 1016.910, 428.605 1016.660, 427.999 1016.404, 427.377 1015.784, 425.873 1015.744, 425.777 1015.734, 425.752 1015.731, 425.745 1015.436, 425.029 1015.434, 425.025 1015.097, 424.206 1015.061, 424.120 1014.701, 423.246 1014.340, 422.371 " />
            <path fill="none" stroke-width="3.0" stroke-linecap="butt" stroke-opacity="1.0" stroke="rgb(255, 255, 255)" stroke-linejoin="round" d=" M 1014.984, 421.947 1015.091, 422.206 1015.619, 423.486 1015.958, 424.308 1016.015, 424.446 1016.333, 425.217 1016.341, 425.236 1016.630, 425.936 1016.642, 425.964 1016.665, 426.021 1016.705, 426.117 1017.327, 427.624 1017.583, 428.245 1017.833, 428.850 1018.261, 429.887 1018.279, 429.932 1018.636, 430.796 1018.636, 430.798 1018.645, 430.819 1018.889, 431.409 1018.889, 431.409 1019.412, 432.677 1019.682, 433.330 1020.390, 435.047 1020.608, 435.574 1020.753, 435.926 1021.791, 438.443 1021.803, 438.470 1021.946, 438.818 1022.205, 439.444 1022.561, 440.308 1023.113, 441.646 1023.144, 441.720 1023.421, 442.392 1023.457, 442.480 1023.619, 442.871 1024.176, 444.221 " />
        </g>
    </g>
</svg>
