<svg width="500" height="375" viewBox="0 0 500 375" fill="none" xmlns="http://www.w3.org/2000/svg">
<path d="M493.359 72.7901C493.359 72.7901 449.289 29.3801 446.229 27.5401L429.879 18.0601L399.879 5.12012" stroke="white" stroke-miterlimit="10"/>
<path d="M493.359 271.52L244.909 369.62L242.459 367.82L247.349 344.28C247.349 344.28 256.679 252.1 153.039 243.85C153.039 243.85 80.7494 237.85 7.28937 269.99" stroke="white" stroke-miterlimit="10"/>
<path d="M493.359 110.09C493.359 110.09 151.199 66.8302 101.209 65.9502C101.209 65.9502 141.109 14.0802 153.039 5.16016" stroke="white" stroke-miterlimit="10"/>
<path d="M367.889 4C367.889 4 430.489 18.68 452.289 40L493.359 80.36" stroke="white" stroke-miterlimit="10"/>
<path d="M352.369 5.2002C352.369 5.2002 377.369 60.7102 386.669 96.8702L395.179 102.29L410.609 133.29C410.609 133.29 409.999 140.93 410.609 143.22C410.609 143.22 417.189 181.44 407.099 233.22C407.099 233.22 403.659 246.98 416.389 262V267.5L416.959 269.56L414.209 292.72L401.549 307.72" stroke="white" stroke-miterlimit="10"/>
<path d="M493.359 244C493.359 244 285.909 305.1 264.469 306.52C264.469 306.52 244.299 213.12 126.899 214.04C126.899 214.04 70.4894 216.33 31.9694 226.88" stroke="white" stroke-miterlimit="10"/>
<path d="M101.21 65.9502L93.6505 75.1202C93.6505 75.1202 77.3705 101.72 107.18 165.47L128.73 214.07" stroke="white" stroke-miterlimit="10"/>
<path d="M242.459 367.82L239.479 365.15L238.339 361.02L230.999 352.31" stroke="white" stroke-miterlimit="10"/>
<path d="M111.479 244.55C111.479 244.55 145.089 248.74 159.299 256.55C159.299 256.55 190.409 271.55 212.879 306.55C212.879 306.55 231.459 333.01 230.999 369.73" stroke="white" stroke-miterlimit="10"/>
<path d="M210.74 370.21C209.764 364.549 208.119 359.023 205.84 353.75C185.29 306.1 118.17 289.23 55.9402 316.07C37.614 323.868 20.9889 335.173 7.00021 349.35" stroke="white" stroke-miterlimit="10"/>
<path d="M197.18 138.95L199.12 142.74L198.12 144.57H161.83L158.74 143.31L153.23 137.69H150.48C150.48 137.69 127.21 137.69 124.23 141.13L122.74 143.88L127.55 154.78L130.99 156.5C130.99 156.5 208.99 158.79 218.93 154.89L219.73 152.83L218.36 145.6L215.83 142.6C215.83 142.6 200.5 138.03 197.18 138.95Z" stroke="white" stroke-miterlimit="10"/>
<path d="M444.859 143.41L443.709 143.8L448.979 146.09L448.449 146.93L435.149 146.63L428.289 143.41L425.919 142.5L416.979 144.71L416.139 146.63L416.979 152.82L419.119 154.04C419.119 154.04 449.769 154.27 452.439 153.2L454.279 152.2L455.199 148.28L453.899 146.09C453.899 146.09 448.369 143.11 444.859 143.41Z" stroke="white" stroke-miterlimit="10"/>
</svg>
