<svg width="500" height="375" viewBox="0 0 500 375" fill="none" xmlns="http://www.w3.org/2000/svg">
<path d="M436.541 8L463.361 13.76L467.491 21.1L466.111 31.19C466.111 31.19 468.641 70.63 468.641 78.65L466.571 88.05L484.461 131.16L482.171 190.64L474.861 218.29L433.581 255.9L403.781 265.53L412.461 233.43C412.461 233.43 407.641 104.33 270.751 100.21C270.751 100.21 133.861 93.33 122.851 239.85L130.651 273.56H15.9309" stroke="white" stroke-miterlimit="10"/>
<path d="M268.461 367.8C202.104 367.8 148.311 314.007 148.311 247.65C148.311 181.293 202.104 127.5 268.461 127.5C334.818 127.5 388.611 181.293 388.611 247.65C388.611 314.007 334.818 367.8 268.461 367.8Z" stroke="white" stroke-miterlimit="10"/>
<path d="M403.75 265.53L388.46 253.61" stroke="white" stroke-miterlimit="10"/>
<path d="M130.651 273.56L135.121 270.69V268.17L148.561 255.45" stroke="white" stroke-miterlimit="10"/>
<path d="M482.381 185.06C482.381 185.06 445.251 196.28 426.681 193.3C426.681 193.3 412.921 103.19 308.361 80.2998" stroke="white" stroke-miterlimit="10"/>
<path d="M467.951 62.07C467.951 62.07 447.471 53.83 427.591 54.73C427.591 54.73 386.321 11.57 385.711 8" stroke="white" stroke-miterlimit="10"/>
<path d="M232.001 35.0404L212.511 39.2104H209.511C208.946 37.9304 208.011 36.849 206.825 36.1057C205.64 35.3624 204.259 34.9913 202.861 35.0404C202.861 35.0404 176.491 34.1704 171.861 36.0404L170.261 41.0404L151.001 39.2004L149.621 37.9304L151.291 29.8304L155.641 26.6204C155.641 26.6204 206.781 16.7604 233.641 25.2404L235.471 28.6804C235.471 28.6804 234.121 34.5804 232.001 35.0404Z" stroke="white" stroke-miterlimit="10"/>
<path d="M258.512 8L237.272 77.83C237.272 77.83 210.482 82.83 195.542 90.37C195.542 90.37 120.792 119.72 107.952 199.51L15.0017 201.35" stroke="white" stroke-miterlimit="10"/>
</svg>
