<svg width="500" height="375" viewBox="0 0 500 375" fill="none" xmlns="http://www.w3.org/2000/svg">
<path d="M7.25 43C7.25 43 148.5 23.5 218.5 46.5C218.5 46.5 248.5 55.5 303.5 94.5C303.5 94.5 424.5 108.5 480.5 165.5L482.5 171.5C482.5 171.5 488.91 185.14 490.5 191.5C490.5 191.5 488.5 262.5 464.5 294.5L460.5 259.5L465.5 220.5C465.5 220.5 479.5 209.5 482.5 174.5V171.5" stroke="white" stroke-miterlimit="10"/>
<path d="M476.56 271.12C476.56 271.12 473.5 313.5 442.5 334.5C442.5 334.5 421.5 350.5 361.5 352.5C361.5 352.5 328.5 348.5 317.5 342.5C317.5 342.5 318.5 313.5 315.5 301.5C315.5 301.5 302.5 226.5 218.5 206.5C218.5 206.5 167.5 201.5 172.5 251.5C172.5 251.5 174.5 270.5 178.5 281.5V282.5L7.25 198.5" stroke="white" stroke-miterlimit="10"/>
<path d="M317.09 313.14L300.5 336.5L289 346C265.73 360.43 227.47 345.87 201.67 312.07C174.81 276.89 171.6 234.2 194.5 216.72C196.092 215.5 197.789 214.422 199.57 213.5L214.47 206.5" stroke="white" stroke-miterlimit="10"/>
<path d="M221.9 47.6901C191.29 40.8701 98.5 53.5001 98.5 53.5001C98.5 53.5001 139.5 91.5001 167.5 130.5C167.5 130.5 216.5 128.5 300.5 101.5C300.5 101.5 311.79 96.6602 304.14 94.5802" stroke="white" stroke-miterlimit="10"/>
<path d="M465.5 220.5L460.83 221.04C412.31 226.5 363.5 226.5 363.5 226.5L321.5 218.5L318.5 224.5C318.5 224.5 354.5 259.5 361.5 262.5C361.5 262.5 397.5 266.5 439.5 253.5L449.5 242.5L460.83 221" stroke="white" stroke-miterlimit="10"/>
<path d="M167.5 130.5C167.5 130.5 178.5 153.5 186.5 156.5C186.5 156.5 365.76 214.23 374.63 226.37" stroke="white" stroke-miterlimit="10"/>
<path d="M7.25 50.5198C7.25 50.5198 60.5 34.5198 90.5 59.5198C90.5 59.5198 136.5 103.52 150.5 135.52L123.5 129.52" stroke="white" stroke-miterlimit="10"/>
<path d="M7 100.13L60.5 113.5" stroke="white" stroke-miterlimit="10"/>
<path d="M119.5 124.5V118.82C119.5 118.82 108.5 106.26 98.5 102.88C98.5 102.88 80.5 98.5 55.5 117.5L58.5 126.5C58.5 126.5 71.5 132.5 80.5 133.5C80.5 133.5 108.5 133.5 119.5 124.5Z" stroke="white" stroke-miterlimit="10"/>
<path d="M55.5 117.5C55.5 117.5 64.5 120.5 69.5 120.5C69.5 120.5 101.5 122.13 119.5 118.82" stroke="white" stroke-miterlimit="10"/>
<path d="M119.5 124.5C119.5 124.5 123.19 128.5 123.34 130.5C123.34 130.5 117.5 136.5 113.5 138.5H107.29C107.29 138.5 99.5 134.5 98.5 131.99" stroke="white" stroke-miterlimit="10"/>
<path d="M7 190.55L166.5 268.5L176.34 274.13" stroke="white" stroke-miterlimit="10"/>
<path d="M42.2902 45.6699C42.2902 45.6699 31.2302 71.9299 31.3602 106.22C31.3602 106.22 21.5002 131.5 29.5002 156.5L39.5002 183.5L39.7602 187.5L38.5002 193.5C38.5002 193.5 42.0702 203.09 42.2902 207.79" stroke="white" stroke-miterlimit="10"/>
</svg>
