<svg width="500" height="375" fill="none" xmlns="http://www.w3.org/2000/svg"><path d="M7.25 43S148.5 23.5 218.5 46.5c0 0 30 9 85 48 0 0 121 14 177 71l2 6s6.41 13.64 8 20c0 0-2 71-26 103l-4-35 5-39s14-11 17-46v-3" stroke="#fff" stroke-miterlimit="10"/><path d="M476.56 271.12s-3.06 42.38-34.06 63.38c0 0-21 16-81 18 0 0-33-4-44-10 0 0 1-29-2-41 0 0-13-75-97-95 0 0-51-5-46 45 0 0 2 19 6 30v1l-171.25-84" stroke="#fff" stroke-miterlimit="10"/><path d="M317.09 313.14 300.5 336.5 289 346c-23.27 14.43-61.53-.13-87.33-33.93-26.86-35.18-30.07-77.87-7.17-95.35a34.141 34.141 0 0 1 5.07-3.22l14.9-7M221.9 47.69C191.29 40.87 98.5 53.5 98.5 53.5s41 38 69 77c0 0 49-2 133-29 0 0 11.29-4.84 3.64-6.92M465.5 220.5l-4.67.54c-48.52 5.46-97.33 5.46-97.33 5.46l-42-8-3 6s36 35 43 38c0 0 36 4 78-9l10-11 11.33-21.5" stroke="#fff" stroke-miterlimit="10"/><path d="M167.5 130.5s11 23 19 26c0 0 179.26 57.73 188.13 69.87M7.25 50.52s53.25-16 83.25 9c0 0 46 44 60 76l-27-6M7 100.13l53.5 13.37" stroke="#fff" stroke-miterlimit="10"/><path d="M119.5 124.5v-5.68s-11-12.56-21-15.94c0 0-18-4.38-43 14.62l3 9s13 6 22 7c0 0 28 0 39-9Z" stroke="#fff" stroke-miterlimit="10"/><path d="M55.5 117.5s9 3 14 3c0 0 32 1.63 50-1.68M119.5 124.5s3.69 4 3.84 6c0 0-5.84 6-9.84 8h-6.21s-7.79-4-8.79-6.51M7 190.55l159.5 77.95 9.84 5.63M42.29 45.67s-11.06 26.26-10.93 60.55c0 0-9.86 25.28-1.86 50.28l10 27 .26 4-1.26 6s3.57 9.59 3.79 14.29" stroke="#fff" stroke-miterlimit="10"/></svg>
