<svg width="500" height="375" viewBox="0 0 500 375" fill="none" xmlns="http://www.w3.org/2000/svg">
<path d="M143.069 5C143.069 5 110.509 16 108.069 17.79L101.189 26.2L100.579 39.5L38.9595 94.68L7.01953 113.94" stroke="white" stroke-miterlimit="10"/>
<path d="M7.0293 259.55L27.0293 278.81C27.0293 278.81 11.0293 210.25 57.0293 196.49C57.0293 196.49 152.189 174.02 193.919 330.4L366.869 369.31" stroke="white" stroke-miterlimit="10"/>
<path d="M493.029 86.4299C493.029 86.4299 146.739 88.2599 118.309 89.6399C118.309 89.6399 189.849 7.41994 194.439 5.18994" stroke="white" stroke-miterlimit="10"/>
<path d="M21.6293 105.14L28.6493 112.11V118.76L9.38929 150.4L7.0293 151.78" stroke="white" stroke-miterlimit="10"/>
<path d="M492.53 341.41L192.14 279.96C192.14 279.96 156.83 187.78 95.8398 179.52" stroke="white" stroke-miterlimit="10"/>
<path d="M33.7 189.15C33.7 189.15 12.83 201.77 11 243.5L7 241.89" stroke="white" stroke-miterlimit="10"/>
<path d="M380.17 5C380.17 5 390.25 71.1 392.09 87L405.39 137.83C405.39 137.83 406.96 244.42 401.5 274C401.5 274 400.2 288.82 403.86 297.08L410.67 318.94L403.1 361.59L395.42 369.5" stroke="white" stroke-miterlimit="10"/>
<path d="M147.659 135.61L141.469 138.37L139.059 139.05L118.309 138.14L117.159 137.33L120.949 134.33L120.259 133.07C120.259 133.07 108.339 133.64 107.529 135.25L105.129 138V144.42L106.849 145.11C106.849 145.11 153.849 148.32 157.409 148.11L160.959 146.62V141.12L158.209 138.59C158.209 138.59 152.479 135.73 147.659 135.61Z" stroke="white" stroke-miterlimit="10"/>
<path d="M491.46 159.65L454.46 158.12L452.46 156.9L447.87 151.24L444.81 150.17L420.51 152.62L418.51 154.91L419.58 164.39L422.18 165.77C422.18 165.77 478.13 169.89 492.5 171.42" stroke="white" stroke-miterlimit="10"/>
<path d="M190.75 319L185.57 330.1C185.57 330.1 153.78 365.26 150.41 368.01" stroke="white" stroke-miterlimit="10"/>
<path d="M102.958 201.83L73.0384 207.52C73.0384 207.52 22.1384 221.46 28.6284 282.36C28.6284 282.36 37.2684 340.75 84.3484 369.52" stroke="white" stroke-miterlimit="10"/>
</svg>
