<svg width="1008" height="756" fill="none" xmlns="http://www.w3.org/2000/svg"><g clip-path="url(#a)" stroke="#fff" stroke-width="1.5" stroke-miterlimit="10" stroke-linecap="round" stroke-linejoin="round"><path d="M325.552 11.957c75.065-6.36 283.462-10.919 321.505-9.959 38.043.96 68.244 19.348 84.651 29.426 18.601 11.429 32.154 24.327 41.709 40.225 8.685 14.459 14.995 32.126 14.184 39.326-1.022 9.148-21.185 21.927-42.28 35.245-27.286 17.218-56.945 32.216-104.394 35.486-47.449 3.269-255.966 6.479-289.862 7.109-33.897.63-60.701-5.34-86.785-18.688-28.758-14.698-60.28-33.026-60.28-45.384 0-8.369 10.157-40.075 22.267-53.843 13.102-14.909 56.795-55.314 99.285-58.943ZM336.941 11.117l14.154 177.698M643.601 1.938l-4.898 179.918"/><path d="m655.622 21.256-3.997 144.222c21.666 0 48.951-4.8 71.85-17.218 22.898-12.419 44.143-26.037 49.372-31.256 5.228-5.22 6.19-8.309 4.177-15.928-2.014-7.62-11.449-26.367-22.658-38.965-13.643-15.298-40.057-34.046-59.409-38.846-12.621-3.15-26.714-3.24-39.335-2.01ZM328.137 31.274l8.774 141.013c-22.417.39-50.123-4.8-70.196-12.809-20.074-8.009-50.064-28.076-52.468-34.465-2.434-6.419 8.835-37.226 17.58-47.304 13.041-15.059 37.562-34.166 54.21-40.435 14.454-5.46 42.1-6 42.1-6ZM805 180.836c-71.819 17.428-142.677 28.916-220.327 34.496-80.173 5.789-253.712 15.388-294.129 11.548-40.417-3.839-86.544-6.149-86.544-6.149"/><path d="M219.746 221.601c-1.953 21.807 38.524 113.086 81.646 122.684"/><path d="M240.12 281.053c8.835-4.619 30.411-8.459 46.187 22.287 15.776 30.747 19.623 73.791 38.103 91.069 18.481 17.278 53.519 25.377 105.085 24.207 51.566-1.17 129.365-12.688 155.93-21.147 26.564-8.459 46.186-32.006 46.968-49.434.781-17.428 9.556-75.471 19.202-92.749 9.646-17.307 14.514-33.355 13.823-48.174"/><path d="M204 350.615c21.486-1.14 67.612-4.08 89.97-8.759M320.684 390.33c7.993 30.596 18.481 62.962 29.239 79.88 10.758 16.918 38.884 43.044 41.469 75.62 3.846 48.414 25.783 190.656 33.505 241.17M621.845 372.332c-2.524 29.426-8.684 78.98-15.235 101.267-6.551 22.287-2.705 54.953 4.628 80.33 7.302 25.377 35.429 171.039 48.5 233.101M636.9 311.829c37.322-4.469 99.556-11.338 168.1-21.327M477.094 477.199c-3.125 5.639-5.258 38.395-2.163 66.861 3.095 28.467 7.452 75.531 8.053 83.27.631 7.739 2.494 14.548 14.875 14.248 12.381-.3 34.738-3.089 43.122-4.949 8.384-1.86 13.102-5.669 11.178-20.128-5.589-41.484-23.138-118.125-30.38-134.653-5.499-12.538-14.214-11.908-21.185-11.908-6.972 0-20.404 1.709-23.5 7.259Z"/><path d="M479.048 584.675c-.18-24.447-1.983-54.143 4.297-58.792 6.28-4.65 34.407-6.27 40.057-5.46 5.679.81 10.788 3.96 14.213 19.618"/><path d="M476.974 563.798c-5.529 3.989-5.769 10.049-5.258 20.907.51 10.859 7.933 65.872 9.195 74.061 1.232 8.189 2.975 12.628 15.896 11.909 12.922-.75 41.199-4.71 52.377-7.44 11.179-2.729 12.411-7.679 10.939-19.827-1.473-12.148-12.591-64.552-17.85-82.1M474.841 487.397c-15.115 2.04-40.027 6.36-47.69 8.999-7.632 2.64-14.454 7.799-13.131 30.327 1.322 22.527 23.048 190.446 37.111 260.277M521.749 481.848c12.741-1.2 28.066-1.83 36.961 0s13.823 10.889 17.79 24.117c3.966 13.228 44.564 167.439 58.988 281.005M571.452 401.218c-2.645 16.738-15.356 45.595-24.912 53.724-23.349 4.769-92.524 14.038-132.641 13.768-17.909-12.929-27.796-43.285-28.096-51.684M597.895 392.219c.902 18.058-8.504 91.339-8.744 105.437-.241 14.098 10.908 58.043 14.123 72.831 3.216 14.788 8.204 41.215 23.499 53.933M361.432 412.707c2.013 16.168 20.825 77.15 32.484 95.628 11.66 18.478 11.9 46.824 13.703 61.042 1.803 14.218 4.297 36.776 6.25 62.692.511 6.72-3.726 18.058-8.173 26.517M204 412.707c0-8.429 3.666-11.909 14.364-13.259 10.698-1.349 30.621-3.089 41.439-3.389 6.971-.21 11.028 3.059 13.252 10.859 2.194 7.799 1.202 21.357 0 26.786-1.202 5.429-5.77 7.289-15.957 7.799-10.187.51-32.514 2.37-37.412 2.7-4.898.33-11.179-.54-12.711-5.1C204 430.285 204 422.396 204 412.707Z"/><path d="M274.347 419.576c5.77-.3 18.902-2.64 31.943 4.169 9.346 4.89 8.685 20.938 8.504 30.327-.18 9.388-1.382 32.965.091 41.154 1.472 8.189 7.452 15.029 17.879 16.228 10.428 1.2 21.186.09 21.186.09"/><path d="M336.791 442.313c7.452 23.727 21.215 81.68 25.843 118.965 4.628 37.316 21.185 179.318 29.359 225.722"/><path d="M364.677 578.166c-.421 28.647 13.703 174.128 12.771 208.834M356.173 787c-7.663-44.634-35.159-49.164-69.836-53.843-8.985-1.2-9.947-16.738-26.474-21.568-16.528-4.829-37.953-9.928-55.893-12.358"/><path d="M284.714 732.767c-6.13 3.059-16.347 32.186-19.983 54.233M612.951 443.633C611.899 479.269 670.376 704.72 684.8 787"/><path d="M661.361 677.214c-7.843-44.965-18.27-79.01-1.623-94.878 16.648-15.869 41.86-15.089 59.289 18.177 17.459 33.296 57.756 136.903 72.12 186.487"/><path d="M686.543 572.527c6.13-9.569 5.739-21.957 20.855-30.086 15.115-8.129 52.497-25.557 97.602-37.556M634.887 324.908c20.764-3.39 70.106-9.089 81.015-8.759 10.908.33 18.901 4.169 26.263 10.409 7.362 6.239 39.486 28.616 62.835 47.334M365.609 325.778c8.298 0 15.025-6.715 15.025-14.998 0-8.284-6.727-14.999-15.025-14.999s-15.025 6.715-15.025 14.999c0 8.283 6.727 14.998 15.025 14.998Z"/><path d="M365.609 331.627c12.182 0 22.057-9.858 22.057-22.017 0-12.16-9.875-22.018-22.057-22.018-12.182 0-22.057 9.858-22.057 22.018 0 12.159 9.875 22.017 22.057 22.017ZM491.428 443.933c6.772 0 12.261-5.479 12.261-12.239 0-6.759-5.489-12.238-12.261-12.238-6.771 0-12.26 5.479-12.26 12.238 0 6.76 5.489 12.239 12.26 12.239ZM504.5 786.1c12.447 0 22.537-10.757 22.537-24.027 0-13.27-10.09-24.027-22.537-24.027s-22.538 10.757-22.538 24.027c0 13.27 10.091 24.027 22.538 24.027Z"/><path d="M486.44 787c-6.972-5.759-11.479-14.788-11.479-24.927 0-17.398 13.222-31.496 29.539-31.496s29.539 14.098 29.539 31.496c0 9.629-4.267 19.138-10.668 24.927M386.674 303.07c77.649-3.059 163.502-10.258 227.118-21.597 1.593-.3 3.155.72 3.726 2.25l1.984 5.579c.691 1.92-.451 4.02-2.434 4.53-52.017 12.628-147.095 21.567-231.265 24.657M345.896 319.508c-7.092.09-14.003.15-20.735.15-2.253 0-3.906-2.159-3.305-4.349l2.194-8.129c.42-1.53 1.833-2.55 3.425-2.55 5.469-.06 11.059-.15 16.738-.27M331.983 348.605c73.081 1.56 230.453-12.089 281.508-25.287 2.044-.54 4.057.96 4.207 3.06.661 11.248.12 26.396-21.966 33.865-46.247 15.628-180.871 27.777-235.803 22.378-25.753-2.55-31.883-20.698-31.372-30.837.09-1.799 1.623-3.209 3.426-3.179ZM560.603 787c-4.177-14.908-12.801-57.713-13.432-71.781 8.023-3.51 27.556-5.429 33.956-5.129 7.693 22.377 14.424 55.913 18.271 76.91"/></g><defs><clipPath id="a"><path fill="#fff" d="M0 0h1008v756H0z"/></clipPath></defs></svg>