<svg width="500" height="375" viewBox="0 0 500 375" fill="none" xmlns="http://www.w3.org/2000/svg">
<path d="M143.5 240.5C131.5 190.5 161.5 194.5 161.5 194.5C224.5 201.5 250 315.29 250 315.29L254.5 320.5L320.5 334.5C391.5 345.5 416.5 323.5 416.5 323.5L448.5 294.5C479.5 259.5 486.5 219.5 486.5 219.5C499.5 193.5 480.5 177.5 480.5 177.5C496.5 158.5 486.5 138.88 486.5 138.88C491.5 132.26 486.5 125.5 486.5 125.5L431.5 104.5C400.5 90.5 327.5 63.5 327.5 63.5C183.5 23.5 83.4996 50.5 83.4996 50.5C54.4996 58.5 27.4996 94.5 27.4996 94.5L27.0596 95.21" stroke="white" stroke-miterlimit="10"/>
<path d="M7 152.48C7 152.48 19.5 182.48 20.5 183.48C20.5 183.48 141.5 251.48 146.5 261.48" stroke="white" stroke-miterlimit="10"/>
<path d="M172.89 197H171.46C168.202 197.14 165.001 197.904 162.03 199.25C140.92 208.86 137.24 246.15 153.8 282.56C170.36 318.97 200.92 340.68 222.03 331.07L248.86 310.68" stroke="white" stroke-miterlimit="10"/>
<path d="M7.25 189.58C7.25 189.58 9.5 192.5 12.5 192.5L29.5 188.56" stroke="white" stroke-miterlimit="10"/>
<path d="M324.51 62.68C324.51 62.68 275.51 55.5 212.51 71.5C212.51 71.5 326.51 132.5 338.51 140.5C338.51 140.5 440.51 114.5 431.51 104.5" stroke="white" stroke-miterlimit="10"/>
<path d="M320.5 334.5C320.5 334.5 393.5 312.5 398.5 311.5C398.5 311.5 448.85 297.02 480.68 239.76" stroke="white" stroke-miterlimit="10"/>
<path d="M480.5 177.5C473.5 190.5 428.5 212.5 428.5 212.5L411.5 222.5C363.5 247.5 320.5 232.74 320.5 232.74C320.5 232.74 368.5 204.5 374.5 202.5L381.5 201.5C381.5 201.5 418.5 195.5 420.5 194.5C420.5 194.5 454.5 186.5 461.5 181.5C461.5 181.5 489.14 166.68 488.82 146.09" stroke="white" stroke-miterlimit="10"/>
<path d="M443.58 204.59L444.5 221.5C444.5 221.5 464.86 205.67 472.68 189.58V185.9" stroke="white" stroke-miterlimit="10"/>
<path d="M410.56 223C410.56 223 418.5 249.52 429.5 252.52L450.5 253.52C450.5 253.52 481.5 234.59 490.01 193.52" stroke="white" stroke-miterlimit="10"/>
<path d="M474.77 184.12V189.58C474.77 189.58 464.5 219.5 432.5 240.5C432.5 240.5 425.93 244.57 419.72 243.5" stroke="white" stroke-miterlimit="10"/>
<path d="M226.29 251.41L236.73 253.5L274.5 258.5L279.5 256.5L320.5 232.74" stroke="white" stroke-miterlimit="10"/>
<path d="M7.5 93.5C7.5 93.5 18.5 90.5 22.5 89.5L25.85 91.5C25.85 91.5 28.5 96.29 27.5 106.39L25.5 108.5C25.5 108.5 11.5 110.5 7.5 109.5" stroke="white" stroke-miterlimit="10"/>
<path d="M27.7301 102.04L33.5001 107.5L29.5001 113.5L22.1201 108.94" stroke="white" stroke-miterlimit="10"/>
<path d="M27.7305 96.9199C27.7305 96.9199 54.5005 62.4999 77.5005 56.4999C77.5005 56.4999 113.79 44.9199 184.15 76.7099C184.15 76.7099 246.5 109.5 247.5 117.5L245.5 120.5C245.5 120.5 217.5 129.5 168.5 127.5L31.6405 105.74" stroke="white" stroke-miterlimit="10"/>
<path d="M50.5 129.5H52.5L50.5 132.57C50.5 132.57 56.5 134.5 58.5 133.5L59.5 131.5L63.5 133.5L62.5 138.5H60.5C60.5 138.5 49.5 137.5 47.5 134.5V133.15C47.5 133.15 48.5 129.5 50.5 129.5Z" stroke="white" stroke-miterlimit="10"/>
<path d="M123.5 150.5L121.5 152.5C121.5 152.5 120.5 154.05 122.5 154.78C122.5 154.78 127.5 156.5 129.5 156.5C129.5 156.5 131.26 157.5 135.38 153.5C135.38 153.5 141.5 154.5 141.5 156.5V161.66L139.5 164.5C139.5 164.5 123.42 163.5 116.96 157.5L116.5 155.5V153C116.5 153 117.5 149.48 120.5 149.48C121.585 149.481 122.639 149.84 123.5 150.5V150.5Z" stroke="white" stroke-miterlimit="10"/>
<path d="M17.5596 177.32C17.5596 177.32 115.16 230.98 119.33 232.74C119.33 232.74 128.5 237.5 131.5 230.5C131.5 230.5 133.5 185.5 156.5 155.5C156.5 155.5 171.5 139.5 168.5 127.5C168.5 127.5 160.17 101.29 165.33 68.8901" stroke="white" stroke-miterlimit="10"/>
<path d="M106.27 54.8101C106.27 54.8101 85.4598 88.8801 78.4798 113.19C78.4798 113.19 52.4798 136.5 73.4798 184.5C73.4798 184.5 74.7398 186.67 72.6098 189.58L72.4798 194.5C72.4798 194.5 79.4798 204.5 80.4798 211.5" stroke="white" stroke-miterlimit="10"/>
</svg>
