<svg width="1008" height="756" fill="none" xmlns="http://www.w3.org/2000/svg"><g clip-path="url(#a)" stroke="#fff" stroke-width="1.5" stroke-miterlimit="10" stroke-linecap="round" stroke-linejoin="round"><path d="M1008-15.935c-86.45 4.16-312.065 55.51-390.65 86.19-69.42 27.105-149.5 80.925-168.935 86.45-19.37 5.525-67.73 14.43-122.915 35.88"/><path d="M369.31 255.57c4.095-19.565 18.59-42.055 49.01-64.61 30.42-22.555 160.095-96.46 237.705-114.335 91.78-21.125 211.64-22.62 352.045-23.66M1008 165.935c-88.53 88.595-201.045 242.71-229.32 268.84-28.275 26.13-70.395 64.935-93.145 106.6-22.75 41.665-57.525 117.455-62.075 209.3-.715 13.78 11.05 22.75 37.96 53.105 26.91 30.355 276.575 284.89 346.64 360.81"/><path d="M783.36 430.095c45.045 15.34 170.235 66.17 224.64 90.285M767.825 444.785c31.59 10.79 189.995 79.885 240.175 103.48M367.165 503.09s507.52 595.59 640.835 703.23M927.855 124.66c-33.41-12.935-201.825-9.815-263.64 3.835-117.065 25.74-199.485 78.13-216.58 87.945-17.095 9.815-22.945 22.035-23.14 39.975-.195 18.005.52 96.915 0 106.73 6.305 6.565 13.975 13.195 17.095 23.725 3.12 10.53 5.005 55.315 7.475 69.225 2.47 13.91 54.73 61.1 76.895 77.935s60.515 51.61 90.61 54.405c13.78 1.3 21.19-9.555 33.15-28.73 11.96-19.175 81.12-132.34 113.685-178.945 32.565-46.605 142.61-170.43 164.645-193.96 22.035-23.53 25.545-52.13-.195-62.14Z"/><path d="M-292 178.285c98.41 147.42 198.77 293.8 233.87 348.92 35.1 55.12 79.56 127.4 113.49 221.78 42.575-27.04 124.02-105.17 142.48-114.27 18.46-9.035 41.08-24.375 67.535-48.035 26.455-23.66 106.34-86.84 116.805-96.005 10.465-9.165 12.805-26.065 9.815-47.19-2.99-21.125-7.67-38.87-7.67-38.87l9.1-4.875c2.275-1.235 2.47-4.485.325-5.915-6.63-4.55-17.81-13.13-19.89-20.54-2.99-10.66 3.12-81.575-2.47-107.64-4.29-19.825-9.62-35.295-33.215-60.45-29.38-31.2-93.015-86.45-168.74-104.455C80.71 79.745-49.225 76.17-292 93.98"/><path d="M356.7 248.16c-12.675-23.465-48.035-56.68-101.725-82.68-53.69-26-144.235-37.115-224.25-33.93-80.015 3.185-126.295 8.905-144.82 21.97-18.525 13.065-36.79 40.755-18.265 80.145 18.525 39.39 73.515 130.52 107.51 172.315 117.52-45.89 319.8-115.7 328.705-123.11 17.16-14.365 35.555-18.655 52.845-34.71Z"/><path d="M315.165 274.745c-2.145-17.875-4.355-61.36-2.665-74.035M-24.85 405.98c5.98 21.645 35.295 49.4 47.71 67.795 12.415 18.46 75.465 119.47 96.33 137.865 20.865 18.46 43.03 25.35 78.65 23.075"/><path d="M384.325 404.68c-28.99 16.51-80.08 46.735-82.42 50.96-2.34 4.225-18.72 18.005-35.295 25.74-16.575 7.735-128.895 65.975-153.66 75.985-9.36.195-23.4.26-35.165.13"/><path d="M137.52 545.99c16.575 8.125 25.09 14.17 43.55 10.335 18.46-3.9 139.165-54.145 150.67-60.125 11.44-5.98 18.265-16.51 21.06-28.145 3.055-12.61 5.395-34.645 5.2-48.165"/><path d="M301.905 455.64c-6.76 3.835-15.21 8.645-22.49 9.88-7.345 1.235-16.38-4.615-16.25-10.53.195-5.915 14.43-70.72 16.25-74.88 2.47-5.915 5.915-10.725 17.095-13 11.245-2.34 29.64-4.615 36.01-1.04 6.435 3.575 28.86 22.165 31.395 30.355 2.47 8.19-.52 17.225-4.355 22.62"/><path d="M284.615 372.31c-49.985 8.32-183.82 86.645-206.765 100.685-5.915 3.64-8.97 9.425-2.405 18.98 6.565 9.555 20.605 33.41 20.605 33.41 18.2-20.67 109.85-82.16 172.38-97.63"/><path d="M95.985 525.385c16.055 2.275 28.34 12.545 32.63 13.65 4.29 1.105 8.58-1.3 15.73-4.94 7.085-3.64 98.54-48.295 130.39-68.38M296.445 384.335C295.99 387.78 286.11 439 286.11 439c10.335-5.59 12.675-11.895 14.17-19.045 1.495-7.215 4.16-29.51 4.42-31.785.325-2.34-2.47-3.575-8.255-3.835ZM19.74 469.55c7.28 3.705 17.875 4.29 31.85-3.835 13.975-8.125 152.035-84.435 177.255-96.98 2.015-16.705 4.355-33.085 10.53-36.725 6.24-3.64 80.275-44.395 86.71-47.775 6.5-3.38 27.17-12.61 37.57-15.665"/><path d="M356.7 248.16c10.725 15.73 14.105 78.065 16.315 105.365M228.845 368.67c4.94 1.95 9.685 1.56 18.915-2.08 9.23-3.64 96.98-31.33 106.34-34.19-8.97-9.945-10.985-21.385-10.205-27.885.845-6.5 3.835-21.97.26-28.6M296.445 384.335c-5.98 0-12.935.065-18.07-.715M286.11 438.935c-1.105 4.94-8.515 17.29-22.88 17.29"/><path d="M244.185 335.975c6.175-4.03 31.265-18.395 34.19-20.15 2.925-1.755 5.005-.52 5.265 3.315.26 3.77-.13 16.965-.585 19.045-.52 2.08-.585 4.745-5.59 6.955s-26.325 13.65-29.055 14.885c-2.665 1.235-7.41.715-7.215-3.445.26-4.16.715-14.365.975-16.12.195-1.625.39-3.38 2.015-4.485Z"/><path d="M246.395 334.61c4.875 4.03 9.555 8.19 12.805 7.605 3.315-.585 20.02-9.035 24.505-8.645M311.915 218c-11.96-8.84-27.69-13.975-49.465-10.27-21.775 3.705-50.375 20.345-55.965 25.74-5.525 5.33-5.98 7.67-2.86 14.755 3.055 7.085 9.88 23.27 22.035 27.755 12.155 4.485 38.675 3.185 47.125 1.365 8.45-1.82 26.845-2.665 39.13-.39"/><path d="M277.465 218.195c-9.815-4.615-31.07-1.82-43.03 4.095-14.56 7.28-21.385 12.155-19.955 18.525 1.43 6.37 8.58 25.935 14.365 28.99 5.785 3.055 23.725 3.055 32.565 2.665 8.84-.39 13.39-2.665 14.625-10.725 1.235-7.93 8.45-40.235 1.43-43.55Z"/><path d="M189.845 639.915c-30.095 11.245-90.48 16.38-119.99-23.855-29.51-40.235-80.015-121.355-88.595-143.91-8.58-22.555-79.885-133.315-106.275-166.4-26.39-33.085-59.15-94.12-42.055-134.615 15.145-35.88 71.825-46.02 157.105-49.92 85.28-3.9 171.73 2.47 214.76 9.88s110.89 52.91 144.105 86.45"/><path d="M220.785 135.125c-54.73-19.175-123.63-32.565-212.42-29.38-88.79 3.185-271.31 17.875-271.31 17.875 6.37 12.74 16.835 54.795 0 63.83C-165.9 326.615-99.47 444.785-99.47 444.785l-8.97 6.175M382.18 490.74c43.81 48.23 199.875 213.98 241.67 253.305M654.01 609.625c-48.23 46.8-88.27 31.85-115.895 16.965l88.4 90.48"/><path d="M411.365 237.76c-2.665 27.495-3.315 167.375-4.095 192.4-.78 24.96 7.41 41.405 31.59 64.415 24.18 23.01 106.925 103.025 129.22 115.115 22.23 12.09 50.375 13.26 69.095-5.46S724.21 472.28 739.03 450.44c14.82-21.84 69.095-95.615 110.435-139.75 41.34-44.135 108.485-114.335 121.81-142.48 13.26-28.08 13.325-65.195-37.83-73.19-76.505-11.96-221.975-.52-282.555 12.675-82.355 17.94-190.84 83.135-210.405 95.615-19.565 12.48-28.275 25.48-29.12 34.45Z"/><path d="M748.195 403.25c-13.65-2.08-24.245-1.56-43.355 3.51-4.615-1.17-7.865-4.615-24.895-1.04s-84.305 18.785-88.4 51.35c-4.42 3.25-7.995 9.75-2.535 22.88-7.475 10.075-12.48 14.56-10.595 23.14 1.885 8.58 9.035 33.865 14.17 44.265 5.135 10.4 23.465 26.585 37.635 37.44"/><path d="M589.01 479.95c6.11-3.77 13.65 5.46 20.28 12.09 6.63 6.63 40.365 39.78 51.675 49.4M591.545 457.07c11.57-1.04 31.395 6.955 47.06 21.97 15.665 15.015 36.66 39.195 36.66 39.195M704.84 406.76c8.19 3.25 21.515 13.065 28.015 20.085M605.455 213.515c-13.195 11.765-28.73 40.04-26.585 70.395 2.145 30.355 20.93 56.745 62.205 65.715 8.45 1.82 48.295-20.28 51.935-27.82 3.64-7.54 19.305-35.88 6.955-76.57-9.88-32.5-33.93-44.525-47.125-46.865-13.195-2.275-36.53 5.46-47.385 15.145Z"/><path d="M639.775 328.5c-5.98-7.02-19.63-16.055-24.895-18.005-5.265-1.95-8.32 3.77-4.94 10.465s16.705 14.105 24.57 14.43c7.865.325 7.28-4.55 5.265-6.89ZM663.5 307.245c-1.3-4.875 6.695-9.685 8.19-14.235 1.495-4.615.845-11.44 4.225-15.21 3.38-3.77 10.66-8.58 11.635-3.9 2.47 11.7-3.25 31.2-8.97 38.415-3.315 4.16-9.165 5.59-10.79 2.925-1.69-2.6-3.51-4.875-4.29-7.995ZM603.57 243.09c6.565-.325 37.83-5.395 49.27-3.575 11.44 1.82 13.26 4.225 13.26 4.225 3.25-.65 9.685-1.04 11.115-2.34 1.43-1.3-5.85-14.235-10.465-16.185-4.615-1.95-11.96-8.97-15.6-11.44-3.575-2.47-21.06-2.795-27.755 2.47-6.76 5.265-15.925 10.985-16.575 13.91-.65 2.925-1.625 8.645-3.25 12.935Z"/><path d="M603.57 243.09c-2.6 5.59-9.555 17.16-9.555 35.815 0 4.745 10.075 8.775 13.13 15.34 3.12 6.565-1.885 16.185 1.82 24.375"/><path d="M608.25 299.38c3.835 3.965 17.16-1.43 12.35-13.975M666.1 243.74c4.615 5.395 10.66 20.215 8.255 36.465"/><path d="M594.73 268.7c19.435-2.795 29.315 29.705 47.775 37.245 8.645 3.575 19.5-2.535 24.245-6.175"/><path d="M651.54 306.725c-2.08 3.575-4.615 6.565-3.12 9.88 1.495 3.315 3.575 6.435 5.46 7.865 3.575-1.495 6.76-3.38 8.58-5.005-2.925-3.705-7.085-9.75-3.835-14.95M674.875 273.9c5.395-3.315 12.675-8.775 13.78-13.91 1.105-5.135-4.42-14.3-7.93-15.08-3.575-.715-7.865.845-11.635 3.445M429.175 368.02c35.165-7.93 67.99-18.98 91.845-28.21 11.31-4.355 8.71-19.435 8.71-19.435 15.275 1.43 36.465 6.5 60.775-1.69M554.625 272.015c6.89-10.53 15.6-15.405 28.6-21.71M427.745 237.565c15.34 10.465 31.655 22.49 49.465 54.275 3.315 5.915 2.86 12.74 2.86 12.74 18.005-3.25 62.27-15.925 67.925-19.175l.975-2.145"/><path d="m480.005 304.515-6.175 2.47c2.145 13 1.17 23.14-5.46 33.085s-12.09 16.575-19.89 23.205"/><path d="M424.56 361.585c18.07.26 39.78-18.265 42.705-37.115 1.495-9.49 1.885-28.795-6.695-41.795-8.515-13-24.245-24.7-36.14-32.24M941.115 168.08c-32.695-3.64-72.605-7.67-92.885-13.845 5.85-13.78 15.925-37.18 15.925-37.18M773.09 117.575c-5.85 8.71-25.22 13.845-41.08 15.275-15.925 1.495-99.905 10.725-150.28 19.435"/><path d="M737.6 132.265c8.32 5.07 24.895 11.895 42.055 11.44 17.225-.455 28.21.78 36.01 2.145 12.025 2.08 27.625 6.955 32.5 13.52 4.875 6.63 9.555 16.51 6.565 23.465-2.99 6.955-7.41 15.015-18.265 19.305-10.855 4.29-32.825 3.965-42.38 8.71-9.555 4.81-38.87 24.05-48.295 29.835-9.425 5.785-43.68 13.26-43.68 13.26"/><path d="M715.37 250.76c4.875 5.07 10.465 42.64 10.465 47.58 0 4.94-11.44 11.895-29.445 16.185M657.845 344.75c1.755 7.345 14.43 17.225 32.435 24.765 17.94 7.605 62.205 27.17 62.205 27.17M675.72 335.325c2.535 4.875 65.585 34.84 87.62 45.5M721.61 324.47c-3.51 3.64 1.495 12.415 12.025 17.68 7.02 3.51 10.465 10.14 11.96 14.17.845 2.21 3.25 3.51 5.59 2.925 3.705-.975 7.28-2.99 8.71-4.94 1.95-2.73-1.82-18.85-15.145-26.455-13.39-7.605-18.85-7.865-23.14-3.38Z"/><path d="M693.79 346.44c4.745-5.59 20.02-10.725 29.705-12.22M723.43 302.695c-.195 4.16.065 13.715 1.43 19.435M759.57 347.22c6.24 2.21 20.865 10.855 20.865 10.855M609.42 174.97c-5.525-7.54-13.39-8.125-25.35-6.435-12.285 1.69-28.795 5.85-41.795 9.49-25.74 7.215-51.09 22.165-58.24 30.485-3.185 3.705 4.16 13.845 14.105 19.5 9.945 5.59 28.86 8.71 42.25 9.62 5.2.39 13.585-8.125 22.36-11.505 8.775-3.315 26.78-7.54 35.75-5.005"/><path d="M561.645 208.38c-3.185-10.01 13.39-29.705 29.185-34.32 15.795-4.68 31.265 7.02 32.565 9.685 1.3 2.665-1.17 12.74-12.48 19.045-11.31 6.24-44.525 20.605-49.27 5.59Z"/><path d="M622.55 190.57c2.6.65 6.89 4.615 8.19 10.14M493.395 224.695c-2.535-4.745.91-10.075 5.07-15.015 4.095-4.94 13.26-13.65 18.135-17.16 3.38-2.47 9.035-3.575 9.945 4.29.91 7.865-2.925 26.65-18.915 34.97"/><path d="M518.94 222.03c9.88-4.485 32.76-9.75 43.875-11.245M529.665 320.375c2.925-5.265 9.295-16.185 5.72-30.42M460.635 266.945c11.44-5.395 34.905-12.935 40.105-14.69 5.2-1.755 10.27-.975 14.82 1.43 4.55 2.34 12.61 8.645 14.82 10.4 2.21 1.755.52 6.045-5.46 8.905-5.98 2.86-38.87 15.6-47.19 20.02M549.165 282.805a5.655 5.655 0 1 0 0-11.31 5.655 5.655 0 0 0 0 11.31Z"/><path d="M549.165 271.495c5.395-.91 14.95 4.03 18.655 7.345 3.705 3.315 1.95 6.175-2.925 6.565-4.875.39-12.285-.195-18.07-3.055M575.49 292.425c-9.49 1.3-9.295 8.19-9.035 12.675.26 4.485 1.56 8.71 4.485 9.815 2.925 1.105 7.215-.585 7.735-3.575.52-2.99.52-6.37 0-10.075-.39-2.535-.975-6.37-3.185-8.84ZM761.78 348.13c5.2-7.995 21.125-19.63 45.955-23.66M663.305 201.75c21.125-4.875 65.91-12.675 74.425-12.87 5.135-.13 12.675 2.665 18.655 7.605 3.965 3.25 6.955 7.8 8.775 11.7 2.21 4.81-10.205 24.635-22.945 27.755-12.74 3.12-30.03 7.345-42.315 9.425M729.54 189.725l5.655 47.905M809.295 190.44c-.845-4.355-.65-15.925 4.615-18.915 5.33-2.99 29.51-5.395 33.345-5.655 3.835-.26 4.615 13.65.975 16.64s-28.925 5.98-38.935 7.93ZM832.825 203.245c10.01 2.925 51.545 2.21 77.025 3.575M822.295 307.18c-7.735-4.03-19.175-38.415-19.825-47.84-.65-9.425 8.775-26.455 29.445-33.215 20.67-6.76 50.31-7.995 66.82-6.825"/><path d="M802.665 255.57c16.25 3.055 42.38 7.93 54.665 10.725M493.98 377.705c.325 4.81 2.015 10.53 4.355 13.845.845 1.17 2.275 1.755 3.64 1.495 9.295-1.82 15.795-4.095 19.63-6.24 1.17-.65 1.95-1.885 1.885-3.25-.065-4.225-2.275-10.205-4.55-13.65-.78-1.235-2.275-1.82-3.705-1.56-7.085 1.365-13.845 3.51-19.045 5.72-1.43.65-2.34 2.145-2.21 3.64ZM524.205 362.235c3.64 4.81 6.435 11.31 8.32 15.535.715 1.56 2.405 2.47 4.095 2.08 2.665-.585 5.655-2.08 8.125-3.835 1.43-1.04 1.95-2.86 1.235-4.485-2.6-5.72-8.06-12.74-10.92-15.86-.845-.91-2.145-1.365-3.38-1.105a24.62 24.62 0 0 0-6.24 2.275c-1.95.975-2.6 3.575-1.235 5.395Z"/><path d="M457.775 470.395c-1.755-3.835-.13-6.565 5.655-9.49 5.785-2.86 9.49-4.745 11.83-7.865s-1.82-10.985-4.16-14.56c-2.34-3.575-12.48-25.805-13.325-29.965-.78-4.16.585-8.125 7.28-10.855 6.695-2.73 22.945-8.19 30.875-10.855M514.585 389.86c3.575 6.045 16.185 23.4 20.345 27.56s11.505 4.42 15.275 2.535c3.835-1.82 11.115-5.33 18.135-1.3 7.085 4.03 20.67 17.81 30.03 23.4M529.99 537.215c6.76 5.33 19.76 8.19 31.915 4.225 6.175-2.015 23.985-11.895 23.985-11.895M554.625 322.975c-.13 15.6 6.045 48.295 25.935 68.185s33.735 26 46.28 31.135"/></g><defs><clipPath id="a"><path fill="#fff" d="M0 0h1008v756H0z"/></clipPath></defs></svg>