<svg width="500" height="375" fill="none" xmlns="http://www.w3.org/2000/svg"><path d="M10.531 96.47s37.3-5.81 48.3-7.34l78.73-48.77 13.14-4.89s82.9-17.07 196.63-6.07c0 0 66.61 7.3 78.53 11.27l3.56 4.89v10.89l34.35 32.83a71.036 71.036 0 0 1 17.81 12.23l9.86 5v3.44l-2.75 5-.23 12.61-3.21 8 5.05 16.28s-5.28 25.68-6.19 29.81l-6.65 13.75-14 10.4" stroke="#fff" stroke-miterlimit="10"/><path d="m426.421 163.58 14.12 5.73a44.405 44.405 0 0 1 15.14 10.7c12.69 12.56 9.66 38.74-7.41 60-17.82 22.16-43.56 29-58.9 18.72l-22.21-18.58-2.52-6.25" stroke="#fff" stroke-miterlimit="10"/><path d="M443.045 236.667c13.953-16.999 15.803-38.545 4.132-48.125-11.672-9.58-32.444-3.566-46.397 13.433-13.953 16.999-15.803 38.545-4.132 48.125 11.671 9.58 32.444 3.566 46.397-13.433Z" stroke="#fff" stroke-miterlimit="10"/><path d="M463.481 195.98s9.85-37.6-28.44-35.19c0 0-48.39 9.74-65.35 65.46 0 0-4.93 9.4-7.69 10.78l-306.68 65.12s-16.31-46.32-45.38-58.7" stroke="#fff" stroke-miterlimit="10"/><path d="M9.941 355.58s19-16.74 22.68-23.62c0 0 15.41-34.71 12.75-51.29M9.941 231.41s27.68 9.21 46.33 41.62l311.85-63.9s7.95-19.24 18-28.73M137.56 40.36s21.63 4.74 23.23 7c0 0-72.46 39.44-124.74 82.09l-21.7 4L9 131.62" stroke="#fff" stroke-miterlimit="10"/><path d="M58.83 89.13s-39.74 24.77-42.65 27.36c0 0-10.24 8.41-1.83 17" stroke="#fff" stroke-miterlimit="10"/><path d="M53.141 92.68s-38.36 8.68-43.2 15.22M465.859 90.32c.9 2.45-1.25 1.79-1.25 1.79l-36.22-32.56c-12.39-14-55.27-17.2-55.27-17.2-158.67-13.3-207.43 12.08-207.43 12.08-46.48 24.76-110.68 80.71-110.68 80.71l-5.5 14.37-2.14 26.6s5 62.66 20.08 94.62l-.52 6 9.75 20.91" stroke="#fff" stroke-miterlimit="10"/><path d="M51.611 144.03s30.61-3.54 35.65-3.23c0 0 28.59 2.14 37.76.92l3.52-2.6V122s-12.08-13.92-16.82-17h-3.36s-25.68 10.09-26.6 15.28l.31 2.3 5.35 9.47-32.41 3.06M277.94 38.5s1.91 55.67-2.45 75.62l1.43 8.49s-2.8 72.91-5.55 94l-3.8 13.12 3.29 17.17-2.56 10M371.711 42.23s39.94 46.67 45 55.38l5.23 5.29v3l7.61 10.78a112.154 112.154 0 0 1-5.27 37.83M481.582 101.51s-9.09 3.06-11.23 5.66v5s9.48 16.05 11.23 17.58c0 0 5.28-.46 6.88-2.14" stroke="#fff" stroke-miterlimit="10"/><path d="M418.221 156.24c.46-.16 39.75-16.86 52.89 10.68 0 0 4.13 8.12 2.75 24 0 0 5.81-.46 10.25-9.17M236.462 154.36s-8.94 3.44-9.86 4.36v4.59s31 2.06 41.62-6.31v-4.93s-7.91-1.14-12.5 0c0 0 1.2 2 1 3.21a34.16 34.16 0 0 1-18 2.27 3.495 3.495 0 0 1-2.26-3.19ZM397.942 129.9s1.68 4.21 8.33 3.6c0 0 7.49-.32 8.87-1.77 0 0 .3-1.14-2.3-3.35 0 0 6.81-.69 8 0l1.53 1.91-.69 3.67a57.926 57.926 0 0 1-31.11 3.36s-.53-2.8.84-4.23a29.338 29.338 0 0 1 6.53-3.19ZM128.539 131.47s277.76-31.95 288.15-33.86" stroke="#fff" stroke-miterlimit="10"/></svg>
