<svg width="500" height="375" fill="none" xmlns="http://www.w3.org/2000/svg"><path d="M126.5 86.5s34-69 55-75c0 0 77-13 142 2 0 0 22.54 13 51.27 73 0 0 9.73 15 17.73 18 0 0 56 38 63 66l6.63 20 6.37 40-1 6-7 26-12 22s2 17 2 20l-1 6s-18 25-25 28l-11 2s-14 13-29 16c0 0-104 27-274-2 0 0-15-6-22-14l-10-1s-24-16-27-32V284l-12-24.53-8-29 10-49 3-12s13-35 70-70c0 .03 9-6.97 12-12.97Z" stroke="#fff" stroke-miterlimit="10"/><path d="M102.5 69.5v-2.16s13-11.84 26-7.84c0 0 2 9 2 14a61.192 61.192 0 0 1-4 6s-21 4-24-10ZM120.25 80.03l6.25 6.47M130.11 74.14l1.76 1.99M369.5 73.5l4 6s17 3 24-6l1-6s-13-12-27-8c0 0-1 6-2 14Z" stroke="#fff" stroke-miterlimit="10"/><path d="M380.5 80s-5.07 5.25-6 5.89M370.11 74.42l-.61 1.02M167.56 21.77s71.32-9.53 166.63 1.1M127.37 84.77l8.13 2.73s125 4 231 0l7.34-2.9M123.5 239.5s59.18 11 255.09 0c0 0 40.91 27 41.91 30 0 0-37 57-50 68l-7 3s-135.15 15-223.07 0l-9.93-4s-45-51-48-66c0 0 35-28 41-31ZM41.5 181.5s2 20 82 58M31.5 230.5s23 28 51 40" stroke="#fff" stroke-miterlimit="10"/><path d="M34.94 213.63S43.5 235.5 76.5 251.5c0 0 29-7.24 39.5-15.62M378.59 239.5s67.08-29.38 81-56.69M420.5 269.5s40-21.36 48-37.68" stroke="#fff" stroke-miterlimit="10"/><path d="M386.19 236s28.31 17.5 38.31 16.5c0 0 39.5-21.57 41.25-39.28M88.5 340.5H126s105.52 24 258 0l30.54-.19M172.5 298.5l157-1-2 34s-104 7-153-2l-2-31Z" stroke="#fff" stroke-miterlimit="10"/></svg>
