<svg width="500" height="375" fill="none" xmlns="http://www.w3.org/2000/svg"><path d="m7.25 106.17 30.25-3.67s68-47 101-56c0 0 100-38 274 8 0 0 34 11.58 80.5 38.29M7.25 294.57S44.5 307.5 56.5 359.5c0 0 339-134 344-132 0 0 24-77 61-84 0 0 25.6-5.91 16.22 29.18" stroke="#fff" stroke-miterlimit="10"/><path d="M36.7 317.39s1.2 35.83 0 40.47c0 0-1.89 11-4 11.81M453.81 146c6.32-.5 15.71 4.51 15.71 4.51 11.68 5.86 10.92 31-1.71 56.18-11.53 23-29 38-40.8 36l-7.51-2.2-22-10" stroke="#fff" stroke-miterlimit="10"/><path d="M474 191.71s10.5-11.21 13.5-17.21l5.25-10.05M122.5 146.5s16-17 35-23h8.72s19.2 10 29.24 23v11.3l-1 2.7s-16 7-33 5c0 0-23-1-33-9 .04 0-6.96-7-5.96-10Z" stroke="#fff" stroke-miterlimit="10"/><path d="M126 153.71s3.51 12.79 16.51 17.79l16.43-2.12 3-3.52M135.55 47.37s40.95 4.13 61.95 9.13c0 0-92 47-147 104 0 0-35.58.33-44.29-11.33" stroke="#fff" stroke-miterlimit="10"/><path d="M122.5 146.5s29.92 12 73 0l226-44c4-1 25-12 25-12l6-5.74V81.5c-120-61-233-22-233-22-60 21-143.28 106.36-143.28 106.36l1.28 1.64 50.39-9.28M76.22 166.86S67.5 186.5 66.5 195.5l1 24s16 95 31 112M50.5 160.5s-20 20.38-43.5 32.19" stroke="#fff" stroke-miterlimit="10"/><path d="M388.79 57.42S414.5 98.5 414.5 100.5c0 0 5 0 7 2l16.15 15.28s8.85 20.72-38.15 86.72c0 0-11 14-16 16 0 0-311 119.11-317 125.05l-12.7 4.11" stroke="#fff" stroke-miterlimit="10"/><path d="M303.23 47.22s11.43 57.46 7.35 76.87l2.92 34.41s-4 49-9 62l2 8v4l.88 17.28" stroke="#fff" stroke-miterlimit="10"/><path d="m273.5 162.5 5 3h4s11-2 12-3l1-2-2-3s6-2 10-2l4 4-1 4-1 1s-31 9-36 9h-2.84l-2.16-3 2-5s4-3 7-3ZM405.5 133.5s-5 1-5 4c0 0 0 3 2 4 0 0 15-1 24-4l2-3v-1l-2-3s-5-1-8 0l3 3-1 1s-12 2-15-1Z" stroke="#fff" stroke-miterlimit="10"/></svg>
