<svg width="500" height="375" viewBox="0 0 500 375" fill="none" xmlns="http://www.w3.org/2000/svg">
<path d="M231.18 7C231.18 7 278.42 33.75 287.13 43.41C287.13 43.41 423.89 55.79 460.94 81.93C460.94 81.93 469.66 104.86 468.74 122.29L478.37 127.79L487.54 158.97L477.45 224.55C477.45 224.55 442.14 283.25 368.31 318.55C368.31 318.55 222.01 342.85 199.54 342.39C199.54 342.39 163.77 341.48 149.1 319.46C149.1 319.46 90.85 133.27 52.79 131.9C52.79 131.9 11.52 123.64 44.54 223.62L45.91 229.62L12 203.46" stroke="white" stroke-miterlimit="10"/>
<path d="M107.553 348.3C120.395 344.383 119.642 304.602 105.871 259.446C92.0996 214.29 70.5253 180.858 57.6832 184.775C44.8411 188.691 45.5942 228.472 59.3653 273.629C73.1365 318.785 94.7108 352.216 107.553 348.3Z" stroke="white" stroke-miterlimit="10"/>
<path d="M78.5389 153.54L58.8989 157.14L50.3389 163.25C50.3389 163.25 39.6389 183.43 47.5889 232.65C47.5889 232.65 65.5889 336.45 111.489 365.8L124.789 368.55L177.789 338.63" stroke="white" stroke-miterlimit="10"/>
<path d="M41.7793 7L47.9993 24.6C47.9993 24.6 206.7 32.69 287.16 43.41" stroke="white" stroke-miterlimit="10"/>
<path d="M116.08 91.5596L126.17 88.3496L344.46 103.02L349.46 111.74L312.32 162.18C312.32 162.18 162.39 150.75 142.22 138.75L116.08 99.7496V91.5596Z" stroke="white" stroke-miterlimit="10"/>
<path d="M344.461 103.02C344.461 103.02 458.301 100.75 464.661 93.6299" stroke="white" stroke-miterlimit="10"/>
<path d="M468.739 122.29L476.079 146.13C476.079 146.13 457.269 165.87 370.599 189.25L312.359 162.18" stroke="white" stroke-miterlimit="10"/>
<path d="M481.731 166.31L425.171 197.19L420.891 234.79L478.681 194.74L481.731 166.31Z" stroke="white" stroke-miterlimit="10"/>
<path d="M422.091 224.29C422.011 225 385.091 239.69 382.681 243.66C382.681 243.66 298.121 327.74 274.211 333.4" stroke="white" stroke-miterlimit="10"/>
<path d="M50.6504 25.2002C50.6504 25.2002 54.6504 36.6802 53.1004 43.4102C53.1004 43.4102 140.86 45.2501 192.21 92.7901" stroke="white" stroke-miterlimit="10"/>
</svg>
