<svg width="500" height="375" fill="none" xmlns="http://www.w3.org/2000/svg"><path d="M231.18 7s47.24 26.75 55.95 36.41c0 0 136.76 12.38 173.81 38.52 0 0 8.72 22.93 7.8 40.36l9.63 5.5 9.17 31.18-10.09 65.58s-35.31 58.7-109.14 94c0 0-146.3 24.3-168.77 23.84 0 0-35.77-.91-50.44-22.93 0 0-58.25-186.19-96.31-187.56 0 0-41.27-8.26-8.25 91.72l1.37 6L12 203.46" stroke="#fff" stroke-miterlimit="10"/><path d="M107.553 348.3c12.842-3.917 12.089-43.698-1.682-88.854s-35.346-78.588-48.188-74.671c-12.842 3.916-12.089 43.697 1.682 88.854 13.771 45.156 35.346 78.587 48.188 74.671Z" stroke="#fff" stroke-miterlimit="10"/><path d="m78.539 153.54-19.64 3.6-8.56 6.11s-10.7 20.18-2.75 69.4c0 0 18 103.8 63.9 133.15l13.3 2.75 53-29.92M41.78 7 48 24.6s158.7 8.09 239.16 18.81M116.08 91.56l10.09-3.21 218.29 14.67 5 8.72-37.14 50.44s-149.93-11.43-170.1-23.43l-26.14-39v-8.19ZM344.461 103.02s113.84-2.27 120.2-9.39M468.739 122.29l7.34 23.84s-18.81 19.74-105.48 43.12l-58.24-27.07M481.731 166.31l-56.56 30.88-4.28 37.6 57.79-40.05 3.05-28.43Z" stroke="#fff" stroke-miterlimit="10"/><path d="M422.091 224.29c-.08.71-37 15.4-39.41 19.37 0 0-84.56 84.08-108.47 89.74M50.65 25.2s4 11.48 2.45 18.21c0 0 87.76 1.84 139.11 49.38" stroke="#fff" stroke-miterlimit="10"/></svg>
