<svg width="500" height="375" viewBox="0 0 500 375" fill="none" xmlns="http://www.w3.org/2000/svg">
<path d="M166.611 5L139.091 40.88C139.091 40.88 108.361 54.41 110.201 82.14C110.201 82.14 48.981 173.86 47.601 182.14C47.601 182.14 20.081 196.35 14.811 216.99L7.04102 235.78" stroke="white" stroke-miterlimit="10"/>
<path d="M14.8105 216.98C14.8105 216.98 29.0405 197.49 17.3305 280.5L16.8705 285.5L20.0405 309.62L463.28 154.62C463.28 154.62 400.04 25.08 409.21 5" stroke="white" stroke-miterlimit="10"/>
<path d="M119.72 80.3202C119.72 80.3202 113.98 74.5902 113.98 73.4402V70.3402C113.98 70.3402 121.98 58.3402 124.76 57.1602H127.51L132.79 60.4802" stroke="white" stroke-miterlimit="10"/>
<path d="M19.4102 264.65C19.4102 264.65 201.92 72.77 292.72 5" stroke="white" stroke-miterlimit="10"/>
<path d="M20.0391 309.62C21.4091 309.14 60.3991 309.62 60.3991 309.62" stroke="white" stroke-miterlimit="10"/>
<path d="M50.28 309.51C50.28 309.51 48.04 341.14 26.5 369.5" stroke="white" stroke-miterlimit="10"/>
<path d="M7.81055 249.69C7.81055 249.69 14.8106 239.15 13.8906 252.45C13.8906 252.45 11.2106 271.1 7.81055 281.8" stroke="white" stroke-miterlimit="10"/>
<path d="M21.82 226.01C21.82 226.38 15.7 227.83 7 247.4" stroke="white" stroke-miterlimit="10"/>
<path d="M47.8496 323.57L209.56 329.49" stroke="white" stroke-miterlimit="10"/>
<path d="M95.38 104.56V98.1404L84.86 87.6604C84.86 87.6604 59.18 75.2704 53.79 75.6604C53.79 75.6604 49.09 86.1404 50.01 90.1304C50.01 90.1304 50.01 106.61 71.01 122.66C71.01 122.66 77.07 128.4 77.88 131.49" stroke="white" stroke-miterlimit="10"/>
<path d="M54.9391 79.4004C54.9391 79.4004 84.1691 86.0504 92.0391 100.14C92.0391 100.14 86.6591 115.51 84.1291 117.57C84.1291 117.57 53.5191 99.3404 53.2891 89.4804C53.3291 89.4904 53.0391 81.2404 54.9391 79.4004Z" stroke="white" stroke-miterlimit="10"/>
<path d="M154.331 21.0098C154.331 21.0098 149.941 35.0698 148.111 39.3498C148.111 39.3498 133.741 77.5698 130.681 127.1C130.681 127.1 130.991 140.85 109.891 164.7L106.531 168.06L99.8009 209.64L95.3809 214.53C95.3809 214.53 115.251 251.17 121.381 249.79" stroke="white" stroke-miterlimit="10"/>
<path d="M18.6602 298.93L437.59 98.4902" stroke="white" stroke-miterlimit="10"/>
<path d="M192.51 328.87C192.51 328.87 235.4 323.99 252.82 323.57L282.17 324.52L492.17 311.91" stroke="white" stroke-miterlimit="10"/>
<path d="M209.561 327.04C209.561 327.04 209.371 359.49 230.701 365.04H256.701C256.701 365.04 277.801 358.28 282.151 324.57" stroke="white" stroke-miterlimit="10"/>
<path d="M255.499 323.66C254.569 340.58 245.359 353.87 234.139 353.87C223.589 353.87 214.819 342.14 213.029 326.69" stroke="white" stroke-miterlimit="10"/>
</svg>
