<svg width="500" height="375" viewBox="0 0 500 375" fill="none" xmlns="http://www.w3.org/2000/svg">
<path d="M28.4302 369.8C28.4574 369.792 28.4813 369.776 28.4983 369.753C28.5153 369.731 28.5245 369.703 28.5245 369.675C28.5245 369.647 28.5153 369.619 28.4983 369.597C28.4813 369.574 28.4574 369.558 28.4302 369.55C28.4031 369.558 28.3792 369.574 28.3622 369.597C28.3451 369.619 28.3359 369.647 28.3359 369.675C28.3359 369.703 28.3451 369.731 28.3622 369.753C28.3792 369.776 28.4031 369.792 28.4302 369.8V369.8Z" fill="white"/>
<path d="M8.51367 7.93C8.51367 7.93 43.5737 112.75 46.5137 118.22L51.3237 124.41H54.7637C54.7637 124.41 65.7637 110.2 79.0737 102.41C79.0737 102.41 241.414 41.87 404.674 106.08C404.674 106.08 416.604 112.27 420.504 120.3V127.17L426.234 124.88C426.234 124.88 451.514 25.46 455.624 5" stroke="white" stroke-miterlimit="10"/>
<path d="M45.5837 115.95C45.5837 115.95 10.8337 161.33 8.51367 167.75" stroke="white" stroke-miterlimit="10"/>
<path d="M429.634 111.55C429.634 111.55 481.584 191.37 494.514 240.44" stroke="white" stroke-miterlimit="10"/>
<path d="M8.51367 323.29C8.51367 323.29 47.7737 333.95 65.2037 351.75L69.5137 363.65V369.5" stroke="white" stroke-miterlimit="10"/>
<path d="M494.513 315.04C494.513 315.04 408.513 324.82 392.033 350.2L386.513 358.45L384.983 369.5" stroke="white" stroke-miterlimit="10"/>
<path d="M386.934 118.81C397.164 117.97 407.404 117.02 417.594 115.95" stroke="white" stroke-miterlimit="10"/>
<path d="M380.983 119.29L386.933 118.81" stroke="white" stroke-miterlimit="10"/>
<path d="M60.9434 117.4C60.9434 117.4 220.273 131.81 380.943 119.29" stroke="white" stroke-miterlimit="10"/>
<path d="M57.7635 345.45L62.3635 341.14C62.7235 340.8 63.1135 340.48 63.4435 340.14C63.6135 339.96 64.1435 339.67 63.6835 339.76C63.6835 339.76 63.6835 339.76 63.7535 339.76C64.2312 339.778 64.7048 339.855 65.1635 339.99C67.9035 340.42 70.6435 340.79 73.3935 341.14C78.5535 341.81 83.7235 342.39 88.8935 342.91C96.4868 343.683 104.08 344.35 111.673 344.91C121.673 345.65 131.697 346.243 141.743 346.69C154.197 347.257 166.65 347.65 179.103 347.87C193.977 348.15 208.853 348.213 223.733 348.06C241.067 347.893 258.377 347.483 275.663 346.83C295.417 346.097 315.15 345.097 334.863 343.83C345.65 343.163 356.43 342.39 367.203 341.51C372.823 341.07 378.44 340.607 384.053 340.12L386.053 339.95C386.575 339.83 387.109 339.776 387.643 339.79C387.905 339.931 388.144 340.11 388.353 340.32L391.193 342.41L395.833 345.83C396.093 346.02 396.343 345.59 396.093 345.4L391.313 341.88L388.513 339.75C387.513 339.03 386.733 339.38 385.443 339.49C374.343 340.443 363.237 341.323 352.123 342.13C331.663 343.61 311.18 344.81 290.673 345.73C272.573 346.537 254.46 347.093 236.333 347.4C220.76 347.66 205.19 347.707 189.623 347.54C176.503 347.393 163.387 347.06 150.273 346.54C139.603 346.12 128.943 345.54 118.273 344.86C110.053 344.313 101.843 343.647 93.6435 342.86C87.8702 342.32 82.1102 341.7 76.3635 341C73.0435 340.6 69.7235 340.16 66.3635 339.66C65.6535 339.55 64.9335 339.39 64.2235 339.32C63.1635 339.23 62.6835 340.14 61.8935 340.89L57.4035 345.1C57.1635 345.32 57.5235 345.67 57.7535 345.45H57.7635Z" fill="white"/>
<path d="M63.6237 339.75C66.6837 341.526 69.4807 343.72 71.9337 346.27C72.811 347.178 73.5795 348.184 74.2237 349.27C74.5237 349.8 74.6937 350.36 74.9437 350.9C75.1137 351.25 75.1237 351.08 75.0237 351.33C74.6727 351.89 74.2527 352.404 73.7737 352.86C73.1337 353.67 72.5137 354.49 71.9137 355.33C70.5737 357.19 68.9937 359.33 68.5037 361.58C68.4337 361.9 68.9237 362.03 68.9837 361.72C69.4537 359.51 70.9837 357.48 72.2737 355.72C72.9637 354.72 73.6837 353.81 74.4237 352.88C74.805 352.493 75.1405 352.064 75.4237 351.6C75.6637 351.08 75.2237 350.31 74.9837 349.8C74.487 348.773 73.8584 347.815 73.1137 346.95C71.4712 345.055 69.6118 343.36 67.5737 341.9C66.3687 340.992 65.117 340.147 63.8237 339.37C63.7673 339.344 63.7034 339.341 63.6445 339.36C63.5855 339.379 63.5357 339.419 63.5046 339.472C63.4735 339.526 63.4633 339.589 63.4761 339.649C63.4888 339.71 63.5236 339.764 63.5737 339.8L63.6237 339.75Z" fill="white"/>
<path d="M386.154 358.03L381.994 366.24L382.454 366.36C382.114 364.048 381.44 361.798 380.454 359.68C379.454 357.32 378.294 355.02 377.074 352.76C376.724 352.11 376.364 351.46 375.994 350.82C375.994 350.74 375.754 350.51 375.764 350.41C376.04 349.954 376.351 349.519 376.694 349.11C378.608 346.587 380.91 344.383 383.514 342.58C384.92 341.534 386.389 340.575 387.914 339.71C388.194 339.56 387.914 339.12 387.664 339.28C383.759 341.38 380.261 344.16 377.334 347.49C376.883 348.012 376.462 348.56 376.074 349.13C375.844 349.46 375.244 350.13 375.274 350.53C375.304 350.93 375.644 351.22 375.784 351.46C376.904 353.46 377.954 355.483 378.934 357.53C380.244 360.29 381.654 363.29 381.994 366.36C381.994 366.58 382.344 366.73 382.464 366.49L386.634 358.28C386.774 357.99 386.344 357.74 386.194 358.03H386.154Z" fill="white"/>
<path d="M75.3333 351.55C81.3333 352.11 87.3333 352.55 93.3333 353.02C109.173 354.2 125.03 355.18 140.903 355.96C163.383 357.08 185.88 357.823 208.393 358.19C234.393 358.6 260.493 358.46 286.523 357.56C313.123 356.65 339.713 354.95 366.153 351.9C369.273 351.54 372.403 351.15 375.523 350.75C375.833 350.75 375.843 350.21 375.523 350.25C349.263 353.63 322.833 355.57 296.393 356.68C269.953 357.79 243.713 358.09 217.393 357.81C194.293 357.563 171.207 356.897 148.133 355.81C131.333 355.03 114.547 354.03 97.7733 352.81C92.6933 352.45 87.6167 352.06 82.5433 351.64L77.9833 351.26C77.2246 351.121 76.4548 351.05 75.6833 351.05C75.5869 351.06 75.4897 351.06 75.3933 351.05C75.0733 351.05 75.0733 351.52 75.3933 351.55H75.3333Z" fill="white"/>
<path d="M39.7836 91.42L36.6636 101.01C34.1303 108.79 31.6036 116.57 29.0836 124.35C25.977 133.95 22.8703 143.557 19.7636 153.17C16.9303 161.983 14.1003 170.797 11.2736 179.61C9.60364 184.86 7.88364 190.11 6.33364 195.4C6.25364 195.67 6.17364 195.94 6.10364 196.21C5.23364 199.31 10.1036 200.64 10.9236 197.54C12.2236 192.86 13.7736 188.24 15.2436 183.62C17.957 175.087 20.6903 166.563 23.4436 158.05C26.5503 148.397 29.6703 138.73 32.8036 129.05C35.4703 120.89 38.117 112.733 40.7436 104.58C42.0036 100.75 43.5136 96.86 44.5136 92.91C44.5243 92.855 44.541 92.8013 44.5636 92.75C45.5636 89.68 40.7336 88.37 39.7436 91.42H39.7836Z" fill="white"/>
<path d="M461.094 198.65L458.094 187.48L451.004 160.67L442.514 128.36L435.104 100.36C433.904 95.84 432.864 91.24 431.504 86.77C431.504 86.71 431.504 86.64 431.454 86.57C430.634 83.47 425.804 84.78 426.634 87.9L429.584 99.07L436.684 125.89L445.224 158.2L452.644 186.2C453.834 190.72 454.874 195.32 456.234 199.79C456.254 199.856 456.27 199.923 456.284 199.99C457.114 203.1 461.934 201.78 461.114 198.66L461.094 198.65Z" fill="white"/>
<path d="M8.01367 282.17C8.25367 286.54 16.4737 288.02 19.6137 288.79C23.6137 289.79 28.1837 291.01 32.3837 290.89C38.827 290.865 45.2628 291.336 51.6337 292.3C59.4737 293.3 67.2937 294.55 75.0837 295.9C81.017 296.933 86.937 298.03 92.8437 299.19C94.5092 299.66 96.2244 299.932 97.9537 300C101.654 299.82 105.714 299.64 109.534 299.57C128.734 299.23 147.944 299.28 167.144 299.28C193.357 299.28 219.56 299.353 245.754 299.5C268.754 299.613 291.754 299.743 314.754 299.89C324.754 299.95 334.834 300.13 344.884 300.1C355.462 299.909 366.006 298.829 376.404 296.87C379.614 296.31 382.824 295.69 386.014 295C389.454 294.25 393.014 294.37 396.524 294.19C412.754 293.34 429.254 292.29 445.184 288.86C450.324 287.75 456.994 286.55 461.084 282.86C462.564 281.53 462.324 280.26 463.034 278.67C464.812 274.733 467.454 271.246 470.764 268.47C471.764 267.62 471.764 267.29 471.494 265.99C470.73 262.616 469.748 259.296 468.554 256.05C464.714 244.73 460.304 233.6 455.884 222.5C447.334 201.01 438.424 179.65 429.374 158.35C428.814 157.03 428.254 155.72 427.684 154.4C427.64 154.324 427.577 154.262 427.502 154.218C427.427 154.174 427.341 154.151 427.254 154.15C403.644 151.79 379.804 151.3 356.094 150.84C323.824 150.22 291.544 150.19 259.274 150.36C226.034 150.533 192.8 150.92 159.574 151.52C132.974 151.98 106.377 152.53 79.7837 153.17C71.3837 153.37 62.9837 153.583 54.5837 153.81C50.7237 153.91 46.5337 153.57 42.7037 154.14C42.5372 154.15 42.3702 154.15 42.2037 154.14C42.116 154.138 42.0296 154.161 41.9538 154.205C41.878 154.249 41.8157 154.313 41.7737 154.39C31.8737 173.05 22.0237 191.81 13.2037 211.01C11.3137 215.11 9.13367 219.35 8.04367 223.76C7.88367 224.38 8.85367 224.65 9.04367 224.02C9.94336 220.926 11.1077 217.915 12.5237 215.02C14.5237 210.47 16.6837 205.97 18.8637 201.5C23.8637 191.15 29.1237 180.91 34.4137 170.69C36.347 166.963 38.287 163.24 40.2337 159.52C40.919 157.916 41.7351 156.37 42.6737 154.9C42.3337 155.34 42.0737 155.09 42.5337 155.13C42.8201 155.145 43.1072 155.145 43.3937 155.13L46.8637 155.03C57.9637 154.717 69.0603 154.43 80.1537 154.17C99.2603 153.71 118.374 153.297 137.494 152.93C161.494 152.47 185.494 152.093 209.494 151.8C235.054 151.5 260.61 151.33 286.164 151.29C309.964 151.29 333.764 151.41 357.554 151.88C376.454 152.26 395.384 152.78 414.254 154.08C417.884 154.33 421.514 154.61 425.134 154.95C425.524 154.95 427.264 155.22 426.894 154.95C426.954 155.01 426.954 155.15 427.004 155.22C427.282 155.706 427.503 156.223 427.664 156.76C430.244 162.807 432.807 168.87 435.354 174.95C443.894 195.3 452.354 215.7 460.274 236.29C463.394 244.38 466.534 252.5 469.104 260.79C469.504 262.07 469.884 263.36 470.214 264.66C470.344 265.16 470.464 265.66 470.564 266.15C470.564 266.38 470.824 267.56 470.904 267.25C470.984 266.94 470.194 267.76 469.904 268.01C468.901 268.881 467.952 269.813 467.064 270.8C464.894 273.22 462.304 276.49 461.674 279.8C461.534 280.55 461.754 280.86 460.914 281.8C458.474 284.52 453.914 285.65 450.604 286.59C440.464 289.45 429.824 290.59 419.364 291.59C410.364 292.45 401.364 293.01 392.304 293.43C390.218 293.443 388.137 293.634 386.084 294C383.674 294.53 381.254 295 378.824 295.46C367.424 297.57 355.754 299.17 344.144 299.12C340.954 299.12 337.764 299.12 334.574 299.05L290.704 298.75C269.844 298.63 248.987 298.527 228.134 298.44C206.6 298.347 185.074 298.297 163.554 298.29C147.154 298.29 130.744 298.29 114.344 298.51C109.854 298.57 105.344 298.62 100.884 298.82C99.8837 298.82 98.8337 298.94 97.8037 299.03C97.1937 299.09 97.6737 299.11 97.3937 299.09C96.4837 299 95.5537 298.71 94.6537 298.54C84.3637 296.54 74.0237 294.63 63.6537 293.02C57.4537 292.02 51.2437 291.18 44.9937 290.56C40.4337 290.1 35.9237 290.14 31.3737 289.93C27.7024 289.608 24.0677 288.955 20.5137 287.98C18.0341 287.447 15.6051 286.701 13.2537 285.75C11.7937 285.13 9.11367 284.05 9.01367 282.16C9.01367 281.52 8.01367 281.52 8.01367 282.16V282.17Z" fill="white"/>
<path d="M440.744 67.75C445.844 67.33 450.964 66.95 456.084 66.75C457.354 66.69 458.634 66.63 459.914 66.63C460.3 66.5949 460.688 66.5949 461.074 66.63C460.984 66.63 460.834 66.4 461.014 66.63C461.194 66.86 461.334 66.98 461.464 67.18C461.898 67.8577 462.131 68.645 462.134 69.45C462.029 70.434 461.842 71.4074 461.574 72.36C461.529 73.0459 461.529 73.734 461.574 74.42V83.17C461.574 84.24 461.574 85.31 461.574 86.39C461.574 86.93 461.574 86.79 461.304 87.39C460.614 88.7698 459.667 90.0053 458.514 91.03C457.262 92.2387 455.798 93.2051 454.194 93.88C452.144 94.58 450.004 95.08 447.914 95.64C442.734 97.0466 437.544 98.4166 432.344 99.75C432.211 99.7858 432.098 99.8728 432.03 99.9919C431.961 100.111 431.943 100.252 431.979 100.385C432.015 100.518 432.102 100.631 432.221 100.699C432.34 100.767 432.481 100.786 432.614 100.75C437.381 99.5033 442.144 98.2366 446.904 96.95C449.344 96.29 451.804 95.67 454.214 94.95C457.26 93.8187 459.846 91.7084 461.564 88.95C462.35 87.7724 462.703 86.3588 462.564 84.95V75.75C462.564 74.75 462.484 73.64 462.564 72.61C462.694 71.12 463.324 69.86 462.994 68.3C462.839 67.3059 462.331 66.4007 461.564 65.75C460.762 65.4842 459.906 65.4223 459.074 65.57C452.954 65.69 446.834 66.23 440.744 66.73C440.104 66.78 440.104 67.78 440.744 67.73V67.75Z" fill="white"/>
<path d="M28.6835 68C27.7935 68.48 26.9135 69 26.0535 69.54C25.0535 70.18 23.5135 71 22.8835 72.09C22.6555 72.6147 22.53 73.1781 22.5135 73.75C22.3535 75.1366 22.2335 76.5266 22.1535 77.92C21.7957 81.4807 21.9812 85.075 22.7035 88.58C22.7309 88.9105 22.8544 89.2257 23.0587 89.4869C23.2631 89.7481 23.5393 89.9438 23.8535 90.05C24.9735 90.64 26.1135 91.2 27.2635 91.73C30.6335 93.3 34.2635 94.93 37.9835 95.33C38.6135 95.4 38.6135 94.39 37.9835 94.33C34.7996 93.8102 31.7161 92.7981 28.8435 91.33C27.6435 90.79 26.4635 90.23 25.2935 89.64C24.7121 89.4438 24.1653 89.1569 23.6735 88.79C23.8735 89.04 23.6735 88.2 23.6735 88.14C23.5935 87.8 23.5235 87.4666 23.4635 87.14C23.3103 86.2397 23.2068 85.3316 23.1535 84.42C23.0671 82.7544 23.0671 81.0855 23.1535 79.42C23.1535 77.96 23.3135 76.49 23.4535 75.03C23.4402 74.2636 23.5174 73.4983 23.6835 72.75C24.0535 71.75 25.5935 71.02 26.4335 70.48C27.2735 69.94 28.2535 69.36 29.1935 68.86C29.7635 68.56 29.2535 67.69 28.6835 68V68Z" fill="white"/>
<path d="M402.264 117.38C402.264 117.38 315.754 101.48 234.574 102.38C234.574 102.38 128.284 104.96 82.374 119.03" stroke="white" stroke-width="0.35" stroke-miterlimit="10"/>
<path d="M45.6441 228.93L54.8241 224.58L60.6041 221.85C61.115 221.559 61.6464 221.305 62.1941 221.09C62.2641 221.09 62.3641 220.98 62.4341 220.98C62.2141 220.98 62.9641 221.35 63.0841 221.42C64.3641 222.1 66.5141 223.47 67.7341 222.16C69.3241 220.47 70.7341 218.63 72.2441 216.84C72.6032 216.374 72.8867 215.854 73.0841 215.3C73.7141 213.81 74.4041 212.3 75.1341 210.89C77.4956 206.038 80.3829 201.461 83.7441 197.24C85.6046 194.904 87.7174 192.782 90.0441 190.91C91.9481 189.495 94.0042 188.298 96.1741 187.34C103.284 183.95 111.104 182.14 118.784 180.59C123.784 179.59 128.474 178.37 133.514 179.35C136.9 180.044 140.154 181.272 143.154 182.99C145.884 184.52 148.504 186.13 150.154 188.88C151.034 190.39 151.684 192.22 150.894 193.88C150.88 193.899 150.872 193.921 150.871 193.944C150.87 193.968 150.876 193.991 150.887 194.011C150.899 194.031 150.916 194.047 150.937 194.058C150.958 194.068 150.981 194.072 151.004 194.07C152.033 193.986 153.067 194.033 154.084 194.21C154.764 194.37 155.084 194.99 155.504 195.52C156.303 196.701 157.214 197.803 158.224 198.81C158.9 199.259 159.629 199.621 160.394 199.89C162.12 200.633 163.902 201.238 165.724 201.7C171.843 203.193 178.191 203.498 184.424 202.6C186.409 202.249 188.412 202.012 190.424 201.89C191.963 201.842 193.501 201.987 195.004 202.32C196.309 202.706 197.564 203.243 198.744 203.92C200.571 204.867 202.687 205.096 204.674 204.56C207.074 203.8 210.614 202.65 213.004 203.88C213.144 203.96 213.274 203.74 213.124 203.67C210.354 202.23 206.724 203.83 203.974 204.53C201.904 205.05 199.714 204.1 197.974 203.14C195.97 202.145 193.761 201.631 191.524 201.64C187.404 201.53 183.334 202.64 179.224 202.81C174.25 203.041 169.271 202.46 164.484 201.09C163.031 200.666 161.608 200.144 160.224 199.53C159.602 199.297 159.009 198.995 158.454 198.63C157.778 197.968 157.168 197.241 156.634 196.46C156.004 195.69 155.294 194.28 154.304 193.99C153.43 193.81 152.535 193.749 151.644 193.81C151.521 193.82 151.397 193.82 151.274 193.81C150.904 193.65 151.274 194.05 151.274 193.74C151.274 193.43 151.514 192.98 151.544 192.58C151.684 190.72 150.624 188.88 149.544 187.44C148.282 185.935 146.749 184.68 145.024 183.74C142.717 182.27 140.247 181.072 137.664 180.17C134.729 179.08 131.614 178.561 128.484 178.64C126.869 178.788 125.266 179.042 123.684 179.4C120.684 179.93 117.744 180.51 114.794 181.17C108.794 182.52 102.554 184.02 96.9541 186.67C95.1899 187.434 93.4823 188.323 91.8441 189.33C88.3246 191.768 85.2328 194.772 82.6941 198.22C78.6792 203.506 75.3619 209.287 72.8241 215.42C72.1041 217.11 70.5741 218.53 69.3041 220.02C68.7741 220.65 68.2441 221.29 67.6841 221.9C67.1241 222.51 66.2141 222.44 65.3241 222.12C64.5099 221.808 63.7209 221.433 62.9641 221C62.7441 220.88 62.5941 220.73 62.3641 220.74C61.6546 220.948 60.9804 221.262 60.3641 221.67L56.1841 223.67L47.2541 227.9L45.5141 228.75C45.3641 228.82 45.5141 229.04 45.6341 228.97L45.6441 228.93Z" fill="white"/>
<path d="M67.2733 254.75C68.3138 253.608 69.4189 252.526 70.5833 251.51C72.1133 250.31 73.7333 249.22 75.3133 248.09C78.3933 245.85 81.4433 243.56 84.5733 241.39C88.8433 238.44 92.5733 234.77 94.1733 229.71C95.4625 225.809 96.9853 221.988 98.7333 218.27C99.9693 215.403 101.424 212.635 103.083 209.99C104.083 208.4 105.823 205.63 108.003 205.57C108.163 205.57 108.163 205.31 108.003 205.32C106.413 205.32 105.143 206.82 104.223 207.96C102.664 210.04 101.323 212.275 100.223 214.63C98.0146 219.109 96.0713 223.713 94.4033 228.42C93.8943 230.186 93.1899 231.89 92.3033 233.5C90.4442 236.286 88.0679 238.689 85.3033 240.58L76.6633 246.75L70.6633 251.1C69.3909 252.147 68.2038 253.294 67.1133 254.53C67.1022 254.541 67.0933 254.554 67.0873 254.569C67.0812 254.584 67.0781 254.599 67.0781 254.615C67.0781 254.631 67.0812 254.646 67.0873 254.661C67.0933 254.676 67.1022 254.689 67.1133 254.7C67.1245 254.711 67.1378 254.72 67.1523 254.726C67.1669 254.732 67.1825 254.735 67.1983 254.735C67.2141 254.735 67.2298 254.732 67.2443 254.726C67.2589 254.72 67.2722 254.711 67.2833 254.7L67.2733 254.75Z" fill="white"/>
<path d="M124.974 211.52L135.114 211.62L159.474 211.88L188.944 212.19L214.414 212.46L222.774 212.54H225.394C225.845 212.6 226.302 212.6 226.754 212.54C226.813 212.53 226.874 212.53 226.934 212.54C226.961 212.541 226.988 212.532 227.01 212.516C227.031 212.5 227.047 212.476 227.054 212.45C227.964 209.45 230.494 205.79 233.914 205.5C235.794 205.412 237.67 205.732 239.414 206.44C240.414 206.84 242.244 207.53 242.554 208.69C242.969 209.874 243.076 211.144 242.864 212.38C242.859 212.399 242.859 212.418 242.863 212.437C242.867 212.455 242.875 212.473 242.886 212.488C242.898 212.503 242.912 212.516 242.929 212.525C242.946 212.534 242.965 212.539 242.984 212.54H245.934C246.133 212.51 246.335 212.51 246.534 212.54C246.754 212.62 246.404 212.36 246.594 212.61C246.881 213.153 247.096 213.731 247.234 214.33C247.438 214.976 247.5 215.658 247.414 216.33L247.174 227.79L246.574 255.95C246.622 256.616 246.622 257.284 246.574 257.95C246.394 258.526 246.17 259.088 245.904 259.63C245.311 261.087 244.643 262.512 243.904 263.9C243.102 265.49 242.115 266.981 240.964 268.34C240.434 268.94 240.134 269.44 239.364 269.44H225.714C224.093 269.57 222.465 269.57 220.844 269.44C220.614 269.44 220.734 269.44 220.784 269.51C220.718 269.377 220.671 269.236 220.644 269.09C220.436 268.47 220.164 267.874 219.834 267.31C218.81 265.391 217.291 263.782 215.434 262.65C211.964 260.57 206.814 260.12 203.574 262.9C202.534 263.815 201.719 264.958 201.194 266.24C201.036 266.92 200.833 267.588 200.584 268.24C200.494 268.31 200.024 268.24 199.904 268.24H189.334C188.669 268.311 187.999 268.311 187.334 268.24C186.695 267.903 186.095 267.497 185.544 267.03C184.91 266.672 184.323 266.239 183.794 265.74C183.438 265.029 183.124 264.298 182.854 263.55C182.231 262.231 181.516 260.958 180.714 259.74C179.513 257.7 177.726 256.069 175.584 255.06C172.074 253.69 167.814 253.74 164.114 253.71H155.114L124.584 253.52C121.694 253.52 118.794 253.52 115.904 253.46C115.804 253.475 115.703 253.475 115.604 253.46C115.404 253.4 115.724 253.54 115.604 253.46C115.237 253.089 114.924 252.668 114.674 252.21C114.474 251.95 113.904 251.44 113.844 251.11C113.844 251.11 114.044 250.4 114.104 250.2L114.734 247.79C116.104 242.56 117.464 237.32 118.734 232.07C119.218 230.46 119.576 228.815 119.804 227.15C119.924 225.52 119.804 223.87 119.934 222.23C119.994 221.36 120.254 216.06 122.064 216.86C122.134 216.86 122.234 216.86 122.244 216.79C122.534 215.37 123.244 211.66 125.034 211.53C125.194 211.53 125.194 211.27 125.034 211.28C123.954 211.36 123.374 212.58 123.034 213.45C122.76 214.101 122.529 214.769 122.344 215.45C122.344 215.63 122.204 216.58 122.044 216.7C122.294 216.52 121.614 216.51 121.504 216.54C121.232 216.629 121.001 216.814 120.854 217.06C120.306 218.006 119.987 219.068 119.924 220.16C119.594 222.46 119.734 224.74 119.584 227.04C119.32 229.022 118.892 230.979 118.304 232.89C116.904 238.63 115.404 244.35 113.904 250.07C113.746 250.417 113.655 250.79 113.634 251.17C113.634 251.48 114.154 251.88 114.344 252.17C114.534 252.46 115.034 253.41 115.464 253.66C116.077 253.821 116.718 253.852 117.344 253.75L149.974 253.95L163.234 254.04C164.884 254.04 166.534 254.04 168.234 254.18C170.744 254.205 173.236 254.613 175.624 255.39C178.834 256.66 180.884 260.07 182.364 263.02C182.729 264.034 183.167 265.019 183.674 265.97C184.212 266.513 184.829 266.971 185.504 267.33C186.074 267.842 186.722 268.261 187.424 268.57C188.305 268.665 189.193 268.665 190.074 268.57H200.784C200.81 268.568 200.836 268.558 200.857 268.542C200.878 268.526 200.894 268.505 200.904 268.48C201.654 265.48 203.434 262.69 206.534 261.71C208.579 261.158 210.738 261.192 212.764 261.81C214.636 262.363 216.34 263.374 217.723 264.752C219.106 266.129 220.124 267.83 220.684 269.7C220.693 269.725 220.709 269.746 220.731 269.762C220.752 269.778 220.777 269.788 220.804 269.79H237.364C238.208 269.885 239.06 269.885 239.904 269.79C240.904 269.54 241.964 267.79 242.544 266.94C243.811 265.029 244.896 263.004 245.784 260.89C246.264 259.998 246.643 259.056 246.914 258.08C247.017 257.017 247.041 255.947 246.984 254.88L247.164 246.61L247.514 225.35L247.694 216.83C247.734 216.231 247.734 215.629 247.694 215.03C247.489 214.13 247.181 213.258 246.774 212.43C246.766 212.404 246.75 212.382 246.728 212.366C246.707 212.35 246.681 212.341 246.654 212.34C245.574 212.34 244.434 212.45 243.354 212.34C242.874 212.29 243.194 212.34 243.164 212.27C243.163 211.988 243.186 211.707 243.234 211.43C243.207 210.568 243.079 209.712 242.854 208.88C242.504 207.5 241.074 206.88 239.854 206.39C238.355 205.774 236.762 205.416 235.144 205.33C233.925 205.282 232.715 205.544 231.625 206.092C230.536 206.639 229.603 207.454 228.914 208.46C228.177 209.426 227.578 210.489 227.134 211.62C227.078 211.892 226.984 212.155 226.854 212.4C226.794 212.46 227.044 212.28 226.904 212.34C226.403 212.415 225.894 212.415 225.394 212.34H221.964L210.654 212.22L177.234 211.87L143.144 211.51L131.144 211.38H127.374C126.689 211.315 125.999 211.315 125.314 211.38C125.227 211.39 125.14 211.39 125.054 211.38C125.027 211.391 125.004 211.411 124.989 211.436C124.975 211.461 124.969 211.491 124.974 211.52V211.52Z" fill="white"/>
<path d="M219.933 271.16C219.933 272.45 218.843 273.71 218.013 274.56C217.593 275 217.633 275.03 217.563 275.61L216.863 281.61L216.113 288.15C215.95 289.307 215.613 290.433 215.113 291.49C214.113 293.92 213.493 296.33 211.113 297.79C210.983 297.87 211.113 298.09 211.243 298C213.113 296.86 213.863 295.27 214.633 293.36C215.328 292.008 215.868 290.583 216.243 289.11C216.863 284.81 217.243 280.47 217.743 276.16C217.743 275.824 217.78 275.488 217.853 275.16C218.023 274.66 218.533 274.34 218.853 273.9C219.556 273.122 220.006 272.149 220.143 271.11C220.136 271.083 220.119 271.059 220.097 271.042C220.074 271.025 220.047 271.016 220.018 271.016C219.99 271.016 219.963 271.025 219.94 271.042C219.918 271.059 219.901 271.083 219.893 271.11L219.933 271.16Z" fill="white"/>
<path d="M129.064 203.75C128.614 202.27 127.414 200.69 125.694 200.88C123.881 201.08 122.057 201.15 120.234 201.09C117.934 201.09 115.634 200.98 113.334 200.9C112.843 200.879 112.354 200.97 111.904 201.166C111.454 201.361 111.053 201.657 110.734 202.03C109.181 203.421 108.16 205.309 107.844 207.37C107.634 208.37 107.334 209.37 107.074 210.37L103.774 223.21L100.384 236.38C100.114 237.46 99.9041 238.59 99.5441 239.65C99.2941 240.39 98.5441 241.28 98.2541 242.22C97.7988 243.64 97.6689 245.143 97.8741 246.62C98.0765 247.298 98.2302 247.99 98.3341 248.69C98.2853 248.953 98.2117 249.211 98.1141 249.46C97.6541 251.22 97.3541 253.03 97.0541 254.82C95.2041 266.16 94.3941 277.68 93.6441 289.13C93.4841 291.49 93.3441 293.85 93.2041 296.21C93.2041 296.37 93.4441 296.37 93.4541 296.21C94.2041 283.37 95.0341 270.46 96.8641 257.72C97.2041 255.35 97.5741 252.99 98.0841 250.65C98.3079 250.019 98.4752 249.37 98.5841 248.71C98.5215 248.256 98.4109 247.81 98.2541 247.38C98.0376 246.324 97.9803 245.242 98.0841 244.17C98.2155 242.909 98.6254 241.693 99.2841 240.61C99.5884 240.183 99.8059 239.701 99.9241 239.19L102.484 229.19C104.354 221.93 106.484 214.69 108.094 207.37C108.284 206.203 108.704 205.085 109.331 204.082C109.957 203.079 110.778 202.212 111.744 201.53C112.744 200.87 113.574 201.13 114.834 201.17C117.244 201.25 119.644 201.32 122.044 201.34C122.904 201.34 123.764 201.34 124.614 201.34C125.744 201.25 126.684 200.93 127.614 201.82C128.178 202.374 128.591 203.062 128.814 203.82C128.814 203.97 129.104 203.91 129.054 203.75H129.064Z" fill="white"/>
<path d="M182.134 202.75C182.024 196.15 184.964 188.33 191.584 185.91C193.761 185.224 196.044 184.936 198.324 185.06H255.924C261.264 185.06 267.094 185.24 271.634 188.42C272.764 189.194 273.699 190.221 274.364 191.42C274.384 191.443 274.411 191.458 274.441 191.463C274.471 191.468 274.501 191.462 274.527 191.446C274.554 191.431 274.573 191.407 274.584 191.378C274.594 191.35 274.594 191.318 274.584 191.29C272.244 187.02 266.734 185.62 262.244 185.06C260.717 184.882 259.181 184.798 257.644 184.81H199.224C197.399 184.731 195.572 184.818 193.764 185.07C185.684 186.53 182.114 194.72 181.894 202.2C181.894 202.38 181.894 202.57 181.894 202.75C181.894 202.93 182.154 202.91 182.144 202.75H182.134Z" fill="white"/>
<path d="M160.644 198.25C160.613 193.686 162.36 189.289 165.514 185.99C169.514 181.99 174.824 181.88 180.054 181.73L215.054 180.73C216.756 180.861 218.455 180.425 219.884 179.49C221.234 178.49 221.884 177.14 222.974 175.96C227.654 170.96 235.534 169.63 242.054 169.41C247.334 169.23 252.664 169.8 257.924 170.13L277.334 171.36C280.334 171.55 282.784 171.87 285.284 173.92C288.454 176.54 289.894 180.57 290.284 184.57C290.424 185.95 290.414 187.35 290.504 188.74L292.604 222.35L294.684 255.58C294.644 256.795 294.789 258.009 295.114 259.18C296.674 263.32 301.804 264.93 305.724 265.67C310.561 266.605 315.518 266.757 320.404 266.12C321.613 266.034 322.825 266.219 323.954 266.66C327.75 267.92 331.431 269.505 334.954 271.4C342.494 275.2 349.784 279.49 357.004 283.88C362.297 287.1 367.55 290.387 372.764 293.74C372.894 293.83 373.024 293.61 372.884 293.53C363.354 287.41 353.734 281.41 343.884 275.88C338.795 272.938 333.543 270.287 328.154 267.94C325.694 266.94 322.724 265.46 320.034 266.03C319.038 266.147 318.035 266.181 317.034 266.13C315.584 266.13 314.134 266.13 312.694 266.13C310.294 266.07 307.903 265.82 305.544 265.38C302.639 264.969 299.886 263.826 297.544 262.06C296.777 261.441 296.154 260.662 295.719 259.778C295.284 258.894 295.046 257.925 295.024 256.94C294.974 254.09 294.674 251.23 294.494 248.39L293.314 229.53L290.944 191.62C290.694 187.62 290.844 183.35 289.464 179.57C288.084 175.79 284.604 171.84 280.234 171.31C275.864 170.78 271.384 170.74 267.004 170.47L248.824 169.32C241.824 168.87 234.264 169.1 227.824 172.24C225.862 173.146 224.095 174.427 222.624 176.01C221.244 177.57 220.374 179.33 218.244 180.14C216.942 180.493 215.589 180.622 214.244 180.52L207.244 180.72L186.314 181.31L178.224 181.55C176.761 181.55 175.298 181.63 173.844 181.79C166.964 182.79 162.284 187.79 160.844 194.41C160.551 195.673 160.396 196.964 160.384 198.26C160.384 198.42 160.644 198.42 160.644 198.26V198.25Z" fill="white"/>
<path d="M434.804 288.44L435.964 274.44L436.234 271.08C436.334 270.685 436.362 270.275 436.314 269.87C436.134 269.37 435.364 268.79 435.024 268.4L414.324 245L403.754 233L400.754 229.62C400.384 229.2 400.234 228.87 399.754 228.82C398.942 228.822 398.132 228.899 397.334 229.05L393.334 229.42L384.604 230.24C383.826 230.388 383.036 230.461 382.244 230.46C381.974 230.46 382.144 230.46 382.054 230.46C381.734 230.29 381.414 229.77 381.164 229.46L378.164 226.18C377.744 225.73 377.044 224.59 376.464 224.35C376.175 224.314 375.883 224.338 375.604 224.42L373.114 224.67L364.964 225.5L349.514 227.14L348.514 227.24C348.479 227.24 348.446 227.254 348.422 227.278C348.397 227.302 348.384 227.336 348.384 227.37V231.94C348.449 232.347 348.449 232.763 348.384 233.17C348.304 233.34 348.554 233.04 348.384 233.17C348.236 233.224 348.081 233.258 347.924 233.27L346.154 233.64L343.354 234.22C343.328 234.228 343.306 234.244 343.29 234.266C343.274 234.287 343.265 234.313 343.264 234.34V236.75C343.18 237.245 343.232 237.753 343.414 238.22C343.734 238.76 344.284 238.96 344.414 239.46C344.454 239.986 344.454 240.514 344.414 241.04L344.494 253.79V257.54C344.502 257.567 344.518 257.591 344.54 257.608C344.563 257.625 344.591 257.634 344.619 257.634C344.647 257.634 344.674 257.625 344.697 257.608C344.72 257.591 344.736 257.567 344.744 257.54L344.664 244.95V241.45C344.728 240.785 344.728 240.115 344.664 239.45C344.544 238.89 344.084 238.7 343.754 238.2C343.424 237.7 343.554 236.25 343.554 235.36C343.519 235.074 343.519 234.786 343.554 234.5C343.634 234.21 343.364 234.5 343.554 234.42C344.037 234.246 344.542 234.142 345.054 234.11L348.554 233.37C348.58 233.363 348.603 233.348 348.62 233.326C348.636 233.304 348.645 233.277 348.644 233.25V227.95C348.619 227.774 348.619 227.596 348.644 227.42C348.694 227.29 348.434 227.57 348.574 227.49C349.059 227.359 349.562 227.308 350.064 227.34L353.244 227.01L371.244 225.18L374.504 224.85C375.069 224.729 375.646 224.672 376.224 224.68C376.474 224.68 376.164 224.61 376.354 224.68C376.737 224.99 377.074 225.354 377.354 225.76L380.414 229.06C380.794 229.48 381.464 230.56 382.014 230.74C382.525 230.767 383.037 230.72 383.534 230.6L392.104 229.79L399.464 229.11C399.894 229.11 399.834 229.02 399.984 229.11C400.245 229.35 400.48 229.619 400.684 229.91L408.894 239.19L432.434 265.81L435.434 269.25C436.074 269.97 436.054 269.8 435.974 270.69L434.634 286.97L434.514 288.39C434.514 288.55 434.754 288.55 434.764 288.39L434.804 288.44Z" fill="white"/>
<path d="M333.984 175.93C332.819 177.511 331.782 179.183 330.884 180.93C330.169 182.261 329.592 183.661 329.164 185.11C328.994 185.72 329.014 186.86 328.674 187.22C328.334 187.58 327.914 187.7 327.604 188.07C327.194 188.587 326.932 189.206 326.844 189.86C326.732 191.053 326.928 192.255 327.414 193.35C327.794 194.3 328.414 195.16 328.794 196.1C329.074 196.85 329.224 197.66 329.504 198.42C330.027 199.85 330.672 201.232 331.434 202.55C333.609 206.386 336.813 209.538 340.684 211.65C343.242 213.001 346.012 213.908 348.874 214.33C350.591 214.545 352.327 214.545 354.044 214.33C356.544 214.13 359.284 214.33 361.664 213.4C365.513 211.961 368.924 209.549 371.564 206.4C372.468 205.302 373.265 204.12 373.944 202.87C374.674 201.5 375.014 199.99 375.694 198.62C375.874 198.25 375.744 198.44 376.034 198.21C376.324 197.98 376.524 197.95 376.744 197.76C376.997 197.548 377.196 197.278 377.324 196.974C377.453 196.67 377.508 196.339 377.484 196.01C377.436 195.564 377.301 195.133 377.084 194.74C376.794 194.18 375.994 193.6 375.804 193.08C375.764 192.798 375.764 192.512 375.804 192.23C375.804 190.623 375.684 189.019 375.444 187.43C374.834 182.195 372.675 177.261 369.244 173.26C368.253 172.176 367.146 171.204 365.944 170.36C365.814 170.26 365.684 170.48 365.814 170.57C372.734 175.51 375.664 184.36 375.554 192.57C375.534 192.733 375.534 192.897 375.554 193.06C375.654 193.34 376.004 193.59 376.194 193.82C376.778 194.446 377.149 195.241 377.254 196.09C377.241 196.482 377.116 196.862 376.895 197.186C376.673 197.51 376.364 197.765 376.004 197.92C375.474 198.24 375.594 198.09 375.344 198.92C373.786 203.777 370.609 207.953 366.344 210.75C364.541 212.071 362.506 213.042 360.344 213.61C359.246 213.758 358.141 213.848 357.034 213.88L351.804 214.31C349.82 214.374 347.839 214.103 345.944 213.51C342.922 212.72 340.091 211.327 337.621 209.414C335.151 207.502 333.094 205.109 331.574 202.38C330.532 200.385 329.681 198.296 329.034 196.14C328.756 195.525 328.443 194.927 328.094 194.35C327.379 193.058 327.033 191.595 327.094 190.12C327.126 189.543 327.317 188.985 327.645 188.509C327.973 188.033 328.426 187.656 328.954 187.42C328.979 187.411 329.001 187.394 329.016 187.373C329.032 187.352 329.042 187.326 329.044 187.3C329.374 183.3 331.854 179.3 334.224 176.11C334.314 175.98 334.104 175.85 334.004 175.98L333.984 175.93Z" fill="white"/>
<path d="M421.564 166.57C421.484 168.43 419.234 169.48 417.764 170.07C415.287 171.01 412.693 171.602 410.054 171.83C404.334 172.46 398.054 172.29 392.554 170.29C391.064 169.75 388.734 168.82 388.254 167.09C387.774 165.36 389.684 164.18 390.964 163.54C395.914 161.04 402.224 160.82 407.644 161.12C410.784 161.236 413.893 161.784 416.884 162.75C418.554 163.33 421.474 164.43 421.564 166.57C421.558 166.589 421.557 166.61 421.561 166.629C421.565 166.649 421.573 166.668 421.585 166.684C421.597 166.7 421.613 166.713 421.631 166.722C421.649 166.731 421.669 166.736 421.689 166.736C421.709 166.736 421.729 166.731 421.747 166.722C421.765 166.713 421.78 166.7 421.792 166.684C421.805 166.668 421.813 166.649 421.816 166.629C421.82 166.61 421.819 166.589 421.814 166.57C421.744 165.02 420.274 164.03 419.024 163.38C416.533 162.21 413.862 161.473 411.124 161.2C407.399 160.705 403.63 160.655 399.894 161.05C397 161.276 394.16 161.951 391.474 163.05C390.144 163.64 388.304 164.59 387.974 166.18C387.694 167.58 388.864 168.67 389.974 169.35C392.332 170.681 394.933 171.524 397.624 171.83C401.172 172.386 404.772 172.534 408.354 172.27C411.717 172.128 415.034 171.435 418.174 170.22C419.674 169.57 421.774 168.49 421.854 166.6C421.858 166.562 421.846 166.523 421.822 166.493C421.797 166.463 421.762 166.444 421.724 166.44C421.685 166.436 421.647 166.447 421.617 166.472C421.587 166.496 421.568 166.532 421.564 166.57Z" fill="white"/>
<path d="M421.594 165.62C423.194 167.31 422.644 170.2 421.744 172.05C421.037 173.271 420.234 174.435 419.344 175.53C419.154 175.823 419.035 176.157 418.997 176.504C418.959 176.851 419.002 177.203 419.124 177.53C419.724 179.37 421.744 180.63 423.304 181.53C423.444 181.61 423.564 181.4 423.434 181.31C421.854 180.36 417.804 177.77 419.724 175.45C421.644 173.13 423.524 170.19 422.644 167.11C422.489 166.493 422.191 165.921 421.774 165.44C421.763 165.428 421.749 165.419 421.735 165.412C421.72 165.405 421.704 165.402 421.688 165.401C421.671 165.401 421.655 165.404 421.64 165.409C421.625 165.415 421.611 165.424 421.599 165.435C421.587 165.446 421.578 165.46 421.571 165.474C421.564 165.489 421.561 165.505 421.56 165.522C421.56 165.538 421.563 165.554 421.568 165.569C421.574 165.584 421.583 165.598 421.594 165.61V165.62Z" fill="white"/>
<path d="M387.934 166.57C388.178 168.97 389.051 171.264 390.464 173.22C391.036 174.031 391.708 174.767 392.464 175.41C392.784 175.68 393.164 175.92 393.464 176.19C393.71 176.423 393.895 176.712 394.003 177.033C394.111 177.354 394.139 177.696 394.084 178.03C393.764 180.13 391.374 181.67 389.774 182.7C389.634 182.79 389.774 183 389.894 182.92C391.614 181.8 395.524 179.2 394.084 176.59C393.638 175.998 393.093 175.487 392.474 175.08C390.891 173.634 389.689 171.821 388.974 169.8C388.573 168.763 388.314 167.676 388.204 166.57C388.204 166.42 387.934 166.41 387.954 166.57H387.934Z" fill="white"/>
<path d="M429.514 179.2L435.644 191.84C436.374 193.037 436.977 194.308 437.444 195.63C437.509 196.485 437.509 197.345 437.444 198.2V209.75C437.452 209.777 437.468 209.801 437.491 209.818C437.513 209.835 437.541 209.844 437.569 209.844C437.597 209.844 437.625 209.835 437.647 209.818C437.67 209.801 437.686 209.777 437.694 209.75C437.694 205.16 437.774 200.56 437.694 195.97C437.694 194.87 436.854 193.8 436.394 192.83L432.524 184.83L429.724 179.08C429.654 178.93 429.444 179.08 429.514 179.2V179.2Z" fill="white"/>
<path d="M380.613 176.75L387.923 193.1C388.493 194.37 389.693 196.21 389.683 197.43C389.683 200.57 389.683 203.7 389.683 206.84V215.66C389.691 215.687 389.707 215.711 389.73 215.728C389.752 215.745 389.78 215.754 389.808 215.754C389.836 215.754 389.864 215.745 389.886 215.728C389.909 215.711 389.925 215.687 389.933 215.66V197.94C389.796 196.617 389.369 195.34 388.683 194.2L384.163 184.09L380.823 176.63C380.763 176.48 380.543 176.63 380.613 176.76V176.75Z" fill="white"/>
<path d="M445.644 221.05C440.417 221.196 435.226 221.972 430.184 223.36C428.104 223.98 425.884 224.79 424.514 226.57C422.788 229.05 421.86 231.998 421.854 235.02C421.891 236.629 422.045 238.233 422.314 239.82C422.618 242.872 421.873 245.937 420.204 248.51C420.195 248.524 420.19 248.539 420.187 248.555C420.185 248.571 420.185 248.588 420.189 248.603C420.196 248.635 420.216 248.663 420.244 248.68C420.272 248.697 420.305 248.703 420.337 248.695C420.369 248.688 420.397 248.668 420.414 248.64C421.415 247.049 422.091 245.276 422.404 243.422C422.716 241.568 422.659 239.671 422.234 237.84C421.632 234.22 422.341 230.504 424.234 227.36C425.461 225.652 427.248 224.428 429.284 223.9C432.539 222.887 435.89 222.217 439.284 221.9C441.374 221.64 443.474 221.44 445.574 221.34C445.734 221.34 445.734 221.08 445.574 221.09L445.644 221.05Z" fill="white"/>
<path d="M13.9932 265.1L32.5332 265.88L45.4432 266.43L49.9132 266.62C50.5374 266.726 51.1724 266.753 51.8032 266.7C52.1012 266.563 52.3721 266.373 52.6032 266.14L55.1532 264.2C55.8732 263.65 56.6232 263.3 56.9432 262.47L61.1032 251.75L63.0532 246.7C63.2285 246.347 63.3197 245.959 63.3197 245.565C63.3197 245.171 63.2285 244.783 63.0532 244.43L62.2032 241.43C62.1718 241.193 62.0787 240.969 61.9332 240.78C61.1372 240.287 60.2799 239.9 59.3832 239.63L38.4432 230.19L37.9132 229.96C37.7632 229.89 37.6432 230.1 37.7832 230.17L56.3132 238.52L60.6032 240.46C60.9769 240.587 61.3384 240.748 61.6832 240.94C61.9232 241.11 61.8332 241.04 61.9632 241.5L62.7832 244.38C62.952 244.827 63.0759 245.289 63.1532 245.76C63.0563 246.138 62.9153 246.504 62.7332 246.85L61.8732 249.07L57.3932 260.67L56.7132 262.42C56.6636 262.602 56.5786 262.771 56.4632 262.92C55.8082 263.503 55.1095 264.034 54.3732 264.51L52.1132 266.23C51.6932 266.54 51.4532 266.46 50.8032 266.43L47.1732 266.28L35.2632 265.75L22.1832 265.2C19.6032 265.09 16.9632 264.8 14.3732 264.86C14.2432 264.86 14.1132 264.86 13.9932 264.86C13.8732 264.86 13.8332 265.1 13.9932 265.11V265.1Z" fill="white"/>
<path d="M47.364 184.98L49.864 172.75C49.9955 171.476 50.2843 170.223 50.724 169.02C51.284 167.92 51.974 166.88 52.594 165.82C52.7671 165.423 52.9851 165.047 53.244 164.7C53.354 164.59 53.244 164.7 53.504 164.61C54.3791 164.41 55.2685 164.28 56.164 164.22C57.674 164.03 59.164 163.88 60.704 163.77C64.7478 163.407 68.8175 163.443 72.854 163.88C73.914 164.01 74.964 164.18 76.004 164.41C76.5132 164.436 76.9913 164.663 77.334 165.04L79.744 167.8C80.2342 168.268 80.6764 168.784 81.064 169.34C81.2245 169.894 81.3251 170.464 81.364 171.04L83.804 184.97C83.804 185.13 84.074 185.06 84.044 184.9L81.774 171.95C81.564 170.74 81.604 169.55 80.774 168.62L78.164 165.62C77.384 164.73 77.164 164.4 76.054 164.15C69.054 162.6 61.514 163.15 54.474 164.15C54.003 164.143 53.5349 164.224 53.094 164.39C52.9334 164.585 52.8051 164.804 52.714 165.04L51.714 166.77C51.1951 167.531 50.7338 168.33 50.334 169.16C50.1972 169.624 50.1001 170.099 50.044 170.58L47.124 184.85C47.124 185.01 47.324 185.08 47.364 184.92V184.98Z" fill="white"/>
<path d="M30.0041 369.32C24.3441 366.93 19.0041 362.9 16.2341 357.32C13.8641 352.48 14.2341 346.6 18.7641 343.17C23.6841 339.48 30.7641 339.79 36.3441 341.48C42.5741 343.36 48.5741 347.29 52.0541 352.89C53.6715 355.314 54.5281 358.166 54.5141 361.08C54.4108 362.787 53.8829 364.441 52.9783 365.892C52.0737 367.343 50.8211 368.546 49.3341 369.39C49.2041 369.48 49.3341 369.69 49.4641 369.61C54.5741 366.51 55.8841 360.72 53.6641 355.38C51.1641 349.38 45.5241 344.88 39.6641 342.38C33.8041 339.88 26.2541 338.79 20.3541 341.89C18.1093 343.044 16.3415 344.95 15.3599 347.275C14.3782 349.6 14.2452 352.197 14.9841 354.61C16.9341 361.67 23.4441 366.82 29.9241 369.55C30.0741 369.62 30.2041 369.4 30.0541 369.34L30.0041 369.32Z" fill="white"/>
<path d="M393.323 369.53C390.483 365.29 391.653 360.06 394.113 355.93C397.454 350.664 402.31 346.533 408.043 344.08C413.423 341.66 420.173 340.29 425.843 342.57C428.132 343.445 430.02 345.131 431.148 347.306C432.276 349.481 432.566 351.995 431.963 354.37C430.583 360.81 425.383 365.99 419.963 369.37C419.823 369.46 419.963 369.67 420.083 369.59C425.173 366.37 429.923 361.71 431.783 355.85C433.213 351.34 432.303 346.37 428.243 343.56C423.323 340.15 416.423 340.83 411.043 342.61C404.613 344.678 398.988 348.702 394.953 354.12C391.763 358.56 389.763 364.71 393.063 369.64C393.153 369.77 393.373 369.64 393.283 369.51L393.323 369.53Z" fill="white"/>
</svg>
