<svg width="500" height="375" viewBox="0 0 500 375" fill="none" xmlns="http://www.w3.org/2000/svg">
<path d="M493 86.29L456.49 85.07C456.49 85.07 313.71 12.41 279.32 5.25" stroke="white" stroke-miterlimit="10"/>
<path d="M162.83 5.25C162.83 5.25 68.3601 32.48 42.2201 54.5C42.2201 54.5 41.2201 57.25 40.3901 58.85L7.00009 104.94" stroke="white" stroke-miterlimit="10"/>
<path d="M493 278.06C493 278.06 410 300.7 406.35 369.75" stroke="white" stroke-miterlimit="10"/>
<path d="M320.13 369.75L55.9999 258.57L47.7499 248.48C47.7499 248.48 34.3799 175.8 6.99988 166.39" stroke="white" stroke-miterlimit="10"/>
<path d="M493 286.55C493 286.55 449 310.85 438 345.71L432 369.71" stroke="white" stroke-miterlimit="10"/>
<path d="M493 249.55C493 249.55 408.18 264.55 387.7 346.78C387.7 346.78 46.81 227.85 45.89 224.64C45.89 224.64 35.19 181.38 18.07 167.46" stroke="white" stroke-miterlimit="10"/>
<path d="M230.73 76.27C230.73 76.27 267.62 76.51 327.47 90.73C327.47 90.73 371.04 94.62 375.62 92.56L380.44 107C380.44 107 264.94 103.33 250 97.6L237.13 92.6L234.61 89.16C234.61 89.16 227.5 68.98 228.18 59.35C228.18 59.35 247.9 43.51 279.32 45.81L284.13 46.74C284.13 46.74 322.66 62.56 327.93 67.84L320.13 89.16" stroke="white" stroke-miterlimit="10"/>
<path d="M375.62 92.56C375.62 92.56 279.17 14.09 230.86 5.25" stroke="white" stroke-miterlimit="10"/>
<path d="M192.64 5.25C192.64 5.25 98.78 25.51 67 45.77C67 45.77 33.37 93.94 31.84 100.97C31.84 100.97 231.63 101.64 303.25 103.45" stroke="white" stroke-miterlimit="10"/>
<path d="M456.49 85.07L411.85 83.85C411.85 83.85 284.36 8.74 262.85 5.25" stroke="white" stroke-miterlimit="10"/>
<path d="M72.2598 265.43C72.2598 265.43 70.4998 274.93 64.2598 278.6L31.6998 290.37C31.6998 290.37 24.3598 291.75 17.1698 285.78C17.1698 285.78 10.0097 279.36 7.01974 273.86" stroke="white" stroke-miterlimit="10"/>
<path d="M7.00038 192C16.5804 194.3 27.0604 210.35 31.8904 231.34C37.4604 255.52 33.4204 277.1 22.8904 279.53C17.8104 280.7 11.4604 276.1 7.65037 269.25" stroke="white" stroke-miterlimit="10"/>
<path d="M138.13 18.92C138.13 18.92 126.76 73.76 126.3 97.76L120.18 104.94L113.76 132C113.76 132 116.21 199.16 120.26 252.48" stroke="white" stroke-miterlimit="10"/>
<path d="M380.44 107V113.19C380.44 113.19 389.15 218.19 369.2 323.9L367 339.56" stroke="white" stroke-miterlimit="10"/>
<path d="M157.1 154.93L150.91 156.65C150.91 156.65 120.91 153.21 119.38 151.38L118.46 146.1L120.87 143.46C120.87 143.46 126.38 141.29 131.31 142.32L132.45 146C135.946 146.479 139.472 146.71 143 146.69L148.39 144C148.39 144 153.66 144.8 157.1 147.55C157.1 147.59 158.36 152.64 157.1 154.93Z" stroke="white" stroke-miterlimit="10"/>
</svg>
