<svg width="500" height="375" viewBox="0 0 500 375" fill="none" xmlns="http://www.w3.org/2000/svg">
<path d="M493 93.3199L411.2 89.6599C411.2 89.6599 266 10.5699 244.92 4.85986" stroke="white" stroke-miterlimit="10"/>
<path d="M493 246.19C493 246.19 432 263.62 414.11 323.69L407.27 365L401.76 369.39L7 282.42" stroke="white" stroke-miterlimit="10"/>
<path d="M254.49 77.44C254.49 77.44 287.57 77.12 334.81 93.32C348.173 95.3131 361.66 96.3623 375.17 96.46L382 109.53C382 109.53 298.08 107.46 283.41 101.96C283.41 101.96 260.71 95.01 259.1 93.32L257.04 89.81L251.53 63.44L252.91 59.54C252.91 59.54 263.91 49.65 282.49 49.09C282.49 49.09 304.73 47.85 333.16 72.38L333.85 75.13L327.85 90.96" stroke="white" stroke-miterlimit="10"/>
<path d="M375.17 96.4599C375.17 96.4599 262.66 9.99986 206.4 4.85986" stroke="white" stroke-miterlimit="10"/>
<path d="M84.2598 4.85986C84.2598 4.85986 9.75976 19.4899 6.99976 22.6999" stroke="white" stroke-miterlimit="10"/>
<path d="M139.9 4.85986C139.9 4.85986 72.0604 10.4699 7.04041 27.8599" stroke="white" stroke-miterlimit="10"/>
<path d="M294.711 104.28C294.711 104.28 16.801 96.28 7.04095 96.46" stroke="white" stroke-miterlimit="10"/>
<path d="M99.9999 9.54004L98.3599 14.48C98.3599 14.48 93.8499 71.15 94.7699 96.48L89.6499 104.31L86.0899 132.14C86.0899 132.14 87.4699 133.06 87.4699 136.73C87.4699 136.73 89.4699 188.44 99.9999 256.73C99.9999 256.73 102 273.24 99.9999 287.15L99.6599 290.36L108.42 304.75" stroke="white" stroke-miterlimit="10"/>
<path d="M464.131 235.87C464.131 235.87 411.621 260 396.491 317.5L7.00085 246.19" stroke="white" stroke-miterlimit="10"/>
<path d="M382 109.53L384.91 115.03L390.41 154.47C390.41 154.47 393.76 217.76 379 314.29" stroke="white" stroke-miterlimit="10"/>
<path d="M133.94 144.73C133.94 144.73 130.04 147.65 126.38 147.88L107.29 147.31L106.77 146.31L110.44 143.25L109.44 142.67C109.44 142.67 98.03 143.07 96.88 144.22L95.28 146.4L95.57 151.73L96.88 153.51C96.88 153.51 138.1 157.12 144.18 156.43L146 154.87L145.77 149.58C145.77 149.58 144.61 146.85 133.94 144.73Z" stroke="white" stroke-miterlimit="10"/>
<path d="M454 267C454 267 409.56 310 429 369.36" stroke="white" stroke-miterlimit="10"/>
</svg>
