<svg width="500" height="375" fill="none" xmlns="http://www.w3.org/2000/svg"><path d="m315.07 5 62.06 74.55M400.07 108.33s29.35 43.45 34.17 55.72a32.93 32.93 0 0 0 11.16 7.3l2.67 2.9M459.83 190.53s14.07 14.68 18.65 26.94c0 0 9.2 13.3 14.52 34.17" stroke="#fff" stroke-miterlimit="10"/><path d="M478.481 217.47s-20.63-35.35-7.49 37.42l1.56 4.58s7.62 33.18-3.09 51.82c0 0-399.82-135-446.59-163.18 0 0 56.4-101.17 48.84-143.11M45.26 103.26l428.13 197.81" stroke="#fff" stroke-miterlimit="10"/><path d="M164.34 5v24l3.06 5.81-8.87 52.59s-16.12 52.15-22.12 58M7 311.29l207.33 15.9 2.06-3.44s67 .23 71.32 3.44l2.06 2.53s132.31-7.5 154.62-9.21" stroke="#fff" stroke-miterlimit="10"/><path d="M441.82 301.91s-.94 35.38 26.12 67.59M480.369 220.49s-9.76-11.66-7.3 41.56" stroke="#fff" stroke-miterlimit="10"/><path d="m473.391 233.26 3.13 1.07s11.29 10.77 17.25 29.88M215.461 325.3s4.83 37.36 27.15 40.26h22.78s20.15-1.91 23.22-37.26M372.551 80.31l1.68 5.81 6.5 8.87s5.65-4.59 8.1-2.45c0 0 7.56 6.5 7.95 11.7a8.751 8.751 0 0 1-4.44 4.74s4.05 4.58 6 5a15.83 15.83 0 0 0 1.22-11.77s-5.12-15.21-16-20.71c-.01.04-5.36-3.4-11.01-1.19Z" stroke="#fff" stroke-miterlimit="10"/><path d="M394.15 98.34s-3.72 1.16-5.09.47c0 0-2.37 2.75-1.68 5.12l5 5.05M457.431 181.49s-3.9.37-4.78 2l6.92 7.34c1.72-1.11 2.06-4.13 2.06-4.13 0-5.8-5.73-10.43-5.73-10.43-4.09-3.14-9.56-1.57-9.56-1.57-.65.69 2 4.32 2 4.32 9.14-1.68 13.3 8 13.3 8M400.07 115.05s15.28 60.51 21.47 88.71l10.53 18.8" stroke="#fff" stroke-miterlimit="10"/><path d="m127.201 5 37.14 24s281.73 197.61 306.65 225.89" stroke="#fff" stroke-miterlimit="10"/></svg>
