<svg width="500" height="375" fill="none" xmlns="http://www.w3.org/2000/svg"><path d="m248.08 323.91 6.73-.57 41.89 4.43M7 312.79l213.26 13.46 27.82-2.34M292.57 330.68l162.5-5.35M403.4 314.02l81-3.37s8.86-31.79 3.36-43.72c0 0-11-58.39-.31-49.52 0 0 2.54.19 5.53 10.62M452.04 312s11.9 45.66 26 59" stroke="#fff" stroke-miterlimit="10"/><path d="M220.26 326.25s.92 34.24 25.84 40.51h24.94s18.81-2.1 21.56-39.42" stroke="#fff" stroke-miterlimit="10"/><path d="M288.74 326.93v.62c0 15.91-9.11 28.81-20.33 28.81-11.22 0-20.37-12.9-20.37-28.81 0-1.24.06-2.46.17-3.66M288.74 326.57v.36M73.51 4s-14.2 99.52-40.36 146.3l451.27 160.35M207.19 6.5l280.59 260.43M344.35 7.3l22.24 30.75M360.82 37.25s16.28-1.14 31 23.85c0 0 6.88 14 1.15 23.85l-6.24-7.08s6-2.52 4.82-8.49c0 0-7.57-13.52-9.63-13.75h-3.88l-4.38 2.24-9.86-13.76s-3.55-5.14-2.98-6.86ZM378.01 55.6l8.04 12" stroke="#fff" stroke-miterlimit="10"/><path d="m389.18 66.45-7.15 2.22-.87 2.52 5.57 6.65M394.68 80.46l14.91 22.91s42.72 66.65 47 78.57l7.19 4.13 17.12 16.8 8.9 17" stroke="#fff" stroke-miterlimit="10"/><path d="M409.59 103.37v-6.84l10.16-9.66s22.82-12 30.5-11.81l2.79 1.86s3.9 11.47.8 16.63c0 0-2.06 12.84-17.88 26.48l-9.92 9.31" stroke="#fff" stroke-miterlimit="10"/><path d="M412.53 97.56v2.75l6.08 14.45 2.18 1.49 29.35-21.9 1.6-3.21V79.79l-1.38-2s-31.07 8.88-37.83 19.77ZM351.35 16.98s19.32 42.67 26.69 115.43l23.55 33.94v7a83.127 83.127 0 0 1 3.6 16.87" stroke="#fff" stroke-miterlimit="10"/></svg>
