<svg width="500" height="375" viewBox="0 0 500 375" fill="none" xmlns="http://www.w3.org/2000/svg">
<path d="M491.3 50.8301C368.11 23.1601 212.5 58.5001 212.5 58.5001L108.5 96.5001C94.5 100.5 61.5 109.5 61.5 109.5C30.5 120.5 18.5 142.78 18.5 142.78L15.5 149.5L18.5 158.5L14.5 171.5L15.5 181.5L29.5 192.5C29.5 192.5 3.5 218.5 20.5 245.5L22.5 256.5C22.5 256.5 46.5 288.5 80.5 293.5L140.5 303.5H150.6C148.543 297.033 147.497 290.287 147.5 283.5C147.5 243.18 184.57 211.22 229.5 208.5C279 205.5 322.5 221.5 310.5 283.5C309.88 286.68 310.26 289.93 309.81 293.06C309.81 293.06 479.11 270.33 491.3 271.41" stroke="white" stroke-miterlimit="10"/>
<path d="M96.0895 100C96.0895 100 76.4995 114.5 85.4995 124.5C85.4995 124.5 236.5 69.5 244.5 71.5C244.5 71.5 219.5 61.5 212.5 58.5" stroke="white" stroke-miterlimit="10"/>
<path d="M29.5 192.5L39.5 200.5C47.2093 203.208 55.3291 204.561 63.5 204.5" stroke="white" stroke-miterlimit="10"/>
<path d="M17.4902 161.78L20.4902 166.5L25.4902 168.5C25.4902 168.5 69.4902 212.5 103.49 238.5L146.49 246.5L158.34 247.4" stroke="white" stroke-miterlimit="10"/>
<path d="M491.3 58C471.11 54.52 420.5 55.49 420.5 55.49C300.5 58.49 180.5 110.49 180.5 110.49C180.5 110.49 170.5 115.49 183.5 120.49C183.5 120.49 240.5 132.49 280.5 136.49C280.5 136.49 490.11 136.26 491.3 134.38" stroke="white" stroke-miterlimit="10"/>
<path d="M279.84 136.5C279.84 136.5 271.72 153.05 274.11 161.78C274.11 161.78 327.37 253.51 331.43 259C331.43 259 339.5 274.5 364.5 272.5L491.3 262.24" stroke="white" stroke-miterlimit="10"/>
<path d="M314.06 69.0601C314.06 69.0601 299.5 111.5 288.5 130.5L281.5 132.5L279.63 136.93" stroke="white" stroke-miterlimit="10"/>
<path d="M437.06 55.3701C437.06 55.3701 463.97 114.27 465.73 135.37C465.73 135.37 479.58 152.23 482.54 171.85C482.54 171.85 482.54 197.48 470.54 230.48V241.48L469.54 245.48C469.54 245.48 459.43 257.6 456.48 265.04" stroke="white" stroke-miterlimit="10"/>
<path d="M318.5 170.5C318.5 170.5 320.5 176.5 324.5 176.5L340.5 175.5C340.5 175.5 345.5 174.5 341.5 169.5L351.5 170.5C351.5 170.5 355.5 174.5 355.5 175.5L354.5 179.5C354.5 179.5 329.5 182.5 307.5 182.5C305.466 181.705 303.722 180.31 302.5 178.5C302.5 178.5 303.5 173.5 306.5 172.5L318.5 170.5Z" stroke="white" stroke-miterlimit="10"/>
<path d="M318.5 170.5C318.5 170.5 339.5 168.5 341.5 169.5" stroke="white" stroke-miterlimit="10"/>
<path d="M317.37 182.32L322.5 187.5C322.5 187.5 332.5 188.5 338.5 186.5C338.5 186.5 342.78 182.73 343.64 180.62" stroke="white" stroke-miterlimit="10"/>
<path d="M248.886 334.878C289.069 322.408 313.35 285.575 303.12 252.608C292.89 219.641 252.022 203.024 211.839 215.494C171.657 227.963 147.375 264.797 157.605 297.764C167.836 330.73 208.703 347.347 248.886 334.878Z" stroke="white" stroke-miterlimit="10"/>
</svg>
