<svg version="1.1" id="Calque_1" xmlns="http://www.w3.org/2000/svg" x="0" y="0" viewBox="0 0 500 375" style="enable-background:new 0 0 500 375" xml:space="preserve"><style>.st2,.st3{fill:none;stroke:#fff;stroke-miterlimit:10}.st3{stroke-width:.5}</style><g id="Calque_2_00000064341186333157696630000011631359966722525828_"><path class="st2" d="M144.1 248.6v2.1c-4.1 24.7-23.5 40.7-44.2 40.1-21.6-2.3-39.9-14.1-44.2-40.1 0-19.7 18.2-37.8 39.4-41.5M384.8 211.6c4.6-1.5 9.5-2.3 14.6-2.3 24.1 0 43.7 18.2 43.7 40.7s-22.1 40.2-43.7 40.7c-23.1.7-41.2-19.1-43.7-40.7 0-1.7.1-3.3.3-4.9"/><path class="st2" d="M270.7 107.1s-2.7-.1-4.6 0c-26.4 2.1-36.6 4.6-46.8 9-9.7 4.1-53.7 26.6-64 35-7.9 1.7-28.8 2.9-62.8 10.2-32.5 6.9-54.7 18.3-60.3 21.9-4.9 3.1-11.7 9.2-12.6 11.4s-1.9 5-2.2 6.6c-.3 1.6 2.2 5.9 1.9 7.3s-.5 4.4-.3 6 3.7 7.4 3.6 10c-.1 4.2-2.1 12.1-2.8 13.6-.7 1.6.3 10.7 1 11.5.7.9 6 6.6 13.5 9.3 7.4 2.8 19.2 2.8 19.7 2.4.5-.3-6.3-3.2-5.7-17.3.6-14.1 10.8-32.5 32.6-34.9 23.8-2.5 40.7 6.6 49.2 15.7 11.3 12.2 13.5 20.5 18.4 38.1 0 0 189.8-.6 202.3-2.2 1.9-2.9 2.3-19.8 21-40.6 12.3-13.6 42.2-17.6 59.4-9s20.7 29 16 41.4c-.1.4 12.6-.2 18.6-4.3 7.9-5.3 13-13.7 13.6-16.2.6-2.4 2.8-8.6 2.1-11.4-.7-2.8-4.3-5.3-4.3-5.3s4.3-9.5 3.7-10.7c-.6-1.2-4.3-6.4-4.7-8.8-.3-2.4 4-13.4 4-15s-.5-3.6-.5-3.6 2.5-8 1.9-9.6-22.2-22.6-24.4-25-14.8-12.9-15.5-14.9c-.7-2-1-4.6-.5-5s1.9-1.2 1.5-2.2-.7-2.3-3.8-3.4c-3.1-1-47.3-6.7-53.4-6.9-.8 0-6.3-.3-7.1-.3"/><path class="st2" d="M477.8 164c-2.4 1.8-24.7 5-27.3 5.5-2.6.4-3.8 2.4-1.8 3.9s12.8 10.9 18 12c5.7 1.3 10.8 1.7 13.4-3.3M28.3 186c2.1-.8 4.4-2.6 14.3-3.8s23.6-.9 24.1 0-1 2.4-2.5 3.6c-1.5 1.2-14.9 10.4-22 13.7s-18.1 1-19.2 0c-.7-.6-1.9-4.4-.9-6.4 1-1.9 3.6-4.9 3.6-4.9M362.3 185.2l12.9-.4s7.5-.6 7.9-.9 2.8-1.9.2-3.7c-2.7-.3-9-.2-9-.2l-12.5.5s-4.9.2-5.8.7c-.8.5-2 2.6.2 3.9 3.2.3 6.1.1 6.1.1zM239.9 191.7l13.5-.5s6.1-.1 7.5-.8 2.4-2.6 0-3.9c-2.8-.6-8.5 0-8.5 0l-12.5.5s-4.2.2-5.9.9c-1.6 1.1-1.4 2.9.2 3.5 1.2.4 5.7.3 5.7.3zM162.6 170.4l-2.9.2s-.4 3.6 5.2 4.5c4.2.7 4.8 2 6.7 2.4s10.6 1.4 11.1.4.8-9.8.6-11.3-2.5-7.4-3.1-8-9.3-.6-13.1 2-4.8 5.5-4.7 6.1.2 3.7.2 3.7z"/><path class="st3" d="M162.9 170.5c1.4 1.3 5.2 2.7 20.4 2.6M449.4 240.6c2.9-.2 15-1.1 18.3-4 3.8-3.2 9.1-21 9.1-21"/><path class="st3" d="M473.2 226.4c4.1-.3 7.7-2.1 8.3-3.1M66.8 181.9c8.7.3 38.8-.6 52-3.8 3.5-.8 9.2-5.9 11.7-9.8 2.5-3.9 20.1-13.6 24.8-16.9"/><path class="st3" d="M131.2 167.5c7.5.6 15.5-5 23.1-9.3 7.5-4.3 45.6-30.1 66.5-37.4-1.1-2.3-1.4-4.7-1.4-4.7"/><path class="st2" d="m54 261.4 2.5-6.7M443.1 245.7s4 1.6 4.3 6.6"/><path class="st3" d="M419.1 114.8c-.7 3.5-.5 12.4 3.4 15.7 3.9 3.3 40.9 24 42.4 24.6s4.5.8 5.5.6"/><path class="st3" d="M422.2 130.4s17.2-5.3 18.9-7.7"/><path class="st2" d="M220.7 120.8c5.3-1.7 15.9-5.3 22.8-6.6 6.8-1.3 34.1-5.2 57-4.7 22.9.4 69 1.8 86 4.5-.7-1.5-4-3.4-10.4-4.5-21.6-3.7-73.1-4-79.8-3.9s-47.8 2.5-58.3 5.7c-9.5 2.8-16.6 8.1-17.3 9.5z"/><path class="st3" d="M372.3 108.8c1.9-1.7 5.7-4.4 7.3-4.8s6.7-.5 6.9-.5c.2.1-1.4 2.2-1.5 2.9 0 .7.7 3.1.8 3.6M169.7 176.8c-13.2.9-22.4 1.5-23.6 1.6 1.8-5.1 30.4-29.6 62.3-45.8 30.4-15.5 54.4-16.7 76-17.2s70.7.4 90.7 5.4c20 5.1 49 20.4 50.9 24.8.6 2.9-23.7 9.9-38.4 12.6-23.5 4.8-88.6 10.2-110.5 11.7-12.5.8-59.8 3.9-94 6.1"/><path class="st3" d="M365.4 118.9c3.4 6.6 22.4 39.3 22.4 39.3s4.5 8.3 6.5 16.9c1.4 6.1 1 22 .1 27-1.7.8-22 5.2-33 21.2-8.5 12.4-14.9 29.1-16 37.9M146.2 178.4c-3.6 8.5-5.1 15.9-3.4 24.5 1.5 7.3 11.2 49.6 18 60.2M284.5 115.3l-7.2 54.5s-3.5 7.5-4.4 17.1c-.4 4.5-1.2 74.3-.6 75.4"/></g></svg>