<svg width="1260" height="1130" fill="none" xmlns="http://www.w3.org/2000/svg"><g clip-path="url(#a)" stroke="#fff" stroke-width="1.001" stroke-miterlimit="10"><path d="M142.604 629.941c7.774 257.492 194.012 454.179 459.342 454.179s497.534-181.741 510.714-468.107c12.17-268.023-208.204-503.434-490.096-493.583-276.822 9.851-488.072 237.45-479.96 507.511Z"/><path d="M1475 675.121c-89.57 4.756-174.41 8.153-232.21 9.172-49.34.679-78.75-.34-74.69-4.416l.33-.34c50.03-226.579-19.6-380.124-129.11-497.32C912.568 45.658 595.862-12.77 352.164 123.11 136.52 243.023 93.932 403.361 74.328 467.225c-4.732 15.626-8.45 35.668-11.492 56.73-2.366 16.645-4.056 34.649-5.746 51.634-4.732 56.05-6.422 107.345-9.802 108.364-12.506 2.038-163.93-13.248-262.288-40.764"/><path d="M56.752 575.928s.338 0 .338-.339c34.476-10.871 65.91-16.646 89.232-22.081m966.338 62.505 55.44 63.524.67.679"/></g><defs><clipPath id="a"><path fill="#fff" d="M-215-25h1690v1180H-215z"/></clipPath></defs></svg>
