<svg version="1.1" id="Calque_1" xmlns="http://www.w3.org/2000/svg" x="0" y="0" viewBox="0 0 500 375" style="enable-background:new 0 0 500 375" xml:space="preserve"><style>.st2,.st3{fill:none;stroke:#fff;stroke-miterlimit:10}.st3{stroke-width:.5}</style><g id="Calque_2_00000174582975746865180690000010882432762856669887_"><path class="st2" d="M164.9 33.6c-13.5 6.8-33.4 34.6-47.9 54.2-7.8 6.6-17.9 14.9-21 16.6-3 1.7-40 6.3-56.6 31.6s-20 63.3-19.8 68.2c.2 6.2 10.9 93.4 22 107.2 23.8 35.8 173.1 40.9 208.2 41.6 41 .1 179.7-4.8 208.7-41.8 10.1-18.6 21.6-89.6 21.3-106.5-4.7-37.7-11.5-59.9-23.7-73.8-25.2-22.5-40.9-22.9-54-27.1-5.7-4.4-12.6-10.6-18.8-14.8-14.6-20.1-34.3-49-50.1-56.3M321.7 30c-18-2.5-57.1-4.6-72.2-4.6-14.8-.1-52.6 1.4-73.7 5.5"/><path class="st2" d="M29.4 156.7c-3.4 10.3 2.2 19.6 37.3 37.5 11.2 2.4 14.5-3.3 14.5-6.7s-11.1-64.9-15.1-73.3M433.3 114.4c-4.9 16.5-12.8 53.1-14.6 74.6 1.7 5.2 6.3 6 11.1 6 11.6-3 44.4-21.9 41.5-34.8M163.4 301.5c-9.7-.9-16.4-1.9-19-2.8-35.8-12.4-69.2-53.4-73.3-59.5-.2-7.5 18.6-16.3 28.4-19.9 16.8-2.3 137.3 1.6 150.3 1.7 13.1.1 141-4.3 149.2-2.3 8.1 2 29.5 15 29.5 20.4s-50.8 54.3-65 57.3c-7.3 2.3-16.7 4.1-27.5 5.4M106.8 96.2c-3.3-2.5-5.5-4.5-6.8-7.4s-1.5-4.6-1.5-6 2.1-3.9 4.2-5c2-1 16.5-4.1 19.7-3.5 1.6.3 2.7 1.4 3.1 2.1M187.3 29.2c-1.4-.8-9.1-3.5-13.7-2.1s-9.2 7.2-10.4 8.6c0 0 5.1-.5 5.3-.5s3.3-3.5 7.6-4.3M312.7 29c2-.8 7.1-2.7 9.6-2.5 2.4.1 12.3 6.5 13.8 8.8 0 .1-4.9-.2-4.9-.2s-4.2-4.5-9.8-5.2M374.6 76.8c.8-1.7 2.5-2.3 4.1-2.6 1.6-.3 16.5 2 19.1 3.7 2.5 1.7 3.8 3.7 3.6 5.4-.2 1.7-3.1 9.4-4.7 10.9-1.6 1.6-4.2 1.6-4.2 1.6"/><path class="st3" d="m163.1 294.7 2 28.6s51.7 4.4 84.9 3.9 84.6-3.4 84.6-3.4l1.7-29.1s-64.6 2.9-86.6 2.3c-22.1-.6-86.6-2.3-86.6-2.3zM75.6 154.5c6.2.1 340.4.4 348.3.4M121.6 88.8c2.5 5.8 110.7 2.9 127.2 2.6s119.4.5 129-2.6c1.8-2.2-33.9-48.7-41.5-53.1-9.5 0-51.3-6.3-86.3-6.2-22.8 0-78.4 5-87.2 6.7-6.2 3.2-32.8 34.1-41.2 52.6zM26.6 214.6c.3-.3 8.3 10 13.4 13 2 1.2 1.1 34.1-7 32.5-4-1.1-7.5-42.5-6.4-45.5zM473.5 214.2c.7-.4-2.7 44.6-6.5 45.9-6.9 1.9-9.1-24.1-7.3-32.1 1.6-1.7 10.8-9.6 13.8-13.8z"/></g></svg>
