<svg version="1.1" id="Layer_1" xmlns="http://www.w3.org/2000/svg" x="0" y="0" viewBox="0 0 2048 1536" style="enable-background:new 0 0 2048 1536" xml:space="preserve"><style>.st0,.st1{fill:none;stroke:#fff;stroke-width:2.3092;stroke-linecap:round;stroke-linejoin:round;stroke-miterlimit:10}.st1{stroke-width:4.6183}</style><path class="st0" d="M212.8 688.8c-20.9 21.7-11.1 55 28 73.9s244.8 56.6 283.9 72.1 7.4 49.9-22.3 80.2-53.3 54.6-90.3 54.6-187.5-11.9-238-65.3"/><path class="st1" d="M1002.2 108.8c-70.1 0-266.6 9.6-327.9 19.5-38.2 6.2-82.2 31.6-82.2 31.6l-27.8 7.8c5.9-7.2 13.8-28.5 40.6-39.7s85.5-30 111-4.6"/><path class="st1" d="M568.2 162c-19.4 6.5-103.9 47.2-149.6 102.5-6.2 7.5-3 18.3-7.1 25.9s-34.9 55.1-57.6 113.7c-22.7 58.5-47.6 150.8-55.3 168.6-7.7 17.8-50.4 80.7-82.5 112.7-32 32-65.9 68.2-75.4 99.1-3.6 11.6 2.7 27.2 6.1 44.1 5.8 28.3 13.7 59.4 27.1 75.8 11.3 39.2 21.1 71.4 20.3 90.7-1.1 28.1-7.4 79.1-16.5 116.8 3.7 27.6 28.1 85 49.4 125.3-5.3 19.6-3.7 46.7 15.4 82.8 19.1 36.1 44.2 86.2 101.4 136.2 8.5 7.4 19.9 7.5 19.9 7.5 1.1 1.6 2.1 7 1.9 9.7 7.3 3.2 17.5 14.4 23.1 38 4.4 6 19.9 7.1 19.9 7.1l1.1-4c5.7-.2 17.8 1.9 23.5 5 .3 4.2-4.5 11.3-4.9 16.6"/><path class="st1" d="M228.7 1226.6c.7-7.1 5.7-12.7 5.7-12.7 8.3-3.9 25-8.7 41.5-9.7"/><path class="st0" d="M574.3 964.4c-24.9 19.5-66 58.7-85 84.9"/><ellipse class="st0" cx="1024" cy="801.5" rx="85.4" ry="32.9"/><path class="st0" d="M1003.5 688.3c-4.8-6.9-5.9-36.2 2.1-43.1s350.3.8 378.3 12.2c1.4 3 1.9 10.2 1.9 10.2 29.7.4 121 4.8 134.2 6.4 1.9 4.1 2.1 14-5.1 15.9s-102.5-4-132.4-4.8c-3.3 5.2-290.1 1.6-346.7 3.3.4 2.8-7.6 7.8-16.3 7.8s-16.1-2.4-16-7.9z"/><path class="st1" d="M1636.5 290.4c-32.7-58.3-455.6-68.7-612.5-68.7s-579.8 10.4-612.5 68.7"/><path class="st1" d="M1024 740.3c193.8 0 632.6-12.1 733.3-84.9 0 0-96.1-333-162.3-351.6-66.2-18.7-453.3-26.1-571-26.1s-504.8 7.5-571 26.1-162.3 351.6-162.3 351.6c100.7 72.7 539.5 84.9 733.3 84.9z"/><path class="st0" d="M1835.2 688.8c20.9 21.7 11.1 55-28 73.9s-244.8 56.6-283.9 72.1-7.4 49.9 22.3 80.2 53.3 54.6 90.3 54.6 187.5-11.9 238-65.3M1563.1 206.8c-103.5-18.2-421-39.1-539.1-39.1s-435.6 20.8-539.1 39.1"/><path class="st0" d="M1749.4 572.7c14.3 54.1 40.7 151.3 57.8 190 5.9 13.4 16.1 41.8 17.6 47.2 1.4 5.4-4.3 29.5-7.9 32.4-3.7 2.8-19.3 6.2-23 20.7s.6 52.2.6 61-6.5 19.9-7.2 24.3-43.6 87.4-51.1 110c-7.5 22.5-11.7 58.8-8.8 80.5-8.8 19.2-37.1 97.6-53.9 133-1.9 15.1 17.1 51.1-10.3 72.6-65.9 51.8-373.4 66.5-639.1 66.5s-573.2-14.7-639.1-66.5c-27.4-21.5-8.3-57.5-10.3-72.6-16.8-35.4-45.2-113.8-53.9-133 2.9-21.7-1.3-58-8.8-80.5s-50.4-105.6-51.1-110-7.2-15.5-7.2-24.3 4.3-46.5.6-61-19.3-17.9-23-20.7-9.4-27-7.9-32.4c1.4-5.4 11.6-33.8 17.6-47.2 17.1-38.7 43.5-135.9 57.8-190"/><path class="st0" d="M1589.2 954.5c-169.9 17.1-407 27.4-565.2 27.4s-395.3-10.3-565.2-27.4"/><path class="st1" d="M1056.7 137.5v-8.7c0-5.3-11.2-18-16.7-30.9-4-9.6-6-25.2-9.1-29-3.1-3.8-6.9-3.5-6.9-3.5s-3.8-.3-6.9 3.5c-3.1 3.8-5.1 19.4-9.1 29-5.5 12.9-16.7 25.7-16.7 30.9v8.7"/><path class="st1" d="M1045.8 108.8c70.1 0 266.6 9.6 327.9 19.5 38.2 6.2 82.2 31.6 82.2 31.6l27.8 7.8c-5.9-7.2-13.8-28.5-40.6-39.7-26.8-11.2-85.5-30-111-4.6"/><path class="st1" d="M1479.8 162c19.4 6.5 103.9 47.2 149.6 102.5 6.2 7.5 3 18.3 7.1 25.9s34.9 55.1 57.6 113.7c22.7 58.5 47.6 150.8 55.3 168.6 7.7 17.8 50.4 80.7 82.5 112.7 32 32 65.9 68.2 75.4 99.1 3.6 11.6-2.7 27.2-6.1 44.1-5.8 28.3-13.7 59.4-27.1 75.8-11.3 39.2-21.1 71.4-20.3 90.7 1.1 28.1 7.4 79.1 16.5 116.8-3.7 27.6-28.1 85-49.4 125.3 5.3 19.6 3.7 46.7-15.4 82.8-19.1 36.1-44.2 86.2-101.4 136.2-8.5 7.4-19.9 7.5-19.9 7.5-1.1 1.6-2.1 7-1.9 9.7-7.3 3.2-17.5 14.4-23.1 38-4.4 6-19.9 7.1-19.9 7.1l-1.1-4c-5.7-.2-17.8 1.9-23.5 5-.3 4.2 4.5 11.3 4.9 16.6"/><path class="st1" d="M1684.1 1463.6c-71.6-5.1-106.2 18.8-227.7 29.4-144.2 12.6-324.6 15.1-432.3 15.1s-288.1-2.5-432.3-15.1c-121.6-10.6-156.2-34.5-227.7-29.4M1820.7 1237.1l-1.4-10.5s32.1-64.5 36.1-92.2c1-6.7.2-12-6.9-13.1-18.3-2.7-38.2 5.9-51.3 10.5 0 0-9.9 36.2-25.8 73.8-22 52.2-120.8 78.2-239.7 96.2-186.2 28.2-423.8 30-507.7 30s-321.5-1.8-507.7-30c-119-18-217.8-44-239.7-96.2-15.8-37.6-25.8-73.8-25.8-73.8-13.1-4.6-33-13.2-51.3-10.5-7.1 1-7.9 6.4-6.9 13.1 4.1 27.6 36.1 92.2 36.1 92.2l-1.4 10.5"/><path class="st1" d="M1819.3 1226.6c-.7-7.1-5.7-12.7-5.7-12.7-8.3-3.9-25-8.7-41.5-9.7"/><path class="st0" d="M1473.7 964.4c24.9 19.5 66 58.7 85 84.9M1331.2 973.2V1085c0 5.9-4.8 10.7-10.7 10.7h-593c-5.9 0-10.7-4.8-10.7-10.7V973.2M1870.1 1111.8c-16.6-9-98 18.2-142.8 26.8-185.8 35.4-495 55.5-703.3 55.5s-517.5-20.1-703.3-55.5c-44.8-8.5-126.2-35.8-142.8-26.8"/></svg>