<svg version="1.1" id="Calque_1" xmlns="http://www.w3.org/2000/svg" x="0" y="0" viewBox="0 0 500 375" style="enable-background:new 0 0 500 375" xml:space="preserve"><style>.st2,.st3{fill:none;stroke:#fff;stroke-miterlimit:10}.st3{stroke-width:.5}</style><g id="Calque_2_00000097499892672462164070000004924398816173503620_"><path class="st2" d="M482.5 46.1c10 4.9 17.5 9.5 17.5 9.5M499.3 259.2S311.4 299.8 306 297.7c0-2.8 9.9-24.6-1.5-44.2-13.1-21.8-27.3-34-73.8-33-44.4 3.8-86.3 44.6-94.5 70.6s-5.9 30.1-7.5 31.9c-3.8 3.3-50.3 1.4-59.9-5-31.1-15.1-45.3-33.3-46.9-45.8s-3.2-32.3 10-56.7c.5-7.7-10.5-32.2-17.5-73.3 11.4-23.2 83.4-85.8 86.4-88.7-.7-2.2-20.5-7.5-19.6-12.5 3.4-6.1 138.4-13.2 149.1-14M487 155.9c3.6-.3 9.1.5 9.7 1.4.6 1 .5 3.4-.8 3.9-1.6.6-6.9 1.3-8.2 1.5-1.3.3-13.2 1.1-17.2 1.3-1.3.1-8.9.3-10.3-.7s-1.8-3.1-.3-4.6 9.1-2.1 11.5-2.1c2.1-.2 14.4-.6 15.6-.7z"/><path class="st2" d="M322.7 162c1.9.6 3.8 2.6 2.9 5.1-1.7 2.5-9.7 3.1-11.6 3.4s-22 1-24 1.2c-2.9.2-9.8.4-13.8 0-3-1.2-4.5-5.7-.8-7.9 3.6-1.2 11-1 14.9-1.1 2.5 0 14.3-.5 23-.7 4.8-.2 8.7-.2 9.4 0zM17.6 137.7c3.8 4.2 9.8 6.5 18.3 8.3 22.4 2.6 90.9 3.6 96.2 8.9 3.8 6.4-18.8 22.1-31.8 31.2s-46.4 9.7-55.3 5.8-18.1-10.4-22.1-12.7"/><path class="st2" d="M150.3 32.1c5.6 2.1 15.6 8.7 17.5 12.9 3.1 7 3.4 15.8-13.4 27.2S72.6 117.7 63.9 123c-9.8 6-31.1 23.5-39.5 29.2-2.5 2.5 1.8 26.4 4.9 34.6 3.1 8.1 10 17.9 8 27.6-2 9.7-4.9 1.4-4.9 1.4M242.6 220.8c11 4.3 20.7 9.2 24.9 12.4 4 3 22.8 22.9 27.2 31.9 3.4 7.2 7 29.2-.4 48.3-7.4 19-19.8 31.2-30.5 39.2-10.7 8.1-34.7 19.2-51 20.2-21 1.4-45.9-9.4-54-21.6s-11.7-22.8-12.7-37.5-1.7-16.2-1.5-22.8c.2-6.6 3.9-21.1 10.5-29M482.6 46.2c.8.4-10.2-9-18.9-12-10.5-4.1-38.2-10-50.3-11.3s-57.8-4.3-75.3-4.1c-18.5.1-71.2.3-87.7 2.5s-24.6 8.1-26.1 9.3c21.4-1.2 103-5.3 123.9-5.2 21.4.1 56.9.2 95.8 8 22.5 4.9 31.9 9.3 38.6 12.8z"/><path class="st3" d="M500 61.5c-10.4-7.2-42.1-20.9-90.8-24s-116.4 1.3-133.4 3.7c-19 2.7-66.3 15.8-110 52.5-8.8 9.3 35.9 16.5 46.6 19 38.6 9.1 96.2 14.6 127.1 15.5 30.9.9 157.5 4.9 160 4.6"/><path class="st3" d="M409.2 37.4c6 17.2 19.8 67.9 22.1 93.5 24.1 26.6 8.9 26.6-6.4 144.1M281 40.5c-6.6 20.6-21.8 53.4-28.9 79.5-5.4 9.3-1.6 42.7 6.5 102M164.1 64.2c-11.8-2.7-32.9-7.2-39.9-8.1s-13.8-2-23.5-2.5M66.8 121.3c-7.5 2.1-14.6 3.9-24.2 4.1-9.7.2-9.8-5.2-6.6-10.4M190.1 29.4c-2.1-2.2-9-7.9-13.7-8.9-4.7-1.1-10-1.1-10.6-1.1s2.5 5.1 2.7 5.9c.4 1.4.3 4.1-.5 5.6"/></g></svg>
