<svg version="1.1" id="Calque_1" xmlns="http://www.w3.org/2000/svg" x="0" y="0" viewBox="0 0 500 375" style="enable-background:new 0 0 500 375" xml:space="preserve"><style>.st2,.st3{fill:none;stroke:#fff;stroke-miterlimit:10}.st3{stroke-width:.5}</style><g id="Calque_2_00000074406591991043439640000014605924376294900358_"><path class="st2" d="M.2 214.2c9.7 9.2 34.6 26.9 38.4 29.3 0-4.7-13.4-34.7-14.8-84.4-.4-14.4 9.4-43 33.7-26.2C85.6 154 117.6 227.6 133 300c3.4 11.2 18.4 22.1 38.5 29.6s87.8 16.8 148.7 5.1c26.5-5.4 132.9-45.1 148-86 7.3-42.6 14.7-100 15.8-123.8-25.4-29.3-62.8-40.2-86.5-47.4-36.9-11.2-126.3-23.3-144-22.6C235.3 43 219.1 35.6 206.2 30 188.7 22.5 128 3.3 98.3 0"/><path class="st2" d="M351.5 118.7c-1.9 7.5-16.2 10.7-26.1 12.6S157.9 113 127.6 104.7C111.2 97.2 91.1 66.9 97 56.6c8.6-9.7 130.9 4.1 151.3 8.8 19 4.3 52.1 15.6 59.9 19.7 10.7 5.5 45.2 26.1 43.3 33.6zM473.3 208c.9.2 1.4-.9 1.4-.9M483.1 137.5c-10.1 0-69.2 4.5-86.2 8.8s-53.8 32.4-52.6 39.9c1.7 10.3 30 42.1 55.7 50.5 7.6.2 15.8-1.3 23.7-3.6M.3 32.1s2.8.4 5.3 2.9 4.2 7.4 4.7 9.8c.5 2.4-.8 7.7-.9 8.4.8.3 11.2.4 11.9 1.4-.1 1.6-3.2 9.6-5.2 10.6S1.6 64.7.3 64.3M159.4 324.4c0 6.6-54.9 29.5-59.2 29.5s-14.2-1.2-25.3-10.5c-12.3-11.2-26.4-51.1-30.1-66.6-3.7-15.5-12.1-62.9-9.4-90.8 3.4-17.7 8.1-31.8 20.9-36.9 8.4-3.4 14.3-2.9 14.3-2.9"/><path class="st3" d="M474.2 199.1s-5.6 11-49.4 26.1c-1.5 7.9-3.4 32.7-2.9 33.9 2.7 1.6 41.5-20.4 49-33.5 1.5-6.8 3.2-22.6 3.3-26.5zM195.8 265c-5.4 1.8-27.5-55.8-26.9-69.9s7.7-12.9 13.5-12.4 14.4 1.5 17.2 5.6c2.9 4.1 13.6 32.8 11.6 44-2 11.2-8.6 30.4-15.4 32.7zM84.9 0c12.4.7 64.1 12.5 71.8 14.6s43.8 14.5 50.2 17.3 38.5 20.6 42.5 22.5c0 0-24.2-1.4-27.7-2.1s-72.9-8-76.5-8.1c-9.2-1.4-86 1.5-91.5 0-5.4-1.5-9.4-2.2-15.4-14.8S26.9 2.1 26.2 0M12.1 0c3 4.8 17.5 52.3 12.9 67.6-26 26-2.8 138 7.3 171.5"/><path class="st2" d="M5.1 0 .2 5.4"/><path class="st3" d="M6.8-.2S2.4 4.2 0 7.5M25 67.6C21.5 68.2 1.9 70.9.3 71M98.5 55.6c-19.7-1.8-50 6.2-50.5 5.4-.9-2.8 3.1-16.7 5.8-16.7M436.4 91.2c-16.2-4.7-95.4-11-133.4-8.6M9.2 53.4C8 53.3.9 52.6 0 52.6"/></g></svg>
