<svg version="1.2" xmlns="http://www.w3.org/2000/svg" width="2048" height="1536"><style>.s0{fill:none;stroke:#fff;stroke-linecap:round;stroke-linejoin:round;stroke-width:4.6}</style><path id="Layer" class="s0" d="M0 87.2c87.1-3.6 277.3-8.3 372 19.9 81.2-1.2 232.8 6.1 365.8 27.9 141.8 6.3 199.3 35.5 244.3 71.6 98.6 43.4 277.3 155.1 318 186 40.7 30.9 87.8 50.6 136.2 58.3 186.2 29.7 527.4 110.3 611.8 157.5"/><path class="s0" d="M1411 445.8c63.1 18.7 118.6 68 118 98.1-.4 23.8-62.9 98.6-95.3 116.1-36.7 19.9-77.8 23.6-93.9 25.3-67.2 7-129.3-2.6-200-21.6-105.3-28.4-420.7-346.5-631.2-459.1C325.8 106.8 124.2 110.8.1 113.8m2048 1284.8c-110.6-162-332.5-264-544.2-288.2-211.7-24.2-485.9 45.9-499.9 280.6-39.5-10.2-95.3-21.4-125-43.9-29.7-22.5-92.8-69.6-204.4-104.4C563 1207.9 129.1 1067.8.1 1038.1"/><path class="s0" d="M1153.7 1298c-34.5 8-56 21.3-68.3 39.1-5.6 8-21 45-31.2 68.9-1.1 9.4.8 41.7 3.3 50l-7.4 13.8c-98.1-21-255.7-59.9-371.9-97-116.3-37.1-532.6-160.7-678.1-210.2"/><path class="s0" d="M1054.2 1406.1c0-183 221.4-274.8 477.9-232.1 245.1 40.9 450.2 181 507.5 362"/><path class="s0" d="M1141 1536c-14.5-27.3-28.2-68.2-21.8-124.6 6.4-56.3 48.6-153.8 82.8-208.2m677.6 116.5c16 32.9 49.6 162.3 61.7 216.3m-713.3 0c-39.9-106.7 27-211.1 173.8-228 146.8-16.9 341.6 75.9 398.5 228M.1 157.7c300.6-8.8 421.4 65.3 508.7 121.2 241.4 154.4 503.7 443.4 523.9 504 0 0-89.6-18.1-216.6-43.8m-295.5-60C297 633.5 69.7 586.9.1 571.3"/><path class="s0" d="M881 730.1c-32.2-9.7-142.3 41.9-246.2 41.9-19.6 0-48-11.1-55.1-12.9-7.1-1.8-49-22.3-59.1-79.6-4.2-24.1 19.3-52.5 47.9-67.2 28.6-14.7 87.9-48.2 138.7-45 50.8 3.2 99.9 18.6 124 39.2 24.2 20.6 28.3 41.4 28.6 48.1.8 16.6-6.2 28.7-6.2 28.7l60.3 8c2.1 13.6-.5 29.7-32.9 38.8zM.1 546.3l524 110.1m345.2 72.5 151.9 31.9"/><path class="s0" d="M.1 181.8s229.6-21.2 417.7 79.1C660.2 390.2 963 703.7 979.2 752M755.7 511.5v62.7m277 208.8c27.1 66.1-41.4 472.6-64.9 598.9 0 11.6-9.1 42.1-34.2 41.7-25.1-.4-794.5-235.5-933.4-281.3m1902.4-204.1c-92.7-16.1-524.5-96.9-582.4-119.7-57.9-22.8-94.7-108-97.1-113.9-2.4-5.9 3.9-15.4 7.1-21.7"/><path class="s0" d="M2048.1 1082.7c-57-38-124-104.1-138.6-124.6-14.7-20.5-6.6-25.4 12.5-28.4 15.2-2.4 83.6-5.4 126.1-2.1M171.4 1085.8c-8.9-16.9 3.5-80.4 0-103.7-3.5-23.3-19.3-61.5-49.1-125.5-29.7-63.9-46.4-143.3-29.6-265.5l1.3-15.5 9.1-7.7c-12.8-60.1-33.4-294.1-13.9-387.4m42.5 2.6c-9.4 63.4 9.5 319.2 35.3 398.3m61 632.5c-25.5-21.9-35.9-49.6-35.2-56.8-5.7-5.7-8.3-34.1 1.8-40.2v-24.1m1144.6-665.7c62.1 41.4 67.2 64.7 47.8 89.4-19.4 24.7-88.5 69.7-178.7 108.7-21.7 9.4-35.2 14.3-65.6 0-114.8-53.9-397.3-263.7-504.5-361-22.1-20.1-14.5-35.9 18.8-45.7 33.3-9.8 123.7-17.1 165.3-18.9 105.8-4.7 162.9 12 193.5 28.3 30.7 16.4 273.7 166.1 323.4 199.2zM48.6 179.8c-13.5 64.5-21.8 281.8-7 375.2"/><path class="s0" d="M290.7 763.1c13.6 3.8 35.4 9 41.5 18.6 6.1 9.6.3 21.2-15.7 21.2-25.8.1-116.5-14.1-171.6-33.7-9-3.2-22.9-21.5 9.3-31.7 18.3.9 50.5 7.8 50.5 7.8-7 10.2 1.5 12.2 7.8 13.9 6.4 1.7 29 9.4 44.9 7.7 13.1-1.3 24.9-3.4 33.3-3.8z"/><path class="s0" d="M204.8 745.4c3.8-6.9 8.4-14.9 25.3-14.2 21.9.9 53 6.4 56.7 32.2m0 38.1c-.2 7-.2 16.8-14.2 16.6-14-.2-51.4-5.6-64.8-31.5m164.3-679.4c61.3 20.9 101.2 40.6 157.5 92.5m434.3-.8c-32.7-15.9-110.5-48.6-226-63.8"/><path class="s0" d="M508.6 204.6c83.8-23.4 373.4-49.1 473.5 2"/></svg>
