<svg version="1.2" xmlns="http://www.w3.org/2000/svg" width="2048" height="1536"><style>.s0{fill:none;stroke:#fff;stroke-linecap:round;stroke-linejoin:round;stroke-width:4.6}</style><path id="Layer" class="s0" d="M2048 630.1c-321.1 15.3-814.9 20-1149.6-12.1-185.8-18-412.3-75.2-458.1-90.5-45.8-15.3-36.6-36.2-11.8-57.6 110.1-95.1 378.4-247.8 540.6-278.2 298.2-55.9 517-46.2 679.2-45.1 162.2 1.1 309.7 20.3 399.7 56.3m0 1039c-239 65.6-738.3 218.8-855.5 221.1-1 12 3 31.4-3.5 36.2-6.4 4.8-9.9 0-14.2-5.1-4.3-5.1-21.8-35.2-21.8-35.2"/><path class="s0" d="M278.7 1535.9c39.9-150.8 294.1-331.1 503.6-367.3 69.8-12.1 151.7-14.1 207.3-5.2 173.3 27.9 213.6 155.8 222.1 201.5 5.3 28.5.5 76.4-19.2 98.1"/><path class="s0" d="M1024 1170.7c30.4 39.5 59.6 83.6 87.9 132.5 36.4 62.8 58.7 142.3 24.4 232.8m-776.1 0c1.5-25.9.5-54.7 3.9-75 4-23.8 15.5-66.4 25.5-88.1M514.7 1536s86.8-171.2 275-202.2c258.1-42.6 290.2 124.2 264.9 202.2"/><path class="s0" d="M205.3 1535.9C360.2 1175 719 1099.2 915.8 1099.2c183 0 348.5 104.5 343.2 272.3 0 0 68.7-18.8 80.3-24.6 55-27.2 54.8-67.9 142.2-97.8 87.5-29.9 508.7-118.2 566.5-131.3M.2 354.7c39.9-35.4 83.9-76.1 113.2-99l-1.6-5.9c-6.7-7-76.4-47-91.3-55.9-14.9-8.9-5.1-28.2 10.6-30.6 87-13.4 369.9-41.3 479.8-48.9-1.2-3-2.3-10.3-.4-24.4 1.9-14.1-4.6-22.5-19.1-43.1 69-6.5 111.8 32.6 135.7 58.8 49.8-2.7 124.3-6.3 158.5-7.3"/><path class="s0" d="M364.6 126.7c48 34.2 94.7 124 48.7 184.2-46 60.2-236.6 152.8-413.3 254.2"/><path class="s0" d="M411.1 313.7c-76.8-17.5-282.7-70.4-351.5-96.8M2048 608.4c-162.2 9.4-579.5 17.8-827.5 7.7-248-10.1-424.1-29.3-687.9-87.7C663 413.1 850.3 248.7 1013.1 216.9c227.6-44.5 559-49.3 711-42.9 152 6.4 231.2 22.7 323.9 53.7"/><path class="s0" d="M1792.9 178c32.5 63.2 96.1 345.2 104.9 436.7m-219.7-442.1c23 83.5 66.9 323.5 67.6 445.7m-4-443.5c39.2 108.3 77 335.2 86.5 441.7m6.2-.1c6.2 5.4 7.7 21.3 7.7 21.3m3.3-.1c24.1 28.2 76.7 106.4 60.8 183.2-21.6 104.4-70.8 176.4-78.6 211.8-11.4 51.6 7.6 125.1-13.9 136.3m-15.2 3.3c-5.7 21.1 20 77.6-42.4 128.5"/><path class="s0" d="M2048 1218.4s-561.5 159.7-744.1 206.3c-43.2 11-56.1 3.6-51.8-14.5 4.3-18.1 6.9-28.4 7-38.6M2048 796.3c-13.5 1.8-46.4 4.8-62.3 2.8-15.9-2-16.7-19.8-4.6-28.9 12.1-9.1 46.3-11.2 53.3-11.2s9 2 13.6 4.1"/><path class="s0" d="M2048 816.4c-9.7.5-13.4-4.3-14.2-18.5m3.7-38.8c1.5-6.6 5.8-12.5 10.5-16.6M1224 829c18.7-1.2 40.8-.9 53.7 1.7 12.8 2.6 20.1 28.6 1.5 35.3-18.6 6.7-46.7 8.5-78.4 10.5-31.8 2-136.2 19-176.6 16-25.7-1.9-28.4-34.1-5.9-40.2 22.5-6.1 56.6-9.9 80.2-11.1 21.6 7 106.8 9.4 125.5-12.2z"/><path class="s0" d="M1098.3 841.2c-.6-11.4 11.6-26.8 26.2-30.6 14.6-3.8 43.7-6.4 65.3-5.5 21.6.8 31.3 17.2 31 26.8m1.5 43.2c-1.7 12.5-10.5 23.3-20.7 27.1-10.2 3.8-44.9 7.9-63.6 8.5-18.7.5-30-10.5-34.5-22.9m-187.7 211.4s.3-51.9-3.1-67.5C895 950.5 874.1 759.9 883 674.4c4.5-43 19.3-69.5 15.7-82C941.7 472.9 1052 198 1054.3 177M0 817c46 .4 134.5 4 194.9 16.6 26.5 5.5 25.3 26.1-8.7 58.2S54.5 1013.7 0 1034.7"/><path class="s0" d="M360.3 1309.5c-15.1-16.4-33.3-40.8-48-63.6-66.2-102.7-140.6-238.8-179.2-305.9m511.2-128.1c37.6.1 73.8 2.4 93.8 46.6 9 20 16.7 62.8 15.7 87.6-1 24.7-6.2 57.6-50.9 71.9-44.7 14.3-81.4 18.1-120.9 20.9-39.5 2.9-72.3-2.9-87.1-41.9-14.8-39-15.2-88.5-12.4-111.8 2.9-23.3 18.6-50.9 52.8-58.5 34.2-7.7 82.1-14.9 109-14.8zM113.2 255.8c14 28.3-1.5 60.6-27.6 84.8-26.1 24.2-56.9 52.8-85.6 78.9m0-274.3C68 100.6 263.2 75 405.6 61.5 619.3 41.3 1128.4 69 1183 75.4c45.5 5.3 61.2 13.2 79.4 23 16.7 9 26.1 18.4 26.1 18.4l-3.4 6.7c-140.5-11-394-31-665.9-34.4C347.3 85.7 144.1 112.7 0 161.9"/></svg>