<svg version="1.1" id="Calque_1" xmlns="http://www.w3.org/2000/svg" x="0" y="0" viewBox="0 0 500 375" style="enable-background:new 0 0 500 375" xml:space="preserve"><style>.st1,.st2{fill:none;stroke:#fff;stroke-miterlimit:10}.st2{stroke-width:.5}</style><g id="Calque_3"><path class="st1" d="M499.9 204.3c-4.3 4.9-146.2 72.5-158.7 72.9-2.5 1.5 18.5-30.7-3.3-57.4-17.6-16.6-51.4-11.3-74.4 3.4-24.7 15.8-59.7 52.9-66.5 96.5-1.2 7.7-.5 16.9-1.9 18.3-15.4 16-104.9 16.8-129.8-8.7-23.5-24-33-58.7-39.4-81.9-3.3-12.1-16.1-55.8-10.3-72.2 14.8-41.1 99.4-69 171.9-81.4 9.8.9 76.5-52.4 92.6-54.4 4-3 52.4-13.8 61.8-14.7 22.4-2.1 56.2-4.7 88-5.3"/><path class="st1" d="M373.7 121.2c.9 3.7 3 7.1 5.5 7s6-.9 7.9 0c1.9.9 17.6 2.5 25.5 2.4 7.6-.1 24.1-.4 28.5-6.6 7.9-8.8 7.6-14.1 5.6-17.6-2.8-3.7-16.2-8.8-34.9-10-17.2-.7-25.9 9.7-26.7 15.3-.8 5.6.6 7 .3 6.9-4.3.8-11.7 2.6-11.7 2.6zM231.6 167.6c6.2 3.1-18.6 35.6-44.7 49.6S82 230.3 69.1 226.9c-13-3.4-19.2-7.9-17.6-10.9 1.6-3 14.3-15.2 37.7-26.2 18.2-9.4 134.9-28.7 142.4-22.2zM14.3 191.5c3.3 19.4 14.8 31.9 24.6 42.1 3.8 3.9 15.6 20.3 17 23.9 1.5 3.7-7.8 18.7-15.4 14.7s-13.3-19.4-13.3-20M473.6 129.7c-4 .7-17 3.7-19.3 5.6-2.2 2-3.8 4.3-2 5.7s24.8-4.2 25.4-6.4c.5-2.2.8-3.9 0-4.1s-3.5-.9-4.1-.8zM499.9 218.8c-3.8 0-5.7-1-6.5-1.8-1.9-1.8-3.6-4.2-4.4-6.4M294.4 210.9c4.7 2 25.6 11.8 29.5 15.9 3.8 4 19.6 24.9 11.2 52.5s-22.9 51.7-39.8 63.5c-18.8 13.2-37.3 19.6-52.7 16.3-17.7-3.8-26.3-16.8-29.7-21.9-3.5-5.3-13-19-15-22.5M499.9 22.2c-4.5-1-31.4-8-52.9-7.1-22.3 1.9-33.2 16.1-35.1 18.6 0 .4 6.5 1.1 6.5 1.1s14.4-12.1 34.5-13.4c17.9-1.2 40.4 2.2 47.1 4.4M329.4 26.9c-2.1-.2-16.8-.2-27.7 2.2-10.9 2.4-20.8 8-21.9 10.5"/><path class="st2" d="M418 35.4c-18.3 13.2-65.6 73.1-73.7 76.7-18.5 13.1-51.5 13.4-82.1 10.3-44.6-11.8-76.1-19.9-77-21.6 19.2-14.5 86.8-57.2 93.9-60.3 6.2-1.6 12-5.3 56.6-8.8 33.6-1.3 71.1.5 82.3 3.7zM499.9 31.6c-5.1-.9-41.4-7.9-61.4 3.2-18.6 10.3-78.1 81.9-80.6 103.4 4.9 20 6.7 84 .3 133.3"/><path class="st2" d="M472 28.7c1.3 10.7 7.7 68.9 6.3 76.6 10 17.1-4 71.9-14.8 118.1M391.7 129.4c-18 4.8-31.7 8.4-33.8 8.6"/><path class="st2" d="M499.9 98.6c-2.6 1.3-25.5 7.9-52.1 15.4M136.5 269.3c7.6.9 12.8 2.8 12.6 6.8 1.5 9.4-8 36.2-10.7 37.9-2.6 1.7-6.6-14.4-6.5-28.5.8-7.6 4.6-16.2 4.6-16.2zM342.4 272.8l-4.9-3.4M324.6 120.6c3 2.6 1.1 19.6-8.3 24.2-9.4 4.5-81.8 22-84.7 22.8M79.5 194.7c-18.7-10.2-52.8-35.1-34.4-52.5"/></g></svg>
