<svg version="1.1" id="Calque_1" xmlns="http://www.w3.org/2000/svg" x="0" y="0" viewBox="0 0 500 375" style="enable-background:new 0 0 500 375" xml:space="preserve"><style>.st2,.st3{fill:none;stroke:#fff;stroke-miterlimit:10}.st3{stroke-width:.5}</style><g id="Calque_2_00000079450483680996910130000000329578264847429819_"><path class="st2" d="M46 234s-15.4-57.4-.1-70.9c15.8-12.9 42.3 21.2 56.3 45.8 14.2 25 54.5 106.9 62.4 115.6 17.5 22.9 82.5 30 112.3 27.4 44.7-3.8 75.3-13.9 95.3-25.7 20-11.8 96.1-77.5 102.7-93.6 1.4-3.8 6.8-18.5 5.7-38.7-4.4-11.3-17.4-15.6-19.2-16.5-1.7-.9 22.2-93.6 17.8-106.3-11-12.7-44-41.7-79.2-71.2M0 211.4c3.5 1.7 47.4 37.2 47.4 37.2"/><path class="st2" d="M135 62.5c-5.6 11.4 25.3 43.9 39.6 50.1 25.1 7.3 46.6 6.5 81.8 0 36.6-5.2 93.2-.9 107.6-9.1 13.3-7.7 39.2-37.3 33.5-47.7S323.3 39.3 288 38.4c-35.7-.9-143.1 6.4-153 24.1zM25.8 102.8c1.4.5 6.4-.3 10.2-1 2.1-.4 6-1.5 6.6-2.5 1-3.4 2.5-7.9 1-8.3s-16.7-.1-20.2.9c-3.7 1-6.1 1.9-6.3 3.2-.1 2-.2 3.2 1.2 4.9 1.5.7 5 1.9 7.5 2.8zM-.4 6.9C1.1 5.3 4.4 1.2 6.2 0"/><path class="st2" d="M235.8 0c8.8 6 50.7 34.3 55.5 42.2s13.4 58 13.7 71.6c.3 13.7 8.8 124.8 7.9 136 0 0 126.3-29.7 147.5-71.3M180.1 336.4c.2 6.6-3 12.1-7.5 16-4.4 4-39.5 22.5-39.5 22.5M80.6 178.5c-4.9.9-14.5 2.6-17 3.7-2.4 1.1-11.2 7.6-13.7 15.6-2.1 6.5-6.5 23.3-2.4 52.6s10.3 50.4 13.3 58.5c3.4 9.3 11.2 30.1 23.5 49 4.4 6.8 12.5 14.5 15.2 17.1"/><path class="st3" d="M0 11.4C2.3 8.9 9.2 1.4 11 0M135 0c-5.2 6.1-48.8 34.4-58.7 40.6S26.4 67.7 0 76.1"/><path class="st3" d="M19.3 0C13.9 10.4 0 73.9 0 79M76.3 0c-1.6 14.4-2.3 26-1.9 41.8.1 3.9-30.3 36.3-25.5 119.5M7.5 216.8c-4.4-30.2-7.5-42.1-7.5-62M214.8 274.5c6.8-4.5 20.1-12.9 25.6-17.9 3-5.5 25.1-51.8 23.4-51.7-2.3-.6-16.1 3.8-22.6 10.9-8.8 9.4-27.9 59.6-26.4 58.7zM265.8 0c4.3 5.3 7.7 10 8.3 10.2s125.5 15.5 183 39.3M388.4 112.1l10.4 34 55.8-12-8.4-25.7z"/><path class="st3" d="M214.8 274.5c24.8 8.5 57.5 13 95.3 7.2s114.1-34 140.3-55.1 30.1-27.7 30.1-32.9"/><path class="st3" d="M240.5 256.5c25.3 1.1 61.3-3.5 71.9-6.3"/></g></svg>
