<svg version="1.1" id="Calque_1" xmlns="http://www.w3.org/2000/svg" x="0" y="0" viewBox="0 0 500 375" style="enable-background:new 0 0 500 375" xml:space="preserve"><style>.st2,.st3{fill:none;stroke:#fff;stroke-miterlimit:10}.st3{stroke-width:.5}</style><g id="Calque_2_00000036951887397029228730000017203812935816302236_"><path class="st2" d="M345.8 32.9c22.5 18.9 46.9 71.5 64.6 105.5 16.1 26 53 42.9 89 100.1M171.1 26.2c25.5-6.2 66.3-5.3 79.1-5.2 4.6 0 48.4.2 73.8 3.6M-1.2 239.7c39-57 78-85.9 80.4-88.3 12.5-12.6 51.3-101.5 75.2-119"/><path class="st2" d="M472.8 202c-2.9 0 3.3 72.3-3.6 122.8-.7 8.1-3.7 34.7-6.8 50.3M500 342.8c-9.5 14.1-18.7 26.9-23.9 32.2M28.3 201.4c-2.1 34.3-.7 92.9 2.7 122.1 1.7 14.6 5.4 46.5 6 51.4M0 342c4.8 9.8 18.1 27.9 22.7 33M95.5 125.4c-3.8-1.1-9.8-1.8-14.7-5.6-4.1-3.1-6.1-8.2-6.7-12.6-.1-2.6 1.6-6.6 10.4-8.6s17.6-1.8 18.9 0 2.6 4 3 6.2M393.3 103.9c.8-4.2 2.4-5.8 4.2-6.6 1.7-.8 22.8 1.1 26.3 5.2s.3 10.2-.5 12.1c-1 2.4-3.4 5.6-5.5 6.7-1.9 1-9.5 3.8-13.2 4.2M308.5 23.2c2-.9 5.1-2.7 12.4-2.5 7.1.1 18.6 4.8 24.2 11.4 4.3 5 6.9 8.8 7 9.9-.3.1-5-.5-5.8-.8-2.5-3.8-13.1-15-22.4-16.7M191.8 22.7c-4.1-1.6-14.4-2.8-19.8-1.4-5.4 1.5-14.3 6.1-17.8 11.2-3.3 4.9-7 8.9-6.8 9.3 2.4.1 6.1-.8 6.1-.8s9.7-12.3 17.6-14.9"/><path class="st3" d="M31.1 324.9c10.4 1.7 93.9 22.8 218.9 21 103.8-1.5 178.4-10.5 219.2-21.1M147.4 42.3c-10.5 16.2-50.9 87.1-48.3 91.8 17.1 13.1 118.5 15 150.9 14.2s118.1-.5 150.3-14c-1.4-13.5-41-86.8-48-91.9-6.7-.8-56.9-7-102.2-6.2-37.3.6-98.8 4-102.7 6.1zM248.5 20.8c.5-1.2.4-1.7.7-1.8.5-.2 1.2-.1 1.4 0 .2.2.4 1.6.5 1.9M76.7 115.1c2.1 1.3 12.8 5.1 21.3 5.5M401.5 120.7c3.6.4 17.8-3.4 21.5-5.5"/></g></svg>
