<svg version="1.1" id="Calque_1" xmlns="http://www.w3.org/2000/svg" x="0" y="0" viewBox="0 0 500 375" style="enable-background:new 0 0 500 375" xml:space="preserve"><style>.st2,.st3{fill:none;stroke:#fff;stroke-miterlimit:10}.st3{stroke-width:.5}</style><g id="Calque_2_00000026153392182430759190000005017813101769609888_"><path class="st2" d="M257.9 24.4c35.8 1.1 104.4 6.9 116.9 15.5 23.6 11.8 36.8 60.8 44.8 81.9 12.8 26.7 26.2 27.8 37 44.9.9 16.8-9.2 35.9-10.6 55.3-.1 11 4.4 19.1 3.7 28.8-3.8 21.2-15.1 75.7-58.3 102.7-17.1 8.4-106.4 8.2-138.7 8.6-28.7.4-120.9 2.7-145.9-9.5-15.8-12.5-49.1-41.2-57.3-103.3 1.2-8.1 4.3-20.1 4.8-25.8-3.3-32.6-13-33.6-11.4-56.3 4.6-6.8 27.3-27.3 35.4-41.4 22.4-55.1 24.5-75.1 46-85.9 9.3-7.4 73.7-15 117.7-15.6"/><path class="st2" d="M49 198c7 4.6 31 13.1 61.2 10.9 9.1-2.9 30-22.6 28-30.3-2.3-6-55.1-9.6-71.4-17-5.3-1.5-10.6-7.2-7.1-12.6M451.6 195.9c-4 5.1-26.1 14.1-60 13.3-13.9-4-34.5-26.5-28.9-30.8 6.1-6.3 52.7-9.2 70.2-16.5 1.9-.8 12-4.7 7.2-13.1"/><path class="st2" d="M78.3 125.8c0 9.7-14.3 40.7-15.2 48.2-1.2 9.6 16.9 66.3 32.9 112.6.7 3.3-3.6 10.7 4 16.5s81.5 14.7 150.1 13.7c62.1-.8 145.8-5.3 151.6-14.7 4-5.2 3.1-11.2 2.3-15.4 7.5-18.2 34.3-97.2 32.6-114.1-3.5-11.4-16.8-43.4-16.8-50.7M143.6 33.8c1.3-2.9 2.4-4.4 4.8-5.8 2.4-1.4 15-3.6 18.4-2.8 3.4.8 6.8 2.9 8.4 3.8M356.9 34.1c-1-1.8-3.5-5.9-7.7-7.1s-16.7-2.3-19.7-.9-5.4 2.7-5.6 2.9"/><path class="st3" d="M61.9 276c3.4-1.7 8.8-3.4 10.2-3.8 1-1.1-4.9-20-5.1-20.5s-11.4-2.2-11.6-1 6 25 6.5 25.3zM72.1 272.2c5.4 8.5 17.9 13 25.4 14.5C134 294.2 222 299 250 298.7c64.8-.7 129.6-6.3 153.9-12 14.8-3.5 19.9-9.2 23.5-14.5M437.2 275.7c-.9-.3-6.9-2.6-9.7-3.5.8-5.9 4.6-18.6 4.9-20.2.3-.5 10-2.3 11.6-1.8 1.2 1.6-6.2 24.4-6.8 25.5z"/><path class="st3" d="M60 290.2c8.2 11.4 30.9 22.5 68.4 26.5 39.2 4.3 86.7 5.3 121.1 4.9 55.9-.6 114.6-1.6 155.7-11.1 15.2-4.2 28.9-11.4 34.7-21.7M80 137.7c13.7-39.2 23.8-69.5 37.2-77.4 14.8-6.7 102.1-6.5 128.9-7.1 26.9-.7 128.9 1.3 137.6 8.1 11.5 6.2 21 31.6 36.3 76.1-12 12.9-132.8 16.9-170.3 16.8-35-1.1-151.4-3.7-169.7-16.5zM242.1 25.7c4.6-.2 15.3-.1 15.7 0 .4.1-.1-1.4 0-2.1.1-.6-2.5-3.9-3.6-6.3s-2.1-7.8-2.7-8.2c-.6-.5-3-.7-3.1 0s-2.1 7.2-2.9 8.5c-.8 1.3-3.3 5.4-3.4 5.8s0 2.3 0 2.3zM178.5 211.2H321V240l-142.5.7z"/></g></svg>
