<svg version="1.1" id="Calque_1" xmlns="http://www.w3.org/2000/svg" x="0" y="0" viewBox="0 0 500 375" style="enable-background:new 0 0 500 375" xml:space="preserve"><style>.st2,.st3{fill:none;stroke:#fff;stroke-miterlimit:10}.st3{stroke-width:.5}</style><g id="Calque_2_00000180364932541321992000000010498276491350870713_"><path class="st2" d="M0 230.8c25.6 23.1 30.1 72.4 35.8 83.4-8.3 4.8 423.4-1 425.6-4.8 7.1-10.5 16.2-73.6 38.6-86.9"/><path class="st2" d="M465 300.9c1.9 10.6 10.7 23.7 13.6 27.4 3.2 4.1 12.5 15 21.3 19.3M0 347.4c16.7-9.4 32.1-32.9 33.4-40M90.7 85.2c18.3-9.6 36.7-19.1 45.4-22.6 18.7-7.5 41.1-20.9 78.3-29.2s90.9-9.5 110.2-9.7c19.2-.2 140.7 4.6 175.5 11.9M0 121.5c13.2-2.4 30-5.1 41.9-10.7 5.1-2.4 19.9-10.3 36.3-18.9M500 133.8s-27.3 1.5-28.6 1.7c-1.3.2-7.8 1.4-8 3.1-.1 1.3.2 4.4 3.1 5.4 2.6.8 10.6.7 11.4.6.9-.1 21.9-1.1 21.9-1.1M269.7 145c-8.5-1.1-48.3 2.2-50.5 2.5s-5.1 3.1-5 4.4c.2 1.3-.4 3.4 3.8 4.2s10.5.5 10.5.5l28.1-1.4s14.3-.3 16.7-1.6c2.4-1.2 3.8-2.6 3.1-5-.8-2.5-3.8-3.2-6.7-3.6z"/><path class="st2" d="M109.1 126.8s.8-37.4 0-39.6 0-3.3-5.8-3.2c-5.8.1-14.1 1-19 3.2S72.9 97.4 72.8 99.1c-.1 1.7 1.1 8.9.9 10.9s-4.1 7.4-3 10.8 6 6.6 12.7 7.1c6.7.4 25.7-1.1 25.7-1.1z"/><path class="st3" d="M108.8 126.2c-1.2-5.5-1.8-16.6-1.7-17.6.1-1.1-.3-23.5.3-24.3M208.4 34.8c6-4 20.4-8.2 32.5-10.1s64.6-4.5 79.2-4.2c14.6.3 48.1.5 82.5 2.7s75.7 5.9 81.9 10M59.4 315.7C51.2 299 16.6 180.3 31.6 148.4c13.7-24.8 42-41.7 42-41.7"/><path class="st3" d="M111.8 84.3c16.7-9.2 66.7-34.6 91.1-40.8 25-7.6 66.7-15.3 128.3-13.6S473.9 34.8 500 45.6M445.7 311.1c13.7-15.9 14.6-65.2 54.3-106.3"/><path class="st3" d="M298.7 314.3c-1-26.8-5.1-165.1-.9-179s8.2-21.9 8.2-21.9l8.2-83.6"/><path class="st3" d="M45.3 130c19.6 0 394.2-22.2 454.7-31.6"/></g></svg>