<svg version="1.1" id="Calque_1" xmlns="http://www.w3.org/2000/svg" x="0" y="0" viewBox="0 0 500 375" style="enable-background:new 0 0 500 375" xml:space="preserve"><style>.st2,.st3{fill:none;stroke:#fff;stroke-miterlimit:10}.st3{stroke-width:.5}</style><g id="Calque_2_00000055679654584644357140000005633505431290964141_"><path class="st2" d="M500 214.2c-9.7 9.2-34.6 26.9-38.4 29.3 0-4.7 13.4-34.7 14.8-84.4.4-14.4-9.4-43-33.7-26.2-28.2 21.1-60.1 94.7-75.6 167.1-3.4 11.2-18.4 22.1-38.5 29.6s-87.8 16.8-148.7 5.1c-26.5-5.4-132.9-45.1-148-86-7.3-42.6-14.7-100-15.8-123.8C41.7 95.6 79 84.8 102.8 77.5c36.9-11.2 126.3-23.3 144-22.6C265 43 281.2 35.6 294.1 30c17.5-7.5 78.2-26.7 107.8-30"/><path class="st2" d="M148.7 118.7c1.9 7.5 16.2 10.7 26.1 12.6s167.5-18.3 197.8-26.7c16.4-7.5 36.5-37.8 30.6-48.1-8.6-9.7-130.9 4.1-151.3 8.8-19 4.3-52.1 15.6-59.9 19.7-10.7 5.6-45.2 26.2-43.3 33.7zM26.9 208c-.9.2-1.4-.9-1.4-.9M17.1 137.5c10.1 0 69.2 4.5 86.2 8.8s53.8 32.4 52.6 39.9c-1.7 10.3-30 42.1-55.7 50.5-7.6.2-15.8-1.3-23.7-3.6M499.9 32.1s-2.8.4-5.3 2.9-4.2 7.4-4.7 9.8c-.5 2.4.8 7.7.9 8.4-.8.3-11.2.4-11.9 1.4.1 1.6 3.2 9.6 5.2 10.6s14.5-.5 15.8-.9M340.8 324.4c0 6.6 54.9 29.5 59.2 29.5s14.2-1.2 25.3-10.5c12.3-11.2 26.4-51.1 30.1-66.6s12.1-62.9 9.4-90.8c-3.4-17.7-8.1-31.8-20.9-36.9-8.4-3.4-14.3-2.9-14.3-2.9"/><path class="st3" d="M26 199.1s5.6 11 49.4 26.1c1.5 7.9 3.4 32.7 2.9 33.9-2.7 1.6-41.5-20.4-49-33.5-1.4-6.8-3.1-22.6-3.3-26.5zM304.4 265c5.4 1.8 27.5-55.8 26.9-69.9-.6-14.1-7.7-12.9-13.5-12.4s-14.4 1.5-17.2 5.6c-2.9 4.1-13.6 32.8-11.6 44 2 11.2 8.6 30.4 15.4 32.7zM415.4 0c-12.4.7-64.1 12.5-71.8 14.6s-43.8 14.5-50.2 17.3-38.5 20.6-42.5 22.5c0 0 24.2-1.4 27.7-2.1 3.5-.7 72.9-8 76.5-8.1 9.2-1.4 86 1.5 91.5 0C452 42.7 456 42 462 29.4S473.4 2.1 474.1 0M488.1 0c-2.9 4.8-17.4 52.3-12.8 67.6 26 26 2.8 138-7.3 171.5"/><path class="st2" d="m495.2 0 4.8 5.4"/><path class="st3" d="M493.5-.2s4.4 4.4 6.8 7.7M475.2 67.6c3.5.6 23.1 3.3 24.7 3.4M401.7 55.6c19.7-1.8 50 6.2 50.5 5.4.9-2.8-3.1-16.7-5.8-16.7M63.9 91.2c16.2-4.7 95.4-11 133.4-8.6M491 53.4c1.2-.1 8.3-.8 9.2-.8"/></g></svg>
