<svg xmlns="http://www.w3.org/2000/svg" viewBox="0 0 500 375" style="enable-background:new 0 0 500 375" xml:space="preserve"><style>.st1,.st2{fill:none;stroke:#fff;stroke-miterlimit:10}.st2{stroke-width:.5}</style><g id="Calque_2"><path class="st1" d="M432.6 375c5.9-16.7 38.9-102.5 67.9-164.8M484.9 43.1c11.3 2.9 14.4 5.5 15.7 6.7M453.6 37.8c-41.1-7-114.8-12.8-173.3-10-22.3-.4-56.1 5.2-84.9 11.1l-.1.2M.8 134.7s27.1-32.1 27-33.4c-.2-1.3-8.5-4.5-9.3-7.8s.5-5 1-5.2c.5-.2 55.5-18.2 59.4-19.7 3.9-1.5 60.5-16.4 61.9-17.1.6-.3 19.6-5.2 44.4-10.5"/><path class="st1" d="M496.1 220.5c2.2.1 3.6-.9 4.4-2.6M142 51.2c6.2-11.2 49-17.6 55.7-18.9 36.3-7.2 61.5-8.6 74.3-8.3 6.9.1 13.3.5 19.9 3.4M485.1 43.2c-27.4.1-83.9 30.6-109.2 47.1-1 0-10.4-5-10.9-5.8 1.4-5.3 9.2-12.9 12.8-15.1 3.6-2.2 50-25.3 69.8-30.2 16.1-4 25.5-5 33.6-3.2 8.1 1.8 15.5 5.6 17.2 12.3M473.4 240.3c-4 3.3-17.4 27.1-18.2 29.8-.8 2.7-.3 7.5 0 7.9.3.4 6.6 1 9.3-1.5 2.7-2.5 12.5-10.9 15.8-24.1 1.9-10.5-5.4-11.6-6.9-12.1z"/><path class="st2" d="M184.1 62.3s-1-3-.5-3.8c.5-.8 4.1-8.2 3.7-9.8-.4-1.6-1.9-7.4-2.5-8.1-.6-.6 7.4-1.9 9.7-1.6 2.3.4 12.4.6 23.7 13.2.8 1.8 1 2.4.6 4.4s-17.9 7.8-19.7 7.9c-1.8.1-15-2.2-15-2.2zM500.5 153.8c-13.2 15.6-73.8 86.5-139 87.4-12.5-3.3 43.7-124.2 65.2-147.7 10.9-12 45.6-42.3 73.8-37.1M0 292.6c8.4 14.8 101.8 79.2 134.5 82.4M27.6 100.7c20.7 12.5 219.1 75.4 235 80.7 15.9 5.3 17.8 26.1 15.9 36.7-1.9 10.5-75.1 157-75.1 157"/><path class="st2" d="M427.8 92.3s3.6 101.1-1.3 127.5c8.4 43.9 22 49.2 24.3 107.7M483.3 57c9.1 30.2 11.7 77 14.3 100.2.7 1.2 2.1 3.5 2.4 5.9M81.2 67.9c41-5.7 224.1 45 243.2 58.5 19.8 13.9 33.9 38.6 19.9 68.9S236.1 360.7 225.5 375"/></g></svg>