<svg version="1.1" id="Calque_1" xmlns="http://www.w3.org/2000/svg" x="0" y="0" viewBox="0 0 500 375" style="enable-background:new 0 0 500 375" xml:space="preserve"><g id="Calque_2_00000030457872860456090870000017019885749487749268_"><path fill = "none" stroke="#fff" stroke-miterlimit="10" stroke-width = "1.0006" d="M394.2 220.5c-2.3 75.8-57.4 133.7-135.9 133.7s-147.2-53.5-151.1-137.8c-3.6-78.9 61.6-148.2 145-145.3 81.9 2.9 144.4 69.9 142 149.4z"/><path fill = "none" stroke="#fff" stroke-miterlimit="10" stroke-width = "1.0006" d="M0 233.8c26.5 1.4 51.6 2.4 68.7 2.7 14.6.2 23.3-.1 22.1-1.3l-.1-.1C76 168.4 96.5 123.2 128.9 88.6c37.5-40.2 131.2-57.4 203.3-17.4 63.8 35.3 76.4 82.5 82.2 101.3 1.4 4.6 2.5 10.5 3.4 16.7.7 4.9 1.2 10.2 1.7 15.2 1.4 16.5 1.9 31.6 2.9 31.9 3.7.6 48.5-3.9 77.6-12"/><path fill = "none" stroke="#fff" stroke-miterlimit="10" stroke-width = "1.0006" d="M500 174.4c-.3.4-.6.8-.9 1.1-10.9 11.7-50.4 10.8-80.9 13.7M68.7 236.4c-5.8-73.9 4.8-110.8 35.6-152.1C132.2 47 192 31.1 192 31.1s-.3-8.2.8-31.1M419.6 204.6c-.1 0-.1 0-.1-.1-10.2-3.2-19.5-4.9-26.4-6.5m-285.9 18.4-16.4 18.7-.2.2"/></g></svg>
