<svg version="1.1" id="Calque_1" xmlns="http://www.w3.org/2000/svg" x="0" y="0" viewBox="0 0 500 375" style="enable-background:new 0 0 500 375" xml:space="preserve"><style>.st2,.st3{fill:none;stroke:#fff;stroke-miterlimit:10}.st3{stroke-width:.5}</style><g id="Calque_2_00000048499081023253686580000002273703729679774371_"><path class="st2" d="M416 33.3c26.4 3.3 41.2 9.7 45.9 15.1 8.4 9.8 18.6 31.8 21.8 39.8s-1.9 48.1-6.3 54.7c-.3-.2 1.7-7.7 2.3-13.7.1-7.1-5.8-3.9-9.5 0-7.5 7.8-16.1 32.6-20.2 40.6-4 8.1-7.8 13.5-10.7 16.7-2.9 3.2-102.5 77-99.4 71.8 3.2-5.2 12.4-33.1 0-51.3s-44.4 5.5-64.6 33.4c-22.7 31.4-29.8 64.7-35.2 84.7-3.5 6.3-40.4 24.4-84.7 19.6-52.3-5.7-91.1-43.6-106.4-65.3-1.8-2.5-4.4-7.3-7.4-14.6 0 0-.3-.9 0-1M393.9 31.5c-7.6-.3-17.2-.7-26.1-.5-38.9 1.2-76 1-105.7 8.5s-76.4 48.9-89.4 57c-7.5 4.3-74.6 24.5-87.3 29.7-12.6 5.3-46.4 20-66.4 55.7-2.7 5.4 5.9 33.8 14.6 58.8"/><path class="st2" d="M103.6 230.3c-.5 2.6 6.6 6.6 14.4 7.8s85.3 1 121.3-18.4c15.6-14.5 32.9-41.5 29.1-46.7-3.7-5.2-102.3 14.5-136.3 34.6-5.9 3.8-26.8 17.5-28.5 22.7zM18.5 183.1c9.5 39.4 47.2 50.3 61.2 60.2 2.5 1.8 26.8 18.4 30 25.3-.9 6.9-16.5 19-28.1 17.6-3-.1-8.1-2.7-14-7.1M371.4 120.5l-9.2 2.9s0 3.6 2.2 4.7c2.2 1.2 6.4.9 10.3 1.4 3.9.4 26.1 2.4 33.7-.9 7.5-3.4 12.7-12.6 12.1-15.5-.5-5.1-12.6-11.1-31.9-11.6-9.7.7-17.4 11-17.3 14.4-.1 1.2.1 4.3.1 4.6zM424.2 127.1l-6.7 3s-2.6 1.7-2.8 2.5-.3 3.5 0 3.7 15.3-5.2 16.1-6.6c.7-1.4 1-2.8.2-3.1-.7-.3-3.6-1.3-4.3-1-.8.3-2.5 1.5-2.5 1.5zM467 104.3l-4.5 2.4s-1.5.7-1.7 1.7c-.3 1-.3 2.5.4 2.9.7.5 9.5-3.5 9.8-4.7.4-1.3.3-2.3-.5-2.3-.7.1-2.9-.3-3.5 0zM481.8 83.7c-.5 2.8-.8 6.2-.7 8.4.2 2.7 2.9 15.3 3.1 16M241.2 321.4c1.8 1.8 24.4 18.6 27.7 18.9 15.4 1.2 26.6-5.3 37.3-16.9 21.6-23.5 28.7-45.6 30.5-56.3 1.8-10.7 3.9-31.4-1-40.3-6.4-11.8-14.7-17.3-25.6-20M431.3 192.8c.7 2.5 1.6 2.9 2.7 3.5s15.3 4.6 17.9 4.8 9.4-4.9 14.8-17.3c2.9-6.7 8.7-23.9 10.2-38.4.6-5.8 1-9-2.8-11.5-2.2-1.5-4.5-2.3-5.7-2.6M247.5 45.1c2.7-3.1 10.9-7.2 14.3-8.1 6.7-1.7 33.6-4.4 41.2-3.6M447 40.1s.7-.2-2.5-3.2c-3.2-2.9-33.3-11-46.4-7-13.6 4.6-16.8 13.1-18.9 16.4l6 1s6.8-7.9 11.4-9.8c4.6-1.8 15.6-4.7 19.5-4.2"/><path class="st3" d="M40.9 154.1c-3.8 18.5 62.7 45.8 91.2 53.5M245.8 47.3c-14.5 6.9-76.9 53.1-76.5 57.3.4 4.2 124.2 32.5 154.2 21 29.1-15.4 42.7-50.7 61.7-78-11.1-3.2-107.4-11.3-139.4-.3zM268.1 172.7c10-4.2 51-19.1 59-27.7 3-12.4 3.2-18.2-3.6-19.4M371.6 120.8c.2 1.2 1.2 2.4 3.9 2.3 2.7-.1 39.5-.4 41.3-1.6M193.3 270.9c2.7-.7 12.2-1.6 14.3 1.3 3.8 6.5-7.4 35.9-10.8 38.9-4.4.6-14.8-25.3-3.5-40.2zM66.9 276.5l3.7 18.2s-24.9-18.8-33.8-39.8c-1.3-3.7-4-16.4-4-16.4s8.8 21.5 34.1 38zM373 129.5c-9.6 4.3-16.9 7.6-19.7 8.9"/><path class="st3" d="M351.3 251.3c1.8-12.9 13.4-74.7 2-112.9-2-8 30.3-77.8 44-89.6 15.1-12.9 37.6-9.1 49.8-3.8 10.2 5.2 16 13 20.3 24.4.6 3.2-1.5 12.2-10.2 17.9-9.7 6.3-24.3 13.9-39.4 21.3"/><path class="st3" d="M418.9 40.4c6.6 13.2 8.7 42.9 8 63.9 13.1 9.7 1.6 50.3-10.5 99.7M446.2 44.8c5.3 7.2 14 30.9 15.7 38.6 0 0 16.6 20.1 10.4 43.8"/></g></svg>
