<svg version="1.1" id="Calque_1" xmlns="http://www.w3.org/2000/svg" x="0" y="0" viewBox="0 0 500 375" style="enable-background:new 0 0 500 375" xml:space="preserve"><g id="Calque_2_00000083773552151697880450000016067752756355302534_"><path fill = "none" stroke="#fff" stroke-miterlimit="10" d="M317 269.1c0 46.6-46.4 92.1-97 92.1s-89-36.7-89-83.4c0-56.8 46.2-99.6 96.8-99.6s89.2 44.3 89.2 90.9z" transform="matrix(-1 0 0 1 500 0)"/><path fill = "none" stroke="#fff" stroke-miterlimit="10" d="M500 276.4s-123.3 14.5-169 14.5c-3.1-2.9 14.2-40.5-14-79.5s-84.8-54.8-140.6-29.6-73.3 87.8-60 123.4c-39.7 7.3-90.7-13.3-99.8-36.6 0 0 2-7.6 2.6-9.7-2.9-19.2 2.3-29.5 1.9-37.1 1.6-14-11.4-42.1-9.9-62.9 3.8-6.8 20.2-21.7 48.6-34.6 36.9-16 151.7-32.7 202.9-36.9 42-27.6 77.6-44 113.8-61.8C408.1 10.1 443.2 0 443.2 0" transform="matrix(-1 0 0 1 500 0)"/><path fill = "none" stroke="#fff" stroke-miterlimit="10" d="M162.3 111.5c4 3.4-46 36.4-62 41.9-16 5.4-71.4 13-74.4 11.7s-5.9-4.5-5.4-8.8 15.7-18.8 25.4-23.7c9.6-4.8 65.2-23.4 116.4-21.1zM116.4 305.2l17-7.6M317 267.5c3.6.5 11.3 9.5 14.7 13.3M388.5 83l-16.9 2.6s1.7 9.3 13.5 10.2c3.9.2 6.6-.7 8.3-.5 4.4 1 14.1 2.4 29.1 1.2 15.1-1.2 33.1-4.4 37.1-8.1s15.3-21.1 13-27.1c-2.2-6-5.4-8.4-15.3-9.2s-42.9-2-57.3 6C385.7 66.3 386 74 385.9 75c-.1.9 2.6 8 2.6 8z" transform="matrix(-1 0 0 1 500 0)"/><path fill = "none" stroke="#fff" stroke-miterlimit="10" stroke-width = ".5" d="M389 83.2c6.4-1.3 64.7-11.2 79.4-8.1M262.8 87.8c12.9-1.5 48.1-5.4 59.6-9.6 15.3-2.7 96.4-65.7 131.3-78.2" transform="matrix(-1 0 0 1 500 0)"/><path fill = "none" stroke="#fff" stroke-miterlimit="10" stroke-width = ".5" d="M162.3 111.3c24.2-1.5 112.2-5.5 124.1-10.3 7.3-4.4 13.4-10.9 16.5-18.5M361.9 289.7c-11.1-48.5-22.1-176-17.1-187C354 80 427.1 20.6 483.1 0M344.7 103l155.2-10.4M53.6 247.8s2.2-34.6 5.1-39.1c3.3.9-.5 26.3-5.1 39.1z" transform="matrix(-1 0 0 1 500 0)"/></g></svg>
