<svg version="1.1" id="Calque_1" xmlns="http://www.w3.org/2000/svg" x="0" y="0" viewBox="0 0 500 375" style="enable-background:new 0 0 500 375" xml:space="preserve"><style>.st1,.st2{fill:none;stroke:#fff;stroke-miterlimit:10}.st2{stroke-width:.5}</style><g id="Calque_3"><path class="st1" d="M0 204.9c4.3 4.9 146.2 72.5 158.7 72.9 2.5 1.5-18.5-30.7 3.3-57.4 17.6-16.6 51.4-11.3 74.4 3.4 24.7 15.8 59.7 52.9 66.5 96.5 1.2 7.7.5 16.9 1.9 18.3 15.4 16 104.9 16.8 129.8-8.7 23.5-24 33-58.7 39.4-81.9 3.3-12.1 16.1-55.8 10.3-72.2-14.8-41.1-99.4-69-171.9-81.4-9.8.9-76.5-52.4-92.6-54.4-4-3-52.4-13.8-61.8-14.7-22.4-2.1-56.2-4.7-88-5.3"/><path class="st1" d="M126.2 121.8c-.9 3.7-3 7.1-5.5 7s-6-.9-7.9 0c-1.9.9-17.6 2.5-25.5 2.4-7.6-.1-24.1-.4-28.5-6.6-7.9-8.8-7.6-14.1-5.6-17.6 2.8-3.7 16.2-8.8 34.9-10 17.2-.7 25.9 9.7 26.7 15.3.8 5.6-.6 7-.3 6.9 4.3.7 11.7 2.6 11.7 2.6zM268.3 168.2c-6.2 3.1 18.6 35.6 44.7 49.6s104.9 13.2 117.8 9.7c13-3.4 19.2-7.9 17.6-10.9s-14.3-15.2-37.7-26.2c-18.2-9.4-135-28.7-142.4-22.2zM485.6 192.1c-3.3 19.4-14.8 31.9-24.6 42.1-3.8 3.9-15.6 20.3-17 23.9-1.5 3.7 7.8 18.7 15.4 14.7 7.7-4 13.3-19.4 13.3-20M26.3 130.2c4 .7 17 3.7 19.3 5.6 2.2 2 3.8 4.3 2 5.7s-24.8-4.2-25.4-6.4c-.5-2.2-.8-3.9 0-4.1s3.5-.9 4.1-.8zM0 219.4c3.8 0 5.7-1 6.5-1.8 1.9-1.8 3.6-4.2 4.4-6.4M205.4 211.5c-4.7 2-25.6 11.8-29.5 15.9s-19.6 24.9-11.2 52.5c8.4 27.6 22.9 51.7 39.8 63.5 18.8 13.2 37.3 19.6 52.7 16.3 17.7-3.8 26.3-16.8 29.7-21.9 3.5-5.3 13-19 15-22.5M0 22.8c4.5-1 31.4-8 52.9-7.1C75.2 17.6 86.1 31.8 88 34.3c0 .4-6.5 1.1-6.5 1.1S67.1 23.3 47 22C29 20.8 6.5 24.1-.1 26.3M170.4 27.5c2.1-.2 16.8-.2 27.7 2.2s20.8 8 21.9 10.5"/><path class="st2" d="M81.9 36c18.3 13.2 65.6 73.1 73.7 76.7 18.5 13.1 51.5 13.4 82.1 10.3 44.6-11.8 76.1-19.9 77-21.6-19.2-14.5-86.8-57.2-93.9-60.3-6.2-1.6-12-5.3-56.6-8.8-33.6-1.3-71.2.5-82.3 3.7zM0 32.2c5.1-.9 41.4-7.9 61.4 3.2C80 45.7 139.5 117.3 142 138.8c-4.9 20-6.7 84-.3 133.3"/><path class="st2" d="M27.8 29.2c-1.3 10.7-7.7 68.9-6.3 76.6-10 17.1 4 71.9 14.8 118.1M108.2 129.9c18 4.8 31.7 8.4 33.8 8.6"/><path class="st2" d="M0 99.1c2.6 1.3 25.5 7.9 52.1 15.4M363.4 269.9c-7.6.9-12.8 2.8-12.6 6.8-1.5 9.4 8 36.2 10.7 37.9s6.6-14.4 6.5-28.5c-.8-7.6-4.6-16.2-4.6-16.2zM157.5 273.4l4.8-3.4M175.3 121.2c-3 2.6-1.1 19.6 8.3 24.2 9.4 4.5 81.8 22 84.7 22.8M420.3 195.3c18.7-10.2 52.8-35.1 34.4-52.5"/></g></svg>
