<svg version="1.1" id="Calque_1" xmlns="http://www.w3.org/2000/svg" x="0" y="0" viewBox="0 0 500 375" style="enable-background:new 0 0 500 375" xml:space="preserve"><style>.st0{fill:none;stroke:#fff;stroke-width:1.0006;stroke-miterlimit:10}</style><g id="Calque_2_00000030457872860456090870000017019885749487749268_"><path class="st0" d="M105.8 220.5c2.3 75.8 57.4 133.7 135.9 133.7s147.2-53.5 151.1-137.8c3.6-78.9-61.6-148.2-145-145.3-81.9 2.9-144.4 69.9-142 149.4z"/><path class="st0" d="M500 233.8c-26.5 1.4-51.6 2.4-68.7 2.7-14.6.2-23.3-.1-22.1-1.3l.1-.1c14.8-66.7-5.8-111.9-38.2-146.4-37.5-40.2-131.2-57.4-203.3-17.4-63.8 35.3-76.4 82.5-82.2 101.3-1.4 4.6-2.5 10.5-3.4 16.7-.7 4.9-1.2 10.2-1.7 15.2-1.4 16.5-1.9 31.6-2.9 31.9-3.7.6-48.5-3.9-77.6-12"/><path class="st0" d="M0 174.4c.3.4.6.8.9 1.1 10.8 11.7 50.4 10.8 80.9 13.7m349.5 47.2c5.8-73.9-4.8-110.8-35.6-152.1C367.8 47 308 31.1 308 31.1s.3-8.2-.8-31.1M80.4 204.6s.1 0 .1-.1c10.2-3.2 19.5-4.9 26.4-6.5m285.9 18.4 16.4 18.7.2.2"/></g></svg>
