<svg version="1.1" id="Calque_1" xmlns="http://www.w3.org/2000/svg" x="0" y="0" viewBox="0 0 500 375" style="enable-background:new 0 0 500 375" xml:space="preserve"><style>.st2,.st3{fill:none;stroke:#fff;stroke-miterlimit:10}.st3{stroke-width:.5}</style><g id="Calque_2_00000118392166649570134670000014077875785087038852_"><path class="st2" d="M17.2 45.5C7.2 50.4-.3 55-.3 55M.4 258.6s187.9 40.6 193.3 38.5c0-2.8-9.9-24.6 1.5-44.2 13.1-21.8 27.3-34 73.8-33 44.4 3.8 86.3 44.6 94.5 70.6s5.9 30.1 7.5 31.9c3.8 3.3 50.3 1.4 59.9-5 31.1-15.1 45.3-33.3 46.9-45.8s3.2-32.3-10-56.7c-.5-7.7 10.5-32.2 17.5-73.3-11.4-23.2-83.4-85.8-86.4-88.7.7-2.2 20.5-7.5 19.6-12.5-3.4-6.1-138.4-13.2-149.1-14M12.7 155.3c-3.6-.3-9.1.5-9.7 1.4-.6 1-.5 3.4.8 3.9 1.6.6 6.9 1.3 8.2 1.5 1.3.3 13.2 1.1 17.2 1.3 1.3.1 8.9.3 10.3-.7s1.8-3.1.3-4.6-9.1-2.1-11.5-2.1c-2.2-.2-14.4-.6-15.6-.7z"/><path class="st2" d="M177 161.3c-1.9.6-3.8 2.6-2.9 5.1 1.7 2.5 9.7 3.1 11.6 3.4 1.9.3 22 1 24 1.2 2.9.2 9.8.4 13.8 0 3-1.2 4.5-5.7.8-7.9-3.6-1.2-11-1-14.9-1.1-2.5 0-14.3-.5-23-.7-4.9-.2-8.7-.2-9.4 0zM482.1 137c-3.8 4.2-9.8 6.5-18.3 8.3-22.4 2.6-90.9 3.6-96.2 8.9-3.8 6.4 18.8 22.1 31.8 31.2s46.4 9.7 55.3 5.8 18.1-10.4 22.1-12.7"/><path class="st2" d="M349.4 31.5c-5.6 2.1-15.6 8.7-17.5 12.9-3.1 7-3.4 15.8 13.4 27.2s81.9 45.4 90.5 50.7c9.8 6 31.1 23.5 39.5 29.2 2.5 2.5-1.8 26.4-4.9 34.6-3.1 8.1-10 17.9-8 27.6 2 9.7 4.9 1.4 4.9 1.4M257 220.2c-11 4.3-20.7 9.2-24.9 12.4-4 3-22.8 22.9-27.2 31.9-3.4 7.2-7 29.2.4 48.3s19.8 31.2 30.5 39.2c10.7 8.1 34.7 19.2 51 20.2 21 1.4 45.9-9.4 54-21.6s11.7-22.8 12.7-37.5 1.7-16.2 1.5-22.8-3.9-21.1-10.5-29M17.1 45.5c-.8.4 10.2-9 18.9-12 10.5-4.1 38.2-10 50.3-11.3s57.8-4.3 75.3-4.1c18.5.1 71.2.3 87.7 2.5s24.6 8.1 26.1 9.3c-21.4-1.2-103-5.3-123.9-5.2-21.4.1-56.9.2-95.8 8-22.6 4.9-31.9 9.3-38.6 12.8z"/><path class="st3" d="M-.3 60.8c10.4-7.2 42.1-20.9 90.8-24s116.4 1.3 133.4 3.7c19 2.7 66.3 15.8 110 52.5 8.8 9.3-35.9 16.5-46.6 19-38.6 9.1-96.2 14.6-127.1 15.5-30.9.9-157.5 4.9-160 4.6"/><path class="st3" d="M90.5 36.8c-6 17.2-19.8 67.9-22.1 93.5-24.1 26.6-8.9 26.6 6.4 144.1M218.7 39.9c6.6 20.6 21.8 53.4 28.9 79.5 5.4 9.3 1.6 42.7-6.5 102M335.6 63.5c11.8-2.7 32.9-7.2 39.9-8.1 6.9-1 13.8-2 23.5-2.5M432.8 120.6c7.5 2.1 14.6 3.9 24.2 4.1 9.7.2 9.8-5.2 6.6-10.4M309.6 28.8c2.1-2.2 9-7.9 13.7-8.9 4.7-1.1 10-1.1 10.6-1.1s-2.5 5.1-2.7 5.9c-.4 1.4-.3 4.1.5 5.6"/></g></svg>
