<svg version="1.1" id="Calque_1" xmlns="http://www.w3.org/2000/svg" x="0" y="0" viewBox="0 0 500 375" style="enable-background:new 0 0 500 375" xml:space="preserve"><style>.st1,.st2{fill:none;stroke:#fff;stroke-miterlimit:10}.st2{stroke-width:.5}</style><g id="Calque_2_00000032614441375551595870000014966011110684809641_"><path class="st1" d="M500 137.3c-9-1.5-24.1-2.7-33.2-4.6-9.9-7.2-88-69.2-123.1-81.8-21.4-8.2-190.7-20.3-225.5-8.2-20.8 7.1-23.7 80.6-32.7 124.4 1.9 55.7 9 92.6 9.3 100.8 6 26.4 5.1 32.6 17.8 34.6 11.4-.2 357.4 6.1 362.2 5.8 2.4-8.6 16.2-36.1 25.3-45.8"/><path class="st1" d="M466.1 308c-.4 2.8.4 10.8 5.8 17.5 8.5 10.9 17.3 20.5 28.2 29.8M247.6 187.5c-.5.9-1.7 5.7 0 6.5s42.8.3 43.8 0 1.8-5.1 0-6.5c-.9-.7-43.3-.9-43.8 0zM419.8 167.4c2.3.5 4.5.9 6.5 1.3 2.7.5 10.1-.3 13-1.1s7.9-3.5 12-10.4c2.4-5.2.8-25.1-3.1-26.4-1.7-1.3-14.1-6.8-16.7-7.7-2.7-.9-6.7-1.6-7.4-.5-1.5 1-4.2 42.3-4.3 44.8zM.1 122c4.8 0 88.9 1.4 92.4 1.3M0 300.6c6.1-.1 85.8-.3 92 .1 6.3.4 5.8-.9 12.3-2.4"/><path class="st1" d="M.1 319.5c2.9-3.9 4.4-14.2 4.2-19.3M.2 138c3.2.1 76.3.3 80.1.7 4.1-.6 5.6-1.4 10.5-3.2M96.8 300.5c-2.1-2.2-7-22.4-8.1-30.9S78 200.7 78.6 168.1c.5-8 3.2-22.6 1.7-29.4M125.6 302.4c-2.2 2.9-5.5 8.1-5.5 8.1s-.3 3.7.1 5.3c2.9 2.3 18.8 9.1 24.7 11 5.2.2 282.4 4.8 286.6 3.6 1.7-3.4 2.5-8.8 4.4-22.7"/><path class="st2" d="M122.6 302.5c-2-1.7-6.4-21.5-7.4-29.1s-9.4-91-9.4-104.5 10.9-112.1 23.6-119.2 180.7 1.9 209.3 8 107.2 63 125.8 84.7c17.6 20.6-3.8 111-5.8 123.2-2 12.1-8.5 30.6-13.1 42"/><path class="st2" d="M436.5 124.9C404 99 350.5 66.3 335.8 64.2c-30.6-7.2-182.3-12.6-189.7-9.3s-16.6 69.2-12.6 76.7c24.1 17.1 47.9 14.7 63.1 15.5 13.8.7 68.3 2.9 96.2 4.1 28.4 1.9 43.2 9.4 72.1 17.7 16.8 2.5 80.6 2.1 96.8 1.3 0 0-1.5-16.9-5-27-1.5-1.7-3.2-3.5-5.2-5.4M466.7 132.7c1.3 1.4 9.5 10.3 10.9 10.7s13 .8 22.5 1.3"/><path class="st2" d="M426.6 168.4c2.2-5.6 3.7-29.3 3.8-31.4.1-2-.8-10.5-1.7-12.7-.1-.2-1.5-1.3-4.3-1.6M231.1 304.3c-2.1-17.2 4-99.4.3-155.8-.5-13 .2-86.3 1-99.6"/></g></svg>
