<svg version="1.1" id="Calque_1" xmlns="http://www.w3.org/2000/svg" x="0" y="0" viewBox="0 0 500 375" style="enable-background:new 0 0 500 375" xml:space="preserve"><style>.st1,.st2{fill:none;stroke:#fff;stroke-miterlimit:10}.st2{stroke-width:.5}</style><g id="Calque_3"><path class="st1" d="M284.3 293.6c-14.9 31-40.5 50.1-59.6 45.7-7-1.1-27.8-12.2-39.5-28 3.6-1 6.1-1.9 6.6-2.5 1.7-1.9 7.8-33.8 7.7-36.1-.2-2.3-1.4-2.7-3.1-4.3-.1-.1-.2-.1-.4-.2.7-2.2 1.3-5 1.8-7 1.2-.4 1.9-.6 1.9-.6s12.4-39.5 41.5-57.2c10.5 1.9 39.1 11.5 40.7 14.2 16.3 11.4 17.7 44.2 2.4 76zM399.7 132.7l-.7.2-8.3 2.7-3.8.3v-4.1l1.4-.8h2.4l6.3-2.1h2.8l-.1 3.8zm21.7 48 7.3-4.2 10-5.7s8.7-22.3 15.5-35.6c1.2-2.4 2.3-4.5 3.4-6.1 5.1-7.8 13.4-11 11.4 7.3-.4 4-2 8-3.3 10.8v2.1l4-3s6.8-5.6 6.9-9.7c.1-2.5 2.3-15.8 4-26.4.8-5 1.6-9.3 2-11.7.2-1.1.3-1.8.3-1.8l-2.5-10.8-5.1-.2-51.4-2.2"/><path class="st2" d="m417.3 182.8.7-2.7 3.8-13.7s.5-5.2 0-7.1c-.3-3.6 7.6-23.6 7.1-47.5-.2-11.1-16.7-59.5-18-62.2s-2.9-4.5-6.3-5.9c-1.6-.7-11.5-.9-22.3-.8-13.4.1-28.3.8-30.9 1.8-3.7 1.3-5.9 2.9-8.3 6.1-1.6 2.1-23.9 37.6-29.1 62.3.4 5.9.7 6.5 1.7 12.8 7.5 21 5.3 60.3 3.7 83.1.1.8.8 8.3.7 9.9-.2 2.3-3.1 20.8-3.1 20.8"/><path class="st1" d="m419.3 181.9 4.1-16.6s.5-4.3.1-7.7c7-24.1 7.4-45.2 7.4-46.6 0-.8-2.2-9.2-4.1-16.5-1.6-5.9-3-11.1-3-11.1s-10.1-33.3-13-38.5c-1.6-2.9-2.9-4.5-8.8-6.7-8.7-3.5-114.5-5.5-156.8 2.5-8.6 1.7-13.2 2.5-23.8 6C212 49.8 164 89 156.2 98.3c-30.2 7.5-68.2 8.1-126.7 32-5.6 3.7-11 8.1-13.8 13.4-.1.4-.2 1-.2 1.9 0 8.9 6.6 41.7 10 57.8.7 3.3 1.3 6 1.6 7.5.2 1 .3 1.6.3 1.6s.9 15.9 64 44.8c24.6 8.3 46.5 12.5 68.6 10.7 9.9-.8 18.9-2.4 25.8-3.9.7-.2 1.4-.3 2-.4 4.5-1 8-1.9 9.9-2.5 1.2-.4 1.9-.6 1.9-.6s12.4-39.5 41.5-57.2c4.5-2.8 9.5-5 14.9-6.5 47-12.9 49.5 20.1 48.8 45.5-.8 4-2.7 5.7-3.2 6M184.1 197c-1 1.3-11.4 11.7-15.4 21-.4 3.6.3 11.5 0 20.4-1.6 5.8-6.3 7.1-11.2 7.5-5 .5-43.2-3-43.2-3s-1.5-14.9-1.5-16.8c-.9-8.7-2.7-19.1-2.7-19.1s-1.1-5.6-1.8-9.1c-1.1-4.8-4.6-9.8-7-14.7 15.5.5 35 .9 49.8.9.5 0 25.2-1.8 27.2-2.2 10.7 1.1 7.6 12.8 5.8 15.1z"/><path class="st2" d="M333.5 45.4c-9.2 13.9-24.8 46.1-36.2 67.8-38.9 3.3-127.3-8.3-139-14.2 14.7-15.6 55.2-46.1 57.3-47.6.8-.4 18.6-5 38.7-6 33.9-1.9 77.6-.4 79.2 0zM75.8 182.1c2.9.2 13.4.6 25.7 1"/><path class="st1" d="M454.3 135.1c3 .5 6.6 1.6 8.7 3.2.1.1.2.2.3.2.1.1.2.1.2.2 1.3 1.4 2 4.3 2.1 8.2v2.3c-.1 5.7-1.3 13.2-3.6 21-4.6 16-11.9 28-16.6 27.4-1.3-.1-16.3-1.7-20.1-4.5-1.1-.8-4.3-8.4-3.9-12.4M415.9 195.2l-.6 3.3-85.4 53.9-27.8-3.8 1.7-1.5 13.2-7.5 75.3-42.6 16-9.1 4.1.3.8.1.4 1.2zM295 249.6c1.1-.2 4.4 0 6.6-1.2"/><path class="st2" d="M151.3 184s7.3-11.7 9.1-13.1c8-6 91-32.3 112.7-37.2 5.7-1.8 7.2-5.3 7.2-5.3l2.5-10.1-4.2-4.6M356.7 127.9c-7.3 3.4-19.5 7.2-32.7 9.6-2-4-5.6-17.6-5.2-28.5.9-4.5 6.4-16.7 9.3-21 3.6-7.2 18.1-32.2 19.7-34.1 2-2.4 3.4-3.8 6.8-4.4 4.4-.9 39.6-2.6 45.7-1.8 4 .5 5.9 1.3 7.4 3.5C411.4 56.7 419 91.4 419 93s-.9 6.3-5.5 8.4c-1.4.6-14.4 3.8-26.8 6.7"/><path class="st1" d="M386.8 103.8c0 .7-.1 2.5-.2 4.3-.1 2.1-.3 4.2-.3 4.2s-.8 7.2-1.9 9.6c-.8 1.7-2.4 3.7-5 4.3-1.4.3-10.3.8-19.1 1.3-8.4.5-16.5.9-17.6 1-.2 0-.5.1-.7.1-2.2.3-5.2.8-6.4.5-3.2-.7-5.9-4.1-7.7-7.1-1.8-3.1-2.8-8.2-2.8-8.2l10-2.9h1.5l4.4.1c.6-3.1 1.2-6.1 1.6-6.8.8-1.4 5.7-8.4 8.3-9.3 2.5-.9 23.5-.6 25.4 0 1.9.6 10.5 7.3 10.5 8.9zM399.7 128.9v3.8l-.7.2-8.4 2.7-3.8.3v-4.1l1.4-.8h2.4l6.4-2.1z"/><path class="st2" d="m392.3 197 .5-2.3s-.5-1.5-.7-2.9c1-2.1 3.4-9.9 3.7-11 0-1 .3-3.9 0-8.4 2.1-10.4 6.6-34.5 6.5-52.3-1.4-9.2-4.3-14.5-4.3-14.5.2-5.2-10-52.9-15.8-62.8"/><path class="st1" d="M482.5 98.3c-1.5.4-2.4 1.2-2.4 1.2s0 7.5.4 10.4M199.5 272.7c.2 2.3-5.9 34.2-7.7 36.1-.5.5-3.1 1.4-6.6 2.5-9.1 2.6-24.6 5.8-28.6 5.7-6.3-.2-42.2 1.4-74.6-11.2-29.4-11.4-53-48.8-54.8-52-1.7-3.1-8.4-25.1-9.2-31.9-.9-6.8-.1-13.1 7.6-18.5.7 3.3 1.3 6 1.6 7.5-.2.7-.6 1.7-1 2.8 1.9 9.1 4.2 21.6 35.9 39.9s86.6 19.5 97.5 19.5c11.7 0 34-4.1 36.4-5.1.2.1.3.2.4.2 1.7 1.9 2.9 2.3 3.1 4.5z"/><path class="st1" d="M197.7 261.2c-.4 2-1.1 4.8-1.8 7-2.4.9-24.7 5.1-36.4 5.1-10.9 0-65.8-1.2-97.5-19.5s-34-30.9-35.9-39.9c.4-1.1.7-2.1 1-2.8.2 1 .3 1.6.3 1.6s.9 15.9 64 44.8c24.6 8.3 46.5 12.5 68.6 10.7 9.9-.8 18.9-2.4 25.8-3.9.7-.2 1.4-.3 2-.4 4.5-1.2 8-2.1 9.9-2.7z"/><path class="st1" d="M15.5 145.9c10.8 15 50 26 53.5 27.9 3.5 1.8 6.6 7.9 6.6 7.9 6.4 12.9 9.4 18.6 10 21.2.6 2.5 7.7 55.2 7.7 55.2"/><path class="st2" d="M99.3 283c-.4 3.8 1.7 16 3.8 20.7 3.3 2.1 30.4 4.5 40.7 3.6 4.1-1.7 6.7-5.4 6.7-5.4s-.9-13.5-2.6-15.5c-10.9 0-45.3-3-48.6-3.4z"/></g><path class="st1" d="m408.1 188 13.6-7.5M426.9 95c1 .2 4 .4 4 .4s47.3-8 49.5-9.5"/><path class="st2" d="M341.2 111.4c-.2 1.8-.9 9-.5 9.6s29.8-.4 32.7-.7c2.9-.3 11.2-1 11.9-1.5M19.1 210.7c.5 10.2 3.3 23.2 33.5 43.5 38.5 25.8 84.1 25.5 106.6 23.7 20.9-1.6 32.7-8 36.7-9.7"/></svg>
