<svg version="1.1" id="Calque_1" xmlns="http://www.w3.org/2000/svg" x="0" y="0" viewBox="0 0 500 375" style="enable-background:new 0 0 500 375" xml:space="preserve"><style>.st1,.st2{fill:none;stroke:#fff;stroke-miterlimit:10}.st2{stroke-width:.5}</style><g id="Calque_2_00000106847340357961999290000000807323740036980123_"><path class="st1" d="M500 205.6s-54.8-50.8-63.3-55.7c-6.4-7.4-18.8-26.4-27.2-32.1-5-7.1-44.6-83.4-57.7-90.4-9.2-4.9-95.1-7.3-103.4-7.3s-89-.5-100.1 8.6c-14.6 9.1-49.6 72.8-58 88.5-5.6 7.9-23.8 28-27.8 32.7-1.7 1.3-40.6 32.5-62.5 55.1"/><path class="st2" d="M97.2 119.6c-2.4-.9 46.8-82.6 48-83 35.5-6.1 199-4.6 209.1-.1 2 1.5 48 79 48 81.9 0 1.4-76.4 7.8-152.6 8-74.6.3-149.1-5.6-152.5-6.8z"/><path class="st1" d="M20.9 375s-6.2-16.3-4.2-19.9S31.5 320 38 318.4c5.8-2.1 105.1 8 208 9 106.4 1 214.4-11 215.9-9.5 4.7 1.8 21.7 33.8 21.7 37.7s-4.8 19.4-4.8 19.4M405.8 110.5l.7-.4s2.2-17 3.5-17.7c1.3-.6 20.6-1.9 21.8-1 1.2.9 6 6.1 6.6 7.1.5.9-.4 16.6-1.5 19.3-.9 2.2-1.2 3.2-5.7 5.7s-12.1 3.9-12.1 3.9M93.4 110.1S92.3 94 89.9 92.4c-2.5-1.6-21.2-1.5-22.4-.7s-5.4 6.2-5.9 7.3c-.5 1.3-.3 16.4 1.1 18.7 1.4 2.3 3 5.2 5.2 5.9 2.2.6 14 4.1 14 4.1"/></g><path class="st2" d="M0 300.1c1.3 1.7 21.6 22.5 22.5 22.8.8.3 7.9 2.9 9 2.6M499.9 299.8c-1.6 1.5-21.1 22.6-21.9 22.9s-9.5 3.2-9.7 2.8M62.7 117c3.7 1.5 16.7 5 19.8 5s4.5-.5 4.5-.5M437.1 117c-2.1.9-16.9 5-19 5-2.2 0-4.6-.5-4.6-.5"/></svg>
