<svg version="1.2" xmlns="http://www.w3.org/2000/svg" x="0" y="0" viewBox="0 0 2048 1536"><path id="Layer" fill = "none" stroke="#fff" stroke-width="4.6" stroke-linecap ="round" stroke-linejoin ="round"  d="M0 81.9c180.8-11.5 440.8-12.4 521.7-10.8 80.9 1.6 227.4 15.6 251 18.5 29.4 3.6 82.8 10.9 124.8 18.6 89 16.4 175.9 53 220.9 71.6 20.1 8.3 24.4 17.2 21.7 23 105.1 81.3 239 189.7 294 237.3 188.8 18.1 490.2 64.1 613.9 88.7"/><path fill = "none" stroke="#fff" stroke-width="4.6" stroke-linecap ="round" stroke-linejoin ="round"  d="M1434.1 440.1c24.8 20.1 35.9 38.6 35.9 47.4 0 23.7-48.5 55.8-85.6 70.7-33.4 13.4-93.7 19.1-130 19.1-84.9-101.1-389.2-374-455-422.3-65.8-48.3-90.7-66.5-166.1-78.2"/><path fill = "none" stroke="#fff" stroke-width="4.6" stroke-linecap ="round" stroke-linejoin ="round"  d="M781.2 141.8c64.3 3.1 142.4 2.8 187.7 11.4 63 11.9 143.8 37.6 171.2 49.6M1534.3 451c43.4 14.2 65.9 36.7 64.9 45-2.2 18-17 32.7-37.1 44.2-38.2 21.8-116.3 40.2-152.4 47.1-36.1 6.9-109.9-8.3-155.4-10"/><path fill = "none" stroke="#fff" stroke-width="4.6" stroke-linecap ="round" stroke-linejoin ="round"  d="M2048 787.2c-154.6-29.7-390-53.9-534.5-88.9-47-11.4-91.4-77.5-110.6-110m645.1 603c-90.4-56.1-319.1-125.9-527.5-78.6-161.7 36.7-233.6 135.5-233.6 135.5-12 49.4-43 144.7-48.6 157.2-5.6 12.5-12 16.3-35.7 9C1178.9 1407.1 195.8 1155.1 0 1092"/><path fill = "none" stroke="#fff" stroke-width="4.6" stroke-linecap ="round" stroke-linejoin ="round"  d="M1114.8 1391.3v9.4l-124 76.7-36-9.5-1.6-6.1-573.1-166.2-7.8 4.3-147.8-42.1-3.4-9.1-183.9-53.1-5.2 1.5-32-9m13.7-91.7L0 1104.3m2048 174.2c-40.5-54.3-129.8-134.6-227.3-166.8M1305.8 1536c-28.3-89.1 11.5-209 28.9-261.1 17.3-52.1 69-119.4 162.9-156.4m-84.8 417.5s-37.5-155.4 154.2-203.2c191.7-47.8 405.9 70.9 447.1 203.2M0 146.7c42.8-5.9 142.4-2.9 263.2-1.6 147.2 1.6 319.6 3.9 380.8 27.2 72.2 27.4 208.5 149.6 309.7 244.7 55.1 51.8 99.7 95.6 117.9 111.8 51.6 45.9 34.4 150 18.9 222.1-49.6-3.5-134.3-10.9-216.5-20.1-36-4.1-74.6-8.7-106.5-13.3M0 528.8c87.1 22.5 406.8 55.5 443 59.4 36.2 3.9 51.6 7.7 63.2 17.4 11 9.1 108.9 75.7 170.2 94.6"/><path fill = "none" stroke="#fff" stroke-width="4.6" stroke-linecap ="round" stroke-linejoin ="round"  d="M969.5 698.6c-67.9 12.8-249.8 25.8-275.5 16.1-38.9-14.6-43.7-111.6-40.5-142.2 3-28 32.8-68.4 55.3-80.4 24.6-13.1 94-20.6 117.9-19.5 43 2 75.1 24 102.3 42.1 23.6 15.7 37.2 45 44.4 69.9l67.5 8.3c-2.8 57-33.2 98.5-71.4 105.7zm-95.4 32.2 5.2-20.5M929 514.7l24.8-97.7"/><path fill = "none" stroke="#fff" stroke-width="4.6" stroke-linecap ="round" stroke-linejoin ="round"  d="M0 120.7c156.9-18.4 448.6-10.2 553.1 0S715.8 151.5 816 241c100.3 89.5 272.2 237.8 311.6 305.1 39.4 67.3 21.5 150.2 18.6 204.7-2.9 54.6-30.6 382.5-40 450.1-9.4 67.6-15.1 130.1-20.8 159.8-.4 6 .7 18.1 5.8 24.5"/><path fill = "none" stroke="#fff" stroke-width="4.6" stroke-linecap ="round" stroke-linejoin ="round"  d="M263.4 1167c-4.1-5.1-10.3-13.3-10.7-18.9-.4-5.6 3.4-18 2.8-22.4-.6-4.4-14-41.4-22.2-66.2 0 0-1.2-20-1-54.1-28.9-113.9-52.9-258.9-61.2-349.3 2.9-26.8 8.2-75.4 12.8-97.7.8-7 5.1-8.9 9.5-10.2 9.2-153.5 31.5-316.8 56.8-398.7 3.3-10.9 5.8-25.8 9.8-39.7"/><path fill = "none" stroke="#fff" stroke-width="4.6" stroke-linecap ="round" stroke-linejoin ="round"  d="M0 949.8c195.8 47.6 816.8 186.3 1106.3 251.1 54.5 12.2 113.1 42.9 180.6 47.3M372.6 714.5c.8 7.6 5.1 53.8 3.8 69.3-.4 4.8-6.4 5.2-17.1 3.6-10.7-1.6-124-18.5-132.8-19.4-8.8-.9-8.9-5.7-9.2-10.1-.3-4.4-4.7-59.4-4.3-63.8.4-4.4 5.6-5.6 14.8-4.8 9.2.8 131.4 17.4 136.6 18.2 5.2.8 7.8 3.4 8.2 7z"/><path fill = "none" stroke="#fff" stroke-width="4.6" stroke-linecap ="round" stroke-linejoin ="round"  d="M369.6 760.8s-17.8 2.2-31.1.8c-13.3-1.4-105.5-12.7-111.6-15.1-6.1-2.3-5.3-21.3-3.9-29.5 7.7-.7 22.6-.3 33.6 2.4 11 2.7 59 9.4 93.1 10.2 3.8.1 13.8 2.7 18.2 4.9 3.3 10.8 1.9 18.8 1.7 26.3z"/><path fill = "none" stroke="#fff" stroke-width="4.6" stroke-linecap ="round" stroke-linejoin ="round"  d="M260.7 720.2c-1-14.1 2.2-16.7 8.6-16.9 18.6-.5 62.4 6.9 71 9.1 8.6 2.2 7.5 12.6 7.2 17.1m.9 32.5c1.1 11.8-.1 15.6-7.2 16.2-7.1.6-50.2-4.6-63.1-7.7-12.8-3.1-12.8-10-13.9-18.2m57.6-606.5c-24.2 97.6-50.6 325.5-45.6 423.9m-94.8-425.6c-20 57.3-58.7 272-58.2 406.2M1418.7 427c19.5 25 30.2 44.6 8 63.8-22.2 19.2-86 47.5-122.2 54.2-36.2 6.7-79.3-8.9-132.3-54.3"/></svg>