<svg version="1.1" id="Calque_1" xmlns="http://www.w3.org/2000/svg" x="0" y="0" viewBox="0 0 500 375" style="enable-background:new 0 0 500 375" xml:space="preserve"><style>.st1,.st2{fill:none;stroke:#fff;stroke-miterlimit:10}.st2{stroke-width:.5}</style><g id="Calque_3"><path class="st1" d="M423.3 159.8c3.1-2.3 19.4.6 35.8 0 13-.4 13.5-3.6 14.3-1.9.6 1.4-.2 14.8-.7 21 0 .4-.1.8-.1 1.2-.5 5.1-1.1 10.3-1.9 15.4 0 .2-.1.5-.1.7-1.1 7.4-2.6 14.8-4.5 21.7V218.2c-1.2 3.9-30.5 5.3-32 .4-1.9-6.1 3.3-23.5-.7-29.1-3.3-4.5-10.9-7.9-12.8-14-.7-2.4-1.7-12.2 2.7-15.7zM214.7 250.1c9.2-22.1 32.4-40.1 58.4-40.1 28 0 52.4 18.6 59.3 44 1.4 5.3 2.1 10.8 1.9 16.6-.4 11.9-2.4 21.7-5.7 29.7-.3 1-.6 1.9-1 2.8-12.2 31.4-45.7 36.3-69.3 28.3-8.3-2.8-16-7.1-22.5-12.6h-.1c-13.4-10.2-22.5-25.8-23.8-43.5-.1-1.5-.2-3.1-.2-4.6 0-7.2.6-14.1 3-20.6z"/><path class="st1" d="M466 218.4c-1.6 5.8-4.4 13.6-6.5 18.6-3.1 4-7.9 5.2-10.8 6.4-.4.1-.8.3-1.1.5-.4.3-1.2 2.5-2.2 5.8-1.9 6.6-4.7 17.2-7.2 23.2-1 2.2-1.9 3.9-2.8 4.4-2.2 1.4-74-3.2-90.5-4.6-.5-6.5-1.6-12.4-3.2-18-11.9-42-50.2-59.8-72.7-61.3-70-5.9-73.6 46.4-71.4 65.6.1.2.1.3.2.4h-.2c-4-.1-60.5-9.8-67.7-11.2-2.8-.6-2.8-21.7-2.9-24.5-.2-4.3.5-7.2-.1-8.6-1.3-11.1-6.9-58.9-5.4-68.1 1.4-8.9 3.7-17.8 4.3-21.9 0 0 100.1-8.5 107.6-8.5s204.9-.8 212.5 0c7.6.8 24.6 3.1 26.2 5.8 1.6 2.6 2.8 28.7 1.3 35.5"/><path class="st1" d="M465.4 220.3c.7-.2 1.4-.3 2.1-.1 0 0 8.2 15.7 11.2 24.8 1.3 3.9 2.3 6.2 1.4 8.5-.1.2-.2.5-.3.7-3.2 8-7.6 15.3-11.8 21.1-1.4 2.1-18.6 2.9-27.6 2.2-.2 0-1-2-2.1-4.8M0 66.3l7.8-3.6c2.4-.9 45.9-8.1 48.4-8.4l34.3-3.2c7.5-.8 40.7-1 48 .7l40.3 6.8 23.8 6.9c5.9 1.5 10.9 5.2 12.7 11l11 40.9"/><path class="st2" d="m225 117-11.9-40.8-11.8-4c-7.5-2.1-26.3-5.4-34.1-6.1l-32.3-2.5-4.8 60.9"/><path class="st1" d="m.3 231 122.6 17.6 6.9-.4"/><path class="st2" d="M113.1 58.6c2.7 7-3.7 65-8 88.3-1.9 10.4 4.7 86 11.8 100.7 0 0-61.3-8.8-65.6-9.4-1.3-.2-1.8-5.8-1.7-8.4l-4.7-12.5-1.3-10.1c-.6-4.5-11-55.7-6.7-67.4l4.2-9.7c.2-8.1 11.2-68.4 14.1-68.8 19.7-2.8 56.5-6.1 57.9-2.7z"/><path class="st2" d="M55.2 61.4 32 64.1c-2 .2-21.8 3.1-23.7 3.7L.1 70.2M.1 131.3s64.2.1 77.4-2c13.2-2.1 18.8-9.4 18.8-9.4s10.2-52.1 4.6-56.3-95.8 8.6-95.8 8.6L.3 74"/><path class="st1" d="M6.9 154.7v4l21.4.8v-3.9zM126.6 248.6v7.2l-6.4 3.4-26.9 2-93-15.3"/></g><path class="st1" d="M214.7 250.1c-2.4.2-6.2 3-11 7.9-1.2 1.2-2.7 1.9-6 1.4M341.9 255.4c-2.4-.2-5.7-.4-9.6-.6M125.8 125.1c13.6.1 341.2 1.8 343.6 1.1 2.4-.8 3.5-2.6 2.6-3.9"/></svg>
