<svg version="1.1" id="Calque_1" xmlns="http://www.w3.org/2000/svg" x="0" y="0" viewBox="0 0 500 375" style="enable-background:new 0 0 500 375" xml:space="preserve"><style>.st1,.st2{fill:none;stroke:#fff;stroke-miterlimit:10}.st2{stroke-width:.5}</style><g id="Calque_2_00000003793642700843805470000005231425268505117568_"><path class="st1" d="m27 108.1-2.1-8h448.9l-1.4 8M472.4 108.2l7.2 22.5c1.4 4.5 1.9 9.2 1.3 13.8l-12.6 97.7c-.7 5.4-4.4 9.9-9.5 11.7l-9.4 2.1H50.7l-13.3-4.4c-3-1-5.6-7.4-6-10.5L19.1 147c-.7-5.6-.3-11.3 1.3-16.7l6.6-22.1"/><path class="st1" d="m31.7 100.1 1.6 8-1.2 38 13 89.3 5.6 20.6M468.5 100.1l-2 8 1.6 37.7-13.8 90-4.9 20.2M468.1 145.8s8.4 1.9 12.9-1.3"/><path class="st1" d="M18.8 144.4c6.1 1.7 13.3 1.7 13.3 1.7M29.2 224.3c2.9 5 15.4 7.4 15.4 7.4M470.7 224.1c-4.7 6.7-15.7 7.2-15.7 7.2M153.7 100.1c4-12.9 16.3-47.4 22.6-53.5 6.9-6.7 135.9-6.6 145-1.5 8.6 4.9 23.7 55 23.7 55"/><path class="st2" d="M160.7 100.1c2.2-4.1 15-44.9 17.4-46 8.9-4.2 139.1-3.7 143.3 0 4.3 3.7 17.2 46 17.2 46"/><path class="st1" d="M474.7 268.4c-.7-2.2-1.3-3.6-1.4-3.8.8 1.3 1.3 2.6 1.4 3.8z"/><path class="st1" d="M466.3 257.3s4.7 3.7 7 7.3c.1.2.7 1.7 1.4 3.8 0 .9-.2 1.7-.8 2.5-.4.5-3.2 1-7.9 1.5M33.7 273c-3.2-.6-5.3-1.3-6.1-2.1-1.2-1.1-1.6-2.3-1.5-3.5.3-4.5 8-10.7 8-10.7"/><path class="st1" d="M474.6 268.5c1.1 3.3 2.2 8.4 1.3 13-1.2 6.2-16.9 27.9-20.9 30.6-9.6 6.5-119.3 17.4-205.6 17.4-100.2 0-200.9-13-206.7-18-3.6-3.2-17.8-25.9-17.8-29.9l1.1-14.1v-.1"/><path class="st2" d="M168 283.5s-130.5-2.3-134.3-6.1c-1.1-1.1 0-4.4 0-4.4l17.2-15.2 398.5-.1 16.5 14.7c0 .1 1.5 3.7 0 5.2-3.9 3.8-133.6 5.4-133.6 5.4l-3.7-5.3"/><path class="st2" d="M318.2 262.6c0 .1-4.3 7.6-9 15.4-1 1.7-2.1 3.4-3.1 5-4.1 6.5-8 12.2-9.3 12.5-5.5 1.3-90.1 1.9-93.5.2-2-1-5.6-6.3-9.3-12.3l-2.7-4.5c-4.7-8.2-8.8-16.2-8.8-16.2s135.7-.2 135.7-.1z"/><path class="st2" d="m318 262.5 10.5 15.1 3.8 5.4c-1.4 8.3-19.6 33.2-23.8 34.8-8.4 3.2-112.8 3.6-115.9 1-8-6.9-24.2-28.7-24.7-35.3 0-.4 1.1-2.3 2.7-4.7 4.2-6.2 11.7-16.2 11.7-16.2"/><path class="st1" d="m33.1 246.3.8 10.8M467.6 245.2l-1.1 12.5M201.7 108.1s-1.9 4.8-1.2 7.7 12 24 13.4 25.2c2.4 2 69.3 2.2 71.2.8 2-1.4 14-23.8 14.5-26 .3-1.5-1.4-7.7-1.4-7.7h-96.5z"/><path class="st1" d="M218.4 112.5h63.1l.8 4.9s-.2 5.3-.8 8c-2.5.6-57.3.6-62.9 0-.8-1.8-1-6.6-1-8.2l.8-4.7z"/><path class="st2" d="M209.5 267.4h85.3v16.1h-85.3z"/></g><path class="st2" d="m33.9 256.8 17 1M466.2 257.5l-16.8.2"/></svg>
