<svg version="1.1" id="Layer_3" xmlns="http://www.w3.org/2000/svg" x="0" y="0" viewBox="0 0 2048 1536" style="enable-background:new 0 0 2048 1536" xml:space="preserve"><style>.st0,.st1{fill:none;stroke:#fff;stroke-width:4.6183;stroke-linecap:round;stroke-linejoin:round;stroke-miterlimit:10}.st1{stroke-width:2.4266}</style><path class="st0" d="M0 528.8c123.7-24.6 425.1-70.6 613.9-88.7 55-47.6 188.9-156 294-237.3-2.7-5.8 1.6-14.7 21.7-23 45-18.6 131.9-55.2 220.9-71.6 42-7.7 95.4-15 124.8-18.6 23.6-2.9 170.1-16.9 251-18.5 80.9-1.6 340.9-.7 521.7 10.8"/><path class="st0" d="M613.9 440.1c-24.8 20.1-35.9 38.6-35.9 47.4 0 23.7 48.5 55.8 85.6 70.7 33.4 13.4 93.7 19.1 130 19.1 84.9-101.1 389.2-374 455-422.3s90.7-66.5 166.1-78.2"/><path class="st0" d="M907.9 202.8c27.4-12 108.2-37.7 171.2-49.6 45.3-8.6 123.4-8.3 187.7-11.4"/><path class="st1" d="M793.7 577.3c-45.5 1.7-119.3 16.9-155.4 10S524.1 562 485.9 540.2C465.8 528.7 451 514 448.8 496c-1-8.3 21.5-30.8 64.9-45"/><path class="st1" d="M645.1 588.3c-19.2 32.5-63.6 98.6-110.6 110C390 733.3 154.6 757.5 0 787.2"/><path class="st0" d="M0 1191.3c90.4-56.1 319.1-125.9 527.5-78.6 161.7 36.7 233.6 135.5 233.6 135.5 12 49.4 43 144.7 48.6 157.2 5.6 12.5 12 16.3 35.7 9S1852.2 1155.1 2048 1092"/><path class="st0" d="M933.2 1391.3v9.4l124 76.7 36-9.5 1.6-6.1 573.1-166.2 7.8 4.3 147.8-42.1 3.4-9.1 183.9-53.1 5.2 1.5 32-9M2034.3 1096.4l13.7 7.9M0 1278.5c40.5-54.3 129.8-134.6 227.3-166.8M550.4 1118.5c93.9 37 145.6 104.3 162.9 156.4 17.4 52.1 57.2 172 28.9 261.1M33.9 1536c41.2-132.3 255.4-251 447.1-203.2S635.2 1536 635.2 1536M2048 528.8c-87.1 22.5-406.8 55.5-443 59.4s-51.6 7.7-63.2 17.4c-11 9.1-108.9 75.7-170.2 94.6M1280.5 717.5c-31.9 4.6-70.5 9.2-106.5 13.3-82.2 9.2-166.9 16.6-216.5 20.1-15.5-72.1-32.7-176.2 18.9-222.1 18.2-16.2 62.8-60 117.9-111.8 101.2-95.1 237.5-217.3 309.7-244.7 61.2-23.3 233.6-25.6 380.8-27.2 120.8-1.3 220.4-4.3 263.2 1.6"/><path class="st0" d="m1007.1 592.9 67.5-8.3c7.2-24.9 20.8-54.2 44.4-69.9 27.2-18.1 59.3-40.1 102.3-42.1 23.9-1.1 93.3 6.4 117.9 19.5 22.5 12 52.3 52.4 55.3 80.4 3.2 30.6-1.6 127.6-40.5 142.2-25.7 9.7-207.6-3.3-275.5-16.1-38.2-7.2-68.6-48.7-71.4-105.7zM1173.9 730.8h0l-5.2-20.5M1119 514.7l-24.8-97.7"/><path class="st1" d="M2048 120.7c-156.9-18.4-448.6-10.2-553.1 0S1332.2 151.5 1232 241c-100.3 89.5-272.2 237.8-311.6 305.1s-21.5 150.2-18.6 204.7c2.9 54.6 30.6 382.5 40 450.1s15.1 130.1 20.8 159.8c.4 6-.7 18.1-5.8 24.5"/><path class="st1" d="M1788 109.8c4 13.9 6.5 28.8 9.8 39.7 25.3 81.9 47.6 245.2 56.8 398.7 4.4 1.3 8.7 3.2 9.5 10.2 4.6 22.3 9.9 70.9 12.8 97.7-8.3 90.4-32.3 235.4-61.2 349.3.2 34.1-1 54.1-1 54.1-8.2 24.8-21.6 61.8-22.2 66.2-.6 4.4 3.2 16.8 2.8 22.4-.4 5.6-6.6 13.8-10.7 18.9"/><path class="st1" d="M761.1 1248.2c67.5-4.4 126.1-35.1 180.6-47.3 289.5-64.8 910.5-203.5 1106.3-251.1M1675.4 714.5c-.8 7.6-5.1 53.8-3.8 69.3.4 4.8 6.4 5.2 17.1 3.6s124-18.5 132.8-19.4 8.9-5.7 9.2-10.1 4.7-59.4 4.3-63.8c-.4-4.4-5.6-5.6-14.8-4.8-9.2.8-131.4 17.4-136.6 18.2s-7.8 3.4-8.2 7z"/><path class="st1" d="M1680.1 734.5c4.4-2.2 14.4-4.8 18.2-4.9 34.1-.8 82.1-7.5 93.1-10.2 11-2.7 25.9-3.1 33.6-2.4 1.4 8.2 2.2 27.2-3.9 29.5-6.1 2.4-98.3 13.7-111.6 15.1-13.3 1.4-31.1-.8-31.1-.8-.2-7.5-1.6-15.5 1.7-26.3z"/><path class="st1" d="M1700.5 729.5c-.3-4.5-1.4-14.9 7.2-17.1 8.6-2.2 52.4-9.6 71-9.1 6.4.2 9.6 2.8 8.6 16.9M1783.8 752.3c-1.1 8.2-1.1 15.1-13.9 18.2-12.9 3.1-56 8.3-63.1 7.7-7.1-.6-8.3-4.4-7.2-16.2M1726.2 145.8c24.2 97.6 50.6 325.5 45.6 423.9M1866.6 144.1c20 57.3 58.7 272 58.2 406.2M629.3 427c-19.5 25-30.2 44.6-8 63.8 22.2 19.2 86 47.5 122.2 54.2 36.2 6.7 79.3-8.9 132.3-54.3"/></svg>