<svg version="1.2" xmlns="http://www.w3.org/2000/svg" x="0" y="0" viewBox="0 0 2048 1536"><path id="Layer" fill = "none" stroke="#fff" stroke-width="4.6" stroke-linecap ="round" stroke-linejoin ="round" d="m1196.6 539.5-286-88.6c14.1-91.8 38.5-193.5 44.7-214.3 6.2-20.8 11.2-50.6 29.1-60.7 149.5-84.6 429.8-118.8 473.5-117.2 173.1 6.2 455.6 45.2 590 70.2M-.1 441.1c223.4-.7 894.2-9.8 894.2-9.8s4.1 1.7 5.3 3.9c1.2 2.2 2.2 13.5 2.2 13.5l8.9 2.3"/><path fill = "none" stroke="#fff" stroke-width="4.6" stroke-linecap ="round" stroke-linejoin ="round" d="M901.6 448.7h-23.8v6.3L-.1 472.5m877.9-23.8 281.5 92.4m165.4 6.5c2.6-115.2-11.4-245.3-11.4-400.2 0-17.9 31-74 87.9-84.6"/><path fill = "none" stroke="#fff" stroke-width="4.6" stroke-linecap ="round" stroke-linejoin ="round" d="M962.3 211.6c69.4-35.2 214.6-60.2 329-69.7 8.8-.7 19.3-.7 22.1 5.5M-.1 588l1268.8-51.4 77.1 15.1v26.6L-.1 642.3"/><path fill = "none" stroke="#fff" stroke-width="4.6" stroke-linecap ="round" stroke-linejoin ="round" d="M872.2 455.1s-1.3 70.9 2 97.5m471.6 25.7c11.3 35.5 21.8 114 21.8 114-.6 103.4-16.4 326.1-27.8 396 6.4 35 4.8 64.7 4.8 64.7l-11 103.4s1 19-30.9 24.4c-31.9 5.4-349.6 83.5-409.6 100.7-19.3-34.4-54.1-97.8-80.2-120.5-32.3-.4-61.1 4.3-61.1 4.3"/><path fill = "none" stroke="#fff" stroke-width="4.6" stroke-linecap ="round" stroke-linejoin ="round" d="M-.1 1180.5c74.7-49.2 246-139.3 476-135.8s332.3 116.1 360.4 149.7c28.2 33.6 75.7 153.6 58.4 186.7"/><path fill = "none" stroke="#fff" stroke-width="4.6" stroke-linecap ="round" stroke-linejoin ="round" d="M0 1381.1c70.7-159.4 205.5-250.8 344.2-278.5 162.4-32.4 288.6 13.6 367.8 100 68.9 75.1 109.9 277.7 77 333.4"/><path fill = "none" stroke="#fff" stroke-width="4.6" stroke-linecap ="round" stroke-linejoin ="round" d="M104.6 1536s76.2-188.8 304.1-211.8c264.8-26.7 297.5 158.3 282.7 211.8m1356.5-418.4s-649.4 146.7-661.6 149c-12.2 2.3-31.6-2.3-53.3-6.1m715-709.1c-94.8 3.8-276.2 8.9-335 7-43.6-1.4-156.2-13.1-171.7-61.7s-27.6-295.3-27.6-323.6c0-28.3 19.3-40.5 50.1-38.6 73.8 4.7 356 32.8 484.1 52.1"/><path fill = "none" stroke="#fff" stroke-width="4.6" stroke-linecap ="round" stroke-linejoin ="round" d="M1895.9 167.2c21.3 57.7 51.9 272.4 61.9 387.3m-202.4-402.6c19.4 80.7 45 282.8 52.9 406.2m12.4-427.6c3.9 10 6.3 21.1 8.1 29.1 24.3 95.1 48.5 286.7 57.8 396.8 2.9 2.6 9.3 7.5 12 13.6 2.6 6.1 17.9 63.9 20.9 94-6.1 63.6-20.6 213.9-67.8 345 .6 19.8-4.1 52.7-10.2 64.9-6.1 12.2-25.3 51.9-26.6 58.4-1.3 6.5-.6 17.6 0 24.7-.7 6-4.7 11.8-8.9 15.3"/><path fill = "none" stroke="#fff" stroke-width="4.6" stroke-linecap ="round" stroke-linejoin ="round" d="M2047.9 973.3c-45.2 9.5-155.1 29.6-196.2 35.8-41.1 6.2-384.7 64.3-403.1 69.7l-39.1 10.1c-26.1-2.4-68.1-11.1-68.1-11.1m-505.1 116.6c57.3-4.8 110.3-26.5 148.3-36.9 38-10.5 355.2-69.2 355.2-69.2"/><path fill = "none" stroke="#fff" stroke-width="4.6" stroke-linecap ="round" stroke-linejoin ="round" d="M1422.2 1258.8s9.4-8.9 11-20.4c0 0 .4-13.4 0-24.9-.4-11.6 4.6-38.4 14.2-74.1 0 0 0-38.4 1.2-60.5 11.7-87.9 25.7-291.1 30.6-391.3-25-151.8-42-487.2-37.5-535.6 4.5-48.5 26.7-50.3 47.3-49.3 221.3 10.8 431 39.3 558.9 57m0 592.3c-20 1.6-80.7 10.3-89.7 11-9 .7-9.7-1.8-9.9-5.5-.8-12.4 3.5-56.2 4.4-61.7.9-5.6 2.5-7.6 11.5-8.8 9-1.1 65-6.6 83.7-7.8"/><path fill = "none" stroke="#fff" stroke-width="4.6" stroke-linecap ="round" stroke-linejoin ="round" d="M2047.9 731.5c-16.6 3-61.1 8.6-91.5 7.4-.7-9.4 1.2-22.1 4.4-25.3 6.4-3.2 19.6-5.1 19.6-5.1 22.3-.5 52.1-3.3 67.5-6.5"/><path fill = "none" stroke="#fff" stroke-width="4.6" stroke-linecap ="round" stroke-linejoin ="round" d="M1992.8 708c.3-11 3.7-17 9.3-18.2 5.6-1.2 34.2-3.2 45.8-3.7m0 60.1c-15.8 2.3-43.8 6.5-52.3 6s-6-11.1-5.1-14.1M832.4 841.9c13.7-44 61.3-73.9 108.7-53.6 51.1 21.8 49.6 102.2 8.6 129-39.1 25.6-94.5 20.8-117.3-27.3-4.6-11.5-5.3-34.8 0-48.1zm1215.5 364.6-103.5 27.2-1.7 6.3-139.6 39.3-8.1-6-203.7 53-5.6 3.7-38.8 9.9-153.8-17.3-29.6-32.2 1.8-24.2m-110.1 25.2 42.1 44.1-18.6 38.6-239.7 64.3-27.4-3.4-51.4-71.1"/></svg>