<svg version="1.1" id="Calque_1" xmlns="http://www.w3.org/2000/svg" x="0" y="0" viewBox="0 0 500 375" style="enable-background:new 0 0 500 375" xml:space="preserve"><style>.st1,.st2{fill:none;stroke:#fff;stroke-miterlimit:10}.st2{stroke-width:.5}</style><g id="Calque_3"><path class="st1" d="M168.4 283.5c.2-2.8-2-5.6-2-5.6l1.6-9.1c.7-.2 1.3-.3 1.7-.5 7.7-16.3 20.5-38.3 43.9-53.8 14.1-6.5 28.8-8.1 41.7-4h.1c11.5 3.1 26.9 12.4 35.9 19.3l.1.1c.8.6 1.5 1.2 2.1 1.7.1 0 .2.1.2.1 1.8 1.5 3.5 3.2 5 5 17.4 20.8 15.9 58.7-5.4 91.4-19.7 30.3-50.4 46.8-75.6 43.1-27.9-.2-50-36.6-52.2-44.5-1-2-1.8-4.1-2.6-6.3 2-11.4 5.3-34.9 5.5-36.9zM293.5 231.5c-.7-.6-1.4-1.1-2.1-1.7.7.6 1.4 1.1 2.1 1.7z"/><path class="st1" d="M298.7 236.6c-1.5-1.8-3.2-3.5-5-5 2.5 2.2 4.3 4 5 5zM499.8 189.5s-3.1 6.4-3 7.1.2 2.9 0 3.8c-.8.6-2.2 2.2-3 3.5 0 0-.6.3-1.6.7-2.3 1-6.8 2.8-13.1 5.2-6.3 2.5-128.3 48.9-137.4 52.4"/><path class="st1" d="M341.7 262.2c-6 2.3-10.9 4.2-14.4 5.5-3.6 1.4-5.7 2.2-5.9 2.3-.2 0 .9-3.5 1.9-6.8 2.5-9.7 1.3-38.8-17.3-54.1-23.2-20-54.4-15-82.9-.3-3.4 1.8-6.5 3.6-9.5 5.6-23.4 15.5-36.2 37.5-43.9 53.8-.4.2-1 .3-1.7.5-4.2.7-35.9 5.1-53.3 3.6-17.4-1.4-40.8-10.6-48.8-13.4-3.9-1.4-6.2-2.4-6.2-2.4s-6.9-56.2-9.3-65c-2.5-8.8-8.4-28.9-11.2-33.6-2.2-2.6-10.7-7.8-16.4-14-.6-3-.8-5.9-.5-6.5.6-3.8 5.7-7 22.7-16.6 28.7-12.5 124.3-22.5 144-23.3 6.3-7.9 52.2-42.8 76.5-55.9C299.1 26.2 373 18 406.1 19.7c51.5 2 71.8 6.5 75.2 8.6s5.5 3.8 6.5 5.5c2.4 3.3 12.1 29.8 12.1 29.8"/><path class="st2" d="M190.3 98.5c9.4-9.2 65.1-51 74.4-55.1 4-2.3 77.2-18.7 112.1-15.1-18.3 19-49.3 61.7-57.3 74.8-25.9.3-104.3-1.2-129.2-4.6zM492.3 204.7l1.8-3.7-.5-3.5 6.3-13.6M449.6 35c-.8-2.3-1.7-4.3-2.6-5.9-17.9-1.6-37.8-2.8-45.1-1.4-8.6 1.6-12.2 5.5-13 6.1-8.4 6-45.3 54.7-48.3 68.5 1.1 15.7 3.3 22 4.8 35.4 2.6 18.4 1.3 72.7-.5 84.1.3 3.9.8 8.4 1 11.7.1 4.5-3.6 27.7-4.2 28.8M455.6 219s4.1-18.6 4.1-21.1c0-2.4 0-8.2.2-10.4.2-2.3 11.9-48.5 10.4-64.5-1.2-11.5-3.3-16.5-5-18.4M447 29.1c16.1 1.5 30.8 3.4 33.4 4.1 4 1.1 5.3 2.6 7 4.8 2.2 3 12.5 34.2 12.5 34.2"/><path class="st2" d="M449.5 35c8.1 20.7 15.1 63.3 14.8 68.8.3.1.6.4 1 .8"/><path class="st1" d="M142.6 170.8c.7.1 9.7-1 11.3 3.5 1.7 4.5.7 10.9-.7 13.3-3.4 5.8-7.1 8.4-13.9 16-2.8 2.7-5.8 7.4-6.3 11-.2 2.3 1.2 14.1 0 22.1-.2 2.6-1.6 7.3-7 8.4-7 .2-34.6-2.7-46.5-6.8-.2-2.6-1.6-16.9-1.6-20 0-4.8-2.1-17.7-2.7-22.2-.6-5.5-5.7-24.8-7.1-27.8 29.8 2.6 67.5 3.8 74.5 2.5z"/><path class="st1" d="M26.4 209.2c-1.8 3.2-2.5 4.3-5.6 12.5-3.1 8.3 6 46.4 6.3 51.2.3 4.9 11 20.5 16.5 28.1 5.7 7.9 14.2 12.5 26.6 18.1.4.1.9.3 1.3.5 13 5.4 40.1 11.5 48.5 11.5 5.9-.1 20.6-1.4 30.9-2.7 5.7-.7 10.1-1.5 10.7-2 .2-.3.7-2.6 1.3-6.1 2-11.3 5.3-34.8 5.5-37 .2-2.8-2-5.6-2-5.6"/><path class="st2" d="M79.8 288.1c8.8 1.8 21.8 3.9 25.4 4.5 2.2 2.1 4.1 14.2 3.7 18.6-.2 2.1-4.1 4.6-5.6 5.1S83 312.9 79 311.8c-6.7-1.8-12.8-4.7-12.8-4.7-1.4-1.9-5.5-21.3-6-24.2 0-.7 15.4 4.7 19.6 5.2zM414.9 122.7c-3.3 2-6.6 3.9-7.5 4.4-1.8 1.2-54.3 7.7-55 6.6-.7-1-5.7-25-5.2-31.6.5-6.7 16.8-26.8 16.8-26.8s22.5-30.5 31.7-37.9c3.4-3.3 9.7-4.5 10.7-4.5 3.7-.2 24.8.9 43 2 13.7.8 25.8 1.6 27.5 1.8 3.7.5 4.5 1.7 5.8 3.5C484 42 496.1 77.5 496.4 92c-1.1 7.7-4.8 8.6-7.8 9.7-.9.3-11.7 1.5-23.3 2.8-12.7 1.3-26.3 2.8-29.4 3.1"/><path class="st1" d="M374.5 103.9c.3-1.8 2.9-10 4.4-12.4s9.7-8 13.3-9.5c3.7-1.5 30.2-.4 32 0 1.6.3 12.7 8.4 13 10.7.3 1.5-.5 9.2-1.4 15-.2 1.5-.4 2.8-.6 3.9-.1 1-1.3 6.8-7 9.3-7.1 1.9-54.4 4.3-60.3 3.4-6.1-3.3-11.9-15-11.4-19.2 4.7-1.1 17-.9 18-1.2zM327.3 267.7v3.6l32.2 7L489.1 223l.6-4.1-2.6-6.4-7.9-2.6"/><path class="st2" d="M67.8 168 45 166.5l-2.7-1.1M292.6 103.2s3.9 1.7 5.6 4.6c-.3 3.3-6 12.2-6 12.2s-3.1 3.3-8 3.8c-45.2 7.2-125.4 19.7-156.5 31.7-3.2 2-13 15.5-13 15.5"/><path class="st1" d="m310.5 270.1 10.9-.1M446.3 134.9l4.2-.4 14.5-1.7c0 1.8-.1 3.6-.2 5.2l-14.3 2h-4.6l.4-5.1z"/></g><path class="st1" d="M22.8 143.9c.4 9.4.5 46.3 3.8 67.1s29.7 43.9 32.6 45.2"/><path class="st1" d="M29.9 221.6c-1.2 5.4 3.4 23.8 18.9 34.6 15.6 10.8 57.8 19.7 71.3 21.7s40.8.3 46.3 0"/><path class="st2" d="M20.2 224.6c2.4 16.1 9.8 29.2 22.4 40.8 12.6 11.5 55.6 22 72.1 23.1 9.5 1.4 43.6-4 53.5-5.7M374.7 104.2c-.1.5-.4 4.7-.2 9.5 5.5.8 40.4-.6 43-.7 2.8-.1 13.2-.8 17.6-1.4"/></svg>
