<svg version="1.1" id="Calque_1" xmlns="http://www.w3.org/2000/svg" x="0" y="0" viewBox="0 0 500 375" style="enable-background:new 0 0 500 375" xml:space="preserve"><style>.st1,.st2{fill:none;stroke:#fff;stroke-miterlimit:10}.st2{stroke-width:.5}</style><g id="Calque_3"><path class="st1" d="M337 320.4c-.8 2.2-1.6 4.3-2.6 6.3-2.2 7.9-24.3 44.3-52.2 44.5-25.2 3.7-55.9-12.8-75.6-43.1-21.3-32.7-22.8-70.6-5.4-91.4 1.5-1.8 3.2-3.5 5-5 0 0 .1-.1.2-.1.6-.5 1.3-1.1 2.1-1.7l.1-.1c9-6.9 24.4-16.2 35.9-19.3h.1c12.9-4.1 27.6-2.5 41.7 4 23.4 15.5 36.2 37.5 43.9 53.8.4.2 1 .3 1.7.5l1.6 9.1s-2.2 2.8-2 5.6c.2 2 3.5 25.5 5.5 36.9zM208.5 229.8c-.7.6-1.4 1.1-2.1 1.7.7-.6 1.4-1.1 2.1-1.7z"/><path class="st1" d="M206.2 231.6c-1.8 1.5-3.5 3.2-5 5 .7-1 2.5-2.8 5-5zM158.2 262.2c-9.1-3.5-131.1-49.9-137.4-52.4-6.3-2.4-10.8-4.2-13.1-5.2-1-.4-1.6-.7-1.6-.7-.8-1.3-2.2-2.9-3-3.5-.2-.9-.1-3.1 0-3.8s-3-7.1-3-7.1"/><path class="st1" d="M0 63.6s9.7-26.5 12.1-29.8c1-1.7 3.1-3.4 6.5-5.5s23.7-6.6 75.2-8.6c33.1-1.7 107 6.5 140.6 21.9 24.3 13.1 70.2 48 76.5 55.9 19.7.8 115.3 10.8 144 23.3 17 9.6 22.1 12.8 22.7 16.6.3.6.1 3.5-.5 6.5-5.7 6.2-14.2 11.4-16.4 14-2.8 4.7-8.7 24.8-11.2 33.6-2.4 8.8-9.3 65-9.3 65s-2.3 1-6.2 2.4c-8 2.8-31.4 12-48.8 13.4-17.4 1.5-49.1-2.9-53.3-3.6-.7-.2-1.3-.3-1.7-.5-7.7-16.3-20.5-38.3-43.9-53.8-3-2-6.1-3.8-9.5-5.6-28.5-14.7-59.7-19.7-82.9.3-18.6 15.3-19.8 44.4-17.3 54.1 1 3.3 2.1 6.8 1.9 6.8-.2-.1-2.3-.9-5.9-2.3-3.5-1.3-8.4-3.2-14.4-5.5"/><path class="st2" d="M180.4 103.1c-8-13.1-39-55.8-57.3-74.8 34.9-3.6 108.1 12.8 112.1 15.1 9.3 4.1 65 45.9 74.4 55.1-24.9 3.4-103.3 4.9-129.2 4.6zM0 183.9l6.3 13.6-.5 3.5 1.8 3.7M158.2 262.3c-.6-1.1-4.3-24.3-4.2-28.8.2-3.3.7-7.8 1-11.7-1.8-11.4-3.1-65.7-.5-84.1 1.5-13.4 3.7-19.7 4.8-35.4-3-13.8-39.9-62.5-48.3-68.5-.8-.6-4.4-4.5-13-6.1-7.3-1.4-27.2-.2-45.1 1.4-.9 1.6-1.8 3.6-2.6 5.9m-15.7 69.6c-1.7 1.9-3.8 6.9-5 18.4-1.5 16 10.2 62.2 10.4 64.5.2 2.2.2 8 .2 10.4 0 2.5 4.1 21.1 4.1 21.1M0 72.2S10.3 41 12.5 38c1.7-2.2 3-3.7 7-4.8 2.6-.7 17.3-2.6 33.4-4.1"/><path class="st2" d="M34.6 104.6c.4-.4.7-.7 1-.8-.3-5.5 6.7-48.1 14.8-68.8"/><path class="st1" d="M431.8 168.3c-1.4 3-6.5 22.3-7.1 27.8-.6 4.5-2.7 17.4-2.7 22.2 0 3.1-1.4 17.4-1.6 20-11.9 4.1-39.5 7-46.5 6.8-5.4-1.1-6.8-5.8-7-8.4-1.2-8 .2-19.8 0-22.1-.5-3.6-3.5-8.3-6.3-11-6.8-7.6-10.5-10.2-13.9-16-1.4-2.4-2.4-8.8-.7-13.3 1.6-4.5 10.6-3.4 11.3-3.5 7 1.3 44.7.1 74.5-2.5z"/><path class="st1" d="M333.5 277.7s-2.2 2.8-2 5.6c.2 2.2 3.5 25.7 5.5 37 .6 3.5 1.1 5.8 1.3 6.1.6.5 5 1.3 10.7 2 10.3 1.3 25 2.6 30.9 2.7 8.4 0 35.5-6.1 48.5-11.5.4-.2.9-.4 1.3-.5 12.4-5.6 20.9-10.2 26.6-18.1 5.5-7.6 16.2-23.2 16.5-28.1.3-4.8 9.4-42.9 6.3-51.2-3.1-8.2-3.8-9.3-5.6-12.5"/><path class="st2" d="M439.7 282.9c-.5 2.9-4.6 22.3-6 24.2 0 0-6.1 2.9-12.8 4.7-4 1.1-22.8 5-24.3 4.5s-5.4-3-5.6-5.1c-.4-4.4 1.5-16.5 3.7-18.6 3.6-.6 16.6-2.7 25.4-4.5 4.2-.5 19.6-5.9 19.6-5.2zM64 107.6c-3.1-.3-16.7-1.8-29.4-3.1-11.6-1.3-22.4-2.5-23.3-2.8-3-1.1-6.7-2-7.8-9.7.3-14.5 12.4-50 13.7-51.8s2.1-3 5.8-3.5c1.7-.2 13.8-1 27.5-1.8 18.2-1.1 39.3-2.2 43-2 1 0 7.3 1.2 10.7 4.5 9.2 7.4 31.7 37.9 31.7 37.9s16.3 20.1 16.8 26.8c.5 6.6-4.5 30.6-5.2 31.6-.7 1.1-53.2-5.4-55-6.6-.9-.5-4.2-2.4-7.5-4.4"/><path class="st1" d="M143.4 105.1c.5 4.2-5.3 15.9-11.4 19.2-5.9.9-53.2-1.5-60.3-3.4-5.7-2.5-6.9-8.3-7-9.3-.2-1.1-.4-2.4-.6-3.9-.9-5.8-1.7-13.5-1.4-15 .3-2.3 11.4-10.4 13-10.7 1.8-.4 28.3-1.5 32 0 3.6 1.5 11.8 7.1 13.3 9.5s4.1 10.6 4.4 12.4c1 .3 13.3.1 18 1.2zM20.7 209.9l-7.9 2.6-2.6 6.4.6 4.1 129.6 55.3 32.2-7v-3.6"/><path class="st2" d="m457.6 165.4-2.7 1.1-22.8 1.5M385.2 171s-9.8-13.5-13-15.5c-31.1-12-111.3-24.5-156.5-31.7-4.9-.5-8-3.8-8-3.8s-5.7-8.9-6-12.2c1.7-2.9 5.6-4.6 5.6-4.6"/><path class="st1" d="m178.5 270 10.9.1M54 140h-4.6l-14.3-2c-.1-1.6-.2-3.4-.2-5.2l14.5 1.7 4.2.4.4 5.1z"/></g><path class="st1" d="M440.7 256.2c2.9-1.3 29.3-24.4 32.6-45.2s3.4-57.7 3.8-67.1"/><path class="st1" d="M333.5 277.9c5.5.3 32.8 2 46.3 0s55.7-10.9 71.3-21.7c15.5-10.8 20.1-29.2 18.9-34.6"/><path class="st2" d="M331.7 282.8c9.9 1.7 44 7.1 53.5 5.7 16.5-1.1 59.5-11.6 72.1-23.1 12.6-11.6 20-24.7 22.4-40.8M64.8 111.6c4.4.6 14.8 1.3 17.6 1.4 2.6.1 37.5 1.5 43 .7.2-4.8-.1-9-.2-9.5"/></svg>
