<svg version="1.1" id="Calque_1" xmlns="http://www.w3.org/2000/svg" x="0" y="0" viewBox="0 0 500 375" style="enable-background:new 0 0 500 375" xml:space="preserve"><style>.st1,.st2{fill:none;stroke:#fff;stroke-miterlimit:10}.st2{stroke-width:.5}</style><g id="Calque_2_00000181781938900448450820000010146174741196905862_"><path class="st1" d="M0 262.5c9.1 9.7 22.9 37.2 25.3 45.8 4.8.3 350.8-6 362.2-5.8 12.7-2 11.8-8.2 17.8-34.6.3-8.2 7.4-45.1 9.3-100.8-9-43.8-11.9-117.3-32.7-124.4-34.8-12.1-204.1 0-225.5 8.2-35.1 12.6-113.2 74.6-123.1 81.8-9.1 1.9-24.2 3.1-33.2 4.6"/><path class="st1" d="M0 355.3c10.9-9.3 19.7-18.9 28.2-29.8 5.4-6.7 6.2-14.7 5.8-17.5M208.7 187.5c-1.8 1.4-1 6.2 0 6.5s42.1.8 43.8 0c1.7-.8.5-5.6 0-6.5s-42.9-.7-43.8 0zM76 122.6c-.7-1.1-4.7-.4-7.4.5-2.6.9-15 6.4-16.7 7.7-3.9 1.3-5.5 21.2-3.1 26.4 4.1 6.9 9.1 9.6 12 10.4 2.9.8 10.3 1.6 13 1.1 2-.4 4.2-.8 6.5-1.3-.1-2.5-2.8-43.8-4.3-44.8zM407.6 123.3c3.5.1 87.6-1.3 92.4-1.3M395.8 298.3c6.5 1.5 6 2.8 12.3 2.4 6.2-.4 85.9-.2 92-.1"/><path class="st1" d="M495.8 300.2c-.2 5.1 1.3 15.4 4.2 19.3M409.3 135.5c4.9 1.8 6.4 2.6 10.5 3.2 3.8-.4 76.9-.6 80.1-.7M419.8 138.7c-1.5 6.8 1.2 21.4 1.7 29.4.6 32.6-9 93-10.1 101.5s-6 28.7-8.1 30.9M64.2 307.7c1.9 13.9 2.7 19.3 4.4 22.7 4.2 1.2 281.4-3.4 286.6-3.6 5.9-1.9 21.8-8.7 24.7-11 .4-1.6.1-5.3.1-5.3s-3.3-5.2-5.5-8.1"/><path class="st2" d="M54.5 307.6c-4.6-11.4-11.1-29.9-13.1-42-2-12.2-23.4-102.6-5.8-123.2 18.6-21.7 97.2-78.6 125.8-84.7s196.6-15.1 209.3-8 23.6 105.7 23.6 119.2-8.4 96.9-9.4 104.5-5.4 27.4-7.4 29.1"/><path class="st2" d="M48.6 137.8c-2 1.9-3.7 3.7-5.2 5.4-3.5 10.1-5 27-5 27 16.2.8 80 1.2 96.8-1.3 28.9-8.3 43.7-15.8 72.1-17.7 27.9-1.2 82.4-3.4 96.2-4.1 15.2-.8 39 1.6 63.1-15.5 4-7.5-5.2-73.4-12.6-76.7-7.4-3.3-159.1 2.1-189.7 9.3-14.7 2.1-68.2 34.8-100.7 60.7M0 144.7c9.5-.5 21.1-.9 22.5-1.3 1.4-.4 9.6-9.3 10.9-10.7"/><path class="st2" d="M75.7 122.7c-2.8.3-4.2 1.4-4.3 1.6-.9 2.2-1.8 10.7-1.7 12.7.1 2.1 1.6 25.8 3.8 31.4M267.7 48.9c.8 13.3 1.5 86.6 1 99.6-3.7 56.4 2.4 138.6.3 155.8"/></g></svg>
