<svg version="1.1" id="Calque_1" xmlns="http://www.w3.org/2000/svg" x="0" y="0" viewBox="0 0 500 375" style="enable-background:new 0 0 500 375" xml:space="preserve"><g id="Calque_2_00000183219226133025287270000017055866259811610501_"><path fill = "none" stroke="#fff" stroke-miterlimit="10" d="M285 270.2c-2.5 51.4-49.5 89.6-96.3 89.6S99 329.7 97.5 275.1c0-52.8 45.8-98.6 92.7-98.6s94.8 34 94.8 93.7z" transform="matrix(-1 0 0 1 500 0)"/><path fill = "none" stroke="#fff" stroke-miterlimit="10" d="M499.9 249.4s-203 19.1-202.7 17.4c-2.7-2.1-9.9-15.9-14.4-17.4M98.4 262.1c-4.2 3.3-7.5 7.7-7.1 17.8-.2 7-39.8-1.5-46-3.5s-22.6-14.7-25.9-22.9c-3.2-8.2-7-38.5-6.7-40.5s13.9-11.1 14.2-13c.3-1.9-5.2-55.1-5.5-62.3s.3-29.5 1.3-31.9c1.1-2.4 14.9-13.1 16.5-13.7 1.6-.5 35.6-10.3 70.8-15.8 8.9-1.4 148.9-16.5 162-16.3 4.4-3.5 62-51.8 77.3-59.9M373.3 54l-17.7 5s.1 7.8 2 10.9 7.5 10.1 12.9 12.5 18.4 2.3 19.4 2.3 56-12.9 57.5-14.6 9.4-7.1 9.6-15.9 4.3-23.2 1.9-28.3-13.1-11-17.3-10.7-53.7 12.9-59.8 20.1c-5.9 7.1-8.6 17.1-8.5 18.7z" transform="matrix(-1 0 0 1 500 0)"/><path fill = "none" stroke="#fff" stroke-miterlimit="10" d="M82.6 282.2c-3.1-10.4 2.6-52.7 6.1-67.5 2.2-9.4 14.4-25.8 24.2-34.9 5.9-5.4 30-22.3 75.1-26.7 36.2-3.5 86.6 22.4 104.1 56.7 13.6 33.5 9 53 5.1 57M37.1 184.3s-2.3-20.4-1.5-21 9.3-1.1 9.3-1.1 0-17.6-.4-18.1-9.7-1.9-9.7-1.9-1.3-22.7 0-25.9c1.3-3.2 33.7-4.3 35-4.3s9.6.6 10.4 4.2.4 11.2-1 13.4c-1.4 2.1-12.3 16.4-16 20.6-1.1 2.8-3.1 19.4-2.5 30.5-.6 10.4-12.7 6.8-12.7 6.8l-10.9-3.2z" transform="matrix(-1 0 0 1 500 0)"/><path fill = "none" stroke="#fff" stroke-miterlimit="10" stroke-width = ".5" d="M26.9 200c11.3 16.1 19.8 17.5 61.4 16.4M12.7 213c7.4 9.9 35.1 23.5 72.9 18.7M16.5 223.1s3.9 25.5 4.8 26.7 10.1 9.9 14.7 10.4-.6-25.7-1.8-26.6c-1.2-.8-15.4-7.7-17.7-10.5zM21.9 116.3l13.4-.5M50.1 113.1s9.2-12 13.9-15.9c6.5-5.5 118.8-16.8 177.7-20 7.8-.4 11.9-1.5 17.8-3.9 2-1.4 12.8-13.3 12.8-13.3M273.1 59.4l32.4-1.7s14.5-13.9 18.8-17.5C342.8 23.9 376.8 0 376.8 0M392.9 0c-8.9 5.7-45.6 35.8-54.8 46.2-2.5 2.9-6 7.1-6.9 12-2.8 23 4.1 73.1 2.5 148.1 2.1 10.5 3.4 55.8-3.2 58.3" transform="matrix(-1 0 0 1 500 0)"/><path fill = "none" stroke="#fff" stroke-miterlimit="10" stroke-width = ".5" d="M409.6 0c-6.6 4.3-50.7 35.9-57.8 43-6.8 6.8-9 8.4-10.2 19.5-1.5 13.4 1.4 28.2 2.3 30.7 4.5-.2 91.8-.3 96.4-.8 21.6-3.5 43.8-18.6 51.3-20.3 4.2-.9 8.3-.8 8.3-.8" transform="matrix(-1 0 0 1 500 0)"/><path fill = "none" stroke="#fff" stroke-miterlimit="10" stroke-width = ".5" d="M373.6 54.3c-.7 3.5-1.8 10.9-.5 11.6 1.3.7 36.7-7.2 52.4-9 6-.7 29.6-2.9 31.2-2.3" transform="matrix(-1 0 0 1 500 0)"/></g></svg>
