<svg width="1260" height="1130" fill="none" xmlns="http://www.w3.org/2000/svg"><g clip-path="url(#a)" stroke="#fff" stroke-width="1.001" stroke-miterlimit="10"><path d="M1148.8 651.219c-6.76 264.949-273.78 461.611-532.688 461.611S119.928 922.147 111.478 640.835c0-271.872 229.84-472 512.746-472 259.584-.315 532.686 174.954 524.576 482.384Z"/><path d="M112.492 610.627c-23.322 16.992-37.518 38.389-35.152 90.309-.338 10.699-19.942 14.475-47.996 13.845-66.924-.944-182.182-24.858-206.18-32.096-13.52-4.09-36.166-16.992-59.826-33.669M1140.69 549.581c27.38 19.195 61.18 73.632 75.71 84.016-.34 2.203 73.68-2.517 184.21-11.013 16.56-1.259 34.14-2.517 52.39-4.091"/><path d="M29.006 712.893c-12.506-39.018.676-164.885 16.562-260.229 5.07-30.837 10.478-58.528 15.21-78.667.676-3.146 1.352-5.978 2.028-8.81 12.168-48.459 79.43-133.104 133.848-179.675 32.448-28.005 154.804-118.944 415.402-137.51 200.772-14.474 479.284 115.483 575.954 292.011 75.37 172.438 49.68 273.131 28.05 293.584"/></g><defs><clipPath id="a"><path fill="#fff" d="M-237-25h1690v1180H-237z"/></clipPath></defs></svg>
