<svg version="1.1" id="Calque_1" xmlns="http://www.w3.org/2000/svg" x="0" y="0" viewBox="0 0 500 375" style="enable-background:new 0 0 500 375" xml:space="preserve"><style>.st0{fill:none;stroke:#fff;stroke-width:1.0006;stroke-miterlimit:10}</style><path class="st0" d="M90 214.9c2 84.2 81 146.7 157.6 146.7s146.8-60.6 149.3-150c0-86.4-68-150-151.7-150-76.8-.1-157.6 55.6-155.2 153.3z"/><path class="st0" d="M396.6 202c6.9 5.4 11.1 12.2 10.4 28.7.1 3.4 5.9 4.6 14.2 4.4 19.8-.3 53.9-7.9 61-10.2 4-1.3 10.7-5.4 17.7-10.7M92.4 182.6c-8.1 6.1-18.1 23.4-22.4 26.7.1.7-21.8-.8-54.5-3.5-4.9-.4-10.1-.8-15.5-1.3"/><path class="st0" d="M421.3 234.5c3.7-12.4-.2-52.4-4.9-82.7-1.5-9.8-3.1-18.6-4.5-25-.2-1-.4-1.9-.6-2.8-3.6-15.4-23.5-42.3-39.6-57.1-9.6-8.9-45.8-37.8-122.9-43.7C189.4 18.6 107 59.9 78.4 116c-22.3 54.8-14.7 86.8-8.3 93.3M438.3 0c5.6 7.2 11.7 15 14.8 18.5 1.8 4.6 5.1 31.8 4.1 49.9 1 17 20.8 11.1 20.8 11.1l17.8-5.2s2.7-24.2 2.7-32c0-1.4-.1-2.2-.3-2.4-1.3-1-15.2-1.8-15.2-1.8s0-28.8.7-29.6c.6-.8 15.9-3.1 15.9-3.1s.1-2.1.3-5.4M15.5 205.7c-10.8-4.1-8.7-78.2-5.2-95.4-.9-41.5-.2-78.3.9-110.3M500 114.3c-15 12.8-35.3 13.9-88 12.5"/><path class="st0" d="M416.4 151.9c33.7 4.3 62.5-.4 83.6-8.1M500 197.9c-.9.3-1.7.5-2.5.6-7 .8-.1-36.3 2.5-42.7M500 0h-.2"/></svg>
