<svg version="1.1" id="Calque_1" xmlns="http://www.w3.org/2000/svg" x="0" y="0" viewBox="0 0 500 375" style="enable-background:new 0 0 500 375" xml:space="preserve"><style>.st2,.st3{fill:none;stroke:#fff;stroke-miterlimit:10}.st3{stroke-width:.5}</style><g id="Calque_2_00000011013376770306322660000013698089000844325002_"><path class="st2" d="M278.8 233.5c10.5.3 17 .6 17 .6M0 248.4l76.6 4.8s4.8 3.2 14 0c.4-1.3 1.3-4.6 9.7-8.8" transform="matrix(-1 0 0 1 500 0)"/><path class="st2" d="M76.6 253.2c-7.7-17.8-.7-50 3.1-60.6 2.2-6.1 8.8-29.7 50.4-48.8 34.9-16.1 82.6-12.4 116.2 13.2s49 55.2 52.6 95.5c21.2.4 164.6-6.6 167-10.9 7.6-8.8 21-37.4 14.4-45.1-7.2-3.5-26.8-10.5-26.8-10.5s27.9-110.4 5.7-153.2c-.5-2.5 1.5-7.3-.1-8.5-8.9-10-162 6-200.6 8.2C132.1 39.8 0 46.1 0 46.1" transform="matrix(-1 0 0 1 500 0)"/><path class="st2" d="M123.1 39.7s-2.1-7.1-3.7-8.6c-3.1-2.9-38.8-27.3-45.6-31M283.5 269.4c-4.7 49.3-33.5 88.8-87.6 88.8-45.8 0-95.6-42.5-97.3-92.9-2.6-57.3 45.6-92.9 91.4-92.9 76 2.2 93.5 57.9 93.5 97zM467.5 70.5c-4.6-3.1-17.8-3.7-18.5-3.7s-42.4-.7-46.4 3.5-3.9 17.5-1.3 23.5c2.6 6.1 17.3 15.5 20.6 22.5 1.9 7.9-3.5 37.4.7 42.2 8.5 4.2 32.2 2.5 36.8.2M431 246c6.1-9.5 18.8-49.3 22.5-59.9" transform="matrix(-1 0 0 1 500 0)"/><path class="st3" d="M449.3 198.5c13.1.4 28.4-1 30.5-2.2M58.5 0c7.8 4.3 32.2 16.4 32.2 16.4l-1.9-6.8M52.6.5s58.7 27.7 69.8 37" transform="matrix(-1 0 0 1 500 0)"/></g></svg>
