<svg version="1.1" id="Calque_1" xmlns="http://www.w3.org/2000/svg" x="0" y="0" viewBox="0 0 500 375" style="enable-background:new 0 0 500 375" xml:space="preserve"><style>.st1,.st2{fill:none;stroke:#fff;stroke-miterlimit:10}.st2{stroke-width:.5}</style><g id="Calque_2_00000094604596147728788340000009576135248578302644_"><path class="st1" d="m405 166.2 27.5 5.9c2.8.8 5.4 3.9 7.5 6.3 8.5 9.6 11.6 31.3 9.1 58.4-1.4 15.3-4.7 32.3-9.8 49.9-12.5 42.9-32.6 76.9-50.3 88.3"/><path class="st1" d="M405.4 165.5c10.8-14.2 18.4-19.8 18.4-19.8s27.3-26.7 39.1 4.5-10.4 85.5-10.4 85.5l47.4-43.6M405.4 165.5c-21.1 24.2-32.5 68.4-39.9 75-78 26.1-198.6-.1-201.4-.5-41.3-9.5-113.3-39.2-125.1-63.1C24.7 143 24.7 85.4 24.7 85.4V75.3l22.7-14.6c5.8-3.7 12.3-6.2 19.1-7.3 23.5-3.7 69.3-10.7 71.7-10.8 18.5-3.2 61.4-12.7 91.7-14.1C237.4 22.2 267.1 0 267.1 0M499.9 56.6s-4.3-9.8-5.6-12.7C493 41 490.7 31 490.7 31l9.2-.8"/><path class="st2" d="M485.8 0s-2.6 13.8-3.3 22.8c-.7 9 10.8 42.6 10.8 42.6l6.6.7M270.2 0s-31.1 24-36.4 28.1c4.9-.5 149.9-5.8 223-3.3L462.7 0"/><path class="st2" d="M141.6 89.8s45.1-.2 50 0 102-3.2 102-3.2 15-24.1 17.6-25.7C363.1 41 442.1 46 446.1 42c3-2.3 1.1-17.4 1.1-17.4M474.9 215.3v-8.2l1.6-15.2s-1-8.7 0-15.9c2.9-24 16-61.1 13.1-106-1-11.1-9.6-36.9-10.7-43.9.7-18.1 2-26.1 2-26.1"/><path class="st1" d="m336.1 85.6-42.5 1.2-102 3.2s12.7 24.1 13.1 27.5c2.2 4 2.3 15.2 2.6 18.8.5 1 1.9 36.5.9 36.8-.5 2.4 1 30.6 1.4 35.2 5.4.1 98.6 7.8 103.4-5.2 5.2-8.2 3.2-33.6 8.2-49.5s22.8-29.7 26.6-39.3 3.6-19.6-1.6-25l-10.1-3.7z"/><path class="st2" d="M82.9 279s-45.6-42-45.8-42.7c-.3-1.1-4.7-21.7-4.7-23 .7 1 46.5 37.6 46.5 37.6l4 28.1zM277.9 292v22.8c0 2.1-1 4-2.6 5.2l-9.2 6.8c-2.3 1.7-5 2.4-7.8 2.2l-33.2-1.1-33.4-4.7c-3.7-.4-8.3-3.6-8.6-7.3l-2.5-31.5c0-1.1 1.9-3.1 3.1-3l90.9 7.2c1.9.1 3.3 1.6 3.3 3.4z"/><path class="st1" d="M451.6 236.8H449M449 241.2l29.2 2.3 21.7-25.4M353.4 375z"/></g><path class="st1" d="M305.1 342.2c2.3 2.6 16.8 15.5 46.8 32.7"/><path class="st1" d="M37.2 172.1c-4.8 3.1-12.3 9.7-13.8 11.8-2.3 2.9 1.4 31.6 9.1 49.9 7.2 13.3 32.2 40.2 40.6 47.5 17.4 15.2 62.5 44.2 84.3 52s92 11 137.3 11.9c2.2 0 46.8-13.4 48.7-16.3 1.9-2.8 18.4-58.9 19.2-61.5.8-2.7 1.4-6.8-6-11.5.2-5 3.4-13.8 3.4-13.8"/><path class="st1" d="M169.1 240.9c0-10.5-6-105.5-7.5-110.3s-21.9-49-28.6-52.9-91.7-1.4-98-.3-8.4 2.1-10.2 3.2"/><path class="st1" d="M362.6 262.3c-16.7 10.6-54.6 14.9-66.4 16.6-8.9 1.3-101.9-2.6-141.7-12.3-83.9-25-127.5-56-131.1-82.7"/><path class="st2" d="M356.5 256c-38.2 8.4-67.9 7.3-78.6 6.6-59.1-3.6-102-10.2-108.8-12.1-38.9-8.7-109.2-39.7-119.9-52.7-6.4-6.5-8.3-16.1-8.2-18.4"/></svg>
