<svg version="1.1" id="Calque_1" xmlns="http://www.w3.org/2000/svg" x="0" y="0" viewBox="0 0 500 375" style="enable-background:new 0 0 500 375" xml:space="preserve"><path fill = "none" stroke="#fff" stroke-miterlimit="10" stroke-width = "1.0006" d="M384.8 172.4c15.4.4 26.4 1 26.4 1m-288.3 14.9c-11.9 6-13.2 11.2-13.8 13-13.5 4.7-20.6 0-20.6 0L0 195.8"/><path fill = "none" stroke="#fff" stroke-miterlimit="10" stroke-width = "1.0006" d="M500 197.4c-39.5 1.9-73.8 3.1-85 2.9-.8-9.4-2.1-18.5-3.9-27.2-9.3-45.7-31-82.7-73.4-113.1C285.1 22.2 215.4 19.4 167 40.6c-95.9 42-89.9 134.6-78.6 160.7"/><path fill = "none" stroke="#fff" stroke-miterlimit="10" stroke-width = "1.0006" d="M263.7 355.6c-70.6 0-140-49.1-142.9-136.5-3-88.4 67-136.5 134.3-136.5 97.9 0 137.3 69.8 137.3 142.5 0 59.9-38.7 130.5-128.7 130.5z"/></svg>
