<svg version="1.1" id="Calque_1" xmlns="http://www.w3.org/2000/svg" x="0" y="0" viewBox="0 0 500 375" style="enable-background:new 0 0 500 375" xml:space="preserve"><style>.st1,.st2{fill:none;stroke:#fff;stroke-miterlimit:10}.st2{stroke-width:.5}</style><g id="Calque_2_00000089546290222228665970000006431225684998034068_"><path class="st1" d="M120.1 77.1s36.4-43.6 39.7-45.6c5.1-4 33-7.4 42-7.9 4.5-.2 26.3-1.6 48.2-1.7 22.3-.1 44.8 1.2 50 1.7 10.7 1.1 32 3.5 36.5 5.5 4.3 1.4 38.6 42.5 42.1 47.7"/><path class="st2" d="M127.4 76.1c6.6-8.5 34.3-44 36.5-44.2 1.3-.1 43.8-7.7 86-7.7 43-.1 85.7 7.4 86.1 7.6.6.3 29.4 34.6 37 44.3"/><path class="st1" d="M91.4 79.8c-.1-.6-.1-1.2.1-1.5.7-1.1 3.9-5.1 4.6-5.9 1.9-1.2 18.3-2.3 19.4-1.5.8.6 1.4 4.3 1.7 6.4M382.6 77.1c.1-1.8.6-5.6 1.6-6 1.4-.5 17.2-.3 18.5.3 1.7.8 5.8 5.5 6 6.4v2.3M411.4 271c-8.4-4.1-16.2 6.3-157.6 5.7-156.2-.2-162.7-10-167.1-5.1 0 0 .9 26.6 3.4 36.5.4 1.5.8 2.6 1.2 3.2 2.9 2.8 49.7 5.9 52.2 6.5s7 2.8 10.4 3.7c9.6 2 160.7 2.4 194.4 0 2.8-.3 4.2-2.5 6.5-3.7 2.2-1.1 48.4-3.7 53.9-7.3.4-.3.8-1.5 1.2-3.4 2.2-10.1 4.1-38.1 1.5-36.1z"/><path class="st2" d="M167.1 285.2h165.4l-3.6 29H170.8z"/><path class="st1" d="M27.8 226c-.9 1-9.2 10-9.5 12.4-.3 2.5 9.6 51.9 9.6 51.9s26.5 19.2 43.5 26.6c3.1 1.4 5.9 2.3 8.2 2.7 14.7 2.4 63.4 10.2 76 11.6s87.5 3.8 94.3 3.8 88.8-2.4 96.3-3.8c7.5-1.3 73.5-9.2 75.9-12.2.5-.7 3.1-2 6.9-3.7 13.1-6.1 40.3-17.6 43.2-26.9 3.6-12.1 10.8-45.3 10.1-50-.5-3.2-6.6-9.2-10.5-12.8m-61.9 81.5c-.4 1.9-.8 3.2-1.2 3.4-5.5 3.7-51.7 6.2-53.9 7.3-2.2 1.1-3.7 3.4-6.5 3.7-33.7 2.4-184.8 2-194.4 0-3.4-.9-7.9-3.1-10.4-3.7s-49.4-3.7-52.2-6.5c-.4-.6-.8-1.7-1.2-3.2-2.5-9.9-3.4-36.5-3.4-36.5 4.4-4.9 11 4.9 167.1 5.1 141.3.6 149.2-9.8 157.6-5.7 2.6-2 .7 26-1.5 36.1z"/><path class="st1" d="M86.4 241.5s-6.9-82.1-6.9-85.7c0-4.9 16.7-32.4 22-37.7 7.4-2.2 135-4.3 148.5-4.5 14.4-.2 144.9 1.6 149.4 4.5 5.7 3.8 20.9 40 20.9 40s-7.2 82.5-7.2 83.4"/><path class="st1" d="M18.3 238.4c10 7.1 37.8 15.7 55.5 21.1 10.4 3.2 159.3 10.2 175.7 10.2 30 0 170-6.3 182.8-10.2 23.5-7.1 39.2-14 50-20.8M27.8 118.4c7.8.9 30.2 2.8 44 3.3-3 6.3-8.6 18-9 19.8-.6 2.5-1.2 12.8-1.2 12.8s-.5 26.8 1.4 27.8c.9 2.5 1.5 25.1 1.5 25.1s-34.9-8.2-41.3-18.1M476.9 189.7c-9.2 9.3-42.9 18.2-42.9 18.2l2.2-25.7 1.8-27.1s.4-9.7-1.2-13.8c-1.1-2.9-6.3-13.8-9.2-19.5 13.9-.9 36.7-2.6 44.5-3.3"/><path class="st2" d="M27.2 268.8s2.2 8.2 6.4 13.3c11.6 9.3 25.5 14.5 25.5 14.5s-2.3-29.2-5.6-33.1c-9.4-2.7-22-8.4-29.9-13.9l3.6 19.2zM477.7 248.3c-5 5.5-24.9 13.9-31.4 16-1.6 2.1-6.6 29.9-5 32.9 6.5-.5 21.1-9.7 27.1-15.5 1.3-1.4 4.4-7.3 5.5-11.5.9-4.2 3.8-21.9 3.8-21.9z"/></g><path class="st2" d="M30.9 227.4c.8 2.5 1.9 4.4 3.5 5.3 3.4 2 55.2 19.1 64.7 20.4 24.5 6.1 135.5 8.2 145.7 8.2s128.9 0 170.5-12.2c12.9-4.1 50.7-11.9 52.4-17 .4-1.3.6-3.1.7-5.1"/><path class="st1" d="M26.5 225.6c6.2 4.7 48 15 55.8 15.9 4 .5 87.7 10.2 169.9 10.3 79 .1 156.6-9.3 168-11.6 23.3-4.7 52.3-12.7 54.5-17.2s2.9-9.4 2.9-13.6c0-4.2-3.8-86.7-5.6-90.9s-4.5-11.9-9.4-15.9-46.1-20.4-50.1-21.6-62.9-7.1-73.2-7.8c-10.3-.7-179.9-.4-182 0-2 .4-66.6 7.1-69 7.4-2.3.3-47.3 18.9-51.8 22.7s-8 11.9-8.7 14.3c-.7 2.5-5.7 88-5.7 91.1s2.5 15.4 4.4 16.9z"/><path class="st2" d="M72.1 121.5c4.9.3 25.7.3 26.3.4M427.3 121.6c-2.4.1-21.7.7-24.3.8"/></svg>
