<svg version="1.1" id="Layer_2_00000072986398037870339420000002369424118351777969_" xmlns="http://www.w3.org/2000/svg" x="0" y="0" viewBox="0 0 2048 1536" style="enable-background:new 0 0 2048 1536" xml:space="preserve"><style>.st0,.st1{fill:none;stroke:#fff;stroke-width:2.3092;stroke-linecap:round;stroke-linejoin:round;stroke-miterlimit:10}.st1{stroke-width:4.6183}</style><path class="st0" d="M1024 761.1c-207.2 0-727-5.4-866.8-13.4-16.7-2.5-42.9-1.3-62-26.6"/><path class="st0" d="M253.5 1146.5c-9.3-18-20-44.6-26.8-65.2-2.4-7.3-1.8-15.2-1.6-18.7-20.1-52-64.6-248.6-67.8-314.8-9-31.3-14-132.9-10.3-150.6l-6.8-31.7"/><path class="st1" d="M1024 92.1c-75.3 0-238.4 9.5-293.5 17.2-6.3.9-12.1 4.1-16.2 9-35.4 43.3-81.7 205.6-93.2 245.7"/><path class="st1" d="M1024 143.1c-66.4 0-242.5 1.9-306.3 13.4-22.3 54.2-55.9 155.3-68 208.2M1024 370.7c-94.5 0-286.4 1.3-363.6 0"/><path class="st1" d="M1024 583.8c-290.2 0-768.8-7.1-883.8-18.4-15.3-1.5-20.6-5.2-25.6-11-2.4-2.8-1.4-7.2 2-8.7 84.4-35.9 495.8-180.9 495.8-180.9 14.7-2 37.7-1.1 48 1.4L140.2 565.4"/><path class="st1" d="M660.4 366.3v12.1l-4.6 8.6-353.9 159.3"/><path class="st1" d="M190.8 545.9c41.2 2.8 596.3-4.9 833.2-4.9M113.3 551.7l5.8 32.1c-11 24.4-24.3 93.3-25.9 105.5-1.6 12.1 2 31.8 2 31.8 14.8 91.5 52.8 264.3 66.2 301.3-1.9 11.1 1.3 25.4 6 39.4s19 56.3 16.8 76c-8.6.7-18.6 22.6-24 42.3-5.4 19.7-9 58.8 3.6 79.2 12.5 20.4 47.3 62 57.3 73.9 10.1 12 22.4 28.2 63.8 31.7s219.3 18 276.1 27.3c56.8 9.4 148.7 22.8 207.3 28.1 59.1 5.3 255.7 5.3 255.7 5.3M1024 1471.9c-9.1 0-17.8-.4-24.2-.7-5.7-.3-10.2-5.1-10.2-10.8v-34.7"/><path class="st1" d="M1024 1157.8c-174.5 0-623.2-3.6-770.5-11.3-14.2 0-18.5-3.5-28.2-5.6-12.2-2.6-29.1-3.7-41.1-3.1"/><path class="st0" d="M119.1 583.8c3.2 4.7 11.4 12 27.8 13.3 252.6 19.1 668.7 16.5 877.1 16.5M161.4 1022.4c18.8 24.7 40.9 35.9 63.6 40.1 28.1 1.6 60.1 1.9 79.5-5.7 19.5-7.6 156.8-71 202.5-76.6s287.5 0 516.9 0"/><path class="st0" d="M1024 1089.3c-203 0-631.3-2.4-797.4-8.1-24.2-3.5-51.3-23.7-64.5-39.1M754.7 1418.9c-4.5-5.7-8.3-28.6-17.2-40-8.8-11.4-64.1-60-75.8-68.6s-31-8.8-53.6-9.8-336.1-19.5-373-23.2-61.1-7.9-71.3-18.2"/><path class="st0" d="M1024 1393.8c-64.5 0-185.1-1.6-198.4-2.4-13.2-.8-22-3.6-36.5-17.2-8.9-8.4-43.3-45.5-54-58.3-12.7-15.4-23.3-30.2-25-44.7-65.6.2-390.6-12-513.4-29-4-5-5.8-17.4-5.8-17.4-15.3-2.7-29-8.1-32.1-39.4M191 1224.8l66.2-78.1M710.2 1271.2l55.2-114.8M761.5 1164.5c12.9 22.7 59.4 90.3 67.3 100.2s17 15.9 33.6 16.2c16.6.4 94.9 0 161.6 0M1024 761.1c207.2 0 727-5.4 866.8-13.4 16.7-2.5 42.9-1.3 62-26.6"/><path class="st0" d="M1794.5 1146.5c9.3-18 20-44.6 26.8-65.2 2.4-7.3 1.8-15.2 1.6-18.7 20.1-52 64.6-248.6 67.8-314.8 9-31.3 14-132.9 10.3-150.6l6.8-31.7"/><path class="st1" d="M1024 92.1c75.3 0 238.4 9.5 293.5 17.2 6.3.9 12.1 4.1 16.2 9 35.4 43.3 81.7 205.6 93.2 245.7"/><path class="st1" d="M1024 143.1c66.4 0 242.5 1.9 306.3 13.4 22.3 54.2 55.9 155.3 68 208.2M1024 370.7c94.5 0 286.4 1.3 363.6 0"/><path class="st1" d="M1024 583.8c290.2 0 768.8-7.1 883.8-18.4 15.3-1.5 20.6-5.2 25.6-11 2.4-2.8 1.4-7.2-2-8.7-84.4-35.9-495.8-180.9-495.8-180.9-14.7-2-37.7-1.1-48 1.4l520.2 199.1"/><path class="st1" d="M1387.6 366.3v12.1l4.6 8.6 353.9 159.3"/><path class="st1" d="M1857.2 545.9c-41.2 2.8-596.3-4.9-833.2-4.9M1934.7 551.7l-5.8 32.1c11 24.4 24.3 93.3 25.9 105.5 1.6 12.1-2 31.8-2 31.8-14.8 91.5-52.8 264.3-66.2 301.3 1.9 11.1-1.3 25.4-6 39.4s-19 56.3-16.8 76c8.6.7 18.6 22.6 24 42.3 5.4 19.7 9 58.8-3.6 79.2s-47.3 62-57.3 73.9c-10.1 12-22.4 28.2-63.8 31.7s-219.3 18-276.1 27.3c-56.8 9.4-148.7 22.8-207.3 28.1-59.1 5.3-255.7 5.3-255.7 5.3M1024 1471.9c9.1 0 17.8-.4 24.2-.7 5.7-.3 10.2-5.1 10.2-10.8v-34.7"/><path class="st1" d="M1024 1157.8c174.5 0 623.2-3.6 770.5-11.3 14.2 0 18.5-3.5 28.2-5.6 12.2-2.6 29.1-3.7 41.1-3.1"/><path class="st0" d="M1928.9 583.8c-3.2 4.7-11.4 12-27.8 13.3-252.6 19.1-668.7 16.5-877.1 16.5M1886.6 1022.4c-18.8 24.7-40.9 35.9-63.6 40.1-28.1 1.6-60.1 1.9-79.5-5.7s-156.8-71-202.5-76.6-287.5 0-516.9 0"/><path class="st0" d="M1024 1089.3c203 0 631.3-2.4 797.4-8.1 24.2-3.5 51.3-23.7 64.5-39.1M1293.3 1418.9c4.5-5.7 8.3-28.6 17.2-40 8.8-11.4 64.1-60 75.8-68.6 11.7-8.6 31-8.8 53.6-9.8s336.1-19.5 373-23.2 61.1-7.9 71.3-18.2"/><path class="st0" d="M1024 1393.8c64.5 0 185.1-1.6 198.4-2.4 13.2-.8 22-3.6 36.5-17.2 8.9-8.4 43.3-45.5 54-58.3 12.7-15.4 23.3-30.2 25-44.7 65.6.2 390.6-12 513.4-29 4-5 5.8-17.4 5.8-17.4 15.3-2.7 29-8.1 32.1-39.4M1857 1224.8l-66.2-78.1M1337.8 1271.2l-55.2-114.8M1286.5 1164.5c-12.9 22.7-59.4 90.3-67.3 100.2s-17 15.9-33.6 16.2c-16.6.4-94.9 0-161.6 0M632.7 397.4c-.8 29.6 4.2 100.5 9.9 146.1M1415.3 397.4c.8 29.6-4.2 100.5-9.9 146.1M654.5 543.4c-3.9-31.7-8.5-105.4-9.1-114.8s5.5-14.6 17.9-15.1c12.4-.6 262.8-4 360.7-4"/><path class="st0" d="M688 543.1c-2.3-21.5-5.5-87.6-5.2-96s8.4-14.2 27.7-14.5c19.4-.3 223.8-2.4 313.4-2.4M1393.5 543.4c3.9-31.7 8.5-105.4 9.1-114.8s-5.5-14.6-17.9-15.1c-12.4-.6-262.8-4-360.7-4"/><path class="st0" d="M1360 543.1c2.3-21.5 5.5-87.6 5.2-96s-8.4-14.2-27.7-14.5c-19.4-.3-223.8-2.4-313.4-2.4"/><ellipse class="st0" cx="1024" cy="871.9" rx="132.5" ry="48.3"/><path class="st0" d="M1330.3 156.5c4.1-5.1 5.5-29.1 0-41.5M717.7 156.5c-4.1-5.1-5.5-29.1 0-41.5"/></svg>