<svg version="1.1" id="Calque_1" xmlns="http://www.w3.org/2000/svg" x="0" y="0" viewBox="0 0 500 375" style="enable-background:new 0 0 500 375" xml:space="preserve"><style>.st2,.st3{fill:none;stroke:#fff;stroke-miterlimit:10}.st3{stroke-width:.5}</style><g id="Calque_2_00000138561109888502971920000016111939346648811158_"><path class="st2" d="M112.2 243.9c0 .8.1 1.5.1 2.3 0 17-24.2 34.9-41.4 33-18.3 0-35-19.1-33.8-35.8 0-17 17.4-34.4 38.9-33.5 10.2-.2 18.2 2.9 24 7.9M419.2 245.2c0 17.2-15.4 34.4-34.6 34.4s-38.7-16.3-38.1-37.3c0-17.2 15.2-32.7 34.4-32.7 19.3 0 38.3 14.3 38.3 35.6z"/><path class="st2" d="M37 247.1s-12.5-1.5-14.2-2.5c-1.7-1.1-4.5-4.3-4.5-5.2s-1.5-14.1-1.5-16 2.8-4.1 4.5-4.8c.2-.8.7-3.3.9-4.5.3-3.5-2.3-19.5.1-29.8 1.4-4.9 2.5-6.7 6.1-8.7 5.2-2.9 39.6-8.7 51.5-10.2s37.7-4.4 39.3-4.4 43.4-30.5 48.6-33.4c5.2-2.9 11.7-5.2 16.6-6.3 9.9-2 78.6-4.7 86.9-3.7s12.9 2.7 14.7 5.2c3.8 5.6 6.4 32.4 7 34s109.4-1.3 114.6-1 60.2 1.6 65.5 5.1c.6.4.1 1.5.5 2.8 4.7 8.7.8 43.1-.7 49.6 1.6 1.4 6.2 1.4 7.8 2.2 1.6 2-.3 9.1-3.8 14.4-2.6 4.2-52.6 6.9-53.4 6.8-1.6-.3.4-4.4-7.1-5.3"/><path class="st2" d="M346.5 240.8c-6.1 1.3-3 2-6.3 2.2s-222 4.9-223.8 4.2-4.1-2.5-4.1-2.5-2.7-20.4-19-33.3c-4-3.1-17.3-12.2-36.1-8-28.2 8.1-25 32.5-24.3 43.3"/><path class="st2" d="M340.9 242.7c1.2-8.7 4.8-18.6 9.6-25.9 4.1-6.2 14.1-18.9 36.4-18.7s32.6 13.3 35.2 18.3c2.6 5.1 3.8 15.3 1.4 20.4M291.1 244c4.6-19.6 6-55.8 3.2-78.6-.6-4.6-1.3-8.4-1.3-8.4M295 166.9c11.2 0 142.7-1.2 171.2-3.1 4.6-.3 7.1-1.3 7.1-2.1M475.8 175.8c-1.6.7-13.4.8-14.7 1-1.3.1-2.4 5.5-1.1 7.8s6 4.3 5.8 6.3c-.1 2-1.2 12.3-.1 13.3s7.3 1.1 8.6 0M24.2 202.7s-.5 6.5 0 7.4 1.3 2.4 2.1 2.1c.8-.3 1.1-9.6 1.1-10.9s4.2-6.3 4.7-7.4c.5-1.1 1.2-5 .5-6.1s-5.7-.6-6.3-.9c-.6-.3-1.7-1-1.7-1s-.8 7.6-.6 8.6c.2 1 1.4 1.6 1.4 1.6l-.2 6.7-1-.1zM201.5 186.1s18-.1 18.2-.2 1 2.4.7 2.9-18.4.6-18.6.6c-.9.1-1.3-2.8-.3-3.3zM143.5 177.1c-.2.5-8.1 0-9.2-.2s-4.1-2.6-4.5-4.7c-.4-2.2.6-9.5 1.4-10.3.8-.8 9-5 10.5-5s1.6 1.4 1.6 1.5c0 0 .2 14.3.2 18.7zM466 233.1c1.8-2.7 6.4-17.6 6.8-19.4"/><path class="st3" d="M199.8 184s-.3 7.7 0 7.9 20.8.4 21.2 0 .4-8 .1-8.5c-.2-.6-20.8 0-21.3.6zM472.1 216.8c2 .1 7.5-.2 8.2-.8M21.5 219c-.8 2.5 2.1 4.1 13 3.8M17.4 222.3c1.5 4.1 12.4 4.6 16 3.9M22.8 184.3l1.6 1.2M25.6 186.1s3.5-4.3 4.2-4.7c.8-.5 19.4-3.3 26.7-4.4 7.3-1 32.8-2.7 34.8-3.1 11.3-2.4 18.7-5.3 23.7-8.1.6-.1 5.3-4.7 6-5.3"/><path class="st3" d="M126.8 246.9c-2.6-5.7-4.8-16.8-5.8-24.2s-5.1-35.5-2.2-46.4 3.3-12.3 8.4-15.9c5.1-3.6 33.2-25.6 41.7-28.8 8.4-3.2 11.8-4.8 17.1-5.3s76.8-4 85-3.4c8.2.5 7.8 8.2 8.4 11.2s4.7 36.3 4.6 44.1c-.1 7.8-1.7 60.8-2.3 65.7"/><path class="st3" d="M229.7 245.3c-.9-6.3-3-59.3-3-65.5s1.9-9.6 1.4-11.4c-.5-1.8 0-44.1 0-44.1"/><path class="st3" d="M123.2 180.1c-1.1-1.5 1.4-13.1 3.4-15.9 3.8-4.9 38.5-27.1 44.4-30 6-2.9 10.4-3.7 14.5-4.4 4.2-.6 74.9-4.2 78.1-3.6s5.7.1 6.6 4.4c1 4.3 3.8 27.7 2.6 30.7s-9.8 6.4-14.8 6.6-63.9 1.9-68.6 2.9c-4.7 1-21.8 9.1-24.5 9.4-2.8.2-38.4 1.1-41.7-.1zM407.1 156.2v9.3"/></g></svg>