<svg version="1.1" id="Calque_1" xmlns="http://www.w3.org/2000/svg" x="0" y="0" viewBox="0 0 500 375" style="enable-background:new 0 0 500 375" xml:space="preserve"><style>.st1,.st2{fill:none;stroke:#fff;stroke-miterlimit:10}.st2{stroke-width:.5}</style><g id="Calque_2_00000094604596147728788340000009576135248578302644_"><path class="st1" d="M111 375c-17.7-11.4-37.8-45.4-50.3-88.3-5.1-17.6-8.4-34.6-9.8-49.9-2.5-27.1.6-48.8 9.1-58.4 2.1-2.4 4.7-5.5 7.5-6.3l27.5-5.9"/><path class="st1" d="m0 192.1 47.4 43.6S25.2 181.4 37 150.2s39.1-4.5 39.1-4.5 7.6 5.6 18.4 19.8"/><path class="st1" d="M232.8 0s29.7 22.2 37.2 28.5c30.3 1.4 73.2 10.9 91.7 14.1 2.4.1 48.2 7.1 71.7 10.8 6.8 1.1 13.3 3.6 19.1 7.3l22.7 14.6v10.1s0 57.6-14.3 91.5c-11.8 23.9-83.7 53.6-125.1 63.1-2.8.4-123.5 26.6-201.4.5-7.4-6.6-18.7-50.7-39.9-75M0 30.2l9.2.8S6.9 41 5.6 43.9 0 56.6 0 56.6"/><path class="st2" d="m0 66.1 6.6-.7s11.5-33.6 10.8-42.6c-.7-9-3.3-22.8-3.3-22.8M37.2 0l5.9 24.8c73.1-2.5 218.1 2.8 223 3.3C260.8 24 229.7 0 229.7 0"/><path class="st2" d="M52.7 24.6S50.8 39.7 53.8 42c4 4 83-1 134.9 18.9 2.6 1.6 17.6 25.7 17.6 25.7s97.1 3.4 102 3.2 50 0 50 0M19 0s1.3 8 2 26.1c-1.1 7-9.7 32.8-10.7 43.9-2.9 44.9 10.2 82 13.1 106 1 7.2 0 15.9 0 15.9l1.6 15.2v8.2"/><path class="st1" d="M153.7 89.3c-5.2 5.4-5.4 15.4-1.6 25 3.8 9.6 21.6 23.4 26.6 39.3s3 41.3 8.2 49.5c4.8 13 98 5.3 103.4 5.2.4-4.6 1.9-32.8 1.4-35.2-1-.3.4-35.8.9-36.8.3-3.6.4-14.8 2.6-18.8.4-3.4 13.1-27.5 13.1-27.5l-102-3.2-42.5-1.2-10.1 3.7z"/><path class="st2" d="M421 250.9s45.8-36.6 46.5-37.6c0 1.3-4.4 21.9-4.7 23-.2.7-45.8 42.7-45.8 42.7l4-28.1zM225.3 288.6l90.9-7.2c1.2-.1 3.1 1.9 3.1 3l-2.5 31.5c-.3 3.7-4.9 6.9-8.6 7.3l-33.4 4.7-33.2 1.1c-2.8.2-5.5-.5-7.8-2.2l-9.2-6.8c-1.6-1.2-2.6-3.1-2.6-5.2V292c0-1.8 1.4-3.3 3.3-3.4z"/><path class="st1" d="M50.9 236.8h-2.6M0 218.1l21.7 25.4 29.2-2.3M146.5 375z"/></g><path class="st1" d="M194.8 342.3c-2.3 2.6-16.8 15.5-46.8 32.7"/><path class="st1" d="M462.7 172.2c4.8 3.1 12.3 9.7 13.8 11.8 2.3 2.9-1.4 31.6-9.1 49.9-7.2 13.3-32.2 40.2-40.6 47.5-17.4 15.2-62.5 44.2-84.3 52s-92 11-137.3 11.9c-2.2 0-46.8-13.4-48.7-16.3-1.9-2.8-18.4-58.9-19.2-61.5-.8-2.7-1.4-6.8 6-11.5-.2-5-3.4-13.8-3.4-13.8"/><path class="st1" d="M330.8 240.9c0-10.5 6-105.5 7.5-110.3s21.9-49 28.6-52.9 91.7-1.4 98.1-.3 8.4 2.1 10.2 3.2"/><path class="st1" d="M137.4 262.4c16.7 10.6 54.6 14.9 66.4 16.6 8.9 1.3 101.9-2.6 141.7-12.3 83.8-25.1 127.5-56.1 131.1-82.7"/><path class="st2" d="M143.4 256c38.2 8.4 67.9 7.3 78.6 6.6 59.1-3.6 102-10.2 108.8-12.1 38.9-8.7 109.2-39.7 119.9-52.7 6.4-6.5 8.3-16.1 8.2-18.4"/></svg>
