<svg version="1.1" id="Calque_1" xmlns="http://www.w3.org/2000/svg" x="0" y="0" viewBox="0 0 500 375" style="enable-background:new 0 0 500 375" xml:space="preserve"><style>.st2,.st3{fill:none;stroke:#fff;stroke-miterlimit:10}.st3{stroke-width:.5}</style><g id="Calque_2_00000065796814984098362650000009702676069826481852_"><path class="st2" d="M0 197.7c5 5.6 19 33 20.1 51.8 3 7.7 10.3 7.5 14.5 7.7s428.3-8.8 428.3-8.8 5.5.6 8.2-5.6c2.7-6.2 8-29.4 15.3-44.2 4.5-9 13.7-17.7 13.7-17.7M85 71c21.9-12.9 47.7-27.6 56.8-31.7 5-2.3 20.2-6.9 25.2-7.8 10.1-1.8 130.4-7.8 156.9-6.8s26.9 8.5 30 14c3.1 5.4 17.4 55.5 17.4 56.9 8.7 0 128.7-1.4 128.7-1.4M0 105.4s34.8-3.9 38.5-4.9c2-1.4 4.2-2.6 12.8-8.7 1.8-1.3 5.4-3.6 10-6.4"/><path class="st2" d="M371.3 95.9c9 22.3 9.5 120.1.5 154.5M482.5 208.9c2-1.9 9.9-11.4 17.4-14.3M468.1 246.8c-.2 5.5 1.1 17.8 6.9 28.4s13.9 21.1 24.9 26.5M0 300.9c3.9-2.1 24.4-14.5 30.2-43.7M84 114.3l-.3 2.7s-13.3.1-14.7-.9c-1.4-1-4-3-4.7-3.8-.7-1-4.3-6.8-4.9-9.4-.7-2.6 2.1-22.3 5.1-25.7 2.9-3.4 13.9-9.9 14.4-9.9s3.3-.5 3.9 0 4 7.5 4.1 8.6-.1 37-.6 37.7-1.1 1-2.3.7z"/><path class="st3" d="M83.8 114c-2.6-3.8-3.5-8.8-3.7-12.5-.2-3.8-.2-22.1.1-26.2.2-2.3 1.1-7.6 2.4-8M61.9 108.5c1.5 1.8 5.1 3.7 5.5 3.9s15.2 1.8 16.3 1.8M55.7 257.2c-4.3-3.7-7.5-6.2-9.6-17.1-2.1-10.8-12.4-83-8.2-106.7C45 99.5 48.6 97.2 60.7 89.2M85.9 73.6s53.7-31.3 73.1-36.1c14.9-4.3 78.1-6.8 91-7.1 12.9-.3 77-1.5 82.4 0 13.8 4.7 22.3 66.8 25.2 83.9 3.4 39.5 2.7 126.3-7.1 136.4"/><path class="st3" d="M251.4 252.9S247.1 134.2 248 122s1.9-18.8 1.9-18.8l.1-72.9"/><path class="st3" d="M59.2 95.5c-5.1 5.4-8.6 13.8-10.6 27.5 0 0 74.4.1 81.7-2.7 14.4-2.4 30.2-11.9 50.5-15 7.3-2.1 115.4-2.5 127.2-4.3 11.7-1.7 25.1-6.9 26.6-10.8s-3-45-12.6-55.1c-6.2-4.3-139.5 1.6-158.2 5.4-14.3 4.3-20.2 6.6-77.1 37.1M195.5 128.4v15.5l41.5-.4v-15.9z"/><path class="st2" d="M196.7 133.3v5.1s3.5.7 4.5.7 33.9.2 34.4-.7 0-5.5 0-5.5-4.1-1-5-1-30.3-.4-31 0c-.8.4-2.6.9-2.9 1.4z"/></g></svg>