<?xml version="1.0" encoding="utf-8"?>
<!-- Generator: Adobe Illustrator 26.3.1, SVG Export Plug-In . SVG Version: 6.00 Build 0)  -->
<svg version="1.1" id="Calque_1" xmlns="http://www.w3.org/2000/svg" xmlns:xlink="http://www.w3.org/1999/xlink" x="0px" y="0px"
	 viewBox="0 0 500 375" style="enable-background:new 0 0 500 375;" xml:space="preserve">
<style type="text/css">
	.st0{display:none;}
	.st1{fill:none;stroke:#FFFFFF;stroke-miterlimit:10;}
	.st2{fill:none;stroke:#FFFFFF;stroke-width:0.5;stroke-miterlimit:10;}
</style>
<g id="Calque_3" class="st0">
	
		<image style="display:inline;overflow:visible;enable-background:new    ;" width="2048" height="1536" xlink:href="../../fichier source/fichier FAIT/ford focus/ffocus18-43ljK5xC.opengl.png"  transform="matrix(0.2441 0 0 0.2441 0 0)">
	</image>
</g>
<g id="Calque_2_00000002372176803176696570000008302613740603601590_">
	<path class="st1" d="M500,217.4l-28.7,31.7l2.6-13.5c0,0,6.8-7.9,7.5-9s16.2-81.9-6.8-85.5c-23-3.6-63,81.3-79.6,169.3
		c-28.1,41.6-91.2,40.9-115.9,42.1c-18,1.3-101.3-5.5-142.6-16.9c-33-24.3-81.8-45.6-104.6-96.8c1.1-3.9,6.3-8.8,6.5-10.1
		s-2.3-13.6-2.3-13.6s-2.3-3.3-4.2-7.8c-3.7-10.5-4.9-49-5-52.7c0.3-0.8-6.2-6.3-4.2-11.5c2.6-6.5,31.8-34.3,57-45.8
		c26-11.8,103.7-29.8,144.3-30.5c5.9-2.8,44.5-32.1,78.9-45C330.2,11.7,386,1.9,396.6,0"/>
	<path class="st1" d="M414.1,90.3c4.3-0.5,6.6,26-22.9,78.5c-33.5,14.3-51.3,7.4-66.8,8.9c-9.7,0.9-60.2,7-106,7.2
		c-25.5-2.1-54.4-17.2-54.4-23.4C169.4,130.4,406.5,91.2,414.1,90.3z"/>
	<path class="st1" d="M23.1,143.9c7.9,4.3,37.8,14.5,70.9,22.6c11.4,4.2,55.1,31.6,57.2,36.4c2.1,4.8-13.8,40.9-32.9,54.3
		c-5.8,3.4-14.7,1.5-24.8-3.1"/>
	<path class="st2" d="M367.1,207.4c3.4,2.9-31.1,62.4-32.3,73.8c0,3.4-70,1.7-72.3,0c-6.6-3.8,40.8-44.6,58.5-59.5
		C333.7,212.7,360.8,206.9,367.1,207.4z"/>
	<path class="st1" d="M382.5,324.7c7.8,4.2,30,13.6,32.7,14.1c2.8,0.6,11.8,3.4,20.3-7.1s24.8-36.1,30.8-62s14.6-62.4,12.9-82.2
		c-1.7-19.9-4.1-28.9-12.1-34.2c-6.3-3.1-9.5-2.8-9.5-2.8"/>
	<path class="st1" d="M224,66.8c17.8-2.6,210.8-18.1,246.9-15.7"/>
	<path class="st1" d="M500,53.2c-1.7,0-6.3,0-8.5,0c-0.9,0.8-2.1,4.2-1.9,8.9c0.4,0.6,7.7,1.7,10.3,1.4"/>
	<path class="st2" d="M34.8,202.5c0,0,6.7,10.4,22.5,20s33.9,18.1,34.2,18.1s4.6,32,4.2,33.8s-33.3-19.9-40.8-27.2
		c-6.1-5.9-13.4-12.9-15.8-18.7C37.7,223.6,34.8,202.5,34.8,202.5z"/>
	<path class="st2" d="M56.5,111.4c15.2-4.1,80.4,3.9,115.4,10.2c17.6,3.7,40.5,12.7,40.5,12.7"/>
	<path class="st2" d="M414.1,90.2c31-7.9,50.2-5,54.2-11.6c0.5-6.6-10.6-27.7-10.6-27.7"/>
	<path class="st2" d="M230.3,65.7c7.3-5,47.2-32.6,70.3-40.8S383.8,2,411.1,0"/>
	<path class="st2" d="M463.6,50.5c7.1-20.4,15.8-43.1,17.1-50.5"/>
	<path class="st2" d="M498.1,63.7c0.2,1.2,0.4,1.9,0.4,1.9h1.5"/>
	<path class="st2" d="M500,2c-2.3,0-4.3,2.9-9.2,29.4c1.2,4,3.4,13.5,5.1,21.5"/>
</g>
</svg>
