<svg version="1.1" id="Calque_1" xmlns="http://www.w3.org/2000/svg" x="0" y="0" viewBox="0 0 500 375" style="enable-background:new 0 0 500 375" xml:space="preserve"><style>.st1,.st2{fill:none;stroke:#fff;stroke-miterlimit:10}.st2{stroke-width:.5}</style><g id="Calque_2_00000139283905496141686390000016257710530403880593_"><path class="st1" d="M-.7 217.4 28 249.2l-2.6-13.5s-6.8-7.9-7.5-9c-.7-1.1-16.2-81.9 6.8-85.5 23-3.6 63 81.3 79.6 169.3 28.1 41.6 91.2 40.9 115.9 42.1 18 1.3 101.3-5.5 142.6-16.9 33-24.3 81.8-45.6 104.6-96.8-1.1-3.9-6.3-8.8-6.5-10.1-.1-1.3 2.3-13.6 2.3-13.6s2.3-3.3 4.2-7.8c3.7-10.5 4.9-49 5-52.7-.3-.8 6.2-6.3 4.2-11.5-2.6-6.5-31.8-34.3-57-45.8-26-11.9-103.6-29.9-144.3-30.6-5.9-2.8-44.5-32.1-78.9-45C169.1 11.7 113.3 1.9 102.7 0"/><path class="st1" d="M85.2 90.3c-4.3-.5-6.6 26 22.9 78.5 33.5 14.3 51.3 7.4 66.8 8.9 9.7.9 60.2 7 106 7.2 25.5-2.1 54.4-17.2 54.4-23.4-5.4-31.1-242.5-70.3-250.1-71.2zM476.2 143.9c-7.9 4.3-37.8 14.5-70.9 22.6-11.4 4.2-55.1 31.6-57.2 36.4-2.1 4.8 13.8 40.9 32.9 54.3 5.8 3.4 14.7 1.5 24.8-3.1"/><path class="st2" d="M132.2 207.4c-3.4 2.9 31.1 62.4 32.3 73.8 0 3.4 70 1.7 72.3 0 6.6-3.8-40.8-44.6-58.5-59.5-12.7-9-39.8-14.8-46.1-14.3z"/><path class="st1" d="M116.8 324.7c-7.8 4.2-30 13.6-32.7 14.1-2.8.6-11.8 3.4-20.3-7.1s-24.8-36-30.8-62-14.6-62.4-13-82.2c1.7-19.9 4.1-28.9 12.1-34.2 6.3-3.1 9.5-2.8 9.5-2.8M275.3 66.8C257.5 64.2 64.5 48.6 28.5 51.1M-.7 53.2h8.5c.9.8 2.1 4.2 1.9 8.9-.4.6-7.7 1.7-10.4 1.5"/><path class="st2" d="M464.6 202.5s-6.7 10.4-22.5 20-33.9 18.1-34.2 18.1c-.3 0-4.6 32-4.2 33.8s33.3-19.9 40.8-27.2c6.1-5.9 13.4-12.9 15.8-18.7 1.3-4.9 4.3-26 4.3-26zM442.8 111.4c-15.2-4.1-80.4 3.9-115.4 10.2-17.6 3.7-40.5 12.7-40.5 12.7M85.2 90.2c-31-7.9-50.2-5-54.2-11.6-.5-6.6 10.6-27.7 10.6-27.7M269 65.7c-7.3-5-47.2-32.6-70.3-40.8S115.5 2 88.2 0M35.7 50.5C28.6 30.1 19.9 7.4 18.6 0M1.2 63.7C1 64.9.8 65.6.8 65.6H-.7M-.7 2c2.3 0 4.3 2.9 9.2 29.4-1.2 4-3.4 13.5-5.1 21.5"/></g></svg>
