<svg version="1.1" id="Layer_1" xmlns="http://www.w3.org/2000/svg" x="0" y="0" viewBox="0 0 500 375" style="enable-background:new 0 0 500 375" xml:space="preserve"><style>.st0{fill:none;stroke:#fff;stroke-width:1.0006}</style><path id="Layer" class="st0" d="M245.8 53.6c76.1 0 153.2 60.8 157.1 156.1C406.6 294.2 344 360 259.4 360S96.2 292.3 92.8 206.8c-3.1-78.1 68.6-153.2 153-153.2z"/><path class="st0" d="M400.9 243.3c9.1 5 24.2 41.6 28.1 53.8 9.5 2.2 36.1 3.6 71-4.1M0 264.4l18.8 2 57.2 6.2 1.3.1s-9.2-10.4 18.1-44.4l.1-.1"/><path class="st0" d="M76 272.8c-10.8-18.3-19.4-70.3-5.1-115.7S136 63.7 193.6 53.8s135.9 2.7 187.1 56.9c51.2 54.1 56 129.7 48.3 186.6M399.7 0c14 17.8 36.2 43 68.1 71.8 12.9 2.8 23.6 4.3 32.2 4.9M18.8 266.3C13 224.3 20.5 84.5 31.1 0"/></svg>
