<svg version="1.2" xmlns="http://www.w3.org/2000/svg" x="0" y="0" viewBox="0 0 500 375"><g id="Calque_2_00000135669286963476458510000001165423411621628045_"><path id="Layer" fill = "none" stroke="#fff" d="M477.7 6.9S438.9 0 431.6 0"/><path fill = "none" stroke="#fff" d="M90.9 274h-1.8s-1.3-2-12 27c-.3 2.4 3.6 2.5 2.5 4.3-34.7-2.1-67.3-26.3-72.9-46.9-4.5-17.2-4.9-21.9-3.8-27.2.9-4.7 2.3-8.5 3.4-11.3 0-2.9-7.8-10.5-6-18.5 2-7.7 21.3-21.4 25.1-30.7-.1-16.5-1.3-30.5-2.5-38.8-.4-2-2.4-4.2-2.8-6.1-.3-1-.7-14.5 0-18.5 2.3-2.5 7.1-2.2 12.3-6.5 5.1-4.3 50.1-51 63.1-60.2-1.9-3.4-11.1-13.7-9.3-19.8 2.2-6.3 28-6.3 42.6-7.8 24.6-1.9 137-11.4 148.7-13M477.7 289.8l-200.4 15.4s2.5-4.3.9-7.7c-1.6-3.4-9.7-16.3-12.8-17.8"/><path fill = "none" stroke="#fff" d="M77.2 301.8c-10.1-52.7 20-87.1 29.4-95.8 8.7-7.2 35.7-26.8 78.6-26 27.8.7 70.6 15 86.2 53.3 10.6 25.3 7.7 58.3 7.3 66.2"/><path fill = "none" stroke="#fff" d="M181.1 187.5c56.2 1.6 85.1 48.9 85 91.3 0 41.1-46 81.1-90.2 81C126 361.9 90 324.3 90 283.2c1.7-45.8 30.9-95.7 91.1-95.7zM173.1 9.3C161 20 84.7 66.7 69.9 75.7c-9.4 4.1-19.9 9.2-23.4 11M33.5 99.6c4.1-2.3 12.7-5.6 16.7-6.1s50.2-2.1 54.6 0c4.4 2.1 15.7 8.8 15.9 11.8.2 3.1-50.3 34.9-62.6 37.5-12.3 2.6-26.8.2-30.3-1.7-2.8-3.1-4-7-4.8-8.3M294 142l-29.9.4s-17-.3-21.5-2.5c-4.6-2.2-2.5-8.6-1-9.4 1.5-.8 21.4-1.7 21.4-1.7l29.8.5s15 .7 16.2 2.8c1.2 2.1 2 4.7.4 6.7-1.7 2.1-15.4 3.2-15.4 3.2z"/><path fill = "none" stroke="#fff" stroke-width = ".5" d="M329.5 301.2c-58.9-109.5-125.7-155-128.8-222.3-8.2-12.2-41.7-35.7-15.7-47.6C277.5-2.2 408.9 5.6 419.6 6.9c10.7 1.3 51.1 5 58.1 7.5"/><path fill = "none" stroke="#fff" stroke-width = ".5" d="M477.7 106.5c-8.9.6-233.2-19.8-277.1-27.6"/><path fill = "none" stroke="#fff" stroke-width = ".5" d="M419.6 6.9c13.8 29.1 31.2 85.3 36.6 98.2 22.9 32.1 12.9 69.4 9.5 143.6-11.3 33.8-22.6 43.8-22.6 43.8M33.7 266.7c-1-1.6-13.6-28.5-14-31.8-.4-3.3 1.8-4 1.8-4s12.8 28.9 18.1 40.8c-.8-.4-5-3.5-5.9-5zM139.5 32.3C112 27.2 92.7 15.7 85.9 21.8"/></g></svg>