<svg version="1.2" xmlns="http://www.w3.org/2000/svg" width="500" height="375"><style>.s0,.s1{fill:none;stroke:#fff}.s1{stroke-width:.5}</style><g id="Calque_2_00000002372176803176696570000008302613740603601590_"><path id="Layer" class="s0" d="M125.7 0c10.6 1.9 66.4 11.7 93.7 21.8 34.4 12.9 73 42.2 78.9 45 40.6.7 118.3 18.7 144.3 30.5 25.2 11.5 54.4 39.3 57 45.8 2 5.2-4.5 10.7-4.2 11.5-.1 3.7-1.3 42.2-5 52.7-1.9 4.5-4.2 7.8-4.2 7.8s-2.5 12.3-2.3 13.6c.2 1.3 5.4 6.2 6.5 10.1-22.8 51.2-71.6 72.5-104.6 96.8-41.3 11.4-124.6 18.2-142.6 16.9-24.7-1.2-87.8-.5-115.9-42.1-16.6-88-56.6-172.9-79.6-169.3-23 3.6-7.5 84.4-6.8 85.5.7 1.1 7.5 9 7.5 9l2.6 13.5-28.7-31.7"/><path class="s0" d="M358.3 161.5c0 6.2-28.9 21.3-54.4 23.4-45.8-.2-96.3-6.3-106-7.2-15.5-1.5-33.3 5.4-66.8-8.9-29.5-52.5-27.2-79-22.9-78.5 7.6.9 244.7 40.1 250.1 71.2zM428.8 254.1c-10.1 4.6-19 6.5-24.8 3.1-19.1-13.4-35-49.5-32.9-54.3 2.1-4.8 45.8-32.2 57.2-36.4 33.1-8.1 63-18.3 70.9-22.6"/><path class="s1" d="M201.3 221.7c17.7 14.9 65.1 55.7 58.5 59.5-2.3 1.7-72.3 3.4-72.3 0-1.2-11.4-35.7-70.9-32.3-73.8 6.3-.5 33.4 5.3 46.1 14.3z"/><path class="s0" d="M139.8 324.7c-7.8 4.2-30 13.6-32.7 14.1-2.8.6-11.8 3.4-20.3-7.1S62 295.6 56 269.7s-14.6-62.4-12.9-82.2c1.7-19.9 4.1-28.9 12.1-34.2 6.3-3.1 9.5-2.8 9.5-2.8M298.3 66.8C280.5 64.2 87.5 48.7 51.4 51.1M22.3 53.2h8.5c.9.8 2.1 4.2 1.9 8.9-.4.6-7.7 1.7-10.3 1.4"/><path class="s1" d="M483.2 228.5c-2.4 5.8-9.7 12.8-15.8 18.7-7.5 7.3-40.4 29-40.8 27.2-.4-1.8 3.9-33.8 4.2-33.8.3 0 18.4-8.5 34.2-18.1 15.8-9.6 22.5-20 22.5-20s-2.9 21.1-4.3 26zM309.9 134.3s22.9-9 40.5-12.7c35-6.3 100.2-14.3 115.4-10.2M108.2 90.2c-31-7.9-50.2-5-54.2-11.6-.5-6.6 10.6-27.7 10.6-27.7M111.2 0c27.3 2 87.4 16.7 110.5 24.9 23.1 8.2 63 35.8 70.3 40.8M58.7 50.5C51.6 30.1 42.9 7.4 41.6 0M24.2 63.7c-.2 1.2-.4 1.9-.4 1.9h-1.5M22.3 2c2.3 0 4.3 2.9 9.2 29.4-1.2 4-3.4 13.5-5.1 21.5"/></g></svg>
