<svg width="1260" height="1118" fill="none" xmlns="http://www.w3.org/2000/svg"><g clip-path="url(#a)" stroke="#fff" stroke-width="1.001"><path d="M-218 692.571c71.318 36.816 155.48 62.618 241.67 67.653 6.422-9.755-15.886-10.699-15.21-23.285v-.944c51.038-132.16 82.81-156.39 82.81-156.39M1150.9 618.624c18.59 8.496 63.54 78.667 73.35 97.547 1.69 3.461 2.7 6.922 3.04 10.698 1.69 16.363-8.45 32.411-8.45 32.411L1472 741.029"/><path d="M9.136 740.4C-52.042 443.984 128.45 248.891 186.924 201.376c51.376-41.851 198.744-155.13 475.228-155.13 197.73 0 425.538 93.77 520.858 308.687 63.21 142.544 46.64 328.198 44.28 372.566"/><path d="M1150.9 618.624c-12.17 256.768-253.838 448.086-545.194 448.086C304.21 1078.67 86.538 866.896 86.538 635.616 96.678 377.904 279.198 97.221 637.14 97.221c317.72 0 527.62 227.19 513.76 521.403Z"/></g><defs><clipPath id="a"><path fill="#fff" d="M-218-62h1690v1180H-218z"/></clipPath></defs></svg>
