<svg version="1.1" id="Calque_1" xmlns="http://www.w3.org/2000/svg" x="0" y="0" viewBox="0 0 500 375" style="enable-background:new 0 0 500 375" xml:space="preserve"><style>.st1,.st2{fill:none;stroke:#fff;stroke-miterlimit:10}.st2{stroke-width:.5}</style><g id="Calque_2_00000020399885317422852010000003295147539601371302_"><path class="st1" d="M500 82.2c-1.7-4-19.5-37.1-42.5-55.1S414.9 4.4 381.4 0M139 0c-16 2.9-43.6 17.8-42.6 26.3s2.8 9.7 2.8 9.7 2.6 7.1.8 10.9c-1.8 3.8-55 54.6-57.8 60.1-2.8 5.4 2.2 12.7 2.8 15.1s5.2 29.2 5.2 29.2-20 25.8-20 32.1 4.8 14.7 4.8 17.1c0 2.4-3.6 11.5-3 15.3.6 3.8 3.6 21.4 4.2 23.8.6 2.4 15.3 31.1 44.2 50.4 28.8 19.4 72.2 44.1 125.1 53.7 34.1 6.2 48.6 7.1 55.2 7.1 6.7 0 38.2-8.5 39.8-10.1 1.1-7.5 9.9-50.3 26.2-81.1 19.1-40.5 47.7-79 67.4-75.7 22.4 4.4 21.2 30.3 18.8 45.7-2.4 15.3-7.1 27.7-7.9 33.4-.4 2-3 12.8-3 12.8l97.9-78.7"/><path class="st1" d="M294 343.2c8.7 5.5 31.7 20.5 37.7 22.7 6 2.3 18.6-.3 24.5-5.4 5.2-4.5 21.3-18.1 32.1-43.6 8.5-20.1 10.7-28.2 14.7-45.1s4.7-37.7.8-51.9c-3.6-13.4-6.7-14.6-12.2-18.7-5.5-4-16.8-6.9-20.4-7.2M340.7 112c.4 3.1-32.7 45.2-46.6 50.6-13.9 5.5-66.7-1.1-70.5-1.9-3.8-.8-25.7-13.3-27.9-13.5s-58.2-7.2-58.2-7.2-13.1-18.8-11.2-22.8c1.9-4 11.4-8.9 14.3-9.5 10.1-3 61.4-9.9 85.7-11.4 23.7-1.4 63.8-3.9 82.1.2 18.4 4.1 28.7 11.4 32.3 15.5z"/><path class="st2" d="M261.1 323.4c-10.1 0-10.9.3-18.3-2.8-3.9-2-26.3-29.4-28.1-34.5 2.7-3 21.2-10.1 27.9-8.1 4.3 4.9 18.5 45.4 18.5 45.4z"/><path class="st1" d="M489.5 122.1c.9 0 3.2.5 4.1 1.5s1.1 2.2.7 2.8c-.5.6-2.6 2.8-3.4 3.1-.8.4-4.7 1.2-5.4 1.4-.6.2-2.3.7-3.1-.2-.8-.9-2.1-5-1.4-6.2s2.8-1.6 3.4-1.6c.7-.1 5.1-.8 5.1-.8zM426.5 126.5c1.5-.1 3.8.5 5.6 1.1.3 0 2 .2 2.5 1.3s.9 2.4 0 3.6c-.9 1.2-3.1 3.7-6.1 4.5-3.1.9-10 2.8-11 2.7-1 0-7.3.3-8.2-.3-.9-.7-3.5-6.3-2.4-8.4 1.1-2 6.9-3.4 8.9-3.5s10.7-1 10.7-1zM316.2 0c4.5 10.2-44.6 64.8-68.3 70.3-5 15.2-36.6 38.4-47.7 43.9-4.4 6.9-7 30.7-4.5 33-1.9 6.6-3.9 42-11.6 52.3-7.8 9.3-17 16-21.3 19-23.9 4.2-94.6-22.4-111.1-43.1-2.6-4.9-4.2-12.7-3.5-16.8l2-7.3"/><path class="st2" d="M247.5 70.2c-3.7 1-101.3 21.2-113.6 22.4s-70.4 1.4-73.4-.5c-.4-3.2 37.6-41.4 41.2-45.8 3.7-4.4 13.3-14.2 18.9-16.6s29.9-12.6 46.4-16.1S212.6 3 243.8 8.1c11.5 8.1 9.5 19.1 9.3 22.8-1.1 22-5.6 39.3-5.6 39.3zM137.3 140.3c-2.9-2.2-78.2-7.7-92.2-17.9M113.4 143.6c0 .4-1.6 31.2-1.6 31.2l-53.3-18.7 1.1-24.9 53.8 12.4zM500 84.4C495.9 77 478.8 50 469.2 41c-9.3-8.6-12.3-12.6-26.9-19.8s-40.1-10.7-51.1-10.7-49.1 5-55.4 19.1c-4.2 10.5 17.9 35.6 25.7 44.9s3.7 11.6 10.4 19.8 11.7 8.6 16.3 15.2c22.5 72.9 35.1 41 30.9 152.6"/><path class="st2" d="M500 99.7c-5.6-.3-32.3-3.5-34.6-3.9-36.2-5.8-99-19.4-104.6-22.2"/><path class="st2" d="M436.1 18.7c8.6 19.6 22.9 47.1 28.4 77 1.7 5.1 2.4 8.7 9.2 18.9 5.7 9.6 6.2 42.6-9.1 111M163 218.7c-7.9 4.9-16.5 9.1-28.6 9.2-12.1.2-82.7-26.5-96.7-50.7.6-7.6 10.5-18.6 10.5-18.6"/></g></svg>
