<svg version="1.1" id="Layer_2_00000095312902241263219350000015158844190143019660_" xmlns="http://www.w3.org/2000/svg" x="0" y="0" viewBox="0 0 2048 1536" style="enable-background:new 0 0 2048 1536" xml:space="preserve"><style>.st0,.st3{fill:none;stroke:#fff;stroke-width:2.4266;stroke-linecap:round;stroke-linejoin:round;stroke-miterlimit:10}.st3{stroke-width:4.6183}</style><path class="st0" d="M1024 1201.9c-203.1 0-631.3-21.6-684.8-108.6-23.9-72.7-76.6-196.2-92.6-223.1-12.7-3.5-22.8-33-20.9-47.4-2.3-3-21.4-41.1-25.1-57.6 7.9-27 38-77.3 42.2-90.3s24.4-78.3 42.4-118.4"/><path class="st0" d="M113 844c10.6 16.9 49.7 38.8 72.3 40.3s39.2-10 61.2-14.2c233.4 44.4 579.9 60.4 777.5 60.4M339.2 1093.2c16.9 44 30.2 95.6 85.4 118.2 83.3 34.1 418.6 63.5 599.4 63.5"/><ellipse cx="1024" cy="789.4" rx="83.1" ry="30.1" style="fill:none;stroke:#fff;stroke-width:2.3092;stroke-linecap:round;stroke-linejoin:round;stroke-miterlimit:10"/><path d="M1017.3 626.1c40.5-3.6 288.2 4.6 341 19.5 21.3 6 25.3 10.7 24.9 19.3 38.7-2.2 122.7 2 135.1 3.4 7.4.8 8.9 14-1.5 12.9-33.9-3.8-95.6-6.2-139-4.9-3.1 4.4-56.9 2.9-120.9 2.5-89.1-.6-198.7-1.6-225.3-3-2.7 5.3-18.9 7-24.8-2.3-6-9.3-6-27-4.9-33.3 1-6.3 4.3-13.1 15.4-14.1z" style="fill:none;stroke:#fff;stroke-width:2.6996;stroke-linecap:round;stroke-linejoin:round;stroke-miterlimit:10"/><path class="st3" d="M1024 50.9c-4.3 0-6 3.5-6.9 10.5s-1.4 25.8-6.7 29.3c-5.4 3.5-15.8 7.9-17 12.1s-1.2 10.9-1.2 10.9"/><path class="st3" d="M1015 79.9c-103.5-.5-319.1 10.7-409.3 31.3-46.9 10.7-104.4 52.7-154.2 90.8-45.9 35.1-85.9 65.8-89 88.6-31.6 66.7-76.9 188.7-98 269.2C209 601.9 113.7 681.7 86.3 736.4c3.1 43 30 119.5 41.7 148.2-11.7 64.9-19.9 178.6-15.2 232.6 2.3 27 20.6 47.7 37.5 78.2s34.5 66.6 57.1 99.3c-1.4 12.5 2.9 32.2 12.2 47.4 8 29.7 25.5 60.1 48.1 80.6 38.1 34.5 114 87.4 267.6 113.5"/><path class="st3" d="M239 1387.1c19.8 20.3 41.4 36.2 59.3 32 19.6-4.7 47.4-13.6 80.3-13.6 35.7 0 119.6 17.3 245.8 29.6 128.3 12.5 280.6 20.6 399.6 20.6M1024 224.6c-276.7 0-633.1 12.7-661.5 66"/><path class="st3" d="M1024 253.5c-25.8 0-96.4 1.5-150.9 2.4-28.6.4-51.7-2.8-58.8-7.6-124.6 3.1-281.2 25-334.9 38.2-53.7 13.1-162.3 178.6-194.4 270 49.8 66.7 190.6 141.5 298.5 159.4 113.8 18.9 325 18.6 440.4 18.6"/><path class="st0" d="M227.1 589.2c-8.9 15.2-25.6 53.5 17.1 81 57.3 37 190.6 86.3 227.2 121.9 23.5 22.8 22.1 39.9 14.1 60.1-8 20.2-17.2 35.8-26.2 48.4M1024 1061.2H704.2c-9.4 0-17.1-7.4-17.5-16.8l-4.3-95.6c-.4-10 7.5-18.3 17.5-18.3H1024M1024 1201.9c203.1 0 631.3-21.6 684.8-108.6 23.9-72.7 76.6-196.2 92.6-223.1 12.7-3.5 22.8-33 20.9-47.4 2.3-3 21.4-41.1 25.1-57.6-7.9-27-38-77.3-42.2-90.3s-24.4-78.3-42.4-118.4"/><path class="st0" d="M1935 844c-10.6 16.9-49.7 38.8-72.3 40.3-22.6 1.5-39.2-10-61.2-14.2-233.4 44.4-579.9 60.4-777.5 60.4M1708.8 1093.2c-16.9 44-30.2 95.6-85.4 118.2-83.3 34.1-418.6 63.5-599.4 63.5"/><path class="st3" d="M1024 50.9c4.3 0 6 3.5 6.9 10.5s1.4 25.8 6.7 29.3 15.8 7.9 17 12.1 1.2 10.9 1.2 10.9"/><path class="st3" d="M1033 79.9c103.5-.5 319.1 10.7 409.3 31.3 46.9 10.7 104.4 52.7 154.2 90.8 45.9 35.1 85.9 65.8 89 88.6 31.6 66.7 76.9 188.7 98 269.2 55.5 42.2 150.8 121.9 178.2 176.6-3.1 43-30 119.5-41.7 148.2 11.7 64.9 19.9 178.6 15.2 232.6-2.3 27-20.6 47.7-37.5 78.2s-34.5 66.6-57.1 99.3c1.4 12.5-2.9 32.2-12.2 47.4-8 29.7-25.5 60.1-48.1 80.6-38.1 34.5-114 87.4-267.6 113.5"/><path class="st3" d="M1809 1387.1c-19.8 20.3-41.4 36.2-59.3 32-19.6-4.7-47.4-13.6-80.3-13.6-35.7 0-119.6 17.3-245.8 29.6-128.3 12.5-280.6 20.6-399.6 20.6M1024 224.6c276.7 0 633.1 12.7 661.5 66"/><path class="st3" d="M1024 253.5c25.8 0 96.4 1.5 150.9 2.4 28.6.4 51.7-2.8 58.8-7.6 124.6 3.1 281.2 25 334.9 38.2 53.7 13.1 162.3 178.6 194.4 270-49.8 66.7-190.6 141.5-298.5 159.4-113.8 18.9-325 18.6-440.4 18.6"/><path class="st0" d="M1820.9 589.2c8.9 15.2 25.6 53.5-17.1 81-57.3 37-190.6 86.3-227.2 121.9-23.5 22.8-22.1 39.9-14.1 60.1 8 20.2 17.2 35.8 26.2 48.4M1024 1061.2h319.8c9.4 0 17.1-7.4 17.5-16.8l4.3-95.6c.4-10-7.5-18.3-17.5-18.3H1024"/></svg>