<svg version="1.2" xmlns="http://www.w3.org/2000/svg" width="500" height="375"><style>.s0,.s1{fill:none;stroke:#fff}.s1{stroke-width:.5}</style><g id="Calque_2_00000176008519924175901080000003144327100949702079_"><path id="Layer" class="s0" d="M314.3 277.6s1.5 0 1.9-.1c1.6-.4 120-88.2 125.5-93.1 1.1-2.5-1.6-1.9 7.4-11.2 7.8-26.3 18.4-44.7 23.8-47.9 3.8-2.2 4.3 1.5 4.2 5.1-.3 8.7-3.8 20.3-6.7 28"/><path class="s0" d="M467.4 100.6c4 1.6 7.3 2.7 8.3 3.1 3.4 1 3.2 12.7 3.1 15.5.8 5.7 1.8 13.5-8.3 38.8M192.8 41.1l.2-.1c15.3-2.1 29.5-3.9 38.9-4.2 24.6-1.3 71.1-.1 84.4.4 13.1.5 49.5 3.3 64.7 6.3 16.7 3.6 24.6 7.4 34.9 16.1 10.3 8.7 20.2 19.4 28.7 30.1M315.4 275.7c1.9-5.7 8.7-22 7.4-37.6-2.2-9.3-7.3-15-15.3-16.6-17.8-1.5-45.5 20.4-57.1 38.5-11.7 18-27.9 45.3-32.7 80-23.3 13.4-61.8 5.9-72.3 3.9-45.6-10.3-57-20.3-76-36.3-20.2-17.1-36.8-43.1-40.7-56.2-.8-3.2-.7-3.7-1.1-5.1-1-3.1-3.8-6.3-4.2-10.9-.4-4.6-1.1-11.2-.5-16.1.6-4.8-5.1-8.5-4.6-17.3.4-8.8 12.5-28.3 13.9-29.6 1.4-1.3-11.5-22.3-11.2-27.2.3-4.9 2.9-14 5.4-16.5 2.5-2.5 8.5-4.8 9.9-5.5 1.4-.7 26.3-33.2 27.6-34.7 1.4-1.4 4.2-8.1 4.5-9.6.6-3.1-1.1-7.9-1.9-8.9-.8-.9-3.6-.8-3.5-2.3.1-1.5-.1-3 1.3-3.6 1.4-.6 58.7-13.2 67.9-14.3 4.7-.6 23.9-3.8 44.9-6.9"/><path class="s0" d="M468.4 96.9c-.5 2-1.1 4.1-1.7 4.9-.6.8-2.3 2.7-4.3 3.1-2 .4-18.3.3-20-.3-1-.4-1.9-.5-1.9-.5l-1.2-5.2 2.2-1.3.7.2s1.2-8.4 4.8-10.2c1.8-.9 4-1.2 7.7 0s12.4 5.5 13.2 6.5c.8.9.7 2 .5 2.8z"/><path class="s1" d="M442.3 98.2c-.2 1.5-.8 4.9.3 6.3M447.8 87.3c4-.4 18.2 6.5 18.8 8.4.6 1.9-2.2 7.6-4.3 9"/><path class="s0" d="M470.5 127.6c2.2 1.4 3.9 3.1 3.8 9.6-.1 6.5-2.8 20.1-7.5 31.1-3.5 8.3-6.9 17.4-15.6 22.5-3.7.8-12.9-2.6-13.9-3M290.9 225.1c2.7 1.4 9.5 3.5 12.4 5.9 2.9 2.4 9.8 5.9 12 15.4 2.2 9.5 1.3 21.5-.8 32.9-1.2 3.8-8.5 34.1-34.5 57.9-11.9 9.6-22.9 15.9-34.4 13.7-9.3-2.4-26.7-18.8-26.7-18.8M36.3 123c-2.1 2.2-14.4 18-14.2 26.8M82 188c.3-2 5.4-5.8 9.1-6.5 3.7-.7 52-3.3 62.7-2.9 10.7.4 63.6-6.9 68.3-6.4 4.7.5 18 5.9 21.8 11.1-2.6 10.3-38.8 45.1-41.5 46.7-2.7 1.6-6 1.8-16.3 2.7-10.3.9-31.6-3.2-34.9-4.3-3.1-1-19.4-10.9-19.4-10.9l-39.9-12.8C90 203 82.5 190.5 82 188zM77.4 198.9l.2 21.8-39.3-33.9-.4-11.9.1-.3M418.3 135.3c.2 0 2.6.9 2.1 3.4s-14.5 8.8-15.8 8.2c-1.3-.6-.9-4.1-.7-5 .1-.9 4.8-3.2 4.8-3.2l6.8-2.8c.6-.2 2.6-.5 2.8-.6zM340.8 165.6c1.3.6 1.9 3 1.9 4.4 0 1.4-7.1 5.4-7.1 5.4s-11.5 5.3-12.7 5.8c-.8.4-8.6 2.5-10.1 2.6-1.5-.6-1.7-4.2-1.3-5.5.2-.7 1.6-2.1 2.5-2.6.6-.3 7.6-3.7 7.6-3.7s12.6-5 12.7-5c1.6-.7 5.5-1.7 6.5-1.4zM62.9 68.2c10-5.1 91.2 17.6 96.8 19.1 9.2 2.4 46 13.4 62.5 16.3"/><path class="s1" d="M196.7 45.6s-13.7 2.6-14.4 2.6c-.7 0-7-.4-7-.4l-.2-2.5s1.9-1.4 2-2.3c0-.9-.9-7.1-.9-7.1s6.3-.4 8.1-.2c1.8.2 7.6 4.4 8.4 5.3.8.9 3 2.2 3.5 2.4.4.3.5 2.2.5 2.2zM221.9 104c-5.7 9.7-33.3 45.5-49.7 50.8-16.4 5.3-68.5 11.2-80.8 9.5-12.3-1.7-55.2-19.6-57.1-32 .7-7.3 5.4-13.3 5.4-13.3"/><path class="s1" d="M167.1 89.3c5 2.1 10.4 8 11.5 15.5 1.1 7.5-5 45.2-6.3 50-1.3 4.8-9.4 19.1-17.6 23.9-6.9 6.5-21.7 16.9-22.3 19.3-.8 3.6-1.4 15.6-1.1 19.3.3 3.7 0 23.8-2.9 30.1-2.9 6.3-9.9 11.9-11.5 12.3-1.6.4-7 .5-12.7-2.2-5.7-2.8-46.1-21.9-60.4-44.8-14.3-22.9-13-34.2-13-34.2s2.9-3.3 1.6-6.8"/><path class="s1" d="M91.8 204.9C59.6 191.8 41.1 180 30 166.1M451.8 105.1c1 1.4 2.6 2.9 5.5 6.1 6.5 18.5-12.4 63.2-12.8 63.9-.4.7-4.3 6.5-6.3 11.8M337 262.3c-7.6-48.3-29.3-59-44.3-95.6-16.6-18.9-15.8-25.8-16.4-26.9-.6-1.1-17.3-16.4-23.7-25.8-6.4-9.4 0-15.5 8.1-23.7 52-38.5 106.5-40.9 116.9-40.7 9.7.2 27.1 5 40.5 15.5 13.4 10.5 19.6 20.2 25.2 27.1"/><path class="s1" d="M447.7 105.1c-5.4 1.5-53.1 16-57.3 17-4.2 1-30.4 8.2-36.9 8.9-6.5.7-70.3 9.3-77.3 8.8"/><path class="s1" d="M366.2 50c15.4 31.5 21.8 68 23.5 72.2 1.5 1.9 2.3 6.2 6.1 15 7.2 21-6 49.6-6.8 52.4-.8 2.8 1.7 15.5 2 17.9-.3 1.7-6.3 14.8-7.8 20.9M173.4 330.2c-10.1-7.6-21.8-18.6-21.3-20.4.4-1.4 12.3-5.5 14.6-4.8 2.3.7 19.3 27.2 19.3 27.2-1.7.2-7.6-.4-12.6-2z"/></g></svg>
