<svg version="1.2" xmlns="http://www.w3.org/2000/svg" x="0" y="0" viewBox="0 0 500 375"><g id="Calque_2_00000014602230682614385790000010915680884217878412_"><path id="Layer" fill = "none" stroke="#fff" d="M20.2 131.7c-4.5-12.2-3.9-42.1-2.5-45.1 3.4-3.4 6.9-4.5 11.3-8.6 1-2 4.9-27.3 14.8-30.9 15.1-8.7 84.6-13.5 107.9-13.7 22.3-.2 73.4 1.3 102.6 14 27.9 12.6 56.8 38 74.5 51 21 5.9 65.2 22.4 82.6 33.2 3.9 2.4 24.3 10.1 37.3 22.2 8.4 7.8 22.6 22.9 32.9 48.7-.7 10.4-8.1 38.3-17.1 61.4-9.1 23.2-42.2 73.2-89.6 80.9-42.6 6.4-79.9 9.8-116.2-16.1-2.4-6.4-1.3-36.5-23.8-73.2-14-23.6-42.4-49.1-61.8-43-10.7 2.4-16.1 33.2-5.7 44.7 5.7 9.1 5.4 10.7 5.4 10.7s-113.3-87.1-118-91.8c0 0-18.2-46.4-26.1-53.7-8.6-8.8-9.2-2.7-8 4.3 1.9 8.2 2.7 12.1 3.4 13.9.3 1.9-3.6-8.1-3.9-8.9z"/><path fill = "none" stroke="#fff" d="M472.3 183.6c-3.5-4-43.3-41.8-58.5-50.7M372.4 235.2c6 2.2 29.6 10.7 29.4 15.5-3.4 8.2-21.1 15.4-31.7 17.7-10.9 2.4-47.2-5.5-58.8-5.1-11.6.4-36.5-3.7-43.4-11.2-6.9-7.4-26.1-49.9-21-51.9 2.5 1.1 119.5 32.9 125.5 35zM473.6 236.8c-.6.9-1.4 4.6-5.7 10.2l-1.3 1.3M430.2 292.7c-.8.1-1.1.3-1.7.7-3.9 2.4-7.6 3.7-10.9 3.3-4.2-.3-17.1-20.1-9.4-24.7 19.5-16 62.3-39.4 73.3-69.3M256.2 314.2c-2.8 2.3-11.9 11.5-19.1 13.9-3.8 1.2-12.6 4.4-24.3-3.4-11.7-7.8-27.4-25-36-47.2-4.6-10.9-8.3-24.5-7.2-40.9 1-7.9 3.5-14.1 11.1-18.1 7.7-4.1 10.1-4.3 10.1-4.3M61 181.5c-4.5 2.1-10.4 3.5-14.2 3.4-3.8-.1-8.2-5.2-10.7-9.5-3.5-6.7-9.2-21.6-11.2-29.1-1-3.8-3-13.2-1.6-17.7 1.6-4.5 3.2-5.4 5.2-5.8M79 130.3c1.8.9 5.4 2.4 6.5 3.2 1.1.8 2.9 2.3 3.1 2.9.1.7 0 3.4-.2 3.7-.5.3-3.2-.2-3.5-.3-.9-.6-11.1-5.4-11.8-6.7-.1-1-.1-2.4.3-3.5.5-.7 1.1-.9 2.1-1 .5.3 2.5 1.2 3.5 1.7zM31.6 104.1c.3 0 1.7.6 2.2.9.5.3 3.5 1.7 3.8 1.9 1 .7 1.8 1.3 2.1 1.7.4.5-.4 3.2-.5 3.4-.1.2-1 .1-1.6-.2-.6-.3-4.1-1.8-4.9-2.2-.7-.4-3.1-1.6-3.4-2.6-.3-1-.2-1.6 0-2.1.1-.1 1.7-.9 2.3-.8zM137.2 131.5c-2.3-.3-14 0-23-.5-8.9-.4-14.2-2.6-16.5-3.8-2.2-1.2-3.9-7.7-2.6-10.9 1.3-3.2 19.9-8 23.4-9s5.2-.5 9.3.7c4.1 1.2 8.9 11.1 9.4 12.2.5 1.1-.7 3.2-.7 3.2s-.3-.2 1.5-.3c1.8-.1 2.9.7 6 2.2 3.1 1.5 5.2 6.1 5.6 9.2.2 1.7-9.9-2.7-12.4-3zM16.6 101c.2-1.3 3-9.9 3.6-11.6.6-1.7 2.9-4.9 5.9-9.1M304.3 79.6c2.3.1 4.5.7 5.9 1.2 1.4.5 3.3 2.9 2.7 5.5"/><path fill = "none" stroke="#fff" stroke-width = ".5" d="M460.5 172.2c-15.9 24.2-57.4 47.7-67 53-7.3 4.1-13.5 7.9-20.3 10.2M246.9 199.9c-10.4-5.4-58.6-24.9-62.2-37-3.3-19.8-4.4-25.9 2.6-27.5"/><path fill = "none" stroke="#fff" stroke-width = ".5" d="M254.5 49.2c17.5 7.7 70.9 49 72 51.7-13.5 13.7-121.4 37.6-137.1 34.6-7.2-.7-17.1-1.7-22.1-2.9-15.2-31.7-36.3-62.7-40.5-75.1 32.4-7.5 116.5-10 127.7-8.3zM105.8 36c.2-.9-.3-4.3.1-4.3s2.3-.3 3.2 0c.8.3 2.1 1.8 3.2 3.6M468.2 241.9l-3.5 12.9s-3.9 12-11 19.8c-7.1 7.8-19.1 24.1-23.6 25.4-4.5 1.3 3-13.9 3.2-16.4.2-2.5 18.8-16.3 21-20 2.2-3.7 11.7-15.6 13.9-21.7zM309.9 282.9c4 2 32.9 26 30.3 29.2-4.3 1.4-30.1 2.4-37.4 1.9-1.7-8.7-20.3-37.4-18.2-39 1.2-.8 21.3 5.9 25.3 7.9zM136.5 123.8c-.7 1.5-.3 1.8-3.7 2.2-2.6.3-30.8 1.2-33.8 0-3.1-1.2-2.9-1.3-2.9-1.3"/><path fill = "none" stroke="#fff" stroke-width = ".5" d="M62.1 182.4c-28.4-51.2-38.7-79-34-88.7.7-2 5.8-6.7 8.1-12.9-.2-3.7-1.5-14.2 3.5-21.2 14.6-13.1 31-14.2 44.5-13.6 13.5.6 23.9 7.3 33.2 15.4 9.3 8.1 33.7 56.9 39.4 73.1 4.3 12.6-.6 17.9-3.1 22.6-6.9 12.4-7.7 47.8 4.9 100.1"/><path fill = "none" stroke="#fff" stroke-width = ".5" d="M97.6 113.9C76.4 104.3 61.1 97.7 54 92.8 42.5 85 37.2 80.3 36 78M158.1 140.3c-1.9-.7-9.8-4-20.4-8.6"/><path fill = "none" stroke="#fff" stroke-width = ".5" d="M87.6 202.4c-4.9-8.9-22.3-62.1-17.3-83.2 1.7-2.1 3.3-13 3.4-16.2 0-1.9 3.6-40.5 10.3-57"/></g></svg>