<svg version="1.1" id="Calque_1" xmlns="http://www.w3.org/2000/svg" x="0" y="0" viewBox="0 0 500 375" style="enable-background:new 0 0 500 375" xml:space="preserve"><style>.st1,.st2{fill:none;stroke:#fff;stroke-miterlimit:10}.st2{stroke-width:.5}</style><g id="Calque_2_00000086676367679938876200000005515105321680827799_"><path class="st1" d="M500 250.6c-7.5 5.5-19.4 20.1-34.2 52.8-3.4 3.1-265.8-3.3-357.6-4-7.5-13.9-17-87-108.2-81M500 134c-15.6-6-63.1-11.5-71.5-14.1-6.2-4.6-54.9-34.3-83.6-46.6-34.3-12.8-85.6-17.4-119-17.3C193 56.8 120.6 57 0 74.4M426.4 136.3c-2.5 1.1-5.9 25-5.7 26.7.2 1.7 3 3.6 5.2 3.8s8.6-.5 9.8-1.3 12.9-5.8 13.5-14.9c-3-10.3-8.5-13.9-10.6-14.3s-10.3-.8-12.2 0zM315.9 193.5c1.4 1.6.7 4.3 0 5.1-.7.7-9.1 1.6-12 2.1-3 .5-20.7.2-23.2 0s-15.5-.6-16.4-2.3-1.9-5.4-.5-6.1c1.4-.7 12-1.2 17.3-1.2s20.3.6 22.4.6 11.1.3 12.4 1.8zM106.1 184.5c1.8.7 2.2 3.7.7 5.5s-10.2 1.7-12.4 2c-2.2.2-21.2.6-23 0s-14.4.1-16.1-2.4c-1.7-2.5-2.7-6.2-.4-6.5 2.2-.2 13.6-1.1 16.8-1.1 3.2 0 20 .5 22.3.6 2.1.1 8.7.6 12.1 1.9z"/><path class="st1" d="M500 321.9c-3.9-2.2-6-4-12.9-11.3-7.9-8.2-14.3-15.2-16.1-18.3M101.9 282.8c-2.8 7-10.8 22-16.9 28s-11.5 12.5-31.4 17.6-42.9-5.4-46-7.1-7.5-4.7-7.5-4.7M14.5 218.1c-7.2 3-12.9 6.3-14.5 7.9"/><path class="st2" d="M500 156.1c-5.2-.6-16.8-1.2-21-1.6-22.7-16.9-48.3-33-50.6-34.4M427 136.1c1.7 4.6 4.2 11.5 3.3 16.1-.9 4.6-2.5 13.7-4.1 14.6M422.1 151.3l-3.9-20c-13.2-7.9-79.4-60.2-190.9-56.6S72.7 87 30.3 106.8c-6.2 4.5 7.7 21.3 16.3 30.4 42.4 8.7 169.7 19.1 192.7 18.9 2.8 0 156.1 5.8 181.4 6.8M110.3 61.4c-2.5-2.6-9.7-6.9-11.1-7.3-1.2-.3-8.3-.4-8.7 0-.5.4 1.5 4.6 1.2 5.5s-1.2 1.3-.9 2.5c0 .2.1.9.1.9"/><path class="st2" d="M435.6 135.7c-31.5-21.5-70.5-42-91.4-48.9-36.7-12.1-81.8-18-118.8-17.7-56.1-1-169.9 13-200 32.9-16.1 10.2 8.1 31.7 9.1 39.3 1.3 12.2-6.2 22-5.7 26.8.9 22.8 51.1 68.7 120.4 131.7M441.3 304.2c20.1-30 49.7-98.4 42.4-122.8-3-10-17.9-24-37.4-38.2"/><path class="st2" d="M227.1 69c6 29.8 15.8 105.7 16.5 113 .6 7.3 4.7 101.5 3.5 119.2"/></g></svg>
