<svg version="1.1" id="Calque_1" xmlns="http://www.w3.org/2000/svg" x="0" y="0" viewBox="0 0 500 375" style="enable-background:new 0 0 500 375" xml:space="preserve"><style>.st2,.st3{fill:none;stroke:#fff;stroke-miterlimit:10}.st3{stroke-width:.5}</style><g id="Calque_2_00000135669286963476458510000001165423411621628045_"><path class="st2" d="M0 6.9S38.8 0 46.1 0M386.8 274h1.8s1.3-2 12 27c.3 2.4-3.6 2.5-2.5 4.3 34.7-2.1 67.3-26.3 72.9-46.9 4.5-17.2 4.9-21.9 3.8-27.2-.9-4.7-2.3-8.5-3.4-11.3 0-2.9 7.8-10.5 6-18.5-2-7.7-21.3-21.4-25.1-30.7.1-16.5 1.3-30.5 2.5-38.8.4-2 2.4-4.2 2.8-6.1.3-1 .7-14.5 0-18.5-2.3-2.5-7.1-2.2-12.3-6.5-5.1-4.3-50.1-51-63.1-60.2 1.9-3.4 11.1-13.7 9.3-19.8-2.2-6.3-28-6.3-42.6-7.8-24.6-1.9-137-11.4-148.7-13M0 289.8l200.4 15.4s-2.5-4.3-.9-7.7c1.6-3.4 9.7-16.3 12.8-17.8"/><path class="st2" d="M199 299.5c-.4-7.9-3.3-40.9 7.3-66.2 15.6-38.3 58.4-52.6 86.2-53.3 42.9-.8 69.9 18.8 78.6 26 9.4 8.7 39.5 43.1 29.4 95.8"/><path class="st2" d="M387.7 283.2c0 41.1-36 78.7-85.9 76.6-44.2.1-90.2-39.9-90.2-81-.1-42.4 28.8-89.7 85-91.3 60.2 0 89.4 49.9 91.1 95.7zM304.6 9.3C316.7 20 393 66.7 407.8 75.7c9.4 4.1 19.9 9.2 23.4 11M444.2 99.6c-4.1-2.3-12.7-5.6-16.7-6.1s-50.2-2.1-54.6 0-15.7 8.8-15.9 11.8c-.2 3.1 50.3 34.9 62.6 37.5s26.8.2 30.3-1.7c2.8-3.1 4-7 4.8-8.3M183.7 142l29.9.4s17-.3 21.5-2.5c4.6-2.2 2.5-8.6 1-9.4s-21.4-1.7-21.4-1.7l-29.8.5s-15 .7-16.2 2.8-2 4.7-.4 6.7c1.7 2.1 15.4 3.2 15.4 3.2z"/><path class="st3" d="M0 14.4c7-2.5 47.4-6.2 58.1-7.5s142.1-9.1 234.6 24.4c26 11.9-7.5 35.4-15.7 47.6-3.1 67.3-69.9 112.8-128.8 222.3"/><path class="st3" d="M0 106.5c8.9.6 233.2-19.8 277.1-27.6"/><path class="st3" d="M58.1 6.9C44.3 36 26.9 92.2 21.5 105.1-1.4 137.2 8.6 174.5 12 248.7c11.3 33.8 22.6 43.8 22.6 43.8M438.1 271.7c5.3-11.9 18.1-40.8 18.1-40.8s2.2.7 1.8 4c-.4 3.3-13 30.2-14 31.8-.9 1.5-5.1 4.6-5.9 5zM338.2 32.3c27.5-5.1 46.8-16.6 53.6-10.5"/></g></svg>
