<svg version="1.1" id="Calque_1" xmlns="http://www.w3.org/2000/svg" x="0" y="0" viewBox="0 0 500 375" style="enable-background:new 0 0 500 375" xml:space="preserve"><style>.st2,.st3{fill:none;stroke:#fff;stroke-miterlimit:10}.st3{stroke-width:.5}</style><g id="Calque_2_00000145045959663815107190000016641842283353868707_"><path class="st2" d="M29.9 316.8c-6-10.1-9.2-69.2-9.1-81.9.2-12.6 17.2-44.6 17-49.8s-1.1-42.3 1.8-49.3c3.3-3.6 14.9-3.4 32.4-11.2 7.1-3.1 11.8-7.3 18.3-18.3s27-39.4 30.3-46c4.1-9.3 38.6-15.6 47.7-16.9 8.1-1.1 41.8-3.9 81.6-4.4 34.3-.4 70.9 2.2 89.9 5.7 36.8 6.8 38.4 14.6 40.4 17.5 1.9 2.9 31.3 47.2 33.9 50.4 2.6 3.2 10.5 11.8 15.7 13.5 5.2 1.6 26.1 6.5 28.9 8.9 4.4 5 4.5 35.3 3.1 48.6.8 6.8 16.5 38.6 16.9 49.5.3 10.9-7 79.8-8.9 83.7-1.9 3.9-10.7 10.4-13.8 11.7-14.4 5.2-47.2 8.1-77.2 11-13.7 1.3-71.9 5.6-132.2 4.9-71.9-.8-146.8-6.8-154.7-7.3-14.4-1-44.8-6.6-48.3-8.8-3.5-2.1-10.6-6.3-13.7-11.5z"/><path class="st2" d="M47.2 330c1.7 3.2 7.3 10.6 13.8 12.2s34.7 1.8 38.9 1 9.1-3 10.5-4.7M452.7 329.6c-2.2 4.4-5.9 11.9-19.9 14-7.4 1.3-26 .2-28.8 0s-6.7-1.9-8.5-5.7M37.5 170.3c5.3-.8 15.6-1.7 17.5-2.8 2-1.6 13.3-9.8 15.1-10.2 1.7-.4 46.4-3.6 48.8-4 1.3-1.6 11.5-17.8 11-20.7s-2.6-5.8-5-6.3-21.7-4.3-50-3M462.6 170.2c-5.6-.5-15.5-1.7-17.1-2.2s-12.7-10-16.7-10.8-47.7-2.8-48.8-4.2c-1.1-1.5-9.9-17.2-10.2-20.1-.3-2.9 2.6-5.9 5-6.7 2.4-.8 33.4-4.5 50.3-2.6M170.5 162.5l-1.5 31.6h161.3l-.8-31.6z"/><path class="st3" d="M81.6 118.4c-2.7 3.6-7.5 8.5-16 13.1-1.7 6.9 3.4 22.8 4.6 25.8.4 3.4 9.9 50.7 10.7 53.4.8 2.7 9.6 12.1 19.2 13.6 11.2 3.6 87.1 5 163.2 5.4 63.9.3 123.9-2.9 129.1-3.6 11.5-1.7 23.4-8.8 26.3-15.1 2.4-8.7 10.7-51.4 10.8-53.7 2.9-3.2 5.9-22 4.6-25-2.4-4.4-12.9-5.6-21.3-21.4"/><path class="st3" d="M118.9 153.6c10.8-1.3 124.7-1.7 131.1-1.8 6.4-.2 119.9.8 130.3 1.5M90.7 109.3c14.8-15.6 35.1-37.6 45.9-41.1 17-6.4 71.9-9.7 112.3-9.6 38.7.1 100.8 3.5 114.4 9.8 13.7 6.4 45.5 38.6 46.3 40.1s-56.1 6.6-61.5 6-192.8.3-197.8 0-59.6-5.2-59.6-5.2zM33.3 256.5c2.1 1.3 7.9 7.9 8.7 12.6.5 2.4-5.2 27.3-5.3 28.3s-3 0-4-1.5c0 0-1.6-40.2.6-39.4zM466.9 256.5c.7 4.3.7 37.2 0 39.7-1.2 1.4-3.3 1.7-3.8.9-.5-.7-5.5-25.3-5-28.4s6.6-12.5 8.8-12.2zM198.8 44c-.4.2 11.4 5.9 14.2 6.2 2.8.4 71.9.5 74.3-.5 2.4-.9 14.1-5.3 14-5.4-7.8-3.3-88.5-2.9-102.5-.3z"/></g></svg>
