<svg version="1.1" id="Calque_1" xmlns="http://www.w3.org/2000/svg" x="0" y="0" viewBox="0 0 500 375" style="enable-background:new 0 0 500 375" xml:space="preserve"><style>.st2,.st3{fill:none;stroke:#fff;stroke-miterlimit:10}.st3{stroke-width:.5}</style><g id="Calque_2_00000050645822404124111910000016424594983294888083_"><path class="st2" d="m144.7 263.2 223.3-3s3.2-16.3 7.1-24.2 14.2-25 37-29.5 37.4 8.1 39.2 10.2c1.8 2.2 9.6 10.6 3.5 35.2 5.7.7 17.5-7.3 18.9-11.4 1.4-4.1 3.7-15.2 2.8-18.9.9-3.1 5.3-7.4 5.3-10.6-.4-4.9-8.8-12.5-9.4-15.3-.6-5.5 6.2-21.5 5-24.1s-7.9-7.3-10.2-9.3c-2.4-2-19.5-20.5-22.2-24.8-2.8-4.3 1.3-9.4.7-11.4-.6-2-1.5-3.5-7.3-5.7s-67.6-9.4-84.2-10.7c-17.3-1.3-48.4-4.9-81.2-3-37.4 2.2-50.4 8.1-53.9 9.7-10.2 4.3-43 21.1-50.7 27.4-14.2 1.1-60.6 9.7-75.1 14.3S45.1 173.1 25 191c-7.2 12.2-6 13-5 16.6s5.5 12.8 5.3 15.6-1 11.7-1.5 13.1c-.4 1.5-.7 5.6-.4 6.9.6 2.5 6.5 9.9 11.1 12.6 4.7 2.7 15.3 5.9 22.2 6.1-.2-1.8-4.1-10.9-3.6-20.8.4-9 2.2-14.6 8.2-20.8 5.4-5.6 11.6-9.6 24.9-11.7 10.1-1.6 28.2 2.9 40 13.6 9.3 8.6 16.5 27.2 18.5 41z"/><path class="st2" d="M83.1 209.3c-5.7 3.8-11.9 8.6-14.3 11s-10.1 8.3-9.4 22.8c.7 14.5 8.7 24.6 19.7 31.2 10.9 6.6 24.3 7.9 35.1 3.4s17.2-12.9 20.4-18.7c3.2-5.8 5.5-13.2 5.5-13.2M371.1 246.9c.6 2.8 4.2 10.1 5.5 12.7s6.9 10.6 13.7 14.7c6.8 4.1 15.4 6.5 26.1 4.9 10.8-1.6 23.3-8.2 29.8-19.1 6.4-11 6.4-23.2 4.1-28.4s-7.3-12.4-14.1-17.1c-3.7-2.7-13.2-8.1-18.6-8.9M450.8 249.9l3.6 2M57 262.1l5.9-4.5M468.4 163.1c-.9 2.2-17.5 3.1-19.9 4.3-2.4 1.1-4.8 6.3-4.5 6.9.2.6 18.2 14.5 23.7 14.6s6.3-2 6.3-2M372.5 190.4h13.3s8.4-.1 9.3-1.1c1-1 .9-3.8 0-4.2-.9-.3-9.4-.4-9.4-.4l-13.2.4s-6.5.5-7.2 1.1c-.5.5-.3 2.6 0 3.1.4.7 6.5 1.1 7.2 1.1zM248.9 195.5h13.6s8.4 0 9.2-.9c.8-.9 1.2-3.7 0-4.3s-9.3-.5-9.3-.5l-13.5.5s-6 0-6.8.8-.8 3.2 0 3.5c.8.5 6.8.9 6.8.9zM62.2 188.5s-15 19.9-19.2 22.4c-3.7 1.6-11.4-1.9-11.5-1.9-.2 0-8.5-3.6-9.1-4.7s-.4-7.8 1.7-10.2 9.8-4.3 12.4-4.6c2.7-.2 25.7-1 25.7-1zM159.7 173.5H173s3.2 1.3 3.9 1.4c.7.1 4.9.1 5.1 0 .3-.1-.1-7.2-.2-7.8-.1-.6-2.5-9.1-2.7-9.4s-6-.4-6.6 0c-.7.4-7 5.5-6.7 7.1s2.1 3.7 2.1 3.7-6.9 3.1-8.2 5z"/><path class="st3" d="M168.3 168.7c1.2 1.4 3.3 3.9 4.8 4.5M399.3 114.9c4.6 2.9 8.9 4.7 15.6 11 6.7 6.3 40.2 29.6 42.2 30s4.5.8 4.5.8"/><path class="st3" d="M430.1 137.6c3.3-1.2 13.7-6.3 14.6-7.4M28.8 191l2.5-5M62.6 188.3s38.2-2.2 41.6-3.2c3.3-1 13.8-3 20.3-9.8s7-6.9 8.4-6.9"/><path class="st3" d="M167.7 144.1c-.2 0-20.6 3.2-36.3 11.8-8.3 4.5-7.8 8.4-7.2 9.2.4 1.1 4.5 4.3 19.5 3.4 6.5-4.7 21-13.8 30.8-20.1 9.4-6 39.9-22.3 47.2-24.5.3-.4-5.3-3.6-2.8-7.3M31.2 235.4s-2.3-2.9-2.1-4.2c.2-1.4 1.9-9.8 3.6-10.9 1.8-1.1 5-1.9 5.3-1.1.3.8-6.7 13.9-6.8 16.2zM365.9 110.5s4-3.6 6.1-4.2c2-.6 6.5-.6 6.6-.5s-.8 2.6-.7 3.5c.1.8.8 1.5.5 2.6M159.7 263c-1.9-6.3-6.4-11.9-6.8-13.5-.4-1.6-13.5-55.1-10.1-64.8s11.7-15.3 15.5-18.5 39.6-27.1 63.6-35.9c11.1-4.5 38.3-11.1 71.1-11.1 47.5 0 83.6 5.5 114.4 15.6 17.9 7.4 3.6 16 .8 25-2 3.4 1.6 11.4 1.2 16.1-.3 19-49.4 64.1-65.6 84.5"/><path class="st3" d="M292.9 119.3c-3.4 25.4-5.7 49.3-6.1 52.9s-6.1 56.7-6.1 69.4v19.8"/><path class="st3" d="M147.3 177.9c10.1 0 139.5-5.8 139.5-5.8s24.8-.7 58.4-3.9c22.3-2.1 55.7-6.6 62.6-7.7"/></g></svg>
