<svg version="1.1" id="Layer_1" xmlns="http://www.w3.org/2000/svg" x="0" y="0" viewBox="0 0 500 375" style="enable-background:new 0 0 500 375" xml:space="preserve"><style>.st0{fill:none;stroke:#fff;stroke-width:1.0006}</style><path class="st0" d="M500 239.8c-21.1 11.7-46 19.9-71.5 21.5-1.9-3.1 4.6-3.4 4.5-7.4v-.3c-15.1-42-24.5-49.7-24.5-49.7M95 216.3c-5.5 2.7-18.8 25-21.7 31-.5 1.1-.8 2.2-.9 3.4-.5 5.2 2.5 10.3 2.5 10.3L0 255.3"/><path class="st0" d="M432.8 255c18.1-94.2-35.3-156.2-52.6-171.3-15.2-13.3-58.8-49.3-140.6-49.3-58.5 0-125.9 29.8-154.1 98.1-18.7 45.3-13.8 104.3-13.1 118.4"/><path class="st0" d="M95 216.3c3.6 81.6 75.1 142.4 161.3 142.4 89.2 3.8 153.6-63.5 153.6-137-3-81.9-57-171.1-162.9-171.1-94 0-156.1 72.2-152 165.7zM153.3 0C112.3 59.6 55.2 126.1 0 221.1"/></svg>
