<svg version="1.1" id="Calque_1" xmlns="http://www.w3.org/2000/svg" x="0" y="0" viewBox="0 0 500 375" style="enable-background:new 0 0 500 375" xml:space="preserve"><style>.st1,.st2{fill:none;stroke:#fff;stroke-miterlimit:10}.st2{stroke-width:.5}</style><g id="Calque_2_00000055708710403393509900000016514038561727312004_"><path class="st1" d="M252.4 27.7c36.6-.4 72 .8 83.3 4.6 16.4 5.5 30 9.7 57.3 36 8.1 11.6 21.9 61.3 24.3 64.3s34 22.8 37.9 37.6c.8 10.6-6.1 31.9-6.1 34.6s5.4 42 2.4 53.4-17.3 56.8-36.7 69.8c-20 13.4-37.7 17.7-57.3 20.2-110.1 14.4-219.8.8-238.1-4.6s-40.4-18-47.8-30c-6.5-10.7-22.2-41.5-24.3-55.9s4.5-49.6 3.9-54.7c-.6-5.1-8.6-25.8-6.6-32.8 4.2-14.3 28.9-27.9 38.7-39.1-.3-4.8 20.7-61 22.5-63.7 1.8-2.7 36.9-28.9 50.5-33.4 9.3-3.1 50.4-5.6 91.3-6.2"/><path class="st1" d="M83.5 131c.4 15.6-10.4 40.1-13.3 45.4 4.1 15.3 8.2 20.4 9.7 23.7 7.9 16.2 17.6 42.4 18.3 47.2 3.9 5.1 12.3 12.8 31.6 16.2 52.7 9.5 202.2 9.4 232.9 1.2 9.6-2.6 27.2-5.7 38.8-16.5 2.4-11.6 17.4-44.4 18.6-48.1 3-4.6 6.7-12.7 9-23.8-1.9-6.2-12-26.9-11.7-43.9"/><path class="st1" d="M427.5 140.6c-.6 4.5 2.6 7.5-2.9 12.8s-51.6 22.2-56 28.3c-5.4 7.2-1.8 15.8 4.5 22.5 3.5 1.7 42.5-4.5 46.7-4.7s6.8 3.4 14.7 3c7.9-.4 12.7-3.5 16.8-6.8M73.2 140.7c-3.2 6.1 0 12 5.9 15.5 6.2 3.6 54.9 22.3 54.8 29.9.4 10.2-5.2 18.5-7.6 18.9s-43.4-5.7-46.3-5.6c-2.8.1-11.4 4.6-13.8 4s-13.8-3.4-16.6-7.1"/><path class="st2" d="M176.6 212.2h147.3l-1.4 27.3-144.5.7zM63.8 278.4c3 2.2 8.1 4.6 9 7.3 1 2.7.8 13.5 0 14s-4.3-3.5-4.7-4.4c-.3-.8-4.3-16.9-4.3-16.9zM436.3 277.9c-.2 1.5-4 16-4.9 17.4-.8 1.4-3.3 4.3-4 4.1s-2.2-11.2-.9-13.4 9.1-7.7 9.8-8.1zM87.6 131c1.8-6.4 27.5-51.5 38.6-56.7 17.2-8.1 87.3-10.2 120-11.4S362.9 68.4 372.7 74c12.7 7.2 38.9 51.5 39.7 56.1 1 5.7-43.9 32-70.3 35-18.8 1.8-161.9 5.3-186.4-.5-27.4-4.3-66.4-27.1-68.1-33.6zM243 35.4c6.8.2 13.9 0 14.1 0s.1-2.5 0-2.8-3.8-2.5-4.3-3.3-1.4-7.9-1.9-8.1c-.5-.3-1.5-.1-1.7 0s-1.4 7.5-1.7 8.2c-.4.7-3.5 2.4-4.1 3-.8.6-.4 3-.4 3zM98 247.4c7.1 17.9 13.2 23.6 19.5 27.8 6.3 4.3 82.6 11.4 134.8 11.4 51.4 0 119.9-6.6 129.8-11.4 9.7-4.7 16.7-19.9 19.5-26.9M126.2 205.2c42.8 5 192.4 8.9 247.5-.6"/></g></svg>
