<svg version="1.1" id="Layer_1" xmlns="http://www.w3.org/2000/svg" x="0" y="0" viewBox="0 0 500 375" style="enable-background:new 0 0 500 375" xml:space="preserve"><path id="Layer" fill = "none" stroke="#fff" stroke-width = "1.0006" d="M254.2 53.6C178.1 53.6 101 114.4 97 209.7 93.4 294.2 156 360 240.6 360s163.1-67.7 166.6-153.2c3.1-78.1-68.6-153.2-153-153.2z"/><path fill = "none" stroke="#fff" stroke-width = "1.0006" d="M99.1 243.3c-9.1 5-24.2 41.6-28.1 53.8-9.5 2.2-36.1 3.6-71-4.1M500 264.4l-18.8 2-57.2 6.2-1.3.1s9.2-10.4-18.1-44.4l-.1-.1"/><path fill = "none" stroke="#fff" stroke-width = "1.0006" d="M424 272.8c10.8-18.3 19.4-70.3 5.1-115.7-14.2-45.4-65.1-93.4-122.7-103.3-57.6-9.9-135.9 2.7-187.1 56.9S63.3 240.4 71 297.3M100.3 0c-14 17.8-36.2 43-68.1 71.8C19.4 74.6 8.6 76 0 76.7M481.2 266.3c5.8-42-1.7-181.8-12.3-266.3"/></svg>
