<svg version="1.2" xmlns="http://www.w3.org/2000/svg" x="0" y="0" viewBox="0 0 500 375"><g id="Calque_2"><path id="Layer" fill = "none" stroke="#fff" d="M278.3 181.2c44.4 0 89.4 35.5 91.7 91.1 2.1 49.3-34.4 87.7-83.8 87.7S191 320.5 189 270.6c-1.8-45.6 40-89.4 89.3-89.4z"/><path fill = "none" stroke="#fff" d="M190.5 283.1c-16 19.9-10.6 26-10.6 26L9.3 290.6M9.3 2.2C49.2 8.8 84.2 19 123.1 35.1c39.1 16.1 91 45.5 115.2 60.7 45.7 1.7 144.4 21.1 179.4 32.2 35 11.1 68.1 29.1 79.1 45.9 8.9 13.5-3.3 56.6-5 60.7-.2 6.5-1 24.7-1.4 31.1.5 1.2 5.7 4.6 6.3 7.4-1.2 12-30.6 34.2-44.8 39.9-32.2 13-59 12.1-66.7 10.3-2.3-7.1-11.1-28.5-16.4-31.4"/><path fill = "none" stroke="#fff" d="M179.2 309.1c-6.3-10.7-11.3-41-3-67.5s38-54.5 71.6-60.3c33.6-5.8 79.3 1.6 109.2 33.2 29.9 31.6 32.7 75.7 28.2 108.9M131.4 99.6H99.3s-6.6-2.4-16.6-1.7c-14.8-.4-40.2-9-43.1-11-3.8-2.3-6.6-6.1-8.5-15.1-.8-8.6-.2-9.3 5.9-11.7 10.7-3.2 44.6-5.5 52.6-1.7 7.3 4.8 18.2 13.8 17.4 17.9-.8 4.1-3.7 8.9-3.7 9.5.2.5 5.8 1.8 8.6 2.1 2.9.8 19.5 10.4 19.5 11.7zM459.7 153.3c10.1 3.2 27.4 15.5 28.9 19.2 2.8 6.7-1.9 15.7-5.1 17.4-3.7 2-26.5.6-31.8.7-2.7.1-7.8 2.6-12.4 3.6-4.9 1.1-15.3 1.1-31.5-2.4-36.7-33.1-51.2-58-51.2-58 11.9.9 67.7 8.5 103.1 19.5z"/><path fill = "none" stroke="#fff" stroke-width = ".5" d="M447.3 221.5c6.4 5.8 19.5 28 19 32.1-7.6 4.8-12.8 7.2-15.6 8.1-1.2-11-26.7-42.8-24.4-45.2 3.8-1.6 17.6 2 21 5zM470.3 151.1v7M356.6 133.8s-100.3-10.2-113.7-12.2c-21.6-3.2-33.6-15-40.9-29.1"/><path fill = "none" stroke="#fff" stroke-width = ".5" d="M238.2 96s-65.6-6.1-68.8-6.3c-3.2-.2-59.9-47.3-121.5-75.5-2.7-.9 38.1 6.9 51.4 11.5M9.4 11.4C60.8 22.5 167.9 98.7 159 116.2c-8.8 27.6-17.6 157.1-13.2 189.1"/><path fill = "none" stroke="#fff" stroke-width = ".5" d="M157.4 107.4c-65.2-3-148.1-5.3-148.1-5.3"/></g></svg>