<svg xmlns="http://www.w3.org/2000/svg" viewBox="0 0 500 375" style="enable-background:new 0 0 500 375" xml:space="preserve"><g id="Calque_2"><path fill = "none" stroke="#fff" stroke-miterlimit="10" d="M320.3 270.6c-2 49.9-47.8 89.4-97.2 89.4s-85.9-38.4-83.8-87.7c2.3-55.6 47.3-91.1 91.7-91.1 49.3 0 91.1 43.8 89.3 89.4z"/><path fill = "none" stroke="#fff" stroke-miterlimit="10" d="m500 290.6-170.6 18.5s5.4-6.1-10.6-26M140.5 291.9c-5.3 2.9-14.1 24.3-16.4 31.4-7.7 1.8-34.5 2.7-66.7-10.3-14.2-5.7-43.6-27.9-44.8-39.9.6-2.8 5.8-6.2 6.3-7.4-.4-6.4-1.2-24.6-1.4-31.1-1.7-4.1-13.9-47.2-5-60.7 11-16.8 44.1-34.8 79.1-45.9S225.3 97.5 271 95.8c24.2-15.2 76.1-44.6 115.2-60.7C425.1 19 460.1 8.8 500 2.2"/><path fill = "none" stroke="#fff" stroke-miterlimit="10" d="M124.1 323.4c-4.5-33.2-1.7-77.3 28.2-108.9s75.6-39 109.2-33.2 63.3 33.8 71.6 60.3c8.3 26.5 3.3 56.8-3 67.5M377.9 99.6H410s6.6-2.4 16.6-1.7c14.8-.4 40.2-9 43.1-11 3.8-2.3 6.6-6.1 8.5-15.1.8-8.6.2-9.3-5.9-11.7-10.7-3.2-44.6-5.5-52.6-1.7-7.3 4.8-18.2 13.8-17.4 17.9.8 4.1 3.7 8.9 3.7 9.5-.2.5-5.8 1.8-8.6 2.1-2.9.8-19.5 10.4-19.5 11.7zM152.7 133.8s-14.5 24.9-51.2 58c-16.2 3.5-26.6 3.5-31.5 2.4-4.6-1-9.7-3.5-12.4-3.6-5.3-.1-28.1 1.3-31.8-.7-3.2-1.7-7.9-10.7-5.1-17.4 1.5-3.7 18.8-16 28.9-19.2 35.4-11 91.2-18.6 103.1-19.5z"/><path fill = "none" stroke="#fff" stroke-miterlimit="10" stroke-width = ".5" d="M83 216.5c2.3 2.4-23.2 34.2-24.4 45.2-2.8-.9-8-3.3-15.6-8.1-.5-4.1 12.6-26.3 19-32.1 3.4-3 17.2-6.6 21-5zM39 151.1v7M152.7 133.8s100.3-10.2 113.7-12.2c21.6-3.2 33.6-15 40.9-29.1"/><path fill = "none" stroke="#fff" stroke-miterlimit="10" stroke-width = ".5" d="M271.1 96s65.6-6.1 68.8-6.3c3.2-.2 59.9-47.3 121.5-75.5 2.7-.9-38.1 6.9-51.4 11.5M363.5 305.3c4.4-32-4.4-161.5-13.2-189.1-8.9-17.5 98.2-93.7 149.6-104.8"/><path fill = "none" stroke="#fff" stroke-miterlimit="10" stroke-width = ".5" d="M351.9 107.4c65.2-3 148.1-5.3 148.1-5.3"/></g></svg>
