<svg version="1.1" id="Calque_1" xmlns="http://www.w3.org/2000/svg" x="0" y="0" viewBox="0 0 500 375" style="enable-background:new 0 0 500 375" xml:space="preserve"><style>.st1,.st2{fill:none;stroke:#fff;stroke-miterlimit:10}.st2{stroke-width:.5}</style><g id="Calque_2_00000039116167966469510340000009456836971977110925_"><path class="st1" d="M500 199.4s-175.5 87.8-177.5 86.5c-1.4-.6 8.6-13.4 8.9-20 1.1-22.4-8.4-37.2-23.8-43.1-15.4-5.9-56.1 1-84.2 39.3-22.9 25.4-25.1 74.8-26.6 77.8-14.4 11-91.9 15.2-142.5-16.6-16.5-44.6-46.4-115-34.9-135.8 28.2-39.8 69-64.2 175.4-90 3-1.3 61.9-44.6 91.7-52.3 29.7-7.7 86.1-10.2 117.4-9.4 30.5.8 67.6 1.4 96.3 9.8"/><path class="st1" d="M368.9 128c-9.3-.1-8.4 1.9-16.2 10.9.2 2.3 13.7-1.4 14.8-1.4s35.6-.3 40.6-1.3c4.9-.9 6.7-1.2 8.1-3.8 1.4-2.7 3-8.8 1.8-10.4-2-2.7-21.1-12.3-33.3-11.9-8.2.7-14.3 8.6-16.4 12.8-1.1 4 .8 4.7.6 5.1zM445.4 145.4c-1.9.4-5.5 2.2-5.4 3.2.1.9-.6 4.1.6 4.3 1.1.3 4.5.1 5.2 0 .8-.1 8.3-2.2 10-2.8s7.8-3.3 8.2-4.2c.4-1 .1-2.9-.4-3.4s-.8-1.3-1.7-1.2c-.9.1-5.9 1-6.7 1.2-.9.2-8.8 2.7-9.8 2.9zM213.3 199.2c5.2 0-20.1 44.3-33 55.3-5.4 3.7-29.2 7.4-45.2 4.4-8.9-1.7-54.1-.8-59-2.9-4.7-2-21.5-11.5-22-20.7C77 217.4 204.4 200 213.3 199.2zM16.8 204.4c5 26.9 28.6 48.3 32.2 53.3 1.8 6.8-2.6 23.7-5.9 23.6-3.3-.1-12.1-17.5-13.2-23.5M489.2 205.5c3.5.8 8.5 4 10.8 3.7M201.3 312.2c1.9 3.3 14.9 20.9 18.1 23.7s12.8 12.9 35.6 8.1c23.3-4.8 44.1-25.5 53.5-42.7 11.4-20.8 14.8-43 8.6-55.6-4.8-10.1-17.2-21.9-25-24.8"/><path class="st2" d="M45.9 158.3c-3.7 18.9 4.9 29.2 20.9 51.3 10.4 10.4 15.9 14 15.9 14M273.4 51.3c14.1-3.4 112.4 1.3 119.3 4.6-6.3 8-67.5 75.7-71.1 79-5.6 2.5-17.2 2.4-21.1 2.4-21.3-3-106.3-22.7-107-34.8 8.6-11.1 76.1-49.7 79.9-51.2zM213.3 198.9c58-19.9 78.3-20.3 87.3-34.4 7.7-14.6 8.1-22.9 4.5-27.1M163.2 274.8c2.3.5-15.7 36-20 38.3s-33.8-5.1-33.8-6.6 19.2-21.7 26.2-25.2c7.1-3.5 23.5-7.4 27.6-6.5zM340 278.2c10.7-57.2 8-101.5 1.1-115-5.3-8.4-5-17.4 7.8-35.4 13.5-18.5 43.9-58.5 64-69.9 8.5-4.8 27.6-12 48.8-11.3 29.8 1 36.2 5 38.3 6.1"/><path class="st2" d="M458.2 46.6c10.1 38.2 8.1 64.9 9.2 69.3 8.9 27.3-4 59.4-22.5 110.9"/><path class="st2" d="M417.7 129.6c34.7-9.2 70.1-19.2 82.3-24.1M338.2 149.3c3.7-.4 24.5-5.4 50.1-12M369.1 128.1c.2 2.2.9 2.9 4.6 3.1 3.7.2 28.1 2.3 44-2.6"/></g></svg>
