<svg version="1.1" id="Calque_1" xmlns="http://www.w3.org/2000/svg" x="0" y="0" viewBox="0 0 500 375" style="enable-background:new 0 0 500 375" xml:space="preserve"><style>.st1,.st2{fill:none;stroke:#fff;stroke-miterlimit:10}.st2{stroke-width:.5}</style><g id="Calque_2_00000166670840551502740530000003307444806088230845_"><path class="st1" d="M500 71.2c-5.7-5.9-36.2-21.2-70.7-28.3-35.4-7.3-99.6-11.3-149.2-7.8-34.9 2.4-185.9 12-195.7 20.4-8.9 7.4 8 15.4 10.3 16.7 0 2-53.8 52.3-62.1 67.7s6.1 41.5 7.5 46.7c-.8 1.4-22.9 26.1-10.1 74.6 6 37 49.2 66.2 86.1 62.3 1.4-2.7-7.7-45.7 27.1-72.3 36-24.9 72.6-32.8 104.3-18.3 31.8 14.5 29.1 46.7 24 66.6.2.7 228.4-52.7 228.4-52.7"/><path class="st1" d="M30.2 154.5c5.3-4.2 4.7-4.8 8.4-4.6 3.7.3 22.5 2.9 32.1 3.6 8.7.6 50.4 1.7 54.3 2.7 3.9 1 17.8 10.5 17.6 13.6-.1 3.1-42.2 35.5-54.6 37.5-22 1.8-34.7-9.2-40.8-19.1C41.8 180.6 34 171 34 171M466.4 160.6c1.3.5 2.7 3.3 1 4.9-1.6 1.6-7.4 2.9-8.4 3 0 0-14.3 2.6-15.7 2.7-2 .1-10.8 1.2-12.3-.5s-1.1-4.6-.5-5.2c.5-.5 7.3-3 11.9-3.6 2.4-.3 15.5-1.2 16.4-1.2s6.3-.5 7.6-.1zM285.7 175.1c2.4-.1 9.3-.5 10.6 0 1.3.5 3.8 2 2.6 5.9-.7 2.3-10.4 3.5-11.6 3.8-.8.2-21.5 3-24.3 3.2s-15.7 1.2-17.1 0-2.6-6.5-1.2-7.1c2.7-1.2 14.4-2.8 17.7-3.4 3.2-.4 20.6-2.3 23.3-2.4z"/><path class="st1" d="M159 44.3c6.6 2.1 14.6 10.8 13.4 20.5-3.5 9.8-72.1 65.3-87.1 68.9-7.5 11.9-32.3 27.1-43.4 31.5-1.2 5.9 1.4 16.5 2.8 20.2.8 2.2 5.2 24.6 4.4 28.1-1 3.7-3.7 6.4-4.2 6.7-.9.4-3.8-20.4-3.2-28.1-.8-3.9-1.5-5.6-1.5-5.6"/><path class="st2" d="M81.6 303.5c1.7 2.4-7.1-3.8-8.7-6s-16.5-21.8-16.3-24.3 2.8-1.5 3.7-1c.9.5 20.7 30.5 21.3 31.3zM95.2 72.2c4.6 1.7 6.4 2.7 7.4 3.6 1.1 1.5 6.5 10.2 6.2 13.8-.3 3.7-22.7 42.6-23.8 43.8s-40.8 5.5-42.1 2.1c-2-4.3 2.7-12.2 8.5-18.3M44.9 220.5c-3 2.3-8.7 7.5-11.7 5.9-3.8-2.3-3-22 6.6-38.9M197.9 40.8c-.1-.8-.1-1.7-.2-2-.1-.3-8.8-7.3-11.5-7.6s-9.4-.9-9.9-.4 1.4 6.1 1.3 7.1c-.1 1-.4 1.6-.5 2.9s0 1.9 0 1.9"/><path class="st1" d="M235.9 228.6c4.9 3.9 21.3 22.8 25 31.6 6 11.3 5.5 36.4-6.6 54.8-12.6 19-37.6 34.6-55.4 36.1-36.8 4.4-58.2-10.5-64.8-23.2-6.6-12.8-8.8-37-7.9-45.5.1-1.9 1.2-11.2 3.2-16.8"/><path class="st2" d="M500 77.4c-2.4-1.8-35.5-19.4-56.1-23.8-21.7-4.7-55.7-6.7-88.4-4.7-34.1 2-138.5 15.4-171.7 42.5-11.3 12 9.7 27.1 23.2 42.7.5 4.3 3.7 18.9 9 30.7 8.7 26.1 96 125.7 96 125.7"/><path class="st2" d="M384.7 48.1c2.1 4.5 15.7 42 23.6 88.2 17 25.3 1.5 84-6.3 133.3"/><path class="st2" d="M500 132.3c-8.9.3-121.7 12.2-293 1.8"/></g></svg>
