<svg version="1.2" xmlns="http://www.w3.org/2000/svg" x="0" y="0" viewBox="0 0 500 375"><g id="Calque_2_00000050645822404124111910000016424594983294888083_"><path id="Layer" fill = "none" stroke="#fff" d="m356.3 263.2-223.3-3s-3.2-16.3-7.1-24.2c-3.9-7.9-14.2-25-37-29.5s-37.4 8.1-39.2 10.2c-1.8 2.2-9.6 10.6-3.5 35.2-5.7.7-17.5-7.3-18.9-11.4-1.4-4.1-3.7-15.2-2.8-18.9-.9-3.1-5.3-7.4-5.3-10.6.4-4.9 8.8-12.5 9.4-15.3.6-5.5-6.2-21.5-5-24.1 1.2-2.6 7.9-7.3 10.2-9.3 2.4-2 19.5-20.5 22.2-24.8 2.8-4.3-1.3-9.4-.7-11.4.6-2 1.5-3.5 7.3-5.7s67.6-9.4 84.2-10.7c17.3-1.3 48.4-4.9 81.2-3 37.4 2.2 50.4 8.1 53.9 9.7 10.2 4.3 43 21.1 50.7 27.4 14.2 1.1 60.6 9.7 75.1 14.3 14.5 4.6 48.2 15 68.3 32.9 7.2 12.2 6 13 5 16.6-1 3.6-5.5 12.8-5.3 15.6.2 2.8 1 11.7 1.5 13.1.4 1.5.7 5.6.4 6.9-.6 2.5-6.5 9.9-11.1 12.6-4.7 2.7-15.3 5.9-22.2 6.1.2-1.8 4.1-10.9 3.6-20.8-.4-9-2.2-14.6-8.2-20.8-5.4-5.6-11.6-9.6-24.9-11.7-10.1-1.6-28.2 2.9-40 13.6-9.3 8.6-16.5 27.2-18.5 41z"/><path fill = "none" stroke="#fff" d="M417.9 209.3c5.7 3.8 11.9 8.6 14.3 11 2.4 2.4 10.1 8.3 9.4 22.8-.7 14.5-8.7 24.6-19.7 31.2-10.9 6.6-24.3 7.9-35.1 3.4s-17.2-12.9-20.4-18.7c-3.2-5.8-5.5-13.2-5.5-13.2M129.9 246.9c-.6 2.8-4.2 10.1-5.5 12.7-1.3 2.6-6.9 10.6-13.7 14.7-6.8 4.1-15.4 6.5-26.1 4.9-10.8-1.6-23.3-8.2-29.8-19.1-6.4-11-6.4-23.2-4.1-28.4 2.3-5.2 7.3-12.4 14.1-17.1 3.7-2.7 13.2-8.1 18.6-8.9M50.2 249.9l-3.6 2M444 262.1l-5.9-4.5M32.6 163.1c.9 2.2 17.5 3.1 19.9 4.3 2.4 1.1 4.8 6.3 4.5 6.9-.2.6-18.2 14.5-23.7 14.6-5.5.1-6.3-2-6.3-2M128.5 190.4h-13.3s-8.4-.1-9.3-1.1c-1-1-.9-3.8 0-4.2.9-.3 9.4-.4 9.4-.4l13.2.4s6.5.5 7.2 1.1c.5.5.3 2.6 0 3.1-.4.7-6.5 1.1-7.2 1.1zM252.1 195.5h-13.6s-8.4 0-9.2-.9c-.8-.9-1.2-3.7 0-4.3 1.2-.6 9.3-.5 9.3-.5l13.5.5s6 0 6.8.8c.8.8.8 3.2 0 3.5-.8.5-6.8.9-6.8.9zM464.5 189.5c2.6.3 10.3 2.2 12.4 4.6 2.1 2.4 2.3 9.1 1.7 10.2-.6 1.1-8.9 4.7-9.1 4.7-.1 0-7.8 3.5-11.5 1.9-4.2-2.5-19.2-22.4-19.2-22.4s23 .8 25.7 1zM341.3 173.5H328s-3.2 1.3-3.9 1.4c-.7.1-4.9.1-5.1 0-.3-.1.1-7.2.2-7.8.1-.6 2.5-9.1 2.7-9.4.2-.3 6-.4 6.6 0 .7.4 7 5.5 6.7 7.1-.3 1.6-2.1 3.7-2.1 3.7s6.9 3.1 8.2 5z"/><path fill = "none" stroke="#fff" stroke-width = ".5" d="M332.7 168.7c-1.2 1.4-3.3 3.9-4.8 4.5M101.7 114.9c-4.6 2.9-8.9 4.7-15.6 11-6.7 6.3-40.2 29.6-42.2 30-2 .4-4.5.8-4.5.8"/><path fill = "none" stroke="#fff" stroke-width = ".5" d="M70.9 137.6c-3.3-1.2-13.7-6.3-14.6-7.4M472.2 191l-2.5-5M438.4 188.3s-38.2-2.2-41.6-3.2c-3.3-1-13.8-3-20.3-9.8-6.5-6.8-7-6.9-8.4-6.9"/><path fill = "none" stroke="#fff" stroke-width = ".5" d="M333.3 144.1c.2 0 20.6 3.2 36.3 11.8 8.3 4.5 7.8 8.4 7.2 9.2-.4 1.1-4.5 4.3-19.5 3.4-6.5-4.7-21-13.8-30.8-20.1-9.4-6-39.9-22.3-47.2-24.5-.3-.4 5.3-3.6 2.8-7.3M463 219.2c.3-.8 3.5 0 5.3 1.1 1.7 1.1 3.4 9.5 3.6 10.9.2 1.3-2.1 4.2-2.1 4.2-.1-2.3-7.1-15.4-6.8-16.2zM122.6 111.9c-.3-1.1.4-1.8.5-2.6.1-.9-.8-3.4-.7-3.5.1-.1 4.6-.1 6.6.5 2.1.6 6.1 4.2 6.1 4.2M157.2 260.4C141 240 91.9 194.9 91.6 175.9c-.4-4.7 3.2-12.7 1.2-16.1-2.8-9-17.1-17.6.8-25 30.8-10.1 66.9-15.6 114.4-15.6 32.8 0 60 6.6 71.1 11.1 24 8.8 59.8 32.7 63.6 35.9 3.8 3.2 12.1 8.8 15.5 18.5 3.4 9.7-9.7 63.2-10.1 64.8-.4 1.6-4.9 7.2-6.8 13.5"/><path fill = "none" stroke="#fff" stroke-width = ".5" d="M208.1 119.3c3.4 25.4 5.7 49.3 6.1 52.9.4 3.6 6.1 56.7 6.1 69.4v19.8"/><path fill = "none" stroke="#fff" stroke-width = ".5" d="M353.7 177.9c-10.1 0-139.5-5.8-139.5-5.8s-24.8-.7-58.4-3.9c-22.3-2.1-55.7-6.6-62.6-7.7"/></g></svg>