<svg version="1.2" xmlns="http://www.w3.org/2000/svg" x="0" y="0" viewBox="0 0 2048 1536"><path id="Layer" fill = "none" stroke="#fff" stroke-width="4.6" stroke-linecap ="round" stroke-linejoin ="round" d="M0 143.4s10.9-.6 15.5-1.5c1.9-3.3 6.5-7.6 8.9-11.3 2.4-3.6-.9-14-3.7-22.3 12.8-1.3 26.3-.7 32.7 2.4 6.4 3 24.2 19.9 37.4 27.5 361.5-32.5 634.6-17.4 779.9 12.8 145.3 30.2 348.7 148.7 481.2 247 319.7 56.4 631.2 169.1 696.1 217.9"/><path fill = "none" stroke="#fff" stroke-width="4.6" stroke-linecap ="round" stroke-linejoin ="round" d="M1351.9 398c87.5 16.8 132.9 37.5 154.2 65.2 21.3 27.7 13.4 137.9-77.1 181.1-90.5 43.2-191.7 61.9-316.8 50.3-140.5-140.5-401.6-351.3-518.9-434.5 99.3-21.9 260.8-59.7 386.9-75m-386.8 75.1C512.8 203.1 303.9 155.1 0 163.5m635 527.8C376.8 641.7 98.4 587.8 0 567.4"/><path fill = "none" stroke="#fff" stroke-width="4.6" stroke-linecap ="round" stroke-linejoin ="round" d="M0 204.1c175.7-5.8 385.8 9.6 525.1 91.5C680.6 387 907 553.3 1049.3 747.9c6.4 8.7 12.7 17.5 18.7 26.4-65.2-12.4-163.9-31.3-276-52.8"/><path fill = "none" stroke="#fff" stroke-width="4.6" stroke-linecap ="round" stroke-linejoin ="round" d="M959.6 710c3.2 3.4.4 8.9-4.2 8.3-33.4-4.2-82.5-17.3-119.4-7.5-41.8 11.1-117.4 29.6-183.3 19.3-16.3-2.5-27-63.6-8.7-78.9 18.3-15.3 97.2-72.3 120.1-75.9 22.9-3.6 65.7 7.1 82 24.4 16.3 17.3 33.6 34.6 35.1 39.7 1.5 5.1-.5 15.3-5.6 22.4 16.3 1.5 55.6 18.4 84 48.2z"/><path fill = "none" stroke="#fff" stroke-width="4.6" stroke-linecap ="round" stroke-linejoin ="round" d="M635.6 668.7C398 623.1 128 570.8 0 544.5m1049.4 203.4c-8.6-1.6-18.9-3.6-30.9-5.9-41.3-7.9-101.7-19.4-173.3-33.1"/><path fill = "none" stroke="#fff" stroke-width="4.6" stroke-linecap ="round" stroke-linejoin ="round" d="M0 225.4c151.7-7.3 264.1-2 444 57.2 179.9 59.2 472 344.1 574.5 459.4m-196-157.1-2-40.4"/><path fill = "none" stroke="#fff" stroke-width="4.6" stroke-linecap ="round" stroke-linejoin ="round" d="M258 1110.4s-31.2-37.3-47.6-62.3c-1.2-72.9-13.3-96-41.1-159-43.4-98.5-43-191-42.4-210.6.7-19.6-.1-45.7-2.1-86 0 0-2.8-13.8 2.5-22.4-12.1-113.9-3.3-277.4 4.2-346.7-.3-6.7.5-15.7 1.1-19.1"/><path fill = "none" stroke="#fff" stroke-width="4.6" stroke-linecap ="round" stroke-linejoin ="round" d="M.1 1068.6s1083 331.8 1091.5 333.7c8.5 1.9 11.2.5 14.1-9.3-3.2 0-8-3.4-8.9-14.3l-9-41c23.6-140.4 176.5-271.1 474-186.3 297.4 84.8 366.9 297.4 328 384.6"/><path fill = "none" stroke="#fff" stroke-width="4.6" stroke-linecap ="round" stroke-linejoin ="round" d="M0 1045.8s131.3 30.5 234.5 57.9c103.2 27.4 862.3 274.9 862.3 274.9"/><path fill = "none" stroke="#fff" stroke-width="4.6" stroke-linecap ="round" stroke-linejoin ="round" d="M1068 774.3c10.4 25.1 9.6 48.5 0 75.8-9.6 27.3-51.3 366.1-69.4 461.9l-6.7 32.5m-672.2-587c10.9 2.7 33.1 9.6 39.3 14.6 6.1 5.1 8.5 23-1.5 25.2-10 2.2-26.4.4-37-1.2-5.4-5.2-61.8-18.4-76.6-15.7-23-4.9-48.4-11-56.7-17.8-8.4-6.7-3.4-27.3 7.9-27.3 12.1 0 49.4 6.5 49.4 6.5-.1 6.6-1.5 8.2 6.7 10 8.2 1.8 47.8 10.7 54.2 11.5 6.4.9 12.9-1.9 14.3-5.8z"/><path fill = "none" stroke="#fff" stroke-width="4.6" stroke-linecap ="round" stroke-linejoin ="round" d="M244.6 741.9c2.5-12.2 13.1-17.3 21.6-17.4 8.5-.2 17.4.9 30.7 4.9 13.2 4.1 19.5 15 22.8 28.1m.7 38.7c.1 7.8-6.1 17.8-16 17.3-9.9-.4-34.9-5.4-42.5-8.6-7.6-3.3-15.5-11.4-18.1-24.3m-65.4-554.7c-.6 56.4-6.6 222.6 21.9 358.6M94.9 222.8c-10 57.6-30.7 208.8-23.8 336.1m1976.9 688c-101-103.7-171.7-215.6-173-244.5 56.2-1.3 125.8 6.2 173 9.6m-173-9.6c-225.2-49.5-399.5-82.1-455.6-103-56.1-20.9-127.7-58.3-178-179.6 0 0-3.1-12.8-4.5-24m577.7 600c9.8 44 22 144.8 17.4 177.5-4.6 32.6-23.5 62.7-23.5 62.7m-543.7 0s-67.5-55.1-93.3-127.2c-25.8-72-13.7-153.2 36.5-241.1"/><path fill = "none" stroke="#fff" stroke-width="4.6" stroke-linecap ="round" stroke-linejoin ="round" d="M1333.7 1536c-39.4-28.3-102.3-78.6-106.9-148.4-8.3-127.1 125.1-216.9 329.1-137.3 204 79.7 195.7 228.3 154 285.7m136.6 0s-5-29.4-15.4-56.7M1351.9 398c41.7 30.8 46.4 50.5 43.4 86.9-3 36.3-64.7 150.9-208.7 213.1"/></svg>