<svg version="1.1" id="Calque_1" xmlns="http://www.w3.org/2000/svg" x="0" y="0" viewBox="0 0 500 375" style="enable-background:new 0 0 500 375" xml:space="preserve"><style>.st1,.st2{fill:none;stroke:#fff;stroke-miterlimit:10}.st2{stroke-width:.5}</style><g id="Calque_2_00000114760402253578189910000017548662886810224784_"><path class="st1" d="M406.2 50.7c3.7-1.8 93.8 14 93.8 14M0 106.9c18.9-12.2 56.6-31.1 129.9-44.8s195.2-15.5 253.7-13c2.3.1 4.7 0 6.9.5"/><path class="st2" d="M385.1 54.3c.4 1.7 12 1.5 12 1.5l10.8-.3s.7-1.8.5-2.6-3.3-2.8-3.4-3.6 1.3-8.1 1-8.7c-.3-.6-6.7.5-7.8 1.2-1.1.7-6.4 6-8.4 8.5-.8.9-2.4.6-3.8 1.3-.3.2-.9 1.5-.9 2.7zM0 110c6-3.3 8.4-5.4 8.8-4.4 1.1.4-1.9-.6-1.1 9.3s12.2 42 66.1 95.4 119 89.9 120.4 91.5c-2.4 4.3-54.3 73.3-54.3 73.3M231 375c35.1-47.2 99.2-140.3 208.7-206.9 39-24.8 60.3-33.5 60.3-33.5M428.1 375c.6 0 71.9-91.3 71.9-91.3"/><path class="st2" d="M439.7 168.1c4.2 12.6 20.9 100.8 17 171 .2 5.7 3.8 21.3 3.3 36"/></g></svg>
