<svg version="1.1" id="Calque_1" xmlns="http://www.w3.org/2000/svg" x="0" y="0" viewBox="0 0 500 375" style="enable-background:new 0 0 500 375" xml:space="preserve"><style>.st1,.st2{fill:none;stroke:#fff;stroke-miterlimit:10}.st2{stroke-width:.5}</style><g id="Calque_2_00000093898317994836537860000004964217154275722642_"><path class="st1" d="M0 82.2c1.7-4 19.5-37.1 42.5-55.1S85 4.4 118.5 0M361 0c15.9 2.9 43.6 17.8 42.6 26.3s-2.8 9.7-2.8 9.7-2.6 7.1-.8 10.9 55.1 54.7 57.9 60.1c2.8 5.4-2.2 12.7-2.8 15.1-.6 2.4-5.2 29.2-5.2 29.2s20 25.8 20 32.1-4.8 14.7-4.8 17.1c0 2.4 3.6 11.5 3 15.3s-3.6 21.4-4.2 23.8c-.6 2.4-15.3 31.1-44.2 50.4-28.8 19.4-72.2 44.1-125.1 53.7-34.1 6.2-48.6 7.1-55.2 7.1s-38.2-8.5-39.8-10.1c-1.1-7.5-9.9-50.3-26.2-81.1-19.1-40.5-47.7-79-67.4-75.7-22.4 4.4-21.2 30.3-18.8 45.7s7.1 27.7 7.9 33.4c.4 2 3 12.8 3 12.8L0 197.1"/><path class="st1" d="M205.9 343.2c-8.7 5.5-31.7 20.5-37.7 22.7-6 2.3-18.6-.3-24.5-5.4-5.2-4.5-21.3-18.1-32.1-43.6-8.5-20.1-10.7-28.2-14.7-45.1s-4.7-37.7-.8-51.9c3.6-13.4 6.7-14.6 12.2-18.7s16.8-6.9 20.4-7.2M159.3 112c-.4 3.1 32.7 45.2 46.6 50.6 13.9 5.5 66.7-1.1 70.5-1.9 3.8-.8 25.7-13.3 27.9-13.5s58.2-7.2 58.2-7.2 13.1-18.8 11.2-22.8-11.4-8.9-14.3-9.5c-10.1-3-61.4-9.9-85.7-11.4-23.7-1.4-63.8-3.9-82.1.2s-28.7 11.4-32.3 15.5z"/><path class="st2" d="M238.9 323.4c10.1 0 10.9.3 18.3-2.8 3.9-2 26.3-29.4 28.1-34.5-2.7-3-21.2-10.1-27.9-8.1-4.4 4.9-18.5 45.4-18.5 45.4z"/><path class="st1" d="M10.5 122.1c-.9 0-3.2.5-4.1 1.5s-1.1 2.2-.7 2.8c.5.6 2.6 2.8 3.4 3.1.8.4 4.7 1.2 5.4 1.4.6.2 2.3.7 3.1-.2.8-.9 2.1-5 1.4-6.2s-2.8-1.6-3.4-1.6c-.8-.1-5.1-.8-5.1-.8zM73.4 126.5c-1.5-.1-3.8.5-5.6 1.1-.3 0-2 .2-2.5 1.3s-.9 2.4 0 3.6c.9 1.2 3.1 3.7 6.1 4.5 3.1.9 10 2.8 11 2.7 1 0 7.3.3 8.2-.3.9-.7 3.5-6.3 2.4-8.4s-6.9-3.4-8.9-3.5-10.7-1-10.7-1zM183.8 0c-4.5 10.2 44.6 64.8 68.3 70.3 5 15.2 36.6 38.4 47.7 43.9 4.4 6.9 7 30.7 4.5 33 1.9 6.6 3.9 42 11.6 52.3 7.8 9.3 17 16 21.3 19 23.9 4.2 94.6-22.4 111.1-43.1 2.6-4.9 4.2-12.7 3.5-16.8l-2-7.3"/><path class="st2" d="M252.4 70.2c3.7 1 101.3 21.2 113.6 22.4 12.2 1.2 70.5 1.4 73.5-.5.4-3.2-37.6-41.4-41.2-45.8S385 32.1 379.4 29.7 349.5 17.1 333 13.6 287.5 3 256.2 8.1c-11.5 8.1-9.5 19.1-9.3 22.8 1.1 22 5.5 39.3 5.5 39.3zM362.7 140.3c2.9-2.2 78.2-7.7 92.2-17.9M386.6 143.6c0 .4 1.6 31.2 1.6 31.2l53.3-18.7-1.1-24.9-53.8 12.4zM0 84.4C4.1 77 21.2 50 30.8 41.1c9.3-8.6 12.3-12.6 26.9-19.8s40.1-10.7 51.1-10.7 49.1 5 55.4 19.1c4.2 10.5-17.9 35.6-25.7 44.9s-3.7 11.6-10.4 19.8-11.7 8.6-16.3 15.2c-22.5 72.9-35.1 41-30.9 152.6"/><path class="st2" d="M0 99.7c5.6-.3 32.3-3.5 34.6-3.9 36.2-5.8 99-19.4 104.6-22.2"/><path class="st2" d="M63.9 18.7c-8.6 19.6-22.9 47.1-28.4 77-1.7 5.1-2.4 8.7-9.2 18.9-5.7 9.6-6.2 42.6 9.1 111M337 218.7c7.9 4.9 16.5 9.1 28.6 9.2s82.7-26.5 96.7-50.7c-.6-7.6-10.5-18.6-10.5-18.6"/></g></svg>
