<svg version="1.1" id="Calque_1" xmlns="http://www.w3.org/2000/svg" x="0" y="0" viewBox="0 0 500 375" style="enable-background:new 0 0 500 375" xml:space="preserve"><style>.st1,.st2{fill:none;stroke:#fff;stroke-miterlimit:10}.st2{stroke-width:.5}</style><g id="Calque_2_00000121268921811287486400000010783671781970438044_"><path class="st1" d="M0 239.8s1.8-1.1 2.8-2.9 13.8-51.2 19.1-61.1c1.3-3.3.5-5.1 2-8.8 3.5-8.6 22.2-33.9 37.7-52.5S96.8 69.7 114.9 53c7.8-7.7 19.7-17.5 26.2-20.5 9.9-3.7 15.4-3.7 19.4-3.7s24.1-3 33.6-3.4c33.9-2.3 95.7-1 111.1-.1 7.5-.2 28.6 3.4 34.1 3.3 5.2-.5 16.7 1.9 19.2 3.4 6.1 2.8 29 21.6 45.8 40.5s61.6 74 72.3 95.1c.4 3.2.6 6.9 1.6 8.3 4.7 9.8 18.9 60.3 19.3 61.4s1.8 2.3 2.6 3.2"/><path class="st1" d="M22 175.4c-1.4 9.7 229.3 4.4 232.1 4.8 2.3 0 228.9 5.3 223.7-4.8"/></g><path class="st2" d="M240.2 81.5c3.6.1 17.9.2 18.7 0s1.8-.2 1.7-.9c-.1-.6.1-2.8 0-3.6-.1-.7-1.6-7.7-2.3-8.2s-3.9-1.9-4.5-2.3-1.6-6.9-2.3-7.3c-.7-.4-3.1-.7-3.6 0s-1.1 6.9-1.8 7c-.6.1-4.3 2-4.5 2.6s-2.6 8.2-2.6 9c.1.7-.2 2.6 0 3s.6.7 1.2.7zM51.8 179.9c-23.1 19-47.8 79-51.8 91C3.5 288 23.1 322.6 63 348c20.9 14.5 54.6 25.1 123.2 26.9M447.2 180.3c18.9 13 42.2 62 52.8 91.1-3.3 23.9-42.7 65.3-62.3 76.3-16.5 10-42 25.6-137.6 27.3"/><path class="st1" d="M0 338.5c4.4 7.1 35.9 35.1 40.1 36.4M459.9 375c5-3.5 37.2-32.8 40.1-37.1"/><path class="st2" d="M156.2 181.6s24.4 5.1 25.6 5.1c1.3 0 131.7.7 136.9 0s23.2-5 24.1-5.1"/></svg>
