<svg version="1.2" xmlns="http://www.w3.org/2000/svg" x="0" y="0" viewBox="0 0 500 375"><g id="Calque_2_00000167384706815374372450000016422237926568264108_"><path id="Layer" fill = "none" stroke="#fff" d="M500.1 236.3c-6.6 3.9-29.6 28.2-32.2 64-1.2 16.4-6.1 27.8-7.8 28.2-1.7.4-418.6-5-419.9-5.2-1.3-.2-4.8-6.1-4.1-11.9.7-5.8-5.1-56.6-36-80.2"/><path fill = "none" stroke="#fff" d="M.1 345.8c5.8-1.3 30.8-19.7 35.9-33.2M500.1 346.5c-12.7-5.6-30.1-22.3-34.3-32.1M.1 90.6c51.6-11.1 149-20.9 207.1-18.3 13.2.4 71.6 1.9 124.5 23.2 67.2 24.8 107.3 56.7 111 56 3.7-.6 55.3 7 57.4 7.2M0 174.8c2.7-.9 17.1-1.1 17.7-1.1.6 0 22.8.6 23.9.6 1.1 0 10.8.4 12.3 1.8 1.4 1.5 1 4.6-1 5.9-2 1.3-12.1 1.7-12.4 1.7-.3 0-21.5-.1-23.9 0-2.4.1-14.5-1-16.5-1.7M263 192.8h-24.3s-16.9-.4-18.2-2.8c-1.3-2.4 0-4.9.7-5.7 1.4-1.6 17.7-1.6 17.7-1.6l24 .9s9.5.4 11.4 1.1c1.8.7 3.2 3.1 2 6.1-.6 1.8-13.3 2-13.3 2z"/><path fill = "none" stroke="#fff" d="M419.1 158s-26.4.3-26.9 0-1.5-1.5-1.5-1.5h-6.6s-.3-29.4.5-30.1c.8-.8 11.8-1.5 14.5 0 2.7 1.5 10.8 10.3 10.1 12.4-.7 2.1-4.6 7.5-4.7 8.3 0 .7 14 11 14.6 10.9z"/><path fill = "none" stroke="#fff" stroke-width = ".5" d="M404.6 146.5c-2.6 4.5-11.7 9-13.8 9.8M385 126.4c3.2-.4 1.7 15.5 1.4 18.8-.2 2-.6 7-2 10.9M.1 103.4C56.4 83.6 153.4 77.3 191 77.7c38.5 1.5 74.1 1.3 125.3 18.8 16.1 5 42.6 16.7 68.1 30.1M408.7 140.1c21 12.5 38.3 25.2 43.8 34.5 11.9 31.5-4.1 75.6-7.6 124.6-.7 2.1-11.1 20.8-14.6 29.1M.2 211.4c14 19.7 72 92.5 86.3 112.6"/><path fill = "none" stroke="#fff" stroke-width = ".5" d="M189.7 77.7s4.5 60.2 7 72.7c5.1 15.3 5 115.7 7 132.3.7 4.7-.9 34.2-1.8 42.8"/><path fill = "none" stroke="#fff" stroke-width = ".5" d="M442.6 164c-16-.4-185.1-6.6-202.7-7.3-17.6-.7-102.3-5.9-120-7-17.7-1.1-108.3-9-119.7-10.4"/></g></svg>