<svg version="1.2" xmlns="http://www.w3.org/2000/svg" width="2048" height="1536"><style>.s0{fill:none;stroke:#fff;stroke-linecap:round;stroke-linejoin:round;stroke-width:4.6}</style><path id="Layer" class="s0" d="M233.6 355.5C186.7 400.7 89.3 520.4 70.5 544 11 619-4.8 674.3 23.4 687.9c19 9.1 67.8 18.1 173.8 16.2 85.5-22 227.2-151.6 324.8-239.3-85.4-19.8-213.8-59.7-288.4-109.3-.5-.3-1-.7-1.5-1-72.7-49-36-134.6 21.9-146.3 127.4-25.8 364.1-57.6 439.8-67.1-.6-1.9.9-8.6 2.2-13.4 1.3-4.8-2.2-19.7-8.9-35.6 19.4-1 43.5-.6 58.2 3.5 14.6 4.1 32.4 20.3 50.3 34.3 184.4-23 383.9-37.1 606-33.9 222.1 3.3 542 52.7 646.5 79"/><path class="s0" d="M50.8 570.4c-16.1 14.4-34 35.1-50.7 58.8m0 752.5C25.4 1430.1 81 1506 112.4 1536m282.5 0c27.9-165.9 167.6-288.5 414.8-353.8 247.2-65.3 420.4 51.5 373.2 235.3l-46.7-85.1"/><path class="s0" d="M1066.8 1185.9c22 37.5 72.2 119.6 74.2 177.7 2 58.1-13.8 116.4-61 172.4m968.1-358.3s-843 258.5-857.4 262.9c-14.4 4.4-16.8 1.2-23.4-10 8.3 2.2 15.6-6.6 15.6-13.1 57.8-7.7 247.2-80.5 439.4-146.2 165.6-56.6 332.8-106.3 425.8-122.4m0-533s-55.9 10-263.3 26.5c-472.9 37.5-803.5 25.5-957.2 25.5"/><path class="s0" d="M919.8 668.6c-42.8-30.9-123.5-97.7-154.4-137-30.9-39.3-12.2-55.9 86.2-103.7 240.7-116.9 579.1-170.5 740.3-190.2 161.2-19.7 324-18.8 456.2 5.4"/><path class="s0" d="M2048.1 642.3c-153.5 20.3-391.3 41.3-557.5 50.9-166.2 9.6-492.9 3.8-640 0-53.5-60.2-120.4-126.1-134.7-151.9-14.3-25.8-17.8-67.4 35.8-95.5 219-114.6 476.2-187.1 792.8-228.6 316.6-41.5 503.6 0 503.6 0M578.5 156.4c24.3 9.6 89.4 69.5 83.7 161.1-20.9 40.8-88.9 101.3-140.1 147.2m-245.7-84.5c17.3 18.9 33.5 47.4 40.6 84.5-25.4 66.1-78.8 164.8-123.6 239.6C171 761.2 73.2 824.3 0 861.9"/><path class="s0" d="M.1 775c40.8 27.5 105.4 39.7 152.2 44.8 46.8 5.1 210.6 12.2 239 13.7 28.5 1.5 43.2 10.7 59 23.9 15.8 13.2 44.2 37.1 50.3 43.7 6.1 6.6 11.2 15.3-5.6 30-21.4 18.8-177.5 136.8-236 168.8s-127.7 18.8-170.4-16.3S0 975.3 0 975.3m522.5 343.9s-30-18.5-50.3-34.2c-20.3-15.7-142.9-134.2-213.1-185.1m1081.3 270.3c-62-74.7-194.8-204.1-246.3-248.8-145.5-126.2-177.2-206.8-192.4-247.7-15.2-40.9-44.8-129.5-51.1-180.5m-39.7 212.4c0 20.5-6.7 42-35.4 52.1-28.7 10.1-102.7 25-154.5 23.1-51.8-1.9-57.8-14.2-65.2-41-7.5-26.8-10.1-73.3-11.2-112.4-1.1-39.1 17.5-49.9 33.9-55.1 48.2-15.3 102-17.5 153-16s55.1 32.3 63.7 54.4c12.3 31.3 15.7 74.5 15.7 94.9z"/><path class="s0" d="M1260.7 894.8c25.2-3.6 43.9-4.4 53-4.4 16.2 0 21.1 29.9 7.7 34.9-13.4 5-57.1 16.7-57.1 16.7-.5-3.6-11.3-1.1-26.6 2.2-15.3 3.3-76.3 18.1-91.7 22.8-15.4 4.7-73.8 9.9-86.7 8.2-12.9-1.6-20-34.5 0-42.2 20-7.7 63.1-16.5 82.1-19.5 9.6 10.2 33.8 6.6 52.7 3.6 18.9-3 50.9-8.7 57.4-10.3 6.3-1.7 9.9-2.8 9.2-12z"/><path class="s0" d="M1141.4 913.5c11.6-32.4 54.7-42.4 78.9-43.5 24.2-1.1 33.2 9.3 40.4 24.8m3.5 47.2c-1 9.2-6.5 24.4-29.6 32.2-23 7.8-45.2 12.5-60.2 13.8-15 1.2-25.4-8.1-29.9-20.6m623.5-768c1.5 8.1 4.3 25 4.3 25 20 59.2 79.8 268.2 89.6 411.6 6.7 6.5 8.1 20.3 8.2 26.7 7.1 28.7 16.9 71.7 24.9 88.9 8 17.2 18.6 123.9-16.2 200.6-34.8 76.7-59.1 114.2-56.4 133.5 2.6 19.4 5.8 60 7.9 75.2-21 20.1-46.1 43.6-67.6 64.2m285.4-474c-6.4 3.1-15.4 16-18.5 24.9m18.5 37.5c-20 6.5-57.6 11.8-70 11.1-12.4-.7-8.8-27.6-1.5-33.4 7.3-5.8 34.6-13.7 53-15.2 5.8 3.8 12.5 7.5 18.5 6.5"/><path class="s0" d="M2027.5 818.7c-.1 8.3.6 19.7 20.6 19M561.1 1536c14.9-137.9 231.7-286.8 391.7-248.2 185.1 44.7 107.4 211.9 71.3 248.2m112.6-1211.2c13.3 49.3 64.4 261.1 81.5 343.7m-108-336.3c17.6 69.3 56.4 230.1 80.1 336.9m630.9-445.2c23.9 42.4 89.8 293.5 110.8 405.6m-217.9-402.8c32.3 100.2 64.2 275.2 70.7 415.6"/></svg>