<svg version="1.1" id="Calque_1" xmlns="http://www.w3.org/2000/svg" x="0" y="0" viewBox="0 0 500 375" style="enable-background:new 0 0 500 375" xml:space="preserve"><style>.st1,.st2{fill:none;stroke:#fff;stroke-miterlimit:10}.st2{stroke-width:.5}</style><g id="Calque_2_00000099650990355921141560000016902100444636767673_"><path class="st1" d="M500 336.6c-29.4 2.4-225.1 16-226.5 15.1s5.2-19.8-4.2-34.9c-9.4-15.1-31.6-35.8-59.4-33.5s-52.3 17-65.5 36.3-10.8 32.1-10.8 32.1-110.9 9-115.6 2.4-.9-42.7 2.4-54.2c2-8.8 11.5-6.9 12.9-7.4 1.3-.5 2.3-189.5 11.1-225.1 3.8-19.8 7.2-38.6 14.1-45.7 3.8-3.8 9.4-7.7 28.9-5.7C105.5 17.9 500 52.8 500 52.8"/><path class="st1" d="M146.1 375c-.4-4.9-.5-10.5-.4-16.8.5-19.4 18.2-62.4 60.3-62.4 26.1 0 58 21.1 56.8 63-.2 7.1-1.5 12.3-3.5 16.1M36.4 182.3h4.4L54 193l-2.1 96.7s-2.1 7.1-6.8 7.1-9.3-2.2-12-4.4"/><path class="st2" d="m500 60.2-143.1-14 4 182.8s3.6 52.7-4.3 117.8"/><path class="st2" d="M500 89S144.5 60.9 121.1 60.8c-18 0-24.6 6.6-27.4 15.9-1.8 6.2-3.1 68-3.1 68s34.4 34.4 46.4 35.8 363 11.9 363 11.9M274.2 342.6l-7.4-13.2-9.9-.9M153.1 331.6l-15.9 1M360.1 197.5l-243.9-5.2v10.2l244.2 6.4"/></g></svg>
