<svg xmlns="http://www.w3.org/2000/svg" viewBox="0 0 500 375" style="enable-background:new 0 0 500 375" xml:space="preserve"><style>.st2,.st3{fill:none;stroke:#fff;stroke-miterlimit:10}.st3{stroke-width:.5}</style><g id="Calque_2"><path class="st2" d="M353.9 264.9c0 50.8-36.5 92.5-90.3 98.8-51.3 0-91.2-23.9-94-84.8-.1-60 40.8-99.1 92.1-99.1s92.2 34.3 92.2 85.1z"/><path class="st2" d="m499.9 265.2-130.3 13.7s24.2-50.7-18.7-89.5c-31.2-23.8-73.3-39.4-133.8-11.9-63 31.6-67.1 94.3-58.2 115.7-4.9 7.4-103.7 1.1-122.8-21.4C24.4 257.8 10 226 12 195.6c2.2-10.9 17.6-20 18.8-23.7-.5-5.4-7.4-43.4 8.1-77.5C51 70.9 61.2 70 62.2 67.6s5.8-8.5 15.4-15.4c26.7-17.7 86.5-38.1 130-52.2"/><path class="st2" d="M30.9 171.7c.8 12.8 123.5 1.1 145.4 2.4 22.9-21.3 78.7-48.7 138.7-31.9 55.8 16.9 93.5 76.7 71.5 134.8M177.3 26.8s-38.3 38.7-41 44.7c-2.7 5.9-14.8 38.3-15.1 40.3s-66.5 6.5-76.1 13c1-15.1 8.4-44.7 18.2-53.7 19.3-23 84.9-37.6 114-44.3zM385.8 0s-.3 4.5-3.3 10.3c-4.2 8-18.9 22.3-32.8 26.2-3.4 1-11.3-.5-11.3-.5l-6.1 7.1-15 1.7V0"/><path class="st3" d="M338.3 35.7c-13.2-.6-16-24.6-16.5-35.7M22.1 213c-2.3 1.6 7 33.2 9.6 35.6 3.7 4.9 27.3 11.8 37.6 9 8-4.5 10.9-21.8 9.8-25.1s-5.6-12.2-14.2-15.1c-29-.5-40.5-6-42.8-4.4z"/><path class="st2" d="m156.5 257.8 15.2-2M353.9 264.9s9.7 3.4 15.4 14.3"/><path class="st3" d="M263.5 0s-53.1 56.2-52.7 57.5C207.1 67.9 419.3 41.3 454 33.6c31.8-9 46-14.9 46-14.9"/><path class="st3" d="M300.4 0s-.3 50.4-1.3 54.4c-1 3.9 15.1 82.7 18.3 88.7M177.8 26.6 208.5 0M37.9 96.7c3.1-1.9 8.8-5 14-4.3"/></g></svg>
