<svg version="1.1" id="Calque_1" xmlns="http://www.w3.org/2000/svg" x="0" y="0" viewBox="0 0 500 375" style="enable-background:new 0 0 500 375" xml:space="preserve"><style>.st1,.st2{fill:none;stroke:#fff;stroke-miterlimit:10}.st2{stroke-width:.5}</style><g id="Calque_2_00000004531634964141735090000009848905404697140629_"><path class="st1" d="M500.6 249c-10.7-3.1-20.4-4-37.3 2.1-15.5 5.1-30.6 22.1-40.8 49.7-14 2.5-326.4-7.2-337.4-5.5-1.3-3.4-13.3-27.6-25.1-38.7-8.2-7.7-26.8-18.7-46.7-16.1-11.1 2.1-12.6 4-12.6 4M467.5 153.2c-25.3-21.6-56.1-51.5-65.3-59.6-14.4-12.7-50.1-34-73.1-37.4s-40.4-4.2-52.7-4.7C264.2 51.2-.1 46.9-.1 46.9M500.8 176.5c-4.1-.7-11.7-5.9-21.1-13.3"/><path class="st1" d="M459.2 195.3c-.4-1-2.1-35.1 2.5-39.8 2.5-2.9 9.2-2.5 11.7-1.9s4.8 2.1 5.7 7.2c1 5.5 3.5 25.5.6 31.8-3 6.6-13 5-16.9 4.7-2-.2-3.1-1-3.6-2zM365.7 197.5c.6.4.4 2.6 0 2.9-.7.5-26.4 1-27.6 0s-.3-3.8 0-3.9c.2-.1 26.9.6 27.6 1zM500.6 260.3c-3.4-2.4-19.9-11.2-34.4-10.2M500.6 330.6c-3.1 2.3-11 7.6-24.4 7.5s-26.3-5.2-35-14.7c-8.9-9.8-14.3-17.5-15.9-29.7M62.7 259.4c-7.7-4.9-17.2-8.9-26.8-8.9-14 0-24.6 3-35.3 11.7M77.1 279.8c1.9 8.9 2.5 17.8-1.7 27s-10.1 16.8-23.8 25.3c-11 7.6-23.1 6.2-33.1 4.5-10-1.6-17.8-8.1-17.8-8.1"/><path class="st2" d="M.6 165s294.2 10.5 298.1 10 9.1-.2 10-10-.5-65.8-3.9-72.2c-3.4-6.4-8.4-7.7-12.8-8s-161-5-170.6-5.2S4.4 78.2.5 78.2M500.6 203.3c-9.2-1.4-78.1-8-104.2-14.6-27.7-7-41.1-13.3-44.7-21.4-2.5-5.2-10-59.5-7-68.5 1.7-5.7 38.3.5 46.2 2.3 7.3 1.7 17.1 6.5 22.7 11.4 5.1 4.5 43 38.6 47.1 43.8M500.8 197.7c-2.8-4.2-14.4-16.6-19.8-22.3"/><path class="st2" d="M321.7 300c1.4-9.1 3-45.7 3.6-47.7s3.4-155.1 3.4-166.5c0 0 52.2 2 72.6 14.3 12.5 7.2 55.4 47.6 61.6 54M500.8 238.4c-9.2-2.3-31.6-2.1-42.2 2.7s-33.2 19.2-43.7 60.1"/><path class="st2" d="M469.8 198c-.3 10.2-.4 32.2-3 40.6"/><path class="st1" d="M314.1 197.1c-.4 1-25.8 0-27-.4s-1.6-3.4 0-3.8c1.6-.3 24.6.7 26 .8 1.3.1 1.4 2.5 1 3.4z"/><path class="st2" d="M0 52.6c16.2-.3 272 4.8 290.9 6.1s33.8 3.7 35.9 4 2 21.2 2 23.1"/><path class="st2" d="M148.5 296c-9.4-29.6-7-41.8-4.7-58.8-1.1-19.6-4.5-155.4-2.2-182.3M0 173.3l142 4M0 182.2l142.3 5.3"/></g></svg>
