<svg version="1.1" id="Layer_3" xmlns="http://www.w3.org/2000/svg" x="0" y="0" viewBox="0 0 2048 1536" style="enable-background:new 0 0 2048 1536" xml:space="preserve"><style>.st0,.st1{fill:none;stroke:#fff;stroke-width:4.6183;stroke-linecap:round;stroke-linejoin:round;stroke-miterlimit:10}.st1{stroke-width:2.4266}</style><path class="st0" d="M0 777c32.3-13.3 142.2-54 209.5-68.6 13.1-11.5 21.9-21.2 35.4-27.5l3.4 3.4 21.2-6c149-125.3 354.5-293.5 398-329.8 14.3-25.9 52.8-52.8 97.4-83.7s170.6-122.2 304.4-165.7c67.1-22.7 141-37.3 195.1-39.4 152.7-5.8 533.8 37 783.6 72.5M11.3 1536c3.7-71.1 106.9-298.4 406.5-306.4 279.2-7.4 315.3 169.3 315.3 257.9 0 0 1085.3-241.4 1314.9-296.8"/><path class="st0" d="M707.1 1365.5c-2.6 14.4 13.1 102.7 11.4 118-1.7 15.3 8.3 52.6 8.3 52.6M735.5 1487s7.9 32.1 7.1 49M169.3 718.6c-25.7 7.6-50.7 30.1-56.9 44.1-6.2 13.9 11.1 10.5 23.2 8.4s82.9-14 141.6-52.4 449.3-376.4 483.9-408.5c1.4-5.4 18.5-26.2 18.5-26.2-31.2 7.7-85.2 27.6-112.2 64.6M583.9 889c154.7-32.4 362.6-79.2 476.5-132.3 68.7-32 81.4-56.6 94.7-101 13.2-44.4 29.2-284.8 30.9-327.9 1.7-43.1-21.5-47.3-36.2-48.2-133-8.3-258.7 8.3-356.3 84.7-96.3 75.4-452.7 412.7-606.3 576.4-3.9 4.1-2.1 10.9 3.3 12.5 30.3 8.8 125.6-8.1 260.7-36.7 22-4.7 48.7-10.1 78.7-16.3"/><path class="st0" d="M531.8 616.6h24.5c4.7 0 8.9 2.9 10.6 7.3 15.2 41.1 28.3 209.4 16.6 267.5-1.4 7.1-7.3 12.5-14.5 13.4l-22.5 3c-8 1.1-15.6-3.6-18.4-11.3-21.1-59-22.5-208.1-7.3-271.4 1.2-5 5.8-8.5 11-8.5z"/><path class="st1" d="M541.1 616.6C642.6 526.5 795.3 383.5 860.3 347s150.4-56.6 284.3-46.3c21.1 1.6 27 13.5 25.3 48.5-1.7 35-17.8 221.3-24.4 269.1-6.6 47.8-27.7 97.2-95.9 125.4C927 794.4 651.6 871.4 588 854.4M880.4 336.5l-38.2 475.7M864.1 806.1l32.7-476.9M0 1371.2c113.5-134.2 274.8-228.3 510.7-205 199.7 19.7 270 179.6 275.8 267.2M728.6 1446.1 2048 1157.4"/><path class="st1" d="M685.7 1237.6s114.1-15.9 233.6-33.6C1203.1 1162 2048 996.1 2048 996.1M775.1 1374.9c88.6-14.4 1272.9-262.7 1272.9-262.7"/><path class="st1" d="M1254.5 60.3c14.3 18.2 17.3 132.8 17.9 180.9.6 48.1 7.8 443.8 8.7 465 .9 21.2 10.2 65.7 10.2 97.2s-5.8 101.9-5.2 119.6c.6 17.7 2.9 101 1.7 144.7-.6 20.5 2.3 53.5 9.3 71.3 3.1 7.8 8.2 19.1 8.9 32.7 1.8 33-1.3 74.8-18.7 99.3-1.5 17.4-3.8 42.2-18.6 57"/><path class="st1" d="M1194 1344.2c14.9-14.8 16-40.3 17.5-57.7 17.4-24.5 20.4-66.3 18.7-99.3-.7-13.5-5.8-24.8-8.9-32.7-7.1-17.8-10.4-50.8-9.3-71.3 1-20.2 5.3-37.9 22.1-53.4s42.8-40.8 53.5-51.6M1272.2 226.3c-95.1 1.4-213.5 2.1-299.1 21.6S835.9 296 756.5 368.4s-255.9 231.5-280.1 251C452 638.9 440.1 666 440 688.1c-.1 22.1 15.7 188.2 11.2 228.4-1.3 64.4 31 192.3 54.2 249.2M328.7 679.2c6.1 16.7 34.6 50.1 55.6 62.9M185.2 759.5c-19.6 37.8-40.3 51.2-66.3 74.4S30 910.5 0 944.7"/><path class="st1" d="M0 893.1c13.4-3.9 52.3-13.6 73.3-19.1M269.5 678.3c-24.4 14.9-56.2 34.7-63.9 74.7M2048 275c-235.7-19.5-526-36.8-585.9-36.8s-78.9 19.9-83.4 63c-9.5 90.7-18.4 312.4-17.1 355.3 1.3 42.9 12.8 65.4 86.5 60.9s480.3-37.2 600-48.1M2048 159.8c-159.1-21.1-608.3-77.5-783.1-59.6"/><path class="st1" d="M2007 154.5c6.9 27.2 12.1 87 9.1 117.9M2012 272c0 44.5 2.8 300.3-14 401.7M2001.6 673.4c3.4 6.9 7.5 25 7.5 40s-6.7 72.8-15.7 104.9c-4.1 14.6 0 31.1 0 50.6s-1.7 56.2-14.2 86.9c-4.1 10.1-1.9 19.3 1.1 25.6 3 6.2 1.7 16.5 4.6 27 5.6 15.4 10.5 33.7 10.5 33.7-.9 22.1-11.3 61.9-38.5 89.2-.2 11.6-8.7 39.5-26.7 51.8"/><path class="st0" d="M78 1536c6.4-73.2 74.4-223.2 218.1-289.3M512.5 1235.1c58.6 21.3 194.3 106.7 154.1 300.9"/><path class="st0" d="M30.2 1536c12.7-19 30.2-63.5 30.2-63.5 12.3-4.5 37.8-12.6 37.8-12.6M651.2 1361.4c13.5-2.1 50.8-6.1 50.8-6.1M187.1 1536c12.5-61 105-179.7 266.6-161.1 98.5 11.3 140 94.4 129.6 161.1"/><path class="st1" d="M1094.7 857.7c41.4-7 123.6-14.4 135.7-14.4 3.7 0 5.9 4.6 5.8 10.6-.1 6.1-.3 10.4-8.3 12-8.1 1.6-109.9 9.2-132 9.7-6.6.1-7.4-16.9-1.2-17.9z"/><path class="st1" d="M1131 873.7c.8 6.4 10.2 16 23.3 16.4 13.1.4 26.7-.6 35.3-2.8 8.6-2.2 16.3-11.1 17.9-19.3M1207.5 844.7c-2.4-8-7.8-16.2-25.3-16s-28.3 2-35.9 5c-7.6 3-14.8 10.5-15.4 18.8"/></svg>