<svg version="1.1" id="Calque_1" xmlns="http://www.w3.org/2000/svg" x="0" y="0" viewBox="0 0 500 375" style="enable-background:new 0 0 500 375" xml:space="preserve"><style>.st1,.st2{fill:none;stroke:#fff;stroke-miterlimit:10}.st2{stroke-width:.5}</style><g id="Calque_2_00000054235324746674442700000002509942948676854450_"><path class="st1" d="m500 311.3-265.9 30.4s.4-7 0-11.9c-.4-4.8-5.3-33-30.8-44.4s-51.5-15.4-83.2 0-35.2 54.1-26.4 65.1c4.6 6.6-36.9 1.7-46.2 0-7.3-1.3-26.2-9-30.4-13.1-4.9-4.8-16.3-33.4-12.2-49 2-7.8 9.6-13.3 13-17.1-.5-9.4 3.9-51.4 14-62.4 14.4-13.4 82.6-37.6 98.4-38.5 13.8-7.8 102.6-86.7 107.3-91.9 16.7-13.2 52.1-35.7 70-44.4 12.7-6.3 39.8-14.1 52.8-15.4 17.3-1.6 126.4.2 139.6 3.1"/><path class="st1" d="M103.9 197.4s-20.7 18-24.2 25.1-8.8 21.5-8.8 21.5-38.3 7-42.2 3.5c-1.2-3.3 3.2-25.2 7-30.8 6.6-6.1 64.3-19.3 68.2-19.3zM194.5 205.3c-1.9-2.2-3.4-4.6-3.4-6.7s-2.9-52.4 2.3-54.6 8.1-.5 8.9 0c.9.5 4.8 49.4 3.5 56.3-.6 4.6-3.4 4.9-4 5-.6.1-6.3 1.1-7.3 0zM317.7 202.2v3.6s32.7.6 34.7-1.2c1.9-1.8 0-4.5 0-4.5s-33 .9-34.7 2.1zM108.7 375c-3.6-6.4-8.9-16.4-8.9-31 0-18.1 7.4-36.2 17.9-46 10.1-9.5 25.3-19.7 39.8-20.8s33.2.3 47.5 14.9 15.8 31.3 16.4 42.1-1.7 19-4.9 25.4c-3.1 6.4-7.4 12.8-9.7 15.5"/><path class="st2" d="m129.5 170.5-1.9 3.9s14.8-5.9 23.6-12.4c8.2-6 49.2-42.8 59-51.2 9.7-8.4 40.4-33.8 39.8-37.4-2.4-.5-7.8 2.7-12.7 5.5M26.2 221.1l7.6-.3"/><path class="st2" d="M104.5 197.2s15.7-13.6 17.4-15.4c1.9-2 4.6-5.2 5.7-7.4M196.1 206.1c-36.4 6.6-68.2 11-70.6 6.5 0 0 44.5-48.1 51.8-53.9 1.8-1.5 7.3-6.2 14.5-12.6M195 143.3c21.8-19.5 55.8-50.1 58.7-52.8 8.1-7.5 29.8-18.1 57.4-20 19.8-1.2 28.1-.7 29.3 2.9 2.9 8.1-1.9 72.8-7.3 87.2-4.2 11-17.5 18.7-26.6 21.9-5 1.7-55.9 13.4-102.5 22.2M500 59.5s-89.3-3.8-94.1-1.5-13.4.4-16.2 11.8-5.3 85-5.3 88.8-.8 11.7 10.6 12.9c11.4 1.3 105-3.8 105-3.8"/><path class="st2" d="M360.1 327.3c11.5-42.6 4.9-75.1 4.9-94.5s-1.5-175.5-1.5-175.5-70.1 2.7-85 10.5c-25 11.5-71.9 56.1-100.7 86.1-5.3 52 8.1 102.7 8.5 108.1 6.5.6 29.9 9.3 41.5 23.6 13.4 15.6 19.2 33.5 18.1 54.8M13.8 306.9c11.5 4.7 17.1 5 20.1 7.6 1.5 3 0 7.2-2.4 9.7-1.9 1.7-12.5-2.3-14.6-4.4-2.1-2-3.1-10.5-3.1-12.9zM18.2 271.4c-1 2.4.5 11.1 17.6 11.2 28 .1 63.3.4 64.4-.1 5.4-1.2 30.8-29.3 86-20.6"/></g></svg>
