<svg version="1.1" id="Calque_1" xmlns="http://www.w3.org/2000/svg" x="0" y="0" viewBox="0 0 500 375" style="enable-background:new 0 0 500 375" xml:space="preserve"><style>.st2,.st3{fill:none;stroke:#fff;stroke-miterlimit:10}.st3{stroke-width:.5}</style><g id="Calque_1_00000082363949102551600830000006860509419759499930_"><path class="st2" d="M115.6 0c-7 17.8-31.6 67.5-35.1 71.6s-30.4 20.4-35.6 35-13.4 61.9-13.4 64.9c0 2.9-1.8 39-2.1 51.1-7.1 10-10.8 13.5-9.1 28.7 2.8 26.8 12.4 60.8 24.6 76s45.9 17.7 48.1 18c1.1.1 80 7 157 6.9 78.7-.1 155.5-7.2 162-8 12.7-1.7 34.8-4.7 43.4-16.9 8.6-12.2 26.5-65.5 25.4-85.7 0-11.6-10.2-14.9-10.2-19.9s0-40.1-2.5-51.4c-2.5-11.3-6.4-45.6-13-64.1s-28.5-24.6-36.5-37-34-69.2-34-69.2"/><path class="st2" d="M122.8 260.9c-12.7-6.9-33.6-57.8-33.6-68.2s20.2-46.1 37.7-52.3c11.6-4.6 237.4-4.6 248.2.8 16.1 7.7 34.3 39.1 35.5 48.6s-15.4 54.9-33.2 71c-14.5 14.1-226.4 17.5-254.6.1zM44 109.2c2.4 10.2 31.7 20.4 39 24.3 7.4 3.9 6.9 16.4 5.2 21.3-1.7 4.9-14.1 26.1-20.7 30.5-6.1 5.4-28.2-3.8-31.3-11.6-2.5-4.3-2.4-11.6-2.5-16.9M455.8 108.3c-1.2 4.6-4 10.8-35.9 23.6-10.6 4.5-9.6 17.7-9.2 20.7.8 7.2 17.8 31.6 23.8 34.1s29-7.7 30-13.8c1-3.1 1.5-14.2 1.2-16.5M414.2 61.6c.6-3.2 2.9-9 5.3-10.6 2.7-2 14.2-4.2 23.1-.8 8.1 4.7 10 39.4 6.7 46.1M86 62.2c-.8-2-1.9-10.1-8.2-12.9-4.3-1.3-17.1-2.4-22.5 2.2-7.4 6.3-4.8 43.3-4.5 45.8"/><path class="st3" d="M168.5 288.1h162.4l-1.1 29.2H170zM119.7 0S89.2 61.6 89.2 67.1c-.1 5.5-4.8 7.6 21.1 8.6s274.6 0 280.6 0 25.6 3.4 17.8-12.3S379.9 0 379.9 0M479.3 257.7c-4 6.2-6.9 13.2-23.8 23.1-10.3 4.2-2.2 24.1-.5 29.4 1.3 1.1 15.3-18.2 16.4-21.7M21.2 259.3c5 6.5 16.4 18.5 23.4 21.7 7.2 4.2 4.4 14.7 1.8 26.8-2 11.7-20.4-24.6-20.4-24.6M29.3 222.6C31 235.7 58.5 242 110 245.2M389.9 244.9c56.2-3.6 80.6-10.6 80.6-22.6"/></g></svg>
