<svg width="1260" height="1094" fill="none" xmlns="http://www.w3.org/2000/svg"><g clip-path="url(#a)" stroke="#fff" stroke-width="1.001" stroke-miterlimit="10"><path d="M1090.69 584.24c0 243.867-186.91 459.1-465.422 474.2-263.978 14.48-470.158-114.851-484.692-407.176-.676-287.92 210.236-475.461 474.552-475.461 264.316 0 475.562 164.57 475.562 408.437Z"/><path d="m1475 621.685-216.32 21.083-87.2 8.496s124.72-243.237-96.33-429.52C914.258 107.52 697.262 32.629 385.288 164.789 176.404 262.336 93.256 421.557 72.3 550.256c-11.492 71.429-3.718 133.419 12.844 169.92C72.3 738.427-67.97 739.371-215 721.435"/><path d="m72.976 550.256 78.416-9.755m939.298 43.739s50.03 16.363 79.43 68.597"/></g><defs><clipPath id="a"><path fill="#fff" d="M-215-86h1690v1180H-215z"/></clipPath></defs></svg>
