<svg version="1.1" id="Calque_1" xmlns="http://www.w3.org/2000/svg" x="0" y="0" viewBox="0 0 500 375" style="enable-background:new 0 0 500 375" xml:space="preserve"><style>.st2{fill:none;stroke:#fff;stroke-miterlimit:10}</style><g id="Calque_1_00000041272386307423283480000015402734387983060354_"><path class="st2" d="M3.2 376.5c-1.4-7.4-6.4-34 8.6-64 3.2-20.8 9.1-61.5 12.4-70.3 13.3-30.2 34.5-51 44.4-67.9 5.2-8.5 44.1-105.6 49.4-114.6 2.8-6.6 12.1-22.1 26.2-27.7 51.4-17.4 179.3-14.4 214.8 1.2 11.1 5.3 19.3 16.8 25.3 29.5 6 12.6 43.4 106.1 47.1 112.2 5.9 10.5 35.5 44.5 44.7 68 3.6 10.6 10.3 30.7 13 71.5 3.7 7 10.4 36.6 10.4 41.7s-3.4 16.6-3.4 18.8"/><path class="st2" d="M82.7 375c4.2-10.5 20.4-32.2 26.3-34.2 12.6-4.2 72.7.5 141.8 0 66.9-.5 133.3-2.7 138.6 0 10.7 5.6 27.9 34.1 27.9 34.1M76.3 157.4c-.5-4.5-5-13.9-7.4-15S49.8 139 43 143.8c-7.2 5.1-9.4 38.6-5.1 49 4.8 4.9 11.3 6.1 13.1 6.1M423.7 157.6c.7-5.2 4.3-12.8 6.5-14.7 3-2.5 23.7-3 28.1 1.5 5.9 8.4 7.6 41.4 4.1 47.5-3.5 6.1-13.5 6.8-14.1 6.8M11.8 312.6C1.3 340.9 28.4 363.9 38.4 365s30.7-19.6 29.3-38.3c-1.7-14.5-3-18.1-7-21.8-4-3.7-43.7-31.3-38.4-55.8M489 314.5c4.4 25.5-6.6 41.7-24.9 50.7-15.9 1.6-29.3-23.6-31.1-29.7-1.7-6.1-2.3-19.7 1.9-25.5 10.9-13.9 48.8-35.7 42.3-63.8"/><path d="m128.3 65.8-12 8s-39.8 100.3-40 103.1c-.2 2.8-9.9 18.9 21.7 20.7s287.7-.3 301.5-.7c19.1-.4 30.1-6.7 22.5-25.3s-38.6-97.1-38.6-97.1l-12.5-8.8c0 .1-87.8-14.2-242.6.1z" style="fill:none;stroke:#fff;stroke-width:.5;stroke-miterlimit:10"/></g></svg>
