<svg xmlns="http://www.w3.org/2000/svg" viewBox="0 0 500 375" style="enable-background:new 0 0 500 375" xml:space="preserve"><style>.st2,.st3{fill:none;stroke:#fff;stroke-miterlimit:10}.st3{stroke-width:.5}</style><g id="Calque_2"><path class="st2" d="M0 267.9c4.1 3.8 15.7 18 24.2 61.1 1.1.2 451.6-7 456.5-7.9 1.2-7 6.6-28.8 19.2-46.4"/><path class="st2" d="M500 350.7c-4.8-4.6-18-25.5-14.4-47.6M414.7 322.6c4.4 4.7 24.4 5.4 30.2-.6M0 362.2c7.7-3.1 21.9-27.1 24.2-33.2M2.4 134.4c9.6-7 67.6-51.3 72.8-54.8 5.3-3.6 45.8-33.8 94.9-43s329.8-9 329.8-9M114.4 191.4s32.9-.3 33.9-.5c1-.3 1.5-3.6.7-4.7s-33.2.2-33.7.8c-.7.7-1.8 1.5-.9 4.4z"/><path class="st2" d="M-.5 131c1 .6 3 1.9 3.9 6.9.9 5.1-.7 24.6-.8 25.2-.1.6 2.2 1.2 3.8 1.2 1 0 1.7 1.2 1.7 1.6s-.5 22.7-.5 22.7-7.5 1.1-8.1 1.3"/><path class="st3" d="M164.3 327c-3.2-17.1-3.8-30.3-2.8-32.5 1.9-6.3 3.8-29.3-.4-37.8-.7-12.6 7.3-182 6.7-192.5-41.6.8-80.4 10-90.9 17.7s-72.2 52.8-73.5 56"/><path class="st3" d="M7.8 188.8c5.8-.8 62-8.2 69.2-10.5s48.5-11.2 54.6-21.2c6.2-6.5 15.1-50.7 17.3-71 1.4-12.8-4.8-10.2-12.4-10.1-4.8.2-44.1 3.2-62.9 14.8s-70 51-70 51M500 56.5s-270.4 5-279.1 5.3c-10 .3-24.2-2.5-27.7 13.9s-8.8 68.8-7 72.4c1.8 3.5-1.3 11.9 15.4 12.3 16.7.4 298.4-8.8 298.4-8.8"/></g></svg>