<svg xmlns="http://www.w3.org/2000/svg" viewBox="0 0 500 375" style="enable-background:new 0 0 500 375" xml:space="preserve"><g id="Calque_2"><path fill = "none" stroke="#fff" stroke-miterlimit="10" d="m468.3 0-10.4 159.4 13.6 1.5 7.9 3.7s0 9.7-1.5 9.9c-1.5.2-10.9-.1-11.9 1.3-.9 1.4-4.7 23.4-3.9 24.8.8 1.4 12.6 1.4 13.5 1.8s6.9 5.3 6.8 6.4-2.8 39.7-3.5 41.5c-.7 1.8-.7 10.7-10.6 12.6-9.9 1.9-176.4 2.1-179.2-1.3-2.8-3.4-7.7-32-15.8-44.5-8.1-12.5-42.7-64.9-109.3-69-68.1.1-89.9 46.2-93.8 66.7-6 31.2 13.2 47.1 15.1 47.5 1.9.5-85.5-3.9-85.5-3.9" transform="matrix(-1 0 0 1 500 0)"/><path fill = "none" stroke="#fff" stroke-miterlimit="10" d="M271.8 270.8c0 48.8-30.5 85.2-85.6 85.2-47.3 0-91-43.1-91-88.9-3.5-56.7 43.7-88.9 91-88.9 54.3.9 85.6 41.8 85.6 92.6zM432.4 0l-7.1 147.3s.5 12.6 11.3 14.1 21.3-2 21.3-2" transform="matrix(-1 0 0 1 500 0)"/><path fill = "none" stroke="#fff" stroke-miterlimit="10" d="M69.6 261.6C57 246 52.3 233.1 53.8 219c1.4-14.1 18.2-80.5 86-89.3 65.4-8.4 88.1 16.2 96.5 19.2 3.3 1.6 189.1-1.7 189.1-1.7" transform="matrix(-1 0 0 1 500 0)"/><path fill = "none" stroke="#fff" stroke-miterlimit="10" d="M85.5 262.3c-.5-3.3-2.5-8.6 10.4-13.5M266.9 237.5l15.1.5" transform="matrix(-1 0 0 1 500 0)"/><path d="M482.7 208.7c-5.1.4-19.6 2.1-20.4 1.1s-1.1-6.6-.3-10.9" style="fill:none;stroke:#fff;stroke-width:.5;stroke-miterlimit:10" transform="matrix(-1 0 0 1 500 0)"/></g></svg>
