<svg version="1.1" id="Calque_1" xmlns="http://www.w3.org/2000/svg" x="0" y="0" viewBox="0 0 500 375" style="enable-background:new 0 0 500 375" xml:space="preserve"><style>.st1,.st2{fill:none;stroke:#fff;stroke-miterlimit:10}.st2{stroke-width:.5}</style><g id="Calque_2_00000103239144711065722410000001238380177540528006_"><path class="st1" d="M0 336.6c29.4 2.4 225.1 16 226.5 15.1s-5.2-19.8 4.2-34.9 31.6-35.8 59.4-33.5 52.3 17 65.5 36.3 10.8 32.1 10.8 32.1 110.8 8.9 115.5 2.3.9-42.7-2.4-54.2c-2-8.8-11.5-6.9-12.9-7.4s-2.2-189.4-11-225c-3.8-19.8-7.2-38.6-14.1-45.7-3.8-3.8-9.4-7.7-28.9-5.7C394.5 17.9 0 52.8 0 52.8"/><path class="st1" d="M353.9 375c.4-4.9.5-10.5.4-16.8-.5-19.4-18.2-62.4-60.3-62.4-26.1 0-58 21.1-56.8 63 .2 7.1 1.5 12.3 3.5 16.1M463.6 182.3h-4.4L446 193l2.1 96.7s2.1 7.1 6.8 7.1 9.3-2.2 12-4.4"/><path class="st2" d="M0 89s355.5-28.1 378.9-28.2c18 0 24.6 6.6 27.4 15.9 1.8 6.2 3.1 68 3.1 68S374.9 179 363 180.3 0 192.2 0 192.2M225.8 342.6l7.4-13.2 9.9-.9M346.9 331.6l15.9 1"/></g></svg>
