<svg version="1.1" id="Calque_1" xmlns="http://www.w3.org/2000/svg" x="0" y="0" viewBox="0 0 500 375" style="enable-background:new 0 0 500 375" xml:space="preserve"><style>.st1,.st2{fill:none;stroke:#fff;stroke-miterlimit:10}.st2{stroke-width:.5}</style><g id="Calque_2_00000120519471958646030570000004160693304517345174_"><path class="st1" d="M0 358.3 14.8 375M306.2 47.3c-28.6-13.6-50.1-21.4-56.2-22.7-14.4-2.9-37.3-8.2-47.6-1.1C185.4 34 30 130 17.4 139.1S0 162.3 0 162.3M449.6 375c-1.1-9.1-4.3-29.3-6.1-30s-10.1-3.6-10.1-3.6-4.4-150.3-27.5-228.5c-4.9-8.5-16.5-18.2-31.2-27.9M190 375v-77.5l6.1-7 21.6-8.8h13.5l13.7 12.7 1.7 80.6M377 375s-5.7-89.1-13.4-101.4c-1.4-23.9-10.5-151.6-16.3-162.4 5.8-8.3 3.9-17.5 0-36.8M431.7 375c1.1-4.8 2-25.7 1.7-33.6"/><path class="st1" d="m433.4 348.5 8.7 2.2 1.4-5.7M446.1 375c-.8-8.1-3.3-21.9-4-24.3M243.6 293.3c0-20.1-5.9-241.6-6.2-251.8s8.2-10.9 18.4-7.8 128 51.6 150.1 79.2M377.9 302l.4 5.4s3.3.4 4.4 0 14.7-4.7 15.2-7.2c.4-2.5.8-5 0-5.4-.8-.3-1.8-.9-3.6 0-1.9.9-16.5 5.3-16.4 7.2z"/><path class="st2" d="m0 245.4 131.2 17.4s28.6-23.5 32-44.3 10.6-108.6 7.1-113.7c-3.4-5.1-5.1-8.2-15.3-4.4-10.2 3.7-141.6 63.3-146 66.7s-4.4 12-4.8 13.6S0 206.6 0 206.6M265 85.4c-8.9-.1-10.9 2.4-11.2 7.5s3.1 161.4 3.4 165.4c.3 4.1 1.7 21.8 41.9 29.3 40.9-6 99.3-23.9 106.6-25.7 6.9-5.8 11.2-12 11.2-15.8 0-3.7-2.5-97.4-10.9-107.6s-131.8-53-141-53.1zM315.4 58.9c-1.2-3.7-3.9-8.8-6.5-10"/><path class="st2" d="M372.3 87.7c5.1-5.3 6.4-13.9 6.1-16.6s-4.3-7.6-5.4-8.9c-1.2-1.4-22-14.9-26.8-17.2s-14.1-2.2-19.1-2.1-21.3 3.7-21.1 4.7c.2.1 3.2 1.5 3.2 1.5"/></g></svg>
