<svg version="1.1" id="Calque_1" xmlns="http://www.w3.org/2000/svg" x="0" y="0" viewBox="0 0 500 375" style="enable-background:new 0 0 500 375" xml:space="preserve"><style>.st1,.st2{fill:none;stroke:#fff;stroke-miterlimit:10}.st2{stroke-width:.5}</style><g id="Calque_2_00000012470830290274663210000002632316688772314779_"><path class="st1" d="m0 217.4 78.8 46.1M429.8 0l-2.9 190.4L437 192s4.4 46-2.2 59.1-32.1 34.3-51.4 47.1c-19.3 12.8-92.3 56.9-114.9 55.5s-107.3-44.1-119.7-53.3c-10.3-13.3-27.2-55.6-39-74.8-8.4-13.6-19-28.8-34.7-20.4-11.6 9.3-8.6 37.1-4.4 43.4 2.9 4.1 8.6 8 8.6 8"/><path class="st1" d="M245.8 68.6 250 242l-14.4 4h-33.2s-7.3-4-7.7-14.6-5.5-160.9-5.5-160.9l6.2-10.2L215.6 50h15.3l14.9 18.6zM241.8 0v63.7M364.8 0v95.6s3.3 3.3 4 14.6 4.7 107.4 1.5 130.2c-3.3 22.7-12.8 26.4-12.8 26.4M377 126.9c-.9 1-.4 5.6 0 5.8.4.3 19.1.5 19.6 0s1-4.4.6-5c-.5-.6-19.2-2.1-20.2-.8z"/><path class="st1" d="m244.5 243.5 16.9 5s6.3 73.3 10.1 77.5c3.8 4.2 10.8 7.1 22.6 3.5 16.1-4.9 136.9-64.3 139.3-85.4s1.1-49.5 1.1-49.5l-9-1.3 1.4-2.9"/><path class="st1" d="M267.8 308.9c32.9-12.4 129.7-61.7 137.3-67.1 7.5-5.3 16.7-18.2 17.9-28.6 1.3-10.4 2.4-20 2.4-20M168.6 311.7c-1 9.3.3 24.3-12.2 33.9-10 8-25.1 11.8-29.2 13.1s-12.3.2-21.8-8.8c-7.4-7-12.5-15.4-18.4-33.9-4.3-13.6-10.8-38.5-7.4-61.1s12.8-26.5 16.5-28.3 11.7-3.3 11.7-3.3M0 226.9c1-.1 3.4-3.8 3.3-7.6"/><path class="st2" d="M272.8 353.4c-7.8.1-17-2.6-20.1-10.8-6.1-13.7-14.1-63.6-16.2-87.9l24.9-6.3M236.5 254.8c-13.1 1.6-37.7-2.6-41.2-11.7-1.3-3.2-.5-11.7-.5-11.7M256.6 0s1.7 36.2 1.8 40.2c.2 5.9 6.3 28.1 40 43.4 43.3 7.6 102.8 19.4 108.2 18.5s13.5-5.4 14.3-15c.6-7.2 1.6-82.1-1.1-87.2M0 114.5s127.4-44.2 139.5-53.4 14.5-33.3 14.8-43.2c.4-9.2-.2-17.9-.2-17.9M0 26.6 24.6 0"/></g></svg>
