<svg version="1.1" id="Layer_3" xmlns="http://www.w3.org/2000/svg" x="0" y="0" viewBox="0 0 2048 1536" style="enable-background:new 0 0 2048 1536" xml:space="preserve"><style>.st0,.st1{fill:none;stroke:#fff;stroke-width:4.6183;stroke-linecap:round;stroke-linejoin:round;stroke-miterlimit:10}.st1{stroke-width:2.4266}</style><path class="st0" d="M0 337.6c69.6-59.8 138.9-100.5 260.2-124S1291.1 45.8 1597.6 0M0 1259.7l1185.4 200.8 6.3-9.7-3.4-35 27.9-55.6c24.2-.9 52.1 0 52.1 0"/><path class="st0" d="M1238.7 1536c-9.8-48.5-10.2-171.5 102.1-253.7 110-80.5 278.4-28.5 357.4 74.1 79.1 102.6 77.1 179.6 77.1 179.6"/><path class="st0" d="M1313.8 1536c-11.8-60.8 41.8-169.8 172.8-153.1 123.2 15.7 171.4 104.6 183.1 153.1"/><path class="st0" d="M1832.7 1536c6.4-132.7-125.2-297.8-333.9-327.8S1170 1321 1188.3 1415.7c0 0-1039.8-164.7-1188.3-188"/><path class="st1" d="M1139.1 1407.9c-27.4-52.4 61-205.9 191.2-240.5 130.2-34.6 299.8-16.9 432.4 107.7s136.6 187.4 143.9 260.9"/><path class="st0" d="M1737.6 1416.2c25.8 3.6 73.4 13.2 73.4 13.2M0 449.5c22.3-5 54.9-7.7 64.5-8.6s10.9 8.6 10.9 31.8S66.5 647.9 63 680.8c-3.6 32.8-4.9 71.2-63 96.1"/><path class="st1" d="M2048 169.1c-27.4-13.9-68.2-12.7-243 4.1S438.4 324 265.1 356.1c-26.8 5-68.1 11.5-72.1 58.1s-14.5 245.7-11.7 288.3c2.8 42.6 7 62.1 77.4 61.4s1521.1-18.1 1556.1-19.5c39.9-1.6 61.7-10.3 99.9-32.1 37.4-21.4 86.3-53.4 133.3-88.9M133 251.6c-12.3 25.4-15 104.9-15 166.3s9.9 340.6 8.1 350.1c-1.8 9.4-8 23.3-8.1 41.2-.1 17.8.9 71.3 2.4 80.6 1.4 9.3 8.8 25.7 8.6 31.7-1.4 34.9.8 94.8 4.1 128.4.6 5.7-11.9 23.9-9.4 39.9s5 48.1 9.5 63.8c4.5 15.7 11.9 32.5 11.6 48.1 5 25.7 4.4 34.9 24.5 52.6"/><path class="st1" d="M118 1246.3c-13.9-10.1-19.5-18.8-24.5-44.5.4-15.7-7.1-32.5-11.6-48.1-4.5-15.7-7-47.8-9.5-63.8s10-34.2 9.4-39.9c-1.2-11-4-34-1.7-39.7 2.4-5.8 24.8-31.9 48.4-48.6M0 402.8c24.7-6.7 83.5-21 118-28.1M126 276.2c76.1-27.8 160-41 259-57.5S1424.3 62.5 1862.1 0"/><path class="st1" d="M842.4 149.6c-3.8 34.4-8.9 126-5.1 132.5-.9 43.9-8.8 384.5-4.9 475-7.7 27-9.3 98.6-8.9 118.5.4 19.9 5.5 51.2 4.3 66.8-1.2 15.6-6 60.5-4.3 91.4 1.6 30.9 7.1 63.3 4.7 75-2.3 11.7-5.1 35.5-5.1 45.3 0 9.8 6.2 52.7 6.2 64.4 0 11.7 16.8 65.2 1.6 82-1.2 21.5.3 43.9 11.5 60.4"/><path class="st1" d="M1252.6 1204.2c-129.9-23-343.9-43.8-429.5-50.2-85.6-6.4-823.1-75.4-823.1-75.4M0 1183.1s1020.5 136.4 1140.4 165.5M1711.8 1233.7c85 .7 225.3 14.5 336.2 30.3M1889.5 1444.3l158.5 16.1M0 849.8c4.4-2.3 17-2.3 27.7-1.9s42.9.6 47.6.8 9 1 9 5.8v6.4c0 2 .1 4.3-6.6 4.5-6.7.1-64.3 1.4-77.8-4.2"/><path class="st1" d="M26 847.9c.1-5.6 9.4-14.5 25.2-14.5 13 0 17.8 11.4 17.3 15.2M26.4 865c1.3 6.3 6.6 13.3 20.9 13.8s20.2-6.1 21.9-13.1"/></svg>