<svg version="1.2" xmlns="http://www.w3.org/2000/svg" width="2048" height="1536"><style>.s0{fill:none;stroke:#fff;stroke-linecap:round;stroke-linejoin:round;stroke-width:4.6}</style><path id="Layer" class="s0" d="M.1 132.2C249.9 96.7 631 53.9 783.7 59.7c54.1 2.1 128 16.7 195.1 39.4 133.8 43.5 259.8 134.8 304.4 165.7 44.6 30.9 83.1 57.8 97.4 83.7 43.5 36.3 249 204.5 398 329.8l21.2 6 3.4-3.4c13.5 6.3 22.3 16 35.4 27.5 67.3 14.6 177.2 55.3 209.5 68.6M.1 1190.7c229.6 55.4 1314.9 296.8 1314.9 296.8 0-88.6 36.1-265.3 315.3-257.9 299.6 8 402.8 235.3 406.5 306.4"/><path class="s0" d="M1341 1365.5c2.6 14.4-13.1 102.7-11.4 118 1.7 15.3-8.3 52.6-8.3 52.6m-8.7-49.1s-7.9 32.1-7.1 49m573.3-817.4c25.7 7.6 50.7 30.1 56.9 44.1 6.2 13.9-11.1 10.5-23.2 8.4-12.1-2.1-82.9-14-141.6-52.4-58.7-38.4-449.3-376.4-483.9-408.5-1.4-5.4-18.5-26.2-18.5-26.2 31.2 7.7 85.2 27.6 112.2 64.6m83.5 540.4c-154.7-32.4-362.6-79.2-476.5-132.3-68.7-32-81.4-56.6-94.7-101-13.2-44.4-29.2-284.8-30.9-327.9-1.7-43.1 21.5-47.3 36.2-48.2 133-8.3 258.7 8.3 356.3 84.7 96.3 75.4 452.7 412.7 606.3 576.4 3.9 4.1 2.1 10.9-3.3 12.5-30.3 8.8-125.6-8.1-260.7-36.7-22-4.7-48.7-10.1-78.7-16.3"/><path class="s0" d="M1527.3 625.1c15.2 63.3 13.8 212.4-7.3 271.4-2.8 7.7-10.4 12.4-18.4 11.3l-22.5-3c-7.2-.9-13.1-6.3-14.5-13.4-11.7-58.1 1.4-226.4 16.6-267.5 1.7-4.4 5.9-7.3 10.6-7.3h24.5c5.2 0 9.8 3.5 11 8.5z"/><path class="s0" d="M1460.1 854.4c-63.6 17-339-60-461.6-110.7-68.2-28.2-89.3-77.6-95.9-125.4-6.6-47.8-22.7-234.1-24.4-269.1-1.7-35 4.2-46.9 25.3-48.5 133.9-10.3 219.3 9.8 284.3 46.3s217.7 179.5 319.2 269.6m-339.3-280.1 38.2 475.7m-21.9-6.1-32.7-476.9m110.3 1104.2c5.8-87.6 76.1-247.5 275.8-267.2 235.9-23.3 397.2 70.8 510.7 205m-728.6 74.9L.1 1157.4"/><path class="s0" d="M1362.4 1237.6s-114.1-15.9-233.6-33.6C845 1162 .1 996.1.1 996.1M1273 1374.9C1184.4 1360.5.1 1112.2.1 1112.2"/><path class="s0" d="M779.4 1328c-14.8-14.8-17.1-39.6-18.6-57-17.4-24.5-20.5-66.3-18.7-99.3.7-13.6 5.8-24.9 8.9-32.7 7-17.8 9.9-50.8 9.3-71.3-1.2-43.7 1.1-127 1.7-144.7.6-17.7-5.2-88.1-5.2-119.6s9.3-76 10.2-97.2c.9-21.2 8.1-416.9 8.7-465 .6-48.1 3.6-162.7 17.9-180.9"/><path class="s0" d="M760.5 978.2c10.7 10.8 36.7 36.1 53.5 51.6 16.8 15.5 21.1 33.2 22.1 53.4 1.1 20.5-2.2 53.5-9.3 71.3-3.1 7.9-8.2 19.2-8.9 32.7-1.7 33 1.3 74.8 18.7 99.3 1.5 17.4 2.6 42.9 17.5 57.7M775.9 226.3c95.1 1.4 213.5 2.1 299.1 21.6 85.6 19.5 137.2 48.1 216.6 120.5s255.9 231.5 280.1 251c24.4 19.5 36.3 46.6 36.4 68.7.1 22.1-15.7 188.2-11.2 228.4 1.3 64.4-31 192.3-54.2 249.2m176.7-486.5c-6.1 16.7-34.6 50.1-55.6 62.9m384.3 202.6c-30-34.2-92.9-87.6-118.9-110.8-26-23.2-46.7-36.6-66.3-74.4"/><path class="s0" d="M2048.1 893.1c-13.4-3.9-52.3-13.6-73.3-19.1m-196.2-195.7c24.4 14.9 56.2 34.7 63.9 74.7M.1 275c235.7-19.5 526-36.8 585.9-36.8 59.9 0 78.9 19.9 83.4 63 9.5 90.7 18.4 312.4 17.1 355.3-1.3 42.9-12.8 65.4-86.5 60.9-73.7-4.5-480.3-37.2-600-48.1m.1-509.5c159.1-21.1 608.3-77.5 783.1-59.6"/><path class="s0" d="M41.1 154.5c-6.9 27.2-12.1 87-9.1 117.9m4.1-.4c0 44.5-2.8 300.3 14 401.7m67.8 509.4c-18-12.3-26.5-40.2-26.7-51.8-27.2-27.3-37.6-67.1-38.5-89.2 0 0 4.9-18.3 10.5-33.7 2.9-10.5 1.6-20.8 4.6-27 3-6.3 5.2-15.5 1.1-25.6-12.5-30.7-14.2-67.4-14.2-86.9s4.1-36 0-50.6c-9-32.1-15.7-89.9-15.7-104.9s4.1-33.1 7.5-40M1970.1 1536c-6.4-73.2-74.4-223.2-218.1-289.3m-216.4-11.6c-58.6 21.3-194.3 106.7-154.1 300.9"/><path class="s0" d="M1949.9 1459.9s25.5 8.1 37.8 12.6c0 0 17.5 44.5 30.2 63.5m-621-174.6c-13.5-2.1-50.8-6.1-50.8-6.1m118.7 180.7c-10.4-66.7 31.1-149.8 129.6-161.1C1756 1356.3 1848.5 1475 1861 1536M952.2 875.6c-22.1-.5-123.9-8.1-132-9.7-8-1.6-8.2-5.9-8.3-12-.1-6 2.1-10.6 5.8-10.6 12.1 0 94.3 7.4 135.7 14.4 6.2 1 5.4 18-1.2 17.9z"/><path class="s0" d="M917.1 873.7c-.8 6.4-10.2 16-23.3 16.4-13.1.4-26.7-.6-35.3-2.8-8.6-2.2-16.3-11.1-17.9-19.3m0-23.3c2.4-8 7.8-16.2 25.3-16 17.5.2 28.3 2 35.9 5 7.6 3 14.8 10.5 15.4 18.8"/></svg>