<svg version="1.1" id="Layer_1" xmlns="http://www.w3.org/2000/svg" x="0" y="0" viewBox="0 0 500 375" style="enable-background:new 0 0 500 375" xml:space="preserve"><path fill = "none" stroke="#fff" stroke-miterlimit="10" stroke-width = "1.0006" d="M0 222.9c48.9-.5 89-1.7 90.7-3.7 2.5-3 6-19.1 11-35.7 3.5-11.8 7.8-23.8 12.8-31.6 12.2-18.9 64.6-98.1 165.3-104.3 103 .1 135.9 69.9 141.8 100.9 9.1 47.2-20 71.2-22.8 71.8-.4.2 9.4-.2 23.8-.8.7 0 1.4-.1 2.1-.1 21.8-1 52.9-2.5 75.3-3.6"/><path fill = "none" stroke="#fff" stroke-miterlimit="10" stroke-width = "1.0006" d="M246.3 361.9c71.5 0 135.5-65.2 137.6-134.4C386.5 141.6 317.8 93 246.3 93c-77.2 0-129.4 55.4-129.4 130.1-.1 64.4 38.9 138.8 129.4 138.8z"/><path fill = "none" stroke="#fff" stroke-miterlimit="10" stroke-width = "1.0006" d="M0 48c78.1 1.1 167.7 2.1 170.5.7 12.7-4.5 47-41.7 145.9-29 102.5 13.3 127.9 113.7 130 135 2.3 21.2-4.8 40.6-23.6 64-.1.1-.2.2-.3.4"/><path fill = "none" stroke="#fff" stroke-miterlimit="10" stroke-width = "1.0006" d="M398.5 220.2c.8-5 3.8-13-15.7-20.4m-260.5-17-20.9.7"/></svg>
