<svg version="1.1" id="Calque_1" xmlns="http://www.w3.org/2000/svg" x="0" y="0" viewBox="0 0 500 375" style="enable-background:new 0 0 500 375" xml:space="preserve"><style>.st2,.st3{fill:none;stroke:#fff;stroke-miterlimit:10}.st3{stroke-width:.5}</style><g id="Calque_1_00000008870994949324899120000008344108277373181571_"><path class="st2" d="M454.2 194.2s9.1-3.9 11.2-8.2 4.8-15 4.7-18c-.2-.5-1.7-1.8-1.7-1.8s4.1-34.5 4.2-38 1.3-55.2.5-60-3.1-10.8-4.2-11-77.4-27.5-92.4-31-9.4-5.1-50.8-2.9-80.9 14.2-85.4 15.8-32.1 11.8-40.3 16.8-23.2 16.8-33.8 28.9-43.1 43.5-44.5 45.2c-1.4 1.7-9.4 8.6-15.5 11.3s-35.1 16.2-39 18-13.2 6.9-17.1 13.4c-2.8 3.4-9 6-13.7 17.4-6.6 14.3-2 35.4-2 36.1 0 .6-9.2 9.6-9.5 12.2-.3 2.6.3 18 6 29.5s23.6 35.3 40.2 49.4S96 335.4 106.3 339s33.2 9.5 59 4 40.8-12.6 42.4-13.7 5.1-21.2 9.3-30.9c1.4-3.2 16.8-34.7 33.7-47.5 15.6-11.8 34-16.5 43-6.1 12.2 14 6.5 29.6 1.4 37.5.2.2-.2 1.8 1.1 1.2 16-7 108.9-59.4 130.3-71.3 2.7-1.6 10.4-10.4 13.2-19.2 2.8-8.7 9.5-19.7 12.9-21s6.5 6 5.5 12.9c-.6 4.1-2.9 6.9-3.8 8.3-.1.6-.1 1-.1 1z"/><path class="st2" d="M34.5 226.1c.4 4.4-.1 14.3 2.6 19 2.7 4.7 28.9 29 37.2 29.8 8.2.8 10.7-4 11.6-7.1 1-3.2 4.8-26.7 4.8-28.4s-3.4-26.7-6.8-31.3-24.3-11.5-32.1-14.8c-4.8-2-12.2-6.5-13.8-6.4M277.2 174.8l-1.2-21.5 8.4-.8s1.5-15.7 3-19.8 3.3-9.5 7.2-9.9c3.9-.4 15.1-.5 17.7 1.4 7.3 3.5 9.8 35.1 8 45.6-1.3 8.6-32.1 7-33.3 3.7-.8-.2-9.8 1.3-9.8 1.3zM342.3 165.6s.1 3.3.4 3.3 14.2-1.9 14.8-3.1c.6-1.2.2-3.5-.3-3.6s-14.6 2.9-14.9 3.4zM218.9 176s-17.7 25.2-18.7 28.6-6.6 24.4-6.6 24.4-63.3 18.9-75.3 13.9c-8.3-3-12.5-25.6-11-30.1 1.3-3.7 2.5-4.9 5.8-6.8 90.2-17.1 105.8-30.7 105.8-30zM205.3 330.6c1.7 4.9 3.7 6.9 4.6 7.5s14.9 13.6 24.4 15 20.3 1 33.4-12.5 21.8-34.9 22.7-46.4c.9-11.5.3-25.6-6.5-35.1s-21.4-12.2-25.1-13.5M420.2 215.7c.2 3.3.3 9.6 6 12.9 5.7 3.4 12.3 2.7 13.8 2.5s5.9-3.8 9.5-12.3c1.5-3.5 3.6-12.6 3.9-20.9.3-8.3-1.1-12.8-4-15.9-1.4-1.1-3.8-1.7-3.8-1.7"/><path class="st3" d="M302 280.7c6.3-12.5 8.7-45.5-17.6-54.5-31.8-2.1-55.5 31.8-57.8 33.4-2.2 1.6-71.8 17.2-81 18s-42 1.5-60.1-8.9M31.7 268.3 30.4 256l23.9 22.7 1.8 16.1L33 271.3M106.5 307.7c-.4 2 8.3 16.2 10.7 18.6.8.7 1.6 2.5 6.1 2.9 4.5.3 36.3-.1 41.6-4.2 5.4-4.1 9.4-14.4 9.6-16.1.2-1.7-.7-6.6-7.8-7.7s-11 1.5-22.2 2.3-31.9 1.9-34.2 1.9-3.7 1.5-3.8 2.3zM86.5 215.1c5.3 0 18.5-1.7 20.6-2.6M219.3 176c1.4-2.2 10.4-12.3 9.9-14.8s-7.2-8.3-7.5-8.4"/><path class="st3" d="M176.9 75.7s-70.1 68.9-69.2 70.3 83.3 10.7 88.6 10.7 35-1.2 49.9-19.9 53-70.1 54.1-71.8c1.1-1.7-2.5-6.7-3.9-6.8-1.3-.2-85.1 2.3-119.5 17.5zM286.5 174c-16.1 8.7-53.7 20.7-51.6 15.7 0 0 29.6-48.8 32.3-52.6 2.1-2.9 39-57.8 45.1-63.4S331.6 57 349 63.6c4.1 10.5-3.1 68.6-4.5 74.7-2.6 5.1-3.9 8.4-23.7 20"/><path class="st3" d="M284.2 226c-1.2-7.8-12.8-42-14-44.8.6-4.8-.4-35.5-1.4-49.5 1.1-4.4 39.3-61.4 50.6-71.2 12.3-11 42.1-6.9 42.1-6.9s-.7 84.5-.8 87.8c-.2 3.3 4.9 16.3.5 33.4-1.6 1.6 9.8 34.7-6 77.1"/></g></svg>
