<svg version="1.1" id="Layer_1" xmlns="http://www.w3.org/2000/svg" x="0" y="0" viewBox="0 0 2048 1536" style="enable-background:new 0 0 2048 1536" xml:space="preserve"><style>.st0,.st1{fill:none;stroke:#fff;stroke-width:4.6183;stroke-linecap:round;stroke-linejoin:round;stroke-miterlimit:10}.st1{stroke-width:2.4266}</style><path class="st0" d="M172.7 0c-21.9 210.1-34.7 596.1-37.5 824.3l-18.9 14.1-39 4.4v32.8l8.4 4.4s4.9 84.6 1.8 103.7c-2.7 2.7-16 11.5-16 11.5-.1 50.1 6.6 125.9 14.2 152.5 7.5 26.6 35.9 90 150.7 100.6s529.5 21.6 787.5 21.6"/><path class="st0" d="M397.5 1257.3c3.9 23.1 35.5 48 51.1 50.6 35.9 6 66.5 4.4 89.2 0 29.4-5.7 46.4-21.6 58.2-44.2M1024 0v1128.6c-153.6-1.3-644.5-1.3-694.9-3.2-50.4-1.9-88.2-24.6-104.5-88.8s-15.7-173.2-13.9-245 9.6-508.2 9.2-531.9l-7.6-9.8C210.5 201.8 217 70.2 222.8 0"/><path class="st0" d="m212.3 249.9-37.6-29.2c-9.4 2.9-20 21.1-21.2 42.6M209.8 846.7H1024M209.9 833.9c-15 .5-61.6 2.4-74.6-9.7M71.6 995.3l89.7 2.7 54-16.4M85.8 880.1h90.7l33.3-3M77.4 842.8l99.1 3.9 33.3-3.9M161.3 998c-6.6 55.4-7.4 110 0 130.5s27.3 40.9 80.6 45.8c86.9 8 479.1 16.5 782.2 16.5"/><path class="st0" d="m326.3 1125.2-89.8 48.6 3.1 74.8"/><path class="st1" d="M307.4 0c-6.6 57.9-7.6 145.6-3.5 167.8 4 22.2 16.1 48.1 73.6 74.2s115.2 45.7 190.5 49 328.1 0 456 0"/><path class="st0" d="M1875.3 0c21.9 210.1 34.7 596.1 37.5 824.3l18.9 14.1 39 4.4v32.8l-8.4 4.4s-4.9 84.6-1.8 103.7c2.7 2.7 16 11.5 16 11.5.1 50.1-6.6 125.9-14.2 152.5-7.5 26.6-35.9 90-150.7 100.6-114.8 10.6-529.5 21.6-787.5 21.6"/><path class="st0" d="M1650.5 1257.3c-3.9 23.1-35.5 48-51.1 50.6-35.9 6-66.5 4.4-89.2 0-29.4-5.7-46.4-21.6-58.2-44.2M1024 0v1128.6c153.6-1.3 644.5-1.3 694.9-3.2 50.4-1.9 88.2-24.6 104.5-88.8 16.4-64.2 15.7-173.2 13.9-245-1.9-71.8-9.6-508.2-9.2-531.9l7.6-9.8c1.8-48.1-4.7-179.7-10.5-249.9"/><path class="st0" d="m1835.7 249.9 37.6-29.2c9.4 2.9 20 21.1 21.2 42.6M1838.2 846.7H1024M1838.1 833.9c15 .5 61.6 2.4 74.6-9.7M1976.4 995.3l-89.7 2.7-54-16.4M1962.2 880.1h-90.7l-33.3-3M1970.6 842.8l-99.1 3.9-33.3-3.9M1886.7 998c6.6 55.4 7.4 110 0 130.5s-27.3 40.9-80.6 45.8c-86.9 8-479.1 16.5-782.2 16.5"/><path class="st0" d="m1721.7 1125.2 89.8 48.6-3.1 74.8"/><path class="st1" d="M1740.6 0c6.6 57.9 7.6 145.6 3.5 167.8-4 22.2-16.1 48.1-73.6 74.2s-115.2 45.7-190.5 49-328.1 0-456 0M441 943.8c-2.3 32.8 1.2 121.9 13.1 148 4.4 9.7 13.1 12.5 31.3 13.1 18.2.6 457.8 0 469.7 0 12 0 29.6-4 29.6-18.8s.6-127.5 0-139.5-5.1-21.6-29.6-22.8c-24.5-1.1-471.4-1.7-488.5 0-17.1 1.7-25 10.9-25.6 20z"/><path class="st1" d="M488.7 959.4h471.4c8.2 0 14.9 6.7 14.9 14.9v78.1c0 8.2-6.7 14.9-14.9 14.9H488.7c-8.2 0-14.9-6.7-14.9-14.9v-78.1c-.1-8.3 6.6-14.9 14.9-14.9zM1111.5 424.3c35.4-5.5 166.8-7.3 207.7-.3 5.5.9 9.6 5.7 9.8 11.3.1 2.1 0 4.3 0 6.5-.3 6.1-5.3 11-11.4 11.1-27.7.8-62.7.4-99.3 1.2-43.4 1-81.5 1.7-105.5 1.1-5.9-.1-10.8-4.6-11.4-10.4-.3-3.3-.4-6.9.1-10.4.9-5.2 4.9-9.3 10-10.1z"/><path class="st1" d="M1161.3 455.2c1.7 13.2 14.1 29.2 59.2 29.6s59.6-16.6 61.5-31.4M1164.5 420.5c3.8-12.5 32-21.4 58.9-20.9 26.9.4 48.5 3.7 56 21"/></svg>