<svg version="1.1" id="Layer_1" xmlns="http://www.w3.org/2000/svg" x="0" y="0" viewBox="0 0 500 375" style="enable-background:new 0 0 500 375" xml:space="preserve"><path fill = "none" stroke="#fff" stroke-miterlimit="10" stroke-width = "1.0006" d="M386.3 213c0 77.5-55.3 145.9-137.7 150.7-78.1 4.6-139.1-36.5-143.4-129.4-.2-91.5 62.2-151.1 140.4-151.1S386.3 135.5 386.3 213z"/><path fill = "none" stroke="#fff" stroke-miterlimit="10" stroke-width = "1.0006" d="m500 224.9-64 6.7-25.8 2.7s36.9-77.3-28.5-136.5c-47.6-36.3-111.8-60.1-204.1-18.1-61.8 31-86.4 81.6-92.6 122.5-3.4 22.7-1.1 42.4 3.8 54-3.8 5.8-45.3 6.1-88.8.4"/><path fill = "none" stroke="#fff" stroke-miterlimit="10" stroke-width = "1.0006" d="M436 231.4C469.1 144 413.6 54.1 330.5 26.9c-1.2-.4-2.4-.8-3.5-1.1C235.4.2 150.3 42 115.4 74.5c-15.9-1-66.5 2.6-115.4 4.4"/><path fill = "none" stroke="#fff" stroke-miterlimit="10" stroke-width = "1.0006" d="m85.2 202.2 23.2-3.1M386.3 213s14.8 5.2 23.5 21.8M330.6 27.2c0-.1-.1-.2-.1-.2-1.4-2.9-4-13.2-7.2-26.9"/></svg>
