<svg width="500" height="375" viewBox="0 0 500 375" fill="none" xmlns="http://www.w3.org/2000/svg">
<path d="M6.92969 30.6495L87.2297 16.8895C87.2297 16.8895 259.66 8.63953 377.52 30.6495L385.78 37.5295L374.78 52.6595L439 100.82L484.86 134.29L490.86 149.43L482.6 193.43L490.86 214.07V232L478.47 250.35L464.72 286.12L411.46 309" stroke="white" stroke-miterlimit="10"/>
<path d="M411.3 309.31C411.886 305.979 412.18 302.603 412.18 299.22C412.18 260.31 373.18 228.76 325.18 228.76C277.18 228.76 238.18 260.31 238.18 299.22C238.179 301.385 238.299 303.548 238.54 305.7L6.92969 291.13" stroke="white" stroke-miterlimit="10"/>
<path d="M327.75 359.47C370.69 359.47 405.5 331.443 405.5 296.87C405.5 262.297 370.69 234.27 327.75 234.27C284.81 234.27 250 262.297 250 296.87C250 331.443 284.81 359.47 327.75 359.47Z" stroke="white" stroke-miterlimit="10"/>
<path d="M6.92969 269.04L240.97 281.24" stroke="white" stroke-miterlimit="10"/>
<path d="M5.16992 43.0004C5.16992 43.0004 108.72 22.7704 256.51 39.8004L264.11 44.2204C274.69 56.1404 306.46 92.7704 323.87 121.91C323.87 121.91 333.5 153.91 331.2 162.2L310.57 228.76" stroke="white" stroke-miterlimit="10"/>
<path d="M5.16992 133.68C5.16992 133.68 227.77 131.01 325.17 126.53" stroke="white" stroke-miterlimit="10"/>
<path d="M106.181 33.5098C106.181 33.5098 89.9806 102.51 88.4506 132.51L84.1706 138L76.1706 168.88C76.1706 168.88 75.5606 220.24 88.4006 251.43L82.6306 273" stroke="white" stroke-miterlimit="10"/>
<path d="M374.77 52.6602C374.77 52.6602 361.01 56.3302 357.77 62.0602L438.03 125.35C438.03 125.35 461 123 453.2 111.2" stroke="white" stroke-miterlimit="10"/>
<path d="M481.91 132.16C481.91 132.16 490.57 147.59 438.52 149.16L428 152.41L424.33 158.41L448.83 190L453.37 192.75C453.37 192.75 478.07 192.9 484.55 182.75" stroke="white" stroke-miterlimit="10"/>
<path d="M256.51 39.7998C256.51 39.7998 330.29 42.9999 357.8 62.0599" stroke="white" stroke-miterlimit="10"/>
</svg>
