<svg id="H12i1w" data-name="front left" width="500" height="375" fill="none" xmlns="http://www.w3.org/2000/svg">
  <g clip-path="url(#H12i1w-a)">
    <g clip-path="url(#H12i1w-b)" stroke="#fff" stroke-miterlimit="10">
      <path d="M485.444 89.95c-1.339-2.346-3.851-8.71-3.851-8.71-13.633-37.735-28.357-44.659-28.357-44.659-48.9-25.455-184.663-6.476-184.663-6.476-26.78 8.935-75.587 58.395-75.587 58.395l-17.417 4.016s-78.713 10.386-118.902 39.167c0 0-26.78 16.75-23.449 36.844l-15.406 22.802s.819 41.679 6.028 68.166l8.935 23.372s111.253 71.463 218.853 74.14c0 0 42.512-2.234 74.984-20.318 0 0 20.099-78.713 26.463-99.479 0 0 19.422-51.247 42.2-52.25 0 0 18.643-2.566 12.615 44.771l-6.013 34.39 74.136-80.607s2.756-32.136 8.521-37.735" stroke-width="1.5"/>
      <path d="M393.167 283.379c5.438-33.354 1.613-61.734-8.544-63.39-10.158-1.656-22.8 24.039-28.238 57.393-5.438 33.353-1.612 61.734 8.545 63.39 10.157 1.656 22.799-24.04 28.237-57.393Z" stroke-width="1.5"/>
      <path d="M372.518 201.145c13.293 1.704 18.775 6.222 18.775 6.222 11.053 6.817 13.97 40.413 6.281 78.956-8.277 41.563-24.798 70.684-39.069 70.451h-11.199s-28.104-7.543-36.298-12.772M260.857 36.438s112.815-13.58 159.134 0c0 0-7.303 53.072-6.996 56.938 0 0-.745 7.742-13.546 8.185 0 0-189.357-13.395-202.752-10.045-.024 0 24.389-31.337 64.16-55.078ZM43.698 154.48s93.11 10.941 161.442 31.484l9.076 5.356s-16.204 8.043-20.552 31.824c0 0-20.099 5.696-31.819 20.766 0 0-75.81-1.003-118.123-32.491-.024 0-12.956-34.161-.024-56.939Z" stroke-width="1.5"/>
      <path d="M214.235 191.329s56.792-20.771 113.063-22.11c0 0 7.255-.112 19.963 4.801 0 0-28.357 50.799-50.462 58.165 0 0-10.829 1.12-19.316-3.793 0 0-8.277-5.136-83.844-5.248M39.486 147.625l4.232 6.856m-10.5 14.066s-1.426 6.471 4.757 12.314" stroke-width="1.5"/>
      <path d="m375.639 197.255-7.479-14.865-20.879-8.374" stroke-width=".57"/>
      <path d="M193.664 300.293s78.187 7.304 105.58 2.23l3.409 4.913-3.574 19.651s-15.669 18.644-73.61 7.591c.009 0-28.796-28.245-31.805-34.385Zm-153-59.402 90.954 30.67v28.284l-89.912-34.541-1.042-24.413Zm97.727 52.257s26.127 5.809 33.718 14.963c0 0 32.267 40.413 38.129 44.761M41.369 257.44s-8.594-8.058-9.49 2.211l-2.303 14.821" stroke-width="1.5"/>
      <path d="m131.617 271.564 7.333-4.095v9.971m-98.286-36.548 7.966-4.017 90.32 30.592m266.122-166.721 3.895 4.835v15.182s-71.682 34.117-84.59 48.544" stroke-width=".57"/>
      <path d="M423.238 100.748s58.507-1.865 58.95-2.756c0 0 1.641 4.017-6.398 5.21l-43.617 4.017s-1.899.672-1.675.448c0 0-6.042-.146-7.26-6.919Z" stroke-width="1.5"/>
      <path d="m482.188 97.992-4.611-13.511-2.795-1.563a77.953 77.953 0 0 0-28.693-4.241s-3.793 1.899-4.801 3.35c0 0-5.356 3.997-5.575 18.298m-12.475.421s4.655-7.445 7.669-6.778c0 0 .448.112.555 1.563l4.251.896" stroke-width="1.5"/>
      <path d="M423.652 102.342a6.028 6.028 0 0 1-2.922-2.868c1.636-61.35 7.591-60.736 7.591-60.736 29.029-6.101 37.214 13.696 37.214 13.696l9.529 20.397s2.099 6.734-1.203 9.738" stroke-width=".57"/>
      <path d="M442.516 37.742s10.049 32.17 11.836 40.851m-33.64 20.884v9.007s6.734 18.532 6.734 36.284c0 0-3.896 61.633-7.479 90.438" stroke-width=".57"/>
      <path d="M404.211 250.821c.107-.628 72.549-74.243 72.549-74.243" stroke-width="1.5"/>
      <path d="M453.002 208.529s20.776 2.226 25.689 1.778c0 0 3.895-.224 6.753-10.381"/>
    </g>
  </g>
  <defs>
    <clipPath id="H12i1w-a">
      <path fill="#fff" transform="translate(17 23)" d="M0 0h456.755v342.189H0z"/>
    </clipPath>
    <clipPath id="H12i1w-b">
      <path fill="#fff" transform="translate(17.078 22.574)" d="M0 0h469v335.165H0z"/>
    </clipPath>
  </defs>
</svg>
