<svg version="1.2" xmlns="http://www.w3.org/2000/svg" x="0" y="0" viewBox="0 0 2048 1536"><path id="Layer" fill = "none" stroke="#fff" stroke-width="4.6" stroke-linecap ="round" stroke-linejoin ="round" d="m0 152.2 16-1.1c-.9-7.9-3.7-19.7-4.9-24.7 56.1-6.2 69.2 5.6 86.9 19.3 259.3-29.7 524.2-26.9 599.5-23.2 75.3 3.7 214.7 23.2 308.6 64.1 93.9 40.9 192.4 118.9 306.7 197 260.3 29.8 558.6 98.5 735.3 176.6M.2 1085.8c114.3 39.5 813.1 231.8 877.1 248.5 64 16.6 104 34.1 114.8 39.2 10.7 5.1 69.9 20.9 132.7 38.5 6.9-296.3 343.7-333 594-240.4s307.7 274.8 271.7 364.4M796.4 629.6c43.4-.4 106.6 23.6 133.4 27.7l35.1 61.1c-85.5-22.3-143.3-21.1-186.3-9.9-43 11.1-158.7 37.6-198.7 39.2-40 1.6-52.4-7.5-79.7-15.3-27.3-7.8-42.2-35.1-49.6-60.3 80.9-73.9 174.7-103.6 232.5-114.8 57 10.7 85.5 39.2 113.3 72.3z"/><path fill = "none" stroke="#fff" stroke-width="4.6" stroke-linecap ="round" stroke-linejoin ="round" d="M.1 194.6c140.6-15.8 373.5 13.6 499.3 83.8C625.2 348.6 843.2 560 929.7 657.3m-394.5-46C431.8 594.7 90.1 538.1.1 522.2m499.3 111.3c-82-14.6-399.5-69-499.3-87.1"/><path fill = "none" stroke="#fff" stroke-width="4.6" stroke-linecap ="round" stroke-linejoin ="round" d="M.1 211.2c184.3-16.6 387.1 30.2 489.8 83 102.6 52.8 301.9 251.4 399.4 353M756.1 513.4l-5.1 71.9m1130.9 677.9c22.2 42.7 59.6 158 35.8 272.8m-638.3 0c-29.9-31.9-72.1-77.8-82.3-149.2-10.2-71.4 23.9-174.8 48.9-203.2m-32.5 68.1-33.8-8.4"/><path fill = "none" stroke="#fff" stroke-width="4.6" stroke-linecap ="round" stroke-linejoin ="round" d="M1325.3 1535.9s-83.5-66-65.2-171.9c18.4-105.9 190.8-171 367.3-100.8 176.5 70.3 227.4 183.7 204.3 272.8M1312.8 383.7c58.2 15.4 101.1 42.6 112.3 51.3 11.2 8.7 20.6 19.9 8.7 50.6-11.9 30.7-56.4 122-142.9 161.6-86.5 39.6-191.8 36.5-266.8 24-96.8-98.4-333.8-312.4-451.3-409.2 86.5-27 300.3-72.9 421.9-80.2"/><path fill = "none" stroke="#fff" stroke-width="4.6" stroke-linecap ="round" stroke-linejoin ="round" d="M667.4 121.4c62.4 3.4 137.9 18 167.1 26.2-66.7-1.3-219.9 11.3-276.5 26.7-21 5.7-47.7 6.4-72.5 0-24.8-6.4-164.8-26.1-223.7-30.5 15.3-7 67.3-14.7 142.3-20.3m1644 884.6c-178.2-47.3-572.6-125.6-656.3-142.1-83.7-16.5-146.9-40.7-242.2-164.7-4.1-7.5-10.3-21.8-10.3-21.8M678.2 286.6c16.6-5.2 232.7-58.2 267.5-64.4 34.8-6.2 48.6-4.2 68 0 19.4 4.1 274.8 159.4 287.2 167.2 12.4 7.8 33.7 26.5 20.7 58.6-24.4 60.2-161.9 141.9-235.5 155.4-57 10.5-88.4-4.9-112.9-18.1-24.5-13.2-277.1-233-309.1-264-19.4-18.7-2.6-29.5 14.1-34.7zm286.6 431.8c18 34.1 26.3 65.4 41.3 87.2 15 21.7 61.8 107.7 56.5 258.4-5.3 150.7-19.9 219.6-38.5 279.3m103.5 30.2L.1 1044.3m192.9 56.5c-.8-12.1 6-38.2 4.8-44.4-1.2-6.2-10.7-12.9-14.7-20.1C127.5 935.9 85.4 767.1 83.3 730c-2.1-37.1-17.1-92-16.3-104.6.8-12.6 12.6-39.4 22.9-63.1-.6-13.8 3.2-18 9.2-23.1-12.7-111.3-.8-260.5 6-331-1.7-4.3-4.1-11.7-2.7-17.6m44.8 19.6c-4.1 90.4-2.5 254.5 11.7 339M70.4 207.8c-14.2 81.7-25.9 233.9-24 322.4"/><path fill = "none" stroke="#fff" stroke-width="4.6" stroke-linecap ="round" stroke-linejoin ="round" d="M233.4 697.7c12.2 3.6 40 13.2 45.7 15.8 5.7 2.6 6.5 9.3 5.3 15.8-1.2 6.5-4.3 13.2-16.7 12-50.1-5-126.3-20.8-159.2-31.6-8.1-2.6-11-9.3-12-14.1-1-4.8-1.9-14.8 6-17.5 7.9-2.7 37.8 1 41.2 1.9l1 8.6c30.9 9.8 52.7 12.4 60.1 13.4 7.3.9 20.2 1.2 28.6-4.3z"/><path fill = "none" stroke="#fff" stroke-width="4.6" stroke-linecap ="round" stroke-linejoin ="round" d="M231 736.4c-2.9 6.7-6 14.8-23.7 14.8-16 0-33-6.2-38.3-8.4-5.3-2.2-18.7-11.7-21-22.6m-4.3-40.2c2.9-7.2 12.2-13.4 22-13.9s30.4 2.8 41.4 5.7c11 2.9 23.7 13 26.3 25.9"/></svg>