<svg version="1.1" id="Calque_1" xmlns="http://www.w3.org/2000/svg" x="0" y="0" viewBox="0 0 500 375" style="enable-background:new 0 0 500 375" xml:space="preserve"><style>.st1,.st2{fill:none;stroke:#fff;stroke-miterlimit:10}.st2{stroke-width:.5}</style><g id="Calque_2_00000178907322929960651840000003585272983856375938_"><path class="st1" d="M500 67.3c-21-11-55.4-15.3-80.8-16.6-23.8-1.2-78.1-.8-101.7.1-16.9.6-42.1 3.4-62.5 6.2l-.1.1M500 248.4c-7.5 2-174.4 42.9-179.1 42.9-1.1 1.2 3.1-17.8 2.3-30-1-14.3-8.8-31-29.4-38.6-25.7-9.6-58.7 2.6-71.9 10.9-13.2 8.2-33.1 28.5-41.6 48.8-4.2 10-4.6 29.4-4.6 32s-78.9 8.6-103.9 2.3c-9.5-2.4-41.5-13.7-48.2-32-6.1-16.9-10.2-35.3-9.9-42.6s6.2-31.1 8.2-35.6c1.5-3.4-7.7-38.1-7.4-43.1s5.6-14.6 5.6-16.2c-.6-1.6-4.6-8.4-1.3-13.7s11.2-13.1 23.6-16.2c13-2.3 44.9-7.7 61.4-13.2 20.8-7 89.8-35 119.1-41.8 1-.3 2.3-.6 3.9-.9"/><path class="st1" d="M14.7 162.6c2.2 6.7 8.5 11.3 13.7 12.1 22.6 3.1 58.1 0 63.5.4 5.5.4 18.3 4.8 19.2 7.9.8 2.5-19.6 23.4-36 31.1-16.5 7.7-30.1 11.1-40 5.9-10.5-5.6-12.5-12.5-13-13.9M282.1 219.8c5.4 3.1 17.9 15.1 23.5 23.5 6.6 10 10.2 22 6.3 42.9-1.4 7.7-12.6 26.7-24.6 36.6-10.1 8.4-25.2 16.6-39.9 18.2-16.5 1.8-32.2.2-44.4-11.7-12.2-11.8-16-27.2-18.3-33.9s-1.5-18.7-1.5-18.7M335.5 166.9c1.5-.1 11.5-.7 11.9.7s.4 4.7-.5 5.4-41.9 7.5-45.1 5.8-3.1-5.2-2.7-5.9 9.2-2.8 12.7-3.4c3.5-.6 23.7-2.6 23.7-2.6zM486.1 152.7c4.5.1 8.3.1 8.4 1.3s1.2 3.6-1 4.8c-2.3 1.2-28.8 3.3-31.2 2.5-2.3-.8-2.3-4.4-1.8-5s7.4-2.7 9.1-2.5c1.7 0 16.5-1.1 16.5-1.1z"/><path class="st2" d="M256.3 58.2c-.3-.7-8.6-6.2-12.8-6.8s-16.6-.3-17.4.3c-.8.6.9 5.1 1 5.7 0 .6-.2 4.8-.2 5.3s2.9.3 2.9.3l26.5-4.8zM117.9 132.6c-3.2 1.6-17.9 15.2-25.8 19.3s-50.6 12.5-54.8 15.5-11.7 7.9-12.5 11.1c-.8 3.2 2.4 30.9 1.6 33.1S20.1 226.3 16 229M218.4 63.4c19.2.5 45.7 8.5 48.3 9.9 1.9-.4-135.6 52.4-148.9 59.2-6.7 2.1-21-3.5-17.9-17.6 3-9.8 42.8-25.3 42.8-25.3M500 73.7c-9-3.9-42-15.1-79.2-15.1-91.7 0-236.1 63.9-245 77.1-12.9 9.5 30.3-.2 41 1.6s39.6 8.9 48.2 8.9 208.9-14.4 235-14.9"/><path class="st2" d="M419.6 58.6c2.6 4.9 25.8 66.3 24.3 75.9 4 3.7 11.2 9.5 12.7 19.6.9 14-8.8 64.4-20.8 110.1M298.8 81.5c-2.9 6.2-21.7 68-20.2 79.9s68.5 114.8 75.4 122.5M49.5 176c-13.9-6.9-27.1-26-29.3-29.1"/></g></svg>
