<svg version="1.1" id="Layer_3" xmlns="http://www.w3.org/2000/svg" x="0" y="0" viewBox="0 0 2048 1536" style="enable-background:new 0 0 2048 1536" xml:space="preserve"><style>.st0,.st1{fill:none;stroke:#fff;stroke-width:4.6183;stroke-linecap:round;stroke-linejoin:round;stroke-miterlimit:10}.st1{stroke-width:2.4266}</style><path class="st0" d="M0 560.2c176.7-78.1 475-146.8 735.3-176.6 114.3-78.1 212.8-156.1 306.7-197s233.3-60.4 308.6-64.1c75.3-3.7 340.2-6.5 599.5 23.2 17.7-13.7 30.8-25.5 86.9-19.3-1.2 5-4 16.8-4.9 24.7l16 1.1M57.6 1536c-36-89.6 21.4-271.8 271.7-364.4 250.3-92.6 587.1-55.9 594 240.4 62.8-17.6 122-33.4 132.7-38.5 10.8-5.1 50.8-22.6 114.8-39.2 64-16.7 762.8-209 877.1-248.5M1365 557.3c57.8 11.2 151.6 40.9 232.5 114.8-7.4 25.2-22.3 52.5-49.6 60.3-27.3 7.8-39.7 16.9-79.7 15.3s-155.7-28.1-198.7-39.2c-43-11.2-100.8-12.4-186.3 9.9l35.1-61.1c26.8-4.1 90-28.1 133.4-27.7 27.8-33.1 56.3-61.6 113.3-72.3z"/><path class="st0" d="M1548.7 633.5c82-14.6 399.5-69 499.3-87.1M1512.9 611.3c103.4-16.6 445.1-73.2 535.1-89.1M1118.4 657.3c86.5-97.3 304.5-308.7 430.3-378.9s358.7-99.6 499.3-83.8"/><path class="st0" d="M1158.8 647.2c97.5-101.6 296.8-300.2 399.4-353 102.7-52.8 305.5-99.6 489.8-83M1292 513.4l5.1 71.9M166.2 1263.2c-22.2 42.7-59.6 158-35.8 272.8M802.1 1183.6c25 28.4 59.1 131.8 48.9 203.2-10.2 71.4-52.4 117.3-82.3 149.2M834.6 1251.7l33.8-8.4"/><path class="st0" d="M216.4 1536c-23.1-89.1 27.8-202.5 204.3-272.8 176.5-70.2 348.9-5.1 367.3 100.8 18.3 105.9-65.2 171.9-65.2 171.9M735.3 383.7C677.1 399.1 634.2 426.3 623 435s-20.6 19.9-8.7 50.6 56.4 122 142.9 161.6 191.8 36.5 266.8 24c96.8-98.4 333.8-312.4 451.3-409.2-86.5-27-300.3-72.9-421.9-80.2"/><path class="st1" d="M1380.7 121.4c-62.4 3.4-137.9 18-167.1 26.2 66.7-1.3 219.9 11.3 276.5 26.7 21 5.7 47.7 6.4 72.5 0 24.8-6.4 164.8-26.1 223.7-30.5-15.3-7-67.3-14.7-142.3-20.3M0 1008.1C178.2 960.8 572.6 882.5 656.3 866s146.9-40.7 242.2-164.7c4.1-7.5 10.3-21.8 10.3-21.8M1384 321.3c-32 31-284.6 250.8-309.1 264-24.5 13.2-55.9 28.6-112.9 18.1-73.6-13.5-211.1-95.2-235.5-155.4-13-32.1 8.3-50.8 20.7-58.6s267.8-163.1 287.2-167.2c19.4-4.2 33.2-6.2 68 0s250.9 59.2 267.5 64.4c16.7 5.2 33.5 16 14.1 34.7zM1083.3 718.4c-18 34.1-26.3 65.4-41.3 87.2-15 21.7-61.8 107.7-56.5 258.4s19.9 219.6 38.5 279.3M920.5 1373.5 2048 1044.3M1945.7 190.6c1.4 5.9-1 13.3-2.7 17.6 6.8 70.5 18.7 219.7 6 331 6 5.1 9.8 9.3 9.2 23.1 10.3 23.7 22.1 50.5 22.9 63.1s-14.2 67.5-16.3 104.6c-2.1 37.1-44.2 205.9-99.8 306.3-4 7.2-13.5 13.9-14.7 20.1-1.2 6.2 5.6 32.3 4.8 44.4M1900.9 210.2c4.1 90.4 2.5 254.5-11.7 339M1977.7 207.8c14.2 81.7 25.9 233.9 24 322.4"/><path class="st1" d="M1814.7 697.7c-12.2 3.6-40 13.2-45.7 15.8-5.7 2.6-6.5 9.3-5.3 15.8 1.2 6.5 4.3 13.2 16.7 12 50.1-5 126.3-20.8 159.2-31.6 8.1-2.6 11-9.3 12-14.1 1-4.8 1.9-14.8-6-17.5s-37.8 1-41.2 1.9l-1 8.6c-30.9 9.8-52.7 12.4-60.1 13.4-7.3.9-20.2 1.2-28.6-4.3z"/><path class="st1" d="M1817.1 736.4c2.9 6.7 6 14.8 23.7 14.8 16 0 33-6.2 38.3-8.4s18.7-11.7 21-22.6M1814.7 697.7c2.6-12.9 15.3-23 26.3-25.9 11-2.9 31.6-6.2 41.4-5.7 9.8.5 19.1 6.7 22 13.9"/></svg>