<svg version="1.1" id="Calque_1" xmlns="http://www.w3.org/2000/svg" x="0" y="0" viewBox="0 0 500 375" style="enable-background:new 0 0 500 375" xml:space="preserve"><style>.st1,.st2{fill:none;stroke:#fff;stroke-miterlimit:10}.st2{stroke-width:.5}</style><g id="Calque_2_00000051383962777939881030000006233620290833459347_"><path class="st1" d="M232.1 0c16.2 4.2 154.3 51.4 159.3 52.9 39.1 6.8 73.9 2.7 78.8 10.4 1.4 3.1-3.5 6.6-3.1 9.3.4 2.7 8.2 17.3 8.2 19.2s-6 39.8-5.7 41.4c.4 1.6 9.5 13.2 10.4 37.6-.9 22.1-12.5 53.8-13.3 56.9-1 3.7-5.3 20.2-35.4 45.6s-122.6 84.3-176.2 76.4c-53.6-7.8-123.5-39.4-128.8-43.9-5.3-4.6-8-11.3-9.5-21.5-8.1-19.8-44-91.9-57.1-110.2-14.5-20.2-29.8-28.2-31.5-13.1-1.6 15.1 3.6 43.9 6.7 48.5M40.9 239.3.4 199.2M9.9 0C8.6.5 1.2 7 .4 7.7"/><path class="st1" d="M395.4 101.4c6.5 3.2-15.6 75.3-18.5 77.7s-115.7 5.4-130.8 1.7c-15.1-3.7-52.4-13.2-67.8-34.6s-27.1-37-25.6-40.4 23.6-13.1 29-13.9 101.6 8 111.6 7.6 100.8 1.2 102.1 1.9z"/><path class="st1" d="M204 40.4c-2.3 3-4.2 14-1.1 18.9 7.2 7 63.1 19.8 67.3 22.8 5.7 4.1 17.1 12.5 23.1 17.4 2.9 4.1 33.6 78 35 82.4M469.6 132.9c-1.5 9.5-4.7 23.5-7.5 29.2-8.7 17.7-75.9 47.8-104.6 50.2M130.2 307.8c-3.5 4.5-29.6 14.8-36.6 15.3s-18-9.3-21.1-12.5c-4.6-4.8-13.8-22.4-16.8-28.5-4.5-9.1-15.3-44.1-16.4-48.4-1.9-7.3-5.9-28-5.4-43.4.4-10.3 7-21.4 9-22.9 3.2-1.9 8.4-3.8 8.4-3.8M23.1 95.1c2.6 1.5 4.9 2.7 4.8 3.8s.1 5.1-1.1 6.2-3.5.7-3.8.9c-.3.2-16-3.4-16.9-4.9-.9-1.6 0-6.4 0-6.4s5.9-1.4 7.8-1 9.2 1.4 9.2 1.4z"/><path class="st2" d="M457.2 121.9v27s-15.5 12.3-55.1 24.6c-.1-1.8-.7-34.8-.7-34.8s52.1-13.1 55.8-16.8zM467.1 71.5c-23.6-1.2-114.3-2.5-191.8 14.3M229.6 275.2l7.6-6s39.7 1 59.9-2.9c27.2-5.5 68.1-19.6 69.1-19.9 1.1-.3 2.4.9 2 1.5-.5.6-5 4.6-6.4 5.8-18.1 8.9-48.8 17.5-65 20.2-31.6 5-66.1 2.2-67.2 1.3z"/><path class="st2" d="M469.1 135.7c2.4 7.1 7.4 18.6 6.6 24.8-2.1 6.7-14.2 23.1-34.7 33.1s-61.1 32.1-72.7 26.2c-12.4-6.4-35.5-32-39.8-37.9M227.7 0C240 4 371.6 47.4 378.6 51.4c-28.5-2.8-92.4-5.6-112.4-5-20 .7-53.3-2-67.1-7.8C185.3 32.9 120.8 0 120.8 0M65.6 0c10.9 4.3 61.7 42.8 59.6 50.1-1.1 3.9-26.7.7-32.3 1.3-5.7.7-27.1 15.4-33.7 16C52.6 68 .4 69.6.4 69.6M0 12.7C1.6 10.7 18.1 0 21 0 20.2 1.9 2.4 38.8.4 52.8"/><path class="st2" d="M63.1 0C62.8 5.7 51 62.5 50.3 66.4S39.9 77.6 35.5 88.1c-4 11.2-23.2 53.6-4 141.9"/></g></svg>
