<svg version="1.1" id="Calque_1" xmlns="http://www.w3.org/2000/svg" x="0" y="0" viewBox="0 0 500 375" style="enable-background:new 0 0 500 375" xml:space="preserve"><style>.st2,.st3{fill:none;stroke:#fff;stroke-miterlimit:10}.st3{stroke-width:.5}</style><g id="Calque_2_00000178916655957626646150000007189350284569783426_"><path class="st2" d="M18.7 246.8s4.4 38 5.2 43.6c-.5 2.7-1.1 5.8-.7 8.6.4 2.8 1.1 16 2.7 18.2 12 9.3 38.7 9.2 64.9 10 12.6.4 85.1 5.3 159.2 5.1 80.3-.2 162.5-5.4 173.1-5.4 20.4 0 48.8-2.7 51.2-9.9 2.4-7.2 2.5-22.5 1.8-26.6 0-2.4 5.1-40.1 5.1-43.4-1.7-8.1-6.6-24-7.2-48.4-1-8.5-6.7-12.4-7.8-16.1 1.2-2.6 6.6-5.8 9-13.8 1.8-6.1-.1-18.3-1.2-24.3-3.1-3.6-7.2-8.7-12.2-10.1-4.5-.6-13.4-1.4-13.4-1.4s-5.6-6.4-8.4-9.8c-6.1-3.9-22-14.5-51.9-18.9-29-4.2-103.2-13.1-138-13.4-22.2-.2-94.9 6.5-129.6 11.7-20 3-41 9.1-46.7 12-4.2 2.1-16 9.7-21.9 18.6-1.6.2-10.5-.1-15.3 1.5-5.1 3.9-8.9 6.5-10.8 11.4-1.4 7.1-1.7 18.9.4 25.6 1.7 5.5 5.9 9.4 6.8 10.9 0 1.8-5.7 9-6.9 14.4-.7 15.1-4.3 41.8-7.4 49.9z"/><path class="st2" d="M466.2 182.5c-4.7 5.7-88.8 15.1-88.8 15.1s-10.9-13.5-10.2-12.9 61.9-10.3 61.9-10.3l2.2-9.1s-37.7-2.6-42.1-5.2c-4.4-2.6-26.5-28.5-26.5-28.5s74.2-.9 85.7 1.3M32.9 182.5c3.3 5.6 88.3 15.2 89.5 15.2s11.9-13.4 9.7-13-61-10.8-61-10.8-2.9-8.9-2.1-8.7 37.9-2.7 42.2-5.2c2.5-1.5 26.4-28.5 26.4-28.5s-81.4-.1-85.9 1.6M167.4 168.5l-1 32.4h167l-1.2-32.4z"/><path class="st3" d="M245.7 90.6c.5-.8 1.8-2.3 2.1-3s1.2-6.5 1.4-6.9 1.4-.3 1.6.2c.1.5 1 6.2 1.3 6.6s2.3 3.3 2.4 3.3M19 249.5c2.9.6 49.9 2.6 53 1.8 2.7-.8 7.6-2.3 7.6-3.5s-2.3-2.7-5.3-2.5-53.3-.9-54.7-1.7M481 249.2c-2.3 1.5-46.3 3.5-52.8 2.2-4.4-.9-6.5-2.2-7.9-3.2-.9-.6 1.5-2.7 2.7-2.7 1.1 0 55.2-.9 57.1-2M59.8 124.6c-.1 1.6-.4 2.5-.4 7.5s7.8 28.2 9.3 33.4M70.9 174.1c2.5 8.3 12.3 33.3 20.8 44.4 12 11.4 95.8 8 158.4 9.1 84.7-3.4 143 2.7 154-6.4 14.6-11.6 25.2-46.7 25.2-46.7M431.5 165.1s8.6-29 9-32.7c-.2-2.6-.7-9.3-.7-9.3M166.4 97c40.3-2.3 117.4-4.3 151.2-1.2M137.6 131.5s90.3-1.9 112.5-1.9 112.5 1.9 112.5 1.9"/></g></svg>