<svg version="1.1" id="Calque_1" xmlns="http://www.w3.org/2000/svg" x="0" y="0" viewBox="0 0 500 375" style="enable-background:new 0 0 500 375" xml:space="preserve"><style>.st1,.st2{fill:none;stroke:#fff;stroke-miterlimit:10}.st2{stroke-width:.5}</style><g id="Calque_2_00000129910967636676058200000002257191568811728803_"><path class="st1" d="M500 250.8c-6.7 4.4-22.8 24.3-29.1 46-2.2 1.5-371.7.2-373.7-.6-2-.7 1.1-14.4-7.8-29.9-12.7-22.7-34.2-39.8-50.9-46-16.7-6.1-34.5-6.9-38.6-6.9"/><path class="st1" d="M500 312.1c-5.2-2.2-21.7-20.7-25-26.4M0 319c10.7 4.6 21.6 10.1 43.8 6.6s29.2-14.9 37.6-23.7c11.6-15 13.3-22.5 13.3-22.5M500 128.2c-7.4-2.4-75.7-12.4-84.5-13-4.8-2.8-51.8-33.1-77.6-43.3-19.2-7.5-72.3-15-114.2-15.3-30-.2-112.5 6.8-145.3 14.7C59.3 76 7.9 93.2 0 96.7M431.5 158.2c-2.1 1.9-8.7 8.3-15.3 9-6.6.7-13.2-.9-13.7-1.1-.5-.2.3-10.8 1.1-13.1.8-2.3 8.3-20.8 9.5-22.1s10.6 1.5 16.1 5.6 9.2 8.2 9.4 10c.4 3.7-5 9.8-7.1 11.7zM287.8 176.3c4.7.4 12.7 1.1 13.4 2.1.8 1.1.6 4.3-1 5.4-3.8 2.6-48.6-.1-50.8-1.4-2.2-1.3-2-4.2-1.3-5.2.6-1.1 10.2-2.1 12.5-2.1 2.4 0 27.2 1.2 27.2 1.2zM82.8 172.4c4.5.3 13.6 1.4 14.2 2.4s-.2 4-.8 4.6c-2.7 1.7-44.9 2.2-50.3 1-2.1-.8-3.7-5.2-2.9-5.9s9.4-2 13.6-2c4.2-.1 26.2-.1 26.2-.1z"/><path class="st2" d="M500 152.3c-15.9-1.2-36.1-2-40-3.3-4.9-2.9-40.1-30.3-44.7-33.6M119.4 64.5c-3.6-2.4-11.8-5.9-16.5-6-3.9-.1-13-.2-13.8.7s1.4 4.4 1.5 5.2c.2 1.3-.1 3.8-.2 4.5M437.2 143.6c6.8 5.3 12.8 10.4 17.9 15.1 25.9 19.3 26 33.3 27.8 46.1 3.6 28.1-28 83.3-32.6 92.5M.1 111.2c85.3-38 199.5-45.4 221.5-45.2 24.2.2 92.3 2.9 123.9 19.1 27.7 14.2 55.1 31.5 77.3 47.6M402.8 156c-42.5-1.8-105.4-4.2-167.3-5.8-94.6-2.4-187.1-2.5-200.4-2.9-8.1-.2-16.5.1-22.4-.7C2.8 145.3 0 142 0 142"/><path class="st2" d="M454.7 158.4c-1.9-.1-9.8-.5-22-1M221.9 66c1.7 13.7 14.5 82.2 17.4 99.3 2.1 12.4 6.1 55.3-1.5 131.9M72 86.9c-4.9 5-48.9 71.5-48.9 76.3 3.1 13.6 64.6 92.3 104.8 133.4"/></g></svg>
