<svg version="1.1" id="Calque_1" xmlns="http://www.w3.org/2000/svg" x="0" y="0" viewBox="0 0 500 375" style="enable-background:new 0 0 500 375" xml:space="preserve"><style>.st2,.st3{fill:none;stroke:#fff;stroke-miterlimit:10}.st3{stroke-width:.5}</style><g id="Calque_2_00000104668629844934639870000010554595635428706479_"><path class="st2" d="M293.1 269.4c0 45.2-39.3 81.9-84.5 81.9-56.7 0-81.9-36.7-81.9-81.9s36.7-81.9 81.9-81.9 84.5 36.7 84.5 81.9z"/><path class="st2" d="m500 282.5-191.9 17.4-15.4-22.7M127.3 281.7 115 313.8s-43 1.2-54.6-5-40.7-31.2-41.6-40.5c-1.2-1.4 6.9-11.5 6.9-11.5s-13.6-23.8-14.8-49c1.7-3.9 9.4-4.9 9.4-4.9l1.5-18.7s-7.6-11.9-5.7-15 14-14 45.1-26.3c62.7-21.5 161-26.4 198.2-28.3 27.1-13.1 72.3-44.5 112.5-58S439.4 39 439.4 39s15.7-9.5 60.6-11.4"/><path class="st2" d="M115 313.8c-1.9-35.6-8.9-53.8 16.4-93.9 30.9-40.2 110.6-63.1 161.2 1.8 19.2 33.2 16.4 64.8 15.5 78.2M360.6 106.8l-7.7 10.4s56.1-2.6 58.6-2.6 20.5-.3 22.8-.4 30.1-1.9 35.5-6.5c5.4-4.5 11.2-13.2 10.8-17.3-.4-4.1-27.7-12.2-42.8-11.9-15.1.3-25.8 1-30.1 3.7-4.3 2.7-15.8 10.5-16.9 15.6-.8 2.6-.2 5.6-.2 5.6s-28.4 3.3-30 3.4zM21.2 164.1c5.6 1.6 98.1-3.5 105-3.5s4.3 3.6 2.3 5.4c-2.1 1.8-33.1 25.1-36.7 26.3S26.2 202.9 19.9 203"/><path class="st3" d="M38.5 153.1c1.1 1.7 5.4 8.7 6.8 11.1M65.2 162.7c4.9-2.7 38-10.9 44.1-12.2 33.3-7.2 144.1-16.3 165.8-18.4 19.8-3.2 36.7-21.9 36.7-21.9M500 111.5l-51.9 1.7M360.4 106.5c4.1-4.2 55-45 85.6-59.7 21.1-9.8 38.8-12.3 53.9-12.4M338.1 297.2c-11.2-38.7-10.8-121.8-2.3-149.7 7.6-18.9 16.5-30 16.5-30"/><path class="st3" d="M259.3 114.8c7.4-.4 77.2-6.8 79.8-6.8 15.3-9.7 60-48.1 100.6-68.8M25.9 256.7c4.9 8.7 35.8 21.6 41.2 22.4 2.5-2-20-29.4-22.6-31s-26.8-13.4-27-9.6"/></g></svg>
