<svg version="1.1" id="Calque_1" xmlns="http://www.w3.org/2000/svg" x="0" y="0" viewBox="0 0 500 375" style="enable-background:new 0 0 500 375" xml:space="preserve"><style>.st0{fill:none;stroke:#fff;stroke-width:1.0006;stroke-miterlimit:10}</style><path class="st0" d="M115 126.1c-8.9 20.9-14 45.7-14 75.1 0 79.6 51.3 160.3 161.3 157.5 74.5-1.9 156.7-80.1 155.1-162.9C415.6 98.9 338.6 38.4 251.1 41c-6.2 0-17.2 1-23.3 1.8"/><path class="st0" d="M101.9 219.3H78.8m334 13.2 22.5 23.9L500 251"/><path class="st0" d="M0 260.7c27.8 2.3 54.2 3.8 74.1 3.7.3-14 2-29.4 4.7-45 3.6-20.3 9-41.1 15.8-59.6 5.8-11.7 12.6-23 20.3-33.7 27.6-38.5 66.8-69.4 112.8-83.3 32.2-9.7 67.8-11 104.9-.6C423.2 67.6 442.7 156.9 442.7 173c0 15.5-4.4 57.4-7.5 83.6M389.3 0c52.2 90.1 79.6 153.1 110.7 235.8"/></svg>
