<svg version="1.1" id="Calque_1" xmlns="http://www.w3.org/2000/svg" x="0" y="0" viewBox="0 0 500 375" style="enable-background:new 0 0 500 375" xml:space="preserve"><style>.st1,.st2{fill:none;stroke:#fff;stroke-miterlimit:10}.st2{stroke-width:.5}</style><g id="Calque_2_00000093895770142500827570000005063385809523941004_"><path class="st1" d="M0 67.3c21-11 55.4-15.3 80.8-16.6 23.8-1.2 78.1-.8 101.7.1 16.9.6 42.1 3.4 62.5 6.2l.1.1M0 248.4c7.5 2 174.4 42.9 179.1 42.9 1.1 1.2-3.1-17.8-2.3-30 1-14.3 8.8-31 29.4-38.6 25.7-9.6 58.7 2.6 71.9 10.9 13.2 8.2 33.1 28.5 41.6 48.8 4.2 10 4.6 29.4 4.6 32s78.9 8.6 103.9 2.3c9.5-2.4 41.5-13.7 48.2-32 6.1-16.9 10.2-35.3 9.9-42.6-.3-7.3-6.2-31.1-8.2-35.6-1.5-3.4 7.7-38.1 7.4-43.1s-5.6-14.6-5.6-16.2c.6-1.6 4.6-8.4 1.3-13.7s-11.2-13.1-23.6-16.2c-13-2.3-44.9-7.7-61.4-13.2-20.8-7-89.8-35-119.1-41.8-1-.3-2.3-.6-3.9-.9"/><path class="st1" d="M485.3 162.6c-2.2 6.7-8.5 11.3-13.7 12.1-22.6 3.1-58.1 0-63.5.4-5.5.4-18.3 4.8-19.2 7.9-.8 2.5 19.6 23.4 36 31.1 16.5 7.7 30.1 11.1 40 5.9 10.5-5.6 12.5-12.5 13-13.9M217.9 219.8c-5.4 3.1-17.9 15.1-23.5 23.5-6.6 10-10.2 22-6.3 42.9 1.4 7.7 12.6 26.7 24.6 36.6 10.1 8.4 25.2 16.6 39.9 18.2 16.5 1.8 32.2.2 44.4-11.7s16-27.2 18.3-33.9c2.4-6.7 1.5-18.7 1.5-18.7M164.5 166.9c-1.5-.1-11.5-.7-11.9.7s-.4 4.7.5 5.4 41.9 7.5 45.1 5.8c3.2-1.7 3.1-5.2 2.7-5.9-.4-.7-9.2-2.8-12.7-3.4-3.5-.6-23.7-2.6-23.7-2.6zM13.9 152.7c-4.5.1-8.3.1-8.4 1.3-.1 1.2-1.2 3.6 1 4.8s28.8 3.3 31.2 2.5c2.3-.8 2.3-4.4 1.8-5s-7.4-2.7-9.1-2.5c-1.7 0-16.5-1.1-16.5-1.1z"/><path class="st2" d="M243.7 58.2c.3-.7 8.6-6.2 12.8-6.8 4.2-.6 16.6-.3 17.4.3s-.9 5.1-1 5.7c0 .6.2 4.8.2 5.3s-2.9.3-2.9.3l-26.5-4.8zM382.1 132.6c3.2 1.6 17.9 15.2 25.8 19.3s50.6 12.5 54.8 15.5c4.1 3 11.7 7.9 12.5 11.1.8 3.2-2.4 30.9-1.6 33.1s6.3 14.7 10.4 17.4M281.6 63.4c-19.2.5-45.7 8.5-48.3 9.9-1.9-.4 135.6 52.4 148.9 59.2 6.7 2.1 21-3.5 17.9-17.6-3-9.8-42.8-25.3-42.8-25.3M0 73.7c9-3.9 42-15.1 79.2-15.1 91.7 0 236.1 63.9 245 77.1 12.9 9.5-30.3-.2-41 1.6s-39.6 8.9-48.2 8.9S26.1 131.8 0 131.4"/><path class="st2" d="M80.4 58.6c-2.6 4.9-25.8 66.3-24.3 75.9-4 3.7-11.2 9.5-12.7 19.6-.9 14 8.8 64.4 20.8 110.1M201.2 81.5c2.9 6.2 21.7 68 20.2 79.9S152.9 276.2 146 283.9M450.5 176c13.9-6.9 27.1-26 29.3-29.1"/></g></svg>
