<svg xmlns="http://www.w3.org/2000/svg" viewBox="0 0 500 375" style="enable-background:new 0 0 500 375" xml:space="preserve"><style>.st1,.st2{fill:none;stroke:#fff;stroke-miterlimit:10}.st2{stroke-width:.5}</style><g id="Calque_2"><path class="st1" d="M0 96.7c53.6-30 129.8-57.1 174.4-68.2 29.5-8.5 71-13.6 115.4-10.6 82 5.6 201.6 27.2 210.2 28.3M468.7 375.5s9.7-27.1 10.6-29.3c8.5 6.1 9.1 20.1 6.4 28.8M500 297.5l-17.6 51.6"/><path class="st2" d="m0 103.2 35.9-19.7c6.8.7 31 17.6 81.3 39.5 83.1 36.2 206.3 86.9 209.6 90.1-2.6 7.7-98.1 149.9-105.7 161.9M460.4 39.8c-15.2 2.1-27 8-30.4 7.5-9 0-72.6-12.8-126-19.7-35.8-4.6-61.8-4.2-62.4-5.4-1.4-2.9 44.2-4.5 46.3-4.3M423.3 375 500 214.3M320.4 375C332 348.7 450.9 77 500 64.3M175.8 87.3c.8 1.2-4.2 7-9.7 10.2-5.4 3.2-38.2 20.2-41.6 20.8-1.5.3-12.2-3.3-12.9-5.6-1.2-3.9.8-4.8.5-7.3s-5.9-12.6-5.3-14.1c.6-1.5 28.3-10.7 32.7-11.2 4.5-.5 26-1.8 36.3 7.2z"/><path class="st1" d="M254.2 375.5c26-43.8 200.7-329.7 245.8-325.8"/></g></svg>