<svg version="1.1" id="Calque_1" xmlns="http://www.w3.org/2000/svg" x="0" y="0" viewBox="0 0 500 375" style="enable-background:new 0 0 500 375" xml:space="preserve"><style>.st1,.st2{fill:none;stroke:#fff;stroke-miterlimit:10}.st2{stroke-width:.5}</style><g id="Calque_2_00000000223588256468482370000001072247019917994636_"><path class="st1" d="M471.7 144s7.5-16.3 7.9-18.3c.2-1.3-.2-5.4 0-6.9.2-1.8 7.3-26.8 6.1-28.8-1.2-2-5.8-4.1-7-4.4s-23.1-24.7-33.1-31.3c-7-4.7-21.7-8.8-35.8-9.5-14.2-.7-80.9-4.4-107.4-2.8-11.7.7-32.2 1.5-54.1 8.3-13.8 4.9-58.4 40.2-65.5 46.5-18 3.1-77.2 21.4-93.1 28.5-19 8.5-56.7 25.4-71.8 52.4-4.2 13.2-.3 39.1 14.2 68.7.8 1.9-1.4 3.8-1.4 5 0 3.1 17.2 41.7 57.6 72.1 24.1 12.8 91.9 15.6 104.4 14.5 16.6-1 40-12.3 42.7-16.5 2.4-2.3.3-15.2 3.1-30.5 5.2-21 10.7-38.2 29.2-59.4 17.5-20.1 32.8-31.5 47.3-27.5 15.8 5.9 16.8 25.7 9.5 55.3C319.8 264.2 443 175 443 175s3.5-12.1 5.5-16.7c1.8-4.1 9.8-21.4 12.8-26.3 2.5-4.1 10.2-14.7 12.3-12.7 1.8 1.4 2.8 8.1 1.6 12.2-.8 2.8-1.9 5.1-2.2 5.5"/><path class="st1" d="M190 91.1c-.3-1.3-.8-2.6-.3-3.4s6.8-7.2 9.6-7.3c2.8-.1 2.9 1 2.9 1M434.6 181.4c2.8 1.3 13.9 4 16.9 3.1 4.8-1.5 10.2-9.9 12.6-15 1.8-3.8 4.8-12.5 6.3-18.4.8-3.2 2.5-12.1 2.7-18.3.1-2.9-1.7-7.6-3-8.3-2.9-.7-2.8-.4-2.8-.4M478.6 85.7c1.1 2.1 4.5 14.4 5 17.3M457.9 105c-.5.5-2.1 1-2.3 2.1-.2 1.1-.2 2.4 0 2.8s9.5-1.6 10.2-3.3.5-3.1.5-3.1-2-.7-3.5-.4-4.9 1.9-4.9 1.9zM421.2 121.1c-2 .5-6.7 2.6-7.8 3.2-1 .7-3.5 2.4-3.6 3.1s.2 2.6.4 3.2 14.2-2.8 15.4-5.5c1.1-2.8.5-3.4.5-3.9-.1-.6-2.4-.7-4.9-.1zM346.6 124.1l-.5 9.2s6.3-2.6 7.5-2.7c1.1-.1 8.3-1.2 10.4-1.2s32 1.3 35.6.5c3.9-.8 9.4-2.6 14.7-9.2 1.1-1.9 2.4-4.5 1.8-4.9s-9.9-6.9-15.6-8-17.7-4.4-21.1-3.4S369 111.7 367 119c-.5 1-6.5-.3-6.5-.3s-11.1 3.9-13.9 5.4zM236.8 311.5s16.1 11 22.2 12.3c8.2 1.9 16.9 0 27.5-8.1s23.3-23.9 30.2-42c3.5-9.1 7.6-22 6.3-35.1-1.2-11.8-3.7-19.9-9.1-23.8-4.5-3.6-16.3-8.6-16.3-8.6M220.4 242.3c-6.5 4.2-104.7 24.9-116 19.5s-17.6-17.6-17.1-19.5 2.4-3.8 3.4-3.9c.9-.1 100.3-7.8 106.7-10.7 23.4-10.7 25.1-14.2 28.2-15.2s16.5-6.1 16.8-3.4c.2 2.8-14.4 28.4-22 33.2z"/><path class="st1" d="M17.4 179.9c-.5 9.7 20.3 61 69.9 62.9M32 246.1c2.7 6.8 32.3 48.6 42.3 53.1 3.3 1.9.4-21.4 9.6-27.2 8.8-4.2 21.3-8.2 25-9.3"/><path class="st2" d="M36.5 156.2c.8 16.1 53.5 50.2 128.4 75.8M171.1 231.4c8.3-6.2 36.6-24.1 58.5-34.6 16.5-7.9 84.4-35.8 88.3-41.4 3.9-5.6 7.2-23.1 6.7-25.1M346.4 124c3.4-5.9 20.6-48.4 30.5-61 13.1-11.9 28.8-12.8 33-12.6 7.6 0 21.5 2.3 31.8 7.7 9.2 4.7 21.7 15.7 24.8 19.7 0 1.8-1.2 7.6-3.9 10.7-2.4 1.3-55 20.7-56.7 21.2M345.9 134c1.2 6.2 2.4 8.8 1.9 14.4-1.9 19.5-10.8 100.6-12.9 104.5"/><path class="st2" d="M408.5 50.4c.8 2.6 10.4 34.7 12.6 53.7 3.5 3.5 5.3 6.3 6.6 10.4 1.2 3.9 0 21.8-13.5 81.6M445.2 60.2c5.1 6 14.1 26.2 14.6 29.4 2.3 1.1 7.1 3.7 7.9 6.9 3.1 13.4-25.3 73.1-28.3 81.3M294.3 42.6c-6.2 1.7-19 2.6-20.2 4.5.5.3 15.1-.7 29.6-.3 23.2.6 50.6 2.7 53.4 2.9 4.5.4 17.8-4.8 26-6.1M242.6 55.3c-6.5 1.5-66.2 47.1-66 50.3s102.2 25.5 112.3 25.7c18.1 1 40.3 0 43.3-3s33.1-65.8 33.5-66.4c-16-3.9-102.7-9.5-123.1-6.6zM379.7 43.3c1.6-1 2.8-1.7 3.6-1.9.8-.1 3.7.3 4.1.3.2.1 0 1.4-.1 2.1"/></g></svg>
