<svg version="1.1" id="Calque_1" xmlns="http://www.w3.org/2000/svg" x="0" y="0" viewBox="0 0 500 375" style="enable-background:new 0 0 500 375" xml:space="preserve"><g id="Calque_2_00000181783403720177913040000011128437969771162553_"><path fill = "none" stroke="#fff" stroke-miterlimit="10" d="M288.2 230.7c4.9 11.5 7.7 25.2 7.7 41.4 0 43.8-28.3 89.8-88.8 86.7-41 0-85.5-44.1-85.4-89.7 1.9-53.3 43.4-86.6 91.6-85.2 3.4 0 6.9.2 10.3.6"/><path fill = "none" stroke="#fff" stroke-miterlimit="10" d="m0 293.1 111.9 9.4 12.6-13.4M295.9 282.1h12"/><path fill = "none" stroke="#fff" stroke-miterlimit="10" d="M111.2 301.1c-1.7-14.4-4.8-36.2-3.4-44.6s2.5-51.5 59.7-73.6c58.6-12.6 109.3 20.7 131.9 66.4 6.6 18 10.9 39.9 11.3 57.6 35.4.1 108.4-8.6 122.3-13.2s38.6-23.5 42-31.7c3.4-8.2 9.6-35.5 9.1-45.6s-5.5-28.9-5.5-28.9L465 165.8s3.1-6 2.4-13.9-1-36-1.7-37.2-9.1-10.6-8.9-12.2 3-6.4 2.3-7.4c-.8-1-8.8-1.3-17.1-2.5s-81.2-18.1-89.7-20.5c-8.6-2.3-108.1-33.8-113-34.6-4.9-.9-64.4-18.8-83.6-22C139.9 12.7 80 4.9 40.6 5.1 4 5.3 5.4 5.1-.5 5.4"/><path fill = "none" stroke="#fff" stroke-miterlimit="10" d="m91.1 134.7 33.5.4s13-.8 14.1-1.8 4-6.2 2.5-7.8c-1.5-1.6-12.1-2.7-17.9-2.9-5.1-.2-32.2 0-32.2 0s-16.2 1.1-16.5 2.3c-.3 1.2-.7 5.5.8 6.8 1.4 1.4 14.9 3 15.7 3zM465.7 114.7c-2.2-2.7-56.4-6-68.2-4.9-8.8 1.8-21.4 8-20.4 9.8 2.7 4.6 39.1 31.9 46.4 35.4 16.3 7.8 30.8 9.5 41.7 10.3"/><path fill = "none" stroke="#fff" stroke-miterlimit="10" stroke-width = ".5" d="m208.9 28.6 13.5.4c.4.8-.4 3.5-.4 3.5M483.4 210.9c-1.2 9-15.4 12.7-23.4 14.1-1.1 1.4-5.3 6.7-5.3 6.7s27.5-5.3 29.2-14.5M0 12.9s84.6-.2 140.2 13c55.9 13.2 135.7 39.6 155.2 50.7 17.6 9.4-41.7-2.2-55.5 4-18.1 8.1-36.5 12-74 13.8C153.8 93 0 98.5 0 98.5"/><path fill = "none" stroke="#fff" stroke-miterlimit="10" stroke-width = ".5" d="M73.2 299.3c23.9-64.2 42.2-105.2 95.2-189.3-1.4-6.9-2.5-15.6-2.5-15.6l-25.7-68.5M374.6 77.4c5 4.7 12.6 9.9 15.8 11.2 5.9 2.5 58.8 11.6 62.3 14.8 1.9 1.7 9.1 9.4 10 10.2"/></g></svg>
