<svg version="1.2" xmlns="http://www.w3.org/2000/svg" width="2048" height="1536"><style>.s0{fill:none;stroke:#fff;stroke-linecap:round;stroke-linejoin:round;stroke-width:4.6}</style><path id="Layer" class="s0" d="M.1 447.9c60.3-13.9 149.2-38.2 242.1-72.1 193.2-70.6 417-158.6 502.5-183.3 3.5-12.1-8.2-30.4-8.7-45.6 77.2-13.5 112 1.1 141.3 15.8 196.7-36.4 350.5-35.3 447.7-39.1 97.2-3.8 332.5 14.7 452.6 32.1 85.9-1.6 235.9 24 270.4 37M421.7 1536c-19.6-134.2 141.6-347.5 456.3-406.2 147.7-27.6 395.3 19 323.3 275.9 249.5-63.9 676.2-200 846.7-258.8"/><path class="s0" d="M2048 591.6c-282.4 37.3-880.8 102.1-1196 142.5-24 3.1-61.9-1.3-85.7-5.5-24.3-4.2-102.8-22.4-127.6-32.6-24.8-10.2-42.7-11.9-63.2-8.5-20.5 3.4-179.2 26.2-215.8 26.5-32.2.3-20.6-12.1-6.4-20C584 564.9 978.5 362.4 1335.6 272c352.8-89.3 577-77.9 712.4-44.1M715 202c50 16.2 146.6 66.8 193.9 97.4-138.2 49-623.8 254.4-748.9 312.1-125.1 57.7-141.6 66.6-140.9-8.2.7-74.8 94.9-161.1 204.2-199.9 22.4-7.9 43.7-21.8 78-38C383 327 586.4 250.1 715 202z"/><path class="s0" d="M1308.5 1309.2c-103-157.2-290.3-372.6-359.7-482.2 0 0 2.5-51.3 14.4-106.7 11.9-55.4 89.2-296.4 114.4-367.4m672.9-148.1c3.1 6.4 5.3 15.4 5.2 18.7 26.7 79.5 81.3 261.8 100.3 367.2 5.7 5 14.7 14.9 17.1 22.9 20.5 23.6 39.7 50.2 49.9 65.9-4.6 36.5-13.3 65.8-12.6 111.1.8 45.3-15.4 148.3-73.7 258.3-39.2 74-51.1 75.5-52.7 88.2-1.6 12.7-2.8 33.3 0 54"/><path class="s0" d="M2048 1112.2c-101.5 31.7-576.6 177.8-833.9 212.8M571.9 665.6c13-17.6 36.4-46.8 52.7-69.6 16.3-22.8 30.6-28 44.9-35.8 364.7-198.9 652.3-265.7 863.9-309.4 211.2-43.6 364.6-31.9 514.6-3.9"/><path class="s0" d="M2048 572.9c-217.9 19-855.2 95.8-983.9 110.8-128.7 15-211.9 26-249.6 26.7-37.7.7-167.1-31.8-184-37.7-16.9-5.9-39.6-10.4-58.5-7.2-33.4 5.8-189.2 30.6-213.2 25.4"/><path class="s0" d="M1794.3 222c27.9 55.3 97.8 269.2 122.6 363.8m-208.3-360.3c31.9 87.6 71.5 291.4 79.6 374.2M1142.5 674.5c-10.7-45.8-25.1-126.4-32.1-159.3-7-32.9 6.9-85.6 27-160.8m-47.5 791.5c21.3 43.5 85.6 138.6 66.8 226-18.9 87.4-69.9 137.5-93 164.2M476 1361.9c-3.7 51.2-.2 114.5 13.8 174.1"/><path class="s0" d="M577.2 1536c-27.3-107.5 79.7-243.2 243.3-292.8 163.6-49.6 285.2 22 285.2 131.4 0 93.7-81.7 161.4-81.7 161.4M531.1 1298.2c-9.6 1.5-31.7 12.9-67.7 13.1-140.1.6-369.5 3.6-463.4-2.8m1327.7-484.9c6.6 0 11.5 5.8 10.6 12.3-1.6 11.1-8 25.8-27.6 31.9-28.4 8.7-172.9 37.4-223.3 35.6-25.4-.9-27.4-26.9-19.9-31.7 7.5-4.8 46.5-17.2 69.4-20.2 3.3 3.6 12.1 6.6 19.9 5.4 7.9-1.2 88.4-13 100.8-16.9 12.4-3.9 13-9.1 12.7-13.6 18-.3 41.9-2.9 57.4-2.8zm720.2-77.8c-28.3 4.7-85.4 9-97.7 7.2-12.3-1.8-13.2-20.7-5.1-26.8 8.1-6.1 22.7-9.4 42.7-14.1 21.4 9.6 49.3 3.1 60.2-.8"/><path class="s0" d="M1140.9 854.2c.2-13.9 6.7-23.7 20.8-30.7 14.1-7 54.4-15.2 76.8-14.9 22.4.3 30.3 17.9 28.4 26.7m-6 44c-2.6 10.1-11.1 19-30.3 24.1-19.3 5.1-40 8.2-52.4 9.6-12.5 1.4-24.9-5.7-27.9-14.6m839.1-185.7c2.4-9.8 16.2-20.7 28-24.3 11.8-3.6 30.6-5.3 30.6-5.3m0 73.7c-13.2 7.6-27.6 11.7-40.9 11.2-13.3-.5-17.1-10.6-16.6-16M775.9 816.2c2.9 11.2 13.2 53.6 12.6 82.8-.3 18.3-3 35.9-31.6 43.6-28.6 7.7-112.1 22.3-133.4 23.3-21.3 1-42.9-3-49.2-26-6.3-23-14.6-77.5-15.3-93.5-.7-16-.7-33.9 35.3-41.9 35.9-8 115.5-16.3 140.4-16.6 24.9-.3 36.4 9.8 41.2 28.3z"/></svg>