<svg version="1.1" id="Calque_1" xmlns="http://www.w3.org/2000/svg" x="0" y="0" viewBox="0 0 500 375" style="enable-background:new 0 0 500 375" xml:space="preserve"><style>.st1,.st2{fill:none;stroke:#fff;stroke-miterlimit:10}.st2{stroke-width:.5}</style><g id="Calque_2_00000055667018885890159230000001371560970829239698_"><path class="st1" d="M479.4 0c-72.6 7.7-153 20.9-184.1 32.6-21.3 8-43.7 27.1-54.9 33.7-21.3 3.7-92.5 6.9-149.3 21.5-28.1 7.2-62 21.8-73 36.2-8.6 11.1 0 101.8 8.4 119.8 10.4 21.7 66.2 71.5 88.6 82.9 22.4 11.4 172.7 32 202.6 27.2 29.8-4.8 56.9-17.8 63.9-28.7 5.9-10.3 1.3-7.9 5.8-27.8 5.3-26.2 17.1-72.3 25-89.9 7.9-17.5 35.6-77.9 56.2-75.7 13.6 1.8 15.2 36.2 10.8 61.2-3.6 15.4-7.2 28.2-7.2 28.2M468.1 246c10.1-7.9 27.5-25.3 31.9-29.2M490.5 0s8 4 9.5 5.8"/><path class="st1" d="M400.6 110.5c4.1 3.9-11.1 37.7-22.1 45.6-31.1 21.3-213.2 45.2-219.7 44.9s-30.9-25.1-30.3-32.2c.7-7.2 10.1-19.5 20.5-21.5s182.2-21.8 196.2-24.7c14.1-3 49.2-18 55.4-12.1zM376 331.3c4.7 2.5 30.1 13.6 38.2 12.4s22.2-9.8 35-36.2c7.7-15.9 15.2-40.1 19.8-65.8 2.7-15.2 7.3-37.7 4-66.2-1.4-9.8-10.1-22.1-15.4-24.9-8.4-2-11.9-2.6-11.9-2.6M500 55.6c-2.7.8-11.1-.9-12.8.5-1.7 1.3.4 9.7 2.1 10.4 1.7.7 10.7.5 10.7.5M15 138.3c11.2 20.6 76.5 34.3 113.6 29"/><path class="st1" d="M17.6 197.9c11.8 54.8 70.1 91.7 79.5 88 13.9-38.6 51.8-78.2 61.7-84.9"/><path class="st2" d="M55.4 99.5c10.9-3.5 112.1-1.1 143.3 5.8 21.5 4.8 64.1 16.4 80 26M290.9 129.8c18.7-17.1 65-34.5 98.4-41.4 46.9-9.8 79.8-7.6 78.2-12.1-.5-5.2-3.5-18.8-3.5-18.8M476.2 4.2c-1.8 8.2-9.8 49.4-12.1 53.2-11.7-1.3-206.7 6.6-219.5 9.5 10.1-5.7 29.2-20.9 46.4-29.5C312.1 24.5 472.7 3 476.2 4.2zM500 10.1c-3.3-.7-8.4-2.4-10.4 2.6-1.2 3.2-6.1 41.2-6.4 44.7 0 0 8.2 17.5 10.8 22.1 5.1 19.8 7.1 85.4-18 159.8M333.1 303.3c-15 .9-133.7 2.3-144.5 1.5-10.3-.8-33.8-9.4-31.7-14.8s17.6-23 23.4-25c10.5-3.8 126.1-5.3 139.6-.6 7.3 2.2 28.7 38.7 13.2 38.9z"/></g></svg>
