<svg width="1260" height="1083" fill="none" xmlns="http://www.w3.org/2000/svg"><g clip-path="url(#a)" stroke="#fff" stroke-width="1.001" stroke-miterlimit="10"><path d="M117.592 564.744c0 254.88 237.952 461.926 511.732 461.926 343.408 0 496.186-207.046 496.186-461.926S903.104 102.813 629.324 102.813 117.592 309.864 117.592 564.744Z"/><path d="M119.958 608.797 26.67 736.867l-181.844-15.419-59.826-5.035M1475 801.688c-101.4 17.936-278.85 13.53-278.85 13.53l-74.36-180.933"/><path d="M1196.15 815.219c11.49-200.758 53.74-303.339-99.37-529.584-187.254-226.56-669.918-355.888-976.484 10.069C4.362 482.931 21.262 661.347 26.67 736.867"/></g><defs><clipPath id="a"><path fill="#fff" d="M-215-97h1690v1180H-215z"/></clipPath></defs></svg>
