<svg version="1.1" id="Calque_1" xmlns="http://www.w3.org/2000/svg" x="0" y="0" viewBox="0 0 500 375" style="enable-background:new 0 0 500 375" xml:space="preserve"><style>.st1,.st2{fill:none;stroke:#fff;stroke-miterlimit:10}.st2{stroke-width:.5}</style><g id="Calque_2_00000023993561175310060500000007555908572888124049_"><path class="st1" d="M26.3 179.7c-3.9 8.3 15.4 40.2 16.9 89.9 1.3 21.3 15.9 46.8 19.5 51 6.1 7.3 23.9 19.6 52.6 24.4 13.6 2.3 74.1 11.1 134.8 10.5 66.6-.7 134.7-11.1 137.6-11.5 27.2-4.1 43.5-15.3 50.4-24.9 6.9-9.5 18.2-41.7 18.2-46 2.1-49.9 19.1-79.2 17.9-91.4.1-6.6-33.8-30.9-41.7-42.6-7.5-8.2-66.1-87.6-72.3-95.7-6.3-6.9-21.5-19.6-38.8-19.9-9-.8-40.4-3.3-71.4-3.4-33 0-65.6 2.4-70.3 2.9-9.1.9-24.3 5.5-35.8 16.9-8.5 9.3-64.1 85.8-82.5 105.7-5.8 6.3-31.6 26.7-35.1 34.1z"/><path class="st1" d="M31.6 205.3c16.1 28.2 97.6 44.2 99.3 44.2 1.7 0 6.9-55.1 6.9-55.1s-84.4-10.6-88.3-23.8c0-9.5 6.7-20.1 6.7-20.1M466.8 211.9c-16.7 14.5-67.4 34.1-98.2 36.4-2.8-4.7-7.4-50.8-6.5-54 4.7-1.5 79.5-8.6 88.9-23.2.8-10.8-8.1-20.7-8.1-20.7"/><path class="st1" d="M70 135.5c-3.2 5.6-15.2 29.6-14.1 40.8 0 13.4 38.3 82.5 53.5 88.2 7.6 2.8 72.1 14 140.5 14.1 68.4.2 127.9-8.8 140.3-15.5 15.5-8.4 57.4-72.2 55.4-87.4-1.4-14.2-16.3-40.2-16.3-40.2"/><path class="st2" d="M85.7 237.3c4.3 9.9 8.7 20.9 17.3 35.1 11.8 19.5 271.4 22 293.9 1.1 5-8.1 15.7-31.1 17.5-36.6M111 112.4c-7.2-14 36.4-69.4 37.8-69.4 81.2-13.5 196.8-3.5 201.2-.7s43.6 57.7 38.6 69.4c-8.7 16.3-268 14.5-277.6.7zM245.4 34.8h9.4s1.5-2 1.1-3.6-2.6-2.7-3.4-4.3c-.8-1.6-1.4-5.6-1.6-5.8s-1.8-.5-1.9 0c-.1.5-.8 5-1.4 5.9-.7.9-3.3 3.6-3.4 4.1 0 .5.1 2.3 1 3.4"/><path class="st2" d="M111 112.4c-7.2-14 36.4-69.4 37.8-69.4 81.2-13.5 189.8-5 201.2-.8M138.2 194.2c88.4 12.2 207.6 3.8 223.8-.1M45.4 274.2c7.1 11.5 46.3 16.2 52.2 17.9 2.7.5 2.9 2.5 2.9 2.5s-3.3 1-7.8.6c-15.7-1.6-29.8-5.3-40.3-11.1-4.9-3.8-7-9.9-7-9.9zM453.8 275.1c-3.5 9.7-48.8 16.1-50.8 16.6s-3.8 2.5-3.8 2.5 1.6.7 4.8 1.2 30.5-3.3 42.9-10.1c7.2-5.8 6.9-10.2 6.9-10.2zM171.4 225.4l1.7 27.6s39 2.4 75.3 2.6c39.3.2 78.2-2.6 78.2-2.6l1.2-27.6s-51.1 1.1-78.8 1.2c-27.6.2-77.6-1.2-77.6-1.2z"/></g></svg>
