<svg version="1.1" id="Calque_1" xmlns="http://www.w3.org/2000/svg" x="0" y="0" viewBox="0 0 500 375" style="enable-background:new 0 0 500 375" xml:space="preserve"><path fill = "none" stroke="#fff" stroke-miterlimit="10" stroke-width = "1.0006" d="M401.6 210.3c0 81-70.4 146.8-151.4 146.8-101.6 0-146.8-65.8-146.8-146.8S169.2 63.5 250.2 63.5s151.4 65.8 151.4 146.8z"/><path fill = "none" stroke="#fff" stroke-miterlimit="10" stroke-width = "1.0006" d="m400.9 224.3 27.6 40.7 53.8-4.9 17.7-1.6M0 285.6c30 5.7 82.5 4.3 82.5 4.3l22-57.5"/><path fill = "none" stroke="#fff" stroke-miterlimit="10" stroke-width = "1.0006" d="M82.5 289.9c-3.4-63.8-15.9-96.4 29.4-168.3 55.4-72 198.2-113.1 288.9 3.2 34.4 59.5 29.4 116.1 27.8 140.1M0 19.9c46.6-2 96-4.5 102.5-4.5 12.4 0 7.7 6.5 4.1 9.7-3.8 3.2-59.3 45-65.8 47.1-2.4.8-19.7 3.7-40.9 7M476 0c-13.1 56.4-12.8 194.2 6.3 260.1M0 16.4C14 11.7 43.2 4.2 60.5 0"/></svg>
