<svg version="1.1" id="Calque_1" xmlns="http://www.w3.org/2000/svg" x="0" y="0" viewBox="0 0 500 375" style="enable-background:new 0 0 500 375" xml:space="preserve"><style>.st1,.st2{fill:none;stroke:#fff;stroke-miterlimit:10}.st2{stroke-width:.5}</style><g id="Calque_2_00000090998054636165168080000018380194631171835324_"><path class="st1" d="M500 52.5s-12.3-4.5-40.4-7.3-137-1-162.3 4.4C272 55 243 75.4 214 98.4c-97.4 19.4-114.6 24.4-153.1 45.9-36.6 20.4-37 44.5-37 49.6 0 5.2 12.2 82.9 31.8 118 17.7 25.2 77.6 36.4 101.8 36.1 19.4-.3 44.8-8.9 47.1-11.2 2.3-2.3-2.4-29.6 5.6-50.6 10.3-27.1 37.7-59.2 63.2-67.4 25.4-8.2 56.3-4 57.3 24.6.9 28.6-.6 31.1-1.5 37.2S500 203.8 500 203.8"/><path class="st1" d="M205.5 314.4c4.2 7.1 18 21.1 25.3 26.7 5.7 4.4 21.2 6.2 36.5.1 21.4-8.6 36.6-24.4 46.5-41.7 8.8-15.5 15.2-38.3 9.4-54.2-2.8-7.6-5.5-13.6-13.4-19.1-6.6-4.6-18.4-11.1-18.4-11.1M52.7 226.5c-5.5.8-.2 12.1 1.4 15.9 2.2 5.5 6.7 14.9 11.4 17.3 31.2 5.6 104.6-5.4 116.2-13 8.5-5.6 33.7-32.2 30.9-34.6-2.8-2.5-46.4 14.2-55 14.9-24.3 2.2-101-1.1-104.9-.5zM45.1 287.4c1.4-7.7 1.8-23.3 5.9-25.8s14.4-1.9 14.4-1.9"/><path class="st1" d="M24.1 189.4c-.3 8 4.3 19.2 9.9 28 2.3 3.6 7.9 13.3 16.5 14.9M363.5 129.7c-1.3 2.4-2.4 10.4-2.4 10.4s8.3-2.2 11.4-2.6c3.1-.4 30.1-.9 48.9 1.6 9.8 1 13.2-.4 16.9-2.4 3.7-2 12.9-7.9 11.8-12.9-.7-3-28.9-15.9-43.9-15-10.6.7-17.9 16.3-18.2 16.4-.3.1-4.5.2-4.9 0-.5-.2-18.9 4.4-19.6 4.5zM458.7 136.4c-2.1 1-5.8 2.7-5.9 3.3s-.3 3.6.3 3.8c.7.1 21.7-3.6 23.1-5.6s.9-4.3.9-4.3-.3-1.5-6.5-.5c-6.1.9-11.9 3.3-11.9 3.3z"/><path class="st2" d="M55.5 147.5c-4.8 5.6-6.9 16.8-2.6 24.8 8.5 15.7 53 49.3 69 55.5M128.8 227.7c7.8-5.4 51.7-23.1 86.9-34.5 41.3-13.4 97.4-26.1 103-31.6 3.7-3.6 13.2-16.8 14.7-26.9"/><path class="st2" d="M348.7 132c4.7-3.3 50.7-66.8 53.5-69.8s-105.5-8.7-123.2-4c-8.2 2.2-74.9 49.3-74.4 50.6.5 1.2 86.6 26.8 97.8 26.8 13.4 0 40.8.2 46.3-3.6zM328.8 46.2c-4.8.8-19.4 3.2-17.8 3.5 20.1-1.4 72.2-.7 84.6.3 5.6-.5 36.1-5.9 40.8-5.9M363.4 129.4c5.3-8.8 36.9-54.5 48.4-63.3 10.6-8 24-13.5 49.8-14.5 12.3-.5 36.4 5.6 38.4 6.9M445 120c5.1-1 51.3-11.1 55-12.6M360.8 140.5c-.6 8.6-1.9 21-4.7 27-2.8 5.9 1.4 20.1-12 108.5"/><path class="st2" d="M461.6 51.7c1.6 6.4 10 44.9 11.3 62 2.5 3.7 7.1 6.5 7.1 16.1s-3.4 37.1-19.6 93M159.9 320.9c10.7-.6-15.7-16-20.8-16.8s-60.1-15-62-12.2c-2 2.8-2.8 8.9-1.5 10.9 1.3 1.9 47.4 20.2 84.3 18.1zM29.5 227.7c2 7.4 3.7 11.8 7.9 16 2 8.2 3.7 17.1 4.2 17.6s-3.6-3.5-7-12.4"/></g></svg>
