<svg version="1.1" id="Calque_1" xmlns="http://www.w3.org/2000/svg" x="0" y="0" viewBox="0 0 500 375" style="enable-background:new 0 0 500 375" xml:space="preserve"><style>.st1,.st2{fill:none;stroke:#fff;stroke-miterlimit:10}.st2{stroke-width:.5}</style><g id="Calque_2_00000122709010145158097440000015287853252097528978_"><path class="st1" d="M128.6 84.9c-29.6 6-68.3 32.3-99.8 67.3-5 10.9 3.1 26.9-12.8 81.3-1.9 6.8 11.2 42.2 21.3 56.8 11.2 16.3 48.4 47.6 76.2 50.1 20.3 1.8 79.4 5.5 137.5 5.8 59.5.3 118-2.9 135.8-5.8 31.4-5 69.9-38.9 76.9-53.4 9-18.5 20.1-41.7 20.1-53.8-16.6-43.3-6.1-67.8-13.6-82.3-23.4-25.3-68.3-58.8-97-66-9.9-9.8-28.3-41.7-40.9-47.8-8.9-4.4-9.4-3.9-14.4-4.5-3-.4-35.6-2.2-68-2.2-32.5 0-64.9 1.9-67.7 2.2-5.7.8-10.1 1.1-16.3 5.3-11.3 7.6-28.4 32.8-37.3 47z"/><path class="st1" d="M27.1 159.3c1 7.9 3.8 15.7 10 23.9 7.7 10.2 42.8 39.6 49.4 42.9 4.3 2.9 20.9-11.4 23.8-13.8.3-1.3-19.7-18-21.7-19.7s-59.3-31-56.4-44.1M473 162.8c-2.1 8.2-5.5 16.6-11.1 22.5s-48.4 42.6-49.4 42.6-22.6-14.8-22.9-15.8 13.7-16.2 20.2-19.1c20.2-9.2 58-32.6 58.4-44.1"/><path class="st1" d="M86.1 225.9c5.1 16.2 47.7 85.6 59.3 91.6 33.7 17.3 180.5 12.7 206.4 2.1 19.7-8.1 47.3-60.3 61.4-92.1M390 211.8c-31.9 10.8-216.5 17.7-279.8.5M114.4 89.1c-3-.1-3.9-.1-4.8-.7-2.8-1.9-6.4-8.7-5.7-10.2s5.4-5.2 8.4-6.4c3-1.2 13.5-5 15-2.2 1.4 2.8 3.2 11.8 2.8 13.2M386.1 89.4c3.1 0 4-.3 4.4-.8 1.8-2 6.5-8.5 6.2-9.9s-7.6-6.9-10.9-7.9c-3.5-1-10.7-3.3-12.5-1.4s-3.9 10.3-3 12.4"/><path class="st2" d="M104.9 82.2c4.5.8 24.4.1 25.1 0M370.5 82.1c3.4.7 18.2.4 24.5 0M459.9 161.1c-10.9-5.4-24.3-9.7-32.8-11.1-5.3-.8-91.2-3.3-177-3.4-86.5 0-172.9 2.4-176.5 3.2-7.1 1.6-32.3 9.3-33.9 11.1M169.9 39.1c-1.9.7-36.6 47.1-36.7 48.1 17 2.4 68.4-1.6 117.9-1.6 54.5 0 107 3.8 114.5 1.8.2-1.6-33.1-47.5-35-47.5-26.5-5.9-126.8-6.6-160.7-.8zM20 238.3c3.3-1.7 43 28.2 45.1 29.9 3.6 3.1 27 27.8 27.2 28.9s-3.4 3.2-9.6.9c-11-4-63.3-55-62.7-59.7zM479.6 239.5c-.9-4.8-40 25-43.4 28.1-3.4 3-29.8 29-28.8 30.3s2.5 2.8 9.1.5c6.7-2.3 63.7-54.5 63.1-58.9z"/></g></svg>
