<svg width="500" height="375" viewBox="0 0 500 375" fill="none" xmlns="http://www.w3.org/2000/svg">
<path d="M72.5 119.5C72.5 119.5 142.5 17.4998 168.5 14.4998C168.5 14.4998 249.02 2.49984 334.26 14.4998C334.26 14.4998 361.02 17.4998 430.26 119.5C430.26 119.5 465.5 144.5 486.5 178.5V185.66C486.5 185.66 490.5 193.5 487.5 201.5C487.5 201.5 483.5 208.5 478.5 211.5C478.5 211.5 478.5 249.5 483.5 263.5L482.5 275.5C482.5 275.5 466.5 315.5 462.5 318.5L453.5 322.5L446.5 333.5C446.5 333.5 422.5 351.5 409.5 354.5C409.5 354.5 247.8 385.5 93.65 354.5C93.65 354.5 59.5 337.5 56.5 333.5L48.5 322.5L38.5 315.5C38.5 315.5 22.5 289.5 17.5 268.5V261.5C17.5 261.5 25.5 246.5 23.5 211.5L14.5 200.5C13.4155 193.112 14.101 185.571 16.5 178.5C16.5 178.5 45.5 135.5 72.5 119.5Z" stroke="white" stroke-miterlimit="10"/>
<path d="M368.1 40.05C250.7 17.6 134.84 40.05 134.84 40.05" stroke="white" stroke-miterlimit="10"/>
<path d="M376.59 49.1401C392.68 71.7901 418.34 115.5 418.34 115.5C280.18 123.5 82.5 115.5 82.5 115.5C82.5 115.5 108 73.6501 120.23 56.5701" stroke="white" stroke-miterlimit="10"/>
<path d="M16.5 178.5C16.5 178.5 50.5 195.5 140.5 208.5C140.5 208.5 282.86 217.5 359.18 208.5C359.18 208.5 477.5 188.5 486.5 178.5" stroke="white" stroke-miterlimit="10"/>
<path d="M23.5 211.5C23.5 211.5 41.5 230.5 119.5 229.5H124.83L138.5 226.5C138.5 226.5 281.5 233.5 362.5 225.5L383.5 229.5H391.45C391.45 229.5 462.52 229.5 478.52 211.5" stroke="white" stroke-miterlimit="10"/>
<path d="M167.47 227.66L168.47 260.5L170.47 262.5L331.47 261.5L333.47 259.5C333.47 259.5 335.3 232.82 334.38 227.66" stroke="white" stroke-miterlimit="10"/>
<path d="M78.3096 227.88L87.4996 252.5C87.4996 252.5 94.4996 267.5 136.5 272.5C136.5 272.5 311.5 283.5 387.5 268.5C387.5 268.5 405.5 264.5 411.5 257.5C411.5 257.5 419.62 246.27 423.06 227.88" stroke="white" stroke-miterlimit="10"/>
<path d="M35.0703 309.61C35.0703 309.61 98.5003 337.61 250 336.08C250 336.08 378 339.72 467.76 309.61" stroke="white" stroke-miterlimit="10"/>
</svg>
