<svg width="500" height="375" viewBox="0 0 500 375" fill="none" xmlns="http://www.w3.org/2000/svg">
<path d="M126.5 86.4998C126.5 86.4998 160.5 17.4998 181.5 11.4998C181.5 11.4998 258.5 -1.50019 323.5 13.4998C323.5 13.4998 346.04 26.4998 374.77 86.4998C374.77 86.4998 384.5 101.5 392.5 104.5C392.5 104.5 448.5 142.5 455.5 170.5L462.13 190.5L468.5 230.5L467.5 236.5L460.5 262.5L448.5 284.5C448.5 284.5 450.5 301.5 450.5 304.5L449.5 310.5C449.5 310.5 431.5 335.5 424.5 338.5L413.5 340.5C413.5 340.5 399.5 353.5 384.5 356.5C384.5 356.5 280.5 383.5 110.5 354.5C110.5 354.5 95.5 348.5 88.5 340.5L78.5 339.5C78.5 339.5 54.5 323.5 51.5 307.5V284L39.5 259.47L31.5 230.47L41.5 181.47L44.5 169.47C44.5 169.47 57.5 134.47 114.5 99.4698C114.5 99.4998 123.5 92.4998 126.5 86.4998Z" stroke="white" stroke-miterlimit="10"/>
<path d="M102.5 69.5001V67.3401C102.5 67.3401 115.5 55.5001 128.5 59.5001C128.5 59.5001 130.5 68.5001 130.5 73.5001C129.286 75.5769 127.95 77.5804 126.5 79.5001C126.5 79.5001 105.5 83.5001 102.5 69.5001Z" stroke="white" stroke-miterlimit="10"/>
<path d="M120.25 80.0298L126.5 86.4998" stroke="white" stroke-miterlimit="10"/>
<path d="M130.11 74.1401L131.87 76.1301" stroke="white" stroke-miterlimit="10"/>
<path d="M369.5 73.4999L373.5 79.4999C373.5 79.4999 390.5 82.4999 397.5 73.4999L398.5 67.4999C398.5 67.4999 385.5 55.4999 371.5 59.4999C371.5 59.4999 370.5 65.4999 369.5 73.4999Z" stroke="white" stroke-miterlimit="10"/>
<path d="M380.5 80C380.5 80 375.43 85.25 374.5 85.89" stroke="white" stroke-miterlimit="10"/>
<path d="M370.11 74.4199L369.5 75.4399" stroke="white" stroke-miterlimit="10"/>
<path d="M167.56 21.7698C167.56 21.7698 238.88 12.2398 334.19 22.8698" stroke="white" stroke-miterlimit="10"/>
<path d="M127.37 84.7701L135.5 87.5001C135.5 87.5001 260.5 91.5001 366.5 87.5001L373.84 84.6001" stroke="white" stroke-miterlimit="10"/>
<path d="M123.5 239.5C123.5 239.5 182.68 250.5 378.59 239.5C378.59 239.5 419.5 266.5 420.5 269.5C420.5 269.5 383.5 326.5 370.5 337.5L363.5 340.5C363.5 340.5 228.35 355.5 140.43 340.5L130.5 336.5C130.5 336.5 85.5 285.5 82.5 270.5C82.5 270.5 117.5 242.5 123.5 239.5Z" stroke="white" stroke-miterlimit="10"/>
<path d="M41.5 181.5C41.5 181.5 43.5 201.5 123.5 239.5" stroke="white" stroke-miterlimit="10"/>
<path d="M31.5 230.5C31.5 230.5 54.5 258.5 82.5 270.5" stroke="white" stroke-miterlimit="10"/>
<path d="M34.9404 213.63C34.9404 213.63 43.5004 235.5 76.5004 251.5C76.5004 251.5 105.5 244.26 116 235.88" stroke="white" stroke-miterlimit="10"/>
<path d="M378.59 239.5C378.59 239.5 445.67 210.12 459.59 182.81" stroke="white" stroke-miterlimit="10"/>
<path d="M420.5 269.5C420.5 269.5 460.5 248.14 468.5 231.82" stroke="white" stroke-miterlimit="10"/>
<path d="M386.19 236C386.19 236 414.5 253.5 424.5 252.5C424.5 252.5 464 230.93 465.75 213.22" stroke="white" stroke-miterlimit="10"/>
<path d="M88.5 340.5H126C126 340.5 231.52 364.5 384 340.5L414.54 340.31" stroke="white" stroke-miterlimit="10"/>
<path d="M172.5 298.5L329.5 297.5L327.5 331.5C327.5 331.5 223.5 338.5 174.5 329.5L172.5 298.5Z" stroke="white" stroke-miterlimit="10"/>
</svg>
