<svg width="500" height="375" fill="none" xmlns="http://www.w3.org/2000/svg"><path d="M461.37 75.009c-5.54-16.49-25.6-48.82-25.6-48.82l-14.68-9.86c-143.08-27.51-315.84 8.64-315.84 8.64l-5.5 7 3.38 10.16-58.32 54.23L15 114.929l-6 6.42v6.42l8 33.25 2.06 3.44-10.02 25.91v7.76l9.4 20.33 4.28 13.15 8 25.07s65 75.7 107.69 94.62l77.69 15.83s26.14-2.75 28.2-2.75c2.06 0 33.71-14.45 33.71-14.45l6.88-9.63s43.56-112.81 83-128.86c0 0 22-6.88 7.34 40.35l80.26-85.75s22.7-64.9 28.2-61c0 0 3.44 2.07-4.82 24.31" stroke="#fff" stroke-miterlimit="10"/><path d="M477.02 112.839s6.9 8.05-3.88 36.72c0 0-8.94 30.49-17.43 36l-3.43 1-12.22-4M461.68 63.339l8.71-2s17.89 5.62 20.75 9.63v3.79s-4 7.56-6.74 8.94c0 0-19 .11-20.66-.69l-2.06-2.41s-.69-16.47 0-17.26ZM481.25 83.749l1.38 2.63 3 10.55s-.19 8.26-1.24 11.35M352.98 221.639l8.65 3.13c5.65 2.6 7.6 19.86 7.6 19.86 2 13.68-3.88 39.14-16.14 66.23-16.77 37.08-39.19 63.14-50.06 58.22l-28.7-17.45M337.86 116.309l10.54-82.55s66.73-18.8 86.45 0c0 0 11.72 12.61 24.78 42 0 0-5.52 1.38-4.83 5.28l.69 1.49-117.63 33.78ZM455.49 82.489h7.41M459.63 75.719l1.9.69M105.25 24.969s132.84 2.6 157.15 14.52c0 0 12.61 7.34 28.89 24.77l-42.19 80.71s-73.85 6.88-171.04-25.22c0 0-47.24-14.45-33.25-23.39" stroke="#fff" stroke-miterlimit="10"/><path d="M103.13 42.129s5.43-5.35 13-6c0 0 150.89 1.1 166.25 19.24M291.31 64.259s9.63-21.1 31-28.21c0 0 77-25.75 111-8.33 0 0 7.85 7.13 12.35 15.24M18.69 112.629v10.17l-4 28.38M112 177.529v4.28l15 23.85 4.28 3.36 33 11.31s8.25 4.59 10.7 7.65l11 8.56s67.26 6.11 84.38-8.56c0 0 20.18-46.17 20.95-52.89 0 0-2-6.73-28.59-3.37 0 0-34.09 8.56-61.07 8.26 0 0-49.91-2.14-56.33-4.59 0 0-28.74-5.2-33.32 2.14ZM249.12 144.969l-24.96 33.67" stroke="#fff" stroke-miterlimit="10"/><path d="M185.98 236.539v19s-23.73 25.41-32.25 29.53c0 0-8.94 6.42-24.54 0 0 0-101.35-53.19-120.15-88.74" stroke="#fff" stroke-miterlimit="10"/><path d="M19.13 164.459s7.72 23.67 8.48 25.45c0 0 53.51 56.41 133 83a30.67 30.67 0 0 0 9-.83M36.94 232.699l1.53 14.54 57.63 48v-16.97" stroke="#fff" stroke-miterlimit="10"/><path d="M18.44 218.499s82.55 63.29 85.3 66c0 0 33.63 38.52 43.11 51 0 0 22.14 22 30.54 23.69M404.59 25.409s15.31 56.23 14.66 67.49l7.32 6.06 6.42 17.35s-2.44 38.9-11 61.83l4 13.15-1.08 7.46" stroke="#fff" stroke-miterlimit="10"/><path d="M379.7 233.009s76.93-70.67 81.19-81.8" stroke="#fff" stroke-miterlimit="10"/></svg>
