<svg version="1.1" id="Layer_1" xmlns="http://www.w3.org/2000/svg" x="0" y="0" viewBox="0 0 500 375" style="enable-background:new 0 0 500 375" xml:space="preserve"><style>.st0{fill:none;stroke:#fff;stroke-width:1.0006;stroke-miterlimit:10}</style><path class="st0" d="M400.5 214.1C395.3 292.9 324.6 357 244.3 357S98.4 302.1 98.4 223.2c0-90.8 65.9-165.8 156.2-166.1 89.7-.1 151.3 76.6 145.9 157z"/><path class="st0" d="M0 228.6c1.8 1.4 3.8 2.9 5.9 4.4C23 246 59 250.4 82.6 246.8c7.1-1.1 13-2.9 17-5.5M401 202.2s5.5-1.1 9.9.5c8.2 3.9 16.5 16.3 20.4 19.3h.4l47-4.1 21.4-1.9"/><path class="st0" d="M82.6 246.8c-21.7-56-11.2-147.7 42-196.8 42.9-22.6 203.1-28.1 227.3-9.3 23.4 18.1 81.9 126.5 79.8 180.7M42.4 0c-7.7 7.2-15.3 13.6-18.8 16.2-5.1 3.8-15 4.7-23.6 4.6"/></svg>
