<svg version="1.1" id="Calque_1" xmlns="http://www.w3.org/2000/svg" x="0" y="0" viewBox="0 0 500 375" style="enable-background:new 0 0 500 375" xml:space="preserve"><style>.st1,.st2{fill:none;stroke:#fff;stroke-miterlimit:10}.st2{stroke-width:.5}</style><path class="st1" d="M484.4 33.9c8.4.6 14.5.8 15.6 1.1M0 91.4C6.9 87.6 53.3 71.1 66.9 67c73.5-21.8 298.1-35.9 327-36.9 14.4-.5 61.5 1.6 61.9 1.9M167 375c6.7-38.8 92.7-136.6 145.3-181.9S477.8 90.1 500 84.7M500 56.2c-6.9.3-96.3 30.3-124.8 46.3-8.9 5-45.6 29-47.1 35.2 0 0 26.4 6.8 36.9 5.9 7.1-.6 38.9-24.7 74.8-38.3 9.3-3.4 60.2-25.7 60.2-25.7"/><path class="st1" d="M96.1 60.1c6.9-6.9 31.6-15.1 33.1-15.5 41.3-7.7 242.5-23.4 258.7-18.4 0 0 3.1.9 4.5 3.7"/><path class="st2" d="M167 375c-.5-3.7 2-2.9-9.4-13.8-13.5-13-108.5-70.4-157.7-147M241.1 375c56.5-77.3 153.2-179.9 258.9-238.2"/><path class="st2" d="M469.1 156.4c9.5 56.2 17.3 143.9 13.2 218.6M48 77.8c1.4 10.1 121.8 76.8 136.1 76.7 58.9-12.9 66.1-28.3 116.7-44.8 85.6-28 174.6-50.5 182.6-53.5C496 51.4 332 36.8 312.2 36.7 299 38.8 167 49.3 139.6 54.5 123.4 57.6 51.1 70.6 48 77.8zM483.1 35c-3.9.2-19.3 1.7-28.8 0-1.7-.3 2.8-5 5.8-5 2.3-2.4 5.4-5.4 9.3-9.4 5.2-2.7 10-1.7 11.4-1.2.3 1.9-1.6 7.6-.9 9s7.1 6.4 3.2 6.6z"/></svg>
