<svg version="1.1" id="Calque_1" xmlns="http://www.w3.org/2000/svg" x="0" y="0" viewBox="0 0 500 375" style="enable-background:new 0 0 500 375" xml:space="preserve"><style>.st1,.st2{fill:none;stroke:#fff;stroke-miterlimit:10}.st2{stroke-width:.5}</style><g id="Calque_2_00000183960174007711401780000014924581785086444964_"><path class="st1" d="M304.7 224.6c26.1 18.7 24.8 65.1-2.8 103.6-27.7 38.4-71.2 54.3-97.4 35.6M204.4 363.7c-11.7-6.4-33.7-34-39.4-55.6-.8-26 14.2-57.5 21.8-68.2 5.2-7.4 10.6-17.4 24-26.4 6.2-4.1 23-9 39.4-13 15.7 2.5 40 10.1 54.4 24M500 225.2c-2.1-.5-7.8-1.6-11-5.5-2.3-2.8-3.1-7.6-3.5-11.7M31.7 136.2s-1.7 1.4-2 1.6c-1.7.4 1.1 22.3 1.1 22.7 0 .6-12.3 12.9-12.7 14.3-.8 3 .4 15.5.2 26.2 0 .9.1 2 .2 3.3v.2"/><path class="st1" d="M18.6 204.5c1.8 14.1 13 47.6 13.7 49.5.7 2 7.6 21.9 8.4 28.6s4.1 16.3 8.2 22.3c4.1 5.9 18.8 15.2 28.4 21.9 9.6 6.7 28.8 12.4 42.1 12.4 13.4 0 24.9-3.9 24.9-3.9l6.7 2 3 2.4s4.8 5 7.6-14.5c.6-4.2 4.3-54.2 25.4-85.4 5.1-7.5 10.6-17.4 24-26.4 6.2-4.1 23-9 39.4-13 19.2-4.7 37.8-8.3 37.8-8.3s11.5-2.8 22.8 3.7 21.3 66.3 20.2 70.7c-.9 3.6-2.4 4.6-3 4.9l157.4-63.7 14.5-5.9M500 27.3s-12.8-2.3-21-3.6c-7.2-1.1-41.3-4.4-61-5.2-3-.1-5.7-.2-8-.2-16.5.1-43.6 4.3-71.4 8.1-27.7 3.8-38.7 7-45 9.4-6.4 2.4 1.6-1.1-18.3 7.6-20 8.8-73.7 50.4-73.7 50.4s-11.1.7-16.7 1.1c-51.5 4.3-82.9 6.6-133.7 23-7.8 3.6-18.5 13.1-19.3 14.9-.1.3-.1 3.1-.1 3.1l.1 4.8c.1 4.8 7.9 19.4 15.9 24 5.6 3.2 26.3 7.4 52.8 8.3-3.9-8.4 20.7-20.2 33.3-25 19.3-7.9 165.2-31.3 175-33.4s10.4-4.9 10.4-4.9M500 202.1"/><path class="st1" d="M323.5 270.4s2.8 2 4.7 1.2M18.6 204.5v-.2M500 27.3s-12.8-2.3-21-3.6c-6-.9-31-3.4-50.5-4.6-3.7-.2-7.3-.4-10.5-.5 1.4-.7 3.3-1.7 5.4-2.6 2-.9 6.5-2.4 11.6-2.8 7.6-.5 65 8.7 65 8.7M467.7 116.5c-.5.9-.5 1.1-2 1.8-.8.4-3.6 1.1-6.2 1.7-2 .5-3.9.8-4.9.9-1.4.1-4.4.5-7 .6-1.6.1-2.9.1-3.6-.1-1.7-.5-2.4-1.8-2.5-2.8-.2-1.1.1-2.7.5-3.5.7-1.2 1.8-1 3.3-1.2.4 0 .9-.1 1.6-.1 2.2-.2 5.5-.4 7.8-.9 1.1-.2 2.2-.5 3.2-.7 1.6-.4 3.1-.8 4.3-1.1 1.9-.5 4.1-.3 4.1-.3s1.3.4 1.8 1.4c.4.5.2 3.3-.4 4.3z"/></g><path class="st2" d="M202.9 94.7s56.4-43.9 74.5-52.2c8.3-3.8 94.6-15.2 120.3-10.3-7 9.1-48.5 53.4-63.9 76.3-3.4 5.1-79.9-8-85.7-8.8-6-.8-45.2-5-45.2-5z"/><path class="st1" d="M360.5 104.5c.1 1.4 2.3 2 3.1 2 .7 0 60.9-.7 64.1-2 3.1-1.3 8.5-10.4 8.6-18.7.1-7.6-7.7-11.5-13.8-12-6.1-.5-31.1-2.7-38.8 2.8-7.6 5.5-12.3 13.7-11.5 16.3.9 2.6 2.5 5.1 2.5 5.1s-7.1-.5-10 .9c-2.7 1.5-4.5 2.1-4.2 5.6zM47.8 164.7c-.8 3.3.7 26.4 2.8 28.7s57.2 15.1 75.2 11.6c17-8.4 27.5-25.8 24.7-30.4-2.2-4.4-25.5.2-49.9-1.5"/><path class="st2" d="M499.9 33.7s-65-11.1-79.2-5.3c-23.1 5.9-65.2 71.5-74.5 84.4 4.6 8.7 6.6 12.6 7 20 4.2 31.9-5.3 115-5.3 130.6"/><path class="st2" d="M458.2 28.1c4.1 19.2 9 58.8 7 66.4 3.1 5.9 4.2 7.1 6.5 17.5 0 16.2-17.4 101-22.9 110.6"/><path class="st2" d="m404.4 105.8-50.9 6.4s43.9-70.5 63.3-77.1C435 24.6 500 37.5 500 37.5M499.9 93.9l-70 8.7M30.8 160.5c.3 3.3 7.8 37.4 15.6 46.7 3.2-3.5 4.2-8.2 4.2-13.8M46 261.1c36.4 14.7 58.3 10 62.8 15.8 3.6 4.3 1.1 28.3-.9 34.4-3.3 1-33.2-8.4-37.1-12.7C67 294.3 47 268.8 46 261.1z"/></svg>
