<svg width="1260" height="1110" fill="none" xmlns="http://www.w3.org/2000/svg"><g clip-path="url(#a)" stroke="#fff" stroke-width="1.001" stroke-miterlimit="10"><path d="M105.31 603.701c17.576 247.643 256.542 449.659 527.956 449.659 271.414 0 493.144-172.752 493.144-421.024 0-285.717-222.744-521.717-527.958-522.661-303.186-.315-511.394 241.034-493.142 494.026Z"/><path d="M1459 649.328a607.608 607.608 0 0 1-19.94 13.845c-58.14 40.907-179.82 55.067-259.25 43.424-24-3.461-43.94-9.125-57.46-17.306M103.62 566.256s-18.59-3.461-33.462 1.573c-27.716 12.272-55.77 51.291-68.952 60.731H-.146l-158.522-12.901-72.332-6.294"/><path d="M1179.81 706.597c73.35-176.213 37.86-464.762-141.96-619.264-145-71.114-686.476-88.42-768.272-29.264C190.486 115.024-7.244 456.123-.146 626.672"/></g><defs><clipPath id="a"><path fill="#fff" d="M-231-70h1690v1180H-231z"/></clipPath></defs></svg>
