<svg version="1.2" xmlns="http://www.w3.org/2000/svg" width="2048" height="1536"><style>.s0{fill:none;stroke:#fff;stroke-linecap:round;stroke-linejoin:round;stroke-width:4.6}</style><path id="Layer" class="s0" d="M0 144.8c643.3-39.2 1705.8 35.6 1791.6 45.7 85.8 10.1 210.7 40.2 256.4 63.1"/><path class="s0" d="M116.2 139.2c40.5-38.6 68-51.3 143.9-54.1 341.4-12.4 1293.7 42.8 1474.1 64.1 77.4 9.1 89.8 32.7 103 47.9"/><path class="s0" d="M354.4 133.5s17.4-13.1 31.2-18.6c13.8-5.5 32.2-7.5 71.5-9.4 170.2-8.3 846.9 19.7 1111.5 43.8 44.1 4.1 63.4 17.8 84.4 30.2M0 301.5c42.8-33.7 199.7-30.9 354.3-38.9 154.6-8 460.6-17.4 642.5-21 181.9-3.6 533.3 13 714.5 12 181.2-1 259.5 17.8 336.7 42.4"/><path class="s0" d="M0 260.8c35.5-19.8 199.7-21.5 354.3-29.5 154.6-7.9 460.6-12.8 642.5-16.4 181.9-3.6 530.4 12.5 717.4 14.3 181.1 1.8 256.6 19.4 333.8 44m0 342c-256.4 11-1618.4 68-1704.1 63.7-62-3.1-88.4-41-99.5-57.3-11.1-16.3-4.7-42.3-.1-57.6 4.6-15.2 71.2-219.1 101.3-301"/><path class="s0" d="M2048 631.8c-132.7 5.1-889.5 41.9-1044.3 47.4-154.8 5.5-592.6 22.2-643.4 21-50.8-1.2-76-7.8-101.2-29.5-25.2-21.7-55.1-45.8-47.3-86.5 7.8-40.7 80.4-252.1 105.8-319.9M2048 1240.4c-108 29.1-659.2 174.8-772.9 208.8-5.6 1.7-10.6-5.6-14.6-11.1s-58.8-78.2-58.8-78.2"/><path class="s0" d="M369.1 1536.1c9.3-77.9 77.9-210.6 113.2-255.2 35.3-44.7 85.4-92.4 151.9-108.6 99.9-24.4 361.7-66 426.3-71.3 64.6-5.3 101.9 26.6 113.2 43.3 39.2 57.7 79.2 175.3 90.6 205.2 11.4 29.9 24 89.2 10.8 99.8"/><path class="s0" d="M928.3 1118.7c66.9 13.4 126.1 45.6 166.6 85.8 34.9 34.7 98.9 126.8 116.8 179.1 17.9 52.3 16.5 124.3 5.7 152.4m-542.1-372.9c-99.5 46.4-246.1 193.5-236.9 372.9m-.4-19.1-68.5 15.9"/><path class="s0" d="M281.8 1535.9c32.5-150.5 90.5-258.1 142.4-320.8 51.9-62.7 107.6-102.2 179.6-119.2s361-68.9 452.9-69.8c91.9-.9 153 25.9 194.7 97.9 41.8 72 75.3 211.4 78.6 222.7 3.3 11.3 11.6 10.8 22.6 8.7 11-2.1 695.4-177.9 695.4-177.9"/><path class="s0" d="M1765.7 230.2c2.3 4.5 3.8 12.8 4.1 23.8 25.9 63.4 78.7 221.3 109.5 368.3 4.9 3.7 6.4 10.5 6.7 16.6 17.5 17.4 51.1 62 59.8 73.6 2.8 3.7-1.6 12.2 1.2 23.8 2.8 11.6 19 89.3 0 186.6s-39.6 154.9-65.2 205c-10.9 21.3-10.1 43.1-5.5 51.5 4.6 8.3-.3 14.5-3.6 22.9-3.2 8.3-5.9 15.9-6.7 21.9 3.1 9.7 5.1 10.6 1.5 20.8-3.5 10.1-8.9 23.3-12.2 33.3m-43.9-1022.9c31.2 56.4 105.6 288.4 122.8 364.6"/><path class="s0" d="M2048 1227.3c-101.8 28-679.2 176.8-767.4 205.9m443.6-1179.6c34.5 117.2 64.9 236 83.6 371.8m-602-382.4c35.2 106.4 81.5 313.2 95.3 403.1m-113.3-403.5c38.9 113.1 84.1 345.3 95 404.2m-219.9-405.7c7.6 80.2 9.6 312.6 8.3 414.1m-1.6 445.2c.8-17.8-5.3-57.6-10.1-74.4 0 0-3.9-37-2.6-58.9-5.7-34.2-30.1-140.4-32.9-153.5-2.8-13.1.6-18.4 0-28.1-.5-8.3-9.2-62.4-16.7-106.5v-21.3c9.5-141.5 10.1-361.2 9.7-416.4 1.4-8.6 1.4-23.3 0-26.9m-542.5 948.7c-63.4 6.4-115.4 9.5-162.6 5.6-47.2-3.9-110.2-18.9-163.7-60.6C94.7 1066.4 40.6 1017.6 0 984.6m0-145.5c15.9 13.1 25.5 28.4 0 59.4m775.2-4.4c4.1 36.1-18.4 37.6-38 41.7-19.6 4.1-189.1 27.4-222.4 26.9-33.3-.4-39.2-15.5-40.2-32.4s-6.4-82.6-8.2-98.6c-1.9-16-3.7-45.7 32.4-53 40.4-8.2 179-14.1 218.3-14.6 39.3-.4 49.3 20.4 48.4 45.7-1 26 5.5 48.3 9.7 84.3zm582-140.6c7.7-.5 18.9.9 20.7 11.7 1.8 10.8 1.8 34.8-36.6 41.8-38.4 7.1-159.3 14.3-193.7 11.3-34.4-3-34.6-26.1-35.7-32.6-1.1-6.5-.5-15.6 10-17.6 17.1-3.2 48.5-4.3 74.6-4.1 10.7 3.6 77 1.3 93.4 0 16.4-1.4 28.7-2.7 29.6-7 12.3-1.2 25.2-2.6 37.7-3.5z"/><path class="s0" d="M1196.5 763.9c17.3-25.9 38.7-31.4 62.4-31.6 23.7-.2 50.6 12.1 60.6 24.7m4 52.6c0 8.6-.8 25.8-29 33.8-28.2 8.1-65.3 5-89.5-25.2m843-74.7s-28.8.9-45.6-3-17.3-31.9-8.2-36.4c9.1-4.5 46-4.8 53.8-2.7M589.9 1536c24.8-46.6 134.7-197.5 313.4-210.8 199.1-14.8 257 121.8 242.9 210.8"/></svg>