<svg version="1.1" id="Layer_1" xmlns="http://www.w3.org/2000/svg" x="0" y="0" viewBox="0 0 500 375" style="enable-background:new 0 0 500 375" xml:space="preserve"><path fill = "none" stroke="#fff" stroke-miterlimit="10" stroke-width = "1.0006" d="M99.5 214.1c5.2 78.7 75.9 142.9 156.2 142.9s145.9-54.9 145.9-133.8c0-90.8-65.9-165.8-156.2-166.1-89.7-.1-151.3 76.6-145.9 157z"/><path fill = "none" stroke="#fff" stroke-miterlimit="10" stroke-width = "1.0006" d="M500 228.6c-1.8 1.4-3.8 2.9-5.9 4.4-17.2 13-53.2 17.5-76.7 13.8-7.1-1.1-13-2.9-17-5.5M99 202.2s-5.5-1.1-9.9.5c-8.2 3.9-16.5 16.3-20.4 19.3h-.4l-46.9-4.1-21.4-2"/><path fill = "none" stroke="#fff" stroke-miterlimit="10" stroke-width = "1.0006" d="M417.4 246.8c21.7-56 11.2-147.7-42-196.8-42.9-22.6-203.1-28.1-227.3-9.3-23.4 18.1-81.9 126.5-79.8 180.7M457.6 0c7.6 7.2 15.3 13.6 18.8 16.2 5.1 3.8 15 4.6 23.6 4.6"/></svg>
