<svg xmlns="http://www.w3.org/2000/svg" viewBox="0 0 500 375" style="enable-background:new 0 0 500 375" xml:space="preserve"><g id="Calque_2"><path fill = "none" stroke="#fff" stroke-miterlimit="10" d="M296.4 266.1c-3.3 50.1-48.3 90.9-99.4 90.9s-92.8-34.9-92.8-85.1c0-57.8 41.9-105.5 99.4-105.7 57-.1 96.2 48.7 92.8 99.9z" transform="matrix(-1 0 0 1 500 0)"/><path fill = "none" stroke="#fff" stroke-miterlimit="10" d="M499.9 254.9 316 271.1c-2.5-1.9-7.8-9.8-13-12.3-2.8-1-6.3-.3-6.3-.3M104.9 283.4c-10.9 7-45.4 5.5-59.6-5.3-12.4-9.1-17.1-14-20.8-31.3-.5-3.1 1.5-6 1-7.7-1.1-7.2-10.3-29.5-13.1-47.6s-1.9-20.2-1.4-25.3c3.6-5.8 20.7-23 21.4-23.4 0-4.5-5-29.1.3-34.5 4.5-4.7 17.7-12.3 29.5-16.1 52.4-17.9 188.6-21.3 212.2-22.3C296.5 52.9 374.7 11.1 400 0" transform="matrix(-1 0 0 1 500 0)"/><path fill = "none" stroke="#fff" stroke-miterlimit="10" d="M94.1 286.9c-13.8-35.6-7.1-94 26.7-125.2 27.3-14.4 129.2-17.9 144.6-5.9 14.9 11.5 52.1 80.5 50.8 115M367.6 64.2c0 3.8 14.3 5.2 28 4 13.8-1.2 55.7-10.2 59.3-10.8 5.6-1 15.3-28.3 9.2-35.8-18.6-11.2-66.3 2.4-75.4 9.6-3.9 3.1-11.1 11.8-9.7 18.1 1.2 4.6 6.1 6.4 6.7 7.5-1.2.3-11.4 1.8-14.2 3.1-.8.4-3.7 2.4-3.9 4.3zM32.4 142.6c3.5.3 18.5 1.8 24.2-2.4 5.7-4.3 29.2-24.7 24.6-29-4.7-4.3-48.8 1.5-50.6 3.5" transform="matrix(-1 0 0 1 500 0)"/><path fill = "none" stroke="#fff" stroke-miterlimit="10" stroke-width = ".5" d="M386.1 57c12.2 0 58-11.4 75.1-7.9M403 24.5C423.7 9.7 438.6 0 438.6 0M346.1 268.5c-.6-50.3 1.6-181.4-3.5-194.6 11.6-11.3 24.8-22.4 37.6-32.4M342.8 73.7 500 70M274.6 70s39.1-.5 52.2-1c20.6-20.1 85.3-63.7 96.5-69M18.7 200.2s1.1 8.1 4.6 12.1c3.3 3.9 14.9 5.9 14.9 5.9s-.1-8.7-2.7-11.5c-2.5-2.9-10.4-1.3-16.8-6.5z" transform="matrix(-1 0 0 1 500 0)"/><path fill = "none" stroke="#fff" stroke-miterlimit="10" stroke-width = ".5" d="M47.5 111.4s-.2-2.9 0-5.2c.2-2.2 13.8-11 39.1-16.8 27.1-6.2 203.4-15.3 207.5-15.7 5.1-.5 10.2-2 12.4-4.2" transform="matrix(-1 0 0 1 500 0)"/></g></svg>
