<svg xmlns="http://www.w3.org/2000/svg" viewBox="0 0 500 375" style="enable-background:new 0 0 500 375" xml:space="preserve"><style>.st2,.st3{fill:none;stroke:#fff;stroke-miterlimit:10}.st3{stroke-width:.5}</style><g id="Calque_2"><path class="st2" d="M320.5 281.8c-3.7 49.4-40.3 83.2-88 83.2S137 319 137 269.4s40.5-88.1 88.2-89.7c71.9-2.5 98.7 55.7 95.3 102.1zM112 99.1s41-1.3 43.3-2.1c3-.5 8.2-2.2 7.4-9.4-1.5-4.2-62.1-3-62.7 2.1-.8 4.8.2 10.2 12 9.4zM0 267l126 8.1 11-8.1M320.8 268.2h15.5"/><path class="st2" d="M126 275.1c-9.9-7.5 13.5-93.8 28.4-109 17.8-17.5 113.9-15.3 132.3-2.4 20 15.8 44.2 44.3 52.1 117 4.3 6.4 123.4-7.3 135.4-25.2 8.4-12 6.6-26.9 7.4-28.7 3.4-4.5 4.5-6.9 2.9-15.5-.9-4.8-1.7-8-1.7-8s4.4-2.4 4.1-17.6c-.7-9.9-2.7-16.1-4.6-17.9s-11.9-14.5-12.1-17.8c.5-4 15.9-35.7 13.7-41.4-1.5-3.9-4.8-4.6-5.3-7.3-.3-3.2.6-9.3 1.5-12.1.9-2.8 2.6-4.8-3.2-10.2-.1-.5 1.3-2.7 1-4-10.3-12.6-35.5-49-55.4-70.7.5-.8 1.4-2 3-4.7"/><path class="st2" d="M476.9 78.9c-8.4-8-84.4-9.4-91.6-.5-5.9 7.3 5.8 15.4 17.4 20 11.1 4.4 73.4 2.9 77 4.9"/><path class="st3" d="M0 79.3s307.8-17.7 313.9-18.9c10-1.8 31.4-2.7 30.8-21.9C340.2 22.4 328.5 0 328.5 0"/><path class="st3" d="m181.4 0 4.2 68.5s-12.7 80.8-13.3 89.6M482.5 203.2c-6.7 3.7-17.1 17.2-18.7 20-.1.7 19.5-1 21.4-5.3M422.2 4.4l-4.1-4.6M414.5-.1s27.2 33 44.8 54.4c8.2 9.9 14.8 17.4 14.9 18 .4 2-2.5 4.1-2.5 4.1M463.1 55.8l-4.7-2.7"/></g></svg>
