<svg version="1.1" id="Layer_1" xmlns="http://www.w3.org/2000/svg" x="0" y="0" viewBox="0 0 500 375" style="enable-background:new 0 0 500 375" xml:space="preserve"><path fill = "none" stroke="#fff" stroke-miterlimit="10" stroke-width = "1.0006" d="M391.6 231.2c-5.8 77.3-63.1 130.3-137.8 130.3s-149.5-72-149.5-149.7 63.4-138 138.1-140.5c112.5-3.9 154.5 87.2 149.2 159.9zM391.8 209.9h26M104.3 208 87 220.7l-87-5.6"/><path fill = "none" stroke="#fff" stroke-miterlimit="10" stroke-width = "1.0006" d="M500 227c-41.3 5.2-76.9 6.7-79.8 2.4-.7-6.8-1.6-13.3-2.5-19.6-14.4-99.5-49.6-140.4-79.1-163.6-23.2-16.2-125.7-21.6-179.1-8.7-12.7 3.1-22.7 7.2-28 12.5-23.3 23.8-60 159-44.5 170.7M164.6 0c-2.7 18.5-4.8 33.3-5.1 37.5"/></svg>
