<svg version="1.1" id="Calque_1" xmlns="http://www.w3.org/2000/svg" x="0" y="0" viewBox="0 0 500 375" style="enable-background:new 0 0 500 375" xml:space="preserve"><style>.st1,.st2{fill:none;stroke:#fff;stroke-miterlimit:10}.st2{stroke-width:.5}</style><g id="Calque_2_00000040564224762121218920000016999762328424745146_"><path class="st1" d="M404.1 293c3.4 9.8 14.5 31.8 23.1 40.8 13.5 17.7 31 29.9 72.2 28.1M498.8 218.5s-5.4-2.5-17.7-2.3c-11.3.2-18.1 1.5-23.2 3.5"/><path class="st1" d="M499.5 211.1s-24.9-1.8-32.4 2.9c-23.3 7.6-55.8 73.3-68.7 85.6-4.9.5-78 .8-159.8 2.2-96 1.6-201.2 3.9-206.6 2.6-7.3-2.9-25.5-32.1-32.4-36.7M463.6 152c1.1 2.4-2.6 6.5-4.6 7.5-1.9 1-47.3 3-49.9 1.1s-3.7-4-2.9-7c1.8-1.3 56.4-2.6 57.4-1.6zM236.4 157c1.7 4-.5 6.7-4.1 8.1-3.6 1.3-45.2 3.3-48.3 1.4-3.1-1.9-6.6-4.9-3.4-7.5 11.5-.5 39.6-2.2 55.8-2zM51.7 122c-12.2 9.1-21.8 16.6-26.9 21-4.1-.6-11.2-.6-13.7 0-1.5.2-10.1 2.5-11.7 2.7M499.5 35.1S249.9 31 210.1 39.2c-38 2.9-97.8 39.7-140 69.5"/><path class="st1" d="M499.5 26.9s-217.5-4.8-240.1 0-29.7 7.4-34.5 10.5M-.5 125.9s49.4-5.9 52.6-5"/><path class="st1" d="M84.2 108.4s3.5 22.7 3.8 33.7c-.3 2.6-.6 3.6-.6 3.6s-12 1.4-16.9 0-9.3-2.9-11.9-4.8c-2.5-1.9-.1-3.9-.1-4.5s-5.9-3.1-7.3-5.8c-1.4-2.6-.6-12.5 8.1-17.8s21.5-5.7 24.9-4.4z"/><path class="st2" d="M86.8 145.4c-1.7.9-3.8-6.3-4.6-16.8-.8-10.5-1.5-20.3 1.7-20.3"/><path class="st2" d="M58.5 136.3c1.7 1 4.7 2.9 10.5 3 5.9.1 14.2.1 14.9 0M499.5 127 96.4 141.6l5.5-38.8s53.7-41.6 94.4-46.9C252.9 43.7 500 53.7 500 53.7"/><path class="st2" d="M477.5 211.3s13.2-46.1-5.4-82.6c-4.1-20-14.9-73.7-18.2-82.3M52.9 132.6c-9.1 7.2-15.9 12.7-19.7 15.2-27.4 22.2-5.3 96.1 22.6 156"/><path class="st2" d="M499.5 48.2S241.1 38 193.4 51.5c-33.7 4.8-75.8 32.1-108.8 56.7"/><path class="st2" d="M248 301c-.9-22-11-106.5 10.1-165.2C263.4 110.9 273 45 273 45"/><path class="st1" d="M26.8 300.3c-1.6 4.2-4.1 10.5-8 16.5-4 6-16.7 18.4-19.3 20.2"/></g></svg>
