<svg version="1.1" id="Calque_1" xmlns="http://www.w3.org/2000/svg" x="0" y="0" viewBox="0 0 500 375" style="enable-background:new 0 0 500 375" xml:space="preserve"><style>.st1,.st2{fill:none;stroke:#fff;stroke-miterlimit:10}.st2{stroke-width:.5}</style><g id="Calque_2_00000183960174007711401780000014924581785086444964_"><path class="st1" d="M295.6 363.8c-26.2 18.7-69.7 2.8-97.4-35.6-27.6-38.5-28.9-84.9-2.8-103.6M195.5 224.5c14.4-13.9 38.7-21.5 54.4-24 16.4 4 33.2 8.9 39.4 13 13.4 9 18.8 19 24 26.4 7.6 10.7 22.6 42.2 21.8 68.2-5.7 21.6-27.7 49.2-39.4 55.6M14.6 208c-.4 4.1-1.2 8.9-3.5 11.7-3.2 3.9-8.9 5-11 5.5M481.6 204.5v-.2c.1-1.3.2-2.4.2-3.3-.2-10.7 1-23.2.2-26.2-.4-1.4-12.7-13.7-12.7-14.3 0-.4 2.8-22.3 1.1-22.7-.3-.2-2-1.6-2-1.6"/><path class="st1" d="m0 201.8 14.5 5.9 157.4 63.7c-.6-.3-2.1-1.3-3-4.9-1.1-4.4 8.9-64.2 20.2-70.7s22.8-3.7 22.8-3.7 18.6 3.6 37.8 8.3c16.4 4 33.2 8.9 39.4 13 13.4 9 18.9 18.9 24 26.4 21.1 31.2 24.8 81.2 25.4 85.4 2.8 19.5 7.6 14.5 7.6 14.5l3-2.4 6.7-2s11.5 3.9 24.9 3.9c13.3 0 32.5-5.7 42.1-12.4 9.6-6.7 24.3-16 28.4-21.9 4.1-6 7.4-15.6 8.2-22.3.8-6.7 7.7-26.6 8.4-28.6.7-1.9 11.9-35.4 13.7-49.5m-300.8-94.8s.7 2.8 10.4 4.9c9.8 2.1 155.7 25.5 175 33.4 12.6 4.8 37.2 16.6 33.3 25 26.5-1 47.3-5.1 52.8-8.3 8-4.6 15.8-19.2 15.9-24l.1-4.8s0-2.8-.1-3.1c-.8-1.8-11.5-11.3-19.3-14.9-50.8-16.4-82.2-18.7-133.7-23-5.6-.4-16.7-1.1-16.7-1.1s-53.7-41.6-73.7-50.4c-19.9-8.7-11.9-5.2-18.3-7.6-6.3-2.4-17.3-5.6-45-9.4-27.8-3.8-54.9-8-71.4-8.1-2.3 0-5 .1-8 .2-19.7.8-53.8 4.1-61 5.2-8.2 1.3-21 3.6-21 3.6M.1 202.1"/><path class="st1" d="M171.9 271.6c1.9.8 4.7-1.2 4.7-1.2M481.5 204.3v.2M.1 21.9s57.4-9.2 65-8.7c5.1.4 9.6 1.9 11.6 2.8 2.1.9 4 1.9 5.4 2.6-3.2.1-6.8.3-10.5.5-19.5 1.2-44.5 3.7-50.5 4.6-8.2 1.3-21 3.6-21 3.6M32 112.2c.5-1 1.8-1.4 1.8-1.4s2.2-.2 4.1.3c1.2.3 2.7.7 4.3 1.1 1 .2 2.1.5 3.2.7 2.3.5 5.6.7 7.8.9.7 0 1.2.1 1.6.1 1.5.2 2.6 0 3.3 1.2.4.8.7 2.4.5 3.5-.1 1-.8 2.3-2.5 2.8-.7.2-2 .2-3.6.1-2.6-.1-5.6-.5-7-.6-1-.1-2.9-.4-4.9-.9-2.6-.6-5.4-1.3-6.2-1.7-1.5-.7-1.5-.9-2-1.8-.6-1-.8-3.8-.4-4.3z"/></g><path class="st2" d="M297.2 94.7s-56.4-43.9-74.5-52.2c-8.3-3.8-94.6-15.2-120.3-10.3 7 9.1 48.5 53.4 63.9 76.3 3.4 5.1 79.9-8 85.7-8.8s45.2-5 45.2-5z"/><path class="st1" d="M139.6 104.5c-.1 1.4-2.3 2-3.1 2-.7 0-60.9-.7-64.1-2-3.1-1.3-8.5-10.4-8.6-18.7-.1-7.6 7.7-11.5 13.8-12 6.1-.5 31.1-2.7 38.8 2.8s12.3 13.7 11.5 16.3c-.9 2.6-2.5 5.1-2.5 5.1s7.1-.5 10 .9c2.7 1.5 4.5 2.1 4.2 5.6zM452.3 164.7c.8 3.3-.7 26.4-2.8 28.7s-57.2 15.1-75.2 11.6c-17-8.4-27.5-25.8-24.7-30.4 2.2-4.4 25.5.2 49.9-1.5"/><path class="st2" d="M.2 33.7s65-11.1 79.2-5.3c23.1 5.9 65.2 71.5 74.5 84.4-4.6 8.7-6.6 12.6-7 20-4.2 31.9 5.3 115 5.3 130.6"/><path class="st2" d="M41.9 28.1c-4.1 19.2-9 58.8-7 66.4-3.1 5.9-4.2 7.1-6.5 17.5 0 16.2 17.4 101 22.9 110.6"/><path class="st2" d="m95.7 105.8 50.9 6.4s-43.9-70.5-63.3-77.1C65.1 24.6.1 37.5.1 37.5M.2 93.9l70 8.7M469.3 160.5c-.3 3.3-7.8 37.4-15.6 46.7-3.2-3.5-4.2-8.2-4.2-13.8M454.1 261.1c-36.4 14.7-58.3 10-62.8 15.8-3.6 4.3-1.1 28.3.9 34.4 3.3 1 33.2-8.4 37.1-12.7s23.8-29.8 24.8-37.5z"/></svg>
