<svg version="1.1" id="Calque_1" xmlns="http://www.w3.org/2000/svg" x="0" y="0" viewBox="0 0 500 375" style="enable-background:new 0 0 500 375" xml:space="preserve"><style>.st1,.st2{fill:none;stroke:#fff;stroke-miterlimit:10}.st2{stroke-width:.5}</style><g id="Calque_3"><path class="st1" d="M77.8 375c-15.8-17.1-33.2-52.7-45.3-95.7-5.5-19.4-9.2-38.1-11.2-54.9-.7-5.7-1.2-11.1-1.5-16.3-1.7-29.9 3-51 14.1-54.1l1.5-.3c8-2.3 23.1-4.2 32.3-5.2 10.7 15.2 26.6 56.2 29.1 61.1 4.3 8.6 34.3 91.1 45.6 108.5 5.3 8.2 14.6 16.2 26.6 23.4-1 2.9-2.8 6.2-5 8.3-1.9 2-27.2 16.4-42.8 25.2"/><path class="st1" d="M197.5 0s26.3 14.1 35.7 21.7c23.4.8 131.4 10.4 184.9 27.4 19.1 7 38.5 15.7 46.5 24.8.8 3.1 0 6 0 6l2.5 1.2s1.7 16.9-2.9 29.7c5.9 7.2 15.6 15.6 21.9 25.8 3.8 11.9-14.8 81.7-20.4 88.5-12.5 21.5-91.5 87.8-111.6 99.5-22.5 10.9-103.1 43.9-137.1 35.8-18-4.2-34.7-11-48.2-19-12-7.1-21.3-15.2-26.6-23.4-11.2-17.3-41.3-99.8-45.6-108.5-2.5-4.9-18.4-46-29.1-61.1-1.2-1.7-2.3-3-3.3-4-13.7-13.9-39.8-28-51.7-22.8-7.3 7.7-.2 62.5 7.1 86.4.3 5.2.8 10.6 1.5 16.3L0 203.4"/><path class="st2" d="M15.7 0 24 31.5s75.1-6 83-4.7c15.3-.9 54.8-8.3 126.3-5.2"/><path class="st1" d="M364.1 302.5c-14.1.4-.9-86.1 7.5-99.3 5.6-11 38.4-20 67.4-31.6 22.8-9.1 42.1-19.7 43.8-20.6 2.7 3-12.1 59.2-17.5 70.8-2.5 5.4-20.3 23.2-40.5 40.8-23.6 20.4-54.1 43.8-60.7 39.9zM0 40.7s78.8-15.1 154.1-9.2c31.6 1.4 49.3 15.8 55 25.8 0 5.9-.5 7.3 0 9.9"/></g><path class="st1" d="M464.6 79.9c-12.8-.3-123.1-9.2-123.8-9.3-10-1.1-194.9-6.8-208.3-2.3-8.9 3-8.9 28.9 29.4 51.8 45.9 13.2 152.2 5.4 164.4 11.4 11.4-29.8 11.1-53.9 12.2-61"/><path class="st2" d="M326.3 131.5c13.6 4 21.4 21.7 28.8 22.7s100.3-20.1 104.9-23.9c2.2-6.6 2.9-15.6 4.1-19.5M420.5 210.9l50.2-29.4-7.4 24.4-51.4 37.2zM187.1 245.5c-9.8 6.6 15.4 64.7 25.3 67.6 17.3.8 61-2.2 89-11.2 6.9-2.8 7.8-48.7 9-64.4-42.8 8.2-116.6 2-123.3 8z"/><path class="st1" d="m2.4 0 5.3 39.4"/></svg>
