<svg version="1.1" id="Calque_1" xmlns="http://www.w3.org/2000/svg" x="0" y="0" viewBox="0 0 500 375" style="enable-background:new 0 0 500 375" xml:space="preserve"><style>.st1,.st2{fill:none;stroke:#fff;stroke-miterlimit:10}.st2{stroke-width:.5}</style><g id="Calque_2_00000127751836246881350750000016325509300542913167_"><path class="st1" d="M172.9 44.4c14.9-7.2 63-5.9 77.1-5.9 23.3 0 70.1 1.3 77.3 5.9 10.7 6.1 36.5 39.2 40.6 46.5 19.7 8.5 36.7 9.8 68.5 14.1 39.5 9.3 49.7 66.5 49.8 79 0 6 1.8 71.9-21.3 122.2-32.7 48.3-190.6 35-214.9 37-12.2-2.4-165.6 10.6-212.1-33.1-20.4-26.6-25.4-112.8-22.8-128.3 1.1-6.7 2.3-18.7 6.2-31.4 5-16.4 14.6-34 34.6-42.8 4.9-2 63.2-10.3 74.7-16.4 8.2-9.5 32.8-42.5 42.3-46.8z"/><path class="st1" d="M83.8 234.6c3.6-11.9 60.9 1.3 166.2-3.3 135.4 5.6 157.6-7.6 164.6 1.7s-2 63.9-20.5 84.8c-20.2 10.9-120.9 10.6-144.1 9.9s-123.5 2.6-139.7-7c-16.9-12-34.8-70.2-26.5-86.1zM468.4 129.1c-4.8 8.4-198.5 4.5-218.9 4.8-221 4.3-217.4-6.4-217.4-6.4M113.9 96.3c-1.7-1.8-4.2-5.7-4.4-9.4-.2-3.7-.2-7.4 3.1-9.1 3.3-1.7 8.3-3.9 15.7-3.1 7.3.9 7.7 2.9 8.2 4.8.4 1.9-.2 4.3-.2 4.3M363 83.7c.3-2.5 1-6 2.5-7.4s12.4-2.8 18.7.1c6.3 2.9 6.3 6.7 6.1 9.8-.2 3.1-3.1 9.9-4.9 10.8"/><path class="st2" d="M167.2 261.3h166.2l-2.8 28.6H169zM134.1 91s25.5-36.2 36.6-43c6.8-4.2 71.3-5.4 78.6-5.4 7.4 0 71.8 1.3 79.6 4.9 8.5 3.9 34.7 41.4 35.9 43.5-14.1-3.2-97.1-4.8-114.5-4.8-15.2 0-108.5 1.8-116.2 4.8z"/><path class="st1" d="M20.7 152.6c3.4 2.8 5.3 15.2 78.4 16.9-1.6-15.3-3.4-23.1-.9-35.3M480.1 153.7c-3.2 7.9-68.8 21.1-79.1 13.5 2.4-15.1 2.5-25.6.6-33"/><path class="st2" d="M99.2 170c1.5 6.3 2.7 15.7 7.9 18.8 17.5 10.3 127.7 8.9 142.2 8.7s132.8 2.1 142.2-8.3c8-8.8 8.6-15.3 9.2-21.6M19.4 232.9c13 11.2 45.5 17.7 49.2 18.8 5.9.8 9.2 36.9 8.3 43.3-2.4 6.2-39.1-11.9-41.5-16.2s-19.8-38.6-16-45.9zM480.1 233.3c-14.8 11.1-43.9 16.9-50 18.6-4.3 5.1-9.1 33-6.5 43.5.9 4.8 37.1-11.3 40.3-15.8 5.7-8 18.7-39.6 16.2-46.3z"/></g></svg>
