<svg version="1.1" id="Layer_3" xmlns="http://www.w3.org/2000/svg" x="0" y="0" viewBox="0 0 2048 1536" style="enable-background:new 0 0 2048 1536" xml:space="preserve"><style>.st0,.st1{fill:none;stroke:#fff;stroke-width:4.6183;stroke-linecap:round;stroke-linejoin:round;stroke-miterlimit:10}.st1{stroke-width:2.4266}</style><path class="st0" d="M0 582c94.6-27.9 381-86.4 675.4-99.3 103.6-77.9 312.2-204.3 389.3-247.2 77.2-42.9 155-55.7 242.2-69.3 87.2-13.6 228.6-32.9 352.9-36.4 21-13.4 83.9-30.1 149-32.6s239.2 6.5 239.2 6.5"/><path class="st0" d="M2048 138.9c-91.4-5.1-258.6-7.9-336.4 0-77.8 7.9-198 35-264.3 82.7M1071.8 231.7c68.1-11.1 268-21.1 375.5-10 7.4.8 10.8 4.2-4.6 16.2-49.6 38.7-299.2 234.3-489.4 425.2-39 3.8-61.6 5.2-89.4 7.6-34.1-7.5-90-16.8-128.7-38.6-82.2-46.5-179.5-115.6-134.3-145.2M1167.1 587.1c-1.6-35.4 41.3-87 107.4-99.2 66.1-12.1 125-8.3 161.4 5 36.4 13.2 70 23.7 71.6 66.7 1.7 43-10.5 71.6-17.6 87.6-7.2 16-22 18.7-45.7 20.4-11.8.8-38.8 4.3-67.8 3.2-29-1.1-60-6.8-84.8-10.4-49.6-7.2-128.4-13.4-143.1-13.4-26.2 0-34.7-13.6-17.2-26.5 17.5-12.8 47.8-14.6 47.8-14.6-5.6-4.7-11.6-11.1-12-18.8z"/><path class="st0" d="M1267.9 657.2c-142.9 18.3-246.4 31.3-246.4 31.3 102.9-124.7 300-307.6 413.7-390.3 113.7-82.7 166.8-105.9 294.3-115 127.5-9.1 318.5 0 318.5 0M1497.8 627.5c218.1-28.4 450-59.4 550.2-75.4"/><path class="st0" d="M2048 207.4c-146-5.4-321.4-16.2-441.8 22.5-136.6 43.9-292.4 198.4-358.7 265.6M1299.7 443.8l2.6 39.9M1067.6 682.8c37.6-39.2 100.4-107 100.4-107M2048 1147.8c-207.9 65.8-947.5 262.6-1105.3 315.8-26.7-74.8-114.6-228.6-199.1-294.1-84.5-65.4-143.3-55.5-237.7-41.4S88.9 1206 0 1258.2"/><path class="st0" d="M192.9 1193C143.3 1223.5 38.2 1340.6 0 1466.3M595.4 1117.9c86.1 7.9 169.1 86.2 198.6 149s77.6 192.2 58.9 269.1M116.9 1536c65.1-133.3 306.3-249.7 478.5-198.5S770 1507.2 766.9 1536M835.5 1375.3l57.6-15.4"/><path class="st1" d="M953.3 663.2c28.8 4.4 60 21.1 68.2 25.4-5.3 23.7-.2 75.4 2.5 97.8-.8 5.9-2.2 28.8 0 54.1s2.4 197 10.3 292c7.9 95.1 8.8 188.2 18.2 221.2 9.4 17.8 9.7 37.3 10.5 56.2"/><path class="st1" d="M938 1451.3c56.8-23.7 146-47.3 199.5-62.5 53.5-15.2 839.8-236.9 910.5-253.4M0 1173.4c54.5-31.3 249-67 369.9-89.6 120.9-22.6 300.1-55.4 366.4-13.1s130.4 124.6 167.6 189.4 58.6 102.9 63 109.4c4.4 6.5 10.2 9.4 22.2 5.9s54.8-17.1 89.8-27.3 739.1-204.8 969-256.7"/><path class="st0" d="M1503.5 607.5c77.4-11.3 413.5-53.7 544.5-70.2"/><path class="st1" d="M1896.1 179.3c.5 6.4.4 15.2-1.3 22.9 7.5 82.9 15.1 243.2 6.1 353.6 1.8 3.5 3.6 11 2.5 17.4 7.1 25.9 18 68.5 18 77.6 0 9.2-6 10.2-7.4 26.4-1.4 16.2-21.1 160.5-49.8 253.4s-51.4 129.8-54.3 145.2-2.2 27.3 2.6 41.9c-4 13.5-10.5 34.8-10.5 34.8 1.5 3.7 4.2 9.7 3.7 16.9-.7 9.7-5.4 21.7-8 34.1M1853.1 201.8c3.6 55.5-.2 286.7-13.1 361.8M1928.8 203c15.9 87.5 29.5 227.8 27.7 345.8"/><path class="st1" d="M1725.6 674.9c16.7 5 79.9-2.9 88.1-13.1 16.2-4.3 44.4-10 51.5-8.8 7.2 1.2 14.8 6.4 12.9 17.4-1.9 11-7.9 25.1-30.9 31.5-23 6.4-77.4 17.5-137.8 15.5-29-1-29.6-17.2-27.7-24.1 1.9-6.9 3.1-13.1 16.2-15.3 13.2-2.2 27.7-3.1 27.7-3.1z"/><path class="st1" d="M1725.6 674.9c3.3-13.4 10-20.8 18.4-24.6s29.4-8.6 39.1-6c9.8 2.6 22.2 8.4 30.5 17.4M1726.8 717.6c2.6 8.6 7.4 21.3 29.1 23.4 21.7 2.1 42.7-2.7 57.8-31.6M863.9 670.7c-45.4 23.8-141.4 36.7-209.2 47.5C586.9 729.1 180.3 789.5 0 825M675.4 482.7c-23.8 14.6-38.3 30.5-27 51.5 11.2 21 58.6 80.9 253.8 133.4"/></svg>