<svg version="1.1" id="Calque_1" xmlns="http://www.w3.org/2000/svg" x="0" y="0" viewBox="0 0 500 375" style="enable-background:new 0 0 500 375" xml:space="preserve"><style>.st1,.st2{fill:none;stroke:#fff;stroke-miterlimit:10}.st2{stroke-width:.5}</style><g id="Calque_2_00000157268167602023614690000013759763480774553001_"><path class="st1" d="M110.7 28.7C131.1 15.4 230.1 19.5 250 19s120.8-.2 137.1 9.7c9.2 6.8 13.9 16.2 13.3 27.2-.6 10.9 53.1 88.3 54.6 101.3s3 30.7 2.1 37.8-9.7 21.8-9.4 28.6c.3 6.8 5.3 14.2 4.1 24.2-1.2 10-13.9 82.1-18.9 89.8s-20.7 17.1-34.8 19.2c-14.2 2.1-137.5 0-148 0s-139.2-2.1-146.6-.3-30.1-5-36.3-18.3-18.3-85-18.9-94.5c-.6-9.4 4.1-13.3 3.2-19.8-.9-6.5-7.7-24.2-8.3-31.9s.3-27.8 2.4-35.7c2.1-8 52.8-98.6 53.4-100.7.5-2.1-1-11.6 11.7-26.9z"/><path class="st1" d="M103.6 52.6S56.1 146.8 55.8 150c-.3 3.2.3 21.1 4.4 38.2s18.9 67.5 29.2 77.6c10.3 10 147.4 11.5 160.7 11.8s149.6 0 159.7-12.4c10-12.4 30.7-70.1 30.1-77s6.8-34.3 3.8-39.9c-3-5.6-43.3-89.3-46.9-95.7-10.6-19.8-133.9-13.3-146.7-13.3-11.7 0-132.9-5.3-146.5 13.3z"/><path class="st2" d="M69.7 124.9s30.8-65.5 36-71.7c13.6-14.9 123.8-9.8 144.4-10 21.8-.3 132.8-4.9 144.3 10 5.3 10.9 36.6 71.7 36.6 71.7s-75.3 7.3-181.1 7.1c-103.5-.2-180.2-7.1-180.2-7.1zM180.4 212.6h138.8v28.3H180.4z"/><path class="st2" d="M425.4 233.4c-4 3.9-58.1 7.3-63.4 7.6-7.6-5.8-14.7-30.7-20.4-30.8-6.7-1.6-48.9-1.3-91.3-.6-44 .7-88.1-.4-92.3.6-8.3 2.1-13.8 22.4-19.5 29.6-7.3 3.3-63.9-5.5-63.9-5.5s-4.2 15.5-3.3 26.6c.9 11.2 8 20.3 16.8 24.7 8.8 4.4 159.9 5.9 159.9 5.9s138.7 1.7 166-7.9c9.5-6 15.2-19.1 15-25.7-.1-6.6-3.6-24.5-3.6-24.5z"/><path class="st1" d="M43.2 175.5s-1.8 8.7 69.8 9.9c7.7-3.4 7.6-12.1 13.6-13.1s20.1 1.9 20.5-5.5c.4-6.9-10.9-9.6-10.9-9.6s-84.5-1.8-87.3-8.9M456.7 174.9s-4.8 12.1-69.7 10.3c-5.9-1.5-6.6-9.3-12.4-12.4-5.8-3.1-17.8 1.8-20.3-2.3s-2.6-8.8 6.4-11.9c9-3.1 90.3-3.7 90.8-10.8"/><path class="st2" d="M245.3 18.4s.5-.2 1-2.6-.3-7.5 1.3-8.6c1.5-1.2 3.1-1.2 4.6-.3s.6 7.6 1.2 8.9c.6 1.4 1.5 2.6 1.5 2.6"/><path class="st1" d="M125.7 303.8c-.2 3.9 1 7.2-10.8 12.5-16.1 2-48.3-6.7-51.7-14.5s0-10 0-10 22.7 10.9 62.5 12zM373.6 303.6c-.5 1.9 2.2 12.1 12.3 12.8 10.1.7 44.9-3.1 52.8-16.7.6-1.1 1.5-7.7-1.4-8-3.1-.3-10.3 10-63.7 11.9z"/><path class="st2" d="M125.7 303.8 250 306l123.6-2.4M385.9 316.4C375 321 267 322 249.6 321.7s-122.1 1.7-134.7-5.5"/></g></svg>
