<svg version="1.1" id="Layer_1" xmlns="http://www.w3.org/2000/svg" x="0" y="0" viewBox="0 0 2048 1536" style="enable-background:new 0 0 2048 1536" xml:space="preserve"><style>.st0,.st1{fill:none;stroke:#fff;stroke-width:4.6183;stroke-linecap:round;stroke-linejoin:round;stroke-miterlimit:10}.st1{stroke-width:2.4266}</style><path class="st0" d="M1024 94c-70.2 0-216.8-4-280.3 9.4-6.7-10-13.1-26.1-42.8-19.4C567.7 114.1 389 199.5 346.1 231.2c-32.7 24.3-39.5 67.6-39.5 67.6-71.3 40.3-177.4 97.7-236.2 258.3 2 8.7 7.9 14.9 16.4 18.1C65.9 633.6 17.9 768 0 830.6"/><path class="st0" d="M306.6 298.8c-2.2 10-1.8 23.6-1.8 23.6 17.9.4 38.2-5.9 46.3-11.8 87.4-63.9 250.9-169.5 392.5-207.2M1027 152.4c-18.3 0-21.7 9.2-24.5 26.7s.4 28-14.6 39.8-25.6 16.6-30.5 30-4.5 32.2 3.7 36.5c5.8 3.1 48.7 2.8 66 2.8M115.9 583.1C91.5 652.5 24.3 840.3 0 930.4"/><path class="st1" d="M0 1365.8c48.2 31.8 317.5 87.4 355.6 100.9s61.2 69.3 61.2 69.3M373.1 1536c-116-16.9-294.2-64.5-373.1-95.5M216.9 355.3 254 352c167.9-29.6 528-34.8 770-34.8"/><path class="st0" d="M1024 94c70.2 0 216.8-4 280.3 9.4 6.7-10 13.1-26.1 42.8-19.4 133.2 30.1 311.9 115.5 354.7 147.2 32.7 24.3 39.5 67.6 39.5 67.6 71.3 40.3 177.4 97.7 236.2 258.3-2 8.7-7.9 14.9-16.4 18.1 21 58.4 68.9 192.8 86.8 255.4"/><path class="st0" d="M1961.2 575.2c-121.8 43.3-667.1 37.1-937.2 37.1s-815.4 6.2-937.2-37.1M1741.4 298.8c2.2 10 1.8 23.6 1.8 23.6-17.9.4-38.2-5.9-46.3-11.8-87.4-63.9-250.9-169.5-392.5-207.2M1021 152.4c18.3 0 21.7 9.2 24.5 26.7s-.4 28 14.6 39.8 25.6 16.6 30.5 30 4.5 32.2-3.7 36.5c-5.8 3.1-48.7 2.8-66 2.8M2048 1172.1c-295 167.6-832.1 181.8-1024 181.8h0c-191.9 0-729-14.3-1024-181.8"/><path class="st0" d="M1932.1 583.1c24.4 69.4 91.6 257.2 115.9 347.3"/><path class="st1" d="M2048 1365.8c-48.2 31.8-317.5 87.4-355.6 100.9s-61.2 69.3-61.2 69.3M1674.9 1536c116-16.9 294.2-64.5 373.1-95.5M1743.2 317.2c25.4 17.2 57.7 34.8 74 58.9s.6 32.7-51.1 29.9c-198.9-10.6-411.4-16.4-742.2-16.4h0c-330.8 0-543.2 5.7-742.2 16.4-51.6 2.8-67.4-5.7-51.1-29.9s48.7-41.7 74-58.9"/><path class="st1" d="M1831.1 355.3 1794 352c-167.9-29.6-528-34.8-770-34.8"/></svg>