<svg width="500" height="375" viewBox="0 0 500 375" fill="none" xmlns="http://www.w3.org/2000/svg">
<path d="M254.665 8.16663C253.785 9.97663 252.885 11.7566 251.975 13.5466C249.375 18.6466 246.728 23.7166 244.035 28.7566C239.795 36.6966 235.461 44.59 231.035 52.4366C225.288 62.7166 219.405 72.92 213.385 83.0466C206.105 95.3066 198.658 107.47 191.045 119.537C182.378 133.297 173.471 146.917 164.325 160.397C154.325 175.21 144.035 189.833 133.455 204.267C122.075 219.807 110.368 235.1 98.3346 250.147C85.9146 265.647 73.1213 280.83 59.9546 295.697C46.3813 310.997 32.3813 325.883 17.9546 340.357C14.3479 343.937 10.7246 347.5 7.08459 351.047C6.85459 351.267 7.21459 351.627 7.44459 351.397C22.2046 337.137 36.4946 322.41 50.3146 307.217C63.8679 292.377 77.0113 277.17 89.7446 261.597C101.965 246.697 113.845 231.52 125.385 216.067C136.298 201.467 146.928 186.663 157.275 171.657C166.775 157.89 176.041 143.97 185.075 129.897C193.075 117.43 200.901 104.85 208.555 92.1566C215.028 81.4166 221.341 70.6233 227.495 59.7766C232.335 51.29 237.085 42.7133 241.745 34.0466C244.855 28.2666 247.935 22.4666 250.935 16.6266C252.245 14.0866 253.995 11.4266 254.935 8.71663C254.935 8.60663 255.045 8.49663 255.095 8.38663C255.235 8.09663 254.805 7.83663 254.665 8.12663V8.16663Z" fill="white"/>
<path d="M35.9145 8.16666C29.9503 18.0513 23.1665 27.4175 15.6345 36.1667C13.0503 39.2127 10.1879 42.0115 7.08455 44.5267C6.83455 44.7267 7.19455 45.0767 7.44455 44.8767C13.2645 40.3267 18.0245 34.3667 22.4445 28.5267C26.5545 23.1567 30.4445 17.5867 34.0945 11.9067C34.8445 10.7567 35.5845 9.59666 36.3045 8.42666C36.339 8.36964 36.3494 8.30125 36.3335 8.23655C36.3176 8.17185 36.2766 8.11614 36.2195 8.08166C36.1625 8.04718 36.0941 8.03677 36.0294 8.05271C35.9647 8.06865 35.909 8.10964 35.8745 8.16666H35.9145Z" fill="white"/>
<path d="M290.484 261.227C279.754 272.367 265.834 281.447 250.094 282.827C238.341 283.79 226.651 280.331 217.314 273.127C208.054 266.047 201.264 256.217 196.464 245.697C190.966 233.147 187.73 219.723 186.904 206.047C185.861 190.652 187.169 175.187 190.784 160.187C194.093 145.916 199.592 132.244 207.084 119.657C213.674 108.737 222.004 98.6566 232.264 90.9666C241.004 84.4366 251.314 79.6666 262.264 78.7466C273.801 77.8534 285.266 81.215 294.494 88.1966C305.334 96.2966 312.854 108.197 317.704 120.667C319.014 124.037 320.134 127.467 321.104 130.937C321.127 130.994 321.169 131.042 321.225 131.07C321.28 131.097 321.343 131.104 321.403 131.088C321.463 131.072 321.514 131.034 321.548 130.982C321.581 130.93 321.594 130.868 321.584 130.807C317.824 117.307 311.584 104.137 301.774 93.9666C293.394 85.2966 282.424 79.3366 270.314 78.2666C259.554 77.2666 248.864 80.2666 239.544 85.5866C228.784 91.6866 219.804 100.587 212.544 110.587C204.083 122.325 197.588 135.362 193.314 149.187C188.502 164.317 186.046 180.099 186.034 195.977C185.907 210.313 188.22 224.566 192.874 238.127C196.874 249.487 202.934 260.377 211.604 268.867C219.311 276.631 229.35 281.658 240.184 283.177C255.184 285.067 269.894 279.177 281.594 269.987C284.866 267.408 287.953 264.605 290.834 261.597C290.881 261.549 290.906 261.485 290.905 261.418C290.904 261.351 290.877 261.288 290.829 261.242C290.782 261.195 290.717 261.17 290.651 261.171C290.584 261.172 290.521 261.199 290.474 261.247L290.484 261.227Z" fill="white"/>
<path d="M249.704 210.257C230.754 204.777 222.244 183.637 223.824 165.377C225.414 146.887 237.264 127.267 256.424 123.037C267.724 120.547 279.114 124.787 286.754 133.317C286.974 133.557 287.324 133.207 287.114 132.967C280.224 125.277 270.264 120.887 259.894 121.967C250.894 122.897 242.784 127.667 236.714 134.197C222.924 149.027 219.034 172.707 227.714 191.067C232.054 200.267 239.714 207.857 249.614 210.727C249.675 210.737 249.738 210.723 249.79 210.69C249.842 210.656 249.879 210.605 249.896 210.545C249.912 210.486 249.905 210.422 249.877 210.367C249.849 210.312 249.802 210.269 249.744 210.247L249.704 210.257Z" fill="white"/>
<path d="M248.664 191.047C237.834 185.637 233.664 172.487 235.404 161.107C237.114 150.107 244.494 139.237 255.734 136.517C259.08 135.73 262.569 135.789 265.886 136.688C269.203 137.588 272.244 139.298 274.734 141.667C274.964 141.887 275.324 141.537 275.084 141.317C272.852 139.193 270.184 137.58 267.265 136.591C264.347 135.601 261.248 135.259 258.184 135.587C252.876 136.319 247.956 138.779 244.184 142.587C235.294 151.317 232.244 165.497 236.414 177.187C238.459 183.316 242.79 188.421 248.504 191.437C248.794 191.587 249.044 191.157 248.754 191.007L248.664 191.047Z" fill="white"/>
<path d="M279.925 8.47667C286.805 15.1967 293.725 21.8633 300.685 28.4767C305.275 32.8367 309.875 37.1867 314.605 41.3867C316.169 42.9497 317.895 44.3409 319.755 45.5367C323.655 47.7067 326.625 51.5367 328.965 55.2367C335.635 65.7567 338.725 78.4167 340.645 90.5767C341.425 95.5767 341.985 100.577 342.385 105.577C342.605 108.377 342.775 111.18 342.895 113.987C343.025 116.867 342.965 119.767 343.145 122.647C343.515 128.517 344.335 134.397 344.995 140.247C345.328 143.193 345.662 146.15 345.995 149.117C345.995 149.427 346.535 149.427 346.495 149.117C345.495 140.667 344.545 132.207 343.725 123.747C343.385 120.227 343.505 116.647 343.335 113.107C343.085 107.777 342.665 102.447 342.035 97.1067C340.425 83.6967 337.635 69.7967 331.035 57.8367C328.495 53.2067 325.185 48.3367 320.625 45.4567C319.532 44.7896 318.486 44.0479 317.495 43.2367C313.155 39.6067 309.045 35.6867 304.935 31.8167C296.815 24.17 288.758 16.4267 280.765 8.58667L280.265 8.11667C280.035 7.89667 279.675 8.24667 279.905 8.47667H279.925Z" fill="white"/>
<path d="M25.4144 333.317C33.3044 335.597 41.2444 337.697 49.1844 339.767C67.4944 344.537 85.9144 348.947 104.434 352.847C125.064 357.177 145.884 361.007 166.874 363.067C180.106 364.459 193.441 364.573 206.694 363.407C232.316 361.089 257.472 355.108 281.394 345.647C285.128 344.153 288.818 342.563 292.464 340.877C292.764 340.747 292.464 340.307 292.214 340.447C267.044 352.077 239.714 359.157 212.214 362.337C199.36 363.846 186.391 364.117 173.484 363.147C152.644 361.567 131.974 357.927 111.484 353.787C92.3744 349.927 73.3744 345.467 54.4844 340.627C48.071 338.98 41.6644 337.287 35.2644 335.547C32.1544 334.697 29.0644 333.717 25.9444 332.947L25.5544 332.837C25.5229 332.827 25.4898 332.825 25.4572 332.828C25.4246 332.832 25.393 332.842 25.3642 332.857C25.306 332.889 25.2629 332.943 25.2444 333.007C25.2258 333.07 25.2333 333.139 25.2652 333.197C25.2971 333.255 25.3507 333.298 25.4144 333.317V333.317Z" fill="white"/>
<path d="M378.035 8.42664C383.125 17.9266 388.175 27.4266 392.895 37.1666C394.115 39.6566 395.365 42.1666 396.345 44.7666C396.365 44.8294 396.408 44.8823 396.466 44.9155C396.523 44.9487 396.59 44.9598 396.655 44.9466C399.595 44.4566 402.535 43.9966 405.475 43.5266C412.595 42.4066 419.715 41.33 426.835 40.2966C435.775 39.0066 444.715 37.7766 453.675 36.6966C461.675 35.6966 469.795 34.8166 477.885 34.2866C480.885 34.0966 483.885 33.9466 486.885 33.9766C488.762 33.9015 490.64 34.09 492.465 34.5366C492.712 34.6063 492.95 34.7036 493.175 34.8266C493.455 34.9866 493.715 34.5566 493.435 34.3966C492.05 33.799 490.552 33.509 489.045 33.5466C486.349 33.43 483.648 33.4534 480.955 33.6166C473.075 33.9966 465.215 34.8466 457.375 35.7566C448.375 36.7566 439.465 37.9966 430.535 39.2766C422.908 40.3566 415.291 41.4933 407.685 42.6866L400.235 43.8666L397.925 44.2366C397.665 44.2366 396.925 44.2366 396.715 44.4366C396.715 44.4366 396.595 44.4366 396.565 44.4366L396.875 44.6166C394.692 39.3241 392.225 34.1533 389.485 29.1266C386.545 23.3533 383.545 17.61 380.485 11.8966C379.825 10.6466 379.165 9.39664 378.485 8.14664C378.468 8.1184 378.445 8.09381 378.419 8.07426C378.392 8.0547 378.362 8.04058 378.33 8.03269C378.298 8.02479 378.265 8.02329 378.232 8.02825C378.199 8.03322 378.168 8.04457 378.14 8.06164C378.112 8.07871 378.087 8.10118 378.067 8.12775C378.048 8.15433 378.034 8.1845 378.026 8.21653C378.018 8.24857 378.016 8.28185 378.021 8.31447C378.026 8.34708 378.038 8.3784 378.055 8.40664L378.035 8.42664Z" fill="white"/>
<path d="M396.465 44.4866C391.301 48.0266 386.349 51.8665 381.635 55.9866C377.954 59.074 374.563 62.4916 371.505 66.1966C370.241 67.7404 369.147 69.4169 368.245 71.1966C367.9 71.8955 367.612 72.6212 367.385 73.3666C367.314 73.8859 367.21 74.4002 367.075 74.9066C366.681 75.432 366.213 75.8969 365.685 76.2866C364.735 77.1693 363.734 77.9941 362.685 78.7566C359.723 80.9971 356.247 82.4615 352.575 83.0166C352.255 83.0166 352.255 83.5566 352.575 83.5166C357.845 82.8666 362.575 79.9366 366.395 76.3166C366.801 76.0021 367.164 75.6357 367.475 75.2266C367.649 74.7239 367.769 74.2044 367.835 73.6766C368.365 71.9004 369.186 70.2243 370.265 68.7166C373.08 64.8038 376.35 61.2388 380.005 58.0966C383.455 54.9666 387.085 52.0166 390.805 49.2066C392.745 47.7366 394.705 46.2866 396.715 44.9166C396.985 44.7366 396.715 44.3066 396.465 44.4866V44.4866Z" fill="white"/>
<path d="M260.165 159.827L261.165 153.457C261.172 153.42 261.171 153.382 261.163 153.345C261.154 153.308 261.138 153.274 261.116 153.244C261.093 153.213 261.064 153.188 261.032 153.17C260.999 153.152 260.962 153.14 260.925 153.137L253.695 152.837C253.652 152.836 253.61 152.847 253.574 152.868C253.537 152.889 253.506 152.92 253.485 152.957C253.035 153.957 252.255 155.097 252.235 156.227C252.235 158.227 252.235 160.157 252.015 162.127C251.775 164.647 251.415 167.577 250.015 169.757C249.465 170.587 249.195 170.597 249.195 171.567C249.099 172.564 249.099 173.569 249.195 174.567C249.409 175.16 249.75 175.699 250.195 176.147C251.288 177.557 252.7 178.688 254.315 179.447C254.348 179.467 254.385 179.478 254.424 179.481C254.463 179.484 254.501 179.478 254.537 179.464C254.573 179.449 254.605 179.427 254.631 179.398C254.656 179.369 254.675 179.334 254.685 179.297L257.795 170.797C257.905 170.497 257.425 170.367 257.315 170.667L254.205 179.167L254.575 179.017C252.737 178.147 251.165 176.8 250.025 175.117C249.475 174.357 249.645 173.757 249.645 172.617C249.575 172.066 249.575 171.508 249.645 170.957C249.913 170.564 250.203 170.186 250.515 169.827C251.217 168.563 251.704 167.191 251.955 165.767C252.511 162.948 252.769 160.079 252.725 157.207C252.725 156.857 252.725 156.497 252.725 156.147C252.725 155.797 252.675 156.067 252.795 155.727C252.995 155.157 253.285 154.617 253.535 154.067C253.635 153.827 253.735 153.587 253.845 153.357C253.955 153.127 253.565 153.357 253.845 153.357C255.127 153.333 256.41 153.39 257.685 153.527L260.935 153.657L260.695 153.347L259.695 159.717C259.695 160.027 260.135 160.167 260.185 159.847L260.165 159.827Z" fill="white"/>
<path d="M351.435 278.537C351.501 278.537 351.564 278.51 351.611 278.463C351.658 278.417 351.685 278.353 351.685 278.287C351.685 278.22 351.658 278.157 351.611 278.11C351.564 278.063 351.501 278.037 351.435 278.037C351.368 278.037 351.305 278.063 351.258 278.11C351.211 278.157 351.185 278.22 351.185 278.287C351.185 278.353 351.211 278.417 351.258 278.463C351.305 278.51 351.368 278.537 351.435 278.537Z" fill="white"/>
<path d="M253 202L251.565 202.437L251.682 202.823L251.977 203.098L253 202ZM249.5 190.5L248.115 189.923L247.908 190.421L248.065 190.937L249.5 190.5ZM269.5 142.5L268.54 141.348L268.257 141.583L268.115 141.923L269.5 142.5ZM283 140L282.526 141.423L282.528 141.424L283 140ZM390 177.5L389.272 178.811L389.362 178.862L389.459 178.899L390 177.5ZM407 199L408.339 199.677L408.373 199.609L408.4 199.538L407 199ZM384.5 243.5L383.161 242.823L382.856 243.428L383.107 244.057L384.5 243.5ZM384.5 260L383.223 259.214L381.816 261.5H384.5V260ZM394.5 260L395.231 258.69L394.89 258.5H394.5V260ZM416 272H417.5V271.119L416.731 270.69L416 272ZM416 278.5H414.5V279.296L415.159 279.742L416 278.5ZM478 320.5H479.5V319.704L478.841 319.258L478 320.5ZM478 329L478.527 330.404L479.5 330.04V329H478ZM466 333.5L465.098 334.698L465.756 335.194L466.527 334.904L466 333.5ZM421.5 300L422.402 298.802L420.532 297.393L420.034 299.681L421.5 300ZM413 315L412.244 313.704L411.279 314.267L411.542 315.353L413 315ZM425 364.5L426.061 365.561L426.656 364.965L426.458 364.147L425 364.5ZM421.5 368L421.844 369.46L422.259 369.362L422.561 369.061L421.5 368ZM413 370L411.986 371.106L412.571 371.642L413.344 371.46L413 370ZM407 364.5L405.53 364.801L405.628 365.277L405.986 365.606L407 364.5ZM398 320.5L399.47 320.199L396.524 320.232L398 320.5ZM375 339L374.851 337.507L374.11 337.582L373.721 338.216L375 339ZM354.721 369.216C354.288 369.922 354.51 370.846 355.216 371.279C355.922 371.712 356.846 371.49 357.279 370.784L354.721 369.216ZM336.27 367.141C335.796 367.82 335.962 368.755 336.641 369.23C337.32 369.704 338.255 369.538 338.73 368.859L336.27 367.141ZM363 331.5L364.23 332.359L362.128 330.279L363 331.5ZM332.5 320.5L331.092 321.016L331.131 321.125L331.187 321.226L332.5 320.5ZM352.5 278.5L353.591 279.53L351.981 277.092L352.5 278.5ZM333.5 277L332.477 278.097L332.624 278.234L332.801 278.327L333.5 277ZM338.73 368.859L340.855 365.817L338.395 364.099L336.27 367.141L338.73 368.859ZM345.105 359.734L349.355 353.651L346.895 351.933L342.645 358.016L345.105 359.734ZM353.605 347.567L357.855 341.484L355.395 339.766L351.145 345.849L353.605 347.567ZM362.105 335.401L364.23 332.359L361.77 330.641L359.645 333.683L362.105 335.401ZM362.128 330.279C361.448 330.765 360.629 331.251 359.695 331.688L360.968 334.405C362.061 333.893 363.038 333.316 363.872 332.721L362.128 330.279ZM354.24 333.238C352.472 333.44 350.573 333.376 348.617 332.914L347.927 335.834C350.25 336.383 352.499 336.457 354.581 336.218L354.24 333.238ZM343.405 330.707C341.929 329.781 340.437 328.569 338.964 327.005L336.781 329.063C338.417 330.799 340.105 332.178 341.812 333.249L343.405 330.707ZM335.351 322.346C334.831 321.544 334.318 320.687 333.813 319.774L331.187 321.226C331.725 322.198 332.274 323.114 332.833 323.977L335.351 322.346ZM333.908 319.984C333.636 319.24 333.421 318.097 333.416 316.546L330.416 316.555C330.421 318.35 330.667 319.859 331.092 321.016L333.908 319.984ZM334.623 309.078C335.256 306.919 336.175 304.502 337.461 301.846L334.761 300.538C333.408 303.332 332.427 305.904 331.744 308.234L334.623 309.078ZM341.305 295.009C342.612 292.957 344.118 290.804 345.848 288.556L343.471 286.727C341.689 289.041 340.132 291.267 338.775 293.397L341.305 295.009ZM350.901 282.464C351.758 281.5 352.654 280.522 353.591 279.53L351.409 277.47C350.452 278.484 349.536 279.484 348.659 280.471L350.901 282.464ZM351.981 277.092C351.035 277.441 349.494 277.833 347.572 278.041L347.895 281.023C350.024 280.793 351.81 280.353 353.019 279.908L351.981 277.092ZM338.44 277.344C337.026 276.954 335.6 276.41 334.199 275.673L332.801 278.327C334.407 279.173 336.037 279.793 337.642 280.236L338.44 277.344ZM334.523 275.903L332.007 273.559L329.962 275.754L332.477 278.097L334.523 275.903ZM326.976 268.871L321.944 264.184L319.899 266.379L324.931 271.066L326.976 268.871ZM316.913 259.496L311.882 254.809L309.837 257.004L314.868 261.691L316.913 259.496ZM306.851 250.121L301.819 245.434L299.774 247.629L304.806 252.316L306.851 250.121ZM296.788 240.746L291.757 236.059L289.712 238.254L294.743 242.941L296.788 240.746ZM286.726 231.371L281.694 226.684L279.649 228.879L284.681 233.566L286.726 231.371ZM276.663 221.996L271.632 217.309L269.587 219.504L274.618 224.191L276.663 221.996ZM266.601 212.621L261.569 207.934L259.524 210.129L264.556 214.816L266.601 212.621ZM256.538 203.246L254.023 200.903L251.977 203.098L254.493 205.441L256.538 203.246ZM254.435 201.563L253.56 198.688L250.69 199.562L251.565 202.437L254.435 201.563ZM251.81 192.938L250.935 190.063L248.065 190.937L248.94 193.812L251.81 192.938ZM250.885 191.077L252.135 188.077L249.365 186.923L248.115 189.923L250.885 191.077ZM254.635 182.077L257.135 176.077L254.365 174.923L251.865 180.923L254.635 182.077ZM259.635 170.077L262.135 164.077L259.365 162.923L256.865 168.923L259.635 170.077ZM264.635 158.077L267.135 152.077L264.365 150.923L261.865 156.923L264.635 158.077ZM269.635 146.077L270.885 143.077L268.115 141.923L266.865 144.923L269.635 146.077ZM270.46 143.652C271.01 143.195 271.943 142.581 273.161 142.039L271.942 139.298C270.497 139.94 269.322 140.695 268.54 141.348L270.46 143.652ZM279.419 140.831C280.423 140.886 281.465 141.07 282.526 141.423L283.474 138.577C282.147 138.135 280.841 137.905 279.584 137.835L279.419 140.831ZM282.528 141.424C283.61 141.783 284.73 142.155 285.885 142.539L286.831 139.692C285.676 139.308 284.555 138.935 283.472 138.576L282.528 141.424ZM292.612 144.779C294.774 145.501 297.017 146.251 299.325 147.024L300.278 144.18C297.969 143.406 295.725 142.656 293.562 141.934L292.612 144.779ZM306.04 149.279C308.245 150.02 310.49 150.776 312.763 151.543L313.722 148.701C311.448 147.933 309.202 147.177 306.996 146.435L306.04 149.279ZM319.477 153.813C321.704 154.568 323.946 155.329 326.189 156.092L327.155 153.252C324.911 152.488 322.668 151.727 320.439 150.972L319.477 153.813ZM332.897 158.38C335.146 159.148 337.386 159.916 339.605 160.678L340.58 157.841C338.359 157.078 336.118 156.31 333.867 155.541L332.897 158.38ZM346.303 162.987C348.575 163.773 350.811 164.549 352.996 165.31L353.983 162.477C351.796 161.715 349.558 160.938 347.284 160.152L346.303 162.987ZM359.692 167.654C362.006 168.468 364.239 169.258 366.372 170.019L367.38 167.193C365.242 166.431 363.005 165.639 360.687 164.824L359.692 167.654ZM373.037 172.417C375.453 173.295 377.67 174.113 379.649 174.858L380.706 172.051C378.714 171.301 376.486 170.479 374.062 169.597L373.037 172.417ZM386.225 177.428C387.707 178.043 388.724 178.507 389.272 178.811L390.728 176.189C390.016 175.793 388.857 175.272 387.374 174.657L386.225 177.428ZM389.459 178.899C390.459 179.285 391.59 179.781 392.783 180.375L394.122 177.691C392.848 177.056 391.631 176.522 390.541 176.101L389.459 178.899ZM398.993 184.182C400.967 185.67 402.736 187.347 404.03 189.159L406.472 187.416C404.948 185.282 402.933 183.394 400.798 181.786L398.993 184.182ZM406.219 195.297C406.213 196.306 406.024 197.36 405.6 198.462L408.4 199.538C408.95 198.11 409.211 196.697 409.219 195.314L406.219 195.297ZM405.661 198.323L404.255 201.104L406.932 202.458L408.339 199.677L405.661 198.323ZM401.443 206.667L398.63 212.229L401.307 213.583L404.12 208.021L401.443 206.667ZM395.818 217.792L393.005 223.354L395.682 224.708L398.495 219.146L395.818 217.792ZM390.193 228.917L387.38 234.479L390.057 235.833L392.87 230.271L390.193 228.917ZM384.568 240.042L383.161 242.823L385.839 244.177L387.245 241.396L384.568 240.042ZM383.107 244.057C383.475 244.977 383.902 246.32 384.23 247.886L387.166 247.269C386.804 245.544 386.329 244.034 385.893 242.943L383.107 244.057ZM384.504 255.754C384.263 257.023 383.849 258.196 383.223 259.214L385.777 260.786C386.633 259.396 387.158 257.863 387.451 256.313L384.504 255.754ZM384.5 261.5H387V258.5H384.5V261.5ZM392 261.5H394.5V258.5H392V261.5ZM393.769 261.31L396.456 262.81L397.919 260.19L395.231 258.69L393.769 261.31ZM401.831 265.81L407.206 268.81L408.669 266.19L403.294 263.19L401.831 265.81ZM412.581 271.81L415.269 273.31L416.731 270.69L414.044 269.19L412.581 271.81ZM414.5 272V273.625H417.5V272H414.5ZM414.5 276.875V278.5H417.5V276.875H414.5ZM415.159 279.742L418.259 281.842L419.941 279.358L416.841 277.258L415.159 279.742ZM424.459 286.042L430.659 290.242L432.341 287.758L426.141 283.558L424.459 286.042ZM436.859 294.442L443.059 298.642L444.741 296.158L438.541 291.958L436.859 294.442ZM449.259 302.842L455.459 307.042L457.141 304.558L450.941 300.358L449.259 302.842ZM461.659 311.242L467.859 315.442L469.541 312.958L463.341 308.758L461.659 311.242ZM474.059 319.642L477.159 321.742L478.841 319.258L475.741 317.158L474.059 319.642ZM476.5 320.5V322.625H479.5V320.5H476.5ZM476.5 326.875V329H479.5V326.875H476.5ZM477.473 327.596L474.473 328.721L475.527 331.529L478.527 330.404L477.473 327.596ZM468.473 330.971L465.473 332.096L466.527 334.904L469.527 333.779L468.473 330.971ZM466.902 332.302L464.121 330.208L462.317 332.605L465.098 334.698L466.902 332.302ZM458.558 326.02L452.996 321.833L451.192 324.23L456.754 328.417L458.558 326.02ZM447.433 317.645L441.871 313.458L440.067 315.855L445.629 320.042L447.433 317.645ZM436.308 309.27L430.746 305.083L428.942 307.48L434.504 311.667L436.308 309.27ZM425.183 300.895L422.402 298.802L420.598 301.198L423.379 303.292L425.183 300.895ZM420.034 299.681C419.807 300.726 419.413 302.155 418.853 303.725L421.678 304.733C422.279 303.05 422.71 301.496 422.966 300.319L420.034 299.681ZM415.038 311.111C414.16 312.244 413.223 313.134 412.244 313.704L413.756 316.296C415.167 315.472 416.38 314.278 417.409 312.949L415.038 311.111ZM411.542 315.353L412.292 318.447L415.208 317.74L414.458 314.647L411.542 315.353ZM413.792 324.635L415.292 330.822L418.208 330.115L416.708 323.928L413.792 324.635ZM416.792 337.01L418.292 343.197L421.208 342.49L419.708 336.303L416.792 337.01ZM419.792 349.385L421.292 355.572L424.208 354.865L422.708 348.678L419.792 349.385ZM422.792 361.76L423.542 364.853L426.458 364.147L425.708 361.053L422.792 361.76ZM423.939 363.439L423.064 364.314L425.186 366.436L426.061 365.561L423.939 363.439ZM421.314 366.064L420.439 366.939L422.561 369.061L423.436 368.186L421.314 366.064ZM421.156 366.54L419.031 367.04L419.719 369.96L421.844 369.46L421.156 366.54ZM414.781 368.04L412.656 368.54L413.344 371.46L415.469 370.96L414.781 368.04ZM414.014 368.894L412.514 367.519L410.486 369.731L411.986 371.106L414.014 368.894ZM409.514 364.769L408.014 363.394L405.986 365.606L407.486 366.981L409.514 364.769ZM408.47 364.199L407.72 360.533L404.78 361.134L405.53 364.801L408.47 364.199ZM406.22 353.199L404.72 345.866L401.78 346.467L403.28 353.801L406.22 353.199ZM403.22 338.533L401.72 331.199L398.78 331.801L400.28 339.134L403.22 338.533ZM400.22 323.866L399.47 320.199L396.53 320.801L397.28 324.467L400.22 323.866ZM396.524 320.232C396.353 321.174 396.007 322.354 395.44 323.658L398.191 324.854C398.84 323.362 399.259 321.961 399.476 320.768L396.524 320.232ZM391.395 329.803C389.856 331.461 387.934 333.035 385.562 334.334L387.002 336.965C389.675 335.502 391.85 333.723 393.594 331.843L391.395 329.803ZM378.579 336.917C377.408 337.175 376.167 337.376 374.851 337.507L375.149 340.493C376.58 340.349 377.938 340.131 379.226 339.846L378.579 336.917ZM373.721 338.216L372.138 340.799L374.696 342.367L376.279 339.784L373.721 338.216ZM368.971 345.966L365.804 351.133L368.362 352.701L371.529 347.534L368.971 345.966ZM362.638 356.299L359.471 361.466L362.029 363.034L365.196 357.867L362.638 356.299ZM356.304 366.633L354.721 369.216L357.279 370.784L358.862 368.201L356.304 366.633Z" fill="white"/>
</svg>
