<svg width="500" height="375" fill="none" xmlns="http://www.w3.org/2000/svg"><path d="m130.94 5.63-66 45.66-15.6 4.12-29.8 21.1v4.59l4.12 38.52 4.13 5.5-13.76 34.4 3.21 15.13 11.93 56.41 6 7.79s83.92 65.12 126.11 83c0 0 86.2 33.94 130.24 33.94 2.3 0 54.58-11.93 68.34-24.31l10.08-11.92s56.41-166.93 79.34-153.63c0 0 10.55 1.83-6 66 0 0 39.32-41.73 43.28-49.07" stroke="#fff" stroke-miterlimit="10"/><path d="M430.884 283.547c10.736-41.069 12.626-76.143 4.221-78.34-8.405-2.197-23.922 29.314-34.658 70.383-10.736 41.069-12.625 76.142-4.22 78.34 8.405 2.197 23.922-29.315 34.657-70.383Z" stroke="#fff" stroke-miterlimit="10"/><path d="M429.97 179.94s15.53-.14 10.2 49.72M330.53 345.37l2.5 2.32 43.72 22.44h14.68s16.69-15.72 25-43.38M448.37 210.11l38.16-38.9M476.56 195.45l1.54 2.28 8.43 1.53M413.44 5l-1.83 37.57.91 3.67s62 14.68 74 29.12M464.35 5.63s7.1 9 9.86 17.91l12.32 34.63M64.91 51.29s148.78-26.4 267.13-19.39h15.06l4-1.19 11.59-25.08M149.9 69.48v6.11s14.37 30.27 25.38 33c0 0 2.75 2.45 41.27 3.06a34.311 34.311 0 0 1 22.62 10.39l15.9 10.09s100.28 6.73 107.62 0c0 0 15.29-33 21.71-58.39v-5.49s-11.93-5.8-18-6.72c0 0-119.24-12.84-190.47-2.14-.04 0-22.97 3.67-26.03 10.09ZM27.19 71.07l-2.41 4.52 5.5 5.73s-3 15.37-3.9 17.66c0 0-4.78 1.65-5 0M255.07 132.15V165s-46.16 44-58.55 49.53c0 0-10.08 5-31.64 0 0 0-100.43-20.64-150.88-55" stroke="#fff" stroke-miterlimit="10"/><path d="m27.76 125.12 6 26a9.728 9.728 0 0 0 4 4.74s81 34.75 176.1 46.26M39.99 187.5l1.53 25.21 1.37 2.14 71.55 38.07 1.52-2.3v-31.18" stroke="#fff" stroke-miterlimit="10"/><path d="m24.29 208.12-1.12-24.45s-.15-5.15 4.59-3c0 0 24.31 14.12 95.24 41.94 0 0 9.78-.76 57 68 0 0 22.48 24.9 42.65 36.07 0 0 34.77 10.24 79.8 11.16" stroke="#fff" stroke-miterlimit="10"/><path d="M180.01 290.68s130.25 43.1 196.74-7.8M327.5 31.65l-21.6 25.21M35.1 75.36s85.76-6.19 109.14-6.19" stroke="#fff" stroke-miterlimit="10"/></svg>
