<svg width="500" height="375" viewBox="0 0 500 375" fill="none" xmlns="http://www.w3.org/2000/svg">
<path d="M484.27 112.08C484.27 112.08 483.61 101.21 476.5 113.25C476.5 113.25 466.64 132.85 456.32 159.45L363.91 255.3C363.91 255.3 384.09 211.3 363.91 203.3C363.91 203.3 315.07 191.38 273.8 347.53L265.31 354.87C265.31 354.87 223.12 370 196.06 361.75L127.27 354.82C127.27 354.82 53.44 312.17 25.47 263.1L19.05 232.37L14 203.94L18.59 181.47L26.38 172.75L30.05 154.41C30.05 154.41 46.05 109.47 168.05 77.1297C168.05 77.1297 230.19 19.5797 252.2 16.8297C252.2 16.8297 312.97 3.98967 388.2 7.65967C388.2 7.65967 458.82 9.79967 462.2 24.7797L476.88 60.2397L483.3 67.5797L484.83 89.5797C484.83 89.5797 486.97 117.71 479.33 126.27" stroke="white" stroke-miterlimit="10"/>
<path d="M348.924 303.307C361.222 272.121 362.773 243.52 352.389 239.425C342.006 235.331 323.619 257.293 311.322 288.48C299.025 319.667 297.473 348.268 307.857 352.362C318.24 356.457 336.627 334.494 348.924 303.307Z" stroke="white" stroke-miterlimit="10"/>
<path d="M337.58 213.91L349.82 218.26C366.31 227.19 367.18 265.32 351.4 305.34C337.5 340.58 315.18 365.93 297.66 368.27L291.15 366.63L269.27 351.42" stroke="white" stroke-miterlimit="10"/>
<path d="M473.18 149.873C478.465 133.252 480.787 119.154 478.366 118.384C475.945 117.614 469.698 130.464 464.413 147.085C459.127 163.706 456.805 177.804 459.226 178.574C461.648 179.344 467.895 166.494 473.18 149.873Z" stroke="white" stroke-miterlimit="10"/>
<path d="M471.499 154.94C467.619 174.94 456.819 185.58 456.819 185.58H453.149L438.149 182.29C437.809 181.847 437.563 181.339 437.427 180.797C437.291 180.255 437.268 179.691 437.359 179.14" stroke="white" stroke-miterlimit="10"/>
<path d="M476.539 113.25L479.059 114.25C479.059 114.25 481.059 117.93 478.459 129.36" stroke="white" stroke-miterlimit="10"/>
<path d="M237.61 24.8495C237.61 24.8495 276.97 17.4395 394.98 28.1395C394.98 28.1395 362.88 99.9895 362.88 106.41C362.88 106.41 357.38 109.47 354.93 110.69C354.93 110.69 307.54 118.03 207.57 97.5394C207.57 97.5394 153.08 88.3095 161.22 79.0095" stroke="white" stroke-miterlimit="10"/>
<path d="M28.0595 164.55C28.0595 164.55 60.5095 196.91 135.11 222.55C135.11 222.55 236.72 228.77 249.59 219.49C251.29 218.27 281.35 211.41 281.35 211.41L289.03 211.12L288.68 217.02C288.68 217.02 273.15 249.34 263.27 254.15C263.27 254.15 228.87 265.39 164.67 267.22L130.73 280.75L120.64 281.67C120.64 281.67 41.9695 240.67 24.1095 210.36L22.2695 204.17C22.2695 204.17 24.7495 180.95 26.3895 172.75" stroke="white" stroke-miterlimit="10"/>
<path d="M135.111 222.59L133.891 229.01L164.691 267.22" stroke="white" stroke-miterlimit="10"/>
<path d="M25.0488 231.15C25.0488 231.15 64.1788 267.68 82.5188 277.15L86.0388 299.15C86.0388 299.15 34.9788 260.32 29.7888 252.07L25.0488 231.15Z" stroke="white" stroke-miterlimit="10"/>
<path d="M19.9004 236.25L27.7304 242.98" stroke="white" stroke-miterlimit="10"/>
<path d="M84.9805 292.55C84.9805 292.55 124.41 316.75 140.31 329.9L183.42 360.43" stroke="white" stroke-miterlimit="10"/>
<path d="M154.77 340.14C154.77 340.14 251.82 354.14 272.23 331.43L280.36 324.36" stroke="white" stroke-miterlimit="10"/>
<path d="M354.93 110.69L357.76 112.52C357.76 112.52 352.18 130.87 352.33 133.62C352.33 133.62 242.73 207.31 237.23 222.9" stroke="white" stroke-miterlimit="10"/>
<path d="M447.75 95.4302L446.5 98.9202C446.5 98.9202 417.3 105.34 401.1 104.27C401.1 104.27 394.68 102.27 394.22 101.06L378.63 108.85C378.63 108.85 377.1 114.36 379.54 117.85C379.54 117.85 390.09 110.52 400.64 110.67C400.64 110.67 438.86 107.76 440.54 105.93L446.54 98.9302L450.06 89.1402L449.14 87.3102C449.14 87.3102 426.21 76.9202 420.09 77.6802C420.09 77.6802 412.3 77.2902 412.14 77.6802C411.98 78.0702 400.49 80.4202 395.59 90.8202L394.98 93.2602L396.36 102.26" stroke="white" stroke-miterlimit="10"/>
<path d="M378.631 108.85C378.631 108.85 399.491 26.2696 417.841 22.3496C417.841 22.3496 443.001 15.4496 454.841 23.2496L468.841 61.5396L438.171 82.7096" stroke="white" stroke-miterlimit="10"/>
<path d="M433.66 19.54C433.66 19.54 441.51 56.6099 442.13 79.9699" stroke="white" stroke-miterlimit="10"/>
</svg>
