<svg width="500" height="375" viewBox="0 0 500 375" fill="none" xmlns="http://www.w3.org/2000/svg">
<path d="M370.65 148.39C411.84 152.932 452.688 160.171 492.93 170.06" stroke="white" stroke-miterlimit="10"/>
<path d="M6.92969 192.08C6.92969 192.08 141.19 127.23 354.82 146.8" stroke="white" stroke-miterlimit="10"/>
<path d="M6.92969 251.69C6.92969 251.69 42.2897 326.53 99.4597 369.69" stroke="white" stroke-miterlimit="10"/>
<path d="M194.539 369.67C194.539 369.67 372.159 229.22 492.929 199.87" stroke="white" stroke-miterlimit="10"/>
<path d="M220.68 369.67C220.68 369.67 375.69 241.61 494.92 210" stroke="white" stroke-miterlimit="10"/>
<path d="M373.711 263.76C373.711 263.76 387.611 359.7 384.171 369.67" stroke="white" stroke-miterlimit="10"/>
<path d="M390.5 254.32C390.5 254.32 409.62 358.32 407.79 369.67" stroke="white" stroke-miterlimit="10"/>
<path d="M406.18 246C406.18 246 429.34 348 429.8 369.7" stroke="white" stroke-miterlimit="10"/>
<path d="M351.539 150.19C351.539 150.19 354.539 145.19 360.399 145.45L366.399 135.59H369.609L368.539 146.06C368.539 146.06 371.899 149.73 372.059 151.34C372.099 151.34 353.369 152 351.539 150.19Z" stroke="white" stroke-miterlimit="10"/>
</svg>
