<?xml version='1.0' encoding='ascii'?>
<svg xmlns="http://www.w3.org/2000/svg" version="1.1" width="1024" height="768">
    <g id="ViewLayer_001_silhouette" xmlns:inkscape="http://www.inkscape.org/namespaces/inkscape" inkscape:groupmode="lineset" inkscape:label="ViewLayer_001_silhouette">
        <g xmlns:inkscape="http://www.inkscape.org/namespaces/inkscape" inkscape:groupmode="layer" id="strokes" inkscape:label="strokes">
            <path fill="none" stroke-width="3.0" stroke-linecap="butt" stroke-opacity="1.0" stroke="rgb(255, 255, 255)" stroke-linejoin="round" d=" M 829.928, 768.513 828.805, 758.576 828.643, 757.144 827.822, 749.883 826.698, 739.947 825.575, 730.010 824.451, 720.073 823.327, 710.137 822.204, 700.200 821.080, 690.263 819.957, 680.327 818.833, 670.390 817.710, 660.453 816.586, 650.517 815.463, 640.580 814.339, 630.643 813.832, 626.156 813.831, 626.149 813.793, 625.812 813.775, 625.654 813.569, 623.834 813.070, 619.424 812.843, 617.414 811.150, 607.819 809.412, 597.972 807.675, 588.124 805.937, 578.276 804.550, 570.416 804.518, 570.233 804.504, 570.158 802.766, 560.310 802.676, 559.798 802.674, 559.784 802.653, 559.668 801.177, 551.305 801.176, 551.299 801.148, 551.140 799.411, 541.293 799.240, 540.325 798.791, 537.781 797.053, 527.934 795.316, 518.086 793.578, 508.238 793.146, 505.790 791.876, 498.597 " />
            <path fill="none" stroke-width="3.0" stroke-linecap="butt" stroke-opacity="1.0" stroke="rgb(255, 255, 255)" stroke-linejoin="round" d=" M 759.972, 514.054 760.195, 515.778 760.223, 515.995 760.257, 516.257 760.324, 516.775 760.351, 516.987 760.432, 517.609 760.462, 517.842 760.467, 517.884 761.064, 522.498 761.071, 522.551 761.079, 522.611 762.053, 530.147 762.063, 530.219 762.077, 530.332 763.360, 540.249 763.851, 544.047 763.856, 544.081 763.858, 544.101 765.141, 554.019 765.438, 556.311 765.440, 556.332 765.441, 556.340 766.724, 566.257 768.007, 576.175 768.149, 577.273 769.432, 587.191 769.575, 588.298 770.858, 598.216 770.908, 598.603 771.547, 603.540 771.725, 604.919 771.728, 604.943 771.793, 605.442 771.909, 606.338 772.733, 612.716 773.095, 615.513 773.097, 615.525 773.938, 622.027 775.221, 631.945 776.503, 641.862 776.609, 642.681 776.741, 644.733 776.946, 647.916 776.953, 648.025 776.968, 648.264 777.004, 648.829 777.518, 656.832 777.955, 663.636 778.596, 673.615 778.852, 677.597 779.461, 687.079 779.659, 690.157 780.235, 699.127 780.876, 709.106 781.517, 719.086 781.620, 720.694 782.048, 727.355 782.689, 737.334 783.330, 747.314 783.971, 757.293 784.612, 767.273 785.253, 777.252 785.894, 787.232 786.535, 797.211 787.177, 807.190 787.236, 808.112 " />
            <path fill="none" stroke-width="3.0" stroke-linecap="butt" stroke-opacity="1.0" stroke="rgb(255, 255, 255)" stroke-linejoin="round" d=" M 871.841, 768.234 871.786, 767.521 871.144, 759.061 870.387, 749.090 869.629, 739.119 869.052, 731.523 867.434, 721.654 865.815, 711.786 864.197, 701.918 862.578, 692.050 860.959, 682.182 859.341, 672.314 857.722, 662.446 856.104, 652.578 855.370, 648.108 855.366, 648.079 855.089, 646.393 855.055, 646.183 854.704, 644.046 853.979, 639.625 852.360, 629.757 852.001, 627.565 850.382, 617.696 848.763, 607.828 847.145, 597.960 846.335, 593.024 844.176, 583.260 842.631, 576.277 842.630, 576.270 842.600, 576.135 840.544, 566.837 840.543, 566.836 840.505, 566.661 838.345, 556.897 836.186, 547.132 834.026, 537.368 833.775, 536.233 833.719, 535.980 833.101, 533.187 832.822, 531.925 832.800, 531.824 830.641, 522.060 828.481, 512.296 827.671, 508.631 827.623, 508.415 827.185, 506.435 826.919, 505.233 826.486, 503.277 826.474, 503.223 826.465, 503.181 826.113, 501.587 825.811, 500.222 824.087, 492.428 823.682, 490.594 823.605, 490.246 822.506, 485.277 822.261, 484.173 " />
            <path fill="none" stroke-width="3.0" stroke-linecap="butt" stroke-opacity="1.0" stroke="rgb(255, 255, 255)" stroke-linejoin="round" d=" M 793.947, 497.594 794.030, 498.065 794.640, 501.520 796.379, 511.368 798.118, 521.215 799.857, 531.063 800.279, 533.451 800.728, 535.994 802.467, 545.842 803.568, 552.075 803.596, 552.237 803.597, 552.237 805.082, 560.650 805.103, 560.770 805.105, 560.781 806.002, 565.855 806.012, 565.913 806.042, 566.086 807.781, 575.934 809.520, 585.781 811.259, 595.629 812.998, 605.476 813.622, 609.008 814.882, 616.143 815.383, 620.566 815.880, 624.952 816.091, 626.812 816.105, 626.935 816.148, 627.316 817.274, 637.253 818.399, 647.189 819.525, 657.126 820.651, 667.062 821.777, 676.998 822.902, 686.935 824.028, 696.871 825.154, 706.808 826.279, 716.744 827.405, 726.681 828.531, 736.617 829.657, 746.553 830.205, 751.389 831.029, 758.670 831.946, 766.758 832.328, 776.751 832.710, 786.743 833.092, 796.736 833.133, 797.805 " />
            <path fill="none" stroke-width="3.0" stroke-linecap="butt" stroke-opacity="1.0" stroke="rgb(255, 255, 255)" stroke-linejoin="round" d=" M 740.953, 296.602 740.869, 296.894 740.677, 297.562 740.665, 297.603 740.248, 299.050 740.047, 299.750 740.015, 299.860 739.359, 302.136 739.309, 302.517 " />
            <path fill="none" stroke-width="3.0" stroke-linecap="butt" stroke-opacity="1.0" stroke="rgb(255, 255, 255)" stroke-linejoin="round" d=" M 761.632, 302.338 761.681, 301.976 761.448, 301.581 761.322, 301.368 760.807, 300.496 760.798, 300.480 760.484, 299.948 760.293, 299.625 760.266, 299.579 759.824, 298.829 759.797, 298.785 758.376, 296.377 758.025, 295.782 757.514, 295.147 755.100, 293.105 755.322, 291.637 756.164, 281.672 756.824, 273.855 756.884, 271.047 755.849, 270.819 754.748, 270.826 754.193, 270.938 750.656, 271.666 749.038, 273.585 743.809, 282.109 738.933, 290.058 738.396, 291.109 732.672, 292.101 725.148, 294.430 724.996, 294.595 724.961, 294.634 724.687, 294.933 724.425, 295.218 724.405, 295.239 723.810, 295.889 723.789, 295.911 722.033, 297.826 721.480, 298.428 721.469, 298.440 720.755, 299.219 720.674, 299.308 720.571, 299.419 720.528, 299.792 " />
            <path fill="none" stroke-width="3.0" stroke-linecap="butt" stroke-opacity="1.0" stroke="rgb(255, 255, 255)" stroke-linejoin="round" d=" M 755.100, 293.105 753.351, 292.500 746.200, 292.132 " />
            <path fill="none" stroke-width="3.0" stroke-linecap="butt" stroke-opacity="1.0" stroke="rgb(255, 255, 255)" stroke-linejoin="round" d=" M 756.884, 271.047 756.369, 271.164 753.041, 271.917 752.358, 273.943 749.216, 283.436 746.692, 291.064 746.200, 292.132 742.336, 291.442 738.396, 291.109 " />
            <path fill="none" stroke-width="3.0" stroke-linecap="butt" stroke-opacity="1.0" stroke="rgb(255, 255, 255)" stroke-linejoin="round" d=" M 914.662, 774.000 921.344, 766.560 928.026, 759.120 934.708, 751.680 935.885, 750.368 936.209, 750.008 942.890, 742.568 944.692, 740.562 951.319, 733.073 957.946, 725.584 962.775, 720.126 969.402, 712.637 972.743, 708.861 973.993, 707.449 974.128, 707.296 974.132, 707.291 974.378, 707.014 974.388, 707.002 974.395, 706.995 975.348, 705.918 978.409, 702.458 979.249, 701.487 980.529, 700.007 986.456, 693.153 991.211, 687.653 997.752, 680.089 1004.292, 672.525 1009.288, 666.747 1012.915, 662.418 1017.327, 657.152 1017.354, 657.121 " />
            <path fill="none" stroke-width="3.0" stroke-linecap="butt" stroke-opacity="1.0" stroke="rgb(255, 255, 255)" stroke-linejoin="round" d=" M 1024.187, 571.612 1022.421, 562.829 1022.011, 560.786 1021.870, 560.084 1021.576, 558.625 1020.378, 552.903 1018.854, 545.622 1017.500, 539.402 1017.500, 539.401 1017.418, 539.024 1016.021, 532.606 1013.817, 522.852 1013.078, 519.583 1010.796, 509.847 1010.024, 506.555 1009.639, 504.966 1009.482, 504.317 1009.038, 502.487 1008.659, 500.921 1006.867, 493.529 1004.442, 483.828 1003.612, 480.510 1001.511, 472.345 1000.265, 467.503 997.712, 457.834 996.836, 454.513 994.236, 444.856 993.346, 441.549 991.899, 436.241 991.174, 433.585 990.518, 431.177 990.499, 431.107 990.474, 431.018 990.238, 430.151 990.085, 429.588 989.820, 428.618 989.782, 428.480 989.025, 425.721 988.344, 423.240 987.958, 421.832 987.087, 418.658 " />
            <path fill="none" stroke-width="3.0" stroke-linecap="butt" stroke-opacity="1.0" stroke="rgb(255, 255, 255)" stroke-linejoin="round" d=" M 55.196, 373.260 54.913, 373.456 46.076, 378.137 39.867, 381.427 38.897, 383.223 38.823, 383.360 38.782, 383.436 38.782, 383.436 38.685, 383.616 38.328, 384.278 38.277, 384.371 38.183, 384.546 38.023, 384.843 37.369, 386.052 36.838, 387.036 36.642, 387.400 33.323, 393.546 31.651, 396.642 30.401, 398.957 30.388, 399.055 30.134, 401.066 30.131, 401.087 30.088, 401.427 29.666, 404.758 29.245, 408.082 29.088, 409.317 28.996, 410.047 28.848, 411.217 28.766, 411.866 28.705, 412.345 28.631, 412.925 28.404, 414.717 27.672, 420.501 27.001, 425.794 27.000, 425.803 27.041, 425.991 27.489, 428.037 27.522, 428.188 28.970, 434.807 30.560, 442.074 32.697, 451.843 34.275, 459.059 38.818, 467.968 43.361, 476.876 47.905, 485.785 52.448, 494.693 56.273, 502.194 60.212, 507.146 62.682, 510.250 64.769, 512.874 64.858, 512.987 65.157, 513.362 65.652, 513.984 66.574, 515.143 69.258, 518.518 71.534, 521.378 71.581, 521.438 77.807, 529.263 82.503, 535.167 82.768, 535.500 83.812, 536.812 90.037, 544.638 96.248, 552.446 96.501, 552.763 97.324, 553.798 102.708, 560.566 109.687, 567.729 116.665, 574.891 123.644, 582.053 130.623, 589.216 137.601, 596.378 144.580, 603.540 151.559, 610.702 153.297, 612.486 160.275, 619.648 167.254, 626.811 172.178, 631.864 176.408, 636.206 184.423, 642.186 190.091, 646.414 198.106, 652.394 206.121, 658.374 214.136, 664.354 216.149, 665.857 216.609, 666.199 217.226, 666.660 223.467, 671.317 223.654, 671.456 224.718, 672.250 228.056, 674.740 232.327, 677.927 232.812, 678.289 233.704, 678.954 241.719, 684.934 249.734, 690.914 257.749, 696.894 262.766, 700.638 263.173, 700.941 263.790, 701.401 263.989, 701.550 " />
            <path fill="none" stroke-width="3.0" stroke-linecap="butt" stroke-opacity="1.0" stroke="rgb(255, 255, 255)" stroke-linejoin="round" d=" M 1025.026, 353.773 1021.085, 352.898 1020.715, 352.816 1020.556, 352.820 1016.429, 352.932 1016.009, 352.944 1013.490, 353.013 1013.449, 353.014 1013.095, 353.033 1003.110, 353.579 993.125, 354.124 983.140, 354.670 980.463, 354.816 974.661, 355.950 964.847, 357.869 959.615, 358.892 959.136, 358.986 958.267, 359.156 955.588, 359.679 955.408, 359.714 950.833, 360.609 941.019, 362.528 931.205, 364.447 921.391, 366.365 917.601, 367.106 907.952, 369.731 898.303, 372.357 888.653, 374.982 879.004, 377.607 869.355, 380.232 863.983, 381.694 855.295, 384.058 854.093, 384.384 853.956, 384.422 853.956, 384.422 853.951, 384.423 849.815, 385.548 849.670, 385.588 847.303, 386.232 846.219, 386.578 844.337, 387.179 844.196, 387.224 842.835, 387.658 840.762, 388.320 840.551, 388.387 840.436, 388.424 840.435, 388.424 840.421, 388.428 840.130, 388.521 839.414, 388.750 839.116, 388.845 838.963, 388.894 836.443, 389.698 831.611, 391.240 830.329, 391.650 829.508, 391.912 828.235, 392.318 828.094, 392.363 827.684, 392.494 823.912, 393.698 814.385, 396.738 804.859, 399.779 797.340, 402.179 797.114, 402.251 797.090, 402.258 796.842, 402.338 796.767, 402.362 795.977, 402.614 795.925, 402.630 795.758, 402.684 795.727, 402.694 795.460, 402.779 795.347, 402.815 795.342, 402.816 795.101, 402.893 794.980, 402.932 794.501, 403.085 794.227, 403.172 793.533, 403.394 792.279, 403.794 792.055, 403.865 785.571, 405.935 785.160, 406.066 785.079, 406.092 781.987, 407.079 777.548, 408.496 777.201, 408.606 777.145, 408.624 776.952, 408.686 775.888, 409.026 775.490, 409.153 774.811, 409.369 771.461, 410.439 771.461, 410.439 771.461, 410.439 771.210, 410.519 769.296, 411.130 762.231, 413.384 762.231, 413.384 762.167, 413.405 762.043, 413.444 761.993, 413.460 761.905, 413.489 761.385, 413.655 761.039, 413.765 760.935, 413.798 760.205, 414.031 759.481, 414.262 759.463, 414.268 759.213, 414.348 759.154, 414.367 758.388, 414.611 758.075, 414.711 757.606, 414.861 757.192, 414.993 757.037, 415.042 757.019, 415.048 756.506, 415.212 756.266, 415.288 756.032, 415.363 755.314, 415.592 752.861, 416.375 743.652, 420.273 739.642, 421.970 738.149, 422.602 736.360, 423.359 735.940, 423.537 730.682, 425.762 729.774, 426.147 729.454, 426.282 723.440, 428.827 722.635, 429.168 722.554, 429.203 721.188, 429.781 714.796, 432.486 714.737, 432.511 713.835, 432.893 713.609, 432.989 712.657, 433.392 709.615, 434.679 703.680, 437.191 703.657, 437.201 703.570, 437.238 694.361, 441.136 692.315, 442.002 692.004, 442.133 691.637, 442.288 682.428, 446.186 673.219, 450.084 664.010, 453.982 654.801, 457.880 645.592, 461.777 644.475, 462.250 644.329, 462.312 635.120, 466.210 625.910, 470.108 623.545, 471.109 623.021, 471.331 622.630, 471.496 613.421, 475.394 612.536, 475.768 609.443, 477.078 605.429, 478.776 604.493, 479.173 602.509, 480.012 597.521, 482.604 592.048, 485.447 585.899, 488.640 584.569, 489.331 583.751, 489.756 582.965, 490.165 581.256, 491.052 580.942, 491.216 580.933, 491.220 580.913, 491.230 580.906, 491.234 580.397, 491.499 579.853, 491.781 579.588, 491.919 579.513, 491.958 579.182, 492.130 578.996, 492.226 578.345, 492.564 578.152, 492.664 578.046, 492.720 577.997, 492.745 577.200, 493.159 577.080, 493.222 576.827, 493.353 574.023, 494.810 572.761, 495.465 571.362, 496.192 571.131, 496.312 570.664, 496.554 567.391, 498.255 567.268, 498.319 566.340, 498.800 566.255, 498.845 562.554, 500.767 562.527, 500.781 560.641, 501.761 557.135, 503.582 556.880, 503.714 556.338, 503.996 555.588, 504.385 555.504, 504.429 552.334, 506.076 548.640, 507.995 548.295, 508.174 545.088, 509.840 542.108, 511.388 538.166, 513.436 536.263, 514.424 533.660, 515.776 532.784, 516.231 529.342, 518.019 528.435, 518.490 525.376, 520.079 525.324, 520.106 523.936, 520.827 523.633, 520.984 516.143, 524.875 513.133, 526.439 511.670, 527.199 506.954, 529.649 502.632, 531.893 496.400, 535.131 487.526, 539.740 478.652, 544.350 477.147, 545.131 471.960, 547.826 470.576, 548.545 467.610, 550.556 466.486, 551.318 465.755, 551.814 457.478, 557.426 449.202, 563.038 446.293, 565.010 438.016, 570.622 429.739, 576.234 421.462, 581.846 413.185, 587.458 404.909, 593.071 400.955, 595.751 399.532, 596.716 395.513, 599.441 394.674, 600.010 394.329, 600.244 386.052, 605.856 377.775, 611.468 376.491, 612.339 376.250, 612.503 375.605, 612.940 375.414, 613.069 374.988, 613.358 366.712, 618.970 363.903, 620.874 355.626, 626.486 350.336, 630.073 343.267, 634.866 342.658, 635.279 334.986, 641.694 331.085, 644.956 330.503, 645.443 327.075, 648.309 326.659, 648.657 326.648, 648.666 325.181, 649.892 325.036, 650.014 323.282, 651.480 315.611, 657.894 307.939, 664.309 300.267, 670.723 297.383, 673.134 297.369, 673.146 297.365, 673.149 297.297, 673.207 296.801, 673.622 296.751, 673.663 296.263, 674.072 288.591, 680.486 287.292, 681.572 287.075, 681.753 286.546, 682.195 284.525, 683.886 284.008, 684.318 283.996, 684.328 283.985, 684.337 282.554, 685.533 281.520, 686.398 281.504, 686.411 281.482, 686.430 280.559, 687.202 280.318, 687.403 272.646, 693.817 268.994, 696.871 268.650, 697.159 268.527, 697.262 267.155, 698.409 267.051, 698.496 266.774, 698.728 266.641, 698.839 265.963, 699.531 265.588, 699.915 265.247, 700.263 264.592, 700.933 264.444, 701.084 264.380, 701.150 263.989, 701.550 263.607, 701.940 263.287, 702.267 263.135, 702.423 262.726, 702.841 262.583, 702.987 261.589, 704.003 254.595, 711.151 252.654, 713.135 247.910, 717.984 247.895, 718.000 240.902, 725.148 239.428, 726.655 238.459, 727.645 238.059, 728.054 234.987, 731.194 232.856, 733.372 225.863, 740.520 218.870, 747.668 215.564, 751.048 208.570, 758.196 204.463, 762.394 197.470, 769.542 190.476, 776.690 183.483, 783.839 176.490, 790.987 169.497, 798.135 162.504, 805.283 155.510, 812.431 148.517, 819.579 145.004, 823.170 " />
            <path fill="none" stroke-width="3.0" stroke-linecap="butt" stroke-opacity="1.0" stroke="rgb(255, 255, 255)" stroke-linejoin="round" d=" M 1016.009, 352.944 1006.456, 349.989 996.902, 347.033 987.349, 344.078 978.687, 341.398 968.955, 339.100 959.223, 336.801 949.490, 334.502 939.758, 332.204 930.026, 329.905 920.294, 327.607 910.561, 325.308 907.417, 324.565 897.613, 322.590 887.810, 320.615 878.007, 318.641 868.204, 316.666 858.401, 314.691 848.598, 312.716 843.461, 311.681 833.603, 310.007 823.744, 308.332 818.493, 307.440 816.072, 307.029 806.213, 305.355 800.461, 304.378 800.179, 304.330 790.320, 302.655 790.126, 302.622 780.267, 300.948 779.792, 300.867 769.844, 299.852 759.824, 298.829 " />
            <path fill="none" stroke-width="3.0" stroke-linecap="butt" stroke-opacity="1.0" stroke="rgb(255, 255, 255)" stroke-linejoin="round" d=" M 1025.857, 380.253 1018.321, 380.716 1008.599, 383.056 998.876, 385.396 989.154, 387.736 979.432, 390.077 969.709, 392.417 959.987, 394.757 955.717, 395.785 946.188, 398.818 936.659, 401.851 927.130, 404.884 917.672, 407.895 912.991, 409.385 910.784, 410.087 909.573, 410.472 909.378, 410.535 909.196, 410.592 905.561, 411.750 896.032, 414.783 887.127, 417.617 877.748, 421.085 868.368, 424.552 858.989, 428.020 849.609, 431.488 840.230, 434.956 830.850, 438.423 821.471, 441.891 813.530, 444.827 813.503, 444.837 811.418, 445.607 810.737, 445.859 807.883, 446.914 798.504, 450.382 793.702, 452.157 791.907, 452.996 791.152, 453.348 791.019, 453.410 781.959, 457.642 779.107, 458.975 770.796, 462.857 767.885, 464.216 767.857, 464.230 767.522, 464.386 766.901, 464.676 766.056, 465.071 765.699, 465.237 765.304, 465.422 764.380, 465.854 764.023, 466.020 763.613, 466.212 763.457, 466.285 763.107, 466.448 762.883, 466.553 761.112, 467.380 760.584, 467.627 755.152, 470.164 754.232, 470.594 752.705, 471.307 743.645, 475.539 742.862, 475.905 742.686, 475.987 738.402, 477.988 737.947, 478.200 737.531, 478.395 737.516, 478.402 733.164, 480.435 729.893, 481.963 729.439, 482.175 729.021, 482.370 728.840, 482.454 726.914, 483.354 725.523, 484.004 724.105, 484.666 721.145, 486.049 718.845, 487.123 718.225, 487.413 712.141, 490.255 709.943, 491.282 706.986, 492.663 706.735, 492.780 705.739, 493.245 701.820, 495.076 699.919, 495.963 699.137, 496.329 697.998, 496.861 695.121, 498.205 694.718, 498.393 693.945, 498.754 692.999, 499.196 689.518, 500.822 684.625, 503.107 682.926, 503.901 682.470, 504.114 682.078, 504.297 674.523, 507.826 674.454, 507.858 673.348, 508.375 670.323, 509.788 669.966, 509.955 669.614, 510.119 665.898, 511.855 664.107, 512.692 663.308, 513.065 663.287, 513.075 661.675, 513.828 652.614, 518.060 648.354, 520.050 647.945, 520.241 647.593, 520.405 646.927, 520.716 645.737, 521.272 645.118, 521.561 645.087, 521.576 644.191, 521.994 643.580, 522.280 643.060, 522.522 640.817, 523.810 640.802, 523.818 640.626, 523.919 639.438, 524.601 639.119, 524.784 636.828, 526.099 635.515, 526.852 635.430, 526.901 635.147, 527.063 634.091, 527.669 633.949, 527.750 632.222, 528.742 630.980, 529.454 630.738, 529.593 629.524, 530.290 628.632, 530.802 628.033, 531.146 627.748, 531.309 627.629, 531.377 627.409, 531.503 626.768, 531.871 625.534, 532.579 618.204, 536.785 618.201, 536.787 609.527, 541.764 608.193, 542.529 608.111, 542.577 607.048, 543.187 606.555, 543.469 606.555, 543.469 606.379, 543.570 605.072, 544.320 604.586, 544.599 604.585, 544.600 595.912, 549.577 594.557, 550.354 594.530, 550.369 594.530, 550.369 593.607, 550.899 592.480, 551.546 591.810, 551.930 583.136, 556.907 581.349, 557.933 577.040, 560.405 577.040, 560.405 575.159, 561.485 575.159, 561.485 571.595, 563.530 570.776, 564.000 569.362, 564.811 568.357, 565.387 568.357, 565.387 567.840, 565.685 567.670, 565.782 567.349, 565.966 567.349, 565.966 566.869, 566.241 566.865, 566.244 565.914, 566.789 565.914, 566.789 564.981, 567.325 564.954, 567.341 564.742, 567.462 564.742, 567.462 564.329, 567.699 564.307, 567.712 564.307, 567.712 563.801, 568.002 560.734, 569.762 560.126, 570.111 559.059, 570.723 558.923, 570.801 558.126, 571.259 557.444, 571.649 557.444, 571.649 557.433, 571.656 557.311, 571.726 557.311, 571.726 557.200, 571.790 557.200, 571.790 556.462, 572.213 556.367, 572.268 556.206, 572.360 556.040, 572.455 556.040, 572.455 556.008, 572.474 555.743, 572.626 554.926, 573.095 554.479, 573.351 553.713, 573.790 553.712, 573.791 552.648, 574.401 552.583, 574.439 551.933, 574.812 551.933, 574.812 551.314, 575.167 551.306, 575.172 551.306, 575.172 550.356, 575.717 550.356, 575.717 549.800, 576.036 549.659, 576.117 549.280, 576.334 549.238, 576.358 548.768, 576.628 548.582, 576.735 548.336, 576.876 548.141, 576.988 546.425, 577.972 545.737, 578.367 545.736, 578.368 545.672, 578.404 545.143, 578.708 543.883, 579.431 543.348, 579.738 534.675, 584.715 530.833, 586.919 522.923, 591.458 521.947, 592.018 516.870, 594.931 515.775, 595.714 515.648, 595.805 515.283, 596.066 513.792, 597.132 513.374, 597.431 513.374, 597.431 513.250, 597.519 512.271, 598.219 512.020, 598.399 509.401, 600.271 508.896, 600.632 508.163, 601.156 507.203, 601.842 506.432, 602.393 504.066, 604.085 503.296, 604.636 503.289, 604.641 503.276, 604.650 503.178, 604.720 501.744, 605.745 501.743, 605.745 501.691, 605.783 501.017, 606.265 499.391, 607.427 496.803, 609.277 495.241, 610.394 494.833, 610.686 493.269, 611.803 492.601, 612.281 491.043, 613.395 487.404, 615.997 483.920, 618.487 481.403, 620.287 481.186, 620.442 475.609, 624.429 472.763, 626.464 471.732, 627.201 467.683, 630.095 467.390, 630.305 467.047, 630.550 464.699, 632.229 456.564, 638.044 448.429, 643.860 447.894, 644.242 447.566, 644.477 447.428, 644.575 447.064, 644.836 443.958, 647.056 443.057, 647.700 434.922, 653.516 430.432, 656.726 424.669, 660.846 416.534, 666.662 408.399, 672.477 400.264, 678.293 397.461, 680.297 397.270, 680.466 389.784, 687.096 382.298, 693.726 374.812, 700.356 371.160, 703.591 370.274, 704.375 362.788, 711.005 360.646, 712.902 359.747, 713.698 358.824, 714.516 351.338, 721.146 344.451, 727.246 342.897, 728.622 341.369, 729.975 333.882, 736.606 331.753, 738.491 330.438, 739.656 325.993, 743.593 318.507, 750.223 315.989, 752.453 309.156, 759.755 302.324, 767.057 295.491, 774.358 288.659, 781.660 283.812, 786.840 " />
            <path fill="none" stroke-width="3.0" stroke-linecap="butt" stroke-opacity="1.0" stroke="rgb(255, 255, 255)" stroke-linejoin="round" d=" M 331.539, 770.061 338.827, 763.213 339.379, 762.694 339.959, 762.149 343.020, 759.273 343.872, 758.472 351.159, 751.624 353.949, 749.002 354.632, 748.360 356.447, 746.655 358.013, 745.183 363.794, 739.750 364.607, 738.987 371.894, 732.138 379.181, 725.290 386.469, 718.442 393.756, 711.594 401.043, 704.746 405.208, 700.832 409.154, 697.124 417.178, 691.157 424.743, 685.530 432.768, 679.562 440.792, 673.595 448.816, 667.627 456.840, 661.659 459.675, 659.551 467.699, 653.583 475.723, 647.615 476.380, 647.127 480.679, 643.929 483.211, 642.046 483.728, 641.662 485.112, 640.633 487.765, 638.659 487.966, 638.510 489.498, 637.370 492.783, 634.928 493.057, 634.724 494.229, 633.852 494.269, 633.823 494.449, 633.688 494.567, 633.601 494.571, 633.598 494.726, 633.482 494.971, 633.300 495.964, 632.562 495.976, 632.553 496.016, 632.523 496.079, 632.476 496.286, 632.322 496.409, 632.231 496.510, 632.156 497.514, 631.409 497.606, 631.341 497.686, 631.281 497.843, 631.164 498.873, 630.399 499.138, 630.201 499.172, 630.176 500.367, 629.287 500.444, 629.230 501.953, 628.107 502.008, 628.066 502.041, 628.042 503.494, 626.962 503.500, 626.957 503.515, 626.946 503.585, 626.894 505.078, 625.783 505.390, 625.551 506.967, 624.379 507.450, 624.019 507.896, 623.688 508.105, 623.532 508.105, 623.532 508.768, 623.039 508.830, 622.993 509.932, 622.173 509.970, 622.145 510.432, 621.801 510.432, 621.801 510.438, 621.797 510.674, 621.621 512.294, 620.417 514.941, 618.448 515.554, 617.992 516.368, 617.387 516.987, 616.926 521.499, 613.571 521.511, 613.562 524.011, 611.702 527.900, 609.373 530.650, 607.725 531.163, 607.418 536.805, 604.039 539.014, 602.715 539.993, 602.129 540.092, 602.069 540.312, 601.938 540.364, 601.907 541.238, 601.383 544.171, 599.626 546.044, 598.504 546.727, 598.095 547.066, 597.892 547.603, 597.570 548.066, 597.293 548.685, 596.922 549.110, 596.668 549.217, 596.604 549.630, 596.356 549.939, 596.171 549.939, 596.171 550.117, 596.064 550.222, 596.001 550.581, 595.786 550.910, 595.589 551.014, 595.527 551.530, 595.218 552.339, 594.733 552.594, 594.580 552.722, 594.504 553.331, 594.139 553.331, 594.139 554.515, 593.430 554.624, 593.364 555.582, 592.790 555.673, 592.736 556.533, 592.221 556.776, 592.075 557.796, 591.464 558.544, 591.016 558.661, 590.946 558.708, 590.918 558.716, 590.913 558.803, 590.861 558.967, 590.763 559.079, 590.696 560.100, 590.084 560.345, 589.937 561.098, 589.486 561.633, 589.166 563.017, 588.336 563.154, 588.255 563.277, 588.181 563.308, 588.162 563.312, 588.160 563.338, 588.144 563.438, 588.085 563.838, 587.845 563.913, 587.800 563.914, 587.800 564.125, 587.673 564.198, 587.629 564.365, 587.529 564.416, 587.498 564.638, 587.366 564.661, 587.352 564.795, 587.272 565.015, 587.140 565.137, 587.067 565.654, 586.757 565.866, 586.630 565.866, 586.630 565.880, 586.621 565.889, 586.616 565.892, 586.615 565.895, 586.613 566.183, 586.440 566.361, 586.333 566.479, 586.263 567.149, 585.862 567.149, 585.861 567.149, 585.861 567.347, 585.743 567.461, 585.675 567.510, 585.645 567.692, 585.536 567.894, 585.415 568.498, 585.054 568.839, 584.849 568.857, 584.838 569.259, 584.598 569.259, 584.598 569.998, 584.155 570.536, 583.832 571.196, 583.437 571.496, 583.257 572.982, 582.368 574.755, 581.305 575.063, 581.121 575.727, 580.723 576.090, 580.505 576.296, 580.382 578.644, 578.976 578.644, 578.976 579.832, 578.264 580.084, 578.113 582.132, 576.886 582.174, 576.861 585.338, 574.966 588.758, 572.917 589.767, 572.312 590.300, 571.993 590.300, 571.993 590.318, 571.982 591.370, 571.352 591.828, 571.078 591.840, 571.071 592.266, 570.816 592.267, 570.815 592.300, 570.795 592.722, 570.543 593.588, 570.024 595.655, 568.786 604.004, 563.784 604.004, 563.784 604.563, 563.449 604.563, 563.449 604.698, 563.368 604.743, 563.341 604.789, 563.314 605.153, 563.096 605.485, 562.897 605.825, 562.693 605.827, 562.692 606.068, 562.548 606.069, 562.547 606.069, 562.547 606.300, 562.409 606.479, 562.302 607.839, 561.487 608.259, 561.236 616.837, 556.097 618.235, 555.259 618.272, 555.237 626.936, 550.047 627.225, 549.874 628.147, 549.322 628.437, 549.148 629.232, 548.672 629.741, 548.367 630.436, 547.951 631.041, 547.588 631.894, 547.077 631.907, 547.069 633.080, 546.367 633.129, 546.337 633.750, 545.965 634.949, 545.247 635.939, 544.654 637.124, 543.944 637.782, 543.550 637.786, 543.548 637.832, 543.520 638.254, 543.267 638.259, 543.265 638.894, 542.884 638.995, 542.824 639.112, 542.753 639.320, 542.629 639.568, 542.480 640.754, 541.770 641.562, 541.286 641.747, 541.175 642.033, 541.004 642.755, 540.571 643.321, 540.232 643.600, 540.065 644.720, 539.394 645.064, 539.188 645.942, 538.662 646.280, 538.460 647.041, 538.004 647.555, 537.759 649.377, 536.891 650.197, 536.500 650.227, 536.486 650.767, 536.229 651.398, 535.928 651.994, 535.644 652.912, 535.207 657.190, 533.169 657.657, 532.946 657.991, 532.787 662.305, 530.732 662.631, 530.577 663.014, 530.394 671.348, 526.425 673.195, 525.544 675.235, 524.573 675.955, 524.230 675.965, 524.225 676.174, 524.125 677.242, 523.616 677.424, 523.530 677.468, 523.509 677.750, 523.375 678.652, 522.945 679.156, 522.705 679.390, 522.593 679.617, 522.485 680.096, 522.257 680.096, 522.257 681.016, 521.819 681.230, 521.717 682.179, 521.265 682.424, 521.148 685.236, 519.809 685.389, 519.736 694.417, 515.435 698.796, 513.349 700.055, 512.749 701.079, 512.261 701.079, 512.261 702.318, 511.671 704.678, 510.547 705.025, 510.381 706.505, 509.676 707.446, 509.228 712.343, 506.895 713.094, 506.538 713.329, 506.426 713.419, 506.383 720.115, 503.193 724.987, 500.872 725.356, 500.696 725.412, 500.669 728.773, 499.068 730.217, 498.380 730.504, 498.244 731.173, 497.925 731.175, 497.924 731.487, 497.775 731.819, 497.617 733.160, 496.978 734.780, 496.207 736.300, 495.482 737.348, 494.983 738.560, 494.406 743.536, 492.035 745.978, 490.872 746.144, 490.793 746.149, 490.791 746.405, 490.669 746.854, 490.455 747.308, 490.238 756.386, 485.914 756.909, 485.665 758.208, 485.046 767.236, 480.745 774.543, 477.265 776.460, 476.351 777.092, 476.050 780.266, 474.538 782.283, 473.577 782.657, 473.399 782.891, 473.288 783.503, 472.996 783.549, 472.974 787.694, 471.000 787.802, 470.948 791.609, 469.134 797.285, 466.431 799.127, 465.690 799.395, 465.583 800.495, 465.141 802.009, 464.532 802.489, 464.339 810.713, 461.035 811.250, 460.819 811.389, 460.763 820.668, 457.034 828.329, 453.955 828.798, 453.767 829.715, 453.398 832.484, 452.285 833.105, 452.036 835.169, 451.206 836.896, 450.512 846.175, 446.783 855.454, 443.055 859.835, 441.294 860.448, 441.048 863.055, 440.000 863.209, 439.938 868.168, 437.945 869.520, 437.402 870.720, 436.920 877.842, 434.058 887.121, 430.329 890.182, 429.099 899.683, 425.979 909.184, 422.860 918.685, 419.740 926.645, 417.127 930.485, 415.866 930.722, 415.788 931.007, 415.695 932.206, 415.301 933.034, 415.029 934.564, 414.527 939.028, 413.061 948.529, 409.942 958.030, 406.822 958.566, 406.646 968.286, 404.298 978.006, 401.949 987.727, 399.601 997.447, 397.252 1000.427, 396.532 1010.148, 394.184 1019.868, 391.835 1021.410, 391.462 1031.410, 391.568 1041.409, 391.673 1047.923, 391.742 " />
            <path fill="none" stroke-width="3.0" stroke-linecap="butt" stroke-opacity="1.0" stroke="rgb(255, 255, 255)" stroke-linejoin="round" d=" M 55.196, 373.260 64.486, 369.558 73.775, 365.855 83.064, 362.153 90.558, 359.165 100.140, 356.303 109.721, 353.440 119.303, 350.578 128.885, 347.715 138.466, 344.853 148.048, 341.990 158.197, 338.958 168.001, 336.983 177.804, 335.009 187.607, 333.035 197.410, 331.060 207.213, 329.086 217.016, 327.112 226.820, 325.137 236.623, 323.163 240.401, 322.402 250.292, 320.931 260.183, 319.460 270.074, 317.990 279.966, 316.519 289.857, 315.048 299.748, 313.577 309.639, 312.106 319.531, 310.635 329.422, 309.165 339.313, 307.694 349.204, 306.223 353.564, 305.575 363.523, 304.665 373.481, 303.756 382.622, 302.921 " />
            <path fill="none" stroke-width="3.0" stroke-linecap="butt" stroke-opacity="1.0" stroke="rgb(255, 255, 255)" stroke-linejoin="round" d=" M 524.648, 291.536 514.651, 291.768 509.839, 291.879 499.859, 292.505 494.259, 292.856 484.279, 293.482 474.299, 294.108 464.318, 294.734 454.338, 295.360 444.357, 295.986 438.226, 296.370 " />
            <path fill="none" stroke-width="3.0" stroke-linecap="butt" stroke-opacity="1.0" stroke="rgb(255, 255, 255)" stroke-linejoin="round" d=" M -70.017, 441.573 -61.384, 436.525 -52.752, 431.477 -44.120, 426.429 -35.487, 421.381 -26.855, 416.333 -18.223, 411.284 -9.590, 406.236 -0.958, 401.188 4.868, 397.781 13.691, 393.076 22.515, 388.371 31.339, 383.665 40.163, 378.960 48.986, 374.254 54.824, 371.142 64.104, 367.416 73.384, 363.690 82.664, 359.964 90.217, 356.932 99.802, 354.080 109.387, 351.229 118.972, 348.377 128.557, 345.526 138.141, 342.674 147.726, 339.822 157.923, 336.789 167.729, 334.827 177.534, 332.866 187.340, 330.904 197.146, 328.943 206.952, 326.981 216.757, 325.020 226.563, 323.058 236.369, 321.097 240.202, 320.330 250.097, 318.885 259.992, 317.440 269.887, 315.994 279.782, 314.549 289.677, 313.104 299.572, 311.659 309.467, 310.213 319.362, 308.768 329.257, 307.323 339.152, 305.878 349.047, 304.432 353.465, 303.787 363.427, 302.915 373.389, 302.044 383.351, 301.172 393.313, 300.300 403.275, 299.428 413.237, 298.557 423.199, 297.685 433.161, 296.813 438.226, 296.370 " />
            <path fill="none" stroke-width="3.0" stroke-linecap="butt" stroke-opacity="1.0" stroke="rgb(255, 255, 255)" stroke-linejoin="round" d=" M 494.259, 292.856 484.274, 293.392 474.288, 293.928 464.303, 294.464 454.317, 295.000 444.331, 295.536 435.225, 296.024 425.260, 296.866 415.296, 297.707 405.331, 298.548 395.367, 299.389 385.402, 300.230 375.437, 301.072 365.473, 301.913 355.508, 302.754 350.617, 303.167 340.719, 304.591 330.821, 306.016 320.923, 307.440 311.025, 308.864 301.127, 310.289 291.229, 311.713 281.331, 313.137 271.432, 314.562 261.534, 315.986 251.636, 317.410 241.738, 318.835 237.933, 319.382 228.126, 321.335 218.318, 323.288 208.511, 325.241 198.703, 327.194 188.896, 329.147 179.088, 331.100 169.281, 333.053 159.474, 335.006 156.690, 335.560 147.104, 338.409 137.518, 341.257 127.933, 344.105 118.347, 346.954 108.761, 349.802 99.175, 352.651 90.074, 355.355 80.831, 359.170 71.587, 362.985 62.343, 366.800 56.140, 369.361 47.313, 374.061 38.487, 378.761 29.660, 383.461 20.834, 388.162 12.007, 392.862 6.109, 396.003 -2.534, 401.033 -11.176, 406.064 -19.819, 411.095 -28.461, 416.125 -37.104, 421.156 -45.746, 426.187 -54.389, 431.217 -63.031, 436.248 -68.534, 439.451 " />
            <path fill="none" stroke-width="3.0" stroke-linecap="butt" stroke-opacity="1.0" stroke="rgb(255, 255, 255)" stroke-linejoin="round" d=" M 724.405, 295.239 717.836, 294.811 711.150, 294.375 701.171, 293.724 691.192, 293.073 682.883, 292.531 682.857, 292.530 682.684, 292.523 674.460, 292.186 664.464, 291.880 654.469, 291.574 644.474, 291.268 634.478, 290.962 624.483, 290.657 614.488, 290.351 604.492, 290.045 599.076, 289.879 589.078, 290.074 580.919, 290.232 580.566, 290.239 570.568, 290.433 560.569, 290.628 550.571, 290.822 540.573, 291.016 530.575, 291.210 528.911, 291.243 524.648, 291.536 514.671, 292.221 504.695, 292.907 494.718, 293.592 484.742, 294.278 474.765, 294.963 464.789, 295.649 457.213, 296.169 447.251, 297.040 438.758, 297.783 428.800, 298.694 418.842, 299.606 408.883, 300.518 398.925, 301.429 388.967, 302.341 382.622, 302.921 372.663, 303.833 362.705, 304.744 354.001, 305.541 " />
            <path fill="none" stroke-width="3.0" stroke-linecap="butt" stroke-opacity="1.0" stroke="rgb(255, 255, 255)" stroke-linejoin="round" d=" M 580.919, 290.232 580.900, 290.231 580.566, 290.239 " />
            <path fill="none" stroke-width="3.0" stroke-linecap="butt" stroke-opacity="1.0" stroke="rgb(255, 255, 255)" stroke-linejoin="round" d=" M 27.000, 425.803 27.034, 425.995 27.117, 426.457 27.434, 428.240 " />
            <path fill="none" stroke-width="3.0" stroke-linecap="butt" stroke-opacity="1.0" stroke="rgb(255, 255, 255)" stroke-linejoin="round" d=" M 759.797, 298.785 769.746, 299.800 779.694, 300.815 780.247, 300.871 790.106, 302.545 799.965, 304.218 801.466, 304.473 811.325, 306.147 817.513, 307.197 819.866, 307.597 829.725, 309.270 839.583, 310.944 843.906, 311.678 853.709, 313.651 863.512, 315.625 873.316, 317.599 883.119, 319.573 892.922, 321.547 902.725, 323.520 907.844, 324.551 917.576, 326.850 927.308, 329.148 937.041, 331.447 946.773, 333.745 956.505, 336.044 966.237, 338.342 975.970, 340.641 979.101, 341.381 988.654, 344.337 998.207, 347.293 1007.760, 350.250 1016.429, 352.932 " />
            <path fill="none" stroke-width="3.0" stroke-linecap="butt" stroke-opacity="1.0" stroke="rgb(255, 255, 255)" stroke-linejoin="round" d=" M 1025.208, 352.967 1021.233, 352.836 1021.103, 352.831 1021.085, 352.898 " />
            <path fill="none" stroke-width="3.0" stroke-linecap="butt" stroke-opacity="1.0" stroke="rgb(255, 255, 255)" stroke-linejoin="round" d=" M 1021.103, 352.831 1025.411, 353.789 " />
            <path fill="none" stroke-width="3.0" stroke-linecap="butt" stroke-opacity="1.0" stroke="rgb(255, 255, 255)" stroke-linejoin="round" d=" M 1041.292, 349.853 1031.849, 346.561 1022.407, 343.269 1016.008, 341.039 1006.349, 338.449 996.690, 335.859 987.031, 333.269 977.373, 330.680 967.714, 328.090 958.055, 325.500 955.174, 324.728 945.365, 322.786 935.555, 320.845 925.745, 318.903 915.935, 316.961 906.126, 315.020 897.783, 313.369 887.906, 311.802 878.030, 310.235 868.153, 308.668 858.277, 307.102 848.400, 305.535 838.524, 303.968 837.923, 303.873 827.977, 302.833 818.031, 301.793 808.085, 300.753 798.140, 299.713 788.194, 298.673 781.795, 298.004 771.819, 297.311 761.843, 296.618 758.376, 296.377 " />
            <path fill="none" stroke-width="3.0" stroke-linecap="butt" stroke-opacity="1.0" stroke="rgb(255, 255, 255)" stroke-linejoin="round" d=" M 724.961, 294.634 723.893, 294.578 717.989, 294.264 708.002, 293.767 698.014, 293.269 688.026, 292.772 683.500, 292.546 683.340, 292.538 682.857, 292.530 " />
            <path fill="none" stroke-width="3.0" stroke-linecap="butt" stroke-opacity="1.0" stroke="rgb(255, 255, 255)" stroke-linejoin="round" d=" M 683.340, 292.538 693.318, 293.189 703.297, 293.840 711.612, 294.382 718.318, 294.820 724.425, 295.218 " />
            <path fill="none" stroke-width="3.0" stroke-linecap="butt" stroke-opacity="1.0" stroke="rgb(255, 255, 255)" stroke-linejoin="round" d=" M 1005.947, 413.522 1006.857, 413.326 1009.564, 412.740 1016.144, 411.318 1025.351, 410.121 " />
            <path fill="none" stroke-width="3.0" stroke-linecap="butt" stroke-opacity="1.0" stroke="rgb(255, 255, 255)" stroke-linejoin="round" d=" M 1005.478, 413.763 1005.905, 413.815 1006.814, 413.618 1009.519, 413.033 1016.112, 411.606 1025.319, 410.411 " />
            <path fill="none" stroke-width="3.0" stroke-linecap="butt" stroke-opacity="1.0" stroke="rgb(255, 255, 255)" stroke-linejoin="round" d=" M 990.485, 400.119 991.953, 400.623 993.670, 401.379 994.570, 401.964 995.623, 403.032 997.795, 405.232 1000.238, 407.709 1000.459, 407.933 1001.288, 408.776 1002.989, 410.506 1003.482, 411.009 1004.960, 412.515 1005.947, 413.522 1005.905, 413.815 " />
            <path fill="none" stroke-width="3.0" stroke-linecap="butt" stroke-opacity="1.0" stroke="rgb(255, 255, 255)" stroke-linejoin="round" d=" M 1024.187, 394.017 1016.762, 394.774 1008.944, 395.954 1000.506, 397.645 " />
            <path fill="none" stroke-width="3.0" stroke-linecap="butt" stroke-opacity="1.0" stroke="rgb(255, 255, 255)" stroke-linejoin="round" d=" M 795.362, 496.577 796.542, 496.005 796.576, 495.989 797.292, 495.642 797.687, 495.451 797.774, 495.409 797.868, 495.363 799.389, 494.627 803.017, 492.871 810.280, 489.466 812.153, 488.588 814.185, 487.636 814.696, 487.396 816.949, 486.340 816.989, 486.321 818.479, 485.622 818.535, 485.596 820.529, 484.661 822.196, 483.879 822.963, 483.520 832.027, 479.296 834.871, 477.971 834.915, 477.950 835.013, 477.904 844.077, 473.680 853.142, 469.456 853.506, 469.287 853.617, 469.235 853.733, 469.181 853.738, 469.178 855.449, 468.381 855.483, 468.365 864.547, 464.141 867.515, 462.758 867.755, 462.646 868.226, 462.446 870.276, 461.575 879.480, 457.664 884.853, 455.380 886.145, 454.831 886.159, 454.825 886.555, 454.657 886.842, 454.535 886.917, 454.504 886.956, 454.487 887.062, 454.442 888.292, 453.919 888.700, 453.746 889.129, 453.563 889.281, 453.499 892.052, 452.321 895.588, 450.819 895.737, 450.755 898.816, 449.447 900.327, 448.805 900.890, 448.566 901.144, 448.458 907.450, 445.778 907.585, 445.720 909.035, 445.104 909.832, 444.766 910.339, 444.550 913.348, 443.272 913.992, 442.998 914.335, 442.852 914.978, 442.579 915.874, 442.198 916.020, 442.136 916.240, 442.042 916.327, 442.006 916.380, 441.983 916.694, 441.850 922.787, 439.260 924.694, 438.450 934.161, 435.229 943.629, 432.009 953.096, 428.789 961.355, 425.980 962.448, 425.608 965.263, 424.650 965.425, 424.595 965.588, 424.540 967.023, 424.052 969.253, 423.293 969.495, 423.226 970.135, 423.050 974.240, 421.917 981.714, 419.854 982.947, 419.514 983.812, 419.275 985.726, 418.746 987.014, 418.391 987.201, 418.339 987.736, 418.192 992.965, 416.748 995.178, 416.138 996.094, 415.885 998.988, 415.086 999.970, 414.815 1001.816, 414.416 1001.856, 414.407 1004.340, 413.870 1004.584, 413.817 1005.069, 413.712 1005.499, 413.619 " />
            <path fill="none" stroke-width="3.0" stroke-linecap="butt" stroke-opacity="1.0" stroke="rgb(255, 255, 255)" stroke-linejoin="round" d=" M 794.361, 496.882 794.624, 496.941 795.080, 497.044 796.436, 496.387 797.011, 496.109 797.599, 495.824 797.668, 495.791 797.773, 495.740 798.946, 495.171 799.375, 494.964 800.615, 494.363 802.738, 493.334 810.345, 489.765 812.569, 488.721 814.605, 487.766 815.111, 487.528 816.812, 486.730 817.054, 486.617 818.398, 485.986 818.406, 485.982 819.753, 485.350 820.945, 484.790 822.261, 484.173 822.692, 483.970 831.755, 479.743 834.748, 478.347 834.793, 478.326 834.886, 478.282 843.949, 474.055 853.011, 469.828 853.687, 469.513 853.692, 469.511 853.751, 469.483 853.908, 469.410 854.020, 469.358 855.402, 468.713 855.437, 468.696 864.500, 464.469 867.517, 463.062 867.937, 462.883 868.661, 462.575 870.711, 461.703 872.473, 460.953 881.675, 457.039 884.997, 455.626 886.265, 455.087 886.293, 455.075 886.632, 454.931 886.701, 454.901 886.962, 454.790 887.002, 454.774 887.036, 454.759 887.075, 454.742 887.182, 454.697 887.543, 454.543 888.423, 454.169 888.819, 454.000 889.248, 453.818 889.400, 453.753 892.122, 452.595 892.614, 452.386 895.658, 451.092 895.807, 451.028 898.586, 449.846 898.720, 449.789 900.762, 448.920 901.323, 448.682 901.579, 448.573 902.139, 448.334 907.257, 446.158 907.392, 446.100 909.465, 445.218 910.271, 444.875 910.770, 444.663 913.502, 443.501 914.143, 443.228 914.296, 443.163 914.492, 443.080 915.130, 442.809 916.024, 442.428 916.172, 442.366 916.391, 442.272 916.393, 442.271 916.478, 442.235 916.530, 442.213 916.713, 442.135 916.845, 442.079 923.217, 439.368 924.522, 438.814 933.988, 435.590 943.454, 432.366 952.920, 429.143 961.843, 426.104 962.636, 425.834 965.750, 424.773 965.906, 424.720 966.067, 424.666 967.509, 424.175 968.203, 423.938 969.153, 423.615 970.048, 423.367 970.209, 423.323 974.787, 422.057 981.310, 420.254 981.786, 420.123 983.013, 419.784 983.885, 419.543 984.360, 419.411 985.362, 419.134 985.899, 418.986 987.087, 418.658 987.379, 418.577 987.914, 418.429 993.083, 417.000 993.846, 416.789 995.341, 416.376 996.261, 416.122 997.893, 415.671 999.151, 415.323 999.922, 415.110 1001.777, 414.708 1002.051, 414.649 1004.542, 414.110 1004.546, 414.109 1005.457, 413.912 1005.458, 413.903 1005.478, 413.763 1005.499, 413.619 1004.511, 412.613 1003.002, 411.079 1002.539, 410.608 1001.331, 409.382 1000.007, 408.039 999.797, 407.826 997.342, 405.343 995.168, 403.146 994.114, 402.080 993.213, 401.494 991.495, 400.738 990.399, 400.361 " />
            <path fill="none" stroke-width="3.0" stroke-linecap="butt" stroke-opacity="1.0" stroke="rgb(255, 255, 255)" stroke-linejoin="round" d=" M 785.217, 473.949 786.566, 474.739 786.769, 474.858 788.462, 476.193 789.209, 477.203 789.781, 478.988 790.021, 479.741 790.213, 480.343 790.709, 481.896 790.952, 482.658 790.994, 482.788 792.094, 486.244 792.291, 486.863 792.390, 487.175 792.413, 487.248 793.756, 491.494 794.435, 493.646 794.823, 494.876 795.231, 496.164 795.275, 496.303 795.320, 496.446 795.356, 496.559 795.362, 496.577 795.080, 497.044 " />
            <path fill="none" stroke-width="3.0" stroke-linecap="butt" stroke-opacity="1.0" stroke="rgb(255, 255, 255)" stroke-linejoin="round" d=" M 986.243, 401.173 984.839, 401.523 975.178, 404.107 965.518, 406.690 955.614, 409.339 946.069, 412.320 941.625, 413.708 937.057, 415.134 935.499, 415.621 934.628, 415.893 933.372, 416.285 933.114, 416.366 932.823, 416.457 928.864, 417.693 919.319, 420.674 912.844, 422.696 903.489, 426.231 894.135, 429.766 885.966, 432.852 876.611, 436.387 874.980, 437.004 873.678, 437.496 872.916, 437.783 863.562, 441.318 861.139, 442.234 861.006, 442.284 859.055, 443.021 859.018, 443.035 858.908, 443.077 857.107, 443.757 847.870, 447.591 839.202, 451.189 837.497, 451.896 835.471, 452.737 834.774, 453.027 829.094, 455.384 828.038, 455.822 827.550, 456.025 818.314, 459.858 812.755, 462.166 810.806, 462.985 810.618, 463.064 810.110, 463.277 810.079, 463.290 809.260, 463.634 805.670, 465.143 802.446, 466.497 795.968, 469.219 792.852, 470.529 790.119, 471.753 790.003, 471.805 787.142, 473.087 785.217, 473.949 784.879, 474.208 784.904, 474.286 785.082, 474.852 " />
            <path fill="none" stroke-width="3.0" stroke-linecap="butt" stroke-opacity="1.0" stroke="rgb(255, 255, 255)" stroke-linejoin="round" d=" M 381.963, 774.963 388.890, 767.751 392.927, 763.547 400.347, 756.843 407.766, 750.138 412.129, 746.195 419.548, 739.491 420.927, 738.245 428.346, 731.540 435.766, 724.835 442.881, 718.405 444.632, 716.823 450.473, 712.211 458.322, 706.015 460.108, 704.604 461.477, 703.524 461.872, 703.211 469.721, 697.015 477.570, 690.818 485.418, 684.621 486.497, 683.770 494.346, 677.573 495.146, 676.941 503.217, 671.037 511.289, 665.134 513.255, 663.695 513.262, 663.690 514.169, 663.027 517.016, 660.945 517.067, 660.907 517.148, 660.848 517.158, 660.840 517.210, 660.803 517.249, 660.774 517.374, 660.683 517.497, 660.593 517.632, 660.494 517.748, 660.409 518.119, 660.138 518.188, 660.087 518.634, 659.761 518.669, 659.735 518.694, 659.717 518.697, 659.715 518.732, 659.689 518.740, 659.683 518.745, 659.680 518.900, 659.566 518.946, 659.533 518.970, 659.515 519.308, 659.268 519.319, 659.260 519.327, 659.254 519.329, 659.253 519.331, 659.251 519.393, 659.206 519.410, 659.194 519.588, 659.063 519.911, 658.827 519.921, 658.820 519.966, 658.787 520.327, 658.523 520.667, 658.274 520.878, 658.120 520.887, 658.113 520.939, 658.075 521.261, 657.839 522.327, 657.060 522.548, 656.898 530.619, 650.994 535.487, 647.434 539.407, 644.567 540.544, 643.735 542.868, 642.035 544.677, 640.712 546.597, 639.307 546.905, 639.082 549.133, 637.453 549.330, 637.309 549.418, 637.250 551.344, 635.964 551.344, 635.964 552.027, 635.509 559.866, 630.276 561.095, 629.456 561.370, 629.272 562.042, 628.824 562.816, 628.307 563.120, 628.104 563.121, 628.103 563.129, 628.098 567.830, 624.961 568.135, 624.757 568.154, 624.744 568.865, 624.270 569.436, 623.889 569.436, 623.888 569.632, 623.758 570.418, 623.233 570.833, 622.956 570.938, 622.887 571.205, 622.708 573.616, 621.099 574.071, 620.795 574.631, 620.422 577.565, 618.463 577.565, 618.463 578.457, 617.868 579.247, 617.341 581.049, 616.138 583.809, 614.295 584.982, 613.513 588.751, 610.997 591.199, 609.363 594.279, 607.307 595.276, 606.642 596.064, 606.116 596.149, 606.059 596.782, 605.637 597.953, 604.855 598.107, 604.752 600.056, 603.452 600.709, 603.015 604.968, 600.173 606.140, 599.474 606.217, 599.428 609.047, 597.740 609.052, 597.737 610.584, 596.822 610.592, 596.818 610.722, 596.740 617.394, 592.760 617.938, 592.435 618.933, 591.841 619.383, 591.573 620.663, 590.809 620.718, 590.776 621.099, 590.549 621.447, 590.341 621.936, 590.050 622.551, 589.683 623.424, 589.162 625.201, 588.102 626.586, 587.275 626.670, 587.225 628.038, 586.410 629.400, 585.596 631.446, 584.376 632.764, 583.590 634.201, 582.732 634.339, 582.650 634.382, 582.624 635.554, 581.925 635.718, 581.827 637.000, 581.062 638.271, 580.304 639.949, 579.303 641.241, 578.532 642.053, 578.048 642.304, 577.898 642.734, 577.642 642.809, 577.597 643.171, 577.381 643.848, 576.977 644.878, 576.362 645.067, 576.250 646.118, 575.623 646.222, 575.561 646.525, 575.380 646.973, 575.112 647.277, 574.931 648.536, 574.180 649.374, 573.680 650.491, 573.014 650.857, 572.796 651.971, 572.131 652.712, 571.688 654.474, 570.637 655.178, 570.218 655.546, 569.998 660.264, 567.183 662.844, 565.764 663.274, 565.527 663.880, 565.194 664.209, 565.013 664.848, 564.662 667.160, 563.390 667.408, 563.253 667.645, 563.123 667.646, 563.122 667.647, 563.122 673.866, 559.701 682.628, 554.881 684.632, 553.779 685.932, 553.064 694.693, 548.245 695.789, 547.642 699.381, 545.666 708.143, 540.847 709.944, 539.856 710.567, 539.513 711.249, 539.138 713.005, 538.229 713.613, 537.914 713.888, 537.772 716.622, 536.356 725.502, 531.758 725.596, 531.710 726.550, 531.216 726.845, 531.063 727.045, 530.959 728.938, 529.979 728.943, 529.977 730.298, 529.275 732.940, 527.907 741.820, 523.310 747.119, 520.566 749.687, 519.237 751.365, 518.368 752.049, 518.014 752.547, 517.756 755.707, 516.120 755.811, 516.069 755.871, 516.040 757.037, 515.476 757.308, 515.344 757.605, 515.200 758.047, 514.986 758.669, 514.685 759.972, 514.054 768.971, 509.694 777.551, 505.537 778.218, 505.214 779.503, 504.591 781.379, 503.682 781.573, 503.589 786.271, 501.313 789.809, 499.599 791.876, 498.597 792.181, 498.449 792.863, 498.119 793.947, 497.594 794.129, 497.506 794.396, 497.060 794.410, 497.037 794.361, 496.882 794.353, 496.856 794.277, 496.617 794.258, 496.556 793.872, 495.334 793.462, 494.033 792.805, 491.947 791.515, 487.859 791.440, 487.622 791.316, 487.233 791.190, 486.836 790.997, 486.228 790.034, 483.194 790.003, 483.098 789.507, 481.540 789.011, 479.986 788.832, 479.423 788.821, 479.389 788.261, 477.635 787.513, 476.623 785.820, 475.285 785.082, 474.852 784.268, 474.374 782.326, 475.244 779.540, 476.492 779.204, 476.642 778.538, 476.940 776.560, 477.826 776.434, 477.883 767.307, 481.971 760.886, 484.848 759.422, 485.503 758.825, 485.771 749.699, 489.859 746.458, 491.310 745.429, 491.771 745.395, 491.788 741.861, 493.531 741.296, 493.809 740.385, 494.258 736.716, 496.067 735.805, 496.516 732.773, 498.011 732.449, 498.171 730.880, 498.944 730.148, 499.305 727.585, 500.569 727.545, 500.589 727.229, 500.745 724.372, 502.154 715.403, 506.576 715.293, 506.630 715.196, 506.678 714.978, 506.785 714.235, 507.151 709.479, 509.497 708.692, 509.885 707.077, 510.681 706.782, 510.826 704.620, 511.892 703.305, 512.541 703.305, 512.541 700.175, 514.084 699.458, 514.461 698.172, 515.136 689.320, 519.787 687.158, 520.923 686.676, 521.176 684.064, 522.549 683.993, 522.586 682.602, 523.317 682.602, 523.317 682.560, 523.339 682.418, 523.413 681.937, 523.666 681.459, 523.917 680.960, 524.180 680.569, 524.385 680.412, 524.468 680.282, 524.536 680.219, 524.569 680.212, 524.573 679.535, 524.928 678.848, 525.289 678.825, 525.301 678.199, 525.630 676.391, 526.580 672.106, 528.831 663.254, 533.483 661.604, 534.349 661.206, 534.558 660.878, 534.730 659.512, 535.448 659.190, 535.617 658.752, 535.848 654.015, 538.337 652.965, 538.888 652.189, 539.296 651.630, 539.589 648.868, 541.041 648.338, 541.342 647.088, 542.053 646.633, 542.311 646.157, 542.582 645.917, 542.718 645.770, 542.802 645.766, 542.804 645.417, 543.003 644.505, 543.521 644.367, 543.600 643.270, 544.223 642.039, 544.923 641.210, 545.394 640.499, 545.798 640.420, 545.843 639.965, 546.102 639.712, 546.246 639.446, 546.397 639.371, 546.440 639.307, 546.476 639.159, 546.560 638.266, 547.068 638.264, 547.069 638.091, 547.167 637.372, 547.576 636.091, 548.304 635.230, 548.794 635.057, 548.892 633.847, 549.580 633.631, 549.703 633.531, 549.759 633.200, 549.948 633.124, 549.991 632.416, 550.394 631.987, 550.637 631.911, 550.681 630.971, 551.215 630.383, 551.549 629.813, 551.873 629.144, 552.254 628.290, 552.739 628.002, 552.903 627.057, 553.440 626.734, 553.624 622.110, 556.252 621.193, 556.773 617.858, 558.669 617.843, 558.678 609.150, 563.620 607.807, 564.383 607.324, 564.658 607.243, 564.704 606.549, 565.099 606.215, 565.288 605.926, 565.453 605.881, 565.478 605.575, 565.652 605.566, 565.657 605.532, 565.677 605.532, 565.677 605.129, 565.906 603.406, 566.885 603.406, 566.885 596.928, 570.568 594.498, 571.949 594.498, 571.949 594.490, 571.954 593.818, 572.336 593.759, 572.370 593.388, 572.581 593.316, 572.622 593.310, 572.625 593.000, 572.820 592.999, 572.820 592.161, 573.348 592.161, 573.348 589.048, 575.310 585.123, 577.783 582.622, 579.358 582.622, 579.358 574.950, 584.191 574.240, 584.639 573.488, 585.112 573.229, 585.275 573.229, 585.276 572.613, 585.664 572.349, 585.830 572.328, 585.843 572.317, 585.850 572.316, 585.850 572.315, 585.851 572.312, 585.853 572.241, 585.898 570.250, 587.152 570.128, 587.229 570.128, 587.229 569.151, 587.844 568.675, 588.144 568.449, 588.286 567.717, 588.748 567.656, 588.786 567.032, 589.179 566.684, 589.399 566.474, 589.531 566.146, 589.737 565.897, 589.894 565.559, 590.108 564.865, 590.545 564.722, 590.635 564.205, 590.960 563.784, 591.225 563.570, 591.360 563.366, 591.489 563.312, 591.523 563.135, 591.634 562.811, 591.838 562.807, 591.841 562.807, 591.841 562.807, 591.841 562.721, 591.895 562.324, 592.146 561.860, 592.437 561.860, 592.437 560.760, 593.130 560.142, 593.520 560.035, 593.587 559.471, 593.943 559.471, 593.943 559.379, 594.001 558.618, 594.480 558.614, 594.482 558.595, 594.495 558.576, 594.507 558.575, 594.507 558.223, 594.729 556.738, 595.664 556.711, 595.681 556.194, 596.007 556.041, 596.104 555.522, 596.430 554.207, 597.259 554.127, 597.309 552.674, 598.224 551.981, 598.661 551.969, 598.669 551.861, 598.737 550.544, 599.566 550.321, 599.707 549.967, 599.930 549.966, 599.931 549.721, 600.085 549.721, 600.085 549.452, 600.255 549.306, 600.346 548.936, 600.580 548.922, 600.589 548.867, 600.623 548.508, 600.849 548.341, 600.954 547.802, 601.294 547.183, 601.684 546.771, 601.944 545.709, 602.613 545.655, 602.646 545.655, 602.646 545.203, 602.931 544.425, 603.422 544.271, 603.519 543.107, 604.251 540.566, 605.853 538.105, 607.403 536.701, 608.287 535.987, 608.782 527.767, 614.477 522.135, 618.378 521.914, 618.532 521.287, 618.966 520.827, 619.285 520.079, 619.803 519.410, 620.267 514.065, 623.969 513.607, 624.287 512.710, 624.908 512.710, 624.908 512.588, 624.993 512.366, 625.147 512.130, 625.310 512.035, 625.376 510.768, 626.254 510.745, 626.270 510.277, 626.593 510.277, 626.593 509.967, 626.808 509.673, 627.012 509.430, 627.180 509.254, 627.302 508.617, 627.744 507.373, 628.605 505.815, 629.685 505.599, 629.834 504.175, 630.821 504.172, 630.823 504.148, 630.840 504.048, 630.909 502.743, 631.813 502.650, 631.878 502.578, 631.927 501.223, 632.866 501.209, 632.876 500.099, 633.645 499.710, 633.914 499.020, 634.392 498.722, 634.599 498.628, 634.664 498.593, 634.688 497.769, 635.259 497.614, 635.367 497.592, 635.382 497.557, 635.406 497.430, 635.494 497.118, 635.710 496.477, 636.154 496.191, 636.352 496.127, 636.397 496.105, 636.412 496.076, 636.432 496.018, 636.472 494.793, 637.321 494.498, 637.526 494.219, 637.718 492.190, 639.124 485.374, 643.846 484.693, 644.318 484.473, 644.471 482.425, 645.889 480.281, 647.375 473.500, 652.525 465.536, 658.573 461.765, 661.438 453.801, 667.486 445.838, 673.534 437.874, 679.583 429.911, 685.631 425.680, 688.844 423.747, 690.524 419.672, 694.065 419.285, 694.401 411.737, 700.961 404.189, 707.520 396.641, 714.079 389.092, 720.639 381.544, 727.198 373.996, 733.757 369.592, 737.585 364.220, 742.962 363.405, 743.778 359.731, 747.455 358.200, 748.988 353.991, 753.202 353.349, 753.844 352.511, 754.683 351.575, 755.620 351.572, 755.623 345.895, 761.306 341.494, 765.712 341.078, 766.127 334.011, 773.202 329.225, 777.993 " />
            <path fill="none" stroke-width="3.0" stroke-linecap="butt" stroke-opacity="1.0" stroke="rgb(255, 255, 255)" stroke-linejoin="round" d=" M 794.410, 497.037 792.463, 497.980 791.822, 498.290 791.620, 498.387 786.554, 500.839 783.456, 502.339 781.519, 503.276 780.246, 503.892 779.449, 504.278 770.448, 508.635 761.447, 512.992 758.622, 514.359 757.111, 515.090 756.814, 515.234 756.555, 515.360 755.981, 515.637 751.578, 517.915 749.241, 519.124 747.079, 520.242 738.197, 524.836 732.267, 527.903 729.623, 529.270 728.222, 529.995 726.475, 530.899 726.015, 531.137 725.023, 531.650 716.248, 536.189 713.702, 537.506 713.146, 537.793 712.798, 537.973 711.497, 538.646 710.385, 539.257 701.621, 544.074 699.227, 545.389 695.649, 547.355 686.885, 552.172 686.091, 552.609 684.791, 553.323 676.027, 558.139 673.873, 559.323 667.585, 562.779 667.584, 562.779 667.583, 562.780 667.347, 562.909 667.098, 563.046 664.725, 564.350 664.079, 564.705 663.734, 564.895 663.003, 565.297 662.492, 565.577 660.494, 566.676 655.575, 569.608 654.848, 570.042 654.380, 570.321 652.379, 571.514 649.900, 572.991 648.785, 573.656 647.143, 574.635 646.695, 574.902 646.392, 575.083 646.200, 575.197 645.093, 575.857 644.964, 575.934 643.880, 576.580 642.850, 577.194 642.405, 577.460 641.834, 577.800 638.371, 579.865 637.118, 580.612 635.674, 581.472 634.321, 582.279 629.546, 585.126 628.184, 585.938 626.760, 586.787 625.369, 587.616 622.748, 589.179 621.290, 590.048 621.092, 590.166 620.367, 590.598 620.311, 590.631 619.140, 591.329 617.616, 592.238 609.026, 597.359 606.504, 598.863 606.443, 598.899 605.177, 599.654 601.083, 602.385 599.748, 603.275 598.007, 604.437 597.813, 604.566 597.266, 604.931 596.659, 605.336 595.829, 605.890 593.986, 607.120 591.950, 608.478 591.950, 608.478 588.805, 610.576 585.701, 612.647 584.523, 613.433 580.747, 615.952 580.205, 616.313 579.537, 616.759 578.656, 617.346 578.656, 617.347 574.335, 620.229 573.776, 620.602 573.318, 620.907 573.293, 620.924 573.267, 620.942 570.059, 623.082 570.059, 623.082 569.741, 623.294 568.807, 623.917 568.807, 623.917 568.229, 624.302 567.523, 624.773 567.335, 624.899 567.039, 625.096 567.039, 625.096 563.205, 627.654 562.632, 628.036 562.632, 628.037 560.081, 629.738 559.750, 629.959 557.381, 631.539 550.793, 635.934 550.106, 636.393 550.106, 636.393 549.495, 636.801 549.150, 637.053 548.105, 637.817 546.153, 639.245 545.740, 639.546 544.560, 640.409 542.660, 641.799 540.431, 643.429 539.281, 644.270 531.209, 650.173 523.137, 656.076 522.316, 656.677 520.983, 657.651 520.733, 657.834 520.655, 657.891 519.640, 658.633 519.566, 658.687 519.559, 658.693 519.310, 658.875 519.181, 658.969 519.139, 659.000 519.093, 659.033 518.625, 659.376 518.515, 659.456 518.487, 659.477 518.480, 659.481 518.475, 659.485 518.419, 659.526 518.379, 659.556 517.863, 659.933 517.541, 660.168 517.339, 660.316 516.966, 660.589 516.924, 660.619 516.794, 660.714 516.780, 660.724 514.171, 662.633 513.343, 663.238 513.261, 663.298 505.189, 669.201 497.118, 675.104 495.224, 676.488 487.376, 682.685 486.266, 683.561 478.418, 689.758 470.569, 695.955 462.721, 702.152 462.037, 702.692 461.642, 703.004 460.273, 704.084 452.425, 710.281 450.638, 711.693 444.561, 716.491 442.678, 718.192 435.258, 724.896 427.838, 731.600 420.418, 738.305 412.998, 745.009 412.251, 745.684 404.831, 752.388 397.411, 759.092 392.690, 763.358 385.762, 770.569 381.755, 774.739 " />
            <path fill="none" stroke-width="3.0" stroke-linecap="butt" stroke-opacity="1.0" stroke="rgb(255, 255, 255)" stroke-linejoin="round" d=" M 1024.126, 440.268 1023.518, 439.379 1022.119, 437.331 1019.978, 434.197 1017.057, 429.924 1012.698, 423.583 1011.907, 422.432 1008.667, 417.726 1006.946, 415.239 1006.248, 414.258 1006.083, 414.060 1005.893, 414.007 1005.508, 413.913 1005.458, 413.903 " />
            <path fill="none" stroke-width="3.0" stroke-linecap="butt" stroke-opacity="1.0" stroke="rgb(255, 255, 255)" stroke-linejoin="round" d=" M 38.823, 383.360 38.684, 383.435 37.649, 384.048 34.536, 385.889 " />
            <path fill="none" stroke-width="3.0" stroke-linecap="butt" stroke-opacity="1.0" stroke="rgb(255, 255, 255)" stroke-linejoin="round" d=" M 28.996, 410.047 29.033, 408.216 29.074, 406.156 29.666, 404.758 " />
            <path fill="none" stroke-width="3.0" stroke-linecap="butt" stroke-opacity="1.0" stroke="rgb(255, 255, 255)" stroke-linejoin="round" d=" M 170.108, 632.575 169.681, 632.255 168.870, 631.649 161.969, 624.412 155.068, 617.175 151.232, 613.152 " />
            <path fill="none" stroke-width="3.0" stroke-linecap="butt" stroke-opacity="1.0" stroke="rgb(255, 255, 255)" stroke-linejoin="round" d=" M 96.798, 556.069 95.219, 554.413 94.794, 553.968 94.268, 553.415 93.975, 553.108 90.021, 548.962 84.270, 540.781 81.817, 537.292 80.876, 535.953 80.776, 535.812 80.636, 535.613 80.537, 535.471 74.786, 527.290 70.866, 521.715 " />
            <path fill="none" stroke-width="3.0" stroke-linecap="butt" stroke-opacity="1.0" stroke="rgb(255, 255, 255)" stroke-linejoin="round" d=" M 38.328, 384.278 38.584, 383.671 38.655, 383.505 38.655, 383.505 38.684, 383.435 " />
            <path fill="none" stroke-width="3.0" stroke-linecap="butt" stroke-opacity="1.0" stroke="rgb(255, 255, 255)" stroke-linejoin="round" d=" M 724.996, 294.595 723.893, 294.578 " />
            <path fill="none" stroke-width="3.0" stroke-linecap="butt" stroke-opacity="1.0" stroke="rgb(255, 255, 255)" stroke-linejoin="round" d=" M 1017.354, 657.121 1017.355, 657.119 1017.434, 657.025 1023.856, 649.360 1025.131, 647.838 " />
        </g>
    </g>
</svg>
