<svg width="500" height="375" viewBox="0 0 500 375" fill="none" xmlns="http://www.w3.org/2000/svg">
<path d="M7 72.7901C7 72.7901 51.07 29.3801 54.13 27.5401L70.48 18.0601L100.48 5.12012" stroke="white" stroke-miterlimit="10"/>
<path d="M7 271.52L255.45 369.62L257.9 367.82L253.01 344.28C253.01 344.28 243.68 252.1 347.32 243.85C347.32 243.85 419.61 237.85 493.07 269.99" stroke="white" stroke-miterlimit="10"/>
<path d="M7 110.09C7 110.09 349.16 66.8302 399.15 65.9502C399.15 65.9502 359.25 14.0802 347.32 5.16016" stroke="white" stroke-miterlimit="10"/>
<path d="M132.47 4C132.47 4 69.87 18.68 48.07 40L7 80.36" stroke="white" stroke-miterlimit="10"/>
<path d="M147.99 5.2002C147.99 5.2002 122.99 60.7102 113.69 96.8702L105.18 102.29L89.7504 133.29C89.7504 133.29 90.3604 140.93 89.7504 143.22C89.7504 143.22 83.1704 181.44 93.2604 233.22C93.2604 233.22 96.7004 246.98 83.9704 262V267.5L83.4004 269.56L86.1504 292.72L98.8104 307.72" stroke="white" stroke-miterlimit="10"/>
<path d="M7 244C7 244 214.45 305.1 235.89 306.52C235.89 306.52 256.06 213.12 373.46 214.04C373.46 214.04 429.87 216.33 468.39 226.88" stroke="white" stroke-miterlimit="10"/>
<path d="M399.149 65.9502L406.709 75.1202C406.709 75.1202 422.989 101.72 393.179 165.47L371.629 214.07" stroke="white" stroke-miterlimit="10"/>
<path d="M257.9 367.82L260.88 365.15L262.02 361.02L269.36 352.31" stroke="white" stroke-miterlimit="10"/>
<path d="M388.88 244.55C388.88 244.55 355.27 248.74 341.06 256.55C341.06 256.55 309.95 271.55 287.48 306.55C287.48 306.55 268.9 333.01 269.36 369.73" stroke="white" stroke-miterlimit="10"/>
<path d="M289.619 370.21C290.596 364.549 292.241 359.023 294.519 353.75C315.069 306.1 382.189 289.23 444.419 316.07C462.745 323.868 479.37 335.173 493.359 349.35" stroke="white" stroke-miterlimit="10"/>
<path d="M303.179 138.95L301.239 142.74L302.239 144.57H338.529L341.619 143.31L347.129 137.69H349.879C349.879 137.69 373.149 137.69 376.129 141.13L377.619 143.88L372.809 154.78L369.369 156.5C369.369 156.5 291.369 158.79 281.429 154.89L280.629 152.83L281.999 145.6L284.529 142.6C284.529 142.6 299.859 138.03 303.179 138.95Z" stroke="white" stroke-miterlimit="10"/>
<path d="M55.5002 143.41L56.6502 143.8L51.3802 146.09L51.9102 146.93L65.2102 146.63L72.0702 143.41L74.4402 142.5L83.3802 144.71L84.2202 146.63L83.3802 152.82L81.2402 154.04C81.2402 154.04 50.5902 154.27 47.9202 153.2L46.0802 152.2L45.1602 148.28L46.4602 146.09C46.4602 146.09 51.9902 143.11 55.5002 143.41Z" stroke="white" stroke-miterlimit="10"/>
</svg>
