<svg width="500" height="375" viewBox="0 0 500 375" fill="none" xmlns="http://www.w3.org/2000/svg">
<path d="M265.361 5C265.361 5 394.231 32.31 440.55 60.29C440.55 60.29 457.06 74.96 462.55 91.93L468.93 113.03L485.93 128.62C485.93 128.62 494.18 159.35 483.18 239.62C483.18 239.62 465.43 262.74 431.49 271.37" stroke="white" stroke-miterlimit="10"/>
<path d="M431.4 271.75C431.4 271.62 431.46 271.49 431.48 271.36" stroke="white" stroke-miterlimit="10"/>
<path d="M420.42 266.52L431.48 271.36C433.556 261.212 434.598 250.879 434.59 240.52C434.59 159.98 372.59 94.6797 296.09 94.6797C219.59 94.6797 157.59 159.98 157.59 240.52C157.581 251.959 158.848 263.363 161.37 274.52L178.23 254.35" stroke="white" stroke-miterlimit="10"/>
<path d="M300.049 369.51C232.77 369.51 178.229 314.969 178.229 247.69C178.229 180.411 232.77 125.87 300.049 125.87C367.328 125.87 421.869 180.411 421.869 247.69C421.869 314.969 367.328 369.51 300.049 369.51Z" stroke="white" stroke-miterlimit="10"/>
<path d="M161.369 274.5H10.9991" stroke="white" stroke-miterlimit="10"/>
<path d="M448.05 68.0603C448.05 68.0603 441.47 64.5303 435.16 63.9603L409.02 61.3203L404.66 62.0103L405.24 66.0103C405.24 66.0103 431.38 91.6303 437.8 96.5203C437.8 96.5203 462.56 112.26 468.98 113.03" stroke="white" stroke-miterlimit="10"/>
</svg>
