<svg width="500" height="375" viewBox="0 0 500 375" fill="none" xmlns="http://www.w3.org/2000/svg">
<path d="M7.25 106.17L37.5 102.5C37.5 102.5 105.5 55.5 138.5 46.5C138.5 46.5 238.5 8.49999 412.5 54.5C412.5 54.5 446.5 66.08 493 92.79" stroke="white" stroke-miterlimit="10"/>
<path d="M7.25 294.57C7.25 294.57 44.5 307.5 56.5 359.5C56.5 359.5 395.5 225.5 400.5 227.5C400.5 227.5 424.5 150.5 461.5 143.5C461.5 143.5 487.1 137.59 477.72 172.68" stroke="white" stroke-miterlimit="10"/>
<path d="M36.7002 317.39C36.7002 317.39 37.9002 353.22 36.7002 357.86C36.7002 357.86 34.8102 368.86 32.7002 369.67" stroke="white" stroke-miterlimit="10"/>
<path d="M453.81 146C460.13 145.5 469.52 150.51 469.52 150.51C481.2 156.37 480.44 181.51 467.81 206.69C456.28 229.69 438.81 244.69 427.01 242.69L419.5 240.49L397.5 230.49" stroke="white" stroke-miterlimit="10"/>
<path d="M474 191.71C474 191.71 484.5 180.5 487.5 174.5L492.75 164.45" stroke="white" stroke-miterlimit="10"/>
<path d="M122.5 146.5C122.5 146.5 138.5 129.5 157.5 123.5H166.22C166.22 123.5 185.42 133.5 195.46 146.5V157.8L194.46 160.5C194.46 160.5 178.46 167.5 161.46 165.5C161.46 165.5 138.46 164.5 128.46 156.5C128.5 156.5 121.5 149.5 122.5 146.5Z" stroke="white" stroke-miterlimit="10"/>
<path d="M126 153.71C126 153.71 129.51 166.5 142.51 171.5L158.94 169.38L161.94 165.86" stroke="white" stroke-miterlimit="10"/>
<path d="M135.55 47.3701C135.55 47.3701 176.5 51.5001 197.5 56.5001C197.5 56.5001 105.5 103.5 50.5 160.5C50.5 160.5 14.92 160.83 6.20996 149.17" stroke="white" stroke-miterlimit="10"/>
<path d="M122.5 146.5C122.5 146.5 152.42 158.5 195.5 146.5L421.5 102.5C425.5 101.5 446.5 90.5 446.5 90.5L452.5 84.76V81.5C332.5 20.5 219.5 59.5 219.5 59.5C159.5 80.5 76.2197 165.86 76.2197 165.86L77.4997 167.5L127.89 158.22" stroke="white" stroke-miterlimit="10"/>
<path d="M76.22 166.86C76.22 166.86 67.5 186.5 66.5 195.5L67.5 219.5C67.5 219.5 83.5 314.5 98.5 331.5" stroke="white" stroke-miterlimit="10"/>
<path d="M50.5 160.5C50.5 160.5 30.5 180.88 7 192.69" stroke="white" stroke-miterlimit="10"/>
<path d="M388.79 57.4199C388.79 57.4199 414.5 98.4999 414.5 100.5C414.5 100.5 419.5 100.5 421.5 102.5L437.65 117.78C437.65 117.78 446.5 138.5 399.5 204.5C399.5 204.5 388.5 218.5 383.5 220.5C383.5 220.5 72.4998 339.61 66.4998 345.55L53.7998 349.66" stroke="white" stroke-miterlimit="10"/>
<path d="M303.23 47.22C303.23 47.22 314.66 104.68 310.58 124.09L313.5 158.5C313.5 158.5 309.5 207.5 304.5 220.5L306.5 228.5V232.5L307.38 249.78" stroke="white" stroke-miterlimit="10"/>
<path d="M273.5 162.5L278.5 165.5H282.5C282.5 165.5 293.5 163.5 294.5 162.5L295.5 160.5L293.5 157.5C293.5 157.5 299.5 155.5 303.5 155.5L307.5 159.5L306.5 163.5L305.5 164.5C305.5 164.5 274.5 173.5 269.5 173.5H266.66L264.5 170.5L266.5 165.5C266.5 165.5 270.5 162.5 273.5 162.5Z" stroke="white" stroke-miterlimit="10"/>
<path d="M405.5 133.5C405.5 133.5 400.5 134.5 400.5 137.5C400.5 137.5 400.5 140.5 402.5 141.5C402.5 141.5 417.5 140.5 426.5 137.5L428.5 134.5V133.5L426.5 130.5C426.5 130.5 421.5 129.5 418.5 130.5L421.5 133.5L420.5 134.5C420.5 134.5 408.5 136.5 405.5 133.5Z" stroke="white" stroke-miterlimit="10"/>
</svg>
