<svg id="rj5mhm" data-name="back seats" width="500" height="375" fill="none" xmlns="http://www.w3.org/2000/svg">
  <g clip-path="url(#rj5mhm-a)">
    <g clip-path="url(#rj5mhm-b)">
      <path d="M273.009 40.048s-10.867-3.951-14.324 6.915c0 0-6.422 20.746 5.927 24.204" stroke="#fff" stroke-width="1.482" stroke-miterlimit="10"/>
      <path d="M262.55 41.172s-13.39 1.136-13.83 14.082c0 0-2.401 17.392 5.996 17.392h10.013" stroke="#fff" stroke-width="1.482" stroke-miterlimit="10"/>
      <path d="M294.248 60.792c1.976 16.3-3.457 17.288-3.457 17.288-3.458 3.952-19.758 2.47-20.746 1.976-9.538-4.767-5.3-28.841-5.3-28.841 11-21.433 21.59-11.855 21.59-11.855" stroke="#fff" stroke-width="1.482" stroke-miterlimit="10"/>
      <path d="M285.781 41.175s-6.357-5.463-7.587 7.82c0 0-3.349 27.097 7.587 28.337 0 0 10.936 2.233 7.478-16.537" stroke="#fff" stroke-width="1.482" stroke-miterlimit="10"/>
      <path d="M296.707 17.078s-26.179 40.504 0 44.312c0 0 41.492-2.584 49.395-14.932 0 0 7.147-16.276-3.838-29.38" stroke="#fff" stroke-width="1.482" stroke-miterlimit="10"/>
      <path d="M312.275 17.078s-14.077 36.799 5.68 37.293c0 0 19.264 1.976 28.155-7.903" stroke="#fff" stroke-width="1.482" stroke-miterlimit="10"/>
      <path d="M197.928 174.398s9.879 13.337 31.118 17.782" stroke="#fff" stroke-width=".494" stroke-miterlimit="10"/>
      <path d="M254.733 215.607c-1.482-4.732 0-12.556 0-12.556l23.956-110.53c6.174-18.65 24.45-18.883 24.45-18.883l62.237-1.482" stroke="#fff" stroke-width="1.482" stroke-miterlimit="10"/>
      <path d="m269.056 238.122-21.24-33.095" stroke="#fff" stroke-width=".494" stroke-miterlimit="10"/>
      <path d="M262.637 251.457 251.77 229.23c-1.976-11.361-10.373-16.3-10.373-16.3s-10.373 0-22.721 7.409c0 0-4.94 1.976-15.807-.494 0 0-79.524-16.3-82.488 1.976" stroke="#fff" stroke-width="1.482" stroke-miterlimit="10"/>
      <path d="M257.821 243.109a244.282 244.282 0 0 1-30.091 3.458 245.692 245.692 0 0 1-30.205-.247 252.13 252.13 0 0 1-30.032-3.981c-9.711-1.867-19.481-4.051-29.414-4.13-8.57-.069-17.392 1.448-24.895 5.765a36.61 36.61 0 0 0-2.672 1.709c-.776.538-.035 1.827.751 1.279 7.142-5.004 15.86-7.014 24.475-7.251 9.829-.262 19.525 1.748 29.142 3.62a269.499 269.499 0 0 0 29.686 4.243 246.172 246.172 0 0 0 63.675-3.057c.938-.168.538-1.595-.396-1.428l-.024.02Z" fill="#fff"/>
      <path d="M197.928 174.402s-46.925-3.458-58.286 7.409c0 0-18.276 14.818-19.263 40.009 0 0-59.274 121.935-5.567 138.887M267.057 77.418s-17.051 1.576-18.637 21.867c0 0-2.084 18.809-3.072 21.279 0 0-21.032 58.577-10.763 64.855l13.233 19.609c-3.458-3.457-6.421 7.903-6.421 7.903l-11.361-18.769c-3.952-3.952 4.549-8.743 4.549-8.743" stroke="#fff" stroke-width="1.482" stroke-miterlimit="10"/>
      <path d="M265.629 74.742s-20.775 5.315-30.16 22.11c0 0-31.612 37.746-38.033 77.548" stroke="#fff" stroke-width="1.482" stroke-miterlimit="10"/>
      <path d="M229.048 192.184s-4.198 2.716-8.15 2.716c0 0-17.782 2.47-21.24 1.976 0 0-26.011-6.421-29.552-4.692 0 0-30.778-9.78-37.165-3.285m-11.461 24.029s22.361-7.656 49.034-1.728c0 0 34.25 6.836 37.377 4.406 0 0 21.896-2.431 33.504-2.678" stroke="#fff" stroke-width=".494" stroke-miterlimit="10"/>
      <path d="M199.656 196.875s7.577 11.776 8.234 18.73m-37.786-23.421.409 19.016m105.978-108.529s-19.402-1.778-27.493-7.503" stroke="#fff" stroke-width=".494" stroke-miterlimit="10"/>
      <path d="M265.628 101.051s-29.992 79.623-22.173 87.848" stroke="#fff" stroke-width=".494" stroke-miterlimit="10"/>
      <path d="m254.732 203.05-13.337-16.379c-5.927-8.471 17.041-87.75 17.041-87.75M312.28 73.3s-21.487 5.276-22.969 14.167l-10.066 51.918s-14.384 35.639-14.498 57.555c0 0-7.542 14.462-4.578 27.325m62.233-89.872s.494-45.443 17.782-51.865l22.722-6.915" stroke="#fff" stroke-width=".494" stroke-miterlimit="10"/>
      <path d="M279.242 139.387s26.367-3.512 31.306 13.776m-45.804 43.778 15.94 15.599m-38.548 99.421s-156.704 2.845-142.202 38.34M249.3 288.996l-20.252 2.964s-51.202.988-58.942 0c0 0-52.413-2.243-59.219 2.084 0 0-15.54 4.263-18.582 27.513" stroke="#fff" stroke-width=".494" stroke-miterlimit="10"/>
      <path d="M170.103 291.964s3.275-38.034-1.482-48.644m60.426 48.643s-7.829-36.71-11.568-44.287M328.755 56.102l-.558 16.794m-15.742-13.337-.559 13.83m4.016-14.326-.558 13.83m17.351-18.452-.559 17.96" stroke="#fff" stroke-width=".494" stroke-miterlimit="10"/>
      <path d="M370.428 17.078s19.906 9.45 7.903 37.446c0 0-57.919 76.892-77.677 117.396 0 0-47.873 95.439-58.513 137.123l2.411 12.507s-17.17 26.391-50.427 39.145" stroke="#fff" stroke-width="1.482" stroke-miterlimit="10"/>
      <path d="M179.135 360.707s64.153-27.127 64.706-42.973M384.886 17.078s24.495 13.954-2.687 63.655c0 0-65.561 113.829-74.778 134.846 0 0-31.983 63.032-40.355 96.364 0 0-11.415 44.381-26.935 48.737" stroke="#fff" stroke-width=".494" stroke-miterlimit="10"/>
      <path d="M403.215 17.078s22.528 16.043 0 55.322c0 0-43.769 70.881-50.19 105.457 0 0-8.165 53.84-24.83 73.597 0 0-47.78 105.882-59.14 109.251M442.114 17.078s19.086 6.668-13.02 69.893c0 0-3.458 3.952-3.458 20.746 0 0 2.47 39.515-22.227 60.755 0 0-7.903 3.457-27.661 67.176 0 0-16.587 52.536-58.182 125.057M198.467 89.76 238.926 85l10.832-16.04m-51.362-31.792c21.443 3.354 40.306 8.945 50.338 18.088M189.78 35.952c-47.863-6.03-103.975-2.326-103.975-2.326-11.36.988-8.89 8.89-8.89 8.89l2.469 56.31s-5.433 5.434 25.191 1.976l85.65-10.076m-.62-54.788.618 54.793m8.244-53.547v52.575m-115.876 84.12s-5.107 48.406 38.325 42.252m-48.059 35.322 38.029-5.117m-59.224 45.63 47.345-13.005" stroke="#fff" stroke-width=".494" stroke-miterlimit="10"/>
    </g>
  </g>
  <defs>
    <clipPath id="rj5mhm-a">
      <path fill="#fff" transform="translate(22.037 16.426)" d="M0 0h456.755v342.189H0z"/>
    </clipPath>
    <clipPath id="rj5mhm-b">
      <path fill="#fff" transform="translate(51.598 16.426)" d="M0 0h396.395v344.99H0z"/>
    </clipPath>
  </defs>
</svg>
