<svg width="500" height="375" fill="none" xmlns="http://www.w3.org/2000/svg"><path d="m146.631 36.256 8.45-10.62 25.22-13.76s79.34-8.72 136 0l27.78 13.3 9.84 11.08s33.25 67.34 34.4 79.49c0 0 64.81 83.31 70 97.38 0 0 16.2 39.13 17.12 52.28l6.42 66-17.43 36.54" stroke="#fff" stroke-miterlimit="10"/><path d="M146.81 36.046s-34.11 72.82-35.26 81.31c0 0-59.85 76.58-67.41 90.34 0 0-16.51 42.65-19.26 57.1L18 334.256l15.82 33.71" stroke="#fff" stroke-miterlimit="10"/><path d="M152.601 36.046s135.74-6.79 194.48 0c0 0 34.55 68.24 41 89 0 0-30.27 17.12-137.89 15 0 0-99.36 1.52-138.8-16.82l41.21-87.18ZM116.779 102.915l-1.1-17.55c-17.66-9.52-29.81 5.16-29.81 5.16l3.1 8.37 6.76 7.45s8.37 4.59 13 6.08a6.9 6.9 0 0 1 3 4.22M384.08 102.336s1.84-17.54 1.84-17.32c0 .22 4.81-3.21 4.81-3.21s19.11-.61 24.31 7.88c0 0-1.76 11.16-10.78 16.74l-13.91 7a3.74 3.74 0 0 0-1.26 3.33M25 264.156l5 8 60.23 53.51s161.42 31 316.43 0l63.74-55.41 4.53-8.62M22.63 287.456l2.37 9.28s35.42 58.4 54.22 71.24M477.461 286.096s-14.39 42-57.5 81.88" stroke="#fff" stroke-miterlimit="10"/><path d="m95.591 326.586.48 9.29-31.04 18.21M402.369 326.476v9.09l30.68 19.34" stroke="#fff" stroke-miterlimit="10"/></svg>
