<svg width="500" height="375" viewBox="0 0 500 375" fill="none" xmlns="http://www.w3.org/2000/svg">
<path d="M294 216.1L318.77 227C336.83 236.51 335.61 274.36 316.04 311.53C296.47 348.7 266 371.09 247.9 361.58L220.51 340.43" stroke="white" stroke-miterlimit="10"/>
<path d="M221.141 338.6C221.761 319.6 230.041 294.19 245.071 269.12C270.911 226.02 306.931 200.12 325.521 211.28C337.521 218.44 339.321 239.16 332.261 264.49C332.261 264.49 452.261 179.85 454.111 175.41C454.111 175.41 472.801 117.55 487.821 119.62C487.821 119.62 492.521 120.62 485.411 143.69L490.571 133.83L492.931 119.56L493.701 78.5002L465.421 32.1802C465.421 32.1802 408.251 5.00026 250.001 27.2902L234.641 32.4802C234.641 32.4802 194.311 57.9403 165.001 83.8503C165.001 83.8503 61.5907 102.42 22.3807 149.66L14.8107 176.48C9.69063 186.819 7.00861 198.193 6.9707 209.73V210.88L15.9707 252.38C15.9707 252.38 37.9707 304.89 84.3007 336.08C84.3007 336.08 152.401 350.98 175.561 350.98L215.691 346.62L221.141 338.6Z" stroke="white" stroke-miterlimit="10"/>
<path d="M234.67 32.4797C234.67 32.4797 299.1 26.0597 376.38 37.2997C376.38 37.2997 338.54 90.2997 329.83 112.97L319.74 117.32L287.41 118.24C287.41 118.24 142.94 105.35 155.1 85.8897" stroke="white" stroke-miterlimit="10"/>
<path d="M347.14 125.24C347.14 125.24 359.52 119.62 366.14 119.04C366.14 119.04 410.63 116.29 412.46 114.11C412.46 114.11 416.24 112.85 420.94 98.1805C420.94 98.1805 400.77 86.4805 387.58 86.4805L376.35 88.7805C376.35 88.7805 365.45 99.4405 365.11 101.78C365.11 101.78 366.49 106.48 368.32 108.66L357 111.36L346.57 116.06C346.57 116.06 345.42 121.57 346.57 125.24" stroke="white" stroke-miterlimit="10"/>
<path d="M346.57 116.06C346.57 116.06 378.75 46.6997 390.82 39.8197C390.82 39.8197 423.82 20.4097 460.99 36.3097L479 70.6996L417 96.0596" stroke="white" stroke-miterlimit="10"/>
<path d="M479.999 123L480.399 123.11C487.319 125.5 487.059 144.52 479.809 165.6C473.469 184.04 464.589 199.55 456.939 199.55L437.069 194.05C437.069 194.05 434.639 192.05 435.479 190.32" stroke="white" stroke-miterlimit="10"/>
<path d="M423.08 30.3799C423.08 30.3799 429.93 51.6099 431.55 90.1199L436.22 94.6999L438.67 113.7L428 170.22V183.52L430.72 193.88" stroke="white" stroke-miterlimit="10"/>
<path d="M11.4492 220.85L14.6592 239.88L52.4892 286.2L49.3992 261.21L11.4492 220.85Z" stroke="white" stroke-miterlimit="10"/>
<path d="M112.219 287.24L132.059 281.16C132.059 281.16 176.889 281.27 180.899 285.52C180.899 285.52 185.599 306.73 180.899 313.03C180.899 313.03 154.989 313.61 134.809 310.28L113.939 300.88C113.939 300.88 109.999 291.13 112.219 287.24Z" stroke="white" stroke-miterlimit="10"/>
<path d="M19.2802 160.48L22.2802 166.09C22.2802 166.09 51.0002 198.34 93.5002 214.24L181.7 215.01L228 207.82L233.35 208.43V211.8C233.35 211.8 216.23 240.8 207.35 245.27C207.35 245.27 181.21 255.21 115.63 255.06L84.9402 266.52H80.5002C80.5002 266.52 21.5002 227.69 13.2402 197.89L14.7702 176.48" stroke="white" stroke-miterlimit="10"/>
<path d="M93.5008 214.24L92.0508 220.13L115.661 255.06" stroke="white" stroke-miterlimit="10"/>
<path d="M459.579 160.31L336.039 244.81" stroke="white" stroke-miterlimit="10"/>
<path d="M320.269 117.1L322.179 118.78L314.179 138.19C314.179 138.19 190.869 197.35 181.699 215" stroke="white" stroke-miterlimit="10"/>
</svg>
