<svg width="500" height="375" viewBox="0 0 500 375" fill="none" xmlns="http://www.w3.org/2000/svg">
<path d="M7 87.3498L69 85.0498C69 85.0498 209.79 13.4598 235 5.0498" stroke="white" stroke-miterlimit="10"/>
<path d="M8.16016 272.16C8.16016 272.16 101.97 299 99.6802 369.5" stroke="white" stroke-miterlimit="10"/>
<path d="M383.859 5C383.859 5 471.589 30.68 492.999 46.17" stroke="white" stroke-miterlimit="10"/>
<path d="M199.66 369.5L474.13 268.5L483.22 258.26C483.22 258.26 490.54 227.38 493 223.71" stroke="white" stroke-miterlimit="10"/>
<path d="M459.199 273.98C459.199 273.98 461.289 283.98 467.589 287.75L492.999 298.3" stroke="white" stroke-miterlimit="10"/>
<path d="M8.16016 277.439C8.16016 277.439 60.0902 293.439 74.4602 344.159L77.2102 368.759" stroke="white" stroke-miterlimit="10"/>
<path d="M74.4609 344.16L93.2509 336.79" stroke="white" stroke-miterlimit="10"/>
<path d="M135.34 93.1897C135.34 93.1897 185.9 93.5397 210.66 84.5897C210.66 84.5897 259.73 72.8997 280.6 74.5097C280.6 74.5097 279.91 85.7397 271.66 93.1897C271.66 93.1897 233.59 103.19 215.94 102.48L129.49 106.15L135.34 93.1897Z" stroke="white" stroke-miterlimit="10"/>
<path d="M191.009 89.3104L182.379 68.8304L183.759 66.3804L228.239 44.6804C228.239 44.6804 240.469 41.6204 251.479 44.0604C251.479 44.0604 276.849 49.2604 283.729 55.8404C283.729 55.8404 282.819 70.3604 280.599 74.4904" stroke="white" stroke-miterlimit="10"/>
<path d="M135.34 93.19C135.34 93.19 236.57 15.07 278.07 5" stroke="white" stroke-miterlimit="10"/>
<path d="M353.52 5C353.52 5 444.09 25 467.32 39.35C467.32 39.35 491.58 74.73 493 81.96" stroke="white" stroke-miterlimit="10"/>
<path d="M225.1 102.13L493 99.5" stroke="white" stroke-miterlimit="10"/>
<path d="M53.9395 262.3C53.9395 262.3 104.939 290.3 119.629 346.45C119.629 346.45 482.919 239.6 488.729 230.73" stroke="white" stroke-miterlimit="10"/>
<path d="M387.66 13.1504C387.66 13.1504 400.07 66.0204 400.52 99.5004L406.25 104.5L412.25 131.94L410.72 137.14C410.72 137.14 409.65 203.33 401.86 240.94L402.16 260.94L399.94 282.06L405.57 293.67" stroke="white" stroke-miterlimit="10"/>
<path d="M129.49 106.15L127.66 113.49L124.66 163.24C124.66 163.24 126.87 286.57 139.87 340.48" stroke="white" stroke-miterlimit="10"/>
<path d="M373.541 144.98L380.651 148.11H383.941L397.311 147.35V145.59L392.571 143.07L393.721 141.84C393.721 141.84 402.721 142.53 404.721 144.52L405.941 147.19C405.941 147.19 406.091 150.86 405.021 153.08C405.021 153.08 378.501 157.44 365.021 156.75L362.961 155.45L363.341 149.33L365.021 147.96L373.541 144.98Z" stroke="white" stroke-miterlimit="10"/>
</svg>
