<svg width="500" height="375" fill="none" xmlns="http://www.w3.org/2000/svg"><path d="m7 86.29 36.51-1.22S186.29 12.41 220.68 5.25M337.17 5.25s94.47 27.23 120.61 49.25c0 0 1 2.75 1.83 4.35L493 104.94M7 278.06s83 22.64 86.65 91.69M179.87 369.75 444 258.57l8.25-10.09s13.37-72.68 40.75-82.09" stroke="#fff" stroke-miterlimit="10"/><path d="M7 286.55s44 24.3 55 59.16l6 24M7 249.55s84.82 15 105.3 97.23c0 0 340.89-118.93 341.81-122.14 0 0 10.7-43.26 27.82-57.18M269.27 76.27s-36.89.24-96.74 14.46c0 0-43.57 3.89-48.15 1.83L119.56 107s115.5-3.67 130.44-9.4l12.87-5 2.52-3.44s7.11-20.18 6.43-29.81c0 0-19.72-15.84-51.14-13.54l-4.81.93s-38.53 15.82-43.8 21.1l7.8 21.32" stroke="#fff" stroke-miterlimit="10"/><path d="M124.38 92.56s96.45-78.47 144.76-87.31M307.36 5.25S401.22 25.51 433 45.77c0 0 33.63 48.17 35.16 55.2 0 0-199.79.67-271.41 2.48M43.51 85.07l44.64-1.22s127.49-75.11 149-78.6M427.74 265.43s1.76 9.5 8 13.17l32.56 11.77s7.34 1.38 14.53-4.59c0 0 7.16-6.42 10.15-11.92" stroke="#fff" stroke-miterlimit="10"/><path d="M493 192c-9.58 2.3-20.06 18.35-24.89 39.34-5.57 24.18-1.53 45.76 9 48.19 5.08 1.17 11.43-3.43 15.24-10.28M361.87 18.92s11.37 54.84 11.83 78.84l6.12 7.18 6.42 27.06s-2.45 67.16-6.5 120.48M119.56 107v6.19s-8.71 105 11.24 210.71l2.2 15.66" stroke="#fff" stroke-miterlimit="10"/><path d="m342.9 154.93 6.19 1.72s30-3.44 31.53-5.27l.92-5.28-2.41-2.64s-5.51-2.17-10.44-1.14l-1.14 3.68a74.61 74.61 0 0 1-10.55.69l-5.39-2.69s-5.27.8-8.71 3.55c0 .04-1.26 5.09 0 7.38Z" stroke="#fff" stroke-miterlimit="10"/></svg>
