<svg width="500" height="375" fill="none" xmlns="http://www.w3.org/2000/svg"><path d="m493.391 40.26-22.21-17.12S439.081 8.57 425.931 5M493.391 289.36l-261 58.93 2.07-6.65-.23-16.28s-.45-104.53-136.66-103.19c0 0-60.21 3.67-90.18 22.48M493.391 46.99S443.971 8.27 368.321 5M170.8 5s-52.59 52.08-65.48 70.42c0 0 376.6 23.85 388 30.27" stroke="#fff" stroke-miterlimit="10"/><path d="M355.321 5s32.93 77.51 32.74 90l9 7.23 13.26 31.43v5.51s6.75 50.9-3 96.76a26.848 26.848 0 0 0 2.83 11.7l7.8 16.28-3 28.43.68 2.29-14.35 15.53M105.32 75.42l-6.11 6.27-10.86 32s17.66 65.88 29.58 85.6" stroke="#fff" stroke-miterlimit="10"/><path d="M192.66 222.16c-22.52-13.78-53.56-23.84-96-22.92M493.391 255.65s-237.6 37.18-244.94 35.77M454.44 143.6l-.76.54 3 2.06-.77.84H439l-1.53-.76-4.58-3.37-2.45-.3-11.12 2.22-1.15 2.22.58 5.78 1.83 1.15s36.38 1.22 42.27.53l1.83-1.45.64-4.87-1.6-1.76a25.555 25.555 0 0 0-9.28-2.83ZM185.172 136.76l-1 .57-.92 3.1-3.33 1.37s-30.72 1.27-32.44 0l-2.41-2.86-.8-2.75-2.3-1.72s-21.32.91-24 3.44l-1.72 3s.69 6.88 1.72 7.91l3.1 2.06s73 2.29 77.85 1.26l4-1.72-.58-7.91-3.55-2.41a34.9 34.9 0 0 0-13.62-3.34ZM232.4 348.29l-3.67-4.36v-5.5l-9.05-16.97-5.62.57M188.52 369.83a74.544 74.544 0 0 0-2.25-44.46c-16.92-45-75.52-64.69-130.88-43.89A125.323 125.323 0 0 0 7 313.73" stroke="#fff" stroke-miterlimit="10"/><path d="M7 263.91s50.68-58.93 149.001-25.69c0 0 24.24 12.16 34.82 30.27l19.75 39.9s10.55 32.57 0 61.11M57.91 201.77s-36.37 6.42-50.52 13.75" stroke="#fff" stroke-miterlimit="10"/></svg>
