<svg version="1.1" id="Layer_3" xmlns="http://www.w3.org/2000/svg" x="0" y="0" viewBox="0 0 2048 1536" style="enable-background:new 0 0 2048 1536" xml:space="preserve"><style>.st0,.st1{fill:none;stroke:#fff;stroke-width:4.6183;stroke-linecap:round;stroke-linejoin:round;stroke-miterlimit:10}.st1{stroke-width:2.4266}</style><path class="st0" d="m0 1225.6 898.3 244.5L918 1442l-2.7-12.7-15.7-9.6"/><path class="st0" d="M1751.3 1536c-6.8-85.9-21.6-153.9-102-247.8s-207.4-183-391.8-199.9-304.6 87.8-339.6 149.9c-34.9 62.1-30.4 138.1-12.9 204.8l-6.8 27.1"/><path class="st0" d="M1008.3 1536c-46.3-72.9-48.8-193.7-14.7-247.5s47.7-94.8 92.3-131.3c44.6-36.5 97.3-72.9 229.8-60.9M1445.4 1136c64 33.3 169.6 130.4 192.3 242.9 13.6 67.5 8.7 157.1 8.7 157.1"/><path class="st0" d="M1087.7 1536c-43.4-66.1-64.4-207.3 79.9-254.4 144.3-47.1 359.3 78 359.2 254.4M0 215.1c154.2-50.2 284.2-57.1 456-73.5 303.9-29 938.3-24.2 1237.3-21s354.7 4.8 354.7 4.8"/><path class="st0" d="M456 141.5c15.9-15.7 97.7-38.1 171.7-48.5C758 74.8 1367.9 57.5 1635 57.7c113.1.1 246.8-3.3 351.7 66.6"/><path class="st0" d="m1693.3 120.6-42.6-33.4c-292.9-5.4-696.9-.7-962.4 23.6l-13.9 17.1M0 593.7c313.1-3.4 715-.8 1048.2 8.6M0 606c230.2-.7 726.8 6.3 1046.6 16.2l2.7-2.4"/><path class="st0" d="M0 262.9c162.8-34.7 266-50.6 608.3-59.5 342.4-8.9 635.8-.6 725.1 5.4 94.8 6.3 151.5 15.2 235.4 57.2 94.4 47.3 291 148.9 400 233.6 29.9 23.3 64 52.8 36.6 85.5-27.3 32.7-65.4 58.3-65.4 58.3-386.6-8.3-767.8-22.6-890.6-23.6l-2.7-40c-20.2-138.1-39.5-336.6-37.8-379.8 1.2-19.6-9.5-60.1-19.4-79.9"/><path class="st1" d="M237.7 163.5c-3.2 8-33.4 23.9-30.6 49.8-1.2 4-5.2 14.2-5.2 14.2-20.3 67.3-53 236.3-79.3 365.2-2.8 2.5-4 8.2-4.5 13.4-11.4 35-34.8 53.9-39.1 125.5-4.2 71.5 31.1 217.4 60.7 300.1 5.3 14.9 9.6 42.6 7.4 63.8-2.1 21.3-3.7 41.5 4.8 61.7 8.5 20.2 22.7 51.7 22.7 51.7 5.8 5.8 29.4 22.7 29.4 22.7M905.1 1443.1l-98.5-25.8-57.4-46.8L0 1179.8"/><path class="st1" d="M773.4 1390.3c25 5.4 44.4 11.3 58.8 5.8 14.3-5.5 16.5-21 17.3-40.1.7-19.1 10.6-111.2 51.3-192 40.7-80.9 146.1-264.6 153.1-275.4s8.7-21.1 8.7-36.9c0-7.3.3-45.1-1-89.2-1.6-51.1-6.3-94.7-14.9-140.4M1160.4 765.4c-1.5 29.5-2.8 86.9-1.9 105.8s-.9 43 31.6 47.5 106.1 12.3 136.8 14.4c30.7 2.1 42.4-8.7 47.2-28.3 4.8-19.5 9.8-119.3 9.9-132.6.1-20.7-5.7-43-39.7-48.4-37.3-5.9-109.1-9.9-138-6.3-28.8 3.8-44.3 16.6-45.9 47.9z"/><path class="st0" d="m1046.8 582.4 944 18.6"/><path class="st1" d="M0 675.2c17.9-1.3 43.7-.6 50.3 0 6.6.6 8.6 5.8 7.5 13.8s-1.8 12.5-4.9 17.2c-3.1 4.7-9.2 4.6-14.5 4.5s-18-1.2-22.4-1.5c-4.4-.3-10.6-5.1-15.9-5.5M169.1 674.5c-15.7-1.4-38.6-1-45.7.6-7.1 1.6-10.8 4.7-11.7 9.3-.9 4.6-1.4 11.4 2.8 16.4 4.3 5 6.8 9.6 17.5 10 10.7.4 19.9.8 26.2.7s7.7-4.8 8-6.3c20.8-.3 51.7-.4 57.4 1 5.7 1.4 7.9 4.9 14.1 5.3 6.2.4 25.5-3 32.6-5.7 7.1-2.7 9.4-18.5.7-21.1-8.7-2.6-24.1-7-35.6-7.4-11.5-.5-57 .8-66.3-2.8z"/><path class="st1" d="M176.3 675.9c-.2-6.6 1.9-17.5 16.6-17.8 14.7-.3 28.9 1.1 38.7 3.1s10.9 7.5 8.2 16.3M234.2 710.8c0 5.9-1.6 12.6-16.7 13.9s-25.8 1.4-34.2 1-17.5-4.1-11-20.6M20.2 674.5c.6-5.6.7-15.2-8.1-15.2H0M17.3 709.3c-.4 6.3-1.8 12.1-9.1 12.1H0M248.5 222.3c-20.9 75.1-51.6 257-70.7 370.2M162.6 232.7C140.3 301 91.8 495.9 70.9 593.1M918 199.5c-24.9 105.8-54.7 284.9-64.8 398.2"/></svg>