<svg width="1260" height="1130" fill="none" xmlns="http://www.w3.org/2000/svg"><g clip-path="url(#a)" stroke="#fff" stroke-miterlimit="10"><path d="M1473 884.387c-72.33 3.776-151.76.629-226.8-6.293 21.63-137.51 76.05-255.824-13.86-433.611-89.9-177.787-297.774-418.507-749.342-376.97C320.082 82.301 183.868 187.4 116.606 267.64-10.82 419.624-10.482 611.256 19.262 744.36l9.464 1.888v22.656L5.404 793.448l-178.802-16.362-43.602-4.091" stroke-width="1.001"/><path d="M634.084 139.571c325.156 13.531 550.266 265.264 517.136 528.011-36.16 288.234-262.622 430.778-541.472 421.968-246.064-7.55-517.816-218.379-503.62-506.299 12.844-261.803 281.892-453.749 527.956-443.68Z" stroke-width="1.001"/><path d="M28.726 746.248c10.14-21.397 61.516-44.368 87.204-47.515M1246.2 878.093c.68-29.578-34.81-110.133-109.17-136.25"/></g><defs><clipPath id="a"><path fill="#fff" d="M-217-25h1690v1180H-217z"/></clipPath></defs></svg>
