<svg version="1.1" id="Calque_1" xmlns="http://www.w3.org/2000/svg" x="0" y="0" viewBox="0 0 500 375" style="enable-background:new 0 0 500 375" xml:space="preserve"><style>.st1,.st2{fill:none;stroke:#fff;stroke-miterlimit:10}.st2{stroke-width:.5}</style><g id="Calque_2_00000047058580735868511900000012848855513054115458_"><path class="st1" d="M462.7 180.3c1.7 17-5.5 64.7-4.8 70.3 5.1 14.9 4.5 47.1 1.7 55.4s-8.3 21.1-37 32.2c-14.2 5.5-93.9 17.3-172.9 17.3-81 .1-161.3-11.7-170.9-15.9-19-8.3-36.7-22.5-38.1-32.2s-4.1-39.5 1.4-55c-3.1-18.7-7.6-67.5-4.8-72 3.8-6.2 14.9-33.6 23.9-57.5 8.2-11.6 29.8-30.1 43.6-33.2 14.9-15.8 39.2-50.4 60.1-57.2 26.1-7.9 156-6.4 171.5-.6 20.6 6.9 56.5 55.7 58.5 57.5 5.5 3.1 32.5 10.7 46.5 39.3 9 28.6 21.3 51.6 21.3 51.6z"/><path class="st1" d="M384.3 76.1c1.8 0 23.6.4 25.5 2.6s2.7 11.9 2.5 13.2c-.2 1.3-3.5 4-3.4 4M116.6 76.1c-3.3-.1-21.3-.4-26.2 2.8-3.2 2.5-2.9 11.9-2.2 13.3s2.8 3.7 3 3.6M76.7 307.9c-5.7-7.2-14.9-23.5-11.6-45.8 4.6-15.1 20.8-37.5 23.8-37.5 1.5 0 83.6 6.4 163.5 5.9 77.6-.5 152.9-7.8 158.7-5.9 8.6 3.3 21.1 33 23.2 39.8 0 10.7-3.6 33.9-11.6 43.4-4 4.8-85.9 23.9-170.3 24.4-84.1.5-170.6-17.8-175.7-24.3zM434.3 117c.9 4.5.5 5.5-2.6 9-4.5 5.2-28.5 16.9-31.6 18.1-3.1 1.1-29.6 30.7-30.3 32-.6 1.3 53.4-19.5 54.4-18.8s3.7 13.4 3.4 14.8c-.3 1.4 21.8-8.5 20.7-23.6M64.4 118.7c-.3 5.1 2.9 6.9 5.3 9.4 2.4 2.4 27.4 14.2 30.9 16.6s29.5 30.1 29.9 31.5-53.8-20-55-19.2c-1.3.8-1.6 14.8-2.3 15.3-.6.5-25.6-10.6-20.3-28.2"/><path class="st2" d="m178.6 301.7-1-25.3s33.2 2.7 72.4 3c40.6.3 72-3 72-3l-1.2 25.3s-28.2 3.9-71.5 3.9c-41.6 0-70.7-3.9-70.7-3.9zM100.6 144.7c21.6 8.7 82 18.8 149.8 18.1 71.7-.7 128.9-9.3 149.8-18.7M77.1 308.7c-9-5.6-30.6-20.9-32.2-24.3-1.1-1.8-3.6-10.1-1.8-9.4s22.7 15.9 24.6 16.6M422.2 308.6c4.1-2 27.5-17.7 31.8-22.8 1.5-2 3.9-9.5 3.1-10.5-.8-.9-22.6 15.8-27.1 17.3M109.7 89.5l281.9.2s-34.1-45.1-51.9-53.4-165.3-6.6-178.9-.1-49.9 51.6-51.1 53.3z"/></g></svg>
