<svg version="1.1" id="Layer_1" xmlns="http://www.w3.org/2000/svg" x="0" y="0" viewBox="0 0 2047.9 1536.7" style="enable-background:new 0 0 2047.9 1536.7" xml:space="preserve"><style>.st0,.st1{fill:none;stroke:#fff;stroke-width:4.5537;stroke-miterlimit:10}.st1{stroke-width:2.2769}</style><path class="st0" d="M2047.9 149.7c-131.1-21.4-583.4-49.9-645.8-53.3-46.2-2.6-102.2-3.9-136.1 0-26.6-12.4-62.1-16.8-102.4-16s-249.3 31.3-343.4 48.5-252.2 50-303 63.4c-50.7 13.4-101.7 49.8-130.6 71.6C295 286.8 160.8 327.8 87.7 366c-19.1 26.6-9.8 70.4 30.3 114.2-37.7 89.5-77.8 194.3-77.8 194.3C16.4 695.9 0 730.3 0 730.3"/><path class="st0" d="M118 480.1c183.5 144 605.9 246.4 838.4 287.9s437.9 29.8 437.9 29.8c-10.5 54.7-43.4 222.6-92 377.4-41 130.6-92.1 252.8-162.4 278.8-153.7 56.8-804.8-29.7-1032.1-339.7"/><path class="st0" d="M0 845.2c5.8 41 72.5 155.3 110.1 185.1s41.7 50.3 39.1 60.7c-2.6 10.4-4.1 24.2-19 23.8s-31.3-.7-44.3-3.7S17 1045.2 0 975.2M0 1249.7c21.7 31 42.2 67.8 43.8 77.7 1.6 10 15.2 83.5 21.5 100.3s28.6 76.7 42.4 108.2M1793.7 1536.7c62.9-121.7 145.7-328 150.4-349 0-18.6 1.4-36.2 11-54.9 9.6-18.7 77.8-192 92.9-231.5M1879.6 130.9c-117.8 39.7-421.7 161.4-530.9 216.4-55.2 27.8-134.3 102.9-181.4 166.5 0 0 21.5 10.1 36.8 7.2 15.3-2.9 132-47.4 228.9-98.1 19.2-10.1 44.1-72.2 44.1-72.2 114.4-62.6 306.4-147.5 382.6-177.3l.2 2.2 41.3 5.4c13.4-5.1 33.7-14.1 37.8-16.3 4-2.2 2.9-8.5 0-13.2s-7-13.5-18.4-16.7M386.6 263.9c-10.4 8.9-27.9 28-27.9 28l7.3 1.9 214.4-54.2c3.2-7 24.5-36 31.2-42.7 100.7-25.8 380-81.5 524.7-99 3.7 8.3 11.8 15.2 11.8 15.2l123.5-12.2-5.8-4.7"/><path class="st0" d="M1141.6 106.1c-157.4 24.8-440.7 81.5-543.1 107M2047.9 229.9c-62.1 34.5-256.5 200-283.8 226.4-27.3 26.4-56.4 75.6-79.2 134.7-22.8 59.2-172.6 487.5-190.8 553.1-18.2 65.6 16.9 118.3 71.5 74.9s390.6-418.5 482.4-556.9"/><path class="st1" d="M1394.3 797.8c8.5-55.8 1.3-114.9-13.1-134.2-34.4-46.2-111.8-72.6-177.6-87.9-112-26-408-114.6-529.5-151.9s-303-88.8-402.8-127.7M1140 1454c5.3 13.6 5.3 70.3 3.8 82.7"/></svg>