<svg version="1.2" xmlns="http://www.w3.org/2000/svg" x="0" y="0" viewBox="0 0 2048 1536"><path id="Layer" fill = "none" stroke="#fff" stroke-width="4.6" stroke-linecap ="round" stroke-linejoin ="round" d="M.1 64.2s64.9.6 106.6 2.4c41.7 1.8 88.2 13.1 118.6 26.2 96.5-1.2 258.5 10.2 335.4 19.1 76.8 8.9 276.4 34.6 339 43.5 62.6 8.9 142.4 35.1 172.2 50 153.2 76.6 352.8 197.2 376 215.7 23.2 18.4 68.5 29.7 109.6 35.7 174 25.2 399.2 101.9 490.6 141.2"/><path fill = "none" stroke="#fff" stroke-width="4.6" stroke-linecap ="round" stroke-linejoin ="round" d="M225.3 92.8c-41.6-.7-151 1-225.2 4.9"/><path fill = "none" stroke="#fff" stroke-width="4.6" stroke-linecap ="round" stroke-linejoin ="round" d="M.1 81.8s8.9-.9 14.9 0l13.3 14.6m605.5 521.5C387.3 573.8 107.1 523.3.1 503.9m.2-342.6c131.4-2.2 286.2.7 428 15.9 141.8 15.2 273.4 76 349.4 123 75.9 47 268.9 190.7 350.8 285.7 18.1 21 28.2 41.2 13 52.1-15.2 10.8-76 55.7-76 55.7-10.4-1.3-62.5-10.3-138.8-23.7"/><path fill = "none" stroke="#fff" stroke-width="4.6" stroke-linecap ="round" stroke-linejoin ="round" d="M0 149.9c169.5-6.6 399.7.4 532.9 30.6 117.6 26.6 207.2 76.9 323.4 154.7 112.7 75.4 232 182 306 262.8 18.7 20.5 12.4 37.7 5.5 43.7-16.4 14.2-40.8 28.7-62.7 41.5-21.8 12.7-41.8 24.7-59.7 27.5-22.1-4.6-55-11-95.9-18.5m-319.2-56.5C389 593.8 116.9 547.4.1 525.2"/><path fill = "none" stroke="#fff" stroke-width="4.6" stroke-linecap ="round" stroke-linejoin ="round" d="M973.5 738.5s-20.6 11.3-48.7 23.6-44.4 7.9-68 0c-4-13.3-15.3-35.4-22.2-44.8-22.7 5.4-85.2 13.3-118.7 10.8-33.5-2.4-80.7-21.7-89.1-37.9-3.9-29 9.9-100.4 20.7-109.3 10.9-8.8 117.2-56.6 165-49.2 47.8 7.4 74.8 30 98 49.7 23.2 19.7 27.1 42.4 35.5 67.5L926.7 670l49.8 48.4zm584-281.7c68.5 19.3 102.4 56.8 101.4 88.2-1 31.5-50.9 95.3-159.2 110.8-84.4-12-153.8-25.5-209.7-71.4-55.9-45.9-256.5-202.7-338.9-256.4C868.7 274.3 765 207.1 755 197.1s-3.3-13.9 17.1-13.9c20.4 0 215.5 7.2 296.1 20.4M.1 1162.8c233.1 62.7 690.2 195 1081 305l11.5-35.3c-26.5-173.6 95.2-367.5 428.3-321.7 333.1 45.8 483 315.5 462.7 425.2"/><path fill = "none" stroke="#fff" stroke-width="4.6" stroke-linecap ="round" stroke-linejoin ="round" d="M1784.1 1210.5c37 41.7 66.5 94.9 77.7 148.1 11.2 53.2 31.5 100.9 23.6 177.5m-682.2-.1c-38.5-59.7-53.7-139.9-35.6-221.9s70.4-156 109.4-187"/><path fill = "none" stroke="#fff" stroke-width="4.6" stroke-linecap ="round" stroke-linejoin ="round" d="M1289.5 1536c-84.9-106.5-40.6-277 174.2-273.4 214.9 3.6 311.4 174.2 297.6 273.4m286.8-523.9c-98.4-43-211.8-97.7-246.9-116.6-35.1-18.9-69.1-52.8-104.9-94.5-35.8-41.7-89.6-91.9-104.7-101.1-15-9.1-57.8-29.2-91.9-44.1"/><path fill = "none" stroke="#fff" stroke-width="4.6" stroke-linecap ="round" stroke-linejoin ="round" d="M2048.1 852.9c-68.5-7-249.8-33.4-351.8-51.9m351.8 283.3c-64.4 55.2-118.6 99.1-152 123.2-21.2 7.8-77.1 29-77.1 29m-773.6-525.8c17.5 53.3 14.4 186.7 12.5 236.8-1.9 50.2-18.7 234.8-45.1 343.5-10.2 41.9-30.5 112.2-30.5 112.2"/><path fill = "none" stroke="#fff" stroke-width="4.6" stroke-linecap ="round" stroke-linejoin ="round" d="M.1 1114.3s718.3 200.3 770.9 215.1c52.6 14.8 81.7 31.9 103.8 45.4l217.8 57.7M319 1203.2c-7.6-6.5-17.7-14.9-20.2-17.4-2.5-2.5-17.5-47.8-21.8-61.3-4.3-13.5-1.2-38.7.6-57.5 1.8-18.8.6-38.1-7.6-56.9-35.2-80.3-68.1-217.8-72.9-243.8-4.8-26-14-68-4.8-117.7 9.3-49.7 25.3-59.4 28-84 .2-8.8 2.1-16.3 6.4-19.8 12.4-133.6 34.2-309.4 47.4-379.4 0 0 2.2-10.4 2.8-14.1-1.2-18.9 1.6-42.1 7.9-58"/><path fill = "none" stroke="#fff" stroke-width="4.6" stroke-linecap ="round" stroke-linejoin ="round" d="M396.1 682.8c7 4.3 6.4 17.9-3.9 19.9s-19.5.8-38.6 0c-14.5-10-54.6-13.3-76.1-16.8l-3.5 3.7c-23.2-3.3-42-7-48.6-16.2-6.7-9.2-3.5-20.5 6.4-25.2 10-4.7 25.8-1.2 51.5 3.9l-.3 4.1s37.2 8.1 48.9 10.2c11.7 2.1 21.4 2.9 26.9 0 18.7 7.4 30.2 12.1 37.3 16.4z"/><path fill = "none" stroke="#fff" stroke-width="4.6" stroke-linecap ="round" stroke-linejoin ="round" d="M283.4 652.1c1.9-5.8 5.6-13.7 15.5-13.3 9.9.4 38.4 6.2 50.6 10.4 12.2 4.2 10.2 9.4 9.3 17.2m-5.3 36.3c-.1 5.3-2.2 11.9-11.7 10.7-9.5-1.2-44.8-5.4-54.6-8.5-9.8-3.1-13.8-9.8-13.2-15.3m-152.9-72.5c10.4 1.6 25.2 4.7 33 7.3 9.2 3.1 9.4 9.8 8.6 16.1-.8 6.3-1.6 9.8-2.9 13.5-1.2 3.7-5 8-17.8 5.7-12.8-2.2-26.3-3.9-31.4-7.3-9.8-6.7-42.3-14.4-60.8-16.7l-1.3 2.6c-14.2-3.1-31.8-11.6-36.5-16.7-4.8-5.1-2.9-12.4 6.1-13.8 9-1.4 27.1-2.4 36.7-1.3l.1 2.9c22.6 3.1 53.8 11.7 66.2 7.7z"/><path fill = "none" stroke="#fff" stroke-width="4.6" stroke-linecap ="round" stroke-linejoin ="round" d="M60.8 610.2c1.8-9.2 4.4-16 14.3-16.4 9.9-.4 31.5 2.2 40.5 4.3 9 2.1 7.2 10.6 5.5 19M114 654c.1 4.7 1.3 11.7-10.6 10.7-11.8-1-39.5-7.9-47-11.6-7.5-3.7-9.1-8.9-7.9-14.9m1183.2-100.3c-17.6 7.9-73.3 35.8-82.2 46.5M321.4 168.1C309.9 251 294 475.3 287.5 555.8m-56.4-392.3c-20.3 99.6-45.2 267.2-54.6 372.3m1278.8-109.5c31.8 19.5 54 28.3 44.4 59.6-10.3 33.1-35.6 63-100.6 96.3-39.6 20.3-71.4 10.6-96.8-2.3-25.3-12.9-80.9-50.1-80.9-50.1"/></svg>