<svg version="1.2" xmlns="http://www.w3.org/2000/svg" width="2048" height="1536"><style>.s0{fill:none;stroke:#fff;stroke-linecap:round;stroke-linejoin:round;stroke-width:4.6}</style><path id="Layer" class="s0" d="m2048 1225.6-898.3 244.5-19.7-28.1 2.7-12.7 15.7-9.6"/><path class="s0" d="M296.7 1536c6.8-85.9 21.6-153.9 102-247.8s207.4-183 391.8-199.9c184.4-16.9 304.6 87.8 339.6 149.9 34.9 62.1 30.4 138.1 12.9 204.8l6.8 27.1"/><path class="s0" d="M732.3 1096.3c132.5-12 185.2 24.4 229.8 60.9 44.6 36.5 58.2 77.5 92.3 131.3 34.1 53.8 31.6 174.6-14.7 247.5m-638.1 0s-4.9-89.6 8.7-157.1c22.7-112.5 128.3-209.6 192.3-242.9"/><path class="s0" d="M521.2 1536c-.1-176.4 214.9-301.5 359.2-254.4 144.3 47.1 123.3 188.3 79.9 254.4M0 125.4s55.7-1.6 354.7-4.8c299-3.2 933.4-8 1237.3 21 171.8 16.4 301.8 23.3 456 73.5"/><path class="s0" d="M61.3 124.3C166.2 54.4 299.9 57.8 413 57.7c267.1-.2 877 17.1 1007.3 35.3 74 10.4 155.8 32.8 171.7 48.5"/><path class="s0" d="m354.7 120.6 42.6-33.4c292.9-5.4 696.9-.7 962.4 23.6l13.9 17.1M2048 593.7c-313.1-3.4-715-.8-1048.2 8.6M2048 606c-230.2-.7-726.8 6.3-1046.6 16.2l-2.7-2.4"/><path class="s0" d="M1058.5 120.1c-9.9 19.8-20.6 60.3-19.4 79.9 1.7 43.2-17.6 241.7-37.8 379.8l-2.7 40c-122.8 1-504 15.3-890.6 23.6 0 0-38.1-25.6-65.4-58.3-27.4-32.7 6.7-62.2 36.6-85.5 109-84.7 305.6-186.3 400-233.6 83.9-42 140.6-50.9 235.4-57.2 89.3-6 382.7-14.3 725.1-5.4 342.3 8.9 445.5 24.8 608.3 59.5"/><path class="s0" d="M1810.3 163.5c3.2 8 33.4 23.9 30.6 49.8 1.2 4 5.2 14.2 5.2 14.2 20.3 67.3 53 236.3 79.3 365.2 2.8 2.5 4 8.2 4.5 13.4 11.4 35 34.8 53.9 39.1 125.5 4.2 71.5-31.1 217.4-60.7 300.1-5.3 14.9-9.6 42.6-7.4 63.8 2.1 21.3 3.7 41.5-4.8 61.7-8.5 20.2-22.7 51.7-22.7 51.7-5.8 5.8-29.4 22.7-29.4 22.7m-701.1 211.5 98.5-25.8 57.4-46.8 749.2-190.7"/><path class="s0" d="M1274.6 1390.3c-25 5.4-44.4 11.3-58.8 5.8-14.3-5.5-16.5-21-17.3-40.1-.7-19.1-10.6-111.2-51.3-192-40.7-80.9-146.1-264.6-153.1-275.4-7-10.8-8.7-21.1-8.7-36.9 0-7.3-.3-45.1 1-89.2 1.6-51.1 6.3-94.7 14.9-140.4M887.6 765.4c1.5 29.5 2.8 86.9 1.9 105.8-.9 18.9.9 43-31.6 47.5S751.8 931 721.1 933.1c-30.7 2.1-42.4-8.7-47.2-28.3-4.8-19.5-9.8-119.3-9.9-132.6-.1-20.7 5.7-43 39.7-48.4 37.3-5.9 109.1-9.9 138-6.3 28.8 3.8 44.3 16.6 45.9 47.9zm113.6-183L57.2 601m1990.7 102.7c-5.3.4-11.5 5.2-15.9 5.5-4.4.3-17.1 1.4-22.4 1.5-5.3.1-11.4.2-14.5-4.5-3.1-4.7-3.8-9.2-4.9-17.2-1.1-8 .9-13.2 7.5-13.8 6.6-.6 32.4-1.3 50.3 0m-169.1-.7c15.7-1.4 38.6-1 45.7.6 7.1 1.6 10.8 4.7 11.7 9.3.9 4.6 1.4 11.4-2.8 16.4-4.3 5-6.8 9.6-17.5 10-10.7.4-19.9.8-26.2.7-6.3-.1-7.7-4.8-8-6.3-20.8-.3-51.7-.4-57.4 1-5.7 1.4-7.9 4.9-14.1 5.3-6.2.4-25.5-3-32.6-5.7-7.1-2.7-9.4-18.5-.7-21.1 8.7-2.6 24.1-7 35.6-7.4 11.5-.5 57 .8 66.3-2.8z"/><path class="s0" d="M1808.2 677.5c-2.7-8.8-1.6-14.3 8.2-16.3 9.8-2 24-3.4 38.7-3.1 14.7.3 16.8 11.2 16.6 17.8m4 29.2c6.5 16.5-2.6 20.2-11 20.6-8.4.4-19.1.3-34.2-1-15.1-1.3-16.7-8-16.7-13.9m214-36.3c-.6-5.6-.7-15.2 8.1-15.2h12.1m0 62.1h-8.2c-7.3 0-8.7-5.8-9.1-12.1m-231.2-487c20.9 75.1 51.6 257 70.7 370.2m15.2-359.8c22.3 68.3 70.8 263.2 91.7 360.4M1130 199.5c24.9 105.8 54.7 284.9 64.8 398.2"/></svg>