<svg version="1.1" id="Calque_1" xmlns="http://www.w3.org/2000/svg" x="0" y="0" viewBox="0 0 500 375" style="enable-background:new 0 0 500 375" xml:space="preserve"><style>.st1,.st2{fill:none;stroke:#fff;stroke-miterlimit:10}.st2{stroke-width:.5}</style><g id="Calque_2_00000135677992650164443290000013556180395039787137_"><path class="st1" d="M456.6 157.6c4.1 5.2 3.1 27.9 1 33.9-2.3 6.4-17.2 49.8-18.3 62.9-1.1 13.9 9 33.8 8.9 35.8-4.4 23.1-8.2 40.7-16 48-5.8 6.4-32.6 12.5-40 13.6-3.7.5-70.6 10.5-139.7 10.5-69.8 0-141.9-9.8-146.8-10.5-9.8-1.4-26.4-6.4-33.6-10.5-8.9-4-15.9-25.8-20.3-50.4 1.2-8.1 8.9-19.8 9.1-38.1-3.1-11.2-17-54.3-18-59.7s-2.7-32.2 0-36.3 14.6-12.4 19.1-20.7c3.9-7.3 28.5-67.9 39.2-85.4 2.4-5 .3-12.6 7-17.1 1.3-2.1 70.7-9.3 141.7-10s141.9 7.3 143.5 10.5c3.4 6.4 5.1 10.8 4.9 15.3 5 7.4 32.3 70.4 39.2 87.1 3.9 7.4 16.4 17 19.1 21.1z"/><path class="st1" d="M143.8 28.8c1.8-2.8 3.6-4.5 4.1-4.6s4.9-.8 5.6-.4c.7.4 6.6 3.3 7.2 3.6M340.9 26.5c1.5-.8 4.6-2.5 5.1-2.6s5.3.1 6 .3c.6.2 3.5 3.4 4 3.9M49.6 150c2.5 7.5 94.8 24.1 96.1 25s-19 14.4-19.5 14.5-17.7-.5-19.7-.3-26.3 12.2-28.2 12c-1.9-.2-26.8-2.1-35.6-9.6M449.7 150.4c-6.8 6.7-89.7 22.7-93.9 24.7-4.1 1.9 16.9 14.2 17.4 14.3s16.7 0 18.6 0 26 11.1 29.4 11.7 28.2-3.9 37.2-13.6"/><path class="st1" d="M60.1 155.3c-6.8 9.7-10.3 20.3 2.6 43.7 7.4 18 3.8 79.2 3.9 92.4.5 4.8 92.2 21.6 183.9 21 90.6-.6 179.3-13.7 183.4-21.2 4.3-5.4-7.3-40.9 3-92.9 8.1-5.6 11.3-32.3 5.2-44.4"/><path class="st2" d="M125.9 189.8c91.9 4.8 236.1.2 247.8-.1M181.1 226.2h138v27.2h-138zM73.5 117.5c8.4 7.5 89.3 21.2 176.5 20 86.6-1.2 156.9-8.9 175.4-20.7 4 .1-28.2-66-37.1-69.5-4.5-1.7-71.6-7.7-138.6-8.2-66-.5-132 4.3-138.3 8.2-12.8 8-39 68.2-37.9 70.2zM246.2 23.4c.7-.6 1.4-7.3 1.4-8.4.1-1.3 4.2-1.5 4.5 0 .3 2.2.6 7.8 1.4 8.3M119.5 312s-.9 3.6-1.9 3.6-43.8-7.9-44.6-8.4 1-2.9 2.6-3c1.7 0 43.5 8 43.9 7.8zM380.3 312.2c-.8-.1 1.8 3.3 2.1 3.4s43.6-7.6 44.5-8.6c.1-.6-.7-2.6-2.3-2.6-1.9 0-43.6 7.9-44.3 7.8z"/></g><path class="st2" d="M127.7 268.3c5.7-11.6 28.6-47 42.9-50s150.1-4.9 164.1 1.7c14 6.6 38.9 46.2 38.9 46.2"/></svg>
