<svg version="1.1" id="Calque_1" xmlns="http://www.w3.org/2000/svg" x="0" y="0" viewBox="0 0 500 375" style="enable-background:new 0 0 500 375" xml:space="preserve"><style>.st1,.st2{fill:none;stroke:#fff;stroke-miterlimit:10}.st2{stroke-width:.5}</style><g id="Calque_2_00000011750230280509498730000000443213489090664378_"><path class="st1" d="M500 187.5c-9.8 10.7-61.8 57.8-64 59.2M439.6 231.1c16.7-34.3 18.8-88.7.5-94-25.8-6.1-53 49.5-59.2 62.4-22 45.7-43 125.1-44.1 128s-29.9 24-58.1 28.3c-40.3 6.2-92.6.8-118.3-10.4-26-11.3-91.7-47.1-113.7-75.3-17-21.8-19.4-44.6-19-47.5.2-2.2 8.6-8.2 8.6-9.2-.4-5.4-16.6-75.3-14.4-81s13.6-15 16.2-17.7c-1.4-14.2 8.7-33.3 24-43.6C97.6 47.7 160.4 43.8 176.5 42c6.6-4.4 49.7-34.8 67.3-42M500.4 10.1c-2.9.5-8.4 1-12.2 7.5-3.7 6.5-6.6 14.5-6.6 17.2s1 5.9 1 5.9-11.2 11-11.9 13c-.2 2.2 5 12.1 10.3 13.5 2 .3 14.4-15 16.6-16 1.1-.5 2.4-.9 2.4-.9"/><path class="st1" d="M139.2 132.8c.3-5.4 30.2-28.1 45.6-33.6s202.9-37.1 208.1-42.3c1.3 0-4.8 14.9-16.3 26.4s-38.6 29.3-50.5 34.4-92.9 26.1-101.9 24.5c-9.2-1.5-18.4-16.1-85-9.4zM36.3 213.5c18.4 67.3 113.2 93.5 147.9 101.8 14.6-13.3 24.5-33.6 22.9-40.7-4.5-14.2-56.8-73.7-66.7-78.4-28.6-7.4-100.8-24.6-116.6-45.5M340.1 316c4 2.9 20.5 12.5 29.8 15.4 6.2 1.6 17.8 1.1 26.3-8.3 11.8-11.5 28.1-41.1 35.5-62.6 4.9-14.4 10.3-32.8 11.6-63.6.5-11-.3-32.2-14.9-38.9-8.1-2.6-14.8-4.3-19.2-4.6"/><path class="st2" d="M38.2 114.9c.6 13.5 3.6 20.3 9.6 24.4 22.7 8.1 63.1.6 91-6.3M41.5 96.1c.5 1.8 2 3.8 8.4 4.9 47.5 5.5 107.5-6.7 127.3-9.6 19.7-2.9 146.7-25.7 217.3-37.2 2.7-5.1 3.9-22 2.7-25.2"/><path class="st2" d="M176.6 42.3c7.2-1.1 194.3-13.5 220.5-13.2 10.4-1.8 18.4-2.1 25.6-8.1 8.3-10 11.7-21 11.7-21M456.3 0c-2.4 8-6.3 22.1-6.3 25.7 0 8.5 10.1 22 12.5 25.5 4.3 0 12-2.1 12-2.1M445.2 238.7c17.9-49.4 28-125.9 27.5-141-.3-11.3-4.8-40.2-10.2-46.4M41.8 194s2.2 15.2 3.8 20.3 4.2 10.4 12.3 17.6c13.9 11.7 32.6 21.2 35 21.4-.3-5.6-3.5-26-3.5-26s-17.8-6.8-30.8-15.9c-8.5-6.1-14.2-12.6-16.8-17.4zM184.4 315.6c21.4 4.3 84.1 7.1 88.8 5.1 3.4-1.9 7.5-8.7 6.9-9.5-2.8-2.4-7.4-4.8-15-6-8-1.3-62.3-2.6-68.5-4.1"/></g></svg>
