<svg version="1.1" id="Calque_1" xmlns="http://www.w3.org/2000/svg" x="0" y="0" viewBox="0 0 500 375" style="enable-background:new 0 0 500 375" xml:space="preserve"><style>.st1,.st2{fill:none;stroke:#fff;stroke-miterlimit:10}.st2{stroke-width:.5}</style><g id="Calque_2_00000044160700327849747810000011181391969445018003_"><path class="st1" d="M500 263.7c8.2-3.2-174.9 36.9-178.4 36.5s0-13.5 1.8-27.7-9.6-48.2-40.4-54.2c-21.6-4.2-47.6-3.9-79 22.4-15 12.6-29.2 36-31 50.9s-2.5 26.6-1.8 29.1-55.7 4.6-81.9 0-39.5-7.2-48.6-14.9c-9.9-8.5-12.8-29.4-13.5-58.2.4-13.5 3.2-20.5 3.9-25.2-1.8-9.6-16.6-59.2-11.7-68.1 1.9-1.9 5.3-3.7 5.4-5.3 0-6.4-9.3-13.1-8.2-18.1 3-5.1 16.6-6 20.1-9 4.9-8.7 29.4-45 41.4-56.8-2.3-.7-17.6-4.5-16.9-9.1s9.8-6.2 20.9-8c11.2-1.8 22.4-2.8 52.2-4.2s167.1-.4 179.1 0c12.1.4 83 4.6 104.3 7.1 22.7 2.6 41.8 5.3 55.7 8.1 11.4 2.3 22.5 7.1 26.9 9.6"/><path class="st1" d="M133.3 43.9c3.1-2.5 18.7-7.8 23.2-8.8s19.6-2 27.1-1.8S294 35 301.9 35.2c7.7.2 60.2 2.6 71.1 5.6 5.3 1.5 22 4.2 28.1 8.5"/><path class="st1" d="M359.5 46.4c-.3-1.2-.8-2.7-2-2.8s-34-3-70-3.8c-10.3-.3-86.5-2-98-1.8-.7 0-6.3 5.1-6.3 5.1M120.1 44.5c3 .2 6.8 2.7 8.9 8.3 1.9 5.2-38.5 54.1-64.9 68-.7.4-15.9 27.6-16.7 30.3-4.1 1.5-18.3 1.8-21 5.6-.1 33.6 20.5 43.1 16.4 75.3-3.7 20-8.5 23.4-8.3 30.6 0 2.2-7.5-14.4-6.9-21.5"/><path class="st1" d="M18.7 165.8c3.3 7.1 10.9 18.4 13.5 19.7s18.4 6 26.3 6.9 22.7 0 23.3 0S69.1 173 70.2 173s62.7.3 64.2-.5 4.8-3 4.4-5c-.4-2-9.3-10.8-12.2-11.5-2.9-.6-18.6-3.3-23.3-3.8s-65.6-1.1-79.5-1.1M184.6 283.1c-.1 6.8.9 14.5 2.6 20.5 1.7 6 5.4 17.4 8.7 22.9 3.1 5.2 11.2 21.3 33.5 23.9 25.3 3 45.7-8 57-17.9 11-9.7 23.4-28.8 23.4-47.3 0-15.2-5-31.2-15.5-41.6-6.1-6-14.9-12-20.7-14.9-6.7-3.4-19.8-8.2-40.8-2.1-9.5 2.7-26.5 12.1-37.5 27-4.5 6.3-9.9 19.9-10.7 29.5zM460.2 155.6l-13.8-.6s-7.8-.2-7.5-2.4 4.6-3.7 7.6-3.9 20.7 0 22 .5 2.1 2.2 1.4 3.9-1.3 1.6-1.8 2.4c-.5.9-7.3.2-7.9.1zM500 156.4c-3.7.3-16.4 1.2-17.6.4s-3.2-5.3-2.1-6.3 18.6-.3 20-.3"/><path class="st2" d="M36.7 122.1c-1.2 1.6-2.5 3.6-.6 3.6s26.4-4.4 29-5.4M78.6 65.1c2.8-2.2 5.3-5.5 11.7-5.4 6.3.1 29.7 4.2 32.5 4.8M500 137.9c-9.4-.6-161.8-6-200.7-4.7s-154.4 1.5-158.9-.2-16.8-13.8-12.9-20.8 75.9-51.3 93.8-53.7c17.9-2.5 76.2-3.7 89.3-3.3 13.2.4 123.5 6 139.2 7.8 15.6 1.9 44.9 7.6 50.5 11.9"/><path class="st2" d="M303.5 55c.4 3.8-8.1 119.1-7.2 123 .9 7.5 41.8 55.2 35.7 119.7M449.1 62.9c2.3 4.3 27.6 85.9 28 98.5.4 12.6-18.7 99.3-23.5 111.5"/></g></svg>
