<svg version="1.1" id="Calque_1" xmlns="http://www.w3.org/2000/svg" x="0" y="0" viewBox="0 0 500 375" style="enable-background:new 0 0 500 375" xml:space="preserve"><style>.st1,.st2{fill:none;stroke:#fff;stroke-miterlimit:10}.st2{stroke-width:.5}</style><g id="Calque_2_00000070092684553588257490000011443091442628362117_"><path class="st1" d="M500 245.6c-6.8 3-24.9 18.5-37.3 68.4-8.5 3.1-381.5-2.4-387-1.8C77.5 276.5 42 226.9 0 218.1M0 44.4c74.8-5.8 213.6-3.6 256-1.3 20.5 1.1 56.4 2.8 95.9 14.4C408.1 73.9 480.1 118.8 500 134"/><path class="st1" d="M500 335.1c-9.3-5-28.4-22.6-33.4-35.1M72.1 288.2c-.9 5.4-2.1 11.7-7.3 19.4-5.2 7.7-17.8 22.3-23.4 25.8-4.8 3-20.4 13.8-41.4 11.5M455.6 162.5c.3 2.3.6 3.7.6 4.5-.4 1-8.6 6.1-10.8 6.8-2.2.7-11.4 1-11.6 0s1.2-12 .7-12.2-5.1-.4-5.8-2.2c-.9-4.9 2.6-28.5 4.8-30.4 2.2-1.9 3-1.7 6.9-.8s18.5 5.2 20.2 8.7 1.6 14.7 1.4 15.7c-.4 2.4-1.3 4.3-1.9 5.4-.8 1.3-2.2 3.1-4.5 4.5zM325.6 170.4c-.1 4.2-12.1 3.4-12.1 3.4l-21.5-.7s-12.1.1-13.1-1.3c-.9-1.4-1.3-5.4-.5-7.4 1.5-1 47.4-.6 47.2 6zM209.1 162.3c-.3 2.2 5.3 4.1 11.1 4.6s22.7 2.3 22.7 2.3 12.1.9 12.9.3c1.3-2.6 1.5-5.1.5-7.1-1.2-1.3-46.5-5.1-47.2-.1zM215.3 41.7c-9-5.7-34.7-7.8-42.6-8.3-7.9-.6-73.1-1.2-86.7-.8-13.6.4-86 3.3-86 3.3"/><path class="st1" d="M0 40.4s85-3.3 100.8-3.3c6.1.1 53.4.3 56.9.3 3.3 2.9 4 3.5 4 3.5"/><path class="st2" d="M439.5 314.8c17.1-41.3 39.1-84.4 38.7-116.7-.2-16.6-17.9-74-20.1-78.9S388.4 77.9 355.8 69c-35.8-10.1-75.9-13.5-91.2-14-52.3-3.2-189.1-1.6-201.7-1.1-12.6.4-48.6 2.2-62.9 3.5"/><path class="st2" d="M428.2 156.7C340 152.3 133.6 136.6 0 133.3M469.8 157.3c-.7.5-3.6.7-9.6.6"/><path class="st2" d="M262.1 54.8c0 19.8 3.9 67.8 4.7 92 1.2 35.3 2 150.1.7 167.2M62.6 53.8c-11.6 30-18.3 55.3-26.5 81.3-26.3 27.7-10.8 55.6 62.7 177.2M435.2 127.9c2-.3 8.7 5.1 9.1 8s-2.2 21.8-4.1 23.6c-1.8 1.8-5.2 1.8-5.8 1.8M455.2 162.4c-3.5 1.5-15 .5-16 1.4-1 .8-4.5 9.2-4.8 10.1"/></g></svg>
