<svg version="1.1" id="Layer_3" xmlns="http://www.w3.org/2000/svg" x="0" y="0" viewBox="0 0 2048 1536" style="enable-background:new 0 0 2048 1536" xml:space="preserve"><style>.st0,.st1{fill:none;stroke:#fff;stroke-width:4.6183;stroke-linecap:round;stroke-linejoin:round;stroke-miterlimit:10}.st1{stroke-width:2.4266}</style><path class="st0" d="M0 598c91.4-39.3 316.6-116 490.6-141.2 41.1-6 86.4-17.3 109.6-35.7 23.2-18.5 222.8-139.1 376-215.7 29.8-14.9 109.6-41.1 172.2-50 62.6-8.9 262.2-34.6 339-43.5 76.9-8.9 238.9-20.3 335.4-19.1 30.4-13.1 76.9-24.4 118.6-26.2 41.7-1.8 106.6-2.4 106.6-2.4"/><path class="st0" d="M1822.8 92.8c41.6-.7 151 1 225.2 4.9"/><path class="st0" d="m2019.8 96.4 13.3-14.6c6-.9 14.9 0 14.9 0M1414.3 617.9c246.5-44.1 526.7-94.6 633.7-114M1121.4 670c-76.3 13.4-128.4 22.4-138.8 23.7 0 0-60.8-44.9-76-55.7-15.2-10.9-5.1-31.1 13-52.1 81.9-95 274.9-238.7 350.8-285.7 76-47 207.6-107.8 349.4-123s296.6-18.1 428-15.9"/><path class="st0" d="M1098.6 692.2c-40.9 7.5-73.8 13.9-95.9 18.5-17.9-2.8-37.9-14.8-59.7-27.5-21.9-12.8-46.3-27.3-62.7-41.5-6.9-6-13.2-23.2 5.5-43.7 74-80.8 193.3-187.4 306-262.8 116.2-77.8 205.8-128.1 323.4-154.7 133.2-30.2 363.4-37.2 532.9-30.6M1417.8 635.7c241.3-41.9 513.4-88.3 630.2-110.5"/><path class="st0" d="m1071.6 718.4 49.8-48.4-19.3-21.1c8.4-25.1 12.3-47.8 35.5-67.5s50.2-42.3 98-49.7c47.8-7.4 154.1 40.4 165 49.2 10.8 8.9 24.6 80.3 20.7 109.3-8.4 16.2-55.6 35.5-89.1 37.9-33.5 2.5-96-5.4-118.7-10.8-6.9 9.4-18.2 31.5-22.2 44.8-23.6 7.9-39.9 12.3-68 0s-48.7-23.6-48.7-23.6l-3-20.1zM490.6 456.8c-68.5 19.3-102.4 56.8-101.4 88.2 1 31.5 50.9 95.3 159.2 110.8 84.4-12 153.8-25.5 209.7-71.4C814 538.5 1014.6 381.7 1097 328s186.1-120.9 196.1-130.9 3.3-13.9-17.1-13.9-215.5 7.2-296.1 20.4M64.5 1536c-20.3-109.7 129.6-379.4 462.7-425.2s454.8 148.1 428.3 321.7l11.5 35.3c390.8-110 847.9-242.3 1081-305"/><path class="st0" d="M264 1210.5c-37 41.7-66.5 94.9-77.7 148.1s-31.5 100.9-23.6 177.5M771.1 1127.1c39 31 91.3 105 109.4 187 18.1 82 2.9 162.2-35.6 221.9"/><path class="st0" d="M286.8 1536c-13.8-99.2 82.7-269.8 297.6-273.4 214.8-3.6 259.1 166.9 174.2 273.4"/><path class="st1" d="M0 1012.1c98.4-43 211.8-97.7 246.9-116.6S316 842.7 351.8 801s89.6-91.9 104.7-101.1c15-9.1 57.8-29.2 91.9-44.1"/><path class="st1" d="M0 852.9c68.5-7 249.8-33.4 351.8-51.9M0 1084.3c64.4 55.2 118.6 99.1 152 123.2 21.2 7.8 77.1 29 77.1 29M1002.7 710.7c-17.5 53.3-14.4 186.7-12.5 236.8 1.9 50.2 18.7 234.8 45.1 343.5 10.2 41.9 30.5 112.2 30.5 112.2"/><path class="st1" d="m955.5 1432.5 217.8-57.7c22.1-13.5 51.2-30.6 103.8-45.4s770.9-215.1 770.9-215.1M1763.3 93.3c6.3 15.9 9.1 39.1 7.9 58 .6 3.7 2.8 14.1 2.8 14.1 13.2 70 35 245.8 47.4 379.4 4.3 3.5 6.2 11 6.4 19.8 2.7 24.6 18.7 34.3 28 84 9.2 49.7 0 91.7-4.8 117.7s-37.7 163.5-72.9 243.8c-8.2 18.8-9.4 38.1-7.6 56.9s4.9 44 .6 57.5c-4.3 13.5-19.3 58.8-21.8 61.3s-12.6 10.9-20.2 17.4"/><path class="st1" d="M1689.3 666.4c5.5 2.9 15.2 2.1 26.9 0s48.9-10.2 48.9-10.2l-.3-4.1c25.7-5.1 41.5-8.6 51.5-3.9 9.9 4.7 13.1 16 6.4 25.2-6.6 9.2-25.4 12.9-48.6 16.2l-3.5-3.7c-21.5 3.5-61.6 6.8-76.1 16.8-19.1.8-28.3 2-38.6 0s-10.9-15.6-3.9-19.9c7.1-4.3 18.6-9 37.3-16.4z"/><path class="st1" d="M1689.3 666.4c-.9-7.8-2.9-13 9.3-17.2 12.2-4.2 40.7-10 50.6-10.4s13.6 7.5 15.5 13.3M1694.6 702.7c.1 5.3 2.2 11.9 11.7 10.7 9.5-1.2 44.8-5.4 54.6-8.5 9.8-3.1 13.8-9.8 13.2-15.3M1927 617.1c-10.4 1.6-25.2 4.7-33 7.3-9.2 3.1-9.4 9.8-8.6 16.1.8 6.3 1.6 9.8 2.9 13.5 1.2 3.7 5 8 17.8 5.7 12.8-2.2 26.3-3.9 31.4-7.3 9.8-6.7 42.3-14.4 60.8-16.7l1.3 2.6c14.2-3.1 31.8-11.6 36.5-16.7 4.8-5.1 2.9-12.4-6.1-13.8-9-1.4-27.1-2.4-36.7-1.3l-.1 2.9c-22.6 3.1-53.8 11.7-66.2 7.7z"/><path class="st1" d="M1927 617.1c-1.7-8.4-3.5-16.9 5.5-19 9-2.1 30.6-4.7 40.5-4.3 9.9.4 12.5 7.2 14.3 16.4M1934.1 654c-.1 4.7-1.3 11.7 10.6 10.7 11.8-1 39.5-7.9 47-11.6 7.5-3.7 9.1-8.9 7.9-14.9M816.4 537.9c17.6 7.9 73.3 35.8 82.2 46.5M1726.7 168.1c11.5 82.9 27.4 307.2 33.9 387.7M1817 163.5c20.3 99.6 45.2 267.2 54.6 372.3M592.8 426.3c-31.8 19.5-54 28.3-44.4 59.6 10.3 33.1 35.6 63 100.6 96.3 39.6 20.3 71.4 10.6 96.8-2.3 25.3-12.9 80.9-50.1 80.9-50.1"/></svg>