<svg version="1.1" id="Calque_1" xmlns="http://www.w3.org/2000/svg" x="0" y="0" viewBox="0 0 500 375" style="enable-background:new 0 0 500 375" xml:space="preserve"><style>.st1,.st2{fill:none;stroke:#fff;stroke-miterlimit:10}.st2{stroke-width:.5}</style><g id="Calque_2_00000127034320442582251360000015878651763103112065_"><path class="st1" d="M0 245.6c6.8 3 24.9 18.5 37.3 68.4 8.5 3.1 381.5-2.4 387-1.8-1.8-35.7 33.7-85.3 75.7-94.1M500 44.4c-74.8-5.8-213.6-3.6-256-1.3-20.5 1.1-56.4 2.8-95.9 14.4C91.9 73.9 19.9 118.8 0 134"/><path class="st1" d="M0 335.1c9.3-5 28.4-22.6 33.4-35.1M427.9 288.2c.9 5.4 2.1 11.7 7.3 19.4 5.2 7.7 17.8 22.3 23.4 25.8 4.9 3.1 20.5 13.9 41.5 11.6M44.4 162.5c-.3 2.3-.6 3.7-.6 4.5.4 1 8.6 6.1 10.8 6.8s11.4 1 11.6 0-1.2-12-.7-12.2c.6-.1 5.1-.4 5.8-2.2.9-4.9-2.6-28.5-4.8-30.4-2.2-1.9-3-1.7-6.9-.8s-18.5 5.2-20.2 8.7-1.6 14.7-1.4 15.7c.4 2.4 1.3 4.3 1.9 5.4.8 1.3 2.2 3.1 4.5 4.5zM174.4 170.4c.1 4.2 12.1 3.4 12.1 3.4l21.5-.7s12.1.1 13.1-1.3c.9-1.4 1.3-5.4.5-7.4-1.5-1-47.4-.6-47.2 6zM290.9 162.3c.3 2.2-5.3 4.1-11.1 4.6s-22.7 2.3-22.7 2.3-12.1.9-12.9.3c-1.3-2.6-1.5-5.1-.5-7.1 1.2-1.3 46.5-5.1 47.2-.1zM284.7 41.7c9-5.7 34.7-7.8 42.6-8.3 7.9-.6 73.1-1.2 86.7-.8 13.6.4 86 3.3 86 3.3"/><path class="st1" d="M500 40.4s-85-3.3-100.8-3.3c-6.1.1-53.4.3-56.9.3-3.3 2.9-4 3.5-4 3.5"/><path class="st2" d="M60.5 314.8c-17.1-41.3-39.1-84.4-38.7-116.7.2-16.6 17.9-74 20.1-78.9 2.2-4.9 69.7-41.3 102.3-50.2 35.8-10.1 75.9-13.5 91.2-14 52.3-3.2 189.1-1.6 201.7-1.1 12.6.4 48.6 2.3 62.9 3.6"/><path class="st2" d="M71.8 156.7c88.2-4.4 294.6-20.1 428.2-23.5M30.2 157.3c.7.5 3.6.7 9.6.6"/><path class="st2" d="M237.9 54.8c0 19.8-3.9 67.8-4.7 92-1.2 35.3-2 150.1-.7 167.2M437.4 53.8c11.6 30 18.3 55.3 26.5 81.3 26.3 27.7 10.8 55.6-62.7 177.2M64.8 127.9c-2-.3-8.7 5.1-9.1 8s2.2 21.8 4.1 23.6c1.8 1.8 5.2 1.8 5.8 1.8M44.8 162.4c3.5 1.5 15 .5 16 1.4 1 .8 4.5 9.2 4.8 10.1"/></g></svg>
