<svg version="1.1" id="Layer_1" xmlns="http://www.w3.org/2000/svg" x="0" y="0" viewBox="0 0 500 375" style="enable-background:new 0 0 500 375" xml:space="preserve"><path fill = "none" stroke="#fff" stroke-miterlimit="10" stroke-width = "1.0006" d="M0 289c21.4 1.2 44.9.2 67.1-2-6.4-43.7-22.5-81.3 4.1-137.8s88.2-133 221.6-119.8c48.2 4.7 88.6 38.1 108.5 63.7 37.7 48.3 37.6 109.2 28.7 151.5l-2.8.6v7.2l6.9 7.8L487 255l12.9-1.3"/><path fill = "none" stroke="#fff" stroke-miterlimit="10" stroke-width = "1.0006" d="M248.2 52.3c-96.2 4.3-162.8 84.3-153 167.8 10.7 91.6 77.7 136.9 160.2 134.1 72.8-2.4 153.2-69.4 149-160.9-3.8-83.2-83.4-144.2-156.2-141zM462.6 0c.4 38.7 2.2 76.7 4.6 102.5 5.6 59.4 11.6 108.4 19.8 152.2"/><path fill = "none" stroke="#fff" stroke-miterlimit="10" d="M427.3 245.1c-3-6.8-18.2-14.1-25.8-15.1M67.1 287c-.2-9.4 10.3-35 32.3-43.3"/></svg>
