<svg version="1.1" id="Layer_1" xmlns="http://www.w3.org/2000/svg" x="0" y="0" viewBox="0 0 2048 1536" style="enable-background:new 0 0 2048 1536" xml:space="preserve"><style>.st0,.st1{fill:none;stroke:#fff;stroke-width:4.5537;stroke-miterlimit:10}.st1{stroke-width:2.2769}</style><path class="st0" d="M177.1 440.1c10.2 4.7 14.9 45.7 13.1 55.2l8.5 13.1c-2.1 6.1-9.2 27.5-9.2 27.5-8.2-4.9-26.6-25.6-26.6-25.6-10.7 0-36.2-.5-48.3-1.6M127.8 614.7c-14.9 3.6-21 10.5-25.4 24.3s-3.7 61.7 10.5 109.4c14.2 47.6 40.3 103.2 68.2 101.1 29.8-2.3 52.4-9.4 52.4-9.4"/><path class="st0" d="M100.7 681.7c-2.8-7.9-13.4-76.6 1.9-88.8 21.8 4.6 53.1 65.7 62.7 98.8s32.6 99.3 42.9 118.7l-5.3 6.8L619 1110.6l22.7-8.5c-17.3-33.5-45-116.6-29.3-168.7 15.7-52 50.2-86.3 113.5-64.1s117.4 103.1 155 163.6c37.6 60.5 75.4 169.9 88.7 273.6 67.2 31.7 228.8 93.4 256.6 101.3s36.2-6.5 36.2-6.5c66 16.4 166.7 22.3 198 17.9 31.3-4.5 112.7-42.2 128.5-50.1 15.9-7.9 11.9-15.9 42.7-34.7 30.8-18.9 111.1-72.4 184.4-147.1s95.8-151.5 88.1-183.9c11.3-27.5 15.3-67.1 13.3-85.8-2-18.6 7-38.7-5-71.4 18.1-49.8 33.7-132.3 35.7-145.4s5.3-23.7 0-38.3c7.1-9.2 13.2-16 14.2-28.5 1-13 .4-28.5-2.3-41.1 5.3-7 10.3-19.7 5.5-30.5s-66.9-47.4-87.4-71.6c-26.6-48.5-80.3-124.6-92.9-144.7s-15.9-54.6-9.8-62.5c13.1-3.3 21.2-6.6 28.4-11.7 4.4-3.1 2.2-12.7-9.5-15.3-11.7-2.6-146.4-17-175.4-20.7-17.2-11.4-51.9-24.2-65.3-26.9-13.5-2.7-71.7-4.7-71.7-4.7l-.7-26.6c-17.2 2-45.8 5.1-54.9 8.4-9.1 3.4-29 16.2-29 16.2-49.3 0-148.8 1.7-148.8 1.7-23.2-11.4-52.2-22.9-80.8-26.3-28.6-3.4-255.1-2.2-321.2.5-43.2 1.7-149 3.6-223.8 17-39.9 7.2-69 23.8-79.1 31.1-57.8 5.4-145.7 19.6-175.3 34.6-99.8 50.5-169.3 150-191.5 179.3-21.9-1.5-67.5 4.9-89.4 10.5-4.7 1.2-8.5 4.7-10.1 9.4-3.8 10.9-6.2 29.5 3.5 40.2 6.9 7.5 33.6 8.5 33.6 8.5-8.8 21.5-25.8 55.8-31.3 76.7s3 80.3 19.6 117.8"/><path class="st0" d="M775.2 898.7c-41.5 9.8-99.7 30.9-116.2 56.8-16.5 25.8-39.9 126.2 10.6 237.6 51.2 112.9 130.8 188.8 191.2 165.6 51-19.6 107.4-63.8 107.4-63.8M265.8 548.5c4.3-.3 24.7.3 36.3 2.6 9.5 1.9 5.7 20.4-2.3 19.5s-31.9-9.4-35.2-10.7c-5.4-2-4-11.1 1.2-11.4zM329.4 554.3c-9.2-.6-11.9 15.5-4.1 17.8 11.6 3.4 24.9 4.6 38.6 5.9 12.9 1.2 16.9-9.3 7.2-14.9-9.6-5.6-30.9-8.1-41.7-8.8zM1785.4 346.2c-10.8-15.9-34.2-48.2-42.1-53.4-46.1-3.1-231.9-7.8-372 3.3-73.7 5.9-116.1 18.7-155.9 31.2 37.5 94.1 95.5 220.9 177.2 262.5 116.1 28.3 317.3 24.7 418.8 0s91.9-57 66.9-98.9M1095.8 221.9l-24.3-27.5c-177.2-4.1-345.6 1.8-427.5 11.5l-6.4 12.9c160.2-4.3 326.4-2 458.2 3.1zM1303.9 819.6c-47.9 27.1-123.7 171.6-148.4 296.9l27.1-9.6c41.5-86.2 95-162 163.6-200.3 75.8.8 151.6-2.4 191.5-12s120.9-81.5 174.8-96.5c17.6-4.9 41.2-44.8 37.6-57.1-120 2.3-254.1 4.1-342.7-3.2s-195.2-27.5-231.6-26.9c-36.5.6-63.8 6.8-80.8 15.7-29.7 15.7-34.2 42.6 0 49.9s149.8 29.6 208.9 43.1zM193.4 500.2c240.7 14.4 695.4 84.7 877.6 109.5 21.1 2.9 43.1-1.1 60.3-22.4 17.2-21.3 31.1-50.8 7.4-82.7S986.3 339.1 956.8 317s-49.9-36.5-118-41.8c-122.9-9.4-286.8-18.5-421.9 0-68.3 9.3-98.3 28.8-138.1 63.3-40.5 35-79.9 81.4-96.3 108.2"/><path class="st1" d="M714.8 267.3c-11.2 28-37.4 197.4-36.6 287-24.4 29.4-31.1 70.2-28.1 99.9s8.9 60.9 4.5 71.3c-4.5 10.4-41.2 83.7-55.7 135.2-16.3 58-17.8 141.2 0 235.5M408.9 276.3c-8.6 23.2-55.2 186.7-66.5 236.6-13 15.8-32.7 49.9-32.8 80.8-.1 37 17.7 131.9 35.5 186.9 2.3 7 3 14.4 2.2 21.7-2.4 21.3-4.2 39.6-2.2 47.1 2.4 8.9 19 45.8 14.1 77.9M1215.4 327.2c-10.3-25.3-15.7-53.3 5.2-69.6s36-25.1 80.4-26.8 240.6-3.7 318.1 5.2M1171.7 1388.5c62.5-9.4 176.5-103.2 266.5-134.6 42.6-14.8 59.7-21 59.7-21 4.7 4.3 11.7 5.3 40.8-5.4 114.8-42.2 200.8-97.1 255.5-142.2s103.1-105.9 123.7-163.9M1719.1 794.9c82.8-26.9 199.6-79.3 229.1-132.4"/><path class="st1" d="M1464.3 904c4.6 5.9 9.4 20.4 9.4 20.4-8.6 17.1-15.5 57.3-16.7 73.7-5.5 73.7 40.6 208.3 40.9 234.8"/><path class="st0" d="M1852.5 526.3c-18.8 2.5-154.8 36.8-171.1 43.6l3.6 8.8c65.1-7.3 156.4-19.3 167.5-23.1 12.3-4.2 19.2-9.1 20.6-11.4 2.6-4.3-2-16-6.8-17.3s-8.7-1.3-13.8-.6zM1268.6 217.7c89 .7 264.6 8.5 355.6 18.8"/><path class="st0" d="M1248.5 204c16.7 11 37.2 25.3 37.2 25.3l-189.9-7.4M543.6 226.3c30-3 64.4-5.4 94-7.5M1085.1 209.8c-17.6 1.8-60.9 6.1-84.3 9.1M1397.3 202.3s-12.5 9.1-21.7 17.5M1481.9 204.3c0 6.8 6.3 14 5.7 21.2"/></svg>