<svg version="1.1" id="Layer_1" xmlns="http://www.w3.org/2000/svg" x="0" y="0" viewBox="0 0 2048 1536" style="enable-background:new 0 0 2048 1536" xml:space="preserve"><path fill = "none" stroke="#fff" stroke-miterlimit="10" stroke-width = "4.5537" d="M644.8 813.2c-137.6 72.1-222.4 256.1-158.6 418.3s203.2 272.5 391.9 263.4 273.4-155.9 303.5-273.4c30.1-117.6 7.6-244.9-74.7-340-82.9-95.7-251.6-178.6-462.1-68.3z" transform="matrix(-1 0 0 1 2048 0)"/><path fill = "none" stroke="#fff" stroke-miterlimit="10" stroke-width = "4.5537" d="m0 1211.1 391.6 33.6 26.2-22.1c-55.7-180.1-35.1-289.2 21.3-374.9 57.3-87.1 184-211.9 421.6-180.1 221 29.6 328.6 209.8 362.5 265.4 33.9 55.6 69 192 66.6 319.2 116-3.6 338.7-26.2 396.5-31.4 60.6-5.5 75.9-33 75.9-33 42.3-5.8 155.1-46.1 177-68 28.9-28.9 23.7-59 18.6-76.9-5.1-18-9.6-29.5 0-52.6s18-82.1 8.3-118-38.5-135.9-37.8-163.5c.6-27.6 42.1-151.5 22.5-259.4 17.6-27.2 39.6-60.2 38.2-78.5-1.5-18.3-2.9-71.2-13.9-78.5-11-7.3-38.2-17.6-38.2-17.6-5.9-27.2-47.2-59.5-71.9-79.3-65.4-52.3-132.2-141.3-171.8-195.5" transform="matrix(-1 0 0 1 2048 0)"/><path fill = "none" stroke="#fff" stroke-miterlimit="10" stroke-width = "4.5537" d="M0 269c281.6-22.1 1337.7-80.9 1406.6-88.7 54.1-31.4 73.9-74.5 47.9-102.5S1358.7 8.7 1327.4 0M1950.8 449.3c-10.7 17.7-14.7 24-37.9 23.7-23.2-.3-59.9-3.1-59.9-3.1-37.1 49.9-125.3 165.3-174.7 310.1-6.6 9.1-36.3 30.7-36.3 30.7 26.7-133.7 119.2-395.5 145.8-445.7-104.3 3.9-247.1 11.2-313 14.8-54.1 3-40.1-44.6-23.6-59.1 41.5-36.4 88.2-56.1 150.3-62.7 47.6-5.1 188-10.7 280.7-2.8 26.2 2.2 43.8 15.1 54.8 19.4" transform="matrix(-1 0 0 1 2048 0)"/><path d="M502.2 0c-.9 48.3 23.6 214.6 26.4 234.6s7.3 190 10 213.7c2.7 23.6-4.5 46.4-28.2 82.8S369 809.4 345 921s-16.7 263.2-10.8 318.8" style="fill:none;stroke:#fff;stroke-width:2.2769;stroke-miterlimit:10" transform="matrix(-1 0 0 1 2048 0)"/></svg>
