<svg version="1.1" id="Calque_1" xmlns="http://www.w3.org/2000/svg" x="0" y="0" viewBox="0 0 500 375" style="enable-background:new 0 0 500 375" xml:space="preserve"><style>.st1,.st2{fill:none;stroke:#fff;stroke-miterlimit:10}.st2{stroke-width:.5}</style><g id="Calque_2_00000003089164346739707450000005479358294454576045_"><path class="st1" d="M469 156.8c1.3-3.3 7.1-18.7 8.1-23.3s4.7-27.6 4.9-32.1c0-2.4-1-6.7-1.6-8.3 0-1.3 1.2-4.1 1.2-6.1-.4-1.4-5.2-4.3-6.1-7.8-1.2-4.5-9.2-30.5-10.4-33-1.2-2.5.5-2.6-12.4-7.4s-45.9-9.1-68.5-9.1c-13.9-.5-120.2 4.4-131.3 6.1-6.5 1-21.7 3.9-36.9 10.3-17.1 7-61.5 36.3-79.7 51.4-6.4 3.5-45.6 10.7-72 24.2-8.6 5.9-25.5 24.7-27.7 28.5-7.9 13.4-7.3 16.5-7.8 18s-9.8 6.1-11.4 16c-1.8 11.5 3 21.9 6.8 27.7s6.1 28.5 4.8 28.9c-1.3.3-5.6 3.5-5.4 6.9 2 56.6 70.6 87.6 83.2 94.2s47.2 8.1 67 6.8 47.7-18 48-21.1 4.9-63.7 33.7-97c25.1-28.9 45.9-31.5 54-27.9 8.9 4 14.4 15.2 14.7 29.9.3 14.7-5.3 26.9-5.8 29.4s4.8 3.8 4.8 3.8l119.1-82c4.4-19.1 15.1-44.5 19.3-51 4.5-6.9 8.2-11.4 10.9-7.3 3.2 4.9 0 20.7-2.6 27.5"/><path class="st1" d="M29 240.7c.8 4.4 5.5 22.2 11.5 30.4s20.4 32.3 80.1 51.9c6-8.1 12.8-19.3 11.3-23.9-1.9-7.6-28.8-37-41.1-47-12.4-8.7-44.4-10.2-69.3-44.7M223.7 311s20.3 15.5 21.9 16.1c1.5.5 6.3 4.9 16.6 3.1s20.8-6.6 31.5-20.7 19.5-28.6 22.5-46.2 1.9-29.4-2.7-37.8c-5-9.3-12.4-12-17.1-13.8-4.5-1.8-13.8-4.4-13.8-4.4M432.3 190.4s11.9 3.2 13.8 3.4c1.1.1 4.5.7 6.6-.9 1.2-.9 4.9-3.9 10.5-15.5 2.6-5.3 6.5-21.9 6.9-27.6.4-6.7.5-12.5-1.8-14.4s-6.9-2.7-6.9-2.7M288.8 33.4c3-1.6 10.5-2.5 13-2.6 2.4-.1 18.7.7 20.4 1M384.2 29.7c2.4-2.9 9-3.9 11.6-4.2s13.7-.8 23.2 1.2 25.2 5.9 27.3 7.1c2.1 1.1 3.4 4 3.4 4"/><path class="st1" d="m405.4 30.4 1.2-2s14.5 1.6 20.4 3.1c5.9 1.6 10.9 2.8 14.1 4.1M91.1 207.3l59.6-3.1s-6.1 10.2-11.3 13.6c-5.2 3.5 41.7-3.7 64.6-16.1 10.7-5.9 53.6-34 55.3-49.2-25.4 12.5-32 14.1-50.3 19.8-19.2 6-82.8 16.9-88.2 17.1-5.5.2-25.1 9.1-29.7 17.9zM347.6 122.5l-8.3 8.9s.2 3.1.6 3.4 6.4 4.3 8.6 4.3 3.6-.5 4.4-1.2c.8-.6 5.7-8.8 7.1-9.2s22.6-1 26.5-1.9c4-.9 12.6-5.1 13.2-6.7s-.4-13.5-2.2-15.8c-1.9-2.3-29.8-7-36.6-5.2-6.7 1.8-14.6 10.5-15.1 19.8 0 1.3.7 2.7 1.8 3.6z"/><path class="st1" d="M394.6 124.2c.2.4.6.7 1.1.8.8.2 2.2.1 2.8 0s9-3.1 10.3-3.9c1.6-.9 2.1-1.7 2.3-2.2.2-.4.3-2.7-.9-3.3-.9-.5-2-.7-6.2.8s-4.2 1.8-4.2 1.8M413.9 112.6c-.2 1.1.3 3.9 1.6 4.5 1.3.6 8.8-3.9 9.9-4.7.6-.4 2.1-1.3 2.2-2.6-.1-.5-.3-1.6-1.9-1.5-1.5.1-8.2 1.8-9.3 2.2-.9.5-2.4 1.5-2.5 2.1z"/><path class="st2" d="M28.8 168.2c1 21.1 41.2 23.2 91.1 21.2M120.9 323.2c5.4 1.3 46.1 4.8 51.8 2.9 3.1-1.6 4.6-5.2 4-5.7s-5.3-3.2-7.3-3.4c-2-.2-39.4-2-42.7-3M218.2 46.6c-14.6 5-76.9 48.5-86.1 57.2s131.5 24 137 23.4c5.5-.7 20-5.9 23.2-9 11.6-10.4 31.2-45.5 49.7-71.6-.2-3.3-4.8-3.5-7.7-3.5-2.7.1-105.4 0-116.1 3.5z"/><path class="st2" d="M259.5 152.1c.5-5.5 8.9-22.3 11.8-25.2M267.9 34.9s-17.2 2.3-18.2 3.1c12-1.3 68.6-4 77.3-3.4 4.6-.8 9.2-2.4 17.4-3.4M398.3 106.2s68.1-24.3 72.6-25.6c.9-.6 1.5-4.8 0-8.6-1.5-3.7-12.6-22.4-18-25.3s-34.9-6.8-61-5.7c-17 .8-31.9 8.6-34.8 11-9.1 7.6-36.5 46.4-38.9 65.2.5 4.1 10.6 13.7 13 13.7s10.1-3.9 13.3-4.9M331.3 130.9c8 20.3 7.3 89.3 1.8 127.8"/><path class="st2" d="M390.9 41.1c4.7 12.8 14.2 56.9 15.5 62.2 17.4 13.9.3 63.5-8.8 111M440.5 43.7c6.4 10.9 12.5 34.8 13.4 42.8 14.4 13-.6 63.2-17.4 101"/></g></svg>
