<svg version="1.1" id="Layer_1" xmlns="http://www.w3.org/2000/svg" x="0" y="0" viewBox="0 0 500 375" style="enable-background:new 0 0 500 375" xml:space="preserve"><path fill = "none" stroke="#fff" stroke-miterlimit="10" stroke-width = "1.0006" d="M123.6 258.6c25.3 64.3 77.1 99.8 151.9 96.2 74.8-3.6 111-57.1 119.6-104.9 8.5-47.3 3.7-100.5-28.9-138.2-33-37.9-110.4-64.5-183.2-27.1-60.6 31.2-84.7 109.7-59.4 174z"/><path fill = "none" stroke="#fff" stroke-miterlimit="10" stroke-width = "1.0006" d="m0 248.6 59.9 5.1 22.7 1.9 10.4-8.8c-22.1-71.4-8.6-117.7 12.9-152.2 25.3-40.7 87.1-75 162.6-67.7 88 8.5 125.7 68.2 143.6 100.5 12.5 22.6 27.4 80.8 26.4 131.2 16.6-.5 38.8-2 61.4-3.8"/><path fill = "none" stroke="#fff" stroke-miterlimit="10" stroke-width = "1.0006" d="M59.9 253.7c-2.3-22.1-5.2-82.1 4.3-126.3C71.1 95.2 97.7 35.6 115.3 0M438.6 258.6c-7.4-16.1-25.5-28.6-40.5-32M93 246.9c.2-7.7 12.5-21.1 21.7-23.7"/></svg>
