<svg version="1.1" id="Layer_1" xmlns="http://www.w3.org/2000/svg" x="0" y="0" viewBox="0 0 2048 1536" style="enable-background:new 0 0 2048 1536" xml:space="preserve"><path fill = "none" stroke="#fff" stroke-miterlimit="10" stroke-width = "4.5537" d="M1504.7 0c-73.9 33.5-341.3 172.3-472.5 260.2-140.1 24.2-485.5 54.8-670 132.4s-199.8 142.6-190.9 219c-30.5 37-97.3 64.4-114.4 93.9s2.7 68.1 15.2 97.6 43 149.6 46.6 176.5c-13.4 23.3-28.7 61.8-20.6 86.9-27.8 46.6-58.4 78.3-47.8 108.4 12.3 35 30.2 73.9 87 108.6 65.1 39.8 200 43.2 320.5 31-15.7-107.7-55.5-200.2 10.1-339.4S685 647.5 1013.8 680c118.8 11.7 218.2 93.9 267.2 156.8 92.8 118.9 92.6 269 70.8 373.1l-6.8 1.4v17.7l17 19.1 686-66.9" transform="matrix(-1 0 0 1 2048 0)"/><path fill = "none" stroke="#fff" stroke-miterlimit="10" stroke-width = "4.5537" d="M903.9 736.6C667 747.2 502.9 944.2 527 1150c26.4 225.5 191.4 337.1 394.5 330.4 179.2-5.9 377.4-170.9 367.1-396.2-9.3-205.3-205.3-355.5-384.7-347.6zM171.4 611.7c17-14.4 63.8-39.7 80.7-43.8-2.9 12.9-41.5 37.4-50.9 52C381.8 568.4 582 491.8 665.6 453.1s128.2-97.4 128.2-97.4c-171.8 16.9-302 32.7-425.9 67.9-66.6 18.9-133.2 53.6-172.6 77.6" transform="matrix(-1 0 0 1 2048 0)"/><path fill = "none" stroke="#fff" stroke-miterlimit="10" stroke-width = "2.2769" d="M793.9 355.7c32.6-20.4 75.6-53.4 101.1-75.6M117 1082.9c-4.7 6.7-11.8 30.3 7.1 49.2 18.9 18.9 70.4 51.9 70.4 51.9s7.5-18.9 8.7-27.5c-10.2-16.5-25.1-34.1-35-40.4s-33.1-21.4-51.2-33.2z" transform="matrix(-1 0 0 1 2048 0)"/><path d="M1040.5 254.7c45.8.3 128.5-30.6 201.9-84.1C1315.7 117.1 1477.6 22.1 1523 0" style="fill:none" transform="matrix(-1 0 0 1 2048 0)"/><path fill = "none" stroke="#fff" stroke-miterlimit="10" stroke-width = "4.5537" d="m1580.5 276.9-19-22.1s9.5-41.4 29.5-61.3c41.6-41.6 93.9-74.7 192.5-93.5s141.6-17.1 155.6-14.3c14 2.7 31.7 76.5 29.4 103.1 2.7 7.9 4.8 15.7 3.1 18.8s-24.9 36.5-51.5 46.4-123.7 42.1-208.3 61c-31.4 7-55.3 86.2-55.3 86.2-30.9 4.7-55.3 5.6-81-8.9-25.8-14.5-50.6-27.6-50.6-27.6l-2-18.7c.1-.3 33.1-42.4 57.6-69.1z" transform="matrix(-1 0 0 1 2048 0)"/><path fill = "none" stroke="#fff" stroke-miterlimit="10" stroke-width = "2.2769" d="M1638.3 0c-63.6 30.6-294.9 188.4-316.1 214.1-17.4 21.1-12.6 36.8 24.3 62.8 32.6 23 66.2 46.7 78.5 51.3 12.3 4.6 28.5 6.9 55.3 5.6 27.6-1.3 54.9-3.6 54.9-3.6M1703.8 318.2s287.1-15.5 344.2-20.6M1448.8 334.2c-5.5 7.5-10.2 41.3-11.4 58.6-10.5 144.6-4.9 353.7 6 467.5 13.9 146.4 28.7 267 48.8 374.9" transform="matrix(-1 0 0 1 2048 0)"/></svg>
