<svg version="1.1" id="Calque_1" xmlns="http://www.w3.org/2000/svg" x="0" y="0" viewBox="0 0 500 375" style="enable-background:new 0 0 500 375" xml:space="preserve"><style>.st1,.st2{fill:none;stroke:#fff;stroke-miterlimit:10}.st2{stroke-width:.5}</style><g id="Calque_2_00000050649157262345413250000014196142665619793599_"><path class="st1" d="M40.2 0C35.3 2 6.2 25.5 0 36.8M407.5 0c-2 2-3.1 3.3-4.2 4.6 2.3 4 34.1 42.6 35.2 44.1s28.7 9.4 29.4 17c.5 2-5.9 15.5-8.1 19.3.1 1.7 6.3 5 8.9 7.7 1.4 11-5.3 53.3-10.3 76.8-.4 7.5 4 20.4 4.4 31.1s-1.6 32.8-2.9 38.6c-4.9 29.5-120 107.1-185.1 114s-93.3-3.9-102.8-6.8c-7.8-2.4-58.7-22.3-60.9-25.6-5.4-26.4-20.9-80.2-33.5-107.4-11.9-25.5-27.4-55.2-40.4-48-17.6 8.6-12.6 55.2-11.1 60.9 6.2 23.8 8.2 25.2 8.2 25.2M36.4 268.4C32 264 5 238.7 0 232.9"/><path class="st1" d="M462 193.3c-2.6 10-9.7 21.3-27.7 30.7-37.5 19.5-133.4 52.3-144.4 46.4-8.2-8.2-24-91.6-23.5-102 1-25 17.8-63.8 18.9-76.4 1.1-13.6-.8-28.9-2-31.2-3-4.2-23.5-8.4-46.2-9.3 1.5-3.1 4.9-36-1.5-51.5M467.8 111c-4-4.3-7.1-23-8.1-26.2"/><path class="st1" d="M387.1 82.3c-6.6 10.7-10.9 14.8-18.3 16.6-7.4 1.8-16.4.2-20.7 1.8-4.3 1.6-44.9 22.4-50 23-5.5.7-76.9 2.7-84.7 3.1s-35.1 1.2-36.3 0 28.1-36.2 24-35.5c-5.5-.4-53.7 9.2-65.7 6.8-6.7-4.2-.9-21.9 8.2-28.7 7-5.3 47.4-22.7 121-16.6 69.8 7.7 117.9 23.1 122.5 29.5zM127 328.7c-4.4 3.2-12.8 7.5-20.1 10.5-4.7 1.9-24 11.1-31.2 8.3-11.5-5.3-25.1-26.5-31.7-48.1-10-28.4-11-63.7-11.6-71.8-.2-16 4.7-31.5 10.5-35.2 4-2.6 17.5-5.7 21.5-4.9"/><path class="st2" d="m446.2 137.6 3.9 23.8-48.5 12.5-5.7-30.7zM356.3 266.8l-2.8 6.7s-56.3 16.2-57.2 16c-.9-.2 3.5-6.5 5.8-7.5s54.2-15.2 54.2-15.2zM438.6 48.8C418.8 41.7 378 36 371.3 34.6c-42.6-11.3-93.5-21.1-133.4-27.9-8.1-3.1-11.8-4.7-13.6-6.6M143.1 0c10.7 12.4 14.7 16.6-3.5 43.8C90.8 57.4 25.3 75 0 87.3M51.9 0C39.7 4.2 8 31.7 0 41.5"/><path class="st2" d="M61.3 0c-2 6.1-14.9 43.9-16.9 71.1-5.6 4.7-20.3 13.8-10.7 49.8C35.5 139.7 9 142 25.9 258.3"/></g><path class="st2" d="M370.6 98.6c7.6.3 91.5 6.9 94.6 7.5"/></svg>
