<svg id="VGv4m3" data-name="front" width="500" height="375" fill="none" xmlns="http://www.w3.org/2000/svg">
  <g clip-path="url(#VGv4m3-a)">
    <g clip-path="url(#VGv4m3-b)" stroke="#fff" stroke-miterlimit="10">
      <path d="M157.76 25.895s10.826-5.413 34.102-8.66h125.222s20.094 3.247 30.525 8.66l40.75 71.454s55.214 49.801 62.792 69.288c0 0 31.397 48.177-3.247 167.266 0 0-35.727 24.359-91.482 23.817h-209.44s-56.886 2.166-94.778-27.065c0 0-32.48-116.383-4.33-160.77 0 0 17.862-33.02 66.039-71.454 0 0 28.69-59.003 43.847-72.536Z" stroke-width="1.624"/>
      <path d="M157.761 31.85s95.271-17.864 187.294 0c0 0 30.314 42.222 34.103 66.58 0 0-187.733 17.323-256.258 0 0 0 11.043-37.891 34.861-66.58ZM51.66 168.8l9.203-2.706 58.461 32.479s10.285 16.78 9.203 32.478c0 0-51.966-5.954-69.288-5.954 0 0-20.57-4.872-7.579-56.297Zm397.435 0-9.203-2.706-58.461 32.479s-10.285 16.78-9.203 32.478c0 0 51.966-5.954 69.288-5.954 0 0 20.57-4.872 7.579-56.297Zm-329.771 29.773 6.496-4.331s184.929-9.202 249.713 0l5.895 4.331m-57.254 96.357H175.08v28.148h149.094V294.93Z" stroke-width="1.624"/>
      <path d="m175.082 294.929-2.16-5.413h153.56l-2.306 5.413m2.306-5.413v36.841l-2.306-3.28m2.306 3.281h-153.56l2.16-3.28m-2.168-33.562v36.841" stroke-width=".541"/>
      <path d="m372.229 231.051-30.633 38.974H160.473l-31.938-38.974m44.383 85.203h-31.829s-21.285 16.873-31.808 38.103M326.48 316.25l33.73-.211s27.228 24.121 33.372 38.314m-7.498-260.987 36.918-4.135s1.082 4.33-5.414 5.413l-26.167 5.51" stroke-width="1.624"/>
      <path d="M390.795 92.838 389.441 75.7s2.961-6.496 25.837 0l7.725 13.532M115.39 95.457l-32.333-4.601s-2.165 5.413 11.91 7.037l17.381 1.797m-29.291-8.837 7.037-12.45c11.367-5.414 25.295-3.611 25.295-3.611l-4.184 19.85m270.227 213.295s59.095-9.555 78.49-26.167" stroke-width="1.624"/>
      <path d="m382.881 307.695 26.048 22.963s23.228-1.624 43.846-14.616M42.389 285.793s37.54 17.831 75.101 22.145c0 0-19.817 18.405-24.147 22.194 0 0-30.704-5.711-45.395-16.662" stroke-width="1.624"/>
    </g>
  </g>
  <defs>
    <clipPath id="VGv4m3-a">
      <path fill="#fff" transform="translate(21.898 16.426)" d="M0 0h456.755v342.189H0z"/>
    </clipPath>
    <clipPath id="VGv4m3-b">
      <path fill="#fff" transform="translate(35.586 16.426)" d="M0 0h429.418v342.153H0z"/>
    </clipPath>
  </defs>
</svg>
