<svg width="500" height="375" fill="none" xmlns="http://www.w3.org/2000/svg"><path d="M121.17 89.12s26.37-58.24 33-64.43c0 0 8.6-11.18 31.53-14.33 0 0 59.58-8.07 127.15 0a52.147 52.147 0 0 1 30.729 15S373.7 80 373.85 88.13c0 0 87.6 70.93 78.42 161.73l-16 61.91-68.33 44s-116 16.05-238.47 0L61.55 315l-19.26-64.2S29.9 160 121.17 89.12Z" stroke="#fff" stroke-miterlimit="10"/><path d="M125.55 79.59c0-.1-.54-14.2-.54-14.2l-6.08-2.64s-14.16.4-21.61 7.8L98.58 77l5 7.16a108.724 108.724 0 0 0 15.93 6.3M371.75 81.14l.42-15.14 6-3.1S394.72 63 400 71l-1.6 6.42-5.05 7-16.49 6.23M171.15 304.66h152.03l-2.75 26.14H175.05l-3.9-26.14ZM90.9 251.39l31.56-29s158.21 14.22 249.29 0L400 248l-21.78 33.24-11.92 4.36s-142.35 11.92-240.74-1.83l-10.8-5.05-23.86-27.33ZM371.75 222.34s68.41-30.84 71.33-38.27l3.84 25.93-3.05 7.34S429 237.48 400 248M122.46 222.34s-65.28-30.54-71.2-38.27M90.9 251.39s-34.4-20.94-42-38.07l-3.19-9.16M158 26.68l4.58-2.6S284 12.92 334 24.08l6.72 3.92s23.88 39.94 31 64.4c0 0-97.21 19.56-246.2 0 .03.01 23.16-58.08 32.48-65.72ZM408.251 285.48l14.37-16.05 26.29-18.19-6.91 26.59s-24.46 20.49-25.37 20.64c-.91.15-11.16.92-11.16.92l2.78-13.91ZM88.15 285.63l-14.37-16.05-26.3-18.19L54.36 278s24.46 20.48 25.38 20.63c.92.15 11.16.92 11.16.92l-2.75-13.92Z" stroke="#fff" stroke-miterlimit="10"/></svg>
