<svg width="500" height="375" viewBox="0 0 500 375" fill="none" xmlns="http://www.w3.org/2000/svg">
<path d="M7 93.3199L88.8 89.6599C88.8 89.6599 234 10.5699 255.08 4.85986" stroke="white" stroke-miterlimit="10"/>
<path d="M7 246.19C7 246.19 68 263.62 85.89 323.69L92.73 365L98.24 369.39L493 282.42" stroke="white" stroke-miterlimit="10"/>
<path d="M245.51 77.44C245.51 77.44 212.43 77.12 165.19 93.32C151.827 95.3131 138.34 96.3623 124.83 96.46L118 109.53C118 109.53 201.92 107.46 216.59 101.96C216.59 101.96 239.29 95.01 240.9 93.32L242.96 89.81L248.47 63.44L247.09 59.54C247.09 59.54 236.09 49.65 217.51 49.09C217.51 49.09 195.27 47.85 166.84 72.38L166.15 75.13L172.15 90.96" stroke="white" stroke-miterlimit="10"/>
<path d="M124.83 96.4599C124.83 96.4599 237.34 9.99986 293.6 4.85986" stroke="white" stroke-miterlimit="10"/>
<path d="M415.74 4.85986C415.74 4.85986 490.24 19.4899 493 22.6999" stroke="white" stroke-miterlimit="10"/>
<path d="M360.1 4.85986C360.1 4.85986 427.94 10.4699 492.96 27.8599" stroke="white" stroke-miterlimit="10"/>
<path d="M205.289 104.28C205.289 104.28 483.199 96.28 492.959 96.46" stroke="white" stroke-miterlimit="10"/>
<path d="M400 9.54004L401.64 14.48C401.64 14.48 406.15 71.15 405.23 96.48L410.35 104.31L413.91 132.14C413.91 132.14 412.53 133.06 412.53 136.73C412.53 136.73 410.53 188.44 400 256.73C400 256.73 398 273.24 400 287.15L400.34 290.36L391.58 304.75" stroke="white" stroke-miterlimit="10"/>
<path d="M35.8691 235.87C35.8691 235.87 88.3791 260 103.509 317.5L492.999 246.19" stroke="white" stroke-miterlimit="10"/>
<path d="M118 109.53L115.09 115.03L109.59 154.47C109.59 154.47 106.24 217.76 121 314.29" stroke="white" stroke-miterlimit="10"/>
<path d="M366.06 144.73C366.06 144.73 369.96 147.65 373.62 147.88L392.71 147.31L393.23 146.31L389.56 143.25L390.56 142.67C390.56 142.67 401.97 143.07 403.12 144.22L404.72 146.4L404.43 151.73L403.12 153.51C403.12 153.51 361.9 157.12 355.82 156.43L354 154.87L354.23 149.58C354.23 149.58 355.39 146.85 366.06 144.73Z" stroke="white" stroke-miterlimit="10"/>
<path d="M46 267C46 267 90.44 310 71 369.36" stroke="white" stroke-miterlimit="10"/>
</svg>
