<svg width="500" height="375" fill="none" xmlns="http://www.w3.org/2000/svg"><path d="M7.04 11.74s151.77-19.26 235.69 7.34c0 0 32.79 17.2 78.42 52.74 0 0 122 20.63 155 60.069 0 0 7.8 25 5.73 30.73 0 0 11.11 26.14 11.11 39 0 0-3.31 67-31.74 109.15 0 0-58.7 30-80.26 30.49 0 0-36 1.84-40.58 0l-2.45-1c1.07-15-4.13-42.28-4.13-42.28-4.2-21.67-20.26-45.3-45-62.83-27.81-19.69-59.25-26.46-82-19.9 0 0-37.69 10.67-16.14 56.3l2.53 4.35-186.18-90.42" stroke="#fff" stroke-miterlimit="10"/><path d="M299.581 344.257c14.861-14.049 7.736-45.721-15.916-70.74-23.652-25.02-54.873-33.913-69.735-19.864-14.861 14.049-7.736 45.72 15.916 70.74 23.652 25.02 54.873 33.913 69.735 19.864Z" stroke="#fff" stroke-miterlimit="10"/><path d="m337.25 321.399-15.21 27.14c-.43.54-.89 1.06-1.35 1.57-19 20.68-60 13.94-91.61-15.05-30.32-27.79-40.16-65.93-27-90.7a43.897 43.897 0 0 1 13.53-13.41l23.87-16.89M32.13 197.679a15.685 15.685 0 0 1-4.17 6.21l-20.92 7.49M250.04 23.14c-23.46-8.16-135.9 4-135.9 4s52.9 54.31 72.8 82.459l15.28 5.2s84.39 1.53 133.3-33.63l-.61-2.75s-3.51-4.31-12.53-6.36M7.04 19.31s67.39-9.4 94.9 16.29c0 0 17 9.8 65.13 79.189 0 0 2.06 6.34.91 9.09" stroke="#fff" stroke-miterlimit="10"/><path d="m139.09 110.599 4.24-12.73s-15.7-12.61-24.53-14.79a32.372 32.372 0 0 0-15.82 2.07s-20.07 6.5-26.49 13.15c0 0 5.39 17.31 13.19 18.57 0 0 3.78.81 21.21 1 0 0 31.3-.23 36.69 1.26l20.64 3.82" stroke="#fff" stroke-miterlimit="10"/><path d="M80.53 107.809a87.323 87.323 0 0 0 22.56 3.68l38.06-1.27 25.89 4.56M7 77.169l69.49 21.13M42.34 17.749s-5.07 48.56-.59 66.68l-4.93 7.56s-.91 19-2.29 20.87c0 0 8.26 45.4 17.43 66.5 0 0 1.46 26.24 4.17 30M7 170.419l177.39 81.06M140.7 78.459a118.828 118.828 0 0 0-3.88 14.51M480.51 148.149c-4.83 38-24.76 49.32-24.76 49.32l-72.23 11.47c-5.27 1.37-46.27-3.44-46.27-3.44l-8.76 1.1 1.53 7.42s18.65 24.53 31.49 29.43c0 0 40.66 4.89 80.1-2.76l21.4 7.34s23.91-25.83 22-77.65" stroke="#fff" stroke-miterlimit="10"/><path d="m455.75 197.469 1.76 6s-11 34.25-15.9 37.3M200.83 114.299l-1.2 2.46 12.41 19.49s153.86 50.45 171.51 72.69" stroke="#fff" stroke-miterlimit="10"/></svg>
