<svg width="500" height="375" fill="none" xmlns="http://www.w3.org/2000/svg"><path d="m490.56 31.599-80.86-12.15s-115.11-5.51-163.72 0l-47.72 3.51s-38.22 2.3-76.44 8.64l-6.11 5.73v4.59l11 14.06s-61.46 43.72-62.37 45.86c0 0-31.19 15.29-47.09 32.41 0 0-7 10.7-8.25 15.59l2.75 5.5s1.83 33.63 8.56 38.53l-9.78 18.95 2.44 19.57 10.7 16.81a47.7 47.7 0 0 0 13.19 35.47l7.3 6.11 45.25 18s-7.25-5.46-8.25-11.58c0 0-4.58-47.69 64.82-63.89 0 0 107.61-20.18 115.87 60.84v11l228.71-14.37" stroke="#fff" stroke-miterlimit="10"/><path d="M236.94 247.819s7.9 14.91 10.42 37.15l.79 6.33a44.507 44.507 0 0 1 1 9.27c0 31.91-34.17 57.78-76.32 57.78-42.15 0-76.35-25.84-76.35-57.78 0-1.47.07-2.92.21-4.36 0 0-.22-19.92 20.77-52.72" stroke="#fff" stroke-miterlimit="10"/><path d="M172.761 349.789c32.839 0 59.46-20.738 59.46-46.32s-26.621-46.32-59.46-46.32-59.46 20.738-59.46 46.32 26.621 46.32 59.46 46.32ZM90.75 309.399s2.06-13.07 5.73-15.25M247.16 282.909s11.25-.62 13.85 4.7M126.751 55.978l9.17 14.07-70.86 57.171s-35.1-3.21-10-20.43M19.79 131.699s-4 11.57 11.57 14.55c0 0 36 5 40.12 6.88l4.13 5.12v3.59s-21.55 28-25.91 31.42c0 0-20.07 4.84-34.69-12.14M115.74 37.33l4.81 5 34.4 15.18s37.33-13.3 92.21-17.89c0 0 174.35-11.92 243.45.46M135.92 70.049l19.03-12.54" stroke="#fff" stroke-miterlimit="10"/><path d="M243.832 39.91s-59.3 78.139-65.42 88.839l-2.71 5.69s-4.7 13.87-5.85 25.57c0 0 .23 14.9 11.93 45.4l5.31 11.27M393.881 34.509s16.59 85.73 16.89 98.57l4.59 7 8.56 30-1.53 5.2s-1.53 51-12.23 76.12l6.73 18-6.42 21.71-7.65 5.21" stroke="#fff" stroke-miterlimit="10"/><path d="M490.561 268.159c-6.43 4-218.44 6.73-218.44 6.73s-9.63-58.09-102.27-59.32c0 0-94.47 1.53-101.19 65.43 0 0-35.64.81-44.46-22M204.019 174.449v5.39l3.55 1.84 21.33-.69 2.18-2.41v-4.13s12.1 2.87 12.75 4.24c0 0 .89 5.41.55 6.32 0 0-19.95 6.41-55 .56 0 0-3.55-4.47-2.75-6.53-.04 0-.38-3.9 17.39-4.59ZM445.011 175.999a9.62 9.62 0 0 0 8.66 5.85s15 0 16.34-.46c0 0 2.12-1.49-2.41-4.87 0 0 10.15.57 11.92 3.55v4.3l-2.75 1.89s-15.88 4.3-45.34 0l-2.12-2.12v-6s3.78-2.94 15.7-2.14ZM178.41 128.749s307.75 6.26 312.15 4.89M224.271 48.95s186.179-15.9 266.289-1.22" stroke="#fff" stroke-miterlimit="10"/></svg>
