<svg width="500" height="375" fill="none" xmlns="http://www.w3.org/2000/svg"><path d="m6.93 30.65 80.3-13.76s172.43-8.25 290.29 13.76l8.26 6.88-11 15.13L439 100.82l45.86 33.47 6 15.14-8.26 44 8.26 20.64V232l-12.39 18.35-13.75 35.77L411.46 309" stroke="#fff" stroke-miterlimit="10"/><path d="M411.3 309.31c.586-3.331.88-6.707.88-10.09 0-38.91-39-70.46-87-70.46s-87 31.55-87 70.46a57.979 57.979 0 0 0 .36 6.48L6.93 291.13" stroke="#fff" stroke-miterlimit="10"/><path d="M327.75 359.47c42.94 0 77.75-28.027 77.75-62.6s-34.81-62.6-77.75-62.6S250 262.297 250 296.87s34.81 62.6 77.75 62.6ZM6.93 269.04l234.04 12.2M5.17 43s103.55-20.23 251.34-3.2l7.6 4.42c10.58 11.92 42.35 48.55 59.76 77.69 0 0 9.63 32 7.33 40.29l-20.63 66.56" stroke="#fff" stroke-miterlimit="10"/><path d="M5.17 133.68s222.6-2.67 320-7.15" stroke="#fff" stroke-miterlimit="10"/><path d="M106.181 33.51s-16.2 69-17.73 99L84.17 138l-8 30.88s-.61 51.36 12.23 82.55L82.63 273M374.77 52.66s-13.76 3.67-17 9.4l80.26 63.29S461 123 453.2 111.2M481.91 132.16s8.66 15.43-43.39 17L428 152.41l-3.67 6 24.5 31.59 4.54 2.75s24.7.15 31.18-10" stroke="#fff" stroke-miterlimit="10"/><path d="M256.51 39.8S330.29 43 357.8 62.06" stroke="#fff" stroke-miterlimit="10"/></svg>
