<svg width="500" height="375" fill="none" xmlns="http://www.w3.org/2000/svg"><path d="M269.14 5.17S214.87 38.75 212.27 42c0 0-159.89 14.83-176 41.43 0 0-6.87 12.38-7.79 37.15L18 131.08l-7.34 29.35s8.26 57.33 10.55 65.12c0 0 42.65 62.37 103.19 91.72 0 0 181.14 33 216 14.68l10.08-8.26s61.92-222.87 109.15-192.15c0 0 16.51 21.1 0 70.17l-3.24 8.76" stroke="#fff" stroke-miterlimit="10"/><path d="m420.73 151.2 26.19 6c13.37 9.54 15.16 59.56-4.44 115.58-20.59 58.88-50.23 102.09-66.19 96.51-.36-.13-.7-.28-1-.44l-56.45-32M453.77 229.93l39.93-31.74M32.5 93.6s80.72 11 119.85 9.2c0 0 191.69-19.63 228.08-9.2l1.83 3.18s-22.32 37.82-28.43 41.79c0 0-69.71 16.51-169.07 22l-53.51 22.93S38.31 167 23.33 142.55a53.218 53.218 0 0 1 5.2-22" stroke="#fff" stroke-miterlimit="10"/><path d="M150.189 102.89v10.92l34.57 46.78M179.871 220.82l37.6-13.76s79.19-2.75 88.36 3.67c0 0-1.53 44.33-7.34 52.28l-6.11 2.75s-65.74.92-77-2.45c0 0-30-9.48-33.94-17.12a70.685 70.685 0 0 1-1.57-25.37ZM17.52 165.78l2.14 27.82 55.03 37.3v-32.56l-57.17-32.56ZM212.27 42s209.43-25.41 240-19c0 0 3.06-15.19 6.42-17.84" stroke="#fff" stroke-miterlimit="10"/></svg>
