<svg width="500" height="375" fill="none" xmlns="http://www.w3.org/2000/svg"><path d="M6.93 196.89s160.55-48.38 244.94-53.43c0 0 108.82-8.94 241.06 26.72M6.93 247s54 77.19 180.58 113.88l21.1 2.14S313.68 249.4 492.93 175.11M6.93 270.73s40.4 55.43 123.18 98.91M492.931 195.75s-123.2 73.61-200.71 173.92" stroke="#fff" stroke-miterlimit="10"/><path d="M492.93 206.64s-125.5 84.66-171.36 163" stroke="#fff" stroke-miterlimit="10"/><path d="M408.5 272.39s29.1 63 33.23 97.28M415.43 266.38s31.8 71.53 33.18 104.32M178.18 181.38c-2.14-2-13.29-15.44-13.29-15.44h-6.12l3.36 16.81a13.92 13.92 0 0 0-3.36 6 43.71 43.71 0 0 0 9.33 3.37l25.52-7.8-7.33-6.88h-4.44l-6.42.77M68.52 179.63l58.61 23.91s104.44 68 122.87 86.68l17.43 19.47" stroke="#fff" stroke-miterlimit="10"/></svg>
