<svg width="500" height="375" viewBox="0 0 500 375" fill="none" xmlns="http://www.w3.org/2000/svg">
<path d="M312.86 5.33008C312.86 5.33008 260.5 23.5001 240.5 42.5001C240.5 42.5001 95.5 45.5001 28.5 102.5L18.5 126.5C18.5 126.5 24.5 185.5 29.5 200.5L28.5 214.5C28.5 214.5 76.5 298.5 192.5 314.5C192.5 314.5 297.5 319.5 316.5 316.5C316.5 316.5 351.5 303.5 356.5 296.5C356.5 296.5 401.5 96.5001 454.5 98.5001C454.5 98.5001 479.5 100.5 467.5 165.5C467.5 165.5 465.18 174.69 463.84 176.6" stroke="white" stroke-miterlimit="10"/>
<path d="M492.75 185.04L457.5 215.5L456.49 216.44" stroke="white" stroke-miterlimit="10"/>
<path d="M437.16 104.78L447.7 105.78C448.165 105.841 448.626 105.931 449.08 106.05C467.62 110.81 470.75 160.98 456.08 218.05C442.25 271.9 417.52 312.7 399.2 313.2H392.28C392.28 313.2 359.5 300.5 356.5 296.5" stroke="white" stroke-miterlimit="10"/>
<path d="M20.9502 148.38L73.5002 175.5L76.5002 211.5L27.5002 178.5L20.9502 148.38Z" stroke="white" stroke-miterlimit="10"/>
<path d="M28.5 102.5C28.5 102.5 100.5 120.5 122.5 117.5L150.5 170.5V174.65L117.5 254.5L113.5 257.5C113.5 257.5 61.5 242.5 29.5 200.5" stroke="white" stroke-miterlimit="10"/>
<path d="M122.5 117.5C122.5 117.5 354.5 89.5 366.5 88.5H375.23L381.5 98.5L336.5 151.5C336.5 151.5 305.5 165.5 293.5 166.5C293.5 166.5 159.5 174.5 150.5 170.5" stroke="white" stroke-miterlimit="10"/>
<path d="M133.27 116.2C133.27 116.2 169.5 152.5 188.5 159.5C188.5 159.5 305.5 158.5 336.5 151.5" stroke="white" stroke-miterlimit="10"/>
<path d="M462.36 6C462.36 6 450.5 32.5 450.5 38.5C450.5 38.5 282.5 33.5 240.5 42.5" stroke="white" stroke-miterlimit="10"/>
<path d="M308.26 95.23C308.26 95.23 380.5 56.5 452.5 55.5L454.5 53.5C454.5 53.5 450.5 41.5 450.5 38.5" stroke="white" stroke-miterlimit="10"/>
<path d="M476.43 5.33008C476.43 5.33008 466.5 34.5001 467.5 41.5001L468.5 45.5001L482.5 46.5001" stroke="white" stroke-miterlimit="10"/>
<path d="M492 27.1299L489.5 30.4999V37.8299L492.75 41.4999" stroke="white" stroke-miterlimit="10"/>
<path d="M489.5 37.8301L481.5 47.5001C481.5 47.5001 491 58.6101 492.75 57.5001" stroke="white" stroke-miterlimit="10"/>
</svg>
