<svg width="500" height="375" fill="none" xmlns="http://www.w3.org/2000/svg"><path d="M331.5 249.5c7-54-22-45-22-45-74 24-83 132-83 132-31 25-104 15-104 15l-31-10c-52-31-68-73-68-73-4-7-3-20-3-20l-11-33v-22.2l5.5-8s13.5-32.8 52.5-47.8c0 0 62-26 108-36 0 0 51-42 77-50 0 0 70.59-22 184.79 0 0 0 13.21 2 41.21 30 0 0 9 5 11 8l2 6s-1 15-2 21c0 0-2 17-5 21l-.43.77" stroke="#fff" stroke-miterlimit="10"/><path d="M327 268.5h1.41s113.05-90 122.05-90c0 0 23-61 32-62 0 0 7-2 3 13 0 0-.66 1.38-1.33 2.69" stroke="#fff" stroke-miterlimit="10"/><path d="M479.91 118.35c5.14 5.24 5.79 20.84 1.09 38-5.29 19.28-15.39 33.43-22.88 32.29l-18.69-4.19M319.6 212.15c.18.09.35.19.52.29 17.46 10.08 15.54 46.09-4.29 80.44-18.73 32.44-46.74 51.79-64.5 45.34l-22.67-16.83M319.78 212.24l-13.32-6.69M18.5 231.5s27 30 32 33l4 21s-27-29-32-36c0 0-4-16-4-18Z" stroke="#fff" stroke-miterlimit="10"/><path d="M15 185.35s15.5 30.15 60.5 54.15l15.86 36.3v3.87L78.5 312.5l-2 3s-33.22-19.62-56.11-63.81" stroke="#fff" stroke-miterlimit="10"/><path d="M75.5 239.5s101-2 110-5l42-13 3 6-33 39-26 12h-4.25s-63 4.6-75.89-2.7" stroke="#fff" stroke-miterlimit="10"/><path d="M82.64 239.35s23.14 27.15 30.5 29.15c0 0 61.36 4 84.36-2M246.35 53.81S345.5 55.5 373.5 61.5c0 0-27 35-43 72 0 0-136.09-11.64-158-31.32" stroke="#fff" stroke-miterlimit="10"/><path d="M179.43 235.45s89.3-55.41 133.69-73.18l9.38-5.77s6-14 8-23M383.33 131.5s-6.83 6-10.83 7c0 0-7-4-9-7l3-5v-4.44s8-12.56 15-15.56c0 0 22.84-.3 35.92 11.85 0 0-.92 5.15-2.92 8.15l-10 4s-14.06 1-24.53 1l-13.47-5" stroke="#fff" stroke-miterlimit="10"/><path d="M408 112.13c4.48-1.37 52.52-21.63 52.52-21.63l7-10-1-6c-45-40-81-13-81-13-19 15-42 75-42 75l21.29-7.14" stroke="#fff" stroke-miterlimit="10"/></svg>
