<svg width="500" height="375" viewBox="0 0 500 375" fill="none" xmlns="http://www.w3.org/2000/svg">
<path d="M331.5 249.5C338.5 195.5 309.5 204.5 309.5 204.5C235.5 228.5 226.5 336.5 226.5 336.5C195.5 361.5 122.5 351.5 122.5 351.5L91.5 341.5C39.5 310.5 23.5 268.5 23.5 268.5C19.5 261.5 20.5 248.5 20.5 248.5L9.5 215.5V193.3L15 185.3C15 185.3 28.5 152.5 67.5 137.5C67.5 137.5 129.5 111.5 175.5 101.5C175.5 101.5 226.5 59.4999 252.5 51.4999C252.5 51.4999 323.09 29.4999 437.29 51.4999C437.29 51.4999 450.5 53.4999 478.5 81.4999C478.5 81.4999 487.5 86.4999 489.5 89.4999L491.5 95.4999C491.5 95.4999 490.5 110.5 489.5 116.5C489.5 116.5 487.5 133.5 484.5 137.5L484.07 138.27" stroke="white" stroke-miterlimit="10"/>
<path d="M327 268.5H328.41C328.41 268.5 441.46 178.5 450.46 178.5C450.46 178.5 473.46 117.5 482.46 116.5C482.46 116.5 489.46 114.5 485.46 129.5C485.46 129.5 484.8 130.88 484.13 132.19" stroke="white" stroke-miterlimit="10"/>
<path d="M479.91 118.35C485.05 123.59 485.7 139.19 481 156.35C475.71 175.63 465.61 189.78 458.12 188.64L439.43 184.45" stroke="white" stroke-miterlimit="10"/>
<path d="M319.6 212.15C319.78 212.24 319.95 212.34 320.12 212.44C337.58 222.52 335.66 258.53 315.83 292.88C297.1 325.32 269.09 344.67 251.33 338.22L228.66 321.39" stroke="white" stroke-miterlimit="10"/>
<path d="M319.78 212.24L306.46 205.55" stroke="white" stroke-miterlimit="10"/>
<path d="M18.5 231.5C18.5 231.5 45.5 261.5 50.5 264.5L54.5 285.5C54.5 285.5 27.5 256.5 22.5 249.5C22.5 249.5 18.5 233.5 18.5 231.5Z" stroke="white" stroke-miterlimit="10"/>
<path d="M15 185.35C15 185.35 30.5 215.5 75.5 239.5L91.36 275.8V279.67L78.5 312.5L76.5 315.5C76.5 315.5 43.28 295.88 20.39 251.69" stroke="white" stroke-miterlimit="10"/>
<path d="M75.5 239.5C75.5 239.5 176.5 237.5 185.5 234.5L227.5 221.5L230.5 227.5L197.5 266.5L171.5 278.5H167.25C167.25 278.5 104.25 283.1 91.36 275.8" stroke="white" stroke-miterlimit="10"/>
<path d="M82.6396 239.35C82.6396 239.35 105.78 266.5 113.14 268.5C113.14 268.5 174.5 272.5 197.5 266.5" stroke="white" stroke-miterlimit="10"/>
<path d="M246.35 53.8101C246.35 53.8101 345.5 55.5001 373.5 61.5001C373.5 61.5001 346.5 96.5001 330.5 133.5C330.5 133.5 194.41 121.86 172.5 102.18" stroke="white" stroke-miterlimit="10"/>
<path d="M179.43 235.45C179.43 235.45 268.73 180.04 313.12 162.27L322.5 156.5C322.5 156.5 328.5 142.5 330.5 133.5" stroke="white" stroke-miterlimit="10"/>
<path d="M383.33 131.5C383.33 131.5 376.5 137.5 372.5 138.5C372.5 138.5 365.5 134.5 363.5 131.5L366.5 126.5V122.06C366.5 122.06 374.5 109.5 381.5 106.5C381.5 106.5 404.34 106.2 417.42 118.35C417.42 118.35 416.5 123.5 414.5 126.5L404.5 130.5C404.5 130.5 390.44 131.5 379.97 131.5L366.5 126.5" stroke="white" stroke-miterlimit="10"/>
<path d="M408 112.13C412.48 110.76 460.52 90.5002 460.52 90.5002L467.52 80.5002L466.52 74.5002C421.52 34.5002 385.52 61.5002 385.52 61.5002C366.52 76.5002 343.52 136.5 343.52 136.5L364.81 129.36" stroke="white" stroke-miterlimit="10"/>
</svg>
