<svg width="500" height="375" viewBox="0 0 500 375" fill="none" xmlns="http://www.w3.org/2000/svg">
<path d="M234.54 5C234.54 5 105.67 32.31 59.35 60.29C59.35 60.29 42.84 74.96 37.35 91.93L30.97 113.03L13.97 128.62C13.97 128.62 5.72 159.35 16.72 239.62C16.72 239.62 34.47 262.74 68.41 271.37" stroke="white" stroke-miterlimit="10"/>
<path d="M68.4999 271.75C68.4999 271.62 68.4399 271.49 68.4199 271.36" stroke="white" stroke-miterlimit="10"/>
<path d="M79.4806 266.52L68.4206 271.36C66.3448 261.212 65.3028 250.879 65.3106 240.52C65.3106 159.98 127.311 94.6797 203.811 94.6797C280.311 94.6797 342.311 159.98 342.311 240.52C342.32 251.959 341.053 263.363 338.531 274.52L321.671 254.35" stroke="white" stroke-miterlimit="10"/>
<path d="M199.852 369.51C267.131 369.51 321.672 314.969 321.672 247.69C321.672 180.411 267.131 125.87 199.852 125.87C132.573 125.87 78.0312 180.411 78.0312 247.69C78.0312 314.969 132.573 369.51 199.852 369.51Z" stroke="white" stroke-miterlimit="10"/>
<path d="M338.531 274.5H488.901" stroke="white" stroke-miterlimit="10"/>
<path d="M51.8499 68.0603C51.8499 68.0603 58.4299 64.5303 64.7399 63.9603L90.8799 61.3203L95.2399 62.0103L94.6599 66.0103C94.6599 66.0103 68.5199 91.6303 62.0999 96.5203C62.0999 96.5203 37.3399 112.26 30.9199 113.03" stroke="white" stroke-miterlimit="10"/>
</svg>
