<svg id="a7f8982f-e1ae-478b-8981-642a18c43082" data-name="Layer 1" xmlns="http://www.w3.org/2000/svg" width="849" height="798.13131" viewBox="0 0 849 798.13131"><title>a_day_off</title><path d="M345.45708,695.04317c.17359,17.79414-10.34427,24.10956-23.39225,24.23685q-.45462.00442-.90495-.00133-.90727-.01072-1.796-.06514c-11.78437-.71893-20.9982-7.16091-21.15963-23.70942-.16706-17.12566,21.50989-38.95143,23.1358-40.56546l.00287-.00148c.06177-.06151.09339-.09226.09339-.09226S345.28351,677.25047,345.45708,695.04317Z" transform="translate(-175.5 -50.93435)" fill="#274b9f"/><path d="M718.45708,694.04317c.17359,17.79414-10.34427,24.10956-23.39225,24.23685q-.45462.00442-.90495-.00133-.90728-.01072-1.79605-.06514c-11.78437-.71893-20.9982-7.16091-21.15963-23.70942-.16706-17.12566,21.50989-38.95143,23.1358-40.56546l.00287-.00148c.06177-.06151.09339-.09226.09339-.09226S718.28351,676.25047,718.45708,694.04317Z" transform="translate(-175.5 -50.93435)" fill="#274b9f"/><rect y="666.06565" width="849" height="2" fill="#3f3d56"/><circle cx="173" cy="166" r="166" fill="#274b9f"/><path d="M374.99991,518h.00024A149.99985,149.99985,0,0,1,525,667.99985V668a0,0,0,0,1,0,0H290a0,0,0,0,1,0,0V602.99991A84.99991,84.99991,0,0,1,374.99991,518Z" fill="#3f3d56"/><path d="M876.39969,370.99375s6.84284,88.957-2.73714,91.6941-43.7942,23.26567-98.537,17.79139c0,0-53.37418,28.74-45.16277,1.36857s45.16277-20.52853,45.16277-20.52853,65.6913-13.68569,68.42844-23.26567-8.21142-49.26847-4.10571-50.637S876.39969,370.99375,876.39969,370.99375Z" transform="translate(-175.5 -50.93435)" fill="#a0616a"/><path d="M794.42461,526.09089s5.33523,128.51619,13.54664,147.67615c6.83982,15.95958,10.831,68.00223,11.97346,84.94285.22911,3.39712.34366,5.38269.34366,5.38269s21.8971,0,23.26567-5.47428,5.47427-65.6913,0-84.85126,6.98189-151.78186,6.98189-151.78186Z" transform="translate(-175.5 -50.93435)" fill="#2f2e41"/><path d="M825.76264,757.24973s-13.68568,4.10571-16.42282,9.58-47.89991,15.05426-34.21422,21.8971,54.74275-5.47427,54.74275-5.47427,21.8971-1.36857,20.52853-9.58-6.35253-18.32915-6.35253-18.32915Z" transform="translate(-175.5 -50.93435)" fill="#2f2e41"/><path d="M864.08257,771.98438s-13.68569,4.1057-16.42283,9.58-47.8999,15.05426-34.21421,21.8971,54.74274-5.47428,54.74274-5.47428,21.8971-1.36856,20.52853-9.58-6.35253-18.32914-6.35253-18.32914Z" transform="translate(-175.5 -50.93435)" fill="#2f2e41"/><path d="M806.60268,522.90487l19.16,32.84565,31.97662,114.19827s-3.23667,104.77273.869,104.77273,26.00281,6.84284,27.37138,0c1.156-5.78023,16.48435-61.15109,8.8439-98.00581a471.27323,471.27323,0,0,1-9.56315-70.70536L881.874,542.06484s13.68569-24.63424-1.36857-28.74S806.60268,522.90487,806.60268,522.90487Z" transform="translate(-175.5 -50.93435)" fill="#2f2e41"/><circle cx="648.89408" cy="228.3653" r="32.84565" fill="#a0616a"/><path d="M820.28837,301.19674s5.47427,43.7942,4.10571,46.53134,32.84564-30.10851,32.84564-30.10851-12.31711-19.16-9.58-28.74Z" transform="translate(-175.5 -50.93435)" fill="#a0616a"/><path d="M896.92822,344.99094s-38.31993-27.37137-39.6885-32.84565l-28.73994,24.63424-4.88355-5.81305s-22.48782,22.23587-22.48782,31.81585-1.36857,38.31993,2.73713,46.53134S791.54843,521.5363,791.54843,521.5363s13.68568,12.31712,15.05425,13.68569,56.11132-8.21141,56.11132-8.21141,27.37137-2.73714,27.37137-6.84284-8.21141-65.6913-5.47427-82.11413S896.92822,344.99094,896.92822,344.99094Z" transform="translate(-175.5 -50.93435)" fill="#575a89"/><path d="M905.13963,383.31086s6.84284,88.957-2.73714,91.69411-43.7942,23.26567-98.53695,17.79139c0,0-53.37418,28.73994-45.16276,1.36857s45.16276-20.52853,45.16276-20.52853,65.6913-13.68569,68.42844-23.26567-8.21141-49.26847-4.10571-50.637S905.13963,383.31086,905.13963,383.31086Z" transform="translate(-175.5 -50.93435)" fill="#a0616a"/><path d="M810.364,262.89175c4.48976-1.598,9.44284-2.41861,14.02068-1.09392,6.479,1.87485,10.96632,7.55414,15.80616,12.25188s11.62694,8.86044,17.99976,6.65137a10.553,10.553,0,0,1,2.01592-7.79383,7.16768,7.16768,0,0,0,1.79-2.97915c.27228-1.75919-1.207-3.27648-1.65062-5.00046-.77737-3.02115,1.35364-7.15694-1.2664-8.85019-.69158-.44695-1.56722-.54886-2.24215-1.02058-2.64887-1.85138.29263-6.456-1.45872-9.17205a5.60133,5.60133,0,0,0-1.9901-1.66018c-12.69942-7.41-28.22984-7.43034-42.93183-7.24369-2.04669.026-4.89607,1.0425-4.31878,3.00626-2.77848-1.99441-6.41678.80608-8.65635,3.391l-4.58388,5.29081a40.7602,40.7602,0,0,0-5.60191,7.57766c-1.40029,2.67781-1.70986,6.79464,1.07694,7.96207-2.07187-.86794-4.58526,11.40438,4.96626,9.3852C798.88858,272.42081,804.32832,265.03995,810.364,262.89175Z" transform="translate(-175.5 -50.93435)" fill="#2f2e41"/><path d="M875.03112,347.72808l21.8971-2.73714s21.8971,42.42563,9.58,49.26847-43.7942,12.31712-43.7942,9.58S875.03112,347.72808,875.03112,347.72808Z" transform="translate(-175.5 -50.93435)" fill="#575a89"/><path d="M574.92454,357.03743s6.53214,21.46274,2.79948,27.99488,6.53214,20.52957,23.32907,13.99743,17.73009-13.99743,17.73009-13.99743-6.53214-10.26479-8.39847-31.72753Z" transform="translate(-175.5 -50.93435)" fill="#ffb9b9"/><path d="M489.54016,567.46558s-33.59385,16.79693-18.66325,39.19283c8.67858,13.01787,25.23922,38.33176,37.58667,57.249a190.92859,190.92859,0,0,1,23.51629,51.2709l2.3521,8.12543,9.33162,11.19795L563.26,712.10578s-28.928-53.19027-28.928-63.45505-23.32907-42.92548-23.32907-42.92548l23.32907-14.9306S508.20341,560.93345,489.54016,567.46558Z" transform="translate(-175.5 -50.93435)" fill="#ffb9b9"/><path d="M598.72018,625.32166s.93316,26.12855,1.86633,36.39334c.76986,8.46845-6.717,32.18011-4.12115,58.55933a247.96,247.96,0,0,1-.56557,51.278L592.188,805.422l27.99488,2.79949,9.33163-76.51933s5.599-54.12342,2.79948-71.85351l.93317-37.3265S612.71762,615.05687,598.72018,625.32166Z" transform="translate(-175.5 -50.93435)" fill="#ffb9b9"/><path d="M548.796,516.60823s-65.32138,41.99231-66.25455,55.05659c0,0,37.32651-3.73265,38.25967,28.928,0,0,22.3959-8.39847,27.99488-10.26479s35.46017-21.46274,35.46017-21.46274,12.13112,9.33162,12.13112,24.26223-.93317,41.05915,0,42.92547,22.3959-25.19539,40.126-1.86632l12.13111-64.38822s3.73265-39.19283-3.73265-41.99231l-52.2571-19.59642Z" transform="translate(-175.5 -50.93435)" fill="#2f2e41"/><circle cx="412.95539" cy="289.77274" r="27.99488" fill="#ffb9b9"/><path d="M581.45668,389.69812s31.57671,8.33979,35.85135-7.49464c0,0,38.80165,7.49464,45.33379,32.69s-15.86377,85.851-15.86377,87.71728,18.66325,13.06427,10.26479,18.66325-15.86376-.93316-12.13111,6.53214,10.26479,9.33162,4.66581,11.19795-39.19283-27.06172-65.32138-19.59642-39.19282,1.86633-39.19282,1.86633L533.3474,420.01487a23.39074,23.39074,0,0,1,8.31622-20.75868c5.848-4.81344,13.60734-10.01393,21.1298-11.4244,14.9306-2.79948,15.55089-4.332,15.55089-4.332Z" transform="translate(-175.5 -50.93435)" fill="#d0cde1"/><path d="M551.59547,553.00157s8.39847,47.59129,19.59642,41.05915-2.79949-41.05915-2.79949-41.05915Z" transform="translate(-175.5 -50.93435)" fill="#ffb9b9"/><path d="M590.578,559.16026s-14.5518,46.08373-1.60254,45.46763,16.4972-37.70323,16.4972-37.70323Z" transform="translate(-175.5 -50.93435)" fill="#ffb9b9"/><path d="M538.99778,721.43741s-6.53214-7.4653-10.26479,2.79948S514.73555,747.566,514.73555,747.566s-22.3959,25.19539-6.53214,26.12855,38.25967-22.3959,38.25967-22.3959l26.12855-24.26223s-8.66-21.09038-12.72847-21.27656S556.72787,730.769,538.99778,721.43741Z" transform="translate(-175.5 -50.93435)" fill="#2f2e41"/><path d="M599.65334,798.8899s-6.57634,1.91976-6.08765-6.03884c0,0-23.77355,12.571-17.24141,21.9026s13.99744,18.66325,13.99744,18.66325,34.527,19.59641,37.3265,14.9306,2.79949-13.99744.93316-17.73009-11.19795-10.26478-8.39846-15.86376-.93316-20.52958-5.599-20.52958S599.65334,798.8899,599.65334,798.8899Z" transform="translate(-175.5 -50.93435)" fill="#2f2e41"/><path d="M564.02463,316.98572s9.00566-19.51228,26.26653-15.00944,27.017,11.25708,27.76747,18.01133-.37524,16.88563-.37524,16.88563-1.87618-13.88374-13.88373-10.88185-30.76937.75047-30.76937.75047l-3.00189,27.017s-3.37712-4.87807-7.12948-1.87618S552.01707,322.9895,564.02463,316.98572Z" transform="translate(-175.5 -50.93435)" fill="#2f2e41"/><path d="M646.77805,413.96035s-22.3959,60.65556-20.52957,68.12086,0,8.39846-2.79949,10.26479-10.26479,21.46274-10.26479,21.46274-4.66581,11.198-8.39846,13.99744-3.73265,10.26478-3.73265,10.26478-9.33163,9.33163-7.4653,11.198,1.86632,4.66581-1.86633,7.4653-7.4653,6.53213-5.599,7.4653,14.9306,11.19795,18.66325,10.26478-1.86633-4.66581,2.79949-6.53213,7.4653-4.66582,5.599-5.599-7.4653-.93316-1.86632-2.79949,25.19539-13.99743,31.72752-28.928,37.82959-105.264,18.9148-117.95337C661.9602,412.65229,654.24335,402.7624,646.77805,413.96035Z" transform="translate(-175.5 -50.93435)" fill="#d0cde1"/><path d="M543.197,403.69556l-.379.1579a23.49827,23.49827,0,0,0-13.9605,16.89677c-2.03768,9.753-4.04256,23.85964-2.45747,37.06876,2.79949,23.32906,4.66582,33.59385,8.39847,41.05915s4.66581,4.66581,3.73265,10.26479-5.599.93316-.93316,8.39846,7.4653,5.599,5.599,9.33162-4.66581,3.73265-.93316,8.39847,3.73265,6.53213,4.66581,8.39846,3.73265,15.86376,3.73265,15.86376,14.9306-4.66581,23.32906-2.79948c0,0-7.4653-13.06428-5.599-15.86377s4.66581-3.73265,1.86632-6.53214-7.4653-1.86632-2.79948-4.66581-3.73265-31.72752-3.73265-31.72752Z" transform="translate(-175.5 -50.93435)" fill="#d0cde1"/><polygon points="189 666 155 666 170.5 141 189 666" fill="#3f3d56"/><polygon points="173.5 240.5 210 190 173 253 169 246 173.5 240.5" fill="#3f3d56"/><polygon points="169.5 291.5 133 241 170 304 174 297 169.5 291.5" fill="#3f3d56"/><rect x="348.5" y="447.93435" width="19" height="10" transform="translate(-354.00427 188.74735) rotate(-30)" fill="#3f3d56"/></svg>