<svg fill="none" viewBox="0 0 1655 497" xmlns="http://www.w3.org/2000/svg"><path stroke="#fff" stroke-linejoin="round" d="m1628.48 471.498-.41.239-.76.391-.93.44-1.16.501-1.43.573-1.69.634-1.97.682-2.23.721-2.52.747-2.79.761-3.05.761-3.31.747-3.57.721-3.8.688-4.03.651-4.25.608-4.46.562-4.33.496-3.85.412-3.04.312-1.89.193-1.22.111-1.04.064-1.37.055-2.19.081-2.63.094-2.68.095-2.34.082-1.63.056-1.07.037-.66.021-.41.013-.32.01-.25-.005-.81-.132-.89-.42c-.3-.258-.25-.784 0-2"/><path stroke="#fff" stroke-linejoin="round" d="m1615.4 476.473-2.78.756-3.04.757-3.31.745-3.56.72-3.81.688-4.04.653"/><path stroke="#fff" stroke-linejoin="round" d="m1629.47 470.902-.03.019-.4.286-.5.324-.24.139-.6.351-.37.2-.5.275-.74.385-.91.433-1.13.49-1.38.558-1.64.614-1.89.659-2.15.693-2.41.713-2.68.726-2.94.729-.74.165-2.5.557-.68.152-3.47.695-3.75.673-4 .644-4.25.605-4.46.558-4.39.51-4.03.459-3.36.407-2.4.352-1.79.333-1.52.346-1.54.347"/><path stroke="#fff" stroke-linejoin="round" d="M1566.08 485.298v.001l-1.87.693-1.58.533-1.85 1.224-2.04 1.719-.46.39"/><path stroke="#fff" stroke-linejoin="round" d="m1558.74 489.468-1.89 2.108-1.31 1.583-1.14 1.264-.92.763-.73.389-.57.142-.95.216-.46.018-.34.013-1.4-.08-1.99-.367-2.28-.563-2.26-.667-1.95-.681-1.37-.607-.5-.415"/><path stroke="#fff" stroke-linejoin="round" d="m1538.9 492.764-.22-.18-.71-.581-.61-1.129-.2-.625-.4-1.559-.39-2.299-.37-2.772-.32-2.978-.25-2.665-.14-1.831-.06-1.179-.01-.71.01-.422.01-.312.02-.22.04-.144.07-.082.09-.048.12-.038.25-.025.4-.018.56-.027.84.001.21.007 1.25.058 1.78.151 1.64.188M12.91 357.524l-.008-.025-.013-.054-.004-.012-.213-.824-.126-.485-.289-1.114-.317-1.222-.008-.031m-9.635-41.634-.45-2.85-.488-3.042-.254-1.642-.079-.724.039-.292.099-.342.169-.468.319-.542.691-.897 1.219-1.405.406-.44 1.497-1.624 2.346-2.564 2.545-2.9 2.249-2.764m2.548-3.324.698-1.572.006-.013.217-.488.098-.221.268-.603.332-.749.684-1.545"/><path stroke="#fff" stroke-linejoin="round" d="m14.646 286.927.712-1.396.017-.035.445-.872.62-1.218"/><path stroke="#fff" stroke-linejoin="round" d="m14.545 286.847.128-.222 1.147-2.001"/><path stroke="#fff" stroke-linejoin="round" d="m12.508 289.769.097-.142 2.068-3.002m-2.416 68.385-.345-1.192-.488-1.686-1.404-4.693-1.6-5.647-.284-.983-1.655-6.21-1.475-6.835-1.268-6.833-1.033-6.202-.408-2.606-.365-2.336m15.506-28.628.018-.047 1.129-2.893.627-1.842.769-2.321.601-1.944.684-2.466.927-3.662.786-3.288.747-3.16.841-3.555.941-3.981 1.023-4.338.573-2.45.408-1.742.002-.008.1-.426 1.124-4.841 1.147-4.989 1.092-4.787.962-4.235.037-.163.718-3.17.473-2.082.27-1.129.07-.223.08-.252.106-.122.148-.073.25-.033.415-.007.099.002m146.317 92.793.129-.043.114-.03.133-.029.186-.039.225-.048.252-.054.265-.057m-1.375.184.123-.057.112-.034.133-.028.186-.04.226-.048.251-.054.265-.056M12.92 357.875l-.004-.02-.255-1.193-.115-.538m.459 2.944-.09-1.213"/><path stroke="#fff" stroke-linejoin="round" d="m68.68 437.674-4.594-2.529-3.18-2.05-.4-.258-1.743-1.123-.02-.013-.038-.029-.014-.011-.01-.009-.02-.014-.005-.004-.666-.516-4.16-3.226-2.283-2.146-.02-.019-2.32-2.184-4.474-5.064-4.464-5.953-3.686-5.499-.639-.954-2.583-4.18-1.475-2.386-3.658-6.282-.008-.013-3.149-5.646-1.453-2.721-.105-.195-.015-.03-.002-.003-.046-.085-1.074-2.012-.457-.892-.087-.17-.035-.067-.006-.013-.08-.156-.022-.043-.12-.234-.01-.018-.002-.006-.127-.247-.022-.043-.003-.006-.004-.007-.092-.181-.03-.059-.02-.039-.023-.043-.043-.085-.038-.075-.036-.069-.035-.068-.002-.005-.046-.089-.049-.096-.01-.021-.034-.063-.02-.041-.038-.075-.01-.018-.013-.025-.048-.093v-.004l-.035-.065-.033-.066-.035-.067-.015-.029-.008-.016-.05-.1-.025-.046-.01-.022-.013-.023-.002-.004-.053-.103-.015-.03v-.001l-.03-.057-.047-.092v-.003l-.012-.021-.029-.057-.03-.06-.009-.015-.007-.013-.009-.018-.025-.049-.012-.024-.007-.013-.024-.048-.01-.021-.009-.015-.008-.017-.002-.003-.01-.022-.025-.047-.006-.01-.016-.031-.004-.009-.01-.019-.006-.012-.025-.049-.013-.025-.01-.022-.002-.001-.02-.043-.008-.012-.007-.013-.015-.031-.002-.003-.013-.027-.007-.015-.002-.003-.004-.009-.01-.021-.002-.003-.007-.013-.009-.019-.002-.005-.007-.012-.008-.017-.008-.016-.004-.009v-.002l-.004-.006-.007-.014-.003-.006-.002-.004-.004-.008-.006-.013v-.001l-.005-.008v-.003l-.002-.001-.059-.119-.06-.125-.177-.355-.734-1.487-.054-.109-.139-.282-.632-1.279-.143-.298-1.56-3.243-.829-1.832-.233-.516-.349-.773-1.099-2.736-.058-.176-.128-.404-.469-1.466-.166-.522-.407-2.073-.113-1.791.115-1.539"/><path stroke="#fff" stroke-linejoin="round" d="m72.285 439.498-.746-.359-.595-.285-.94-.451-.065-.034-1.259-.695-4.648-2.565m93.003 25.309.004.098m1396.671 19.89-8.45-5.346-1.86-1.172-.89-.563-2.95-1.866-9.76-2.167-1.35-.301m-244.76-7.431-.19-.001-.28-.003-.7-.006-.23-.002-4.45-.041-.29-.003-.81-.007-.3-.003-4.55-.041-.33-.003-.68-.006-.31-.003-1.99-.018-.21-.002h-.02l-2.21-.02-.22-.003-.82-.007-.27-.002-1.31-.012-.4.048-.46.055-.95.115-.43.052-.71.085-.36.045-.47.056-.51.061-.62.075-.21.026-.51.061-.26.032-.32.038-.17.02-.86.104-.12.014-.17.022-.1.011-.61.074-.09.011M131.133 160.379l-5.268-.281-6.138-.318-6.056-.303-5.574-.263-4.693-.201-4.008-.152-3.52-.117"/><path stroke="#fff" stroke-linejoin="round" d="m1254.43 448.604.22.136.2.13.18.114.15.093.1.063.24.177.04.057.14.277.06.45v.697l-.03 1.005-.04 1.379-.06 1.735-.1 2.079-.13 2.405-.01.04-.03.457-.04.658-.03.405-.01.203-.01.168-.01.047v.079l-.01.138-.01.167-.01.054-.01.148-.01.153-.01.218-.01.046v.042l-.01.09-.01.095-.01.123v.08l-.01.08-.03.38-.01.151-.03.378v.068l-.02.155v.108l-.01.092-.06.779-.26 2.908-.28 2.787-.3 2.525-.29 2.215-.26 1.86-.22 1.459-.15 1.014-.12.656-.13.386-.18.208-.18.086-.08.039-.55.06M93.43 150.476l4.164-2.331 5.63-3.124 5.763-3.132 5.441-2.844 4.671-2.265 4.791-2.071 5.801-2.257 7.696-2.828 9.408-3.391 1.071-.386 9.414-3.371 3.065-1.098 9.416-3.368 4.285-1.533 5.252-1.884 8.892-3.191 2.454-.887 1.36-.491 4.052-1.465 1.296-.468.966-.349 3.68-1.33 7.644-2.777 2.222-.807.595-.216.208-.076.849-.309.046-.016 1.184-.43 1.027-.375.494-.18 2.52-.919.066-.024 1.012-.369 5.845-2.13 8.459-3.09 5.229-1.907 2.803-.989 1.121-.32"/><path stroke="#fff" stroke-linejoin="round" d="m79.524 158.472-.015-.07.043-.107.062-.117.302-.222.654-.384 1.088-.604 1.608-.879 2.262-1.239 3.054-1.681 3.98-2.208.868-.485 4.17-2.331m85.07 160.25-.319.068-.303.064-.268.057-.216.045-.146.031-.317.037-.084.008-.632-.041-1.26-.147-2.185-.275-3.408-.429-4.019-.506-.843-.106-3.175-.399-3.404-.429-2.179-.274-1.51-.198-1.399-.201-1.842-.28-2.841-.439-3.7-.568-4.421-.666-5.005-.738-5.452-.778-5.82-.817-6.104-.852-6.307-.883-6.429-.911-6.458-.934-6.397-.952-6.247-.966-4.803-.781-1.204-.196-5.584-1.142-4.98-1.464-4.191-1.942-.04-.029-1.363-1.09-1.856-1.483"/><path stroke="#fff" stroke-linejoin="round" d="m67.815 289.272-1.823-1.455-.033-.028-2.437-3.74-1.836-5.442-1.25-6.775-.006-.029-.122-.661-.039-.213-1.122-9.937-.058-.511-.403-4.933-.477-5.842-.009-.108-.061-.74-.017-.263-.044-.68-.02-.3-.458-7.037-.091-1.397-.099-1.53-.074-1.313-.082-1.45-.23-4.079-.118-2.084-.015-.274-.067-1.179-.188-3.327-.062-1.096-.019-.367-.13-2.523-.017-1.063.093-.896m51.573-58.723-4.696-.201-4.014-.152-3.53-.114-3.238-.09-3.142-.078-.103-.002m489.903 266.992 5.444.481 2.818.25 9.982.603 2.296.139 9.991.437 3.423.15 9.994.355 4.431.157 9.994.335 5.319.179 9.995.322 6.018.195 9.995.314 6.531.205 9.995.311 6.855.213 9.996.31 6.991.218 9.995.311 7.21.225 9.996.313 7.51.235 9.995.316 7.893.249 9.995.318 8.357.267 9.995.32 8.705.28 9.995.322 8.936.288 9.995.323 9.052.292 9.994.323 9.051.293 9.995.323 9.05.292 9.995.323 9.049.292 9.995.323 9.048.292 9.995.323 9.047.293 9.995.323 8.968.289 9.994.323 8.808.285 9.995.323 8.569.277 9.995.323 8.256.266 9.99.323 8.01.259 10 .323 7.85.254 10 .323 7.77.251 9.99.323 7.78.251 9.99.324 7.69.248 9.99.326 7.52.245 10 .328 7.26.238 10 .332 6.93.23 9.99.332 6.02.199 9.99.327 4.52.147 9.99.315 2.43.077 9.77.282 7.64.204 6.05.155 4.99.137 4.49.148 3.89.147.38.015.25.011.04.001.15.007.08.003.03.001.08.004.33.013.05.003.14.006.12.004v.001l.07.002.46.019.26.012.39.016h.01l.01.001.05.002.12.005.04.001.16.007h.01l.04.002.09.004.26.011.06.003.28.012.6.027.02.001.33.014.08.004.6.026.11.005.17.008.02.001 1.45.063.24.01.39.016.63.026 1.31.053.5.02.27.01.81.032.22.008.01.001 2.76.108.24.009.28.011.11.004.76.03 1.84.072 3.23.126 2.76.107m.24.01 1.57.061 1.08.07.55.106m-59.27-281.626.05.026 8.73 5.027 6.95 3.903 5.37 2.928 3.97 2.101 2.76 1.427 1.75.902.96.506.4.239.01.018.01.023.02.027.02.026.01.025.02.021.06.097M434.353 23.805l9.854-1.703.117-.021 9.873-1.59 6.402-1.032 9.891-1.47.289-.043 6.075-.903 9.909-1.343 6.371-.863 9.927-1.21 6.425-.783 5.082-.549 9.942-1.072 1.445-.156 9.956-.937 6.632-.623 9.968-.804 6.724-.542 8.651-.584 8.183-.552.985-.054 9.985-.544 5.994-.326 9.991-.419 2.09-.088 4.792-.201 9.996-.294 2.166-.064.603-.017.762-.023 3.035-.089 5.917-.096 1.691-.028 8.419-.137 10-.019 5.274-.01 8.271.097 5.853.069.659.008 9.997.239 2.504.06 2.06.049 2.476.084 9.994.339 2.134.073 9.991.411 4.924.203 2.773.143 7.156.371 5.339.277 9.979.654 5.685.373 9.966.818 6.135.504 9.949 1.004 6.631.67 9.932 1.162 6.721.787 9.914 1.302 6.4.84 9.897 1.435 5.67.822 9.876 1.571 4.532.721 9.846 1.751 2.35.418"/><path stroke="#fff" stroke-linejoin="round" d="m314.151 49.8.047-.013 9.679-2.516 6.032-1.568 9.718-2.361 6.358-1.545 9.748-2.228 6.569-1.501 9.774-2.115 6.663-1.441 9.794-2.017 6.641-1.367 9.815-1.915 6.603-1.289 9.835-1.811 6.55-1.206 6.376-1.102 9.854-1.703.106-.018M1199.05 188.48h-.22l-.26-.001-.14-.001-.18-.001h-.15l-.1-.001-2.41-.01-1.3-.005-3.89-.047-2.47-.03-.45-.008-.94-.018-.07-.003-.1-.004-.11-.004-.13-.006-.13-.005M263.982 83.579l-.199-.032-.19-.031-.17-.027-.141-.023-.102-.016-.152-.044-.068-.023-.142-.104-.025-.03-.188-.226-.305-.434-.028-.041-.45-.667-.705-1.043-.862-1.285-.95-1.434-.966-1.491-.914-1.453-.848-1.386-.767-1.29-.399-.688-.272-.471-.002-.003-.087-.156-.034-.06-.297-.528-.146-.262-.456-.842-.061-.117-.087-.167-.067-.13-.132-.254-.036-.072-.202-.414-.058-.135-.002-.003-.068-.158-.028-.152-.02-.115v-.003l.05-.091.062-.055 1.011-.348 1.341-.417 1.523-.472 5.606-1.715 9.243-2.825 9.58-2.867 2.507-.75 9.606-2.78 4.532-1.312 9.64-2.66 3.267-.9 2.49-.687m-21.803 24.917-9.27 2.888-9.223 2.923-5.596 1.774-2.878.897-1.062.29M1186 188.336l-.67-.036-.11-.025M843.119 19.706l9.848 1.74 1.754.308.325.058.337.06.157.027.075.013.056.01"/><path stroke="#fff" stroke-linejoin="round" d="m843.139 19.705 9.847 1.742 1.038.183.943.167.191.034.039.007.186.033.565.1"/><path stroke="#fff" stroke-linejoin="round" d="m843.175 19.703 9.846 1.748 2.176.387"/><path stroke="#fff" stroke-linejoin="round" d="m843.158 19.704 9.846 1.745 1.755.31.399.072M311.324 50.577l2.534-.7.069-.02.192-.048.031-.008.418-.108.111-.03.319-.081 9.683-2.5 5.06-1.307m818.929 94.421 8.72 4.904 1.1.619 8.67 4.976 5.54 3.178 8.64 5.029 3.74 2.171 8.63 5.053 1.45.852.04.025.01.004.05.026.01.008.35.205"/><path stroke="#fff" stroke-linejoin="round" d="m843.101 19.707 9.848 1.735 2.065.364.129.023.089.016.218.038.121.021.055.01.045.008.277.049.949.167 9.809 1.946 3.667.728 9.13 2.038 4.406.984 3.467.861 1.831.454 5.433 1.349 3.263.811 7.176 1.953 2.969.808 4.266 1.161 1.389.41 9.591 2.832 1.695.501 1.593.47.523.155.787.25.009.003 9.53 3.028 4.096 1.301.409.13.299.095.629.214 8.703 2.957 6.099 2.073 9.395 3.427 6.561 2.393 9.313 3.644 7.393 2.893 5.493 2.297.607.254 1.321.553 7.391 3.091.53.22.05.021 2.29.959.04.016.85.378.77.343 2.02.9 9.14 4.061 6.1 2.711 9.07 4.225 9.06 4.225 1.54.721 9 4.367 9 4.368 2.05.996 8.93 4.497 8.93 4.497 2.13 1.074 8.87 4.624 8.87 4.624 1.79.932 8.8 4.732 8.81 4.732 1.09.586 8.76 4.824 8.8 4.845 6.24 3.516 8.72 4.907 1.1.619m45.65 42.705-4.65.049-.14.001-.09.001-.02.001h-.09l-.1.001h-.08m-.1 0h.11"/><path stroke="#fff" stroke-linejoin="round" d="m1209.66 188.387-1.71.058-4.57.044-4.93-.009m5.12-.006-4.42.005"/><path stroke="#fff" stroke-linejoin="round" d="M1198.74 188.48h-.14l-.5-.003m.35.003-.45-.004"/><path stroke="#fff" stroke-linejoin="round" d="m1198.27 188.477.44.003h.16-.1l-.26-.002-.24-.001Zm0 0h-.05m5.69-.031-4.46.031-.19.001m4.49-.019-4.51.02m98.04 7.658 6.15.547.24.021.68.06.52.047.06.005.42.038.61.053.62.056 2.01.178 2.52.224 4.03.358 9.95.954 8.05.771 9.94 1.085 8.22.897 9.92 1.225 8.05.994 9.91 1.381 7.55 1.053 7.5 1.185 9.12 1.442 9.84 1.782 5.84 1.058 9.8 2.014 4.75.977 9.75 2.248 4.17.963 9.69 2.469 3.87.986 9.64 2.663 3.83 1.056 9.58 2.852 3.53 1.051 9.53 3.045 3.01.962 9.45 3.255 2.26.777 6.44 2.407m-224.19-43.636.02.002.98.107 2.04.223 2.75.3"/><path stroke="#fff" stroke-linejoin="round" d="m1294.96 195.755.04.003 2.66.277 1.07.112 1.2.125 3.2.333m-6.46-.583 5.1.475.34.032.3.028.17.016.73.068 1.54.143.03.003 1.76.163 4.47.416"/><path stroke="#fff" stroke-linejoin="round" d="m1295.93 195.895 3.94.388.06.006.5.049 1.19.118 1.51.149 1.76.173 1.75.172m-76.73-11.131.59.23.01.006.02.009.03.009v.003l.05.02.09.033.06.023.1.041.75.292 1.98.712 1.99.646.05.016.2.063"/><path stroke="#fff" stroke-linejoin="round" d="m1226.25 184.274.08.003.18.024.14.043.17.071.29.135.5.237.82.374 1.25.554.64.262m7.23 2.391.24.064 2.6.584 2.63.513 1.72.293.67.115.18.03"/><path stroke="#fff" stroke-linejoin="round" d="m1244.74 189.822.67.115.16.026.73.11 1.67.248 1.1.139.01.001 2.23.28.99.116.53.061.61.07.05.007 1.55.18 1.63.189.63.071.95.108.22.025.02.003 1.7.192.96.109 1.38.157.52.059 1.42.161.69.079.45.051 1.9.214 5.47.621 1.55.176 3.23.366 1.84.21 1.26.144 1.09.125.85.097.33.038.45.051.2.023.51.058 1.04.119 2.2.252 6.29.719.34.039 1.03.116 1.99.225m-67.32-10.175.52.204.04.017.07.029.05.019.09.034.04.015.19.078"/><path stroke="#fff" stroke-linejoin="round" d="m1229.81 185.774.46.182.05.021.11.045.05.018.11.044.08.031"/><path stroke="#fff" stroke-linejoin="round" d="m1229.72 185.731.6.246.05.019"/><path stroke="#fff" stroke-linejoin="round" d="m1229.76 185.751.39.156.2.08.02.009.22.088m245.01 88.273-.63.413-.49.316-.21.139-.22.144-.75.49-.16.109-.75.493-.17.112-.08.05-.08.056-.16.1-.03.022-.39.262-.04.029-1.19.795-.53.36-.19.129-.09.066-.05.034-.16.113-.41.283-.53.372-.24.173-.34.252-.26.192-.43.323-.27.183-.2.07-.08.011-.09-.01-.14-.014-.18-.017-.11-.011-.08-.008-.21-.02m-22.73-6.195-.17-.022-.42-.055-.75-.099-1.78-.234-.69-.091-1.5-.197-2.67-.351-.61-.049-.35-.028-.25-.02-.13-.011-.48-.039-.29-.023-.22-.018-.53-.042-.35-.028-1.84-.149-1.98-.16-.66-.053-1.15-.092-.27-.009-.16-.005-3.96-.128-.66-.021-1.04-.034-1.36-.044-1.08-.035-.84-.027-1.86.035-1.33.025-2.52.047-.18.004-1.3.024-2.23.042-.14.002-6.44.502-2.56.199-.42.032-.82.119-.35.049-8.18 1.177-6.35 1.368-2.99.645M1186 188.6l.05.052.08.058.07.056.09.074.12.108.5.432.33.296.09.085.2.17.09.086.13.109.06.062.64.568.04.031.05.047.29.257.45.405.27.247.19.172.31.277 1.03.929.87.805 1.03.953.21.197 1.59 1.51.78.79.67.68 1.26 1.358.14.17.34.383.7.816.28.331.98 1.172.06.072 1.41 1.691 1.52 1.832 1.41 1.711 1.16 1.396.73.887.48.821.39 1.196c1.92 9.492 2.82 15.285 3.91 27.108"/><path stroke="#fff" stroke-linejoin="round" d="m1379.1 276.369-.03.01-2.45.711-6.94 2.022-2.64.977-.46.169-3.44 1.271-3.01 1.112-3.65 1.624-.51.229-.27.119-.17.075-.03.014-.03.011-.08.036-.03.017-.26.114-.38.168-.19.086-.14.062-.03.012-.1.046-.21.095-.07.029-.01.005-.16.07-.15.067-.18.08-.2.09-.01.002-.38.171-.21.095-2.05.914-.64.334-.13.063-.15.081-.5.264-.21.106-7.65 4.004-8.55 5.189-.33.201-1.02.714-1.76 1.242-.03.024-.18.125-2.59 1.824-2.26 1.589-.22.156-.07.049-.05.034-.12.09-.25.199-1.18.956-6.31 5.105-7.17 6.627-.86.91-5.76 6.041-6.07 7.231-.52.696-.28.369-.03.045-.02.025-.62.827-.26.354-1.71 2.287-1.43 1.927-.65.869-2.69 4.063-.21.322-2.04 3.072-4.34 7.403-1.86 3.606-.1.186-.08.163-.1.201-1.59 3.082-3.25 7.219-.35.901-.09.218-.23.606-2.21 5.621-1.85 5.309-.23.651-.08.234-.08.243-.19.542-.01.025-.02.043-.04.12-.01.027-.15.422-1.97 6.231-.58 1.801-2.37 8.291-.45 1.777-.13.501-.07.286-.19.774-.05.187-1.23 4.869-.72 3.313-1.09 5.031-1.42 8.136-.45 3.21-.47 3.238-.01.105-.02.102-.02.164-.1.696-.02.191-.11.921-.02.13-.35 2.88-.07.556-.03.305-.18 1.495-.07.601-.03.294-.45 4.135-.35 3.17-.24 1.75-.18.766-.19.228-.28.13-.57.049-1.09-.02-1.81-.07-.56-.022-2.17-.086-3.2-.125-3.19-.126-.7-.027-2.03-.08-.87-.034-.17-.007-.76-.029-.09-.004-.22-.009-1-.04-1.04-.045-.25-.011-.13-.006-1.42-.064-.16-.007-.49-.022-.18-.008-.25-.012-.75-.034-.32-.015-.6-.027-.59-.026-.14-.006-.22-.009-.06-.002-.17-.008-.12-.005-.1-.005-.22-.009-.04-.002-.18-.007-.06-.003h-.01l-.11-.005-.38-.016-.35-.015-.11-.005-.17-.007-.12-.006-.08-.003-.06-.003-.04-.001-.02-.001-.11-.004-.19-.008-.12-.005-.25-.009-.03-.002-.23-.008-3.08-.12-4.55-.152-4.97-.133-4.96-.114-4.52-.091-3.63-.068-2.3-.042-1.27-.047-.05-.003-.56-.082-.07-.045-.09-.067-.12-.085-.13-.097-.14-.102m-10.68-257.068.08.005-.01-.041-.07-.007-.06-.004-.06-.002-.09-.004-.11-.005-.13-.005-.13-.006m280.32 91.842-.49-.1-1.09-.351-1.99-.685-1.88-.645-1.34-.458-3.3-1.007-.56-.17-.2-.062-.35-.108-.11-.026-1.09-.276-1.76-.446-.67-.17-1.69-.427-.18-.047-.12-.029-4.1-.799-1.9-.369-.5-.097M1196.6 445.663l-.17-.146-.07-.242.08-.823.3-1.891.58-3.444.92-5.488 1.16-7.046.6-3.806.68-4.309.32-2.088.02-.165.02-.151.05-.336.1-.669.03-.191.01-.053.06-.444.06-.4.07-.459.08-.534.04-.269.04-.245.1-.689.06-.395.01-.054.01-.046v-.012l.02-.171.01-.029.01-.108.06-.349v-.038l.04-.237.02-.175.06-.387v-.013l.06-.415.01-.092v-.009l.03-.167.04-.335.04-.283.01-.068.04-.299.03-.195.08-.593.02-.122.06-.443.02-.18.07-.512.47-3.399.03-.239.11-.798.03-.215.05-.404.56-4.44.02-.154.12-.997.02-.16.39-3.094.18-1.625.02-.179.1-.857.02-.182.56-4.869v-.046l.13-1.081v-.048l.92-8.907.84-8.905.75-8.91.68-8.924.29-4.177v-.015l.07-1.054v-.022l.26-3.678.09-1.509v-.05l.08-1.167v-.044l.33-5.287v-.021l.06-.898.01-.252v-.016l.33-5.781v-.035l.07-1.318v-.038l.09-1.546.06-1.257.03-.566.1-1.95.05-1.054v-.007l.01-.093.02-.537.04-.755.03-.637v-.069l.06-1.189v-.018l.01-.133.04-.711.02-.533.02-.41.01-.292.02-.384v-.116l.02-.489.02-.507.01-.218v-.015l.01-.123v-.093l.09-2.033.02-.447v-.01l.02-.423.09-1.972v-.123l.03-.756.33-8.893.27-8.309.2-6.701.01-.496.15-5.551.06-2.267.03-1.111.05-1.909v-1.147l-.03-1.09-.06-1.738-.06-2.059-.06-2.055-.02-.701-.04-1.023-.03-1.069-.01-.631v-.412l.02-.41.02-.625.02-.736.02-.742.02-.643.01-.441-.02-.592-.06-1.099-.12-1.962-.19-3.179-.31-4.102-.44-4.733-.12-.989"/><path stroke="#fff" stroke-linejoin="round" d="m1195.56 198.012-.88-.891-.57-.577-1.67-1.584-.13-.12-1-.929-.9-.827-1.07-.972-.4-.357-.15-.138-.17-.156-.41-.363-.18-.165-.1-.084-.03-.03-.74-.664-.04-.034-.01-.004-.24-.216-.2-.181-.07-.062-.35-.309-.49-.431-.19-.157-.03-.025-.07-.056-.08-.057-.05-.052v-.045l.06-.032.16-.016.29-.003.46.009.67.017.29.008.62.017 1.32.031 1.88.04 2.59.047.92.015 2.54.042 3.98.018 4.12-.07 3.92-.204.5-.058c6.09-1.011 9.54-1.724 15.84-3.387.67-.413.7-.627.5-1m372.6 90.167-1.07-.651-2.29-1.232-.88-.466-1.48-.74-4.84-2.467-2.69-1.39-3.02-1.549-2.66-1.407-3.51-1.823-3.77-1.937-3.22-1.648-5.58-2.882-1.17-.619-6.03-2.852-6.72-2.861-7.24-2.787-7.97-2.762-8.89-2.787-7.23-2.031c-.25-.066-.29-.133-.34-.276m98.37 48.052.94.618 1.09.701.69.441.37.251.14.129.02.045-.01.022-.01.047-.03.053m-139.52-17.835-.58.353-.18.113-.03.019-.12.076-.15.095-.12.077-.26.163-.3.191-.61.389v.002l-.38.241-.1.064-.03.024-.03.015-.03.018-.07.044-.08.055-.35.228-.37.241-.04.025-.08.052-.52.338-.02.01m36.02-9.646 3.21-.15 2.61-.068m-760.328-42.318.409 4.268.3 3.31.183 2.02.122 1.573.12 1.972.005.081.172 3.136.291 5.306.372 6.897.42 7.988.436 8.579.417 8.671.196 4.382.191 4.273.343 8.529.289 8.297.22 7.957.166 7.487.126 6.886.098 6.156.084 5.297.074 4.597.066 4.057.06 3.678.058 3.455.052 3.506.041 3.827.026 4.423.007 5.291-.005 5.54-.013 5.166-.003.735-.001.376-.001.325-.01 2.731-.008 2.541-.003 1.66.005 1.524"/><path stroke="#fff" stroke-linejoin="round" d="m1205.33 379.685-.06.644-.29 2.958v.05l-.1 1.055-.01.074-.13 1.365-.35 3.485-.01.178-.09.862-.01.053-.01.122-.38 3.708-.11 1.016-.02.157-.11.999-.01.151-.1.934-.36 2.992-.12.907-.03.218-.1.795-.04.242-.11.872-.35 2.363-.1.709-.01.05-.03.261-.04.246-.03.193-.1.599-.01.112-.02.124-.01.076-.05.263-.07.503-.02.115-.04.271-.01.062-.07.397-.06.429-.02.109v.013l-.04.263-.02.123-.01.048-.01.091-.03.188-.01.013-.03.203-.03.177v.043l-.06.365-.05.284-.04.24-.04.274-.09.528-.08.532-.06.332-.03.196-.03.205-.04.24-.04.224-.08.482v.056l-.06.333-.01.06-.03.163-.69 4.238-.41 2.433-.43 2.577-.83 5.005-.78 4.707-.68 4.15-.52 3.23-.33 2.054-.18 1.145-.12.504-.11.152-.01.008-.16.084-.02.015-.37.041-.65-.005-1.05-.037-1.55-.055-2.05-.072-2.55-.089-3.04-.105-3.52-.123-4.26-.147-5.23-.182-6.47-.225-7.94-.275-9.71-.333-10-.339-1.8-.061-9.99-.333-4.18-.139-9.99-.327-6.86-.225-9.99-.324-8.65-.281-10-.323-9.56-.309-9.99-.322-9.58-.308-10-.322-8.72-.281-9.99-.322-8.16-.263-9.993-.322-7.889-.254-9.995-.322-7.921-.255-9.995-.322-8.251-.266-9.995-.323-8.333-.268-9.995-.322-8.169-.263-9.994-.323-7.756-.25-9.995-.322-7.097-.228-9.994-.323-6.722-.217-9.995-.323-6.631-.214-9.994-.324-6.825-.222-9.995-.326-7.304-.238-9.995-.326-6.549-.214-9.995-.327-4.562-.149-9.995-.328-1.34-.044-6.881-.226-3.525-.131-1.271-.092-.121-.102-.073-.165-.04-.538-.001-.047-.022-1.224-.011-1.6-.005-.612-.025-3.511-.011-1.538-.021-2.95-.037-5.145-.008-1.018-.006-.879-.021-2.871-.005-.712-.007-1.032-.032-4.458-.037-5.161-.032-4.494-.024-3.484-.014-2.132-.005-1.523.002-1.66.003-.748.006-1.793.009-2.626.001-.325.002-.376.002-.839.014-5.164.006-5.538-.007-5.29-.026-4.421-.041-3.826-.052-3.504-.058-3.454-.061-3.676-.065-4.055-.074-4.596-.084-5.294-.099-6.153-.125-6.884-.166-7.483-.221-7.953-.288-8.293-.344-8.525-.239-5.347-.147-3.304-.418-8.666-.435-8.575-.237-4.51-.183-3.475-.372-6.893-.291-5.304-.176-3.205m0 .002v-.002l-.068-1.121-.052-.848-.122-1.573-.182-2.019-.301-3.31-.408-4.266-.504-4.889-.589-5.178-.664-5.137-.7-4.96-.053-.35-.648-4.3-.665-4.208-.592-3.637-.525-3.126-.462-2.675-.403-2.286-.35-1.955-.296-1.631-.239-1.31-.183-.994-.125-.682-.066-.432-.001-.036-.007-.21M367.204 131.52l-.014-.001-.099-.027-.16-.04-.197-.04-.201-.037m809.997 56.673-.49-.004-.47-.005-.66-.006-.41-.007-.23-.014-.15-.014-.15-.03-.05-.012-.11-.032-.14-.103M243.337 91.233l.186.227.104.128.217.212.482.473.351.333.88.832 1.892 1.802 2.503 2.3 2.236 1.943.828.719.387.312.564.455 2.232 1.801.216.173.178.144.386.284 2.445 1.798.01.007 1.2.882 1.206.796.088.058.007.005.149.099.009.005.129.085.399.264.298.197.258.17.044.029 1.953 1.29 1.923 1.124.279.163 2.068 1.209.809.473 5.656 2.883 6.268 2.738 4.086 1.542 2.016.76.815.307 7.6 2.494 8.32 2.395 9.075 2.31 9.267 2.169 8.893 1.969.389.083 7.562 1.628 6.437 1.397 5.049 1.103 3.788.834 2.23.492.426.094 1.653.363L362 138m561.324-85.914 1.547.497 3.578 1.15 6.004 1.93.423.135 1.984.672 5.943 2.01 8.179 2.768 9.412 3.377 7.046 2.527 9.34 3.57.648.249 6.792 2.597 3.815 1.56 9.255 3.789 4 1.638 9.16 4.022 8.18 3.593 9.05 4.235 8.39 3.92 8.97 4.432 8.45 4.178 8.87 4.617 8.37 4.356 8.77 4.798 6.77 3.698 1.37.752 8.67 4.981 7.72 4.433 8.56 5.175 7.11 4.301 8.42 5.385 6.33 4.041 8.27 5.623 5.36 3.648 8.15 5.804 3.91 2.792 5.58 4.115"/><path stroke="#fff" stroke-linejoin="round" d="m243.322 91.477-.225-.277-.008-.181.148-.16.522-.228 1.111-.387 1.916-.635 2.941-.975 4.366-1.442 6.011-1.98.185-.06"/><path stroke="#fff" stroke-linejoin="round" d="m260.104 85.213.318-.105 2.283-.752.039-.013 6.1-2.01 9.501-3.12 1.537-.504 9.52-3.063 2.609-.839 1.008-.324 9.547-2.975 5.169-1.611 9.583-2.855 6.195-1.846 9.629-2.697 6.693-1.874 9.669-2.553 7.015-1.852 9.703-2.418 7.157-1.783 9.735-2.286 6.451-1.515.667-.157 9.765-2.156 6.894-1.523 9.789-2.044 6.474-1.352 9.808-1.948 5.854-1.162 9.824-1.866 5.033-.956C475.835 30.766 488.164 28.859 510 26"/><path stroke="#fff" stroke-linejoin="round" d="m508.359 26.216 9.928-1.197 5.25-.632 9.944-1.052 6.077-.642 9.958-.918 6.608-.61 9.969-.79 6.843-.542 9.978-.658 6.779-.448 9.193-.485 7.341-.387 9.993-.39 1.234-.048 2.092-.082 2.144-.083.677-.027 9.997-.243 5.579-.137 3.748-.03 2.384-.02.648-.005h.017l.714-.006 7.331-.06c130.616.45 186.93 10.031 271.715 35.776m235.67 116.86 5.54 4.094 4.47 3.296 7.52 5.675 1 .756 3.55 2.68 2.3 1.748.76.614-.03.036-.07.016-.01.004-.15.003-.17.003-.43-.013-.76-.027-.6-.019-.58-.018-1.4-.043-.73-.021-.51-.014-1.18-.03-1.35-.033-.63-.012-.67-.011"/><path stroke="#fff" stroke-linejoin="round" d="m565.082 25.989-7.947.655-.2.017-9.955.953-6.523.625-9.94 1.096-6.004.662-9.921 1.256-5.17.655-9.894 1.451-4.026.591-9.863 1.645-3.448.576-9.834 1.815-2.951.545M282.5 106.5c-.243.158-.34.119-.5 0-6.331-4.227-9.919-6.532-15.379-12.155l.144-.234.399-.185v-.001l.098-.045.436-.202 2.282-.879 4.189-1.569 6.656-2.507 8.215-3.078 8.868-3.282 8.614-3.122 7.454-2.594 6.606-2.197 6.068-1.93 5.842-1.792 5.924-1.783 6.235-1.82L360 63l37-9.5c1.025-.214 1.407.031 1.5 1.5l12.5 81-43.5-5"/><path stroke="#fff" stroke-linejoin="round" d="m390.8 133.735-1.053-.116-1.989-.221-5.135-.62-4.353-.525-5.211-.705-4.416-.597-8.952-1.423-8.361-1.517-7.852-1.584-7.424-1.626-.395-.091-6.685-1.55-6.826-1.704-6.666-1.816-6.597-1.976-6.617-2.184-1.078-.398-1.932-.713-1.84-.68-.04-.015-1.555-.574-5.236-2.209-.843-.355-.782-.388-.335-.166-.088-.044-.217-.108-.012-.006-1.409-.699-.429-.213-.065-.032-2.082-1.033L282 106.5"/><path stroke="#fff" stroke-linejoin="round" d="m394.705 134.123-.551-.062-2.978-.33-.733-.082-2.728-.302-9.488-1.145-5.551-.751L368.5 131m29.404-77.158.035-.006.045.013.06.017.067.019.067.019.031.009m996.021 153.356-1.47-.358-2.5-.571-9.74-2.231-1.26-.275-1.29-.278-9.78-2.112-1.24-.267-2.51-.515-9.79-2.009-2.41-.471-9.82-1.917-1.31-.249-2.22-.415-9.83-1.832-1.37-.246-9.84-1.772-9.67-1.699-7.47-1.287-4.57-.787-2.38-.4-1.28-.209-.9-.125-1.33-.17-1.41-.126-1.5-.074-1.6-.016-1.77.033-2 .071-2.28.099-2.63.116-2.97.13-3.35.14-3.71.147-.59.022-7.94.884-.5.5m-84-1 .27.151 2.65.091 1.58.046 1.48.042 1.34.036.88.024.27.007.92.024.49.013.15.004.42.017.27.022.13.016.15.033.06.018.12.041.22.157.04.026.49.435.5.45.06.057.21.183.11.105.14.122.02.024.77.693.03.03.11.095.15.138.18.164.34.314.15.128.42.381.74.68 1.26 1.139.38.345.75.68.65.586.88.8.53.508.24.259.12.134.38.453.58.69.68.81.24.282.32.385.12.148.6.705.25.302.15.177.22.296.04.154-.06.051m-449.212-37.563.224.016 5.888.432 6.439.471.421.031 2.773.203 1.687.124"/><path stroke="#fff" stroke-linejoin="round" d="m746.936 173.829-.058-.13-.119-.439-.106-.458-.06-.261-.003-.013-.002-.007-.004-.018-.239-1.032-.287-1.243-.285-1.235-.243-1.049-.158-.684-.1-.439-.068-.314-.062-.31-.082-.426-.092-.479-.09-.472-.063-.332-.013-.071-.031-.157-.022-.116-.016-.168.03-.088.082-.037.141-.017 1.131.069 2.861.205.194.014M1174 188l-1.47-.121-.31-.028-1.11-.101-1.38-.134-.71-.071-.01-.001-.64-.063-.91-.091-.09-.01-.33-.032-1.43-.144-1.64-.165-.6-.061-1.34-.138-2.38-.247-.26-.027-1.64-.173-.8-.084-2.25-.236-4.7-.573c-.65-.246-.81-.364-.5-.5"/><path stroke="#fff" stroke-linejoin="round" d="m1199 201.5-102.87-5.229-.38-.021-1.33-.065-3.2-.15-1.18-.054-.07-.004-2.71-.125-2.04-.094-2.21-.101-7.51-.344-2.69-.127-.17-.008-9.99-.47-.97-.047-.08-.004-1.1-.054-9.98-.489-3.3-.161-7.44-.383-9.99-.514-8.87-.485-9.98-.545-9.72-.559-9.985-.574-10.003-.603-9.982-.601-9.711-.614-9.98-.631-8.844-.589-9.978-.666-8.161-.567-9.976-.693-7.663-.548-9.975-.714-7.349-.534-9.974-.725-7.221-.526-9.973-.727-7.054-.515-9.974-.727-6.849-.501-9.974-.728-6.607-.483-9.974-.729-6.328-.462-9.974-.73-2.059-.15-3.163-.231-9.895-.724-3.051-.223-9.974-.729-2.059-.151-1.998-.146-.902-.066-.081-.006-4.988-.365-6.125-.447-1.32-.097-.043-.004-1.812-.133h-1.86c-.104-.221-.14-.221-.163 0"/><path stroke="#fff" stroke-linejoin="round" d="m744.943 163.951.019.156.03.171.017.097.023.131.048.277.085.483.088.493.08.437.06.318.067.319.1.44.158.685.244 1.05.286 1.236.288 1.244.243 1.049.001.007.004.015.06.26.106.459.113.44m331.437 14.816-2.23-.459-1.08-.226-1.23-.255-2.2-.463-1.88-.395-1.35-.282-.91-.206-.59-.173-.39-.181h-.01v-.001l-.11-.072-.24-.178v-.001l-.07-.051-.08-.082-.18-.219-.23-.391-.01-.025-.18-.475-.04-.13-.09-.302-.02-.064-.04-.132-.07-.256-.11-.447-.17-.725-.05-.19v-.006l-.01-.073-.09-.349-.01-.074-.03-.118-.01-.017-.02-.075-.1-.398-.13-.52-.11-.434-.08-.346-.04-.258c-.04-.45.22-1.835.36-2.075"/><path stroke="#fff" stroke-linejoin="round" d="m1136.68 184.076.2.044.01.005.14.072.05.127v.03l-.01.039-.01.134-.07.206-.03.104-.03.082v.005l-.13.356-.22.424-.03.052-.01.018-.03.059-.47.636-.72.693-.78.554-.08.053-.04.029-.13.091-.06.035-.26.147-.09.053-.26.146-.58.327-1.4.639-1.46.52-1.44.35-1.99.187-3.08.033-.23-.001-.94-.022-.25-.006-.06-.002h-.04l-3.46-.084-5.36-.195-.07-.003-1.53-.056-1.88-.077-.64-.027-.9-.037-1.03-.042-.58-.024-.06-.003-1.58-.065-.07-.003-.33-.013-.01-.001-.14-.006-.03-.001-.03-.001-.1-.004-.04-.002-.12-.005-.46-.019-2.93-.128-3.12-.136-.02-.001-.15-.007-1.64-.071-1.79-.08-.07-.003-.21-.01-.32-.014-.83-.037-.32-.015-.15-.006-.13-.006-.02-.001h-.01l-.03-.002-.04-.001-.49-.022-2.14-.096-4.05-.178-2.15-.09-.71-.025-.14-.005-4.27-.193c-.72-.112-1.12-.18-2-.5"/><path stroke="#fff" stroke-linejoin="round" d="M1082.41 188.698h-.08l-.09.004-.03.006m55.05-28.115 6.09 4.186 8.1 5.859 2.69 1.943 7.98 6.021.94.708 3.21 2.522 3.38 2.647 3.36 2.77.1.083.32.266.24.223h.06m-98.95-65.439.06-.012.04.006 1.04.442.3.165 1.7.924.86.463 5.56 3.191 8.63 5.059.52.306 8.57 5.15 3.03 1.821 6.68 4.137"/><path stroke="#fff" stroke-linejoin="round" d="m1074.88 122.376.06.037.05.086"/><path stroke="#fff" d="m1074 122 7 25.5m8.5 41.5 1.5 7"/><path stroke="#fff" stroke-linejoin="round" d="M889 47.5c24.006 6.61 38.464 11.02 68.103 21.599l9.372 3.487 1.902.707.438.163 6.723 2.502 9.297 3.682 8.996 3.564 9.209 3.904 8.51 3.61 9.09 4.169 7.63 3.498 9 4.371 6.02 2.924 8.91 4.527 3.69 1.871L1075 122.5"/><path stroke="#fff" stroke-linejoin="round" d="M718.5 23.5c24 1.323 38.541 2.502 66.618 5.467l9.934 1.141 5.268.606 9.918 1.275 5.301.682 9.893 1.462 4.698.694 9.856 1.692 4.431.76 9.808 1.95 4.502.894 9.751 2.217 4.919 1.118 1.208.308 6.161 1.574 7.977 2.038C928.508 58.807 950.57 66.218 989.5 81.5M718.467 23.554l.071.248.006.016.231.698.507 1.535.547 1.624.005.015.627 1.86.247.733.051.154.327.969.109.325.101.299 1.349 4.006.55 1.634 1.515 4.499.076.225.005.014.053.158.005.015 1.324 3.928.156.464.033.098 2.294 6.803 1.375 4.08.742 2.199 3.198 9.475.484 1.433.026.077 2.309 6.83 1.155 3.419 1.363 4.027 1.232 3.64 1.246 3.686.168.497L766.001 165c.108.294.109.401 0 .5m-403.944-27.458.73.087.156.019.364.041.137.016 2.083.236 1.745.197 3.295.372 8.26.933 2.359.264 8.28.925 6.046.665 6.132.674 9.943 1.067 2.926.314 9.427.975 3.284.34 9.95.998 1.719.172.431.043.186.019.378.038 9.952.975 2.777.272 9.954.96 2.953.285 9.955.954 3.245.311 9.956.943 3.664.346.305.029 9.957.926 3.904.363 4.03.367 9.959.906.847.077 9.961.884 5.671.503 9.962.87 6.413.561 9.963.864 7.103.616 9.963.864 7.743.673 9.962.871 8.334.729 9.961.874 8.866.779 9.961.876 9.339.821 9.962.873 9.753.856 9.962.869 10.109.883 9.962.866 9.1.792 9.963.865 6.722.584 7.633.661 4.266.37 1.037.09 7.814.677.253.022 3.714.32 1.395.117-.005-.019-.093-.392-.147-.629-.019-.081-.045-.192-.002-.007-.21-.893-.294-1.243-.281-1.159-.227-.951-.135-.616-.083-.404-.069-.313-.08-.34-.119-.483-.139-.553-.139-.549-.12-.47-.018-.068-.061-.23-.005-.019.098-.67m-379.156-30.267.235-.339.212-.202.269-.171.384-.214.441-.23.439-.222.325-.16.056-.028.265-.127.131-.057.059-.019.107-.029.048-.007.145-.01.158.003.882-.003h.939l1.322.01"/><path stroke="#fff" stroke-linejoin="round" d="m364.343 133.989.177-.31.031-.054.293-.392.025-.033"/><path stroke="#fff" stroke-linejoin="round" d="m364.869 133.2-.289.486-.005.008-.442.733-.538.901-.563.967m51.327-.258.024.002.092.009.021.001"/><path stroke="#fff" stroke-linejoin="round" d="m362.061 138.212-.001-.05-.003-.12.159-.333.324-.56.491-.872.528-.961.493-.859.291-.468.056-.09m50.097 2.15-.098-.714-.059-.433-.273-2.003-.052-.383-.002-.015-.011-.078-.007-.051-.009-.069-.453-3.324-.305-2.2-.037-.272-.549-3.973-.048-.344-.046-.329-.044-.32-.043-.314-1.04-7.314-.034-.243-1.079-7.275-1.085-6.903-.727-4.449-.005-.032-.074-.45-.247-1.515-.032-.196-1.075-6.49-.063-.384-.006-.034-.007-.044-.205-1.244-.556-3.392-.222-1.349-.17-1.07-.04-.252-.021-.136-.025-.158-.767-4.832-.01-.064-.588-3.797-.366-2.366-.225-1.478-.355-2.333-.087-.568-.125-.82-.03-.203-.027-.176-.166-1.106-.086-.573-.005-.03-.353-2.347-.399-2.654-.176-1.284-.024-.174-.003-.041-.027-.446-.007-.106-.002-.045.082-.2"/><path stroke="#fff" stroke-linejoin="round" d="M402 53c-.109-.113-.096-.233 0-.5l9.155-1.987 8.466-1.811 9.783-2.073.36-.076.714-.152 9.79-2.04 2.582-.539 9.799-1.993 3.21-.653 9.813-1.923 2.955-.579.325-.059.454-.084 9.836-1.802 2.25-.413 9.864-1.64 3.438-.572 9.894-1.453 4.184-.614 9.921-1.255 5.272-.667 9.94-1.099 6.066-.672 9.953-.973 6.037-.591.524-.051 8.497-.74 8.219-.715 9.97-.774 6.644-.516C624.198 21.766 653.227 19.568 711 23l6.5.5h1l10.5 31 36.5 109m717.58 106.542.12-.038.19-.059.27-.082.31-.096.05-.014.77-.239.09-.027.08-.021.65-.189.94-.273.64-.187.1-.029.86-.23.16-.042.39-.103.11-.029.35-.093 1.15-.308 1.49-.356 1.95-.464.08-.019 1.95-.396 1.21-.247.51-.104 1.66-.259 1.74-.271.3-.047.07-.008.06-.008.53-.064 1.3-.158 1.56-.192 3.13-.305.31-.025 2.2-.177 1.67-.12 1-.049.5.013.18.059.73.358.67.376 1.25.708 1.16.673.66.382.03.015 1.41.811.47.271.05.032.5.288.06.037.04.02 2.02 1.165.17.098.05.029 3.27 1.892 1.94 1.108 1.43.816 1.12.646.1.055 3.26 1.865.23.13.18.104.24.135 2.45 1.378.21.118.65.367.06.036.22.126.58.324 1.92 1.085.42.234.06.036.64.359.04.023.22.127.63.355 2.63 1.446 1.21.67 1.57.862 1.79.988.76.421.51.278.43.24 1.15.609.2.103 2.88 1.527 4.06 2.155.21.107.51.252.61.305.21.104.13.065.53.261v.004l.18.089.47.234 4.32 2.148.48.242.26.113.45.204 1.3.584.2.091 4.8 2.16 4.2 1.602 1.89.72.26.099 5.66 1.617 5.09.997 4.64.563 4.11.298.2.015 4.09.247 3.89.189 3.71.142 3.55.103 2.52.055.74.016.14.004.21.002 2.96.039 2.81.008 2.39-.028 1.85-.066v-.001l.04-.002.77-.051.54-.035.1-.006"/><path stroke="#fff" stroke-linejoin="round" d="m1493.83 267.144-2.02.483-1.42.341-1.21.323-.37.1-.5.133-.15.042-.79.213-.17.048-.64.189-.94.274-.65.189-.01.004-.93.291-.35.113-.27.083-.05.018-1.19.478-.36.196-.78.426-.15.092-.11.07-.59.375-.57.358-.07.046-.12.075-.12.077-.21.132-.08.055-.21.136-.34.215-.49.313-.12.082-.36.226v.002l-.11.069-.08.049v.004l-.05.029-.45.296-.14.092-.48.305-.02.015m0 0-1.01.659-.44.282-.28.181-.2.135-.75.49-.17.108-.75.493-.17.111-.03.023-.01.002-.21.143-.02.007-.42.285-.05.029-1.11.742-.62.409-.15.101-.09.066-.05.034-.16.113-.99.681-.2.145-.35.254-.3.219-.42.334-.18.159-.12.092-.08.044-.08.009-.1-.009-.14-.014-.18-.016-.2-.018-.21-.02"/><path stroke="#fff" stroke-linejoin="round" d="m1553.34 483.183-.07-.114v-.263l.08-.509.16-.853.09-.452.11-.586.05-.26.3-1.649.35-1.908.01-.074v-.002l.16-.918.08-.434.11-.646.35-2.147.32-2.085.29-1.889.23-1.558.17-1.094.13-1.341.12-2.306.16-3.984.23-6.381.22-8.047.07-3.493.1-5.49.01-1.965v-1.013l.03-6.21-.03-2.107-.08-4.144v-.416l-.02-1.066v-.002l-.01-.723-.01-.202-.14-3.136v-.021l-.1-2.253v-.025l-.13-2.786-.11-1.419v-.024l-.17-2.125v-.03l-.34-4.248v-.024l-.24-1.991-.03-.221-.39-3.24v-.016l-.16-1.356-.09-.779-.17-.971-1.07-6.453-1.54-7.232-1.85-7.026-2.15-6.807-2.44-6.577-2.68-6.308-2.86-6.003-2.98-5.665-3.06-5.287-3.11-4.901-3.17-4.508-3.22-4.106-3.24-3.696-3.36-3.409-3.58-3.249-3.88-3.212-4.28-3.301-4.68-3.366-5.09-3.407-5.51-3.425-5.94-3.417-5.84-3.201-5.25-2.774-2.14-1.112-1.82-.944-.01-.006-.15-.077-2.49-1.292-1.26-.672-.01-.005-.03-.024-.37-.251.03-.078m166.53 159.225.66.404 1.17.755.93.642 1 .735 1.06.771 1.05.791.92.703.64.509.86.715.43.359.25.253.69.683.51.644.14.191.33.599.06.174.19.55.08.496v.438l-.01.2-.04.375-.06.319-.07.273-.07.271-.08.229-.07.193-.13.395-.19.562-.09.197-.34.726-.14.239-.59.886-.22.322-.35.439-.44.57-.52.713-.21.335"/><path stroke="#fff" stroke-linejoin="round" d="m1639.86 425.054-1.92 3.708-.03.068-1.92 3.757-1.81 3.579-1.47 2.971-.23.484-.93 1.961-.85 2.002-.55 1.633v.011l-.29 1.373m15.47-135.265.02.014 3.28 2.945 2.52 2.438 1.49 1.682.12.229.76 1.478.16 1.573v.373l-.18 2.181-.28 3.281-.39 4.355-.55 5.404-.27 2.483-.07.556v.043l-.02.114-.03.319-.02.212-.38 3.351-.78 5.346-.11.754"/><path stroke="#fff" stroke-linejoin="round" d="m1646.77 374.945-.17 1.122-.04.251-.11.708v.052l-.07.576-.03.283-.18 1.551-.03.315-.05.611.12 3.331.92 4.738 1.1 4.469 1.09 4.086.9 3.279.64 2.537.17 1.23v.462l-.13.845-.18.427-.42.91-.65 1.382-.77 1.608-.79 1.589-.7 1.324-.37.637-.51.846-.36.579-.39.544-.42.565-.47.644-.54.781-.7 1.096-.93 1.59-1.26 2.265-1.67 3.121-1.86 3.531m-7.93 18.445.25.588.59.498"/><path stroke="#fff" stroke-linejoin="round" d="m1630.15 445.217-.21 1.091.04.967v.072m10.02 9.611-.17.319-.45.822-.64 1.259-.62 1.265-.6 1.191-.56 1.034-.56.934-.63.892-.73.908-.89.982-.95.973-.89.882-.82.788-.49.476-.29.275-.3.243-.22.175-.3.231-.4.278-.02.017-.47.3-.52.296-.09.048-.12.068-.75.388-.94.437-1.16.499-1.43.571-1.7.633-.13.047-1.97.685-2.25.723-2.52.751-2.8.766-3.06.765-3.32.752-3.57.723-3.81.691-4.06.654-4.3.615-4.55.57-4.44.507-3.99.423-.23.023-2.95.296m53.23-187.435 2.88 2.382 2.55 2.113 1.78 1.475 1.15.966.67.585.74.658 1.28 1.186 1.98 1.856 2.41 2.253 2.32 2.164.23.216 2.04 1.882m1.28 48.565-.03.168-.18 1.164-.48 3.062-.08.48-.01.055v.001l-.57 3.508-.08.444-.01.082-.45 2.701-.22 1.281-.19 1.118-.03.179m-26.94-86.983.07.022.12.059.32.214.77.618 1.44 1.197 2.37 1.951 2.7 2.232"/><path stroke="#fff" stroke-linejoin="round" d="m1619.83 289.392-.04.056-.05.041m11.22 14.674.99-.095.03-.003.02-.002.95-.119.86-.119.76-.111.59-.092.04-.006.32-.053.02-.001v-.001l.14-.023.03-.005.29-.046.17-.052"/><path stroke="#fff" stroke-linejoin="round" d="m1636.08 303.223-.2.147-.17.163m14.96 46.438-.07.496-.24 1.763-.32 2.341-.74 4.821-.13.837-.32 1.964-.18 1.138m-13.55-59.77.01.011.03.05m-43.95-32.912.48.202 2.34.989 2.49 1.165 2.08 1.101.21.109 2.19 1.324.4.236 2.16 1.467.55.373.82.599 1.19.869 1.52 1.111 1.17.863 1.6 1.252 1.88 1.499.43.351 1.91 1.499.61.492.34.27.08.065.04.034.12.094.15.115.72.578"/><path stroke="#fff" stroke-linejoin="round" d="m1518.18 267.283-.63-.383-.33-.194-1.19-.827-.08-.097-.22-.282-.13-.165.21-.277.82-.152 1.44-.069 2.24-.041 2.67-.049 3.23-.046 3.73-.032 4.17-.006 4.56.032 4.78.07 4.88.107 4.82.146 4.63.183 4.34.204 2.06.11.2.01.53.028 1.16.062 3.21.183.27.015 2.43.142.47.028 2.39.15 1.9.136.19.017 1.29.113v.001l1.24.145.98.199 1.14.337 1.56.546 2.27.821 2.7 1.02 2.87 1.143.71.301m24.51 16.018.17.122.8.576 1.9 1.37.21.151.17.127.11.083.18.13 2.19 1.648 2.77 2.2 2.69 2.215.14.109.04.037 2.6 2.184 2.22 1.891 1.57 1.337 1.01.885.56.533.26.315.12.23.01.122-.04.146-.16.08-.16.044-.12.026v.001l-.01.002-.18.042-.13.025-.32.066-.59.106-.7.117-.81.121-.72.094m-13.48.212-2.9-.07-3.55-.109-3.7-.144-3.88-.191-3.92-.237"/><path stroke="#fff" stroke-linejoin="round" d="m1635.72 303.421-.29.057-.01.001-.01.002-.01.003m-107.21-30.435-4.51-2.612-.69-.403-.07-.037-.17-.098-1.96-1.142-.03-.017-.07-.039-.5-.288-.51-.299-.01-.007-1.36-.81-.67-.398-.44-.268-1.25-.849m-451.43-87.853.34-1.334.56-2.095.76-2.668.92-2.98 1.12-3.228 1.31-3.235.62-1.33.83-1.761.03-.059.07-.132.69-1.274.1-.168v-.018l.84-1.529 1.65-2.525.08-.121.05-.07.01-.013.05-.059.08-.098 1.76-2.178.16-.157 1.86-1.836 2.15-1.649.16-.114 1.28-.747.98-.568.01-.007.75-.311.49-.207.11-.044.48-.2.19-.082.38-.156.91-.277.28-.086 1.25-.381.99-.225 1.13-.258.3-.068 2.34-.425.22-.039 2.18-.361 2.01-.294 1.8-.225 1.55-.152 1.28-.075.3.031 1.01.151.44.085.63.127.9.179 1.22.241.76.148"/><path stroke="#fff" stroke-linejoin="round" d="m1106.8 143.056.09.016 1.99.366 1.5.302.97.196.01.002.41.096 2.4.558.85.23 2.24.616.82.247 2.5.829.79.262 3.38 1.454 3.34 1.948 3.17 2.579 2.88 3.34.38.454 2.61 3.812.13.23.28.484.32.551 1.66 2.866 2.2 4.24 2.05 4.138 1.8 3.782.02.041.36.77.53 1.147.64 1.378.15.323.31.687.45.981.25.562.01.007.26.585.12.242.1.237.24.526.08.185.29.684.05.37-.43-.379"/><path stroke="#fff" stroke-linejoin="round" d="m1149.43 185.379-.47-.07-1.03-.117-1.49-.162-.32-.036-1.56-.171-.36-.038-1.9-.21-2.58-.288-1.42-.16-1.48-.166-3.16-.36-3.31-.373-3.33-.363-3.19-.327-2.94-.269-2.88-.233-3.03-.218-2.29-.153-.19-.012-.19-.013-.75-.05-47.06-2.09M109.763 457.072l-5.602-.973-.336-.059-.136-.024-.141-.024-.141-.025-.136-.024-.127-.022-6.002-1.126-6.216-1.289-6.582-1.498-.1-.025-7.099-1.752-7.043-1.893-6.422-1.921-5.24-1.833-3.497-1.633-.11-.071-2.594-2.102-2.479-3.205-1.042-1.624m-32.013-21.081-.039-.484-.039-.484-.007-.091-.028-.355-.03-.368-.005-.299.011-.844.01-.297.193-1.096.05-.235.293-.985.317-.813.268-.581.098-.177.235-.407.22-.292.218-.236.234-.238.225-.326.043-.063"/><path stroke="#fff" stroke-linejoin="round" d="m44.05 428.653-2.01-.455-3.646-.868-3.893-1.003-3.71-1.079-3.104-1.094-2.582-1.106-2.145-1.113-1.79-1.117-.179-.128-1.34-.989-.164-.128-1.203-1.122-.878-1.13-.529-1.14-.068-.21-.04-.289-.105-.864-.024-.288-.01-.366-.01-.355"/><path stroke="#fff" stroke-linejoin="round" d="m49.635 437.377-.917-1.428-2.272-3.536-2.396-3.76-2.275-3.568-5.389-8.527-5.299-8.48-.399-.639-5.22-8.525-2.238-3.798-1.859-3.155-3.183-5.666-2.482-4.66-1.989-3.937-1.706-3.49-1.405-3.078-1.085-2.7-.752-2.357-.399-2.047-.022-.186-.109-1.776.118-1.534.285-1.327.39-1.156.081-.176.485-1.02.57-.923.645-.86.712-.834.387-.416"/><path stroke="#fff" stroke-linejoin="round" d="m18.929 406.26.266-.571.391-1.131.479-1.723.544-2.013.585-2.006.605-1.706.096-.177.602-1.112.733-.705m133.659 65.959.001-.286.001-.166m.337-1.39-.008-.013-.025-.097"/><path stroke="#fff" stroke-linejoin="round" d="m156.922 459.629.072.003.066-.009.04-.019.021-.025.011-.028.012-.028.012-.03.015-.036.018-.044.024-.056.016-.068-.001-.056-.001-.022-.032-.088-.074-.097-.193-.169m.299.354.041.086.031.068.014.029M622.671 5.018l.068-.072.073-.076.484-.474.531-.464.556-.405.576-.347.422-.204.172-.083.61-.227.62-.166.637-.095.838-.052.655-.017 1.811-.045.525-.012 4.573-.093 7.545-.154 9.897-.151 9.999-.068 1.629-.011 10 .048 2.739.014 9.998.203 3.231.065 9.994.332 3.481.115 9.991.441 3.489.154 9.986.538 3.254.175 9.98.626 2.778.175 9.973.731 2.461.18 9.964.846 2.306.196 9.953.97 2.31.225 9.94 1.095 2.477.273 9.924 1.231 2.722.338 9.905 1.372 3.048.422 9.884 1.516 3.452.53 9.861 1.66 3.936.663 9.839 1.789 3.923.714 9.814 1.917 3.413.666 9.786 2.059 2.411.507 9.746 2.239.923.212 9.006 2.223c8.509 2.515 13.487 3.817 21.21 6.738 7.321 2.31 8.666 2.821 12 4 31.691 10.777 49.613 17.503 82 31.5 26.31 10.729 41.26 17.696 68 30.5 40.38 18.724 62.79 30.298 102.5 52l72 37c.21.227.32.344.5.5.21.159.32.277.5.5M33.648 180.898l-.301-.095-.318-.099-.235-.082-.066-.024-.187-.079-.229-.107-.104-.094-.194-.187-.197-.257-.187-.289-.169-.28-.14-.233-.11-.198-.077-.176-.043-.167-.006-.17.028-.192.06-.229.09-.283.117-.355.172-.503.252-.728.357-1.031.488-1.411.548-1.584.535-1.549.45-1.306.291-.856.203-.524.167-.334.206-.327.246-.307.303-.286.363-.289.413-.283m2.616-1.342 1.241-.524 1.271-.514 1.12-.441.783-.307 1.117-.429.552-.202 1.21-.432 1.313-.422.361-.103 1.48-.415 1.678-.401 1.84-.377 1.964-.341 2.05-.293 2.095-.235 2.182-.186 2.308-.147 2.476-.118 2.686-.098 2.668-.078 2.421-.06 1.946-.042 1.238-.024.69.001.3.035.115.017.097.074.031.035.04.069m-40.103 6.337.166-.079.664-.3-.535.244-.012.005-.283.13Zm0 0-.2.092-.557.266m-.521.289.035-.02.486-.269-.49.288-.082.048-.222.131-.11.064-.125.074.508-.316Zm29.518 1.289-.006.017-1.02 2.461-.647 2.861-.34 3.258-.106 3.666.069 3.924.187 4.032.245 3.988.246 3.795.074 1.104.164 2.451.037.539.186 2.728.057.847.14 2.086.014.199.152 2.354.135 2.162.107 1.76.029.501.05.845v.002l.008.126v.019l.016.254.03.521.018.584-.03.332-.08.186-.126.144-.312.161-.068.031-.638.239-.11.038-.953.329-1.604.549-1.18.4-.76.258-1.857.643-1.66.578-1.13.367-.376.097-.295.076-.055.005-.494.046-.288-.006-.358-.007-.752-.012-.214-.004-.63-.012-.332-.006-.271-.005-.406-.008-.386-.008-.654-.014-1.605-.04-1.711-.051-1.76-.071-1.75-.098-1.684-.133-1.562-.175-.57-.079-.853-.119-.03-.005-.015-.003-1.223-.198-.126-.022-.492-.087-.48-.085-.908-.165-.326-.065-.224-.045-.188-.038-.031-.007-.083-.02-.466-.113-.437-.142-.044-.022-.263-.132-.015-.02-.14-.177-.214-.342-.083-.305-.067-.244-.125-.586-.11-.914-.024-.528-.063-1.13-.023-1.69.018-1.845.033-1.627.02-1.039.024-.587.04-.272.07-.093.118-.05.179-.012h.004l.015.001.009.001.234.017.14.012.302.033.249.028.109.013.072.007"/><path stroke="#fff" stroke-linejoin="round" d="m38.03 183.435-.513-.404-.563-.367-.563-.331-.25-.148-.308-.182-.022-.013-.244-.141-.275-.16-.512-.283-.473-.239-.257-.111-.015-.007-.007-.003-.012-.005-.04-.017-.09-.039-.238-.087-.14-.053m33.359-14.229 1.46-2.101.018-.026 1.994-1.757 1.59-1.011.629-.399.13-.067 2.146-1.084 1.47-.642.103-.045.218-.095 1.153-.503.485-.202.179-.074.326-.102.284-.031.472-.005h.093l.956.009 1.457.011 1.233.014.164.002.527.006 1.74.031.616.011 2.755.074.286.01 2.832.103 3.391.143 3.573.162 3.664.169 3.662.166 3.898.171 4.372.182 5.085.201 6.041.229 5.264.213 1.209.049 5.853.292 4.631.345.077.011 2.59.396.195.046.082.051.022.013.905.709.011.057-.621 1.22-.24.246-.847.868-.837.857-.213.21-.176.173-.195.191-2.035 2.002-.038.038-.335.33-.012.011-.096.091-1.095 1.042-1.462 1.391-.014.013-.002.002-.519.494-.017.016-.093.088-.226.215-.229.218-.809.741-1.574 1.442-.632.579-1.223 1.12-.023.02-1.192 1.039-3.107 2.708-.091.079-.231.186-.641.52-.664.537-2.753 2.229-4.272 3.194-4.362 3.013-4.558 2.926-4.864 2.937-4.827 2.795-4.449 2.503-3.733 2.057-2.675 1.461-1.899 1.019-1.402.729-1.186.595-1.25.614-1.423.668-1.702.757-2.091.881-2.585 1.04-1.975.776-.788.309-1.701.659-.376.145-.053.021-.003.001-.493.191-.263.101-1.979.761-1.406.541-.812.295-.391.097-.154-.048-.04-.04-.098-.13-.067-.307-.049-.575-.018-.331-.014-.254v-.001l-.001-.018-.007-.126-.01-.182-.037-.665-.037-.658-.098-1.729-.127-2.131-.15-2.436-.006-.094-.13-2.017-.06-.907-.128-1.975-.085-1.293-.131-2.023-.1-1.541-.241-3.809-.241-4.006-.184-4.05-.067-3.945.11-3.688.346-3.282.652-2.885 1.03-2.497.06-.091ZM40.5 206l.103-1.56.002-.054.017-1.031.015-1.269.012-1.369.01-1.332.003-1.155-.002-.843-.023-.755-.063-.895-.119-1.262-.193-1.853-.26-2.181-.32-2.248-.348-1.818-.399-1.452-.04-.146"/><path stroke="#fff" stroke-linejoin="round" d="m68.327 164.515-.504.437-1.429 2.022m80.02-4.804.182.059.101.062m-84.73-37.921.335-.067 4.453-.881 4.09-.95 4.105-1.082 4.831-1.345 6.271-1.737 2.846-.79"/><path stroke="#fff" stroke-linejoin="round" d="m37.408 152.511-1.26-5.192-1.623-5.216-1.612-4.667-1.254-3.674-.55-2.238.038-.394.458-1.256.311-.31 1.786-.671.607-.206 3.42-.51 5.364-.799 6.473-.986 6.745-1.07 5.991-1.019m-25.385 41.345.468-1.982.398-2.726.11-2.786.05-1.299m48.034-38.516 2.92-.821 4.481-1.258 8.081-2.281 8.373-2.386 8.277-2.39 7.716-2.25 6.686-1.964 2.57-.757c5.132-1.426 8.04-2.235 13.419-3.732 41.334-13.11 64.471-20.728 105-32.5"/><path stroke="#fff" stroke-linejoin="round" d="m37.893 158.154.009-.923-.494-4.72-.002-.013m-8.924 86.381.186-.884 1.454-7.172 1.417-7.351"/><path stroke="#fff" stroke-linejoin="round" d="m31.452 223.957.087-.485 1.212-6.699.192-1.094m-3.014-12.932-.195-.78-.001-.006-.316-1.161-.371-1.351-.364-1.356-.293-1.176-.16-.81-.001-.727.179-.927.383-1.408.611-2.174.726-2.557.727-2.558.615-2.178.39-1.415.236-.821.151-.397.056-.094.143-.139.196-.056.153-.034"/><path stroke="#fff" stroke-linejoin="round" d="m29.734 201.967.154.62.041.16.203.509.124.158.305.332.147.147.163.133.143.116.121.103.097.095.006.007c.442.328.707.475 1.263.653m-5.397 40.212.319-1.444.42-1.915.228-1.028.026-.121.469-2.132m4.554-33.594.718.142.148.034"/><path stroke="#fff" stroke-linejoin="round" d="m32 205 .376-.233.542.132.632.146.617.129.071.015.257.052.437.084.024.005.245.047.122.02.615.098 4.563.505v-.5m-6.673-24.48.186.027.013.001.008.001m731.314-15.953-.466-.034-.334-.024"/><path stroke="#fff" stroke-linejoin="round" d="m765.63 165.11-1.081-.072-2.681-.203-.099-.008-.419-.031-4.228-.321-6.12-.467-6.802-.526-3.688-.288-3.43-.269-.416-.033-4.517-.362-1.347-.107-.413-.033-.373-.03-.749-.061-.019-.002-.334-.027-.013-.001-.02-.001-1.467-.12-4.076-.331-5.959-.489-4.59-.379-2.006-.165-.566-.047m55.527 4.386-.395-.027.399.022M765.5 165l-56.929-4.407-.034-.004-.158-.025-.122-.046-.019-.013-.09-.077-.069-.121-.189-.876-.449-2.34-.85-4.508-1.391-7.374-1.754-9.311-1.849-9.827-.092-.49-1.843-9.829-.107-.573-1.786-9.569-1.646-8.859L681 22M624.901 2.818l-.103.06-.187.112-.289.17-.567.392-.55.439-.507.447-.437.409-.193.188"/><path stroke="#fff" stroke-linejoin="round" d="m627.173 2.043-.138.028-.004.001-.465.093-.596.187-.594.24-.578.287m2.295-.811-.062.004m-89.737 6.673 4.236-.526 9.933-1.153 2.662-.309 9.944-1.058.676-.072 9.227-.87 5.035-.408 3.382-.275"/><path stroke="#fff" stroke-linejoin="round" d="m579.007 4.349 3.807-.314 8.228-.581 8.584-.536 8.293-.473 7.355-.394 5.768-.297.612-.032 3.546-.188 1.855-.088.712-.007.66.049.698.153.724.248.118.053.732.336.025.013M495.408 14.278l1.457-.201 9.906-1.364 5.088-.7m-16.729 2.305.278-.04-.231.033-.006.001-.353.052-9.895 1.446-6.707.98-7.437 1.156"/><path stroke="#fff" stroke-linejoin="round" d="m496.865 14.077 9.905-1.375 4.935-.685 9.916-1.299 5.609-.734 9.925-1.222.139-.017 4.107-.506M1629.61 304.252l.04-.003m-10.05.05-.35-.006m-3.36-17.585.31.222.14.105.78.564"/><path stroke="#fff" stroke-linejoin="round" d="m1615.24 286.211.65.497.07.052.11.082.12.094.71.54m-101.79-21.956.62-.02m-264.5 182.867.08-.458m-9.3.098.03-.462m-6.46-259.702.97.258 1 .267.29.077m-26.08 70.599.11-.284m.15 11.81-.12.065m-16.64-103.602.07.042m-.13-.072.06.032m-8.15 23.082-.02.004-.12.023m8.62-1.678-.99.193m5.12 234.092.28.026m-11.97-231.844-.15.029m-422.443-25.864.193.012m-3.861-.283.181.231m-.421-.031-.179-.231m1.131 263.76-.45-.018m-51.354-267.491.106-.263M624.611 2.99l.77-.014m-68.246 23.668-1.074.136m28.637 399.333-.015-.025M495.171 14.312l-.041.006-.312.046m-22.186 462.947-1.959.513-.349.092-.024.006-.004.001-.014.004-.234.061m-45.926-332.774-.031-.067m-9.616-9.099.02.001m-3.692-.356.293.029M398.23 53.761l-.329.077m4.02-.939-.337.079m-86.571-3.401 9.68-2.51 5.149-1.333"/><path stroke="#fff" stroke-linejoin="round" d="m314.119 49.809.032-.01.862-.222.213-.055 9.681-2.504 4.885-1.263M168.545 307.374l.125-.173m-27.777 154.073-.999-.106m.871.091-.132-.014-.882-.096m.865.093-.196-.022-.818-.091M85.177 295.135l1.63.32 8.203 1.308 9.891 1.472.132.02 9.898 1.422.984.141 9.901 1.4.868.122 9.675 1.367 7.585 1.095 5.757.851 4.194.634 2.899.446 1.876.286 1.408.206 1.5.208 2.149.29 3.358.454 1.46.197 2.502.337 3.957.535 3.346.451 2.127.288 1.176.179.494.128.079.133-.068.196-.274.388-.539.71-.863 1.165-1.246 1.747-1.669 2.535-2.13 3.524-2.629 4.717-3.166 6.111-3.417 7.065-3.379 7.579-3.057 7.653-2.449 7.289-1.429 5.13-.21.753-.307 1.101-.73 3.171-.658 2.858-.162.704-1.26 6.539-1.074 6.402-.263 1.878-.044.313-.047.333-.098.696-.412 2.941-.04.286-.412 3.667-.337 3.004-.608 7.074-.482 7.653-.018.426-.131 2.961-.091 2.059-.1 2.271-.181 7.268-.009 6.311.18 4.848.325 3.655.19 1.216.04.256.197 1.259.487 2.074.503 1.684.556 1.367.642 1.123.765.953.921.853.969.735.907.596.741.438.466.262.264.128.129.037.065-.014.069-.021.072-.026.075-.031.075-.032v.379l.003.37.01.35.02.32.02.175.012.105.025.235-.005.182-.055.123"/><path stroke="#fff" stroke-linejoin="round" d="m156.905 459.502.017.127.052.387.03.14.038.196.004.098-.007.066-.035.052-.056.046-.057.009-.014.002-.111.065-.274.055-.484-.046-1.042-.16-1.846-.298-2.895-.458-3.42-.539-3.424-.539-2.903-.46-1.865-.302-.098-.017-1.43-.248-1.604-.3-2.382-.455-3.767-.716-4.806-.929-5.501-1.098-5.854-1.22-5.864-1.298-5.927-1.453-1.72-.481-4.325-1.208-6.215-2.001-6.438-2.394-6.46-2.733-3.937-1.894-.76-.366-.607-.292-.953-.458v-.001l-.026-.012m378.169 18.674-9.949-1.004-5.13-.518-2.424-.165-.385-.026-1.224-.083-.297-.02-.413-.028-.431-.029-.351-.024-.004-.001-.198-.013-.287-.02-.018-.001-.176-.012-.092-.006-.642-.044-.031-.002-.303-.02-.087-.006-.241-.017-.054-.003-.59-.04-.117-.008-.417-.029-.358-.024-.285-.019-.458-.031-.216-.015-.014-.001-.056-.004-.232-.016-.031-.002-.141-.009-.182-.013-.573-.039M177.14 443.013l-9.956.938-9.956.938-3.304.311-4.952.678m1103.648 35.229v.125l-.03.165-.1.269-.18.465-.25.752-.31.866-.38.808-.45.65-.5.391-.24.169-.82.225-.38.034-1.22.077-1.76-.012-2.43-.017-2.77-.02-2.77-.019-2.43-.017-1.76-.012-1.44-.019-1.46-.038-1.84-.067-2.56-.109-3.23-.135-3.86-.149-4.41-.146-4.93-.13-5.97-.129-7.54-.145-9.64-.175-9.99-.182-2.27-.041-9.99-.181-4.32-.077-10-.18-5.79-.103-10-.177-6.69-.119-10-.175-7.03-.123-10-.173-7.28-.126-10-.172-7.45-.129-10-.171-7.53-.13-10-.171-7.53-.129-9.99-.172-7.63-.13-9.99-.172-7.8-.134-10.003-.171-8.068-.139-9.999-.171-8.425-.145-9.999-.172-8.694-.149-9.997-.171-8.875-.153-9.998-.171-8.963-.154-9.998-.172-8.963-.153-9.999-.172-8.962-.154-10-.171-8.964-.154-9.997-.172-8.965-.154-9.999-.171-8.965-.154-9.998-.168-8.846-.149-9.998-.163-8.609-.14-9.999-.152-8.251-.126-9.999-.139-7.775-.109-9.998-.128-7.38-.095-9.999-.122-7.063-.085-10-.118-6.827-.08-9.999-.118-6.669-.078-9.999-.119-6.251-.073-10-.12-5.57-.066-9.998-.122-4.627-.056-10-.125-3.419-.042-10-.123-2.373-.029-9.998-.114-1.486-.017-10-.098-.754-.008-10-.074-.186-.001-9.833-.046-9.703-.019-9.79.007-10.096.034-10 .064-.114.001-9.839.105-9.271.151-8.41.207-7.418.274-6.3.355-5.044.452-3.326.509-.335.052m-2.55.827-1.865.905-2.233 1.143-.672.353-2.287 1.232-2.123 1.158-1.743.957-1.147.631-.685.373-.726.38-.478.19-.612.169-.402.073-.502.025-.556-.007-.57-.028-.539-.034-.466-.027-.472-.159-.397-.269-.376-.534-.338-.679-.262-.874-.263-1.137-.266-1.938"/><path stroke="#fff" stroke-linejoin="round" d="m321.664 258.817.014.003 2.053.397 9.817 1.901 2.631.745.458.129 8.437 2.387 3.306 1.306.18.071.234.092.302.119.095.038.063.025.236.093.5.197.05.02.065.026.141.056.189.074.076.03.032.013.041.016.021.008.086.034.027.011.038.015.083.032.09.036.057.022.348.138.1.039.147.059.249.098.447.176.113.045.232.092.219.086.205.081.126.05 2.527.998.277.109.056.028 1.046.533.112.057 2.698 1.374.235.119 6.166 3.14 1.28.801 8.48 5.301 2.97 2.203.201.149.657.488.437.324 2.148 1.593.194.144.009.007.076.056.762.565 1.02.757.027.02.149.111.21.156.381.282.787.675 7.59 6.51.11.093.071.061.116.1.031.027.053.045.298.293.236.232 6.231 6.123.075.074 1.116 1.096.253.249 4.775 5.359.019.021 2.798 3.141 2.922 3.751.076.099.367.47.063.081.213.274 3.27 4.2 4.776 7.072.398.588.007.011.01.015.026.039.23.34.108.159.609.902 4.976 8.608.437.757 1.074 2.209.06.123.201.414.055.114.037.074 3.234 6.653.424 1.063.033.082.037.094.004.009.186.466.059.148 3.165 7.935.42 1.33.056.178 1.18 3.74.008.026 1.178 3.732.07.225.176.555.008.025.006.019.046.148.004.011.09.368 2.382 9.712.044.235 1.824 9.832.208 1.542 1.133 8.412.55 6.013.061.67.008.089.005.058.102 1.117.026.288.138 1.506.128 2.19.014.235.073 1.254.065 1.108.012.211.057.975.011.194.05.851.099 1.691.005.091.028.473.004.114.013.395.279 8.042.154 7.577.116 6.349.055 3.243.005.314.029 1.681.002.135.004.17.002.145.001.064.007.353.001.057.005.315.002.109.005.282.001.053.001.015.004.246.001.044v.03l.007.371.001.059.007.392.002.108.004.234.001.054.001.064.004.218.023 1.265.092 4.173.104 3.527.012.418.125 3.573.12 3.054.101 2.393.066 1.587.062.957c.427 6.735.951 9.886 1.906 15.475.368.099.463.217.5.5"/><path stroke="#fff" stroke-linejoin="round" d="m321.678 258.82-1.094-.131-5.074-.604-5.751-.685-9.985-.541-1.816-.098-10 .058-1.363.008-9.975.703-1.024.072-9.844 1.372-.865.121"/><path stroke="#fff" stroke-linejoin="round" d="m265.752 258.974-9.783 2.067-.464.097-9.618 2.738-.715.203-9.374 3.481-.704.261-7.937 3.774-.153.073-.387.184-1.23.585-8.564 5.163-.659.397-7.951 6.064-.674.514-7.478 6.639-.231.204-6.474 6.357-4.924 5.122-3.058 3.141-1.665 1.642-.745.625-.293.09m324.617 81.942-.961-1.077-4.312-5.049-.039-.046-.086-.102-.168-.2-.008-.01-.067-.079-.042-.051-.355-.423-.047-.056-.308-.367-.011-.012-.08-.096-.099-.118-.228-.272-.227-.27-.135-.161-.047-.056-.058-.069-.437-.521-.215-.257-.229-.272-.102-.122-.034-.04-.78-.929-.141-.168-.376-.449-2.436-2.938-.076-.092-1.039-1.253-.078-.095-.347-.418-3.437-4.188-2.662-3.268-1.652-2.041-1.012-1.264-.741-.943-.842-1.074-1.246-1.573-.07-.088-.064-.081-.543-.677-1.472-1.841-.634-.785-.023-.027-.094-.117-2.388-2.958-.195-.241-.491-.603-3.17-3.904-.635-.782-2.905-3.561-2.94-3.605-.158-.193-.136-.167-6.342-7.732-.909-1.108-3.424-4.141-.046-.056-.085-.103-.301-.363-.087-.106-3.885-4.699-.155-.186-.042-.05-4.43-5.299-.037-.044-3.2-3.829-1.747-2.055-.123-.145-.262-.309-.031-.036-.009-.01-.007-.009-.081-.095-5.1-6-6.505-7.595-.479-.56-2.923-3.426-.22-.258-2.925-3.428-.669-.785-2.514-2.994-.212-.253-.026-.031-.038-.045-.125-.149-.056-.067-.184-.219-.087-.104-2.152-2.563-.133-.158-1.092-1.302-.711-.87-.488-.598-.188-.23-3.626-4.442-1.616-1.979-6.229-7.823-.187-.236-3.911-5.038-.139-.18-.052-.067-.124-.159-.746-.961-.152-.197-.854-1.1-.976-1.294-.044-.058-.03-.041-.053-.07-.09-.12-.031-.04-.16-.213-.055-.072-.086-.115-.034-.045-.021-.028-.104-.138-.041-.055-.134-.177-.07-.093-.169-.224-.125-.166-.03-.04-.137-.181-.049-.065-.088-.118-.025-.032-.02-.027-.071-.094-.031-.042-.008-.01-2.634-3.493-4.43-6.105-1.667-2.393-2.139-3.068-3.441-5.117-.418-.636-1.315-2-1.603-2.438-3.492-5.331-3.529-5.405-3.446-5.296-3.245-5.005-2.927-4.532-2.748-4.278-2.705-4.245-2.802-4.427-3.036-4.829-3.004-4.796-2.706-4.331-2.143-3.435-1.316-2.11-.658-1.154-.166-.568.159-.35.318-.498.483-.649.033-.044.751-.935 1.024-1.221 1.335-1.551 1.414-1.615.152-.174 1.72-1.932 1.796-1.985 1.797-1.945 1.742-1.886 1.632-1.808 1.469-1.713 1.253-1.598 1.078-1.493.944-1.394.849-1.302.793-1.216.717-1.098.618-.947.496-.763.354-.546L362 138"/><path stroke="#fff" stroke-linejoin="round" d="m761.996 431.509-.023.105-.023.101-.021.093-.018.08-.014.064-.023.043-.081.093-.134.054-.024.005-.736.007-1.919-.049-3.651-.112-5.937-.181-7.639-.234-8.758-.269-9.294-.286-9.247-.287-9.6-.299-9.995-.314-.358-.011-9.995-.315-1.51-.048-9.995-.316-3.064-.097-9.995-.316-4.089-.13-9.995-.318-4.585-.146-9.995-.32-4.553-.145-9.995-.322-3.991-.128-9.992-.396-3.246-.128-9.984-.558-2.319-.13-2.515-.211-5.429-.456-3.237-.272-9.874-1.282-8.733-1.653-4.191-1.108-3.571-.945-2.202-.785-4.756-1.696-2.94-1.367-1.688-.784-1.696-.789-5.703-3.322-.087-.051-1.358-.959-2.277-1.609-1.722-1.216-1.146-.952-.725-.602-.635-.527-2.519-2.091-3.231-3.058-1.563-1.478-.131-.138-4.472-4.674-3.509-3.937-.944-1.06m-349.045 70.088.027.049.068.145.081.204.09.246.097.274.101.287.101.284.102.284.102.284.103.285.102.288.078.261.029.206.004.037-.019.154-.049.063-.086.093-.113.045-.141.032-.152.035-.157.035-.156.036-.152.035-.142.032-.128.012-.507-.006-1.236-.125-2.299-.263-3.696-.424-1.543-.179-3.223-.376"/><path stroke="#fff" stroke-linejoin="round" d="m147.808 462.074-3.116-.355-3.695-.433-.059-.007-.033-.004-.08-.009-.043-.005-.025-.003-.142-.017-.156-.018-.153-.018-1.13-.132"/><path stroke="#fff" stroke-linejoin="round" d="m140.997 461.286-.969-.101-5.946-.659-6.029-.743-6.069-.821-6.069-.897-6.024-.967-5.73-.999m366.512 21.725-.926.366-.009.004-.05.02-.503.199"/><path stroke="#fff" stroke-linejoin="round" d="m140.938 461.279-.045-.005-.128-.015-.06-.007-.089-.01-.125-.014-.319-.037-.719-.082M83.427 158.508l-.162-.004-1.214-.027m-43.116 26.446-.363-.888-.004-.01-.037-.09-.012-.029"/><path stroke="#fff" stroke-linejoin="round" d="m38.572 184.035-.01-.018-.35-.614m.349.614-.156-.206-.198-.259"/><path stroke="#fff" stroke-linejoin="round" d="m38.405 183.811-.375-.376-.16-.161m-3.842-2.228-.001.002m-6.183 60.805.638-2.974.13-.606"/></svg>