<svg fill="none" viewBox="0 0 1407 1169" xmlns="http://www.w3.org/2000/svg"><g stroke="#fff" clip-path="url(#teslam3-Vn8FpRkY_svg__a)"><path stroke-linejoin="round" d="m958.996 985.083-.061.033-1.059.365-1.429.231-2.298.232-3.675.372-4.838.487-5.79.576-6.527.64-7.049.679-7.811.733-8.815.802-9.961.878-.102.009-9.963.851-1.595.136-9.966.823-2.869.237-9.969.793-3.922.312-9.971.76-4.749.362-9.974.722-5.34.387-9.977.679-5.734.39-9.98.626-5.922.371-9.985.563-5.901.333-9.988.489-5.671.276-9.992.41-5.414.22-9.995.32-5.132.16-9.998.22-2.971.06-1.857.05-9.999.11-4.501.05-10 .03-3.396.02-10-.02-1.521-.01-4.292-.02-4.592-.03-5.49-.03-3.302-.05-2.312-.12-2.519-.22-3.917-.37-4.645-.44-4.702-.46-4.099-.404-2.841-.28-1.858-.185-1.15-.117-.714-.073-.547-.057-.298-.073"/><path stroke-linejoin="round" d="m737.694 1001.42 9.995-.31 5.172-.17 9.992-.4 5.446-.22 9.988-.49 5.69-.278 9.984-.56 5.9-.332 9.981-.622 5.905-.369m-179.488 1.035-.172.092-.097.194-.036.125.072.348.253.597.449.93.657 1.37.866 1.78 1.078 2.17 1.293 2.53 1.507 2.86 1.69 2.92 1.837 2.7 1.973 2.24 2.092 1.56.478.24 2.981.88.603.06.801.08 4.489.14 6.6-.65 9.329-1.44 9.837-1.8.785-.15 9.799-1.99.73-.15 9.097-2.06 1.242-.31 6.399-1.74 4.337-1.9 1.557-1.19 2.675-2.43 1.639-2.32.916-1.68.093-1.06m307.172-76.169 6.76-.941 6.58-.924 6.39-.916 6.26-.914 6.18-.923 6.16-.94 6.2-.965 6.22-.984 6.21-.999 6.2-1.006 6.15-1.01 6.4-1.077 6.91-1.204 4.1-.743 3.6-.65 8.74-1.642 9.42-1.823 9.73-1.941 9.68-2 9.29-1.995 9-1.997 8.78-2.002 8.67-2.01 8.64-2.022 8.48-2.039 8.18-2.062 7.78-2.088 7.25-2.121 6.81-2.132 6.45-2.128 6.17-2.105 5.98-2.065 5.79-2.04 5.57-2.033 4.53-1.73.81-.309 1.47-.589.08-.033 3.56-1.438.6-.251 4.15-1.76 4.27-1.895 3.67-1.715 1.22-.606 1.74-.866 2.43-1.292 2.07-1.172 1.86-1.111 1.83-1.109 1.78-1.101 1.73-1.091 1.64-1.079.64-.429.06-.046.69-.465.18-.122 1.49-1.056.51-.375.07-.05.01-.002.86-.633 1.39-1.072 1.37-1.095 1.35-1.108"/><path stroke-linejoin="round" d="m1336.85 818.315-.89 3.353-.71 2.828-.54 2.35-.26 1.135-.03.124-.15.697-.37 1.646-.37 1.442-.46 1.344-.26.567-.36.787-.87 1.47-1.06 1.525-1.19 1.514-1.28 1.436-1.3 1.291-1.33 1.185-1.34 1.119-1.34 1.093-1.13.924-3 2.5"/><path stroke-linejoin="round" d="m1336.71 818.733.6-2.031.01-.026.53-1.797.03-.094 1.23-4.182.11-.414"/><path stroke-linejoin="round" d="m1336.79 818.513.06-.198 1-3.436M958.649 929.615l.229.445 1.891 1.041 3.221.645 4.748.3 3.071-.007.726-.001 2.109-.005 6.701-.295 7.135-.548 7.213-.77 7.247-.924 7.22-1.015 7.16-1.037 16.29-2.299m-1233.541-61.238 9.853 1.709 7.504 1.302 9.852 1.709 7.752 1.345 9.853 1.709 8.006 1.389 9.853 1.709 8.265 1.434 9.853 1.709 8.443 1.465 9.853 1.709 8.534 1.481 9.853 1.709 8.535 1.48 9.853 1.71 8.437 1.464 9.853 1.709 8.423 1.46 9.852 1.71 8.497 1.474 9.853 1.709 8.66 1.503 9.853 1.709 8.925 1.548 9.852 1.71 9.103 1.58 9.852 1.711 9.191 1.597 9.852 1.714 9.182 1.598 9.852 1.717 9.074 1.582 9.85 1.721 8.292 1.448 9.85 1.722 6.799 1.19 9.85 1.725 4.569.8 9.849 1.727 1.581.277 8.931 1.594 6.951 1.297 5.512 1.123 4.628 1.067 3.816.975 3.075.845 2.406.673 1.81.463 1.566.338 1.678.299 2.145.345 2.971.477 3.39.546 3.396.545 2.989.48 2.161.348 2.595.299 1.339.103 3.232-.042 4.248-.295 5.605-.476 2.999-.276m-22.667-9.608-.646-1.172-1.043-1.81-.901-1.564-.6-1.042-1.804-3.327-1.531-3.117-.418-.852-1.938-4.535-1.766-5.02-1.556-5.248-1.307-5.213-1.019-4.919-.211-1.334-.48-3.028-.434-3.773-.252-3.154-.141-2.507-.103-1.829-.102-1.275-.138-.847-.212-.541-.323-.362-.698-.279-1.336-.297-2.235-.412m37.674-479.223.143-.137.025-.064.012-.093-.025-.109-.032-.031-.445-.393-1.14-.856-.177-.13-.821-.599-1.099-.804-.504-.368-.154-.112-1.538-1.124-1.116-.815-4.66-3.552-6.135-4.925-7.271-6.142-.455-.384-7.486-6.631-1.938-1.716-4.055-3.671-7.037-6.37-2.916-2.659-7.389-6.737-2.416-2.203-7.395-6.731-3.19-2.903-3.717-3.382-7.423-6.701-7.422-6.701-.982-.886-7.476-6.642-7.475-6.642-2.031-1.805-7.551-6.556-7.55-6.556-2.679-2.326-7.65-6.441-7.649-6.441-2.946-2.48-7.774-6.29-1.128-.913-.489-.395-.03-.025-1.074-.868-5.191-4.2-1.341-1.086-.267-.215-.131-.107-.971-.785-7.905-6.125-1.542-1.195-.306-.237-4.864-3.77-2.861-2.217-.689-.533-.107-.08-1.129-.832-4.704-3.468-1.3-.959-2.657-1.959-7.685-5.666-8.217-5.7-8.216-5.701-.237-.164-8.421-5.395-7.03-4.503-2.904-1.7-7.498-4.39-1.364-.799-2.727-1.597-8.833-4.688-2.078-1.102-2.87-1.524-7.663-3.672-.037-.017-5.6-2.684-2.921-1.266-.931-.403-1.572-.681-6.701-2.904-.916-.397-1.284-.498-4.493-1.746-1.99-.773-2.552-.991-2.404-.934-.183-.07-1.162-.4-3.834-1.319-.933-.321-6.422-2.21-3.267-.978-5.185-1.552-3.477-1.04-8.821-2.236-.184-.046-2.452-.622-9.792-2.031-1.549-.322-9.866-1.632-1.701-.282-9.916-1.297-2.204-.288-7.916-.83-5.066-.531-8.714-.692-1.85-.148-2.92-.232-.32-.023-9.986-.529-1.797-.095-1.859-.098-9.997-.234-3.471-.082h-.455l-.568-.001h-.045l-.699-.001-.711-.002h-.65l-.516-.001"/><path stroke-linejoin="round" d="m106.127 345.009-4.028-4.665-6.536-7.569-5.57-6.026-6.79-7.343-6.78-6.919-7-7.142-.451-.435-7.196-6.945-7.196-6.944-.775-.706-7.391-6.736-7.392-6.736-2.772-2.373-.856-.732-1.875-1.606-4.481-3.836-1.4-1.198-.804-.688-3.753-3.213-7.238-5.813-4.837-3.885-2.635-2.116-.792-.636-.527-.423-.42-.314-5.838-4.378-3.217-2.413-6.362-4.771-7.17-4.972-8.216-5.699-6.234-3.933-8.458-5.335-5.381-3.087-8.674-4.977-4.61-2.412-8.86-4.637-3.92-1.885-9.011-4.333-7.71-3.446-4.728-2.115-2.723-1.114-9.254-3.789c-18.948-6.6-27.907-10.29-74.158-17.069-12.488-1.294-19.37-1.698-31.5-2"/><path stroke-linejoin="round" d="m-87.37 193.7 8.059 3.602 9.013 4.332 3.917 1.883 8.86 4.636 4.606 2.41 8.675 4.976 5.377 3.084 8.459 5.333 6.23 3.929 8.22 5.696 7.165 4.965 6.278 4.703 2.495 1.87.722.541 5.846 4.38.495.371.455.365.793.636 2.636 2.115 3.24 2.601 1.599 1.282 7.305 5.862 3.696 3.161.114.098.692.591 1.4 1.198 4.484 3.834 1.878 1.606.024.021.833.712 2.82 2.412 7.394 6.733 7.394 6.733.77.702 7.2 6.941 7.199 6.941.447.431 7.003 7.139 6.78 6.912 6.792 7.341 5.57 6.021 6.538 7.567 4.027 4.661 6.3 7.765 2.642 3.256 6.101 7.924 1.41 1.833 5.971 8.022.305.409.864 1.161 2.604 3.5 1.006 1.352.056.075.642.862.092.124.302.405 3.974 5.341 1.003 1.348.288.386.183.247.185.248 1.661 2.232 2.401 3.226 1.52 2.042.871 1.126.008.009.461.487.272.139.238.063.064.017.004.001.271.048.293.015.162.008.912.035.675.014.933.018 1.126.023 1.254.025 1.317.025m53.771-6.428.768-.143 3.539-.661 1.675-.296 1.138-.201.148-.026.711-.126.703-.118.009-.002 2.136-.36.883-.141.139-.022.819-.131.54-.077.57-.082.655-.068.476-.026.573-.032.614-.034.601-.034.534-.03.412-.022.275-.019.124-.018m-71.813 9.097 1.945-.014 3.465-.056 5.478-.087 6.651-.136 1.207-.035 2.808-.082m939.755 61.855-9.41-3.379-.27-.097-9.49-3.142-7.51-2.484-9.57-2.894-7.33-2.216-9.65-2.61-7.5-2.027-9.73-2.307-8.01-1.898-9.8-2.003-8.83-1.807-9.86-1.714-9.972-1.735-9.89-1.476-9.89-1.476-.787-.117-9.919-1.27-9.919-1.27-1.042-.134-.873-.107-9.94-1.098-9.939-1.098-.951-.105-9.958-.927-9.957-.926-.464-.043-9.967-.808-9.967-.809-.822-.066-2.306-.197m-4.291-.323-1.896-.202-.096-.01-2.239-.239-1.596-.17-4.549-.486-6.811-.726m19.649 2.02-1.08-.109-.173-.017-3.389-.342-8.196-.826"/><path stroke-linejoin="round" d="m892.692 418.081-.405-.038-6.471-.604m.099.13-2.552-.285-.06-.006-3.291-.367-.777-.086-2.341-.261-2.263-.252-3.822-.425-4.292-.478-3.532-.404m395.235 95.86-1.27-.99-5.61-4.034-6.66-4.303-7.66-4.343-8.66-4.341-9.13-4.07-.52-.23-9.29-3.693-1.46-.581-9.43-3.353-2.54-.906-9.54-3.012-3.84-1.215-9.64-2.681-5.35-1.49-1.32-.344-9.71-2.386-7.08-1.739-9.78-2.101-8.96-1.926-9.83-1.869-5.13-.975"/><path stroke-linejoin="round" d="m1275.63 525.068-.24-.22-1.72-1.533-.55-.486-2.11-1.786-1.34-1.086-1.48-1.194-2.28-1.842-3.48-2.824-4.21-3.232-.47-.357"/><path stroke-linejoin="round" d="m1306.85 566.683-.27-.234-.02-.021-.15-.129-.23-.194-.06-.053-.26-.229-.32-.303-1.68-1.582-.26-.287-2.04-2.189-2.47-3.111-2.31-3.491-2.45-4.109-2.35-4.151-2.19-3.89-1.04-1.757-.45-.756-.48-.824-1.54-2.372-.37-.568-.24-.352-1.98-2.699-2.2-2.597-2.56-2.638-2.65-2.51-.89-.789m33.57 44.14.09-.132.04-.13-.18-.238-.52-.478-.98-.846-.24-.21v-.003l-.15-.122-.17-.146"/><path stroke-linejoin="round" d="m1309.09 568.726-.13-.024-.34-.002h-.05l-.69.012-.29.004-.77.013-1.52.028-2.06.046-.97.026-1.71.044-.07.002-2.66.078-.65.02-3.65.113-.21.007-.06.002-.78.025-.22.008-.25.008-1.95.063-2.85.094-.29.011-1.12.039-.37.013M506.037 429.91l-2.498-.419-.09-.016-.4-.067-.074-.012-.135-.023-.094-.015-.039-.007-1.022-.169-2.099-.347-2.838-.459-1.948-.294-2.503-.374-6.649-.994-9.89-1.478-.161-.024-9.3-1.39-1.94-.28-1.603-.21-9.915-1.298-9.915-1.298-1.62-.212-5.763-.755-2.235-.292-7.919-.911-9.935-1.142-9.934-1.142-.506-.059-.905-.104-1.875-.21-7.683-.779-.08-.008-.007-.001-.382-.039-.406-.041-.878-.089-.175-.018-.221-.022-1.54-.156-2.1-.213-2.332-.237-9.949-1.009-2.613-.265-.394-.04m135.242 17.369-2.662-.449m0 0-.015-.002m.015.002 6.52 1.128 2.65.459 9.104 1.575.555.096 3.34.578.397.068.004.001 3.503.606 3.22.561 2.696.472 1.706.3.952.178 9.814 1.921 9.814 1.921 8.919 1.745 9.774 2.113 5.489 1.187 6.684 1.444 6.18 1.336 9.013 2.115 9.735 2.284 9.36 2.197 9.701 2.429 9.7 2.429 9.107 2.281.438.115 9.665 2.567 9.665 2.566.297.079.257.068 8.481 2.253 9.627 2.705 6.538 1.838 9.627 2.705 1.872.526 9.584 2.854 9.584 2.854 7.222 2.151 9.532 3.025 9.531 3.024 5.463 1.733 9.477 3.193 9.476 3.192 4.261 1.435 9.424 3.344 2.286.811 9.424 3.344 1.339.476 9.379 3.468 9.38 3.468 1.366.505 1.826.676.364.134 1.979.753 9.347 3.555 9.347 3.555 2.082.792 9.321 3.622 9.32 3.623 3.781 1.47 9.298 3.679 9.299 3.679 2.712 1.073 5.664 2.277 9.279 3.73 4.468 1.796 9.259 3.777 7.466 3.046 9.251 3.8 4.872 2.001.496.204 6.049 2.469.965.394.038.016.702.286.188.077.427.174.056.023.55.225.516.21.777.317.723.296.467.19.542.222.096.039.816.333.004.002.183.074.081.033.163.065.766.305.117.047.695.277.58.231.241.096 2.401.958.101.04.055.022.411.164.99.395.296.118 1.047.417 3.185 1.27.908.362.132.053 1.116.427.415.158.92.352 1.025.392 1.262.482.296.113.604.231.771.295.816.312 1.129.432.259.099 3.218 1.23 9.378 3.471 1.506.557.885.32 1.086.392 7.361 2.659 7.17 2.551 4.43 1.573 2.31.846.86.372.1.083.05.1.04.108M238.745 395.925l-1.889-.716-1.207-.458-2.66-1.205-2.162-1.121-1.622-.923-1.08-.643-.658-.403-.372-.217-.221-.103-.21-.059-.194-.03-.267-.026h-.065l-.306-.004"/><path stroke-linejoin="round" d="m394.457 415.12-7.537-.881-9.936-1.126-3.067-.347-.998-.113-.41-.047-.286-.032-.066-.008-.169-.019-.652-.074-.911-.103-1.885-.214-3.401-.385-1.425-.161-7.498-.85-9.376-1.037-9.94-1.099-8.875-.982-1.748-.19-2.96-.322-9.941-1.081-9.942-1.081-.236-.026-3.639-.39-.588-.063-.402-.044-.487-.052-9.943-1.068-4.568-.49-8.799-.944-4.183-.448-.231-.026-7.905-.873-5.019-.616-1.582-.239-2.012-.305-3.845-.677-3.007-.619-.916-.189-1.051-.257-1.45-.353-1.328-.325-.392-.116-3.106-.923-.065-.019m289.543 37.842.39.067.009.002m-.399-.069-3.873-.675-9.111-1.585-2.573-.448-2.258-.393-1.694-.286 3.913.679 2.605.452 9.108 1.582 3.883.674ZM377.95 550.491l.215.025 9.931 1.171 3.301.389 8.495 1.553.388.071 3.45.631.58.15.83.216 9.287 2.413 8.966 2.961 7.148 2.798 5.247 2.285 3.271 1.425 1.805.733.85.211.353.026.051-.001"/><path stroke-linejoin="round" d="m350.1 549.928 3.482-.043 9.999-.125.684-.008 9.984.549 3.916.215M175.92 398.44l-2.666.132-3.271.162-5.725.144-4.878.052-3.635.03-2.623.013-1.834.002-1.27-.003-.926-.001h-.348l-.636.005-.398.016-.133.014-.126.02-.069.011-.103.053-.026.072.038.089.072.098.071.097.157.31.33.736.589 1.379.935 2.235 1.103 2.782.971 2.69.118.324.894 2.933.517 2.531.081 2.338-.416 2.355-.5 1.33-.009.022-.106.283-.356.948-1.59 3.027-1.907 3.147-1.925 2.94-1.636 2.401-1.042 1.527-.684 1.358-.036.071-.12.374-.044.136-.511 1.599-.909 3.572-.034.135-.1.411-.053.217-1.236 5.057-1.779 7.501-1.918 8.35-.059.254-2.017 9.129-1.895 9.063-1.699 8.469-1.429 7.348-.169.885-.917 4.812-.063.329-.117.618-.488 2.57-.343 1.942-.11.974.032.611.08.858.108.971.117.953.107.803.074.521-.025.64-.193 1.161-.429 2.084-.733 3.41-.166.761-.722 3.32-.394 1.805-.5 2.293-.748 3.458-.085.4-.369 1.759-.281 2.162-.233 3.467-.307 6.074-.504 9.983-.237 4.889-.098 2.012-.033.672-.008.167-.014.294-.007.135-.028.57-.171 3.52-.033.68-.01.218-.01.231-.042.923-.054 1.172-.007.168-.095 2.078-.022.481v.002l-.007.147-.005.118-.044.973-.042.911-.03.657-.164 3.613-.051 1.122-.005.109-.051 1.109-.041.908-.059 1.417-.057 1.397-.03.725-.043 1.047-.001.02-.005.118-.042 1.034-.109 2.641v.004l-.024.581-.056 1.358-.04.969-.015.362-.04.952-.018.436-.12 2.923-.03.849-.096 2.752-.004.11-.094 2.661-.095 2.725-.054 1.53-.007.191-.052 1.479-.005.155-.079 2.242-.02.571-.023.657-.005.15-.104 3.482-.002.053-.038 1.262-.007.256-.001.018-.05 1.685-.159 5.284-.002.077-.048 1.6-.003.114-.069 2.291-.122 4.725-.005.21-.01.392-.025.952-.006.246-.14 5.42-.031 1.216-.003.125-.04 1.546-.01.371-.024.93-.002.113-.067 2.984-.052 2.301-.041 1.812-.011.493-.02.922-.006.247-.002.1-.011.48-.002.115-.027 1.195-.052 2.314-.055 2.441-.013.587v.022l-.061 3.031-.05 2.507-.041 2.046-.015.721-.075 3.784-.038 1.886-.003.152-.028 1.387-.01.501-.005.325-.031 1.929-.005.336-.053 3.288-.008.5-.005.302-.009.572-.015.925-.012.778-.007.424-.009.578-.002.104-.006.349-.004.28-.026 1.636-.015.941-.016.993-.007.432-.011.661-.005.359-.005.274-.006.626-.007.656-.003.303-.02 1.859-.013 1.218-.011 1.084-.002.172-.011 1.106-.006.55-.025 2.343-.016 1.574-.012 1.166-.002.122-.012 1.19-.021 1.975-.007 2.235v.079l-.004 1.12-.001.122-.002.645-.001.494-.012 3.544-.007 1.942-.001.375-.005 1.599-.002.45-.003 1.063-.008 2.249.001.129.005.972.001.225.005.991.003.415.009 1.841.012 2.173.006 1.088v.135l.006 1.108.016 3.055.01 1.824.002.431.002.318.006 1.194.014.993.002.114.019 1.322.013.907.002.139.012.849.018 1.292.002.131.003.244.014.986.003.194.002.15.025 1.703.097 6.815.068 2.899.236 9.998.067 2.839.333 9.994.187 5.599.389 8.916.283 6.489.509 9.987.219 4.292.004.071.562 9.984.138 2.453.576 9.673.361 6.067.222 3.312.04.359.111 1.002.005.045.153.386.214.252.158.082.447.148.236.078 1.487.271 2.65.415 4.174.658 5.107.836 5.448.946 5.184.99 4.312.963 3.498.894 2.748.776 2.056.614 1.427.404 1.238.299 1.488.298 2.182.404 3.325.615 3.904.722 3.919.725 3.359.622.721.133 1.503.278 1.332.204.688.001.372-.017.603-.097.912-.146.281-.045.862-.139 1.297-.208 1.372-.221"/><path stroke-linejoin="round" d="m203.848 393.774-.912.205-.775.174-.892.201-1.216.273-1.18.265-5.278 1.134-5.594 1.042-5.92.843-6.026.517-.135.012-.096.008m-28.444.637-.101.005"/><path stroke-linejoin="round" d="m208.415 392.773-2.346.508-.571.123-.317.069-.043.009-.129.028-.073.015-.071.016-.132.028-.137.03-.769.166-.015.004-.909.207-.766.175-.882.202-1.202.274m-9.624 473.761.308-.201.172-.397-.017-1.383-.256-3.161-.55-5.733-.897-9.103-.856-9.964-.151-1.758-.646-9.979-.234-3.609-.046-1.319-.35-9.994-.119-3.385.036-5.862.055-9.187.411-9.991.211-5.142.366-5.073.712-9.873 1-9.95.05-.49.046-.459.361-3.585 1.023-7.986.338-2.643.399-3.115.075-.454.626-3.799 1.273-7.723.211-1.28 2.051-9.788.646-3.081.019-.09.014-.069.283-1.084.558-2.145 2.315-8.891.244-.941.568-1.806.198-.633.743-2.364.21-.671 2.478-7.891 3.465-9.38.654-1.772.218-.59.641-1.735.88-2.054 3.94-9.191.922-2.15 4.437-8.962 2.057-4.154 2.349-4.103 1.891-3.305 1.15-2.01.507-.885 1.336-2.334 4.18-6.297.074-.112 1.212-1.825.293-.442.172-.259 2.088-3.145.359-.463 4.367-5.642 4.132-5.337 6.728-7.399 3.022-3.323 7.334-6.799 3.363-3.118 7.886-6.149 3.602-2.808 8.396-5.431 3.718-2.405 8.87-4.619 3.703-1.929 6.12-2.422 6.732-2.665 9.623-2.719 3.524-.996 9.839-1.783 3.621-.656 5.492-.501 6.378-.582m663.878 40.563-1.58.216-2.49.349-3.12.438-3.47.483-.4.055-.98.132-2.17.295-3.34.436-3.023.381-2.604.319-2.082.247-1.459.169-.965.115-.606.09m29.669-3.589-.05-.16m-455.306-53.783-8.814.223m-758.106 264.064 9.854 1.706 5.973 1.034 9.854 1.706 6.803 1.179 9.853 1.706 7.425 1.286 9.854 1.706 7.828 1.355 9.854 1.707 8 1.385 9.854 1.706 7.927 1.372 9.853 1.707 8.147 1.41 9.853 1.706 8.677 1.503 9.854 1.705 9.536 1.651 9.853 1.706 9.854 1.706.889.153 9.853 1.707 9.853 1.707 1.194.207 9.853 1.71 9.852 1.709.536.093 9.852 1.714 8.709 1.516 9.85 1.722 5.961 1.042 9.849 1.731 3.45.606 9.848 1.738 1.208.213 9.102 1.611 7.455 1.32 6.068 1.074 4.951.877 4.109.728 3.549.631 2.982.53 2.405.428 1.822.325 1.232.22.771.106.503.019.426-.019.683-.072.659-.101M-53.864 222.872l.36.217 8.565 5.162 5.222 3.147 8.368 5.475 5.852 3.828 8.147 5.799 2.012 1.431 2.528 1.8.355.252 1.211.863 5.147 3.959.965.743.797.613 2.662 2.048 2.748 2.114 1.998 1.537.139.115 7.709 6.37 3.444 2.846.107.089.968.8 1.468 1.213.58.479 3.733 3.295 1.871 1.651.023.02 1.025.905 7.497 6.617.401.354 6.383 5.984.618.58.051.048 3.224 3.022 4.204 3.941.241.226 7.099 7.043 7.1 7.043.331.328 4.476 4.702 6.895 7.243 2.583 2.715 6.665 7.455 6.314 7.061 6.383 7.698 5.199 6.27 6.151 7.885 3.801 4.873 5.085 6.841.542.73.518.697.083.111.595.801.395.531.864 1.163 3.758 5.224.356.493.185.258.098.136 1.58 2.196 3.64 5.059.509.658 1.497 1.937 1.085.935.887.093 1.407.074 1.682.049 1.705.02 1.987-.02.928-.012.811-.007 1.686-.016 1.802-.009 4.167.064m718.907 17.068-.075-.017-.009-.002-3.446-.781-3.497-.792-8.823-1.978-5.335-1.189-2.751-.59-2.474-.525-1.016-.172-3.193-.53-4.019-.507-4.923-.513-5.903-.543-1.503-.13-5.463-.472-1.792-.152-3.549-.302-.302-.025-2.42-.206-.043-.004-1.012-.083-1.416-.117-1.727-.143-3.691-.305-1.219-.101-1.885-.15-.079-.006-5.795-.461-2.075-.165-9.972-.755-.432-.033-8.854-.628-1.908-.136-1.093-.073-1.223-.082-1.401-.093-7.196-.481-1.045-.066-3.931-.248-1.858-.117-4.01-.253-9.982-.595-.564-.033-8.926-.499-1.008-.056-.082-.005-2.163-.108-2.552-.127-.433-.021-4.519-.226-6.201-.256-.47-.019-2.838-.118-1.581-.048-.493-.015-7.479-.23-9.806-.185-1.888-.017-1.28-.012-4.504-.041-2.677-.024-4.107-.009-7.084-.015-10 .019-2.347.005-3.952.015-9.876.039-9.999.053-5.239.028-10 .065-.927.006-5.653.037-5.222.039-9.999.075-2.621.019-4.16.035-10 .082-4.857.04-5.916.047-9.999.079-4.139.033-9.999.065-10 .066-.94.006-8.64.037-7.029.031-2.606.011h-.094l-.414.002h-.077l-.237.001-.041.001-2.522.01-10 .012-.804.001-10 .011-1.397.002-10-.003-10-.002-2.331-.001-10 .001-10 .001h-2.037l-.71.002-10 .022-9.096.02-1.248.002-.257.001-2.38.016-10.065.066-7.703.05-10 .097-8.775.085-2.994.035-1.023.012-.42.005-.293.003-.068.001-.172.002-.669.007-10 .116-1.401.016-.152.002-.186.002-8.243.096-.813.009-6.165.072-10 .093-3.423.032-9.281.073-2.391.018-10 .078-.167.002-1.615.016-7.297.074-5.395.082-2.246.034-.271.005-2.11.041-3.584.071-1.09.022-5.522.129-2.573.066-1.562.04-2.622.064-.692.024M1277.72 563.874l-.72-.645-.6-.535-.76-.68-1.26-1.127-4.51-3.946-2.54-2.17-1.41-1.199v-.001l-.69-.587-.19-.163-1.14-.935-4.05-3.339-1.64-1.29-.01-.009-.43-.343-.87-.684-2.85-2.246-6.62-5.012-5.36-3.902-.72-.526-.02-.008-.28-.209-1.29-.939-1.76-1.231-.04-.031-.08-.054-5-3.514-.16-.117-1.91-1.338-3.47-2.353-.63-.431-2.59-1.752-2.04-1.385-.03-.024-1.22-.828-.72-.468-2.38-1.552-1.4-.91-4.24-2.768-1.91-1.245-.17-.111-8.49-5.29-2.96-1.847-8.61-5.093-3.27-1.936-8.74-4.852-3.68-2.04-8.89-4.575-4.18-2.149-9.04-4.27-4.78-2.256-9.18-3.947-5.48-2.351-9.31-3.658-6.09-2.393-9.4-3.395-6.62-2.388-9.49-3.154-7.05-2.343-5.29-1.621-.05-.017-.87-.267-.22-.067-9.56-2.929-.96-.294-9.64-2.672-7.91-2.194-9.71-2.393-8.6-2.119-9.78-2.101-9.45-2.031-9.84-1.806-9.832-1.806-.627-.115-9.873-1.59-9.873-1.589-1.284-.207-9.897-1.434-9.896-1.434-1.652-.239-9.911-1.329-9.912-1.329-1.739-.233-9.919-1.268-9.92-1.269-1.562-.2-9.924-1.233-10.1-1.255-9.927-1.209-7.121-.868-3.212-.393m429.791 171.8.02-.806v-.628l-.01-1.585-.01-.447-.03-.317-.08-.233-.69-1.812-.9-1.356-.49-.73-.13-.194-1.05-1.192-1.07-1.208-1.49-1.482-.7-.685-.54-.537-.5-.468-.24-.216-.47-.438-.32-.299-.38-.351-1.32-1.222-1.42-1.278-.48-.431-1.56-1.41-.16-.145-.59-.532-.27-.243-1.8-1.63-.29-.256-.46-.42-.49-.436-.35-.316-.03-.031-.46-.411"/><path stroke-linejoin="round" d="m869.738 416.203-3.049-.384-.258-.033m-1076.825-13.383 1.793.144 3.736.302 9.968.803 5.945.476 9.968.797 6.56.509 9.97.774 7.208.532.738.054 1.406.104 8.005.591 6.365.437 2.063.142 9.976.685 4.101.257 7.504.471 8.081.507.438.025 9.983.577 9.984.576 7.772.413.199.011 2.567.136 9.986.531 10.025.487 9.988.485 8.841.386 9.99.435 6.062.24 9.992.397.884.035 4.312.158 9.993.367.928.032 9.994.348 6.787.24 3.635.132 1.503.06.404.02 79.348 3.066m-252.549-33.571-.096.026-.317.085-.165.198.066.309.274.44.461.592.63.742.781.893.917 1.046 1.033 1.199.007.008.611.674.522.576.355.351.355.352.17.168.357.353 1.323 1.097 1.399.878 1.504.691 1.637.535 1.798.412.197.037 2.008.323 2.938.317 4.61.394 6.778.539 9.433.752 9.968.792.855.068 9.97.784.994.078 9.97.775.458.036 3.98.304 5.243.4 8.448.643 8.096.629 8.057.668 8.331.757 7.956.644.194.009 6.748.315.516-.007.505-.006.28-.004 2.094.06 4.449.203 8 .343 6.131.27 9.979.651.305.02 7.419.76 3.587.535 1.35.201.036.005.078.012.027.004.116.017.628.094.174.039.888.2m77.133 9.285h.5l45 2M38.421 292.598l-.217.047-.094.135-.064.134-.077.206-.032 1.088.065 2.689.175 5.018.101 2.761"/><path stroke-linejoin="round" d="m38.18 301.849.098 2.827.137 3.94.047 1.336.09 2.394.094 2.449.097 2.546.109 2.875.007.185.287 6.998.208 5.069.449 9.989.056 1.238.077 1.715.494 9.901m1310.51 449.071-1.35 2.781-2.52 5.281-2.36 5.005-1.95 4.225-1.56 3.581-1.19 3.067-.4.823c-.39 1.027-.48 1.433-.5 2m23.22-173.834.31-5.275.18-3 .37-7.454.26-6.035.18-4.016-.32-2.911-.15-.925-1.22-2.71-.53-.957-2.45-3.419-4.82-6.026-4.76-5.807-5.45-6.66-4.59-5.716-2.28-2.997-1.29-1.642-.86-1.021-.52-.593m23.06 203.423.78-1.543m-1.9 3.75 1.12-2.207.09-.185 1.17-2.471"/><path stroke-linejoin="round" d="m1095.29 863.574 2.95-.385.56-.073 8.91-1.163 9.91-1.318 1.39-.185 9.63-1.315.23-.03.06-.009.49-.067 9.75-1.379 1.2-.177 1.1-.163 2.07-.306 1.12-.166 1.27-.188 2.53-.372.16-.026.76-.118.39-.06 2.3-.357 4.49-.696.95-.147.43-.069 1.59-.259 2-.326 4.22-.687.52-.085.06-.01.79-.135.9-.155 1.58-.27 2.95-.506 2.35-.403.03-.007 2.77-.501.53-.097 1.47-.265.06-.011 1.22-.222.53-.095 1.82-.329.3-.057 1.04-.2.67-.128.69-.132.82-.157.92-.176.06-.012.52-.101.5-.095.21-.041.22-.04.44-.086.67-.128.32-.061.01-.002.8-.153.27-.055 1.3-.259.63-.125.64-.127.41-.084 1.38-.274.92-.183.3-.06.43-.086.13-.026.17-.034.28-.056 1.09-.218.03-.005.09-.019.9-.185 6.76-1.388 7.51-1.567 7.27-1.52 6.82-1.438.29-.061.61-.13 1.75-.375.74-.158.9-.191 3.05-.652 7.08-1.537 3.24-.718.33-.072.19-.043.03-.006.06-.014 3.35-.742.78-.176 3.93-.894 2.22-.504.12-.028.08-.017.07-.018 3.06-.717.12-.027.09-.022 3.26-.767.56-.132 6.87-1.681 1.54-.389 6.54-1.682 1.12-.301 5.08-1.363 1.27-.354 4.6-1.278 5.51-1.582 5.15-1.516 4.43-1.332.42-.128.64-.198.65-.198.88-.271.56-.173.54-.165 1.32-.407.59-.185 3.79-1.186 4.2-1.339 4.01-1.318 3.77-1.305 3.49-1.302 3.2-1.312 2.92-1.323 1.29-.644.08-.042 1.31-.653 2.47-1.36 2.29-1.385 2.1-1.418.95-.71 1.89-1.466 1.67-1.516.86-.948.58-.63 1.2-1.547.96-1.432.83-1.347.74-1.351 1.16-2.399 1.3-2.887"/><path stroke-linejoin="round" d="M1361.82 757.145v.466l.9 3.758.36 1.996.56 3.843.24 3.703-.07 3.501-.38 3.227-.22 1.642-.66 2.77-.93 2.303-.66 1.538-.9 2.031m0 0-.13.294-.98 2.168-.24.529.82-1.774.53-1.217Zm-10.84 19.947 1.72-3.488.67-1.357 1.16-2.292m-57.28-212.094-.02.017-.61.385-.34.215-.1.067-.72.456-2.29 1.027-2.75.924-3.16.833-3.5.759-3.79.706-3.99.672-4.13.656-4.34.647-4.61.644-4.96.646-5.37.653-5.81.659-6.25.662-3.6.357-3.1.307-7.16.662-6.77.589-.76.066-7.82.641-8.02.622-8.11.594-5.35.371-.62.043-.92.064-.67.046-.3.021-.38.026-.23.015-.97.064-1.51.098-1.48.097-4.18.274-1.19.074-1.49.093-1.57.097-1.49.093-2.81.174-2.32.136-3.59.211-.05.003-2.78.163-.82.044-.5.025-1.8.095-3.06.16-.64.033-1.15.061-.28.014-.39.021-.29.015-.59.026-2.44.104-3.36.144-2.1.09-.36.016-.25.01-.37.012-1.61.049-6.51.198-.72.022"/><path stroke-linejoin="round" d="m1296.59 587.515-.11.104-.53.542-.16.17-.32.325m-5.38-13.572-.16-.145-1.34-1.216-.49-.439-.32-.298m22.75-2.854-.02-.021-.02-.027-.61-.639-.48-.415-.15-.039-.29-.003h-.09l-.69.016-.29.006-.76.017-1.51.032-2.05.046-1.19.027-1.49.035-.1.002-2.7.063-.6.014-3.38.082-.05.001-.24.006-.56.013-.19.005-.29.007-2.46.06-2.86.071h-.02l-1.22.032-.57.015-.09.013-.77.127-.03.043-.02.016-.11.289.03.109m77.98 81.901-.23 4.599-.57 8.844-.74 8.48-.96 9.283-.17 1.469 1.87 72.934m-26.68-161.126-.21-.163v-.004l-.1-.08-.37-.366-.13-.125-.77-.812-.18-.19-1.65-1.783-2.61-2.824-3.67-3.958-.02-.022-.13-.142-3.88-4.178-.39-.418-.1-.113-.1-.109-2.47-2.662-.37-.399-.15-.156m0 0-1.12-1.211-.05-.056-3.24-3.492-.01-.006-.01-.014-.15-.163-.11-.118-.53-.57-.04-.038-1.08-1.169-.5-.54-.01-.006-.38-.402-.03-.033-.07-.064v-.001m24.44 26.221-.02-.001"/><path stroke-linejoin="round" d="m1285.09 570.293-.35-.261-.11-.006m-377.246 56.081-.268-.004-1.493-.022-.314-.005-.44-.007-.857-.012-.907-.014-5.999-.089-1.521-.023-.963-.014-.574-.009-.529-.008-1.709-.025-.213-.003-.33-.005-1.147-.021-.128-.003h-.031l-9.998-.184-9.999-.184-2.113-.038-9.997-.219-9.998-.218-3.133-.069-2.739-.071-9.997-.26-2.011-.052-2-.052-1.162-.03-.891-.023-2.776-.072-9.995-.316-9.995-.315-.255-.008-9.992-.385-9.153-.353-9.989-.47-8.297-.39-8.875-.505-8.798-.5-9.959-.895-2.798-.251-4.402-.396-9.892-1.462-6.845-1.012-9.744-2.252-6.665-1.54-9.468-3.218-6.696-2.276-2.418-1.053-.196-.085-8.584-3.737-.393-.171-4.369-1.902-.126-.055-.041-.018-2.965-1.523-.797-.41-2.046-1.051-1.384-.711-4.483-2.303-4.537-2.331-.09-.047-1.551-.888-3.307-1.893-8.679-4.968-2.586-1.481-.566-.324-2.131-1.301-8.534-5.212-1.509-.922-1.948-1.189-2.587-1.581-.582-.355-8.438-5.365-4.749-3.019-3.164-2.012-.212-.135-8.375-5.465-1.123-.733-3.019-1.971-2.033-1.327-4.831-3.202-2.195-1.455-2.033-1.348-.171-.113-1.669-1.106-.386-.256-2.694-1.786-.805-.533-1.3-.862-1.989-1.318-2.086-1.354-.826-.536-.583-.378-1.381-.773-.434-.194-.68-.13-1.469-.04-2.804.073-4.615.201-6.901.346-2.088.13-6.6.409-2.678.209-1.296.101-6.005.47-6.803.674-3.972.394-4.558.579-6.524.828-5.392.794-5.243.772-9.43 1.547-5.105.922-.145.026-.183.033-2.036.368-4.749.973-1.259.39-1.759.544-.007.002m-2.293 1.24-1.979 1.459-.574.422-1.863 1.401-1.938 1.457-4.41 3.352-4.382 3.366-3.727 2.905-2.444 1.973-.79.676-.044.038-.588.503-.004.003-.006.005"/><path stroke-linejoin="round" d="m443.119 566.455-.038.035-.044.043-.638.62"/><path stroke-linejoin="round" d="m443.037 566.533-.59.566-.048.054-.239.316-.042.079-.056.106.094.088.646.584 2.13 1.408 4.277 2.71 7.102 4.502 2.356 1.527.001.001.003.002.004.003.009.006.16.103.619.401.346.224.644.418 1.042.675.287.186.018.012.26.168 1.155.749.201.13.144.094.139.09.073.047 1.141.739.444.288.073.05 1.384.931.43.289.366.247.097.065.962.647 2.751 1.851.314.211.809.545 2.841 1.911.98.697.295.21.227.161.372.265 1.028.731.099.071 2.204 1.567.312.222.087.062.459.327.463.329.829.589.043.031 1.098.781.411.292.741.527.207.148.112.08.284.201 4.027 3.114 1.517 1.174 1.549 1.197 1.861 1.439.519.401.108.09 1.755 1.467 2.452 2.049 1.506 1.258 2.519 2.104.4.335 1.045.938 2.951 2.649 1.693 1.52 2.003 1.797.357.321 1.263 1.21 3.772 3.614 1.628 1.56.738.707.97.984 1.54 1.565 4.154 4.217.134.136 1.548 1.7 1.112 1.22.089.098 1.68 1.844 1.924 2.113 2.567 3.094 1.524 1.836 1 1.206.977 1.177.498.665 4.296 5.723 1.151 1.533.384.565.017.025.533.782 1.44 2.116 3.252 4.779.362.533.884 1.416 1.293 2.074.423.678 1.298 2.081.987 1.582 1.143 1.834 2.384 4.134 1.295 2.245.137.238 1.233 2.138 1.015 1.759 3.89 7.243.056.105.822 1.53.383.714.857 1.595.087.161 4.495 8.933.224.446.669 1.329.64 1.272.094.188.537 1.146 4.239 9.057.63 1.345.594 1.27.04.086.487 1.128.556 1.289 1.523 3.533.716 1.661.079.184.369.856 1.805 4.186.312.723.248.634.555 1.414.546 1.391 3.652 9.309.542 1.382.093.266.533 1.52.392 1.115.442 1.26.103.296.059.167 3.31 9.436.194.555.28.895.435 1.394.494 1.583.431 1.38.094.3.491 1.573.22.705 2.26 7.236.445 1.613.13.467.317 1.148.46 1.665.184.667.13.47 2.611 9.452.611 2.521.22.907.171.706.361 1.488.215.887 2.267 9.355.707 3.36.136.65.475 2.258.132.631 1.958 9.311.589 3.359.068.392.487 2.778.065.371 1.723 9.836.478 3.449.016.12.392 2.826.014.104 1.181 8.524.336 2.421.16 1.572.046.455.013.129.307 3.02.016.162.744 7.313.578 5.684.026.399.165 2.515.029.433.099 1.516.392 5.962.248 3.776.296 4.508.013.205.007.1.062 1.429.042.967.149 3.446.254 5.866.003.074.04.938.091 2.083.179 4.15.043 1.452.151 5.082.042 1.393.035 1.197.05 1.665.038 1.279.145 4.889.13 5.491.035 1.473.025 1.016.036 1.537.093 3.916.076 2.328.154 4.756.022.696.015.45.005.151.294 4.838.203 1.459.186 1.341.002.007.383 1.565.17.691.136.556.386 1.579.268 1.092.831 3.31.15.597.255.976.338 1.294.174.669.24.915.118.454.383 1.383.412 1.484.11.399.102.365.221.798.057.19.076.254.211.702.364 1.21.369 1.229.013.042.194.644.416 1.31.074.231.064.203.692 2.178 1.121 3.387.902 2.661.592 1.75.379 1.036.259.518.227.224.285.154.649.128.064.012 1.512.18 2.643.275 4.107.428 4.852.501 4.867.51 4.148.43 2.687.28 2.454.17 3.454.09 5.692.07 6.906.05 2.265.02 10 .02 1.846.01 10-.03 3.712-.01 10-.11 4.76-.06 2.448-.05 9.998-.22 2.534-.05 9.995-.32 5.213-.16 9.992-.41 5.448-.22 9.987-.496 5.69-.28 9.984-.567 5.935-.337 9.98-.629 5.965-.376 9.977-.682 5.78-.395 9.973-.726 5.385-.391 9.971-.761 4.785-.365 9.968-.793 3.955-.315 9.966-.821 2.895-.239 9.964-.848 1.619-.138 9.961-.875.124-.01 8.832-.799 7.822-.73 7.052-.675 6.519-.635 5.775-.571 4.827-.482 3.67-.37 2.31-.231.294-.034 1.444-.229.296-.082.435-.145.498-.167.13-.043.008-.003.512-.227.946-.476 2.525-1.276 2.213-1.116 2.759-1.412 1.369-.718 1.708-.896c.845-.755 1.259-1.249 2.444-1.604m-530.989-410.69-.032.03m26.802-19.341-1.738.533-.028.013-.688.373m0 0-1.605.867.035-.022 1.57-.845Zm491.388 381.94c-.164-.041-.201-.132-.215-.358l.215-.535.192-.561.041-.117.329-.965.244-.373 2.329-3.591 4.13-4.862 2.474-2.541 2.594-2.665.709-.728 3.294-3.146 3.383-3.231.377-.361.461-.441.519-.463.168-.151.36-.323.144-.128.344-.307.787-.704.084-.076 1.021-.913.255-.23 1.027-.918.5-.448.651-.582.833-.746 1.016-.909.833-.745.021-.019 1.69-1.399 2.455-2.034.383-.318 1.181-.979.05-.04 2.924-2.423.233-.192.833-.617.684-.507.862-.638 5.892-4.36.31-.226c12.33-6.069 23.4-9.339 52.67-14.988 1.82-.358 2.97-.591 5-1l35.5-5m-44.73-261.872-.27-.068-3.23-.816-.2-.052-2.43-.613-.61-.156-2.65-.668-.33-.1-4.6-1.38-1.03-.31-2.13-.641-5.86-1.981-.45-.162-2.86-1.049-1.71-.619-2.42-.872-1.67-.58-.94-.265-1.28-.311-.32.002h-.05l-.8.004-1.55.236-2.46.378-3.09.471-3.44.515-.2.028-1.05.15-2.29.329-3.34.447-3.029.383-2.62.315-2.098.241-1.471.164-.261.032-.701.086m141.94 11.995-.1.001-1.13.017-3.87.059-1.07.016-.13.002-3.14.048h-.15l-7.22-.012h-.06l-.75-.001-.55-.001-.86-.002-1.76-.035-.1-.002-.35-.007-7.54-.152-4.82-.193-.8-.032-.57-.022-.12-.005-.49-.02-.02-.001-.16-.006-2.91-.117-1.22-.074-1.65-.102-7.18-.441-9.95-.915-.11-.01-10-1.326"/><path stroke-linejoin="round" d="m1063.63 603.077-.03-.004-5.75-1.076-.56-.106-.65-.121-.21-.039-.54-.1-.46-.087-.06-.01-.1-.02-1.66-.309m-12.33 24.518-.04.001-1.27.034-1.86.05-5.34.053-.55.005-3.62.036-3.88.038-6.12.06-3.95.039-9.22.091-.68.007-.09.001-.78.007-.06.001h-.05l-.58.006-1.97.019-.2.002-.74.008-6.603.064-.246.003-2.407.023-.945.009-9.999.098-1.24.012-10 .066-2.998.019-10 .013-4.619.007-1.451-.007-3.018-.014-3.322-.016-2.796-.013h-.072l-3.205-.015-.231-.001-.695-.004-.519-.002-1.75-.008-.253-.003-.966-.01-5.292-.056-1.47-.015-.963-.01-1.471-.016-5.546-.058-.6-.006-2.344-.025-.39-.004-.087-.001-.961-.01-1.896-.028-4.541-.066-.268-.004-1.493-.022-.311-.004-.442-.007-.858-.012-.907-.014-5.85-.085-.15-.002-1.522-.023-.963-.014-1.104-.016-1.709-.025-.213-.003-.242-.004m97.419-30.779.077-.078.329-.233.33-.148.361-.116"/><path stroke-linejoin="round" d="m991.141 594.325-.934.11-.532.097-.468.179-.314.22-.143.151m54 30.465-.64.075-.87.102m-1.27.034-.18-.157-.36-.239m-474.147-86.649-1.194.105-.441.138m770.832 56.95.06-.086.09-.266.13-.38.16-.549.15-.676.08-.758-.02-1.092-.18-.792-.14-.325-.42-.835-.01-.027-.49-.672-.77-1.003-1.03-1.315-1.78-2.268-2.74-3.521-3.4-4.371-3.78-4.823-3.89-4.881-.77-.965-3.74-4.614-3.71-4.406-3.75-4.249-3.86-4.147-4.05-4.097-3.4-3.313-.53-.514"/><path stroke-linejoin="round" d="m1293.21 541.475-2.69-2.641-3.72-3.551-2.99-2.813-1.95-1.844-1.17-1.082-2.7-2.509-2.55-2.223-.61-.534-1.16-.963M1022 613.234l-1.23-.702-1.35-.774-.35-.201-.34-.192-3.27-1.871-.97-.555-.02-.016-.08-.041-.94-.543-4.59-2.563-.36-.201-.19-.104-3.99-2.235-7.401-3.981-.018-.01-1.382-.744-.17-.092-.935-.471-.458-.231-5.185-2.614-.021-.011-1.461-.737-3.983-1.796-2.344-1.056-1.68-.758-8.231-3.237-.584-.229-2.182-.757-.673-.233-.341-.118-1.023-.354-1.424-.493-1.68-.582-1.357-.471-.346-.119-.702-.244-.298-.103-.459-.159-.614-.194-.703-.221-4.184-1.321-.805-.255-1.275-.402-.932-.294-2.095-.662-.833-.263-1.326-.419-.265-.083-.582-.171-.188-.056-.68-.2-.308-.091-.745-.219-.005-.001-.636-.188-.407-.119-.632-.186-.352-.104-1.149-.338-.997-.294-1.01-.297-.741-.218-.257-.076-.192-.056-.471-.139-.716-.211-.027-.007-.613-.181-.517-.152-.638-.188-2.878-.847-9.64-2.659-5.962-1.645-4.333-1.112-.456-.117-7.06-1.812-.445-.114-3.308-.849-.597-.14-3.145-.734-.429-.1-1.803-.421-5.265-1.228-.303-.071-2.012-.47-1.168-.272-9.785-2.061-1.12-.236-3.248-.683-.206-.044-.03-.005-7.386-1.408-.231-.044-4.424-.844-2.446-.466-.526-.092-.228-.04-7.376-1.297-.224-.039-2.419-.426-4.429-.778-1.715-.286-8.619-1.436-2.249-.374-1.856-.309-1.98-.33-9.873-1.586-6.483-1.041-9.88-1.545-5.117-.801-9.884-1.514-1.861-.284-.582-.09-8.347-1.254-5.871-.811-4.429-.474-4.559-.328-6.074-.343-7.561-.372-9.019-.416-9.99-.452-.457-.02-9.99-.459-1.85-.085-9.99-.446-.454-.02-2.506-.112-9.992-.415-3.782-.158-9.993-.371-4.323-.16-9.995-.31-4.579-.142-9.997-.257-4.453-.114-10.011-.204-3.932-.081-.082-.001-9.999-.151-2.979-.045-9.999-.089-1.801-.016-10-.035-.428-.002-4.594.004-4.348.004-5.701.022-1.645.006-5.425.025-.21.001-.121.002-4.024.103-2.434.289-1.007.561.128.459.129.463 2.074 1.77.971.678 1.242.866.776.541 1.464 1.022 1.54 1.029 1.231.821.457.306 2.357 1.575 1.417.946.312.208 6.556 4.373 3.011 2.008 1.11.74 8.361 5.485.55.361 2.871 1.883 1.602 1.051 8.434 5.373 3.734 2.379 2.607 1.661"/><path stroke-linejoin="round" d="m589.93 556.059 8.365 5.479 4.853 3.179M1018.6 626l2.93-.038 7-.103.67-.01 2.9-.05 2.5-.043 3.41-.151 1.3-.224"/><path stroke-linejoin="round" d="m1038.32 625.534.99-.153.12-.019.66-.102.41-.487-.59-.781-.15-.208-1.77-1.27-3.41-2.055-5.24-3.027-7.26-4.181-1.29-.73-1.35-.773-.36-.201-.34-.191-3.27-1.864-.98-.553-.02-.016m-344.339-5.971 8.635 3.741.204.089 2.454 1.063 9.469 3.215 6.657 2.26 9.745 2.248 6.636 1.531 9.893 1.457 6.824 1.005 4.406.395 9.96.893 2.773.248 8.821.499 8.828.5 9.989.468 8.264.387 9.993.385 9.117.35 9.995.316 9.995.317.219.007 2.918.077.896.023 1.156.031 2.001.052 9.996.264 2.027.053 2.551.067 9.997.225 9.998.225 3.112.07 9.998.192 9.998.191 2.306.044.032.001.127.002.938.018.539.009.213.003 1.708.027.529.008m135.382-.162 2.51-.036 2.92-.041 3.46-.135M1.514 324.544l-1.628-.389-1.352-.327-.99-.243-.705-.172-.484-.114-4.234-.922-.356-.032-5.069-.273-6.033.118-1.202.043-5.934.209-8.062.38-1.052.06-7.764.443-.204.013-.329.022-5.913.391-2.948.195-4.686.35-1.616.121-3.489.261-6.47.626-3.418.33-6.54.872-3.135.418-1.396.265-2.49.472-5.268 1-5.002 1.378-.057.016-3.26.899-.245.079-7.508 2.862-2.852 1.459-2.985 1.526-.912.467-4.2 2.827-1.832 1.233-.799.698-4.54 3.967-.021.019-3.24 3.549-1.459 1.599-4.05 5.451-1.502 2.461-1.912 3.132-.506 1.012-.627 1.254-1.656 3.308-.733 1.739-1.473 3.496-1.661 4.572-1.156 3.589-.691 2.285-.289 1.28.052.578.297.194.035.01"/><path stroke-linejoin="round" d="m-2.463 323.631 2.326.525 1.65.388 2.437.571 2.725.714 3.106.958 3.427 1.269 3.428 1.534.259.116 3.12 1.715 3.71 2.234 3.708 3.053.756.809 1.525 1.633 2.459 2.777 1.035 1.169 3.29 5.137 1.437 2.381 2.495 4.697.514.966.969 2.133 1.845 4.065 1.824 4.553.74 1.849 1.097 3.048.029.081.042.115.095.266.118.326.877 2.439.236.713 1.298 3.929.113.343.033.1.098.298.083.249.06.186.479 1.545 1.078 3.486 1.159 3.912.732 2.461.35 1.353v.584h-.283"/><path stroke-linejoin="round" d="m54.316 394.315-.842.001-1.831-.052-.378-.015-2.228-.088-2.33-.105-1.262-.056-2.857-.135-1.869-.089-.066-.003-4.442-.215-.461-.022-1.305-.063-7.843-.382-2.167-.106-7.173-.352-9.988-.495-.708-.035-.786-.04-.47-.023-5.271-.265-5.387-.27-9.987-.507-3.006-.153-9.987-.508-3.297-.168-9.987-.505-2.789-.141-9.988-.494-1.47-.073-7.241-.342-1.958-.093-.124-.006-7.75-.349-4.591-.2-.162-.007-1.993-.087-6.313-.271-60.401-1.956m522.246-181.944-.328-.056-1.058-.183-7.343-1.268-4.524-.752-4.483-.745-9.284-1.49-9.558-1.485-.391-.059-9.441-1.422-.21-.031-9.894-1.45-7.811-1.108-2.569-.365-.753-.103-9.908-1.354-1.027-.135-9.915-1.299-1.302-.163-9.923-1.239-1.557-.185-9.93-1.181-1.789-.203-9.937-1.124-1.999-.215-9.943-1.068-2.19-.222-9.948-1.013-2.421-.233-9.954-.959-9.377-.854-.493-.045-2.781-.253-3.008-.259-9.963-.858-3.364-.274-9.967-.811-3.35-.259-.291-.023-9.97-.771-3.835-.283-9.973-.736-3.944-.279-9.975-.704-3.969-.269-9.978-.676-4.018-.261-9.979-.646-4.094-.252-9.981-.615-4.195-.245-9.983-.583-4.323-.237-9.985-.549-4.282-.215-9.988-.501-4.066-.178-9.99-.438-3.67-.13-9.993-.356-3.086-.077-9.997-.249h-80.882m446.14 33.996 8.341 1.515 7.847 1.521c68.822 20.137 114.38 38.975 200.566 77.908 87.947 43.222 133.72 71.581 215.5 122m-592.53-232.364-9.931-1.169-.837-.099-9.936-1.129-1.224-.139-9.938-1.114-1.718-.193-9.939-1.101-2.148-.237-9.94-1.089-2.509-.274-9.942-1.078-2.798-.303-9.943-1.067-3.014-.323-9.944-1.057-3.133-.333-9.945-1.044-3.152-.332-9.947-1.032-3.068-.319-9.948-1.019-2.878-.295-9.949-1-9.95-1.001-6.267-.63-9.955-.942-2.605-.246-9.963-.859-2.637-.227-9.967-.812-2.742-.223-9.97-.763-2.663-.203-9.978-.661-2.713-.179-9.982-.595-2.093-.125-9.984-.567-2.58-.146-9.99-.472-2.45-.116-9.994-.378-2.228-.084-9.993-.375-1.406-.053-9.996-.285-1.82-.052-9.999-.198-1.503-.029-9.999-.155-.914-.015-9.999-.107-1.028-.011-10-.025-.648-.001-9.999.073-.273.002-9.999.084-.56.004-9.813.199-9.995.295-.583.017-9.352.325-9.988.486-.73.035-7.587.388"/><path stroke-linejoin="round" d="m228.898 175.944.451.056.524.067 9.921 1.256.335.045 9.909 1.343.236.035 9.894 1.452 3.847.573 9.891 1.472 9.91 1.565 9.697 1.628 3.368.567 9.861 1.659 9.381 1.657 9.096 1.693 2.375.444 9.83 1.838 8.674 1.682 8.246 1.69.826.173 9.786 2.054 7.632 1.651 8.897 2.062 6.889 1.611 7.014 1.764 6.184 1.581 5.02 1.341 3.058.815 1.573.434 5.423 1.532 4.961 1.522 4.571 1.509c87.849 30.982 133.098 51.343 211.43 89.43 70.168 38.151 108.718 60.35 175 102.5v.5m-583.71-231.201-9.923-1.239-3.397-.424 9.924 1.234.554.069 2.842.36Z"/><path stroke-linejoin="round" d="m311.529 193.652-5.845-.799-9.919-1.268-2.787-.356-9.93-1.184-5.175-.617-9.938-1.112-8.347-.934-9.943-1.061-9.944-1.061-.317-.034-9.948-1.016-6.327-.647-.811-.083-3.701-.378-8.669-.844-.025-.003-9.953-.969-1.298-.126-9.959-.907-7.637-.695-6.895-.58M394.549 415.13l-.092-.01-.009-.001-.443-.045-.512-.053-1.019-.106-.447-.046-1.038-.108-1.031-.106-3.54-.367-9.947-1.03-.389-.04"/><path stroke-linejoin="round" d="m390.989 414.761-1.643-.175-9.944-1.061-.323-.035m12.948 1.379-10.001-1.104m11.467 1.256-9.001-1.024m9.956 1.122-8.397-.974m57.04 152.337.028-.027.56-.476m176.358 9.462 8.541 5.201 1.495.911 2.704 1.647m14.572 8.342 1.641.935m12.45 6.396.795.406 3.002 1.532.132.068m376.741 24.743.36-.299m7.71-24.986-2.42-.617-.61-.155-2.99-.765m-70.552 378.52 2.332-.768 2.229-.613 2.69-.631 3.354-.67 4.455-.79 5.735-.943 7.947-1.265 8.88-1.389 3.69-.571 5.1-.792 7.71-1.184 5.62-.86 4.24-.64 3.51-.526 3.47-.514 4.09-.605 4.78-.711 5.55-.828 6.38-.96 7.29-1.102 8.06-1.247 8.72-1.394.27-.043 9.25-1.54 9.65-1.687 6.99-1.277 2.95-.54 9.83-1.872.3-.059 9.81-1.947.4-.08 9.79-2.025.39-.08 9.78-2.102.28-.061 9.85-2.195 9.54-2.208 9.15-2.198 8.84-2.196 8.6-2.2 8.42-2.208 8.32-2.223 8.15-2.238 7.91-2.253 7.61-2.269 7.25-2.282 6.92-2.284 6.61-2.271 6.32-2.245 6.08-2.208 5.82-2.183.24-.092 5.59-2.174 5.34-2.179 5.12-2.199 4.82-2.194 4.5-2.168 4.11-2.124 3.7-2.057 3.68-2.225.79-.52 1.36-.903 2.14-1.399 2.83-1.881 2.55-1.728 2.57-1.89 2.4-1.782 2.24-1.884 1.96-1.676 1.57-1.549 1.53-1.714 1.25-1.411.98-1.249.77-1.07.6-.91.98-1.522.47-.775.37-.654.32-.552.28-.556.58-1.286.27-.671.32-1.013.23-.715.29-.892.32-1.214.13-.501.32-1.445.28-1.586.22-1.662.12-1.672.02-1.655-.11-1.605-.23-1.598-.35-1.633-.5-1.656-.69-1.669-.89-1.705-1.13-1.764-1.4-1.818-1.69-1.865-2.01-1.906-2.35-1.94-2.76-1.948-.12-.078"/><path d="m458.608 578.145-81.425 4.496c-.05.003-.101.009-.149.019-63.591 13.184-97.927 26.938-145.887 113.914a1.08 1.08 0 0 0-.066.147c-18.906 52.689-23.876 87.138-18.473 160.924 8.388 54.239 17.873 82.401 44.5 128 38.928 58.935 66.5 76.425 119.929 95.975.046.02.096.03.145.04 32.077 6.54 53.81 5.57 100.426-6.01 33.459-8.73 50.519-13.56 76-22 32.045-13.98 48.939-29.78 78-66.005"/></g><defs><clipPath id="teslam3-Vn8FpRkY_svg__a"><path fill="#fff" d="M0 0h1407v1169H0z"/></clipPath></defs></svg>