<svg fill="none" viewBox="0 0 1412 929" xmlns="http://www.w3.org/2000/svg"><g stroke="#fff" clip-path="url(#teslam3-Nz8TqfJh_svg__a)"><path d="M-238.347 198.546c6.719 3.739 9.818 9.002 13.5 27m0 0 2.323 26.949c.117 1.357.072 2.752-.46 4.006-.701 1.65-1.687 2.556-3.542 3.178-.863.29-1.781.367-2.692.367h-9.129m13.5-34.5c44.805-50.716 72.651-77.248 128-121.5 61.488-44.687 98.326-64.045 171.5-80.5l.967-.187m0 0c30.449-5.867 48.853-8.972 88.533-12.813 44.438-3.771 68.939-5.706 110-8 38.472-1.915 60.049-2.76 98.5-2.5 51.192.031 80.214.898 132 2.5 57.235 1.666 86.536 3.052 133 6.5 62.448 5.36 96.782 9.822 156.999 20.5 50.147 7.975 78.246 12.54 127.501 27.5 65.809 20.857 101.487 33.07 156.497 58.5 38.37 18.546 59.6 28.987 88 49 4.86 4.459 5.99 6.708-3 9-8.42 1.444-14.08 2.063-26.5 3-95.7 3.403-148.894 5.153-239.998 7-70.857.785-109.477-.53-173-11.5-26.21-6.44-51.119-15.59-133.499-52.5-78.635-37.401-126.491-57.612-240-88C236.877 7.443 176.815 6.364 75.62 23.359Z"/><path d="M337.152.046c-52.696 2.61-80.996 4.953-127.5 12m589 18c100.173 17.763 169.242 32.977 288.498 85.5m0 0c81.65 39.688 127.29 62.798 208.5 105 11.7 5.558 18.67 8.038 31.5 11.5 15.78 5.104 22.68 8.254 22.52 15.022 0 .316-.06.638-.14.945-3.45 13.114-3.29 17.604.12 21.033 3.61 4.228 5.19 6.701 0 13-5.13 6.3-8.32 8.526-14 12.5-2.02 1.235-3.51 2.437-6.9 5.892-.4.401-.72.868-.95 1.378-1.39 3.028-2.26 5.258-3.65 10.23-2.3 8.676-1.82 10.685 1.97 9.218.36-.137.72-.253 1.09-.321l37.44-6.897m-277.5-198.5c-3.8-.092-5.98-.16-7 .5"/><path stroke-linejoin="round" d="M1349.65 269.046c23.5 7 35.34 8.999 37 15 2.2 16.912 2.86 26.52 2.5 44l-2 28c-.38 5.828-1.52 7.673-4.44 9.462a1.19 1.19 0 0 1-.12.066l-10.44 4.472c-.54.195-1.04.345-1.5.446m-12-14.946 6.5 11.5c1.67 3.113 3.06 3.98 5.5 3.446m-12-14.946 24.5-9.5c2.34-1.024 2.72-2.492 2.5-6l-1.5-17m-25.5 32.5c-25.1 6.042-40.77 8.37-68 13-99.43 14.144-158.91 20.12-267.5 29.5a.904.904 0 0 1-.5 0m348-27.554c6.02 38.717 8.66 59.314 6 85.054-2.47 12.353-5.3 16.409-11.42 21.439-.05.04-.11.077-.16.107-16.66 9.046-26.66 12-44.42 17.454-106.79 20.698-168.22 29.857-279.5 43.5-40.36 5.32-62.848 8.676-103.998 12m448.998-187.5 6 78.5c3.7 30.645 6.2 47.276 17.5 68 3.16 4.285 3.1 8.748 0 20-7.4 40.524-13.2 59.653-23 95m0 0c-4.36-3.587-7.77-4.481-16.5-3-36.25 11.214-59.16 17.859-98.5 29.5-51.37 12.803-79.64 19.116-129 28.5l-183.997 33c-43.872 10.485-68.401 16.443-102.5 37.5-30.983 21.499-49.013 40.088-81 71.5-20.026 16.952-29.552 23.279-44 30-27.862 10.419-45.204 14.983-88.5 14-25.627-.294-37.351-1.336-58.736-2.98a1.015 1.015 0 0 1-.482-.165l-.783-.522m803.998-237.333c6.13 5.903 7.39 10.027 4 19.5-10.64 24.042-17.3 36.504-30 57.5m-1598.998-94.5 203 71 127.5 45.5c37.957 13.468 58.152 21.022 87.501 34.5 16.302 6.421 25.898 14.879 41.482 30.886.74.76 2.005-.005 1.678-1.013-7.696-23.73-12.262-38.505-17.66-68.373-7.938-49.777-8.262-75.523-8-121 4.484-39.799 8.582-59.937 22-87.5 16.43-29.065 26.55-38.298 45.403-47.951.064-.032.132-.059.201-.077 20.079-5.322 33.432-4.378 62.396 7.028 28.867 13.124 44.153 27.61 70.5 61 22.919 34.468 34.457 54.503 49 93.5 16.828 48.972 25.918 77.969 41.5 133 11.328 38.502 17.847 56.69 30 77 11.08 14.9 17.829 19.499 30.39 23.465.072.023.148.038.223.044l31.627 2.471a1 1 0 0 1 .477.165l1.782 1.188m777.998-160.333-3.5-5.5m3.5 5.5c2.23 4.071 3.02 6.583 1.5 12.5-4.48 11.392-9.59 17.002-20.43 26.443-.05.038-.09.072-.14.102-15.72 9.575-23.63 13.663-36.43 18.955-4.96 1.702-7.77 2.307-13 .5-5.67-1.958-8.75-3.282-15.37-3.496a.964.964 0 0 0-.25.024c-16.66 3.781-30.9 8.147-56.38 15.972l-64.5 16c-6.46 2.032-10.02 3.439-16.5 7l-28 15.5c-7.67 4.014-13.92 5.67-27 8-27.45 5.222-42.9 7.79-70.5 12-22.403 2.944-34.488 4.756-58.998 7m0 0c-17.332 1.746-27.083 2.993-44.5 4.5-19.01 1.674-34.312 2.633-49 3.306m93.5-7.806c-36.115 5.89-58.059 8.754-98.499 13.5m-82.501-3 24.5-.5c24.829-.905 43.365-1.294 63-2.194m-4.999 5.694c-8.424 9.091-12.573 13.3-16.382 15.434a.998.998 0 0 1-.253.098c-6.504 1.526-10.206 2.025-16.866.468-14.063-1.952-23.211-3.64-43.334-8.46a1.004 1.004 0 0 0-.332-.024l-14.971 1.449a1 1 0 0 0-.619.297c-5.123 5.217-8.084 8.089-13.123 10.676a.996.996 0 0 1-.254.089c-14.859 3.074-23.925 4.681-54.367 4.973-31.898-.724-49.972-1.786-83-6.5l-27-3.5c-1.625-.128-2.316-.407-2.869-1.278a.899.899 0 0 1-.131-.48v-2.909m273.501-10.333 4.999-5.694"/><path d="M1385.65 633.046c-1.59-1.632-4.08-1.763-10.5-1m0 0c-23.36 7.341-41.37 12.968-62.5 19.206m62.5-19.206c5.41.368 7.54 1.643 7.5 8.421 0 .051 0 .105-.01.155-.87 5.292-1.9 7.983-7.49 10.63-17.93 8.559-27.69 12.235-44.89 18.258-.07.023-.15.04-.22.048-6.89.766-10.67-5.966-17.39-18.306M850.652 770.546c30.549-22.339 54.444-32.538 112-45.5l103.498-18.5c2.37-.399 4.7-.793 7-1.183m-222.498 65.183c-35.115 31.803-53.63 51.358-85.794 87.577-.604.681-.069 1.76.836 1.671l57.958-5.748m27-83.5c56.34-7.421 88.018-12.923 144.5-22.5 19.308-2.796 28.988-5.482 42.498-14l35.5-28.683m239.5-54.111c-17.67 5.217-37.52 10.862-64.5 18.294-68.12 16.561-107.71 24.415-175 35.817m253.5-470.817c-130.78 6.745-203.65 11.092-333.498 19m-122 155-128.624 5.463a.995.995 0 0 1-1.022-.834c-2.76-17.225 3.39-27.969 19.865-47.299a1.01 1.01 0 0 1 .708-.354l219.597-12.393a.998.998 0 0 0 .846-1.423c-4.683-9.873-8.385-15.457-27.37-20.16-39.667-5.496-64.549-7.669-107.5-10-62.521-5.789-96.981-7.521-157-9.452m180.5 96.452 151.998-10.5m-151.998 10.5c-14.701 16.533-23.136 24.595-40.5 24m-180.5-6.5c-23.32-11.037-29.81-16.213-38.5-25-12.212-12.22-19.098-19.357-31.5-33.5-13.411-18.178-20.042-29.82-31-52-2.862-7.097 7.753-4.838 17.5-5.5 47.669-.216 74.518.417 122.5 2l1.5.048m-40.5 113.952 20.5 10.5m-20.5-10.5c6.461-53.967 15.906-78.349 40.5-113.952m-20 124.452c61.108.877 96.324-.332 160-4m-160 4c-1.789.24-2.191 1.806-2.5 5.5-5.029 42.538-7.817 66.477-14.5 104.5-4.248 16.462-8.119 23.907-20.863 29.936a1.018 1.018 0 0 1-.285.085c-12.972 1.884-20.918 2.126-38.352 2.479-17.5.354-79.122 1.097-130.5 1.5-14.156.263-22.072.27-36-1m403-147c7.166 32.289 11.055 50.579 23 76 15.354 26.993 26.231 32.61 46.5 39 13.265 3.027 21.898 2.944 37.5 2.5m-347-430.5c-5.385.018-8.655-.174-12 1.5-17.154 9.816-25.636 16.459-40.468 28.083a1.02 1.02 0 0 1-1.121.083c-51.689-29.275-81.58-44.683-137.911-67.166-49.443-19.83-78.583-28.681-132.5-40.5-55.72-9.736-87.457-11.672-145-8.5-41.734 3.911-64.815 7.148-106 18-40.025 14.708-62.68 23.67-107.5 54.5-34.24 26.14-52.824 39.125-92.5 80-16.406 17.875-25.212 27.843-40 45.5"/><path d="m-222.848 249.046 26.767 1.946a1 1 0 0 0 1.003-.631l31.23-79.315m0 0-59 68m59-68c36.789-33.622 58.025-49.211 96.5-74 33.28-20.088 52.77-27.917 88-40 40.658-10.874 55.261-11.966 81-14.918m32.5-3.083c-13.14.922-19.375 1.461-27.5 2.5-1.717.204-3.38.397-5 .583m32.5-3.083c27.515-.984 42.373.43 69 2.5 52.388 6.965 75.878 12.866 114.5 24.5 24.86 8.75 39.783 14.488 68.5 26.5m-252-53.5c-43.434 75.822-64.847 121.268-95.77 208.85-.137.387-.5.66-.91.675l-39.265 1.419c-.728.027-1.232-.724-.954-1.397C31.58 165.661 54.6 120.261 101.652 42.128m284.5 50.418c-27.692 52.783-42.784 83.191-68.5 139.5m68.5-139.5c27.846 11.2 42.735 16.674 81.5 39.999 18.728 11.166 31.292 19.333 53.882 34.261a1.01 1.01 0 0 1 .095 1.607c-25.444 21.518-42.544 32.628-87.477 45.133-42.391 11.826-67.062 17.127-116.5 18.5m0 0-32.5 2.5m-111 104.999 54 1c4.024.385 6.083-.679 9.5-4l10.867-10.373a.981.981 0 0 0 .212-.295c1.3-2.822.289-3.421-2.579-3.832-5.148-.103-8.156-.098-14.341.485-.104.01-.208.037-.304.078-2.715 1.179-4.251 2.121-6.855 4.437-3.277 2.941-4.869 3.739-7.5 3.5l-42.892-.499c-.072 0-.145.007-.215.022-3.513.739-5.079 1.711-5.893 5.977-.92 3.041.811 3.593 6 3.5Zm31.5 345.98v.021c0 61.07 18.822 121.874 47.012 167.4 28.209 45.556 65.704 75.679 102.995 75.679 37.334 0 64.302-19.425 81.967-54.142 17.683-34.751 26.026-84.803 26.026-145.937 0-61.072-18.446-122.233-46.261-168.115-27.829-45.906-64.941-76.376-102.221-76.385-36.046 2.492-64.65 22.745-83.642 57.428-19.003 34.705-28.374 83.855-25.876 144.051Z"/><path d="M535.652 852.546c-10.983 18.995-19.676 26.885-36.5 39.5-8.358 6.002-15.379 8.822-29.5 13.5-61.541 17.225-83.927 21.466-111.5 23.5m-11.5-449-31 4m-554.5 84.5 212.5 60.068m392.5-388.068-1.5 12.5c-1.324 7.451-4.114 9.9-10 13.5l-40.5 28c-5.427 3.963-8.176 8.27-13 16.5-32.645 46.898-50.855 73.996-83 126-35.776 70.806-54.303 113.075-74.979 208.905a1.105 1.105 0 0 1-.059.185c-10.024 23.471-25.046 21.248-52.962 15.41l-116.5-32.932m392.5-388.068c-84.27 8.663-132.069 11.368-217.5 15.5l-150.5 8m368-23.5c34.324-7.204 52.911-11.53 84.5-20 31.795-10.292 49.157-18.81 79.5-38l23-17.5m-555 99c-20.634 30.079-30.334 45.355-40.5 66.5-5.367 9.864-8.553 15.405-9 25 .577 40.364 1.338 52.73 2.5 79.5 4.949 50.188 8.644 83.304 6.5 95l-4.981 28.893a1.043 1.043 0 0 1-.06.209c-2.357 5.841-1.88 9.239 1.041 15.398l20 54.068m24.5-364.568c-79.447 2.908-123.062 3.085-200 2l-37-2m237 0c.986-6.424 1.894-9.512 6-11.5l6.5-3"/></g><defs><clipPath id="teslam3-Nz8TqfJh_svg__a"><path fill="#fff" d="M1412 0H0v929h1412z"/></clipPath></defs></svg>