<svg fill="none" viewBox="0 0 1696 843" xmlns="http://www.w3.org/2000/svg"><path stroke="#fff" stroke-linejoin="round" d="m1681.32 431.497 2.37 4.267 2.53 4.026 2.28 3.35 1.83 2.614 1.17 1.818 1.21 2.148.71 1.267.32.782.8 2.187.1.498.33 2.054.03.417-.11 1.957-.15 1.014-.43 2.284-.83 4.228-1.33 6.843-1.75 8.569-2.1 9.41-2.39 9.367-2.61 8.449-2.55 7.334-.98 2.658-1.24 3.371"/><path stroke="#fff" stroke-linejoin="round" d="m1679.77 519.038-.87 2.553-1.6 4.811-.76 3.013m-8.85-150.853.26 1.539 1.13 6.557 1.3 7.095 1.34 6.669 1.71 7.541 1.61 6.097 1.83 6.145"/><path stroke="#fff" stroke-linejoin="round" d="m1676.71 419.773.16.432 2.19 6.123 2.26 5.169.09.197m-23.05-107.496.11.462.05.205.3 1.591.51 2.928.78 4.452 1.05 5.948 1.17 6.747 1.22 7.068 1.17 6.911 1.12 6.741 1.08 6.56.77 4.751.27 1.614m8.58 149.239-.18 1.689m0-.024v.024l.15.743.22.317.04.317-.01.272-.1.278-.31.476"/><path stroke="#fff" stroke-linejoin="round" d="m1676.48 532.978-.45.267-.02.018-.79.692-1.09 1.069-1.26 1.34-1.41 1.56-.86.954v.001l-.7.774-1.66 1.845-1.48 1.608-.28.299-.05.058-.01.006-.01.008-.01.016v.004l-.02.019-.01.011-.01.009-.03.03-.03.031-.02.017v.003l-.03.031-.02.024v.003l-.02.013-.01.017-.03.035-.02.017-.01.014-.03.028-.02.019-.06.065-.01.007-.01.015-.02.022-.01.012-.05.05-.01.012-.01.008-.02.024-.01.009-.06.059v.006l-.04.038v.006l-.01.003v.005l-.03.028-.03.035-.04.041-.04.044-.01.012-.03.027-.04.047-.08.084-.01.003-.01.018-.01.003-.04.045-.07.077-.02.02-.02.018-.06.068-.02.018-.03.03v.004l-.07.077-.08.082-.05.053-.01.007-.06.068-.04.043-.15.15v.004l-.02.025-.01.003-.01.016-.05.047-.01.018-.05.047-.06.058-.03.039-.03.022-.02.029-.1.101-.09.084-.06.065-.04.039-.01.013-.13.131-.08.079-.02.024-.05.049-.1.105v.004l-.04.036-.1.098-.02.025-.03.035-.01.004-.06.064v.004l-.23.232-.01.004-.03.04-.05.042-.04.047v.002l-.05.048-.06.061-.04.037v.001l-.01.013-.02.024-.02.012-.01.018-.06.061-.02.019-.07.068-.12.127-.01.003v.006l-.01.007-.01.006-.03.03-.06.062-.01.013v.002l-.11.102-.07.066-.03.038-.06.05-.05.055-.07.064-.04.038v.008l-.05.049-.01.005-.03.034-.02.012-.01.015-.01.008-.1.099-.04.04-.01.007-.06.063-.03.027-.01.013-.02.013-.03.028-.05.057v.001l-.08.073-.01.016-.04.036-.03.027-.03.029-.02.024-.02.018-.06.055-.15.154-.04.036-.06.062-.02.016-.03.028-.07.071-.12.117-.02.018-.08.082-.07.068v.001l-.05.047-.09.086-.03.033-.01.006-.03.03-.07.063-.07.067-.02.021-.08.075-.08.071v.003l-.05.047-.03.028-.02.021-.01.002-.04.038-.07.07-.02.02-.13.121-.02.022-.07.065-.05.043-.06.055-.02.023-.01.01-.2.182-.03.027v.005l-.05.05-.02.016-.02.013-.07.07-.07.062-.01.015-.14.124-.03.035-.06.05-.03.031-.05.051-.15.14-.06.05v.003l-.01.007-.04.037-.04.042-.1.094-.16.151-.01.004-.02.023-.22.189-.06.055-.04.04-.01.005-.06.06-.15.125-.09.081-.06.056-.1.092-.13.109-.12.112-.02.014-.05.043-.09.082-.19.166-.04.04-.03.028-.13.109-.02.02-.2.18-.08.068-.02.019-.04.034-.07.068-.17.152-.03.02-.03.028-.03.03-.16.142-.03.025-.06.052-.05.041-.01.006-.14.119-.11.093-.03.021-.1.086-.03.025-.15.121-.01.013-.14.113-.07.056-.12.102-.04.033-.21.171-.01.012-.02.015-.05.046-.42.351-.28.227-.47.389-.2.168-.12.094-.44.341-.37.285-.41.322-.41.319-.4.305-.45.35-.36.281-.01.007-.49.348-.13.097-.09.063-.13.094-.14.099-.3.216-.08.057-.03.019-.08.059-.05.035-.1.075-.63.446-.25.18-.11.082-.3.21-.24.171-.09.064-.3.204-3.28 2.178-2.4 1.482-.3.191-1.3.802-3.09 1.793-1.39.81-.36.2-.5.272-1.98 1.09-2.19 1.205-1.86.976-3.66 1.922-5.93 2.991-.26.13-6.27 3.046-6.55 3.061-6.72 3.029-6.77 2.945-.02.009-6.76 2.827-6.62 2.652-6.59 2.525-6.69 2.447-6.89 2.423-7.22 2.451-7.31 2.418-.02.006-.17.056-3.55 1.149-4.19 1.362-1.73.552-6.21 1.991-3.09.987-4.98 1.588-5.53 1.76-2.66.846-8.29 2.634-2.67.853-2.83.901-2.85.908-6.77 2.164-1.63.521-.39.127-8.07 2.64-6.32 2.154-2.2.751-.02.005-1.12.403-2.17.784-.05.019-.53.188-3.38 1.218-.14.052-.25.089-.94.34-.37.142-.63.244-1.67.643-.22.085-3.83 1.476-.2.079-1.78.683-2.12.884-.19.079-3.96 1.649-.17.071-2.16.901m-192.24-208.51.09-.655.01-.045.86-6.276.02-.137.03-.237.43-3.152.29-2.141.06-.393.26-1.898.06-.46.1-.713.29-1.881m-13.1 86.254.05-.237.03-.123 1.47-7.318.25-1.444.03-.151 1.13-6.565.32-1.996.03-.148.25-1.579.01-.042.76-4.806m127.12-72.064.3.03.56.055.62.083.35.097.19.085.09.086.16.141.08.212.2.567.5 1.923.85 3.501.02.064.25 1.026 1.14 4.683 1.22 4.881.6 2.367.63 2.415.01.01v.034l.02.056.26.984.02.094.24.912.53 1.995.44 1.683 2.39 8.515 2.55 8.242 1.94 5.632.11.322.02.038v.006l.24.713.12.347.27.774 2.88 7.28 2.21 4.754.86 1.836 1.5 2.661.93 1.64.09.154.22.394.06.098.05.092.11.198.3.522 1.55 2.234 1.93 2.775 3.72 4.338 2.17 2.043.45.43.11.099.28.263.49.47.17.16.16.148.14.133M1226 528.706l.06-.052.45-.401 2.55-2.302 1.03-.922.4-.364.16-.144.44-.633.33-.479.94-1.366 1.46-2.108.29-.427.54-1.188.22-.479.48-1.049.21-.465.35-.755"/><path stroke="#fff" stroke-linejoin="round" d="m1234.03 519.718.64-1.397.21-.479.48-1.05.21-.465.34-.755.24-.549.5-1.088.49-1.496.11-.313.76-2.277.07-.224.01-.034.53-1.595.02-.056.16-.463 1.79-7.071.01-.052.03-.124.32-1.572.02-.129 1.17-5.746.23-1.319.02-.152.24-1.372.03-.157.88-5.115.31-1.925v-.004l.02-.151.24-1.449.02-.131v-.036l.78-4.849.27-1.789v-.003l.01-.06.21-1.389.01-.051.01-.112.82-5.43.19-1.289v-.026l.22-1.522.01-.031.02-.13.86-5.981.07-.478.01-.053.19-1.363.01-.057.01-.113.93-6.584.01-.082.04-.249.16-1.196.02-.087.01-.108.89-6.362.01-.122.14-.962.04-.324.02-.14.02-.098.9-6.511.03-.238.12-.904.02-.137.04-.253.03-.264.01-.042.86-6.262.02-.156.03-.22.14-1.004.05-.389.23-1.629.31-2.288.02-.167.02-.087.27-2.021.07-.462.1-.727.04-.297.08-.478.17-1.109.21-.789.21-.199.11-.095.33-.129.29-.101.45-.12.51-.135m-25.2 112.027.52-.761 1.27-1.856 1.66-2.411m-13.97 12.106.74-.391 1.82-.963 1.43-.757.31-.164.13-.069.65-.345.91-.481m183.21-39.389 2.25 1.711.21.163 1.42 1.084.31.234.38.221 4.14 2.454 2.42 1.045.19.085 2.12.914.11.047"/><path stroke="#fff" stroke-linejoin="round" d="m1204.92 534.484.37-.03.56-.085 1.01-.151.17-.026.24-.035.11-.018 1.18-.176 1.56-.235 4.03-.606 1.28-.192.21-.033.2-.055 1.23-.35 3.74-1.059m222.79 109.342-.1.045-1.49.676-2.43 1.104-4.65 2.109-2.05 1.025-3.21 1.6-.98.487-.03.013-1.62.81-.64.319-2.14 1.181-.07.041-4.42 2.437-.06.03-1.63.9-.77.477-6.08 3.728-.64.392v.002l-.65.396-.54.37-.19.133-.55.373-1.9 1.304-.86.584-3.95 2.703-7.89 6.009-6.5 5.502-.8.675-.52.442-.86.782-7.15 6.522-7.22 6.918-1.2 1.149-7.14 6.999-1.94 1.904-7.14 7.009-2.85 2.808-7.21 6.938-3.28 3.168-7.35 6.787-3.23 2.987-3.5 3.012-.72.617-6.04 5.193-7.96 6.055-1.57 1.199-4.83 3.133-4.36 2.823-2.86 1.532-2.49 1.332"/><path stroke="#fff" stroke-linejoin="round" d="m1300.58 752.698-2.76 1.479-2.48 1.332-3.97 2.132-9.17 3.994-.43.188-1.54.548-8.82 3.138-9.6 2.813-1.21.355-9.72 2.336-1.22.293-9.82 1.886-.95.182-4.01.58"/><path stroke="#fff" stroke-linejoin="round" d="m1238.76 773.39-3.88.564-6.41.93-9.94 1.031-9.7.685-9.57.455-9.56.338-8.98.244-7.84.167-6.14.111-3.87.076-2.63.042-2.36.011-3.09-.018-4.8-.044-5.66-.057-5.64-.057-4.76-.045-3.03-.018-1.7-.028-.54-.05-.06-.006-.14-.013-.23-.131-.14-.215-.08-.308-.06-.409-.01-.049M392.373 650.999l-9.801-1.985-6.97-1.411-9.803-1.976-7.338-1.479-9.804-1.971-7.266-1.461-9.803-1.972-7.086-1.424-9.804-1.972-6.91-1.389-9.803-1.971-6.735-1.354-9.804-1.971-6.563-1.32-9.804-1.971-6.393-1.286-9.804-1.971-6.153-1.237-9.804-1.971-5.841-1.174-9.804-1.972-5.464-1.098-9.804-1.971-5.022-1.01-9.804-1.971-4.663-.938-9.803-1.971-4.384-.881-9.803-1.971-4.182-.841-9.804-1.971-4.052-.815-9.804-1.97-3.861-.776-9.804-1.969-3.608-.725-9.805-1.966-3.297-.661-9.805-1.963-2.928-.587-9.806-1.96-2.137-.427-9.807-1.957-.936-.187-9.144-1.823-7.152-1.423-5.618-1.096-4.531-.835-3.883-.643-3.668-.518-3.332-.41-2.876-.32-2.297-.25-1.598-.197-1.196-.184-1.094-.21-1.777-.36-1.288-.277-1.78-.382-2.025-.434-2.02-.434-1.771-.38-1.213-.26-.064-.014-.217-.06-.236-.066-.404-.112-.015-.004-.32-.114-.203-.071-.333-.118-.464-.164-.427-.152-.06-.021-1.64-.742"/><path stroke="#fff" stroke-linejoin="round" d="m696.158 721.057-.416-.238-3.433-1.565-4.796-1.844-6.07-2.082-7.252-2.278-8.345-2.436-9.348-2.553-9.678-2.516-.341-.088-9.701-2.424-.665-.166-9.72-2.347-.677-.164-9.736-2.282-.384-.09-9.751-2.219-.303-.069-9.763-2.162-.431-.095-9.774-2.116-.762-.165-9.781-2.081-1.292-.275-9.785-2.058-1.972-.415-9.788-2.045-2.796-.585-9.79-2.042-3.76-.784-9.788-2.047-4.856-1.015-9.788-2.049-5.664-1.185-9.788-2.05-6.191-1.297-9.787-2.051-6.447-1.351-9.787-2.051-6.44-1.349-9.788-2.046-6.51-1.36-9.791-2.035-6.652-1.383-9.794-2.019-6.864-1.415-9.798-1.999-5.742-1.172-1.402-.286m224.488-32.253.137-.123 5.977-5.338 4.341-5.381 1.813-2.247 5.254-8.508 1.108-1.793 4.754-8.798 1.923-3.558 4.58-8.89 2.517-4.884 4.64-8.858 2.975-5.679 4.906-8.714 2.199-3.906 1.126-1.999 1.409-2.368 5.115-8.593 2.036-3.422 3.367-5.411.923-1.483 4.307-6.923 5.422-8.402 2.913-4.514 1.201-1.805 5.327-8.006 1.241-1.865 1.709-2.494.167-.244 1.759-2.566 2.886-4.21.92-1.343.411-.585.264-.375 1.118-1.591 1.249-1.778 4.317-6.143 5.816-8.135 1.712-2.394 1.12-1.555 2.62-3.636 2.709-3.758.436-.606.32-.444.747-1.036 5.875-8.093 2.418-3.331 5.903-8.072.969-1.325.266-.364 1.408-1.925 3.966-5.383 3.5-4.751 1.244-1.688 5.961-8.029 1.234-1.661 1.584-2.134 5.994-8.005 2.722-3.635 6.029-7.979 2.486-3.291 2.881-3.772 5.302-6.94 6.12-7.909 1.597-2.063 6.161-7.876 1.165-1.488 6.192-7.852.821-1.041 6.209-7.839.571-.721 4.413-5.571 2.214-2.795 6.135-7.746 5.303-6.696 4.13-5.213 2.614-3.302 1.523-1.921.858-1.081.62-.775.808-1.009 1.113-1.385 1.533-1.903 2.068-2.562 2.713-3.359 3.126-3.859 3.308-4.07 2.527-3.091.739-.904 3.001-3.638 2.625-3.32 2.139-3.037 1.541-2.794.836-2.585.311-2.398-.035-2.232-.018-.192-.181-1.889-.187-1.95-.166-1.775-.139-1.556-.106-1.295-.064-.991.002-.529v-.072l.001-.119.096-.486.132-.214.008-.013"/><path stroke="#fff" stroke-linejoin="round" d="m602.89 624.67.98-.388 4.487-1.777.013-.005.88-.348.15-.06.036-.021 6.16-3.734"/><path stroke="#fff" stroke-linejoin="round" d="m597.659 625.493 3.733-.551 2.478-.66M84.725 189.134l7.985-6.019 1.934-1.458 8.088-5.881 5.846-4.251 8.179-5.754 7.271-5.115 8.267-5.627 8.412-5.725 8.357-5.492 8.358-5.492.901-.592 8.454-5.342 8.454-5.342 1.342-.847 8.547-5.191 8.547-5.191 1.401-.851 8.642-5.03 8.643-5.03 1.054-.613 8.747-4.846 8.748-4.845.273-.152.928-.5 8.866-4.624 7.908-4.125 8.988-4.383 6.958-3.392 9.106-4.134 6.209-2.819 9.213-3.889 5.675-2.395.861-.35 9.303-3.668 5.358-2.11 9.393-3.43 5.002-1.826 9.48-3.179 4.598-1.542 6.639-2.02 7.072-2.153"/><path stroke="#fff" stroke-linejoin="round" d="m345.66 46.062 7.788-2.371 9.651-2.621 3.64-.989.522-.139 9.726-2.324 3.531-.844.392-.083 9.788-2.049 3.831-.802 9.834-1.817 4.57-.845 9.864-1.643 6.052-1.009 5.203-.774 9.891-1.473 1.349-.2.307-.04.969-.127.157-.02.296-.038.592-.077.072-.01 9.916-1.29.198-.026 5.075-.66"/><path stroke="#fff" stroke-linejoin="round" d="m448.262 25.17 5.653-.74 6.428-.839 9.941-1.087 7.004-.766 9.965-.838 6.602-.555.993-.062 2.915-.18 9.981-.619 2.334-.145.195-.012 9.991-.437 5.93-.26 9.996-.295 5.661-.167 9.998-.198 5.437-.107 9.999-.065 5.497-.036 9.999.097 3.325.032 2.527.025 9.996.277 6.071.17.441.011 9.989.465 2.888.134 4.602.215 6.245.398 7.06.45 4.923.313 5.512.441 9.968.798 3.266.262.553.053 9.954.96 8.52.82 1.914.215 9.937 1.123 7.209.815 9.917 1.287 9.203 1.195 9.894 1.45 4.774.698.738.11.119.016 3.681.54 9.35 1.523 9.87 1.608.242.04 2.704.485 2.91.521.172.031 4.043.725 9.633 1.727 1.273.25 9.815 1.916 2.743.535 5.805 1.134 1.455.306.274.058.12.025.95.201.26.055 4.366.92 8.793 1.853.045.01.392.082 3.186.672 9.755 2.202 9.754 2.201.574.13 9.723 2.334 9.724 2.334.914.22 9.693 2.46 9.692 2.46 1.242.315 9.662 2.58 9.662 2.578 1.555.416 7.236 2.023 6.06 1.694 3.534.988 1.277.357.789.221 2.221.621 2.641.77.012.004 9.6 2.801 8.075 2.355.084.025.466.136.457.133 2.627.803 8.342 2.548.586.178 2.346.717 7.531 2.3 9.522 3.055 9.521 3.056 2.352.754 9.473 3.205 9.47 3.205 2.28.771 9.41 3.374 9.42 3.374 2.07.744 9.37 3.495 9.37 3.494.7.26 9.34 3.58 7.45 2.858 9.32 3.633 3.63 1.416 7.89 3.075 4.05 1.591 1.42.607.06.129v.161l-.1.22"/><path stroke="#fff" stroke-linejoin="round" d="m442.568 25.912.249-.032 5.445-.711 5.64-.736 6.171-.806m610.537-2.368 9.9 1.392 5.42.763.12.017 9.88 1.555 6.77 1.066 9.85 1.719 6.8 1.186 9.82 1.878 6.87 1.314 9.8 2.028 7.01 1.453 9.77 2.169 7.22 1.604.02.006.06.015h.01l.06.015 9.73 2.299 7.33 1.732"/><path stroke="#fff" stroke-linejoin="round" d="m1169.86 39.41.81.177.22.05 9.73 2.29 4.39 1.032 3.06.72"/><path stroke="#fff" stroke-linejoin="round" d="m1185.01 42.959 3.23.759 9.71 2.414 7.68 1.912 9.67 2.535 7.94 2.08 9.64 2.649 8.2 2.252 9.62 2.757 8.47 2.429 9.57 2.878 8.61 2.586 9.53 3.015 8.6 2.718 9.48 3.171 8.44 2.822 9.42 3.349 8.14 2.892 9.37 3.479 6.89 2.554 4.01 1.531 9.34 3.57.66.253"/><path stroke="#fff" stroke-linejoin="round" d="m1351.23 93.741 9.34 3.564.88.336 9.32 3.622 1.48.574 6.57 2.556 3.37 1.328 1.19.513.1.16M-3.706 230.064l7.669-.557 7.422-.519.856-.06.183-.013.825-.058 7.152-.489m17.861 20.298-.011.009-3.082 2.191-3.347 2.291-3.201 2.146-2.648 1.753-1.681 1.114-1.12 1.017-.957 1.464m7.193 278.237-.192.037-.447.088-.279.026-.402.003-.95-.146-1.727-.309-1.137-.202-1.357-.24-.237-.042-.918-.156-.169-.029-1.656-.28-.714-.121-2.828-.446-1.076-.17-.03-.004-.574-.081-1.337-.187-2.137-.3-3.979-.458-3.55-.343-.134-.013-1.207-.102"/><path stroke="#fff" stroke-linejoin="round" d="m386.912 598.061-.087.006-1.178-.127-3.262-.513-6.346-1.038-9.868-1.616-.532-.087-9.868-1.616-3.39-.555-9.868-1.617-5.068-.831-9.868-1.618-5.601-.919-9.867-1.62-5.03-.826-9.867-1.622-4.72-.775-9.868-1.623-4.665-.768-9.867-1.623-4.853-.799-9.867-1.623-5.275-.868-9.867-1.623-5.475-.901-9.868-1.624-5.461-.898-9.867-1.624-5.242-.862-9.867-1.624-4.824-.794-9.868-1.623-4.658-.767-9.868-1.623-4.733-.779-9.867-1.624-5.04-.83-9.867-1.624-5.569-.916-9.868-1.623-5.393-.887-9.867-1.62-4.539-.745-9.868-1.616-3.032-.496-9.87-1.607-.893-.146-2.512-.407-.558-.09-5.827-.944-7.29-1.175-5.93-.953-4.812-.773-3.885-.624-3.15-.505-2.606-.418-2.244-.359-1.88-.3-1.515-.241-1.146-.182-.773-.123-.469-.096-.262-.075-.198-.094-.174-.16-.187-.5-.032-.086-.135-.499-.166-.616-.062-.229-.626-2.413-1.008-3.799-.56-2.098-.117-.435-.108-.405-.509-1.901-.123-.458-.037-.136-.02-.076-.56-2.084-.218-.815-.066-.244-.228-.849-.235-.875-1.19-4.425-.04-.152-.109-.401-.237-.882-.007-.028-.145-.538-1.44-5.356-.102-.383-.159-.599-.225-.847-.143-.538-.623-2.344-.266-1.005-.402-1.555-.403-1.563-.047-.183-.38-1.475-.088-.339-.062-.24-.09-.37-1.087-4.439-.394-1.781-.062-.281-.28-1.269-.057-.257-.109-.491-.72-3.686-.518-2.993-.025-.144-.086-.495-.168-1.046-.019-.119-.443-2.753-.698-4.379v-.005l-.003-.011-.024-.148-.21-1.386v-.003l-.003-.011-.609-3.989-.479-3.347-.017-.12-.22-1.542-.02-.144-.187-1.301-.277-2.089-.477-3.584-.032-.247-.17-1.278-.036-.267-.036-.275-.283-2.302-.04-.321-.13-1.072-.002-.002-.37-3.014-.045-.367-.156-1.265-.048-.391-.063-.514-.397-3.511-.215-1.895-.074-.658-.055-.486-.103-.911-.01-.088-.058-.509-.124-1.095v-.006l-.09-.791-.044-.385-.322-3.146-.002-.023-.112-1.088-.061-.602-.082-.795-.002-.025-.016-.157-.064-.623-.399-3.895-.002-.023-.064-.624-.139-1.551-.026-.29-.002-.026-.035-.395-.065-.715-.063-.713-.002-.015-.256-2.86-.002-.024-.208-2.323-.01-.115-.003-.026-.196-2.193-.078-1.068-.168-2.29-.095-1.298-.092-1.255-.051-.695-.048-.653-.054-.738-.048-.657-.177-2.41-.202-3.474-.039-.662-.046-.794-.038-.658-.294-5.042-.015-.263-.03-.693-.008-.167-.04-.924-.115-2.567-.004-.096-.103-2.298-.022-.515-.035-.774-.12-2.696-.123-3.865-.112-3.476-.003-.11-.016-.487-.028-.903-.006-.178-.05-1.557-.085-4.021v-.059l-.135-6.352-.128-9.693-.021-2.792-.038-5.082-.004-.483-.02-5.001-.006-1.423-.003-.998v-.162l-.003-.421v-.129l-.002-.538-.007-1.645.041-2.215.145-1.388.294-1.415.49-2.291.587-2.731.582-2.729.476-2.289.272-1.41.113-.787v-.424l-.066-.318-.086-.469-.092-.55-.015-.099-.069-.46-.063-.497-.027-.363.012-.317.054-.36.102-.49.152-.708.252-1.157.404-1.839.605-2.751.856-3.894 1.144-4.765.662-2.422.085-.313.718-2.625.11-.339 1.713-5.343 1.875-4.844.055-.143.008-.021.022-.057.258-.664 2.027-4.669.301-.693.022-.05.131-.28.087-.183.185-.395.346-.734.481-1.024.41-.872.583-1.24 1.84-3.679 1.194-2.27.817-1.279.701-.708.851-.556 1.264-.823 1.564-1.023 1.753-1.155 1.831-1.217 1.797-1.215 1.678-1.146 1.476-1.016 1.189-.822.818-.563.122-.08m301.949 48.008 1.87-.687.716-.137.766-.145.418-.08.596-.039 1.525-.1.559-.004h.011l.647-.005.218-.002.441-.003.657-.006h1.122l1.822-.002h.194l.452.013 2.788.079 1.75.164 1.086.101.465.125.425.114 1.032.277.027.044.411.699.044.075.015.025-.022.017"/><path stroke="#fff" stroke-linejoin="round" d="m346.107 309.675.099-.067.01-.006.227-.152 2.054-1.374.05-.033.084-.064.719-.546.492-.374.341-.259.794-.604.209-.158.05-.039.382-.308 1.934-1.564.417-.338 1.736-1.441.831-.689.449-.369 1.186-.976.558-.459.61-.58.45-.427.496-.471.657-1.147.001-.003-.01-.017-.056-.092-.373-.612-.062-.102-.944-.242-.171-.044-.355-.092-.45-.115m-25.31 5.745-1.377.653-1.712.304-2.743.055-4.468-.096-6.87-.148-8.082-.173-8.118-.171-6.648-.138-.356-.007m-10.78.326 1.094-.352 1.825-.161"/><path stroke="#fff" stroke-linejoin="round" d="m359.498 296.162-.173-.044-.355-.089-.374-.093-.837-.069-.161-.014-.205-.016-1.257-.104-.362-.03-3.087-.066-.13-.003-.539.003-1.684.007-.881.004-.126.001-.341.002-.354.002-.426.003h-.113l-.446.003-.15.001-.416.002h-.017l-.099.001m-16.115 6.974-.269.029-2.751.056-.334.005-4.473-.095-6.875-.147-8.084-.172-8.119-.172-6.719-.142-.08-.001-.2-.004-.629-.013-.072-.002-4.049-.083-2.807-.002h-.208m57.072 9.143.202-.047.287-.068 1.502-.351 1.962-.963m522.239-72.74.28.911.187.299.161.258 1.163-.203 1.483-.256.995-.171 3.324-.577.669-.116 1.694-.292 4.009-.693 7.619-1.305 9.742-1.653 1.77-.298.577-.097 7.424-1.248 2.308-.388 9.852-1.714 3.78-.658 4.014-.748.772-.143 2.63-.49 3.916-.729 3.053-.568 9.795-2.014 4.529-.931 9.733-2.297 3.701-.874 4.181-1.135 8.397-2.281 9.543-2.989 2.216-.694 9.408-3.4 1.57-.569 2.33-.973 7.26-3.033.64-.269 9.05-4.27.44-.211 8.22-4.309.53-.278.06-.034.47-.272 7.47-4.288 6.36-3.939.25-.155.65-.405.97-.64.2-.128 1.62-1.066 4.54-3.035"/><path stroke="#fff" stroke-linejoin="round" d="m871.369 238.605-.2.013-.398.027-.161.001-.115-.005-.546-.019-.328-.012-.589-.253-.181-.275-.183-.278-.333-.908-.499-1.324-.472-1.258-.082-.22-.118-.327-.024-.066-.296-.824-.046-.127-.01-.029-.37-1.134-.181-.762.021-.515.198-.42.157-.386.403-.349.683-.436.828-.469.841-.447.638-.329.082-.042M89.85 199.024l7.61-6.488 1.411-1.205 5.233-4.194 7.803-6.255.283-.227 7.969-6.041 3.913-2.967 2.331-1.767 8.117-5.841 6.835-4.919 8.254-5.646 7.28-4.979 2.907-1.889 8.384-5.45 4.66-3.028 8.514-5.245 7.718-4.755 8.644-5.027 7.729-4.495 8.779-4.79 7.592-4.142 8.919-4.522 7.299-3.701 9.042-4.27 7.002-3.307 9.147-4.04 4.985-2.203 1.71-.755 9.236-3.834 6.381-2.65.507-.2 4.525-1.779 9.307-3.658 1.518-.596 2.928-1.074 9.389-3.442 2.809-1.029 9.479-3.185 5.462-1.836 1.006-.303 9.576-2.884 2.307-.695 1.907-.574 3.082-.809 9.672-2.538 1.937-.508 9.753-2.205 4.927-1.113 9.281-1.79 5.484-1.059.739-.129 9.869-1.615 5.085-.832 9.905-1.376 5.329-.74 6.957-.816 1.388-.163 7.079-.83 9.951-.983 5.569-.55 1.104-.094 9.966-.823 5.55-.458 9.976-.684 4.228-.29 1.216-.084 9.985-.548 5.328-.292m533.033 136.214-.27-.133-.34-.17-.52-.227-.32-.141-1.07-.467-2.2-1.062-4.22-2.148-7.07-3.692-8.84-4.673-2.01-1.063-8.888-4.584-3.652-1.883-1.436-.74-8.969-4.422-7.499-3.696-9.078-4.194-9.078-4.194-.186-.086-1.052-.445-2.297-.971-.542-.229-5.203-2.2-5.997-2.537-4.519-1.911-9.308-3.657-9.307-3.657-1.844-.724-3.722-1.375-.548-.202-4.512-1.666-5.56-2.053-6.558-2.422-9.438-3.305-1.222-.428-3.313-1.16-6.974-2.441-.802-.268-3.074-1.028-1.346-.449-1.87-.625-2.798-.936-.775-.259-9.484-3.17-.468-.156-3.382-1.084-8.431-2.701-8.187-2.624-9.556-2.945-9.552-2.944-9.586-2.849-8.365-2.487-9.612-2.759-6.926-1.989-9.654-2.605-6.167-1.664-6.886-1.701-7.547-1.864-1.347-.332-4.392-.972-1.356-.299-5.957-1.318-3.371-.745-.129-.029-.952-.21-.237-.052"/><path stroke="#fff" stroke-linejoin="round" d="m870.006 227.474.312-.2.342-.17.002-.001.397-.109.292-.059.629-.097.657-.099.663-.1 2.607-.387 3.709-.552m73.784-13.811.085-.021 9.702-2.422 2.037-.509 9.603-2.789 1.129-.327 9.453-3.26.321-.111 8.953-3.717 4.1-2.058.537-.27.187-.094.543-.272.47-.238 2.43-1.221 7.41-4.255 3.22-2.034 1.33-.842.38-.242.12-.074.92-.584.21-.13.18-.114 1.35-.909 3.78-2.538 3.78-2.579 6.87-6.279"/><path stroke="#fff" stroke-linejoin="round" d="m879.434 225.728.182-.028.811-.126 4.546-.706.355-.055 7.713-1.256 9.652-1.646 8.537-1.524 3.174-.566 9.827-1.852 2.666-.502.475-.09.342-.069 2.579-.52 9.803-1.978.684-.138 9.765-2.155 2.94-.649M733.116 64.052l-.693-.136-.115-.022-.197-.039-9.814-1.918-6.454-1.262-3.07-.536-1.759-.307-4.151-.724-2.266-.395-1.481-.259-1.438-.25-.356-.063-1.075-.188-2.883-.503-2.016-.314-7.501-1.17-9.408-1.469-9.905-1.375-9.085-1.262-8.787-1.072-6.495-.792-3.405-.416-9.946-1.043-8.284-.868C550.189 37.891 527.282 37.18 494 38m316.792 191.875-.058-.148-.002-.004-.008-.02.002-.017.007-.022.013-.038.072-.215.192-.571.879-2.163 1.7-4.082 2.753-6.605 3.569-8.516 3.101-7.33.202-.477.121-.288.075-.175.654-1.547 2.488-5.805.495-1.157.006-.014.057-.134.487-1.135.974-2.274 3.188-7.308 1.431-3.281 3.763-8.482.944-2.128 3.774-8.372.993-2.202 4.164-9.091.634-1.385 4.217-9.067.584-1.255 4.256-9.049.259-.55 3.939-8.311 1.902-3.995 1.174-2.465 1.924-4.046 1.071-2.201.513-.922.252-.216.289-.083.124-.034.03-.001m-33.901 65.632-.114.011-.843.076M360.942 297.23l-.027.006-.209.047-.348.063m-25.633 3.517.017-.011 1.996-1.341 2.092-1.358.181-.109 2.033-1.127 1.843-.681.348-.077.037-.007.472-.088.447-.084.533-.099.363-.067.158-.023.199-.029"/><path stroke="#fff" stroke-linejoin="round" d="m332.925 301.983.17-.106.957-.596.196-.122.494-.307m8 10.07-.472.049-.064.006-1.659.078-.818.039-.048-.001-.345-.005-.197-.004-.786-.016-1.579-.032-.876-.018-.548-.011-.455-.009-.785-.015-.334-.007-.558-.011-2.183-.043-5.929-.119-6.638-.134-6.994-.142-7.004-.145-6.653-.139-5.948-.125-4.56-.095-.185-.004-.504-.01-2.801-.058-.336-.009-2.331-.116-1.407-.235-.131-.074-.71-.413-.061-.122-.259-.643.078-.818.308-.919.43-.947.446-.902.513-.814.631-.685.157-.14.82-.535.195-.108 1.052-.318.369-.089.466-.068m46.359.719.442-.078.994-.177m-.105.049.105-.049 1.251-.583m94.482-61.653-.981.071-1.051.085m-328.06-3.243.013.07.19.94.211 1.192.181 1.352.1 1.422-.034 1.401-.302 1.3-.71 1.121-.052.065-.762.729-1.217.332-.739.202-2.475.285-.246.017-2.939.134-3.057.08-2.866.122-2.839.152-2.974.168-3.251.184-1.929.103-1.747.093-3.872.2-.076.004-3.763.189-3.335.165-2.355.119-1.581.06-1.016-.009-.236-.022-.322-.029-.739-.046-1.488-.07-2.567-.101-2.99-.107-.978-.035-1.09-.041-1.716-.064-1.746-.065-1.212-.053-.697-.03-2.418-.105-3.66-.199-2.55-.205-.796-.082-1.974-.289-1.421-.395-1.197-.542-1.299-.733-1.297-.855-1.192-.913-.981-.904-.668-.828-.422-.739-.248-.634-.139-.515-.101-.381-.046-.269.024-.165m318.722 14.776h.169l3.607-.008 1.976-.004 2.405-.005 1.556-.004 3.808-.008 1.568-.003 5.285-.013 2.425-.005h.093l1.723-.004 5.765-.013 2.059-.005 10-.024 2.256-.005 10-.024 2.441-.006 6.692-.017 2.954-.007 5.921-.014 3.262-.029m-84.875.215 1.605-.003h.446l2.028-.004h.017l.267-.001h.191l4.052-.008h.095l.209-.001m-222.887-3.879.298.007 1.011.042 2.42.109 4.54.21 7.382.347 9.843.44 9.992.413 1.932.08 9.993.37 3.629.134 9.994.315 4.931.156 8.78.233 4.418.118 2.622.07.136.003 1.089.023 10.054.219 3.537.077.61.014.856.018 1.685.028 8.648.144 1.747.029 3.641.06.576.009 3.45.037 10 .106 2.389.025 4.674.026 3.917.023 1.324.007 5.598.032 10 .019.6.001.314.001 3.755.007.656.001 3.729-.001h.107l10-.003h1.443l2.675-.003h.185l3.858-.004 5.407-.005h.116l3.142-.004h.315l6.836-.011h.519l7.768-.012 5.944-.012.413-.001h.379l.1-.001"/><path stroke="#fff" stroke-linejoin="round" d="m205.373 254.304-3.706-.081-3.712-.081-.969-.021-.803-.018-.261-.006-.819-.022-2.841-.076-4.327-.116-7.836-.209-9.995-.316-4.94-.156-9.993-.371-3.646-.136-9.991-.415-1.954-.081-9.866-.445-7.403-.35-4.555-.212-2.429-.111-1.006-.042-.277-.009-.241-.007-.926-.04-2.328-.11-4.442-.211-6.8-.325-.448-.022-8.882-.422-9.364-.439-8.727-.399-5.793-.25m361.445-8.758.677.025.486.043.221.138v.04m-380.694.379v1.096l.093.133.102.212.143.302.147.269.07.13.1.167.052.089.133.224.347.544.403.592.453.623.486.612.414.463.087.097.278.259.207.194.014.012.034.024.252.174.005.003.072.049.08.056.035.023"/><path stroke="#fff" stroke-linejoin="round" d="m52.12 246.94.13.059.315.142.272.071.08.021.064.017.064.017M91.83 205.56l4.689-4.103 4.338-3.795 7.726-6.349 3.931-3.23 1.088-.856 7.858-6.186 2.596-2.044 7.949-6.066 2.461-1.878.182-.136 8.02-5.974.22-.163 5.02-3.658 2.569-1.776.905-.502.233-.062.411-.042.183-.012m-.971.229.144-.113"/><path stroke="#fff" stroke-linejoin="round" d="m151.5 159 4.302-2.916 5.263-3.484 8.387-5.446.461-.3 4.162-2.616 7.634-4.798 8.57-5.153 5.539-3.331 7.946-4.506 7.829-4.44 8.859-4.638 7.922-4.149 8.988-4.384 8.436-4.115 9.096-4.155 8.592-3.924 9.193-3.935 8.368-3.582c20.386-7.946 31.865-12.454 50.453-18.628"/><path stroke="#fff" stroke-linejoin="round" d="m330.489 70.813 4.322-1.32 9.564-2.922 1.337-.41 9.655-2.601 4.904-1.321 9.741-2.263 4.486-1.042 6.989-1.375 7.245-1.424 9.867-1.63 3.493-.576 1.006-.166.227-.037 3.512-.49 9.904-1.381 1.308-.182.589-.082 9.927-1.202 5.47-.662m0 0 .145-.016m-.145.016C491.974 44.384 512 42.5 546.5 44c151.577 14.49 221.464 31.165 315 64M111 251l6.675-15.407.886-1.986.227-.51.204-.457.162-.364.11-.246.408-.915.487-1.092 1.65-3.702.535-1.2.441-.99.001-.003.964-2.163.005-.01.868-1.949.022-.049.16-.36.108-.241.191-.43.332-.745.117-.261.093-.21.177-.398 1.892-4.249.301-.676.332-.744.197-.443L152 159m456.357 463.505-.826.234-1.021.289-.937.266-.812.229-.641.182-6.461 1.788-.464.128-.499.121-7.838 1.149-.377.049-8.899.392-9.993-.354-.115-.004-.275-.024-9.954-.952-1.502-.144-9.913-1.317-2.66-.353-9.883-1.524-3.579-.551-9.868-1.618-4.256-.697-9.868-1.619-4.699-.77-9.868-1.62-4.607-.757-9.869-1.621-3.998-.657-9.868-1.622-2.89-.475-9.867-1.623-1.296-.213-9.867-1.625-.115-.019-9.204-1.518-8.818-1.456-8.817-1.459-8.265-1.368-7.173-1.189-5.555-.921-3.406-.565-1.768-.308-.634-.152-.175-.079-.045-.097-.212-.458-.303-.915-.173-.527-.088-.283-.76-2.445-1.373-4.42-1.77-5.696-2.037-6.556-.998-3.209-1.177-3.786-2.18-7.013-2.044-6.6-1.771-5.751-1.354-4.466-.797-2.742-.281-1.999.188-2.238.611-3.464.99-5.675 1.161-7.025 1.126-7.52.869-7.021.017-.138.439-5.945.039-2.093.057-3.005-.142-4.615-.017-.259-.014-.231-.009-.153-.05-.81-.015-.245-.078-1.271-.042-.673-.019-.299-.035-.559-.006-.096-.005-.069-.078-1.197-.013-.212-.04-.608-.047-.705-.016-.249-.022-.341-.046-.698-.037-.572-.102-1.513-.054-.808-.03-.444-.053-.799-.111-1.661-.05-.752-.073-1.084-.008-.123-.052-.777-.038-.575-.005-.071-.13-1.964-.039-.589-.026-.406-.057-.862-.024-.369-.055-.836-.286-4.401-.012-.177-.047-.755-.014-.223-.015-.224-.046-.73-.069-1.114-.007-.104-.029-.451-.063-1.008-.007-.106-.091-1.44-.038-.61-.009-.144-.018-.277-.004-.062-.039-.623-.077-1.291-.094-1.574-.179-3.018-.032-.528-.044-.741-.031-.517-.081-1.373-.223-4.047-.022-.42-.053-.953-.022-.406-.044-.809-.046-.825-.131-2.395-.02-.405-.085-1.729-.017-.346-.083-1.685-.149-3.034-.035-.717-.022-.445-.034-.706-.07-1.42-.122-2.925-.028-.647-.019-.449-.026-.636-.197-4.664-.025-.579-.026-.633-.017-.403-.006-.163-.16-4.693-.017-.506-.021-.633-.012-.333-.005-.16-.159-4.659-.003-.105-.066-2.671-.043-1.746-.07-2.815-.001-.079v-.04l-.028-1.091-.003-.105-.03-1.198-.041-1.691-.039-2.796v-.041l-.018-1.269v-.029l-.077-5.581v-.031l-.017-1.167v-.043l-.007-.526-.005-5.16v-.093l-.001-1.202v-.103l-.005-4.836.005-.613.001-.148.008-1.042.001-.158.045-5.509.002-.202.008-1.076.003-.212.013-1.674.051-3.576.004-.256.013-.912.004-.265.061-4.193.019-1.085.007-.315.016-.929.006-.328.082-4.436.008-.547.007-.382.013-.748.007-.395.038-2.236.177-2.588.029-.137.102-.455.166-.744.104-.468.029-.129.841-2.349.79-2.156.182-.496.215-.584.185-.504.034-.091 1.729-4.496.198-.512.007-.019.247-.603.22-.537 1.74-4.254.19-.465.044-.098.196-.447.252-.569 1.837-4.171.264-.599.199-.451.049-.108.239-.498 1.839-3.812.209-.436.096-.2.141-.292.311-.643.394-.819 1.475-2.863.164-.319.189-.364.137-.27.247-.478.111-.216.007-.014 1.152-2.237.565-1.039.403-.745.047-.086.411-.757 1.678-3.093.448-.825.009-.016.035-.065.441-.778.787-1.388.715-1.26.408-.721.118-.205.325-.575.095-.168.682-1.203 1.156-1.958.023-.039.13-.221.431-.729.009-.015.021-.037 1.071-1.812.354-.599.214-.365.192-.314.404-.666.81-1.331.341-.561.516-.848.351-.576.484-.798.065-.107.204-.328.07-.112.531-.859.048-.078.25-.404.028-.044.044-.07.18-.292.361-.583.143-.23.14-.227.03-.046.131-.214.021-.033.189-.305.081-.131.063-.101.045-.074.093-.15.012-.02.127-.204.042-.069.291-.468.001-.001.024-.037.045-.073.049-.08.013-.021.006-.009.001-.002.011-.018.224-.359.122-.199.141-.225.011-.018.138-.222.231-.372.078-.126.02-.032.08-.13.033-.052.008-.013.893-1.437 1.923-3.164 1.487-2.508.526-.909.59-1.019.571-1.016.032-.056.01-.019.189-.332.002-.005.444-.799.018-.031.016-.03.007-.013.03-.054.026-.046.007-.013.375-.64.276-.37.238-.203.093-.049m264.619 65.401 1.204-.034 1.185.003 8.361.016m-18.331.539 1.021-.134m81.406 9.322 1.165-.534 1.163-.533.136-.089 2.617-1.708 2.967-2.254 2.972-2.439 2.764-2.352 2.344-1.991.625-.637.972-.992.51-1.237.012-.028-.316-.324-.565-.578-2.605-.535-3.655-.259-.039-.003m-94.387 8.001.284.002.114-.009m52.64-.456-.809-.016-9.241-.189-8.677-.159-3.037-.055-9.999-.141-1.526-.022"/><path stroke="#fff" stroke-linejoin="round" d="m734.53 320.857-1.381.204-.495.06-3.881.047-6.485-.133-1.132-.023m42.197-7.519-3.974-.079-3.962.007h-.635l-1.707.002-.822.001-2.425.115-.174.009m20.894 1.595-.054.046m-.012.028-.028.005-.431.075-.047.009-.319.062"/><path stroke="#fff" stroke-linejoin="round" d="m734.234 320.987.296-.13 1.355-.598.327-.201.817-.503.855-.527 2.227-1.486 2.334-1.491 2.323-1.245 2.192-.749.315-.091.629-.112m1.712 16.566-3.17.122-.392-.004-.372-.007-4.088-.08-6.31-.122-7.695-.149-8.616-.168-9.081-.177-7.762-.153-1.337-.026-8.646-.17-7.731-.153-6.361-.125-4.54-.089-3.043-.134-1.865-.264-1-.476-.108-.067-.447-.75-.034-.1-.039-.911.237-1.024.386-1.054.403-1.005.5-.907.096-.124.691-.796.033-.023.119-.085.957-.609M732 232.5c111.5-3 27.5-.5 118.91-4.773l.304-.016 9.823-.516 6.034-.317 3.115-.152.903-.03.987-.017.548.051.013.009m-4.254 12.107-1.65.138-3.763.245-3.978.241-1.17.071-1.886.114-9.981.605-1.496.091-9.982.592-3.557.211-1.131.067-9.983.571-6.64.38-8.732.473-5.715.31-2.915.158-9.988.496-6.928.345-9.99.459-6.213.285-.446.021-9.991.43-6.565.284-9.991.413-6.641.275-9.992.407-6.173.251-.712.029-9.992.39-7.213.281-9.993.366-7.619.28-9.994.335-8.098.271-6.465.193-9.996.299-2.179.065-9.996.273-.564.016-8.588.235-2.93.076-6.459.169-8.346.217-.356.009-1.526.04-9.996.258-10.053.259-1.571.041-3.028.08-.398.011-5.578.147-7.436.196-2.438.065-.329.008-1.075.029-9.871.263-1.587.043-.911.024-.067.002-2.051.055-.095.002-4.777.128-5.441.144-2.109.056-1.072.029-.911.024-2.574.068-.586.016-7.012.186-1.199.032-.091.002-.048.002-.201.005-5.741.15-6.268.164-8.889.233-1.156.029-7.815.198-9.997.254-1.28.033-.975.025-9.997.249-9.892.246-.831.02-9.997.246-6.377.156-2.491.061-.799.019-3.593.088-6.331.153-2.238.055-.329.008-.329.008-.143.003-.58.014-.498.012-3.816.093-1.331.026-.217.004-1.417.027-.871.017-.034.001-1.049.008-.888-.035-.404-.193-.032-.015-.003-.05-.031-.485.111-.473.112-.479.334-1.466.385-1.667.375-1.556.345-1.281.076-.211.012-.034.213-.596.35-.568.344-.321.153-.143.739-.522 1.071-.744 1.237-.853.811-.555.424-.291 1.066-.726.729-.491.548-.313.524-.189.652-.13.104-.015.828-.117 1.058-.112 1.028-.07 1.519-.076 1.058-.028 2.958-.076 6.987-.156.608-.013.11-.003.152-.003h.018l.203-.005.036-.001.124-.002.506-.012 9.997-.222 2.199-.049 6.011-.135 1.167-.026"/><path stroke="#fff" stroke-linejoin="round" d="m807.429 229.811.518-.021.876-.04 1.909-.086m-350.87 10.295.136-.369.099-.269 3.474-9.438 1.664-4.522.515-1.395 1.418-3.81.544-1.458.114-.307.356-.956 3.492-9.37.309-.83 1.251-3.275.566-1.484.493-1.289.205-.537.786-2.059 1.037-2.717 1.009-2.642.295-.768.35-.92.004-.011.002-.006.078-.204.146-.383.088-.23.072-.188.411-1.035.143-.365.016-.04.003-.008.031-.077.066-.168.554-1.402.63-1.591.522-1.319 3.678-9.299.545-1.376 3.826-9.24 3.06-7.388 3.973-9.177 3.182-7.349 4.121-9.112 3.285-7.263 4.27-9.043 3.368-7.132 4.423-8.969.759-1.54.052-.105.342-.69.079-.163h.001l2.198-4.459 4.53-8.916 2.984-5.87 1.855-3.578.063-.122.849-1.637.011-.02.04-.078.354-.679.08-.158 3.369-6.493 2.682-5.106.133-.253 1.838-3.498.528-1.004 2.25-4.285.943-1.798.234-.437.048-.092 1.429-2.688.732-1.258"/><path stroke="#fff" stroke-linejoin="round" d="m864.423 101.499-.191.495-1.03 2.271-1.892 4.075-.034.074-3.068 6.609-3.922 8.429-4.235 9.059-.255.545-4.258 9.048-.512 1.088-4.292 9.032-.469.987-2.203 4.666-2.552 5.403-2.372 5.133-2.38 5.15-2.963 6.649-1.79 4.015-2.225 5.245-.483 1.136-.056.134-.002.004-.489 1.151-1.502 3.54-1.564 3.821-.073.176-.117.286-.195.476-2.811 6.864-3.716 9.284-1.047 2.615-3.68 9.298-.615 1.554M650.662 50.788l9.912 1.321.337.045 9.897 1.435 9.074 1.316 7.737 1.225 7.375 1.168 3.842.61.14.021.977.171.052.01.311.053 2.513.438 1.468.256 2.266.394 4.067.71 1.834.318 5.086.887 9.818 1.902 4.537.88.197.038.111.022 1.688.327.136.026 1.332.258 2.106.461 5.972 1.307 1.36.298 5.813 1.272M98 244c.105-2.373-.2-4.828-1.183-10.773l-.15-1.049-.323-2.244-.122-.847-.203-1.356-.133-.886-.251-1.678-.266-1.673-.246-1.547-.192-1.205-.221-1.282-.383-2.212-.12-.689-.073-.43-.495-2.551-.374-1.929-.27-1.21-.32-1.43-.001-.003-.373-1.669-.47-1.777-.151-.569-.423-1.602-.036-.136-.006-.023-.21-.654-1.023-3.212-.133-.34-.726-1.855-.204-.519-.343-.878-.298-.618-.388-.807-.842-1.747-1.598-2.61-.726-.856-.888-1.045-1.58-1.046-.108-.06-1.634-.366-.207.016-1.771.145-.33.069-.476.103-.671.144-.912.194-1.2.251-3.56.72-1.825.398-2.352.557-2.072.531-2.618.686-2.812.821-2.268.683-2.948.901-3.008.986-2.394.901-2.968 1.125-2.813 1.359-2.438 1.32-2.521 1.627-2.42 1.895-2.052 1.892-2.34 2.525-1.477 1.856-2.171 3.098-2.092 3.693-.524 1.072-1.801 3.767-1.6 3.945-1.3 3.871-.004.014-.007.025-.004.012-.157.549-.665 2.332-.158.556-.041.142-.193.78-.108.438-.475 1.922c-.37 1.808-.563 2.804-.761 4.462-.113.747-.105 1.081 0 1.5"/><path stroke="#fff" stroke-linejoin="round" d="m56.37 198.298-.025.026-1.937 2.104-1.604 2.467-1.29 2.827-1.022 3.213-.799 3.622-.602 3.916-.025.237-.405 3.858-.073 1.06-.055.816-.061.883-.084 1.226-.012.17v.046l-.025.579-.01.266-.129 3.21-.026 1.407-.006.321-.014.706-.009.513-.007.375-.01.5v.205l-.002 1.151-.003 1.442-.001.303v.289l.001.052.008.738.02 1.742.022.88v.001l.011.479.001.034.001.029.006.249.002.052.025.877-.009.21-.008.199-.023.049-.026.054"/><path stroke="#fff" stroke-linejoin="round" d="m56.345 198.324 2.294-1.763 2.636-1.554 2.782-1.345 2.803-1.184 2.702-1.075 2.56-.951 2.378-.813 2.158-.66 1.732-.452.164-.043.111-.01c1.48.703 2.173 1.326 3.198 2.929 7.586 17.922 13.955 45.501 11.638 53.097-30.697 2.908-37.64 3.497-41.5 2.5M1676.01 533.263l.26.183.08.061.23.181.36.283.45.358.57.466.75.609.83.68.84.68.74.609.58.467.4.363.25.297.1.269-.05.28-.04.228-.16.288-.6.83-1.11 1.459-1.6 2.112-2.06 2.788-2.48 3.487-3.01 4.24-1.19 1.63"/><path fill="#fff" d="m1668.2 562.755.5.047v.014l-.5-.061Zm-.04.318.5.061v.003l-.5-.064Zm-.04.293.5.064c0 .008 0 .015-.01.023l-.49-.087Zm-.05.294.49.087v.011l-.49-.098Zm-.43 2.115.5.098-.01.008-.49-.106Zm-.06.318.48.106c0 .015 0 .029-.01.044l-.47-.15Zm-.12.369.48.15v.005l-.48-.155Zm-.74 2.256.48.155c-.01.007-.01.013-.01.019l-.47-.174Zm-.17.457.47.174c-.01.014-.01.028-.02.042l-.45-.216Zm-1.1 2.294.45.216v.015l-.45-.231Zm-.59 1.145.44.231c0 .005-.01.011-.01.016l-.43-.247Zm-2.7 4.733.43.247v.003l-.43-.25Zm-2.53 4.376-.43-.25v-.001l.43.251Zm-5.01 8.659.44.25-.44-.25Zm-.36.64-.44-.248v-.003l.44.251Zm-4.74 8.286-.43-.246v-.002l.43.248Zm-1.25 3.237a.5.5 0 1 1-.87-.491l.87.491Zm20.48-40.279-.05.536-1-.095.05-.536 1 .095Zm-.05.55-.04.318-1-.122.04-.318 1 .122Zm-.04.321-.04.293-.99-.129.03-.293 1 .129Zm-.05.316-.05.294-.98-.174.05-.294.98.174Zm-.05.305-.42 2.115-.99-.197.43-2.115.98.197Zm-.43 2.123-.07.318-.97-.212.07-.318.97.212Zm-.08.362-.11.369-.96-.3.12-.369.95.3Zm-.11.374-.74 2.256-.95-.311.73-2.256.96.311Zm-.75 2.275-.17.457-.94-.349.17-.457.94.349Zm-.19.499-1.1 2.294-.9-.432 1.1-2.294.9.432Zm-1.1 2.309-.6 1.145-.89-.462.6-1.145.89.462Zm-.61 1.161-2.7 4.733-.86-.495 2.69-4.733.87.495Zm-2.7 4.736-2.53 4.376-.86-.501 2.53-4.376.86.501Zm-2.53 4.376-5 8.659-.87-.5 5.01-8.659.86.5Zm-5 8.659-.37.64-.87-.501.37-.639.87.5Zm-.37.638-4.73 8.286-.87-.496 4.73-8.286.87.496Zm-4.73 8.283-1.69 2.992-.87-.491 1.69-2.992.87.491Z"/><path stroke="#fff" stroke-linejoin="round" d="m1661.86 636.808-.12.948-.07.406-.85 3.162-.09.289-1.16 2.942-1.3 2.594-1.23 2.117-.95 1.51-.73 1.049-.61.736-.15.16-.55.576-.57.569-.65.456-.78.233-.24.03-.95-.097-.77-.17-1.73-.437-3.12-.766-1.99-.467m.6-77.569-.87.549-1.54.918-.89.526-2.01 1.197-5 2.809-5.48 2.941-5.9 3.037-6.25 3.091-6.51 3.106-4.89 2.25-1.79.824-6.76 2.996-6.72 2.866-6.58 2.685-.65.255-.01.001-4.79 1.872-.98.386-6.27 2.351-5.88 2.124-.2.073-5.9 2.055-4.4 1.489-1.13.385m118.8-64.248-1.17 1.279-.02.022-1.83 1.952-.88.927-.18.184v.004l-.05.053-.01.005v.005l-.59.622-.84.873-.12.124-.01.018-.05.053-.03.027-.02.023v.001l-.03.029-.09.088v.003l-.06.065-.01.013-.02.019-.04.035-.07.074-.01.019-.01.004-.05.052-.01.011-.03.032-.12.121v.005l-.01.011-.03.026-.01.019-.08.08-.03.036-.03.029-.04.038-.01.016-.03.025-.01.008-.07.073-.07.073-.06.067-.01.006-.05.057-.03.034-.16.168-.01.003v.002l-.01.007-.01.013-.08.09-.07.071-.03.028-.02.025-.04.042-.03.03-.06.062-.1.101-.09.088-.01.007-.03.033-.11.119-.06.054-.01.018-.06.056-.05.051-.07.077-.01.011-.03.025v.002l-.02.02-.09.091-.07.076-.01.005-.03.033-.04.035-.15.153-.06.056-.02.02v.003l-.08.08-.07.07-.13.127-.03.029-.08.082-.01.009-.08.075-.09.088-.06.057-.01.009-.04.042-.05.046-.05.049-.09.081v.004l-.02.021-.02.014-.07.065-.03.03-.06.057-.09.083-.02.018-.01.015-.02.013-.2.197-.02.014-.06.062-.05.047-.16.151-.04.034-.02.018-.06.052-.05.048-.03.031-.03.025-.04.039-.02.017-.01.01-.12.109-.03.03-.11.108-.01.003-.01.011-.03.024-.16.158-.01.001-.01.011-.09.084-.05.052-.01.007v.001l-.07.06-.04.038-.07.068-.01.012-.01.002-.04.042-.13.108v.004l-.17.153-.01.007v.003l-.01.007-.14.124-.05.046-.12.103-.02.021-.02.017-.03.023-.11.101-.09.08-.05.045-.09.078-.06.048-.09.079-.09.088-.02.012-.06.052-.06.054-.04.037-.04.033-.12.11-.04.036-.04.03-.1.086-.11.088-.02.021v.002l-.03.022-.1.086-.13.106-.11.09v.002l-.01.003-.01.015-.22.181-.01.003-.04.036-.04.037-.03.021-.05.047-.04.026-.05.046-.19.157-.02.021-.05.041-.11.089-.01.007-.02.02-.17.139-.01.006-.02.017-.01.009-.19.16-.15.121-.01.007-.04.039-.01.006-.01.004-.03.023v.001l-.17.14-.02.012-.05.04-.03.021-.11.089-.06.046-.14.111-.05.038-.01.007-.05.036-.12.093-.07.057-.01.008-.03.021-.1.075v.004l-.06.048-.16.122v.003l-.11.08-.05.039-.01.007v.001l-.1.079-.04.031-.13.098-.01.015-.1.077-.02.009-.06.048-.06.049-.07.053-.12.091-.03.027-.02.014-.02.014-.08.063-.04.031-.12.093-.11.087-.02.016-.03.019-.04.032-.05.044-.05.036-.08.052-.11.08-.06.048-.03.02-.01.01-.19.133-.17.12v.005l-.09.06-.04.028-.07.049-.11.08v.003l-.01.009-.09.062-.14.1-.06.044-.01.007-.17.124-.03.018-.15.109-.05.041-.11.075-.1.073-.02.013-.7.505v.002l-.31.218-.05.039-.48.322-.17.112-.37.247-.1.065-.22.152-.04.026-.3.2-.48.327-.39.257-.82.552-1.47.925-1.58.997"/><path stroke="#fff" stroke-linejoin="round" d="m1679.03 542.845-.12.125-.92.996-1.22 1.386-1.39 1.605-1.55 1.778-1.69 1.906-.28.308-.61.668-.92 1.008"/><path stroke="#fff" stroke-linejoin="round" d="m1679.91 542.005-.4.349-.6.616m-34.7 109.678.11-.457-1.07.457-.53.227-2.15 1.291-2.98 1.933-4.13 2.616-5.1 3.134-5.88 3.482-6.46 3.657-6.84 3.648-6.81 3.48-6.35 3.144-5.47 2.637-4.13 1.955-3.33 1.703-3.07 1.889-3.37 2.52-4.23 3.598-4.64 4.136-4.62 4.127-4.13 3.563-3.2 2.44-2.49 1.591-2.03 1.021-1.81.73-1.84.724-2.39.881-3.45 1.209-5.05 1.705-7.19 2.375-9 2.857-9.58 2.878-.87.262-9.63 2.692-1.92.537-9.7 2.455-2.58.655-9.74 2.261-3.19.741-9.78 2.1-3.73.802-9.81 1.967-4.2.844-9.83 1.859-4.59.87-9.85 1.727-4.96.87-9.88 1.573-5.28.841-9.9 1.395-5.56.784-9.93 1.194-5 .6-.79.096-2.2.233-9.95 1.054-2.79.296-9.95.955-3.16.303-9.96.891-.28.025-6.34.559-2.13.183M1647.83 602.3l2.04 1.307 3.97 3.014 3.17 3.163.18.229 2.43 3.271 1.74 3.334 1.14 3.356.64 3.602.1 3.298-.02.336-.32 3.253-.06.42-.12.61-.13.662-.02.092-.12.608-.01.036-.13.647v.015l-.12.61-.01.004-.08.431m-5-68.891v.279l.01.474v.455l.01.306v.692l-.01.348v.367l-.01.174v.559l-.01.124v.346l-.01.34v2.217l-.01.253v.284l.03.577.07 1.571.01.284.13.694.13.764.02.093.03.177M1141.07 781.8l-1.16-.064-4.69-.26-3.63-.202-1.94-.135-.77-.126-.15-.162-.08-.188-.04-.272-.01-.324.02-.302v-.209l-.01-.164-.01-.163v-.21l-.01-.302v-.371l.01-.419v-.206m211.94-40.1-1.8 1.87m1.75-1.814-1.14 1.187-.49.504m1.57-1.635-1.17 1.214-.04.046"/><path stroke="#fff" stroke-linejoin="round" d="m1340.38 737.787-.75.775-.39.407-.02.024-.17.176-.19.199-.12.123-.45.469-6.91 7.222-1.64 1.714-.06.063-1.91 1.993-2.77 2.907-1.48 1.564-5.17 5.435-.99 1.04-4.58 4.884-2.29 2.442-5.01 4.586-4.8 2.713-.12.042-6.27 1.708-9.35 1.556-9.93 1.196-1.44.174-9.96.924-2.42.225-9.98.723-2.38.173-9.99.538-1.35.073-9.99.343-.6.02-10 .153-.12.002-9.92-.017-9.99-.15-9.99-.262-9.91-.352-9.76-.42-9.55-.466-8.83-.468-7.59-.425-1.33-.077"/><path stroke="#fff" stroke-linejoin="round" d="m1515.89 627.736-.32.102-.46.15-.45.144-.7.225-.16.053-.45.145-.29.096-.18.056-.66.214-.63.203-.49.159-.66.213-.16.049-.46.149-.26.085-.26.083-1.25.404-.07.023-.48.154-.61.199-.14.047-.47.151-.23.073-.35.115-.06.019-1.14.369-.62.199-.56.182-.14.043-.47.153-.19.061-.46.151-.08.023-1.06.345-.7.224-.5.163-.07.023-.05.017-.48.154-.04.012-.1.034-.6.193-1.06.345-.79.255-.44.141-.11.036-.47.154-.1.03-.74.241-.2.065-.02.008-.76.244-.35.115-.54.174-.36.117-.1.031-.47.153-.04.013-.54.176-.37.122-.88.288-1.02.339-.27.088-.08.026-.43.142-.02.008-1.11.366-.73.24-1.19.395-.16.052-.06.019-.33.111-.1.031-1.28.425-.37.122-.2.066-.49.17-.9.307-.02.008-.04.012-.21.072-.18.061-1.52.523-.33.11-1.52.521v.003l-.06.018-.08.028-.19.066-.91.31-.9.308-.05.02-.84.286-.79.286-.06.018-.17.064-.11.04-.15.052-1.6.578-.31.11-1.47.533-.08.029-.06.022-.45.161-.15.055-.67.241-.55.196-.71.259-1.16.415-.01.003-.07.031-.23.087-.65.248v.001l-.9.348-1.25.478-.62.239-.31.119-.24.091-1 .385-.33.125-1.85.714-.03.01-.55.212-.22.085-.27.104-.83.343-.33.137-1.54.633-.74.306-.12.051-.2.084-.81.332-1.16.48-.71.296-1.21.5-.19.078-.2.082-.29.119-.18.077-1.68.75-.24.109-1.37.615-.17.077-.08.033-.81.364-1.06.474-1.39.626-.44.198-.04.017-.21.094-.13.057-.8.36-.6.294-.12.062-.17.081-.36.179-1.32.644-.76.373-.05.025-.11.055-.53.259-.39.196-1.7.834-.16.077-.51.249-.86.422-.02.013-.29.142-.18.088-.11.051-.56.305-.47.256-.68.369-1.67.909-.15.078-.24.129-.09.052-1.49.81-.9.484-.94.511-.78.426-.22.134-.08.046-.72.433-.23.137-1.55.937-1.58.949-.21.128-.13.077-.04.025-.45.271-.77.463-.4.245-1.17.704-.21.127-.41.271-.83.557-.27.182-.01.003-.62.421-1.12.749-.26.171-.37.248-.76.507-.32.221-.67.443-.49.332-.01.007-.67.449-.58.386-.21.139-1.49 1.108-1.63 1.215-.06.044-.03.023-.01.008-1.12.835-.54.397-1.49 1.11-.21.156-.61.458-.28.203-.78.646-1.64 1.35-2.93 2.41-1.12.925-.5.405v.002l-.43.353-1.29 1.162-6.65 5.983-7.22 6.92-1.75 1.673-7.09 7.055-3.43 3.422-7.02 7.122-5.69 5.766-2.21 2.276-4.95 5.084-6.11 6.286-2.36 2.443"/><path stroke="#fff" stroke-linejoin="round" d="m1549.21 616.94 2.98-.988.26-.087-3.24 1.075Zm0 0-1.75.581-.26.085-4.29 1.399-3.39 1.105-3.1 1.006-1.32.425-2.1.679-.46.149-1.73.557-1.81.582-.36.116-.32.104-1.18.381-2.65.854-1.03.331-.73.235-.64.207-.38.122-.75.244-.61.195-.35.113-.04.014-1.35.435-.41.132-.73.235-.17.055-.44.142-.32.105-.11.033-.79.256-.06.021-.47.15-.45.144-.69.225-.17.053-.45.145-.29.096-.18.056-.66.214m-144.14 122.236-.35.358-4.73 4.918-6.7 7.044-5.8 4.071-.07.025-7.43 1.593-10-.348-1.53-.053-9.94-1.046-8.1-.852-.65-.085m359.08-215.833-.51 1.525-1.2 3.637-.18.55-.16.493"/><path stroke="#fff" stroke-linejoin="round" d="m1669.97 556.661-1.02 3.271-.55 1.81-.15.477-.18.581-.83 2.177-.2.541-1.17 2.233-1.4 2.186-1.49 2.054-.16.212-1.45 1.837-1.29 1.53-1.09 1.021-.2.103-.86.315-.21-.004-.19-.103-.09-.087m-122.34 44.726-.39.591-.55.829-.96 1.283-1.19 1.418-.54.652-1.68 1.885-1.16 1.307-4.3 4.654-.12.129-5.11 5.28-5.63 5.452-5.51 4.777-4.85 3.379-4.68 2.424-.17.086-4.44 1.694-.02.009-.56.211-1.77.562-2.99.947-1.1.346-.99.309-6.23 1.941-8.39 2.563-7.35 2.204v.001l-1.97.591-2.33.68-2.23.654-5.5 1.607-9.62 2.734-.94.267-9.71 2.697-.8.223-1.59.432-2.38.649-5.93 1.612-8.71 2.321-6.93 1.799-5.37 1.35-4 .976-2.86.678-.78.186M430.052 27.752l9.814-1.92 1.513-.296 9.846-1.748 2.727-.484 6.979-1.228 9.877-1.568 2.547-.404 7.316-1.16 7.616-1.092 9.903-1.39 2.444-.343 7.952-1.05 9.926-1.217 9.925-1.217.679-.083 8.541-.965 9.944-1.051 2.267-.239 8.78-.902 9.016-.823 9.96-.888 2.312-.207 9.233-.735 9.973-.731 2.528-.186 9.384-.636 9.983-.59 2.909-.172 9.459-.527 9.989-.47 3.462-.163 9.45-.408 9.994-.341 3.776-.128 9.338-.282 9.998-.2 9.998-.201 3.143-.063 9.365-.127 9.514-.095 9.743-.092 9.882-.088 9.935-.086 9.906-.08 9.797-.078 9.618-.071 9.373-.066 9.064-.06 8.695-.052 10-.038 3.312-.012 8.392-.011 8.204.048 8.103.135 9.999.174 2.849.049 5.274.161m783.602 243.348 2.59.846.47.161 1.56.915.32.389.29.489.59 1.207.23.541.22.602.22.64.22.657.22.684.21.719.18.764.48 2.476.51 2.589.6 3.1.25 1.282"/><path stroke="#fff" stroke-linejoin="round" d="m1656.23 262.102.11.562.51 2.553.56 2.782.12.62.41 1.985.29 1.398.2.954.14.652.21.997.06.369.07.495.02.285.03.501-.03.523-.02.242-.07.56-.13.609-.07.234-.27.691-.11.245-.17.275-.41.651-.1.152-.21.321-.25.388-.28.397-.29.352-.8.876-.27.233-.17.139-.76.624-.05.033-.21.17-1.37.982-.84.554-.08.054-.25.164-1.16.758-.73.472-.25.166-.07.044-.07.046-.18.11-.08.043m0 0-.07.035.08-.041-.01.006Zm0 0-.13.074-.01.007-.08.048m9.61 26.519.05.927.11 2.534.07 2.485-.01 2.078-.13 1.309-.21.71-.12.144-.12.134-.24.013-.16-.082-.24-.257-.12-.132-.34-.942-.04-.174-.17-.746-.2-.904-.14-.73-.22-1.113-.02-.106-.06-.346-.17-.949-.02-.12m-267.88 65.025.14-.013 1.01-.096.64-.061.65-.062 2.4-.224 2.19-.204 1.12-.103 1.79-.164 1.63-.129.72-.011.08.035.1.048.04.154-.24.481-.05.083-.62.98-1.23 1.902-.4.608-.28.436-.95 1.472-.31.481-.32.457-.29.414-.01.014-.17.244-.13.189-1.54 2.23-1.39 1.769-1.4 1.782-.79.819-1.23 1.28-.94.969-.31.31-1.32.937-.53.378-.06.04-.58.409-.01.009-.03.021v.004l-.49.346-3.33 1.386-3.92.902-2.08.301-2.72.39-.95.121-5.03.637-.6.071-.85.099-.44.051-.1.012-4.99.582-.29.033-3.21.356-1.27.141-.46.051-.52.058-.16.017-.39.044-.23.025-.05.006-.09.009-1.14.127-8.45.909-8.92.944-9.2.933-9.27.877-2.82.238-.53.045-.08.007-.46.039-.05.004-.08.007-5.12.433-4.22.298-1.33.094-.35.025-.14.01-2.77.196-1.08.063-1.45.085-.63.037-5.14.3-7.62.36-6.75.248-4.07.106-1.64.043-4.7.074-.59.005-.21.001-2.18.015-.4.003-.33.002-1.8.002h-.14l-.83.001-1.17.002h-.02l-.65.001-1.31-.11-.09-.008-1.43-.362-1.12-.418-.83-.309-.37-.156-1.49-.616-.85-.353-.22-.091m224.91-79.265-.26.031-.08.009-.16.018-.67.086-1.53.208-1.32.182-.65.091-.55.076-.35.048-4.65.65-6.15.865-.21.03-6.56.927-7.06.98-6.84.918-6.61.861-.75.096-5.62.713-6.14.759-5.92.716-.97.119-4.87.596-5.9.757-6.14.843-6.5.972L1336 352.5c-4.53 1.765-6.99 2.68-13.5 6.5-10.27 10.715-11.78 17.849-11 31.5l48.5-4.5 75.5-9.5c69.96-11.54 108.67-18.449 170-36.5 27.13-9.338 41.22-14.46 50.5-22m-461.02-13.401 1.31.005 7.24.01 7.32.003 7.23.003 6.99.009 6.59.024 6.02.047 3.31.037 2.01.022 4.44.06 3.43.049 2.25.03.39.01.92.025.61.066.03.003.01.004v.001l.21.09.06.024.16.148.05.179.08.321v.036l.02.643-.01 1.187-.02 1.563-.01.286-.12 2.472-.33 3.057-.65 3.761-1.01 4.081-1.33 4.608-1.58 5.166-.14.465-1.61 5.29-.13.447-.49 1.708-.79 2.713-.44 1.507-1.87 6.751-1.82 6.884-1.68 6.775-1.47 6.424-1.26 5.993-1.06 5.485-.48 2.74-.33 1.876-.05.279-.05.307-.02.117-.01.085-.16.981v.054l-.09.546-.04.27-.24 1.511-.06.356-.41 2.899-.09.658-.08.609-.02.155-.14 1.129-.03.199-.1.789-.17 1.493-.03.263-.01.09-.04.356-.07.522-.04.424-.03.216-.04.357-.01.046-.02.15-.07.485-.05.325-.02.074-.12.448-.2.221-.28.058-.24-.072-.35-.105-.12-.038-.29-.121-.26-.107-.91-.376-.29-.124-.48-.208-1.76-.765-.61-.266-.52-.228-.59-.256-.08-.034-.09-.039-.38-.164-.68-.297-.33-.144-.13-.053-.49-.213-.95-.421-3.73-1.64-4.89-2.197-4.48-2.101-3.51-1.777-1.49-.824-1.08-.597-.19-.103-.32-.198-1.89-1.142-1.16-.75-.73-.475-1.79-1.181-2.09-1.441-2.43-1.738-.37-.263-1.84-1.355-2.05-1.509-5.4-4.024-6.38-4.867-6.88-5.401-6.88-5.623-6.39-5.541-6.03-5.639-.01-.008-5.79-5.907-2.26-2.519-3.45-3.85-2.59-3.157-1.22-1.489-1.93-2.351-5.41-7.023-4.74-6.451-3.71-5.289-2.02-3.076-.31-.463-.01-.073-.13-.744-.24-1.334v-.072l2.14-1.13.15-.033.02-.005 5.23-.46 8.73-.181.14-.003h.22l10 .01.94.001 8.66.088 3.45.035 6.98.092 4.69.061 7.87.078 1.88.018 8.53.062 6.48.03Zm0 0 1.2.005m59.12 13.972.61-3.471.33-3.082.12-2.349.01-.146.03-1.868.01-1.199.03-.612.01-.073.08-.32.06-.183.17-.152.26-.108.02-.008.82-.058 1.89.001 3.4.044 5.34.073 5.73.085.55.009.41.006 1.48.024 5.95.099 7.58.145 7.12.166 6.89.191 6.89.22 7.11.254 7.56.292 7.82.32 7.89.338 7.76.345 7.45.343 7.26.338 7.18.334 5.5.249 1.72.078 7.39.32 7.44.316 5.81.248 1.58.067 7.26.317 7.01.323 6.85.34 6.75.368 6.73.406 6.78.456 6.52.645 5.99.968 5.16 1.432 4.05 2.029 3.11 2.337 2.32 2.354 1.71 2.082 1.25 1.521.88 1.075.61.744.43.526c.2 1.872.31 2.921.03 3.225m-228.03 77.935.8.342 2.28.982.34.147"/><path stroke="#fff" stroke-linejoin="round" d="m1235.71 402.789.06-.551.01-.059.11-.929.03-.262.05-.453.03-.301.02-.123.12-1.052.01-.057.01-.119.15-1.179.06-.533.08-.589.02-.165.04-.357.12-.828.03-.227.36-2.567.23-1.491.13-.838.08-.528v-.019l.06-.356.12-.768.04-.284.14-.789.1-.583.28-1.643.34-1.917 1.05-5.508 1.25-6.01 1.46-6.44 1.68-6.796 1.82-6.911 1.88-6.783.82-2.806.79-2.709.26-.897.25-.841 1.51-4.948.01-.009 1.6-5.213 1.35-4.659 1.03-4.116.01-.018m-136.44-12.622.15-.061m132.93 105.591-1.5-.591-.86-.338-.28-.113-.28-.116-1.15-.468-1.48-.608-.49-.201-2.08-.834-.67-.271-.08-.032-.56-.222-.79-.324-2.1-.851-.5-.201-1.02-.416-.22-.088-.18-.074-.5-.212-.6-.254-.37-.208-.18-.099-.04-.019-.02-.022-.22-.256-.01-.005-.12-.319"/><path stroke="#fff" stroke-linejoin="round" d="m1235.77 402.238-.06.505v.046l-.02.252-.03.281-.03.443.02.516m0 0v.043-.043Zm238.92-73.135-.12.008-.3.017-.19.01m184.87-46.082.66 2.586.28 1.11.95 3.695.79 3.144.49 2.038.15.721.21 1.342.04.679-.04 1.044-.08.677-.29 1.148-.18.724-.5 1.654-.6 1.909-.61 1.903-.3.97-.17.642v.015l-.04.155-.01.027-.02.08-.02.074-.03.072v.002l-.02.069-.21.65-.29.812-.27.71-.12.26-.28.659-.46.856v.007l-.01.008-.06.107-.16.249-.05.069-.32.482-.13.181-.68.77-.14.152-.21.193-.12.105-.04.038m-156.96-161.526 3.84 1.715 9.14 4.073 4.91 2.19 9.12 4.104 9.29 4.184 5.11 2.279"/><path stroke="#fff" stroke-linejoin="round" d="m1380.16 106.84.1-.152.19-.141.12-.067.24-.039.26-.026.4-.006.57-.006.65-.006.65-.004.14.001.43.002.4.009 1.23.46 3.19 1.353 6.09 2.637 9.18 3.972.8.349 9.18 3.975 3.78 1.639 9.17 3.982 5.83 2.531 9.17 3.986 7.53 3.272 9.16 4.002 7.38 3.22 9.15 4.025 7.68 3.376 9.14 4.058 8.03 3.563 2.83 1.271m-18.9 89.492 9.83-1.847.22-.04 9.84-1.758.15-.026 9.84-1.678 9.61-1.569 9.28-1.459.64-.096 2.82-.428.65-.099 1.21-.184 3.55-.539 8.37-1.232 7.8-1.117 7.39-1.043.72-.103 6.39-.906 4.84-.702 2.15-.311 3.33-.501 3.67-.554 4.77-.757 2.14-.339 1.33-.225 3.95-.672 1.42-.241 6.4-1.179 5.99-1.223 5.54-1.234 5.07-1.217 4.55-1.171 4.01-1.099 3.58-1.037 3.28-.988 3.07-.95 2.98-.921 2.78-.859 2.47-.764 2.06-.638 1.55-.478 1.08-.318.65-.152m-89.88-29.631 2.84 1.125 8.78 3.477 5.82 2.312"/><path stroke="#fff" stroke-linejoin="round" d="m1577.54 190.284 4.91 1.913 4.67 1.814 7.38 2.882 6.16 2.334 5.89 2.046 6.76 2.082 8.62 2.444 9.21 2.474 9.1 2.333 7.57 1.912 4.83 1.224 2.53 1.187.64 1.807-.81 3.08-1.77 4.825-2.23 6.049-2.2 6.685-1.52 6.156-.15.574m-97.15-64.91.28.112.05.022 2.62 1.055.31.124 2.39.961.84.338 3.62 1.458 3.16 1.272 4.61 1.871"/><path stroke="#fff" stroke-linejoin="round" d="m1547.1 177.903.04.016.13.052 1.95.809.98.401 3.04 1.259 6.85 2.825m-16.46-6.908.12.055.3.124 3.11 1.321 6.09 2.583"/><path stroke="#fff" stroke-linejoin="round" d="m1539.49 174.512.9.394 6.77 2.951m99.85 73.792.37 2.179.34 1.378.45 1.775m11.42 54.274-.02.089-.04.092m-1.85-31.151.23.998.76 3.118.82 3.284M1483.01 168.66l-.05.009-2.01.386-1.15.22-.83.161-.24.038-4.16.687-.23.034-2.91.428-1.69.249-.61.085-4.58.631-.14.019-5.91.801-1.81.242-4.58.613-6.75.901-7.01.936-7.15.961-7.21.97-7.18.964-7.07.938-6.87.898-6.89.857-7.18.815-7.69.778-8.48.74-9.19.69-9.85.626-.43.023-9.99.525-.94.039-9.99.416-1.44.038-10 .265-1.95.015-10 .077-2.48-.036-9.99-.145-9.06-.358-1.48-.059-.4-.015-2.04-.081-.65-.042-.41-.026-1.45-.093-6.45-.415-.36-.022-3.79-.244-9.68-.88-3.15-.286c-13.48-1.568-21.02-2.84-34.46-5.533"/><path stroke="#fff" stroke-linejoin="round" d="m1482.96 168.669 3.53-.814 3.34-.939 2.82-.999 1.22-.582.97-.461.04-.035 1.11-.833.13-.099.15-.109m152.19 94.438-.01-.051-.03-.137-.06-.289-.07-.262-.12-.516.12.514.06.261.1.428.01.052Zm0 0 .06.252.05.232.2.867.19 1.635.06.574.01.252.01 1.146v.021l.01.042v.296l-.03.822-.01.207-.03.725v.011l-.01.257-.14 2.43v.105l-.01.25-.13 2.624-.07 2.794-.01.36v.107l-.01.302v.108l-.03 2.525v.323l-.01 1.034v.018l.01 3.175v.484l.01.643m8.85 41.575.42-.185.27.12v.44l.2.767.32 1.719.54 3.082.86 4.857 1.07 6.166 1.2 7.007 1.23 7.297 1.11 6.851 1.02 6.577.9 6.13.78 5.591.64 4.959.5 4.422.39 3.984.27 3.641.19 3.397.05 3.144-.12 2.883-.3 2.616-.54 2.34-.08.293-.71 2.074-.82 1.81-.86 1.555-.84 1.31-.86 1.157-.9 1.104-1 1.148-1.12 1.292-.19.218-1.28 1.43-1.45 1.562-1.67 1.688-1.92 1.808-2.15 1.899-2.39 1.957-2.62 1.985-2.85 1.981-3.06 1.975-3.54 2.161-3.39 1.96-3.51 1.951-3.75 1.976-4.08 2.041-4.53 2.145-5.1 2.289-5.6 2.394-.45.187-6.04 2.459-6.41 2.484-6.7 2.465-.57.202-.69.247-.79.281-.85.303"/><path stroke="#fff" stroke-linejoin="round" d="m1648.56 282.437.02.42.12 2.64.04.272.11.886.09.7.01.157.02.125v.009l.01.063.04.338.02.167m10.59 22.886-.04.242-.01.079-.07.089m-571.82-180.895-.22.028-.49.064-.3.039-1.55.432-1.57.571-.65.092-.34.048-.7.109-.26.051-.73.271-1.11.63-1.82 1.188-.14.095-2.72 1.847-3.62 2.517-1.43 1.027-.06.043-2.58 1.844-4.24 3.132-4.1 3.167-3.78 3.016-3.28 2.674-2.29 2.077L1048 157l-.47.415-.28.24-.21.188-.03.027-.09.087-.17.189L1032 174m55.69-43.385-.49.034m.49-.034.3.043 1.53.52 3.96 1.532 7.56 2.979 9.3 3.668 3.05 1.201 7.64 2.988 7.7 3.009 9.33 3.594 7.17 2.761 9.36 3.511 1.78.668 4.65 1.746 3.76 1.335 9.43 3.356 2.64.875 8.59 2.85 2.91.887 2.59.791 4.44 1.354 9.34 2.615 9.41 2.478 2.91.686 4.08.963.55.129 2.2.519.12.024M808.823 229.75l-.243-.023-.002-.788.772-2.14 1.69-4.107 2.755-6.689 3.58-8.641 3.005-7.181.199-.477.12-.286.074-.176.772-1.844 2.339-5.514.49-1.153.003-.008.056-.133.483-1.136 1.15-2.712 2.873-6.64 1.763-4.076 3.393-7.7 1.337-3.034 3.352-7.477 1.448-3.231 4.149-9.098.701-1.539 4.206-9.072.672-1.45 4.246-9.054.353-.754 4.014-8.491 2.927-6.161.199-.419 1.932-4.07 1.139-2.175.051-.093.377-.45m-405.422 137.58-.287.016-.339.017-.259.009-.237.009-.471.011-.115.003-1.391.032-2.636.061-4.321.102-5.561.127-2.675.057-.909.019-.505.011-.123.003h-.036l-.205.005-.279.006-.609.013-1.025.022-6.731.129-3.525.057-2.663.043-.257.004-.226.004-6.217.086-5.377.068-4.157.048-.976.012-1.584.019-1.366.017-.579.006-.067-.001-.123-.001-.195-.006-.197-.009-.194-.01-.179-.009-.148-.008-.22-.022-.111-.02-.053-.047-.016-.022-.002-.003-.035-.05-.001-.133.007-.021.489-1.163 1.427-3.185 2.79-6.167 4.123-9.111.455-1.003 4.148-9.099 1.045-2.289.391-.856.256-.564.335-.726.382-.824 1.021-2.209 1.281-2.773 1.233-2.672.098-.213.154-.331.469-1.016.01-.019.459-.997.058-.127.053-.114.162-.35.195-.422.001-.002.001-.002.029-.062.32-.694.017-.037.07-.15.12-.259.046-.1.066-.144.276-.587.237-.502 1.339-2.843 1.14-2.418.419-.892.195-.411.139-.298.025-.053.086-.181.349-.742 2.585-5.489 4.371-8.994 2.103-4.326 4.478-8.942 1.716-3.431 4.575-8.892 1.38-2.682 4.659-8.848 1.097-2.08 4.726-8.812.87-1.621 4.8-8.773.749-1.367 4.872-8.733.736-1.319 4.944-8.693.836-1.472 5.005-8.657 1.055-1.824.857-1.469 1.519-2.596.586-1.005 2.909-4.977 4.272-7.256.222-.376.724-1.232 1.442-2.436.298-.505.004-.005.049-.085 2.307-3.901.801-1.353 1.146-1.938.005-.011.564-.953.182-.305.012-.019.039-.066 1.095-1.834.532-.84.014-.017L504.5 44"/><path stroke="#fff" stroke-linejoin="round" d="m808.58 229.727.267-.002.463-.024.542-.028.579-.03.315-.017m-350.649 9.695-.057.003-.263.014-.149.007M1113.19 28.788l9.83 1.837 5.86 1.096 9.81 1.97 7.21 1.448 9.77 2.106 7.78 1.674 9.74 2.247 8.21 1.893 9.71 2.397 8.5 2.101 9.67 2.543 8.78 2.308.1.026 9.63 2.682 9 2.504 9.6 2.817 9.22 2.707 9.56 2.948 9.42 2.908 9.52 3.063 9.17 2.951 9.48 3.171 8.44 2.822 9.45 3.28 7.22 2.508 9.41 3.397 5.52 1.993 9.35 3.532 4.41 1.665 9.3 3.669 3.93 1.547 9.25 3.787 1.12.455 2.95 1.209.45.189 9.22 3.872 4.41 1.852 9.19 3.935 4.87 2.082 9.17 3.987 4.06 1.766 9.15 4.033 2.74 1.206 9.07 4.066 7.11 3.253 5.68 2.663 4.89 2.341 4.73 2.29 4.59 2.245 4.46 2.207 4.28 2.139 4.03 2.042.56.293 3.6 1.925 2.95 1.778 2.1 1.605.12.145 1.04 1.406.04.173.07 1.247-.03.175-.1.148-.43.602-.37.527-1.19.784-.4.265-.15.097-2.27 1.011-2.87.962-3.36.904-3.57.791M628.865 19.586l.036-.04.097-.066.538-.167 1.344-.32 2.493-.568 2.961-.674 1.021-.233 5.15-1.149 6.003-1.294 6.541-1.343 6.771-1.298 6.958-1.248 7.097-1.19 7.196-1.128 2.589-.378 4.662-.68 7.438-.984 2.596-.303 5.16-.603 8.196-.824 8.759-.739 9.135-.643 6.213-.36 3.121-.18.037-.002 9.321-.428 9.214-.31 9.168-.225 9.213-.166 5.441-.08 3.907-.059 9.569-.14 9.707-.135 9.762-.119 9.74-.097 9.641-.066 9.472-.045 9.235-.027 8.931-.019h.28l8.285-.016 8.294.011 8.118.067 8.033.146 8.036.25.733.031 7.889.346 7.607.438 7.187.522 1.884.158 5.624.506"/><path stroke="#fff" stroke-linejoin="round" d="m933.252 3.535 2.016.18 4.591.41 5.873.521 7.51.687 8.496.815 6.031.607 8.763.882 8.416.932 5.53.62 8.596 1.065 5.136.64 4.88.672 9.22 1.262 4.54.68 9.89 1.486.62.093 4.3.7 8.26 1.34"/><path stroke="#fff" stroke-linejoin="round" d="m1037.66 15.786 9.87 1.581 2.42.387 8.16 1.39 5.98 1.02m44.54 7.814 3.24.562 1.32.248 9.83 1.844 5.26.987"/><path stroke="#fff" stroke-linejoin="round" d="m1058.11 19.144 9.71 1.627 2.79.488 9.85 1.726 6.23 1.092 3.24.57 9.8 1.754 5.62 1.006.87.156 2.39.427m386.52 135.724.04.181-.29.944m167.84 466.654-.24 1.277-.13.714-.05.29-.08.398-.02.094-.09.529-.01.026-.07.409"/><path stroke="#fff" stroke-linejoin="round" d="m1662.48 632.77-.24 1.425-.11.683-.05.28-.06.332-.01.066-.06.36"/><path stroke="#fff" stroke-linejoin="round" d="m1662.24 634.195-.21 1.381-.09.597-.03.149-.04.28"/><path stroke="#fff" stroke-linejoin="round" d="m1662.03 635.576-.17 1.232-.06.426m-4.34-60.326.51.51m-1.04-255.406-.06.176m-7.93-34.833.05.137.07.173.17.447m-2.38-39.823.16 3.36.05 1.042"/><path stroke="#fff" stroke-linejoin="round" d="m1647.28 243.531-.1 1.072-.07.797-.26 2.889-.07.699m-150.79-84.982.44-.871m-16.63 6.14-1.07.199m-107.66 581.354-3.34.687M1169.92 39.424l.51.112m-.44-.097.21.046m-41.54 738.242v.278M1099.73 26.4l8.9 1.578 1.99.352M949.421 842.26l.103.282M861.31 108.34l.19.625m-10.125 118.642-.465.12m-23.115-47.515 1.144-.11m299.691 596.491-.69.003-.56.002-3.57.034-3.01.042-1.7.009-3.81-.08-.77-.035-3.65-.316-3.05-.648-2.68-1.091-.23-.093-2.5-1.64-2.55-2.303-2.8-3.08-3.02-4.22-3.23-5.732-.06-.1-3.39-7.598-3.38-9.411-.16-.448-.15-.463-.28-.876v-.027l-.82-2.591-.49-1.55-.04-.137-.28-.893-.12-.39-.39-1.238-.73-2.3-.28-.889-.51-1.779-.39-1.355-.14-.459-.38-1.318-1.48-5.126-.59-2.039-.34-1.263-.09-.3v-.029l-.02-.048-.13-.481-1.11-4.059-.59-2.142-.41-1.498-.16-.6-.41-1.476-.03-.122-1.34-5.058-.49-1.843-.05-.187-.46-1.734-.63-2.348-.52-1.976-.3-1.159-.51-1.939-1.45-5.522-1.09-4.164-.48-1.807-1.14-4.331-.63-2.316-.45-1.688-.06-.2-.45-1.687-.54-1.994-.65-2.406-.7-2.479-.44-1.554-.14-.527-.44-1.548-1.26-4.456-.93-3.089-.42-1.397-.17-.552-.42-1.394-.23-.78-1.13-3.741-1.03-3.124-.02-.048-.39-1.192-.29-.881-.27-.824-.14-.411-1.64-4.975-1.38-3.821-.17-.463-.59-1.621-.12-.331-1.3-3.588-.81-2.246-.16-.401-1.13-2.828-.08-.192-.81-2.039-.11-.274-2.82-7.06-1.03-2.41-.28-.662-.58-1.353-.32-.746-1.18-2.763-2.06-4.815-.51-1.137-.43-.962-.55-1.235-.45-.993-3.42-7.611-.46-.968-.53-1.124-.4-.85-.54-1.152-2.96-6.271-.81-1.635-.64-1.275-.4-.801-.64-1.299-1.51-3.024-2.48-4.682-.72-1.353-.04-.064-.25-.436-.81-1.439-1.38-2.427-1.84-3.03-.97-1.554-.3-.47-.68-1.074-.1-.153-.14-.228-.23-.409-.09-.285.06-.117.02-.05.1-.143v-.004l.3-.13.51-.153.7-.212.08-.026.06-.016.01-.003.42-.126.28-.087.96-.288.33-.102.18-.054M743.005 732.929l-3.379 1.195-4.404 1.477-4.479 1.343-4.104.968-3.276.351-2.642-.336-.491-.086-.568-.097-.598-.114-.584-.138-.525-.167-2.74-1.301-.504-.358-1.598-1.354-1.355-1.148"/><path stroke="#fff" stroke-linejoin="round" d="m713.113 734.312-2.546-2.124-1.803-1.479-2.176-1.786-2.311-1.899-2.466-1.965-2.189-1.574-1.788-1.323-1.676-1.105-.166-.109m18.618-13.163.704-.053.915-.194 1.268-.368 2.487-.834 4.558-1.586 6.652-2.335m-21.173 16.127-.377.092-.54-.035-.237-.028-1.14-.234-1.976-.456-3.037-.699-3.563-.822-3.554-.818-3.018-.696-1.956-.451-1.579-.385-1.88-.495-2.858-.784-4.505-1.244-5.98-1.64-7.287-1.967-8.426-2.231-9.4-2.429-9.696-2.45-.356-.09-9.708-2.398-.679-.167-9.722-2.341-.69-.166-9.737-2.275-.396-.092-9.753-2.211-.316-.072-9.764-2.154-.445-.098-9.776-2.107-.776-.167-9.783-2.073-1.305-.277-9.788-2.049-1.986-.416-9.791-2.037-2.812-.585-9.791-2.034-3.777-.784-9.791-2.038-4.875-1.014-9.79-2.04-5.683-1.185-9.789-2.041-6.211-1.295-9.789-2.043-6.464-1.348-9.79-2.043-6.459-1.347-9.79-2.037-6.527-1.358-9.793-2.026-6.67-1.38-9.796-2.01-6.881-1.412-9.799-1.991-7.161-1.454-9.803-1.977-7.317-1.475-9.804-1.967-7.357-1.476-9.806-1.962-7.284-1.458-9.805-1.962-7.104-1.422-9.804-1.962-6.926-1.386-9.806-1.962-6.749-1.351-9.806-1.962-6.577-1.317-9.806-1.962-6.408-1.282-9.805-1.963-6.164-1.233-9.806-1.962-5.854-1.172-9.805-1.962-5.475-1.096-9.806-1.962-5.032-1.007-9.805-1.962-4.672-.935-9.806-1.963-4.392-.879-9.806-1.962-4.189-.838-9.805-1.963-4.061-.812-9.805-1.962-3.868-.773-9.806-1.96-3.613-.723-9.808-1.957-3.302-.659-9.806-1.954-2.933-.585-9.809-1.951-2.14-.426-9.809-1.948-.94-.187-9.148-1.815-7.154-1.417-5.62-1.09-4.534-.832-3.887-.64-3.673-.515-3.32-.405-2.833-.309-2.204-.228-1.437-.162-1.034-.148-.998-.189-.624-.133-.012-.003-.276-.059-.407-.087-.414-.088-.378-.081-.938-.2-.11-.024-.166-.035-.599-.129-.347-.074-.09-.019-.44-.094-.869-.186-.014-.003-.275-.059m1221.452-41.904-.19.061-.15.053-.89.294-.69.232-.23.075-.74.247-.51.168-4.07 1.224-1.23.369-.4.12-1.23.369-1.52.457-.32.083-2.07.335-1.59.259-1.15.188-.14.022-.21.034-.19.032-1.01.163-.92.15-2.65.432-.15.013-9.96.886-.95.084-9.98.539-1.85.099-9.99.474-2.27.108-9.99.426-2.51.107-.11.004-1.04.041-9.99.388-1.4.054-9.99.362-1.4.05-1 .036-9.99.344-2.05.071-6.14.21-.05.002-.07.003-.08.002-5.31.182-9.99.361-1.2.043-9.99.397-.7.028-9.99.461-.16.007-6.27.318-.29.015-1.24.062-.27.014-.03.001-1.08.055-.27.015-.82.044-2.36.127-1.64.088-.44.024-2.08.112-.19.01-6 .329-3.16.163-.64.033-1.48.054-.45.016-.64.024-1.51.013-.82.008-.84-.006-.11-.001-2.13-.015-.38-.003-.9-.006-.18-.001-2.65-.019-.69-.005-2.81-.02-2.45-.017-.38-.003-3.15-.022-1.09-.008-1.4-.009-1.56-.011-.32-.003-2.88-.02-.71-.005-.29-.002h-.02l-.22-.001-.17-.002-.22-.001-1.42-.01-.27-.003-.22-.004-.51-.009-.12-.002-.89-.016-.84-.063-.38-.111-.28-.128-.1-.047-1.05-1.119-.85-1.052-1.54-1.886-1.17-1.489-.14-.175-1.31-1.674-.02-.022-1.33-1.696-.04-.053-.39-.498-.89-1.142-3.349-4.313-1.356-1.747-.029-.037-1.368-1.762-.086-.111-.069-.085-.076-.093-3.722-4.561-.678-.831-1.238-1.518-.297-.363-.762-.935-.488-.598-1.609-1.972-.319-.39-2.432-2.732-1.476-1.659-.145-.163-.288-.323-1.099-1.234-3.921-4.406-1.091-1.225-.505-.567-.439-.434-.473-.466-.879-.868-1.207-1.191-3.353-3.309-.169-.167-1.132-1.117-.15-.148-.044-.044-.233-.229-4.092-4.038-2.111-1.712-.412-.335-.46-.373-.579-.468-.956-.776-4.402-3.569-1.124-.911-1.425-1.155-.071-.058-1.362-1.104-.079-.053-5.374-3.604-1.449-.971-.314-.211-1.458-.977-2.894-1.94-1.095-.735-.02-.013-.516-.346-.171-.115-.068-.046-.332-.184-1.021-.568-.527-.293-1.631-.907-3.63-2.019-1.143-.635-1-.556-.964-.536-1.001-.557-.384-.213-1.876-1.044-.273-.151-2.016-.929-.644-.297-1-.46-.158-.073-.319-.147-.348-.161-.331-.152-.664-.306-.146-.067-.55-.253-1.242-.573-1.017-.469-.094-.043-1.052-.484-.788-.363-.43-.199-1.051-.484-2.086-.961-.442-.168-.665-.252-.429-.163-2.088-.793-.372-.142-.005-.002-1.163-.442-.017-.006-.117-.044-.189-.072-.347-.132-1.357-.515-.317-.121-.513-.194-.412-.157-.79-.3-.146-.056-.409-.155-.379-.144-.012-.005-.054-.02-.533-.203-.817-.31-.095-.036-.304-.115-.486-.185-.195-.074-.388-.147-.11-.042-.753-.286-.351-.105-.186-.056-.249-.075-.247-.073-4.034-1.207-4.757-1.424-4.055-1.214-.078-.023"/><path stroke="#fff" stroke-linejoin="round" d="m882.564 444.217-9.766-2.15-4.209-.928-9.897-1.429-1.961-.284-2.44-.352-9.973-.728-.175-.012-4.443-.324-2.18.015-10 .071-2.377.016-9.949 1.004-.564.057-3.416.344-.276.028m-8.342 1.829-9.402 3.406-2.956 1.07-8.888 4.583-.829.427-.76.392-1.084.559-.134.069-1.452.98-7.251 4.892-2.178 1.469-.681.571-7.665 6.424-.266.223-1.522 1.276-2.491 2.501-6.961 6.987-3.167 3.764-.113.134-5.01 5.956-.409.486-.746 1.048-4.046 5.676-3.082 4.326-.191.318-2.075 3.456-4.715 7.851-4.464 8.948-.982 1.968-.573 1.149-.981 2.423-1.507 3.726-2.565 6.339-3.02 9.533-1.065 3.362-.977 4.173-2.133 9.111-1.541 9.88-.589 3.778-.93 9.957-.367 3.925-.436 9.99-.173 3.963-.046 10-.013 2.888-.005.991.104 4.153.236 9.503.492 9.988.151 3.062.698 9.976.146 2.086.882 9.961.065.73.929 8.738.022.2.988 7.538 1.062 6.489 1.17 5.79 1.313 5.437 1.333 4.896.77 2.601.463 1.566 1.012 3.254.03.098.202.652.438 1.408.382 1.299"/><path stroke="#fff" stroke-linejoin="round" d="m811.214 439.517-8.618 1.857-4.825 1.04M748.849 313.7l.979-.161M710.63 59.96l.384-.128m-9.336-1.629-1.362-.04m-90.88 563.908-.186.081M442.725 25.892l1.326-.173.236-.03 9.554-1.245 5.454-.711m-35.864 216.963.101-.056m-76.451 55.022-.016.001-1.621.099-.196.012-.016.001m-59.843 6.119-1.34.102-.304.023M52.917 247.233l.294.039m-34.049-19.275 1.411-.229m-6.087.863 4.676-.634 1.4-.19"/><path stroke="#fff" stroke-linejoin="round" d="m11.385 228.988 3.101-.357 2.616-.302.292-.033 1.191-.137m-6.344.769.206-.021.007-.001 3.715-.37m-19.875 1.528 7.01-.491"/></svg>