<svg fill="none" viewBox="0 0 1655 497" xmlns="http://www.w3.org/2000/svg"><path stroke="#fff" stroke-linejoin="round" d="m26.523 471.498.412.239.751.391.936.44 1.161.501 1.425.573 1.693.634 1.965.682 2.239.721 2.517.747 2.788.761 3.053.761 3.31.747 3.563.721 3.802.688 4.032.651 4.251.608 4.458.562 4.328.496 3.856.412 3.041.312 1.884.193 1.218.111 1.046.064 1.371.055 2.19.081 2.626.094 2.678.095 2.345.082 1.629.056 1.068.037.662.021.412.013.315.01.256-.005.805-.132.891-.42c.296-.258.252-.784 0-2"/><path stroke="#fff" stroke-linejoin="round" d="m39.602 476.473 2.776.756 3.044.757 3.306.745 3.564.72 3.808.688 4.042.653"/><path stroke="#fff" stroke-linejoin="round" d="m25.532 470.902.026.019.4.286.502.324.239.139.605.351.364.2.5.275.738.385.915.433 1.129.49 1.382.558 1.637.614 1.893.659 2.15.693 2.409.713 2.675.726 2.949.729.733.165 2.498.557.68.152 3.473.695 3.749.673 4.006.644 4.245.605 4.463.558 4.39.51 4.024.459 3.363.407 2.406.352 1.789.333 1.513.346 1.544.347"/><path stroke="#fff" stroke-linejoin="round" d="M88.92 485.298v.001l1.867.693 1.582.533 1.848 1.224 2.042 1.719.464.39"/><path stroke="#fff" stroke-linejoin="round" d="m96.259 489.468 1.89 2.108 1.312 1.583 1.141 1.264.917.763.729.389.577.142.95.216.453.018.338.013 1.407-.08 1.991-.367 2.273-.563 2.259-.667 1.956-.681 1.369-.607.5-.415"/><path stroke="#fff" stroke-linejoin="round" d="m116.103 492.764.218-.18.71-.581.614-1.129.194-.625.398-1.559.394-2.299.369-2.772.322-2.978.245-2.665.141-1.831.062-1.179.011-.71-.013-.422-.009-.312-.018-.22-.039-.144-.07-.082-.096-.048-.114-.038-.249-.025-.402-.018-.559-.027-.841.001-.208.007-1.25.058-1.781.151-1.646.188M1642.09 357.524l.01-.025.01-.054v-.012l.22-.824.12-.485.29-1.114.32-1.222.01-.031m9.63-41.634.45-2.85.49-3.042.26-1.642.07-.724-.03-.292-.1-.342-.17-.468-.32-.542-.69-.897-1.22-1.405-.41-.44-1.49-1.624-2.35-2.564-2.55-2.9-2.24-2.764m-2.55-3.324-.7-1.572-.01-.013-.21-.488-.1-.221-.27-.603-.33-.749-.69-1.545"/><path stroke="#fff" stroke-linejoin="round" d="m1640.35 286.927-.71-1.396-.02-.035-.44-.872-.62-1.218"/><path stroke="#fff" stroke-linejoin="round" d="m1640.46 286.847-.13-.222-1.15-2.001"/><path stroke="#fff" stroke-linejoin="round" d="m1642.49 289.769-.09-.142-2.07-3.002m2.41 68.385.35-1.192.49-1.686 1.4-4.693 1.6-5.647.28-.983 1.66-6.21 1.47-6.835 1.27-6.833 1.04-6.202.4-2.606.37-2.336m-15.51-28.628-.02-.047-1.12-2.893-.63-1.842-.77-2.321-.6-1.944-.69-2.466-.92-3.662-.79-3.288-.75-3.16-.84-3.555-.94-3.981-1.02-4.338-.57-2.45-.41-1.742v-.008l-.1-.426-1.13-4.841-1.15-4.989-1.09-4.787-.96-4.235-.04-.163-.71-3.17-.48-2.082-.27-1.129-.07-.223-.08-.252-.1-.122-.15-.073-.25-.033-.42-.007-.09.002m-146.32 92.793-.13-.043-.12-.03-.13-.029-.18-.039-.23-.048-.25-.054-.27-.057m1.38.184-.12-.057-.12-.034-.13-.028-.19-.04-.22-.048-.25-.054-.27-.056m169.23 48.583v-.02l.26-1.193.11-.538m-.45 2.944.08-1.213"/><path stroke="#fff" stroke-linejoin="round" d="m1586.32 437.674 4.59-2.529 3.18-2.05.4-.258 1.75-1.123.02-.013.03-.029.02-.011.01-.009.02-.014v-.004l.67-.516 4.16-3.226 2.28-2.146.02-.019 2.32-2.184 4.48-5.064 4.46-5.953 3.69-5.499.64-.954 2.58-4.18 1.47-2.386 3.66-6.282.01-.013 3.15-5.646 1.45-2.721.11-.195.01-.03v-.003l.05-.085 1.07-2.012.46-.892.09-.17.03-.067.01-.013.08-.156.02-.043.12-.234.01-.018v-.006l.13-.247.02-.043v-.006l.01-.007.09-.181.03-.059.02-.039.02-.043.05-.085.03-.075.04-.069.04-.068v-.005l.04-.089.05-.096.01-.021.04-.063.02-.041.03-.075.01-.018.02-.025.05-.093v-.004l.03-.065.03-.066.04-.067.01-.029.01-.016.05-.1.03-.046.01-.022.01-.023v-.004l.05-.103.02-.03v-.001l.03-.057.05-.092v-.003l.01-.021.03-.057.03-.06.01-.015v-.013l.01-.018.03-.049.01-.024.01-.013.02-.048.01-.021.01-.015.01-.017v-.003l.01-.022.02-.047.01-.01.02-.031v-.009l.01-.019.01-.012.02-.049.01-.025.02-.022v-.001l.02-.043v-.012l.01-.013.02-.031v-.003l.01-.027.01-.015v-.012l.02-.021v-.016l.01-.019v-.005l.01-.012.01-.017.01-.016v-.011l.01-.006v-.014l.01-.006v-.012l.01-.013v-.013l.06-.119.06-.125.18-.355.73-1.487.06-.109.14-.282.63-1.279.14-.298 1.56-3.243.83-1.832.23-.516.35-.773 1.1-2.736.06-.176.13-.404.47-1.466.16-.522.41-2.073.11-1.791-.11-1.539"/><path stroke="#fff" stroke-linejoin="round" d="m1582.71 439.498.75-.359.6-.285.94-.451.06-.034 1.26-.695 4.65-2.565m-93.01 25.309v.098m-1396.667 19.89 8.451-5.346 1.853-1.172.889-.563 2.95-1.866 9.762-2.167 1.355-.301m244.76-7.431.183-.001.281-.003.705-.006.232-.002 4.45-.041.286-.003.811-.007.297-.003 4.549-.041.33-.003.686-.006.311-.003 1.988-.018.212-.002h.015l2.208-.02.227-.003.819-.007.264-.002 1.315-.012.4.048.457.055.956.115.423.052.711.085.366.045.466.056.505.061.627.075.209.026.511.061.26.032.318.038.167.02.858.104.119.014.178.022.095.011.613.074.088.011M1523.87 160.379l5.26-.281 6.14-.318 6.06-.303 5.57-.263 4.7-.201 4-.152 3.52-.117"/><path stroke="#fff" stroke-linejoin="round" d="m400.568 448.604-.216.136-.204.13-.181.114-.146.093-.099.063-.243.177-.043.057-.136.277-.059.45-.003.697.031 1.005.043 1.379.063 1.735.095 2.079.134 2.405.003.04.031.457.044.658.028.405.013.203.012.168.003.047.005.079.01.138.011.167.004.054.01.148.01.153.017.218.004.046.001.022.002.02.007.09.007.095.01.123.004.054.002.026.007.08.029.38.012.151.029.378.006.068.012.155v.007l.008.101.008.092.06.779.258 2.908.281 2.787.295 2.525.291 2.215.264 1.86.217 1.459.152 1.014.122.656.13.386.176.208.177.086.08.039.559.06m1158.555-330.73-4.16-2.331-5.63-3.124-5.77-3.132-5.44-2.844-4.67-2.265-4.79-2.071-5.8-2.257-7.7-2.828-9.41-3.391-1.07-.386-9.41-3.371-3.07-1.098-9.41-3.368-4.29-1.533-5.25-1.884-8.89-3.191-2.45-.887-1.36-.491-4.06-1.465-1.29-.468-.97-.349-3.68-1.33-7.64-2.777-2.22-.807-.6-.216-.21-.076-.85-.309-.04-.016-1.19-.43-1.02-.375-.5-.18-2.52-.919-.06-.024-1.02-.369-5.84-2.13-8.46-3.09-5.23-1.907-2.8-.989-1.12-.32"/><path stroke="#fff" stroke-linejoin="round" d="m1575.48 158.472.01-.07-.04-.107-.06-.117-.31-.222-.65-.384-1.09-.604-1.61-.879-2.26-1.239-3.05-1.681-3.98-2.208-.87-.485-4.17-2.331m-85.07 160.25.32.068.3.064.27.057.22.045.14.031.32.037.08.008.64-.041 1.26-.147 2.18-.275 3.41-.429 4.02-.506.84-.106 3.18-.399 3.4-.429 2.18-.274 1.51-.198 1.4-.201 1.84-.28 2.84-.439 3.7-.568 4.42-.666 5.01-.738 5.45-.778 5.82-.817 6.1-.852 6.31-.883 6.43-.911 6.46-.934 6.39-.952 6.25-.966 4.8-.781 1.21-.196 5.58-1.142 4.98-1.464 4.19-1.942.04-.029 1.37-1.09 1.85-1.483"/><path stroke="#fff" stroke-linejoin="round" d="m1587.19 289.272 1.82-1.455.03-.028 2.44-3.74 1.83-5.442 1.25-6.775.01-.029.12-.661.04-.213 1.12-9.937.06-.511.4-4.933.48-5.842.01-.108.06-.74.02-.263.04-.68.02-.3.46-7.037.09-1.397.1-1.53.07-1.313.09-1.45.23-4.079.11-2.084.02-.274.07-1.179.18-3.327.07-1.096.01-.367.13-2.523.02-1.063-.09-.896m-51.57-58.723 4.69-.201 4.02-.152 3.53-.114 3.23-.09 3.15-.078.1-.002m-489.9 266.992-5.45.481-2.82.25-9.98.603-2.29.139-10 .437-3.42.15-9.99.355-4.43.157-10 .335-5.32.179-9.99.322-6.019.195-9.995.314-6.531.205-9.995.311-6.855.213-9.996.31-6.991.218-9.995.311-7.21.225-9.996.313-7.51.235-9.995.316-7.893.249-9.995.318-8.357.267-9.995.32-8.705.28-9.995.322-8.936.288-9.995.323-9.052.292-9.994.323-9.051.293-9.995.323-9.05.292-9.995.323-9.049.292-9.995.323-9.048.292-9.995.323-9.047.293-9.995.323-8.968.289-9.994.323-8.808.285-9.995.323-8.569.277-9.995.323-8.251.266-9.995.323-8.012.259-9.995.323-7.853.254-9.995.323-7.773.251-9.994.323-7.773.251-9.995.324-7.687.248-9.995.326-7.52.245-9.994.328-7.268.238-9.994.332-6.931.23-9.995.332-6.013.199-9.995.327-4.513.147-9.995.315-2.432.077-9.764.282-7.639.204-6.05.155-4.999.137-4.484.148-3.894.147-.375.015-.252.011-.037.001-.156.007-.075.003-.028.001-.086.004-.326.013-.056.003-.141.006-.115.004-.005.001-.065.002-.456.019-.267.012-.391.016h-.009l-.012.001-.048.002-.12.005-.038.001-.164.007h-.001l-.04.002-.096.004-.256.011-.058.003-.28.012-.603.027-.022.001-.332.014-.073.004-.602.026-.109.005-.175.008-.022.001-1.447.063-.238.01-.391.016-.627.026-1.314.053-.502.02-.271.01-.811.032-.219.008-.01.001-2.757.108-.241.009-.281.011-.108.004-.759.03-1.84.072-3.229.126-2.757.107m-.249.01-1.564.061-1.078.07-.556.106m59.272-281.626-.045.026-8.731 5.027-6.955 3.903-5.369 2.928-3.971 2.101-2.763 1.427-1.746.902-.958.506-.398.239-.011.018-.016.023-.017.027-.018.026-.016.025-.014.021-.062.097m791.9-160.469-9.86-1.703-.11-.02-9.88-1.59-6.4-1.033-9.89-1.47-.29-.043-6.07-.903-9.91-1.343-6.37-.863-9.93-1.21-6.43-.783-5.08-.549-9.94-1.072-1.45-.156-9.95-.937-6.63-.623-9.97-.804-6.73-.542-8.65-.584-8.18-.552-.98-.054-9.99-.544-5.99-.326-9.99-.419-2.09-.088-4.8-.2-9.99-.295-2.17-.064-.6-.017-.76-.023-3.04-.089-5.92-.096-1.69-.028-8.42-.137-10-.019-5.269-.01-8.271.097-5.853.07-.659.007-9.997.24-2.504.06-2.06.048-2.476.084-9.994.34-2.134.072-9.991.411-4.924.203-2.773.143-7.156.371-5.339.277-9.979.654-5.685.373-9.966.818-6.135.504-9.949 1.004-6.631.67-9.932 1.162-6.721.787-9.914 1.302-6.4.84-9.897 1.435-5.67.822-9.876 1.571-4.532.721-9.846 1.751-2.35.418"/><path stroke="#fff" stroke-linejoin="round" d="m1340.85 49.8-.05-.013-9.68-2.516-6.03-1.568-9.72-2.361-6.35-1.545-9.75-2.228-6.57-1.501-9.78-2.115-6.66-1.441-9.79-2.017-6.64-1.367-9.82-1.915-6.6-1.289-9.84-1.811-6.55-1.206-6.37-1.102-9.86-1.703-.1-.018M455.949 188.48h.225l.256-.001.138-.001.181-.001h.154l.093-.001 2.413-.01 1.304-.005 3.892-.047 2.468-.03.449-.008.942-.018.069-.003.095-.004.115-.004.127-.006.135-.005M1391.02 83.579l.2-.032.19-.031.17-.027.14-.023.1-.016.15-.044.07-.023.14-.104.03-.03.19-.226.3-.434.03-.041.45-.667.7-1.043.86-1.285.95-1.434.97-1.491.91-1.453.85-1.386.77-1.29.4-.688.27-.471v-.003l.09-.156.03-.06.3-.528.15-.262.45-.842.06-.117.09-.167.07-.13.13-.254.04-.072.2-.414.06-.135v-.003l.07-.158.02-.152.02-.115v-.003l-.05-.091-.06-.055-1.01-.348-1.34-.417-1.52-.472-5.61-1.715-9.24-2.825-9.58-2.867-2.51-.75-9.61-2.78-4.53-1.312-9.64-2.66-3.26-.9-2.49-.687m21.8 24.917 9.27 2.888 9.22 2.923 5.6 1.774 2.88.897 1.06.29M469.005 188.336l.661-.036.119-.025M811.881 19.706l-9.848 1.74-1.754.308-.325.058-.337.06-.157.027-.075.013-.056.01"/><path stroke="#fff" stroke-linejoin="round" d="m811.861 19.705-9.847 1.742-1.038.183-.943.167-.191.034-.039.007-.186.033-.565.1"/><path stroke="#fff" stroke-linejoin="round" d="m811.825 19.703-9.846 1.748-2.176.387"/><path stroke="#fff" stroke-linejoin="round" d="m811.842 19.704-9.846 1.745-1.755.311-.399.071m543.838 28.746-2.54-.7-.07-.02-.19-.048-.03-.008-.42-.108-.11-.03-.32-.081-9.68-2.5-5.06-1.307m-818.933 94.421-8.715 4.904-1.099.619-8.674 4.976-5.54 3.178-8.643 5.029-3.731 2.171-8.63 5.053-1.455.852-.043.025-.007.004-.045.026-.013.008-.35.205"/><path stroke="#fff" stroke-linejoin="round" d="m811.899 19.707-9.848 1.735-2.065.364-.129.023-.089.016-.218.038-.121.021-.055.01-.045.008-.277.049-.949.167-9.809 1.946-3.667.728-9.13 2.038-4.406.984-3.467.861-1.831.454-5.433 1.349-3.263.811-7.176 1.953-2.969.808-4.266 1.161-1.389.41-9.591 2.832-1.695.501-1.593.47-.523.155-.787.25-.009.003-9.53 3.028-4.096 1.301-.409.13-.299.095-.629.214-8.703 2.957-6.099 2.073-9.395 3.427-6.561 2.393-9.313 3.644-7.393 2.893-5.493 2.297-.607.254-1.321.553-7.392 3.091-.526.22-.05.021-2.292.959-.038.016-.849.378-.773.343-2.024.9-9.139 4.061-6.099 2.711-9.064 4.225-9.063 4.225-1.546.721-8.996 4.367-8.996 4.368-2.052.996-8.931 4.497-8.932 4.497-2.131 1.074-8.867 4.624-8.867 4.624-1.789.932-8.809 4.732-8.81 4.732-1.09.586-8.759 4.824-8.796 4.845-6.244 3.516-8.713 4.907-1.1.619m-45.653 42.705 4.649.049.143.001.083.001.028.001h.083l.102.001h.077m.106 0h-.115"/><path stroke="#fff" stroke-linejoin="round" d="m445.342 188.387 1.709.058 4.567.044 4.937-.009m-5.126-.006 4.418.005"/><path stroke="#fff" stroke-linejoin="round" d="M456.261 188.48h.143l.499-.003m-.348.003.441-.004"/><path stroke="#fff" stroke-linejoin="round" d="m456.729 188.477-.436.003h-.161.099l.26-.002.238-.001Zm0 0h.047m-5.687-.031 4.463.031.184.001m-4.486-.019 4.514.02m-98.044 7.658-6.155.547-.239.021-.673.06-.524.047-.059.005-.423.038-.603.053-.623.056-2.009.178-2.519.224-4.03.358-9.954.954-8.05.771-9.941 1.085-8.217.897-9.925 1.225-8.05.994-9.904 1.381-7.556 1.053-7.494 1.185-9.124 1.442-9.84 1.782-5.843 1.058-9.795 2.014-4.754.977-9.744 2.248-4.177.963-9.69 2.469-3.869.986-9.639 2.663-3.823 1.056-9.584 2.852-3.535 1.051-9.525 3.045-3.009.962-9.455 3.255-2.255.777-6.446 2.407m224.194-43.636-.019.002-.98.107-2.039.223-2.755.3"/><path stroke="#fff" stroke-linejoin="round" d="m360.036 195.755-.031.003-2.661.277-1.071.112-1.207.125-3.199.333m6.466-.583-5.1.475-.344.032-.299.028-.173.016-.732.068-1.54.143-.03.003-1.751.163-4.471.416"/><path stroke="#fff" stroke-linejoin="round" d="m359.073 195.895-3.94.388-.06.006-.498.049-1.196.118-1.512.149-1.757.173-1.746.172m76.731-11.131-.591.23-.013.006-.024.009-.023.009-.007.003-.051.02-.085.033-.059.023-.106.041-.746.292-1.979.712-1.993.646-.047.016-.197.063"/><path stroke="#fff" stroke-linejoin="round" d="m428.75 184.274-.078.003-.183.024-.138.043-.166.071-.29.135-.508.237-.818.374-1.252.554-.639.262m-7.228 2.391-.243.064-2.594.584-2.633.513-1.716.293-.674.115-.176.03"/><path stroke="#fff" stroke-linejoin="round" d="m410.264 189.822-.676.115-.155.026-.737.11-1.667.248-1.103.139-.006.001-2.225.28-.996.116-.527.061-.607.07-.059.007-1.546.18-1.63.189-.629.071-.949.108-.218.025-.028.003-1.692.192-.967.109-1.375.157-.519.059-1.42.161-.695.079-.452.051-1.892.214-5.471.621-1.557.176-3.225.366-1.842.21-1.26.144-1.087.125-.851.097-.335.038-.444.051-.204.023-.503.058-1.042.119-2.204.252-6.286.719-.344.039-1.025.116-1.993.225m67.32-10.175-.517.204-.043.017-.074.029-.047.019-.086.034-.039.015-.199.078"/><path stroke="#fff" stroke-linejoin="round" d="m425.191 185.774-.458.182-.053.021-.111.045-.046.018-.11.044-.078.031m.948-.384-.605.246-.047.019"/><path stroke="#fff" stroke-linejoin="round" d="m425.239 185.751-.386.156-.201.08-.021.009-.218.088m-245.015 88.273.636.413.487.316.212.139.219.144.746.49.164.109.75.493.17.112.076.05.085.056.153.1.033.022.39.262.043.029 1.186.795.536.36.185.129.094.066.049.034.161.113.407.283.531.372.236.173.344.252.261.192.431.323.268.183.204.07.073.011.096-.01.14-.014.174-.017.108-.011.087-.008.206-.02m22.732-6.195.172-.022.417-.055.753-.099 1.782-.234.686-.091 1.501-.197 2.67-.351.613-.049.347-.028.244-.02.139-.011.478-.039.284-.023h.003l.225-.018.527-.042.346-.028 1.84-.149 1.987-.16.658-.053 1.149-.092.264-.009.163-.005 3.961-.128.657-.021 1.039-.034 1.364-.044 1.082-.035.836-.027 1.863.035 1.333.025 2.52.047.181.004 1.295.024 2.228.042.141.002 6.445.502 2.56.199.417.032.823.119.343.049 8.186 1.177 6.351 1.368 2.991.645M469.003 188.6l-.053.052-.075.058-.075.056-.087.074-.127.108-.492.432-.333.296-.095.085-.192.17-.097.086-.122.109-.069.062-.637.568-.034.031-.053.047-.288.257-.453.405-.272.247-.191.172-.306.277-1.028.929-.873.805-1.034.953-.206.197-1.587 1.51-.782.79-.674.68-1.254 1.358-.148.17-.332.383-.708.816-.277.331-.982 1.172-.06.072-1.406 1.691-1.519 1.832-1.415 1.711-1.154 1.396-.732.887-.479.821-.393 1.196c-1.922 9.492-2.823 15.285-3.909 27.108"/><path stroke="#fff" stroke-linejoin="round" d="m275.901 276.369.034.01 2.442.711 6.943 2.022 2.644.977.457.169 3.439 1.271 3.011 1.112 3.648 1.624.514.229.269.119.167.075.033.014.024.011.081.036.038.017.257.114.377.168.192.086.14.062.027.012.102.046.215.095.064.029.011.005.159.07.15.067.18.08.202.09.005.002.383.171.213.095 2.053.914.639.334.122.063.154.081.505.264.202.106 7.658 4.004 8.548 5.189.331.201 1.014.714 1.763 1.242.034.024.177.125 2.59 1.824 2.255 1.589.222.156.069.049.048.034.129.09.246.199 1.18.956 6.305 5.105 7.171 6.627.867.91 5.752 6.041 6.078 7.231.519.696.275.369.033.045.019.025.616.827.264.354 1.706 2.287 1.436 1.927.649.869 2.691 4.063.213.322 2.035 3.072 4.343 7.403 1.859 3.606.095.186.084.163.104.201 1.588 3.082 3.244 7.219.354.901.086.218.237.606 2.208 5.621 1.85 5.309.227.651.081.234.085.243.189.542.009.025.015.043.041.12.01.027.147.422 1.978 6.231.572 1.801 2.374 8.291.45 1.777.127.501.072.286.196.774.047.187 1.233 4.869.717 3.313 1.089 5.031 1.415 8.136.459 3.21.463 3.238.015.105.015.102.023.164.1.696.023.191.111.921.016.13.349 2.88.067.556.037.305.181 1.495.065.601.032.294.448 4.135.355 3.17.234 1.75.18.766.194.228.277.13.573.049 1.086-.02 1.807-.07.56-.022 2.175-.086 3.199-.125 3.195-.126.7-.027 2.028-.08.866-.034.169-.007.76-.029.096-.004.221-.009.997-.04 1.039-.045.248-.011.128-.006 1.426-.064.158-.007.491-.022.176-.008.257-.012.745-.034.32-.015.601-.027.591-.026.14-.006.217-.009.058-.002.173-.008.118-.005.106-.005.218-.009.038-.002.179-.007.061-.003h.006l.116-.005.381-.016.348-.015.105-.005.171-.007.123-.006.084-.003.056-.003.041-.001.024-.001.106-.004.189-.008.123-.005.244-.009.036-.002.226-.008 3.081-.12 4.546-.152 4.974-.133 4.964-.114 4.516-.091 3.627-.068 2.299-.042 1.277-.047.043-.003.569-.082.062-.045.093-.067.118-.085.133-.097.141-.102m10.675-257.068-.074.005.006-.041.073-.007.054-.004.06-.002.09-.004.113-.005.128-.005.136-.006m-280.324 91.842.488-.1 1.09-.351 1.997-.685 1.878-.645 1.334-.458 3.303-1.007.557-.17.203-.062.355-.108.104-.026 1.089-.276 1.761-.446.674-.17 1.685-.427.184-.047.118-.029 4.102-.799 1.898-.369.501-.097m245.742 171.567.167-.146.074-.242-.081-.823-.299-1.891-.58-3.444-.924-5.488-1.159-7.046-.601-3.806-.682-4.309-.312-2.088-.024-.165-.023-.151-.05-.336-.1-.669-.028-.191-.008-.053-.066-.444-.06-.4-.068-.459-.08-.534-.04-.269-.037-.245-.103-.689-.059-.395-.008-.054-.007-.046-.001-.012-.026-.171-.004-.029-.016-.108-.052-.349-.006-.038-.035-.237-.027-.175-.057-.387-.002-.013-.057-.415-.012-.092-.002-.009-.023-.167-.045-.335-.039-.283-.009-.068-.041-.299-.027-.195-.081-.593-.017-.122-.06-.443-.025-.18-.07-.512-.465-3.399-.033-.239-.109-.798-.029-.215-.055-.404-.556-4.44-.019-.154-.125-.997-.02-.16-.387-3.094-.185-1.625-.02-.179-.098-.857-.021-.182-.555-4.869-.005-.046-.123-1.081-.003-.021-.003-.027-.922-8.907-.834-8.905-.753-8.91-.68-8.924-.288-4.177-.001-.015-.073-1.054-.001-.022-.254-3.678-.094-1.509-.003-.05-.073-1.167-.002-.044-.33-5.287-.002-.021-.056-.898-.014-.252-.001-.016-.323-5.781-.002-.035-.074-1.318-.002-.038-.087-1.546-.062-1.257-.029-.566-.096-1.95-.053-1.054v-.007l-.005-.093-.027-.537-.037-.755-.032-.637-.002-.038-.001-.031-.059-1.189-.001-.018-.007-.133-.035-.711-.023-.533-.018-.41-.012-.292-.017-.384-.001-.009v-.018l-.004-.089-.021-.489-.022-.507-.01-.218v-.015l-.006-.123-.004-.093-.088-2.033-.019-.447v-.01l-.019-.423-.085-1.972-.001-.014-.004-.109-.033-.756-.329-8.893-.269-8.309-.196-6.701-.014-.496-.151-5.551-.062-2.267-.03-1.111-.042-1.909-.001-1.147.03-1.09.053-1.738.063-2.059.064-2.055.022-.701.031-1.023.03-1.069.012-.631-.002-.412-.013-.41-.019-.625-.023-.736-.021-.742-.018-.643-.01-.441.016-.592.06-1.099.12-1.962.197-3.179.306-4.102.443-4.733.119-.989"/><path stroke="#fff" stroke-linejoin="round" d="m459.442 198.012.882-.891.571-.577 1.664-1.584.127-.12 1.007-.929.896-.827 1.076-.972.393-.357.154-.138.171-.156.407-.363.184-.165.094-.084.034-.03.743-.664.038-.034.005-.004.242-.216.204-.181.07-.062.348-.309.491-.431.184-.157.029-.025.076-.056.074-.057.052-.052.005-.045-.065-.032-.158-.016-.29-.003-.459.009-.668.017-.289.008-.626.017-1.317.031-1.877.04-2.591.047-.922.015-2.542.042-3.974.018-4.126-.07-3.917-.204-.5-.058c-6.093-1.011-9.543-1.724-15.842-3.387-.673-.413-.703-.627-.5-1M56.399 274.167l1.068-.651 2.289-1.232.884-.466 1.48-.74 4.843-2.467 2.692-1.39 3.015-1.549 2.658-1.407 3.515-1.823 3.768-1.937 3.22-1.648 5.58-2.882 1.168-.619 6.028-2.852 6.725-2.861 7.243-2.787 7.964-2.762 8.89-2.787 7.236-2.031c.241-.066.286-.133.335-.276m-98.366 48.052-.942.618-1.096.701-.69.441-.368.251-.135.129-.02.045.004.022.009.047.039.053m139.513-17.835.579.353.186.113.031.019.118.076.149.095.121.077.255.163.299.191.611.389.002.002.378.241.1.064.038.024.023.015.029.018.069.044.084.055.352.228.372.241.039.025.078.052.522.338.015.01m-36.013-9.646-3.214-.15-2.606-.068m760.323-42.318-.409 4.268-.3 3.31-.183 2.02-.122 1.573-.12 1.972-.005.081-.172 3.136-.291 5.306-.372 6.897-.42 7.988-.436 8.579-.417 8.671-.196 4.382-.191 4.273-.343 8.529-.289 8.297-.22 7.957-.166 7.487-.126 6.886-.098 6.156-.084 5.297-.074 4.597-.066 4.057-.06 3.678-.058 3.455-.052 3.506-.041 3.827-.026 4.423-.007 5.291.005 5.54.013 5.166.003.735.001.376.001.325.01 2.731.008 2.541.003 1.66-.005 1.524"/><path stroke="#fff" stroke-linejoin="round" d="m449.674 379.685.06.644.284 2.958.005.05.101 1.055.007.074.131 1.365.345 3.485.018.178.086.862.005.053.012.122.383 3.708.11 1.016.017.157.108.999.017.151.101.934.355 2.992.121.907.028.218.106.795.032.242.115.872.345 2.363.104.709.007.05.038.261.038.246.031.193.093.599.017.112.02.124.011.076.041.263.079.503.018.115.042.271.01.062.062.397.067.429.017.109.002.013.041.263.019.123.007.048.014.091.031.188.002.013.033.203.028.177.007.043.059.365.046.284.039.24.044.274.085.528.086.532.054.332.032.196.033.205.038.24.037.224.078.482.009.056.055.333.01.06.026.163.698 4.238.404 2.433.428 2.577.83 5.005.78 4.707.683 4.15.525 3.23.322 2.054.188 1.145.118.504.11.152.009.008.155.084.029.015.361.041.652-.005 1.05-.037 1.553-.055 2.052-.072 2.548-.089 3.037-.105 3.523-.123 4.256-.147 5.236-.182 6.465-.225 7.94-.275 9.716-.333 9.995-.339 1.799-.061 9.994-.333 4.177-.139 9.995-.327 6.855-.225 9.995-.324 8.649-.281 9.995-.323 9.558-.309 9.995-.322 9.582-.308 9.995-.322 8.72-.281 9.994-.322 8.156-.263 9.995-.322 7.889-.254 9.995-.322 7.921-.255 9.995-.322 8.251-.266 9.995-.323 8.333-.268 9.995-.322 8.169-.263 9.994-.323 7.756-.25 9.995-.322 7.097-.228 9.994-.323 6.722-.217 9.995-.323 6.631-.214 9.994-.324 6.825-.222 9.995-.326 7.304-.238 9.995-.326 6.549-.214 9.995-.327 4.562-.149 9.995-.328 1.34-.044 6.881-.226 3.525-.131 1.271-.092.121-.102.073-.165.04-.538.001-.047.022-1.224.011-1.6.005-.612.025-3.511.011-1.538.021-2.95.037-5.145.008-1.018.006-.879.021-2.871.005-.712.007-1.032.032-4.458.037-5.161.032-4.494.024-3.484.014-2.132.005-1.523-.002-1.66-.003-.748-.006-1.793-.009-2.626-.001-.325-.002-.376-.002-.839-.014-5.164-.006-5.538.007-5.29.026-4.421.041-3.826.052-3.504.058-3.454.061-3.676.065-4.055.074-4.596.084-5.294.099-6.153.125-6.884.166-7.483.221-7.953.288-8.293.344-8.525.239-5.347.147-3.304.418-8.666.435-8.575.237-4.51.183-3.475.372-6.893.291-5.304.176-3.205"/><path stroke="#fff" stroke-linejoin="round" d="M896.973 235.283v-.002l.068-1.121.052-.848.122-1.573.182-2.019.301-3.31.408-4.266.504-4.889.589-5.178.664-5.137.7-4.96.053-.35.648-4.3.665-4.208.592-3.637.525-3.126.462-2.675.403-2.286.35-1.955.296-1.631.239-1.31.183-.994.125-.682.066-.432.001-.036.007-.21M1287.8 131.52l.01-.001.1-.027.16-.04.2-.04.2-.037m-809.999 56.673.485-.004.478-.005.657-.006.412-.007.232-.014.15-.014.147-.03.047-.012.111-.032.143-.103m930.327-96.588-.18.227-.11.128-.21.212-.49.473-.35.333-.88.832-1.89 1.802-2.5 2.3-2.24 1.943-.83.719-.38.312-.57.455-2.23 1.801-.22.173-.17.144-.39.284-2.44 1.798-.01.007-1.2.882-1.21.796-.09.058-.01.005-.14.099-.01.005-.13.085-.4.264-.3.197-.26.17-.04.029-1.95 1.29-1.93 1.124-.28.163-2.06 1.209-.81.473-5.66 2.883-6.27 2.738-4.08 1.542-2.02.76-.81.307-7.6 2.494-8.32 2.395-9.08 2.31-9.27 2.169-8.89 1.969-.39.083-7.56 1.628-6.44 1.397-5.05 1.103-3.78.834-2.23.492-.43.094-1.65.363-2.22.414M731.676 52.086l-1.547.497-3.578 1.15-6.004 1.93-.423.135-1.984.672-5.943 2.01-8.179 2.768-9.412 3.377-7.046 2.527-9.34 3.57-.648.249-6.792 2.597-3.815 1.56-9.255 3.789-4.002 1.638-9.155 4.022-8.178 3.593-9.059 4.235-8.39 3.92-8.964 4.432-8.453 4.178-8.87 4.617-8.369 4.356-8.774 4.798-6.763 3.698-1.375.752-8.67 4.981-7.717 4.433-8.557 5.175-7.111 4.301-8.426 5.385-6.325 4.041-8.269 5.623-5.365 3.648-8.143 5.804-3.916 2.792-5.574 4.115"/><path stroke="#fff" stroke-linejoin="round" d="m1411.68 91.477.22-.277.01-.181-.15-.16-.52-.228-1.11-.387-1.92-.635-2.94-.975-4.36-1.442-6.01-1.98-.19-.06"/><path stroke="#fff" stroke-linejoin="round" d="m1394.9 85.213-.32-.105-2.28-.752-.04-.013-6.1-2.01-9.5-3.12-1.54-.504-9.52-3.063-2.61-.839-1.01-.324-9.55-2.975-5.16-1.611-9.59-2.855-6.19-1.846-9.63-2.697-6.69-1.874-9.67-2.553-7.02-1.852-9.7-2.418-7.16-1.783-9.73-2.286-6.45-1.515-.67-.157-9.77-2.156-6.89-1.523-9.79-2.044-6.47-1.352-9.81-1.948-5.86-1.162-9.82-1.866-5.03-.956c-22.17-4.288-34.49-6.195-56.33-9.054"/><path stroke="#fff" stroke-linejoin="round" d="m1146.64 26.216-9.93-1.197-5.25-.632-9.94-1.052-6.08-.642-9.96-.918-6.6-.61-9.97-.79-6.85-.542-9.97-.658-6.78-.448-9.2-.485-7.34-.387-9.99-.39-1.23-.048-2.1-.082-2.14-.083-.68-.027-9.99-.243-5.58-.137-3.75-.03-2.39-.02-.64-.005h-.02l-.71-.006-7.34-.06c-130.611.45-186.925 10.031-271.71 35.776M494.834 169.36l-5.549 4.094-4.467 3.296-7.514 5.675-1.002.756-3.548 2.68-2.301 1.748-.767.614.029.036.07.016.019.004.148.003.171.003.427-.013.759-.027.599-.019.582-.018 1.396-.043.731-.021.513-.014 1.176-.03 1.357-.033.626-.012.667-.011"/><path stroke="#fff" stroke-linejoin="round" d="m1089.92 25.99 7.94.654.2.017 9.96.953 6.52.625 9.94 1.096 6.01.662 9.92 1.256 5.17.655 9.89 1.451 4.03.591 9.86 1.645 3.45.576 9.83 1.815 2.95.545M1372.5 106.5c.24.158.34.118.5 0 6.33-4.227 9.92-6.532 15.38-12.155l-.14-.234-.4-.185v-.001l-.1-.045-.44-.202-2.28-.88-4.19-1.568-6.65-2.507-8.22-3.078-8.87-3.282-8.61-3.122-7.46-2.594-6.6-2.197-6.07-1.93-5.84-1.792-5.93-1.783-6.23-1.82L1295 63l-37-9.5c-1.02-.214-1.41.03-1.5 1.5l-12.5 81 43.5-5"/><path stroke="#fff" stroke-linejoin="round" d="m1264.2 133.735 1.05-.116 1.99-.221 5.14-.62 4.35-.525 5.21-.705 4.42-.597 8.95-1.423 8.36-1.517 7.85-1.584 7.43-1.626.39-.091 6.69-1.55 6.82-1.704 6.67-1.816 6.59-1.976 6.62-2.184 1.08-.398 1.93-.713 1.84-.68.04-.015 1.56-.574 5.23-2.209.85-.355.78-.388.33-.166.09-.044.22-.108.01-.006 1.41-.699.43-.213.06-.032 2.08-1.033 2.33-1.347"/><path stroke="#fff" stroke-linejoin="round" d="m1260.29 134.123.56-.062 2.97-.33.74-.082 2.72-.302 9.49-1.145 5.55-.751 4.18-.451m-29.4-77.158-.04-.006-.04.013-.06.017-.07.019-.07.019-.03.009M260.772 207.269l1.469-.358 2.495-.571 9.748-2.231 1.26-.275 1.287-.278 9.775-2.112 1.24-.267 2.51-.515 9.796-2.009 2.413-.471 9.815-1.917 1.306-.249 2.225-.415 9.831-1.832 1.364-.246 9.842-1.772 9.676-1.699 7.464-1.287 4.568-.787 2.383-.4 1.277-.209.905-.125 1.334-.17 1.409-.126 1.498-.074 1.602-.016 1.769.033 1.995.071 2.283.099 2.626.116 2.978.13 3.342.14 3.712.147.593.022 7.938.884.5.5m84-1-.272.151-2.645.091-1.579.046-1.482.042-1.34.036-.882.024-.27.007-.92.024-.488.013-.154.004-.423.017-.262.022-.135.016-.145.033-.064.018-.119.041-.221.157-.036.026-.498.435-.497.45-.063.057-.202.183-.116.105-.134.122-.026.024-.765.693-.033.03-.105.095-.153.138-.181.164-.345.314-.142.128-.419.381-.749.68-1.257 1.139-.38.345-.753.68-.648.586-.875.8-.529.508-.24.259-.125.134-.381.453-.579.69-.679.81-.237.282-.323.385-.124.148-.591.705-.253.302-.148.177-.219.296-.047.154.067.051m449.208-37.563-.224.016-5.888.432-6.439.471-.421.031-2.773.203-1.687.124"/><path stroke="#fff" stroke-linejoin="round" d="m908.064 173.829.058-.13.119-.439.106-.458.06-.261.003-.013.002-.007.004-.018.239-1.032.287-1.243.285-1.235.243-1.049.158-.684.1-.439.068-.314.062-.31.082-.426.092-.479.09-.472.063-.332.013-.071.031-.157.022-.116.016-.168-.03-.088-.082-.037-.141-.017-1.131.069-2.861.205-.194.014M481 188l1.468-.121.311-.028 1.109-.101 1.382-.134.712-.071.007-.001.637-.063.918-.091.089-.01.331-.032 1.43-.144 1.633-.165.602-.061 1.345-.138 2.374-.247.259-.027 1.646-.173.801-.084 2.245-.236L505 185.5c.647-.246.808-.364.5-.5"/><path stroke="#fff" stroke-linejoin="round" d="m456 201.5 102.872-5.229.376-.021 1.33-.065 3.204-.15 1.177-.054.074-.004 2.706-.125 2.042-.094 2.204-.101 7.51-.344 2.691-.127.178-.008 9.989-.47.966-.047.085-.004 1.092-.054 9.988-.489 3.297-.161 7.44-.383 9.987-.514 8.867-.485 9.985-.545 9.722-.559 9.983-.574 10.003-.603 9.982-.601 9.711-.614 9.98-.631 8.844-.589 9.978-.666 8.161-.567 9.976-.693 7.663-.548 9.975-.714 7.349-.534 9.974-.725 7.221-.526 9.973-.727 7.054-.515 9.974-.727 6.849-.501 9.974-.728 6.607-.483 9.974-.729 6.328-.462 9.974-.73 2.059-.15 3.163-.231 9.895-.724 3.051-.223 9.974-.729 2.059-.151 1.998-.146.902-.066.081-.006 4.988-.365 6.125-.447 1.32-.097.043-.004 1.812-.133h1.86c.104-.221.14-.221.163 0"/><path stroke="#fff" stroke-linejoin="round" d="m910.057 163.951-.019.156-.03.171-.017.097-.023.131-.048.277-.085.483-.088.493-.08.437-.06.318-.067.319-.1.44-.158.685-.244 1.05-.286 1.236-.288 1.244-.243 1.049-.001.007-.004.015-.06.26-.106.459-.113.44m-331.44 14.816 2.228-.459 1.083-.226 1.227-.255 2.204-.463 1.883-.395 1.345-.282.913-.206.59-.173.394-.181h.002l.001-.001.113-.072.243-.178.001-.001.07-.051.071-.082.189-.219.221-.391.01-.025.187-.475.039-.13.09-.302.02-.064.039-.132.065-.256.115-.447.17-.725.045-.19.001-.006.018-.073.081-.349.018-.074.03-.118.004-.017.019-.075.1-.398.136-.52.112-.434.077-.346.036-.258c.041-.45-.214-1.835-.361-2.075"/><path stroke="#fff" stroke-linejoin="round" d="m518.316 184.076-.195.044-.009.005-.138.072-.056.127.004.03.005.039.017.134.066.206.033.104.03.082.002.005.13.356.219.424.027.052.009.018.03.059.472.636.718.693.783.554.075.053.041.029.128.091.063.035.259.147.094.053.258.146.579.327 1.398.639 1.462.52 1.445.35 1.985.187 3.083.033.232-.001.931-.022.253-.006.066-.002h.033l3.465-.084 5.353-.195.071-.003 1.537-.056 1.879-.077.641-.027.901-.037 1.026-.042.575-.024.067-.003 1.582-.065.068-.003.324-.013.018-.001.137-.006.027-.001.033-.001.097-.004.039-.002.125-.005.461-.019 2.931-.128 3.115-.136.018-.001.15-.007 1.647-.071 1.788-.08.068-.003.212-.01.316-.014.827-.037.327-.015.15-.006.131-.006.019-.001h.009l.029-.002.037-.001.488-.022 2.143-.096 4.047-.178 2.151-.09.718-.025.139-.005L577 188.5c.718-.112 1.125-.179 2-.5"/><path stroke="#fff" stroke-linejoin="round" d="M572.595 188.698h.074l.094.004.03.006m-55.054-28.115-6.086 4.186-8.104 5.859-2.687 1.943-7.983 6.021-.938.708-3.214 2.522-3.373 2.647-3.36 2.77-.101.083-.322.266-.238.223h-.063m98.951-65.439-.057-.012-.048.006-1.033.442-.303.165-1.705.924-.853.463-5.566 3.191-8.626 5.059-.521.306-8.572 5.15-3.031 1.821-6.677 4.137"/><path stroke="#fff" stroke-linejoin="round" d="m580.116 122.376-.052.037-.055.086"/><path stroke="#fff" d="m581 122-7 25.5m-8.5 41.5-1.5 7"/><path stroke="#fff" stroke-linejoin="round" d="M766 47.5c-24.006 6.61-38.464 11.02-68.103 21.599l-9.372 3.487-1.902.707-.438.163-6.723 2.502-9.297 3.682-8.996 3.564-9.207 3.904-8.515 3.61-9.09 4.169-7.629 3.498-8.995 4.371-6.019 2.924-8.916 4.527-3.685 1.871L580 122.5"/><path stroke="#fff" stroke-linejoin="round" d="M936.5 23.5c-24 1.323-38.541 2.502-66.618 5.467l-9.934 1.141-5.268.606-9.918 1.275-5.301.682-9.893 1.462-4.698.694-9.856 1.692-4.431.76-9.808 1.95-4.502.894-9.751 2.217-4.919 1.118-1.208.308-6.161 1.574-7.977 2.038C726.492 58.807 704.43 66.218 665.5 81.5m271.033-57.946-.071.248-.006.016-.231.698-.507 1.535-.547 1.624-.005.015-.627 1.86-.247.733-.051.154-.327.969-.109.325-.101.299-1.349 4.006-.55 1.634-1.515 4.499-.076.225-.005.014-.053.158-.005.015-1.324 3.928-.156.464-.033.098-2.294 6.803-1.375 4.08-.742 2.199-3.198 9.475-.484 1.433-.026.077-2.309 6.83-1.155 3.419-1.363 4.027-1.232 3.64-1.246 3.686-.168.497L888.999 165c-.108.294-.109.401 0 .5m403.941-27.458-.73.087-.15.019-.37.041-.13.016-2.09.236-1.74.197-3.3.372-8.26.933-2.36.264-8.28.925-6.04.665-6.13.674-9.95 1.067-2.92.314-9.43.975-3.28.34-9.95.998-1.72.172-.43.043-.19.019-.38.038-9.95.975-2.78.272-9.95.96-2.95.285-9.96.954-3.24.311-9.96.943-3.66.346-.31.029-9.96.926-3.9.363-4.03.367-9.96.906-.85.077-9.96.884-5.67.503-9.96.87-6.41.561-9.97.864-7.1.616-9.96.864-7.75.673-9.96.871-8.33.729-9.96.874-8.87.779-9.96.876-9.34.821-9.96.873-9.753.856-9.962.869-10.109.883-9.962.866-9.1.792-9.963.865-6.722.584-7.633.661-4.266.37-1.037.09-7.814.677-.253.022-3.714.32-1.395.117.005-.019.093-.392.147-.629.019-.081.045-.192.002-.007.21-.893.294-1.243.281-1.159.227-.951.135-.616.083-.404.069-.313.08-.34.119-.483.139-.553.139-.549.12-.47.018-.068.061-.23.005-.019-.098-.67m379.16-30.267-.24-.339-.21-.202-.27-.171-.38-.214-.45-.23-.43-.222-.33-.16-.05-.028-.27-.127-.13-.057-.06-.019-.11-.029-.04-.007-.15-.01-.16.003-.88-.003h-.94l-1.32.01"/><path stroke="#fff" stroke-linejoin="round" d="m1290.66 133.989-.18-.31-.03-.054-.29-.392-.03-.033"/><path stroke="#fff" stroke-linejoin="round" d="m1290.13 133.2.29.486v.008l.45.733.53.901.57.967m-51.33-.258-.02.002-.1.009-.02.001"/><path stroke="#fff" stroke-linejoin="round" d="M1292.94 138.212v-.17l-.16-.333-.32-.56-.49-.872-.53-.961-.49-.859-.29-.468-.06-.09m-50.1 2.15.1-.714.06-.433.27-2.003.06-.383v-.015l.01-.078.01-.051v-.069l.46-3.324.3-2.2.04-.272.55-3.973.05-.344.04-.329.05-.32.04-.314 1.04-7.314.03-.243 1.08-7.275 1.09-6.903.72-4.449.01-.032.07-.45.25-1.515.03-.196 1.08-6.49.06-.384.01-.034v-.044l.21-1.244.55-3.392.23-1.349.17-1.07.04-.252.02-.136.02-.158.77-4.832.01-.064.59-3.797.36-2.366.23-1.478.35-2.333.09-.568.13-.82.03-.203.02-.176.17-1.106.08-.573.01-.03.35-2.347.4-2.654.18-1.284.02-.174v-.04l.03-.447.01-.106v-.045l-.08-.2"/><path stroke="#fff" stroke-linejoin="round" d="M1253 53c.11-.113.1-.233 0-.5l-9.16-1.987-8.46-1.811-9.78-2.073-.36-.076-.72-.152-9.79-2.04-2.58-.539-9.8-1.993-3.21-.653-9.81-1.923-2.96-.579-.32-.059-.46-.084-9.83-1.802-2.25-.413-9.87-1.64-3.43-.572-9.9-1.453-4.18-.614-9.92-1.255-5.27-.667-9.95-1.099-6.06-.672-9.95-.973-6.04-.591-.52-.051-8.5-.74-8.22-.715-9.97-.774-6.65-.516C1030.8 21.766 1001.77 19.568 944 23l-6.5.5h-1l-10.5 31-36.5 109M171.917 270.042l-.114-.038-.192-.059-.267-.082-.314-.096-.045-.014-.778-.239-.09-.027-.074-.021-.65-.189-.939-.273-.647-.187-.098-.029-.861-.23-.158-.042-.388-.103-.109-.029-.348-.093-1.154-.308-1.493-.356-1.946-.464-.081-.019-1.946-.396-1.213-.247-.508-.104-1.663-.259-1.74-.271-.302-.047-.068-.008-.064-.008-.53-.064-1.293-.158-1.568-.192-3.125-.305-.306-.025-2.2-.177-1.672-.12-1.004-.049-.499.013-.181.059-.731.358-.665.376-1.25.708-1.166.673-.661.382-.027.015-1.405.811-.469.271-.055.032-.499.288-.064.037-.035.02-2.018 1.165-.17.098-.051.029-3.277 1.892-1.935 1.108-1.426.816-1.128.646-.096.055-3.26 1.865-.23.13-.185.104-.239.135-2.443 1.378-.209.118-.652.367-.064.036-.222.126-.576.324-1.923 1.085-.415.234-.063.036-.638.359-.039.023-.227.127-.629.355-2.624 1.446-1.216.67-1.564.862-1.792.988-.765.421-.505.278-.434.24-1.149.609-.194.103-2.88 1.527-4.062 2.155-.214.107-.506.252-.613.305-.211.104-.13.065-.524.261-.007.004-.18.089-.47.234-4.315 2.148-.485.242-.253.113-.452.204-1.298.584-.204.091-4.801 2.16-4.197 1.602-1.888.72-.26.099-5.66 1.617-5.095.997-4.643.563-4.102.298-.207.015-4.088.247-3.89.189-3.71.142-3.547.103-2.517.055-.745.016-.144.004-.21.002-2.951.039-2.82.008-2.382-.028-1.853-.066-.004-.001-.04-.002-.765-.051-.541-.035-.098-.006"/><path stroke="#fff" stroke-linejoin="round" d="m161.171 267.144 2.018.483 1.423.341 1.205.323.37.1.499.133.155.042.792.213.166.048.646.189.937.274.649.189.012.004.924.291.357.113.266.083.055.018 1.181.478.362.196.782.426.146.092.11.07.596.375.57.358.072.046.117.075.12.077.206.132.086.055.211.136.336.215.488.313.127.082.354.226.002.002.107.069.078.049.005.004.046.029.456.296.142.092.471.305.023.015m0 0 1.016.659.436.282.275.181.207.135.749.49.165.108.752.493.17.111.035.023.004.002.217.143.012.007.428.285.044.029 1.116.742.614.409.147.101.096.066.049.034.164.113.989.681.199.145.35.254.301.219.419.334.175.159.12.092.087.044.078.009.096-.009.142-.014.176-.016.199-.018.21-.02"/><path stroke="#fff" stroke-linejoin="round" d="m101.657 483.183.076-.114-.001-.263-.08-.509-.162-.853-.086-.452-.111-.586-.049-.26-.307-1.649-.345-1.908-.013-.074v-.002l-.159-.918-.075-.434-.112-.646-.351-2.147-.326-2.085-.287-1.889-.233-1.558-.163-1.094-.128-1.341-.126-2.306-.16-3.984-.224-6.381-.227-8.047-.065-3.493-.102-5.49-.01-1.965v-.242l-.004-.765v-.006l-.028-6.21.036-2.107.07-4.144.008-.416.018-1.066v-.002l.013-.723.003-.202.14-3.136.002-.021.102-2.253v-.025l.126-2.786.113-1.419.002-.024.168-2.125.003-.03.337-4.248.002-.024.239-1.991.026-.221.389-3.24.002-.016.163-1.356.093-.779.162-.971 1.071-6.453 1.546-7.232 1.852-7.026 2.149-6.807 2.44-6.577 2.675-6.308 2.857-6.003 2.985-5.665 3.056-5.287 3.118-4.901 3.17-4.508 3.211-4.106 3.242-3.696 3.363-3.409 3.577-3.249 3.882-3.212 4.277-3.301 4.682-3.366 5.093-3.407 5.51-3.425 5.934-3.417 5.846-3.201 5.244-2.774 2.145-1.112 1.822-.944.012-.006.147-.077 2.493-1.292 1.253-.672.008-.005.034-.024.366-.251-.03-.078M22.524 439.621l-.665.404-1.166.755-.928.642-1.01.735-1.056.771-1.051.791-.915.703-.645.509-.856.715-.427.359-.257.253-.687.683-.514.644-.134.191-.333.599-.062.174-.187.55-.077.496-.003.438.008.2.037.375.06.319.073.273.076.271.077.229.065.193.134.395.19.562.088.197.342.726.142.239.583.886.228.322.348.439.442.57.513.713.214.335"/><path stroke="#fff" stroke-linejoin="round" d="m15.136 425.054 1.92 3.708.035.068 1.922 3.757 1.809 3.579 1.473 2.971.229.484.925 1.961.847 2.002.554 1.633.004.011.284 1.373M9.672 311.336l-.017.014-3.288 2.945-2.513 2.438-1.491 1.682-.126.229-.755 1.478-.16 1.573-.005.373.184 2.181.276 3.281.397 4.355.542 5.404.279 2.483.063.556.005.043.013.114.036.319.023.212.377 3.351.779 5.346.11.754"/><path stroke="#fff" stroke-linejoin="round" d="m8.23 374.945.172 1.122.039.251.108.708.006.052.066.576.032.283.178 1.551.027.315.05.611-.118 3.331-.917 4.738-1.1 4.469-1.094 4.086-.9 3.279-.637 2.537-.175 1.23v.462l.136.845.178.427.418.91.649 1.382.772 1.608.79 1.589.705 1.324.363.637.509.846.365.579.385.544.42.565.475.644.54.781.695 1.096.933 1.59 1.26 2.265 1.674 3.121 1.857 3.531m7.929 18.445-.254.588-.582.498"/><path stroke="#fff" stroke-linejoin="round" d="m24.85 445.217.205 1.091-.036.967-.003.072m-10.019 9.611.174.319.45.822.634 1.259.626 1.265.6 1.191.557 1.034.565.934.623.892.732.908.891.982.946.973.898.882.818.788.488.476.292.275.302.243.215.175.303.231.396.278.025.017.471.3.52.296.085.048.12.068.751.388.937.437 1.163.499 1.43.571 1.697.633.133.047 1.97.685 2.247.723 2.526.751 2.798.766 3.062.765 3.318.752 3.566.723 3.812.691 4.058.654 4.302.615 4.547.57 4.443.507 3.988.423.232.023 2.95.296m-53.23-187.435-2.88 2.382-2.551 2.113-1.775 1.475-1.15.966-.67.585-.741.658-1.277 1.186-1.985 1.856-2.41 2.253-2.317 2.164-.232.216-2.041 1.882M6.12 361.999l.027.168.183 1.164.482 3.062.08.48.008.055v.001l.573 3.508.074.444.014.082.452 2.701.217 1.281.19 1.118.03.179m26.937-86.983-.063.022-.121.059-.32.214-.768.618-1.449 1.197-2.362 1.951-2.699 2.232"/><path stroke="#fff" stroke-linejoin="round" d="m35.172 289.392.039.056.05.041M24.04 304.163l-.99-.095-.03-.003-.02-.002-.947-.119-.863-.119-.756-.111-.589-.092-.042-.006-.327-.053-.011-.001-.004-.001-.142-.023-.033-.005-.286-.046-.165-.052"/><path stroke="#fff" stroke-linejoin="round" d="m18.915 303.223.205.147.166.163M4.333 349.971l.068.496.242 1.763.321 2.341.74 4.821.129.837.315 1.964.182 1.138m13.55-59.77-.007.011-.028.05m43.94-32.912-.478.202-2.337.989-2.49 1.165-2.08 1.101-.208.109-2.196 1.324-.392.236-2.168 1.467-.542.373-.826.599-1.193.869-1.518 1.111-1.167.863-1.604 1.252-1.872 1.499-.438.351-1.902 1.499-.615.492-.339.27-.082.065-.042.034-.119.094-.143.115-.724.578"/><path stroke="#fff" stroke-linejoin="round" d="m136.816 267.283.636-.383.323-.194 1.19-.827.086-.097.22-.282.128-.165-.214-.277-.812-.152-1.444-.069-2.242-.041-2.67-.049-3.231-.046-3.73-.032-4.171-.006-4.552.032-4.786.07-4.876.107-4.823.146-4.629.183-4.337.204-2.064.11-.194.01-.536.028-1.16.062-3.209.183-.267.015-2.429.142-.478.028-2.384.15-1.906.136-.183.017-1.29.113-.005.001-1.234.145-.98.199-1.14.337-1.568.546-2.262.821-2.699 1.02-2.878 1.143-.709.301M38.804 286.93l-.17.122-.803.576-1.9 1.37-.209.151-.176.127-.11.083-.174.13-2.196 1.648-2.769 2.2-2.692 2.215-.133.109-.044.037-2.6 2.184-2.223 1.891-1.566 1.337-1.01.885-.56.533-.259.315-.117.23-.014.122.037.146.168.08.157.044.115.026h.001l.003.001.011.002.182.042.128.025.323.066.581.106.701.117.814.121.72.094m13.475.212 2.908-.07 3.543-.109 3.701-.144 3.878-.191 3.93-.237"/><path stroke="#fff" stroke-linejoin="round" d="m19.284 303.421.29.057.004.001.01.002.016.003m107.207-30.435 4.506-2.612.695-.403.065-.037.169-.098 1.967-1.142.03-.017.068-.039.495-.288.516-.299.011-.007 1.356-.81.666-.398.448-.268 1.248-.849m451.434-87.853-.348-1.334-.557-2.095-.759-2.668-.92-2.98-1.123-3.228-1.308-3.235-.624-1.33-.825-1.761-.028-.059-.068-.132-.698-1.274-.092-.168-.009-.018-.838-1.529-1.651-2.525-.079-.121-.046-.07-.011-.013-.047-.059-.079-.098-1.764-2.178-.16-.157-1.865-1.836-2.148-1.649-.154-.114-1.287-.747-.978-.568-.012-.007-.744-.311-.496-.207-.104-.044-.478-.2-.198-.082-.373-.156-.91-.277-.281-.086-1.25-.381-.989-.225-1.136-.258-.297-.068-2.338-.425-.219-.039-2.187-.361-2.007-.294-1.796-.225-1.554-.152-1.28-.075-.301.031-1.006.151-.438.085-.636.127-.896.179-1.219.241-.762.148"/><path stroke="#fff" stroke-linejoin="round" d="m548.201 143.056-.089.016-1.993.366-1.496.302-.97.196-.01.002-.414.096-2.4.558-.849.23-2.244.616-.819.247-2.496.829-.789.262-3.378 1.454-3.341 1.948-3.176 2.579-2.88 3.34-.376.454-2.609 3.812-.133.23-.28.484-.319.551-1.658 2.866-2.203 4.24-2.047 4.138-1.802 3.782-.02.041-.357.77-.532 1.147-.639 1.378-.147.323-.313.687-.448.981-.257.562-.003.007-.268.585-.111.242-.109.237-.24.526-.077.185-.285.684-.054.37.43-.379"/><path stroke="#fff" stroke-linejoin="round" d="m505.57 185.379.475-.07 1.021-.117 1.49-.162.326-.036 1.561-.171.353-.038 1.9-.21 2.589-.288 1.419-.16 1.473-.166 3.167-.36 3.311-.373 3.322-.363 3.197-.327 2.934-.269 2.879-.233 3.038-.218 2.285-.153.19-.012.194-.013.743-.05 47.063-2.09m954.74 277.572 5.6-.973.33-.059.14-.024.14-.024.14-.025.14-.024.13-.022 6-1.126 6.21-1.289 6.59-1.498.1-.025 7.09-1.752 7.05-1.893 6.42-1.921 5.24-1.833 3.5-1.633.11-.071 2.59-2.102 2.48-3.205 1.04-1.624m32.01-21.081.04-.484.04-.484.01-.091.03-.355.03-.368v-.299l-.01-.844-.01-.297-.19-1.096-.05-.235-.29-.985-.32-.813-.27-.581-.1-.177-.23-.407-.22-.292-.22-.236-.23-.238-.23-.326-.04-.063"/><path stroke="#fff" stroke-linejoin="round" d="m1610.95 428.653 2.01-.455 3.65-.868 3.89-1.003 3.71-1.079 3.1-1.094 2.58-1.106 2.15-1.113 1.79-1.117.18-.128 1.34-.989.16-.128 1.21-1.122.87-1.13.53-1.14.07-.21.04-.289.11-.864.02-.288.01-.366.01-.355m-33.02 23.568.92-1.428 2.27-3.536 2.4-3.76 2.27-3.568 5.39-8.527 5.3-8.48.4-.639 5.22-8.525 2.24-3.798 1.86-3.155 3.18-5.666 2.48-4.66 1.99-3.937 1.71-3.49 1.4-3.078 1.09-2.7.75-2.357.4-2.047.02-.186.11-1.776-.12-1.534-.28-1.327-.39-1.156-.08-.176-.49-1.02-.57-.923-.64-.86-.72-.834-.38-.416"/><path stroke="#fff" stroke-linejoin="round" d="m1636.07 406.26-.26-.571-.4-1.131-.47-1.723-.55-2.013-.58-2.006-.61-1.706-.1-.177-.6-1.112-.73-.705m-133.66 65.959v-.452m-.34-1.39.01-.013.03-.097"/><path stroke="#fff" stroke-linejoin="round" d="m1498.08 459.629-.07.003-.07-.009-.04-.019-.02-.025-.01-.028-.01-.028-.02-.03-.01-.036-.02-.044-.02-.056-.02-.068v-.078l.04-.088.07-.097.19-.169m-.3.354-.04.086-.03.068-.01.029M1032.33 5.018l-.07-.072-.07-.076-.49-.474-.53-.464-.55-.405-.58-.347-.42-.204-.17-.083-.61-.227-.62-.166-.64-.095-.84-.052-.65-.017-1.81-.045-.53-.012-4.57-.093-7.55-.154-9.89-.151-10.003-.068-1.629-.011-10 .048-2.739.014-9.998.203-3.231.065-9.994.332-3.481.115-9.991.44-3.489.155-9.986.538-3.254.175-9.98.626-2.778.175-9.973.73-2.461.18-9.964.847-2.306.196-9.953.97-2.31.225-9.94 1.095-2.477.273-9.924 1.23-2.722.339-9.905 1.372-3.048.422-9.884 1.516-3.452.53-9.861 1.66-3.936.663-9.839 1.789-3.923.714-9.814 1.917-3.413.666-9.786 2.059-2.411.507-9.746 2.239-.923.212-9.006 2.223C741.701 31.777 736.723 33.078 729 36c-7.321 2.309-8.666 2.821-12 4-31.691 10.776-49.613 17.503-82 31.5-26.31 10.729-41.263 17.696-68 30.5-40.381 18.724-62.789 30.298-102.5 52l-72 37c-.208.227-.32.344-.5.5a2.518 2.518 0 0 0-.5.5m1229.85-11.102.3-.095.32-.099.24-.082.06-.024.19-.079.23-.107.1-.094.2-.187.19-.257.19-.289.17-.28.14-.233.11-.198.08-.176.04-.167.01-.17-.03-.192-.06-.229-.09-.283-.12-.355-.17-.503-.25-.728-.36-1.031-.49-1.411-.55-1.584-.53-1.549-.45-1.306-.29-.856-.21-.524-.16-.334-.21-.327-.25-.307-.3-.286-.36-.289-.41-.283m-2.62-1.342-1.24-.524-1.27-.514-1.12-.441-.79-.307-1.11-.429-.55-.202-1.21-.432-1.32-.422-.36-.103-1.48-.415-1.68-.401-1.84-.377-1.96-.341-2.05-.293-2.1-.235-2.18-.186-2.31-.147-2.47-.118-2.69-.098-2.67-.078-2.42-.06-1.94-.042-1.24-.024-.69.001-.3.035-.12.017-.09.074-.03.035-.04.069m40.1 6.337-.17-.079-.66-.3.53.244.02.005.28.13Zm0 0 .2.092.56.266m.52.289-.04-.02-.48-.269.49.288.08.048.22.131.11.064.13.074-.51-.316Zm-29.52 1.289.01.017 1.02 2.461.64 2.861.34 3.258.11 3.666-.07 3.924-.19 4.032-.24 3.988-.25 3.795-.07 1.104-.17 2.451-.03.539-.19 2.728-.06.847-.14 2.086-.01.199-.15 2.354-.14 2.162-.1 1.76-.03.501-.05.845v.002l-.01.126v.019l-.02.254-.03.521-.01.584.03.332.07.186.13.144.31.161.07.031.64.239.11.038.95.329 1.61.549 1.18.4.76.258 1.85.643 1.66.578 1.13.367.38.097.29.076.06.005.49.046.29-.006.36-.007.75-.012.22-.004.62-.012.34-.006.27-.005.4-.008.39-.008.65-.014 1.61-.04 1.71-.051 1.76-.071 1.75-.098 1.68-.133 1.57-.175.57-.079.85-.119.03-.005.01-.003 1.23-.198.12-.022.5-.087.47-.085.91-.165.33-.065.22-.045.19-.038.03-.007.09-.02.46-.113.44-.142.04-.022.27-.132.01-.02.14-.177.21-.342.09-.305.06-.244.13-.586.11-.914.02-.528.07-1.13.02-1.69-.02-1.845-.03-1.627-.02-1.039-.03-.587-.04-.272-.07-.093-.11-.05-.18-.012h-.01l-.01.001-.01.001-.23.017-.14.012-.31.033-.25.028-.1.013-.08.007"/><path stroke="#fff" stroke-linejoin="round" d="m1616.97 183.435.51-.404.57-.367.56-.331.25-.148.31-.182.02-.013.24-.141.28-.16.51-.283.47-.239.26-.111.01-.007.01-.003.01-.005.04-.017.09-.039.24-.087.14-.053m-33.36-14.229-1.46-2.101-.01-.026-2-1.757-1.59-1.011-.63-.399-.13-.067-2.14-1.084-1.47-.642-.11-.045-.21-.095-1.16-.503-.48-.202-.18-.074-.33-.102-.28-.031-.47-.005h-.1l-.95.009-1.46.011-1.23.014-.17.002-.52.006-1.74.031-.62.011-2.75.074-.29.01-2.83.103-3.39.143-3.58.162-3.66.169-3.66.166-3.9.171-4.37.182-5.09.201-6.04.229-5.26.213-1.21.049-5.85.292-4.64.345-.07.011-2.59.396-.2.046-.08.051-.02.013-.91.709-.01.057.62 1.22.24.246.85.868.84.857.21.21.18.173.19.191 2.04 2.002.03.038.34.33.01.011.1.091 1.09 1.042 1.46 1.391.02.013v.002l.52.494.02.016.09.088.22.215.23.218.81.741 1.58 1.442.63.579 1.22 1.12.02.02 1.2 1.039 3.1 2.708.09.079.24.186.64.52.66.537 2.75 2.229 4.28 3.194 4.36 3.013 4.56 2.926 4.86 2.937 4.83 2.795 4.45 2.503 3.73 2.057 2.67 1.461 1.9 1.019 1.4.729 1.19.595 1.25.614 1.42.668 1.71.757 2.09.881 2.58 1.04 1.98.776.78.309 1.71.659.37.145.05.021.01.001.49.191.26.101 1.98.761 1.41.541.81.295.39.097.16-.048.04-.04.09-.13.07-.307.05-.575.02-.331.01-.254v-.019l.01-.126.01-.182.04-.665.03-.658.1-1.729.13-2.131.15-2.436v-.094l.13-2.017.06-.907.13-1.975.09-1.293.13-2.023.1-1.541.24-3.809.24-4.006.19-4.05.06-3.945-.11-3.688-.34-3.282-.66-2.885-1.03-2.497-.06-.091ZM1614.5 206l-.1-1.56-.01-.054-.01-1.031-.02-1.269-.01-1.369-.01-1.332v-1.998l.02-.755.07-.895.11-1.262.2-1.853.26-2.181.32-2.248.35-1.818.39-1.452.04-.146"/><path stroke="#fff" stroke-linejoin="round" d="m1586.67 164.515.51.437 1.43 2.022m-80.02-4.804-.19.059-.1.062m84.73-37.921-.33-.067-4.46-.881-4.08-.95-4.11-1.082-4.83-1.345-6.27-1.737-2.85-.79"/><path stroke="#fff" stroke-linejoin="round" d="m1617.59 152.511 1.26-5.192 1.62-5.216 1.62-4.667 1.25-3.674.55-2.238-.04-.394-.46-1.256-.31-.31-1.78-.671-.61-.206-3.42-.51-5.36-.799-6.48-.986-6.74-1.07-5.99-1.019m25.38 41.345-.46-1.982-.4-2.726-.11-2.786-.05-1.299m-48.04-38.516-2.92-.821-4.48-1.258-8.08-2.281-8.37-2.386-8.28-2.39-7.71-2.25-6.69-1.964-2.57-.757-13.42-3.732c-41.33-13.11-64.47-20.728-105-32.5"/><path stroke="#fff" stroke-linejoin="round" d="m1617.11 158.154-.01-.923.49-4.72v-.013m8.93 86.381-.19-.884-1.45-7.172-1.42-7.351"/><path stroke="#fff" stroke-linejoin="round" d="m1623.55 223.957-.09-.485-1.21-6.699-.19-1.094m3.01-12.932.2-.78v-.006l.31-1.161.37-1.351.37-1.356.29-1.176.16-.81v-.727l-.18-.927-.38-1.408-.61-2.174-.73-2.557-.72-2.558-.62-2.178-.39-1.415-.23-.821-.16-.397-.05-.094-.14-.139-.2-.056-.15-.034"/><path stroke="#fff" stroke-linejoin="round" d="m1625.27 201.967-.16.62-.04.16-.2.509-.13.158-.3.332-.15.147-.16.133-.14.116-.13.103-.09.095-.01.007c-.44.328-.7.475-1.26.653m5.4 40.212-.32-1.444-.42-1.915-.23-1.028-.03-.121-.47-2.132m-4.55-33.594-.72.142-.15.034"/><path stroke="#fff" stroke-linejoin="round" d="m1623 205-.38-.233-.54.132-.63.146-.62.129-.07.015-.25.052-.44.084-.03.005-.24.047-.12.02-.62.098-4.56.505v-.5m6.67-24.48-.18.027-.02.001-.01.001m-731.309-15.953.466-.034.334-.024"/><path stroke="#fff" stroke-linejoin="round" d="m889.37 165.11 1.081-.072 2.681-.203.099-.008.419-.031 4.228-.321 6.12-.467 6.802-.526 3.688-.288 3.43-.269.416-.033 4.517-.362 1.347-.107.413-.033.373-.03.749-.061.019-.002.334-.027.013-.001.02-.001 1.467-.12 4.076-.331 5.959-.489 4.59-.379 2.006-.165.566-.047m-55.527 4.386.395-.027-.399.022m.248-.118 56.929-4.407.034-.004.158-.025.122-.046.019-.013.09-.077.069-.121.189-.876.449-2.34.85-4.508 1.391-7.374 1.754-9.311 1.849-9.827.092-.49 1.843-9.829.107-.573 1.786-9.569 1.646-8.859L974 22m56.1-19.182.1.06.19.112.29.17.57.392.55.439.5.447.44.409.19.188"/><path stroke="#fff" stroke-linejoin="round" d="m1027.83 2.043.14.028v.001l.46.093.6.187.59.24.58.287m-2.29-.811.06.004m89.74 6.673-4.24-.526-9.93-1.153-2.67-.309-9.94-1.058-.68-.072-9.22-.87-5.04-.408-3.38-.275"/><path stroke="#fff" stroke-linejoin="round" d="m1075.99 4.349-3.8-.314-8.23-.581-8.59-.536-8.29-.473-7.35-.394-5.77-.297-.61-.032-3.55-.188-1.86-.088-.71-.007-.66.049-.7.153-.72.248-.12.053-.73.336-.02.013m135.31 11.987-1.45-.201-9.91-1.364-5.09-.7m16.73 2.305-.28-.04.23.033.01.001.35.052 9.9 1.446 6.7.98 7.44 1.156"/><path stroke="#fff" stroke-linejoin="round" d="m1158.14 14.077-9.91-1.375-4.93-.685-9.92-1.299-5.61-.734-9.92-1.222-.14-.017-4.11-.506M25.39 304.252l-.044-.003m10.051.05.353-.006m3.359-17.585-.305.222-.145.105-.774.564"/><path stroke="#fff" stroke-linejoin="round" d="m39.759 286.211-.65.497-.07.052-.107.082-.122.094-.706.54m101.789-21.956-.622-.02m264.495 182.867-.08-.458m9.303.098-.034-.462m6.463-259.702-.967.258-1.001.267-.29.077m26.08 70.599-.105-.284m-.159 11.81.124.065m16.645-103.602-.072.042m.124-.072-.055.032m8.146 23.082.021.004.118.023m-8.618-1.678.992.193m-5.123 234.092-.279.026m11.975-231.844.15.029m422.439-25.864-.193.012m3.861-.283-.181.231m.421-.031.179-.231m-1.131 263.76.45-.018m51.354-267.491-.106-.263M1030.39 2.99l-.77-.014m68.24 23.668 1.08.136m-28.64 399.333.02-.025m89.51-411.776.04.006.31.046m22.19 462.947 1.96.513.35.092.02.006v.001l.02.004.23.061m45.93-332.774.03-.067m9.61-9.099-.02.001m3.7-.356-.3.029m12.87-81.962.33.078m-4.02-.939.34.079m86.57-3.401-9.68-2.51-5.15-1.333"/><path stroke="#fff" stroke-linejoin="round" d="m1340.88 49.809-.03-.01-.86-.222-.22-.055-9.68-2.504-4.88-1.263m161.25 261.619-.13-.173m27.78 154.073 1-.106m-.88.091.14-.014.88-.096m-.87.093.2-.022.82-.091m54.42-165.994-1.63.32-8.2 1.308-9.89 1.472-.13.02-9.9 1.422-.99.141-9.9 1.4-.86.122-9.68 1.367-7.58 1.095-5.76.851-4.2.634-2.89.446-1.88.286-1.41.206-1.5.208-2.15.29-3.36.454-1.46.197-2.5.337-3.95.535-3.35.451-2.13.288-1.17.179-.5.128-.08.133.07.196.28.388.53.71.87 1.165 1.24 1.747 1.67 2.535 2.13 3.524 2.63 4.717 3.17 6.111 3.41 7.065 3.38 7.579 3.06 7.653 2.45 7.289 1.43 5.13.21.753.31 1.101.73 3.171.65 2.858.17.704 1.26 6.539 1.07 6.402.26 1.878.05.313.04.333.1.696.41 2.941.04.286.42 3.667.33 3.004.61 7.074.48 7.653.02.426.13 2.961.09 2.059.1 2.271.18 7.268.01 6.311-.18 4.848-.32 3.655-.19 1.216-.04.256-.2 1.259-.49 2.074-.5 1.684-.56 1.367-.64 1.123-.76.953-.92.853-.97.735-.91.596-.74.438-.47.262-.26.128-.13.037-.06-.014-.07-.021-.08-.026-.07-.031-.08-.032v.749l-.01.35-.02.32-.02.175-.01.105-.03.235.01.182.05.123m0 0-.01.127-.05.387-.03.14-.04.196-.01.098.01.066.04.052.05.046.06.009.01.002.11.065.28.055.48-.046 1.04-.16 1.85-.298 2.89-.458 3.42-.539 3.43-.539 2.9-.46 1.87-.302.09-.017 1.43-.248 1.61-.3 2.38-.455 3.77-.716 4.8-.929 5.5-1.098 5.86-1.22 5.86-1.298 5.93-1.453 1.72-.481 4.32-1.208 6.22-2.001 6.44-2.394 6.46-2.733 3.93-1.894.76-.366.61-.292.95-.458v-.001l.03-.012m-378.17 18.674 9.95-1.004 5.13-.518 2.43-.165.38-.026 1.22-.083.3-.02.41-.028.44-.029.35-.024v-.001l.2-.013.29-.02.01-.001.18-.012.09-.006.64-.044.03-.002.31-.02.08-.006.25-.017.05-.003.59-.04.12-.008.41-.029.36-.024.29-.019.45-.031.22-.015.01-.001.06-.004.23-.016.03-.002.14-.009.19-.013.57-.039"/><path stroke="#fff" stroke-linejoin="round" d="m1477.86 443.013 9.96.938 9.95.938 3.31.311 4.95.678M402.375 481.107l.005.019-.001.106.029.165.105.269.179.465.245.752.312.866.381.808.446.65.505.391.242.169.814.225.386.034 1.219.077 1.755-.012 2.43-.017 2.771-.02 2.771-.019 2.432-.017 1.762-.012 1.436-.019 1.461-.038 1.838-.067 2.563-.109 3.234-.135 3.852-.149 4.416-.146 4.929-.13 5.97-.129 7.539-.145 9.635-.175 9.998-.182 2.262-.041 9.998-.181 4.313-.077 9.999-.18 5.792-.103 9.998-.177 6.698-.119 9.997-.175 7.031-.123 9.998-.173 7.281-.126 9.999-.172 7.448-.129 9.998-.171 7.531-.13 9.998-.171 7.531-.129 9.999-.172 7.621-.13 9.999-.172 7.8-.134 9.998-.171 8.068-.139 9.999-.171 8.425-.145 9.999-.172 8.694-.149 9.997-.171 8.875-.153 9.998-.171 8.963-.154 9.998-.172 8.963-.153 9.999-.172 8.962-.154 10-.171 8.964-.154 9.997-.172 8.965-.154 9.999-.171 8.965-.154 9.998-.168 8.846-.149 9.998-.163 8.609-.14 9.999-.152 8.251-.126 9.999-.139 7.775-.109 9.998-.128 7.38-.095 9.999-.122 7.063-.085 10-.118 6.827-.08 9.999-.118 6.669-.078 9.999-.119 6.251-.073 9.997-.12 5.57-.066 10-.122 4.63-.056 10-.125 3.42-.042 10-.123 2.37-.029 10-.114 1.48-.017 10-.098.76-.008 10-.074.18-.001 9.84-.046 9.7-.019 9.79.007 10.1.034 10 .064.11.001 9.84.105 9.27.151 8.41.207 7.42.274 6.3.355 5.04.452 3.33.509.33.052m2.55.827 1.87.905 2.23 1.143.67.353 2.29 1.232 2.12 1.158 1.75.957 1.14.631.69.373.72.38.48.19.61.169.41.073.5.025.55-.007.57-.028.54-.034.47-.027.47-.159.4-.269.37-.534.34-.679.26-.874.27-1.137.26-1.938"/><path stroke="#fff" stroke-linejoin="round" d="m1333.34 258.817-.02.003-2.05.397-9.82 1.901-2.63.745-.46.129-8.43 2.387-3.31 1.306-.18.071-.23.092-.31.119-.09.038-.06.025-.24.093-.5.197-.05.02-.07.026-.14.056-.19.074-.07.03-.03.013-.04.016-.03.008-.08.034-.03.011-.04.015-.08.032-.09.036-.06.022-.34.138-.1.039-.15.059-.25.098-.45.176-.11.045-.23.092-.22.086-.21.081-.12.05-2.53.998-.28.109-.05.028-1.05.533-.11.057-2.7 1.374-.23.119-6.17 3.14-1.28.801-8.48 5.301-2.97 2.203-.2.149-.66.488-.43.324-2.15 1.593-.2.144-.01.007-.07.056-.76.565-1.02.757-.03.02-.15.111-.21.156-.38.282-.79.675-7.59 6.51-.11.093-.07.061-.11.1-.04.027-.05.045-.3.293-.23.232-6.23 6.123-.08.074-1.11 1.096-.26.249-4.77 5.359-.02.021-2.8 3.141-2.92 3.751-.08.099-.36.47-.07.081-.21.274-3.27 4.2-4.78 7.072-.39.588-.01.011-.01.015-.03.039-.23.34-.11.159-.6.902-4.98 8.608-.44.757-1.07 2.209-.06.123-.2.414-.06.114-.03.074-3.24 6.653-.42 1.063-.04.082-.03.094-.01.009-.18.466-.06.148-3.17 7.935-.42 1.33-.05.178-1.18 3.74-.01.026-1.18 3.732-.07.225-.17.555-.01.025-.01.019-.04.148-.01.011-.09.368-2.38 9.712-.04.235-1.83 9.832-.21 1.542-1.13 8.412-.55 6.013-.06.67-.01.089v.058l-.11 1.117-.02.288-.14 1.506-.13 2.19-.01.235-.07 1.254-.07 1.108-.01.211-.06.975-.01.194-.05.851-.1 1.691v.091l-.03.473-.01.114-.01.395-.28 8.042-.15 7.577-.12 6.349-.05 3.243-.01.314-.03 1.681v.45l-.01.064v.41l-.01.315v.109l-.01.282v.388l-.01.371v.059l-.01.392v.396l-.01.064v.218l-.02 1.265-.09 4.173-.11 3.527-.01.418-.13 3.573-.12 3.054-.1 2.393-.06 1.587-.06.957c-.43 6.735-.96 9.886-1.91 15.475-.37.099-.46.217-.5.5"/><path stroke="#fff" stroke-linejoin="round" d="m1333.32 258.82 1.1-.131 5.07-.604 5.75-.685 9.99-.541 1.81-.098 10 .058 1.36.008 9.98.703 1.02.072 9.85 1.372.86.121"/><path stroke="#fff" stroke-linejoin="round" d="m1389.25 258.974 9.78 2.067.46.097 9.62 2.738.72.203 9.37 3.481.71.261 7.93 3.774.16.073.38.184 1.23.585 8.57 5.163.66.397 7.95 6.064.67.514 7.48 6.639.23.204 6.47 6.357 4.93 5.122 3.06 3.141 1.66 1.642.75.625.29.09m-324.62 81.942.96-1.077 4.31-5.049.04-.046.09-.102.17-.2.01-.01.06-.079.04-.051.36-.423.05-.056.3-.367.02-.012.08-.096.09-.118.23-.272.23-.27.13-.161.05-.056.06-.069.44-.521.21-.257.23-.272.1-.122.04-.04.78-.929.14-.168.37-.449 2.44-2.938.08-.092 1.03-1.253.08-.095.35-.418 3.44-4.188 2.66-3.268 1.65-2.041 1.01-1.264.74-.943.85-1.074 1.24-1.573.07-.088.07-.081.54-.677 1.47-1.841.63-.785.03-.027.09-.117 2.39-2.958.19-.241.5-.603 3.17-3.904.63-.782 2.91-3.561 2.94-3.605.15-.193.14-.167 6.34-7.732.91-1.108 3.42-4.141.05-.056.09-.103.3-.363.08-.106 3.89-4.699.15-.186.05-.05 4.43-5.299.03-.044 3.2-3.829 1.75-2.055.12-.145.26-.309.04-.036v-.01l.01-.009.08-.095 5.1-6 6.51-7.595.48-.56 2.92-3.426.22-.258 2.92-3.428.67-.785 2.52-2.994.21-.253.03-.031.03-.045.13-.149.05-.067.19-.219.09-.104 2.15-2.563.13-.158 1.09-1.302.71-.87.49-.598.19-.23 3.63-4.442 1.61-1.979 6.23-7.823.19-.236 3.91-5.038.14-.18.05-.067.12-.159.75-.961.15-.197.86-1.1.97-1.294.05-.058.03-.041.05-.07.09-.12.03-.04.16-.213.05-.072.09-.115.03-.045.03-.028.1-.138.04-.055.13-.177.07-.093.17-.224.13-.166.03-.04.14-.181.04-.065.09-.118.03-.032.02-.027.07-.094.03-.042.01-.01 2.63-3.493 4.43-6.105 1.67-2.393 2.14-3.068 3.44-5.117.42-.636 1.31-2 1.6-2.438 3.5-5.331 3.53-5.405 3.44-5.296 3.25-5.005 2.92-4.532 2.75-4.278 2.71-4.245 2.8-4.427 3.03-4.829 3.01-4.796 2.7-4.331 2.15-3.435 1.31-2.11.66-1.154.17-.568-.16-.35-.32-.498-.48-.649-.04-.044-.75-.935-1.02-1.221-1.34-1.551-1.41-1.615-.15-.174-1.72-1.932-1.8-1.985-1.79-1.945-1.75-1.886-1.63-1.808-1.47-1.713-1.25-1.598-1.08-1.493-.94-1.394-.85-1.302-.79-1.216-.72-1.098-.62-.947-.5-.763-.35-.546-.78-.883"/><path stroke="#fff" stroke-linejoin="round" d="m893.004 431.509.023.105.023.101.021.093.018.08.014.064.023.043.081.093.134.054.024.005.736.007 1.919-.049 3.651-.112 5.937-.181 7.639-.234 8.758-.269 9.294-.286 9.247-.287 9.6-.299 9.995-.314.358-.011 9.995-.315 1.51-.048 9.995-.316 3.064-.097 9.995-.316 4.089-.13 9.993-.318 4.59-.146 9.99-.32 4.55-.145 10-.322 3.99-.128 9.99-.396 3.25-.128 9.98-.558 2.32-.13 2.52-.211 5.43-.456 3.23-.272 9.88-1.282 8.73-1.653 4.19-1.108 3.57-.945 2.2-.785 4.76-1.696 2.94-1.367 1.69-.784 1.69-.789 5.71-3.322.08-.051 1.36-.959 2.28-1.609 1.72-1.216 1.15-.952.72-.602.64-.527 2.52-2.091 3.23-3.058 1.56-1.478.13-.138 4.47-4.674 3.51-3.937.95-1.06m349.04 70.088-.03.049-.06.145-.09.204-.09.246-.09.274-.1.287-.1.284-.11.284-.1.284-.1.285-.1.288-.08.261-.03.206v.037l.01.154.05.063.09.093.11.045.14.032.16.035.15.035.16.036.15.035.14.032.13.012.51-.006 1.23-.125 2.3-.263 3.7-.424 1.54-.179 3.22-.376"/><path stroke="#fff" stroke-linejoin="round" d="m1507.19 462.074 3.12-.355 3.69-.433.06-.007.03-.004.08-.009.05-.005.02-.003.14-.017.16-.018.15-.018 1.13-.132"/><path stroke="#fff" stroke-linejoin="round" d="m1514 461.286.97-.101 5.95-.659 6.03-.743 6.07-.821 6.06-.897 6.03-.967 5.73-.999m-366.51 21.725.92.366.01.004.05.02.5.199"/><path stroke="#fff" stroke-linejoin="round" d="m1514.06 461.279.05-.005.12-.015.07-.007.08-.01.13-.014.32-.037.72-.082m56.02-302.601.16-.004 1.22-.027m43.11 26.446.37-.888v-.01l.04-.09.01-.029m-.05.129.01-.018.35-.614"/><path stroke="#fff" stroke-linejoin="round" d="m1616.44 184.017.15-.206.2-.259"/><path stroke="#fff" stroke-linejoin="round" d="m1616.59 183.811.38-.376.16-.161m3.84-2.228v.002m6.19 60.805-.64-2.974-.13-.606"/></svg>