<svg fill="none" viewBox="0 0 1696 843" xmlns="http://www.w3.org/2000/svg"><path stroke="#fff" stroke-linejoin="round" d="m14.679 431.497-2.366 4.267-2.533 4.026-2.281 3.35-1.827 2.614-1.171 1.818-1.211 2.148-.714 1.267-.321.782-.799 2.187-.098.498-.326 2.054-.032.417.11 1.957.146 1.014.436 2.284.829 4.228 1.325 6.843 1.751 8.569 2.105 9.41 2.39 9.367 2.604 8.449 2.55 7.334.982 2.658 1.246 3.371m-1.247-3.371.873 2.553 1.598 4.811.762 3.013m8.846-150.853-.257 1.539-1.126 6.557-1.305 7.095-1.34 6.669-1.712 7.541-1.601 6.097-1.831 6.145"/><path stroke="#fff" stroke-linejoin="round" d="m19.289 419.773-.155.432-2.196 6.123-2.26 5.169-.085.197m23.051-107.496-.117.462-.048.205-.296 1.591-.512 2.928-.782 4.452-1.046 5.948-1.175 6.747-1.217 7.068-1.168 6.911-1.122 6.741-1.079 6.56-.776 4.751-.263 1.614M19.46 529.415l.177 1.689m.005-.024-.005.024-.143.743-.223.317-.044.317.017.272.099.278.311.476"/><path stroke="#fff" stroke-linejoin="round" d="m19.524 532.978.443.267.022.018.791.692 1.085 1.069 1.262 1.34 1.417 1.56.857.954.001.001.694.774 1.665 1.845 1.481 1.608.274.299.056.058.005.006.008.008.016.016.003.004.018.019.011.011.008.009.028.03.03.031.016.017.003.003.03.031.022.024.002.003.013.013.016.017.033.035.017.017.012.014.027.028.018.019.061.065.007.007.015.015.02.022.011.012.048.05.012.012.008.008.022.024.01.009.054.059.003.003.003.003.036.038.006.006.003.003.004.005.027.028.033.035.04.041.041.044.011.012.025.027.044.047.08.084.003.003.017.018.004.003.042.045.073.077.018.02.018.018.064.068.017.018.03.03.002.004.074.077.077.082.05.053.007.007.064.068.042.043.141.15.004.004.023.025.003.003.016.016.044.047.017.018.046.047.057.058.038.039.022.022.03.029.098.101.082.084.063.065.04.039.012.013.128.131.077.079.023.024.05.049.102.105.003.004.035.036.097.098.024.025.034.035.005.004.062.064.002.002.002.002.227.232.004.004.04.04.04.042.047.047.001.002.047.048.061.061.036.037.001.001.012.013.024.024.012.012.018.018.06.061.018.019.066.068.125.127.003.003.005.006.008.007.006.006.03.03.063.062.013.013.002.002.105.102.067.066.038.038.052.05.056.055.066.064.038.038.008.008.05.049.005.005.035.034.012.012.015.015.01.008.1.099.04.04.007.007.065.063.027.027.014.013.013.013.03.028.057.057.001.001.074.073.016.016.037.036.028.027.03.029.024.024.018.018.056.055.157.154.037.036.063.062.017.016.028.028.073.071.12.117.018.018.083.082.07.068v.001l.048.047.088.086.034.033.006.006.032.03.068.063.07.067.024.021.08.075.075.071.003.003.05.047.03.028.022.021.002.002.041.038.074.07.021.02.13.121.023.022.07.065.046.043.058.055.025.023.01.01.194.182.03.027.005.005.052.05.018.016.014.013.075.07.065.062.016.015.133.124.037.035.053.05.033.031.055.051.15.14.052.05.003.003.008.007.04.037.044.042.1.094.161.151.005.004.025.023.214.189.061.055.045.04.006.005.067.06.142.125.09.081.063.056.104.092.123.109.126.112.015.014.05.043.091.082.187.166.046.04.031.028.123.109.023.02.202.18.076.068.022.019.038.034.077.068.171.152.023.02.032.028.033.03.16.142.028.025.062.052.05.041.007.006.143.119.111.093.026.021.104.086.03.025.145.121.015.013.137.113.067.056.122.102.04.033.206.171.013.012.018.015.056.046.422.351.273.227.468.389.201.168.121.094.44.341.37.285.414.322.412.319.394.305.451.35.364.281.01.007.486.348.135.097.088.063.131.094.138.099.302.216.08.057.026.019.082.059.05.035.104.075.624.446.251.18.115.082.293.21.24.171.09.064.306.204 3.28 2.178 2.393 1.482.308.191 1.296.802 3.085 1.793 1.394.81.363.2.494.272 1.982 1.09 2.191 1.205 1.858.976 3.658 1.922 5.933 2.991.26.13 6.276 3.046 6.545 3.061 6.72 3.029 6.771 2.945.02.009 6.76 2.827 6.621 2.652 6.593 2.525 6.682 2.447 6.89 2.423 7.221 2.451 7.316 2.418.019.006.169.056 3.545 1.149 4.197 1.362 1.724.552 6.209 1.991 3.095.987 4.979 1.588 5.533 1.76 2.658.846 8.285 2.634 2.677.853 2.827.901 2.851.908 6.768 2.164 1.632.521.387.127 8.069 2.64 6.32 2.154 2.204.751.014.005 1.12.403 2.175.784.053.019.522.188 3.382 1.218.143.052.248.089.945.34.368.142.633.244 1.666.643.221.085 3.828 1.476.205.079 1.772.683 2.122.884.189.079 3.96 1.649.172.071 2.162.901m192.24-208.51-.09-.655-.007-.045-.861-6.276-.019-.137-.033-.237-.431-3.152-.293-2.141-.054-.393-.261-1.898-.063-.46-.097-.713-.29-1.881m13.095 86.254-.047-.237-.025-.123-1.477-7.318-.25-1.444-.026-.151-1.134-6.565-.32-1.996-.024-.148-.252-1.579-.007-.042-.769-4.806m-127.117-72.064-.301.03-.554.055-.625.083-.345.097-.192.085-.095.086-.156.141-.076.212-.204.567-.5 1.923-.854 3.501-.016.064-.249 1.026-1.141 4.683-1.225 4.881-.594 2.367-.635 2.415-.002.01-.009.034-.015.056-.259.984-.024.094-.24.912-.525 1.995-.443 1.683-2.393 8.515-2.543 8.242-1.945 5.632-.111.322-.013.038-.002.006-.246.713-.12.347-.267.774-2.879 7.28-2.212 4.754-.854 1.836-1.508 2.661-.93 1.64-.087.154-.224.394-.055.098-.052.092-.112.198-.296.522-1.553 2.234-1.929 2.775-3.719 4.338-2.166 2.043-.455.43-.105.099-.279.263-.498.47-.171.16-.156.148-.142.133m183.409 39.308-.058-.052-.445-.401-2.558-2.302-1.023-.922-.405-.364-.16-.144-.437-.633-.33-.479-.943-1.366-1.455-2.108-.295-.427-.542-1.188-.218-.479-.479-1.049-.212-.465-.344-.755"/><path stroke="#fff" stroke-linejoin="round" d="m461.965 519.718-.631-1.397-.216-.479-.474-1.05-.211-.465-.34-.755-.248-.549-.492-1.088-.498-1.496-.105-.313-.758-2.277-.075-.224-.011-.034-.531-1.595-.019-.056-.154-.463-1.794-7.071-.011-.052-.025-.124-.319-1.572-.026-.129-1.165-5.746-.228-1.319-.026-.152-.238-1.372-.027-.157-.884-5.115-.309-1.925v-.004l-.024-.151-.232-1.449-.021-.131-.006-.036-.777-4.849-.27-1.789v-.003l-.009-.06-.21-1.389-.008-.051-.016-.112-.82-5.43-.187-1.289-.003-.026-.221-1.522-.004-.031-.019-.13-.865-5.981-.068-.478-.007-.053-.192-1.363-.008-.057-.016-.113-.928-6.584-.011-.082-.035-.249-.167-1.196-.012-.087-.015-.108-.887-6.362-.017-.122-.134-.962-.044-.324-.02-.14-.013-.098-.901-6.511-.033-.238-.125-.904-.018-.137-.035-.253-.036-.264-.006-.042-.861-6.262-.022-.156-.03-.22-.138-1.004-.053-.389-.223-1.629-.314-2.288-.023-.167-.012-.087-.277-2.021-.064-.462-.1-.727-.046-.297-.074-.478-.173-1.109-.209-.789-.209-.199-.111-.095-.332-.129-.292-.101-.452-.12-.507-.135m25.199 112.027-.521-.761-1.27-1.856-1.651-2.411m13.968 12.106-.74-.391-1.82-.963-1.432-.757-.31-.164-.13-.069-.652-.345-.91-.481M286.73 489.265l-2.246 1.711-.214.163-1.424 1.084-.306.234-.375.221-4.148 2.454-2.414 1.045-.196.085-2.112.914-.11.047"/><path stroke="#fff" stroke-linejoin="round" d="m491.08 534.484-.369-.03-.564-.085-1.006-.151-.175-.026-.233-.035-.117-.018-1.174-.176-1.558-.235-4.033-.606-1.281-.192-.215-.033-.195-.055-1.233-.35-3.734-1.059M252.402 640.775l.099.045 1.489.676 2.432 1.104 4.645 2.109 2.055 1.025 3.21 1.6.976.487.027.013 1.624.81.64.319 2.14 1.181.075.041 4.417 2.437.054.03 1.632.9.777.477 6.074 3.728.64.392.002.002.645.396.541.37.195.133.545.373 1.908 1.304.853.584 3.953 2.703 7.89 6.009 6.504 5.502.798.675.522.442.857.782 7.144 6.522 7.222 6.918 1.199 1.149 7.142 6.999 1.943 1.904 7.134 7.009 2.858 2.808 7.202 6.938 3.288 3.168 7.345 6.787 3.232 2.987 3.503 3.012.717.617 6.038 5.193 7.958 6.055 1.576 1.199 4.83 3.133 4.353 2.823 2.864 1.532 2.489 1.332"/><path stroke="#fff" stroke-linejoin="round" d="m395.424 752.698 2.753 1.479 2.481 1.332 3.971 2.132 9.168 3.994.431.188 1.541.548 8.822 3.138 9.597 2.813 1.213.355 9.724 2.336 1.22.293 9.82 1.886.95.182 4.007.58"/><path stroke="#fff" stroke-linejoin="round" d="m457.239 773.39 3.883.564 6.408.93 9.938 1.031 9.699.685 9.575.455 9.562.338 8.98.244 7.837.167 6.135.111 3.878.076 2.621.042 2.36.011 3.091-.018 4.808-.044 5.656-.057 5.638-.057 4.762-.045 3.032-.018 1.693-.028.541-.05.063-.006.14-.013.226-.131.14-.215.085-.308.059-.409.014-.049m735.567-125.597 9.8-1.985 6.97-1.411 9.8-1.976 7.34-1.479 9.8-1.971 7.27-1.461 9.8-1.972 7.09-1.424 9.8-1.972 6.91-1.389 9.8-1.971 6.74-1.354 9.8-1.971 6.57-1.32 9.8-1.971 6.39-1.286 9.81-1.971 6.15-1.237 9.8-1.971 5.85-1.174 9.8-1.972 5.46-1.098 9.81-1.971 5.02-1.01 9.8-1.971 4.67-.938 9.8-1.971 4.38-.881 9.81-1.971 4.18-.841 9.8-1.971 4.05-.815 9.81-1.97 3.86-.776 9.8-1.969 3.61-.725 9.81-1.966 3.29-.661 9.81-1.963 2.93-.587 9.8-1.96 2.14-.427 9.81-1.957.93-.187 9.15-1.823 7.15-1.423 5.62-1.096 4.53-.835 3.88-.643 3.67-.518 3.33-.41 2.88-.32 2.29-.25 1.6-.197 1.2-.184 1.09-.21 1.78-.36 1.29-.277 1.78-.382 2.02-.434 2.02-.434 1.77-.38 1.22-.26.06-.014.22-.06.23-.066.41-.112.01-.004.32-.114.2-.071.34-.118.46-.164.43-.152.06-.021 1.64-.742"/><path stroke="#fff" stroke-linejoin="round" d="m999.842 721.057.418-.238 3.43-1.565 4.8-1.844 6.07-2.082 7.25-2.278 8.34-2.436 9.35-2.553 9.68-2.516.34-.088 9.7-2.424.67-.166 9.72-2.347.67-.164 9.74-2.282.38-.09 9.75-2.219.31-.069 9.76-2.162.43-.095 9.78-2.116.76-.165 9.78-2.081 1.29-.275 9.79-2.058 1.97-.415 9.79-2.045 2.79-.585 9.79-2.042 3.76-.784 9.79-2.047 4.86-1.015 9.78-2.049 5.67-1.185 9.79-2.05 6.19-1.297 9.78-2.051 6.45-1.351 9.79-2.051 6.44-1.349 9.79-2.046 6.51-1.36 9.79-2.035 6.65-1.383 9.79-2.019 6.87-1.415 9.79-1.999 5.75-1.172 1.4-.286m-224.49-32.253-.14-.123-5.97-5.338-4.34-5.381-1.82-2.247-5.25-8.508-1.11-1.793-4.75-8.798-1.93-3.558-4.58-8.89-2.51-4.884-4.64-8.858-2.98-5.679-4.9-8.714-2.2-3.906-1.13-1.999-1.41-2.368-5.11-8.593-2.04-3.422-3.37-5.411-.92-1.483-4.31-6.923-5.42-8.402-2.91-4.514-1.2-1.805-5.33-8.006-1.24-1.865-1.709-2.494-.167-.244-1.759-2.566-2.886-4.21-.92-1.343-.411-.585-.264-.375-1.118-1.591-1.249-1.778-4.317-6.143-5.816-8.135-1.712-2.394-1.12-1.555-2.62-3.636-2.709-3.758-.436-.606-.32-.444-.747-1.036-5.875-8.093-2.418-3.331-5.903-8.072-.969-1.325-.266-.364-1.408-1.925-3.966-5.383-3.5-4.751-1.244-1.688-5.961-8.029-1.234-1.661-1.584-2.134-5.994-8.005-2.722-3.635-6.029-7.979-2.486-3.291-2.881-3.772-5.302-6.94-6.12-7.909-1.597-2.063-6.161-7.876-1.165-1.488-6.192-7.852-.821-1.041-6.209-7.839-.571-.721-4.413-5.571-2.214-2.795-6.135-7.746-5.303-6.696-4.13-5.213-2.614-3.302-1.523-1.921-.858-1.081-.62-.775-.808-1.009-1.113-1.385-1.533-1.903-2.068-2.562-2.713-3.359-3.126-3.859-3.308-4.07-2.527-3.091-.739-.904-3.001-3.638-2.625-3.32-2.139-3.037-1.541-2.794-.836-2.585-.311-2.398.035-2.232.018-.192.181-1.889.187-1.95.166-1.775.139-1.556.106-1.295.064-.991-.002-.529v-.072l-.001-.119-.096-.486-.132-.214-.008-.013"/><path stroke="#fff" stroke-linejoin="round" d="m1093.11 624.67-.98-.388-4.49-1.777-.01-.005-.88-.348-.15-.06-.04-.021-6.16-3.734"/><path stroke="#fff" stroke-linejoin="round" d="m1098.34 625.493-3.73-.551-2.48-.66m519.15-435.148-7.99-6.019-1.93-1.458-8.09-5.881-5.85-4.251-8.18-5.754-7.27-5.115-8.27-5.627-8.41-5.725-8.35-5.492-8.36-5.492-.9-.592-8.46-5.342-8.45-5.342-1.34-.847-8.55-5.191-8.55-5.191-1.4-.851-8.64-5.03-8.64-5.03-1.06-.613-8.74-4.846-8.75-4.845-.28-.152-.92-.5-8.87-4.624-7.91-4.125-8.99-4.383-6.95-3.392-9.11-4.134-6.21-2.82-9.21-3.888-5.68-2.395-.86-.351-9.3-3.667-5.36-2.111-9.39-3.43-5-1.825-9.48-3.18-4.6-1.541-6.64-2.02-7.07-2.153"/><path stroke="#fff" stroke-linejoin="round" d="m1350.34 46.062-7.79-2.371-9.65-2.621-3.64-.989-.52-.139-9.73-2.324-3.53-.844-.39-.083-9.79-2.049-3.83-.802-9.83-1.817-4.57-.845-9.87-1.643-6.05-1.009-5.2-.774-9.89-1.473-1.35-.2-.31-.04-.97-.127-.15-.02-.3-.038-.59-.077-.07-.01-9.92-1.29-.2-.026-5.07-.66"/><path stroke="#fff" stroke-linejoin="round" d="m1247.74 25.169-5.66-.739-6.42-.839-9.94-1.087-7.01-.766-9.96-.838-6.61-.555-.99-.062-2.91-.18-9.98-.619-2.34-.145-.19-.012-9.99-.437-5.93-.26-10-.295-5.66-.167-10-.198-5.44-.107-10-.065-5.49-.036-10 .097-3.33.032-2.52.025-10 .277-6.07.169-.44.012-9.99.465-2.89.134-4.6.215-6.25.398-7.06.449-4.92.314-5.51.441-9.97.798-3.26.262-.56.053-9.95.959-8.52.82-1.92.216-9.93 1.123-7.211.815-9.917 1.287-9.203 1.195-9.894 1.449-4.774.699-.738.109-.119.017-3.681.539-9.35 1.524-9.87 1.608-.242.04-2.704.485-2.91.521-.172.031-4.043.725-9.633 1.727-1.273.249-9.815 1.917-2.743.535-5.805 1.134-1.455.306-.274.058-.12.025-.95.201-.26.055-4.366.92-8.793 1.853-.045.01-.392.082-3.186.672-9.755 2.202-9.754 2.201-.574.13-9.723 2.334-9.724 2.334-.914.22-9.693 2.46-9.692 2.459-1.242.316-9.662 2.579-9.662 2.579-1.555.416-7.236 2.023-6.06 1.694-3.534.988-1.277.357-.789.221-2.221.621-2.641.77-.012.004-9.6 2.801-8.075 2.355-.084.025-.466.136-.457.133-2.627.803-8.342 2.548-.586.178-2.346.717-7.531 2.3-9.522 3.055-9.521 3.056-2.352.754-9.473 3.205-9.472 3.205-2.277.771-9.414 3.374-9.413 3.374-2.077.744-9.369 3.495-9.37 3.494-.697.26-9.338 3.58-7.454 2.858-9.316 3.633-3.63 1.416-7.895 3.075-4.043 1.591-1.42.607-.067.129.006.161.098.22"/><path stroke="#fff" stroke-linejoin="round" d="m1253.43 25.912-.25-.032-5.44-.711-5.64-.736-6.17-.806m-610.537-2.368-9.903 1.392-5.421.763-.123.017-9.879 1.555-6.77 1.066-9.851 1.719-6.794 1.186-9.822 1.878-6.875 1.314-9.793 2.028-7.017 1.453-9.762 2.169-7.219 1.604-.024.006-.064.015-.008.001-.056.014h-.003l-9.732 2.299-7.328 1.732"/><path stroke="#fff" stroke-linejoin="round" d="m526.14 39.409-.807.178-.219.049-9.734 2.29-4.394 1.033-3.057.719"/><path stroke="#fff" stroke-linejoin="round" d="m510.986 42.959-3.228.759-9.704 2.414-7.685 1.912-9.674 2.535-7.937 2.08-9.643 2.649-8.199 2.252-9.612 2.757-8.471 2.429-9.577 2.878-8.604 2.586-9.534 3.015-8.595 2.718-9.484 3.171-8.44 2.822-9.422 3.349-8.136 2.892-9.376 3.479-6.887 2.554-4.005 1.531-9.34 3.57-.662.253"/><path stroke="#fff" stroke-linejoin="round" d="m344.773 93.741-9.343 3.564-.881.336-9.321 3.622-1.476.574-6.576 2.556-3.364 1.328-1.187.513-.108.16m1387.193 123.67-7.67-.557-7.43-.519-.85-.06-.18-.013-.83-.058-7.15-.489m-17.86 20.298.01.009 3.08 2.191 3.35 2.291 3.2 2.146 2.65 1.753 1.68 1.114 1.12 1.017.96 1.464m-7.2 278.237.19.037.45.088.28.026.4.003.95-.146 1.73-.309 1.14-.202 1.35-.24.24-.042.92-.156.17-.029 1.65-.28.72-.121 2.82-.446 1.08-.17.03-.004.57-.081 1.34-.187 2.14-.3 3.98-.458 3.55-.343.13-.013 1.21-.102"/><path stroke="#fff" stroke-linejoin="round" d="m1309.09 598.061.08.006 1.18-.127 3.26-.513 6.35-1.038 9.87-1.616.53-.087 9.87-1.616 3.39-.555 9.87-1.617 5.06-.831 9.87-1.618 5.6-.919 9.87-1.62 5.03-.826 9.87-1.622 4.72-.775 9.87-1.623 4.66-.768 9.87-1.623 4.85-.799 9.87-1.623 5.27-.868 9.87-1.623 5.47-.901 9.87-1.624 5.46-.898 9.87-1.624 5.24-.862 9.87-1.624 4.82-.794 9.87-1.623 4.66-.767 9.87-1.623 4.73-.779 9.87-1.624 5.04-.83 9.86-1.624 5.57-.916 9.87-1.623 5.39-.887 9.87-1.62 4.54-.745 9.87-1.616 3.03-.496 9.87-1.607.89-.146 2.52-.407.55-.09 5.83-.944 7.29-1.175 5.93-.953 4.81-.773 3.89-.624 3.15-.505 2.6-.418 2.25-.359 1.88-.3 1.51-.241 1.15-.182.77-.123.47-.096.26-.075.2-.094.17-.16.19-.5.03-.086.14-.499.16-.616.07-.229.62-2.413 1.01-3.799.56-2.098.12-.435.11-.405.5-1.901.13-.458.03-.136.02-.076.56-2.084.22-.815.07-.244.23-.849.23-.875 1.19-4.425.04-.152.11-.401.24-.882v-.028l.15-.538 1.44-5.356.1-.383.16-.599.23-.847.14-.538.62-2.344.27-1.005.4-1.555.4-1.563.05-.183.38-1.475.09-.339.06-.24.09-.37 1.09-4.439.39-1.781.06-.281.28-1.269.06-.257.11-.491.72-3.686.52-2.993.02-.144.09-.495.17-1.046.01-.119.45-2.753.7-4.379v-.016l.02-.148.21-1.386v-.003l.01-.011.6-3.989.48-3.347.02-.12.22-1.542.02-.144.19-1.301.27-2.089.48-3.584.03-.247.17-1.278.04-.267.04-.275.28-2.302.04-.321.13-1.072v-.002l.37-3.014.05-.367.15-1.265.05-.391.06-.514.4-3.511.21-1.895.08-.658.05-.486.11-.911.01-.088.05-.509.13-1.095v-.006l.09-.791.04-.385.32-3.146.01-.023.11-1.088.06-.602.08-.795v-.025l.02-.157.06-.623.4-3.895v-.023l.07-.624.14-1.551.02-.29.01-.026.03-.395.07-.715.06-.713v-.015l.26-2.86v-.024l.21-2.323.01-.115v-.026l.2-2.193.07-1.068.17-2.29.1-1.298.09-1.255.05-.695.05-.653.05-.738.05-.657.18-2.41.2-3.474.04-.662.04-.794.04-.658.3-5.042.01-.263.03-.693.01-.167.04-.924.11-2.567.01-.096.1-2.298.02-.515.04-.774.12-2.696.12-3.865.11-3.476.01-.11.01-.487.03-.903.01-.178.05-1.557.08-4.021v-.059l.14-6.352.12-9.693.02-2.792.04-5.082.01-.483.02-5.001v-1.423l.01-.998v-1.25l.01-1.645-.04-2.215-.15-1.388-.29-1.415-.49-2.291-.59-2.731-.58-2.729-.48-2.289-.27-1.41-.11-.787v-.424l.06-.318.09-.469.09-.55.02-.099.07-.46.06-.497.03-.363-.02-.317-.05-.36-.1-.49-.15-.708-.26-1.157-.4-1.839-.61-2.751-.85-3.894-1.15-4.765-.66-2.422-.08-.313-.72-2.625-.11-.339-1.71-5.343-1.88-4.844-.05-.143-.01-.021-.02-.057-.26-.664-2.03-4.669-.3-.693-.02-.05-.13-.28-.09-.183-.18-.395-.35-.734-.48-1.024-.41-.872-.58-1.24-1.84-3.679-1.2-2.27-.82-1.279-.7-.708-.85-.556-1.26-.823-1.57-1.023-1.75-1.155-1.83-1.217-1.8-1.215-1.67-1.146-1.48-1.016-1.19-.822-.82-.563-.12-.08m-301.95 48.008-1.87-.687-.71-.137-.77-.145-.42-.08-.59-.039-1.53-.1-.56-.004h-.01l-.65-.005-.21-.002-.44-.003-.66-.006h-1.12l-1.83-.002h-.19l-.45.013-2.79.079-1.75.164-1.09.101-.46.125-.43.114-1.03.277-.02.044-.42.699-.04.075-.01.025.02.017"/><path stroke="#fff" stroke-linejoin="round" d="m1349.89 309.675-.1-.067-.01-.006-.22-.152-2.06-1.374-.05-.033-.08-.064-.72-.546-.49-.374-.34-.259-.8-.604-.21-.158-.05-.039-.38-.308-1.93-1.564-.42-.338-1.74-1.441-.83-.689-.45-.369-1.18-.976-.56-.459-.61-.58-.45-.427-.5-.471-.65-1.147v-.003l.01-.017.05-.092.38-.612.06-.102.94-.242.17-.044.36-.092.45-.115m25.31 5.745 1.38.653 1.71.304 2.74.055 4.47-.096 6.87-.148 8.08-.173 8.12-.171 6.65-.138.35-.007m10.78.326-1.09-.352-1.83-.161"/><path stroke="#fff" stroke-linejoin="round" d="m1336.5 296.162.17-.044.36-.089.37-.093.84-.069.16-.014.21-.016 1.25-.104.37-.03 3.08-.066.13-.003.54.003 1.69.007.88.004.12.001.34.002.36.002.42.003h.12l.44.003.15.001.42.002h.02l.09.001m16.12 6.974.27.029 2.75.056.33.005 4.48-.095 6.87-.147 8.09-.172 8.12-.172 6.71-.142.08-.001.2-.004.63-.013.08-.002 4.04-.083 2.81-.002h.21m-57.07 9.143-.21-.047-.28-.068-1.5-.351-1.97-.963m-522.235-72.74-.28.911-.187.299-.161.258-1.163-.203-1.483-.256-.995-.171-3.324-.577-.669-.116-1.694-.292-4.009-.693-7.619-1.305-9.742-1.653-1.77-.298-.577-.097-7.424-1.248-2.308-.388-9.852-1.714-3.78-.658-4.014-.748-.772-.143-2.63-.49-3.916-.729-3.053-.568-9.795-2.014-4.529-.931-9.733-2.297-3.701-.874-4.181-1.135-8.397-2.281-9.543-2.989-2.216-.694-9.404-3.4-1.572-.569-2.33-.973-7.261-3.033-.643-.269-9.043-4.27-.447-.211-8.214-4.309-.531-.278-.058-.034-.474-.272-7.47-4.288-6.358-3.939-.249-.155-.654-.405-.974-.64-.195-.128-1.62-1.066L642 181.5"/><path stroke="#fff" stroke-linejoin="round" d="m824.631 238.605.2.013.398.027.161.001.115-.005.546-.019.328-.012.589-.253.181-.275.183-.278.333-.908.499-1.324.472-1.258.082-.22.118-.327.024-.066.296-.824.046-.127.01-.029.37-1.134.181-.762-.021-.515-.198-.42-.157-.386-.403-.349-.683-.436-.828-.469-.841-.447-.638-.329-.082-.042m780.238-28.408-7.61-6.488-1.41-1.205-5.23-4.194-7.81-6.255-.28-.227-7.97-6.041-3.91-2.967-2.33-1.767-8.12-5.841-6.84-4.919-8.25-5.646-7.28-4.979-2.91-1.889-8.38-5.45-4.66-3.028-8.51-5.245-7.72-4.755-8.65-5.027-7.73-4.495-8.77-4.79-7.6-4.142-8.92-4.522-7.29-3.701-9.05-4.27-7-3.307-9.15-4.04-4.98-2.203-1.71-.755-9.24-3.834-6.38-2.65-.5-.2-4.53-1.779-9.31-3.658-1.51-.596-2.93-1.074-9.39-3.442-2.81-1.029-9.48-3.185-5.46-1.836-1.01-.303-9.57-2.884-2.31-.695-1.91-.574-3.08-.809-9.67-2.538-1.94-.508-9.75-2.205-4.93-1.113-9.28-1.79-5.48-1.059-.74-.129-9.87-1.615-5.09-.832-9.9-1.376-5.33-.74-6.96-.816-1.39-.163-7.07-.83-9.96-.983-5.56-.55-1.11-.094-9.96-.823-5.55-.458-9.98-.684-4.23-.29-1.21-.084-9.99-.548-5.33-.292M663.347 174.022l.27-.133.343-.17.52-.227.323-.141 1.069-.467 2.196-1.062 4.218-2.148 7.073-3.692 8.841-4.673 2.011-1.063 8.887-4.584 3.652-1.883 1.436-.74 8.969-4.422 7.499-3.696 9.078-4.194 9.078-4.194.186-.086 1.052-.445 2.297-.971.542-.229 5.203-2.2 5.997-2.537 4.519-1.911 9.308-3.657 9.307-3.657 1.844-.724 3.722-1.375.548-.202 4.512-1.666 5.56-2.053 6.558-2.422 9.438-3.305 1.222-.428 3.313-1.16 6.974-2.441.802-.268 3.074-1.028 1.346-.449 1.87-.625 2.798-.936.775-.259 9.484-3.17.468-.156 3.382-1.084 8.431-2.701 8.187-2.624 9.556-2.945 9.552-2.944 9.586-2.849 8.365-2.487 9.612-2.759 6.926-1.989 9.654-2.605 6.167-1.664 6.886-1.701 7.547-1.864 1.347-.332 4.392-.972 1.356-.299 5.957-1.318 3.371-.745.129-.029.952-.21.237-.052"/><path stroke="#fff" stroke-linejoin="round" d="m825.994 227.474-.312-.2-.342-.17-.002-.001-.397-.109-.292-.059-.629-.097-.657-.099-.663-.1-2.607-.387-3.709-.552M742.6 211.889l-.085-.021-9.702-2.422-2.037-.509-9.603-2.789-1.129-.327-9.453-3.26-.321-.111-8.953-3.717-4.1-2.058-.537-.27-.187-.094-.542-.272-.475-.238-2.431-1.221-7.407-4.255-3.218-2.034-1.331-.842-.384-.242-.116-.074-.924-.584-.206-.13-.18-.114-1.353-.909-3.776-2.538-3.78-2.579L663.5 174"/><path stroke="#fff" stroke-linejoin="round" d="m816.566 225.728-.182-.028-.811-.126-4.546-.706-.355-.055-7.713-1.256-9.652-1.646-8.537-1.524-3.174-.566-9.827-1.852-2.666-.502-.475-.09-.342-.069-2.579-.52-9.803-1.978-.684-.138-9.765-2.155-2.94-.649M962.884 64.052l.693-.136.115-.022.197-.04 9.814-1.917 6.454-1.262 3.07-.536 1.759-.307 4.151-.724 2.266-.395 1.481-.26 1.438-.25.356-.062 1.075-.188 2.883-.503 2.014-.314 7.5-1.171 9.41-1.468 9.91-1.375 9.08-1.262 8.79-1.072 6.49-.792 3.41-.416 9.94-1.043 8.29-.868c72.34-9.778 95.25-10.49 128.53-9.67M885.208 229.875l.058-.148.002-.004.008-.02-.002-.017-.007-.022-.013-.038-.072-.215-.192-.571-.879-2.163-1.7-4.082-2.753-6.605-3.569-8.516-3.101-7.33-.202-.477-.121-.288-.075-.175-.654-1.547-2.488-5.805-.495-1.157-.006-.014-.057-.134-.487-1.135-.974-2.274-3.188-7.308-1.431-3.281-3.763-8.482-.944-2.128-3.774-8.372-.993-2.202-4.164-9.091-.634-1.385-4.217-9.067-.584-1.255-4.256-9.049-.259-.55-3.939-8.311-1.902-3.995-1.174-2.465-1.924-4.046-1.071-2.201-.513-.922-.252-.216-.289-.083-.124-.034-.03-.001m33.901 65.632.114.011.843.076M1335.06 297.23l.02.006.21.047.35.063m25.63 3.517-.01-.011-2-1.341-2.09-1.358-.18-.109-2.03-1.127-1.85-.681-.35-.077-.03-.007-.47-.088-.45-.084-.53-.099-.37-.067-.16-.023-.19-.029"/><path stroke="#fff" stroke-linejoin="round" d="m1363.07 301.983-.17-.106-.95-.596-.2-.122-.49-.307m-8 10.07.47.049.06.006 1.66.078.82.039.05-.001.34-.005.2-.004.79-.016 1.58-.032.87-.018.55-.011.45-.009.79-.015.33-.007.56-.011 2.18-.043 5.93-.119 6.64-.134 7-.142 7-.145 6.65-.139 5.95-.125 4.56-.095.19-.004.5-.01 2.8-.058.34-.009 2.33-.116 1.4-.235.14-.074.71-.413.06-.122.26-.643-.08-.818-.31-.919-.43-.947-.45-.902-.51-.814-.63-.685-.16-.14-.82-.535-.19-.108-1.05-.318-.37-.089-.47-.068m-46.36.719-.44-.078-.99-.177m.1.049-.1-.049-1.25-.583m-94.49-61.653.98.071 1.05.085m328.06-3.243-.01.07-.19.94-.21 1.192-.18 1.352-.1 1.422.03 1.401.31 1.3.71 1.121.05.065.76.729 1.22.332.74.202 2.47.285.25.017 2.94.134 3.05.08 2.87.122 2.84.152 2.97.168 3.25.184 1.93.103 1.75.093 3.87.2.08.004 3.76.189 3.33.165 2.36.119 1.58.06 1.02-.009.23-.022.32-.029.74-.046 1.49-.07 2.57-.101 2.99-.107.98-.035 1.09-.041 1.71-.064 1.75-.065 1.21-.053.7-.03 2.42-.105 3.65-.199 2.56-.205.79-.082 1.98-.289 1.42-.395 1.19-.542 1.3-.733 1.3-.855 1.19-.913.98-.904.67-.828.42-.739.25-.634.14-.515.1-.381.05-.269-.03-.165m-318.72 14.776h-.17l-3.61-.008-1.97-.004-2.41-.005-1.55-.004-3.81-.008-1.57-.003-5.28-.013-2.43-.005h-.09l-1.72-.004-5.77-.013-2.06-.005-10-.024-2.25-.005-10-.024-2.45-.006-6.69-.017-2.95-.007-5.92-.014-3.26-.029m84.87.215-1.6-.003h-.45l-2.03-.004h-.01l-.27-.001h-.19l-4.05-.008h-.1l-.21-.001m222.89-3.879-.3.007-1.01.042-2.42.109-4.54.21-7.38.347-9.85.44-9.99.413-1.93.08-9.99.37-3.63.134-10 .315-4.93.156-8.78.233-4.41.118-2.63.07-.13.003-1.09.023-10.06.219-3.53.077-.61.014-.86.018-1.68.028-8.65.144-1.75.029-3.64.06-.58.009-3.45.037-10 .106-2.39.025-4.67.026-3.92.023-1.32.007-5.6.032-10 .019-.6.001-.31.001-3.76.007-.65.001-3.73-.001h-.11l-10-.003h-1.44l-2.68-.003h-.18l-3.86-.004-5.41-.005h-.11l-3.15-.004h-.31l-6.84-.011h-.52l-7.76-.012-5.95-.012-.41-.001h-.38l-.1-.001"/><path stroke="#fff" stroke-linejoin="round" d="m1490.63 254.304 3.7-.081 3.71-.081.97-.021.81-.018.26-.006.82-.022 2.84-.076 4.32-.116 7.84-.209 10-.316 4.94-.156 9.99-.371 3.64-.136 10-.415 1.95-.081 9.87-.445 7.4-.35 4.55-.212 2.43-.111 1.01-.042.28-.009.24-.007.92-.04 2.33-.11 4.44-.211 6.8-.325.45-.022 8.88-.422 9.37-.439 8.72-.399 5.8-.25m-361.45-8.758-.67.025-.49.043-.22.138v.04m380.69.38v1.095l-.09.133-.1.212-.15.302-.14.269-.07.13-.1.167-.06.089-.13.224-.35.544-.4.592-.45.623-.49.612-.41.463-.09.097-.28.259-.2.194-.02.012-.03.024-.25.174-.01.003-.07.049-.08.056-.04.023"/><path stroke="#fff" stroke-linejoin="round" d="m1643.88 246.94-.13.059-.31.142-.28.071-.08.021-.06.017-.06.017m-38.79-41.707-4.69-4.103-4.34-3.795-7.72-6.349-3.93-3.23-1.09-.856-7.86-6.186-2.6-2.044-7.95-6.066-2.46-1.878-.18-.136-8.02-5.974-.22-.163-5.02-3.658-2.57-1.776-.9-.502-.23-.062-.42-.042-.18-.012m.97.229-.14-.113"/><path stroke="#fff" stroke-linejoin="round" d="m1544.5 159-4.3-2.916-5.26-3.484-8.39-5.446-.46-.3-4.16-2.616-7.64-4.798-8.57-5.153-5.54-3.331-7.94-4.506-7.83-4.44-8.86-4.638-7.92-4.149-8.99-4.384-8.44-4.115-9.09-4.155-8.6-3.924-9.19-3.935-8.37-3.582c-20.38-7.946-31.86-12.454-50.45-18.628"/><path stroke="#fff" stroke-linejoin="round" d="m1365.51 70.813-4.32-1.32-9.56-2.922-1.34-.409-9.66-2.602-4.9-1.321-9.74-2.263-4.49-1.042-6.99-1.375-7.24-1.424-9.87-1.629-3.49-.577-1.01-.166-.22-.037-3.52-.49-9.9-1.381-1.31-.182-.59-.082-9.92-1.202-5.47-.662m0 0-.15-.016m.15.016C1204.03 44.384 1184 42.5 1149.5 44c-151.577 14.49-221.464 31.166-315 64M1585 251l-6.67-15.407-.89-1.986-.23-.51-.2-.457-.16-.364-.11-.246-.41-.915-.49-1.092-1.65-3.702-.53-1.2-.44-.99-.01-.003-.96-2.163v-.01l-.87-1.949-.02-.049-.16-.36-.11-.241-.19-.43-.34-.745-.11-.261-.1-.21-.17-.398-1.89-4.249-.31-.676-.33-.744-.19-.443L1544 159m-456.36 463.505.83.234 1.02.289.94.266.81.229.64.182 6.46 1.788.46.128.5.121 7.84 1.149.38.049 8.9.392 9.99-.354.12-.004.27-.024 9.95-.952 1.51-.144 9.91-1.317 2.66-.353 9.88-1.524 3.58-.551 9.87-1.618 4.26-.697 9.86-1.619 4.7-.77 9.87-1.62 4.61-.757 9.87-1.621 3.99-.657 9.87-1.622 2.89-.475 9.87-1.623 1.3-.213 9.86-1.625.12-.019 9.2-1.518 8.82-1.456 8.82-1.459 8.26-1.368 7.18-1.189 5.55-.921 3.41-.565 1.76-.308.64-.152.17-.079.05-.097.21-.458.3-.915.18-.527.08-.283.76-2.445 1.38-4.42 1.77-5.696 2.03-6.556 1-3.209 1.18-3.786 2.18-7.013 2.04-6.6 1.77-5.751 1.36-4.466.79-2.742.29-1.999-.19-2.238-.61-3.464-.99-5.675-1.16-7.025-1.13-7.52-.87-7.021-.02-.138-.44-5.945-.03-2.093-.06-3.005.14-4.615.02-.259.01-.231.01-.153.05-.81.02-.245.07-1.271.05-.673.01-.299.04-.559.01-.096v-.069l.08-1.197.01-.212.04-.608.05-.705.01-.249.03-.341.04-.698.04-.572.1-1.513.06-.808.03-.444.05-.799.11-1.661.05-.752.07-1.084.01-.123.05-.777.04-.575.01-.071.13-1.964.04-.589.02-.406.06-.862.02-.369.06-.836.28-4.401.01-.177.05-.755.02-.223.01-.224.05-.73.07-1.114v-.104l.03-.451.06-1.008.01-.106.09-1.44.04-.61.01-.144.02-.277v-.062l.04-.623.08-1.291.09-1.574.18-3.018.03-.528.05-.741.03-.517.08-1.373.22-4.047.02-.42.06-.953.02-.406.04-.809.05-.825.13-2.395.02-.405.08-1.729.02-.346.08-1.685.15-3.034.04-.717.02-.445.03-.706.07-1.42.13-2.925.02-.647.02-.449.03-.636.2-4.664.02-.579.03-.633.01-.403.01-.163.16-4.693.02-.506.02-.633.01-.333.01-.16.15-4.659.01-.105.06-2.671.05-1.746.07-2.815v-.119l.03-1.091v-.105l.03-1.198.04-1.691.04-2.796v-.041l.02-1.269v-.029l.07-5.581v-.031l.02-1.167v-.043l.01-.526v-6.558l.01-4.836-.01-.613v-.148l-.01-1.042v-.158l-.04-5.509v-.202l-.01-1.076v-.212l-.02-1.674-.05-3.576v-.256l-.02-.912v-.265l-.06-4.193-.02-1.085-.01-.315-.01-.929-.01-.328-.08-4.436-.01-.547-.01-.382-.01-.748-.01-.395-.03-2.236-.18-2.588-.03-.137-.1-.455-.17-.744-.1-.468-.03-.129-.84-2.349-.79-2.156-.18-.496-.22-.584-.18-.504-.04-.091-1.73-4.496-.19-.512-.01-.019-.25-.603-.22-.537-1.74-4.254-.19-.465-.04-.098-.2-.447-.25-.569-1.84-4.171-.26-.599-.2-.451-.05-.108-.24-.498-1.84-3.812-.21-.436-.09-.2-.14-.292-.31-.643-.4-.819-1.47-2.863-.17-.319-.19-.364-.13-.27-.25-.478-.11-.216-.01-.014-1.15-2.237-.56-1.039-.41-.745-.05-.086-.41-.757-1.67-3.093-.45-.825-.01-.016-.04-.065-.44-.778-.78-1.388-.72-1.26-.41-.721-.11-.205-.33-.575-.1-.168-.68-1.203-1.15-1.958-.03-.039-.13-.221-.43-.729-.01-.015-.02-.037-1.07-1.812-.35-.599-.22-.365-.19-.314-.4-.666-.81-1.331-.34-.561-.52-.848-.35-.576-.48-.798-.07-.107-.2-.328-.07-.112-.53-.859-.05-.078-.25-.404-.03-.044-.04-.07-.18-.292-.37-.583-.14-.23-.14-.227-.03-.046-.13-.214-.02-.033-.19-.305-.08-.131-.06-.101-.05-.074-.09-.15-.01-.02-.13-.204-.04-.069-.29-.468v-.001l-.03-.037-.04-.073-.05-.08-.02-.021v-.011l-.01-.018-.23-.359-.12-.199-.14-.225-.01-.018-.14-.222-.23-.372-.08-.126-.02-.032-.08-.13-.03-.052-.01-.013-.89-1.437-1.93-3.164-1.48-2.508-.53-.909-.59-1.019-.57-1.016-.03-.056-.01-.019-.19-.332v-.005l-.45-.799-.01-.031-.02-.03-.01-.013-.03-.054-.02-.046-.01-.013-.38-.64-.27-.37-.24-.203-.09-.049m-264.62 65.401-1.21-.034-1.18.003-8.36.016m18.33.539-1.02-.134m-81.407 9.322-1.165-.534-1.163-.533-.136-.089-2.617-1.708-2.967-2.254-2.972-2.439-2.764-2.352-2.344-1.991-.625-.637-.972-.992-.51-1.237-.012-.028.316-.324.565-.578 2.605-.535 3.655-.259.039-.003m94.384 8.001-.28.002-.12-.009m-52.635-.456.809-.016 9.241-.189 8.677-.159 3.037-.055 10.001-.141 1.52-.022"/><path stroke="#fff" stroke-linejoin="round" d="m961.47 320.857 1.381.204.495.06 3.881.047 6.485-.133 1.132-.023m-42.197-7.519 3.974-.079 3.962.007h.635l1.707.002.822.001 2.425.115.174.009m-20.894 1.595.054.046m.012.028.028.005.431.075.047.009.319.062"/><path stroke="#fff" stroke-linejoin="round" d="m961.766 320.987-.296-.13-1.355-.598-.327-.201-.817-.503-.855-.527-2.227-1.486-2.334-1.491-2.323-1.245-2.192-.749-.315-.091-.629-.112m-1.712 16.566 3.17.122.392-.004.372-.007 4.088-.08 6.31-.122 7.695-.149 8.616-.168 9.081-.177 7.762-.153 1.337-.026 8.643-.17 7.73-.153 6.36-.125 4.54-.089 3.05-.134 1.86-.264 1-.476.11-.067.45-.75.03-.1.04-.911-.24-1.024-.38-1.054-.41-1.005-.5-.907-.09-.124-.69-.796-.04-.023-.11-.085-.96-.609M964 232.5c-111.5-3-27.5-.5-118.91-4.773l-.304-.016-9.823-.516-6.034-.317-3.115-.152-.903-.03-.987-.017-.548.051-.013.009m4.254 12.107 1.65.138 3.763.245 3.978.241 1.17.071 1.886.114 9.981.605 1.496.091 9.982.592 3.557.211 1.131.067 9.983.571 6.64.38 8.732.473 5.715.31 2.915.158 9.988.496 6.928.345 9.99.459 6.213.285.446.021 9.991.43 6.565.284 9.991.413 6.641.275 9.992.407 6.173.251.712.029 9.992.39 7.212.281 9.99.366 7.62.28 10 .335 8.1.271 6.46.193 10 .299 2.18.065 9.99.273.57.016 8.58.235 2.93.076 6.46.169 8.35.217.35.009 1.53.04 10 .258 10.05.259 1.57.041 3.03.08.4.011 5.57.147 7.44.196 2.44.065.33.008 1.07.029 9.87.263 1.59.043.91.024.07.002 2.05.055.09.002 4.78.128 5.44.144 2.11.056 1.07.029.91.024 2.58.068.58.016 7.02.186 1.2.032.09.002.04.002.21.005 5.74.15 6.26.164 8.89.233 1.16.029 7.81.198 10 .254 1.28.033.98.025 9.99.249 9.9.246.83.02 9.99.246 6.38.156 2.49.061.8.019 3.59.088 6.33.153 2.24.055.33.008.33.008.14.003.58.014.5.012 3.82.093 1.33.026.22.004 1.41.027.87.017.04.001 1.05.008.88-.035.41-.193.03-.015v-.05l.03-.485-.11-.473-.11-.479-.33-1.466-.39-1.667-.37-1.556-.35-1.281-.07-.211-.02-.034-.21-.596-.35-.568-.34-.321-.16-.143-.73-.522-1.08-.744-1.23-.853-.81-.555-.43-.291-1.06-.726-.73-.491-.55-.313-.52-.189-.66-.13-.1-.015-.83-.117-1.06-.112-1.02-.07-1.52-.076-1.06-.028-2.96-.076-6.99-.156-.6-.013-.11-.003-.16-.003h-.01l-.21-.005-.03-.001-.13-.002-.5-.012-10-.222-2.2-.049-6.01-.135-1.17-.026"/><path stroke="#fff" stroke-linejoin="round" d="m888.571 229.811-.518-.021-.876-.04-1.909-.086m350.872 10.295-.14-.369-.1-.269-3.47-9.438-1.67-4.522-.51-1.395-1.42-3.81-.54-1.458-.12-.307-.35-.956-3.49-9.37-.31-.83-1.25-3.275-.57-1.484-.49-1.289-.21-.537-.78-2.059-1.04-2.717-1.01-2.642-.29-.768-.36-.92v-.017l-.08-.204-.15-.383-.08-.23-.08-.188-.41-1.035-.14-.365-.02-.04v-.008l-.03-.077-.07-.168-.55-1.402-.63-1.591-.52-1.319-3.68-9.299-.54-1.376-3.83-9.24-3.06-7.388-3.97-9.177-3.19-7.349-4.12-9.112-3.28-7.263-4.27-9.043-3.37-7.132-4.42-8.97-.76-1.54-.05-.104-.34-.691-.08-.162-.01-.001-2.19-4.458-4.53-8.916-2.99-5.871-1.85-3.577-.07-.122-.84-1.637-.02-.021-.04-.077-.35-.68-.08-.157-3.37-6.493-2.68-5.106-.13-.253-1.84-3.498-.53-1.004-2.25-4.285-.94-1.798-.24-.437-.04-.092-1.43-2.688-.74-1.258"/><path stroke="#fff" stroke-linejoin="round" d="m831.577 101.499.191.495 1.03 2.271 1.892 4.075.034.074 3.068 6.609 3.922 8.429 4.235 9.059.255.545 4.258 9.048.512 1.088 4.292 9.032.469.987 2.203 4.666 2.552 5.403 2.372 5.133 2.38 5.15 2.963 6.649 1.79 4.015 2.225 5.245.483 1.136.056.134.002.004.489 1.151 1.502 3.54 1.564 3.821.073.176.117.286.195.476 2.811 6.864 3.716 9.284 1.047 2.615 3.68 9.298.615 1.554m156.77-179.023-9.91 1.321-.34.045-9.9 1.435-9.07 1.316-7.74 1.225-7.37 1.168-3.846.61-.14.021-.977.171-.052.01-.311.053-2.513.438-1.468.256-2.266.394-4.067.71-1.834.318-5.086.887-9.818 1.902-4.537.88-.197.038-.111.022-1.688.327-.136.026-1.332.258-2.106.461-5.972 1.307-1.36.298-5.813 1.272M1598 244c-.1-2.373.2-4.829 1.18-10.773l.15-1.049.33-2.244.12-.847.2-1.356.13-.886.26-1.678.26-1.673.25-1.547.19-1.205.22-1.282.38-2.212.12-.689.08-.43.49-2.551.38-1.929.27-1.21.32-1.43v-.003l.37-1.669.47-1.777.15-.569.42-1.602.04-.136.01-.023.2-.654 1.03-3.212.13-.34.73-1.855.2-.519.34-.878.3-.618.39-.807.84-1.747 1.6-2.61.73-.856.88-1.045 1.58-1.046.11-.06 1.64-.366.2.016 1.77.145.33.069.48.103.67.144.91.194 1.2.251 3.56.72 1.83.398 2.35.557 2.07.531 2.62.686 2.81.821 2.27.683 2.95.901 3.01.986 2.39.901 2.97 1.125 2.81 1.359 2.44 1.32 2.52 1.627 2.42 1.895 2.05 1.892 2.34 2.525 1.48 1.856 2.17 3.098 2.09 3.693.53 1.072 1.8 3.767 1.6 3.945 1.3 3.871v.014l.01.025v.012l.16.549.66 2.332.16.556.04.142.2.78.1.438.48 1.922c.37 1.807.56 2.804.76 4.462.11.746.11 1.081 0 1.5"/><path stroke="#fff" stroke-linejoin="round" d="m1639.63 198.298.02.026 1.94 2.104 1.61 2.467 1.29 2.827 1.02 3.213.8 3.622.6 3.916.02.237.41 3.858.07 1.06.06.816.06.883.08 1.226.01.17v.046l.03.579.01.266.13 3.21.02 1.407.01.321.01.706.01.513.01.375.01.5v2.798l.01.303v.289l-.01.052v.738l-.02 1.742-.03.88v.001l-.01.479v.312l-.01.052-.02.877.01.21.01.199.02.049.02.054"/><path stroke="#fff" stroke-linejoin="round" d="m1639.65 198.324-2.29-1.763-2.64-1.554-2.78-1.345-2.8-1.184-2.7-1.075-2.56-.951-2.38-.813-2.16-.66-1.73-.452-.16-.043-.12-.01c-1.48.703-2.17 1.326-3.19 2.929-7.59 17.922-13.96 45.501-11.64 53.097 30.7 2.907 37.64 3.497 41.5 2.5M19.989 533.263l-.254.183-.08.061-.24.181-.358.283-.443.358-.573.466-.747.609-.835.68-.835.68-.748.609-.573.467-.407.363-.248.297-.097.269.045.28.047.228.158.288.598.83 1.115 1.459 1.6 2.112 2.056 2.788 2.48 3.487 3.015 4.24 1.185 1.63"/><path fill="#fff" d="m27.801 562.755-.498.047.002.014.496-.061Zm.039.318-.496.061v.003l.496-.064Zm.038.293-.496.064a.28.28 0 0 0 .004.023l.492-.087Zm.052.294-.492.087.002.011.49-.098Zm.425 2.115-.49.099.001.007.489-.106Zm.069.318-.489.106.012.044.477-.15Zm.116.369-.477.15.002.006.475-.156Zm.739 2.256-.475.156a.653.653 0 0 0 .006.018l.469-.174Zm.17.457-.469.174a.577.577 0 0 0 .018.042l.451-.216Zm1.098 2.294-.451.216.008.015.443-.231Zm.597 1.145-.443.231a.15.15 0 0 0 .009.016l.434-.247Zm2.696 4.733-.434.247.001.003.433-.25Zm2.532 4.376.433-.25-.433.25Zm5.003 8.659-.433.25.433-.25Zm.37.64.434-.248-.001-.002-.433.25Zm4.733 8.286.435-.246v-.002l-.435.248Zm1.252 3.238a.5.5 0 0 0 .872-.492l-.871.492Zm-20.478-40.28.051.536.996-.094-.051-.536-.996.094Zm.053.55.039.318.992-.122-.039-.318-.992.122Zm.04.321.037.293.992-.128-.038-.293-.992.128Zm.04.316.053.294.984-.174-.052-.294-.984.174Zm.055.305.425 2.116.98-.197-.425-2.116-.98.197Zm.426 2.123.07.318.977-.212-.07-.318-.977.212Zm.081.362.116.369.954-.3-.116-.369-.954.3Zm.118.375.739 2.256.95-.312-.739-2.256-.95.312Zm.745 2.274.17.457.938-.348-.17-.457-.938.348Zm.188.499 1.098 2.294.902-.432-1.098-2.294-.902.432Zm1.106 2.309.597 1.145.886-.462-.597-1.145-.886.462Zm.606 1.161 2.696 4.733.869-.494-2.697-4.733-.868.494Zm2.697 4.736 2.532 4.376.866-.5-2.532-4.376-.866.5Zm2.532 4.376 5.003 8.659.866-.5-5.003-8.659-.866.5Zm5.003 8.659.37.64.866-.5-.37-.64-.866.5Zm.369.638 4.733 8.286.868-.496-4.733-8.286-.868.496Zm4.731 8.284 1.688 2.992.872-.492-1.688-2.992-.872.492Z"/><path stroke="#fff" stroke-linejoin="round" d="m34.143 636.808.117.948.07.406.848 3.162.09.289 1.165 2.942 1.3 2.594 1.229 2.117.945 1.51.737 1.049.605.736.149.16.55.576.576.569.65.456.775.233.242.03.95-.097.769-.17 1.727-.437 3.119-.766 1.992-.467m-.598-77.569.87.549 1.544.918.885.526 2.014 1.197 4.997 2.809 5.483 2.941 5.9 3.037 6.242 3.091 6.511 3.106 4.893 2.25 1.791.824 6.756 2.996 6.723 2.866 6.583 2.685.652.255.001.001 4.79 1.872.987.386 6.264 2.351 5.883 2.124.202.073 5.896 2.055 4.398 1.489 1.135.385M24.751 551.617l1.172 1.279.02.022 1.828 1.952.882.927.174.184.002.001.001.002.002.001.05.053.005.005.004.005.592.622.836.873.118.124.018.018.05.053.026.027.022.023.002.001.027.029.085.088.002.003.062.065.013.013.019.019.033.035.07.074.019.019.004.004.05.052.01.011.03.032.117.121.005.005.01.011.025.026.018.019.077.08.034.036.028.029.037.038.015.016.024.025.008.008.07.073.07.073.064.067.005.006.055.057.032.034.161.168.004.003.002.002.007.007.012.013.086.09.068.071.027.028.025.025.04.042.03.03.06.062.099.101.085.088.007.007.032.033.116.119.052.054.018.018.055.056.049.051.076.077.01.011.024.025.002.002.019.02.089.091.077.076.005.005.033.033.036.035.154.153.056.056.021.02.003.003.08.08.071.07.129.127.029.029.082.082.01.009.075.075.092.088.061.057.009.009.043.042.05.046.051.049.085.081.004.004.021.021.016.014.067.065.032.03.06.057.087.083.019.018.016.015.014.013.206.197.015.014.065.062.051.047.161.151.037.034.02.018.055.052.052.048.033.031.027.025.043.039.018.017.01.01.118.109.031.03.117.108.004.003.011.011.026.024.169.158.002.001.011.011.091.084.055.052.008.007.001.001.065.06.041.038.073.068.013.012.002.002.047.042.122.108.005.004.172.153.008.007.003.003.009.007.14.124.052.046.116.103.024.021.018.017.027.023.113.101.091.08.051.045.088.078.054.048.089.079.099.088.014.012.059.052.061.054.041.037.038.033.124.11.041.036.036.03.102.086.107.088.025.021.002.002.027.022.103.086.127.106.109.09.002.002.004.003.017.015.219.181.003.003.043.036.045.037.025.021.056.047.031.026.056.046.189.157.024.021.05.041.107.089.009.007.023.02.167.139.008.006.02.017.01.009.193.16.145.121.009.007.049.039.007.006.006.004.028.023.001.001.177.14.015.012.052.04.027.021.115.089.059.046.143.111.049.038.009.007.047.036.12.093.072.057.011.008.027.021.096.075.006.004.061.048.158.122.004.003.103.08.051.039.008.007.001.001.101.079.041.031.127.098.018.015.1.077.011.009.062.048.064.049.067.053.118.091.034.027.019.014.018.014.08.063.041.031.119.093.112.087.021.016.025.019.041.032.056.044.051.036.072.052.111.08.067.048.028.02.013.01.185.133.168.12.006.005.084.06.038.028.07.049.111.08.003.003.012.009.087.062.139.1.062.044.009.007.173.124.024.018.152.109.057.041.104.075.101.073.019.013.702.505.003.002.303.218.058.039.48.322.165.112.368.247.098.065.225.152.039.026.299.2.486.327.383.257.822.552 1.467.925 1.583.997"/><path stroke="#fff" stroke-linejoin="round" d="m16.975 542.845.115.125.923.996 1.219 1.386 1.389 1.605 1.546 1.778 1.689 1.906.283.308.612.668.924 1.008"/><path stroke="#fff" stroke-linejoin="round" d="m16.086 542.005.4.349.604.616m34.704 109.678-.116-.457 1.07.457.534.227 2.145 1.291 2.98 1.933 4.133 2.616 5.098 3.134 5.878 3.482 6.462 3.657 6.84 3.648 6.81 3.48 6.357 3.144 5.467 2.637 4.132 1.955 3.328 1.703 3.07 1.889 3.367 2.52 4.227 3.598 4.646 4.136 4.617 4.127 4.135 3.563 3.194 2.44 2.491 1.591 2.03 1.021 1.812.73 1.839.724 2.386.881 3.453 1.209 5.053 1.705 7.193 2.375 8.996 2.857 9.576 2.878.875.262 9.631 2.692 1.919.537 9.694 2.455 2.586.655 9.741 2.261 3.191.741 9.777 2.1 3.733.802 9.804 1.967 4.202.844 9.826 1.859 4.598.87 9.85 1.727 4.96.87 9.876 1.573 5.282.841 9.902 1.395 5.561.784 9.929 1.194 4.995.6.795.096 2.198.233 9.944 1.054 2.793.296 9.954.955 3.157.303 9.96.891.284.025 6.339.559 2.128.183M48.166 602.3l-2.034 1.307-3.972 3.014-3.17 3.163-.18.229-2.427 3.271-1.747 3.334-1.131 3.356-.64 3.602-.102 3.298.022.336.316 3.253.057.42.122.61.133.662.018.092.122.608.007.036.13.647.003.015.122.61v.004l.087.431m5.003-68.891-.001.115-.001.092-.001.072-.007.474-.001.103-.003.193-.002.159-.004.306-.001.086-.003.228-.002.117.002.099.002.162.005.348v.039l.006.328.002.174.008.523v.036l.002.124.003.162.002.184.005.34v.042l.003.489v.278l.003.647v.164l.003.597v.253l.002.284-.025.577-.07 1.571-.012.284-.126.694-.138.764-.017.093-.032.177M554.933 781.8l1.156-.064 4.694-.26 3.632-.202 1.938-.135.765-.126.149-.162.083-.188.044-.272.003-.324-.013-.302-.001-.209.005-.164.009-.163.008-.21.003-.302-.001-.371-.005-.419-.003-.206m-211.941-40.1 1.798 1.87m-1.742-1.814 1.14 1.187.484.504m-1.568-1.635 1.165 1.214.044.046"/><path stroke="#fff" stroke-linejoin="round" d="m355.624 737.787.743.775.389.407.023.024.168.176.191.199.118.123.449.469 6.916 7.222 1.642 1.714.06.063 1.909 1.993 2.763 2.907 1.486 1.564 5.166 5.435.989 1.04 4.581 4.884 2.291 2.442 5.01 4.586 4.806 2.713.114.042 6.273 1.708 9.346 1.556 9.928 1.196 1.449.174 9.958.924 2.42.225 9.974.723 2.386.173 9.985.538 1.351.073 9.994.343.599.02 9.999.153.123.002 9.921-.017 9.989-.15 9.984-.262 9.909-.352 9.764-.42 9.55-.466 8.826-.468 7.598-.425 1.325-.077"/><path stroke="#fff" stroke-linejoin="round" d="m180.111 627.736.315.102.465.15.447.144.697.225.163.053.45.145.296.096.174.056.662.214.629.203.494.159.658.213.154.049.46.149.263.085.258.083 1.25.404.072.023.478.154.614.199.144.047.468.151.227.073.355.115.06.019 1.139.369.617.199.563.182.134.043.473.153.186.061.468.151.071.023 1.067.345.695.224.504.163.07.023.053.017.476.154.037.012.105.034.597.193 1.065.345.786.255.437.141.11.036.476.154.093.03.744.241.201.065.023.008.755.244.355.115.537.174.362.117.095.031.473.153.04.013.543.176.369.122.872.288 1.027.339.268.088.078.026.429.142.026.008 1.108.366.727.24 1.194.395.158.052.058.019.335.111.096.031 1.285.425.369.122.193.066.496.17.899.307.023.008.035.012.21.072.178.061 1.526.523.322.11 1.52.521.009.003.054.018.081.028.192.066.908.31.898.308.057.02.837.286.793.286.051.018.178.064.11.04.144.052 1.603.578.305.11 1.479.533.08.029.059.022.449.161.151.055.67.241.542.196.719.259 1.152.415.009.003.079.031.226.087.646.248.002.001H231l.904.348 1.245.478.622.239.309.119.236.091 1.001.385.328.125 1.857.714.024.01.554.212.221.085.27.104.83.343.331.137 1.533.633.74.306.123.051.205.084.803.332 1.161.48.717.296 1.21.5.189.078.197.082.29.119.184.077 1.672.75.245.109 1.37.615.172.077.074.033.811.364 1.058.474 1.395.626.441.198.039.017.21.094.126.057.802.36.599.294.126.062.166.081.363.179 1.313.644.76.373.051.025.111.055.527.259.399.196 1.7.834.156.077.507.249.86.422.027.013.288.142.181.088.103.051.563.305.472.256.678.369 1.675.909.144.078.238.129.096.052 1.492.81.892.484.94.511.786.426.222.134.075.046.72.433.228.137 1.554.937 1.576.949.212.128.127.077.042.025.451.271.767.463.407.245 1.169.704.211.127.403.271.832.557.273.182.004.003.629.421 1.118.749.255.171.37.248.758.507.329.221.661.443.496.332.01.007.671.449.577.386.206.139 1.49 1.108 1.634 1.215.06.044.03.023.01.008 1.123.835.534.397 1.492 1.11.21.156.616.458.272.203.786.646 1.64 1.35 2.928 2.41 1.124.925.493.405.001.002.429.353 1.293 1.162 6.654 5.983 7.219 6.92 1.745 1.673 7.087 7.055 3.438 3.422 7.02 7.122 5.683 5.766 2.215 2.276 4.946 5.084 6.116 6.286 2.352 2.443"/><path stroke="#fff" stroke-linejoin="round" d="m146.795 616.94-2.985-.988-.26-.087 3.245 1.075Zm0 0 1.75.581.259.085 4.282 1.399 3.393 1.105 3.104 1.006 1.318.425 2.103.679.46.149 1.727.557 1.806.582.36.116.323.104 1.183.381 2.65.854 1.025.331.729.235.643.207.377.122.758.244.604.195.351.113.041.014 1.351.435.409.132.729.235.17.055.439.142.326.105.102.033.796.256.062.021.466.15.448.144.696.225.163.053.45.145.296.096.174.056.662.214m144.142 122.236.345.358 4.738 4.918 6.697 7.044 5.794 4.071.079.025 7.429 1.593 9.994-.348 1.531-.053 9.945-1.046 8.1-.852.643-.085M24.139 550.949l.512 1.525 1.199 3.637.18.55.163.493"/><path stroke="#fff" stroke-linejoin="round" d="m26.031 556.661 1.017 3.271.552 1.81.15.477.184.581.822 2.177.206.541 1.172 2.233 1.394 2.186 1.49 2.054.161.212 1.454 1.837 1.286 1.53 1.086 1.021.205.103.857.315.213-.004.188-.103.088-.087m122.345 44.726.388.591.546.829.967 1.283 1.186 1.418.545.652 1.677 1.885 1.163 1.307 4.297 4.654.124.129 5.106 5.28 5.634 5.452 5.509 4.777 4.845 3.379 4.679 2.424.168.086 4.442 1.694.023.009.555.211 1.775.562 2.994.947 1.094.346.993.309 6.233 1.941 8.381 2.563 7.353 2.204.004.001 1.97.591 2.324.68 2.238.654 5.494 1.607 9.619 2.734.94.267 9.708 2.697.803.223 1.587.432 2.387.649 5.925 1.612 8.709 2.321 6.938 1.799 5.365 1.35 4.003.976 2.858.678.78.186m962.72-658.178-9.82-1.92-1.51-.296-9.85-1.748-2.72-.484-6.98-1.228-9.88-1.568-2.55-.404-7.31-1.16-7.62-1.092-9.9-1.39-2.44-.343-7.96-1.05-9.92-1.217-9.93-1.217-.68-.083-8.54-.965-9.94-1.051-2.27-.239-8.78-.902-9.01-.823-9.96-.888-2.32-.207-9.23-.735-9.97-.731-2.53-.186-9.38-.636-9.99-.59-2.91-.172-9.46-.527-9.98-.47-3.47-.163-9.45-.408-9.99-.341-3.78-.128-9.33-.282-10-.2-10-.201-3.143-.063-9.365-.127-9.514-.095-9.743-.092-9.882-.088-9.935-.086-9.906-.08-9.797-.078-9.618-.071-9.373-.066-9.064-.06-8.695-.052-10-.038-3.312-.012-8.392-.011-8.204.048-8.103.135-9.999.174-2.849.049-5.274.161M48.821 244.603l-2.587.846-.477.161-1.558.915-.318.389-.288.489-.59 1.207-.236.541-.222.602-.219.64-.22.657-.218.684-.204.719-.185.764-.483 2.476-.505 2.589-.603 3.1-.249 1.282"/><path stroke="#fff" stroke-linejoin="round" d="m39.77 262.102-.111.562-.51 2.553-.556 2.782-.126.62-.411 1.985-.29 1.398-.197.954-.135.652-.211.997-.065.369-.068.495-.023.285-.023.501.024.523.021.242.073.56.124.609.07.234.27.691.118.245.166.275.415.651.096.152.209.321.252.388.279.397.289.352.8.876.273.233.17.139.762.624.04.033.212.17 1.377.982.835.554.08.054.248.164 1.165.758.724.472.255.166.068.044.07.046.178.11.085.043m0 0 .07.035-.08-.041.01.006Zm0 0 .129.074.012.007.077.048m-9.613 26.519-.049.927-.113 2.534-.07 2.485.01 2.078.132 1.309.21.71.127.144.119.134.232.013.169-.082.231-.257.128-.132.338-.942.041-.174.168-.746.204-.904.14-.73.213-1.113.02-.106.066-.346.166-.949.021-.12m267.877 65.025-.132-.013-1.01-.096-.645-.061-.654-.062-2.397-.224-2.184-.204-1.12-.103-1.797-.164-1.63-.129-.715-.011-.079.035-.105.048-.041.154.243.481.052.083.616.98 1.234 1.902.394.608.282.436.953 1.472.312.481.316.457.287.414.01.014.169.244.131.189 1.545 2.23 1.387 1.769 1.397 1.782.791.819 1.236 1.28.936.969.316.31 1.318.937.532.378.057.04.575.409.012.009.031.021.005.004.487.346 3.325 1.386 3.919.902 2.087.301 2.716.39.95.121 5.028.637.606.071.85.099.433.051.107.012 4.985.582.295.033 3.209.356 1.269.141.456.051.528.058.153.017.392.044.233.025.051.006.083.009 1.139.127 8.456.909 8.923.944 9.196.933 9.269.877 2.819.238.527.045.087.007.453.039.053.004.084.007 5.119.433 4.215.298 1.334.094.353.025.139.01 2.77.196 1.079.063 1.451.085.626.037 5.144.3 7.615.36 6.752.248 4.07.106 1.641.043 4.699.074.594.005.206.001 2.178.015.403.003.334.002 1.799.002h.141l.822.001 1.174.002h.024l.644.001 1.309-.11.09-.008 1.434-.362 1.118-.418.827-.309.376-.156 1.483-.616.85-.353.222-.091m-224.905-79.265.261.031.08.009.159.018.663.086 1.538.208 1.311.182.659.091.547.076.347.048 4.652.65 6.145.865.215.03 6.558.927 7.066.98 6.837.918 6.606.861.754.096 5.62.713 6.143.759 5.917.716.969.119 4.867.596 5.907.757 6.131.843 6.506.972L360 352.5c4.525 1.765 6.99 2.68 13.5 6.5 10.273 10.715 11.777 17.849 11 31.5L336 386l-75.5-9.5c-69.963-11.54-108.671-18.449-170-36.5-27.134-9.338-41.225-14.46-50.5-22m461.024-13.401-1.309.005-7.249.01-7.318.003-7.23.003-6.987.009-6.586.024-6.028.047-3.308.037-2.007.022-4.446.06-3.423.049-2.248.03-.397.01-.921.025-.606.066-.027.003-.011.004-.001.001-.215.09-.058.024-.157.148-.052.179-.081.321-.001.036-.018.643.015 1.187.02 1.563.004.286.126 2.472.327 3.057.65 3.761 1.009 4.081 1.329 4.608 1.577 5.166.142.465 1.61 5.29.13.447.496 1.708.787 2.713.438 1.507 1.873 6.751 1.816 6.884 1.682 6.775 1.469 6.424 1.262 5.993 1.058 5.485.482 2.74.33 1.876.049.279.048.307.019.117.013.085.155.981.009.054.086.546.043.27.238 1.511.056.356.41 2.899.093.658.077.609.02.155.143 1.129.026.199.1.789.175 1.493.03.263.011.09.042.356.061.522.049.424.025.216.042.357.007.046.021.15.071.485.047.325.02.074.125.448.194.221.287.058.236-.072.347-.105.125-.038.292-.121.258-.107.91-.376.287-.124.479-.208 1.759-.765.613-.266.525-.228.59-.256.079-.034.089-.039.378-.164.683-.297.331-.144.121-.053.492-.213.956-.421 3.731-1.64 4.881-2.197 4.489-2.101 3.51-1.777 1.488-.824 1.079-.597.185-.103.327-.198 1.886-1.142 1.159-.75.733-.475 1.79-1.181 2.092-1.441 2.426-1.738.368-.263 1.843-1.355 2.053-1.509 5.394-4.024 6.387-4.867 6.88-5.401 6.879-5.623 6.386-5.541 6.028-5.639.009-.008 5.794-5.907 2.257-2.519 3.45-3.85 2.59-3.157 1.221-1.489 1.929-2.351 5.415-7.023 4.738-6.451 3.708-5.289 2.025-3.076.305-.463.014-.073.132-.744.237-1.334.003-.072-2.145-1.13-.148-.033-.021-.005-5.229-.46-8.733-.181-.136-.003h-.223l-10 .01-.941.001-8.658.088-3.446.035-6.98.092-4.698.061-7.866.078-1.883.018-8.532.062-6.472.03Zm0 0-1.208.005m-59.118 13.972-.604-3.471-.333-3.082-.123-2.349-.008-.146-.026-1.868-.015-1.199-.031-.612-.004-.073-.085-.32-.061-.183-.164-.152-.264-.108-.018-.008-.823-.058-1.889.001-3.397.044-5.343.073-5.727.085-.556.009-.406.006-1.482.024-5.95.099-7.576.145-7.119.166-6.89.191-6.889.22-7.114.254-7.563.292-7.82.32-7.885.338-7.761.345-7.451.343-7.257.338-7.183.334-5.505.249-1.719.078-7.382.32-7.44.316-5.818.248-1.578.067-7.255.317-7.013.323-6.847.34-6.752.368-6.731.406-6.777.456-6.528.645-5.988.968-5.16 1.432-4.05 2.029-3.106 2.337-2.325 2.354-1.705 2.082-1.247 1.521-.881 1.075-.609.744-.432.526c-.201 1.872-.311 2.921-.034 3.225m228.03 77.935-.796.342-2.283.982-.342.147"/><path stroke="#fff" stroke-linejoin="round" d="m460.29 402.789-.063-.551-.007-.059-.107-.929-.03-.262-.052-.453-.035-.301-.014-.123-.121-1.052-.007-.057-.015-.119-.147-1.179-.067-.533-.073-.589-.021-.165-.044-.357-.115-.828-.032-.227-.357-2.567-.231-1.491-.13-.838-.082-.528-.003-.019-.055-.356-.12-.768-.044-.284-.136-.789-.101-.583-.285-1.643-.332-1.917-1.05-5.508-1.253-6.01-1.463-6.44-1.681-6.796-1.819-6.911-1.881-6.783-.816-2.806-.788-2.709-.261-.897-.257-.841-1.51-4.948-.003-.009-1.6-5.213-1.354-4.659-1.03-4.116-.005-.018m136.441-12.622-.155-.061M444.053 411.466l1.496-.591.857-.338.286-.113.282-.116 1.143-.468 1.482-.608.491-.201 2.078-.834.675-.271.08-.032.554-.222.798-.324 2.098-.851.497-.201 1.024-.416.217-.088.182-.074.498-.212.599-.254.375-.208.179-.099.033-.019.025-.022.223-.256.004-.005.124-.319"/><path stroke="#fff" stroke-linejoin="round" d="m460.227 402.238.059.505.004.046.022.252.024.281.039.443-.02.516m0 0-.002.043.001-.02.001-.023Zm-238.921-73.135.118.008.298.017.194.01M37.17 285.099l-.66 2.586-.283 1.11-.944 3.695-.792 3.144-.49 2.038-.148.721-.216 1.342-.036.679.044 1.044.08.677.28 1.148.19.724.494 1.654.604 1.909.608 1.903.3.97.165.642.005.015.043.155.008.027.022.08.02.074.022.072v.002l.02.069.214.65.288.812.275.71.114.26.288.659.456.856.004.007.004.008.058.107.167.249.046.069.325.482.12.181.686.77.135.152.214.193.116.105.043.038m156.962-161.526-3.846 1.715-9.133 4.073-4.911 2.19-9.119 4.104-9.296 4.184-5.11 2.279"/><path stroke="#fff" stroke-linejoin="round" d="m315.844 106.84-.104-.152-.187-.141-.127-.067-.232-.039-.262-.026-.401-.006-.568-.006-.651-.006-.651-.004-.144.001-.422.002-.4.009-1.238.46-3.184 1.353-6.091 2.637-9.177 3.972-.807.349-9.175 3.975-3.781 1.639-9.172 3.982-5.828 2.531-9.171 3.986-7.527 3.272-9.165 4.002-7.376 3.22-9.154 4.025-7.679 3.376-9.14 4.058-8.027 3.563-2.828 1.271m18.894 89.492-9.828-1.847-.216-.04-9.845-1.758-.146-.026-9.845-1.678-9.61-1.569-9.281-1.459-.633-.096-2.823-.428-.652-.099-1.208-.184-3.553-.539-8.373-1.232-7.8-1.117-7.383-1.043-.723-.103-6.391-.906-4.84-.702-2.149-.311-3.328-.501-3.676-.554-4.768-.757-2.139-.339-1.326-.225-3.957-.672-1.42-.241-6.396-1.179-5.99-1.223-5.543-1.234-5.065-1.217-4.552-1.171-4.01-1.099-3.582-1.037-3.273-.988-3.073-.95-2.982-.921-2.781-.859-2.473-.764-2.06-.638-1.548-.478-1.08-.318-.652-.152m89.884-29.631-2.84 1.125-8.783 3.477-5.812 2.312"/><path stroke="#fff" stroke-linejoin="round" d="m118.462 190.284-4.917 1.913-4.664 1.814-7.379 2.882-6.163 2.334-5.885 2.046-6.76 2.082-8.629 2.444-9.206 2.474-9.102 2.333-7.563 1.912-4.838 1.224-2.528 1.187-.64 1.807.816 3.08 1.762 4.825 2.232 6.049 2.2 6.685 1.526 6.156.143.574m97.158-64.91-.281.112-.053.022-2.621 1.055-.308.124-2.388.961-.841.338-3.623 1.458-3.159 1.272-4.611 1.871m20.76-8.505-.038.016-.128.052-1.959.809-.972.401-3.048 1.259-6.845 2.825"/><path stroke="#fff" stroke-linejoin="round" d="m152.375 176.357-.129.055-.294.124-3.111 1.321-6.086 2.583"/><path stroke="#fff" stroke-linejoin="round" d="m156.51 174.512-.904.394-6.765 2.951m-99.849 73.792-.374 2.179-.339 1.378-.454 1.775m-11.411 54.274.02.089.031.092m1.86-31.151-.234.998-.764 3.118-.817 3.284M212.992 168.66l.045.009 2.015.386 1.144.22.838.161.231.038 4.168.687.228.034 2.91.428 1.689.249.613.085 4.579.631.137.019 5.912.801 1.811.242 4.576.613 6.754.901 7.01.936 7.149.961 7.208.97 7.183.964 7.069.938 6.865.898 6.897.857 7.172.815 7.697.778 8.476.74 9.193.69 9.844.626.438.023 9.987.525.938.039 9.991.416 1.443.038 9.997.265 1.955.015 10 .077 2.471-.036 9.998-.145 9.057-.358 1.484-.059.392-.015 2.048-.081.644-.042.416-.026 1.448-.093 6.451-.415.354-.022 3.789-.244 9.686-.88 3.145-.286c13.487-1.569 21.018-2.84 34.463-5.533"/><path stroke="#fff" stroke-linejoin="round" d="m213.037 168.669-3.525-.814-3.346-.939-2.819-.999-1.219-.582-.964-.461-.046-.035-1.11-.833-.131-.099-.145-.109M47.535 258.236l.011-.051.031-.137.067-.289.061-.262.12-.516-.119.514-.06.261-.099.428-.012.052Zm0 0-.059.252-.05.232-.194.867-.197 1.635-.057.574-.004.252-.019 1.146v.089l-.002.012v.058l-.004.2.033.822.008.207.028.725.001.011.01.257.138 2.43.005.105.012.25.125 2.624.071 2.794.01.36.002.107.008.302.003.108.026 2.525.004.323.011 1.034v.018l-.01 3.175-.003.484-.015.643m-8.843 41.575-.427-.185-.262.12v.44l-.205.767-.324 1.719-.54 3.082-.853 4.857-1.075 6.166-1.202 7.007-1.22 7.297-1.11 6.851-1.023 6.577-.907 6.13-.778 5.591-.635 4.959-.505 4.422-.385 3.984-.277 3.641-.18 3.397-.052 3.144.112 2.883.31 2.616.54 2.34.077.293.708 2.074.817 1.81.86 1.555.841 1.31.857 1.157.908 1.104.996 1.148 1.121 1.292.193.218 1.274 1.43 1.456 1.562 1.67 1.688 1.913 1.808 2.153 1.899 2.39 1.957 2.621 1.985 2.851 1.981 3.055 1.975 3.548 2.161 3.387 1.96 3.511 1.951 3.743 1.976 4.082 2.041 4.533 2.145 5.1 2.289 5.603 2.394.443.187 6.04 2.459 6.409 2.484 6.707 2.465.567.202.695.247.788.281.851.303"/><path stroke="#fff" stroke-linejoin="round" d="m47.435 282.437-.019.42-.119 2.64-.034.272-.111.886-.088.7-.019.157-.016.125-.001.009-.008.063-.042.338-.021.167M36.371 311.1l.034.242.01.079.071.089m571.828-180.895.22.028.486.064.296.039 1.55.432 1.573.571.649.092.342.048.698.109.258.051.734.271 1.109.63 1.819 1.188.14.095 2.724 1.847 3.616 2.517 1.435 1.027.061.043 2.578 1.844 4.236 3.132 4.103 3.167 3.782 3.016L644 153.5l2.291 2.077L648 157l.472.415.274.24.214.188.03.027.092.087.172.189L664 174m-55.686-43.385.487.034m-.487-.034-.3.043-1.538.52-3.96 1.532-7.555 2.979-9.303 3.668-3.045 1.201-7.643 2.988-7.695 3.009-9.332 3.594-7.169 2.761-9.363 3.511-1.781.668-4.654 1.746-3.753 1.335-9.435 3.356-2.637.875-8.593 2.85-2.908.887-2.593.791-4.441 1.354-9.333 2.615-9.412 2.478-2.911.686-4.079.963-.551.129-2.196.519-.121.024m415.164 52.053.243-.023.002-.788-.772-2.14-1.69-4.107-2.755-6.689-3.58-8.641-3.005-7.181-.199-.477-.12-.286-.074-.176-.772-1.844-2.339-5.514-.49-1.153-.003-.008-.056-.133-.483-1.136-1.15-2.712-2.873-6.64-1.763-4.076-3.393-7.7-1.337-3.034-3.352-7.477-1.448-3.231-4.149-9.098-.701-1.539-4.206-9.072-.672-1.45-4.246-9.054-.353-.754-4.014-8.491-2.927-6.161-.199-.419-1.932-4.07-1.139-2.175-.051-.093-.377-.45m405.418 137.58.29.016.34.017.26.009.24.009.47.011.11.003 1.39.032 2.64.061 4.32.102 5.56.127 2.68.057.9.019.51.011.12.003h.04l.2.005.28.006.61.013 1.03.022 6.73.129 3.52.057 2.67.043.25.004.23.004 6.22.086 5.37.068 4.16.048.98.012 1.58.019 1.37.017.58.006.06-.001.12-.001.2-.006.2-.009.19-.01.18-.009.15-.008.22-.022.11-.02.05-.047.02-.022v-.003l.03-.05.01-.133-.01-.021-.49-1.163-1.43-3.185-2.79-6.167-4.12-9.111-.45-1.003-4.15-9.099-1.05-2.289-.39-.856-.26-.564-.33-.726-.38-.824-1.02-2.209-1.28-2.773-1.24-2.672-.1-.213-.15-.331-.47-1.016-.01-.019-.46-.997-.06-.127-.05-.114-.16-.35-.2-.422v-.004l-.03-.062-.32-.694-.01-.037-.07-.15-.12-.259-.05-.1-.07-.144-.27-.587-.24-.502-1.34-2.843-1.14-2.418-.42-.892-.19-.411-.14-.298-.03-.053-.08-.181-.35-.742-2.59-5.489-4.37-8.994-2.1-4.326-4.48-8.942-1.71-3.431-4.58-8.892-1.38-2.682-4.66-8.848-1.09-2.08-4.73-8.812-.87-1.621-4.8-8.773-.75-1.367-4.87-8.733-.74-1.319-4.94-8.693-.84-1.472-5-8.657-1.06-1.824-.85-1.469-1.52-2.596-.59-1.005-2.91-4.977-4.27-7.256-.22-.376-.73-1.232-1.44-2.436-.3-.505v-.005l-.05-.085-2.31-3.901-.8-1.353-1.14-1.938-.01-.011-.56-.953-.18-.305-.02-.019-.03-.066-1.1-1.834-.53-.84-.02-.017-.85-1.251"/><path stroke="#fff" stroke-linejoin="round" d="m887.42 229.727-.267-.002-.463-.024-.542-.028-.579-.03-.315-.017m350.646 9.695.06.003.26.014.15.007M582.812 28.788l-9.83 1.837-5.865 1.096-9.804 1.97-7.21 1.448-9.776 2.106-7.774 1.674-9.744 2.247-8.208 1.893-9.708 2.397-8.505 2.101-9.671 2.543-8.779 2.308-.098.026-9.633 2.682-8.998 2.504-9.596 2.817-9.223 2.707-9.556 2.948L421.41 69l-9.519 3.063-9.168 2.951-9.484 3.171-8.44 2.822-9.447 3.28-7.226 2.508-9.405 3.397-5.517 1.993-9.355 3.532-4.411 1.665-9.302 3.669-3.924 1.547-9.255 3.787-1.113.455-2.956 1.209-.449.189-9.22 3.872-4.409 1.852-9.193 3.935-4.863 2.082-9.171 3.987-4.063 1.766-9.151 4.033-2.737 1.206-9.076 4.066-7.109 3.253-5.681 2.663-4.886 2.341-4.732 2.29-4.588 2.245-4.461 2.207-4.275 2.139-4.03 2.042-.564.293-3.598 1.925-2.951 1.778-2.1 1.605-.12.145-1.041 1.406-.038.173-.073 1.247.035.175.096.148.427.602.375.527 1.185.784.402.265.147.097 2.275 1.011 2.868.962 3.364.904 3.569.791M1067.14 19.586l-.04-.041-.1-.065-.54-.167-1.34-.32-2.49-.568-2.96-.674-1.02-.233-5.15-1.149-6.01-1.294-6.54-1.343-6.77-1.298-6.96-1.248-7.09-1.191-7.2-1.127-2.59-.378-4.66-.68-7.44-.984-2.596-.303-5.16-.603-8.196-.824-8.759-.739-9.135-.643-6.213-.36-3.121-.18-.037-.002-9.321-.428-9.214-.311-9.168-.224-9.213-.166-5.441-.081-3.907-.058-9.569-.141-9.707-.134-9.762-.119-9.74-.097-9.641-.066-9.472-.045-9.235-.027-8.931-.019-.28-.001-8.285-.015-8.294.011-8.118.067-8.033.146-8.036.25-.733.031-7.889.346-7.607.438-7.187.522-1.884.158-5.624.506"/><path stroke="#fff" stroke-linejoin="round" d="m762.748 3.535-2.016.18-4.591.409-5.873.522-7.51.687-8.496.815-6.031.607-8.763.882-8.416.932-5.53.62-8.596 1.065-5.133.639-4.884.673-9.219 1.262-4.538.68-9.889 1.486-.62.093-4.304.699-8.256 1.34"/><path stroke="#fff" stroke-linejoin="round" d="m658.339 15.786-9.874 1.58-2.418.388-8.16 1.39-5.978 1.019m-44.54 7.815-3.235.562-1.322.248-9.829 1.844-5.258.987"/><path stroke="#fff" stroke-linejoin="round" d="m637.887 19.144-9.71 1.627-2.784.488-9.85 1.726-6.233 1.092-3.237.57-9.805 1.754-5.619 1.006-.872.156-2.385.427M200.867 163.714l-.035.181.286.944M33.28 631.493l.237 1.277.133.714.054.29.074.398.017.094.098.529.005.026.076.409"/><path stroke="#fff" stroke-linejoin="round" d="m33.517 632.77.242 1.425.116.683.048.28.057.332.01.066.062.36"/><path stroke="#fff" stroke-linejoin="round" d="m33.759 634.195.213 1.381.092.597.023.149.043.28"/><path stroke="#fff" stroke-linejoin="round" d="m33.972 635.576.17 1.232.06.426m4.338-60.326-.513.51m1.043-255.406.055.176m7.939-34.833-.054.137-.068.173-.176.447m2.388-39.823-.162 3.36-.05 1.042"/><path stroke="#fff" stroke-linejoin="round" d="m48.724 243.531.097 1.072.072.797.26 2.889.064.699m150.791-84.982-.441-.871m16.629 6.14 1.069.199m107.664 581.354 3.338.687M526.076 39.424l-.506.112m.442-.097-.21.046m41.534 738.242.002.278M596.268 26.4l-8.899 1.578-1.988.352m161.198 813.93-.103.282M834.69 108.34l-.19.625m10.125 118.642.465.12m23.115-47.515-1.144-.11M567.373 776.593l.69.003.556.002 3.566.034 3.014.042 1.697.009 3.812-.08.771-.035 3.646-.316 3.059-.648 2.679-1.091.227-.093 2.503-1.64 2.544-2.303 2.798-3.08 3.027-4.22 3.228-5.732.055-.1 3.397-7.598 3.381-9.411.161-.448.145-.463.276-.876.009-.027.815-2.591.488-1.55.043-.137.282-.893.122-.39.39-1.238.724-2.3.28-.889.514-1.779.392-1.355.132-.459.381-1.318 1.482-5.126.589-2.039.346-1.263.082-.3.008-.029.013-.048.132-.481 1.111-4.059.586-2.142.411-1.498.164-.6.404-1.476.033-.122 1.346-5.058.49-1.843.049-.187.461-1.734.625-2.348.518-1.976.304-1.159.508-1.939 1.448-5.522 1.096-4.164.477-1.807 1.141-4.331.625-2.316.456-1.688.054-.2.456-1.687.538-1.994.65-2.406.698-2.479.438-1.554.148-.527.436-1.548 1.255-4.456.932-3.089.422-1.397.167-.552.421-1.394.236-.78 1.129-3.741 1.029-3.124.016-.048.393-1.192.29-.881.271-.824.136-.411 1.638-4.975 1.386-3.821.168-.463.587-1.621.12-.331 1.301-3.588.814-2.246.16-.401 1.13-2.828.077-.192.815-2.039.109-.274 2.821-7.06 1.029-2.41.282-.662.578-1.353.318-.746 1.179-2.763 2.056-4.815.511-1.137.432-.962.555-1.235.446-.993 3.421-7.611.456-.968.53-1.124.401-.85.543-1.152 2.956-6.271.815-1.635.635-1.275.399-.801.648-1.299 1.507-3.024 2.484-4.682.718-1.353.036-.064.248-.436.817-1.439 1.378-2.427 1.836-3.03.975-1.554.296-.47.686-1.074.098-.153.133-.228.238-.409.085-.285-.055-.117-.023-.05-.096-.143-.003-.004-.302-.13-.505-.153-.704-.212-.084-.026-.054-.016-.008-.003-.42-.126-.288-.087-.953-.288-.336-.102-.177-.054m273.955 190.885 3.379 1.195 4.404 1.477 4.479 1.343 4.104.968 3.276.351 2.642-.336.491-.086.568-.097.598-.114.584-.138.525-.167 2.74-1.301.504-.358 1.598-1.354 1.355-1.148"/><path stroke="#fff" stroke-linejoin="round" d="m982.887 734.312 2.546-2.124 1.803-1.479 2.176-1.786 2.311-1.899 2.466-1.965 2.189-1.574 1.788-1.323 1.676-1.105.168-.109m-18.62-13.163-.704-.053-.915-.194-1.268-.368-2.487-.834-4.558-1.586-6.652-2.335m21.173 16.127.377.092.54-.035.237-.028 1.14-.234 1.976-.456 3.037-.699 3.563-.822 3.551-.818 3.02-.696 1.96-.451 1.58-.385 1.88-.495 2.85-.784 4.51-1.244 5.98-1.64 7.29-1.967 8.42-2.231 9.4-2.429 9.7-2.45.35-.09 9.71-2.398.68-.167 9.72-2.341.69-.166 9.74-2.275.4-.092 9.75-2.211.31-.072 9.77-2.154.44-.098 9.78-2.107.78-.167 9.78-2.073 1.3-.277 9.79-2.049 1.99-.416 9.79-2.037 2.81-.585 9.79-2.034 3.78-.784 9.79-2.038 4.87-1.014 9.79-2.04 5.69-1.185 9.79-2.041 6.21-1.295 9.79-2.043 6.46-1.348 9.79-2.043 6.46-1.347 9.79-2.037 6.53-1.358 9.79-2.026 6.67-1.38 9.8-2.01 6.88-1.412 9.8-1.991 7.16-1.454 9.8-1.977 7.32-1.475 9.8-1.967 7.36-1.476 9.8-1.962 7.29-1.458 9.8-1.962 7.11-1.422 9.8-1.962 6.93-1.386 9.8-1.962 6.75-1.351 9.81-1.962 6.57-1.317 9.81-1.962 6.41-1.282 9.8-1.963 6.17-1.233 9.8-1.962 5.86-1.172 9.8-1.962 5.48-1.096 9.8-1.962 5.04-1.007 9.8-1.962 4.67-.935 9.81-1.963 4.39-.879 9.81-1.962 4.19-.838 9.8-1.963 4.06-.812 9.81-1.962 3.86-.773 9.81-1.96 3.61-.723 9.81-1.957 3.3-.659 9.81-1.954 2.93-.585 9.81-1.951 2.14-.426 9.81-1.948.94-.187 9.15-1.815 7.15-1.417 5.62-1.09 4.54-.832 3.88-.64 3.68-.515 3.32-.405 2.83-.309 2.2-.228 1.44-.162 1.04-.148.99-.189.63-.133.01-.003.27-.059.41-.087.42-.088.37-.081.94-.2.11-.024.17-.035.6-.129.34-.074.09-.019.44-.094.87-.186.02-.003.27-.059M471.631 529.549l.185.061.158.053.883.294.698.232.224.075.744.247.504.168 4.075 1.224 1.227.369.401.12 1.228.369 1.52.457.327.083 2.065.335 1.591.259 1.154.188.133.022.209.034.197.032 1.003.163.923.15 2.653.432.15.013 9.961.886.944.084 9.985.539 1.847.099 9.989.474 2.275.108 9.991.426 2.507.107.109.004 1.039.041 9.993.388 1.397.054 9.994.362 1.393.05 1 .036 9.994.344 2.05.071 6.14.21.048.002.076.003.077.002 5.304.182 9.993.361 1.201.043 9.992.397.701.028 9.99.461.153.007 6.279.318.285.015 1.239.062.269.014.03.001 1.078.055.276.015.818.044 2.358.127 1.647.088.436.024 2.083.112.183.01 6.007.329 3.154.163.642.033 1.477.054.453.016.642.024 1.508.013.825.008.835-.006.11-.001 2.131-.015.375-.003.907-.006.175-.001 2.649-.019.692-.005 2.812-.02 2.447-.017.387-.003 3.141-.022 1.096-.008 1.397-.009 1.56-.011.325-.003 2.879-.02.705-.005.292-.002h.021l.222-.001.167-.002.225-.001 1.416-.01.267-.003.223-.004.512-.009.122-.002.884-.016.839-.063.383-.111.276-.128.102-.047 1.047-1.119.857-1.052 1.537-1.886 1.17-1.489.137-.175 1.315-1.674.018-.022 1.332-1.696.041-.053.392-.498.886-1.142 3.348-4.313 1.356-1.747.029-.037 1.368-1.762.086-.111.069-.085.076-.093 3.722-4.561.678-.831 1.238-1.518.297-.363.762-.935.488-.598 1.609-1.972.319-.39 2.432-2.732 1.476-1.659.145-.163.288-.323 1.099-1.234 3.921-4.406 1.091-1.225.505-.567.439-.434.473-.466.879-.868 1.207-1.191 3.353-3.309.169-.167 1.132-1.117.15-.148.044-.044.233-.229 4.092-4.038 2.111-1.712.412-.335.46-.373.579-.468.956-.776 4.402-3.569 1.124-.911 1.425-1.155.071-.058 1.362-1.104.079-.053 5.374-3.604 1.449-.971.314-.211 1.458-.977 2.894-1.94 1.095-.735.02-.013.516-.346.171-.115.068-.046.332-.184 1.021-.568.527-.293 1.631-.907 3.63-2.019 1.143-.635 1-.556.964-.536 1.001-.557.384-.213 1.876-1.044.273-.151 2.016-.929.644-.297 1-.46.158-.073.319-.147.348-.161.331-.152.664-.306.146-.067.55-.253 1.242-.573 1.017-.469.094-.043 1.052-.484.788-.363.43-.199 1.051-.484 2.086-.961.442-.168.665-.252.429-.163 2.088-.793.372-.142.005-.002 1.163-.442.017-.006.117-.044.189-.072.347-.132 1.357-.515.317-.121.513-.194.412-.157.79-.3.146-.056.409-.155.379-.144.012-.005.054-.02.533-.203.817-.31.095-.036.304-.115.486-.185.195-.074.388-.147.11-.042.753-.286.351-.105.186-.056.249-.075.247-.073 4.034-1.207 4.757-1.424 4.055-1.214.078-.023"/><path stroke="#fff" stroke-linejoin="round" d="m813.436 444.217 9.766-2.15 4.209-.928 9.897-1.429 1.961-.284 2.44-.352 9.973-.728.175-.012 4.443-.324 2.18.015 10 .071 2.377.016 9.949 1.004.564.057 3.416.344.276.028m8.342 1.829 9.402 3.406 2.956 1.07 8.888 4.583.829.427.76.392 1.084.559.134.069 1.452.98 7.251 4.892 2.178 1.469.681.571 7.665 6.424.266.223 1.522 1.276 2.491 2.501 6.961 6.987 3.167 3.764.113.134 5.01 5.956.409.486.746 1.048 4.046 5.676 3.082 4.326.191.318 2.075 3.456 4.715 7.851 4.464 8.948.982 1.968.573 1.149.981 2.423 1.507 3.726 2.565 6.339 3.02 9.533 1.065 3.362.977 4.173 2.133 9.111 1.541 9.88.589 3.778.93 9.957.367 3.925.436 9.99.173 3.963.046 10 .013 2.888.005.991-.104 4.153-.236 9.503-.492 9.988-.151 3.062-.698 9.976-.146 2.086-.882 9.961-.065.73-.929 8.738-.022.2-.988 7.538-1.062 6.489-1.17 5.79-1.313 5.437-1.333 4.896-.77 2.601-.463 1.566-1.012 3.254-.03.098-.202.652-.438 1.408-.382 1.299"/><path stroke="#fff" stroke-linejoin="round" d="m884.786 439.517 8.618 1.857 4.825 1.04M947.151 313.7l-.979-.161M985.37 59.96l-.384-.128m9.336-1.629 1.362-.04m90.876 563.908.19.081m166.53-596.26-1.33-.173-.24-.03-9.55-1.245-5.45-.711m35.86 216.963-.1-.056m76.45 55.022.01.001 1.63.099.19.012.02.001m59.84 6.119 1.34.102.31.023m230.82-54.786-.29.039m34.05-19.275-1.41-.229m6.08.863-4.67-.634-1.4-.19"/><path stroke="#fff" stroke-linejoin="round" d="m1684.61 228.988-3.1-.357-2.61-.302-.29-.033-1.19-.137m6.34.769-.21-.021v-.001l-3.72-.37m19.88 1.528-7.01-.491"/></svg>