<svg fill="none" viewBox="0 0 1752 874" xmlns="http://www.w3.org/2000/svg"><path stroke="#fff" stroke-linejoin="round" d="m1552.88 764.411 1.92-.681 3.59-1.216 1.06-.353m-23.87 12.718-.12.064-.9.278-1.44.339-2.31.542-3.05.708-3.68.838-4.17.931-4.55.986-5.08 1.066-5.8 1.171-6.68 1.302-7.73 1.459-8.66 1.576-9.46 1.655-9.86 1.651-.27.044-9.87 1.569-.79.125-9.89 1.479-1.18.177-9.9 1.377-1.46.203-9.92 1.261-1.61.204-9.93 1.13-1.62.184-9.95.993-1.62.161-9.96.852-1.59.136-9.97.707-1.55.109-9.98.555-1.48.082-9.99.448-.74.033-9.31.346-3.61.117-3.62.118-4.48.145-2.74.048-1.43-.039-.08-.002-.39-.01-.14-.004-2.37-.167-3.72-.284-4.43-.348-4.5-.359-3.92-.316-2.73-.221-1.78-.146-1.1-.092-.69-.058-.52-.045-.34-.07"/><path stroke="#fff" stroke-linejoin="round" d="m1382.62 799.402 9.96-.852 1.62-.139 9.95-.991 1.64-.163 9.94-1.129 1.63-.185 9.92-1.26 1.6-.203 9.9-1.374 1.44-.2"/><path stroke="#fff" stroke-linejoin="round" d="m1335.03 802.366.03-.001 5.18-.202 9.51-.375 9.99-.452.82-.037 9.99-.554 1.51-.083 9.97-.706 1.59-.112 9.96-.85 1.6-.137 9.95-.988 1.56-.155 9.94-1.121 1.47-.166 9.92-1.251 1.32-.167 9.91-1.369 1.1-.151 9.89-1.472.79-.117 9.88-1.566.4-.064 9.81-1.64 9.2-1.609 8.44-1.537 7.55-1.427 6.53-1.275 5.67-1.149 4.99-1.048 4.47-.972 4.1-.919 3.63-.829 3.01-.701 2.29-.537 1.43-.337.86-.283.89-.379.64-.274.42-.19.66-.365.07-.037m-.53.272.49-.26m-203.18 29.22 2.31-1.629m-3.75 2.521.01-.009 1.43-.883-1.43.88-.01.012Zm0 0-2.97 1.83m-31.51-7.044v.004l-.12.235v.267l.11.448.2.701.29 1.027.38 1.335.49 1.628.58 1.902.68 2.162.75 2.143.79 1.852.83 1.443.22.368.96 1.028.43.185 1.39.4.57.045.76.059.84-.107 2.17-.378 3.18-1.221 4.48-2.152 5.1-2.69 1.29-.708 2.62-1.498m0 0 1.34-.764.02-.012 1.16-.658-1.38.794-1.14.64Zm375.65-165.617.11-.306.36-1.184.17-.588.08-.283.02-.102v-.006l.11-.513v-.003m-166.23 91.687 1.44.196.01-.001 2.72-.14 3.41-.48 3.87-.766 4.14-.999 4.18-1.181 4.2-1.307 4.19-1.376 4.15-1.391 4.1-1.29 3-1 1.5-.5 24.5-8.5c13.37-4.814 20.88-7.434 34-14 14.47-7.585 22.56-11.795 38-22 9.02-6.537 13.75-11.17 21.5-21.5 4.07-6.225 5.65-9.523 7-15m-94.61 36.247-4.83 1.907-2.48.932-2.39.897-.57.211-.41.149-2.36.841-2.9 1.032-5.96 2.018-3.78 1.234M18.406 627.872l.254.018 8.104.577 9.091.77 9.565.904 9.774 1.001 9.712 1.056 9.376 1.072 9.265 1.11 9.381 1.174 9.728 1.262 9.912 1.321.4.053 9.909 1.344 1.15.156 9.908 1.357 2.069.284 9.907 1.36 3.162.434 9.907 1.355 4.432.607 9.908 1.353 5.47.747 9.908 1.352 6.267.856 9.908 1.35 6.819.93 9.908 1.351 7.116.971 9.907 1.356 7.498 1.026 9.906 1.367 7.969 1.099 9.904 1.381 8.531 1.189 9.902 1.399 9.187 1.299 9.899 1.412 9.737 1.39 9.899 1.42 9.898 1.421.273.039 9.898 1.426 9.898 1.425.594.085 9.898 1.425 9.898 1.425.792.114 9.897 1.425 9.898 1.426.993.142 9.898 1.425 9.898 1.425 1.195.173 9.898 1.425 9.898 1.425 1.403.202 9.898 1.425 9.898 1.425 1.612.232 9.898 1.425 9.898 1.425 1.723.248 9.898 1.425 9.898 1.425 1.73.25 9.898 1.425 9.898 1.425 1.63.234 9.898 1.426 9.898 1.425 1.419.204 9.898 1.425 9.898 1.425 1.304.188 9.898 1.425 9.898 1.425 1.292.186 9.898 1.425 9.898 1.426 1.384.199 9.898 1.425 9.898 1.425 1.585.228 9.898 1.426 9.898 1.426 1.686.243 9.898 1.427 9.898 1.426 1.685.243 9.897 1.429 9.897 1.429 1.575.228 9.897 1.431 9.897 1.432 1.353.195 9.897 1.434 9.897 1.434.386.056 9.897 1.436 8.545 1.239 9.896 1.438 6.016.874 9.896 1.439 2.682.39 9.839 1.456 7.715 1.195 6.224 1.049 5.379 1.017 4.55.942 3.739.824 2.943.659 2.166.449 1.805.321 1.864.277 2.34.314 3.241.435 3.695.496 3.699.496 3.251.436 2.35.316 1.533.122 1.501.007 1.882-.33m3.379-.914-2.568.704-.811.21 2.471-.638 3.261-.916 3.645-1.061 3.631-1.077 3.222-.964 2.428-.726 1.998-.818 1.719-.722 1.752-1.164 1.832-1.489 1.08-1.051 2.101-2.034 1.893-2.114"/><path stroke="#fff" stroke-linejoin="round" d="m1.51 627.467.757-.009.423-.005 3.904-.046 6.341.179 4.764.253.961.051m-18.265-.218 2.295-.219m838.853 62.669.917.145 1.455.273.756.248.343.309.217.459.126.714.074 1.074.059 1.539.08 2.108.143 2.647.17 2.152.078 1.001.395 3.626.583 4.067.749 4.288.892 4.293 1.014 4.082 1.115 3.654.138.391.984 2.785.981 2.494.059.151.866 2.064.601 1.434.357.927L858 745m-9.346-472.679.153-.101.06-.049.04-.121-.065-.14-.502-.373-1.266-.821-2.323-1.473-3.674-2.326-5.211-3.418-5.893-4.03-.181-.124-.86-.588-1.286-.917-7.321-5.216-.164-.116-.061-.044-1.898-1.404-.21-.155-8.039-5.948-.751-.556-7.994-6.008-4.961-3.728-7.984-6.022-7.008-5.285-7.997-6.005-5.722-4.297-1.075-.808-.793-.595-.235-.176-1.184-.889-8.024-5.969-.487-.362-3.23-2.403-.038-.029-.383-.284-1.487-1.107-5.336-3.969-1.447-1.06-3.624-2.654-3.958-2.899-8.067-5.91-3.427-2.51-5.888-4.224-8.125-5.829-7.619-5.466-8.199-5.725-8.199-5.725-5.932-4.142-6.722-4.535-.099-.067-7.375-4.976-7.189-4.85-1.249-.843-.779-.506-8.383-5.452-8.383-5.452-4.914-3.196-8.485-5.292-8.485-5.293-4.857-3.03-8.484-5.03-.471-.28-8.601-5.1-3.207-1.902-8.742-4.856-8.742-4.855-1.799-1-8.885-4.589-8.885-4.589-.336-.173-9.023-4.311-4.486-2.142-3.705-1.77-9.15-4.035-1.61-.71-5.838-2.575-9.259-3.778-6.991-2.853-.116-.045-2.679-1.007-.117-.044-.408-.153-2.251-.846-9.361-3.517-.603-.227-.065-.024-.298-.112-.056-.021-.238-.082-.137-.047-.101-.035-4.25-1.459-.128-.044-3.405-1.169-.042-.015-7.062-2.425-.285-.088-9.55-2.966-.381-.118-4.616-1.434-1.909-.528-1.536-.425-2.82-.78-1.442-.399-1.545-.428-4.987-1.38-.981-.238-.003-.001-9.718-2.358-3.392-.824-2.993-.632-3.193-.676-8.195-1.733-9.832-1.826-5.253-.975-9.865-1.641-6.329-1.053-9.893-1.459-6.964-1.027-9.919-1.267-7.167-.915-.381-.04-9.945-1.05-6.574-.694-9.969-.791-5.016-.398-1.327-.105-9.984-.564-5.791-.327-9.993-.373-5.294-.198-9.128-.206-.667-.015-5.052-.114-8.028-.1-6.426-.08h-.437l-7.219.011-2.023.003-1.046.001-1.034.001-1.453.003-1.111.001-9.222.17-5.225.096-9.993.374-4.631.173-.193.008-.216.01-8.244.474-3.68.211-3.497.201-8.047.611-2.271.173-5.488.416-9.818.919-6.154.576-9.938 1.106-5.069.564-.919.103-9.917 1.286-5.761.747-9.891 1.47-5.527.822-.25.042m-2.57.432-9.862 1.66-2.464.413-.243.045"/><path stroke="#fff" stroke-linejoin="round" d="m103.227 24.148.552-.094 9.86-1.673 1.328-.225.58-.099.448-.076.121-.02.408-.069.148-.026.011-.001.01-.002.448-.076.893-.151.29-.049.343-.058.367-.061.325-.054m0 0 .033-.006.319-.053-.352.059Zm644.079 245.503 1.034 1.07 4.089 4.232 2.954 3.057 1.868 1.933 1.064 1.069.114.098.425.365.028.013.257.118.01.005.04.01.293.079.172.018.942.07.78.027.229.008.404.014.609.021.152.005 3.453.095 5.694.158 4.844.088 2.187.04 2.53.004.805.001 4.274.006 1.492-.039 5.93-.156M492.279 75.062l9.161 4.009 7.215 3.157 9.058 4.237 7.972 3.728 8.933 4.495 8.815 4.435 8.788 4.772 8.788 4.772.96.522 8.626 5.06 8.509 4.991 2.262 1.327 8.477 5.304 8.477 5.305 2.973 1.861 5.843 3.872 8.336 5.525 5.936 3.934 6.159 4.309 8.194 5.733 5.587 3.909 8.044 5.941 1.711 1.263.409.302 7.212 5.326 2.013 1.486 7.9 6.13 7.901 6.131 2.636 2.045 2.357 1.92 4.037 3.287.846.689.319.26 1.032.84.187.152.262.214 7.755 6.314.278.226 2.331 1.998.272.233.699.599.872.748 7.594 6.506 3.514 3.011 7.4 6.727 1.308 1.19 4.351 3.956 7.213 6.926 3.844 3.691 7.053 7.09 2.237 2.248 6.949 7.191.819.847 4.107 4.251L764 267.5m40.181 11.982 6.129-.148.266-.008.362-.009.436-.011.485-.011 2.934-.06"/><path stroke="#fff" stroke-linejoin="round" d="m116.693 21.863-9.861 1.661-2.26.381-.31.056"/><path stroke="#fff" stroke-linejoin="round" d="m116.22 21.943-9.86 1.664-1.977.333-.121.02-.347.063m-.354.064-.334.06-.283.053-9.826 1.86-2.671.507-2.06.39"/><path stroke="#fff" stroke-linejoin="round" d="m90.447 26.567-1.73.327-.33.063-.28.054-9.788 2.047-4.793 1.003-9.749 2.229-4.621 1.057-9.706 2.405-4.494 1.114-9.662 2.575-4.41 1.175-9.618 2.737m95.417-21.488-.021.003-.442.075-1.384.234-9.86 1.667-.789.133-.272.046-.354.064.411-.069h.001l9.86-1.67 1.26-.214.849-.144.174-.029M1129.16 185.864l-7.51-4.534-8.61-5.083-8.61-5.083-1.15-.674-.03-.021-8.67-4.998-8.66-4.997-2.65-1.53-8.72-4.895-8.72-4.895-3.79-2.128-8.78-4.781-8.78-4.782-4.51-2.455-8.86-4.652-8.85-4.651-4.81-2.53-8.92-4.519-8.923-4.52-4.637-2.349-8.991-4.376-8.089-3.937"/><path stroke="#fff" stroke-linejoin="round" d="m994.762 111.692-8.991-4.379-7.881-3.839-5.116-2.492-9.069-4.214-9.069-4.214-2.852-1.325-9.161-4.01-9.16-4.01-1.209-.53-.232-.099-9.252-3.796-9.088-3.729-9.34-3.574-8.061-3.085-9.419-3.359-7.297-2.6-9.488-3.163-6.796-2.264-9.554-2.955-6.257-1.935-.225-.067-9.618-2.736-5.681-1.617-9.682-2.503-5.063-1.31-9.743-2.252-1.685-.39m346.377 158.632 6.32 3.895 5.81 3.589 1.51.929 8.52 5.241 7.92 4.761 6.06 3.545 4.43 2.525 3.06 1.703 1.94 1.079 1.07.608.44.289 1.77.959c12.14 5.687 18.91 6.944 31 9"/><path stroke="#fff" stroke-linejoin="round" d="m1158.47 203.772-6.28-3.883-8.53-5.225-5.69-3.489-8.57-5.161-.24-.15-7.5-4.518m359.58 104.591-7.63-2.632-9.53-3.051-7.39-2.37-9.6-2.811-7.56-2.216-9.67-2.553-8.06-2.128-9.74-2.292-8.87-2.089-9.79-2.042-9.79-2.042-.2-.042-9.83-1.835-9.83-1.834-.86-.162-9.87-1.653-9.86-1.654-1.14-.191-9.89-1.487-9.89-1.488-1.03-.155-9.91-1.336-9.91-1.336-1.18-.16-9.92-1.236-9.47-1.178-9.93-1.157-7.8-.907-1.73-.204m-4.15-.361-5.08-.722-.04-.006-2.65-.376-.48-.068-2.11-.3-.6-.086-2.55-.362-4.13-.587-1.56-.221-.52-.078-6.32-.955-5.18-.808-3.59-.601-1.73-.334-.05-.008-.83-.162"/><path stroke="#fff" stroke-linejoin="round" d="m1259.47 241.557-4.44-.603-.07-.009-1.69-.23-1.59-.216-2.74-.373-5.24-.711m18 2.323-.34-.042-7.02-.868"/><path stroke="#fff" stroke-linejoin="round" d="m1260.73 241.657-2.73-.355-.14-.017-3.52-.457-5.4-.702m384.26 105.411-.26-.183-3.83-2.695-3.33-2.284-4.61-3.214-2.21-1.533-5.73-3.8-1.04-.683-6.48-3.989-7.39-4.065-8.32-4.103-9.21-4.103-9.28-3.739-.95-.383-9.39-3.44-1.95-.715-9.49-3.139-3.16-1.043-9.59-2.844-4.55-1.352-9.67-2.567-6.14-1.633-.85-.217-9.73-2.326-7.97-1.906-9.78-2.116-7.05-1.528m161.91 66.374-1.94-1.331-2.37-1.629-2.24-1.513-3.66-2.484"/><path stroke="#fff" stroke-linejoin="round" d="m1691.36 396.17.05-.058.28-.289v-.008l.1-.147.02-.125-.01-.024-.21-.218-.55-.443-1.04-.785-.45-.337-.03-.029-.05-.036-1.11-.843-2.23-1.776-2.79-2.378-3.31-3.046-3.8-3.776-4.08-4.183-4.08-4.205-.07-.069-4.01-4.06-3.69-3.549-3.54-3.193-3.59-2.985-3.83-2.924-.13-.1-.51-.382-4.25-3.026-3.24-2.196"/><path stroke="#fff" stroke-linejoin="round" d="m1691.81 395.543-.11.075-.14.078-.09.052-.39.191-.26.104-.05.025-.31.123-.02.009-.23.08-.36.126-.3.103-1.28.385-.78.203-.43.115-.3.077-.13.035-.1.026-.29.072-1.64.405-.21.05-.45.108-.05.011-.05.012-.15.036-.45.108-.35.084-.15.037-.17.04-.01.001-.17.042-.07.016-.13.03-.17.041-.11.026-.53.125-.11.027-.07.016-.1.025-.03.007-.2.049-.14.033-.09.024-.28.069-.1.023-.01.002v.001M862.035 278.055l-2.996-1.082-.021-.007-.214-.078-2.775-1.171-.048-.023-2.223-1.057-1.461-.753-.185-.095-.083-.043-.414-.22-.734-.39-.726-.396-.387-.206-.209-.093-.171-.047-.888-.394"/><path stroke="#fff" stroke-linejoin="round" d="m1562.3 451.62.01-.058.02-.13-.01-.054-.01-.06-.08-.122-.09-.042-.55-.238-1.24-.45-.49-.177-1.64-.574-1.67-.589-.41-.143-.39-.137v-.001l-.78-.274-1.08-.379-2.72-.954-.91-.325-.95-.339-.79-.285-.45-.158-.87-.314-.69-.246-2.36-.843-1.56-.571-1.13-.415-.73-.266-.08-.031-.29-.106-1.82-.666-.58-.212-2.08-.764-2.33-.885-.7-.263-.04-.016-1.27-.482-1.25-.474-3.5-1.327-5.32-2.106-.18-.071-2.03-.802-.15-.061-1.81-.717-6.5-2.631-.75-.301-.21-.087-1.84-.744-.12-.052-.11-.044-.82-.331-4.2-1.707-.09-.038-.02-.006-.83-.339-.77-.313-.05-.019-.05-.023-.18-.071-.11-.045-5.38-2.189-1.06-.429-7.6-3.07-4.8-1.934-6.75-2.682-8.96-3.561-9.31-3.641-5.85-2.289-.35-.135-.01-.004-.01-.003-.37-.147-.24-.091-.09-.036-1.12-.438-9.33-3.583-6.04-2.319-3.01-1.155-.43-.159-9.36-3.513-2.36-.885-.46-.176-5.96-2.233-.24-.093-1.73-.629-.62-.227-9.4-3.426-6.88-2.51-9.44-3.303-9.51-3.328-9.29-3.089-.55-.184-.02-.008-.98-.325-.17-.055-.84-.282-1.13-.373-4.48-1.492-.71-.236-.7-.232-.67-.223-.25-.081-1.79-.563-.11-.035-.28-.088-1.37-.431-.11-.034-.25-.077-.11-.036-.76-.238-.22-.068-.04-.012-.32-.1-.29-.092-.17-.055-.2-.06-.17-.054-.12-.039-.15-.047-.12-.038-.03-.008-.04-.014-.41-.129-.23-.071-.14-.045-.03-.009-.08-.025-.1-.031-.17-.055-.48-.15-.59-.184-.03-.009-.46-.145-.32-.101-.13-.039-.59-.188-.4-.123-9.54-2.994-.79-.248-7.33-2.167-.81-.24-9.6-2.833-3.03-.897-2.22-.657-9.44-2.64-9.63-2.695-5.28-1.48-9.67-2.568-9.66-2.567-5.88-1.561-9.7-2.443-9.69-2.442-6.18-1.555-9.73-2.313-9.73-2.313-5.99-1.424-.25-.056-7.81-1.729-1.06-.234-1.37-.303-9.76-2.161-5.72-1.263-3.63-.74-9.8-1.992-9.8-1.992-3.15-.639-9.83-1.817-9.83-1.817-7.76-1.432-9.86-1.643-9.86-1.642-9.1-1.515-9.88-1.514-8.58-1.314-9.89-1.514-1.44-.222-9.9-1.423-1.02-.147-9.9-1.423-9.28-1.335-.23-.032-9.91-1.366-2.54-.351-1.25-.172-8.46-1.166-1.4-.194-3.63-.5-3.06-.422-.01-.001-9.91-1.337-4.553-.615-3.74-.504-.16-.022-.08-.01-6.758-.912-2.59-.349-2.412-.326-6.412-.85-7.354-.976-5.639-.749-2.377-.315-.246-.033-.172-.022-.12-.016-.237-.032-5.742-.762-1.623-.213-9.915-1.3-9.915-1.301-3.33-.436-2.818-.367-3.689-.481-.259-.033-7.416-.966-5.521-.719-.946-.123-9.675-1.26-2.461-.321-8.221-1.094-4.689-.674-.397-.057-1.057-.178-.432-.073-.25-.042-.12-.02-.127-.022-.334-.056-1.331-.224-3.909-.741-.641-.137-3.355-.721-.735-.182-3.178-.786-3.629-1.061-.03-.009m154.745 153.159.16-.005 10-.327 4.15-.135 9.99.31 4.63.143 9.96.852 4.47.383 9.91 1.351 3.84.523 4.52.857 8.01 1.514 9.69 2.446.66.165.43.11 8.57 2.659.42.13 2.77 1.002 4.35 1.572 2.1.835 1.59.636 1.12.444.4.159.4.16.34.136.82.326 1.45.579.23.092.81.302.97.365.26.063.12.028.45.108.17-.019.33-.077.19-.042M777.508 279.081l-.148.018-.678.085-.54.067-.357.045-.188.031-.105.049-.028.024-.013.066.054.083.088.093.087.091.22.295.484.699.88 1.308.248.372.689 1.038.067.1.104.156.303.456.791 1.226.911 1.412 1.753 2.86 1.565 2.783 1.133 2.406.736 2.236.375 2.278.009.471.013.752.002.065.023 1.241-.246 2.995-.425 3.132-.493 2.935-.445 2.401-.283 1.527-.209 1.375-.22 1.947-.322 3.248-.512 5.28-.66 6.784-.769 7.758-.836 8.198-.86 8.096-.826 7.536-.729 6.52-.572 5.046-.352 3.114-.181 1.716-.057.854.021.525.051.734.068.829.073.813.067.685.047.443-.014.555-.113 1.021-.254 1.84-.435 3.013-.526 3.607-.514 3.505-.017.116-.444 3.054-.27 1.906-.172 1.89-.154 3.008-.191 4.687-.023.571-.35 8.64-.399 9.992-.047 1.197-.387 9.992-.112 2.914-.37 9.993-.071 1.933-.069 1.864-.028.8-.346 9.994-.105 3.049-.169 5.128-.031.928-.01.31-.025.771-.222 6.727-.12 3.739-.021.653-.303 9.461-.034 1.086-.317 9.995-.087 2.729-.099 3.094-.071 2.185-.095 2.95-.066 2.06-.111 3.446-.072 2.289-.318 9.995-.012.379-.032 1.007-.305 9.996-.034 1.12-.076 2.498-.282 9.996-.101 3.568-.205 8.128-.136 5.394-.221 9.997-.076 3.445-.189 9.999-.063 3.329-.155 9.999-.03 1.94-.019 1.238-.115 9.472-.043 3.518-.096 10-.02 2.08-.078 9.999-.003.457-.055 8.127-.035 5.096.007 2.783.003.044.047.84.017.296.137.326.02.019.2.197.076.052.75.203 1.656.26 2.964.409 4.671.649 5.76.83 6.225.949 6.062 1.009 5.264 1.007 4.446.949 3.606.833 2.744.662 1.858.43 1.504.307 1.683.29 2.395.381 3.645.58 4.278.68 4.289.681 3.674.585.148.024 2.283.362 1.457.197.76.014.221-.048.35-.137.531-.208.459-.18.206-.081.754-.296.799-.313"/><path stroke="#fff" stroke-linejoin="round" d="m989.1 435.191.548-.1 9.836-1.803 3.446-.631 9.94-1.037 4.04-.42"/><path stroke="#fff" stroke-linejoin="round" d="m843.302 689.432.353-.161.219-.327.083-1.15-.054-2.633-.189-4.777-.328-7.587-.28-9.774-.042-10-.006-1.334.302-9.995.068-2.271.776-9.969.201-2.594.662-5.577.837-7.058 1.398-9.027.535-3.452 1.854-9.827.427-2.263.239-1.078 2.164-9.763.139-.627 2.579-9.661.371-1.388.846-2.616 2.66-8.227 1.366-3.519 2.846-7.33 1.309-2.856 2.58-5.633 1.184-2.584 1.885-3.547.473-.89 3.558-6.693 5.217-8.531 1.523-2.491 5.75-8.181 1.799-2.559.852-1.052 3.793-4.678.543-.67.288-.356 2.865-3.534 6.844-7.291 2.327-2.478 7.381-6.748 2.661-2.434 7.893-6.141 3.06-2.381 8.367-5.477 3.538-2.315 8.767-4.81 3.89-2.135 4.164-1.885 9.039-4.092 9.405-3.398 4.13-1.491 9.657-2.6 1.578-.425M797.61 279.514l.736.014 3.534.069 6.107-.021 5.863-.24.943-.101L836.5 275l12.5-3m712.83 179.49-.18.163-.28.247-.04.034-.77.713-.98.886-.74.619-.35.299-.06.046-.55.412-.72.531-.05.031-1.29.793-1.32.697-1.21.569-.08.033-.94.399-.72.295-.29.109-.22.081-.35.122M252.684 247.004l-.225.119-.028.028-.15.147-.16.341-.167.615-.22.972-.313 1.418-.436 1.872-.584 2.332-.761 2.802-.964 3.282-1.162 3.845-1.359 4.491-1.549 5.224-1.736 6.04-1.834 6.666-1.843 7.099-1.762 7.335-1.589 7.373-1.376 6.944-.791 4.266-.059.319-.065.353-.206 1.111-.826 4.689-.49 2.86-.179 2.206.105 2.732.364 4.436.594 7.318.469 5.642.321 3.864.857 9.963.09 1.038.901 9.959.167 1.846.962 9.953.19 1.963 1.003 9.95.194 1.93.709 6.885.441 4.286.054.524.361 3.49.066.648.366 3.54.38 3.684 1.008 9.949.095.935.993 9.951.028.279.929 9.402.665 6.769.16 1.629.069.71.044.44.596 6.074.37 3.762.038.387.198 2.019.01.1.545 5.53.301 3.05.194 1.96.041.41.427 4.297.335 4.788.096 5.251-.247 6.098-.173 1.823-.523 5.51-.95 7.697-1.009 7.187-.873 5.802-.079.518-.459 3.022-.144 2.29.312 2.056.829 2.836 1.405 4.628 1.835 5.964 2.117 6.844 2.256 7.274 2.252 7.257.292.942 1.82 5.867 1.84 5.937 1.439 4.641.906 2.923.155.476.277.849.091.279.222.516.069.161.195.165.233.065 1.3.263 3.664.574 7.18 1.081 9.889 1.489 1.995.3 9.889 1.488 5.473.824 9.888 1.487 7.709 1.159 9.889 1.486 8.668 1.303 9.89 1.484 8.312 1.248 9.89 1.483 8.257 1.238 9.889 1.482 8.514 1.276 9.889 1.482 9.091 1.361 9.89 1.482 10.002 1.499 9.889 1.481 9.89 1.482.766.115 9.889 1.481 9.89 1.482 1.152.172 9.889 1.482 9.89 1.481 1.259.189 9.89 1.481 9.889 1.482 1.077.161 9.89 1.481 9.89 1.482 1.239.186 9.89 1.481 9.889 1.481 1.759.264 9.89 1.481 9.889 1.481 2.649.397 9.889 1.481 9.89 1.481 3.924.588 9.89 1.482 9.889 1.482 4.149.622 9.889 1.484 9.89 1.484 3.275.492 9.889 1.487 9.888 1.488 1.261.19 9.888 1.494 7.957 1.202 9.887 1.501 5.07.769 9.886 1.506 2.51.382 9.885 1.51.294.045 8.321 1.272 6.762 1.032 5.509.842 4.569.699 3.945.605 3.311.508 2.671.41 2.022.311 1.368.211.849.103.468-.012.307-.025.414-.122.539-.198.232-.086"/><path stroke="#fff" stroke-linejoin="round" d="m290.714 297.226-1.5-.964-1.829-.654-2.281-.474-2.849-.424-2.367-.336-.846-.121-.32-.045-3.72-.426-3.411-.196-1.542.111-.085.006-.985.071-1.323.726.17.033.184.012.13-.021"/><path stroke="#fff" stroke-linejoin="round" d="m289.185 296.338.05.032 1.436.924 1.283 1.407 1.129 1.623 1.029 1.604.975 1.35.975.86.071.058 1.702.585 3.148.517 5.039.63.289.036 8.253 1.031.953.119.189.024.318.04.297.037.39.049.32.039 1.084.136.049.006.121.015.143.018.561.07.015.002.597.075.232.029.231.029.237.029.238.03.345.043.032.004.088.011.392.049.269.034.919.114.072.009.243.031.609.076.576.072.128.016.032.004.114.014.066.008.63.079.024.003.12.015.367.046.461.058.675.084.154.019.314.04 1.703.212.515.065.338.042.543.068.04.005.148.018.743.093 1.284.161.281.035.08.01 1.146.143.299.037.453.057.066.008.793.1.126.016.125.015.922.116.131.016.918.115.082.01.197.025 1.825.229.523.065.19.024.731.091.094.012.068.009.718.09.129.016.548.068 1.462.184 2.05.258.886.111.273.034.207.026.668.084.353.045 3.708.532.133.029.777.171.283.063.769.168.115.026.965.49"/><path stroke="#fff" stroke-linejoin="round" d="m296.062 304.138 1.696.581 3.144.516 5.15.643.172.021 8.249 1.029 1.171.146.173.022.946.118 1.338.167.494.062.601.075.541.067.856.107.391.049.136.017.259.032.348.044.977.122 1.363.17.196.024.069.009.896.112.384.048.44.055.77.096.336.042.064.008 3.118.39.237.03.649.081 1.635.204 1.107.139.225.028 1.497.188.195.024.918.116 1.277.16 1.824.229 1.596.2.112.014.799.1.344.043.081.01m12.787 2.221-1.039-.547-.015-.004-.755-.174-1.338-.308m3.099 1.096.002.003.528.718.156.881-.098 1.006-.23 1.097-.073.348-.17.806-.058.183-.204.648-.06.191-.027.085-.545.946-.004.006m-85.483-25.824.209-.013 1.265-.076.227-.014.874-.052 3.368.224 3.671.445.131.019.847.123 2.506.366 2.803.412 2.24.454 1.785.628"/><path stroke="#fff" stroke-linejoin="round" d="m354.796 319.672-.392.321-.368.302-.79.206-.428.112M26.328 57.049l9.595-2.818 2.159-.596 9.639-2.663 2.243-.568 9.693-2.456 2.81-.64 9.751-2.22 3.882-.786 9.801-1.985 4.718-.854 9.84-1.78 5.304-.857 9.872-1.594.689-.107 5.632-.804 9.899-1.413 5.688-.704 9.924-1.228 5.586-.586 9.946-1.043 5.321-.454 9.964-.851 4.887-.317 9.979-.645 1.067-.05 2.134-.088 2.145-.09 9.991-.418 3.891-.076 9.998-.198 4.003.003 9.724.005 1.224.003C346.161 29.779 387.609 38.723 451 59c27.633 10.046 43.898 17.026 73.5 30.5"/><path stroke="#fff" stroke-linejoin="round" d="m397.053 51.741-2.381-.505-6.79-1.443-1.795-.381-2.565-.545-1.077-.228-2.548-.455-1.169-.208-6.405-1.141-4.941-.881-5.73-.867-9.888-1.495-5.98-.771-9.918-1.277-5.521-.604-9.941-1.088-.452-.05c-40.235-3.02-57.704-3.363-84.452-2.802-84.04.111-129.758 8.196-210 30"/><path stroke="#fff" stroke-linejoin="round" d="m396.661 51.643.392.098 8.838 2.228 5.66 1.426.885.261 9.592 2.83 1.533.451.346.102.025.007 1.323.391 1.574.464 8.974 3.034 1.451.491.08.027.003.001 5.492 1.858 9.363 3.512 7.237 2.714 9.261 3.772 7.81 3.18 9.168 3.994 8.241 3.591 9.081 4.188 8.526 3.932 8.98 4.4 8.781 4.303 8.863 4.63 9.003 4.703 8.73 4.876 8.731 4.876.46.258 8.58 5.137 3.359 2.012 5.988 3.586 8.426 5.385 8.426 5.386 1.115.712 6.059 4.115 8.273 5.618 3.709 2.518 8.121 5.835 2.315 1.663 5.766 4.143 1.951 1.401 2.712 2.053 4.722 3.575.087.066.099.075 2.306 1.746 4.088 3.094.516.391 3.771 2.855 7.828 6.223 2.987 2.375 1.087.865.331.262 1.052.837 2.243 1.783 2.479 1.971 5.813 4.856.345.288.718.6.829.692 7.674 6.411 1.764 1.474"/><path stroke="#fff" stroke-linejoin="round" d="m690.534 212.183.069.061 7.498 6.616 7.498 6.616.97.856 7.281 6.854 7.042 6.631 3.283 3.258 7.097 7.045 1.934 1.92 6.949 7.191 3.057 3.164 6.847 7.289.552.588 4.5 4.789 2.389 2.441.397.31.685.535.276.033.556.035.808.052.46.033.009.001.46.037.35.029.723.051.488.022.426.032.603.027.074.003.683.021.212.007.112.004"/><path stroke="#fff" stroke-linejoin="round" d="m775.321 278.887-.428.062-.937.099-.812.055-.415.022-.57-.008-.552-.018-.801-.047-1.206-.067-1.42-.077-1.44-.076-1.267-.066-.651-.032-.112-.006-.139-.006-.667-.035-.091-.005-.475-.03-.594-.038-.754-.042-.839-.048-.02-.001-.449-.028-.46-.028m12.405.63.517.006"/><path stroke="#fff" stroke-linejoin="round" d="m774.02 278.959-.833.084-.56.054-.468.02m1.294-.059.636-.048.873-.094.309-.044m467.309-39.106-.07-.017-.47-.112-1.15-.276-1.29-.27-1.41-.278-1.44-.218-1.37-.166-1.21-.121-.95-.085-.58-.055-.31-.021-.1.02-.14.044-.09.093-.05.179-.02.298v.438l-.01.393v.203l-.01.714-.01.794-.01.833"/><path stroke="#fff" stroke-linejoin="round" d="m1656.05 381.704-.36-.258-1.1-.796-.97-.694-1.04-.749-3.96-2.774-2.19-1.532-.24-.162-.74-.503-5.95-4.049-7.98-5.262-8.42-5.397-.86-.546-8.48-5.286-.95-.587v-.001l-.09-.058-.8-.499-8.56-5.165-.22-.133-2.38-1.431-2.47-1.435-6.07-3.534-.74-.427-2.39-1.393-.09-.054-5.74-3.196-2.75-1.53-3.68-2.05-8.84-4.672-3.82-2.017-8.95-4.445-4.3-2.133-9.08-4.195-4.87-2.25-9.19-3.927-5.53-2.362-9.3-3.687-6.12-2.427-9.38-3.467-6.63-2.453-9.45-3.265-7.08-2.444-9.51-3.075-7.44-2.404-9.58-2.858-5.03-1.501-.03-.008-.14-.042-.05-.016-.2-.057-.09-.029-.12-.036-.14-.039-.02-.006-.13-.04-.03-.011-.25-.074-.1-.029-.17-.051-1.46-.436-9.65-2.621-8.66-2.351-9.71-2.372-9.51-2.323-9.78-2.118-9.77-2.119-.75-.162-9.81-1.931-9.81-1.93-1.42-.279-9.84-1.793-9.83-1.792-1.81-.329-9.85-1.697-9.86-1.698-1.91-.33-9.87-1.639-9.86-1.64-1.76-.292-9.87-1.599-9.87-1.598-.27-.045-9.88-1.572-7.32-1.165-9.88-1.567-3.34-.53-3.87-.618m425.2 150.273-.16-.12-.25-.185v-.003l-.16-.12-.25-.185-.12-.088-.04-.029-.05-.04-.2-.147-.31-.228-.33-.249-.03-.023-.14-.1-.32-.238-.09-.069-.07-.05-.03-.019-.02-.023-.04-.023-.07-.055-1.01-.75-5.36-3.92-.13-.101-1.03-.74-.74-.53-.11-.08-.13-.091m11.19 8.206.06.038.02.014.36.268.01.009.43.319.01.012.1.07v.004l.03.021.2.147.02.016.02.01.03.026.1.074.02.011.4.3.05.039.13.1.03.021.7.527.01.01.07.048.05.037.1.078.13.094.05.039.08.058.12.095.06.04.15.111.21.159.25.192.07.052.5.374.04.026.09.073.22.164.02.012.02.019.2.145.22.166.02.011.02.019.01.004v.002l.03.023.4.302.07.047.26.195.29.225.02.009.03.024.04.033.07.05.16.12.07.055.16.12.02.012.06.051.03.016.08.066.21.154.03.02.32.244.02.015.1.074.55.419.18.129.01.006v.001l.05.039v.004l.01.001.07.058.04.026.01.008.02.019.21.157.33.245.06.046.09.065.05.04.05.042.02.011.33.254.26.195.04.026.14.105.04.031.08.062.01.004.09.065.02.017.02.017.34.256.1.075.1.076.1.074.03.02.11.087.38.285v.001l.1.073.09.067.19.143.05.036.12.088.01.007.14.108.26.192.1.079v.001l.05.035.02.016.01.007.01.007.03.025.12.089.26.193.07.054.11.085.03.016.3.228.02.011.04.035.04.031.08.056.17.128.22.168.19.139.01.009.12.087.06.049.21.155.06.048.13.099.01.009.06.046.04.025.24.183.09.071.01.009.08.058.2.149.3.228.05.04.12.086.02.017.01.008.07.053.02.016.06.045.17.126.12.094.16.123.07.053.02.014.23.175.35.262.06.044.07.054.07.054.03.02.06.047.08.062.16.121.05.034.25.19.04.032.02.017.05.034.14.113.35.265.08.062.06.049.04.028.01.006.08.061.07.06.15.116.03.021.28.217v.002l.07.046.17.132.13.1.16.127.12.089.05.038.01.01.07.057.01.003.06.05.14.111.13.101.16.121.03.024.06.048.22.165.16.127.15.113.01.004.02.018.03.022.02.02v.001l.07.047.09.07.03.027.01.004.05.047.19.151.02.014.05.042.07.05.01.012.31.245.01.011.11.091.06.041.05.042.02.017.01.011.04.028.26.208.07.056.07.057.06.046.05.044.03.021.1.079.14.12.11.08.06.048.04.035.01.005.05.041.01.015.03.023.18.138.13.11.02.014.06.044v.002l.02.019.15.118.18.142.03.029.13.104.01.004.05.042.01.006.01.013.03.019.01.012.01.007.12.101.05.045.14.12.02.02.12.097.04.039.07.059.36.304.2.172.06.051.6.507.83.714 1.41 1.307.42.4.16.147.18.168.08.075 1.84 1.958 1.43 1.847.11.168 1.02 1.765.65 1.689.07.196.3 1.62.03.264v.37l-.01 1.56-.01.518-.03.707c-.5 2.418-1 3.587-2.02 5.116M1232.1 242.187l-.15-.022-.06-.009.06.008.01.001.3.032.59.057.95.088 1.21.125 1.38.172 1.44.224 1.41.286 1.37.344.29.086 1.03.312 1.27.448 1.21.496 1.05.563-1.96 1.102-12.5 3-31.5 4.5-39 6-90.5 12c-53.34 6.1-83.708 8.275-138.5 10.5 0 0-33 1.5-33 2m333.45-42.335v-.001m-962.432 51.677-.274.098-1.104.585-.175.093-.071.079-.282 1.16.43 1.611.024.065.863 1.993.737 1.673.308.697"/><path stroke="#fff" stroke-linejoin="round" d="m269.666 301.198.313.711 1.209 2.526 1.325 2.37 1.404 1.945 1.525 1.318 1.882.78 2.742.536 4.019.524 5.719.747 7.023.917 2.365.308.252.033.397.051.945.124.204.026.131.017.055.007.111.015.577.075.079.01.158.021.775.101.071.009.076.01.745.097.184.024.803.105 1.024.133.483.063.55.071.141.019.047.006.332.043.442.058.331.043.265.034.952.124.959.125 1.072.139.486.064.579.075.274.036.454.059.039.005 1.938.251.279.036.288.038.251.032.333.043.774.101 1.32.171 2.322.301 1.018.133.011.001.024.003.59.077.972.126 1.164.15 1.815.236 2.345.304.246.032.221.028.072.009.46.06.25.033.653.084.09.012.192.025 2.994.387.487.063 2.948.382.869.112 1.456.189 1.518.197 2.259.292 4.377.567 2.979.311.343.02 1.92.018.283-.025M774.5 279l-22-.59h-7l-9-.91h-26l-19-1m-171.395 1.351-1.519-.145-2.444-.243-9.951-.989-9.951-.99-1.449-.144-9.947-1.031-9.946-1.031-3.233-.335-3.631-.395-9.302-1.013-.849-.092-3.388-.369-.776-.084-3.844-.418-9.936-1.125-9.937-1.125-.834-.094-9.932-1.158-9.934-1.159-9.93-1.181-9.33-1.109-9.929-1.189-7.897-.946-1.055-.127-9.928-1.196-8.552-1.031-9.928-1.202-8.134-.985-9.927-1.205-7.698-.935-9.928-1.207-7.244-.881-9.926-1.208-5.862-.713-9.927-1.209-3.576-.435-9.926-1.21-.406-.05-2.81-.342-.818-.099-2.658-.324-1.12-.15L252 247m198.457 23.875 3.454.376.776.085 3.388.369.759.082 3.47.378 5.848.637 4.094.445 9.947 1.033 9.947 1.032 3.231.335 9.95.99 9.951.99.911.091 2.983.296 1.282.123m76.169 6.914 9.965.839.278.023 9.966.814 3.708.302 2.564.209 9.968.798 2.393.192 7.671.617 4.111.335 1.707.142.472.043.41.039 1.598.131 4.038.325 7.746.618 9.969.795 2.78.221 9.838.786 5.982.478 9.968.801 6.96.559 9.967.809 6.055.492 8.138.675 1.56.129.108.009 3.251.269 9.964.846.592.051 8.538.743 4.976.442.434.039 1.606.142 1.086.098.863.078 4.049.364 4.974.452 3.943.363 2.907.27 1.869.174 1.195.075m-136.183-11.593-.464-.046-1.694-.143-4.09-.333-7.642-.616-9.968-.799-2.355-.188-9.967-.815-6.231-.509-5.083-.429m184.854 15.414-.291.031-.45-.205-.943.015-1.211-.082-1.863-.177-2.898-.275-3.928-.368-4.952-.457-4.451-.406-1.52-.138-1.172-.105-.434-.039-5.374-.483-8.491-.743-9.964-.848-.531-.045M255.79 232.22l-.177.018-.444.046-.55.08-.403.135-.379.249-.502.414-.77.631-.899.748-.886.76-.73.671-.434.48-.203.462-.036.622.062.955.097 1.466.113 1.726.114 1.736.098 1.496.038.569.028.436.206.601.516.285"/><path stroke="#fff" stroke-linejoin="round" d="m527.981 280.278 1.308.093.327.026 2.401.195 4.792.41 7.509.663 8.744.762 8.477.707 6.991.532 2.015.15 2.758.204 5.18.3 5.972.323 6.881.263 5.281.145 3.126.086 1.364.03 7.507.167.186.004 8.102.154 3.401.059 3.273.057 4.035.07 4.092.042.562.006 1.496.015.475-.019.252-.01m-2.223.014.636.032 1.947.05 3.806.071 6.265.116 8.056.157 9.182.194 9.65.226 7.6.204 1.222.033.647.017m-166.982-16.147.018.007.211.016"/><path stroke="#fff" stroke-linejoin="round" d="m514.727 270.423-.293.089-.14.167.044.264.21.376.361.502.407.515.089.112.623.766.712.881.795 1.009.872 1.055.945 1.019.017.015.736.658.257.229.086.057.982.647 1.153.534 1.264.394.209.044 1.427.283 1.581.196 2.322.152.23.01m-13.598-7.197-.613-.752m130.012-88.357.556 3.163.519 2.95.158.894.041.237.045.255.088.497.276 1.552 1.029 5.803.056.318.095.535.097.546.073.412 1.759 9.844.233 1.3.74 4.097m-6.987-40.879.035-.136.133-.072.223-.027"/><path stroke="#fff" stroke-linejoin="round" d="m644.23 175.479-.117.189-.058.259.122 1.029.42 2.501.393 2.228.427 2.424.556 3.145M274.961 234.55c.133-.167.228-.169.438 0l-.054-.562-.499-5.269-.943-9.956-.665-7.351-.902-9.959-.758-9.233-.655-7.968-.355-5.124-.137-1.971-.693-9.976-.006-.118-.147-2.804-.522-9.987-.209-4.006-.054-1.524-.348-9.928-.061-1.739-.088-2.493-.005-.164-.016-.439-.016-.478-.139-7.818-.015-.836-.066-3.732v-.033l-.075-4.201-.001-4.452v-.087l-.001-1.155v-.715l-.001-3.089-.002-6.981.111-6.44.004-.238.092-5.36.05-2.966.016-.918.007-.422.02-.68.111-3.745.034-1.171.044-1.471.24-8.152.12-3.137.382-9.993.317-7.252.124-2.84.267-6.112L270 37.5V37M13.836 534.586l.029.032.558.614 4.977 5.481 5.611 5.706.095.089 5.791 5.288 6.058 4.827 6.438 4.345 6.932 3.843 2.356 1.05 5.249 2.341 8.455 2.99 9.492 2.642 9.769 2.137.947.207 9.839 1.787 1.958.356 9.874 1.581 2.857.458 9.889 1.487 3.629.546 9.889 1.486 4.263.64 9.889 1.484 4.39.658 9.889 1.483 3.998.6 9.889 1.481 3.072.461 9.89 1.48 1.598.24 9.89 1.479.503.075 9.685 1.446 9.372 1.397 9.465 1.409 8.959 1.332 7.846 1.165 6.119.909 3.772.56 1.995.281.796.072.239.02.35-.042.481-.103.299-.074"/><path stroke="#fff" stroke-linejoin="round" d="m8.323 528.148 4.704 5.494.809.944.043.048.544.598m241.19-302.994-.138-.028-.415-.083m-8.073 14.64-.227-.56-.134-.987-.031-.22-.184-1.298-.245-1.726-.226-1.612-.144-1.324-.004-.864.15-.579.311-.464.504-.518.729-.739.841-.845.837-.839.72-.719.492-.486.387-.308L252.5 232c.099-.165.194-.189.5 0"/><path stroke="#fff" stroke-linejoin="round" d="m26.572 213.518 5.685.951 1.767.295 4.561.763.374.063 2.361.377 2.101.337 8.887 1.423 9.882 1.535 4.366.679 9.885 1.509 5.199.794 9.887 1.5 5.97.905 9.887 1.504 6.681 1.017 9.887 1.504 7.359 1.119 5.72.867.661.101.539.082.034.005.718.109 9.887 1.499.329.05 1.049.158 2.133.322.066.01.533.08 6.902 1.042.233.035.875.132.844.127.713.108.113.017.111.017 4.921.742 8.779 1.314.098.015 1.652.247.283.043 3.576.535.306.046 4.367.653 3.474.518.12.018 1.809.269 9.891 1.473 3.015.449 9.892 1.468 6.297.935 9.892 1.464 2.761.409 7.684 1.138 4.064.561 1.83.15.939.029 2.753-.179.826.149"/><path stroke="#fff" stroke-linejoin="round" d="m247.482 247.001-.495-.234-1.874-.158-4.077-.564-7.683-1.138-9.892-1.464-2.76-.409-9.891-1.468-6.295-.934-9.891-1.473-2.209-.329-1.777-.265-.129-.019-4.301-.64-3.847-.576-.306-.046-3.579-.536-.289-.043-1.652-.247-.092-.014-9.293-1.392-4.393-.662-.062-.01-.385-.058-1.176-.177-.99-.149-.173-.027-7.042-1.062-.515-.078-.067-.01-2.126-.32-1.561-.236-9.697-1.471-.719-.109-.031-.004-.541-.082-.662-.101-6.236-.946-9.886-1.503-7.357-1.119-9.887-1.504-6.681-1.016-9.887-1.498-5.97-.906-9.886-1.508-5.198-.793-9.882-1.535-4.367-.678-9.718-1.554-2.763-.442-.868-.139-3.692-.617-1.77-.296M1555.32 763.53l3.52-1.17.61-.199 4.24-1.369 5.44-1.731 5.37-1.702 4.71-1.483 3.44-1.079 2.59-.809 2.14-.667 2.11-.655 2.49-.772 2.9-.906 3.35-1.06 3.83-1.23 4.34-1.417 4.76-1.602.22-.076 5.08-1.783 5.32-1.96 5.44-2.134 5.52-2.285 5.53-2.414 5.48-2.523 5.37-2.61 5.21-2.669 5.01-2.7.39-.211 4.78-2.704.74-.436 1.28-.757 2-1.169 4.48-2.673 2.37-1.438 4.23-2.657 2.39-1.569 4.03-2.651 3.9-2.662 3.79-2.68 3.65-2.695 2.03-1.548 3.46-2.703 3.21-2.711 2.95-2.716 2.69-2.707 1.37-1.394 2.48-2.682 2.3-2.65 2.14-2.605 1.98-2.577 1.8-2.566.85-1.213 1.61-2.566 1.41-2.584.49-1.02 1.2-2.574.98-2.542.27-.804.19-.57.76-2.482.1-.403.52-2.401.29-2.31.07-2.205.01-.303-.16-2.091-.37-1.964-.53-1.816-.09-.274-.61-1.648-.64-1.459-.6-1.249-.55-1.063-.5-.899-.45-.758-.37-.64-.19-.309-.41-.641-.54-.763-.78-1.005-1.12-1.362-.44-.507-1-1.142"/><path stroke="#fff" stroke-linejoin="round" d="m1724.18 630.939-.73-.864-1.65-1.848-1.05-1.146"/><path stroke="#fff" stroke-linejoin="round" d="m1606.67 676.447.78-.226 1.22-.35 4.76-1.376 4.69-1.348 2.79-.803.98-.286 1.49-.433 1.75-.506 1.49-.433 1.97-.574 7.41-2.199 6.65-2.053 1.45-.47.7-.223.52-.168 1.99-.644.13-.045.56-.178.68-.221 2.81-.953.2-.068 2.55-.867 5.22-1.867 3.7-1.388 1.33-.499 4.84-1.912 3.07-1.289 1.56-.657.17-.075 4.27-1.91 4.25-2.031 1.22-.62 2.83-1.433 3.86-2.052 3.67-2.031 1.22-.694 2.28-1.294.38-.224.93-.543.86-.508 1.19-.698.48-.292.01-.006.66-.402.08-.046v-.004l.26-.157 1.17-.707.62-.375 3.23-2.035 3.25-2.108.82-.538 3.18-2.161 3.06-2.196 2.84-2.19.03-.021 2.63-2.208 2.4-2.182 2.18-2.136 1.99-2.069 1.8-1.982 1.64-1.912 1.48-1.858 1.33-1.82 1.19-1.796.6-.953 1.04-1.785m4.92-28.943.73 2.929.34 1.839.27 1.858.17 1.835-.02 1.829-.14 1.211-.19 1.828-.38 1.83-.56 1.835-.45 1.149-.72 1.837-.68 1.7-.81 1.963-.84 1.929m0 0-.78 1.599-.86 1.772.77-1.583.87-1.788Z"/><path stroke="#fff" stroke-linejoin="round" d="m1737.31 440.322 3.06 3.409 2.83 3.169 3.31 4.12 1.23 1.74.95 1.747 1.16 2.271.49 1.473.16 1.407.21 2.362-.29 3.296-.45 4.958-.66 6.534-.94 8.027-.18 1.378-1.29 9.454-.67 4.178L1744 577.5m-49.43-139.893 1.67-1.363 1.51-1.422 1.28-1.402.84-1.059.23-.292.03-.041c.68-.787.94-1.257 1.37-2.028"/><path stroke="#fff" stroke-linejoin="round" d="m1694.6 437.585-.03.022-2.03 1.452-2.39 1.487-2.74 1.492-3.12 1.487-3.44 1.473-3.7 1.449-3.91 1.414-4.05 1.369-4.19 1.333-4.34 1.305-4.48 1.288-4.62 1.278-4.78 1.238-4.95 1.166-5.13 1.063-5.34.926-5.54.768-5.77.588-6.01.386-6.2.161m83.79-64.7-.04.021-.09.047-.03.014-.11.058-.11.057-.14.06-.07.028-.31.134-.08.036-.14.047-.36.13-.41.143-.41.122-.87.26-.56.147v.001l-.44.113-.3.079-.15.037-.21.056m53.57 46.111-2.48-2.801-5.3-5.78-4.98-5.34-4.45-4.727-2.5-2.664-1.45-1.509-.51-.492-1.05-.999-1.38-1.286-.46-.433-2.85-2.648-4.07-3.782-4.61-4.286-4.5-4.169-1.18-1.097-2.52-2.342"/><path stroke="#fff" stroke-linejoin="round" d="m1686.86 397.605-.06.015-.22.051-1.67.388-.17.039-.21.048-.23.051-.09.02-.02.005-.11.025-.4.089-.07.015v.001l-.57.127-.01.004-.22.049-.03.005-.09.021-.27.058-.22.049-.01.003-.18.04-.49.108-.05.012h-.01l-.02.006-.01.001-.14.032-.09.021-.21.047-.02.005-.2.044-.08.018-.01.004-.01.001-.04.009-.13.03-.23.133-.02.015-.03.019-.11.062-.06.041-.01.14v.043m18.56 2.219-2.56-2.377-2.25-2.09-1.18-1.078-.49-.376-.14.005-.17.065-.05.032-.18.119-.11.094m.2-.128-.17.114m-10.8 3.81-.01-.011-.32-.202-.07-.046-.04-.007-.03-.004-.01-.001m-136.9 88.92-.62.053-.75.065-3.63.312-1.26.109-2.85.245-.01.001-.36.031-.09.008-.15.011-4.05.304-1.08.081-3.62.272-2.38.179-9.98.65-3.6.235-3.39.195-.57.032-7.02.404-4.17.239-8.39.422-7.54.378-5 .21-.34.015-.09.004-1.55.065-.54.023-8.41.354-5.35.171-6.21.199-3.17.101-.39.013-10.01.202-4.42.089-10 .068-3.91.027-8.85-.069-.31-.002-.29-.003-4.08-.031-3.37-.078-.4-.01-.74-.017-.03-.001h-.03l-.28-.007-.09-.002-8.37-.194-9.98-.637-3.25-.207-9.91-1.282-3.35-.432-4.77-1.035-8.66-1.879v-.001l-2.11-.684-.98-.317-.02-.007-.67-.218-6.39-2.068-.59-.195-2.95-.955-1.84-.758-.11-.046-.04-.017-.04-.016-.09-.035-2.08-.858-2.71-1.118-3.91-1.614-.51-.209-.12-.051-.4-.162-.36-.151-1.9-.785-1.31-.63-.12-.058-1.7-.816-.39-.187-3.57-1.72-.18-.085-7.36-3.545-1.15-.61-1.81-.961-2.07-1.1-.57-.305-2.49-1.32-4.54-2.413-1.55-.823-.24-.128-.04-.017-.8-.428-5.09-2.864-.75-.422-.79-.445-.98-.548-.03-.02-.7-.393-.75-.423-1-.563-1.13-.635-.87-.487-.28-.161-.43-.241-.26-.147-.61-.345-.45-.252-.18-.102-.51-.286-1.21-.682-.9-.525-1.35-.786-.36-.211-.04-.024-1.31-.763-1.85-1.078-.68-.393-1.07-.627-.01-.002-.67-.392-.2-.119-.79-.462-.88-.513-.11-.065-.66-.383-.64-.375-.33-.192-.13-.072-.35-.202-.01-.009-.03-.016-.52-.306-.5-.289-.48-.279-1.42-.831-.21-.124-8.59-5.124-.32-.192-4.81-2.87-4.81-2.911-.47-.278-5.25-3.177-.17-.105-1.35-.817-1.57-.945-.86-.521-1.07-.65-.87-.524-.73-.443-2.52-1.495-.8-.474-1.3-.673-.1-.044-.2-.091-.53-.091-1.21-.018-2.34.079-3.87.194-2.82.16-2.96.167-7.28.505-2.41.211-5.31.465-.59.052-.11.011-1.66.186-1.37.152-.12.014-5.67.632-8.7 1.252-.4.056-8.68 1.452-1.48.274-6.21 1.153m11.93 49.123-1.24-.85-1.54-1.042-1.72-1.174-2.99-2.032-1.28-.806-1.8-1.13-1.7-1.074-1.83-1.153-3.41-2.145-.5-.296-1.54-.927-2.13-1.273-1.46-.875-.1-.064-2.84-1.701-.13-.074-.97-.584-.19-.114-.43-.247-.3-.175-.71-.413-.38-.22-.91-.527-1.56-.899-4.26-2.466-.13-.078-.16-.091-.78-.444-.2-.114-.47-.267-.18-.103-.27-.149-.77-.438-.49-.28-1.81-1.029-1.54-.873-.43-.242-1.73-.979-1.6-.911-.16-.092-.14-.078-.56-.315-.94-.555-.06-.037-.25-.148-.83-.492-.65-.506v-.05l.13-.139.16-.158.1-.09.68-.526.25-.172.14-.096.95-.653.07-.049 2.4-1.558 3.66-2.288 3.48-2.142.82-.505 4.32-2.632 1.52-.912 2.21-1.329 2.5-1.473 2.12-.987 2.6-.784 3.93-.867 6.1-1.231"/><path stroke="#fff" stroke-linejoin="round" d="m1169.13 429.392-6.25 1.155-6.1 1.222-3.92.856-1.86.556-.73.22m385.81 298.356v-.498l.01-.024.89-2.316 2.05-3.215.8-1.017.82-1.027 1.54-1.952 4.35-4.92 3.85-4.119 1.74-1.864.53-.536 5.77-5.883 1.88-1.81.09-.085 4.51-4.335 1.93-1.702 2.87-2.539 1.33-1.175 5.25-3.981 2.37-1.484 2.2-1.379.85-.428 2.63-1.323 3.73-1.541 3.63-1.379 2.88-.998.99-.344 1.36-.435.96-.306 2.15-.687.21-.064 5.19-1.572 1.95-.572 1.28-.376M1504.8 781.627l2.75-.553 3.06-.615 5.1-1.062 4.56-.981 4.16-.924 3.67-.831 3.04-.702 2.31-.538 1.45-.337.68-.205.35-.105.04-.012.08-.027.42-.206.67-.343.73-.408 1.24-.709 1.9-1.094 2.34-1.37 2.54-1.535 2.48-1.567 2.2-1.467 1.59-1.11.72-.515.06-.042.03-.028"/><path stroke="#fff" stroke-linejoin="round" d="m1167.37 474.57 2.99 2.032 1.72 1.174 1.53 1.042 1.24.85.45.306 1.35.919 3.53 2.582 2.38 1.744.63.461.64.471 1.25.914.14.105 3.1 2.424 1.26.99.51.404.19.142 2.2 1.725.36.289.27.209 1.09.91.32.271 5.55 4.638.27.219 2.12 1.885.01.007 1.44 1.276.41.361 2.61 2.317 2.26 2.17.59.565 2 1.918.11.11.79.758.37.353.47.494 5.33 5.632.14.162 1.67 1.949.19.228.93 1.085.46.547 2.25 2.631 2.73 3.523 1.07 1.39.28.365.06.078.31.399.61.786.48.617.11.144.18.255 4.57 6.472.89 1.261.3.464.61.943.73 1.118 1.26 1.949 2.72 4.185.63 1.04.95 1.583.35.588.29.483.54.902 1.37 2.273.35.585 1.12 1.858.29.526 1.47 2.631.82 1.453.79 1.423.45.809 1.48 2.647.26.463 2.59 5.015.66 1.284.66 1.279.43.832.93 1.804.16.305 3.15 6.692.54 1.128.68 1.448.42.906.09.179.31.669 3.45 8.135.4.937.27.637.29.685.37.878.08.18 3.52 9.431.28.761.61 1.62.04.12.22.678 3.1 9.506.07.202.18.546.36 1.094.18.665.14.48 2.71 9.625.19.656.1.353.19.672.35 1.484.07.268.77 3.218 1.69 7.062.02.088.14.608.32 1.596.01.035.33 1.686 1.44 7.251.22 1.106.15.751v.004l.04.18.07.368.18 1.142 1.15 7.313.11.682.18 1.161.16 1.011.29 1.857.04.214.46 3.967.2 1.678.03.285.03.203.17 1.442.12 1.101.23 1.944.39 3.321.13 1.715.05.576.09 1.149.02.293.05.588.03.396.02.2.11 1.486.02.245.21 2.616.17 2.256.07.773.07.983.06.758.05.576v.046l.01.125.09 2.148.07 1.557.05 1.118.14 3.326.06 1.367.06 1.39.2 4.501.21 9.997.1 4.682.01.487.07 9.999.03 3.568v10.742l.04 6.692.08 3.848.14 2.201.23 1.753.31 2.5.4 3.024.46 3.329.51 3.415.53 3.283.53 3.008.47 2.592.38 2.035.25 1.338.17.792.15.395.18.171.25.12.21.033.47.076 1.45.142 2.54.219 3.94.339 4.65.399 4.67.401 3.97.341 2.56.22 2.22.105h.02l.48-.002h.04l2.39-.007 4.68-.117 5.09-.152 2.4-.071 9.59-.346 9.99-.442 1-.044 9.99-.552 1.69-.093 9.97-.703 1.67-.118 9.96-.851 1.66-.141 9.95-.993 1.64-.164 9.93-1.133 1.63-.186 9.92-1.266 1.63-.207 9.91-1.381 1.49-.207 9.89-1.482 1.21-.183 9.88-1.571.82-.13 9.86-1.652.29-.048 9.48-1.659 8.68-1.578 7.75-1.459 6.69-1.302 2.98-.6m80.6-322.044-.31-.074-.61-.142-5.78-1.36-.35-.103-4.89-1.42-.68-.199-.04-.014-4.33-1.436-2.49-.904-1.31-.469-1.48-.53-.32-.111-.97-.332-.3-.102-.15-.042-.03-.009-.53-.143-.01-.003-.19-.04-.61-.127-.47.15-.03.009-.07.062-.24.236-.17.162"/><path stroke="#fff" stroke-linejoin="round" d="m1594.84 460.046-.2-.031-4.93-.767-1.87-.292"/><path stroke="#fff" stroke-linejoin="round" d="m1601.44 460.586-.08-.007-6.72-.564"/><path stroke="#fff" stroke-linejoin="round" d="m1607.91 460.731-.07-.001-4.35-.102-2.13-.049m-43.85-4.844v.002l-.23.138-1.12.688-1.04.541-.29.155-1.22.562-.19.078-.2.081-.64.265-.47.183-.26.102-.4.15-.1.037-.51.21-.39.248-.11.085"/><path stroke="#fff" stroke-linejoin="round" d="m1550.41 459.292.04-.035.29-.182.25-.126.24-.112m10.73-6.91-.26.241-.13.122-.64.607-.98.905-.29.241-.54.459-.02.018-.07.063-.03.021-.21.177-.41.304-.43.321-.44.331"/><path stroke="#fff" stroke-linejoin="round" d="m1558.97 454.73.09-.075.02-.025 1.02-.89.95-.914.52-.524.22-.213M1151 433.181l-.72.212-2.1.966-2.49 1.457-2.28 1.367-1.44.867-4.32 2.63-.82.507-3.48 2.142-3.66 2.292-2.4 1.561-.16.109-.84.575-.1.071-.15.103-.17.118-.53.408-.16.125-.15.159-.11.109-.14.177m105.99-24.386-.17.004-1.4.138-.16.029m471.53-21.77-3.01-2.992-1.11-1.088-4.18-4.207-1.21-1.195-3.74-3.795-4.87-4.819-3.37-3.307-3.32-3.133-3.34-3.025-2.24-1.983-3.43-2.991-3.05-2.582-2.46-2.04-1.65-1.367-3.53-2.874-1.09-.894-3.86-2.906-.62-.464-1.28-.905"/><path stroke="#fff" stroke-linejoin="round" d="m1705.92 408.263-1.95-1.838-.39-.365-.71-.684-2.3-2.225-2.13-2.054m17.83 17.036-.46-.472-1.54-1.494-2.44-2.311-3.52-3.338-2.39-2.255-1.81-1.694m-127.71 66.937-.18-.104-3.93-2.259-1.69-.968-.22-.132-.04-.021-.05-.03-.18-.101-.03-.018-.31-.177-.04-.025-.45-.249-.87-.489-.22-.12-.03-.021-.77-.427-3.11-1.747-.89-.498-.71-.397-1.02-.552-1.05-.563-2.2-1.188-1.17-.631-1.14-.614-.06-.033-.06-.033-.26-.141-.01-.003-2.05-1.035-.58-.289-.6-.303-1.22-.618-.85-.428-.07-.032-.2-.103-.28-.141-.23-.116-.17-.088-.75-.336-.2-.092-1.79-.806-1.12-.505-2.27-1.021-1.18-.46-1.6-.628-1.28-.501-1.13-.441-1.38-.541-3.28-1.118-.14-.047-2.47-.841-.11-.037-1.6-.545-5.93-1.815-1.97-.603-1.31-.399-.54-.151-.16-.044-1.79-.504-.03-.01-.02-.003-.03-.01-.55-.153-.05-.016-2-.561-5.12-1.435-.82-.212-4-1.034-1.45-.376-4.55-1.175-7.84-1.849-.31-.074-.81-.191-.06-.012-.05-.013-.26-.061-1.45-.343-9.79-2.04-.39-.081-.5-.09-1.11-.203-2.82-.511-.24-.044-.96-.175-.25-.046-.68-.123-3.39-.617-.63-.101-.92-.145-4.06-.647-.86-.135-.51-.082-1.22-.193-.06-.011-1.85-.294-7.72-1.103-.73-.103-.69-.099-.34-.048-.01-.002-.01-.002-.36-.052-.27-.038-.1-.014-.42-.06-1-.133-1.28-.172-.66-.087-4.49-.599-.65-.087-3.51-.468-1.05-.134-.59-.075-.9-.115-3.28-.417-5.78-.738-2-.246-.03-.004-.51-.062-2.21-.273-.51-.063-.39-.047-.69-.086-.05-.005-.61-.076-.43-.053-.54-.067-2.72-.335-2.17-.262-.54-.065-3.11-.376-3.26-.394-5.97-.71-4.12-.438-3.28-.248-3.42-.143-4.59-.118-5.75-.116-5.82-.116-.53-.011h-.02l-.56-.011-.02-.001-.28-.006-.12-.003-7.7-.171-5.81-.154-2.23-.059-.4-.011-.89-.024-1.77-.048-2.37-.066-.6-.016-5.56-.154-4.56-.121-6.49-.172-3.16-.075-1.06-.025-1.66-.039-.26-.006-5.43-.128-10-.19-1.85-.035-7.33-.108-.72-.01-1.17-.018-1.11-.016-.26-.004-1.24-.018-.06-.001-.34-.003-.71-.008h-.01l-1.03-.011-.3-.003-2.46-.026-3.05-.032-1.05-.011-.38-.004-.98-.011-.42-.004-.68-.007-.17-.001-.12-.001-1.06-.007h-.14l-.72-.005-.37-.002-1.32-.008h-.06l-.74-.005-.69-.004-.75-.005-.21-.001h-.03l-.34-.002-.18-.001-.4-.003-.55-.003-.51-.003-2.43-.015-6.01-.005-3.78-.004-8.69.033-2.46.018-5.01.037-6.32.048-4.75.039-3.36.111-2 .265-.75.496.06.137.31.67 1.9 1.43.14.109.67.421 1.1.698.82.518.91.58.76.476 1.4.853 4.63 2.819.45.281.46.277 8.54 5.207.63.384 1.05.64 8.13 4.878 1.36.82.57.343.43.255.56.336.02.016.05.029.31.186.11.063.34.206.54.321.1.062.66.383v.002l.13.076.88.514.8.463.18.106.67.394.02.011 1.06.618.67.393 1.85 1.082 1.28.743.07.046.36.211 1.35.787 2.1 1.227.51.295"/><path stroke="#fff" stroke-linejoin="round" d="m1244.32 433.882 8.54 5.196 1.58.955 8.23 4.931 1.96 1.171.4.237.57.345.09.054.3.176.09.057.35.211.46.274m66.86 34.774 2.08.855.09.035.04.016.04.017.11.045 1.82.746 2.97.962.6.194 6.39 2.069.67.217.02.006.98.317 2.05.664.06.014 8.66 1.875 4.68 1.014 9.92 1.277 3.33.428 9.98.634 3.23.205 8.52.195.1.002.27.006.03.001.03.001.7.016.4.009 3.24.074 4.14.031.28.002h.01l.31.003 8.77.066 10-.069 3.88-.027 4.66-.094 9.75-.195.54-.017 3.2-.101 6.21-.196 5.14-.163 8.75-.361.54-.023 1.55-.064.09-.003.34-.014 4.65-.193 7.76-.382 8.17-.401 4.4-.249 7.02-.396.57-.032 3.14-.178 9.98-.64 3.6-.231 2.64-.196 3.62-.269 1.07-.08 3.94-.292.11-.01.25-.02.36-.032h.01l2.85-.244 1.26-.108 3.68-.315.75-.064.23-.019 8.27-.802 1.51-.16 2.58-.274.24-.025.81-.085.78-.083.56-.059.8-.086.27-.028.08-.009.3-.032 1.07-.119.65-.071 1.29-.143.21-.023 1.94-.214 1.79-.198.39-.044 1.09-.124 1.04-.118 1.26-.144 1.71-.195.77-.087.55-.062.79-.093.41-.047 1.32-.155 3.45-.403 3.28-.393 1.55-.186.98-.121 2.41-.298 2.13-.346.29-.048.38-.128.66-.224.15-.457-.12-.181-.5-.615-1.42-1.009-2.65-1.604-4.06-2.352-5.62-3.25-.15-.084m-886.232-196.63 1.674-.128.497-.075.749-.216.039-.011.248-.15-.065-.547-.454-1.272-.371-.942-.546-1.385-1.455-3.709-1.925-4.775-2.325-5.526-2.655-5.961-2.917-6.084-3.177-5.919-2.402-3.824-1.034-1.646-4.099-5.375-.875-1.146-4.053-3.852-4.208-2.953-1.687-1.022-.43-.261-4.14-2.167-.187-.097-3.008-1.235-1.18-.484-3.896-1.367-3.533-1.069-3.102-.828-2.6-.638-2.03-.504-1.54-.387-1.13-.287-.802-.203-.553-.137-3.247-.617-.395-.05-3.947-.024-4.737.35-5.623.508-4.792.49-1.584.162-6.997.784-7.484.904-7.832 1.009-7.943 1.203-7.81 1.482-.294.059-7.431 1.844-2.608.88-4.189 1.414-6.187 2.764-5.603 3.252-5.045 3.759-4.516 4.286-3.988 4.671-3.465 4.917-2.945 5.022-2.43 4.986-1.876 4.513-.065.156-.479 1.321-.526 1.449-.357.984-.115.316-.027.085-1.012 3.104-.627 2.028-.049.206-.223.927.028.505.238.159.093.025m-.095-.137-.236-.047"/><path stroke="#fff" stroke-linejoin="round" d="m693.195 276.192-.493.145-.289.084-1.665.132-1.239.026-1.412.029-3.742.001-4.938-.033-6.244-.044-7.441-.055-8.532-.07-5.446-.048-.096-.001h-.005l-3.969-.035-1.097-.011-.091-.001-9.203-.089-3.153-.034-1.292-.014-6.225-.067-.51-.007-9.835-.121-9.4-.139-7.828-.147-6.746-.178-6.157-.229-6.065-.302M477 42l71.079-1.052 9.803-.44 9.994-.348.158-.005 9.997-.274.373-.01 9.998-.218.463-.01 9.998-.178.43-.008 9.999-.154.278-.004 9.999-.13.154-.001 10.054-.105 9.982-.078 8.788-.045 1.145-.005 9.811-.025h9.824l6.163.017 2.972.008 4.729.026.59.003 3.688.02 1.439.013 1.773.015.213.002.284.003 5.002.045 8.46.113 8.25.154 8.081.2 7.887.24 7.027.25.638.023 7.416.3 7.143.32 4.359.217 2.528.125 6.65.36 6.431.377 6.231.394 6.025.41.869.065.042.003.042.003.289.02 4.57.337.99.079 4.601.364 2.899.249 2.466.21 5.066.486 4.701.517 4.272.559.702.114.75.12h.002l1.66.269.211.034.451.073 2.396.464L835 50c33.597 10.144 52.541 16.759 86.5 30.5l83 39.5"/><path stroke="#fff" stroke-linejoin="round" d="m834.431 49.921-.029-.051-.124-.088-.341-.143-.659-.251-1.076-.411-.515-.191-1.491-.54-1.869-.625-2.226-.672-1.545-.46-2.998-.869-4.922-1.43-6.773-1.878-3.08-.806-1.01-.261-7.772-2.007-9.729-2.311-.754-.179-3.847-.883-9.777-2.1-2.518-.541-4.37-.892-9.81-1.941-3.721-.737-4.881-.902-9.836-1.804-4.356-.8-5.373-.921-9.859-1.67-4.423-.748-5.794-.928-9.885-1.512-3.937-.603-6.166-.914-9.909-1.347-3.526-.479-6.511-.879-6.748-.814-9.93-1.179-3.288-.39-7.05-.749-9.948-1.013-3.024-.308-7.306-.668-9.962-.861-2.812-.243-7.503-.573-9.975-.712-2.748-.196-7.632-.462-9.983-.572-2.835-.162-7.82-.382-9.99-.447-3.074-.137-8.07-.333-8.349-.309-8.707-.316-8.999-.325-9.222-.335-9.374-.347-9.45-.359-9.459-.367-9.396-.366-9.258-.359-9.045-.344-8.906-.303-4.878-.165-8.929-.298-8.872-.231-9.998-.208-3.945-.082-8.933-.134-10-.062-3.854-.024L370.653 1l-10 .107-3.54.037-9.158.101-9.063.209-9.995.308-3.029.094-8.868.311-5.231.24-6.601.304-8.507.412-10.016.572-8.161.505-7.596.489-4.589.292-2.34.163-7.841.592-7.598.671-7.42.743-7.205.811-.829.1-4.877.615-2.075.262-2.979.419-3.682.519-6.333.997-5.736.975-1.446.26m29.795 25.293-.679 4.024-1.109 6.557-1.402 8.42-.189 1.163-1.369 8.442-1.538 9.881-.035.228-1.451 9.92-.866 6.372-.344 2.538-.027.196-.107.79-.455 3.633-.086.691-.148 1.188-.267 2.134-.112.891-.187 1.5-.55 4.807-.633 5.539-1.038 9.946-.092.879-.384 4.182-.327 3.551-.233 2.533-.11 1.205-.777 9.969-.139 1.784-.041.529-.325 5.148-.513 8.116-.242 5.025-.453 9.389-.391 9.992-.078 1.98v.007l-.026.669-.009.224-.056 1.429-.011.339-.332 9.995-.086 2.574-.029.99-.005.175-.009.273-.014.494-.006.197-.014.46-.015.517-.007.214-.013.457-.009.292-.016.544-.009.293-.031 1.051-.003.091-.015.507-.018.598-.091 3.077-.111 3.744-.023.776-.041 1.402-.01.332-.084 3.242v.459l-.001.739.057.144.034.055.099.091h.001l.08.04.111.033.137.04.154.044.158.043.14.036.056.014.107.027.146.028.536.076 1.312.181.582.081 1.896.262 2.966.414 1.075.15.33.046 4.571.632.342.048M270 36.5v1"/><path stroke="#fff" stroke-linejoin="round" d="m227.371 228.432.554.077 4.565.632.114.016.228.032 6.085.831 6.561.876 6.667.863 2.915.368.73.093.276.035 2.414.305 1.047.131 4.508.563 4.329.536 2.65.33.17.021 1.242.156.617.075.277.027.389.031.455.033.47.033.435.031.33.023M214.061 10.401l3.162-.47 3.204-.478 1.235-.169 5.55-.757 6.965-.869 6.444-.733.58-.066.079-.009"/><path stroke="#fff" stroke-linejoin="round" d="m202.258 12.319 1.06-.18 5.175-.856 5.568-.882.46-.073m57.178-6.889-.892.046-7.75.512-7.439.599-7.255.676-1.803.17-3.436.351-7.151.726-5.536.552-7.023.722-7.867.849-6.792.718-7.97.905-6.535.754-7.445.92-6.31.799-9.904 1.377-3.74.521-5.765.859-9.11 1.39"/><path stroke="#fff" stroke-linejoin="round" d="m311.769 2.407-4.943-.001-9.291.103-9.104.208-8.737.313-7.995.409-.188.01m-43.322 5.227-1.945.172-4.582.436m514.223 30.735-9.996-.272-1.092-.03-9.997-.233-3.658-.085-9.998-.2-4.163-.083-5.793-.095-.289-.005-.218-.004m313.169 80.637.92.494 8.82 4.72 8.82 4.719 1.97 1.093 8.74 4.847 8.75 4.848 3.13 1.791 8.69 4.961 8.68 4.962 3.72 2.168 8.64 5.031 8.64 5.032 3.74 2.199 8.62 5.068 8.62 5.068 3.18 1.87 8.62 5.073 8.62 5.074 2.02 1.18 8.63 5.046 8.63 5.045.48.275 8.64 5.021 8.65 5.022 7.19 4.152 8.66 5.002 4.85 2.792 8.67 4.987 2.13 1.225 1.26.722 1.73.995 5.66 3.249c11.16 4.95 17.97 6.163 30.03 8.62M240.621 6.925l6.057-.624m387.558 279.421 2.05.02m43.121 1.034 2.231.078M807.96 394.176h-.001m-9.613-114.648.069-.013m288.675-9.486-.54.038m133.69-19-.04.054m19.37-12.293-2.08-.299m315.45 525.84 2.38-.839.09-.032m20.8-307.567-.72-.213m11.74 3.096-6.13-1.463m13.48 222.876-.23.957m3.54-2.042-.2.841m2.39-.897.17-.695"/><path stroke="#fff" d="m580.5 275-66-4.5m602.5 176c-33.49-3.962-54.33-2.684-98.5 11.5-54.528 16.86-82.029 31.488-116 83-27.094 54.239-30.685 85.739-25.5 143 14.434 63.442 31.979 92.548 75 136.5 30.802 25.449 50.47 35.327 87.91 48.469.06.02.12.036.18.045 55.36 8.493 77.58 2.476 114.91-11.014 15.34-6.808 27.58-13.642 69.5-42.5 19.79-15.414 30.06-25.905 45.5-51 10.68-16.602 14.26-28.374 21-49"/></svg>