<svg fill="none" viewBox="0 0 1005 650" xmlns="http://www.w3.org/2000/svg"><path stroke="#fff" stroke-width="2" d="M92.087 273.948c-7.293 11.819-9.896 17.896-5.442 25.399 9.173 13.661 19.775 21.471 52.244 35.669.239.105.502.181.76.22 14.03 2.106 21.696 1.922 34.649-.009a3 3 0 0 0 .647-.172l156.615-61.107c89.479-28.054 140.659-41.009 232.669-62.136l105.676-17.688M381.353 365.597c-85.762 5.113-134.768 6.395-213.642-5.584-2.757-.419-3.469-4.038-1.073-5.465 28.293-16.853 49.735-26.064 105.053-33.885 76.491-6.544 121.693-9.927 198.691-14.77 3.002-.188 4.391 3.67 1.946 5.423-34.052 24.41-55.416 38.623-89.923 54.025a3 3 0 0 1-1.052.256Zm91.713-58.994 55.409-2.681a3 3 0 0 1 1.564.353l36.458 19.563m232.669-136.971h14.967l66.218-2.721"/><path stroke="#fff" stroke-width="2" d="M388.253 172.807 266.249 193.67c-38.733 10.458-61.317 13.859-101.594 30.388-26.588 13.098-41.053 23.045-66.218 44.447-18.7 15.688-32.975 22.492-47.19 43.355a3 3 0 0 0-.504 1.401L49 332.002m0 0c.521 13.474 2.388 22.297 1.826 51.119-.007.38.057.768.19 1.124l13.214 35.236a3 3 0 0 1 .19 1.053v29.201c0 .423.094.85.268 1.236 17.438 38.615 33.336 55.246 73.207 86.034 31.8 25.823 62.222 38.75 126.086 57.147 37.061 7.326 58.4 9.748 97.513 10.885l70.355-4.37c1.52-.094 2.728-1.331 2.812-2.851 3.043-55.426 6.533-85.983 21.624-132.925 18.692-48.692 29.761-75.616 68.486-111.572 31.792-25.512 51.553-38.712 93.43-44.901 32.203-3.363 53.065 4.535 76.196 36.283 24.038 39.912 13.349 71.481 5.896 107.944l-6.35 22.224M49 332.002c21.059 21.692 33.586 30.346 57.147 39.459m844.957 18.141-79.824 27.667c-74.389 29.008-114.693 46.252-177.63 76.87-2.335 1.137-4.919-1.027-4.205-3.524l4.498-15.746m43.541-271.221 18.492 72.617c.068.268.099.545.092.821l-4.524 168.756m0 0-57.601 29.027m57.601-29.027c41.374-20.079 68.867-29.435 116.561-46.715l80.278-28.574"/><path stroke="#fff" stroke-width="2" d="M450.842 549.147c6.241 7.41-1.36 1.918 22.677 20.513 24.038 18.596 36.099 25.532 64.404 32.673 25.786 3.522 38.746 3.519 59.347.016a1 1 0 0 0 .181-.049c29.204-10.825 44.287-20.522 65.576-53.153 14.571-25.262 19.761-40.865 24.351-70.914 2.955-40.863.239-59.95-10.097-89.122a1 1 0 0 0-.065-.146c-26.245-48.177-45.038-55.783-79.853-63.087L571.5 321.5M869.919 44c-57.636 28.336-91.305 57.559-152.845 124.272-18.22 19.85-28.263 25.823-45.808 25.398l-182.326-6.803-98.746-8.75c-2.849-.252-3.762-3.969-1.354-5.513l93.75-60.118c44.344-22.445 70.648-33.16 122.912-45.355l104.769-18.596L751.544 44zm0 0h57.601"/><path stroke="#fff" stroke-width="2" d="M742.926 190.945h-25.852c-9.018-.431-13.276-1.432-19.956-4.082m45.808 4.082-3.989 9.819c-.858 2.113.861 4.373 3.126 4.109l33.972-3.95 93.431-4.535c4.509-.819 7.128-1.417 10.147-4.618.489-.519.738-1.216.738-1.929v-2.978m-137.425 4.082c9.361-18.006 14.702-28.122 33.109-48.076 25.688-32.2 40.226-45.128 66.218-65.764 22.881-17.168 38.533-22.81 59.868-25.394s22.033-.64 31.295 0m-190.49 139.234 9.525-.669m0 0 46.409-3.264a3.01 3.01 0 0 0 2.685-2.198c5.638-20.296 9.859-31.148 22.106-41.208a2.93 2.93 0 0 1 2.086-.646c17.84 1.456 25.885 5.598 40.725 11.588.186.075.37.171.536.281 7.246 4.805 9.892 7.76 12.925 12.73.282.462.428.994.428 1.535v10.513m-127.9 10.669c15.039-23.703 23.571-36.112 39.458-52.396 21.245-24.595 33.526-37.031 53.972-52.611 20.257-15.688 34.016-21.317 54.879-25.399s20.161-2.465 33.563-1.814m-53.972 121.551 67.125-11.339m-67.125 11.339v7.256m0 0L957 176.432M65.328 420.444c17.521 39.966 53.065 67.124 107.49 79.824"/></svg>