<svg fill="none" viewBox="0 0 1407 1169" xmlns="http://www.w3.org/2000/svg"><g stroke="#fff" clip-path="url(#teslam3-Lm6TpFjX_svg__a)"><path stroke-linejoin="round" d="m448.004 985.083.061.033 1.059.365 1.429.231 2.298.232 3.675.372 4.838.487 5.79.576 6.527.64 7.049.679 7.811.733 8.815.802 9.961.878.102.009 9.963.851 1.595.136 9.966.823 2.869.237 9.969.793 3.922.312 9.971.76 4.749.362 9.974.722 5.34.387 9.977.679 5.734.39 9.98.626 5.922.371 9.985.563 5.901.333 9.988.489 5.671.276 9.992.41 5.414.22 9.995.32 5.132.16 9.998.22 2.971.06 1.857.05 9.999.11 4.501.05 10 .03 3.396.02 10-.02 1.521-.01 4.292-.02 4.592-.03 5.49-.03 3.302-.05 2.312-.12 2.519-.22 3.917-.37 4.645-.44 4.702-.46 4.099-.404 2.841-.28 1.858-.185 1.15-.117.714-.073.547-.057.298-.073"/><path stroke-linejoin="round" d="m669.306 1001.42-9.995-.31-5.172-.17-9.992-.4-5.446-.22-9.988-.49-5.69-.278-9.984-.56-5.9-.332-9.981-.622-5.905-.369m179.488 1.035.172.092.097.194.036.125-.072.348-.253.597-.449.93-.657 1.37-.866 1.78-1.078 2.17-1.293 2.53-1.507 2.86-1.69 2.92-1.837 2.7-1.973 2.24-2.092 1.56-.478.24-2.981.88-.603.06-.801.08-4.489.14-6.6-.65-9.329-1.44-9.837-1.8-.785-.15-9.799-1.99-.73-.15-9.097-2.06-1.242-.31-6.399-1.74-4.337-1.9-1.557-1.19-2.675-2.43-1.639-2.32-.916-1.68-.093-1.06m-307.171-76.169-6.759-.941-6.584-.924-6.391-.916-6.255-.914-6.18-.923-6.162-.94-6.2-.965-6.218-.984-6.216-.999-6.195-1.006-6.153-1.01-6.394-1.077-6.913-1.204-4.105-.743-3.594-.65-8.744-1.642-9.418-1.823-9.726-1.941-9.682-2-9.292-1.995-8.996-1.997-8.788-2.002-8.67-2.01-8.635-2.022-8.476-2.039-8.189-2.062-7.78-2.088-7.251-2.121-6.805-2.132-6.446-2.128-6.173-2.105-5.983-2.065-5.784-2.04-5.571-2.033-4.535-1.73-.812-.309-1.461-.589-.081-.033-3.568-1.438-.593-.251-4.156-1.76-4.268-1.895-3.672-1.715-1.22-.606-1.742-.866-2.428-1.292-2.066-1.172-1.865-1.111-1.829-1.109-1.781-1.101-1.721-1.091-1.648-1.079-.633-.429-.068-.046-.685-.465-.18-.122-1.495-1.056-.51-.375-.068-.05-.003-.002-.86-.633-1.398-1.072-1.369-1.095-1.349-1.108"/><path stroke-linejoin="round" d="m70.148 818.315.894 3.353.704 2.828.549 2.35.253 1.135.028.124.155.697.367 1.646.373 1.442.46 1.344.262.567.362.787.866 1.47 1.056 1.525 1.193 1.514 1.277 1.436 1.306 1.291 1.326 1.185 1.337 1.119 1.34 1.093 1.136.924 3 2.5"/><path stroke-linejoin="round" d="m70.293 818.733-.602-2.031-.008-.026-.533-1.797-.027-.094-1.232-4.182-.115-.414m2.43 8.324-.058-.198-.998-3.436m379.201 114.736-.229.445-1.891 1.041-3.221.645-4.748.3-3.071-.007-.726-.001-2.109-.005-6.701-.295-7.135-.548-7.213-.77-7.244-.924-7.224-1.015-7.159-1.037-16.288-2.299m1233.538-61.238-9.85 1.709-7.51 1.302-9.85 1.709-7.75 1.345-9.85 1.709-8.01 1.389-9.85 1.709-8.27 1.434-9.85 1.709-8.44 1.465-9.86 1.709-8.53 1.481-9.85 1.709-8.54 1.48-9.85 1.71-8.44 1.464-9.85 1.709-8.42 1.46-9.86 1.71-8.49 1.474-9.86 1.709-8.66 1.503-9.85 1.709-8.92 1.548-9.86 1.71-9.1 1.58-9.85 1.711-9.19 1.597-9.85 1.714-9.19 1.598-9.85 1.717-9.07 1.582-9.85 1.721-8.29 1.448-9.85 1.722-6.8 1.19-9.85 1.725-4.57.8-9.85 1.727-1.58.277-8.93 1.594-6.95 1.297-5.52 1.123-4.62 1.067-3.82.975-3.08.845-2.4.673-1.81.463-1.57.338-1.68.299-2.14.345-2.97.477-3.39.546-3.4.545-2.99.48-2.16.348-2.59.299-1.34.103-3.23-.042-4.25-.295-5.61-.476-3-.276m22.67-9.608.65-1.172 1.04-1.81.9-1.564.6-1.042 1.81-3.327 1.53-3.117.41-.852 1.94-4.535 1.77-5.02 1.55-5.248 1.31-5.213 1.02-4.919.21-1.334.48-3.028.44-3.773.25-3.154.14-2.507.1-1.829.1-1.275.14-.847.21-.541.33-.362.69-.279 1.34-.297 2.24-.412m-37.68-479.223-.14-.137-.03-.064-.01-.093.03-.109.03-.031.44-.393 1.14-.856.18-.13.82-.599 1.1-.804.5-.368.16-.112 1.54-1.124 1.11-.815 4.66-3.552 6.14-4.925 7.27-6.142.45-.384 7.49-6.631 1.94-1.716 4.05-3.671 7.04-6.37 2.92-2.659 7.38-6.737 2.42-2.203 7.4-6.731 3.19-2.903 3.71-3.382 7.43-6.701 7.42-6.701.98-.886 7.48-6.642 7.47-6.642 2.03-1.805 7.55-6.556 7.55-6.556 2.68-2.326 7.65-6.441 7.65-6.441 2.95-2.48 7.77-6.29 1.13-.913.49-.395.03-.025 1.07-.868 5.19-4.2 1.34-1.086.27-.215.13-.107.97-.785 7.91-6.125 1.54-1.195.31-.237 4.86-3.77 2.86-2.217.69-.533.11-.08 1.13-.832 4.7-3.468 1.3-.959 2.66-1.959 7.68-5.666 8.22-5.7 8.22-5.701.23-.164 8.42-5.395 7.03-4.503 2.91-1.7 7.5-4.39 1.36-.799 2.73-1.597 8.83-4.688 2.08-1.102 2.87-1.524 7.66-3.672.04-.017 5.6-2.684 2.92-1.266.93-.403 1.57-.681 6.7-2.904.92-.397 1.28-.498 4.5-1.746 1.99-.773 2.55-.991 2.4-.934.18-.07 1.17-.4 3.83-1.319.93-.321 6.42-2.21 3.27-.978 5.19-1.552 3.47-1.04 8.82-2.236.19-.046 2.45-.622 9.79-2.031 1.55-.322 9.87-1.632 1.7-.282 9.91-1.297 2.21-.288 7.92-.83 5.06-.531 8.72-.692 1.84-.148 2.93-.232.31-.023 9.99-.529 1.8-.095 1.86-.098 9.99-.234 3.47-.082h.46l.57-.001h.04l.7-.001.71-.002h.65l.52-.001"/><path stroke-linejoin="round" d="m1300.87 345.009 4.03-4.665 6.54-7.569 5.57-6.026 6.79-7.343 6.78-6.919 7-7.142.45-.435 7.19-6.945 7.2-6.944.78-.706 7.39-6.736 7.39-6.736 2.77-2.373.86-.732 1.87-1.606 4.48-3.836 1.4-1.198.81-.688 3.75-3.213 7.24-5.813 4.83-3.885 2.64-2.116.79-.636.53-.423.42-.314 5.84-4.378 3.21-2.413 6.37-4.771 7.16-4.972 8.22-5.699 6.24-3.933 8.45-5.335 5.38-3.087 8.68-4.977 4.61-2.412 8.86-4.637 3.92-1.885 9.01-4.333 7.71-3.446 4.73-2.115 2.72-1.114 9.25-3.789c18.95-6.6 27.91-10.29 74.16-17.069 12.49-1.294 19.37-1.698 31.5-2"/><path stroke-linejoin="round" d="m1494.37 193.7-8.06 3.602-9.01 4.332-3.92 1.883-8.86 4.636-4.6 2.41-8.68 4.976-5.38 3.084-8.46 5.333-6.23 3.929-8.22 5.696-7.16 4.965-6.28 4.703-2.49 1.87-.73.541-5.84 4.38-.5.371-.45.365-.79.636-2.64 2.115-3.24 2.601-1.6 1.282-7.3 5.862-3.7 3.161-.11.098-.7.591-1.4 1.198-4.48 3.834-1.88 1.606-.02.021-.84.712-2.82 2.412-7.39 6.733-7.39 6.733-.77.702-7.2 6.941-7.2 6.941-.45.431-7 7.139-6.78 6.912-6.79 7.341-5.57 6.021-6.54 7.567-4.03 4.661-6.3 7.765-2.64 3.256-6.1 7.924-1.41 1.833-5.97 8.022-.31.409-.86 1.161-2.61 3.5-1 1.352-.06.075-.64.862-.09.124-.3.405-3.98 5.341-1 1.348-.29.386-.18.247-.19.248-1.66 2.232-2.4 3.226-1.52 2.042-.87 1.126-.01.009-.46.487-.27.139-.24.063-.06.017-.01.001-.27.048-.29.015-.16.008-.92.035-.67.014-.93.018-1.13.023-1.25.025-1.32.025m-53.77-6.428-.77-.143-3.54-.661-1.67-.296-1.14-.201-.15-.026-.71-.126-.7-.118-.01-.002-2.14-.36-.88-.141-.14-.022-.82-.131-.54-.077-.57-.082-.65-.068-.48-.026-.57-.032-.62-.034-.6-.034-.53-.03-.41-.022-.28-.019-.12-.018m71.81 9.097-1.95-.014-3.46-.056-5.48-.087-6.65-.136-1.21-.035-2.8-.082m-939.764 61.855 9.412-3.379.27-.097 9.493-3.142 7.507-2.484 9.572-2.894 7.33-2.216 9.653-2.61 7.5-2.027 9.731-2.307 8.006-1.898 9.798-2.003 8.837-1.807 9.852-1.714 9.975-1.735 9.89-1.476 9.89-1.476.787-.117 9.919-1.27 9.919-1.27 1.042-.134.873-.107 9.94-1.098 9.939-1.098.951-.105 9.958-.927 9.957-.926.464-.043 9.967-.808 9.967-.809.822-.066 2.306-.197m4.291-.323 1.896-.202.096-.01 2.239-.239 1.596-.17 4.549-.486 6.811-.726m-19.649 2.02 1.08-.109.173-.017 3.389-.342 8.196-.826"/><path stroke-linejoin="round" d="m514.308 418.081.405-.038 6.471-.604m-.099.13 2.552-.285.06-.006 3.291-.367.777-.086 2.341-.261 2.263-.252 3.822-.425 4.292-.478 3.532-.404m-395.232 95.86 1.265-.99 5.611-4.034 6.659-4.303 7.661-4.343 8.659-4.341 9.134-4.07.516-.23 9.294-3.693 1.462-.581 9.421-3.353 2.546-.906 9.535-3.012 3.845-1.215 9.634-2.681 5.351-1.49 1.327-.344 9.711-2.386 7.08-1.739 9.776-2.101 8.963-1.926 9.824-1.869 5.129-.975"/><path stroke-linejoin="round" d="m131.367 525.068.247-.22 1.717-1.533.545-.486 2.113-1.786 1.344-1.086 1.477-1.194 2.284-1.842 3.473-2.824 4.216-3.232.466-.357"/><path stroke-linejoin="round" d="m100.145 566.683.272-.234.024-.021.15-.129.225-.194.061-.053.265-.229.32-.303 1.675-1.582.267-.287 2.035-2.189 2.473-3.111 2.311-3.491 2.447-4.109 2.35-4.151 2.19-3.89 1.039-1.757.447-.756.488-.824 1.537-2.372.368-.568.244-.352 1.979-2.699 2.198-2.597 2.557-2.638 2.657-2.51.89-.789m-33.575 44.14-.091-.132-.035-.13.174-.238.52-.478.981-.846.243-.21.004-.003.141-.122.169-.146"/><path stroke-linejoin="round" d="m97.913 568.726.132-.024.34-.002h.042l.69.012.293.004.773.013 1.519.028 2.057.046.975.026 1.702.044.076.002 2.654.078.653.02 3.651.113.209.007.057.002.786.025.219.008.248.008 1.956.063 2.85.094.285.011 1.119.039.37.013M900.963 429.91l2.498-.419.09-.016.4-.067.074-.012.135-.023.094-.015.039-.007 1.022-.169 2.099-.347 2.838-.459 1.948-.294 2.503-.374 6.649-.994 9.89-1.478.161-.024 9.3-1.39 1.94-.28 1.603-.21 9.915-1.298 9.915-1.298 1.62-.212 5.763-.755 2.235-.292 7.919-.911 9.935-1.142 9.932-1.142.51-.059.9-.104 1.88-.21 7.68-.779.08-.008.01-.001.38-.039.41-.041.87-.089.18-.018.22-.022 1.54-.156 2.1-.213 2.33-.237 9.95-1.009 2.61-.265.4-.04m-135.244 17.369 2.662-.449m0 0 .015-.002m-.015.002-6.52 1.128-2.65.459-9.104 1.575-.555.096-3.34.578-.397.068-.004.001-3.503.606-3.22.561-2.696.472-1.706.3-.952.178-9.814 1.921-9.814 1.921-8.919 1.745-9.774 2.113-5.489 1.187-6.684 1.444-6.18 1.336-9.013 2.115-9.735 2.284-9.36 2.197-9.701 2.429-9.7 2.429-9.107 2.281-.438.115-9.665 2.567-9.665 2.566-.297.079-.257.068-8.481 2.253-9.627 2.705-6.538 1.838-9.627 2.705-1.872.526-9.584 2.854-9.584 2.854-7.222 2.151-9.532 3.025-9.531 3.024-5.463 1.733-9.477 3.193-9.476 3.192-4.261 1.435-9.424 3.344-2.286.811-9.424 3.344-1.339.476-9.379 3.468-9.38 3.468-1.366.505-1.826.676-.364.134-1.979.753-9.347 3.555-9.347 3.555-2.082.792-9.321 3.622-9.32 3.623-3.781 1.47-9.298 3.679-9.299 3.679-2.712 1.073-5.664 2.277-9.279 3.73-4.468 1.796-9.259 3.777-7.466 3.046-9.251 3.8-4.872 2.001-.496.204-6.049 2.469-.965.394-.038.016-.702.286-.188.077-.427.174-.056.023-.55.225-.516.21-.777.317-.723.296-.467.19-.542.222-.096.039-.816.333-.004.002-.183.074-.081.033-.163.065-.766.305-.117.047-.695.277-.58.231-.241.096-2.401.958-.101.04-.055.022-.411.164-.99.395-.296.118-1.047.417-3.185 1.27-.908.362-.132.053-1.116.427-.415.158-.92.352-1.025.392-1.262.482-.296.113-.604.231-.771.295-.816.312-1.129.432-.259.099-3.218 1.23-9.378 3.471-1.506.557-.885.32-1.086.392-7.36 2.659-7.175 2.551-4.421 1.573-2.317.846-.862.372-.091.083-.051.1-.042.108m780.138-194.707 1.89-.716 1.21-.458 2.66-1.205 2.16-1.121 1.62-.923 1.08-.643.66-.403.37-.217.23-.103.21-.059.19-.03.27-.026h.06l.31-.004"/><path stroke-linejoin="round" d="m1012.54 415.12 7.54-.881 9.94-1.126 3.06-.347 1-.113.41-.047.29-.032.06-.008.17-.019.65-.074.91-.103 1.89-.214 3.4-.385 1.43-.161 7.49-.85 9.38-1.037 9.94-1.099 8.87-.982 1.75-.19 2.96-.322 9.94-1.081 9.95-1.081.23-.026 3.64-.39.59-.063.4-.044.49-.052 9.94-1.068 4.57-.49 8.8-.944 4.18-.448.23-.026 7.91-.873 5.02-.616 1.58-.239 2.01-.305 3.84-.677 3.01-.619.92-.189 1.05-.257 1.45-.353 1.33-.325.39-.116 3.1-.923.07-.019m-289.543 37.842-.39.067-.009.002m.399-.069 3.873-.675 9.111-1.585 2.573-.448 2.258-.393 1.694-.286-3.913.679-2.605.452-9.108 1.582-3.883.674Zm150.273 116.743-.21.025-9.94 1.171-3.3.389-8.49 1.553-.39.071-3.45.631-.58.15-.83.216-9.287 2.413-8.966 2.961-7.148 2.798-5.247 2.285-3.271 1.425-1.805.733-.85.211-.353.026-.051-.001"/><path stroke-linejoin="round" d="m1056.9 549.928-3.48-.043-10-.125-.69-.008-9.98.549-3.92.215m202.25-152.076 2.67.132 3.27.162 5.72.144 4.88.052 3.64.03 2.62.013 1.83.002 1.27-.003.93-.001h.35l.63.005.4.016.13.014.13.02.07.011.1.053.03.072-.04.089-.07.098-.07.097-.16.31-.33.736-.59 1.379-.93 2.235-1.11 2.782-.97 2.69-.12.324-.89 2.933-.52 2.531-.08 2.338.42 2.355.5 1.33.01.022.1.283.36.948 1.59 3.027 1.91 3.147 1.92 2.94 1.64 2.401 1.04 1.527.68 1.358.04.071.12.374.04.136.51 1.599.91 3.572.04.135.1.411.05.217 1.24 5.057 1.77 7.501 1.92 8.35.06.254 2.02 9.129 1.89 9.063 1.7 8.469 1.43 7.348.17.885.92 4.812.06.329.12.618.49 2.57.34 1.942.11.974-.03.611-.08.858-.11.971-.12.953-.11.803-.07.521.03.64.19 1.161.43 2.084.73 3.41.17.761.72 3.32.39 1.805.5 2.293.75 3.458.09.4.36 1.759.29 2.162.23 3.467.31 6.074.5 9.983.24 4.889.09 2.012.04.672.01.167.01.294.01.135.02.57.18 3.52.03.68.01.218.01.231.04.923.05 1.172.01.168.1 2.078.02.481v.002l.01.147v.118l.04.973.05.911.03.657.16 3.613.05 1.122.01.109.05 1.109.04.908.06 1.417.05 1.397.03.725.05 1.047v.138l.05 1.034.1 2.641v.004l.03.581.05 1.358.04.969.02.362.04.952.02.436.12 2.923.03.849.09 2.752.01.11.09 2.661.1 2.725.05 1.53.01.191.05 1.479v.155l.08 2.242.02.571.03.657v.15l.11 3.482v.053l.04 1.262v.274l.05 1.685.16 5.284v.077l.05 1.6.01.114.06 2.291.13 4.725v.21l.01.392.03.952v.246l.14 5.42.03 1.216.01.125.04 1.546.01.371.02.93v.113l.07 2.984.05 2.301.04 1.812.01.493.02.922.01.247v.1l.01.48v.115l.03 1.195.05 2.314.06 2.441.01.587v.022l.06 3.031.05 2.507.04 2.046.02.721.07 3.784.04 1.886v.152l.03 1.387.01.501.01.325.03 1.929v.336l.06 3.288v.5l.01.302.01.572.01.925.02.778v.424l.01.578v.104l.01.349v.28l.03 1.636.01.941.02.993.01.432.01.661v.359l.01.274v.626l.01.656v.303l.02 1.859.02 1.218.01 1.084v.172l.01 1.106.01.55.02 2.343.02 1.574.01 1.166v.122l.01 1.19.03 1.975v2.314l.01 1.12v1.261l.01 3.544.01 1.942v.375l.01 1.599v1.513l.01 2.249v.129l-.01.972v1.216l-.01.415-.01 1.841-.01 2.173v1.223l-.01 1.108-.02 3.055-.01 1.824v.749l-.01 1.194-.01.993v.114l-.02 1.322-.01.907-.01.139-.01.849-.02 1.292v.375l-.01.986-.01.194v.15l-.02 1.703-.1 6.815-.07 2.899-.24 9.998-.06 2.839-.34 9.994-.18 5.599-.39 8.916-.28 6.489-.51 9.987-.22 4.292-.01.071-.56 9.984-.14 2.453-.57 9.673-.36 6.067-.23 3.312-.04.359-.11 1.002v.045l-.15.386-.22.252-.16.082-.44.148-.24.078-1.49.271-2.65.415-4.17.658-5.11.836-5.45.946-5.18.99-4.31.963-3.5.894-2.75.776-2.05.614-1.43.404-1.24.299-1.49.298-2.18.404-3.32.615-3.91.722-3.92.725-3.36.622-.72.133-1.5.278-1.33.204-.69.001-.37-.017-.6-.097-.92-.146-.28-.045-.86-.139-1.3-.208-1.37-.221"/><path stroke-linejoin="round" d="m1203.15 393.774.91.205.78.174.89.201 1.22.273 1.18.265 5.28 1.134 5.59 1.042 5.92.843 6.03.517.13.012.1.008m28.44.637.1.005"/><path stroke-linejoin="round" d="m1198.59 392.773 2.34.508.57.123.32.069.04.009.13.028.07.015.08.016.13.028.13.03.77.166.02.004.91.207.76.175.89.202 1.2.274m9.62 473.761-.31-.201-.17-.397.02-1.383.25-3.161.55-5.733.9-9.103.86-9.964.15-1.758.64-9.979.24-3.609.04-1.319.35-9.994.12-3.385-.03-5.862-.06-9.187-.41-9.991-.21-5.142-.37-5.073-.71-9.873-1-9.95-.05-.49-.04-.459-.37-3.585-1.02-7.986-.34-2.643-.4-3.115-.07-.454-.63-3.799-1.27-7.723-.21-1.28-2.05-9.788-.65-3.081-.02-.09-.01-.069-.28-1.084-.56-2.145-2.32-8.891-.24-.941-.57-1.806-.2-.633-.74-2.364-.21-.671-2.48-7.891-3.46-9.38-.66-1.772-.21-.59-.65-1.735-.88-2.054-3.94-9.191-.92-2.15-4.43-8.962-2.06-4.154-2.35-4.103-1.89-3.305-1.15-2.01-.51-.885-1.33-2.334-4.18-6.297-.08-.112-1.21-1.825-.29-.442-.18-.259-2.08-3.145-.36-.463-4.37-5.642-4.13-5.337-6.73-7.399-3.02-3.323-7.34-6.799-3.36-3.118-7.88-6.149-3.61-2.808-8.39-5.431-3.72-2.405-8.87-4.619-3.7-1.929-6.12-2.422-6.74-2.665-9.62-2.719-3.52-.996-9.84-1.783-3.62-.656-5.49-.501-6.38-.582m-663.881 40.563 1.582.216 2.486.349 3.118.438 3.474.483.4.055.979.132 2.172.295 3.34.436 3.023.381 2.604.319 2.082.247 1.459.169.965.115.606.09m-29.674-3.589.05-.16m455.311-53.783 8.814.223m758.11 264.064-9.86 1.706-5.97 1.034-9.85 1.706-6.81 1.179-9.85 1.706-7.43 1.286-9.85 1.706-7.83 1.355-9.85 1.707-8 1.385-9.86 1.706-7.92 1.372-9.86 1.707-8.14 1.41-9.86 1.706-8.67 1.503-9.86 1.705-9.53 1.651-9.86 1.706-9.85 1.706-.89.153-9.85 1.707-9.85 1.707-1.2.207-9.85 1.71-9.85 1.709-.54.093-9.85 1.714-8.71 1.516-9.85 1.722-5.96 1.042-9.85 1.731-3.45.606-9.85 1.738-1.21.213-9.1 1.611-7.45 1.32-6.07 1.074-4.95.877-4.11.728-3.55.631-2.98.53-2.41.428-1.82.325-1.23.22-.77.106-.51.019-.42-.019-.68-.072-.66-.101m176.6-634.243-.36.217-8.56 5.162-5.22 3.147-8.37 5.475-5.85 3.828-8.15 5.799-2.01 1.431-2.53 1.8-.35.252-1.22.863-5.14 3.959-.97.743-.79.613-2.67 2.048-2.74 2.114-2 1.537-.14.115-7.71 6.37-3.44 2.846-.11.089-.97.8-1.47 1.213-.58.479-3.73 3.295-1.87 1.651-.02.02-1.03.905-7.5 6.617-.4.354-6.38 5.984-.62.58-.05.048-3.22 3.022-4.21 3.941-.24.226-7.1 7.043-7.1 7.043-.33.328-4.47 4.702-6.9 7.243-2.58 2.715-6.67 7.455-6.31 7.061-6.38 7.698-5.2 6.27-6.15 7.885-3.81 4.873-5.08 6.841-.54.73-.52.697-.08.111-.6.801-.39.531-.87 1.163-3.76 5.224-.35.493-.19.258-.09.136-1.58 2.196-3.64 5.059-.51.658-1.5 1.937-1.09.935-.88.093-1.41.074-1.68.049-1.71.02-1.98-.02-.93-.012-.81-.007-1.69-.016-1.8-.009-4.17.064m-718.905 17.068.075-.017.009-.002 3.446-.781 3.497-.792 8.823-1.978 5.335-1.189 2.751-.59 2.474-.525 1.016-.172 3.193-.53 4.019-.507 4.923-.513 5.903-.543 1.503-.13 5.463-.472 1.792-.152 3.549-.302.302-.025 2.42-.206.043-.004 1.012-.083 1.416-.117 1.727-.143 3.691-.305 1.219-.101 1.885-.15.079-.006 5.795-.461 2.075-.165 9.972-.755.432-.033 8.854-.628 1.908-.136 1.093-.073 1.223-.082 1.401-.093 7.196-.481 1.045-.066 3.931-.248 1.858-.117 4.01-.253 9.982-.595.564-.033 8.926-.499 1.008-.056.082-.005 2.163-.108 2.552-.127.433-.021 4.519-.226 6.201-.256.47-.019 2.838-.118 1.581-.048.493-.015 7.479-.23 9.806-.185 1.888-.017 1.28-.012 4.504-.041 2.677-.024 4.107-.009 7.084-.015 10 .019 2.347.005 3.952.015 9.876.039 9.999.053 5.239.028 10 .065.927.006 5.653.037 5.222.039 9.999.075 2.621.019 4.16.035 10 .082 4.857.04 5.916.047 9.999.079 4.139.033 9.999.065 10 .066.94.006 8.64.037 7.029.031 2.606.011h.094l.414.002h.077l.237.001.041.001 2.522.01 10 .012.804.001 10 .011 1.397.002 10-.003 10-.002 2.331-.001 10 .001 10 .001h2.037l.71.002 10 .022 9.096.02 1.248.002.257.001 2.38.016 10.065.066 7.7.05 10 .097 8.78.085 2.99.035 1.03.012.42.005.29.003.07.001.17.002.67.007 10 .116 1.4.016.15.002.19.002 8.24.096.81.009 6.17.072 10 .093 3.42.032 9.28.073 2.39.018 10 .078.17.002 1.61.016 7.3.074 5.4.082 2.24.034.27.005 2.11.041 3.59.071 1.09.022 5.52.129 2.57.066 1.56.04 2.63.064.69.024M129.284 563.874l.72-.645.599-.535.76-.68 1.261-1.127 4.501-3.946 2.547-2.17 1.408-1.199v-.001l.689-.587.192-.163 1.135-.935 4.058-3.339 1.634-1.29.011-.009.435-.343.867-.684 2.845-2.246 6.622-5.012 5.363-3.902.723-.526.012-.008.286-.209 1.292-.939 1.751-1.231.044-.031.076-.054 5.001-3.514.167-.117 1.903-1.338 3.47-2.353.635-.431 2.584-1.752 2.043-1.385.034-.024 1.221-.828.719-.468 2.381-1.552 1.395-.91 4.246-2.768 1.909-1.245.17-.111 8.486-5.29 2.961-1.847 8.606-5.093 3.273-1.936 8.744-4.852 3.676-2.04 8.892-4.575 4.177-2.149 9.042-4.27 4.776-2.256 9.188-3.947 5.476-2.351 9.307-3.658 6.09-2.393 9.406-3.395 6.615-2.388 9.49-3.154 7.05-2.343 5.289-1.621.055-.017.871-.267.219-.067 9.561-2.929.96-.294 9.637-2.672 7.911-2.194 9.71-2.393 8.6-2.119 9.777-2.101 9.453-2.031 9.835-1.806 9.836-1.806.627-.115 9.873-1.59 9.873-1.589 1.284-.207 9.897-1.434 9.896-1.434 1.652-.239 9.911-1.329 9.912-1.329 1.739-.233 9.919-1.268 9.92-1.269 1.562-.2 9.924-1.233 10.1-1.255 9.927-1.209 7.121-.868 3.212-.393m-429.796 171.8-.011-.806-.008-.628.014-1.585.007-.447.037-.317.079-.233.687-1.812.903-1.356.486-.73.133-.194 1.051-1.192 1.064-1.208 1.497-1.482.692-.685.543-.537.505-.468.233-.216.474-.438.323-.299.378-.351 1.32-1.222 1.418-1.278.478-.431 1.564-1.41.161-.145.589-.532.269-.243 1.804-1.63.283-.256.466-.42.483-.436.352-.316.035-.031.46-.411"/><path stroke-linejoin="round" d="m537.262 416.203 3.049-.384.258-.033m1076.821-13.383-1.79.144-3.73.302-9.97.803-5.95.476-9.97.797-6.56.509-9.97.774-7.2.532-.74.054-1.41.104-8 .591-6.37.437-2.06.142-9.98.685-4.1.257-7.5.471-8.08.507-.44.025-9.98.577-9.99.576-7.77.413-.2.011-2.57.136-9.98.531-10.03.487-9.98.485-8.85.386-9.99.435-6.06.24-9.99.397-.88.035-4.32.158-9.99.367-.93.032-9.99.348-6.79.24-3.63.132-1.51.06-.4.02-79.35 3.066m252.55-33.571.1.026.31.085.17.198-.07.309-.27.44-.46.592-.63.742-.78.893-.92 1.046-1.03 1.199-.01.008-.61.674-.52.576-.36.351-.35.352-.17.168-.36.353-1.32 1.097-1.4.878-1.51.691-1.63.535-1.8.412-.2.037-2.01.323-2.93.317-4.61.394-6.78.539-9.43.752-9.97.792-.86.068-9.97.784-.99.078-9.97.775-.46.036-3.98.304-5.24.4-8.45.643-8.1.629-8.05.668-8.33.757-7.96.644-.19.009-6.75.315-.52-.007-.5-.006-.28-.004-2.1.06-4.45.203-8 .343-6.13.27-9.98.651-.3.02-7.42.76-3.59.535-1.35.201-.03.005-.08.012-.03.004-.11.017-.63.094-.18.039-.88.2m-77.14 9.285h-.5l-45 2m113.69-128.547.22.047.09.135.06.134.08.206.03 1.088-.06 2.689-.18 5.018-.1 2.761"/><path stroke-linejoin="round" d="m1368.82 301.849-.1 2.827-.13 3.94-.05 1.336-.09 2.394-.1 2.449-.09 2.546-.11 2.875-.01.185-.29 6.998-.2 5.069-.45 9.989-.06 1.238-.08 1.715-.49 9.901M56.06 804.382l1.346 2.781 2.522 5.281 2.358 5.005 1.95 4.225 1.563 3.581 1.188 3.067.405.823c.39 1.027.477 1.432.5 2M44.666 657.311l-.307-5.275-.175-3-.37-7.454-.267-6.035-.177-4.016.319-2.911.154-.925 1.218-2.71.527-.957 2.448-3.419 4.829-6.026 4.753-5.807 5.454-6.66 4.589-5.716 2.284-2.997 1.29-1.642.85-1.021.523-.593M49.546 793.57l-.775-1.543m1.897 3.75-1.122-2.207-.088-.185-1.166-2.471"/><path stroke-linejoin="round" d="m311.706 863.574-2.95-.385-.556-.073-8.912-1.163-9.913-1.318-1.388-.185-9.63-1.315-.225-.03-.059-.009-.497-.067-9.742-1.379-1.2-.177-1.102-.163-2.073-.306-1.119-.166-1.275-.188-2.522-.372-.167-.026-.758-.118-.39-.06-2.303-.357-4.486-.696-.948-.147-.428-.069-1.591-.259-2.001-.326-4.221-.687-.517-.085-.064-.01-.786-.135-.904-.155-1.576-.27-2.949-.506-2.35-.403-.039-.007-2.768-.501-.532-.097-1.463-.265-.063-.011-1.224-.222-.527-.095-1.817-.329-.297-.057-1.044-.2-.667-.128-.689-.132-.82-.157-.921-.176-.064-.012-.524-.101-.497-.095-.212-.041-.212-.04-.446-.086-.67-.128-.32-.061-.007-.002-.803-.153-.271-.055-1.302-.259-.622-.125-.639-.127-.419-.084-1.377-.274-.918-.183-.297-.06-.432-.086-.131-.026-.17-.034-.28-.056-1.093-.218-.028-.005-.092-.019-.9-.185-6.759-1.388-7.513-1.567-7.265-1.52-6.819-1.438-.291-.061-.609-.13-1.754-.375-.738-.158-.897-.191-3.053-.652-7.081-1.537-3.241-.718-.327-.072-.195-.043-.024-.006-.065-.014-3.349-.742-.773-.176-3.933-.894-2.222-.504-.122-.028-.074-.017-.078-.018-3.055-.717-.116-.027-.091-.022-3.265-.767-.563-.132-6.867-1.681-1.54-.389-6.537-1.682-1.123-.301-5.082-1.363-1.27-.354-4.592-1.278-5.513-1.582-5.155-1.516-4.422-1.332-.426-.128-.64-.198-.644-.198-.88-.271-.563-.173-.537-.165-1.323-.407-.591-.185-3.786-1.186-4.208-1.339-4.005-1.318-3.768-1.305-3.497-1.302-3.194-1.312-2.923-1.323-1.29-.644-.083-.042-1.308-.653-2.472-1.36-2.29-1.385-2.1-1.418-.948-.71-1.889-1.466-1.669-1.516-.865-.948-.575-.63-1.203-1.547-.96-1.432-.829-1.347-.734-1.351-1.163-2.399-1.302-2.887"/><path stroke-linejoin="round" d="M45.177 757.145v.466l-.896 3.758-.365 1.996-.56 3.843-.24 3.703.075 3.501.375 3.227.227 1.642.656 2.77.933 2.303.663 1.538.896 2.031m0 0 .129.294.983 2.168.239.529-.823-1.774-.528-1.217ZM57.78 807.87l-1.72-3.488-.67-1.357-1.155-2.292m57.272-212.094.027.017.603.385.339.215.106.067.715.456 2.293 1.027 2.75.924 3.16.833 3.504.759 3.783.706 3.991.672 4.131.656 4.337.647 4.612.644 4.959.646 5.376.653 5.807.659 6.248.662 3.598.357 3.101.307 7.161.662 6.773.589.762.066 7.82.641 8.014.622 8.113.594 5.351.371.617.043.925.064.662.046.309.021.371.026.238.015.97.064 1.505.098 1.483.097 4.182.274 1.184.074 1.496.093 1.563.097 1.497.093 2.806.174 2.319.136 3.596.211.047.003 2.777.163.824.044.494.025 1.802.095 3.057.16.64.033 1.154.061.277.014.392.021.287.015.598.026 2.432.104 3.363.144 2.102.09.361.016.251.01.367.012 1.607.049 6.517.198.712.022"/><path stroke-linejoin="round" d="m110.413 587.515.102.104.533.542.166.17.32.325m5.374-13.572.16-.145 1.343-1.216.484-.439.329-.298m-22.757-2.854.02-.021.026-.027.61-.639.478-.415.148-.039.29-.003h.093l.685.016.297.006.757.017 1.509.032 2.051.046 1.192.027 1.488.035.096.002 2.701.063.6.014 3.381.082.055.001.237.006.563.013.188.005.285.007 2.465.06 2.861.071h.016l1.219.032.577.015.081.013.772.127.036.043.014.016.109.289-.027.109m-77.981 81.901.23 4.599.573 8.844.74 8.48.958 9.283.169 1.469-1.867 72.934m26.68-161.126.205-.163.004-.004.1-.08.372-.366.127-.125.767-.812.18-.19 1.652-1.783 2.613-2.824 3.669-3.958.021-.022.132-.142 3.875-4.178.388-.418.104-.113.102-.109 2.469-2.662.37-.399.145-.156m0 0 1.125-1.211.05-.056 3.242-3.492.005-.006.013-.014.152-.163.109-.118.529-.57.035-.038 1.086-1.169.5-.54.007-.006.383-.402.032-.033.06-.064.002-.001m-24.44 26.221.024-.001"/><path stroke-linejoin="round" d="m121.908 570.293.349-.261.11-.006m377.249 56.081.268-.004 1.493-.022.314-.005.44-.007.857-.012.907-.014 5.999-.089 1.521-.023.963-.014.574-.009.529-.008 1.709-.025.213-.003.33-.005 1.147-.021.128-.003h.031l9.998-.184 9.999-.184 2.113-.038 9.997-.219 9.998-.218 3.133-.069 2.739-.071 9.997-.26 2.011-.052 2-.052 1.162-.03.891-.023 2.776-.072 9.995-.316 9.995-.315.255-.008 9.992-.385 9.153-.353 9.989-.47 8.297-.39 8.875-.505 8.798-.5 9.959-.895 2.798-.251 4.402-.396 9.892-1.462 6.845-1.012 9.744-2.252 6.665-1.54 9.468-3.218 6.696-2.276 2.418-1.053.196-.085 8.584-3.737.393-.171 4.369-1.902.126-.055.041-.018 2.965-1.523.797-.41 2.046-1.051 1.384-.711 4.483-2.303 4.537-2.331.09-.047 1.551-.888 3.307-1.893 8.679-4.968 2.586-1.481.566-.324 2.131-1.301 8.534-5.212 1.509-.922 1.948-1.189 2.587-1.581.582-.355 8.438-5.365 4.749-3.019 3.164-2.012.212-.135 8.375-5.465 1.123-.733 3.019-1.971 2.033-1.327 4.831-3.202 2.195-1.455 2.033-1.348.171-.113 1.669-1.106.386-.256 2.694-1.786.805-.533 1.3-.862 1.989-1.318 2.086-1.354.826-.536.583-.378 1.381-.773.434-.194.68-.13 1.469-.04 2.804.073 4.615.201 6.901.346 2.088.13 6.6.409 2.678.209 1.296.101 6.005.47 6.803.674 3.972.394 4.558.579 6.524.828 5.392.794 5.243.772 9.43 1.547 5.105.922.145.026.183.033 2.036.368 4.749.973 1.259.39 1.759.544.007.002m2.293 1.24 1.979 1.459.574.422 1.863 1.401 1.938 1.457 4.41 3.352 4.382 3.366 3.727 2.905 2.444 1.973.79.676.044.038.588.503.004.003.006.005"/><path stroke-linejoin="round" d="m963.881 566.455.038.035.044.043.638.62"/><path stroke-linejoin="round" d="m963.963 566.533.59.566.048.054.239.316.042.079.056.106-.094.088-.646.584-2.13 1.408-4.277 2.71-7.102 4.502-2.356 1.527-.001.001-.003.002-.004.003-.009.006-.16.103-.619.401-.346.224-.644.418-1.042.675-.287.186-.018.012-.26.168-1.155.749-.201.13-.144.094-.139.09-.073.047-1.141.739-.444.288-.073.05-1.384.931-.43.289-.366.247-.097.065-.962.647-2.751 1.851-.314.211-.809.545-2.841 1.911-.98.697-.295.21-.227.161-.372.265-1.028.731-.099.071-2.204 1.567-.312.222-.087.062-.459.327-.463.329-.829.589-.043.031-1.098.781-.411.292-.741.527-.207.148-.112.08-.284.201-4.027 3.114-1.517 1.174-1.549 1.197-1.861 1.439-.519.401-.108.09-1.755 1.467-2.452 2.049-1.506 1.258-2.519 2.104-.4.335-1.045.938-2.951 2.649-1.693 1.52-2.003 1.797-.357.321-1.263 1.21-3.772 3.614-1.628 1.56-.738.707-.97.984-1.54 1.565-4.154 4.217-.134.136-1.548 1.7-1.112 1.22-.089.098-1.68 1.844-1.924 2.113-2.567 3.094-1.524 1.836-1 1.206-.977 1.177-.498.665-4.296 5.723-1.151 1.533-.384.565-.017.025-.533.782-1.44 2.116-3.252 4.779-.362.533-.884 1.416-1.293 2.074-.423.678-1.298 2.081-.987 1.582-1.143 1.834-2.384 4.134-1.295 2.245-.137.238-1.233 2.138-1.015 1.759-3.89 7.243-.056.105-.822 1.53-.383.714-.857 1.595-.087.161-4.495 8.933-.224.446-.669 1.329-.64 1.272-.094.188-.537 1.146-4.239 9.057-.63 1.345-.594 1.27-.04.086-.487 1.128-.556 1.289-1.523 3.533-.716 1.661-.079.184-.369.856-1.805 4.186-.312.723-.248.634-.555 1.414-.546 1.391-3.652 9.309-.542 1.382-.093.266-.533 1.52-.392 1.115-.442 1.26-.103.296-.059.167-3.31 9.436-.194.555-.28.895-.435 1.394-.494 1.583-.431 1.38-.094.3-.491 1.573-.22.705-2.26 7.236-.445 1.613-.13.467-.317 1.148-.46 1.665-.184.667-.13.47-2.611 9.452-.611 2.521-.22.907-.171.706-.361 1.488-.215.887-2.267 9.355-.707 3.36-.136.65-.475 2.258-.132.631-1.958 9.311-.589 3.359-.068.392-.487 2.778-.065.371-1.723 9.836-.478 3.449-.016.12-.392 2.826-.014.104-1.181 8.524-.336 2.421-.16 1.572-.046.455-.013.129-.307 3.02-.016.162-.744 7.313-.578 5.684-.026.399-.165 2.515-.029.433-.099 1.516-.392 5.962-.248 3.776-.296 4.508-.013.205-.007.1-.062 1.429-.042.967-.149 3.446-.254 5.866-.003.074-.04.938-.091 2.083-.179 4.15-.043 1.452-.151 5.082-.042 1.393-.035 1.197-.05 1.665-.038 1.279-.145 4.889-.13 5.491-.035 1.473-.025 1.016-.036 1.537-.093 3.916-.076 2.328-.154 4.756-.022.696-.015.45-.005.151-.294 4.838-.203 1.459-.186 1.341-.002.007-.383 1.565-.17.691-.136.556-.386 1.579-.268 1.092-.831 3.31-.15.597-.255.976-.338 1.294-.174.669-.24.915-.118.454-.383 1.383-.412 1.484-.11.399-.102.365-.221.798-.057.19-.076.254-.211.702-.364 1.21-.369 1.229-.013.042-.194.644-.416 1.31-.074.231-.064.203-.692 2.178-1.121 3.387-.902 2.661-.592 1.75-.379 1.036-.259.518-.227.224-.285.154-.649.128-.064.012-1.512.18-2.643.275-4.107.428-4.852.501-4.867.51-4.148.43-2.687.28-2.454.17-3.454.1-5.692.06-6.906.05-2.265.02-10 .03h-1.846l-10-.03-3.712-.01-10-.11-4.76-.06-2.448-.05-9.998-.22-2.534-.05-9.995-.32-5.213-.16-9.992-.41-5.448-.22-9.987-.496-5.69-.28-9.984-.567-5.935-.337-9.98-.629-5.965-.376-9.977-.682-5.78-.395-9.973-.726-5.385-.391-9.971-.761-4.785-.365-9.968-.793-3.955-.315-9.966-.821-2.895-.239-9.964-.848-1.619-.138-9.961-.875-.124-.01-8.832-.799-7.822-.73-7.052-.675-6.519-.635-5.775-.571-4.827-.482-3.67-.37-2.31-.231-.294-.034-1.444-.229-.296-.082-.435-.145-.498-.167-.13-.043-.008-.003-.512-.227-.946-.476-2.525-1.276-2.213-1.116-2.759-1.412-1.369-.718-1.708-.896c-.845-.755-1.259-1.249-2.444-1.604m530.989-410.69.032.03m-26.802-19.341 1.738.533.028.013.688.373m0 0 1.605.867-.035-.022-1.57-.845Zm-491.388 381.94c.164-.041.201-.132.215-.358l-.215-.535-.192-.561-.041-.117-.329-.965-.244-.373-2.329-3.591-4.13-4.862-2.474-2.541-2.594-2.665-.709-.728-3.294-3.146-3.383-3.231-.377-.361-.461-.441-.519-.463-.168-.151-.36-.323-.144-.128-.344-.307-.787-.704-.084-.076-1.021-.913-.255-.23-1.027-.918-.5-.448-.651-.582-.833-.746-1.016-.909-.833-.745-.021-.019-1.69-1.399-2.455-2.034-.383-.318-1.181-.979-.05-.04-2.924-2.423-.233-.192-.833-.617-.684-.507-.862-.638-5.891-4.36-.307-.226c-12.33-6.069-23.401-9.339-52.672-14.988-1.825-.358-2.971-.591-5-1l-35.5-5m44.724-261.872.271-.068 3.229-.816.207-.052 2.426-.613.615-.156 2.644-.668.335-.1 4.593-1.38 1.034-.31 2.133-.641 5.861-1.981.444-.162 2.865-1.049 1.705-.619 2.419-.872 1.671-.58.941-.265 1.283-.311.32.002h.045l.801.004 1.556.236 2.455.378 3.086.471 3.448.515.198.028 1.045.15 2.291.329 3.338.447 3.034.383 2.62.315 2.098.241 1.471.164.261.032.701.086m-141.935 11.995.1.001 1.127.017 3.866.059 1.07.016.13.002 3.142.048h.147l7.221-.012h.061l.747-.001.556-.001.859-.002 1.763-.035.095-.002.354-.007 7.535-.152 4.826-.193.8-.032.568-.022.123-.005.487-.02.023-.001.159-.006 2.91-.117 1.211-.074 1.654-.102 7.177-.441 9.958-.915.109-.01 9.993-1.326"/><path stroke-linejoin="round" d="m343.372 603.077.024-.004 5.754-1.076.564-.106.647-.121.21-.039.535-.1.467-.087.053-.01.104-.02 1.657-.309m12.337 24.518.039.001 1.27.034 1.853.05 5.349.053.545.005 3.616.036 3.88.038 6.122.06 3.957.039 9.212.091.686.007.089.001.778.007.059.001h.053l.58.006 1.966.019.198.002.745.008 6.602.064.246.003 2.407.023.945.009 9.999.098 1.24.012 10 .066 2.998.019 10 .013 4.619.007 1.451-.007 3.018-.014 3.322-.016 2.796-.013h.072l3.205-.015.231-.001.695-.004.519-.002 1.75-.008.253-.003.966-.01 5.292-.056 1.47-.015.963-.01 1.471-.016 5.546-.058.6-.006 2.344-.025.39-.004.087-.001.961-.01 1.896-.028 4.541-.066.268-.004 1.493-.022.311-.004.442-.007.858-.012.907-.014 5.85-.085.15-.002 1.522-.023.963-.014 1.104-.016 1.709-.025.213-.003.242-.004m-97.419-30.779-.077-.078-.329-.233-.33-.148-.361-.116"/><path stroke-linejoin="round" d="m415.859 594.325.934.11.532.097.468.179.314.22.143.151m-54.001 30.465.643.075.871.102m1.27.034.18-.157.357-.239m474.147-86.649 1.194.105.441.138m-770.829 56.95-.066-.086-.09-.266-.125-.38-.163-.549-.148-.676-.085-.758.025-1.092.18-.792.139-.325.418-.835.014-.027.49-.672.772-1.003 1.028-1.315 1.782-2.268 2.733-3.521 3.4-4.371 3.783-4.823 3.887-4.881.777-.965 3.738-4.614 3.708-4.406 3.75-4.249 3.863-4.147 4.046-4.097 3.406-3.313.529-.514"/><path stroke-linejoin="round" d="m113.785 541.475 2.697-2.641 3.718-3.551 2.989-2.813 1.953-1.844 1.169-1.082 2.698-2.509 2.55-2.223.614-.534 1.158-.963m251.673 89.919 1.226-.702 1.351-.774.352-.201.336-.192 3.268-1.871.969-.555.029-.016.071-.041.948-.543 4.587-2.563.359-.201.186-.104 3.998-2.235 7.397-3.981.018-.01 1.382-.744.17-.092.935-.471.458-.231 5.185-2.614.021-.011 1.461-.737 3.983-1.796 2.344-1.056 1.68-.758 8.231-3.237.584-.229 2.182-.757.673-.233.341-.118 1.023-.354 1.424-.493 1.68-.582 1.357-.471.346-.119.702-.244.298-.103.459-.159.614-.194.703-.221 4.184-1.321.805-.255 1.275-.402.932-.294 2.095-.662.833-.263 1.326-.419.265-.083.582-.171.188-.056.68-.2.308-.091.745-.219.005-.001.636-.188.407-.119.632-.186.352-.104 1.149-.338.997-.294 1.01-.297.741-.218.257-.076.192-.056.471-.139.716-.211.027-.007.613-.181.517-.152.638-.188 2.878-.847 9.64-2.659 5.962-1.645 4.333-1.112.456-.117 7.06-1.812.445-.114 3.308-.849.597-.14 3.145-.734.429-.1 1.803-.421 5.265-1.228.303-.071 2.012-.47 1.168-.272 9.785-2.061 1.12-.236 3.248-.683.206-.044.03-.005 7.386-1.408.231-.044 4.424-.844 2.446-.466.526-.092.228-.04 7.376-1.297.224-.039 2.419-.426 4.429-.778 1.715-.286 8.619-1.436 2.249-.374 1.856-.309 1.98-.33 9.873-1.586 6.483-1.041 9.88-1.545 5.117-.801 9.884-1.514 1.861-.284.582-.09 8.347-1.254 5.871-.811 4.429-.474 4.559-.328 6.074-.343 7.561-.372 9.019-.416 9.99-.452.457-.02 9.99-.459 1.85-.085 9.99-.446.454-.02 2.506-.112 9.992-.415 3.782-.158 9.993-.371 4.323-.16 9.995-.31 4.579-.142 9.997-.257 4.453-.114 10.011-.204 3.932-.081.082-.001 9.999-.151 2.979-.045 9.999-.089 1.801-.016 10-.035.428-.002 4.594.004 4.348.004 5.701.022 1.645.006 5.425.025.21.001.121.002 4.024.103 2.434.289 1.007.561-.128.459-.129.463-2.074 1.77-.971.678-1.242.866-.776.541-1.464 1.022-1.54 1.029-1.231.821-.457.306-2.357 1.575-1.417.946-.312.208-6.556 4.373-3.011 2.008-1.11.74-8.361 5.485-.55.361-2.871 1.883-1.602 1.051-8.434 5.373-3.734 2.379-2.607 1.661"/><path stroke-linejoin="round" d="m817.07 556.059-8.365 5.479-4.853 3.179M388.398 626l-2.924-.038-7.002-.103-.671-.01-2.902-.05-2.499-.043-3.408-.151-1.301-.224"/><path stroke-linejoin="round" d="m368.676 625.534-.985-.153-.121-.019-.657-.102-.414-.487.589-.781.149-.208 1.776-1.27 3.41-2.055 5.239-3.027 7.259-4.181 1.286-.73 1.358-.773.353-.201.337-.191 3.278-1.864.973-.553.029-.016m344.334-5.971-8.635 3.741-.204.089-2.454 1.063-9.469 3.215-6.657 2.26-9.745 2.248-6.636 1.531-9.893 1.457-6.824 1.005-4.406.395-9.96.893-2.773.248-8.821.499-8.828.5-9.989.468-8.264.387-9.993.385-9.117.35-9.995.316-9.995.317-.219.007-2.918.077-.896.023-1.156.031-2.001.052-9.996.264-2.027.053-2.551.067-9.997.225-9.998.225-3.112.07-9.998.192-9.998.191-2.306.044-.032.001-.127.002-.938.018-.539.009-.213.003-1.708.027-.529.008m-135.378-.162-2.518-.036-2.917-.041-3.463-.135m1036.814-300.99 1.62-.389 1.36-.327.99-.243.7-.172.48-.114 4.24-.922.35-.032 5.07-.273 6.04.118 1.2.043 5.93.209 8.06.38 1.06.06 7.76.443.2.013.33.022 5.92.391 2.94.195 4.69.35 1.62.121 3.49.261 6.47.626 3.41.33 6.54.872 3.14.418 1.39.265 2.5.472 5.26 1 5 1.378.06.016 3.26.899.25.079 7.5 2.862 2.86 1.459 2.98 1.526.91.467 4.2 2.827 1.84 1.233.79.698 4.54 3.967.03.019 3.24 3.549 1.45 1.599 4.05 5.451 1.51 2.461 1.91 3.132.5 1.012.63 1.254 1.66 3.308.73 1.739 1.47 3.496 1.66 4.572 1.16 3.589.69 2.285.29 1.28-.05.578-.3.194-.03.01"/><path stroke-linejoin="round" d="m1409.46 323.631-2.32.525-1.65.388-2.44.571-2.72.714-3.11.958-3.43 1.269-3.43 1.534-.25.116-3.13 1.715-3.71 2.234-3.7 3.053-.76.809-1.52 1.633-2.46 2.777-1.04 1.169-3.29 5.137-1.43 2.381-2.5 4.697-.51.966-.97 2.133-1.85 4.065-1.82 4.553-.74 1.849-1.1 3.048-.03.081-.04.115-.09.266-.12.326-.88 2.439-.24.713-1.29 3.929-.12.343-.03.1-.1.298-.08.249-.06.186-.48 1.545-1.08 3.486-1.16 3.912-.73 2.461-.35 1.353v.584h.28"/><path stroke-linejoin="round" d="m1352.68 394.315.85.001 1.83-.052.37-.015 2.23-.088 2.33-.105 1.26-.056 2.86-.135 1.87-.089.07-.003 4.44-.215.46-.022 1.3-.063 7.85-.382 2.16-.106 7.18-.352 9.99-.495.7-.035.79-.04.47-.023 5.27-.265 5.39-.27 9.98-.507 3.01-.153 9.99-.508 3.29-.168 9.99-.505 2.79-.141 9.99-.494 1.47-.073 7.24-.342 1.96-.093.12-.006 7.75-.349 4.59-.2.16-.007 2-.087 6.31-.271 60.4-1.956m-522.24-181.944.32-.056 1.06-.183 7.35-1.268 4.52-.752 4.48-.745 9.29-1.49 9.55-1.485.4-.059 9.44-1.422.21-.031 9.89-1.45 7.81-1.108 2.57-.365.75-.103 9.91-1.354 1.03-.135 9.91-1.299 1.31-.163 9.92-1.239 1.56-.185 9.93-1.181 1.78-.203 9.94-1.124 2-.215 9.94-1.068 2.19-.222 9.95-1.013 2.42-.233 9.96-.959 9.37-.854.5-.045 2.78-.253 3.01-.259 9.96-.858 3.36-.274 9.97-.811 3.35-.259.29-.023 9.97-.771 3.84-.283 9.97-.736 3.94-.279 9.98-.704 3.97-.269 9.97-.676 4.02-.261 9.98-.646 4.1-.252 9.98-.615 4.19-.245 9.98-.583 4.33-.237 9.98-.549 4.28-.215 9.99-.501 4.07-.178 9.99-.438 3.67-.13 9.99-.356 3.09-.077 9.99-.249h80.89m-446.14 33.996-8.35 1.515-7.84 1.521c-68.824 20.138-114.382 38.975-200.568 77.908-87.947 43.223-133.72 71.581-215.5 122m592.528-232.364 9.93-1.169.84-.099 9.94-1.129 1.22-.139 9.94-1.114 1.72-.193 9.93-1.101 2.15-.237 9.94-1.089 2.51-.274 9.94-1.078 2.8-.303 9.94-1.067 3.02-.323 9.94-1.057 3.14-.333 9.94-1.044 3.15-.332 9.95-1.032 3.07-.319 9.95-1.019 2.87-.295 9.95-1 9.95-1.001 6.27-.63 9.95-.942 2.61-.246 9.96-.859 2.64-.227 9.97-.812 2.74-.223 9.97-.763 2.66-.203 9.98-.661 2.71-.179 9.98-.595 2.1-.125 9.98-.567 2.58-.146 9.99-.472 2.45-.116 10-.378 2.22-.084 10-.375 1.4-.053 10-.285 1.82-.052 10-.198 1.5-.029 10-.155.91-.015 10-.107 1.03-.011 10-.025.65-.001 10 .073.27.002 10 .084.56.004 9.81.199 10 .295.58.017 9.35.325 9.99.486.73.035 7.59.388"/><path stroke-linejoin="round" d="m1178.1 175.944-.45.056-.52.067-9.92 1.256-.34.045-9.91 1.343-.23.035-9.9 1.452-3.85.573-9.89 1.472-9.91 1.565-9.69 1.628-3.37.567-9.86 1.659-9.38 1.657-9.1 1.693-2.37.444-9.83 1.838-8.68 1.682-8.24 1.69-.83.173-9.79 2.054-7.63 1.651-8.9 2.062-6.88 1.611-7.02 1.764-6.18 1.581-5.02 1.341-3.06.815-1.573.434-5.423 1.532-4.961 1.522-4.571 1.509c-87.849 30.983-133.098 51.343-211.43 89.43-70.168 38.152-108.718 60.35-175 102.5v.5M1178.1 175.944l9.92-1.239 3.4-.424-9.92 1.234-.56.069-2.84.36Z"/><path stroke-linejoin="round" d="m1095.47 193.652 5.85-.799 9.91-1.268 2.79-.356 9.93-1.184 5.18-.617 9.93-1.112 8.35-.934 9.94-1.061 9.95-1.061.32-.034 9.94-1.016 6.33-.647.81-.083 3.7-.378 8.67-.844.03-.003 9.95-.969 1.3-.126 9.96-.907 7.63-.695 6.9-.58M1012.45 415.13l.09-.01.01-.001.44-.045.52-.053 1.02-.106.44-.046 1.04-.108 1.03-.106 3.54-.367 9.95-1.03.39-.04"/><path stroke-linejoin="round" d="m1016.01 414.761 1.64-.175 9.95-1.061.32-.035m-12.95 1.379 10-1.104m-11.46 1.256 9-1.024m-9.96 1.122 8.4-.974m-57.041 152.337-.028-.027-.56-.476m-176.358 9.462-8.541 5.201-1.495.911-2.704 1.647m-14.572 8.342-1.641.935m-12.45 6.396-.795.406-3.002 1.532-.132.068m-376.739 24.743-.36-.299m-7.709-24.986 2.414-.617.61-.155 2.996-.765m70.549 378.52-2.332-.768-2.229-.613-2.69-.631-3.354-.67-4.455-.79-5.735-.943-7.951-1.265-8.88-1.389-3.682-.571-5.109-.792-7.702-1.184-5.626-.86-4.234-.64-3.517-.526-3.471-.514-4.088-.605-4.78-.711-5.547-.828-6.381-.96-7.286-1.102-8.066-1.247-8.72-1.394-.265-.043-9.25-1.54-9.652-1.687-6.988-1.277-2.957-.54-9.823-1.872-.305-.059-9.809-1.947-.398-.08-9.793-2.025-.388-.08-9.777-2.102-.282-.061-9.846-2.195-9.542-2.208-9.153-2.198-8.839-2.196-8.596-2.2-8.424-2.208-8.32-2.223-8.149-2.238-7.913-2.253-7.613-2.269-7.25-2.282-6.915-2.284-6.607-2.271-6.326-2.245-6.075-2.208-5.827-2.183-.239-.092-5.584-2.174-5.347-2.179-5.111-2.199-4.827-2.194-4.494-2.168-4.117-2.124-3.695-2.057-3.677-2.225-.79-.52-1.365-.903-2.139-1.399-2.832-1.881-2.545-1.728-2.576-1.89-2.4-1.782-2.238-1.884-1.958-1.676-1.572-1.549-1.53-1.714-1.25-1.411-.982-1.249-.77-1.07-.598-.91-.983-1.522-.468-.775-.37-.654-.315-.552-.28-.556-.58-1.286-.27-.671-.328-1.013-.229-.715-.287-.892-.324-1.214-.12-.501-.322-1.445-.285-1.586-.218-1.662-.124-1.672-.015-1.655.108-1.605.231-1.598.35-1.633.502-1.656.684-1.669.894-1.705 1.131-1.764 1.398-1.818 1.69-1.865 2.01-1.906 2.352-1.94 2.761-1.948.116-.078"/><path d="m948.392 578.145 81.428 4.496c.05.003.1.009.15.019 63.59 13.184 97.92 26.938 145.88 113.914.03.046.05.097.07.147 18.9 52.689 23.87 87.138 18.47 160.924-8.39 54.239-17.87 82.401-44.5 128-38.93 58.935-66.5 76.425-119.93 95.975-.04.02-.09.03-.14.04-32.079 6.54-53.812 5.57-100.428-6.01-33.459-8.73-50.519-13.56-76-22-32.045-13.98-48.939-29.78-78-66.005"/></g><defs><clipPath id="teslam3-Lm6TpFjX_svg__a"><path fill="#fff" d="M1407 0H0v1169h1407z"/></clipPath></defs></svg>