<svg fill="none" viewBox="0 0 1752 874" xmlns="http://www.w3.org/2000/svg"><path stroke="#fff" stroke-linejoin="round" d="m199.124 764.411-1.921-.681-3.588-1.216-1.069-.353m23.875 12.718.12.064.899.278 1.444.339 2.309.542 3.052.708 3.672.838 4.172.931 4.546.986 5.089 1.066 5.797 1.171 6.679 1.302 7.731 1.459 8.659 1.576 9.458 1.655 9.863 1.651.265.044 9.876 1.569.785.125 9.89 1.479 1.183.177 9.905 1.377 1.458.203 9.92 1.261 1.603.204 9.936 1.13 1.62.184 9.95.993 1.614.161 9.964.852 1.588.136 9.975.707 1.543.109 9.985.555 1.478.082 9.99.448.739.033 9.316.346 3.603.117 3.628.118 4.472.145 2.743.048 1.426-.039.089-.002.384-.01.143-.004 2.369-.167 3.72-.284 4.429-.348 4.496-.359 3.927-.316 2.723-.221 1.783-.146 1.104-.092.686-.058.526-.045.338-.07"/><path stroke="#fff" stroke-linejoin="round" d="m369.378 799.402-9.963-.852-1.618-.139-9.951-.991-1.637-.163-9.936-1.129-1.631-.185-9.92-1.26-1.599-.203-9.905-1.374-1.442-.2"/><path stroke="#fff" stroke-linejoin="round" d="M416.974 802.366h-.004l-.028-.001-5.187-.202-9.508-.375-9.99-.452-.821-.037-9.985-.554-1.51-.083-9.975-.706-1.583-.112-9.963-.85-1.6-.137-9.951-.988-1.561-.155-9.937-1.121-1.47-.166-9.921-1.251-1.325-.167-9.906-1.369-1.097-.151-9.891-1.472-.79-.117-9.877-1.566-.407-.064-9.811-1.64-9.196-1.609-8.442-1.537-7.551-1.427-6.526-1.275-5.674-1.149-4.987-1.048-4.466-.972-4.107-.919-3.625-.829-3.017-.701-2.285-.537-1.431-.337-.859-.283-.892-.379-.642-.274-.414-.19-.665-.365-.063-.037m.524.272-.484-.26m203.176 29.22-2.308-1.629m3.753 2.521-.015-.009-1.43-.883 1.427.88.018.012Zm0 0 2.967 1.83m31.506-7.044.002.004.124.235-.009.267-.105.448-.199.701-.29 1.027-.386 1.335-.481 1.628-.58 1.902-.68 2.162-.752 2.143-.793 1.852-.827 1.443-.223.368-.961 1.028-.425.185-1.392.4-.57.045-.758.059-.844-.107-2.167-.378-3.181-1.221-4.482-2.152-5.098-2.69-1.287-.708-2.627-1.498m0 0-1.34-.764-.02-.012-1.155-.658 1.38.794 1.135.64ZM50.525 642.533l-.11-.306-.35-1.184-.173-.588-.083-.283-.022-.102-.001-.006-.11-.513-.001-.003m166.236 91.687-1.439.196-.014-.001-2.715-.14-3.41-.48-3.877-.766-4.133-.999-4.181-1.181-4.2-1.307-4.191-1.376-4.152-1.391-4.099-1.29-3-1-1.5-.5-24.5-8.5c-13.372-4.814-20.88-7.434-34-14-14.467-7.585-22.563-11.795-38-22-9.017-6.537-13.75-11.17-21.5-21.5-4.067-6.225-5.65-9.523-7-15m94.613 36.247 4.831 1.907 2.48.932 2.389.897.562.211.419.149 2.358.841 2.894 1.032 5.959 2.018 3.788 1.234m1563.297-57.596-.25.018-8.1.577-9.1.77-9.56.904-9.77 1.001-9.72 1.056-9.37 1.072-9.27 1.11-9.38 1.174-9.73 1.262-9.91 1.321-.4.053-9.91 1.344-1.15.156-9.91 1.357-2.06.284-9.91 1.36-3.16.434-9.91 1.355-4.43.607-9.91 1.353-5.47.747-9.91 1.352-6.26.856-9.91 1.35-6.82.93-9.91 1.351-7.12.971-9.9 1.356-7.5 1.026-9.91 1.367-7.97 1.099-9.9 1.381-8.53 1.189-9.9 1.399-9.19 1.299-9.9 1.412-9.74 1.39-9.89 1.42-9.9 1.421-.28.039-9.89 1.426-9.9 1.425-.6.085-9.89 1.425-9.9 1.425-.79.114-9.9 1.425-9.9 1.426-.99.142-9.9 1.425-9.9 1.425-1.19.173-9.9 1.425-9.9 1.425-1.4.202-9.9 1.425-9.9 1.425-1.61.232-9.9 1.425-9.9 1.425-1.72.248-9.9 1.425-9.9 1.425-1.73.25-9.89 1.425-9.9 1.425-1.63.234-9.9 1.426-9.9 1.425-1.42.204-9.89 1.425-9.9 1.425-1.31.188-9.89 1.425-9.9 1.425-1.29.186-9.9 1.425-9.9 1.426-1.38.199-9.9 1.425-9.9 1.425-1.59.228-9.89 1.426-9.9 1.426-1.69.243-9.9 1.427-9.89 1.426-1.69.243-9.9 1.429-9.89 1.429-1.58.228-9.89 1.431-9.9 1.432-1.35.195-9.9 1.434-9.9 1.434-.38.056-9.901 1.436-8.545 1.239-9.896 1.438-6.016.874-9.896 1.439-2.682.39-9.839 1.456-7.715 1.195-6.224 1.049-5.379 1.017-4.55.942-3.739.824-2.943.659-2.166.449-1.805.321-1.864.277-2.34.314-3.241.435-3.695.496-3.699.496-3.251.436-2.35.316-1.533.122-1.501.007-1.882-.33"/><path stroke="#fff" stroke-linejoin="round" d="m889.289 744.026 2.568.704.811.21-2.471-.638-3.261-.916-3.645-1.061-3.631-1.077-3.222-.964-2.428-.726-1.998-.818-1.719-.722-1.752-1.164-1.832-1.489-1.08-1.051-2.101-2.034-1.893-2.114m888.855-102.699-.76-.009-.42-.005-3.9-.046-6.35.179-4.76.253-.96.051m18.26-.218-2.29-.219m-838.853 62.669-.917.145-1.455.273-.756.248-.343.309-.217.459-.126.714-.074 1.074-.059 1.539-.08 2.108-.143 2.647-.17 2.152-.078 1.001-.395 3.626-.583 4.067-.749 4.288-.892 4.293-1.014 4.082-1.115 3.654-.138.391-.984 2.785-.981 2.494-.059.151-.866 2.064-.601 1.434-.357.927L894 745m9.346-472.679-.153-.101-.06-.049-.04-.121.065-.14.502-.373 1.266-.821 2.323-1.473 3.674-2.326 5.211-3.418 5.893-4.03.181-.124.86-.588 1.286-.917 7.321-5.216.164-.116.061-.044 1.898-1.404.21-.155 8.039-5.948.751-.556 7.994-6.008 4.961-3.728 7.984-6.022 7.008-5.285 7.997-6.005 5.722-4.297 1.075-.808.793-.595.235-.176 1.184-.889 8.024-5.969.487-.362 3.23-2.403.038-.029.383-.284 1.487-1.107 5.34-3.969 1.44-1.06 3.63-2.654 3.95-2.899 8.07-5.91 3.43-2.51 5.89-4.224 8.12-5.829 7.62-5.466 8.2-5.725 8.2-5.725 5.93-4.142 6.72-4.535.1-.067 7.38-4.976 7.19-4.85 1.24-.843.78-.506 8.39-5.452 8.38-5.452 4.91-3.196 8.49-5.292 8.48-5.293 4.86-3.03 8.48-5.03.48-.28 8.6-5.1 3.2-1.902 8.75-4.856 8.74-4.855 1.8-1 8.88-4.589 8.89-4.589.33-.173 9.03-4.31 4.48-2.143 3.71-1.77 9.15-4.035 1.61-.71 5.83-2.575 9.26-3.778 6.99-2.853.12-.045 2.68-1.007.12-.044.4-.153 2.26-.846 9.36-3.517.6-.227.06-.024.3-.112.06-.02.24-.083.13-.047.1-.035 4.25-1.459.13-.044 3.41-1.169.04-.015 7.06-2.425.29-.088 9.55-2.966.38-.118 4.61-1.434 1.91-.528 1.54-.425 2.82-.78 1.44-.399 1.55-.428 4.98-1.38.98-.238h.01l9.71-2.359 3.4-.824 2.99-.632 3.19-.676 8.2-1.733 9.83-1.826 5.25-.975 9.87-1.64 6.33-1.054 9.89-1.459 6.96-1.027 9.92-1.267 7.17-.915.38-.04 9.95-1.05 6.57-.694 9.97-.79 5.01-.399 1.33-.105 9.99-.564 5.79-.327 9.99-.373 5.29-.198 9.13-.206.67-.015 5.05-.114 8.03-.1 6.42-.08h.44l7.22.011 2.02.003 1.05.001 1.03.001 1.46.003 1.11.001 9.22.17 5.22.096 10 .374 4.63.173.19.008.22.01 8.24.474 3.68.211 3.5.201 8.05.611 2.27.173 5.48.416 9.82.92 6.16.575 9.93 1.106 5.07.564.92.103 9.92 1.286 5.76.747 9.89 1.47 5.53.822.25.042m2.57.432 9.86 1.66 2.46.413.25.045"/><path stroke="#fff" stroke-linejoin="round" d="m1648.77 24.148-.55-.094-9.86-1.673-1.33-.225-.58-.099-.45-.076-.12-.02-.4-.069-.15-.026-.01-.001-.01-.002-.45-.076-.89-.151-.29-.049-.35-.058-.36-.061-.33-.054m0 0-.03-.006-.32-.053.35.059ZM988.562 266.917l-1.034 1.07-4.089 4.232-2.954 3.057-1.868 1.933-1.064 1.069-.114.098-.425.365-.028.013-.257.118-.01.005-.04.01-.293.079-.172.018-.942.07-.78.027-.229.008-.404.014-.609.021-.152.005-3.453.095-5.694.158-4.844.088-2.187.04-2.53.004-.805.001-4.274.006-1.492-.039-5.93-.156M1259.72 75.062l-9.16 4.009-7.22 3.157-9.05 4.237-7.98 3.728-8.93 4.495-8.81 4.435-8.79 4.772-8.79 4.772-.96.522-8.63 5.06-8.5 4.991-2.27 1.327-8.47 5.304-8.48 5.305-2.97 1.861-5.85 3.872-8.33 5.525-5.94 3.934-6.16 4.309-8.19 5.733-5.59 3.909-8.04 5.941-1.71 1.263-.41.302-7.21 5.326-2.02 1.486-7.9 6.13-7.9 6.131-2.63 2.045-2.36 1.92-4.04 3.287-.84.689-.32.26-1.04.84-.18.152-.26.214-7.76 6.314-.28.226-2.33 1.998-.27.233-.7.599-.87.748-7.6 6.506-3.51 3.011-7.4 6.727-1.31 1.19-4.35 3.956-7.21 6.926-3.85 3.691-7.05 7.09-2.24 2.248-6.94 7.191-.823.847-4.107 4.251L988 267.5m-40.181 11.982-6.129-.148-.266-.008-.362-.009-.436-.011-.485-.011-2.934-.06"/><path stroke="#fff" stroke-linejoin="round" d="m1635.31 21.863 9.86 1.66 2.26.382.31.056"/><path stroke="#fff" stroke-linejoin="round" d="m1635.78 21.943 9.86 1.664 1.98.333.12.02.34.063m.36.064.33.06.29.053 9.82 1.86 2.67.507 2.06.39"/><path stroke="#fff" stroke-linejoin="round" d="m1661.55 26.567 1.73.327.33.063.28.054 9.79 2.047 4.79 1.003 9.75 2.229 4.62 1.057 9.71 2.405 4.49 1.114 9.67 2.575 4.41 1.175 9.61 2.737m-95.41-21.488.02.003.44.075 1.38.234 9.86 1.667.79.133.27.046.36.064-.41-.069-9.86-1.67-1.26-.214-.85-.144-.18-.029M622.845 185.864l7.504-4.534 8.612-5.083 8.612-5.083 1.143-.674.037-.021 8.662-4.998 8.662-4.997 2.652-1.53 8.72-4.895 8.72-4.895 3.789-2.128 8.782-4.781 8.783-4.782 4.509-2.455 8.853-4.652 8.852-4.651 4.815-2.53 8.921-4.519 8.92-4.52 4.637-2.349 8.991-4.376 8.089-3.937"/><path stroke="#fff" stroke-linejoin="round" d="m757.238 111.692 8.991-4.379 7.881-3.839 5.116-2.492 9.069-4.214 9.069-4.214 2.852-1.325 9.161-4.01 9.16-4.01 1.209-.53.232-.099 9.252-3.796 9.088-3.729 9.34-3.574 8.061-3.085 9.419-3.359 7.297-2.6 9.488-3.163 6.796-2.264 9.554-2.955 6.257-1.935.225-.067 9.618-2.736 5.681-1.617 9.682-2.503 5.063-1.31 9.743-2.252 1.685-.39M599.848 199.877l-6.314 3.895-5.818 3.589-1.509.929-8.516 5.241-7.92 4.761-6.056 3.545-4.436 2.525-3.063 1.703-1.939 1.079-1.067.608-.445.289L551 229c-12.14 5.687-18.915 6.944-31 9"/><path stroke="#fff" stroke-linejoin="round" d="m593.534 203.772 6.275-3.883 8.527-5.225 5.694-3.489 8.566-5.161.249-.15 7.5-4.518M270.761 285.937l7.633-2.632 9.523-3.051 7.397-2.37 9.596-2.811 7.565-2.216 9.669-2.553 8.058-2.128 9.734-2.292 8.87-2.089 9.79-2.042 9.789-2.042.202-.042 9.83-1.835 9.83-1.834.868-.162 9.863-1.653 9.862-1.654 1.14-.191 9.888-1.487 9.889-1.488 1.029-.155 9.91-1.336 9.911-1.336 1.182-.16 9.924-1.236 9.462-1.178 9.933-1.157 7.797-.907 1.731-.204m4.149-.361 5.087-.722.037-.006 2.648-.376.482-.068 2.106-.3.604-.086 2.551-.362 4.129-.587 1.561-.221.515-.078 6.327-.955 5.178-.808 3.591-.601 1.734-.334.042-.008.837-.162"/><path stroke="#fff" stroke-linejoin="round" d="m492.527 241.557 4.441-.603.069-.009 1.693-.23 1.586-.216 2.747-.373 5.237-.711m-17.999 2.323.335-.042 7.026-.868"/><path stroke="#fff" stroke-linejoin="round" d="m491.27 241.657 2.734-.355.132-.017 3.526-.457 5.401-.702M118.799 345.537l.259-.183 3.827-2.695 3.334-2.284 4.609-3.214 2.209-1.533 5.732-3.8 1.044-.683 6.472-3.989 7.399-4.065 8.314-4.103 9.214-4.103 9.274-3.739.951-.383 9.389-3.44 1.953-.715 9.494-3.139 3.156-1.043 9.587-2.844 4.555-1.352 9.665-2.567 6.148-1.633.851-.217 9.726-2.326 7.971-1.906 9.774-2.116 7.055-1.528m-161.913 66.374 1.938-1.331 2.371-1.629 2.242-1.513 3.659-2.484"/><path stroke="#fff" stroke-linejoin="round" d="m60.641 396.17-.054-.058-.274-.289-.007-.008-.1-.147-.012-.125.01-.024.203-.218.556-.443 1.037-.785.446-.337.037-.029.049-.036 1.112-.843 2.227-1.776 2.784-2.378 3.31-3.046 3.805-3.776 4.082-4.183 4.081-4.205.067-.069 4.013-4.06 3.683-3.549 3.543-3.193 3.594-2.985 3.827-2.924.133-.1.509-.382 4.245-3.026 3.239-2.196"/><path stroke="#fff" stroke-linejoin="round" d="m60.194 395.543.103.075.142.078.093.052.388.191.255.104.059.025.301.123.024.009.23.08.363.126.296.103 1.287.385.773.203.435.115.294.077.134.035.1.026.291.072 1.638.405.209.05.452.108.047.011.05.012.151.036.451.108.351.084.152.037.171.04.002.001.179.042.066.016.126.03.176.041.11.026.524.125.115.027.07.016.102.025.026.007.201.049.136.033.097.024.28.069.096.023.007.002.004.001m818.214-120.815 2.996-1.082.021-.007.214-.078 2.775-1.171.048-.023 2.223-1.057 1.461-.753.185-.095.083-.043.414-.22.734-.39.726-.396.387-.206.209-.093.171-.047.888-.394"/><path stroke="#fff" stroke-linejoin="round" d="m189.705 451.62-.01-.058-.021-.13.01-.054.011-.06.07-.122.096-.042.549-.238 1.244-.45.489-.177 1.633-.574 1.676-.589.407-.143.391-.137.002-.001.78-.274 1.08-.379 2.714-.954.912-.325.947-.339.798-.285.443-.158.878-.314.69-.246 2.36-.843 1.556-.571 1.133-.415.725-.266.085-.031.287-.106 1.819-.666.577-.212 2.085-.764 2.334-.885.692-.263.044-.016 1.27-.482 1.251-.474 3.499-1.327 5.322-2.106.179-.071 2.026-.802.154-.061 1.811-.717 6.5-2.631.744-.301.214-.087 1.837-.744.127-.052.11-.044.819-.331 4.195-1.707.092-.038.016-.006.832-.339.771-.313.046-.019.057-.023.174-.071.111-.045 5.38-2.189 1.064-.429 7.602-3.07 4.793-1.934 6.748-2.682 8.96-3.561 9.313-3.641 5.854-2.289.344-.135.012-.004.008-.003.376-.147.233-.091.091-.036 1.121-.438 9.336-3.583 6.042-2.319 3.009-1.155.423-.159 9.362-3.513 2.357-.885.469-.176 5.952-2.233.248-.093 1.724-.629.622-.227 9.395-3.426 6.88-2.51 9.439-3.303 9.511-3.328 9.29-3.089.554-.184.023-.008.977-.325.165-.055.849-.282 1.122-.373 4.489-1.492.708-.236.699-.232.671-.223.243-.081 1.793-.563.112-.035.279-.088 1.374-.431.109-.034.247-.077.112-.036.758-.238.22-.068.037-.012.319-.1.292-.092.175-.055.193-.06.171-.054.124-.039.15-.047.121-.038.026-.008.045-.014.409-.129.227-.071.144-.045.028-.009.079-.025.099-.031.175-.055.479-.15.585-.184.031-.009.462-.145.321-.101.126-.039.597-.188.391-.123 9.541-2.994.791-.248 7.334-2.167.813-.24 9.59-2.833 3.035-.897 2.225-.657 9.43-2.64 9.63-2.695 5.289-1.48 9.664-2.568 9.665-2.567 5.875-1.561 9.698-2.443 9.697-2.442 6.174-1.555 9.729-2.313 9.729-2.313 5.99-1.424.252-.056 7.815-1.729 1.056-.234 1.371-.303 9.764-2.161 5.713-1.263 3.639-.74 9.799-1.992 9.8-1.992 3.143-.639 9.833-1.817 9.834-1.817 7.751-1.432 9.865-1.643 9.864-1.642 9.095-1.515 9.885-1.514 8.577-1.314 9.885-1.514 1.445-.222 9.898-1.423 1.024-.147 9.899-1.423 9.281-1.335.23-.032 9.906-1.366 2.544-.351 1.243-.172 8.459-1.166 1.409-.194 3.624-.5 3.061-.422.007-.001 9.91-1.337 4.557-.615 3.74-.504.16-.022.08-.01 6.758-.912 2.59-.349 2.412-.326 6.412-.85 7.354-.976 5.639-.749 2.377-.315.246-.033.172-.022.12-.016.237-.032 5.742-.762 1.623-.213 9.915-1.3 9.915-1.301 3.33-.436 2.818-.367 3.689-.481.259-.033 7.416-.966 5.521-.719.946-.123 9.675-1.26 2.461-.321 8.221-1.094 4.689-.674.397-.057 1.057-.178.432-.073.25-.042.12-.02.127-.022.334-.056 1.331-.224 3.909-.741.641-.137 3.355-.721.735-.182 3.178-.786 3.629-1.061.03-.009M735.246 431.205l-.159-.005-9.994-.327-4.15-.135-9.995.31-4.625.143-9.964.852-4.473.383-9.908 1.351-3.834.523-4.527.857-8.002 1.514-9.696 2.446-.656.165-.436.11-8.566 2.659-.417.13-2.773 1.002-4.35 1.572-2.096.835-1.595.636-1.117.444-.399.159-.401.16-.34.136-.82.326-1.452.579-.23.092-.807.302-.976.365-.261.063-.12.028-.445.108-.176-.019-.329-.077-.183-.042m347.518-169.769.148.018.678.085.54.067.357.045.188.031.105.049.028.024.013.066-.054.083-.088.093-.087.091-.22.295-.484.699-.88 1.308-.248.372-.689 1.038-.067.1-.104.156-.303.456-.791 1.226-.911 1.412-1.753 2.86-1.565 2.783-1.133 2.406-.736 2.236-.375 2.278-.009.471-.013.752-.002.065-.023 1.241.246 2.995.425 3.132.493 2.935.445 2.401.283 1.527.209 1.375.22 1.947.322 3.248.512 5.28.66 6.784.769 7.758.836 8.198.86 8.096.826 7.536.729 6.52.572 5.046.352 3.114.181 1.716.057.854-.021.525-.051.734-.068.829-.073.813-.067.685-.047.443.014.555.113 1.021.254 1.84.435 3.013.526 3.607.514 3.505.017.116.444 3.054.27 1.906.172 1.89.154 3.008.191 4.687.023.571.35 8.64.399 9.992.047 1.197.387 9.992.112 2.914.37 9.993.071 1.933.069 1.864.028.8.346 9.994.105 3.049.169 5.128.031.928.01.31.025.771.222 6.727.12 3.739.021.653.303 9.461.034 1.086.317 9.995.087 2.729.099 3.094.071 2.185.095 2.95.066 2.06.111 3.446.072 2.289.318 9.995.012.379.032 1.007.305 9.996.034 1.12.076 2.498.282 9.996.101 3.568.205 8.128.136 5.394.221 9.997.076 3.445.189 9.999.063 3.329.155 9.999.03 1.94.019 1.238.115 9.472.043 3.518.096 10 .02 2.08.078 9.999.003.457.055 8.127.035 5.096-.007 2.783-.003.044-.047.84-.017.296-.137.326-.02.019-.2.197-.076.052-.75.203-1.656.26-2.964.409-4.671.649-5.76.83-6.225.949-6.062 1.009-5.264 1.007-4.446.949-3.606.833-2.744.662-1.858.43-1.504.307-1.683.29-2.395.381-3.645.58-4.278.68-4.289.681-3.674.585-.148.024-2.283.362-1.457.197-.76.014-.221-.048-.35-.137-.531-.208-.459-.18-.206-.081-.754-.296-.799-.313"/><path stroke="#fff" stroke-linejoin="round" d="m762.9 435.191-.548-.1-9.836-1.803-3.444-.631-9.946-1.037-4.039-.42"/><path stroke="#fff" stroke-linejoin="round" d="m908.698 689.432-.353-.161-.219-.327-.083-1.15.054-2.633.189-4.777.328-7.587.28-9.774.042-10 .006-1.334-.302-9.995-.068-2.271-.776-9.969-.201-2.594-.662-5.577-.837-7.058-1.398-9.027-.535-3.452-1.854-9.827-.427-2.263-.239-1.078-2.164-9.763-.139-.627-2.579-9.661-.371-1.388-.846-2.616-2.66-8.227-1.366-3.519-2.846-7.33-1.309-2.856-2.58-5.633-1.184-2.584-1.885-3.547-.473-.89-3.558-6.693-5.217-8.531-1.523-2.491-5.75-8.181-1.799-2.559-.852-1.052-3.793-4.678-.543-.67-.288-.356-2.865-3.534-6.844-7.291-2.327-2.478-7.381-6.748-2.661-2.434-7.893-6.141-3.06-2.381-8.367-5.477-3.538-2.315-8.767-4.81-3.89-2.135-4.164-1.885-9.039-4.092-9.405-3.398-4.13-1.491-9.657-2.6-1.578-.425M954.39 279.514l-.736.014-3.534.069-6.107-.021-5.863-.24-.943-.101L915.5 275l-12.5-3M190.171 451.49l.184.163.279.247.039.034.765.713.981.886.737.619.357.299.056.046.554.412.716.531.049.031 1.292.793 1.321.697 1.212.569.077.033.937.399.726.295.29.109.214.081.35.122M1499.32 247.004l.22.119.03.028.15.147.16.341.17.615.22.972.31 1.418.43 1.872.59 2.332.76 2.802.96 3.282 1.17 3.845 1.35 4.491 1.55 5.224 1.74 6.04 1.83 6.666 1.85 7.099 1.76 7.335 1.59 7.373 1.37 6.944.79 4.266.06.319.07.353.2 1.111.83 4.689.49 2.86.18 2.206-.11 2.732-.36 4.436-.59 7.318-.47 5.642-.32 3.864-.86 9.963-.09 1.038-.9 9.959-.17 1.846-.96 9.953-.19 1.963-1 9.95-.2 1.93-.71 6.885-.44 4.286-.05.524-.36 3.49-.07.648-.36 3.54-.38 3.684-1.01 9.949-.1.935-.99 9.951-.03.279-.93 9.402-.66 6.769-.16 1.629-.07.71-.05.44-.59 6.074-.37 3.762-.04.387-.2 2.019-.01.1-.54 5.53-.3 3.05-.2 1.96-.04.41-.43 4.297-.33 4.788-.1 5.251.25 6.098.17 1.823.53 5.51.95 7.697 1.01 7.187.87 5.802.08.518.46 3.022.14 2.29-.31 2.056-.83 2.836-1.41 4.628-1.83 5.964-2.12 6.844-2.25 7.274-2.26 7.257-.29.942-1.82 5.867-1.84 5.937-1.44 4.641-.9 2.923-.16.476-.27.849-.1.279-.22.516-.07.161-.19.165-.23.065-1.3.263-3.67.574-7.18 1.081-9.89 1.489-1.99.3-9.89 1.488-5.47.824-9.89 1.487-7.71 1.159-9.89 1.486-8.67 1.303-9.89 1.484-8.31 1.248-9.89 1.483-8.26 1.238-9.89 1.482-8.51 1.276-9.89 1.482-9.09 1.361-9.89 1.482-10 1.499-9.89 1.481-9.89 1.482-.77.115-9.89 1.481-9.89 1.482-1.15.172-9.89 1.482-9.89 1.481-1.26.189-9.89 1.481-9.89 1.482-1.07.161-9.89 1.481-9.89 1.482-1.24.186-9.89 1.481-9.89 1.481-1.76.264-9.89 1.481-9.89 1.481-2.65.397-9.89 1.481-9.89 1.481-3.92.588-9.89 1.482-9.89 1.482-4.15.622-9.89 1.484-9.89 1.484-3.27.492-9.89 1.487-9.89 1.488-1.26.19-9.89 1.494-7.96 1.202-9.88 1.501-5.07.769-9.89 1.506-2.51.382-9.88 1.51-.3.045-8.32 1.272-6.76 1.032-5.51.842-4.57.699-3.943.605-3.311.508-2.671.41-2.022.311-1.368.211-.849.103-.468-.012-.307-.025-.414-.122-.539-.198-.232-.086"/><path stroke="#fff" stroke-linejoin="round" d="m1461.29 297.226 1.5-.964 1.82-.654 2.29-.474 2.84-.424 2.37-.336.85-.121.32-.045 3.72-.426 3.41-.196 1.54.111.09.006.98.071 1.32.726-.17.033-.18.012-.13-.021"/><path stroke="#fff" stroke-linejoin="round" d="m1462.81 296.338-.05.032-1.43.924-1.28 1.407-1.13 1.623-1.03 1.604-.98 1.35-.97.86-.07.058-1.71.585-3.14.517-5.04.63-.29.036-8.25 1.031-.96.119-.19.024-.31.04-.3.037-.39.049-.32.039-1.09.136-.04.006-.13.015-.14.018-.56.07-.01.002-.6.075-.23.029-.23.029-.24.029-.24.03-.34.043-.04.004-.08.011-.4.049-.27.034-.91.114-.08.009-.24.031-.61.076-.57.072-.13.016-.03.004-.12.014-.06.008-.63.079-.03.003-.12.015-.37.046-.46.058-.67.084-.16.019-.31.04-1.7.212-.52.065-.34.042-.54.068-.04.005-.15.018-.74.093-1.28.161-.28.035-.08.01-1.15.143-.3.037-.45.057-.07.008-.79.1-.13.016-.12.015-.92.116-.14.016-.91.115-.09.01-.19.025-1.83.229-.52.065-.19.024-.73.091-.1.012-.06.009-.72.09-.13.016-.55.068-1.46.184-2.05.258-.89.111-.27.034-.21.026-.66.084-.36.045-3.71.532-.13.029-.78.171-.28.063-.77.168-.11.026-.97.49"/><path stroke="#fff" stroke-linejoin="round" d="m1455.94 304.138-1.7.581-3.14.516-5.15.643-.17.021-8.25 1.029-1.17.146-.18.022-.94.118-1.34.167-.5.062-.6.075-.54.067-.85.107-.39.049-.14.017-.26.032-.35.044-.97.122-1.37.17-.19.024-.07.009-.9.112-.38.048-.44.055-.77.096-.34.042-.06.008-3.12.39-.24.03-.65.081-1.63.204-1.11.139-.22.028-1.5.188-.2.024-.91.116-1.28.16-1.82.229-1.6.2-.11.014-.8.1-.35.043-.08.01m-12.78 2.221 1.04-.547.01-.004.76-.174 1.33-.308m-3.1 1.096v.003l-.53.718-.15.881.1 1.006.23 1.097.07.348.17.806.06.183.2.648.06.191.03.085.54.946.01.006m85.48-25.824-.21-.013-1.26-.076-.23-.014-.87-.052-3.37.224-3.67.445-.13.019-.85.123-2.51.366-2.8.412-2.24.454-1.79.628"/><path stroke="#fff" stroke-linejoin="round" d="m1397.2 319.672.4.321.36.302.79.206.43.112M1725.67 57.05l-9.59-2.819-2.16-.596-9.64-2.663-2.24-.568-9.7-2.456-2.81-.64-9.75-2.22-3.88-.786-9.8-1.985-4.72-.854-9.84-1.78-5.3-.857-9.88-1.594-.68-.107-5.64-.804-9.9-1.413-5.68-.704-9.93-1.228-5.58-.586-9.95-1.043-5.32-.454-9.96-.85-4.89-.318-9.98-.645-1.07-.049-2.13-.089-2.15-.09-9.99-.418-3.89-.076-10-.198-4 .003-9.72.005-1.23.003c-108.83 1.608-150.28 10.553-213.67 30.83-27.63 10.045-43.9 17.026-73.5 30.5"/><path stroke="#fff" stroke-linejoin="round" d="m1354.95 51.741 2.38-.505 6.79-1.443 1.79-.38 2.57-.546 1.07-.228 2.55-.455 1.17-.208 6.41-1.14 4.94-.882 5.73-.867 9.89-1.495 5.98-.77 9.91-1.278 5.52-.604 9.95-1.088.45-.05c40.23-3.02 57.7-3.362 84.45-2.802 84.04.111 129.76 8.197 210 30"/><path stroke="#fff" stroke-linejoin="round" d="m1355.34 51.643-.39.098-8.84 2.228-5.66 1.426-.89.261-9.59 2.83-1.53.451-.35.102-.02.007-1.33.391-1.57.464-8.97 3.034-1.45.491-.08.027-.01.001-5.49 1.858-9.36 3.512-7.24 2.714-9.26 3.772-7.81 3.18-9.17 3.994-8.24 3.591-9.08 4.188-8.53 3.932-8.98 4.4-8.78 4.303-8.86 4.63-9 4.703-8.73 4.876-8.73 4.876-.46.258-8.58 5.137-3.36 2.012-5.99 3.586-8.43 5.385-8.42 5.386-1.12.712-6.06 4.115-8.27 5.618-3.71 2.518-8.12 5.835-2.32 1.663-5.76 4.143-1.95 1.401-2.71 2.053-4.73 3.575-.08.066-.1.075-2.31 1.746-4.09 3.094-.51.391-3.77 2.855-7.83 6.223-2.99 2.375-1.09.865-.33.262-1.05.837-2.24 1.783-2.48 1.971-5.81 4.856-.35.288-.72.6-.83.692-7.67 6.411-1.76 1.474"/><path stroke="#fff" stroke-linejoin="round" d="m1061.47 212.183-.07.061-7.5 6.616-7.5 6.616-.97.856-7.28 6.854-7.04 6.631-3.28 3.258-7.1 7.045-1.94 1.92-6.94 7.191-3.06 3.164-6.85 7.289-.55.588-4.501 4.789-2.389 2.441-.397.31-.685.535-.276.033-.556.035-.808.052-.46.033-.009.001-.46.037-.35.029-.723.051-.488.022-.426.032-.603.027-.074.003-.683.021-.212.007-.112.004"/><path stroke="#fff" stroke-linejoin="round" d="m976.679 278.887.428.062.937.099.812.055.415.022.57-.008.552-.018.801-.047 1.206-.067 1.42-.077 1.44-.076 1.267-.066.651-.032.112-.006.139-.006.667-.035.091-.005.475-.03.594-.038.754-.042.839-.048.02-.001.449-.028.46-.028m-12.405.63-.517.006"/><path stroke="#fff" stroke-linejoin="round" d="m977.98 278.959.833.084.56.054.468.02m-1.294-.059-.636-.048-.873-.094-.309-.044m-467.311-39.106.07-.017.468-.112 1.155-.276 1.288-.27 1.411-.278 1.442-.218 1.373-.166 1.208-.121.945-.085.584-.055.305-.021.105.02.14.044.089.093.049.179.02.298.005.438.006.393.003.203.009.714.011.794.011.833"/><path stroke="#fff" stroke-linejoin="round" d="m95.948 381.704.36-.258 1.106-.796.966-.694 1.042-.749 3.959-2.774 2.187-1.532.239-.162.74-.503 5.957-4.049 7.98-5.262 8.419-5.397.852-.546 8.488-5.286.942-.587.001-.001.093-.058.802-.499 8.563-5.165.221-.133 2.373-1.431 2.468-1.435 6.076-3.534.735-.427 2.395-1.393.092-.054 5.737-3.196 2.745-1.53 3.68-2.05 8.842-4.672 3.818-2.017 8.958-4.445 4.297-2.133 9.077-4.195 4.868-2.25 9.196-3.927 5.53-2.362 9.295-3.687 6.12-2.427 9.379-3.467 6.636-2.453 9.452-3.265 7.074-2.444 9.515-3.075 7.435-2.404 9.583-2.858 5.032-1.501.028-.008.139-.042.055-.016.191-.057.098-.029.12-.036.131-.039.02-.006.132-.04.038-.011.25-.074.097-.029.168-.051 1.464-.436 9.651-2.621 8.656-2.351 9.714-2.372 9.51-2.323 9.773-2.118 9.773-2.119.747-.162 9.812-1.931 9.812-1.93 1.417-.279 9.838-1.793 9.838-1.792 1.803-.329 9.855-1.697 9.855-1.698 1.914-.33 9.864-1.639 9.865-1.64 1.758-.292 9.871-1.599 9.872-1.598.272-.045 9.876-1.572 7.32-1.165 9.876-1.567 3.345-.53 3.865-.618M84.755 389.91l.161-.12.249-.185.005-.003.161-.12.25-.185.118-.088.039-.029.054-.04.198-.147.306-.228.337-.249.03-.023.135-.1.32-.238.094-.069.066-.05.027-.019.03-.023.032-.023.073-.055 1.011-.75 5.354-3.92.14-.101 1.029-.74.736-.53.112-.08.126-.091m-11.193 8.206-.051.038-.02.014-.36.268-.013.009-.429.319-.016.012-.095.07v.001l-.004.003-.029.021-.198.147-.022.016-.014.01-.034.026-.1.074-.015.011-.4.3-.052.039-.134.1-.027.021-.704.527-.013.01-.065.048-.048.037-.104.078-.127.094-.052.039-.076.058-.127.095-.053.04-.149.111-.212.159-.256.192-.07.052-.499.374-.035.026-.097.073-.219.164-.016.012-.025.019-.194.145-.221.166-.015.011-.026.019-.005.004-.003.002-.03.023-.404.302-.062.047-.26.195-.299.225-.013.009-.032.024-.043.033-.067.05-.159.12-.074.055-.159.12-.015.012-.068.051-.022.016-.088.066-.205.154-.027.02-.324.244-.02.015-.097.074-.558.419-.172.129-.008.006-.001.001-.051.039-.006.004-.002.001-.077.058-.035.026-.01.008-.026.019-.207.157-.327.245-.061.046-.087.065-.053.04-.055.042-.016.011-.336.254-.26.195-.035.026-.14.105-.04.031-.083.062-.005.004-.087.065-.023.017-.022.017-.341.256-.1.075-.101.076-.099.074-.026.02-.117.087-.379.285-.002.001-.097.073-.09.067-.19.143-.048.036-.117.088-.009.007-.145.108-.255.192-.106.079-.002.001-.046.035-.022.016-.008.007-.01.007-.034.025-.118.089-.258.193-.071.054-.113.085-.022.016-.304.228-.015.011-.047.035-.041.031-.074.056-.171.128-.224.168-.186.139-.01.009-.118.087-.064.049-.205.155-.064.048-.131.099-.012.009-.061.046-.033.025-.242.183-.094.071-.012.009-.077.058-.196.149-.302.228-.054.04-.113.086-.023.017-.01.008-.07.053-.02.016-.061.045-.166.126-.125.094-.162.123-.07.053-.019.014-.232.175-.346.262-.059.044-.071.054-.072.054-.026.02-.062.047-.082.062-.161.121-.044.034-.251.19-.043.032-.023.017-.044.034-.147.113-.343.265-.08.062-.065.049-.036.028-.007.006-.08.061-.077.06-.151.116-.027.021-.281.217-.003.002-.06.046-.17.132-.13.1-.165.127-.115.089-.05.038-.013.01-.074.057-.003.003-.065.05-.144.111-.131.101-.157.121-.031.024-.062.048-.214.165-.165.127-.146.113-.006.004-.024.018-.028.022-.026.02-.001.001-.061.047-.09.07-.035.027-.006.004-.058.047-.19.151-.017.014-.052.042-.062.05-.015.012-.306.245-.014.011-.113.091-.052.041-.052.042-.022.017-.013.011-.035.028-.26.208-.07.056-.071.057-.057.046-.055.044-.027.021-.098.079-.149.12-.101.08-.06.048-.042.035-.008.005-.05.041-.019.015-.028.023-.174.138-.137.11-.017.014-.055.044-.002.002-.024.019-.147.118-.178.142-.035.029-.131.104-.004.004-.053.042-.008.006-.015.013-.023.019-.014.012-.008.007-.119.101-.052.045-.141.12-.024.02-.113.097-.047.039-.069.059-.356.304-.203.172-.06.051-.594.507-.838.714-1.401 1.307-.429.4-.156.147-.181.168-.08.075-1.837 1.958-1.428 1.847-.117.168-1.02 1.765-.647 1.689-.068.196-.303 1.62-.03.264.001.37.005 1.56.018.518.023.707c.501 2.418 1 3.587 2.021 5.116m468.675-189.043.145-.022.068-.009-.068.008-.01.001-.297.032-.587.057-.95.088-1.214.125-1.378.172-1.444.224-1.41.286-1.368.344-.287.086-1.034.312-1.267.448-1.206.496-1.06.563 1.965 1.102 12.5 3 31.5 4.5 39 6 90.5 12c53.339 6.099 83.708 8.274 138.5 10.5 0 0 33 1.5 33 2m-333.453-42.335v-.001m962.433 51.677.28.098 1.1.585.17.093.08.079.28 1.16-.43 1.611-.03.065-.86 1.993-.74 1.673-.3.697"/><path stroke="#fff" stroke-linejoin="round" d="m1482.33 301.198-.31.711-1.21 2.526-1.32 2.37-1.41 1.945-1.52 1.318-1.88.78-2.75.536-4.02.524-5.71.747-7.03.917-2.36.308-.25.033-.4.051-.95.124-.2.026-.13.017-.06.007-.11.015-.57.075-.08.01-.16.021-.78.101-.07.009-.07.01-.75.097-.18.024-.81.105-1.02.133-.48.063-.55.071-.14.019-.05.006-.33.043-.44.058-.34.043-.26.034-.95.124-.96.125-1.07.139-.49.064-.58.075-.27.036-.46.059-.04.005-1.93.251-.28.036-.29.038-.25.032-.33.043-.78.101-1.32.171-2.32.301-1.02.133-.01.001-.02.003-.59.077-.98.126-1.16.15-1.81.236-2.35.304-.25.032-.22.028-.07.009-.46.06-.25.033-.65.084-.09.012-.19.025-3 .387-.48.063-2.95.382-.87.112-1.46.189-1.52.197-2.25.292-4.38.567-2.98.311-.34.02-1.92.018-.29-.025M977.5 279l22-.59h7l9-.91h26l19-1m171.4 1.351 1.51-.145 2.45-.243 9.95-.989 9.95-.99 1.45-.144 9.95-1.031 9.94-1.031 3.24-.335 3.63-.395 9.3-1.013.85-.092 3.39-.369.77-.084 3.84-.418 9.94-1.125 9.94-1.125.83-.094 9.93-1.158 9.94-1.159 9.93-1.181 9.33-1.109 9.93-1.189 7.89-.946 1.06-.127 9.93-1.196 8.55-1.031 9.93-1.202 8.13-.985 9.93-1.205 7.7-.935 9.92-1.207 7.25-.881 9.92-1.208 5.87-.713 9.92-1.209 3.58-.435 9.92-1.21.41-.05 2.81-.342.82-.099 2.66-.324 1.12-.15.79.023m-198.46 23.875-3.45.376-.78.085-3.39.369-.75.082-3.47.378-5.85.637-4.1.445-9.94 1.033-9.95 1.032-3.23.335-9.95.99-9.95.99-.91.091-2.99.296-1.28.123m-76.17 6.914-9.96.839-.28.023-9.97.814-3.7.302-2.57.209-9.97.798-2.39.192-7.67.617-4.11.335-1.71.142-.47.043-.41.039-1.6.131-4.04.325-7.74.618-9.97.795-2.78.221-9.84.786-5.98.478-9.97.801-6.96.559-9.97.809-6.05.492-8.14.675-1.56.129-.11.009-3.25.269-9.96.846-.59.051-8.542.743-4.976.442-.434.039-1.606.142-1.086.098-.863.078-4.049.364-4.974.452-3.943.363-2.907.27-1.869.174-1.195.075m136.184-11.593.46-.046 1.7-.143 4.09-.333 7.64-.616 9.97-.799 2.35-.188 9.97-.815 6.23-.509 5.08-.429m-184.851 15.414.291.031.45-.205.943.015 1.211-.082 1.863-.177 2.898-.275 3.928-.368 4.952-.457 4.451-.406 1.52-.138 1.172-.105.434-.039 5.374-.483 8.494-.743 9.96-.848.53-.045m481.7-64.036.18.018.44.046.55.08.4.135.38.249.5.414.77.631.9.748.89.76.73.671.43.48.21.462.03.622-.06.955-.1 1.466-.11 1.726-.11 1.736-.1 1.496-.04.569-.03.436-.2.601-.52.285"/><path stroke="#fff" stroke-linejoin="round" d="m1224.02 280.278-1.31.093-.33.026-2.4.195-4.79.41-7.51.663-8.74.762-8.48.707-6.99.532-2.01.15-2.76.204-5.18.3-5.97.323-6.89.263-5.28.145-3.12.086-1.37.03-7.5.167-.19.004-8.1.154-3.4.059-3.28.057-4.03.07-4.09.042-.56.006-1.5.015-.48-.019-.25-.01"/><path stroke="#fff" stroke-linejoin="round" d="m1119.73 285.726-.63.032-1.95.05-3.8.071-6.27.116-8.05.157-9.19.194-9.65.226-7.6.204-1.22.033-.65.017m166.99-16.147-.02.007-.21.016"/><path stroke="#fff" stroke-linejoin="round" d="m1237.27 270.423.3.089.14.167-.05.264-.21.376-.36.502-.41.515-.08.112-.63.766-.71.881-.79 1.009-.88 1.055-.94 1.019-.02.015-.73.658-.26.229-.09.057-.98.647-1.15.534-1.27.394-.21.044-1.42.283-1.58.196-2.33.152-.23.01m13.6-7.197.61-.752m-130.01-88.357-.55 3.163-.52 2.95-.16.894-.04.237-.05.255-.08.497-.28 1.552-1.03 5.803-.05.318-.1.535-.1.546-.07.412-1.76 9.844-.23 1.3-.74 4.097m6.98-40.879-.03-.136-.13-.072-.23-.027"/><path stroke="#fff" stroke-linejoin="round" d="m1107.77 175.479.12.189.06.259-.13 1.029-.42 2.501-.39 2.228-.43 2.424-.55 3.145m371.01 47.296c-.13-.167-.23-.169-.44 0l.05-.562.5-5.269.95-9.956.66-7.351.9-9.959.76-9.233.66-7.968.35-5.124.14-1.971.69-9.976.01-.118.14-2.804.53-9.987.21-4.006.05-1.524.35-9.928.06-1.739.09-2.493v-.164l.02-.439.01-.478.14-7.818.02-.836.06-3.732v-.033l.08-4.201v-16.479l-.11-6.44v-.238l-.09-5.36-.05-2.966-.02-.918-.01-.422-.02-.68-.11-3.745-.03-1.171-.05-1.471-.24-8.152-.12-3.137-.38-9.993-.31-7.252-.13-2.84-.27-6.112-.09-2.005V37m256.16 497.586-.03.032-.55.614-4.98 5.481-5.61 5.706-.1.089-5.79 5.288-6.06 4.827-6.43 4.345-6.94 3.843-2.35 1.05-5.25 2.341-8.46 2.99-9.49 2.642-9.77 2.137-.94.207-9.84 1.787-1.96.356-9.87 1.581-2.86.458-9.89 1.487-3.63.546-9.89 1.486-4.26.64-9.89 1.484-4.39.658-9.89 1.483-4 .6-9.89 1.481-3.07.461-9.89 1.48-1.6.24-9.89 1.479-.5.075-9.68 1.446-9.38 1.397-9.46 1.409-8.96 1.332-7.85 1.165-6.12.909-3.77.56-1.99.281-.8.072-.24.02-.35-.042-.48-.103-.3-.074"/><path stroke="#fff" stroke-linejoin="round" d="m1743.68 528.148-4.71 5.494-.81.944-.04.048-.54.598m-241.19-302.994.13-.028.42-.083m8.07 14.64.23-.56.13-.987.03-.22.19-1.298.24-1.726.23-1.612.14-1.324.01-.864-.15-.579-.31-.464-.51-.518-.73-.739-.84-.845-.83-.839-.72-.719-.5-.486-.38-.308-1.74-.679c-.1-.165-.19-.189-.5 0"/><path stroke="#fff" stroke-linejoin="round" d="m1725.43 213.518-5.69.951-1.76.295-4.57.763-.37.063-2.36.377-2.1.337-8.89 1.423-9.88 1.535-4.37.679-9.88 1.509-5.2.794-9.89 1.5-5.97.905-9.88 1.504-6.69 1.017-9.88 1.504-7.36 1.119-5.72.867-.66.101-.54.082-.04.005-.71.109-9.89 1.499-.33.05-1.05.158-2.13.322-.07.01-.53.08-6.9 1.042-.24.035-.87.132-.84.127-.72.108-.11.017-.11.017-4.92.742-8.78 1.314-.1.015-1.65.247-.28.043-3.58.535-.31.046-4.36.653-3.48.518-.12.018-1.81.269-9.89 1.473-3.01.449-9.89 1.468-6.3.935-9.89 1.464-2.76.409-7.69 1.138-4.06.561-1.83.15-.94.029-2.75-.179-.83.149"/><path stroke="#fff" stroke-linejoin="round" d="m1504.52 247.001.49-.234 1.88-.158 4.07-.564 7.69-1.138 9.89-1.464 2.76-.409 9.89-1.468 6.29-.934 9.9-1.473 2.2-.329 1.78-.265.13-.019 4.3-.64 3.85-.576.3-.046 3.58-.536.29-.043 1.65-.247.1-.014 9.29-1.392 4.39-.662.06-.01.39-.058 1.18-.177.99-.149.17-.027 7.04-1.062.52-.078.06-.01 2.13-.32 1.56-.236 9.7-1.471.72-.109.03-.004.54-.082.66-.101 6.24-.946 9.88-1.503 7.36-1.119 9.89-1.504 6.68-1.016 9.88-1.498 5.97-.906 9.89-1.508 5.2-.793 9.88-1.535 4.37-.678 9.71-1.554 2.77-.442.87-.139 3.69-.617 1.77-.296M196.684 763.53l-3.522-1.17-.616-.199-4.241-1.369-5.431-1.731-5.378-1.702-4.71-1.483-3.438-1.079-2.584-.809-2.144-.667-2.114-.655-2.488-.772-2.901-.906-3.348-1.06-3.828-1.23-4.34-1.417-4.759-1.602-.223-.076-5.082-1.783-5.313-1.96-5.447-2.134-5.52-2.285-5.53-2.414-5.478-2.523-5.368-2.61-5.212-2.669-5.013-2.7-.39-.211-4.771-2.704-.742-.436-1.28-.757-2.005-1.169-4.474-2.673-2.371-1.438-4.232-2.657-2.39-1.569-4.034-2.651-3.892-2.662-3.793-2.68-3.649-2.695-2.037-1.548-3.452-2.703-3.218-2.711-2.943-2.716-2.697-2.707-1.364-1.394-2.481-2.682-2.297-2.65-2.143-2.605-1.978-2.577-1.801-2.566-.85-1.213-1.611-2.566-1.41-2.584-.489-1.02-1.2-2.574-.982-2.542-.27-.804-.193-.57-.755-2.482-.104-.403-.52-2.401-.291-2.31-.065-2.205-.007-.303.156-2.091.372-1.964.524-1.816.094-.274.61-1.648.635-1.459.6-1.249.555-1.063.503-.899.442-.758.372-.64.193-.309.407-.641.543-.763.779-1.005 1.117-1.362.444-.507 1.002-1.142"/><path stroke="#fff" stroke-linejoin="round" d="m27.821 630.939.729-.864 1.649-1.848 1.047-1.146"/><path stroke="#fff" stroke-linejoin="round" d="m145.328 676.447-.781-.226-1.212-.35-4.764-1.376-4.687-1.348-2.789-.803-.986-.286-1.493-.433-1.742-.506-1.491-.433-1.977-.574-7.41-2.199-6.647-2.053-1.453-.47-.692-.223-.52-.168-1.991-.644-.138-.045-.551-.178-.685-.221-2.805-.953-.2-.068-2.554-.867-5.224-1.867-3.7-1.388-1.329-.499-4.833-1.912-3.07-1.289-1.567-.657-.167-.075-4.274-1.91-4.244-2.031-1.225-.62-2.826-1.433-3.861-2.052-3.675-2.031-1.22-.694-2.273-1.294-.382-.224-.926-.543-.864-.508-1.189-.698-.482-.292-.01-.006-.663-.402-.074-.046-.007-.004-.259-.157-1.164-.707-.618-.375-3.239-2.035-3.249-2.108-.814-.538-3.181-2.161-3.059-2.196-2.846-2.19-.028-.021-2.628-2.208-2.396-2.182-2.184-2.136-1.986-2.069-1.806-1.982-1.636-1.912-1.479-1.858-1.331-1.82-1.195-1.796-.6-.953-1.038-1.785m-4.922-28.943-.724 2.929-.341 1.839-.274 1.858-.171 1.835.022 1.829.138 1.211.198 1.828.38 1.83.556 1.835.449 1.149.719 1.837.677 1.7.811 1.963.844 1.929m0 0 .775 1.599.863 1.772-.769-1.583-.869-1.788Z"/><path stroke="#fff" stroke-linejoin="round" d="m14.685 440.322-3.052 3.409-2.835 3.169-3.307 4.12-1.233 1.74-.953 1.747-1.156 2.271-.494 1.473-.157 1.407-.208 2.362.295 3.296.444 4.958.658 6.534.94 8.027.184 1.378 1.294 9.454.663 4.178L8 577.5m49.426-139.893-1.664-1.363-1.508-1.422-1.283-1.402-.837-1.059-.23-.292-.033-.041c-.685-.787-.94-1.257-1.37-2.028"/><path stroke="#fff" stroke-linejoin="round" d="m57.395 437.585.031.022 2.037 1.452 2.39 1.487 2.738 1.492 3.118 1.487 3.439 1.473 3.703 1.449 3.908 1.414 4.051 1.369 4.194 1.333 4.336 1.305 4.478 1.288 4.621 1.278 4.778 1.238 4.95 1.166 5.134 1.063 5.334.926 5.545.768 5.772.588 6.009.386 6.201.161m-83.79-64.7.041.021.091.047.026.014.111.058.11.057.141.06.066.028.312.134.085.036.133.047.366.13.405.143.408.122.869.26.566.147.002.001.438.113.303.079.142.037.217.056m-53.571 46.111 2.476-2.801 5.304-5.78 4.979-5.34 4.444-4.727 2.504-2.664 1.454-1.509.504-.492 1.056-.999 1.375-1.286.462-.433 2.844-2.648 4.071-3.782 4.618-4.286 4.492-4.169 1.183-1.097 2.524-2.342"/><path stroke="#fff" stroke-linejoin="round" d="m65.139 397.605.065.015.22.051 1.663.388.172.039.212.048.228.051.089.02.023.005.112.025.398.089.067.015.001.001.569.127.015.004.221.049.025.005.095.021.263.058.223.049.011.003.183.04.487.108.053.012h.002l.028.006.003.001.144.032.093.021.206.047.021.005.195.044.083.018.016.004.003.001.041.009.135.03.224.133.025.015.031.019.105.062.063.041.012.14v.043m-18.565 2.219 2.558-2.377 2.25-2.09 1.186-1.078.482-.376.145.005.169.065.048.032.179.119.114.094m-.2-.128.174.114m10.793 3.81.018-.011.315-.202.071-.046.042-.007.027-.004.01-.001m136.902 88.92.614.053.753.065 3.628.312 1.266.109 2.848.245.005.001.363.031.089.008.155.011 4.05.304 1.075.081 3.618.272 2.385.179 9.979.65 3.605.235 3.385.195.571.032 7.016.404 4.169.239 8.393.422 7.541.378 4.998.21.34.015.093.004 1.552.065.538.023 8.413.354 5.349.171 6.202.199 3.18.101.382.013 10.017.202 4.418.089 10 .068 3.905.027 8.852-.069.313-.002h.001l.286-.003 4.078-.031 3.371-.078.399-.01.747-.017.027-.001h.031l.275-.007.096-.002 8.368-.194 9.979-.637 3.248-.207 9.917-1.282 3.348-.432 4.769-1.035 8.655-1.879.004-.001 2.112-.684.977-.317.02-.007.674-.218 6.381-2.068.599-.195 2.949-.955 1.838-.758.11-.046.041-.017.038-.016.085-.035 2.082-.858 2.709-1.118 3.915-1.614.507-.209.123-.051.394-.162.365-.151 1.903-.785 1.31-.63.119-.058 1.695-.816.39-.187 3.573-1.72.177-.085 7.363-3.545 1.15-.61 1.809-.961 2.071-1.1.574-.305 2.486-1.32 4.543-2.413 1.549-.823.241-.128.033-.017.806-.428 5.089-2.864.75-.422.791-.445.974-.548.036-.02.698-.393.752-.423 1-.563 1.128-.635.866-.487.287-.161.427-.241.261-.147.613-.345.448-.252.181-.102.509-.286 1.212-.682.9-.525 1.349-.786.361-.211.041-.024 1.309-.763 1.849-1.078.673-.393 1.076-.627.004-.002.671-.392.204-.119.793-.462.88-.513.11-.065.658-.383.642-.375.33-.192.123-.072.348-.202.014-.009.027-.016.525-.306.496-.289.478-.279 1.425-.831.214-.124 8.587-5.124.322-.192 4.811-2.87 4.811-2.911.461-.278 5.252-3.177.175-.105 1.35-.817 1.562-.945.862-.521 1.074-.65.868-.524.731-.443 2.521-1.495.799-.474 1.3-.673.098-.044.199-.091.529-.091 1.21-.018 2.342.079 3.868.194 2.822.16 2.967.167 7.273.505 2.407.211 5.315.465.594.052.102.011 1.669.186 1.362.152.126.014 5.666.632 8.704 1.252.393.056 8.686 1.452 1.476.274 6.213 1.153m-11.936 49.123 1.249-.85 1.533-1.042 1.727-1.174 2.989-2.032 1.28-.806 1.794-1.13 1.707-1.074 1.83-1.153 3.405-2.145.496-.296 1.547-.927 2.125-1.273 1.461-.875.106-.064 2.841-1.701.124-.074.973-.584.191-.114.427-.247.302-.175.713-.413.38-.22.909-.527 1.554-.899 4.258-2.466.135-.078.157-.091.781-.444.202-.114.471-.267.182-.103.262-.149.772-.438.493-.28 1.813-1.029 1.539-.873.427-.242 1.726-.979 1.606-.911.162-.092.138-.078.554-.315.942-.555.063-.037.25-.148.834-.492.641-.506.006-.05-.134-.139-.162-.158-.094-.09-.679-.526-.25-.172-.14-.096-.948-.653-.071-.049-2.401-1.558-3.66-2.288-3.482-2.142-.821-.505-4.325-2.632-1.517-.912-2.209-1.329-2.499-1.473-2.123-.987-2.599-.784-3.925-.867-6.102-1.231"/><path stroke="#fff" stroke-linejoin="round" d="m582.868 429.392 6.257 1.155 6.096 1.222 3.918.856 1.858.556.734.22M215.92 731.757l.001-.496-.001-.002-.009-.024-.894-2.316-2.047-3.215-.805-1.017-.813-1.027-1.546-1.952-4.347-4.92-3.848-4.119-1.741-1.864-.527-.536-5.775-5.883-1.883-1.81-.088-.085-4.509-4.335-1.925-1.702-2.873-2.539-1.329-1.175-5.248-3.981-2.368-1.484-2.201-1.379-.851-.428-2.629-1.323-3.734-1.541-3.628-1.379-2.883-.998-.993-.344-1.36-.435-.958-.306-2.149-.687-.212-.064-5.191-1.572-1.943-.572-1.278-.376m103.87 105.756-2.752-.553-3.063-.615-5.102-1.062-4.553-.981-4.168-.924-3.666-.831-3.045-.702-2.306-.538-1.451-.337-.678-.205-.347-.105-.04-.012-.088-.027-.413-.206-.673-.343-.734-.408-1.235-.709-1.903-1.094-2.338-1.37-2.535-1.535-2.489-1.567-2.2-1.467-1.584-1.11-.718-.515-.059-.042-.039-.028"/><path stroke="#fff" stroke-linejoin="round" d="m584.627 474.57-2.983 2.032-1.722 1.174-1.53 1.042-1.247.85-.449.306-1.349.919-3.526 2.582-2.381 1.744-.629.461-.644.471-1.248.914-.143.105-3.092 2.424-1.262.99-.515.404-.183.142-2.2 1.725-.368.289-.266.209-1.09.91-.324.271-5.551 4.638-.263.219-2.126 1.885-.008.007-1.439 1.276-.407.361-2.614 2.317-2.26 2.17-.588.565-1.998 1.918-.114.11-.79.758-.368.353-.468.494-5.333 5.632-.138.162-1.666 1.949-.194.228-.927 1.085-.469.547-2.248 2.631-2.723 3.523-1.075 1.39-.282.365-.06.078-.309.399-.608.786-.476.617-.112.144-.18.255-4.568 6.472-.89 1.261-.301.464-.613.943-.726 1.118-1.266 1.949-2.718 4.185-.625 1.04-.952 1.583-.353.588-.291.483-.542.902-1.367 2.273-.351.585-1.117 1.858-.294.526-1.471 2.631-.813 1.453-.795 1.423-.453.809-1.48 2.647-.258.463-2.589 5.015-.663 1.284-.659 1.279-.43.832-.931 1.804-.157.305-3.152 6.692-.532 1.128-.682 1.448-.427.906-.084.179-.315.669-3.448 8.135-.398.937-.269.637-.291.685-.372.878-.076.18-3.523 9.431-.285.761-.605 1.62-.039.12-.221.678-3.104 9.506-.066.202-.179.546-.357 1.094-.187.665-.136.48-2.713 9.625-.185.656-.1.353-.189.672-.356 1.484-.064.268-.77 3.218-1.691 7.062-.021.088-.146.608-.317 1.596-.007.035-.335 1.686-1.441 7.251-.22 1.106-.149.751v.004l-.036.18-.073.368-.18 1.142-1.151 7.313-.108.682-.182 1.161-.159 1.011-.293 1.857-.033.214-.465 3.967-.196 1.678-.033.285-.024.203-.169 1.442-.128 1.101-.228 1.944-.388 3.321-.135 1.715-.045.576-.091 1.149-.023.293-.046.588-.031.396-.016.2-.117 1.486-.019.245-.206 2.616-.177 2.256-.061.773-.078.983-.059.758-.046.576-.003.046-.006.125-.093 2.148-.068 1.557-.048 1.118-.144 3.326-.06 1.367-.06 1.39-.195 4.501-.213 9.997-.099 4.682-.01.487-.074 9.999-.027 3.568-.003 10v.742l-.034 6.692-.081 3.848-.145 2.201-.224 1.753-.319 2.5-.398 3.024-.459 3.329-.505 3.415-.535 3.283-.523 3.008-.472 2.592-.382 2.035-.25 1.338-.173.792-.151.395-.177.171-.254.12-.208.033-.47.076-1.45.142-2.538.219-3.942.339-4.652.399-4.662.401-3.969.341-2.569.22-2.219.105h-.015l-.48-.002h-.044l-2.384-.007-4.68-.117-5.098-.152-2.393-.071-9.595-.346-9.99-.442-1-.044-9.985-.552-1.689-.093-9.975-.703-1.668-.118-9.964-.851-1.653-.141-9.95-.993-1.641-.164-9.935-1.133-1.633-.186-9.92-1.266-1.628-.207-9.905-1.381-1.489-.207-9.89-1.482-1.218-.183-9.875-1.571-.818-.13-9.863-1.652-.29-.048-9.481-1.659-8.677-1.578-7.747-1.459-6.693-1.302-2.978-.6M163.848 459.03l.316-.074.601-.142 5.78-1.36.357-.103 4.884-1.42.684-.199.043-.014 4.323-1.436 2.497-.904 1.307-.469 1.484-.53.312-.111.97-.332.301-.102.153-.042.032-.009.524-.143.015-.003.192-.04.606-.127.476.15.028.009.065.062.245.236.169.162"/><path stroke="#fff" stroke-linejoin="round" d="m157.164 460.046.199-.031 4.927-.767 1.874-.292m-13.607 1.63.081-.007 6.725-.564"/><path stroke="#fff" stroke-linejoin="round" d="m144.089 460.731.073-.001 4.351-.102 2.125-.049m43.851-4.844.003.002.225.138 1.122.688 1.036.541.295.155 1.223.562.189.078.195.081.64.265.473.183.263.102.395.15.098.037.51.21.397.248.103.085"/><path stroke="#fff" stroke-linejoin="round" d="m201.592 459.292-.044-.035-.289-.182-.252-.126-.241-.112m-10.723-6.91.26.241.127.122.636.607.985.905.285.241.542.459.022.018.074.063.026.021.209.177.408.304.43.321.445.331"/><path stroke="#fff" stroke-linejoin="round" d="m193.029 454.73-.086-.075-.028-.025-1.013-.89-.953-.914-.524-.524-.213-.213m410.785-18.908.719.212 2.109.966 2.487 1.457 2.274 1.367 1.442.867 4.32 2.63.823.507 3.477 2.142 3.66 2.292 2.407 1.561.158.109.834.575.103.071.149.103.171.118.525.408.163.125.156.159.107.109.141.177M521.226 424.75l.176.004 1.394.138.165.029m-471.532-21.77 3.013-2.992 1.111-1.088 4.173-4.207 1.211-1.195 3.739-3.795 4.87-4.819 3.375-3.307 3.322-3.133 3.342-3.025 2.232-1.983 3.432-2.991 3.049-2.582 2.457-2.04 1.655-1.367 3.525-2.874 1.098-.894 3.855-2.906.62-.464 1.285-.905"/><path stroke="#fff" stroke-linejoin="round" d="m46.085 408.263 1.944-1.838.388-.365.709-.684 2.303-2.225 2.127-2.054m-17.827 17.036.456-.472 1.547-1.494 2.434-2.311 3.52-3.338 2.399-2.255 1.803-1.694m127.709 66.937.18-.104 3.933-2.259 1.686-.968.229-.132.038-.021.051-.03.176-.101.031-.018.31-.177.043-.025.445-.249.873-.489.214-.12.038-.021.762-.427 3.117-1.747.888-.498.708-.397 1.024-.552 1.045-.563 2.203-1.188 1.17-.631 1.139-.614.06-.033.061-.033.262-.141.006-.003 2.054-1.035.574-.289.6-.303 1.226-.618.849-.428.064-.032.205-.103.279-.141.229-.116.175-.088.747-.336.203-.092 1.789-.806 1.121-.505 2.268-1.021 1.174-.46 1.606-.628 1.28-.501 1.126-.441 1.384-.541 3.28-1.118.139-.047 2.467-.841.11-.037 1.599-.545 5.935-1.815 1.973-.603 1.305-.399.54-.151.156-.044 1.797-.504.032-.01.012-.003.036-.01.547-.153.055-.016 1.999-.561 5.115-1.435.819-.212 4-1.034 1.456-.376 4.543-1.175 7.844-1.849.312-.074.812-.191.05-.012.056-.013.259-.061 1.453-.343 9.789-2.04.39-.081.494-.09 1.115-.203 2.815-.511.242-.044.96-.175.254-.046.674-.123 3.396-.617.631-.101.914-.145 4.066-.647.852-.135.512-.082 1.218-.193.063-.011 1.849-.294 7.724-1.103.725-.103.691-.099.339-.048.01-.002.016-.002.36-.052.268-.038.096-.014.421-.06 1.002-.133 1.286-.172.654-.087 4.491-.599.652-.087 3.503-.468 1.055-.134.588-.075.901-.115 3.278-.417 5.787-.738 1.994-.246.036-.004.503-.062 2.215-.273.511-.063.384-.047.692-.086.046-.005.618-.076.429-.053.539-.067 2.723-.335 2.168-.262.537-.065 3.114-.376 3.26-.394 5.967-.71 4.123-.438 3.275-.248 3.425-.143 4.582-.118 5.751-.116 5.829-.116.52-.011h.027l.556-.011.023-.001.282-.006.115-.003 7.704-.171 5.804-.154 2.229-.059.404-.011.89-.024 1.771-.048 2.367-.066.606-.016 5.559-.154 4.558-.121 6.491-.172 3.158-.075 1.062-.025 1.654-.039.261-.006 5.433-.128 9.999-.19 1.857-.035 7.32-.108.728-.01 1.164-.018 1.112-.016.265-.004 1.234-.018.065-.001.332-.003.718-.008h.005l1.033-.011.299-.003 2.461-.026 3.05-.032 1.052-.011.372-.004.984-.011.418-.004.679-.007.172-.001.126-.001 1.06-.007h.14l.716-.005.372-.002 1.314-.008h.06l.745-.005.692-.004.748-.005.213-.001h.029l.337-.002.179-.001.397-.003.553-.003.515-.003 2.424-.015 6.007-.005 3.787-.004 8.688.033 2.457.018 5.017.037 6.311.048 4.755.039 3.361.111 1.995.265.752.496-.062.137-.308.67-1.894 1.43-.144.109-.665.421-1.104.698-.818.518-.916.58-.752.476-1.4.853-4.63 2.819-.46.281-.455.277-8.538 5.207-.629.384-1.05.64-8.129 4.878-1.366.82-.573.343-.425.255-.559.336-.026.016-.048.029-.311.186-.105.063-.343.206-.535.321-.107.062-.655.383-.003.002-.131.076-.879.514-.793.463-.182.106-.675.394-.017.011-1.059.618-.672.393-1.853 1.082-1.272.743-.077.046-.362.211-1.347.787-2.1 1.227-.506.295"/><path stroke="#fff" stroke-linejoin="round" d="m507.68 433.882-8.544 5.196-1.572.955-8.236 4.931-1.956 1.171-.398.237-.575.345-.091.054-.294.176-.095.057-.352.211-.457.274m-66.863 34.774-2.082.855-.086.035-.038.016-.041.017-.11.045-1.817.746-2.971.962-.6.194-6.391 2.069-.668.217-.02.006-.978.317-2.051.664-.063.014-8.659 1.875-4.682 1.014-9.918 1.277-3.329.428-9.98.634-3.231.205-8.522.195-.096.002-.276.006-.031.001-.027.001-.703.016-.4.009-3.24.074-4.137.031-.279.002h-.009l-.309.003-8.772.066-10-.069-3.879-.027-4.664-.094-9.746-.195-.544-.017-3.2-.101-6.203-.196-5.146-.163-8.752-.361-.537-.023-1.55-.064-.092-.003-.34-.014-4.65-.193-7.763-.382-8.162-.401-4.405-.249-7.019-.396-.57-.032-3.141-.178-9.98-.64-3.595-.231-2.644-.196-3.618-.269-1.074-.08-3.933-.292-.119-.01-.244-.02-.363-.032h-.005l-2.848-.244-1.267-.108-3.68-.315-.749-.064-.232-.019-8.27-.802-1.511-.16-2.579-.274-.237-.025-.807-.085-.784-.083-.557-.059-.805-.086-.269-.028-.081-.009-.294-.032-1.071-.119-.648-.071-1.296-.143-.211-.023-1.939-.214-1.792-.198-.388-.044-1.089-.124-1.034-.118-1.266-.144-1.713-.195-.762-.087-.551-.062-.795-.093-.403-.047-1.324-.155-3.446-.403-3.28-.393-1.553-.186-.981-.121-2.415-.298-2.125-.346-.286-.048-.383-.128-.666-.224-.145-.457.114-.181.501-.615 1.422-1.009 2.655-1.604 4.055-2.352 5.622-3.25.147-.084m886.233-196.63-1.67-.128-.5-.075-.75-.216-.04-.011-.24-.15.06-.547.45-1.272.38-.942.54-1.385 1.46-3.709 1.92-4.775 2.33-5.526 2.65-5.961 2.92-6.084 3.18-5.919 2.4-3.824 1.03-1.646 4.1-5.375.88-1.146 4.05-3.852 4.21-2.953 1.68-1.022.43-.261 4.14-2.167.19-.097 3.01-1.235 1.18-.484 3.89-1.367 3.54-1.069 3.1-.828 2.6-.638 2.03-.504 1.54-.387 1.13-.287.8-.203.55-.137 3.25-.617.4-.05 3.94-.024 4.74.35 5.62.508 4.8.49 1.58.162 7 .784 7.48.904 7.83 1.009 7.95 1.203 7.81 1.482.29.059 7.43 1.844 2.61.88 4.19 1.414 6.18 2.764 5.61 3.252 5.04 3.759 4.52 4.286 3.99 4.671 3.46 4.917 2.95 5.022 2.43 4.986 1.87 4.513.07.156.48 1.321.52 1.449.36.984.11.316.03.085 1.01 3.104.63 2.028.05.206.22.927-.03.505-.23.159-.1.025m.1-.137.23-.047"/><path stroke="#fff" stroke-linejoin="round" d="m1058.8 276.192.5.145.29.084 1.66.132 1.24.026 1.41.029 3.74.001 4.94-.033 6.25-.044 7.44-.055 8.53-.07 5.45-.048.09-.001h.01l3.97-.035 1.09-.011.09-.001 9.21-.089 3.15-.034 1.29-.014 6.23-.067.51-.007 9.83-.121 9.4-.139 7.83-.147 6.75-.178 6.15-.229 6.07-.302M1275 42l-71.08-1.052-9.8-.439-10-.349-.15-.005-10-.274-.37-.01-10-.218-.46-.01-10-.178-.43-.008-10-.154-.28-.004-10-.129-.15-.002-10.06-.105-9.98-.078-8.79-.045-1.14-.005-9.81-.025h-9.62l-.21.001-6.16.016-2.97.008-4.73.026-.59.003-3.69.02-1.44.013-1.77.015-.21.002-.29.003-5 .045-8.46.113-8.25.154-8.08.2-7.89.24-7.03.25-.63.023-7.42.3-7.14.321-4.361.216-2.528.125-6.65.36-6.431.377-6.231.394-6.025.411-.869.064-.042.003-.042.003-.289.021-4.57.336-.99.08-4.601.363-2.899.25-2.466.21-5.066.485-4.701.517-4.272.56-.702.113-.75.121h-.002l-1.66.268-.211.034-.451.073-2.396.464L917 50.001c-33.597 10.143-52.541 16.758-86.5 30.5L747.5 120"/><path stroke="#fff" stroke-linejoin="round" d="m917.569 49.921.029-.051.124-.088.341-.143.659-.251 1.076-.411.515-.191 1.491-.54 1.869-.625 2.226-.672 1.545-.46 2.998-.869 4.922-1.43 6.773-1.878 3.08-.806 1.01-.261 7.772-2.007 9.729-2.311.754-.179 3.847-.883 9.777-2.1 2.518-.541 4.37-.892 9.81-1.941 3.721-.737 4.885-.902 9.83-1.804 4.36-.8 5.37-.921 9.86-1.67 4.42-.748 5.8-.928 9.88-1.512 3.94-.603 6.16-.914 9.91-1.347 3.53-.479 6.51-.879 6.75-.814 9.93-1.179 3.29-.39 7.05-.749 9.95-1.013 3.02-.308 7.31-.668 9.96-.861 2.81-.243 7.5-.573 9.98-.712 2.75-.196 7.63-.462 9.98-.572 2.83-.162 7.82-.382 9.99-.447 3.08-.137 8.07-.333 8.35-.309 8.7-.316 9-.325 9.23-.335 9.37-.347 9.45-.359 9.46-.367 9.4-.366 9.25-.359 9.05-.344 8.9-.303 4.88-.165 8.93-.298 8.87-.231 10-.208 3.95-.082 8.93-.134 10-.062 3.85-.024 9.1-.012 10 .107 3.54.037 9.16.101 9.06.209 9.99.308 3.03.094 8.87.311 5.23.24 6.6.304 8.51.412 10.02.572 8.16.505 7.59.489 4.59.292 2.34.163 7.84.592 7.6.671 7.42.743 7.21.811.82.1 4.88.615 2.08.262 2.97.419 3.69.519 6.33.997 5.74.975 1.44.26m-29.79 25.293.68 4.024 1.1 6.557 1.41 8.42.19 1.163 1.36 8.442 1.54 9.881.04.228 1.45 9.92.86 6.372.35 2.538.03.196.1.79.46 3.633.08.691.15 1.188.27 2.134.11.891.19 1.5.55 4.807.63 5.539 1.04 9.946.09.879.38 4.182.33 3.551.23 2.533.11 1.205.78 9.969.14 1.784.04.529.33 5.148.51 8.116.24 5.025.45 9.389.4 9.992.07 1.98v.007l.03.669.01.224.05 1.429.02.339.33 9.995.08 2.574.03.99.01.175.01.273.01.494.01.197.01.46.02.517v.214l.02.457v.292l.02.544.01.293.03 1.051v.091l.02.507.02.598.09 3.077.11 3.744.02.776.04 1.402.01.332.09 3.242v1.198l-.06.144-.03.055-.1.091-.08.04-.11.033-.14.04-.16.044-.15.043-.14.036-.06.014-.11.027-.14.028-.54.076-1.31.181-.58.081-1.9.262-2.96.414-1.08.15-.33.046-4.57.632-.34.048M1482 36.5v1"/><path stroke="#fff" stroke-linejoin="round" d="m1524.63 228.432-.56.077-4.56.632-.11.016-.23.032-6.09.831-6.56.876-6.67.863-2.91.368-.73.093-.28.035-2.41.305-1.05.131-4.51.563-4.32.536-2.65.33-.17.021-1.25.156-.61.075-.28.027-.39.031-.45.033-.47.033-.44.031-.33.023m61.34-224.149-3.16-.47-3.21-.478-1.23-.169-5.55-.757-6.97-.869-6.44-.733-.58-.066-.08-.009"/><path stroke="#fff" stroke-linejoin="round" d="m1549.74 12.32-1.06-.18-5.17-.857-5.57-.882-.46-.073m-57.18-6.889.89.046 7.75.512 7.44.599 7.26.676 1.8.17 3.44.351 7.15.726 5.53.552 7.03.722 7.86.849 6.79.718 7.97.905 6.54.754 7.44.92 6.31.799 9.91 1.377 3.74.521 5.76.859 9.11 1.39"/><path stroke="#fff" stroke-linejoin="round" d="m1440.23 2.407 4.94-.001 9.29.103 9.11.208 8.74.313 7.99.409.19.01m43.32 5.227 1.95.172 4.58.436M1016.11 40.02l10-.273 1.09-.03 10-.233 3.66-.085 10-.2 4.16-.083 5.79-.095.29-.005.22-.004m-313.171 80.637-.923.494-8.816 4.72-8.816 4.719-1.971 1.093-8.746 4.847-8.747 4.848-3.133 1.791-8.682 4.961-8.683 4.962-3.723 2.168-8.642 5.031-8.641 5.032-3.74 2.199-8.62 5.068-8.621 5.068-3.176 1.87-8.617 5.073-8.618 5.074-2.02 1.18-8.634 5.046-8.634 5.045-.472.275-8.648 5.021-8.648 5.022-7.187 4.152-8.658 5.002-4.852 2.792-8.667 4.987-2.133 1.225-1.259.722-1.734.995-5.658 3.249c-11.16 4.95-17.975 6.163-30.03 8.62M1511.38 6.925l-6.06-.624m-387.56 279.421-2.05.02m-43.12 1.034-2.23.078M944.04 394.176h.001m9.613-114.648-.069-.013m-288.678-9.486.545.038m-133.696-19 .047.054m-19.374-12.293 2.076-.299m-315.44 525.84-2.381-.839-.091-.032m-20.807-307.567.727-.213m-11.748 3.096 6.137-1.463m-13.483 222.876.233.957m-3.544-2.042.205.841m-2.389-.897-.177-.695"/><path stroke="#fff" d="m1171.5 275 66-4.5M635 446.5c33.49-3.962 54.335-2.684 98.5 11.5 54.528 16.86 82.029 31.488 116 83 27.094 54.239 30.685 85.739 25.5 143-14.434 63.442-31.979 92.548-75 136.5-30.802 25.449-50.468 35.327-87.911 48.469a1.03 1.03 0 0 1-.182.045C656.547 877.507 634.333 871.49 597 858c-15.337-6.808-27.578-13.642-69.5-42.5-19.794-15.414-30.062-25.905-45.5-51-10.682-16.602-14.259-28.374-21-49"/></svg>