<svg fill="none" viewBox="0 0 1005 650" xmlns="http://www.w3.org/2000/svg"><g stroke="#fff" stroke-width="2"><path d="M-31.06 244.19c60.492-42.107 99.099-62.411 173.009-95.075m0 0c142.857-55.154 205.015-65.287 312.495-79.439 82.501-9.194 128.821-14.828 209.997-14.122 139.924.671 180.87 7.044 265.387 22.081m-787.879 71.48c35.534 14.827 81.288 24.005 156.716 40.169l337.896 74.83M929.828 77.635c-49.873 6.348-80.405 18.008-141.223 52.598-64.442 41.544-96.519 73.426-152.044 133.881M929.828 77.635c41.425 5.451 61.574 17.646 92.552 50.033M830.462 578.593l85.059-133.523c57.315-94.641 86.589-147.554 112.749-240.034.06-.2.09-.413.11-.62 2.46-36.392.24-53.074-9.44-75.968a3.147 3.147 0 0 0-.85-1.14c-39.676-32.789-68.845-33.054-128.703-11.737-33.441 14.232-51.538 25.246-83.319 47.178-48.017 40.22-74.983 66.648-123.189 122.918C599.76 401.172 556.853 467.259 489.837 588.54m-92.076 2.688c85.802-130.734 130.854-206.214 235.046-323.808l3.754-3.306M514.366 589.421l104.355-184.158c92.52-133.154 127.22-172.55 171.858-207.437 29.581-24.347 46.072-36.506 75.149-53.332 40.726-23.273 63.182-31.561 101.943-29.611 18.315 2.032 28.922 6.016 42.409 16.8 4.13 3.307 7.18 7.839 8.39 12.995 3.6 15.383 2.3 30.252-2.88 57.348-.06.273-.15.544-.27.793L902.302 426.621c-.066.129-.14.254-.224.372L794.803 579.635"/><path d="M858.934 148.956c32.552 87.172 45.204 141.228 59.886 244.883m-31.413 55.251c-9.45-123.298-17.646-188.976-50.392-284.579m77.003 283.802 45.698 123.845m-57.482-144.277c7.335 3.101 11.001 7.005 15.337 14.467"/></g></svg>