<svg fill="none" viewBox="0 0 862 303" xmlns="http://www.w3.org/2000/svg"><path stroke="#fff" stroke-width="2" d="m229.413 81.112 49.558-26.828c27.712-13.55 42.817-19.75 69.306-29.437 29.151-9.942 45.744-15.107 78.249-19.376C463.383 1.623 483.24 1.67 518.935 1c33.778.378 52.64 1.445 86.074 5.962 31.312 4.744 48.957 8.979 80.485 17.885l32.976 11.179M229.413 81.112l-28.62 3.345a1 1 0 0 0-.141.027l-51.724 13.769-51.793 13.414-8.198 2.235-37.634 10.806m178.11-43.596-20.121 5.59c-9.951 2.275-15.166 4.292-23.247 9.176a.95.95 0 0 0-.354.375c-1.822 3.55.934 5.128 5.757 7.78.212.116.461.153.698.101l14.91-3.273M51.303 124.708c-14.82 6.588-23.281 9.291-36.889 23.847l-8.57 10.434m45.459-34.281 10.55-.833c1.012-.08 1.485 1.224.658 1.812l-11.208 7.964-32.045 21.612c-5.064 4.487-10.001 5.086-13.414 3.726m185.19 84.583-8.178-28.621a1 1 0 0 0-.05-.137c-18.491-41.003-35.682-54.892-79.968-63.256a1 1 0 0 0-.23-.017c-26.694 1.108-41.713-.614-68.348 34.149a1 1 0 0 0-.15.277c-10.996 30.888-7.283 46.708 3.474 70.289.308.676-.197 1.449-.94 1.413-6.7-.322-11.03-1.412-18.504-5.154-6.98-4.436-10.196-7.235-14.018-12.834a1 1 0 0 1-.167-.458c-.78-7.615 1-10.882 5.31-15.799a1 1 0 0 0 .243-.8l-1.013-7.431a1 1 0 0 0-.256-.543l-4.044-4.381a1 1 0 0 1-.257-.548c-.882-6.519-1.539-9.33-2.874-12.928a1 1 0 0 1-.064-.351v-23.861q0-.178.062-.346c1.208-3.286 2.126-5.807 4.782-13.246m185.19 84.583c1.621 9.185 3.082 13.395 7.552 16.929a.98.98 0 0 0 .616.209l130.072-1.115 181.091 2.235 109.769 3.696c.511.018.953-.361 1.026-.866 3.915-27.133 7.943-41.251 19.95-62.374q.043-.073.097-.141c29.316-35.797 49.387-43.844 90.036-42.042q.082.003.163.02c38.578 8.051 52.115 20.166 63.229 54.278.023.07.038.146.045.219 1.57 16.756.328 26.148-8.026 41.106-.39.698.146 1.558.944 1.488 9.521-.829 16.914-2.98 31.292-8.798 16.422-8.193 21.853-15.041 30.431-27.764.08-.118.135-.255.159-.396l.686-4.12q.024-.138.083-.263l9.905-20.91c.063-.134.096-.28.096-.428v-19.176c0-.225-.077-.444-.216-.622-2.637-3.379-3.569-5.516-3.138-9.786l.746-32.045v-2.609l.739-24.398a1 1 0 0 0-.062-.377c-.894-2.372-1.656-3.353-3.658-3.916l-4.441-1.708a.97.97 0 0 1-.562-.557c-1.566-4.128-.753-6.989 1.582-12.12.044-.096.074-.203.085-.308.499-4.817-1.006-6.632-5.607-8.782l-18.258-5.589-8.198-1.49-4.335-.362a1 1 0 0 1-.264-.058l-63.217-23.428-32.976-11.178M191.034 243.572c13.866 1.651 21.157.91 34.28 0m618.914-142.711L804.73 82.975l-58.5-25.337m0 0-10.061-3.727m10.061 3.727c-4.886 6.613-8.751 9.922-18.258 14.904-16.174 7.715-26.724 9.641-45.552 13.042m53.749-31.673c-43.914-16.41-66.582-20.973-107.313-29.809-56.279-11.79-78.767-10.66-121.845-11.178-36.215.532-56.524 2.22-93.154 7.452-35.538 7.13-55.401 10.936-94.644 29.437L255.188 84.43a1 1 0 0 0-.123.078l-26.397 19.705M736.169 53.91c3.938-4.613 4.584-6.767 3.726-10.06m-511.227 60.363h8.57m-8.57 0-6.707 7.573m6.707-7.573h-17.844a1 1 0 0 1-.707-.293l-3.061-3.06m18.258 142.711c-10.199-35.446-11.253-56.038-13.041-92.781.14-16.091 1.261-23.288 4.778-33.349a1 1 0 0 1 .196-.333l4.714-5.322m3.353 131.785 135.632-1.49h94.644m223.197-160.97 2.972 1.982a1 1 0 0 1 .438.708l.223 1.782m-3.633-4.472c31.352-6.713 45.543-11.347 53.988-22.404.404-.528.151-1.291-.478-1.51-27.507-9.54-42.985-14.384-69.16-20.8-62.615-16.026-97.377-19.01-159.107-19.376m174.757 64.09c-40.171 4.34-60.832 6.748-97.626 9.688-36.463 2.657-58.451 4.153-94.271 6.375m17.14-80.153c-7.19.093-13.682.238-19.748.459m19.748-.459-17.14 80.153m-249.652 7.039 21.159-17.447a1 1 0 0 1 .172-.114l70.332-36.84c52.884-20.63 65.821-21.927 91.291-25.71 24.857-3.956 41.534-5.804 64.09-6.623m-247.044 86.734h10.94c.375 0 .719-.21.89-.543l7.042-13.732a1 1 0 0 1 .379-.404l11.46-6.804a1 1 0 0 1 .467-.14l8.245-.358q.075-.003.149.005c7.94.84 12.426 1.701 20.419 4.463 6.339 1.761 8.187 4.826 12.296 14.905l1.118 3.726m-88.682 6.455h34.186q.095 0 .188.017c5.602 1.058 9.063 1.23 15.556.98l33.332-1.481a1 1 0 0 0 .386-.099c.399-.199 1.34-.688 1.68-1.028m3.354-4.844c-.737 1.128-1.524 3.366-3.354 4.844m3.354-4.844c57.547-1.305 90.306-3.038 144.575-6.244M682.42 85.584l.067.541a1 1 0 0 0 .131.382c4.374 7.435 8.272 11.516 16.015 18.263.372.323.455.87.194 1.288l-12.588 20.141c-25.292 36.39-40.974 51.178-68.561 78.994-24.955 21.824-39.131 35.143-60.737 36.889H455.59M682.42 85.584 572.219 96.389l-105.078 7.453m0 0-116.613 5.588-.018.001c-.326.006-26.158.456-43.221.745m159.852-6.334 1.491-5.55m-1.491 5.55-7.079 36.516-5.217 72.287v8.198l.745 21.239m13.042-143.79.745-.04c6.229-.38 12.033-.737 17.513-1.077m-18.258 1.118c-4.624.274-9.088.54-13.414.795M718.47 36.026C677.282 24.968 654.31 18.42 611.343 12.55c-43.598-5.972-67.499-6.727-109.921-7.08-46.318 1.756-72.276 3.491-118.492 14.905-34.512 9.54-53.583 16.853-87.192 32.79l-54.029 29.437-34.653 18.258m277.226-83.38-29.064 81.607"/><path stroke="#fff" stroke-width="2" d="m55.402 163.088-12.296-3.354-8.417-3.294a1 1 0 0 0-.318-.067l-15.858-.738m21.494 68.934c0 37.477 31.863 67.188 69.424 67.188 37.718 0 72.778-25.378 72.778-62.717 0-18.724-8.786-36.83-22.317-50.269s-31.733-22.136-50.461-22.136c-37.547 0-69.424 30.443-69.424 67.934Zm738.013 9.688c0 37.477-31.863 67.188-69.424 67.188-37.763 0-74.268-24.668-74.268-61.972 0-37.627 30.89-74.268 68.306-74.268 18.765 0 37.63 7.887 51.805 20.496 14.173 12.608 23.581 29.865 23.581 48.556Zm72.542-134.514c-14.985 2.295-25.756 1.963-41.762 2.539-.791.028-1.22.911-.703 1.51 3.004 3.479 8.375 7.574 16.754 14.582 13.263 9.581 20.687 14.894 28.493 15.995a1 1 0 0 0 .393-.026l3.905-1.065"/></svg>