<svg fill="none" viewBox="0 0 1005 650" xmlns="http://www.w3.org/2000/svg"><path stroke="#fff" stroke-width="2" d="m932.249 333.798-20.538 9.242a3 3 0 0 0-.77.501L796.308 446.189a3 3 0 0 0-.535.633l-12.353 19.56c11.585-39.052 17.986-61.053 17.298-108.172a3 3 0 0 0-.071-.608c-8.433-38.267-18.204-43.394-40.406-35.993a3 3 0 0 0-.749.374c-27.444 18.99-44.11 43.212-78.786 144.399l-27.774 71.794c-6.922 15.454-9.103 24.778-28.601 35.513-.145.08-.302.15-.457.204-29.651 10.336-52.338 14.237-118.199 13.019-68.027-5.937-107.331-10.217-195.994-33.015-50.329-13.216-76.889-19.607-146.408-56.425a3 3 0 0 1-.597-.414c-24.288-21.563-38.224-32.414-60.472-58.822a3 3 0 0 1-.683-1.544l-2.444-18.571a3 3 0 0 0-.273-.915c-7.655-15.918-10.49-22.119-15.51-33.1l-9.434-30.394m0 0 4.047-12.14c.097-.29.239-.566.417-.814 6.098-8.518 8.175-14.787 9.686-27.922l3.668-58.693M73.86 353.712c17.036 27.417 41.278 42.205 109.002 67.602 101.098 28.12 158.293 37.297 260.975 45.068 49.655 2.623 72.167-1.059 114.243-5.765M91.678 254.143v-55.964a2.97 2.97 0 0 0-.78-2.012c-3.702-4.015-6.785-6.738-15.998-12.162-.665-.392-1.167-1.023-1.353-1.773-1.413-5.702-.01-7.812 3.292-10.367a2.9 2.9 0 0 1 1.552-.588l32.816-2.524q.384-.03.75-.156l42.082-14.547 66.03-26.573M91.678 254.143l1.562 67.163c.007.291.057.584.148.861 4.185 12.62 9.724 16.703 21.348 22.112 38.044 21.435 66.077 31.324 128.391 45.068 36.119 9.821 57.521 13.391 97.473 16.769 29.447 4.707 41.547 1.582 54.825-14.431.131-.159.249-.336.345-.519 10.422-19.931 15.336-34.862 22.913-65.753m491.032-182.892c-6.532-13.043-10.668-19.973-20.438-30.395-9.816-10.13-14.608-14.053-22.272-18.866m-646.936 34.217 19.914-8.014 83.848-32.491 68.65-18.866c15.975-3.465 24.907-6.441 38.255-8.385l75.463-12.053L599.479 44l137.3 3.668 4.193.385m-520.903 79.424v2.705a3 3 0 0 0 2.905 2.998l178.94 5.672 80.956-4.178c.18-.009.362-.035.537-.077 37.4-8.84 59.66-17.629 100.351-36.62m0 0 48.736-22.01 44.544-15.197c16.762-3.88 26.918-7.605 41.924-9.433l22.01-3.284M583.758 97.977l34.587 21.486m122.627-71.41 42.086 4.8a57 57 0 0 1 9.984 2.031c16.82 5.058 28.335 9.461 45.641 17.656 4.03 1.908 7.807 4.309 11.29 7.094l17.032 13.626M418.683 325.413c-10.58-8.331-17.696-12.911-37.37-20.302a3 3 0 0 0-.739-.176l-73.623-7.853c-2.163-.231-3.368-2.615-2.238-4.474 7.787-12.805 15.175-22.021 29.933-38.257.124-.137.266-.266.413-.378 8.352-6.332 12.926-10.05 29.123-11.359l128.392-3.145 35.111-2.096m-109.002 88.04c51.662 1.886 80.843 3.028 120.007 0m-11.005-88.04 86.448-6.496c2.059-.155 3.656 1.769 3.124 3.765l-3.009 11.283a3 3 0 0 1-.276.683c-11.401 20.55-20.62 33.953-42.534 61.191-.168.21-.371.402-.589.56-11.973 8.652-18.555 14.513-32.159 17.054m-11.005-88.04-7.209-31.927a3 3 0 0 1-.035-1.135c1.054-6.338 2.356-9.928 7.1-15.505.094-.112.201-.219.312-.315 33.581-29.222 53.491-44.272 90.492-69.028m-79.655 205.95 15.481 79.468c.153.79.619 1.485 1.29 1.929l27.35 18.07a3 3 0 0 0 2.071.468l95.824-13.467 19.914-3.145m-82.275-289.273 68.65-36.16c23.28-9.334 34.928-12.79 53.977-16.769 18.889-4.84 28.986-3.763 47.164-3.144 15.269 1.929 23.333 3.61 36.683 7.86 12.693 4.382 19.07 7.81 29.871 14.674l12.315 7.336m-258.093 35.636c28.506 27.472 50.891 39.264 104.809 52.404m0 0 121.579 9.433 44.02 1.572h41.924M713.721 181.3c4.781 16.786 13.526 24.158 36.846 34.207.57.246 1.069.677 1.393 1.206 38.671 62.941 50.888 90.375 54.518 123.897l7.275 61.839c.041.346.138.686.309.989 1.544 2.745 3.555 3.19 8.603 1.795a2.9 2.9 0 0 0 1.052-.544l57.886-46.785M810.67 72.823l39.828 109.674M810.67 72.823l-17.817-1.573c-18.859-.58-29.416.392-48.213 4.193-17.157 2.324-26.642 5.815-43.496 13.101M810.67 72.823l11.529 2.62m96.949 110.05c-78.199-2.988-123.082-5.652-205.427-12.578-43.395-9.724-61.224-19.301-85.943-40.875m240.537 61.313 18.577 43.347c.19.442.27.924.235 1.404l-7.781 104.783q-.025.344.027.684l2.23 14.333m0 0 37.365-29.728a3 3 0 0 1 .379-.257l10.806-6.174m-63.148-139.248L822.199 75.443m0 0c24.042 9.236 42.239 19.25 62.714 40.695q.17.18.311.385l18.726 27.57"/><path stroke="#fff" stroke-width="2" d="M306.013 296.066c-82.206-9.419-126.337-16.92-197.566-38.779m3.144-88.04c160.792 14.704 232.253 23.71 332.77 40.876m291.886 132.584c15.222 2.545 29.643 7.826 37.572 21.067 6.356 10.613 11.017 26.708 13.784 66.973-2.51 35.438-7.266 59.377-19.835 98.464-1.622 5.043-3.709 9.935-6.078 14.674-13.724 27.452-21.72 47.754-41.958 54.457-12.877 2.629-20.505 2.999-36.205-2.313l-53.652-25.362"/><path stroke="#fff" stroke-width="2" d="M780.79 382.011c-15.032-12.921-42.871-12.701-61.828 36.158-8.117 27.675-22.097 48.342-23.066 101.14.94 25.689 3.917 57.274 18.341 80.179"/></svg>