<svg fill="none" viewBox="0 0 1412 929" xmlns="http://www.w3.org/2000/svg"><g stroke="#fff" clip-path="url(#teslam3-5RtYpLwQ_svg__a)"><path d="M1650.35 198.546c-6.72 3.739-9.82 9.002-13.5 27m0 0-2.33 26.949c-.11 1.357-.07 2.752.46 4.006.7 1.65 1.69 2.556 3.55 3.178.86.29 1.78.367 2.69.367h9.13m-13.5-34.5c-44.81-50.716-72.65-77.248-128-121.5-61.49-44.687-98.33-64.045-171.5-80.5l-.97-.187m0 0c-30.45-5.867-48.85-8.972-88.53-12.813-44.44-3.771-68.94-5.706-110-8-38.48-1.915-60.05-2.76-98.5-2.5-51.195.031-80.217.898-132.003 2.5-57.235 1.666-86.536 3.052-133 6.5-62.448 5.36-96.782 9.822-156.999 20.5-50.147 7.975-78.246 12.54-127.501 27.5-65.809 20.857-101.482 33.07-156.5 58.5-38.366 18.546-59.594 28.987-88 49-4.854 4.459-5.984 6.708 3 9 8.418 1.444 14.083 2.063 26.5 3 95.704 3.403 148.897 5.153 240.001 7 70.857.785 109.477-.53 173-11.5 26.21-6.44 51.119-15.59 133.499-52.5 78.635-37.401 126.491-57.612 240.003-88 113.77-24.103 173.83-25.182 275.03-8.187Z"/><path d="M1074.85.046c52.69 2.61 80.99 4.953 127.5 12m-589.002 18c-100.173 17.762-169.242 32.977-288.5 85.5m0 0c-81.652 39.688-127.291 62.798-208.5 105-11.694 5.558-18.666 8.038-31.5 11.5-15.775 5.103-22.678 8.254-22.523 15.022.008.316.065.638.146.944 3.45 13.115 3.293 17.605-.123 21.034-3.608 4.228-5.192 6.701 0 13 5.133 6.3 8.32 8.526 14 12.5 2.025 1.234 3.51 2.437 6.905 5.892.394.4.717.868.951 1.378 1.39 3.028 2.253 5.258 3.644 10.23 2.303 8.676 1.82 10.684-1.97 9.218a6.107 6.107 0 0 0-1.09-.322l-37.44-6.896m277.5-198.5c3.799-.093 5.977-.16 7 .5"/><path stroke-linejoin="round" d="M62.348 269.046c-23.5 7-35.334 8.998-37 15-2.2 16.911-2.856 26.52-2.5 44l2 28c.377 5.828 1.526 7.673 4.438 9.462.04.025.083.047.127.066l10.435 4.472c.543.194 1.04.345 1.5.446m12-14.946-6.5 11.5c-1.671 3.113-3.062 3.98-5.5 3.446m12-14.946-24.5-9.5c-2.334-1.024-2.722-2.492-2.5-6l1.5-17m25.5 32.5c25.102 6.042 40.77 8.37 67.999 13 99.431 14.144 158.914 20.12 267.501 29.5a.904.904 0 0 0 .5 0m-348-27.554c-6.019 38.716-8.655 59.313-6 85.054 2.471 12.352 5.304 16.409 11.426 21.439.048.04.102.076.158.106 16.658 9.047 26.661 12.001 44.415 17.455 106.792 20.698 168.219 29.856 279.501 43.5 40.367 5.319 62.85 8.676 104 12m-449-187.5-6 78.5c-3.698 30.645-6.194 47.276-17.5 68-3.161 4.285-3.1 8.748 0 20 7.4 40.524 13.207 59.653 23 95m0 0c4.364-3.587 7.767-4.481 16.5-3 36.25 11.214 59.163 17.859 98.499 29.5 51.378 12.802 79.64 19.115 129 28.5l184 33c43.872 10.485 68.401 16.443 102.5 37.5 30.983 21.499 49.013 40.087 81 71.5 20.026 16.952 29.552 23.278 44 30 27.862 10.419 45.204 14.983 88.5 14 25.627-.294 37.351-1.336 58.736-2.98.171-.013.339-.07.482-.165l.783-.522m-804-237.333c-6.132 5.902-7.39 10.027-4 19.5 10.638 24.042 17.306 36.503 30 57.5m1599.002-94.5-203 71-127.5 45.5c-37.96 13.468-58.15 21.022-87.5 34.5-16.31 6.421-25.9 14.878-41.49 30.886-.74.76-2-.005-1.67-1.014 7.69-23.73 12.26-38.504 17.66-68.372 7.94-49.777 8.26-75.523 8-121-4.49-39.8-8.59-59.937-22-87.5-16.43-29.065-26.55-38.299-45.41-47.951a.873.873 0 0 0-.2-.077c-20.08-5.322-33.43-4.378-62.39 7.028-28.87 13.124-44.16 27.609-70.5 61-22.922 34.467-34.46 54.503-49.003 93.5-16.828 48.972-25.918 77.969-41.5 133-11.328 38.502-17.847 56.69-30 77-11.08 14.899-17.829 19.498-30.39 23.465a1.001 1.001 0 0 1-.223.044l-31.627 2.47a1.01 1.01 0 0 0-.477.165l-1.782 1.189m-778-160.333 3.5-5.5m-3.5 5.5c-2.231 4.07-3.015 6.583-1.5 12.5 4.485 11.391 9.596 17.002 20.435 26.443.042.037.09.072.138.101 15.72 9.576 23.632 13.664 36.427 18.956 4.958 1.701 7.773 2.307 13 .5 5.674-1.958 8.747-3.282 15.371-3.496a.979.979 0 0 1 .253.024c16.658 3.781 30.902 8.147 56.376 15.972l64.5 16c6.458 2.031 10.019 3.439 16.5 7l28 15.5c7.67 4.013 13.919 5.67 27 8 27.455 5.222 42.904 7.79 70.5 12 22.405 2.944 34.49 4.756 59 7m0 0c17.332 1.746 27.083 2.993 44.5 4.5 19.01 1.674 34.312 2.633 49 3.306m-93.5-7.806c36.115 5.889 58.059 8.754 98.499 13.5m82.501-3-24.5-.5c-24.829-.905-43.365-1.294-63-2.194m4.999 5.694c8.424 9.091 12.573 13.299 16.382 15.434a.96.96 0 0 0 .253.097c6.504 1.527 10.206 2.026 16.866.469 14.063-1.952 23.211-3.64 43.334-8.461.108-.026.222-.034.332-.023l14.971 1.449a1 1 0 0 1 .619.296c5.123 5.218 8.084 8.09 13.123 10.677.08.041.166.071.254.089 14.859 3.074 23.925 4.681 54.367 4.973 31.898-.725 49.972-1.786 83-6.5l27-3.5c1.625-.128 2.316-.407 2.869-1.278a.899.899 0 0 0 .131-.48v-2.909m-273.501-10.333-4.999-5.694"/><path d="M26.348 633.046c1.594-1.632 4.077-1.763 10.5-1m0 0c23.359 7.341 41.373 12.968 62.5 19.206m-62.5-19.206c-5.412.368-7.542 1.643-7.5 8.421 0 .051.004.105.012.155.869 5.292 1.901 7.983 7.488 10.63 17.935 8.559 27.693 12.235 44.896 18.258.068.023.141.04.213.048 6.895.766 10.675-5.966 17.39-18.306m462.001 119.294c-30.549-22.339-54.444-32.538-112-45.5l-103.5-18.5c-2.368-.399-4.7-.793-7-1.183m222.5 65.183c35.115 31.803 53.63 51.358 85.794 87.577.604.681.069 1.76-.836 1.671l-57.958-5.748m-27-83.5c-56.34-7.421-88.018-12.923-144.5-22.5-19.304-2.796-28.988-5.482-42.5-14l-35.5-28.683m-239.5-54.111c17.671 5.217 37.521 10.862 64.5 18.294 68.125 16.561 107.708 24.415 175 35.817m-253.5-470.817c130.777 6.744 203.656 11.092 333.5 19m122 155 128.624 5.463a.995.995 0 0 0 1.022-.834c2.76-17.225-3.39-27.969-19.865-47.3a1.012 1.012 0 0 0-.708-.353l-219.597-12.393a.999.999 0 0 1-.846-1.424c4.683-9.873 8.385-15.456 27.37-20.159 39.667-5.496 64.549-7.669 107.5-10 62.521-5.789 96.981-7.521 157-9.452m-180.5 96.452-152-10.5m152 10.5c14.701 16.533 23.136 24.595 40.5 24m180.5-6.5c23.32-11.037 29.81-16.213 38.5-25 12.212-12.22 19.098-19.357 31.5-33.5 13.411-18.178 20.042-29.82 31-52 2.862-7.098-7.753-4.839-17.5-5.5-47.669-.217-74.518.417-122.5 2l-1.5.048m40.5 113.952-20.5 10.5m20.5-10.5c-6.461-53.968-15.906-78.349-40.5-113.952m20 124.452c-61.108.876-96.324-.332-160-4m160 4c1.789.24 2.191 1.806 2.5 5.5 5.029 42.538 7.817 66.477 14.5 104.5 4.248 16.461 8.119 23.907 20.863 29.935a.988.988 0 0 0 .285.086c12.972 1.883 20.918 2.126 38.352 2.479 17.5.354 79.122 1.097 130.5 1.5 14.156.262 22.072.27 36-1m-403-147c-7.166 32.289-11.055 50.579-23 76-15.354 26.993-26.231 32.61-46.5 39-13.265 3.027-21.898 2.944-37.5 2.5m347-430.5c5.385.018 8.655-.174 12 1.5 17.154 9.816 25.636 16.459 40.468 28.083.319.25.769.282 1.121.083 51.689-29.275 81.58-44.683 137.913-67.166 49.44-19.83 78.58-28.681 132.5-40.5 55.72-9.736 87.45-11.672 145-8.5 41.73 3.911 64.81 7.148 106 18 40.02 14.708 62.68 23.67 107.5 54.5 34.24 26.14 52.82 39.125 92.5 80 16.4 17.875 25.21 27.843 40 45.5"/><path d="m1634.85 249.046-26.77 1.946a.991.991 0 0 1-1-.631l-31.23-79.315m0 0 59 68m-59-68c-36.79-33.622-58.03-49.21-96.5-74-33.28-20.087-52.77-27.917-88-40-40.66-10.874-55.26-11.966-81-14.918m-32.5-3.082c13.14.921 19.37 1.46 27.5 2.5 1.71.203 3.38.396 5 .582m-32.5-3.082c-27.52-.984-42.38.43-69 2.5-52.39 6.964-75.88 12.865-114.5 24.5-24.86 8.748-39.79 14.487-68.5 26.5m252-53.5c43.43 75.821 64.85 121.268 95.77 208.849.13.387.5.66.91.675l39.26 1.419c.73.027 1.23-.724.96-1.397-34.33-82.931-57.35-128.33-104.4-206.464m-284.5 50.418c27.69 52.783 42.78 83.191 68.5 139.5m-68.5-139.5c-27.848 11.2-42.737 16.674-81.502 40-18.728 11.165-31.292 19.332-53.882 34.26a1.01 1.01 0 0 0-.095 1.607c25.444 21.519 42.544 32.628 87.477 45.133 42.392 11.826 67.062 17.128 116.502 18.5m0 0 32.5 2.5m111 104.999-54 1c-4.03.386-6.08-.679-9.5-4l-10.87-10.373a.915.915 0 0 1-.21-.295c-1.3-2.822-.29-3.421 2.58-3.832 5.15-.103 8.15-.098 14.34.485.1.01.21.037.3.078 2.72 1.18 4.25 2.122 6.86 4.437 3.27 2.941 4.87 3.739 7.5 3.5l42.89-.498c.07-.001.14.006.21.021 3.52.739 5.08 1.712 5.9 5.977.92 3.042-.81 3.593-6 3.5Zm-31.5 345.98v.021c0 61.07-18.82 121.874-47.01 167.4-28.21 45.556-65.71 75.678-103 75.678-37.33 0-64.301-19.424-81.966-54.142-17.683-34.75-26.026-84.802-26.026-145.936 0-61.073 18.446-122.233 46.261-168.115 27.831-45.906 64.941-76.376 102.221-76.385 36.05 2.491 64.65 22.745 83.64 57.427 19.01 34.706 28.38 83.856 25.88 144.052Z"/><path d="M876.348 852.546c10.983 18.994 19.676 26.885 36.5 39.5 8.358 6.002 15.379 8.822 29.5 13.5 61.542 17.225 83.932 21.466 111.502 23.5m11.5-449 31 4m554.5 84.5-212.5 60.068m-392.5-388.068c.58 4.881.91 7.618 1.5 12.5 1.32 7.451 4.11 9.9 10 13.5l40.5 28c5.43 3.962 8.17 8.27 13 16.5 32.64 46.898 50.85 73.996 83 126 35.77 70.806 54.3 113.075 74.98 208.905a.62.62 0 0 0 .06.184c10.02 23.472 25.04 21.249 52.96 15.411l116.5-32.932m-392.5-388.068c84.27 8.663 132.07 11.368 217.5 15.5l150.5 8m-368-23.5c-34.33-7.204-52.913-11.53-84.502-20-31.795-10.292-49.157-18.81-79.5-38l-23-17.5m555.002 99c20.63 30.079 30.33 45.355 40.5 66.5 5.36 9.864 8.55 15.404 9 25-.58 40.363-1.34 52.73-2.5 79.5-4.95 50.188-8.65 83.303-6.5 95l4.98 28.893c.01.071.03.142.06.208 2.36 5.842 1.88 9.24-1.04 15.399l-20 54.068m-24.5-364.568c79.44 2.908 123.06 3.085 200 2l37-2m-237 0c-.99-6.424-1.9-9.512-6-11.5l-6.5-3"/></g><defs><clipPath id="teslam3-5RtYpLwQ_svg__a"><path fill="#fff" d="M0 0h1412v929H0z"/></clipPath></defs></svg>