<svg fill="none" viewBox="0 0 1208 802" xmlns="http://www.w3.org/2000/svg"><path stroke="#fff" d="M43.073 736.918c9.922 14.474 16.258 18.296 28.698 18.653 26.014 1.849 40.785 2.61 67.439 3.588 9.141-.686 12.908-2.954 17.936-9.327m892.494-1.435v.303c0 .265.1.52.29.707l.42.425c5.03 6.373 8.8 8.641 17.94 9.326 26.65-.977 41.42-1.738 67.44-3.587 12.44-.357 18.78-4.179 28.7-18.653l.61-1.224c.07-.139.1-.292.1-.447v-.481"/><path stroke="#fff" stroke-linejoin="round" d="m52.195 360.031-.148-.12-.436-.342-.353-.241-.313-.166-.316-.12-.503-.061-.877.003-1.412.073-2.108.145-2.718.264-.135.018-3.104.412-3.678.643-4.032.901-4.008 1.032-3.607 1.039-.258.083-2.574.835-1.69.677-.827.686-.178.719-.057.228-.09.53-.083 1.535-.119 3.035-.198 5.045-.307 6.455-.447 7.265-.62 7.457-.824 7.019-.94 6.728-.963 6.589-.896 6.608-.74 6.781-.605 6.895-.492 6.947-.403 6.938-.335 6.867-.159 4.535-.09 2.552-.035 1.873-.007.334-.02 1.042-.007.429-.075 3.923-.005 2.039-.002.813-.001.576-.002.889-.01 4.094.022 1.768.015 1.205.006.42.016 1.276.062 4.851.038 1.507.036 1.389.008.278.035 1.389.152 5.889.028.743.051 1.369.02.54.05 1.368.27 7.178.026.539.048.963.048.987.042.873.367 7.508"/><path stroke="#fff" stroke-linejoin="round" d="m270.059 447.256.605.027.036.003.356.015 1.337.064 1.423.066h.006l.109.005.197.009 1.151.054.114.006.342.016.109.004.468.022.836.039.102.004 1.161.053 1.459.066.561.026.274.011.082.005.356.015.021.002.208.008.024.002h.002l.484.023.303.013.961.044.468.02.452.019.169.007.735.032 1.514.066.14.005 1.259.055.515.023 1.314.024 1.553.03.156.003.377.007 1.682-.136.154-.013.024-.001.08-.037.148-.067.393-.176.253-.112.064-.029.009-.004.184-.692-.084-.18-.246-.54-.085-.186-.139-.305-.241-.347-.197-.284-.237-.341-.162-.236-.462-.665-.027-.041-.019-.027-.185-.244-1.436-1.9-.164-.216-.366-.485-.472-.622-.126-.166-.009-.012-.33-.436-.641-.845-.353-.466-.914-1.204-.122-.162-.247-.32-.958-1.244-1.221-1.587-.376-.488-.309-.402-.097-.128-.071-.091-.212-.274-.235-.299-.428-.544-.499-.631-.751-.953-.513-.653-.515-.652-.31-.394-.216-.274-.248-.314-.869-1.059-.495-.604-1.788-2.182-.241-.295-.261-.317-.204-.232-.257-.293-.332-.379-.037-.041-.014-.016-.38-.433-.625-.712-.025-.03-.144-.162-.435-.497-.028-.031-.002-.003-.001-.002-.274-.312-.546-.622-.17-.188-.018-.017-.315-.293-.119-.109-.6-.556-.646-.6-.185-.171-.158-.148-.924-.856-.691-.642-.5-.353-.021-.016-.177-.124-.644-.454-.42-.297-.706-.496-.985-.695-.046-.033-.126-.089-.413-.29-.663-.467-.406-.224-.231-.126-2.914-1.605-.203-.11-.423-.234-.046-.024-1.624-.894-.202-.112-.386-.211-.329-.161-.617-.284-.676-.31-2.006-.923-.066-.028-.433-.2-.931-.427-.705-.325-1.613-.74-.43-.198-.561-.258-.748-.343-.473-.195-.062-.026-.859-.353-.847-.349-1.032-.425-.015-.005-.204-.085-2.109-.868-.186-.076-.701-.288-.076-.032-.513-.211-.522-.215-.966-.398-.248-.102-.076-.031-.924-.38-.228-.095-.35-.144-.3-.113-1.438-.545-.229-.086-.161-.06-.808-.308-1.251-.473-1.066-.405-.616-.232-.185-.07-.239-.091-.209-.079-.718-.272-.442-.167-2.189-.829-.14-.055-.406-.152-.121-.046-.526-.201-.181-.067-.689-.241-.343-.122-.049-.016-.314-.11-.097-.035-.115-.04-.03-.011-.546-.191-.156-.055-.01-.003-.478-.168-.789-.278-.247-.086-.281-.098-.212-.074-.214-.076-.659-.231-.006-.002-.129-.046-.366-.127-.196-.071-.026-.008-.181-.063-.214-.075-.02-.007-.076-.027-.35-.122-1.072-.376-.495-.175-.885-.31-.092-.032-.338-.119-.081-.029-.036-.013-.054-.018-.058-.02-.05-.018-.615-.216-.465-.164-.257-.09-.013-.004-.103-.033-.022-.008-.184-.058-.714-.23-.144-.046-.025-.009-.19-.061-.251-.081-.857-.275-3.557-1.145-.143-.046-1.247-.402-.857-.275-.106-.035-.651-.209-.009-.003-1.573-.507-.159-.047-.083-.024-.099-.029-3.558-1.055-1.771-.523-.056-.018-1.085-.321-.013-.004-.008-.002-.01-.004-.864-.256-.003-.001-1.951-.577-.194-.057-.425-.126-5.414-1.49-.198-.054-.823-.227-3.768-1.036-1.237-.323-.135-.034-.066-.018-5.82-1.518-.204-.053-2.96-.772-1.536-.391-2.529-.643-1.541-.392-.049-.011-1.416-.361-.301-.077-2.52-.641-.634-.161-.406-.104-2.105-.526-.034-.009-2.494-.622-.688-.173-4.969-1.242-.354-.089-.337-.083-4.946-1.223-.66-.164-.036-.008-3.597-.89-3.107-.763-2.076-.509-1.832-.45-.724-.177-5.136-1.262-3.384-.796-2.464-.502-2.374-.381-3.111-.429-3.732-.483-4.239-.551-4.63-.623-4.597-.663-.309-.044-.093-.015-.51-.074-1.742-.258h-.008l-2.732-.405-3.533-.52-1.64-.241-.284-.038-1.565-.223-3.32-.47-1.744-.229-.13-.017-.635-.084-.526-.069-.36-.048-.745-.097-.936-.124-4.881-.594-2.03-.226-.75-.084-.063-.007-1.742-.193-4.191-.419-3.703-.318-3.207-.233-2.71-.168-2.202-.119-1.475-.087-.215-.002-1.033.007-.193.008-.806.193-.308.245-.21.168-.364.679-.257 1.387-.027.34-.06.743-.116 1.46-.22 4.04-.316 5.898-.098 2.466-.186 4.715-.125 7.886.041 2.084.052 2.495v.031l.003.114.003.106.004.245.005.177.007.36.004.228.01.462.003.148v.01l.003.129.001.112.003.111v.018l.003.131.006.254.007.389.003.107.004.22v.03l.001.037.023.302.01.126.009.103.043.554.026.334.032.408.038.506.017.22.025.303.066.859.049.621.08 1.032.01.136.036.46.119 1.541.01.053.066.357.003.009.07.386.066.354.063.343.08.425.057.31.28 1.518.097.522.043.237.103.558.104.557.026.139.119.64.058.32.015.08.548 1.477.248.668.096.261.239.642.113.303.333.898.038.103.365.982.215.581.59.839.184.26.477.678.105.15.185.261.59.839.747 1.062.513.726.136.187.284.205.877.635.096.069.5.362.533.387.11.078.24.175.556.402.628.456.949.686.075.054.216.089.35.142.687.277.296.119 2.207.891.034.015.649.262.276.112 1.7.686.127.032 3.434.835.23.056.24.059.11.027.01.003 2.574.625.274.066.069.018.348.084.035.009.225.037 3.518.588 1.863.31.615.104 2.372.394 1.403.201.58.082 2.171.31.29.042 1.484.21 2.409.343.795.114.499.071.583.072.384.048 1.67.205 1.158.143.492.06.572.071.497.061 5.542.683 4.069.442.194.022.366.04.036.004 2.829.307.289.032 3.657.398.056.005.898.098.208.021 1.081.105 3.96.389 2.484.244.04.004.122.012 6.233.611.357.033.052.004.565.052 2.965.268.468.042 4.369.396.526.047 2.767.251.522.048 3.511.317 11.392.968 1.778.151 1.437.122.036.003.451.039.676.057 1.307.11.789.064.027.002.159.013.239.019 6.974.557.101.008 4.488.359 3.876.31.16.013.071.006m971.405-82.068.14-.12.44-.342.35-.241.32-.166.31-.12.51-.061.87.003 1.41.073 2.11.145 2.72.264.13.018 3.11.412 3.68.643 4.03.901 4.01 1.032 3.6 1.039.26.083 2.58.835 1.69.677.82.686.18.719.06.228.09.53.08 1.535.12 3.035.2 5.045.3 6.455.45 7.265.62 7.457.83 7.019.94 6.728.96 6.589.9 6.608.73 6.781.61 6.895.49 6.947.41 6.938"/><path stroke="#fff" stroke-linejoin="round" d="m935.902 447.256-.605.027-.036.003-.356.015-1.337.064-1.424.066h-.005l-.109.005-.197.009-1.151.054-.114.006-.342.016-.109.004-.468.022-.836.039-.102.004-1.161.053-1.459.066-.561.026-.274.011-.082.005-.356.015-.022.002-.208.008-.023.002h-.002l-.484.023-.303.013-.961.044-.468.02-.452.019-.169.007-.735.032-1.514.066-.14.005-1.259.055-.515.023-1.314.024-1.553.03-.156.003-.377.007-1.682-.136-.154-.013-.024-.001-.08-.037-.148-.067-.393-.176-.253-.112-.064-.029-.009-.004-.184-.692.084-.18.246-.54.085-.186.139-.305.241-.347.197-.284.237-.341.162-.236.462-.665.027-.041.019-.027.185-.244 1.436-1.9.164-.216.366-.485.472-.622.126-.166.008-.012.331-.436.641-.845.353-.466.914-1.204.122-.162.247-.32.958-1.244 1.221-1.587.376-.488.309-.402.097-.128.071-.091.212-.274.235-.299.428-.544.499-.631.751-.953.513-.653.515-.652.31-.394.216-.274.248-.314.869-1.059.495-.604 1.788-2.182.241-.295.261-.317.204-.232.257-.293.331-.379.038-.041.014-.016.38-.433.625-.712.025-.03.144-.162.435-.497.028-.031.002-.003.001-.002.274-.312.545-.622.171-.188.018-.017.315-.293.119-.109.6-.556.646-.6.185-.171.158-.148.924-.856.691-.642.5-.353.021-.016.177-.124.644-.454.42-.297.706-.496.985-.695.046-.033.126-.089.413-.29.663-.467.406-.224.231-.126 2.914-1.605.203-.11.423-.234.046-.024 1.624-.894.202-.112.386-.211.329-.161.617-.284.676-.31 2.006-.923.066-.028.433-.2.931-.427.705-.325 1.613-.74.43-.198.561-.258.748-.343.473-.195.062-.026.859-.353.847-.349 1.032-.425.015-.005.204-.085 2.109-.868.186-.076.701-.288.076-.032.513-.211.522-.215.965-.398.249-.102.076-.031.924-.38.228-.095.35-.144.3-.113 1.438-.545.229-.086.161-.06.808-.308 1.251-.473 1.066-.405.616-.232.185-.07.239-.091.208-.079.719-.272.442-.167 2.188-.829.141-.055.406-.152.121-.046.526-.201.181-.067.689-.241.343-.122.049-.016.314-.11.097-.035.115-.04.03-.011.546-.191.156-.055.01-.003.478-.168.789-.278.247-.086.281-.098.212-.074.214-.076.659-.231.006-.002.129-.046.365-.127.197-.071.026-.008.181-.063.213-.075.021-.007.076-.027.35-.122 1.072-.376.495-.175.885-.31.092-.032.338-.119.081-.029.036-.013.054-.018.058-.02.05-.018.615-.216.465-.164.257-.09.013-.004.103-.033.022-.008.184-.058.714-.23.144-.046.025-.009.19-.061.251-.081.856-.275 3.558-1.145.143-.046 1.247-.402.857-.275.106-.035.651-.209.009-.003 1.572-.507.158-.047.08-.024.1-.029 3.56-1.055 1.77-.523.06-.018 1.08-.321.02-.004.01-.002.01-.004.86-.256v-.001l1.95-.577.2-.057.42-.126 5.42-1.49.19-.054.83-.227 3.77-1.036 1.23-.323.14-.034.06-.018 5.82-1.518.21-.053 2.96-.772 1.53-.391 2.53-.643 1.54-.392.05-.011 1.42-.361.3-.077 2.52-.641.63-.161.41-.104 2.1-.526.04-.009 2.49-.622.69-.173 4.97-1.242.35-.089.34-.083 4.95-1.223.66-.164.03-.008 3.6-.89 3.11-.763 2.07-.509 1.83-.45.73-.177 5.13-1.262 3.39-.796 2.46-.502 2.38-.381 3.11-.429 3.73-.483 4.24-.551 4.63-.623 4.6-.663.3-.044.1-.015.51-.074 1.74-.258h.01l2.73-.405 3.53-.52 1.64-.241.29-.038 1.56-.223 3.32-.47 1.75-.229.12-.017.64-.084.53-.069.36-.048.74-.097.94-.124 4.88-.594 2.03-.226.75-.084.06-.007 1.74-.193 4.19-.419 3.71-.318 3.2-.233 2.71-.168 2.21-.119 1.47-.087.22-.002 1.03.007.19.008.81.193.31.245.21.168.36.679.26 1.387.02.34.06.743.12 1.46.22 4.04.32 5.898.09 2.466.19 4.715.13 7.886-.05 2.084-.05 2.495v.251l-.01.245v.177l-.01.36v.228l-.01.462-.01.148v.38l-.01.131v.254l-.01.389v.107l-.01.22v.067l-.02.302-.01.126-.01.103-.04.554-.03.334-.03.408-.04.506-.02.22-.02.303-.07.859-.05.621-.08 1.032-.01.136-.03.46-.12 1.541-.01.053-.07.357v.009l-.07.386-.07.354-.06.343-.08.425-.06.31-.28 1.518-.09.522-.05.237-.1.558-.1.557-.03.139-.12.64-.06.32-.01.08-.55 1.477-.25.668-.09.261-.24.642-.11.303-.34.898-.04.103-.36.982-.22.581-.59.839-.18.26-.48.678-.1.15-.19.261-.59.839-.74 1.062-.52.726-.13.187-.29.205-.87.635-.1.069-.5.362-.53.387-.11.078-.24.175-.56.402-.63.456-.95.686-.07.054-.22.089-.35.142-.68.277-.3.119-2.21.891-.03.015-.65.262-.28.112-1.7.686-.12.032-3.44.835-.23.056-.24.059-.11.027-.01.003-2.57.625-.27.066-.07.018-.35.084-.04.009-.22.037-3.52.588-1.86.31-.62.104-2.37.394-1.4.201-.58.082-2.17.31-.29.042-1.49.21-2.41.343-.79.114-.5.071-.58.072-.39.048-1.67.205-1.16.143-.49.06-.57.071-.5.061-5.54.683-4.07.442-.19.022-.37.04-.03.004-2.83.307-.29.032-3.66.398-.06.005-.89.098-.21.021-1.08.105-3.96.389-2.49.244-.04.004-.12.012-6.23.611-.36.033-.05.004-.57.052-2.96.268-.47.042-4.37.396-.52.047-2.77.251-.52.048-3.51.317-11.39.968-1.78.151-1.44.122-.04.003-.45.039-.67.057-1.31.11-.79.064-.03.002-.16.013-.23.019-6.98.557-.1.008-4.49.359-3.87.31-.16.013-.07.006m-148.829-23.725.056-.173.018-.053.137-.148.392-.309.052-.041 1.268-.828 1.152-.733.732-.466.554-.352 2.527-1.607 1.423-.905 4.994-3.299 5.073-3.56.502-.351 4.371-3.342.181-.138.842-.643.303-.232.281-.243.511-.44.397-.343.6-.517.758-.654.529-.456.804-.693.146-.127 1.335-1.152.097-.092.192-.182.95-.904.382-.363.119-.113.913-.868.089-.085.236-.224.737-.701.199-.19 1.106-1.052.007-.007.054-.05.041-.04.195-.185 1.241-1.262.826-.838.199-.203 2.699-2.741.481-.488.176-.186.303-.319.057-.059.026-.028.438-.461.235-.247.162-.169.224-.235.535-.564.702-.738.06-.063 3.156-3.316.107-.115.253-.268.687-.726.054-.059.289-.306.485-.513.031-.033.204-.217.808-.855.146-.155.177-.187 1.159-1.229.256-.269.591-.627.183-.195.455-.482.026-.026.429-.455.522-.552.044-.047.061-.066.148-.16.059-.061.011-.013.071-.075.825-.882 1.384-1.481.715-.766.056-.061.548-.584.164-.175.553-.594.009-.008.716-.767 1.169-1.251.719-.769.053-.057.003-.003.547-.593.049-.051.119-.129.594-.645.008-.008.455-.494.27-.293.854-.925.27-.291.404-.44.611-.662.684-.741.042-.046.035-.037.263-.284 1.508-1.634.127-.14.233-.251.341-.371.006-.006.835-.921.164-.181.698-.771 1.062-1.17.538-.593.114-.126.866-.956.205-.227.544-.599.161-.178.07-.078.273-.3.482-.532.108-.118.369-.407.282-.312.24-.265.196-.215.003-.005.129-.145.408-.46.4-.452.02-.024.243-.273.013-.016.097-.11.069-.078.274-.31.025-.027.083-.095.281-.318.577-.652.188-.214.186-.209.043-.049.095-.106.195-.222.049-.055.276-.31.018-.021.055-.062.061-.07.17-.193.044-.05.079-.089.029-.031.021-.025.277-.313.142-.16.048-.055.001-.001.476-.54.17-.189.057-.065.122-.139.263-.296.061-.071.002-.002.017-.018.027-.032.883-.996 6.276-7.275 5.999-7.115 5.842-7.074 5.795-7.137 2.578-3.219 3.074-3.835 5.417-6.828 3.159-4.011.293-.373 1.643-2.085 2.561-3.269.003-.002.044-.058.022-.027.016-.022.017-.021.013-.016.007-.01.022-.027.001-.002.007-.008 1.971-2.521 4.31-5.529 3.96-5.105 3.62-4.709 2.12-2.791.95-1.241.23-.307 2.47-3.315.52-.702.06-.084.34-.475 1.38-1.942.85-1.186.04-.058.15-.222.22-.339.5-.736 1.48-2.227 1.35-2.208.69-1.145.5-.878.02-.029.01-.029.16-.275 1.03-1.83.36-.691.98-1.865.03-.044.1-.206.14-.274.07-.147.42-.822.29-.581.42-.849.14-.287.1-.205 1.35-2.967c.09-.351.1-.518 0-.717-27.47-84.273-46.838-124.473-88.249-184.381-14.707-24.91-23.457-33.987-40.177-39.46m-573.99 403.2-.075-.228-.139-.148-.439-.35-1.259-.828-2.418-1.551-3.364-2.156-.554-.356-4.237-2.821-.184-.122-.532-.356-.234-.165-1.398-.989-2.212-1.566-.097-.069-1.223-.866-.363-.256-.434-.335-1.109-.856-2.524-1.947-.142-.109-.395-.305-.365-.284-.045-.033-.077-.06-.224-.172-.154-.118-.011-.01-.164-.126-.148-.129-1.836-1.602-.072-.061-.115-.101-.663-.577-1.604-1.399-.01-.008-.12-.105-.652-.57-.085-.073-.176-.169-.614-.591-1.894-1.823-2.099-2.02-.049-.047-.029-.027-.383-.369-.01-.01"/><path stroke="#fff" stroke-linejoin="round" d="m295.803 391.522-.41-.423-.045-.044-.34-.35-.764-.788-.118-.121-.191-.198-1.244-1.278-1.87-1.926-.229-.235-.172-.178-.287-.306-.033-.036-.029-.03-.535-.571-.076-.08-.251-.267-.834-.888-.121-.129-.409-.435-.142-.152-.175-.187-.073-.077-.212-.227-.472-.504-.045-.047-1.752-1.865-.548-.584-.275-.297-.144-.155-.212-.227-.601-.646-.231-.248-.074-.079-.335-.36-.493-.528-1.627-1.748-.839-.902-.105-.114-.294-.315-.558-.599-.294-.315-.036-.04-.649-.696-.216-.236-1.422-1.542-.757-.821-.064-.07-.088-.096-1.083-1.175-.743-.808-.263-.283-.889-.967-.223-.24-.439-.477-.38-.412-.467-.507-.058-.064-.112-.122-.619-.68-.3-.33-.2-.221-.407-.447-1.863-2.05-.032-.036-.118-.128-.571-.628-.156-.172-.469-.517-.474-.521-.736-.81-.063-.069-.601-.66-.28-.31-.422-.462-.092-.105-.496-.555-.102-.115-.023-.026-.669-.749-.31-.347-.48-.54-.224-.249-.045-.051-.678-.759-.086-.097-.095-.106-.307-.343-.61-.685-.076-.084-.375-.421-.081-.09-.25-.282-.696-.779-.201-.225-.077-.086-.18-.201-.279-.314-.032-.036-.347-.389-.283-.316-.58-.667-.295-.34-.078-.089-.073-.083-.103-.119-.089-.102-.05-.059-.151-.173-1.063-1.223-.048-.053-.1-.116-.027-.032-.062-.07-.006-.007-.219-.253-.012-.013-.102-.116-.409-.471-.021-.025-.111-.127-.018-.02-.042-.049-.138-.159-.193-.221-.012-.014-.03-.035-.014-.015-.115-.134-.233-.265-.044-.052-.149-.172-.571-.657-.092-.105-.033-.039-.106-.122-.27-.308-.023-.028-.014-.015-.868-.999-6.165-7.275-5.88-7.115-5.715-7.074-5.656-7.137-2.434-3.117-3.073-3.937-2.982-3.866-.364-.472-1.922-2.491-2.476-3.241-.003-.004-.029-.039-.007-.009-.056-.073-.004-.006-.042-.054-.004-.006-.037-.047-.068-.089-.006-.007-2.209-2.893-4.539-5.984-4.157-5.528-3.798-5.105-3.458-4.71-.967-1.34-.99-1.369-1.177-1.63-1.32-1.884-1.135-1.623-.357-.509-.399-.601-.07-.103-.157-.237-1.124-1.692-.741-1.112-.076-.123-.826-1.338-.602-.975-.671-1.088-1.864-3.353-.499-.98-.018-.033-.007-.016-.092-.179-.932-1.833-.323-.681-.452-.959-.372-.786-.05-.106-.032-.068-.056-.123-.076-.169-.683-1.529-.093-.209-.171-.392-.413-.95-.347-.861m0 0-.175-.525-.019-.059m.194.584c-.993-1.525 4-13.933 8.655-27.215 30.226-74.286 48.89-112.47 87.405-170.032 13.433-22.084 22.133-25.953 38.025-30.133"/><path stroke="#fff" stroke-linejoin="round" d="m1030.42 245.445.01-.3v-1.288l-.01-.375-.04-.231-.07-.135-.13-.086-.37-.054-.84-.043-1.47-.056-2.32-.091-1.22-.043-1.93-.07-3.04-.092-.66-.02-.3-.009-4.86-.117-1.07-.019-.5-.008-2.25-.039-1.9-.033-1.72-.025-5.09-.076-4.871-.074-3.259-.049-3.657-.063-6.03-.105-1.914-.039-6.452-.13-.132-.003-2.093-.042-.886-.017-3.394-.069-6.903-.14-2.941-.059-14.346-.264-.614-.012-5.162-.079-4.281-.066-1.087-.015-2.427-.038-3.694-.057-2.185-.025-3.946-.044-1.923-.022-2.648-.028-.434-.006-4.854-.053-.085-.002h-.025l-.055-.001h-.04l-.531-.006-1.369-.015-.204-.002-3.132-.03-6.993-.067-.688-.006-.578-.006-.372-.004h-.071l-.491-.005-7.403-.071-4.636-.045-1.062-.01-.962-.01-1.141-.011-.307-.003-4.029-.039-8.79-.086-6.853-.079-5.507-.065-9.531-.11-14.347-.214-6.606-.099-1.657-.024-14.346-.247-8.677-.149-14.346-.266-2.504-.047-4.861-.089-1.419-.027-2.379-.045-.705-.014-.752-.014-.879-.016-1.31-.026-.326-.006-6.651-.126-.315-.006-.256-.006-.764-.014-3.893-.073-3.894-.075-.808-.014-14.348-.268-8.079-.151-14.346-.26-7.309-.132-6.905-.12h-.027l-.363-.007-1.088-.019-.459-.009-1.668-.028-.139-.003h-.074l-1.036-.019h-.015l-.124-.003h-.023l-1.708-.03-2.079-.036-2.956-.051-1.956-.035-14.345-.24-4.974-.081-14.347-.224-3.414-.053-14.347-.188-2.241-.029-14.348-.129-1.457-.013-7.915-.027h-.033l-1.386-.005h-.049l-5.582-.018-.449-.003-14.348.049-1.065.004-14.347.129-1.457.013-8.489.111-.235.002-1.251.018-.149.001h-.038l-6.422.085-14.347.224-3.408.053-14.346.238-4.966.083-.901.016-3.035.053-1.695.03-4.618.08h-.028l-.119.003h-.017l-1.035.018-.094.002-.137.002-8.93.156-14.346.26-7.295.132-14.347.268-8.063.151-.976.017-.806.016-.267.006-.287.004-3.606.069-.047.001-2.343.045-2.312.044-1.515.029-2.485.047-8.268.157-.832.015-14.346.267-7.928.147-14.347.247-8.648.149-14.346.214-8.23.123-14.348.166-7.504.088-4.214.042-4.635.044-.115.001-1.726.018-9.998.097-.198.002-.296.003-.063.001h-.005l-1.695.016-5.145.049-6.642.064-.52.004h-.049l-.044.002h-.026l-.096.001-1.271.012-3.289.031-.333.003-.21.003-.219.002-10.271.116-4.458.049-2.425.027-.882.01-.193.003-14.347.221-2.066.031-14.346.266-.573.01-2.674.054-7.505.152-.132.003-2.887.059-3.564.072-7.877.159-5.681.099-3.972.069-8.101.123-4.391.066-2.392.035-.367.007-.509.009-.713.012-4.106.071-2.046.05-1.798.043-.99.024-3.304.101-.677.02-3.136.113-2.3.091-1.153.043-.318.013-.829.043-.237.034-.136.02-.123.086-.076.135-.039.231-.01.375v.028l.003.517.005.743.003.634m690.893 175.55-1.786 1.101-2.055 1.267-5.114 2.58-5.157 2.036-1.461.577-6.841 1.845-1.013.274-3.709.707-5.223.996-9.822 1.362-9.477.993m0 0-.785.081-.362.039-7.412.617-2.236.187-.653.054-.083.006-.825.069-7.153.471-.105.005-4.475.294-.676.035-1.234.063-.439.021-1.364.071-.376.018-.013.002-1.597.08-.088.005-.044.002-1.742.089-.284.015-.952.048-.505.025-.17.008-.444.023-.344.018-.023.001-.083.004-.025.002-.65.033-.387.02-.557.029-.205.01-.597.023-.066.002-.4.016-.538.02-.236.009-.334.013-.185.007-1.52.059-.238.01-.311.011-.258.01-.158.006-.111.004-.087.005h-.015l-.818.031-.04.002-1.394.054-.322.012-.32.013-.601.023-.067.003-.121.004-.649.026-.596.023-1.16.044-.874.033-.109.004-.264.01-.222.009-.07.003-.168.004-.052.002-.267.008-.865.025-.64.017-.783.023-.262.007-.324.009-.116.004-.286.007-.462.015-1.145.031-.165.004-1.095.032-.614.017-.061.003-.071.001-.901.026-.799.023-.307.009-1.462.041-.162.005-.381.01-1.228.036-.275.007"/><path stroke="#fff" stroke-linejoin="round" d="m766.505 438.08-.262.007-.324.009-.116.004-.286.007-.462.013-1.143.033-.167.004-1.095.032-.614.017-.061.002-.071.002-.901.026-.799.022-.306.008-1.465.042-.16.006-.379.01-1.23.034-.268.009-.502.01-1.01.02-.372.009-.606.012-.805.016-1.181.025-.599.012-.567.012-.818.017-.287.006-.109.001-1.588.033-.193.005-.381.007-.381.008h-.02l-.096.003-.902.019h-.01l-1.771.036-.211.004-.743.016-.07.001-.76.012-.403.006-1.384.021-.584.009-.551.008-.653.009-.765.011-1.023.016-.946.015-.363.005-.479.007-1.123.018-.663.01-1.305.02-.178.001-.305.006-1.482.021-.305.005-.124.003-1.529.017h-.003l-.136.001-1.791.022h-.03l-1.762.02h-.021l-.174.003-1.163.013-.432.004-.361.004-.307.005-.571.007-.552.006-.182.001-.343.004-.607.007-.6.008h-.059l-.073.001h-.02l-1.455.017-.584.007-.723.008-13.471.135-5.401.044-4.256.036-.919.007-2.986.024-.149.002-10.804.073-2.796.02-14.033.075-5.045.018-9.367.038-14.349.039-.35.001-14.349.021-.539.002-14.349.007h-.636l-14.348-.007h-.635l-14.348-.023h-.537l-14.349-.039-.343-.001-5.951-.023-8.453-.033-12.67-.068-1.355-.007-8.89-.062-2.982-.02-1.227-.008-.638-.005-2.856-.022-10.695-.089-2.472-.026-.48-.005-1.709-.017h-.048l-.069-.001h-.026l-.604-.006-.329-.003-.478-.004-.289-.003-.336-.004-.847-.009h-.003l-.61-.006-.572-.005h-.092l-.68-.008-.316-.003-.135-.001-.637-.007-.868-.009-.291-.003-1.567-.015h-.097l-.131-.002-.02-.001-1.772-.02h-.036l-1.759-.02-.181-.003h-.02l-1.593-.019-.369-.004-1.424-.016-.345-.004-.192-.003-1.258-.015-.705-.008-1.09-.012-.507-.005-.364-.005-.924-.011-.678-.007-.364-.006-.751-.012-.673-.01-.548-.008-.569-.009-1.404-.021-.387-.006-.736-.012h-.092l-.02-.001-.439-.006-.299-.004-.205-.004-1.769-.026h-.021l-1.026-.016-.767-.011-.16-.003-1.63-.025-.346-.005-.494-.008-.364-.005-.316-.005-.271-.005-.537-.012-1.247-.026-.741-.014-.652-.014-.392-.008-.947-.02-.836-.017-1.155-.024-.436-.009-.194-.004-1.362-.027-.423-.01-.677-.013-.893-.019-.215-.004h-.004l-.671-.015-1.104-.023h-.006l-.445-.008-.69-.02-.643-.019-.214-.006h-.01l-.493-.014-1.056-.03-.464-.013-1.145-.033h-.04l-.125-.004-.234-.008-.208-.005-.262-.007-.068-.002-1.003-.029-.945-.027-.831-.023-.395-.011-.079-.003-.086-.002-.109-.003-.158-.005-.318-.009-.04-.001-.59-.016-.444-.013m492.54-17.129.082-.235.037-.109.121-.339.042-.121.079-.318-.035-.197-.165-.119-.313-.084-.613-.055-.083-.007-.055-.003-1.136-.039-.131-.004-.713-.017-.33-.009-.077-.001-1.012-.025-.768-.02-.162-.003-.439-.011-1.62-.04-.145-.003-.016-.002-4.115-.102-.245-.005-.258-.008-3.694-.09-.929-.023-1.781-.041-.609-.016-.545-.013-.353-.009-1.198-.028-.607-.015-.053-.001-.143-.003-.044-.002-.078-.001h-.006l-.561-.014-.144-.003-1.879-.045-1.882-.044-.393-.01-1.203-.029-1.753-.042-.327-.007-1.516-.036-1.153-.027-.397-.008-.209-.005-.186-.004-3.548-.083-.752-.017-6.052-.141-3.55-.08-.43-.011-.952-.022-.581-.013-2.436-.055-1.028-.023-2.031.076-.016.002-.096.025-.045.012-.532.142-.069.019-.522.139-.501.268-1.36.851-.867.584-1.611 1.113-.495.342m-473.817 14.141-7.487-.625-10.595-1.113-4.446-.618-5.345-.744-.985-.188-7.914-1.515-.737-.201-7.081-1.918-1.454-.577-5.125-2.036-5.078-2.58-1.491-.908-1.831-1.118-.347-.243-1.742-1.212-.858-.584-.042-.026-1.308-.825-.497-.268-.512-.137-.07-.02-.678-.18-2.047-.078-3.468.078-1.207.027-.129.004h-.013l-.109.002-.047.001-.381.009-3.631.083-.128.003-.181.004-.654.016-1.372.031-4.26.098-.214.006-1.913.044-1.469.035-1.324.03-.055.001-.849.02-.18.005-.061.001-.161.004-.197.005-.294.007-.585.013-.254.005-.05.002-.957.023-2.113.05-1.782.042h-.007l-1.76.041-.445.012-3.91.093-.802.02-.237.006-.168.004-1.004.023-1.048.026-.169.004-2.759.068-.131.004-.072.001-.95.023-.69.018-.545.014-.185.004-2.709.068-1.306.031h-.003l-1.502.038-.32.008-.741.017-1.364.033-.027.002-.296.01-1.024.036-.696.062-.31.084-.135.098-.002.001-.002.002-.026.018-.033.197.013.051.001.003.002.006.065.258.167.46.133.378"/><path stroke="#fff" stroke-linejoin="round" d="m448.721 438.367-.698-.021-.643-.017-.213-.007h-.01l-.494-.014-1.056-.03-.464-.013-1.148-.033h-.037l-.126-.005-.235-.005-.206-.006-.262-.009-.068-.001-1.003-.029-.944-.027-.832-.023-.395-.012-.078-.002-.087-.002-.109-.003-.157-.005-.319-.009-.04-.001-.59-.016-.443-.013-.985-.029-.199-.006-.149-.004-.603-.017-.273-.007h-.021l-.017-.002-.04-.001-.725-.027-.089-.005-1.761-.067-.193-.007-.61-.025-.35-.013-.26-.01-.347-.013-.477-.018-.621-.025-.664-.025-.577-.022-.065-.003-.053-.003-.043-.001h-.023l-.658-.026-.343-.013-.158-.007-.888-.035-.715-.027-.67-.026-.663-.026-.356-.012-.074-.003-1.208-.048-.137-.007-.281-.014-.132-.007-2.475-.127-5.4-.274-.123-.007-3.633-.185-1.026-.067-.082-.006-.711-.046-2.237-.148-7.656-.503-2.899-.242-.795-.067"/><path stroke="#fff" d="M1179.49 230.408c-2.46 5.512-4.35 7.794-9.32 9.326-31.18 2.728-49.04 4.097-81.07 6.457-13.92 1.394-20.17 2.811-25.11 7.892"/><path stroke="#fff" d="M1080.49 233.277c7.62 2.152 13.36 2.35 24.39 2.153l74.32-4.955a.992.992 0 0 0 .93-1.075c-1.05-12.283-4.08-18.785-10.68-31.277-5.39-8.438-10.01-11.68-20.01-15.752a1.092 1.092 0 0 0-.16-.05c-18.22-4.081-28.89-5.032-47.99-6.439-8.16-.129-12.6 1.238-18.14 15.85-.35.907-.59 1.851-.75 2.808-2.22 13.704-2.29 22.714-1.91 38.737Zm0 0-24.4 2.153h-.71M28.007 230.408c2.46 5.512 4.352 7.794 9.326 9.326 31.179 2.728 49.038 4.097 81.071 6.457 13.913 1.394 20.166 2.811 25.11 7.892"/><path stroke="#fff" d="M127.013 233.277c-7.628 2.152-13.362 2.35-24.393 2.153l-74.325-4.955a.994.994 0 0 1-.925-1.075c1.05-12.283 4.083-18.785 10.681-31.277 5.39-8.438 10.012-11.68 20.01-15.752a.994.994 0 0 1 .16-.05c18.216-4.081 28.886-5.032 47.987-6.439 8.159-.129 12.604 1.238 18.145 15.85.344.907.591 1.851.746 2.808 2.219 13.704 2.294 22.714 1.914 38.737Zm0 0c9.526.841 13.432 1.312 22.958 2.153"/><path stroke="#fff" d="M956.37 46.744c-19.018-21.416-30.589-29.293-53.808-31.567-52.877-7.895-79.984-9.41-126.541-12.012l-3.315-.185C679.687-.143 624.901.453 530.39 1.48l-5.917.065c-63.661.17-110.063 2.867-214.513 12.914-20.415.889-31.29 7.934-50.221 25.828-19.472 17.674-32.184 34.633-58.83 80.353-15.733 32.164-24.352 50.93-39.459 85.375l-17.218 45.916c-2.004 5.144-8.242 9.846-26.469 20.76a.96.96 0 0 0-.143.103c-34.483 29.807-54.604 45.406-92.295 70.128-.122.08-.228.188-.304.312-3.537 5.792-4.785 11.463-6.34 23.486-1.963 33.546-4.027 54.348-7.892 91.832 4.768 132.449 3.49 224.214 24.974 275.653.526 1.26 1.689 2.127 3.038 2.337 66.88 10.419 104.882 12.918 171.884 16.146.174.009.352-.029.507-.107 7.39-3.727 11.943-4.811 20.567-4.902 290.823 9.836 453.876 6.656 744.699 0 7.417.777 11.822 1.921 19.878 4.944.137.051.289.072.435.061 89.059-6.845 139.729-10.758 170.529-18.11 1.38-.328 2.52-1.199 3.14-2.472 19.49-40.213 18.92-148.174 24.83-288.532.01-.055 0-.112 0-.167-4.05-32.703-5.85-50.294-6.45-77.4-1.09-14.021-2.89-20.592-11.48-26.545-32.93-22.1-51.11-35.141-81.79-62.417l-5.26-5.268a10.997 10.997 0 0 0-2.68-1.966c-3.08-1.611-10.28-5.373-15.02-7.832-5.97-3.56-9.28-7.734-15.06-20.806l-32.29-81.07c-21.26-43.604-30.447-67.726-68.87-113.355Z"/><path stroke="#fff" stroke-linejoin="round" d="m920.421 712.838 8.252-.277 8.278-.306 4.801-.225 3.451-.161 8.171-.512 8.036-.69 1.221-.137 6.291-.698 6.607-.949 5.313-1.03 3.637-1.082 2.24-1.218 1.119-1.439.274-1.745-.297-2.137-1.014-2.628-.815-1.395-1.07-1.83-.184-.248-1.141-1.541-1.58-2.136-1.531-1.775-2.548-2.956-4.914-5.012-5.413-4.768-4.943-3.546-.624-.447-5.375-2.682-5.255-1.662-3.719-.667-1.488-.268-5.237-.503-5.342-.364-6.026-.243-7.291-.136-9.139-.04-1.877.006-9.696.031-13.184.102-13.964.154-3.458.047-10.452.144-13.016.215-9.434.173-2.934.053-11.973.223-11.829.206-11.938.177-12.063.148-8.073.077-.147.002-3.44.033-.146.001-.398.004-12.357.089-12.528.064-12.647.046-12.71.04-12.721.046-12.68.063-7.291.043h-.07l-3.738.023h-.066l-1.617.01-13.03.084-13.424.092-13.967.092-14.376.085-14.348.057-.302.002-12.694.02h-.01l-2.083.004-1.75-.003h-.014l-13.024-.021-14.348-.059h-.298l-14.37-.085-13.959-.092-13.417-.092-13.023-.084-1.267-.009h-.091l-3.707-.021-.094-.002-7.616-.044-12.67-.063-12.711-.046-12.699-.04-12.633-.046-12.515-.064-12.342-.089h-.061l-.17-.001-3.404-.033-.172-.003-8.381-.08-12.047-.148-11.923-.177-11.812-.206-11.954-.223-2.427-.044-9.922-.182-12.995-.215-10.372-.143-3.514-.048-13.942-.154-13.162-.102-6.227-.02-5.326-.017-9.123.04-7.278.136-6.016.243-5.332.364-5.018.483-.21.02-5.197.935-5.24 1.662-4.512 2.26-.843.422-5.543 3.993-5.386 4.768-4.889 5.012-.882 1.029-3.174 3.702-1.567 2.13-1.137 1.544-.183.251-1.062 1.827-.811 1.398-1.007 2.628-.291 2.137.275 1.745 1.119 1.439 2.239 1.218 3.632 1.082 5.303 1.03 6.595.949 7.5.835.15.013 7.869.677 8.156.512 5.135.241 3.103.145 8.263.306 8.236.277"/><path stroke="#fff" stroke-linejoin="round" d="m565.334 667.885 7.717.044 14.348.057.299.002 13.023.02h.014l1.749.003 2.084-.003h.01l12.694-.02 14.349-.059h.301l7.961-.046"/><path stroke="#fff" d="M279.11 35.265c255.799-14.952 398.299-13.56 651.432 0M149.254 239.734c8.981-3.485 15.569-3.203 28.697-.717m855.189.445c9.18-2.95 10.72-2.465 23.67-.445M10.789 465.009C-.022 553.933-6.943 596.635 14.366 758.362c.006.051.018.105.032.155 6.658 22.568 11.893 28.967 22.04 36.383.116.085.254.145.396.174 43.765 8.728 72.535 5.108 121.747 2.826 9.346-1.376 13.734-4.366 20.038-13.559a.944.944 0 0 0 .086-.152c4.201-9.264 5.829-17.309 8.573-32.205m832.942 0c2.75 14.897 4.37 22.941 8.57 32.205.03.053.06.105.09.153 6.3 9.192 10.69 12.182 20.04 13.558 49.21 2.282 77.98 5.903 121.75-2.826a.958.958 0 0 0 .39-.174c10.15-7.415 15.38-13.815 22.04-36.383a.419.419 0 0 0 .03-.155c21.31-161.727 14.39-204.429 3.58-293.353l-1.42-15.595a.901.901 0 0 0-.1-.357l-.63-1.266"/></svg>