<svg fill="none" viewBox="0 0 1920 1080" xmlns="http://www.w3.org/2000/svg"><g stroke="#fff" clip-path="url(#teslam3-Fm7NpRtK_svg__a)"><path d="M-78 539.604c172.415-106.183 274.411-157.2 482.987-205.683 107.689-23.24 166-29.727 268.436-36.24 140.947-6.466 225.362-4.75 384.037 7.836 111.17 8.705 172.16 14.246 280.19 24.486 141.84 14.159 212.97 26.158 338.98 47.993m0 0c71.33 12.606 111.27 19.896 179.28 47.013 40.63 19.018 59.87 30.048 92.09 49.952m-271.37-96.965c-85.43-3.043-129.87.411-166.55 7.128m0 0c-26.36 4.827-48.7 11.34-79.36 18.337-126.6 39.801-199.97 76.704-279.16 142.02m358.52-160.357c-51.62-14.181-82.28-21.589-144.02-32.594-36.93-5.779-55.6-8.916-111.68-15.671-97.93-10.822-153.37-16.318-253.74-24.486-74.545-6.688-116.621-10.026-193-13.712-53.26-2.191-82.502-1.766-134.217 0-120.009 9.913-186.231 18.793-300.765 46.034-99.935 28.622-156.419 44.361-238.065 85.211m0 0C56.391 468.993 12.325 495.86-69.183 545.481m203.776-115.575c101.999 13.773 154.416 19.392 247.862 29.384l361.505 42.116 248.842 27.424 158.758 16.651m0 0c-22 18.15-44.46 38.495-68.63 61.705-49.95 49.691-77.77 85.149-127.357 151.814L807.64 955.5m1135.42-454.123-37.23-20.597c-43.86-21.438-66.22-29.652-104.85-42.175-48.61-14.738-74.35-18.628-119.55-23.54-44.16-2.019-69.87-1.731-120.52 5.885-43.57 8.497-68.03 13.284-113.67 29.424-102.93 38.149-159.88 61.472-246.92 140.257-53.88 47.834-90.83 87.835-179.32 203.03L878.5 987.5m1051.82-471.411c-31.11-18.955-48.21-29.059-74.47-40.213-20.88-8.959-35.23-13.892-54.87-19.849m-358.63 11.687-.98.315c-28.41 11.282-44.47 17.745-75.45 31.387-62.79 30.038-80.89 43.816-114.65 68.657-42.49 35.511-64.93 57.118-102.89 98.082-47.22 51.336-70.41 81.857-111.7 136.333L895 999m547.35-531.286c8.31 40.646 12.89 63.941 20.57 108.205 8.84 50.803 12.65 78.671 17.64 127.507 3.82 40.825 5.73 64.517 7.84 107.89l1.92 69.103a1 1 0 0 0 1.42.88l30.95-14.303m-80.34-399.282 46.05-14.818m0 0 7.84-2.522c34.48-9.358 52.68-12.592 84.27-16.673 42.56-4.211 64.56-5.054 98.96-2.943 26.3 2.011 45.95 5.111 105.83 20.597 5.67 1.671 10.83 3.203 15.68 4.672m-312.58-3.131 16.66 61.232c9.89 36.181 15.43 57.715 25.47 102.005 10.15 45.318 13.96 69.936 20.58 113.775 6.28 43.365 9.5 68.232 14.62 113.102a.996.996 0 0 1-.51.997l-36.65 20.273-5.88 2.716m0 0c7.32 5.498 11.4 8.59 12.71 12.881.02.064.04.13.04.197.52 6.047.32 10.228-.01 17.554m0 0c-106.98 53.928-166.99 84.462-273.38 134.372L968.5 1161m566.93-263.372 137.19-80.427c97.87-57.09 147.87-93.526 231.25-160.266m42.13-83.958c-3.86 20.664-11.79 37.788-40.08 82.246-.06.093-.14.178-.22.246-.62.491-1.23.979-1.83 1.466m-102.89-200.908c22.32 80.271 33.15 126.12 49.97 209.147m79.37-138.296c-.27 35.513-6.58 56.632-37.23 98.082-4.41 5.934-8.15 10.415-11.76 14.178m-19.6 16.228c7.88-5.681 13.57-9.957 19.6-16.228m22.54 17.797c-2.22-8.623-3.96-12.211-8.75-14.289-.05-.02-.1-.037-.15-.05l-13.64-3.458"/></g><defs><clipPath id="teslam3-Fm7NpRtK_svg__a"><path fill="#fff" d="M0 0h1920v1080H0z"/></clipPath></defs></svg>