<svg fill="none" viewBox="0 0 1048 713" xmlns="http://www.w3.org/2000/svg"><path stroke="#fff" d="M284.5 166c81.88-5.03 133.197-5.728 228.5-5.5 127.245-.913 189.623-.531 247.5 5.5M246 15.5C309.496 5.772 344.867 4.732 408 2c80.054-1.284 124.627-.954 204 0 110.259.922 150.507 7.527 194.369 12.984a.97.97 0 0 1 .254.066c7.544 3.118 11.813 9.84 19.377 47.45 1.194 7.673.928 13.222-.5 24.5-2.296 10.484-4.52 15.753-13.927 21.456a.975.975 0 0 1-.152.075c-10.144 4.002-15.818 5.279-25.921 6.969-13.134.96-20.548 1.436-34 2-48.675.347-75.972.523-125 0H418c-47.653.582-74.347.55-122 0-14.584-.296-22.75-.558-36.927-2.49a1.172 1.172 0 0 1-.143-.03l-22.328-6.451a.992.992 0 0 1-.197-.08c-7.815-4.21-9.872-7.637-11.905-14.449-1.304-6.554-1.896-10.645-2.495-18.926-.003-.049-.003-.1.001-.148.584-7.834 1.008-12.289 3.494-20.926 2.685-10.11 4.364-14.7 7.5-22 4.647-10.816 7.562-13.9 13-16.5Zm0 0c-14.053 1.759-23.103 9.386-43 44.5l-17.5 38-24 49c-6.131 12.869-9.672 19.822-18 27.5-13.004 10.956-22.248 17.396-39.5 29l-14.5 9m0 0c-9.408 3.265-14.692 5.059-23.5 10.5-5.311 3.764-8.14 6.748-12.907 13.861a1.004 1.004 0 0 0-.136.299L43.5 272.5c-2.248 17.684-3.71 26.221-1.5 36m47.5-96c80.951 6.601 141.681 13.978 173.224 21.435a.96.96 0 0 1 .479.274l15.648 16.094c.616.634.167 1.697-.717 1.697H94.332a.989.989 0 0 0-.595.197c-4.815 3.601-12.373 9.725-13.736 22.803-.838 10.404-1.058 15.844 2.831 17.434.11.045.23.066.347.066h92.338c.901 0 1.342 1.097.693 1.721L165 305c-5.177 4.324-9.1 5.848-19.5 5.5m-103.5-2s93.1 1.652 103.5 2m-103.5-2L36 395c-.639 7.621-1.05 11.672-2 18-.765 7.273-2.19 10.27-9 11l-23.5 1.5m144-115c2.207 37.406 4.123 55.752 12 71 7.527 13.94 12.344 18.572 21.5 23.5 15.362 7.672 26.268 8.57 45.5 10.5h595c20.884-1.392 32.183-3.105 49.5-12.5 16.643-11.332 20.739-21.325 26-41.5 4.159-33.025 4.949-46.976 4-51"/><path stroke="#fff" d="m958.254 212.5-14.5-9c-17.251-11.604-26.25-17.044-39.254-28-8.328-7.678-12.115-15.631-18.246-28.5L863 96.5l-17-41c-9.642-19.125-15.318-27.097-25.444-35.951a.974.974 0 0 0-.119-.09c-4.895-3.139-7.881-4.288-13.937-4.459m151.754 197.5c9.408 3.265 14.692 5.059 23.5 10.5 5.312 3.764 8.139 6.748 12.907 13.861a.999.999 0 0 1 .136.299l9.453 35.34c2.98 18.232 4.04 27.595 0 36m-45.996-96c-81.209 6.595-142.908 13.954-173.23 21.433a.97.97 0 0 0-.469.272l-15.651 16.098c-.616.634-.167 1.697.717 1.697h183.801c.216 0 .423.068.595.197 4.815 3.601 12.374 9.725 13.737 22.803.837 10.404 1.057 15.844-2.832 17.434a.915.915 0 0 1-.347.066h-92.338c-.9 0-1.342 1.097-.693 1.721L882.754 305c5.177 4.324 9.1 5.848 19.5 5.5l101.996-2m0 0 7.25 92c1.21 16.777 2.78 23.248 9 23.5 10.77 1.163 16.5 1.462 26.5 1.5"/><path stroke="#fff" d="M871.5 293 615 294.5H420.5l-168.5-1-82-1"/><path stroke="#fff" d="M833 32.5c4.758 1.605 7.734 5.48 15.5 18 12.058 23.22 17.309 35.941 26 58.5l8.5 18.5 22.94 44.383c.04.078.091.151.15.215 4.73 5.182 7.632 7.106 12.91 9.902l53.5 26.5c9.291 3.863 15.541 6.013 17 10l15 41.5 16 39c10.45 21.526 15.83 33.135 19 47.5 2.39 9.543 3.81 18.973 7 70l1 26-1 50.5c-.46 8.322-.79 12.848-2 19.5-4.13 33.017-6.74 44.789-11.5 63-8.15 29.16-13.35 44.195-27 62-7.743 8.267-12.525 12.135-22.5 16.5-15.989 5.364-24.024 7.719-36.847 10.961-.1.026-.2.068-.288.123-2.955 1.827-3.026 1.288-3.365-2.084-1.259-10.024-2.08-12.945-5.5-24.5-7.896-18.549-12.644-28.198-21.5-44.5-9.073-13.255-14.959-18.777-26.5-25.5-15.376-6.895-26.462-9.925-54.5-12.5-31.331-1.541-49.085-1.913-81-2H515.5c-36.543.596-65.79.224-112.5 0-46.087-.439-70.779-.552-112.5-.5-55.913-.078-75.719 1.533-93 3.5-23.056 3.893-33.074 6.204-45 12.5-9.255 6.026-13.106 10.284-19 18.5-9.496 16.951-15.172 25.765-23 46-3.619 8.849-5.435 14.316-7 28-.17 3.449-.683 4.257-2.805 2.193a1.047 1.047 0 0 0-.463-.263c-19.676-5.125-31.56-7.497-45.732-16.43-10.7-7.298-15.986-14.168-24.5-30-7.042-17.025-10.513-27.369-16-47-6.09-24.95-7.982-38.149-11-61.5-1.519-25.992-1.994-40.753-2-67.5.643-21.444 1.32-33.563 3.5-55.5 1.773-21.274 3.513-32.278 8.5-49.5 3.44-9.854 8.417-20.321 17-38.5l18.5-49.5 10.5-29c1.119-3.883 2.975-5.274 7.5-7 12.999-5.42 21.465-9.595 36.5-17 10.387-5.245 16.199-8.258 26.5-14 8.54-4.583 11.785-7.616 16-13.5 12.629-16.796 18.822-29.455 29.467-52.928.022-.047.048-.095.077-.138 3.069-4.681 3.889-7.414 5.956-12.434l10-23c3.029-6.125 4.682-9.353 7.5-14.5 2.296-4.242 3.619-6.66 6-11 2.12-3.488 3.122-5.05 4.5-7l4.5-6.5c2.837-3.615 4.239-5.18 6.5-7.5"/><path stroke="#fff" d="M185 99.5c5.388-7.124 9.236-11.287 17.5-19 4.299-3.15 6.753-4.992 9.926-5.489a.958.958 0 0 1 .148-.011H222m642 23c-7.93-8.298-12.312-12.494-20-19-2.755-2.513-4.467-3.427-6.893-3.976a.98.98 0 0 0-.216-.024H826.5M947 664.5c-1.058 5.752-1.831 8.861-3.795 10.353a.894.894 0 0 1-.456.172L938 675.5c-2.93-.077-4.189-1.388-6-5.5m0 0-6-16m6 16-88.758 5.454a1 1 0 0 0-.912.769L840.5 684c-.313 2.16-.416 3.464-2.387 3.972a.927.927 0 0 1-.229.028H836c-2.014.201-2.589-1.014-3.5-3.5l-2.738-7.302a1 1 0 0 0-1.006-.646L786.5 679.5l-56.5 2-63 .5c-10.354-.457-17.187-1.618-32-6l-17-3.5c-5.521-1.099-8.722-1.317-14.5-1.5l-56 .5h-65l-40-.5c-8.091-.091-12.613.375-20.5 2l-26 6.5c-6.931 1.652-10.875 2.504-19 2.5l-44-.5-62-2-42.5-2.5-11.733-.939a1.001 1.001 0 0 0-1.023.664l-2.719 7.705a1.038 1.038 0 0 1-.06.136c-.831 1.594-.842 2.583-2.309 2.903a.89.89 0 0 1-.313.009L207 687c-1.082-.022-1.384-.656-1.5-2.5l-1.376-8.712a1 1 0 0 0-.92-.842L167 672.5l-29-2-23.775-1.5M926 654c-27.137 4.001-43.383 5.945-75.5 8.5-52.904 3.332-81.833 5.569-139.5 6.5-14.645 0-22.855.5-37.5.5-5.901.378-12.407-1.358-28.5-5.5-12.496-4.175-19.258-6.648-36-8.5l-29 .5H434c-9.172.642-14.537 1.413-25 4.5l-24.5 6.5c-6.958 1.854-11.445 2.172-20 2-66.366-1.966-103.274-1.76-170.5-7.5-28.802-2.675-44.953-4.202-74-8.5m806 1c-2.536-9.417-4.462-16.01-9.5-32-3.746-9.729-6.107-15.352-12-26.5-6.244-9.283-10.645-12.575-18.93-17.459a1.017 1.017 0 0 0-.145-.07c-13.181-5.148-21.015-7.058-35.925-8.471-25.62-2.411-40.726-3.214-68.5-3.5H505.5L392 565H291c-26.324.046-41.035-.005-68 1-14.885 1.16-23.246 1.864-38.5 4-15.416 3.503-23.21 5.809-32 12-8.381 5.912-11.774 11.381-17 22.5L120 653m0 0-4.976 14.431a1.057 1.057 0 0 1-.057.134c-.262.506-.507.984-.742 1.435m-12.725-4 .5 6c.394 1.831.852 2.437 1.845 2.926a.905.905 0 0 0 .325.089l5.076.462a.938.938 0 0 0 .487-.083c2.046-.977 3.09-2.704 4.492-5.394"/><path stroke="#fff" d="m142 592 135 .5c16.373.758 24.507-.503 37-6 13.041-6.694 19.688-11.99 31.5-21.5M903 593H777.5c-20.499.239-32.152.499-45.5-5-14.538-7.203-22.341-12.379-36-22.5m348.5-53.5c1 64.63 4.75 99.414-15 173.5-5.13 12.201-8.31 18.782-21 24.5-5.29 1.961-8.41 2.198-14 2.5H917c-10.409-1.072-16.068-2.457-25-10.5-7.962-7.291-8.666-15.316-11-28.5m-710.499-.5c-6.034 17.11-8.082 27.997-23.5 36-4.415 1.719-7.586 2.326-15 2.5h-75.5c-11.948-.902-18.642-1.251-31-17-6.792-11.546-10.218-22.938-16-47.5-8.004-72.275-6.375-91.15-5.5-132"/></svg>