<svg xmlns="http://www.w3.org/2000/svg" width="502" height="376" viewBox="0 0 502 376" fill="none">
<path opacity="0.3" fill-rule="evenodd" clip-rule="evenodd" d="M502 0H0V376H502V0ZM416 85H87V291H416V85Z" fill="black"/>
<path fill-rule="evenodd" clip-rule="evenodd" d="M86.0326 83C85.4623 83 85 83.4623 85 84.0326V100.967C85 101.538 85.4623 102 86.0326 102C86.6029 102 87.0652 101.538 87.0652 100.967V85.0652H102.967C103.538 85.0652 104 84.6029 104 84.0326C104 83.4623 103.538 83 102.967 83H86.0326Z" fill="white"/>
<path fill-rule="evenodd" clip-rule="evenodd" d="M86.0326 293C85.4623 293 85 292.538 85 291.967V275.033C85 274.462 85.4623 274 86.0326 274C86.6029 274 87.0652 274.462 87.0652 275.033V290.935H102.967C103.538 290.935 104 291.397 104 291.967C104 292.538 103.538 293 102.967 293H86.0326Z" fill="white"/>
<path fill-rule="evenodd" clip-rule="evenodd" d="M416.967 293C417.538 293 418 292.538 418 291.967V275.033C418 274.462 417.538 274 416.967 274C416.397 274 415.935 274.462 415.935 275.033V290.935H400.033C399.462 290.935 399 291.397 399 291.967C399 292.538 399.462 293 400.033 293H416.967Z" fill="white"/>
<path fill-rule="evenodd" clip-rule="evenodd" d="M416.967 83C417.538 83 418 83.4623 418 84.0326V100.967C418 101.538 417.538 102 416.967 102C416.397 102 415.935 101.538 415.935 100.967V85.0652H400.033C399.462 85.0652 399 84.6029 399 84.0326C399 83.4623 399.462 83 400.033 83H416.967Z" fill="white"/>
</svg>