<svg width="202" height="38" viewBox="0 0 202 38" fill="none" xmlns="http://www.w3.org/2000/svg">
<path d="M193.093 1H8.90699C4.54008 1 1 4.54008 1 8.90699V29.3721C1 33.739 4.54008 37.2791 8.90699 37.2791H193.093C197.46 37.2791 201 33.739 201 29.3721V8.90699C201 4.54008 197.46 1 193.093 1Z" stroke="#2B52BE" stroke-opacity="0.32" stroke-width="0.703704"/>
<path d="M18.2821 24.2312V14.3111H18.1799L14.4258 15.7556V16.907L17.0216 15.919V24.2312H18.2821ZM37.3727 22.9299L37.3522 19.2916H34.1364V20.3545H36.1531L36.1395 22.5823C36.0351 22.7322 35.9055 22.8549 35.7511 22.9504C35.5967 23.0412 35.431 23.1139 35.2538 23.1683C35.0767 23.2228 34.8927 23.2592 34.7019 23.2774C34.5157 23.2955 34.3363 23.3024 34.1636 23.2978C33.8638 23.2933 33.5959 23.241 33.3597 23.1411C33.1236 23.0365 32.9168 22.898 32.7397 22.7255C32.558 22.5529 32.4037 22.353 32.2764 22.1259C32.1492 21.8988 32.0448 21.6581 31.9631 21.4037C31.8812 21.1494 31.8199 20.8904 31.779 20.627C31.7427 20.359 31.7222 20.1 31.7177 19.8503V18.6852C31.7177 18.44 31.7336 18.1855 31.7654 17.9221C31.7972 17.6587 31.8495 17.3998 31.9221 17.1454C31.9948 16.8911 32.0878 16.6504 32.2014 16.4231C32.315 16.1916 32.4581 15.9894 32.6308 15.8168C32.8033 15.6443 33.0054 15.508 33.2371 15.4081C33.4687 15.3036 33.7344 15.2513 34.0342 15.2513C34.3477 15.2513 34.6225 15.3012 34.8586 15.4012C35.0948 15.4966 35.2992 15.6307 35.4718 15.8032C35.6398 15.9758 35.7761 16.1848 35.8807 16.43C35.9851 16.6707 36.0623 16.9342 36.1123 17.2204H37.3591C37.3183 16.7571 37.2092 16.3392 37.0321 15.9667C36.8549 15.5897 36.6209 15.2673 36.3303 14.9992C36.0396 14.7359 35.6989 14.5337 35.3083 14.3928C34.9177 14.2475 34.4907 14.1748 34.0274 14.1748C33.6095 14.1748 33.2325 14.2362 32.8965 14.3589C32.5603 14.4814 32.2605 14.6473 31.997 14.8562C31.7291 15.0696 31.4997 15.3217 31.309 15.6124C31.1181 15.8986 30.9592 16.2098 30.832 16.5458C30.7049 16.882 30.6094 17.234 30.5458 17.6019C30.4867 17.9653 30.455 18.3309 30.4504 18.6988V19.8503C30.455 20.2227 30.4914 20.5929 30.5595 20.9609C30.6322 21.3243 30.7388 21.6717 30.8798 22.0032C31.0159 22.3394 31.1863 22.6505 31.3907 22.9367C31.595 23.2228 31.8335 23.4704 32.1061 23.6793C32.3787 23.8927 32.6852 24.0609 33.0259 24.1834C33.371 24.3016 33.748 24.363 34.1569 24.3674C34.5611 24.3719 34.9471 24.3266 35.3152 24.2312C35.6831 24.1403 36.026 23.9996 36.3439 23.8088C36.5301 23.6997 36.7095 23.5726 36.8822 23.4272C37.0548 23.2774 37.2183 23.1115 37.3727 22.9299ZM43.4228 24.2312V14.3111H43.3207L39.5666 15.7556V16.907L42.1624 15.919V24.2312H43.4228ZM59.0184 19.2916L56.7632 14.3111H55.3256L58.412 20.5317L58.4325 24.2312H59.6044L59.6247 20.5317L62.7111 14.3111H61.2804L59.0184 19.2916ZM65.5046 23.1615L70.4578 15.2718L70.4442 14.3111H64.1556V15.3876H69.0066L64.067 23.25L64.0806 24.2312H70.6418V23.1615H65.5046ZM78.9402 24.2312V23.2024H73.9598L76.6237 20.3135C76.8736 20.0411 77.1098 19.7685 77.3324 19.4959C77.5595 19.2189 77.7594 18.9395 77.9319 18.658C78.1 18.3764 78.2339 18.0925 78.3339 17.8063C78.4338 17.5156 78.4838 17.2226 78.4838 16.9275C78.4838 16.5322 78.4135 16.1666 78.2725 15.8304C78.1364 15.4944 77.9388 15.2037 77.6798 14.9583C77.421 14.7131 77.1029 14.5224 76.726 14.3861C76.3535 14.2453 75.9334 14.1748 75.4656 14.1748C74.9568 14.1748 74.5026 14.2567 74.1028 14.4202C73.7077 14.5836 73.3738 14.8039 73.1014 15.081C72.8243 15.3581 72.613 15.6829 72.4678 16.0553C72.3224 16.4232 72.2496 16.8162 72.2496 17.234H73.517C73.517 16.9251 73.5556 16.6458 73.6328 16.3959C73.7146 16.1462 73.8371 15.9327 74.0007 15.7556C74.1597 15.5829 74.3595 15.4489 74.6003 15.3536C74.8455 15.2581 75.1339 15.2104 75.4656 15.2104C75.738 15.2104 75.981 15.2581 76.1945 15.3536C76.4126 15.4444 76.5987 15.5693 76.7533 15.7282C76.9032 15.8872 77.0167 16.0758 77.0939 16.2937C77.1756 16.5072 77.2166 16.7366 77.2166 16.9819C77.2166 17.1818 77.1916 17.377 77.1416 17.5678C77.0917 17.7541 77.0076 17.9517 76.8896 18.1605C76.7714 18.374 76.6147 18.6058 76.4193 18.8556C76.2241 19.1053 75.981 19.3915 75.6903 19.714L72.4404 23.325V24.2312H78.9402ZM82.708 18.6647V19.6868H83.6074C83.9208 19.6868 84.2069 19.723 84.4658 19.7957C84.7293 19.8684 84.9541 19.9798 85.1403 20.1297C85.322 20.2796 85.4628 20.4681 85.5628 20.6952C85.6672 20.9177 85.7194 21.1834 85.7194 21.4923C85.7194 21.8057 85.6741 22.0782 85.5832 22.3099C85.4969 22.537 85.372 22.7277 85.2085 22.8821C85.045 23.0365 84.8473 23.1525 84.6157 23.2297C84.384 23.3024 84.1252 23.3386 83.839 23.3386C83.5528 23.3386 83.2917 23.2978 83.0555 23.2161C82.8239 23.1342 82.6263 23.0184 82.4627 22.8685C82.2992 22.7186 82.172 22.537 82.0812 22.3235C81.9949 22.11 81.9517 21.8738 81.9517 21.615H80.6912C80.6912 22.0509 80.7731 22.4393 80.9366 22.78C81.1046 23.1206 81.3295 23.4091 81.611 23.6453C81.8927 23.8814 82.2243 24.0609 82.6058 24.1834C82.9919 24.3061 83.403 24.3674 83.839 24.3674C84.2842 24.3674 84.6974 24.3039 85.0791 24.1767C85.4651 24.0449 85.799 23.8541 86.0805 23.6044C86.3621 23.3591 86.5825 23.057 86.7415 22.6983C86.9004 22.3394 86.9798 21.9283 86.9798 21.4651C86.9798 21.238 86.9526 21.0085 86.8981 20.7769C86.8482 20.5453 86.7596 20.3249 86.6324 20.116C86.5006 19.907 86.3259 19.7185 86.1078 19.5505C85.8943 19.3824 85.6263 19.2462 85.3038 19.1417C85.5719 19.0281 85.8012 18.8873 85.992 18.7193C86.1874 18.5467 86.3462 18.3627 86.4689 18.1674C86.5916 17.9767 86.6824 17.779 86.7415 17.5747C86.8005 17.3703 86.8301 17.1727 86.8301 16.9819C86.8301 16.5231 86.7574 16.1188 86.612 15.7692C86.4667 15.4194 86.2623 15.1265 85.9989 14.8903C85.7354 14.654 85.4197 14.4769 85.0517 14.3589C84.6838 14.2362 84.2773 14.1748 83.8322 14.1748C83.3734 14.1748 82.9555 14.2475 82.5785 14.3928C82.2062 14.5337 81.8859 14.7267 81.6179 14.972C81.3499 15.2218 81.141 15.5147 80.9911 15.8509C80.8458 16.1824 80.7731 16.5368 80.7731 16.9137H82.0403C82.0403 16.6549 82.0835 16.4209 82.1698 16.212C82.2561 16.003 82.3787 15.8237 82.5377 15.6738C82.6921 15.5239 82.8783 15.4103 83.0963 15.3331C83.3189 15.2513 83.5642 15.2104 83.8322 15.2104C84.1093 15.2104 84.3545 15.2468 84.568 15.3195C84.786 15.3876 84.9678 15.4921 85.113 15.6329C85.2629 15.7782 85.3765 15.9622 85.4537 16.1848C85.5309 16.4028 85.5696 16.6594 85.5696 16.9547C85.5696 17.2045 85.5264 17.4339 85.4401 17.6427C85.3538 17.8517 85.2288 18.0311 85.0655 18.181C84.8973 18.3309 84.6907 18.449 84.4453 18.5353C84.2046 18.6216 83.9253 18.6647 83.6074 18.6647H82.708ZM94.2701 14.3111V21.213C94.2609 21.4945 94.211 21.7625 94.1202 22.0168C94.0338 22.2667 93.9089 22.487 93.7455 22.6778C93.5774 22.8685 93.3753 23.0207 93.139 23.1342C92.9029 23.2433 92.6348 23.2978 92.3352 23.2978C92.0443 23.2978 91.781 23.25 91.5448 23.1547C91.3131 23.0593 91.1133 22.923 90.9452 22.7459C90.7772 22.5733 90.6431 22.3688 90.5432 22.1328C90.4479 21.8965 90.3933 21.6399 90.3797 21.3629H89.0989C89.1397 21.8216 89.2441 22.2372 89.4123 22.6097C89.5803 22.9776 89.8052 23.291 90.0867 23.5498C90.3638 23.8133 90.6908 24.0154 91.0678 24.1562C91.4494 24.297 91.8718 24.3674 92.3352 24.3674C92.7939 24.3674 93.2164 24.2902 93.6024 24.1358C93.993 23.9768 94.3314 23.7566 94.6176 23.4749C94.9036 23.1978 95.1285 22.8663 95.292 22.4802C95.4602 22.0942 95.5487 21.6717 95.5577 21.213V14.3111H94.2701ZM107.733 23.1139H107.604V24.238H107.733C108.551 24.238 109.243 24.1267 109.811 23.9041C110.383 23.677 110.831 23.3818 111.153 23.0184C111.689 22.4188 112.039 21.733 112.202 20.9609C112.366 20.1841 112.448 19.412 112.448 18.6444V18.1879C112.448 17.6474 112.373 17.1068 112.223 16.5663C112.073 16.0213 111.848 15.5671 111.548 15.2037C111.294 14.8948 110.978 14.6473 110.601 14.461C110.229 14.2703 109.788 14.1748 109.28 14.1748C108.771 14.1748 108.324 14.2679 107.937 14.4542C107.556 14.6359 107.238 14.8811 106.984 15.1901C106.725 15.5034 106.529 15.8691 106.398 16.287C106.271 16.7002 106.207 17.1408 106.207 17.6088C106.207 18.0084 106.261 18.4059 106.37 18.801C106.479 19.1963 106.65 19.5505 106.881 19.864C107.113 20.1772 107.406 20.4317 107.76 20.627C108.119 20.8177 108.544 20.9132 109.034 20.9132C109.289 20.9132 109.523 20.8882 109.736 20.8382C109.954 20.7837 110.152 20.711 110.329 20.6202C110.506 20.5293 110.665 20.4248 110.806 20.3068C110.947 20.1841 111.072 20.0547 111.18 19.9184V19.932C111.158 20.3499 111.092 20.7541 110.983 21.1448C110.874 21.5354 110.663 21.901 110.349 22.2417C110.09 22.5188 109.748 22.7345 109.321 22.889C108.898 23.0389 108.369 23.1139 107.733 23.1139ZM109.239 19.8707C108.934 19.8707 108.669 19.8049 108.442 19.6731C108.219 19.5369 108.035 19.3598 107.89 19.1417C107.74 18.9237 107.628 18.6761 107.556 18.399C107.483 18.1174 107.447 17.8313 107.447 17.5406C107.447 17.2135 107.488 16.9092 107.57 16.6277C107.651 16.3415 107.772 16.0939 107.931 15.885C108.085 15.6806 108.276 15.5194 108.503 15.4012C108.73 15.2831 108.991 15.224 109.286 15.224C109.545 15.224 109.788 15.2876 110.015 15.4148C110.247 15.5421 110.451 15.7237 110.629 15.96C110.801 16.2007 110.938 16.4936 111.037 16.8388C111.142 17.184 111.194 17.5769 111.194 18.0175V18.4262C111.117 18.6397 111.01 18.8351 110.874 19.0122C110.742 19.1849 110.592 19.3348 110.424 19.462C110.252 19.5936 110.063 19.6958 109.859 19.7685C109.659 19.8366 109.452 19.8707 109.239 19.8707ZM116.134 20.2522H118.089C118.534 20.2477 118.954 20.1796 119.35 20.0478C119.749 19.9162 120.099 19.7254 120.399 19.4756C120.699 19.2257 120.935 18.9192 121.107 18.5558C121.285 18.1879 121.373 17.7654 121.373 17.2885C121.373 16.8115 121.285 16.3892 121.107 16.0213C120.935 15.6533 120.699 15.3445 120.399 15.0946C120.099 14.8448 119.749 14.654 119.35 14.5224C118.954 14.3906 118.534 14.3203 118.089 14.3111H114.873V24.2312H116.134V20.2522ZM116.134 19.2166V15.3467H118.089C118.38 15.3512 118.648 15.3989 118.893 15.4897C119.143 15.5807 119.359 15.7101 119.54 15.8781C119.718 16.0463 119.856 16.2506 119.956 16.4914C120.06 16.7321 120.113 17.0023 120.113 17.3021C120.113 17.6019 120.06 17.8699 119.956 18.1061C119.856 18.3377 119.715 18.5353 119.534 18.6988C119.352 18.8623 119.138 18.9895 118.893 19.0803C118.648 19.1666 118.38 19.2121 118.089 19.2166H116.134ZM123.587 19.2575L124.596 19.5164C124.709 19.4165 124.818 19.3279 124.923 19.2507C125.032 19.1735 125.148 19.1077 125.27 19.0531C125.393 18.9986 125.529 18.9578 125.679 18.9306C125.833 18.8987 126.015 18.8828 126.224 18.8828C126.542 18.8828 126.824 18.9395 127.069 19.0531C127.314 19.1666 127.521 19.3212 127.689 19.5164C127.857 19.7163 127.984 19.9501 128.071 20.2182C128.161 20.4862 128.207 20.7746 128.207 21.0834C128.207 21.4241 128.166 21.733 128.084 22.0101C128.007 22.2872 127.891 22.5234 127.737 22.7186C127.578 22.9185 127.382 23.0729 127.151 23.182C126.919 23.2864 126.653 23.3386 126.354 23.3386C125.822 23.3386 125.386 23.1933 125.045 22.9026C124.709 22.6119 124.503 22.185 124.426 21.6217H123.226C123.272 22.0805 123.383 22.4824 123.56 22.8277C123.742 23.1728 123.974 23.459 124.255 23.6861C124.532 23.9132 124.85 24.0836 125.209 24.1972C125.568 24.3107 125.949 24.3674 126.354 24.3674C126.881 24.3674 127.339 24.2858 127.73 24.1222C128.121 23.9541 128.445 23.7225 128.704 23.4272C128.959 23.1365 129.149 22.7891 129.277 22.3848C129.404 21.9806 129.467 21.5423 129.467 21.0698C129.467 20.5703 129.399 20.116 129.263 19.7072C129.127 19.2984 128.931 18.9487 128.677 18.658C128.423 18.3718 128.114 18.1493 127.75 17.9903C127.387 17.8313 126.976 17.7518 126.517 17.7518C126.158 17.7518 125.843 17.7949 125.57 17.8812C125.298 17.9675 125.064 18.0675 124.868 18.181L125.148 15.5375H129.174V14.3111H124.085L123.587 19.2575ZM146.003 16.9001C146.003 16.4686 145.928 16.0849 145.779 15.7487C145.628 15.4081 145.422 15.1219 145.159 14.8903C144.894 14.6585 144.584 14.4814 144.225 14.3589C143.866 14.2362 143.477 14.1748 143.059 14.1748C142.638 14.1748 142.246 14.2362 141.888 14.3589C141.534 14.4814 141.229 14.6585 140.975 14.8903C140.716 15.1219 140.513 15.4081 140.368 15.7487C140.223 16.0849 140.15 16.4686 140.15 16.9001C140.15 17.1454 140.184 17.3793 140.253 17.6019C140.32 17.8245 140.416 18.0289 140.539 18.2151C140.661 18.4059 140.811 18.5785 140.988 18.7329C141.165 18.8828 141.363 19.0122 141.582 19.1213C141.326 19.2302 141.098 19.3665 140.893 19.53C140.689 19.6936 140.513 19.8776 140.368 20.0819C140.223 20.2908 140.112 20.5203 140.035 20.7701C139.957 21.0153 139.919 21.2766 139.919 21.5536C139.919 22.0078 140.001 22.4098 140.164 22.7595C140.327 23.1092 140.552 23.4022 140.839 23.6384C141.12 23.8791 141.452 24.0609 141.833 24.1834C142.22 24.3061 142.635 24.3674 143.081 24.3674C143.517 24.3674 143.925 24.3061 144.306 24.1834C144.688 24.0563 145.022 23.8724 145.308 23.6317C145.59 23.3954 145.812 23.1025 145.976 22.7527C146.143 22.403 146.228 22.0032 146.228 21.5536C146.228 21.2766 146.187 21.0153 146.105 20.7701C146.028 20.5248 145.916 20.2977 145.772 20.0887C145.621 19.8798 145.442 19.6958 145.233 19.5369C145.029 19.3734 144.799 19.2371 144.545 19.128C144.691 19.0553 144.827 18.9736 144.954 18.8828C145.081 18.792 145.197 18.6943 145.301 18.5898C145.52 18.3718 145.69 18.1197 145.812 17.8335C145.935 17.5428 145.998 17.2318 146.003 16.9001ZM144.967 21.5264C144.967 21.8125 144.919 22.0692 144.824 22.2963C144.733 22.5188 144.606 22.7073 144.442 22.8618C144.274 23.0162 144.075 23.1342 143.843 23.2161C143.612 23.2978 143.357 23.3386 143.081 23.3386C142.79 23.3386 142.525 23.2978 142.29 23.2161C142.059 23.1342 141.86 23.0162 141.697 22.8618C141.534 22.7073 141.406 22.5188 141.316 22.2963C141.229 22.0692 141.186 21.8125 141.186 21.5264C141.186 21.2493 141.229 20.9949 141.316 20.7633C141.406 20.5317 141.534 20.3318 141.697 20.1636C141.86 20.0001 142.059 19.8729 142.29 19.7821C142.521 19.6913 142.781 19.6458 143.066 19.6458C143.344 19.6458 143.597 19.6913 143.83 19.7821C144.065 19.8729 144.268 20.0001 144.436 20.1636C144.603 20.3318 144.733 20.5317 144.824 20.7633C144.919 20.9949 144.967 21.2493 144.967 21.5264ZM144.736 16.9206C144.736 17.1749 144.695 17.4067 144.613 17.6155C144.531 17.8245 144.418 18.0016 144.273 18.1469C144.122 18.2968 143.945 18.4126 143.742 18.4945C143.537 18.5717 143.315 18.6103 143.073 18.6103C142.828 18.6103 142.603 18.5717 142.398 18.4945C142.199 18.4126 142.026 18.2968 141.882 18.1469C141.731 18.0016 141.616 17.8268 141.534 17.6224C141.456 17.4134 141.418 17.1795 141.418 16.9206C141.418 16.6616 141.456 16.4278 141.534 16.2188C141.616 16.0053 141.728 15.8237 141.874 15.6738C142.019 15.5239 142.192 15.4103 142.392 15.3331C142.591 15.2513 142.815 15.2104 143.059 15.2104C143.305 15.2104 143.53 15.2537 143.734 15.34C143.939 15.4217 144.116 15.5375 144.265 15.6874C144.41 15.8418 144.524 16.0235 144.606 16.2324C144.692 16.4414 144.736 16.6707 144.736 16.9206ZM154.506 20.4362V18.113C154.506 17.4816 154.433 16.9228 154.288 16.4369C154.142 15.9463 153.933 15.533 153.661 15.1968C153.384 14.8606 153.045 14.6063 152.646 14.4338C152.251 14.2567 151.799 14.168 151.29 14.168C150.786 14.168 150.334 14.2567 149.935 14.4338C149.539 14.6063 149.205 14.8606 148.933 15.1968C148.655 15.533 148.445 15.9463 148.299 16.4369C148.154 16.9228 148.081 17.4816 148.081 18.113V20.4362C148.081 21.0676 148.154 21.6286 148.299 22.1191C148.445 22.6051 148.655 23.0139 148.933 23.3455C149.21 23.6861 149.549 23.9427 149.948 24.1154C150.347 24.2834 150.799 24.3674 151.304 24.3674C151.812 24.3674 152.264 24.2811 152.659 24.1086C153.054 23.936 153.389 23.6816 153.661 23.3455C153.933 23.0139 154.142 22.6051 154.288 22.1191C154.433 21.6286 154.506 21.0676 154.506 20.4362ZM149.348 20.1841C149.348 20.0661 149.348 19.9501 149.348 19.8366C149.348 19.723 149.348 19.6095 149.348 19.4959V17.8335C149.348 17.3703 149.394 16.9637 149.484 16.614C149.58 16.2598 149.723 15.9713 149.914 15.7487C150.072 15.5716 150.265 15.4375 150.493 15.3467C150.725 15.2513 150.991 15.2037 151.29 15.2037C151.586 15.2037 151.845 15.2468 152.067 15.3331C152.294 15.4194 152.485 15.5488 152.639 15.7215C152.798 15.8895 152.924 16.1007 153.013 16.3551C153.109 16.6049 153.175 16.8934 153.212 17.2204L149.348 20.1841ZM153.238 20.7019C153.238 21.188 153.189 21.6103 153.089 21.9692C152.994 22.328 152.842 22.6187 152.633 22.8413C152.478 23.0048 152.289 23.1297 152.067 23.2161C151.845 23.3024 151.59 23.3455 151.304 23.3455C151.031 23.3455 150.786 23.3069 150.568 23.2297C150.35 23.1478 150.163 23.0298 150.009 22.8754C149.841 22.7119 149.705 22.5051 149.6 22.2553C149.496 22.001 149.423 21.708 149.382 21.3765L153.238 18.4262C153.238 18.5535 153.238 18.7147 153.238 18.9101C153.238 19.1008 153.238 19.2302 153.238 19.2984V20.7019ZM158.131 18.6647V19.6868H159.029C159.343 19.6868 159.63 19.723 159.889 19.7957C160.152 19.8684 160.376 19.9798 160.563 20.1297C160.744 20.2796 160.885 20.4681 160.986 20.6952C161.09 20.9177 161.142 21.1834 161.142 21.4923C161.142 21.8057 161.097 22.0782 161.006 22.3099C160.92 22.537 160.794 22.7277 160.632 22.8821C160.468 23.0365 160.269 23.1525 160.038 23.2297C159.807 23.3024 159.548 23.3386 159.262 23.3386C158.975 23.3386 158.715 23.2978 158.478 23.2161C158.247 23.1342 158.049 23.0184 157.885 22.8685C157.722 22.7186 157.595 22.537 157.504 22.3235C157.418 22.11 157.374 21.8738 157.374 21.615H156.113C156.113 22.0509 156.195 22.4393 156.359 22.78C156.527 23.1206 156.752 23.4091 157.033 23.6453C157.315 23.8814 157.647 24.0609 158.029 24.1834C158.415 24.3061 158.826 24.3674 159.262 24.3674C159.706 24.3674 160.12 24.3039 160.502 24.1767C160.888 24.0449 161.221 23.8541 161.503 23.6044C161.784 23.3591 162.005 23.057 162.164 22.6983C162.322 22.3394 162.403 21.9283 162.403 21.4651C162.403 21.238 162.375 21.0085 162.321 20.7769C162.271 20.5453 162.182 20.3249 162.055 20.116C161.923 19.907 161.749 19.7185 161.531 19.5505C161.316 19.3824 161.049 19.2462 160.727 19.1417C160.994 19.0281 161.224 18.8873 161.414 18.7193C161.61 18.5467 161.768 18.3627 161.891 18.1674C162.014 17.9767 162.106 17.779 162.164 17.5747C162.223 17.3703 162.252 17.1727 162.252 16.9819C162.252 16.5231 162.18 16.1188 162.034 15.7692C161.889 15.4194 161.685 15.1265 161.421 14.8903C161.158 14.654 160.842 14.4769 160.474 14.3589C160.107 14.2362 159.7 14.1748 159.254 14.1748C158.795 14.1748 158.378 14.2475 158.001 14.3928C157.628 14.5337 157.308 14.7267 157.04 14.972C156.773 15.2218 156.564 15.5147 156.413 15.8509C156.268 16.1824 156.195 16.5368 156.195 16.9137H157.463C157.463 16.6549 157.507 16.4209 157.593 16.212C157.678 16.003 157.801 15.8237 157.96 15.6738C158.115 15.5239 158.301 15.4103 158.519 15.3331C158.741 15.2513 158.987 15.2104 159.254 15.2104C159.532 15.2104 159.778 15.2468 159.99 15.3195C160.209 15.3876 160.39 15.4921 160.535 15.6329C160.686 15.7782 160.799 15.9622 160.876 16.1848C160.954 16.4028 160.993 16.6594 160.993 16.9547C160.993 17.2045 160.949 17.4339 160.863 17.6427C160.777 17.8517 160.651 18.0311 160.488 18.181C160.32 18.3309 160.113 18.449 159.868 18.5353C159.627 18.6216 159.348 18.6647 159.029 18.6647H158.131ZM170.149 20.8995V14.3111H168.806L164.365 21.1857V21.9283H168.888V24.2312H170.149V21.9283H171.532V20.8995H170.149ZM165.762 20.8995L168.685 16.3687L168.888 15.9872V20.8995H165.762ZM179.503 24.2312V23.2024H174.524L177.187 20.3135C177.437 20.0411 177.674 19.7685 177.896 19.4959C178.123 19.2189 178.323 18.9395 178.496 18.658C178.664 18.3764 178.797 18.0925 178.898 17.8063C178.997 17.5156 179.047 17.2226 179.047 16.9275C179.047 16.5322 178.977 16.1666 178.836 15.8304C178.7 15.4944 178.503 15.2037 178.243 14.9583C177.984 14.7131 177.666 14.5224 177.289 14.3861C176.918 14.2453 176.497 14.1748 176.029 14.1748C175.52 14.1748 175.066 14.2567 174.666 14.4202C174.271 14.5836 173.937 14.8039 173.664 15.081C173.388 15.3581 173.177 15.6829 173.031 16.0553C172.886 16.4232 172.813 16.8162 172.813 17.234H174.081C174.081 16.9251 174.119 16.6458 174.196 16.3959C174.278 16.1462 174.401 15.9327 174.565 15.7556C174.723 15.5829 174.923 15.4489 175.163 15.3536C175.409 15.2581 175.697 15.2104 176.029 15.2104C176.302 15.2104 176.545 15.2581 176.758 15.3536C176.976 15.4444 177.162 15.5693 177.317 15.7282C177.466 15.8872 177.58 16.0758 177.658 16.2937C177.738 16.5072 177.779 16.7366 177.779 16.9819C177.779 17.1818 177.754 17.377 177.705 17.5678C177.655 17.7541 177.571 17.9517 177.453 18.1605C177.335 18.374 177.178 18.6058 176.982 18.8556C176.788 19.1053 176.545 19.3915 176.254 19.714L173.003 23.325V24.2312H179.503ZM188.081 15.0197V14.3111H181.378V15.4148H186.746L182.652 24.2312H183.973L188.081 15.0197Z" fill="#274B9F"/>
<path d="M8.9082 27.5117V29.3722H25.1873V27.5117" stroke="#BBC8EA" stroke-width="0.703704"/>
<path d="M29.3711 27.5117V29.3722H45.6502V27.5117" stroke="#BBC8EA" stroke-width="0.703704"/>
<path d="M54.4883 27.5117V29.3722H97.2791V27.5117" stroke="#BBC8EA" stroke-width="0.703704"/>
<path d="M139.141 27.5117V29.3722H187.512V27.5117" stroke="#BBC8EA" stroke-width="0.703704"/>
<path d="M103.791 27.5117V29.3722H132.628V27.5117" stroke="#BBC8EA" stroke-width="0.703704"/>
</svg>
