<svg fill="none" viewBox="0 0 453 202" xmlns="http://www.w3.org/2000/svg"><path stroke="#FFF" stroke-linecap="round" stroke-linejoin="round" stroke-width="4" d="M36.508 149.533c.648.097.435 14.348.16 24.381-.078 2.829 2.188 5.173 5.018 5.173h59.392m62.32-1.285 3.621-3.62c1.153-1.154 1.688-2.803 1.329-4.395-2.627-11.623-8.098-16.543-15.711-20.896m-46.416 40.636-.669-.139c-2.323-.48-4.005-2.531-3.896-4.9 1.005-21.749 10.109-34.529 24.643-35.438"/><path stroke="#FFF" stroke-linecap="round" stroke-linejoin="round" stroke-width="4" d="M106.543 189.529c1.37-19.343 3.56-28.945 20.078-35.016 9.885-3.414 15.173-3.234 24.253 1.607 10.448 6.263 12.122 11.418 12.368 21.683m194.832-1.447-181.581 2.188a5 5 0 0 1-5.06-5v-24.011m191.044-6.676 1.796-135.386a5 5 0 0 0-5-5.067H7.622a5 5 0 0 0-5 5v137.104a5 5 0 0 0 5.024 5l349.856-1.718a5 5 0 0 0 4.975-4.933m9.25-86.323-8.031 1.285"/><path stroke="#FFF" stroke-linecap="round" stroke-linejoin="round" stroke-width="4" d="M382.324 144.073c-3.338-.455-21.229 12.379-19.796 32.545.078 1.096-.692 2.091-1.783 2.217v0a1.965 1.965 0 0 1-2.191-1.953v-29.115m52.202 1.927h34.674a5 5 0 0 0 5-5v-17.106a3.22 3.22 0 0 0-1.361-2.626v0a3.23 3.23 0 0 1-1.364-2.647c.022-11.055-.364-17.786-2.255-29.48-1.442-10.86-2.526-16.736-5.461-26.503m-75.812-40.798 16.544-7.389m0 0-8.674 38.067m8.674-38.067 30.657 31.606c.333.343.606.74.808 1.173v0c1.338 2.876-.814 6.157-3.985 6.075l-30.693-.787"/><path stroke="#FFF" stroke-linecap="round" stroke-linejoin="round" stroke-width="4" d="M377.829 56.212c-5.827.416-6.78-1.231-6.585 4.176v83.684m0 0h24.513c.262 0 .529.021.788.063 14.314 2.372 19.715 8.98 23.449 27.6.478 2.384 2.546 4.139 4.977 4.139h17.891c.567 0 1.1-.275 1.428-.738v0c.316-.445.824-.71 1.368-.757 2.667-.231 3.668-1.159 3.969-4.126v-13.626a5 5 0 0 0-2.541-4.353l-2.294-1.296m-73.548-6.906h-8.513m50.434-87.057 17.347 1.767c7.448.901 8.34 3.094 9.476 7.388m-49.149 30.095V72.21c0-1.104.294-2.301 1.271-2.814.84-.44 1.986-.612 3.869-.655l34.373.963c3.416-.013 3.926 1.107 4.497 3.374l4.337 30.839c.041 1.936-.607 2.661-2.586 3.115-.308.07-.625.097-.941.097h-11.6a5 5 0 0 1-2.624-.744l-9.312-5.74a5 5 0 0 0-2.624-.744h-15.026c-.493 0-.988-.06-1.446-.243-1.413-.563-1.847-1.284-2.11-2.552a4 4 0 0 1-.078-.84Z"/><path stroke="#FFF" stroke-width="4" d="M369.389 174.428c0 10.708 8.611 19.363 19.202 19.363s19.202-8.655 19.202-19.363-8.611-19.362-19.202-19.362-19.202 8.655-19.202 19.362Zm-253.138 4.82c0 11.417 9.185 20.648 20.487 20.648s20.487-9.231 20.487-20.648-9.186-20.647-20.487-20.647c-11.302 0-20.487 9.23-20.487 20.647Z"/><path stroke="#FFF" stroke-linecap="round" stroke-linejoin="round" stroke-width="4" d="M12.096 149.693v15.56a5 5 0 0 0 5 5H36.19"/></svg>