<svg fill="none" viewBox="0 0 204 270" xmlns="http://www.w3.org/2000/svg"><path stroke="#FFF" stroke-linecap="round" stroke-linejoin="round" stroke-width="4" d="M64.428 224.927v9.875a5 5 0 0 0 5 5h60.452a5 5 0 0 0 5-5v-9.875m-85.323-14.05v8.223a5 5 0 0 0 5 5h89.583a5 5 0 0 0 5-5v-8.223M196.372 2H7.24a5 5 0 0 0-5 5v198.051a5 5 0 0 0 5 5h187.755a5 5 0 0 0 5-4.966l1.377-198.05a5 5 0 0 0-5-5.035"/><rect width="26.578" height="9.223" x="9.818" y="216.183" stroke="#FFF" stroke-width="4" rx="4"/><rect width="187.562" height="8.914" x="4.811" y="252.6" stroke="#FFF" stroke-width="4" rx="4"/><rect width="26.578" height="9.223" x="166.838" y="216.183" stroke="#FFF" stroke-width="4" rx="4"/><path stroke="#FFF" stroke-linecap="round" stroke-linejoin="round" stroke-width="4" d="m14.65 262.94.493 1.417a5 5 0 0 0 4.692 3.357l26.578.162a5 5 0 0 0 4.83-3.6l.39-1.336m91.306 0 .493 1.417a5 5 0 0 0 4.692 3.357l26.578.162a5 5 0 0 0 4.83-3.6l.39-1.336"/></svg>