<svg fill="none" viewBox="0 0 249 258" xmlns="http://www.w3.org/2000/svg"><path stroke="#FFF" stroke-linecap="round" stroke-linejoin="round" stroke-width="4" d="m209.027 125.14-5.635-45.537a6.998 6.998 0 0 0-6.703-6.133c-55.71-1.91-89.364-2.034-146.398.074-2.244.083-4.191 1.332-4.66 3.529-1.484 6.96-3.253 23.529-5.825 48.191-.43 4.131 2.809 7.736 6.962 7.736H202.08c4.207 0 7.464-3.685 6.947-7.86Z"/><path stroke="#FFF" stroke-linecap="round" stroke-linejoin="round" stroke-width="4" d="M219.599 208.068c-1.645-49.4-.591-78.801-8.672-126.793-1.377-8.177-8.082-14.4-16.324-15.308-53.666-5.909-88.716-6.87-143.019.085-6.863.88-12.63 5.53-13.834 12.344-3.34 18.894-5.838 56.926-9.624 128.845a19.138 19.138 0 0 0 .284 4.444c1.121 6.077 2.043 10.754 2.994 14.443 1.564 6.064 7.404 9.347 13.665 9.462 60.689 1.118 98.548 1.028 158.678-.014 6.218-.107 12.141-3.316 13.473-9.391.844-3.855 1.505-8.761 2.265-15.289.109-.933.146-1.889.114-2.828Z"/><path stroke="#FFF" stroke-linecap="round" stroke-linejoin="round" stroke-width="4" d="M64.462 235.88v7.529c0 6.899-5.592 12.491-12.49 12.491v0c-6.9 0-12.492-5.592-12.492-12.491V234.5m143.261 2.066v6.844c0 6.898 5.592 12.49 12.491 12.49v0c6.898 0 12.491-5.592 12.491-12.49v-6.844M37 84.287V21c0-10.493 8.507-19 19-19h137c10.493 0 19 8.507 19 19v66m-37.942 104.507 23.612-1.146c6.017-.292 10.679-5.371 10.455-11.391-.294-7.89-8.561-12.908-15.696-9.527l-21.363 10.124a6.275 6.275 0 0 0 2.992 11.94Zm-100.586-.3-23.613-1.146c-6.017-.291-10.679-5.371-10.454-11.391.294-7.89 8.56-12.907 15.695-9.526l21.363 10.123a6.275 6.275 0 0 1-2.991 11.94Zm-54.588-58.589 1.707-22.746c.292-3.881-3.131-7.008-6.97-6.368l-2.976.497a6 6 0 0 0-4.96 5.116l-2.767 20.52c-.486 3.599 2.313 6.802 5.946 6.802h6.482v0a3.505 3.505 0 0 0 3.495-3.242l.043-.579Zm0 0h13.402m-16.94 4.585 4.69 2.001a5.997 5.997 0 0 0 2.355.482H30m200.651-7.068-1.707-22.746c-.292-3.881 3.131-7.008 6.97-6.368l2.976.497a5.999 5.999 0 0 1 4.959 5.116l2.769 20.52c.485 3.599-2.314 6.802-5.947 6.802h-6.482v0a3.505 3.505 0 0 1-3.495-3.242l-.043-.579Zm0 0h-13.402m16.94 4.585-4.689 2.001a6 6 0 0 1-2.356.482H218.5M31.598 207.668v0a11.414 11.414 0 0 0 7.614 2.907l171.078-.038a8.593 8.593 0 0 0 6.445-2.91v0"/></svg>