<svg fill="none" viewBox="0 0 452 202" xmlns="http://www.w3.org/2000/svg"><path stroke="#FFF" stroke-linecap="round" stroke-linejoin="round" stroke-width="4" d="M416.099 149.533c-.647.097-.434 14.348-.159 24.381.077 2.829-2.189 5.173-5.018 5.173h-59.393m-62.32-1.285-3.62-3.62c-1.154-1.154-1.689-2.803-1.329-4.395 2.626-11.623 8.097-16.543 15.711-20.896m46.415 40.636.67-.139c2.322-.48 4.005-2.531 3.895-4.9-1.004-21.749-10.109-34.529-24.642-35.438"/><path stroke="#FFF" stroke-linecap="round" stroke-linejoin="round" stroke-width="4" d="M346.064 189.529c-1.37-19.343-3.56-28.945-20.077-35.016-9.886-3.414-15.173-3.234-24.254 1.607-10.448 6.263-12.122 11.418-12.368 21.683m-194.832-1.447 181.581 2.188a5 5 0 0 0 5.061-5v-24.011M90.13 142.857 88.335 7.471a5 5 0 0 1 5-5.067h351.651a5 5 0 0 1 5 5v137.104a5 5 0 0 1-5.025 5L95.105 147.79a5 5 0 0 1-4.975-4.933m-9.25-86.323 8.032 1.285"/><path stroke="#FFF" stroke-linecap="round" stroke-linejoin="round" stroke-width="4" d="M70.283 144.073c3.339-.455 21.23 12.379 19.797 32.545-.078 1.096.692 2.091 1.783 2.217v0a1.966 1.966 0 0 0 2.19-1.953v-29.115m-52.202 1.927H7.178a5 5 0 0 1-5-5v-17.106c0-1.044.507-2.024 1.36-2.626v0a3.23 3.23 0 0 0 1.364-2.647c-.022-11.055.364-17.786 2.255-29.48 1.443-10.86 2.526-16.736 5.461-26.503M88.43 25.534l-16.544-7.389m0 0 8.674 38.067m-8.674-38.067L41.23 49.751a4.3 4.3 0 0 0-.807 1.173v0c-1.338 2.876.813 6.157 3.984 6.075l30.693-.787"/><path stroke="#FFF" stroke-linecap="round" stroke-linejoin="round" stroke-width="4" d="M74.778 56.212c5.827.416 6.78-1.231 6.585 4.176v83.684m0 0H56.85c-.262 0-.529.021-.787.063-14.314 2.372-19.715 8.98-23.45 27.6-.477 2.384-2.545 4.139-4.977 4.139H9.746c-.568 0-1.1-.275-1.429-.738v0a1.86 1.86 0 0 0-1.368-.757c-2.666-.231-3.668-1.159-3.969-4.126v-13.626c0-1.803.971-3.467 2.542-4.353l2.293-1.296m73.548-6.906h8.513M39.443 57.015l-17.347 1.767c-7.449.901-8.341 3.094-9.477 7.388m49.15 30.095V72.21c0-1.104-.294-2.301-1.272-2.814-.84-.44-1.986-.612-3.868-.655l-34.373.963c-3.416-.013-3.926 1.107-4.497 3.374l-4.337 30.839c-.042 1.936.607 2.661 2.586 3.115.308.07.625.097.94.097h11.6c.927 0 1.835-.257 2.624-.744l9.313-5.74a5 5 0 0 1 2.623-.744h15.026c.493 0 .988-.06 1.446-.243 1.413-.563 1.847-1.284 2.11-2.552.058-.276.079-.559.079-.84Z"/><path stroke="#FFF" stroke-width="4" d="M83.218 174.428c0 10.708-8.61 19.363-19.202 19.363-10.59 0-19.202-8.655-19.202-19.363s8.612-19.362 19.202-19.362 19.202 8.655 19.202 19.362Zm253.139 4.82c0 11.417-9.186 20.648-20.487 20.648s-20.487-9.231-20.487-20.648 9.186-20.647 20.487-20.647 20.487 9.23 20.487 20.647Z"/><path stroke="#FFF" stroke-linecap="round" stroke-linejoin="round" stroke-width="4" d="M440.511 149.693v15.56a5 5 0 0 1-5 5h-19.093"/></svg>