<svg fill="none" viewBox="0 0 394 285" xmlns="http://www.w3.org/2000/svg"><path stroke="#FFF" stroke-linejoin="round" stroke-width="4" d="m33.178 124.382-19.173 4.891a4 4 0 0 0-2.95 3.174c-4.576 25.604-7.295 41.151-6.508 73.845a3.984 3.984 0 0 0 3.985 3.883h3.189c1.499 0 2.856-.849 3.596-2.152 2.038-3.588 3.876-5.491 7.565-6.732a3.6 3.6 0 0 1 1.161-.182h7.588"/><path stroke="#FFF" stroke-linejoin="round" stroke-width="4" d="m19.651 136.517-3.06.463a6 6 0 0 0-5.042 5.095l-3.8 26.941a2.744 2.744 0 0 0 2.718 3.128 2.8 2.8 0 0 0 2.474-1.524c1.02-1.954 1.961-3.386 3.66-4.935.96-.876 2.247-1.28 3.546-1.28a5.913 5.913 0 0 0 5.91-5.733l.49-16.04c.114-3.744-3.192-6.677-6.896-6.115Z"/><path stroke="#FFF" stroke-linecap="round" stroke-linejoin="round" stroke-width="4" d="M31.85 205.752h-8.146c-1.837 0-3.597.826-4.638 2.34-4.168 6.066-5.41 11.534-5.95 19.525-.212 3.141-2.903 5.561-6.042 5.305v0A5.524 5.524 0 0 1 2 227.416v-9.717a5.63 5.63 0 0 1 3.759-5.313v0"/><path stroke="#FFF" stroke-width="4" d="M34.037 231.801c.078 4.304-.564 9.544-2.125 13.647-1.61 4.235-3.838 6.446-6.511 6.494-1.472.027-2.579-.445-3.488-1.265-.956-.862-1.77-2.186-2.421-3.94-1.312-3.531-1.77-8.25-1.85-12.676-.079-4.343.446-9.276 1.87-13.06 1.446-3.841 3.52-5.845 6.252-5.894 1.538-.028 2.715.415 3.672 1.167.991.779 1.842 1.967 2.537 3.551 1.404 3.202 1.985 7.589 2.064 11.976Z"/><path stroke="#FFF" stroke-linejoin="round" stroke-width="4" d="M273.973 219.606V6.258c0-2.644 2.519-4.56 5.067-3.855l109.633 30.349a4 4 0 0 1 2.933 3.855v175.617a4 4 0 0 1-3.731 3.991l-109.634 7.382a4 4 0 0 1-4.268-3.991Z"/><path stroke="#FFF" stroke-linejoin="round" stroke-width="4" d="M274.192 2.326 37.299 73.132a4 4 0 0 0-2.853 3.754l-2.52 128.339a4 4 0 0 0 3.762 4.071l239.167 14.146"/><path stroke="#FFF" stroke-width="4" d="M180.872 256.167c0 7.515-1.836 14.221-4.7 18.982-2.888 4.8-6.6 7.321-10.326 7.321-3.725 0-7.437-2.521-10.325-7.321-2.864-4.761-4.701-11.467-4.701-18.982s1.837-14.221 4.701-18.982c2.888-4.8 6.6-7.321 10.325-7.321 3.726 0 7.438 2.521 10.326 7.321 2.864 4.761 4.7 11.468 4.7 18.982Z"/><path stroke="#FFF" stroke-linecap="round" stroke-linejoin="round" stroke-width="4" d="m33.398 245.554.646.04a6 6 0 0 0 6.374-6.04l-.258-29.821m.756 30.514 93.575 12.779c3.603.492 6.811-2.309 6.811-5.945v-31.157m117.634 8.181v35.404c0 3.62-3.183 6.416-6.773 5.95l-61.331-7.965m-46.654-7.076c7.297-51.962 41.127-23.438 43.338-8.623l3.759 31.398m94.639-49.087v19.497a6 6 0 0 0 6.565 5.973l79.1-7.488a6 6 0 0 0 5.435-5.973v-18.422m5.329 35.304-106.697 12.982a5.424 5.424 0 1 0 1.42 10.753l106.408-15.172a4.319 4.319 0 0 0-1.131-8.563"/></svg>