<svg fill="none" viewBox="0 0 412 284" xmlns="http://www.w3.org/2000/svg"><path stroke="#FFF" stroke-linecap="round" stroke-linejoin="round" stroke-width="4" d="M68.933 207.147c-3.304-7.927-16.098-11.654-21.793-6.42s-4.41 15.051-4.858 27.996m162.001-23.174-17.243 2.061m212.862 7.611c-37.195 7.769-60.886 8.589-103.026 10.199"/><path stroke="#FFF" stroke-linejoin="round" stroke-width="4" d="m218.862 197.704-.157 8.699m0 0-6.942-.802a8.06 8.06 0 0 1-7.135-8.154m14.077 8.956c16.215 2.05 23.41 9.66 31.104 40.711 1.779 4.64 3.055 7.483 4.9 10.353 1.201 1.869 3.188 3.06 5.369 3.484l13.734 2.676c5.603 1.091 10.794-3.243 10.72-8.951l-.352-27.112a4.747 4.747 0 0 1 4.831-4.66l4.943.09"/><path stroke="#FFF" stroke-linejoin="round" stroke-width="4" d="M293.749 223.386c-1.445-60.28-2.234-83.323-7.897-131.86-1.099-10.465-3.632-12.956-10.641-13.047l-54.351 8.905c-2.715 44.982-3.388 69.431-2.004 110.716m-6.06-124.113 1.515-18.167 81.697 9.983-67 8.478-16.212-.294Z"/><path stroke="#FFF" stroke-linecap="round" stroke-linejoin="round" stroke-width="4" d="m185.4 3.281 64.057 12.037m0 0c26.588 3.855 41.472 6.698 66.86 14.208a5.02 5.02 0 0 1 1.659.854c13.789 10.793 21.812 18.531 33.572 33.298 1.671 2.097 1.29 5.125-1.24 6.013a50.89 50.89 0 0 1-2.21.71 4.888 4.888 0 0 1-1.943.173L221.019 56.73c-2.602-.61-4.45-1.124-6.225-1.768-2.428-.88-3.516-3.638-2.632-6.064l9.469-25.976c2.709-6.532 6.506-8.124 16.754-7.805l11.072.2Z"/><path stroke="#FFF" stroke-linejoin="round" stroke-width="4" d="M186.842 207.607 185.399 3.282 2.863 68.407l4.323 121.708 179.656 17.492Z"/><path stroke="#FFF" stroke-linecap="round" stroke-linejoin="round" stroke-width="4" d="M204.624 197.644c-1.924-46.279-1.044-70.84 4.399-111.859 1.203-7.874 5.429-9.927 16.617-11.17l70.255-8.631a11.102 11.102 0 0 1 2.611-.01c37.638 4.33 60.897 6.71 86.727 12.7 2.384.554 4.551 1.883 5.915 3.916 1.776 2.648 2.959 5.126 4.499 8.719.236.55.426 1.126.566 1.707 6.738 27.836 9.477 45.171 11.987 79.043l-.609 33.625a6.946 6.946 0 0 1-5.262 6.614v0m-.053 2.966c3.23-.66 4.814-.493 5.681 1.589.344.828.389 1.743.373 2.64l-.387 21.386c-.297 2.95-.767 4.627-1.699 5.892-.879 1.193-2.342 1.748-3.78 2.106l-70.136 17.463c-.661.165-1.34.268-2.019.306-12.099.685-20.104.676-29.963.005-5.56-.378-9.846-4.996-9.989-10.568l-.446-17.34.09-4.943c.042-2.343.511-3.86 1.271-5.014 1.114-1.69 2.441-3.376 2.477-5.4v0"/><path stroke="#FFF" stroke-linejoin="round" stroke-width="4" d="M406.936 154.435c-.395-.007-1.689 5.902-1.689 5.902l-91.624 3.088-4.828-6.416-15.903-82.956c47.605 3.834 71.18 6.592 101.008 13.892m-112.394 14.183c-.873-17.193-5.831-17.65-15.725-16.304l-29.141 3.823c-9.032.355-11.264 3.515-11.315 13.244l-.401 22.143c-.968 11.444 1.239 13.751 8.265 13.203l23.923.433c1.468 7.668 3.032 10.083 7.524 10.42l12.456.226c5.778-.116 7.088-2.995 6.358-12.543l-1.944-34.645Zm120.822 110.17-.054 2.966"/><path stroke="#FFF" stroke-width="4" d="M206.688 248.707c-.118 6.529 1.788 14.727 5.366 21.276 3.612 6.613 8.592 10.993 14.396 11.098 6.129.111 11.058-2.829 14.552-7.491 3.524-4.7 5.54-11.111 5.658-17.633.118-6.486-2.057-14.98-5.935-21.856-3.928-6.965-9.205-11.621-14.993-11.726-6.032-.109-10.656 3.033-13.895 7.989-3.27 5.005-5.029 11.753-5.149 18.343ZM47.975 221.509c-.078 4.312.658 9.566 2.425 13.683 1.788 4.165 4.336 6.589 7.663 6.649 1.802.033 3.148-.486 4.215-1.342 1.103-.885 2.016-2.221 2.741-3.966 1.466-3.526 1.973-8.25 2.053-12.701.079-4.356-.523-9.299-2.135-13.092-1.604-3.774-3.978-5.982-7.367-6.044-1.859-.033-3.282.446-4.413 1.236-1.153.805-2.114 2.012-2.887 3.588-1.57 3.196-2.215 7.584-2.295 11.989Z"/><path stroke="#FFF" stroke-linecap="round" stroke-linejoin="round" stroke-width="4" d="M211.109 205.565c-19.378 0-21.48 22.438-20.565 54.181m0 .396h15.819m-16.412-16.215L68.934 222.571v-25.706m-44.094-4.944v20.639a6 6 0 0 0 5.27 5.955L42.24 220"/></svg>