<svg fill="none" viewBox="0 0 394 285" xmlns="http://www.w3.org/2000/svg"><path stroke="#FFF" stroke-linejoin="round" stroke-width="4" d="m360.427 124.382 19.173 4.891a4 4 0 0 1 2.95 3.174c4.577 25.604 7.295 41.151 6.508 73.845a3.984 3.984 0 0 1-3.984 3.883h-3.189c-1.5 0-2.856-.849-3.597-2.152-2.037-3.588-3.876-5.491-7.565-6.732a3.6 3.6 0 0 0-1.161-.182h-7.587"/><path stroke="#FFF" stroke-linejoin="round" stroke-width="4" d="m373.954 136.517 3.06.463a6 6 0 0 1 5.042 5.095l3.8 26.941a2.744 2.744 0 0 1-2.717 3.128 2.8 2.8 0 0 1-2.475-1.524c-1.019-1.954-1.961-3.386-3.66-4.935-.96-.876-2.246-1.28-3.546-1.28a5.914 5.914 0 0 1-5.91-5.733l-.49-16.04c-.114-3.744 3.193-6.677 6.896-6.115Z"/><path stroke="#FFF" stroke-linecap="round" stroke-linejoin="round" stroke-width="4" d="M361.755 205.752h8.147c1.837 0 3.597.826 4.637 2.34 4.168 6.066 5.411 11.534 5.951 19.525.212 3.141 2.903 5.561 6.041 5.305v0a5.523 5.523 0 0 0 5.074-5.506v-9.717a5.63 5.63 0 0 0-3.758-5.313v0"/><path stroke="#FFF" stroke-width="4" d="M359.568 231.801c-.078 4.304.565 9.544 2.126 13.647 1.61 4.235 3.837 6.446 6.51 6.494 1.472.027 2.579-.445 3.488-1.265.956-.862 1.77-2.186 2.422-3.94 1.312-3.531 1.77-8.25 1.85-12.676.078-4.343-.446-9.276-1.871-13.06-1.446-3.841-3.519-5.845-6.251-5.894-1.538-.028-2.715.415-3.673 1.167-.991.779-1.842 1.967-2.537 3.551-1.404 3.202-1.984 7.589-2.064 11.976Z"/><path stroke="#FFF" stroke-linejoin="round" stroke-width="4" d="M119.633 219.606V6.258c0-2.644-2.519-4.56-5.067-3.855L4.932 32.752A4 4 0 0 0 2 36.607v175.617a4 4 0 0 0 3.732 3.991l109.633 7.382a4 4 0 0 0 4.269-3.991Z"/><path stroke="#FFF" stroke-linejoin="round" stroke-width="4" d="m119.413 2.326 236.893 70.806a4 4 0 0 1 2.854 3.754l2.52 128.339a4 4 0 0 1-3.763 4.071L118.75 223.442"/><path stroke="#FFF" stroke-width="4" d="M212.733 256.167c0 7.515 1.837 14.221 4.701 18.982 2.888 4.8 6.6 7.321 10.325 7.321 3.726 0 7.438-2.521 10.326-7.321 2.864-4.761 4.7-11.467 4.7-18.982s-1.836-14.221-4.7-18.982c-2.888-4.8-6.6-7.321-10.326-7.321-3.725 0-7.437 2.521-10.325 7.321-2.864 4.761-4.701 11.468-4.701 18.982Z"/><path stroke="#FFF" stroke-linecap="round" stroke-linejoin="round" stroke-width="4" d="m360.207 245.554-.646.04a6 6 0 0 1-6.374-6.04l.259-29.821m-.757 30.514-93.574 12.779c-3.603.492-6.812-2.309-6.812-5.945v-31.157m-117.633 8.181v35.404c0 3.62 3.182 6.416 6.773 5.95l61.33-7.965m46.655-7.076c-7.297-51.962-41.128-23.438-43.339-8.623l-3.759 31.398m-94.639-49.087v19.497a6 6 0 0 1-6.565 5.973l-79.1-7.488a6 6 0 0 1-5.434-5.973v-18.422m-5.329 35.304 106.697 12.982a5.424 5.424 0 1 1-1.421 10.753L10.131 261.56a4.319 4.319 0 0 1 1.132-8.563"/></svg>