<svg fill="none" viewBox="0 0 412 284" xmlns="http://www.w3.org/2000/svg"><path stroke="#FFF" stroke-linecap="round" stroke-linejoin="round" stroke-width="4" d="M342.546 207.147c3.303-7.927 16.098-11.654 21.793-6.42s4.409 15.051 4.858 27.996m-162.002-23.174 17.244 2.061m-212.863 7.611c37.196 7.769 60.886 8.589 103.026 10.199"/><path stroke="#FFF" stroke-linejoin="round" stroke-width="4" d="m192.616 197.704.158 8.699m0 0 6.941-.802a8.062 8.062 0 0 0 7.136-8.154m-14.077 8.956c-16.216 2.05-23.41 9.66-31.105 40.711-1.779 4.64-3.055 7.483-4.9 10.353-1.201 1.869-3.188 3.06-5.368 3.484l-13.735 2.676c-5.603 1.091-10.794-3.243-10.72-8.951l.352-27.112a4.746 4.746 0 0 0-4.83-4.66l-4.943.09"/><path stroke="#FFF" stroke-linejoin="round" stroke-width="4" d="M117.729 223.386c1.445-60.28 2.235-83.323 7.898-131.86 1.099-10.465 3.631-12.956 10.641-13.047l54.351 8.905c2.715 44.982 3.387 69.431 2.004 110.716m6.06-124.113-1.516-18.167-81.697 9.983 67.001 8.478 16.212-.294Z"/><path stroke="#FFF" stroke-linecap="round" stroke-linejoin="round" stroke-width="4" d="m226.079 3.281-64.057 12.037m0 0c-26.589 3.855-41.473 6.698-66.86 14.208a5.026 5.026 0 0 0-1.66.854C79.713 41.173 71.69 48.911 59.93 63.678c-1.67 2.097-1.29 5.125 1.24 6.013.64.225 1.368.457 2.21.71a4.89 4.89 0 0 0 1.943.173L190.46 56.73c2.602-.61 4.451-1.124 6.226-1.768 2.427-.88 3.516-3.638 2.631-6.064l-9.469-25.976c-2.708-6.532-6.505-8.124-16.754-7.805l-11.071.2Z"/><path stroke="#FFF" stroke-linejoin="round" stroke-width="4" d="M224.636 207.607 226.08 3.282l182.536 65.125-4.324 121.708-179.656 17.492Z"/><path stroke="#FFF" stroke-linecap="round" stroke-linejoin="round" stroke-width="4" d="M206.854 197.644c1.925-46.279 1.044-70.84-4.398-111.859-1.203-7.874-5.43-9.927-16.617-11.17l-70.256-8.631a11.102 11.102 0 0 0-2.611-.01c-37.638 4.33-60.896 6.71-86.726 12.7-2.385.554-4.552 1.883-5.915 3.916-1.776 2.648-2.96 5.126-4.5 8.719a10.91 10.91 0 0 0-.566 1.707c-6.737 27.836-9.476 45.171-11.986 79.043l.609 33.625a6.946 6.946 0 0 0 5.261 6.614v0m.054 2.966c-3.23-.66-4.814-.493-5.681 1.589-.345.828-.39 1.743-.373 2.64l.387 21.386c.297 2.95.767 4.627 1.699 5.892.878 1.193 2.341 1.748 3.78 2.106L79.15 266.34c.66.165 1.339.268 2.019.306 12.098.685 20.103.676 29.962.005 5.56-.378 9.847-4.996 9.99-10.568l.445-17.34-.089-4.943c-.043-2.343-.511-3.86-1.272-5.014-1.113-1.69-2.44-3.376-2.477-5.4v0"/><path stroke="#FFF" stroke-linejoin="round" stroke-width="4" d="M4.542 154.435c.396-.007 1.69 5.902 1.69 5.902l91.624 3.088 4.828-6.416 15.902-82.956c-47.605 3.834-71.18 6.592-101.008 13.892m112.395 14.183c.873-17.193 5.83-17.65 15.724-16.304l29.142 3.823c9.032.355 11.264 3.515 11.315 13.244l.401 22.143c.968 11.444-1.24 13.751-8.265 13.203l-23.923.433c-1.468 7.668-3.033 10.083-7.525 10.42l-12.455.226c-5.779-.116-7.088-2.995-6.358-12.543l1.944-34.645ZM9.15 212.298l.054 2.966"/><path stroke="#FFF" stroke-width="4" d="M204.79 248.707c.118 6.529-1.788 14.727-5.365 21.276-3.613 6.613-8.593 10.993-14.397 11.098-6.129.111-11.057-2.829-14.552-7.491-3.523-4.7-5.54-11.111-5.658-17.633-.117-6.486 2.058-14.98 5.936-21.856 3.928-6.965 9.205-11.621 14.992-11.726 6.032-.109 10.657 3.033 13.896 7.989 3.27 5.005 5.029 11.753 5.148 18.343Zm158.713-27.198c.078 4.312-.658 9.566-2.425 13.683-1.787 4.165-4.335 6.589-7.663 6.649-1.801.033-3.148-.486-4.214-1.342-1.103-.885-2.016-2.221-2.741-3.966-1.466-3.526-1.973-8.25-2.054-12.701-.078-4.356.524-9.299 2.135-13.092 1.604-3.774 3.979-5.982 7.368-6.044 1.858-.033 3.282.446 4.413 1.236 1.153.805 2.113 2.012 2.887 3.588 1.57 3.196 2.214 7.584 2.294 11.989Z"/><path stroke="#FFF" stroke-linecap="round" stroke-linejoin="round" stroke-width="4" d="M200.369 205.565c19.379 0 21.481 22.438 20.565 54.181m0 .396h-15.819m16.412-16.215 121.017-21.356v-25.706m44.095-4.944v20.639a6 6 0 0 1-5.271 5.955L369.238 220"/></svg>