<svg version="1.1" id="Calque_1" xmlns="http://www.w3.org/2000/svg" x="0" y="0" viewBox="0 0 500 375" style="enable-background:new 0 0 500 375" xml:space="preserve"><style>.st1,.st2{fill:none;stroke:#fff;stroke-miterlimit:10}.st2{stroke-width:.5}</style><g id="Calque_2_00000011722998395564257800000003327131463140563074_"><path class="st1" d="m500.4 217.4-78.8 46.1M70.7 0l2.9 190.4-10.2 1.6s-4.4 46 2.2 59.1 32.1 34.3 51.4 47.1c19.3 12.8 92.3 56.9 114.9 55.5s107.3-44.1 119.7-53.3c10.3-13.3 27.2-55.6 39-74.8 8.4-13.6 19-28.8 34.7-20.4 11.6 9.3 8.6 37.1 4.4 43.4-2.9 4.1-8.6 8-8.6 8"/><path class="st1" d="M254.6 68.6 250.4 242l14.4 4H298s7.3-4 7.7-14.6c.4-10.6 5.5-160.9 5.5-160.9L305 60.3 284.9 50h-15.3l-15 18.6zM258.6 0v63.7M135.6 0v95.6s-3.3 3.3-4 14.6-4.7 107.4-1.5 130.2c3.3 22.7 12.8 26.4 12.8 26.4"/><path class="st1" d="m255.9 243.5-16.9 5s-6.3 73.3-10.1 77.5-10.8 7.1-22.6 3.5c-16.1-4.9-136.9-64.3-139.3-85.4-2.4-21.1-1.1-49.5-1.1-49.5l9-1.3-1.4-2.9"/><path class="st1" d="M232.6 308.9c-32.9-12.4-129.7-61.7-137.3-67.1-7.5-5.3-16.7-18.2-17.9-28.6-1.3-10.4-2.4-20-2.4-20M331.8 311.7c1 9.3-.3 24.3 12.2 33.9 10 8 25.1 11.8 29.2 13.1 4.1 1.3 12.3.2 21.8-8.8 7.4-7 12.5-15.4 18.4-33.9 4.3-13.6 10.8-38.5 7.4-61.1s-12.8-26.5-16.5-28.3c-3.8-1.8-11.7-3.3-11.7-3.3M500.4 226.9c-1-.1-3.4-3.8-3.3-7.6"/><path class="st2" d="M227.7 353.4c7.8.1 17-2.6 20.1-10.8 6.1-13.7 14.1-63.6 16.2-87.9l-24.9-6.3"/><path class="st2" d="M263.9 254.8c13.1 1.6 37.7-2.6 41.2-11.7 1.3-3.2.5-11.7.5-11.7M243.9 0s-1.7 36.2-1.8 40.2c-.2 5.9-6.3 28.1-40 43.4-43.3 7.7-102.9 19.4-108.3 18.6-5.4-.8-13.5-5.4-14.3-15C78.9 80 77.9 5.1 80.6 0M500.4 114.5S373 70.3 360.9 61.1s-14.5-33.3-14.8-43.2c-.3-9.2.2-17.9.2-17.9M500.4 26.6 475.9 0"/><path class="st2" d="M467.8 0s1.8 67.6-2.3 102.2c6.2 8.2 2 30.2.5 58.4-1.2 21.7-10 62.6-16.5 86.6"/><path class="st2" d="M468.7 122.1 359.1 97.6V80.1l109.3 30.4"/><path class="st1" d="M137.3 125.9c-.9.6-.8 5.2 0 6.3.8 1.1 25.5.1 26.4-.5s.8-5.3.5-6.1c-.4-.8-26-.3-26.9.3z"/></g></svg>
