<svg xmlns="http://www.w3.org/2000/svg" viewBox="0 0 500 375" style="enable-background:new 0 0 500 375" xml:space="preserve"><style>.st2,.st3{fill:none;stroke:#fff;stroke-miterlimit:10}.st3{stroke-width:.5}</style><g id="Calque_2"><path class="st2" d="M277.9 325.4c-3.8 18.8-15.6 30.8-35.3 35-17.6 0-29.7-12.7-38.9-38.1-8-22-5.3-49 22.2-56.3 3.2-.8 6.6-1 10.2-.6M84.2 245.2c-1.5 9.3-7.7 11.5-15.1 11.5-8.5 0-12.9-11.8-13.8-25.1-.8-11.1.1-19.1 6.3-20.7"/><path class="st2" d="M200 296.3 76.4 241.6S65.8 219.4 62 212.2s-9.3-9.7-10.2-2.8c-.8 6.9 2 17.9 2.7 19M418.7 50.8s12.2 6.9 15.7 13.6 5.3 14.4 7.3 30.2 1.2 131.9.6 142.8c2.6.9 5.5 1.1 6.8 2.2.7 2.4 2 15.9 2 15.9s1.5 21.8-1.8 30.4-19 24-26.4 30.9c-7.4 6.9-42.8 33.2-56 36.6s-38.8-8.4-38.8-8.4-56.6-21.8-58.2-23.4c-1.6-1.6-19-48.4-41-62.1-14.9-7.7-30.8-7-36.5 12.7-1.9 13.3 6.2 19.8 7.9 22.3M60.6 164.3s14.3-39.4 17-44.8c1.5-3.1 8.7-18.6 18-26.5s40.1-16.4 40.1-16.4l145.9-45.4 38.7-12s16.5-2.1 26.8 0 30.6 10 30.6 10"/><path class="st2" d="M55.1 229s-7.2-4.5-7.2-22.5c1-1.2 1.8-1.8 2.7-3.1 1-1.3 0-17.2 2.7-23.8M377.5 29.1c6.3 4.2 6.3 8 6.3 8l32.9 15.5s7.2-6.5 6.7-10.5-3.3-7.3-5.2-8.5c-1.9-1.2-12.1-7-13.7-7.3-1.7-.3-14.1-4.4-30 1.5M65.7 178.6l-5.6-.3s-.5.7-1.8.9c-1.3.2-10.8.5-13.6-.7-2.3-1-2.6-3-2.6-5-.1-2.9.6-12.1 2.2-14.6s6.4-3.7 11.6-2.8c5.3.8 5.1 13.1 5.1 13.1s3.2 0 4.1-.6c.3-.2 1.2 0 1.2 0-.1.2-.6 10-.6 10zM421 202.1l-8.7 2.5s-.5 3.2-.2 4c.3.8 11.1-1.9 11.5-3.2.4-1.5.1-4.2-2.6-3.3zM89.6 184.6v2.1s-6.4-.2-6.8-.7-.6-2.5-.3-2.5 6.6.5 7.1 1.1zM348.9 290l-.1-97s-5.8-7-6.8-7.5-7.9-.6-8.9 0-14.5 5.5-15.5 8.7 0 88.8 0 88.8-.1 7.3 5 8.9c5.1 1.6 18.9.8 19.9.7s6.4-2.6 6.4-2.6zM367.5 296.7l32.1-19.1.7 13.4-30.8 21.2z"/><path class="st3" d="M60 177.9c.3-1.4.5-6.3.6-8.2M48.9 179.1c-3-1-4.7-2-4.6-6 .1-3.9 0-10.9 1.7-14 .8-1.4 4.2-2.9 5.9-3.1M194.3 293.8c-15.2-23.5.2-41.4 5.4-44.5 5.2-3 17.6-13.5 44.9 13.3 19.6 3.5 56.6 16.8 73.1 20.4M361.1 323.8c12.2-6.8 62.4-43 66.1-46.2 1.8-1.5 12.6-10.7 14-37.2l6.5 1.4 2.1 16.1s1.1 7.4-.5 20.6c-1.7 14.1-54.4 53.9-77.5 62.4-11.2 4.1-9.4-5.3-11-20.7-.9-8.1-3.7-25.3-3.7-25.3l-10.8-3.7M441.3 240.2l.6-2.4M318.4 287.8c3.9 11.1 23.5 10.9 26.9 11.1 4.3-.2 2 55 15.7 55M345.5 299l11.4-3.9M51 203.3c1.5-5.5 8.5-6.3 15.9 10.3s10.9 28.6 10.9 28.6"/><path class="st3" d="M401.5 45.5c1.6 9.1 1.4 17.7 1.2 21.4-.2 2.5-1.3 4.9-2.6 7 3.1 16.7 5.7 92.6 4 112.6 2 4.1 1.6 3.9 2.4 8.7 1 8.5 4.5 76.4-3.7 100.2"/><path class="st3" d="m353.7 64.3 1.2 115.6s9.4 11.6 15.5 12.5 59.3-11.3 59.3-11.3 7.3-6 8-13.7c.7-7.7-2.2-70.4-3.4-76.2-1.5-7.4-71-32.9-80.6-26.9zM98.8 162.3s-.9-36.5 0-43.4c.5-3.5.8-8.6 9.9-11.2S275 71.6 275 71.6s20.4-7.1 21.2 11c.8 18-.7 59.4-1.6 63.5-.8 4.2-16.2 27.5-24.6 30.6-8.4 3.1-161.6-4.4-161.6-4.4s-9.5 1.5-9.6-10zM61 166.9s13.9-36.6 15.4-39.5c1.3-2.8 11.5-8.5 12.7-7.3 1.3 3.7-.7 44.1-.9 45.4-.2 1.4-1.5 8.4-9.8 11.4-6 2.4-20.6 5.7-21.5 4.3-.2-.5 0-1.8 0-1.8"/><path class="st3" d="M99.9 251.6c-4.3-9-6.2-23.6-6.7-30-.5-6.4-.1-107.3-.1-109.5-.6-1-15.2 6.2-16.9 10.4"/></g></svg>