<svg width="500" height="375" fill="none" xmlns="http://www.w3.org/2000/svg">
  <g clip-path="url(#a)">
    <g clip-path="url(#b)">
      <path d="M-64.674 293.861S-35.308 83.521 214.02 43.16c0 0 220.535-31.247 319.562 180.974" stroke="#fff" stroke-width=".651" stroke-miterlimit="10"/>
      <path d="M16.645 296.193c-8.463 3.723-15.363-6.347-17.342-13.319-2.676-9.414 2.037-18.553 7.382-26.04 6.171-8.638 13.072-16.808 19.634-25.154l20.024-25.44c12.72-16.158 24.998-32.856 38.799-48.121 12.499-13.821 26.846-25.447 43.72-33.5 32.705-15.623 69.948-18.26 105.648-18.598 19.907-.189 39.893-.059 59.767 1.171 20.357 1.263 40.817 3.997 60.281 10.286 16.744 5.41 32.791 13.469 46.474 24.601 13.684 11.131 23.781 25.154 31.007 41.266 7.226 16.111 12.753 33.31 24.789 46.558 12.538 13.846 31.898 23.943 36.82 43.284 2.044 7.981.547 17.342-5.169 23.527-7.004 7.59-17.681 6.731-26.69 3.717-9.57-3.255-18.703-8.053-27.875-12.239-9.362-4.277-18.736-8.528-28.169-12.642-36.923-16.118-75.065-30.114-115.276-34.958-41.598-5.012-83.853-1.211-124.703 7.473-41.233 8.756-81.204 22.485-120.595 37.302a2551.583 2551.583 0 0 0-28.858 11.067c-.286.11-.163.579.13.468 40.752-15.74 81.725-31.247 124.039-42.314 42.522-11.118 86.581-17.7 130.633-15.2a303.989 303.989 0 0 1 64.311 10.715c20.617 5.742 40.661 13.345 60.346 21.678 19.465 8.241 38.532 17.362 57.853 25.922 7.864 3.489 16.926 7.005 25.649 4.909 7.161-1.726 12.245-7.331 14.439-14.211 5.546-17.414-7.708-32.595-19.777-43.311-7.551-6.698-15.467-13.019-21.45-21.261-5.527-7.584-9.517-16.125-13.202-24.737-3.606-8.404-6.933-16.939-11.21-25.096a101.064 101.064 0 0 0-15.077-21.365c-11.776-12.792-26.592-22.557-42.418-29.568-37.392-16.6-79.296-17.238-119.495-17.537-36.494-.274-74.31.462-109.02 13.02a134.906 134.906 0 0 0-45.992 27.718c-15.097 13.984-27.374 30.766-40.055 46.871l-41.865 53.179c-5.631 7.161-12.03 14.394-14.856 23.214a23.588 23.588 0 0 0 3.392 21.379c3.255 4.557 8.56 8.15 14.211 5.663.286-.123.04-.546-.247-.416l-.007.039Z" fill="#fff"/>
      <path d="M246.569 391.442c21.572 0 39.059-17.487 39.059-39.059 0-21.571-17.487-39.059-39.059-39.059s-39.059 17.488-39.059 39.059c0 21.572 17.487 39.059 39.059 39.059ZM116.694 261.027s-83.183 68.152 28.552 215.157m224.303-215.157s99.477 29.744-19.237 215.157" stroke="#fff" stroke-width=".651" stroke-miterlimit="10"/>
      <path d="M178.538 241.061c34.335 0 62.169-27.834 62.169-62.169 0-34.335-27.834-62.169-62.169-62.169-34.335 0-62.169 27.834-62.169 62.169 0 34.335 27.834 62.169 62.169 62.169Zm153.633 3.254c34.335 0 62.169-27.834 62.169-62.169 0-34.335-27.834-62.169-62.169-62.169-34.335 0-62.169 27.834-62.169 62.169 0 34.335 27.834 62.169 62.169 62.169Zm-243.145-6.504c13.663 0 24.738-11.076 24.738-24.738 0-13.662-11.075-24.737-24.737-24.737-13.663 0-24.738 11.075-24.738 24.737 0 13.662 11.075 24.738 24.737 24.738Zm330.053 3.258c13.662 0 24.738-11.076 24.738-24.738 0-13.662-11.076-24.737-24.738-24.737-13.662 0-24.737 11.075-24.737 24.737 0 13.662 11.075 24.738 24.737 24.738Zm-287.083-30.603 4.557-3.255m-9.768-5.21 5.208-1.849m-8.464-7.262 5.859-1.796m-7.812-6.668h5.208m-5.208-9.922h5.208m-3.255-8.738 5.859 1.94m-2.603-10.694 5.208 2.115m.003-10.557 4.557 3.021m0-10.251 4.557 4.68m2.601-10.415 3.906 3.906m4.555-9.116 2.695 5.207m5.121-7.817 1.817 5.208m7.295-7.805 1.751 5.207m7.686-5.207v5.207m8.902-5.207v5.207m9.944-2.61-2.408 5.208m10.581-1.29-3.04 5.859m10.253-.003-3.021 3.782m9.655 2.331-4.831 4.895m11.165 3.308-4.557 2.604m9.111 4.56-4.557 2.5m6.936 6.16-4.654 1.374m6.438 7.845h-6.438m6.438 9.044-6.438-1.536m4.651 11.182-6.933-2.721m3.467 11.459-5.742-3.268m1.065 11.993-5.124-4.231m68.416 4.235 4.974-3.255m-13.036-16.924 5.13-1.302m-5.13-21.254 5.13 1.465m2.932-19.93 3.906 2.604m11.479-18.225 2.917 5.084m17.339-13.553 1.217 5.208m20.991-5.208-1.218 5.208m21.238 3.261-2.929 5.084m18.31 10.537-5.859 2.604m13.424 39.768-6.1-1.36m20.26 16.933 3.418 3.255m4.406-12.368 1.211 3.646m9.205-6.255v6.249m11.053-3.128-1.939 4.036m8.536 4.565-4.882 3.255m-362.092-8.727 4.407 4.491m3.15-12.038 1.68 4.283m9.015-8.197v7.265m10.909-3.351-2.727 5.208m9.765 3.901-5.357 4.557" stroke="#fff" stroke-width="1.953" stroke-miterlimit="10"/>
      <path d="M-64.674 110.958s93.163-52.17 124.41-53.472c0 0 77.715-34.47 111.117-34.164M-51.213 127.795s27.83-1.953 110.4-48.511c0 0 117.38-58.23 252.303-37.757 0 0 101.436 16.08 183.285 56.043 0 0 15.291 9.55 38.805 13.365m-178.875-87.63s72.006.09 130.36 43.818M16.925 243.199S14.9 280.403 61.4 279.609m365.967 5.843s52.079 3.346 60.945-24.425" stroke="#fff" stroke-width=".651" stroke-miterlimit="10"/>
      <path d="M27.617 229.633s-.43 35.518 28.865 34.216c0 0 48.368-4.987 53.804-.866m355.741-24.518s-.079 26.69-13.749 29.294c0 0-53.563-4.062-69.747-1.705" stroke="#fff" stroke-width=".651" stroke-miterlimit="10"/>
      <path d="M178.54 187.036a8.137 8.137 0 1 0 0-16.274 8.138 8.138 0 1 0 0 16.274Zm-89.185 39.705a6.835 6.835 0 1 0 0-13.671 6.836 6.836 0 0 0 0 13.671Zm330.699 4.559a6.836 6.836 0 1 0-.001-13.671 6.836 6.836 0 0 0 .001 13.671Zm-85.93-41.014a8.137 8.137 0 1 0 0-16.274 8.138 8.138 0 1 0 0 16.274Z" stroke="#fff" stroke-width="1.953" stroke-miterlimit="10"/>
    </g>
  </g>
  <defs>
    <clipPath id="a">
      <path fill="#fff" transform="translate(17 23)" d="M0 0h468v329H0z"/>
    </clipPath>
    <clipPath id="b">
      <path fill="#fff" transform="translate(-65 23)" d="M0 0h598.874v453.567H0z"/>
    </clipPath>
  </defs>
</svg>
