<svg width="500" height="375" fill="none" xmlns="http://www.w3.org/2000/svg">
  <g clip-path="url(#a)" stroke="#fff" stroke-miterlimit="10">
    <path d="M487.631 87.33s-87.169-60.622-115.192-66.489c0 0-256.491-26.009-345.273 27.128 0 0-11.734 11.88-13.161 15.469m444.304 295.729-351.776-75.993s-24.889-62.779-46.86-77.352c0 0-23.403-15.919-45.667-15.024" stroke-width="1.5"/>
    <path d="M27.809 274.875c-11.228-21.09-9.744-43.823 3.314-50.775 13.058-6.952 32.746 4.509 43.975 25.599 11.228 21.091 9.744 43.823-3.314 50.775-13.059 6.952-32.747-4.509-43.975-25.599Zm17.007-77.07-14.065 3.867-9.348 5.866a36.29 36.29 0 0 0-7.548 7.916" stroke-width="1.5"/>
    <path d="M13.913 266.855a108.038 108.038 0 0 0 3.877 9.016c12.574 25.911 33.293 42.499 49.157 40.651 0 0 40.422-3.672 55.699-29.871m364.985 61.541L98.191 264.02M390.619 27.765s-71.764-.631-82.075 10.354c0 0-1.125 1.57 1.119 2.987 0 0 79.689 66.069 104.926 91.965 0 0 9.528 10.536 35.425 10.536 0 0 30.399-.338 37.644-6.615" stroke-width="1.5"/>
    <path d="M487.631 170.621s-12.359-2.165-37.645-27.016" stroke-width=".489"/>
    <path d="M292.673 148.433c-117.705-9.416-235.562-33.191-235.562-33.191-39.013-11.098-40.02-25.735-40.02-25.735.67-16.657 27.74-33.792 27.74-33.792C81.76 39.58 195.666 35.533 195.666 35.533c73.334-1.677 97.26 13.792 97.26 13.792 47.481 27.578 95.729 82.133 105.033 94.277l25.388 27.016s13.454 12.555 21.511 44.841c0 0 6.844 53.92-9.352 121.46" stroke-width="1.5"/>
    <path d="M185.568 35.414s-3.369 64.709 4.703 101.689l-2.699 29.255s5.378 8.751 5.73 15.473c0 0 6.722 54.815 14.124 75.328l2.166 30.933" stroke-width="1.5"/>
    <path d="M292.884 150.036s28.228 5.211 93.68-5.251" stroke-width=".489"/>
    <path d="M365.757 141.23s16.099-.65 21.179 3.984c0 0-15.244 10.311-26.308 13.303 0 0-4.781-2.503-12.999-1.403 0 0-49.925 1.55-51.72 1.403 0 0-4.781-1.349-3.588-8.37 1.193-7.02 7.925-24.068 7.925-24.068s15.243-11.806 31.386-14.349c0 0 19.282 4.787 24.513 10.912 0 0 3.887 2.689 9.866 19.282l3.545 5.349" stroke-width="1.5"/>
    <path d="M292.882 145.415s-84.338-7.876-85.908-10.266c0 0-12.54-71.451-9.743-93.867 0 0 53.69-2.02 89.115 11.88 0 0 33.405 17.492 105.375 90.469 0 0-6.468 6.698-13.474 6.957M174.019 41.152s-6.052 67.139 1.12 90.01c0 0-104.901-11.499-127.346-22-3.364-1.57-28.043-12.33-26.459-23.032 0 0 2.933-12.388 25.11-28.756 0 .039 40.582-12.96 127.575-16.222Z" stroke-width=".489"/>
    <path d="M79.111 46.59s-25.28 48.214-27.637 66.978c0 0-14.91 13.581-16.93 26.136l1.14 6.688s-3.506 25.207 5.69 42.284" stroke-width=".489"/>
    <path d="M13.854 185.502c.151.147 54.266-13.689 88.611 79.445m141.842-90.289s-3.139-7.064-32.961-9.421c0 0-3.139-2.038-3.808-3.486 0 0-13.904-2.566-14.012 3.486 0 0-2.019 7.29 16.7 8.634 0 0 37.107 6.615 34.081.787Z" stroke-width=".489"/>
    <path d="M234.505 169.134c.161.049-6.277-16.422-26.097-6.233m26.096 14.048s-10.981 10.722-24.933-3.129M76.863 145.061c-.117-.763.748-4.033-11.435-5.828 0 0-8.893-.601-10.086-1.422l-1.046-1.868s-9.421-2.84-13.083 1.868c0 0-2.312 4.708 6.58 6.429 0 0 29.97 6.648 29.07.821Z" stroke-width=".489"/>
    <path d="M71.064 140.395c-.537-.152-3.25-11.074-17.6-4.659m15.962 11.693s-7.754 8.482-17.111-2.269" stroke-width=".489"/>
  </g>
  <defs>
    <clipPath id="a">
      <path fill="#fff" transform="matrix(-1 0 0 1 487.955 14)" d="M0 0h474.956v346.119H0z"/>
    </clipPath>
  </defs>
</svg>
