<svg width="500" height="375" fill="none" xmlns="http://www.w3.org/2000/svg">
  <g clip-path="url(#a)">
    <g clip-path="url(#b)" stroke="#fff" stroke-miterlimit="10">
      <path d="M235.73 348.72c-31.019 0-56.164-22.09-56.164-49.34 0-27.25 25.145-49.341 56.164-49.341 31.019 0 56.165 22.091 56.165 49.341s-25.146 49.34-56.165 49.34Z" stroke-width=".525"/>
      <path d="M236.252 363.154c-42.469 0-76.897-29.963-76.897-66.925 0-36.961 34.428-66.924 76.897-66.924 42.47 0 76.898 29.963 76.898 66.924 0 36.962-34.428 66.925-76.898 66.925Z" stroke-width="1.575"/>
      <path d="m440.439 292.938-113.64 14.576s-4.2-86.608-86.084-90.283c0 0-104.833-16.272-93.884 82.147 0 0 3.076 20.209 7.8 35.431l-6.823-2.624s-4.2-16.797-12.073-18.897c0 0-55.157-1.648-68.237-25.195C64.873 283.369 57 269.721 57 269.721l-8.53-53.492 11.68-27.867-7.35-51.965s65.613-65.088 95.008-77.16l-1.05-9.449 15.222-13.647S323.649 5.959 440.439 14.216" stroke-width="1.575"/>
      <path d="M440.439 33.703s-223.345 7.16-247.49 33.405l-29.394 27.82v10.818s66.662 32.208 276.884 20.665" stroke-width="1.575"/>
      <path d="M440.439 37.25S232.841 49.265 206.596 66.587c0 0-28.344 18.371-35.693 28.87l4.199 10.497s85.559 28.345 265.337 15.747" stroke-width=".525"/>
      <path d="M424.655 38.238s21.821 59.314 27.07 80.31m-40.942-79.372s19.19 76.488 19.83 83.17m-128.618-73.76 17.862 75.864M294.18 49.457l16.75 74.688m-38.135-72.086s-29.982 64.389-39.955 97.458c0 0 5.28 55.959 18.896 61.413m188.703 62.523-118.779 8.042" stroke-width=".525"/>
      <path d="M329.045 281.006s-12.047-69.423-91.128-71.318c0 0-102.691-8.96-101.122 67.796 0 0-19.421 5.37-79.785-7.752" stroke-width=".525"/>
      <path d="M162.166 225.888 95.84 192.037l-7.47-6.299" stroke-width=".525"/>
      <path d="M57 132.293s41.468 19.327 48.292 20.377l2.624 8.923s-19.946 28.345-28.345 29.919c0 0-16.796 2.625-19.42-3.149" stroke-width="1.575"/>
      <path d="M53.892 144.125s27.253 18.109 28.565 46.133" stroke-width=".525"/>
      <path d="M58.983 130.363s49.981 17.06 53.13 21.784c0 0 2.624 8.398 1.575 12.597l-23.096 35.693s-24.182 21.059-41.745 18.141m259.055-65.908s-49.866 6.298-56.165 1.049c0 0-6.823-6.823 8.924-6.823 0 0 36.48-1.459 45.01 1.37 0 0 5.38 1.779 2.231 4.404Z" stroke-width=".525"/>
      <path d="M294.176 146.516s-10.929-11.401-27.468 0m29.542 7.464s-10.902 13.905-30.329 1.848" stroke-width=".525"/>
    </g>
  </g>
  <defs>
    <clipPath id="a">
      <path fill="#fff" transform="translate(15 12)" d="M0 0h469.827v351.983H0z"/>
    </clipPath>
    <clipPath id="b">
      <path fill="#fff" transform="matrix(-1 0 0 1 451.98 12)" d="M0 0h404.32v351.946H0z"/>
    </clipPath>
  </defs>
</svg>
