<svg width="500" height="375" fill="none" xmlns="http://www.w3.org/2000/svg">
  <g clip-path="url(#a)" stroke="#fff" stroke-miterlimit="10">
    <path d="M13.324 88.33s87.169-60.622 115.192-66.489c0 0 256.491-26.009 345.273 27.128 0 0 11.734 11.88 13.161 15.469M42.647 360.167l351.775-75.993s24.889-62.779 46.86-77.352c0 0 23.403-15.919 45.667-15.024" stroke-width="1.5"/>
    <path d="M473.146 275.875c11.228-21.09 9.744-43.823-3.314-50.775-13.058-6.952-32.746 4.509-43.974 25.599-11.229 21.091-9.745 43.823 3.314 50.775 13.058 6.952 32.746-4.509 43.974-25.599Zm-17.007-77.07 14.065 3.867 9.348 5.866a36.303 36.303 0 0 1 7.548 7.916" stroke-width="1.5"/>
    <path d="M487.042 267.855a108.094 108.094 0 0 1-3.876 9.016c-12.575 25.911-33.294 42.499-49.158 40.651 0 0-40.422-3.672-55.699-29.871M13.324 349.192l389.439-84.172M110.336 28.765s71.765-.631 82.075 10.354c0 0 1.125 1.57-1.119 2.987 0 0-79.689 66.069-104.926 91.965 0 0-9.528 10.536-35.425 10.536 0 0-30.399-.338-37.644-6.615" stroke-width="1.5"/>
    <path d="M13.324 171.621s12.36-2.165 37.645-27.016" stroke-width=".489"/>
    <path d="M208.282 149.433c117.705-9.416 235.562-33.191 235.562-33.191 39.013-11.098 40.02-25.735 40.02-25.735-.669-16.657-27.739-33.792-27.739-33.792-36.931-16.134-150.837-20.182-150.837-20.182-73.334-1.677-97.26 13.792-97.26 13.792-47.481 27.578-95.729 82.133-105.033 94.277l-25.388 27.016s-13.454 12.555-21.51 44.841c0 0-6.845 53.92 9.352 121.46" stroke-width="1.5"/>
    <path d="M315.387 36.414s3.369 64.709-4.703 101.689l2.699 29.255s-5.378 8.751-5.73 15.473c0 0-6.722 54.815-14.124 75.328l-2.166 30.933" stroke-width="1.5"/>
    <path d="M208.072 151.036s-28.229 5.211-93.681-5.251" stroke-width=".489"/>
    <path d="M135.198 142.23s-16.099-.65-21.178 3.984c0 0 15.243 10.311 26.307 13.303 0 0 4.781-2.503 12.999-1.403 0 0 49.926 1.55 51.72 1.403 0 0 4.781-1.349 3.588-8.37-1.193-7.02-7.925-24.068-7.925-24.068s-15.243-11.806-31.386-14.349c0 0-19.282 4.787-24.513 10.912 0 0-3.887 2.689-9.866 19.282l-3.544 5.349" stroke-width="1.5"/>
    <path d="M208.073 146.415s84.338-7.876 85.908-10.266c0 0 12.54-71.451 9.743-93.867 0 0-53.69-2.02-89.114 11.88 0 0-33.406 17.492-105.376 90.469 0 0 6.468 6.698 13.474 6.957M326.936 42.152s6.052 67.139-1.12 90.01c0 0 104.901-11.499 127.346-22 3.364-1.57 28.043-12.33 26.459-23.032 0 0-2.933-12.388-25.109-28.756 0 .039-40.583-12.96-127.576-16.222Z" stroke-width=".489"/>
    <path d="M421.844 47.59s25.28 48.214 27.637 66.978c0 0 14.911 13.581 16.93 26.136l-1.139 6.688s3.505 25.207-5.691 42.284" stroke-width=".489"/>
    <path d="M487.101 186.502c-.151.147-54.266-13.689-88.611 79.445m-141.842-90.289s3.139-7.064 32.961-9.421c0 0 3.139-2.038 3.809-3.486 0 0 13.904-2.566 14.011 3.486 0 0 2.019 7.29-16.7 8.634 0 0-37.107 6.615-34.081.787Z" stroke-width=".489"/>
    <path d="M266.45 170.134c-.161.049 6.278-16.422 26.097-6.233m-26.096 14.048s10.981 10.722 24.934-3.129m132.707-28.759c.117-.763-.748-4.033 11.435-5.828 0 0 8.893-.601 10.086-1.422l1.046-1.868s9.421-2.84 13.083 1.868c0 0 2.312 4.708-6.58 6.429 0 0-29.969 6.648-29.07.821Z" stroke-width=".489"/>
    <path d="M429.891 141.395c.537-.152 3.251-11.074 17.6-4.659m-15.962 11.693s7.754 8.482 17.111-2.269" stroke-width=".489"/>
  </g>
  <defs>
    <clipPath id="a">
      <path fill="#fff" transform="translate(13 15)" d="M0 0h474.956v346.119H0z"/>
    </clipPath>
  </defs>
</svg>
