<svg width="500" height="375" fill="none" xmlns="http://www.w3.org/2000/svg">
  <g clip-path="url(#a)">
    <g clip-path="url(#b)" stroke="#fff" stroke-miterlimit="10">
      <path d="M264.098 348.72c31.019 0 56.164-22.09 56.164-49.34 0-27.25-25.145-49.341-56.164-49.341-31.019 0-56.164 22.091-56.164 49.341s25.145 49.34 56.164 49.34Z" stroke-width=".525"/>
      <path d="M263.576 363.154c42.469 0 76.898-29.963 76.898-66.925 0-36.961-34.429-66.924-76.898-66.924-42.47 0-76.898 29.963-76.898 66.924 0 36.962 34.428 66.925 76.898 66.925Z" stroke-width="1.575"/>
      <path d="m59.389 292.938 113.641 14.576s4.199-86.608 86.083-90.283c0 0 104.833-16.272 93.884 82.147 0 0-3.076 20.209-7.8 35.431l6.824-2.624s4.199-16.797 12.072-18.897c0 0 55.157-1.648 68.237-25.195 2.625-4.724 10.498-18.372 10.498-18.372l8.53-53.492-11.679-27.867 7.349-51.965s-65.613-65.088-95.007-77.16l1.049-9.449-15.222-13.647S176.179 5.959 59.388 14.216" stroke-width="1.575"/>
      <path d="M59.389 33.703s223.345 7.16 247.49 33.405l29.395 27.82v10.818s-66.663 32.208-276.885 20.665" stroke-width="1.575"/>
      <path d="M59.389 37.25s207.598 12.015 233.843 29.337c0 0 28.344 18.371 35.693 28.87l-4.199 10.497s-85.559 28.345-265.337 15.747" stroke-width=".525"/>
      <path d="M75.173 38.238s-21.82 59.314-27.07 80.31m40.943-79.372s-19.19 76.488-19.831 83.17m128.618-73.76-17.862 75.864m25.677-74.993-16.75 74.688m38.135-72.086s29.983 64.389 39.956 97.458c0 0-5.281 55.959-18.897 61.413M59.389 273.453l118.779 8.042" stroke-width=".525"/>
      <path d="M170.783 281.006s12.047-69.423 91.128-71.318c0 0 102.692-8.96 101.122 67.796 0 0 19.421 5.37 79.785-7.752" stroke-width=".525"/>
      <path d="m337.662 225.888 66.327-33.851 7.469-6.299" stroke-width=".525"/>
      <path d="M442.827 132.293s-41.467 19.327-48.29 20.377l-2.625 8.923s19.946 28.345 28.345 29.919c0 0 16.797 2.625 19.421-3.149" stroke-width="1.575"/>
      <path d="M445.936 144.125s-27.253 18.109-28.565 46.133" stroke-width=".525"/>
      <path d="M440.846 130.363s-49.981 17.06-53.131 21.784c0 0-2.624 8.398-1.575 12.597l23.096 35.693s24.182 21.059 41.745 18.141M191.926 152.67s49.866 6.298 56.165 1.049c0 0 6.823-6.823-8.924-6.823 0 0-36.48-1.459-45.01 1.37 0 0-5.38 1.779-2.231 4.404Z" stroke-width=".525"/>
      <path d="M205.652 146.516s10.929-11.401 27.468 0m-29.542 7.464s10.902 13.905 30.329 1.848" stroke-width=".525"/>
    </g>
  </g>
  <defs>
    <clipPath id="a">
      <path fill="#fff" transform="matrix(-1 0 0 1 484.828 12)" d="M0 0h469.827v351.983H0z"/>
    </clipPath>
    <clipPath id="b">
      <path fill="#fff" transform="translate(47.848 12)" d="M0 0h404.32v351.946H0z"/>
    </clipPath>
  </defs>
</svg>
