<svg width="500" height="375" fill="none" xmlns="http://www.w3.org/2000/svg">
  <g clip-path="url(#a)">
    <g clip-path="url(#b)" stroke="#fff" stroke-miterlimit="10">
      <path d="M486.726 81.028c-17.054-30.257-43.46-49.512-43.46-49.512l-18.704-11.002C218.263 6.76 125.291 40.869 125.291 40.869l-12.103 15.953c-33.008 24.756-81.496 80.666-81.496 80.666s-.473 38.162 4.478 42.564l-13.203 24.755 5.501 61.065 13.203 26.956s99.574 51.712 234.356 59.964c0 0 37.959-5.501 78.668-21.455 0 0 12.103-17.054 23.656-71.517 0 0 13.753-79.768 48.411-60.514 0 0 16.504 8.252 4.401 61.064l79.769-92.421s.55-53.363 9.902-56.114c0 0 5.502-2.2 2.201 14.854" stroke-width="1.65"/>
      <path d="M113.188 56.828s175.492-6.052 206.849 9.352c0 0-12.103 40.71-25.581 60.228 0 0-8.527 14.04-50.337 14.59 0 0-206.298-4.038-193.095-24.756M425.111 37.02s29.157 56.57 29.427 68.166l14.584 14.353s10.452 44.01 5.501 84.17m-84.418-85.674 16.752 26.808v6.112s17.835 24.811 14.303 46.15m89.788-31.417-77.134 80.935" stroke-width="1.65"/>
      <path d="m282.628 134.393-7.977 26.158-4.126 61.312s-13.203 55.563-46.21 55.013c0 0-141.384-8.802-179.343-36.858 0 0-23.105-12.07 0-53.363l-8.802-53.913" stroke-width="1.65"/>
      <path d="m40.294 157.34 27.782 16.663s-4.401 19.838-23.106 12.653l-8.802-6.051m31.91-6.601 136.432 18.154 68.712-10.546" stroke-width="1.65"/>
      <path d="M276.934 153.535s62.116 3.301 65.262 13.825c0 0 5.348 17.098-11.156 41.854 0 0-9.386 8.802-60.256 8.802H248.52c-24.756-.55-44.01-25.856-44.01-25.856m131.578 8.481 53.814 22.324m-298.17-41.809 98.473 13.203-1.909 31.396-97.923-13.753 1.359-30.846Zm-52.201 106.71s-5.011-14.854 10.942-9.902c0 0 105.625 35.208 160.088 39.609 0 0 33.558 1.65 48.962 25.306 0 0 8.252 7.152 16.504 9.902m148.488-62.959c3.376-29.085-2.206-53.628-12.467-54.819-10.262-1.191-21.316 21.422-24.692 50.506-3.375 29.085 2.207 53.628 12.468 54.819 10.261 1.191 21.316-21.421 24.691-50.506Z" stroke-width="1.65"/>
      <path d="M393.755 214.163s37.958-8.252 36.308 51.162c0 0 0 90.772-36.308 92.422 0 0-42.526-6.843-62.165-18.154M486.727 86.531S458.121 35.37 430.614 37.02c0 0-65.465 4.4-80.869 26.956 0 0-15.404 31.907-2.2 42.91 0 0 14.853 16.504 68.766 9.352 0 0 60.514-12.95 69.316-19.254 3.851-2.75 25.306-2.2 25.306-2.2 8.802-3.302-2.751-15.955-2.751-15.955-2.2-2.75-15.403-4.4-15.403-4.4-8.252-1.1-5.501 14.176-5.501 14.176s1.1 6.178 1.1 6.728" stroke-width="1.65"/>
      <path d="m475.957 70.813 8.021 19.573s2.2 3.3-1.651 4.951l-27.858 8.907m-68.416 10.892c-11.168-.22-22.556-1.952-33.008-6.051 0 0-5.501-3.928-6.475-9.11-.677-3.543-.127-28.299 8.125-34.35 0 0 6.387-6.602 22.638-12.906m3.794-1.397c10.397-3.659 24.277-7.048 42.36-8.803 0 0 23.501 49.721 25.229 61.72 0 0-27.358 10.359-57.764 10.848M42.954 190.43s-2.382 34.729 22.924 44.632c0 0 70.296 25.955 182.308 30.857M39.867 289.144s.154-8.968 8.406-5.117c0 0 86.921 31.358 151.286 40.16 0 0 56.856 3.141 60.608 27.424M28.469 265.876s.28-18.309 10.32-14.656c0 0 76.6 29.509 192.128 42.162 0 0 22.555 0 37.408 17.604 0 0 13.754 11.003 48.412 2.201 0 0 34.108-11.3 54.463-24.079m-80.993-134.595s59.535-4.164 58.985 17.841c0 0-.55 36.308-4.951 48.961 0 0-14.254 25.306-33.255 29.421 0 0-41.205 6.321-55.134 5.502M22.967 204.812s6.425 10.695 11.74 13.6m78.481-161.587s7.701-12.103 35.758-12.653c0 0 149.751-5.969 164.489 19.805" stroke-width=".55"/>
      <path d="M144.973 44.331s109.597-16.663 176.712 6.442c0 0 2.751 11.553-1.65 15.404m1.653-15.404s68.975-33.503 123.058-18.127M31.691 137.488S317.836 163.548 320.036 174c0 0 10.453 6.602 11.003 35.209" stroke-width=".55"/>
    </g>
  </g>
  <defs>
    <clipPath id="a">
      <path fill="#fff" transform="translate(22.125 16.426)" d="M0 0h456.755v342.189H0z"/>
    </clipPath>
    <clipPath id="b">
      <path fill="#fff" transform="translate(22.125 16.426)" d="M0 0h504.343v342.153H0z"/>
    </clipPath>
  </defs>
</svg>
