<svg width="500" height="375" fill="none" xmlns="http://www.w3.org/2000/svg">
  <g clip-path="url(#a)" stroke="#fff" stroke-miterlimit="10">
    <path d="M483.002 17.639s-68.133-6.21-141.329 5.32c0 0-32.381 11.535-86.057 56.781l-27.085 6.21S88.372 98.375 41.351 138.746c0 0-18.63 19.076-15.96 60.772l-.262 11.09-3.139 2.665h-3.36s.44 20.517 3.768 33.493c0 0 7.322 14.969 13.644 22.621 0 0 4.323 21.629 30.272 41.923 0 0 48.244 53.231 147.06 25.634 0 0 .996-102.477 60.549-131.753 0 0 75.194-33.604 88.833.663 0 0 20.628 40.927 4.658 75.527l115.594-47.466" stroke-width="1.5"/>
    <path d="M343.521 302.871c11.558-30.046 2.229-61.597-20.837-70.469-23.066-8.873-51.134 8.292-62.692 38.338-11.558 30.047-2.229 61.597 20.837 70.47 23.066 8.873 51.134-8.292 62.692-38.339Z" stroke-width="1.5"/>
    <path d="m296.562 196.91 23.346 6.056c32.952 11.327 47.718 55.267 32.981 98.138-12.749 37.034-43.312 61.159-72.645 59.741 0 0-30.688-.889-50.059-18.04a103.401 103.401 0 0 1-15.96-19.777" stroke-width="1.5"/>
    <path d="M18.986 213.02c.639 16.778 23.598 36.274 23.477 35.195l2.215 30.311s-7.342-8.222-8.28-9.388M25.494 211.16s10.423 21.407 26.287 33.605v9.092" stroke-width=".57"/>
    <path d="M42.455 248.214s6.66-1.673 9.325-3.448m-1.997 13.754s13.543 11.535 18.186 19.075c0 0 18.92 41.536 27.505 49.463" stroke-width=".57"/>
    <path d="M78.842 282.25s65.414 16.638 82.952 15.327l1.775 23.699s-33.716 9.538-60.554-4.217c0 .014-23.288-30.374-24.173-34.809ZM40.27 140s27.409 25.634 53.434 34.968l10.055 6.805s-19.375 6.012-17.01 29.387l-16.115 6.839s-5.475 4.73-7.1 10.205c0 0-29.368-6.795-38.344-40.661" stroke-width="1.5"/>
    <path d="M102.659 182.187s65.777-17.717 114.815-13.059l17.301 6.137s-52.796 42.436-55.698 45.764c0 0-15.08 12.42-25.508 5.32 0 0-55.374-16.86-66.837-15.196M332.358 27.106s89.389-10.35 127.54 2.07c0 0-39.926 58.11-45.464 67.871 0 0-9.76 6.878-20.41 5.103 0 0-102.975-13.06-140.26-15.39 0 0-9.03-1.026 1.838-7.013" stroke-width="1.5"/>
    <path d="m398.015 102.434-9.465 15.477s-8.058 6.19-17.15 7.965c0 0-117.568 24.812-162.146 42.683m67.561 35.378s-3.309-14.916-42.049-28.671M483.004 30.504s-11.497 2.365-18.742 13.015l-36.526 56.926 5.175 2.81 1.896.629m-7.072-3.443-8.43 20.222-3.99 29.943-3.038 97.433" stroke-width=".57"/>
    <path d="m372.801 262.334 110.201-39.896m-.587-114.747-30.388 1.001-1.553 2.326c-12.091-.662-17.412-9.315-17.412-9.315s46.876.779 49.943 0" stroke-width="1.5"/>
    <path d="m449.359 101.921 6.878-16.856s7.874-7.762 15.961-7.874c0 0 8.981 1.33 10.311 1.887" stroke-width="1.5"/>
    <path d="M452.389 94.504a32.355 32.355 0 0 0-19.346 7.197" stroke-width="1.5"/>
    <path d="m366.065 282.686-8.145-5.436" stroke-width="1.451"/>
  </g>
  <defs>
    <clipPath id="a">
      <path fill="#fff" transform="translate(17.629 15)" d="M0 0h465.742v346.869H0z"/>
    </clipPath>
  </defs>
</svg>
