<svg width="490" height="380" viewBox="0 0 490 380" fill="none" xmlns="http://www.w3.org/2000/svg">
<path d="M9.64824 289.861C7.42594 311.478 6.13296 358.955 18.7395 375.925H76.3174C77.5296 372.693 79.9539 364.288 79.9539 356.53L9.64824 289.861ZM480.352 289.633C482.575 311.25 483.867 358.726 471.26 375.697H413.682C412.47 372.464 410.046 364.06 410.046 356.302L480.352 289.633ZM55.4869 115.788C52.0524 110.939 43.7292 94.454 45.1838 79.4231C38.3148 78.413 22.3947 78.3322 13.6672 86.09L8.2124 104.273L13.6672 115.788L37.9105 119.425L44.5774 129.728L55.4869 115.788ZM434.288 112.657C437.722 107.808 447.258 93.014 445.803 77.9831C452.672 76.973 468.592 76.8922 477.32 84.65L482.774 102.833L477.32 114.348L453.076 117.985L445.803 129.5L434.288 112.657ZM138.52 13.8652C125.186 24.3971 105.186 38.9431 69.4273 105.99C124.782 101.343 259.858 94.8379 420.349 105.99C412.267 88.4134 389.196 45.3815 361.559 13.8652H138.52ZM45.1827 129.856L91.8511 181.979L100.336 218.344L11.8482 197.737L45.1827 129.856ZM444.592 130.839L397.924 182.962L389.439 219.327L477.927 198.72L444.592 130.839ZM319.132 260.541H162.763V295.088H319.132V260.541Z" stroke="white" stroke-width="3.6365" stroke-linecap="round"/>
<path d="M225.19 5.03263C265.615 4.94632 311.835 7.22275 359.74 13.865C375.498 26.1887 412.106 63.564 432.47 114.475L471.259 155.689C481.765 190.235 494.775 276.905 462.774 347.211C412.328 355.5 319.858 365.733 222.766 365.948" stroke="white" stroke-width="3.6365" stroke-linecap="round"/>
<path d="M232.463 5.00232C192.038 4.91601 178.166 7.22274 130.261 13.865C114.502 26.1888 77.8954 63.564 57.531 114.475L18.7417 155.689C8.23627 190.235 -4.7743 276.905 27.2269 347.211C77.6737 355.5 137.188 366.013 234.281 366.228" stroke="white" stroke-width="3.6365" stroke-linecap="round"/>
</svg>
