<svg width="36" height="30" viewBox="0 0 36 30" fill="none" xmlns="http://www.w3.org/2000/svg">
<circle cx="25.7996" cy="17.4002" r="10.2" fill="#2B52BE" fill-opacity="0.12"/>
<path d="M27.7726 18.8441V13.0305C28.0206 12.9491 28.2489 12.8168 28.4429 12.642C28.6369 12.4673 28.7922 12.2539 28.8989 12.0156C29.0056 11.7774 29.0614 11.5194 29.0626 11.2584C29.0639 10.9973 29.0106 10.7388 28.9062 10.4995C28.8018 10.2603 28.6485 10.0454 28.4563 9.8688C28.264 9.69218 28.037 9.55766 27.7897 9.47387C27.5424 9.39008 27.2804 9.35885 27.0203 9.3822C26.7603 9.40556 26.508 9.48296 26.2796 9.60947L22.2769 5.57171C22.3995 5.34259 22.4732 5.09048 22.4932 4.83137C22.5131 4.57227 22.479 4.31184 22.393 4.06661C22.307 3.82139 22.1709 3.59673 21.9935 3.4069C21.816 3.21707 21.601 3.06622 21.3621 2.96391C21.1232 2.86161 20.8656 2.8101 20.6058 2.81264C20.3459 2.81518 20.0894 2.87173 19.8526 2.97869C19.6157 3.08565 19.4037 3.24069 19.23 3.43395C19.0563 3.62722 18.9246 3.8545 18.8434 4.10136H11.6236C11.5434 3.8562 11.4135 3.63023 11.242 3.43759C11.0704 3.24494 10.861 3.08977 10.6267 2.98178C10.3925 2.87378 10.1385 2.8153 9.8806 2.80997C9.62272 2.80464 9.36651 2.8526 9.12801 2.95083C8.8895 3.04906 8.67384 3.19546 8.4945 3.38086C8.31517 3.56626 8.17603 3.78667 8.08579 4.02831C7.99554 4.26995 7.95614 4.52761 7.97004 4.78518C7.98394 5.04274 8.05084 5.29467 8.16657 5.52519L4.11827 9.57314C3.88545 9.45655 3.63091 9.38975 3.37085 9.37697C3.11079 9.3642 2.85092 9.40574 2.6078 9.49895C2.36468 9.59216 2.14365 9.735 1.95879 9.91836C1.77392 10.1017 1.62928 10.3216 1.53409 10.5639C1.43889 10.8063 1.39522 11.0658 1.40586 11.3259C1.41651 11.5861 1.48123 11.8412 1.59591 12.0749C1.71058 12.3087 1.8727 12.516 2.07193 12.6836C2.27115 12.8513 2.50311 12.9756 2.75303 13.0486V15.5447C2.49673 15.6197 2.25939 15.7485 2.05692 15.9226C1.85445 16.0967 1.6915 16.3121 1.579 16.5543C1.4665 16.7964 1.40703 17.0599 1.40458 17.3269C1.40213 17.5939 1.45676 17.8584 1.5648 18.1026C1.67285 18.3468 1.83181 18.5651 2.03106 18.7429C2.23031 18.9207 2.46524 19.0538 2.72013 19.1335C2.97501 19.2131 3.24397 19.2374 3.50899 19.2046C3.77401 19.1719 4.02899 19.0829 4.25684 18.9437L4.95241 19.6639C4.81477 19.8943 4.72822 20.1516 4.6986 20.4183C4.66898 20.6851 4.69699 20.9551 4.78072 21.2101C4.86446 21.4651 5.00197 21.6991 5.18397 21.8964C5.36596 22.0937 5.58819 22.2496 5.83563 22.3535C6.08306 22.4575 6.34994 22.5071 6.61822 22.4991C6.88649 22.491 7.14991 22.4254 7.39065 22.3068C7.63139 22.1881 7.84385 22.0191 8.01366 21.8113C8.18347 21.6034 8.30667 21.3616 8.37493 21.102L13.6615 21.1264C13.7308 21.3756 13.8508 21.6079 14.0141 21.8085C14.1775 22.0091 14.3805 22.1737 14.6106 22.292C14.8406 22.4104 15.0926 22.4798 15.3508 22.496C15.609 22.5122 15.8677 22.4748 16.1108 22.3861L17.3106 24.1114C17.1313 24.3261 17.0024 24.5783 16.9332 24.8493C16.864 25.1203 16.8564 25.4034 16.9109 25.6778C16.9653 25.9522 17.0805 26.2109 17.248 26.4349C17.4154 26.659 17.6309 26.8427 17.8786 26.9727C18.1263 27.1026 18.4 27.1755 18.6795 27.1859C18.9591 27.1963 19.2374 27.144 19.4941 27.0329C19.7508 26.9218 19.9794 26.7546 20.163 26.5437C20.3467 26.3327 20.4809 26.0833 20.5556 25.8137H23.9742C24.0553 26.1064 24.2062 26.375 24.414 26.5964C24.6218 26.8178 24.8803 26.9855 25.1672 27.0849C25.4541 27.1843 25.7609 27.2125 26.0612 27.1672C26.3614 27.1218 26.6462 27.0041 26.8909 26.8243C27.1356 26.6445 27.333 26.408 27.4661 26.135C27.5991 25.8621 27.6639 25.5609 27.6548 25.2574C27.6457 24.9538 27.563 24.6571 27.4139 24.3926C27.2647 24.1281 27.0535 23.9038 26.7984 23.7389L27.2035 22.4993C27.6478 22.4953 28.0762 22.3336 28.4124 22.0431C28.7485 21.7526 28.9706 21.3521 29.039 20.9131C29.1073 20.4741 29.0175 20.0251 28.7856 19.6461C28.5536 19.2672 28.1946 18.9829 27.7726 18.8441ZM18.7491 23.4373C18.5174 23.4372 18.2877 23.4803 18.0718 23.5644L16.8824 21.8537C17.063 21.6464 17.1958 21.4019 17.2713 21.1375L25.387 21.1492C25.3907 21.1619 25.3942 21.1748 25.3982 21.1874L20.1356 24.0514C19.9601 23.8579 19.7462 23.7033 19.5074 23.5975C19.2686 23.4918 19.0103 23.4372 18.7491 23.4373ZM14.3185 19.145L10.6222 16.2211C10.6529 16.1515 10.6793 16.08 10.7012 16.0071H14.1407C14.2256 16.288 14.375 16.5453 14.577 16.7582C14.779 16.9712 15.028 17.1339 15.3041 17.2336L15.1744 18.7732C14.8622 18.8227 14.5677 18.9506 14.3185 19.145ZM6.56163 18.7498C6.23044 18.7495 5.90518 18.8376 5.61932 19.0048L4.90957 18.2699C5.07089 17.9878 5.15563 17.6685 5.15537 17.3436C5.15527 17.2733 5.15124 17.2032 5.1433 17.1334L7.34233 16.5026C7.4622 16.6831 7.61219 16.8417 7.78577 16.9714L6.90633 18.7819C6.79266 18.7606 6.67727 18.7499 6.56163 18.7498ZM4.48518 12.685L7.17897 14.7371C7.08065 14.9684 7.03011 15.2172 7.03037 15.4686C7.03037 15.5179 7.03289 15.5666 7.03664 15.615L4.80563 16.2551C4.53749 15.8796 4.14058 15.6159 3.69053 15.5143V13.079C3.98319 13.0133 4.25574 12.8782 4.48518 12.685ZM9.84287 6.5623C9.95916 6.56218 10.0752 6.55126 10.1895 6.52966L11.0499 8.35398C10.6624 8.64953 10.4051 9.08426 10.3325 9.56617L4.94772 10.3934C4.91169 10.3234 4.8713 10.2557 4.82678 10.1907L8.78409 6.23353C9.0955 6.44796 9.46477 6.56263 9.84287 6.5623ZM14.0239 10.2186H16.4431C16.5347 10.6638 16.7847 11.0608 17.1467 11.3357L16.2062 13.6132C15.9025 13.5688 15.5926 13.5999 15.3038 13.7038L13.615 11.0564C13.8198 10.8162 13.9605 10.5279 14.0239 10.2186ZM20.6241 6.5623C20.9849 6.56259 21.3381 6.4581 21.6407 6.26154L25.5987 10.2544C25.5465 10.3371 25.5009 10.4238 25.4623 10.5137L20.1378 9.59078C20.0719 9.10897 19.8213 8.67162 19.439 8.37109L20.263 6.52714C20.382 6.55053 20.5029 6.56231 20.6241 6.5623ZM25.358 20.2117L17.2938 20.1999C17.2757 20.1217 17.2525 20.0448 17.2245 19.9696L21.3437 16.9434C21.622 17.1623 21.9568 17.2977 22.3091 17.3338C22.6614 17.3698 23.0167 17.305 23.3336 17.147L25.6272 19.5853C25.4998 19.7758 25.4085 19.9881 25.358 20.2117ZM17.7684 15.0695C17.6729 14.6338 17.4255 14.2463 17.0703 13.9764L18.0108 11.6989C18.1001 11.7119 18.1902 11.7185 18.2804 11.7186C18.5394 11.7187 18.7955 11.6648 19.0325 11.5603L21.0156 14.3237C20.8455 14.5433 20.7265 14.798 20.6673 15.0694L17.7684 15.0695ZM15.9366 16.4061C15.7512 16.4061 15.5699 16.3511 15.4158 16.2481C15.2616 16.145 15.1414 15.9986 15.0705 15.8273C14.9995 15.656 14.981 15.4675 15.0171 15.2857C15.0533 15.1038 15.1426 14.9368 15.2737 14.8056C15.4048 14.6745 15.5719 14.5852 15.7537 14.5491C15.9356 14.5129 16.1241 14.5315 16.2954 14.6024C16.4667 14.6734 16.6131 14.7935 16.7161 14.9477C16.8191 15.1019 16.8741 15.2831 16.8741 15.4686C16.8738 15.7171 16.775 15.9554 16.5992 16.1311C16.4235 16.3069 16.1852 16.4058 15.9366 16.4061ZM14.1048 15.0695H10.7372C10.6663 14.7447 10.5101 14.4445 10.2847 14.2001L11.7019 11.6547C12.0805 11.7562 12.4816 11.7363 12.8483 11.5976L14.5287 14.2322C14.3185 14.4708 14.1726 14.7589 14.1048 15.0695ZM7.74996 13.9935L5.03039 11.9218C5.10562 11.7263 5.14736 11.5195 5.15385 11.3102L10.4303 10.4998C10.5289 10.7618 10.6846 10.9985 10.8863 11.1926L9.496 13.6894C9.20253 13.5916 8.88936 13.5682 8.5846 13.6212C8.27984 13.6743 7.99303 13.8022 7.74991 13.9935H7.74996ZM23.4366 15.4686C23.4366 15.654 23.3816 15.8352 23.2786 15.9894C23.1756 16.1436 23.0292 16.2637 22.8579 16.3347C22.6866 16.4056 22.4981 16.4242 22.3162 16.388C22.1344 16.3519 21.9673 16.2626 21.8362 16.1315C21.7051 16.0004 21.6158 15.8333 21.5796 15.6514C21.5435 15.4696 21.562 15.2811 21.633 15.1098C21.7039 14.9385 21.8241 14.7921 21.9783 14.689C22.1324 14.586 22.3137 14.5311 22.4991 14.5311C22.7477 14.5313 22.986 14.6302 23.1617 14.806C23.3375 14.9817 23.4363 15.22 23.4366 15.4686ZM23.5815 13.9393C23.3193 13.753 23.0136 13.6375 22.6938 13.604C22.374 13.5705 22.0509 13.62 21.7559 13.7478L19.7701 10.9803C19.8768 10.8407 19.9634 10.6869 20.0273 10.5232L25.3213 11.4408C25.3486 11.709 25.4339 11.9681 25.5712 12.2001L23.5815 13.9393ZM19.2179 9.84355C19.2179 10.029 19.1629 10.2102 19.0599 10.3644C18.9569 10.5186 18.8104 10.6387 18.6391 10.7097C18.4678 10.7806 18.2793 10.7992 18.0975 10.763C17.9156 10.7269 17.7486 10.6376 17.6175 10.5065C17.4863 10.3754 17.3971 10.2083 17.3609 10.0264C17.3247 9.84459 17.3433 9.65609 17.4142 9.48478C17.4852 9.31348 17.6054 9.16706 17.7595 9.06405C17.9137 8.96103 18.095 8.90605 18.2804 8.90605C18.5289 8.90635 18.7672 9.00521 18.943 9.18096C19.1187 9.35672 19.2176 9.595 19.2179 9.84355ZM12.1866 10.7811C12.0012 10.7811 11.8199 10.7261 11.6658 10.6231C11.5116 10.52 11.3914 10.3736 11.3205 10.2023C11.2495 10.031 11.231 9.84251 11.2671 9.66065C11.3033 9.4788 11.3926 9.31175 11.5237 9.18064C11.6548 9.04953 11.8219 8.96024 12.0037 8.92406C12.1856 8.88789 12.3741 8.90646 12.5454 8.97741C12.7167 9.04837 12.8631 9.16853 12.9661 9.3227C13.0691 9.47687 13.1241 9.65813 13.1241 9.84355C13.1238 10.0921 13.025 10.3304 12.8492 10.5061C12.6735 10.6819 12.4352 10.7808 12.1866 10.7811ZM7.96787 15.4686C7.96787 15.2831 8.02286 15.1019 8.12587 14.9477C8.22889 14.7935 8.3753 14.6734 8.54661 14.6024C8.71791 14.5315 8.90641 14.5129 9.08827 14.5491C9.27013 14.5852 9.43718 14.6745 9.56829 14.8056C9.6994 14.9368 9.78869 15.1038 9.82486 15.2857C9.86103 15.4675 9.84247 15.656 9.77151 15.8273C9.70055 15.9986 9.58039 16.145 9.42622 16.2481C9.27205 16.3511 9.09079 16.4061 8.90537 16.4061C8.65682 16.4058 8.41854 16.3069 8.24279 16.1311C8.06704 15.9554 7.96817 15.7171 7.96787 15.4686ZM16.2379 17.3191C16.5847 17.2619 16.9086 17.1087 17.1728 16.8767C17.4369 16.6448 17.6308 16.3435 17.7325 16.007H20.7032C20.7227 16.0724 20.7458 16.1367 20.7724 16.1995L16.6866 19.2016C16.5156 19.0547 16.3196 18.9397 16.1078 18.8624L16.2379 17.3191ZM26.3258 18.9597L24.0421 16.5319C24.2303 16.2597 24.3429 15.9424 24.3685 15.6125C24.3941 15.2826 24.3317 14.9518 24.1877 14.6539L26.2354 12.8644C26.4206 12.9741 26.6236 13.0509 26.8351 13.0913V18.7833C26.6576 18.8172 26.4861 18.8766 26.3258 18.9599V18.9597ZM28.1241 11.2498C28.1241 11.4352 28.0691 11.6165 27.9661 11.7706C27.8631 11.9248 27.7167 12.045 27.5454 12.1159C27.3741 12.1869 27.1856 12.2055 27.0037 12.1693C26.8219 12.1331 26.6548 12.0438 26.5237 11.9127C26.3926 11.7816 26.3033 11.6146 26.2671 11.4327C26.231 11.2508 26.2495 11.0623 26.3205 10.891C26.3914 10.7197 26.5116 10.5733 26.6658 10.4703C26.8199 10.3673 27.0012 10.3123 27.1866 10.3123C27.4352 10.3126 27.6735 10.4115 27.8492 10.5872C28.025 10.763 28.1238 11.0013 28.1241 11.2498ZM20.6241 3.7498C20.8095 3.7498 20.9908 3.80478 21.145 3.9078C21.2991 4.01081 21.4193 4.15723 21.4903 4.32854C21.5612 4.49984 21.5798 4.68834 21.5436 4.8702C21.5074 5.05206 21.4181 5.2191 21.287 5.35021C21.1559 5.48132 20.9889 5.57061 20.807 5.60679C20.6252 5.64296 20.4367 5.6244 20.2654 5.55344C20.0941 5.48248 19.9476 5.36232 19.8446 5.20815C19.7416 5.05398 19.6866 4.87272 19.6866 4.6873C19.6869 4.43875 19.7858 4.20047 19.9615 4.02471C20.1373 3.84896 20.3756 3.7501 20.6241 3.7498ZM11.6844 5.03886H18.7826C18.8638 5.46175 19.088 5.84384 19.4176 6.12097L18.5811 7.99298C18.1362 7.92041 17.6799 8.0107 17.2962 8.24729C16.9124 8.48388 16.6267 8.85091 16.4917 9.28105H13.9753C13.8416 8.8556 13.5607 8.49175 13.1828 8.25486C12.805 8.01796 12.3551 7.92356 11.9139 7.98859L11.038 6.13117C11.3738 5.85322 11.6023 5.46701 11.6844 5.03886ZM9.84287 3.7498C10.0283 3.7498 10.2096 3.80478 10.3637 3.9078C10.5179 4.01081 10.6381 4.15723 10.709 4.32854C10.78 4.49984 10.7985 4.68834 10.7624 4.8702C10.7262 5.05206 10.6369 5.2191 10.5058 5.35021C10.3747 5.48132 10.2076 5.57061 10.0258 5.60679C9.84391 5.64296 9.65541 5.6244 9.48411 5.55344C9.3128 5.48248 9.16639 5.36232 9.06337 5.20815C8.96036 5.05398 8.90537 4.87272 8.90537 4.6873C8.90567 4.43875 9.00454 4.20047 9.18029 4.02471C9.35604 3.84896 9.59432 3.7501 9.84287 3.7498ZM2.34287 11.2498C2.34287 11.0644 2.39786 10.8831 2.50087 10.729C2.60389 10.5748 2.7503 10.4546 2.92161 10.3837C3.09291 10.3127 3.28141 10.2941 3.46327 10.3303C3.64513 10.3665 3.81218 10.4558 3.94329 10.5869C4.0744 10.718 4.16369 10.885 4.19986 11.0669C4.23603 11.2488 4.21747 11.4373 4.14651 11.6086C4.07555 11.7799 3.95539 11.9263 3.80122 12.0293C3.64705 12.1323 3.4658 12.1873 3.28038 12.1873C3.03182 12.187 2.79354 12.0881 2.61779 11.9124C2.44204 11.7366 2.34317 11.4984 2.34287 11.2498ZM3.28038 18.2811C3.09496 18.2811 2.9137 18.2261 2.75953 18.1231C2.60536 18.02 2.48519 17.8736 2.41424 17.7023C2.34328 17.531 2.32472 17.3425 2.36089 17.1607C2.39706 16.9788 2.48635 16.8117 2.61746 16.6806C2.74857 16.5495 2.91562 16.4602 3.09748 16.4241C3.27933 16.3879 3.46783 16.4065 3.63914 16.4774C3.81045 16.5484 3.95686 16.6685 4.05988 16.8227C4.16289 16.9769 4.21788 17.1581 4.21788 17.3436C4.21758 17.5921 4.11871 17.8304 3.94296 18.0061C3.76721 18.1819 3.52892 18.2808 3.28038 18.2811ZM6.56163 21.5623C6.3762 21.5623 6.19495 21.5073 6.04078 21.4043C5.88661 21.3013 5.76644 21.1549 5.69549 20.9836C5.62453 20.8123 5.60597 20.6238 5.64214 20.4419C5.67831 20.26 5.7676 20.093 5.89871 19.9619C6.02982 19.8308 6.19687 19.7415 6.37873 19.7053C6.56059 19.6691 6.74908 19.6877 6.92039 19.7587C7.0917 19.8296 7.23811 19.9498 7.34113 20.104C7.44414 20.2581 7.49912 20.4394 7.49912 20.6248C7.49883 20.8734 7.39996 21.1116 7.22421 21.2874C7.04846 21.4631 6.81017 21.562 6.56163 21.5623ZM7.7553 19.1799L8.65565 17.3264C8.73842 17.3377 8.82185 17.3434 8.90537 17.3436C9.31659 17.3439 9.71639 17.2083 10.0426 16.9579L13.7446 19.8865C13.7027 19.9842 13.6693 20.0854 13.6446 20.1888L8.37926 20.1645C8.28096 19.7785 8.06244 19.4337 7.7553 19.1799ZM14.5304 20.6248C14.5304 20.4394 14.5854 20.2581 14.6884 20.104C14.7914 19.9498 14.9378 19.8296 15.1091 19.7587C15.2804 19.6877 15.4689 19.6691 15.6508 19.7053C15.8326 19.7415 15.9997 19.8308 16.1308 19.9619C16.2619 20.093 16.3512 20.26 16.3874 20.4419C16.4235 20.6238 16.405 20.8123 16.334 20.9836C16.2631 21.1549 16.1429 21.3013 15.9887 21.4043C15.8346 21.5073 15.6533 21.5623 15.4679 21.5623C15.2193 21.562 14.981 21.4631 14.8053 21.2874C14.6295 21.1116 14.5307 20.8734 14.5304 20.6248ZM18.7491 26.2498C18.5637 26.2498 18.3824 26.1948 18.2283 26.0918C18.0741 25.9888 17.9539 25.8424 17.883 25.6711C17.812 25.4998 17.7935 25.3113 17.8296 25.1294C17.8658 24.9475 17.9551 24.7805 18.0862 24.6494C18.2173 24.5183 18.3844 24.429 18.5662 24.3928C18.7481 24.3566 18.9366 24.3752 19.1079 24.4462C19.2792 24.5171 19.4256 24.6373 19.5286 24.7915C19.6316 24.9456 19.6866 25.1269 19.6866 25.3123C19.6863 25.5609 19.5875 25.7991 19.4117 25.9749C19.236 26.1506 18.9977 26.2495 18.7491 26.2498ZM25.7804 26.2498C25.595 26.2498 25.4137 26.1948 25.2595 26.0918C25.1054 25.9888 24.9852 25.8424 24.9142 25.6711C24.8433 25.4998 24.8247 25.3113 24.8609 25.1294C24.8971 24.9475 24.9863 24.7805 25.1175 24.6494C25.2486 24.5183 25.4156 24.429 25.5975 24.3928C25.7793 24.3566 25.9678 24.3752 26.1391 24.4462C26.3104 24.5171 26.4569 24.6373 26.5599 24.7915C26.6629 24.9456 26.7179 25.1269 26.7179 25.3123C26.7176 25.5609 26.6187 25.7991 26.443 25.9749C26.2672 26.1506 26.0289 26.2495 25.7804 26.2498ZM25.7804 23.4373C25.3591 23.4379 24.9502 23.5801 24.6196 23.8411C24.2889 24.1021 24.0556 24.4667 23.9571 24.8764H20.5808L25.8964 21.9834C26.015 22.0963 26.1479 22.1933 26.2915 22.272L25.9093 23.4422C25.8666 23.4393 25.8237 23.4373 25.7804 23.4373ZM27.1866 21.5623C27.0012 21.5623 26.8199 21.5073 26.6658 21.4043C26.5116 21.3013 26.3914 21.1549 26.3205 20.9836C26.2495 20.8123 26.231 20.6238 26.2671 20.4419C26.3033 20.26 26.3926 20.093 26.5237 19.9619C26.6548 19.8308 26.8219 19.7415 27.0037 19.7053C27.1856 19.6691 27.3741 19.6877 27.5454 19.7587C27.7167 19.8296 27.8631 19.9498 27.9661 20.104C28.0691 20.2581 28.1241 20.4394 28.1241 20.6248C28.1238 20.8734 28.025 21.1116 27.8492 21.2874C27.6735 21.4631 27.4352 21.562 27.1866 21.5623Z" fill="#6A7695"/>
</svg>
