<svg width="73" height="73" viewBox="0 0 73 73" fill="none" xmlns="http://www.w3.org/2000/svg">
<g id="Group 299">
<g id="Ellipse 97" filter="url(#filter0_d)">
<circle cx="36.5" cy="34.5" r="31.5" fill="white"/>
</g>
<g id="akar-icons:light-bulb">
<g id="Group">
<path id="Vector" d="M34.0699 50.1526H40.0977H34.0699ZM26.5352 30.5623C26.5352 27.7646 27.6465 25.0815 29.6248 23.1033C31.603 21.125 34.2861 20.0137 37.0838 20.0137C39.8814 20.0137 42.5645 21.125 44.5428 23.1033C46.521 25.0815 47.6324 27.7646 47.6324 30.5623C47.6334 32.2607 47.2226 33.9341 46.4352 35.439C45.6479 36.9439 44.5074 38.2355 43.1115 39.2031L42.2948 43.0699C42.1867 43.7827 41.8266 44.433 41.28 44.9031C40.7334 45.3731 40.0365 45.6316 39.3156 45.6317H34.852C34.1311 45.6316 33.4341 45.3731 32.8875 44.9031C32.3409 44.433 31.9809 43.7827 31.8728 43.0699L31.056 39.2197C29.6597 38.2486 28.5192 36.954 27.7319 35.4464C26.9446 33.9388 26.534 32.2631 26.5352 30.5623V30.5623Z" stroke="#274B9F" stroke-width="3.01389" stroke-linecap="round" stroke-linejoin="round"/>
<path id="Vector_2" d="M31.0547 39.604H43.1102" stroke="#274B9F" stroke-width="3.01389" stroke-linecap="round" stroke-linejoin="round"/>
</g>
</g>
</g>
<defs>
<filter id="filter0_d" x="0.333333" y="0.666667" width="72.3333" height="72.3333" filterUnits="userSpaceOnUse" color-interpolation-filters="sRGB">
<feFlood flood-opacity="0" result="BackgroundImageFix"/>
<feColorMatrix in="SourceAlpha" type="matrix" values="0 0 0 0 0 0 0 0 0 0 0 0 0 0 0 0 0 0 127 0" result="hardAlpha"/>
<feOffset dy="2.33333"/>
<feGaussianBlur stdDeviation="2.33333"/>
<feComposite in2="hardAlpha" operator="out"/>
<feColorMatrix type="matrix" values="0 0 0 0 0 0 0 0 0 0 0 0 0 0 0 0 0 0 0.25 0"/>
<feBlend mode="normal" in2="BackgroundImageFix" result="effect1_dropShadow"/>
<feBlend mode="normal" in="SourceGraphic" in2="effect1_dropShadow" result="shape"/>
</filter>
</defs>
</svg>
