<svg width="210" height="299" fill="none" xmlns="http://www.w3.org/2000/svg">
  <path d="M144 8c-1 11 5.2 33.3 38 34.5M66 9.5c2.667 11.333-.5 33.8-34.5 33M155.5 230h-98v34c4 8.8 32.333 13.667 46 15 26.4 1.2 45.667-9.5 52-15v-34ZM41.5 206.5v-81c22.4 32 17.333 73 12 89.5l-12-8.5ZM170.57 207v-81c-22.4 32-17.334 73-12 89.5l12-8.5Z" stroke="#000" stroke-width="4"/>
  <path d="M69 7.5C45.8 14.7 33.667 30.833 30.5 38L24 111.5c-18.8 0-21.833 11.333-21 17 5.2 8.4 16.167 3.5 21 0-10 96.8.167 137.667 6.5 146l17 15.5c48 12.4 99 5.167 118.5 0l15-15.5c12-10.8 9-101.833 6-146 9.6 5.6 17.667 2.333 20.5 0 1.2-14.4-13.167-17.333-20.5-17L181 38c-2.8-11.2-25.5-25-36.5-30.5C110.9-.9 80.167 4 69 7.5Z" stroke="#000" stroke-width="4"/>
  <path d="M108.5 84c-38.4 0-49.333 11.667-50 17.5L68 132h76l10-30.5c-.8-12.8-30.667-17-45.5-17.5Z" stroke="#000" stroke-width="4"/>
</svg>
