<svg id="vehicle-classic-front" width="397" height="256" viewBox="0 0 397 256" fill="none" xmlns="http://www.w3.org/2000/svg">
  <path id="rockerPanelLeft" opacity="0.7" d="M370.491 126.845L285.655 192.144L282.979 208.201L368.082 140.226L370.491 126.845V126.845Z" fill="#4E69AB"/>
  <path id="fenderBackLeft" opacity="0.7" d="M363.8 10.6971C362.944 9.84078 357.021 8.91301 354.166 8.55615C374.933 26.5403 382.445 50.4834 383.605 60.2069L385.478 86.1665C390.831 84.025 395.201 88.6638 396.718 91.2506V55.1222C393.935 42.7046 373.614 20.3314 363.8 10.6971V10.6971Z" fill="#8CA5E1"/>
  <path id="doorBackLeft" opacity="0.7" fill-rule="evenodd" clip-rule="evenodd" d="M324.192 10.1612C329.545 9.09075 342.979 7.21742 353.899 8.28789C362.908 16.2273 381.463 37.9403 383.604 61.2768L385.477 86.1659L370.49 126.844L346.673 145.31V90.1797L324.192 10.1612V10.1612ZM332.221 17.1194L345.334 61.2768C354.345 57.084 371.99 46.0224 370.491 35.3176C366.566 29.0731 357.378 16.263 352.025 14.9784C351.222 14.9784 333.291 14.9784 332.221 17.1194V17.1194Z" fill="#AFC0E7"/>
  <path id="windowBackLeft" opacity="0.7" d="M345.066 61.2768L331.953 17.1195C333.023 14.9785 350.954 14.9785 351.757 14.9785C357.109 16.263 366.297 29.0732 370.223 35.3176C371.721 46.0224 354.076 57.0841 345.066 61.2768Z" fill="#D6DDF6"/>
  <path id="fenderFrontLeft" opacity="0.7" d="M274.948 100.083L222.227 141.832C226.937 157.247 220.979 167.524 217.41 170.734L240.425 182.51C249.632 159.816 261.389 152.358 266.117 151.466C284.744 146.114 286.902 176.533 285.653 192.412L294.485 185.721V129.789L285.653 101.688C277.732 106.827 275.216 102.759 274.948 100.083Z" fill="#AFC0E7"/>
  <path id="headerPanel" opacity="0.7" d="M15.6729 142.901C15.6729 137.549 17.8138 132.464 18.8843 130.591C37.9388 154.57 99.2592 161.457 127.538 161.902C125.397 165.56 121.116 173.035 121.116 173.678C105.701 167.255 87.9305 183.669 80.9722 192.678C78.8317 196.747 73.3005 196.693 70.8032 196.158L35.7446 183.58C32.1044 182.509 30.6595 178.317 30.3922 176.354C28.8936 157.085 19.9547 146.024 15.6729 142.901V142.901Z" fill="#4E69AB"/>
  <path id="headlightLeft" opacity="0.7" d="M120.848 173.946L127.539 161.635C173.034 161.635 209.073 148.521 221.473 141.296C228.324 154.57 221.294 165.917 216.924 169.932L150.286 187.327C136.797 189.468 125.04 179.298 120.848 173.946V173.946Z" fill="#D6DDF6"/>
  <path id="bumperFront" opacity="0.7" fill-rule="evenodd" clip-rule="evenodd" d="M7.30339 140.273C1.77435 150.553 -5.92405 172.886 7.32923 180.368C4.02858 182.241 -1.1276 191.716 4.65306 214.624L106.081 255.302H164.423L221.694 239.512C225.44 224.258 234.379 191.501 240.16 182.508L217.144 170.733L215.528 171.086L150.239 188.129C136.751 190.271 124.994 180.101 120.801 174.748L120.969 174.439C105.577 168.129 87.868 184.491 80.9246 193.481C78.7841 197.55 73.2529 197.496 70.7556 196.961L35.697 184.383C32.0579 183.312 30.612 179.12 30.3446 177.157C28.8461 157.888 19.9076 146.827 15.6256 143.704C14.384 142.049 9.70917 140.76 7.30339 140.273ZM15.6669 142.396C15.676 142.251 15.6865 142.105 15.6983 141.96H15.6957C15.6848 142.109 15.6752 142.254 15.6669 142.396ZM122.498 171.625L121.343 173.75C121.586 173.23 121.975 172.478 122.451 171.596L122.498 171.625Z" fill="#8CA5E1"/>
  <path id="doorFrontLeft" opacity="0.7" fill-rule="evenodd" clip-rule="evenodd" d="M346.673 90.1805L324.192 10.1621C301.98 16.585 296.271 24.9705 295.021 28.6279L271.472 79.4758L267.189 83.7579L274.415 100.351L274.764 100.332C277.313 91.3601 283.459 71.6679 288.332 62.348L288.378 62.5115C295.364 47.3149 311.905 17.7683 322.585 20.3316C326.779 31.8393 334.843 57.3703 333.558 67.4329C331.534 69.0923 328.938 71.1313 326.032 73.2937C330.147 75.4323 333.149 78.7544 332.756 83.7579C332.489 86.4341 330.668 91.7864 325.531 91.7864H294.487C292.312 94.887 288.937 98.9077 285.495 101.519C288.73 107.303 292.553 122.254 294.219 129.789V185.721L346.673 145.311V90.1805Z" fill="#8CA5E1"/>
  <path id="windowFrontLeft" opacity="0.7" fill-rule="evenodd" clip-rule="evenodd" d="M288.6 62.1322C295.586 46.9356 312.127 17.3892 322.807 19.9525C326.999 31.4601 335.064 56.9911 333.78 67.0536C331.755 68.7131 329.16 70.7522 326.253 72.9146C321.388 70.3865 314.97 69.511 310.765 69.4623C301.345 70.3189 296.135 79.0967 294.707 83.3788L288.6 62.1322V62.1322Z" fill="#D6DDF6"/>
  <path id="roof" opacity="0.7" d="M295.289 28.0922C276.877 23.3821 204.477 18.101 170.578 16.0493L218.215 2.4006C298.501 -3.59402 347.743 2.66822 362.194 9.89399C325.263 1.59775 296.628 20.5988 295.289 28.0922V28.0922Z" fill="#4E69AB"/>
  <path id="windShield" opacity="0.7" d="M103.942 69.3053C100.944 68.2348 100.908 64.9342 101.266 63.4176L137.662 36.6556L155.859 24.0775L170.579 16.0488C218.536 17.5475 273.703 24.5234 295.29 27.8241L271.472 79.4749L266.922 84.0243C257.021 93.3914 239.893 93.8376 232.667 93.3914C160.142 86.1658 116.877 75.0149 103.942 69.3053V69.3053Z" fill="#D6DDF6"/>
  <path id="hood" opacity="0.7" d="M104.476 69.5734C100.408 67.8605 100.819 64.7562 101.532 63.418C60.8538 77.3346 31.9505 100.082 22.584 109.716C12.1467 120.956 17.2316 127.379 17.2316 128.45C30.7193 154.784 100.283 162.26 133.379 162.705C175.127 161.421 209.472 148.61 221.426 142.366L274.415 100.35L267.19 84.0245C256.27 93.2306 240.338 94.1051 233.737 93.3916C178.072 87.3735 123.744 77.6864 104.476 69.5734V69.5734Z" fill="#8CA5E1"/>
  <path id="wheelFrontLeft" opacity="0.7" fill-rule="evenodd" clip-rule="evenodd" d="M258.357 155.48C266.475 157.086 281.694 168.701 277.625 202.314C275.306 216.587 267.135 246.417 253.004 251.556C242.835 255.035 220.836 257.872 214.199 241.387L221.426 239.513C227.313 215.338 242.943 164.686 258.357 155.48V155.48ZM249.657 231.945C255.643 233.29 262.859 223.859 265.776 210.881C268.694 197.902 266.206 186.29 260.221 184.946C254.237 183.6 247.02 193.031 244.102 206.009C241.186 218.988 243.673 230.6 249.657 231.945Z" fill="#2A4893"/>
  <path id="hubcapFrontLeft" opacity="0.7" d="M249.659 231.945C255.644 233.29 262.861 223.859 265.778 210.881C268.695 197.902 266.208 186.291 260.223 184.945C254.238 183.6 247.021 193.031 244.104 206.009C241.187 218.988 243.674 230.6 249.659 231.945Z" fill="#F1F3F4"/>
  <path id="wheelBackLeft" opacity="0.7" fill-rule="evenodd" clip-rule="evenodd" d="M385.477 86.1657C387.974 85.2733 393.719 85.0417 396.718 91.2497C397.788 108.378 396.396 143.597 382.265 147.45H364.068C363.175 147.094 361.392 146.113 361.392 145.042L367.814 140.225L370.49 126.844L385.477 86.1657V86.1657ZM382.422 134.343C385.464 134.957 389.371 128.331 391.147 119.542C392.922 110.753 391.896 103.13 388.853 102.515C385.811 101.901 381.905 108.527 380.129 117.316C378.353 126.105 379.38 133.728 382.422 134.343Z" fill="#2A4893"/>
  <path id="hubcapBackLeft" opacity="0.7" d="M382.423 134.629C385.465 135.243 389.371 128.617 391.147 119.828C392.923 111.039 391.896 103.416 388.853 102.801C385.811 102.186 381.905 108.813 380.129 117.602C378.353 126.391 379.38 134.014 382.423 134.629Z" fill="#F1F3F4"/>
  <path id="headLightRight" opacity="0.7" d="M7.31764 139.92C6.46126 119.367 17.4872 110.839 23.1073 109.144C12.8306 119.635 16.4168 127.075 19.093 130.821C16.5238 134.675 15.8815 140.723 15.8815 143.399C14.597 141.687 9.63703 140.366 7.31764 139.92Z" fill="#D6DDF6"/>
  <path id="mirrorLeft" opacity="0.7" d="M295.387 83.8472L289.232 62.4375C284.307 71.8577 278.081 91.8758 275.583 100.707C279.865 110.128 290.57 98.7447 295.387 91.8758H326.431C331.569 91.8758 333.389 86.5234 333.657 83.8472C334.513 72.9282 319.205 70.0201 311.444 69.9309C302.024 70.7873 296.814 79.5652 295.387 83.8472Z" fill="#4E69AB"/>
</svg>
