<svg width="359" height="174" viewBox="0 0 359 174" fill="none" xmlns="http://www.w3.org/2000/svg">

  <path d="M9.25391 131.964C19.696 137.664 41.4429 150.336 44.8933 155.421" stroke="#43494A" stroke-width="1.56435"/>
  <path d="M44.969 17.4795C34.9557 25.0715 13.8546 40.3765 9.55664 40.8608" stroke="#43494A" stroke-width="1.56435"/>
  <path d="M121.847 28.6025C112.868 30.6456 95.0453 42.3286 95.5901 72.7167C95.4135 83.2345 95.469 106.964 97.1034 117.739C98.5159 127.096 106.108 145.63 125.176 144.904" stroke="#43494A" stroke-width="1.56435"/>
  <path d="M133.728 144.222C135.342 140.868 136.058 133.356 126.01 130.148C125.48 123.237 124.738 107.735 126.01 101.016H130.928L137.738 95.4923V78.9211L130.928 72.9434H126.01V29.2832" stroke="#43494A" stroke-width="1.56435"/>
  <path d="M329.782 42.6006H292.554V135.445H329.782C344.492 102.03 335.911 59.6258 329.782 42.6006Z" stroke="#43494A" stroke-width="1.56435"/>
  <path d="M277.732 78.6641L277.581 95.5379" stroke="#43494A" stroke-width="1.56435"/>
  <path d="M277.658 78.6641H260.859V95.5379H277.658L290.218 93.4192V80.2531L277.658 78.6641Z" stroke="#43494A" stroke-width="1.56435"/>
  <path d="M203.171 47.7366C203.6 47.207 205.214 46.6016 208.241 48.4176L214.521 51.974C214.698 52.1506 215.066 52.7155 215.126 53.563V63.0971C215.152 63.4755 214.975 64.3532 214.067 64.8375L204.911 69.9072C204.483 70.0333 203.534 70.2099 203.171 69.9072C202.324 68.8176 201.557 68.1416 201.279 67.9398" stroke="#43494A" stroke-width="1.56435"/>
  <path d="M208.468 49.7045C201.87 45.1039 200.371 49.6036 200.447 52.4285V66.2C200.447 69.9531 205.794 67.7638 208.468 66.2C211.01 65.1709 212.049 63.2489 212.251 62.4166V53.9418C212.191 52.1258 209.704 50.3602 208.468 49.7045Z" stroke="#43494A" stroke-width="1.56435"/>
  <path d="M187.203 75.8001C190.937 76.043 200.053 75.0631 200.294 67.4857V47.7223C199.567 45.0508 194.206 40.13 186.749 41.2957" stroke="#43494A" stroke-width="1.56435"/>
  <path d="M185.614 41.1768H152.492C150.812 41.1768 149.454 42.5438 149.465 44.223L149.653 73.2472C149.664 74.9111 151.016 76.2543 152.679 76.2543H185.614C187.286 76.2543 188.641 74.8992 188.641 73.2276V44.2035C188.641 42.5319 187.286 41.1768 185.614 41.1768Z" stroke="#43494A" stroke-width="1.56435"/>
  <path d="M278.26 49.5237C278.689 48.9941 280.303 48.3887 283.33 50.2047L289.61 53.7611C289.787 53.9377 290.155 54.5026 290.215 55.3501V64.8842C290.241 65.2626 290.064 66.1403 289.156 66.6246L280 71.6943C279.571 71.8204 278.623 71.997 278.26 71.6943C277.412 70.6047 276.646 69.9287 276.368 69.727" stroke="#43494A" stroke-width="1.56435"/>
  <path d="M283.557 51.4916C276.958 46.891 275.46 51.3907 275.536 54.2156V67.9871C275.536 71.7402 280.883 69.5509 283.557 67.9871C286.099 66.958 287.138 65.036 287.34 64.2037V55.7289C287.279 53.9129 284.793 52.1473 283.557 51.4916Z" stroke="#43494A" stroke-width="1.56435"/>
  <path d="M262.292 77.5873C266.025 77.8301 275.142 76.8502 275.382 69.2728V49.5094C274.656 46.8379 269.295 41.9171 261.838 43.0828" stroke="#43494A" stroke-width="1.56435"/>
  <path d="M260.703 42.9639H227.581C225.901 42.9639 224.543 44.3309 224.554 46.0102L224.742 75.0343C224.752 76.6983 226.104 78.0414 227.768 78.0414H260.703C262.375 78.0414 263.73 76.6863 263.73 75.0147V45.9906C263.73 44.319 262.375 42.9639 260.703 42.9639Z" stroke="#43494A" stroke-width="1.56435"/>
  <path d="M278.26 103.159C278.689 102.629 280.303 102.023 283.33 103.84L289.61 107.396C289.787 107.572 290.155 108.137 290.215 108.985V118.519C290.241 118.897 290.064 119.775 289.156 120.259L280 125.329C279.571 125.455 278.623 125.632 278.26 125.329C277.412 124.239 276.646 123.563 276.368 123.362" stroke="#43494A" stroke-width="1.56435"/>
  <path d="M283.557 105.126C276.958 100.526 275.46 105.025 275.536 107.85V121.622C275.536 125.375 280.883 123.186 283.557 121.622C286.099 120.593 287.138 118.671 287.34 117.838V109.364C287.279 107.548 284.793 105.782 283.557 105.126Z" stroke="#43494A" stroke-width="1.56435"/>
  <path d="M262.292 131.222C266.025 131.465 275.142 130.485 275.382 122.908V103.144C274.656 100.473 269.295 95.5518 261.838 96.7176" stroke="#43494A" stroke-width="1.56435"/>
  <path d="M260.703 96.5986H227.581C225.901 96.5986 224.543 97.9657 224.554 99.6449L224.742 128.669C224.752 130.333 226.104 131.676 227.768 131.676H260.703C262.375 131.676 263.73 130.321 263.73 128.65V99.6253C263.73 97.9537 262.375 96.5986 260.703 96.5986Z" stroke="#43494A" stroke-width="1.56435"/>
  <path d="M203.571 104.658C204 104.128 205.614 103.523 208.641 105.339L214.922 108.895C215.098 109.071 215.466 109.636 215.527 110.484V120.018C215.552 120.396 215.376 121.274 214.467 121.758L205.312 126.828C204.883 126.954 203.935 127.131 203.571 126.828C202.724 125.738 201.957 125.063 201.68 124.861" stroke="#43494A" stroke-width="1.56435"/>
  <path d="M208.869 106.624C202.271 102.024 200.773 106.523 200.848 109.348V123.12C200.848 126.873 206.196 124.684 208.869 123.12C211.412 122.091 212.451 120.169 212.652 119.337V110.862C212.592 109.046 210.105 107.28 208.869 106.624Z" stroke="#43494A" stroke-width="1.56435"/>
  <path d="M187.604 132.721C191.337 132.964 200.453 131.984 200.694 124.406V104.643C199.967 101.972 195.136 97.3533 187.679 98.519" stroke="#43494A" stroke-width="1.56435"/>
  <path d="M149.903 107.07L149.864 101.144C149.854 99.4647 151.212 98.0977 152.891 98.0977H186.014C187.685 98.0977 189.04 99.4527 189.04 101.124V130.149C189.04 131.82 187.685 133.175 186.014 133.175H153.05C151.397 133.175 150.05 131.85 150.024 130.197L149.92 123.792" stroke="#43494A" stroke-width="1.56435"/>
  <path d="M83.1809 26.8624C85.9655 25.6517 91.2014 25.8785 95.7416 25.8785C98.8289 25.1521 109.664 26.5598 112.842 26.8624C152.068 33.8239 179.682 36.0686 188.586 36.3208C208.38 38.379 269.676 35.4633 297.849 33.7481C299.121 39.0146 303.928 39.7763 306.173 39.4989V31.8564L308.821 30.1161C313.482 26.484 330.235 27.8461 338.029 28.9811L341.283 32.7644C351.271 44.2054 354.121 68.5047 354.297 79.2243C355.387 96.9002 351.372 118.521 349.228 127.122C348.32 130.149 340.879 140.49 337.272 145.282L309.956 143.239C306.627 143.118 305.643 139.456 305.568 137.64H301.103L298.53 139.758L272.728 137.64C237.921 133.402 183.566 137.186 160.74 139.607C155.837 139.607 151.332 140.565 149.693 141.045C134.801 145.04 104.242 147.149 90.8232 147.703C84.346 148.006 81.0116 146.165 80.1541 145.206C78.4591 144.54 76.8248 138.976 76.2195 136.278C66.1103 87.2451 72.0073 49.2095 76.2195 36.3208C77.5512 30.6912 81.4153 27.6695 83.1809 26.8624Z" stroke="#43494A" stroke-width="1.56435"/>
  <path d="M133.197 16.0414L256.762 14.528C274.872 12.8129 317.206 11.5467 341.661 20.2031C345.192 23.9865 352.013 34.02 351.044 43.887C355.735 58.8439 362.303 97.051 351.044 130.224C351.044 135.621 349.167 147.763 341.661 153.151C324.283 157.413 282.974 164.516 256.762 158.826L133.197 157.161" stroke="#43494A" stroke-width="1.56435"/>
  <path d="M121.62 16.9492H104.973C84.9971 10.2904 47.2643 16.2934 30.8949 20.1272C22.6017 23.7593 12.205 36.875 8.04332 42.9788C-2.48959 60.1705 1.08191 101.646 4.18428 120.235C7.51365 134.4 19.6961 146.416 25.3712 150.654C34.1234 152.999 53.5951 157.782 61.4645 158.145L121.545 156.858" stroke="#43494A" stroke-width="1.56435"/>
  <path d="M133.505 15.6409C131.897 18.2346 129.906 20.205 128.021 21.3103C126.101 22.4359 124.491 22.5658 123.445 21.9178C122.4 21.2697 121.8 19.7699 121.954 17.5498C122.106 15.3699 122.985 12.7099 124.593 10.1161C126.2 7.52243 128.192 5.55204 130.077 4.44678C131.997 3.32116 133.607 3.19124 134.652 3.8393C135.698 4.48735 136.297 5.98713 136.143 8.20725C135.992 10.3872 135.113 13.0472 133.505 15.6409Z" stroke="#43494A" stroke-width="1.56435"/>
  <path d="M124.441 163.798C126.049 166.392 128.04 168.362 129.926 169.468C131.845 170.593 133.455 170.723 134.501 170.075C135.546 169.427 136.146 167.927 135.992 165.707C135.84 163.527 134.961 160.867 133.354 158.273C131.746 155.68 129.754 153.709 127.869 152.604C125.949 151.478 124.339 151.348 123.294 151.997C122.249 152.645 121.649 154.144 121.803 156.364C121.954 158.544 122.833 161.204 124.441 163.798Z" stroke="#43494A" stroke-width="1.56435"/>
  <path d="M151.332 115.544C151.332 119.719 150.08 123.468 148.094 126.155C146.108 128.842 143.428 130.425 140.537 130.425C137.647 130.425 134.966 128.842 132.98 126.155C130.994 123.468 129.742 119.719 129.742 115.544C129.742 111.369 130.994 107.62 132.98 104.933C134.966 102.246 137.647 100.663 140.537 100.663C143.428 100.663 146.108 102.246 148.094 104.933C150.08 107.62 151.332 111.369 151.332 115.544Z" stroke="#43494A" stroke-width="1.56435"/>
  <path d="M148.911 115.242C148.911 118.908 148.03 122.19 146.648 124.528C145.256 126.884 143.444 128.155 141.596 128.155C139.749 128.155 137.937 126.884 136.545 124.528C135.162 122.19 134.282 118.908 134.282 115.242C134.282 111.575 135.162 108.294 136.545 105.955C137.937 103.6 139.749 102.328 141.596 102.328C143.444 102.328 145.256 103.6 146.648 105.955C148.03 108.294 148.911 111.575 148.911 115.242Z" stroke="#43494A" stroke-width="1.56435"/>

  <path id="dashboard" opacity="0.7" d="M120.348 28.2461L126.274 29.1351V72.993H130.719L137.535 78.9198V95.811L130.719 100.849H126.274C124.141 109.146 125.385 123.864 126.274 130.186C135.52 133.505 135.263 140.854 133.979 144.114L126.274 145.299C108.968 144.825 100.888 131.47 99.0113 124.852C94.9811 116.318 95.1589 82.5746 95.7516 66.77C97.8852 41.6405 113.038 30.6168 120.348 28.2461Z" fill="#8FA2D1"/>
  <path id="trunk" opacity="0.7" d="M329.781 42.6016H292.553V135.446H329.781C344.491 102.031 335.91 59.6268 329.781 42.6016Z" fill="#4E69AB"/>
  <path id="rearSittingArea" opacity="0.7" d="M224.658 46.0256V75.6594C224.895 77.793 226.732 78.524 227.621 78.6227L260.218 78.9191V96.1067H227.917C225.073 96.1067 223.966 98.4774 223.769 99.6627L224.065 126.926C224.065 130.719 226.041 132.062 227.028 132.26L262.293 131.667C272.012 132.378 275.43 126.432 275.924 123.37C277.584 126.215 279.184 126.333 279.777 126.037L288.667 120.999C289.852 120.762 290.346 119.122 290.445 118.332V109.146C290.445 107.723 288.864 106.775 288.074 106.478L280.962 102.626C278.828 101.441 276.714 103.12 275.924 104.108C273.553 97.7069 266.046 96.1067 262.589 96.1067H277.702L291.037 93.736V80.1044L277.702 78.3264H262.589C272.546 77.8523 275.628 72.5972 275.924 70.029C277.109 72.8738 279.579 72.7948 280.666 72.3997L289.259 67.3619C290.682 67.1249 291.037 65.2876 291.037 64.3986V56.9901C291.274 54.6194 289.951 53.2365 289.259 52.8414L280.666 48.3963C277.11 47.6851 275.825 49.878 275.628 51.0634C274.442 43.7142 266.046 42.4696 261.996 42.7659L229.399 42.7659C225.132 42.7659 224.46 44.9391 224.658 46.0256Z" fill="#8CA5E1"/>
  <path id="driverSittingArea" opacity="0.7" d="M205.989 104.108C202.907 103.16 201.149 105.491 200.655 106.775C201.366 99.9002 192.654 97.9839 188.209 97.8851H154.13C151.285 97.6481 149.981 99.1693 149.685 99.9595V105.886C153.952 114.658 151.463 122.185 149.685 124.852V129.593C149.922 132.438 151.562 133.149 152.352 133.149H188.209C199.114 133.149 201.05 127.223 200.655 124.259C202.789 127.815 205.1 127.914 205.989 127.519L213.99 122.481C215.413 122.007 215.966 120.506 216.064 119.814V111.22C216.064 109.324 215.077 108.652 214.583 108.553C212.113 107.072 206.937 104.108 205.989 104.108Z" fill="#4E69AB"/>
  <path id="passengerSittingArea" opacity="0.7" d="M205.1 47.2362C202.018 46.2879 200.26 48.6191 199.766 49.9032C200.477 43.0282 191.765 41.1119 187.32 41.0131L153.241 41.0131C150.396 40.776 149.093 42.2972 148.796 43.0874V49.0142V67.9798V72.7212C149.033 75.566 150.673 76.2772 151.463 76.2772H187.32C198.225 76.2772 200.161 70.3505 199.766 67.3871C201.9 70.9432 204.211 71.0419 205.1 70.6468L213.101 65.6091C214.524 65.1349 215.077 63.6335 215.176 62.9421V54.3483C215.176 52.4517 214.188 51.78 213.694 51.6812C211.225 50.1995 206.049 47.2362 205.1 47.2362Z" fill="#4E69AB"/>

</svg>
