<svg width="376" height="210" viewBox="0 0 376 210" fill="none" xmlns="http://www.w3.org/2000/svg">
<g clip-path="url(#clip0_300_156)">
<path d="M79.1293 209.2H21.6856C21.6856 209.2 20.5212 192.159 27.4104 191.965C34.2995 191.771 33.5233 199.518 42.1594 188.866C50.7956 178.215 61.2748 178.796 62.6332 185.09C63.9917 191.384 60.0135 196.419 67.2908 194.87C74.5681 193.321 85.0481 197.387 79.1293 209.2Z" fill="#E6E6E6"/>
<path d="M49.4382 209.205L49.2441 209.197C49.6964 197.977 52.051 190.769 53.9471 186.696C56.0054 182.275 57.989 180.485 58.009 180.468L58.1381 180.612C58.1185 180.63 56.1582 182.402 54.1162 186.793C52.2307 190.847 49.8889 198.027 49.4382 209.205Z" fill="white"/>
<path d="M70.2283 209.227L70.042 209.173C71.4866 204.418 74.0908 200.095 77.6212 196.59L77.7515 196.734C74.2473 200.214 71.6624 204.506 70.2283 209.227Z" fill="white"/>
<path d="M30.7339 209.214L30.5415 209.187C31.1678 204.981 30.5052 200.683 28.6404 196.859C27.876 195.255 26.8641 193.781 25.6416 192.49L25.776 192.351C27.0151 193.657 28.0409 195.149 28.8161 196.773C30.6976 200.632 31.3661 204.969 30.7339 209.214V209.214Z" fill="white"/>
<path d="M86.9257 209.459H15.4909L15.4746 209.218C15.4337 208.617 14.5222 194.448 19.123 189.392C19.5795 188.858 20.143 188.425 20.7772 188.121C21.4114 187.818 22.1023 187.65 22.8054 187.629C25.8042 187.543 27.6889 188.665 29.2092 189.564C32.0744 191.26 33.9669 192.381 40.8491 183.893C48.3041 174.698 56.3482 172.72 60.9723 173.82C63.9601 174.531 66.0193 176.539 66.6219 179.332C67.1939 181.976 67.0108 184.46 66.8646 186.456C66.7081 188.592 66.5847 190.279 67.4639 191.044C68.1993 191.682 69.6624 191.74 72.0729 191.226C76.9756 190.183 83.8182 191.075 87.2521 195.503C89.0997 197.886 90.5554 202.215 86.9976 209.316L86.9257 209.459ZM15.9784 208.941H86.6042C89.2553 203.574 89.3383 199.039 86.8415 195.821C83.6911 191.759 77.0819 190.69 72.1812 191.733C69.5619 192.291 68.0016 192.199 67.1228 191.435C66.0479 190.5 66.1798 188.699 66.3465 186.42C66.4903 184.457 66.6689 182.013 66.114 179.442C65.5551 176.853 63.6369 174.988 60.8514 174.325C56.3748 173.259 48.5537 175.213 41.2523 184.22C34.0886 193.056 31.9302 191.779 28.944 190.009C27.405 189.098 25.658 188.066 22.8197 188.146C22.1867 188.166 21.5649 188.319 20.9944 188.593C20.4239 188.868 19.9173 189.258 19.5071 189.74C15.3733 194.284 15.8774 207.025 15.9788 208.941H15.9784Z" fill="#2F2E41"/>
<path d="M320.336 209.747H249.976L249.962 209.354L246.603 113.471H323.709L320.336 209.747ZM250.765 208.932H319.547L322.863 114.287H247.448L250.765 208.932Z" fill="#3F3D56"/>
<path d="M266.759 131.237H261.407V197.324H266.759V131.237Z" fill="#3F3D56"/>
<path d="M287.831 131.237H282.479V197.324H287.831V131.237Z" fill="#3F3D56"/>
<path d="M308.903 131.237H303.551V197.324H308.903V131.237Z" fill="#3F3D56"/>
<path d="M368.419 141.627L368.074 141.409L280.677 86.2955L288.258 74.3247L288.603 74.5425L376 129.656L368.419 141.627ZM281.804 86.0419L368.165 140.502L374.872 129.91L288.512 75.4495L281.804 86.0419Z" fill="#3F3D56"/>
<path d="M347.318 81.8538C344.777 80.2494 341.829 79.406 338.823 79.4236C335.816 79.4412 332.878 80.3191 330.357 81.9531C327.836 83.5871 325.837 85.9086 324.598 88.6421C323.359 91.3757 322.932 94.4064 323.368 97.3748L327.535 100.003C326.488 97.5762 326.247 94.8788 326.847 92.3055C327.447 89.7321 328.857 87.4181 330.87 85.7022C332.883 83.9863 335.394 82.9587 338.035 82.7698C340.676 82.581 343.308 83.2407 345.546 84.6526C347.784 86.0644 349.51 88.1541 350.472 90.6158C351.434 93.0774 351.581 95.7816 350.891 98.3325C350.201 100.883 348.711 103.147 346.639 104.791C344.567 106.436 342.021 107.376 339.375 107.472L343.543 110.1C346.417 109.22 348.977 107.535 350.921 105.246C352.864 102.957 354.108 100.16 354.506 97.1858C354.904 94.2121 354.438 91.187 353.165 88.4693C351.891 85.7517 349.863 83.4557 347.321 81.8538H347.318Z" fill="#3F3D56"/>
<path d="M371.382 209.185H0V210H371.382V209.185Z" fill="#3F3D56"/>
<path d="M162.213 203.621H156.263L153.431 180.719H162.215L162.213 203.621Z" fill="#FEB8B8"/>
<path d="M144.788 209.134H163.488V201.924H151.913C150.023 201.924 148.211 202.673 146.875 204.006C145.539 205.34 144.788 207.148 144.788 209.034V209.034V209.134Z" fill="#2F2E41"/>
<path d="M160.122 168.133L164.226 172.432L182.796 158.681L176.739 152.336L160.122 168.133Z" fill="#FEB8B8"/>
<path d="M168.455 174.401L160.468 166.039L155.237 171.013L168.14 184.524L168.213 184.455C168.89 183.811 169.434 183.039 169.813 182.186C170.192 181.332 170.398 180.412 170.421 179.478C170.443 178.545 170.281 177.616 169.944 176.745C169.607 175.874 169.101 175.077 168.455 174.401V174.401Z" fill="#2F2E41"/>
<path d="M118.706 105.388C118.33 104.784 118.09 104.104 118.005 103.398C117.92 102.691 117.992 101.974 118.214 101.298C118.437 100.621 118.805 100.002 119.294 99.4831C119.782 98.9643 120.379 98.5585 121.041 98.2945L144.402 38.8818L153.508 44.3226L127.557 101.319C127.928 102.459 127.867 103.696 127.385 104.794C126.903 105.892 126.035 106.776 124.943 107.277C123.852 107.779 122.615 107.864 121.465 107.516C120.315 107.168 119.334 106.411 118.706 105.388V105.388Z" fill="#FEB8B8"/>
<path d="M207.377 109.647C206.665 109.596 205.973 109.39 205.349 109.044C204.726 108.697 204.186 108.218 203.769 107.641C203.351 107.064 203.065 106.402 202.931 105.703C202.797 105.003 202.819 104.283 202.994 103.593L168.53 49.8299L178.291 45.6714L209.275 100.109C210.419 100.478 211.387 101.253 211.996 102.288C212.605 103.322 212.813 104.544 212.578 105.721C212.344 106.898 211.685 107.948 210.726 108.672C209.767 109.396 208.575 109.744 207.377 109.649V109.647Z" fill="#FEB8B8"/>
<path d="M144.633 99.4394L150.733 189.913L165.311 188.63L168.313 121.88L176.459 150.547L194.039 151.831L187.081 95.1606L144.633 99.4394Z" fill="#2F2E41"/>
<path d="M179.032 146.269L176.458 150.548L158.451 162.956L171.314 169.802C171.314 169.802 196.183 156.11 194.039 151.831L179.032 146.269Z" fill="#2F2E41"/>
<path d="M131.866 62.8344L136.941 48.565C138.07 45.39 139.819 42.4699 142.086 39.9738C144.354 37.4778 147.095 35.4552 150.151 34.0232V34.0232C157.019 31.4981 164.49 31.09 171.593 32.8519L173.44 33.3093C178.365 34.5004 182.978 36.7241 186.975 39.8325C190.102 42.2925 192.915 45.4073 193.166 48.7578C193.167 48.7649 193.169 48.7719 193.172 48.7786C194.038 52.5669 194.467 72.2486 194.467 72.2486H186.827L188.035 98.7763L187.937 98.5843C187.937 98.5843 143.872 106.906 143.872 102.627V75.2427L142.968 65.3275L131.866 62.8344Z" fill="#CCCCCC"/>
<path d="M172.998 29.1429C179.742 29.1429 185.209 23.6872 185.209 16.9572C185.209 10.2272 179.742 4.77148 172.998 4.77148C166.253 4.77148 160.786 10.2272 160.786 16.9572C160.786 23.6872 166.253 29.1429 172.998 29.1429Z" fill="#FEB8B8"/>
<path d="M174.827 11.4924L184.309 11.8716C185.502 11.8679 186.804 11.8259 187.713 11.0562C189.081 9.89466 188.852 7.70288 188.119 6.06556C186.076 1.50668 181.52 -0.12656 176.516 0.00757277C171.513 0.141706 166.269 1.83406 163.575 6.04151C160.881 10.249 160.152 15.5621 161.167 20.4512C162.341 17.9652 164.147 15.8297 166.406 14.2579C168.664 12.6862 171.297 11.7332 174.04 11.4941L174.827 11.4924Z" fill="#2F2E41"/>
<path d="M231.132 130.686L196.812 106.683C196.493 106.459 196.276 106.119 196.209 105.735C196.141 105.352 196.229 104.958 196.452 104.639L223.389 66.2854C223.613 65.9673 223.955 65.7508 224.339 65.6834C224.723 65.616 225.118 65.7032 225.438 65.9259L259.757 89.9282C260.076 90.1522 260.293 90.493 260.361 90.8762C260.428 91.2594 260.341 91.6537 260.118 91.9728L233.181 130.325C232.957 130.644 232.616 130.86 232.231 130.928C231.847 130.996 231.452 130.909 231.132 130.686V130.686Z" fill="#274B9F"/>
<path d="M238.85 104.641L218.712 90.5572C218.479 90.3943 218.28 90.1873 218.128 89.9479C217.975 89.7084 217.871 89.4414 217.822 89.1619C217.773 88.8824 217.779 88.5959 217.841 88.3189C217.902 88.0418 218.018 87.7796 218.181 87.5472C218.344 87.3148 218.552 87.1168 218.792 86.9644C219.032 86.812 219.299 86.7083 219.58 86.6591C219.86 86.61 220.147 86.6164 220.424 86.6779C220.702 86.7394 220.965 86.8549 221.198 87.0178L241.336 101.102C241.806 101.431 242.126 101.933 242.226 102.497C242.325 103.062 242.196 103.643 241.866 104.112C241.537 104.581 241.034 104.901 240.468 105C239.902 105.099 239.32 104.97 238.85 104.641V104.641Z" fill="white"/>
<path d="M234.229 111.222L214.09 97.1379C213.857 96.9751 213.658 96.7681 213.505 96.5286C213.352 96.2892 213.248 96.022 213.199 95.7424C213.15 95.4627 213.156 95.1761 213.217 94.8989C213.279 94.6217 213.395 94.3593 213.558 94.1268C213.722 93.8943 213.929 93.6962 214.169 93.5437C214.409 93.3913 214.677 93.2876 214.957 93.2386C215.238 93.1895 215.525 93.196 215.803 93.2578C216.08 93.3195 216.343 93.4353 216.576 93.5985L236.714 107.683C237.184 108.012 237.504 108.514 237.603 109.078C237.702 109.642 237.573 110.223 237.243 110.692C236.914 111.161 236.411 111.48 235.846 111.58C235.281 111.679 234.699 111.55 234.229 111.222V111.222Z" fill="white"/>
<path d="M229.557 117.873L209.419 103.789C209.186 103.626 208.987 103.419 208.835 103.18C208.682 102.94 208.578 102.673 208.529 102.394C208.48 102.114 208.486 101.828 208.548 101.551C208.609 101.274 208.725 101.012 208.888 100.779C209.051 100.547 209.259 100.349 209.499 100.196C209.739 100.044 210.006 99.9402 210.287 99.8911C210.567 99.8419 210.854 99.8483 211.131 99.9098C211.409 99.9714 211.672 100.087 211.905 100.25L232.043 114.334C232.513 114.663 232.833 115.165 232.933 115.729C233.032 116.294 232.903 116.875 232.573 117.344C232.244 117.813 231.741 118.133 231.175 118.232C230.609 118.331 230.027 118.202 229.557 117.873V117.873Z" fill="white"/>
<path d="M238.794 91.6234L230.994 86.1682C230.76 86.0054 230.562 85.7984 230.409 85.5589C230.256 85.3195 230.152 85.0523 230.102 84.7727C230.053 84.493 230.059 84.2064 230.121 83.9292C230.182 83.652 230.298 83.3896 230.462 83.1571C230.625 82.9246 230.832 82.7264 231.073 82.574C231.313 82.4216 231.58 82.3179 231.861 82.2688C232.141 82.2198 232.428 82.2263 232.706 82.2881C232.984 82.3498 233.247 82.4656 233.479 82.6288L241.28 88.084C241.75 88.4129 242.07 88.9149 242.17 89.4793C242.269 90.0438 242.14 90.6246 241.81 91.094C241.48 91.5633 240.977 91.8828 240.412 91.9821C239.846 92.0813 239.264 91.9523 238.794 91.6234V91.6234Z" fill="white"/>
</g>
<defs>
<clipPath id="clip0_300_156">
<rect width="376" height="210" fill="white"/>
</clipPath>
</defs>
</svg>
