<svg fill="none" viewBox="0 0 1005 650" xmlns="http://www.w3.org/2000/svg"><path stroke="#fff" stroke-width="2" d="m689.238 484.573 3.978-9.229m0 0c8.652-16.795 13.286-27.116 20.856-48.372a1 1 0 0 0 .044-.168c9.628-55.603-.93-64.66-17.031-79.039-3.181-2.84-7.148-4.721-11.397-5.087-29.792-2.566-49.98 3.663-90.929 47.415-42.457 53.32-64.351 88.209-97.463 166.085-7.638 14.573-12.858 21.029-27.847 21.88l-91.496 3.978c-18.242.332-26.308-2.536-39.781-8.951l-46.742-14.918-87.518-40.775-17.763-6.908a1 1 0 0 1-.256-.146c-18.501-14.531-28.762-24.594-46.625-48.639-10.617-17.614-14.763-29.328-17.885-54.566a1 1 0 0 0-.066-.255l-16.792-41.487a1 1 0 0 1-.072-.334l-.283-6.788m589.046 117.075 14.638-16.629M914 340.367l-3.825 7.651a1 1 0 0 1-.461.454l-26.544 12.78-55.693 28.841-74.589 40.776-39.628 21.795a1 1 0 0 0-.269.215l-5.137 5.836M321.266 61.902c-67.752 20.28-105.047 32.552-170.064 56.687-16.387 5.181-27.618 6.942-49.726 8.951-5.21.824-9.301 1.33-10.539 2.983m0 0c-.785 1.05-.422 2.561 1.534 4.908q.055.066.098.139c16.945 28.866 17.466 44.11 10.943 70.351-.03.121-.038.251-.022.375.793 5.928 2.354 9.568 7.703 16.425.146.187.223.423.214.661l-.024.626m-20.446-93.485 98.057 19.891 91.496 19.89m-169.107 53.704c-1.108 28.46-.882 46.98-7.851 60.537a1 1 0 0 0-.094.272l-4.912 25.541a1 1 0 0 0-.005.348l4.303 26.678m8.559-113.376 65.677 26.852 34.808 9.946m80.556 35.802c-11.538-13.503-18.591-18.293-31.747-23.836a1 1 0 0 0-.157-.051l-41.69-9.926-6.962-1.989m80.556 35.802 98.371 11.924q.087.01.175.006c19.104-1.05 32.002-5.063 87.366-63.577q.062-.067.113-.144l12.88-19.814c4.106-5.523 1.298-6.59-9.946-5.967l-88.512 3.978m-100.447 73.594-10.925 56.616q-.015.072-.039.142c-8.485 24.214-15.016 37.038-31.8 57.612-9.888 13.428-14.984 16.675-31.825 10.94-32.614-12.14-50.454-21.827-81.55-43.759-16.291-13.36-24.313-21.734-33.461-40.775m290.047-114.37-78.567-1.989-53.704-2.984c-13.228-.35-19.518 2.461-28.841 11.935l-18.711 22.649a1 1 0 0 0-.221.513l-.959 7.668m181.003-37.792c5.64-18.489 8.951-28.061 14.918-44.754 11.427-32.17 44.516-48.671 95.474-78.567 57.375-27.87 82.487-34.437 129.288-48.731M104.17 358.269l-.705-16.907-.641-3.978m1.346 20.885c11.325 22.626 21.305 36.077 55.983 63.649 42.567 28.022 67.436 42.183 112.306 66.592q.075.041.142.094c28.671 22.56 44.104 37.39 71.295 64.349.156.155.366.258.584.286 51.3 6.587 80.818 8.48 135.313 4.967.363-.023.695-.249.85-.578 32.469-68.821 50.994-107.283 94.225-163.557 36.275-39.679 50.334-55.411 93.54-65.985 7.752-1.897 15.99-1.737 23.385 1.267 32.028 13.009 36.364 36.704 28.509 89.036a20 20 0 0 1-.695 3.005l-11.753 37.321m197.195-329.186c-20.62-38.01-33.892-51.87-58.676-71.606-10.631-7.086-16.396-10.47-25.858-13.923"/><path stroke="#fff" stroke-width="2" d="M502.268 100.688c40.902 37.36 67.774 54.583 132.272 69.616 55.666 6.221 87.705 9.271 148.183 12.929l39.781 1.85m83.54 2.128-80.556-1.989-2.984-.139m-183.986-21.741-3.902 9.755c-.05.126-.075.262-.071.398.429 13.68 9.643 22.206 27.626 37.403.139.117.246.272.305.444l31.7 93.121a1 1 0 0 1 .047.208l2.971 25.751m125.31-145.339-.904-4.396a.92.92 0 0 0-.491-.638l-2.688-1.344c-.217-.109-.138-.436.105-.434m3.978 6.812 21.788 54.609c.06.15.083.315.066.475-2.849 27.669-6.356 44.919-17.842 80.207a1 1 0 0 0-.045.209l-3.941 38.43a1 1 0 0 1-.166.458l-26.712 39.573m0 0-74.365 40.653a1 1 0 0 0-.362.337l-8.813 13.708m83.54-54.698 87.444-42.729q.074-.036.152-.059l19.46-5.838a1 1 0 0 0 .552-.415L914 333.405m-7.956-154.15-87.518-.984m0 0c-4.743-.326-9.328-.634-13.764-.927M628.572 63.89c-39.311 12.218-60.875 20.381-96.26 39.142a1.01 1.01 0 0 0-.239 1.601c23.309 23.19 38.765 33.454 68.573 47.731a1 1 0 0 0 .165.062c21.064 5.859 35.329 9.915 52.624 12.933M628.572 63.89c29.941-9.4 46.033-11.59 74.589-15.912M628.572 63.89l24.863 101.469m131.277-119.37c2.762.244 5.409.516 7.956.823m112.381 93.656c-17.511-29.201-27.292-46.172-45.748-62.654-23.93-20.598-39.79-27.766-66.633-31.002M653.435 165.359c6.385 1.114 13.181 2.087 20.885 2.956 32.966 3.8 65.951 4.786 129.257 8.951M792.668 46.812c16.868 50.392 22.985 78.936 31.623 129.273a1.01 1.01 0 0 1-.984 1.181h-19.73m0 0 1.185.078M776.756 45.989c16.112 49.588 21.619 78.553 28.006 131.355m-174.2 179.93c67.714 5.163 67.423 54.055 62.654 110.392-12.251 69.207-59.599 140.844-114.37 137.244-37.648-3.363-56.251-13.037-86.523-39.781"/></svg>