<svg fill="none" viewBox="0 0 782 303" xmlns="http://www.w3.org/2000/svg"><path stroke="#fff" stroke-linecap="round" stroke-width="2" d="m48.081 269.98-8.058-12.893a1 1 0 0 1-.096-.202c-4.737-13.622-5.82-22.122-3.22-39.595a1 1 0 0 1 .031-.145c6.42-21.214 12.543-29.675 25.955-41.328 18.163-12.649 30.619-17.175 60.069-17.047 18.388 2.113 29.071 4.804 50.329 18.671 10.796 8.766 17.111 15.778 24.1 27.082 4.138 6.692 6.916 14.117 8.854 21.742l9.049 35.592a1 1 0 0 0 1.049.75l19.453-1.556 50.328-3.247 107.151-2.435 97.41-1.624 55.938.811q.073 0 .144.012l20.142 3.223a1 1 0 0 1 .158.039l8.939 2.979a1 1 0 0 0 1.148-.394l2.823-4.235 3.247-14.611c5.472-19.194 9.5-30.405 17.251-43.126 2.971-4.876 6.67-9.279 10.831-13.188 18.63-17.503 32.137-24.369 52.279-27.702 5.913-.979 11.949-1.064 17.911-.456 20.418 2.082 32.248 6.414 44.596 23.591 11.42 18.525 13.484 31.298.744 61.568-.311.739.319 1.542 1.098 1.351 3.275-.803 5.446-1.952 8.647-4.424a1 1 0 0 1 .134-.088l26.399-14.399a1 1 0 0 0 .453-.515 3269 3269 0 0 0 11.198-28.797q.032-.085.049-.173l5.615-29.682a1 1 0 0 0-.039-.519l-4.71-13.345a1 1 0 0 1-.054-.412l2.418-30.635c1.507-9.8 2.065-15.261.885-23.832a.99.99 0 0 0-.542-.753c-2.573-1.265-4.343-1.94-7.419-2.94a1 1 0 0 1-.4-.245l-2.021-2.02a1 1 0 0 1-.285-.587c-.398-3.381-.438-5.323.027-8.487q.014-.1.009-.2c-.204-4.001-.361-5.86-.707-7.557a.98.98 0 0 0-.523-.673c-7.542-3.751-11.996-4.589-19.759-6.257a1 1 0 0 1-.213-.072l-12.074-5.635-35.717-14.611-49.517-17.859-47.893-12.176L534.319 5.35c-23.57-2.056-36.845-3.067-60.881-4.06C453.8.72 442.789.857 423.11 2.915L386.896 7.91a147 147 0 0 0-21.393 4.595l-30.874 9.08-34.905 13.8-34.905 17.047-45.954 25.354a5 5 0 0 1-2.416.622h-2.299q-.472 0-.935.088l-16.583 3.16-41.4 8.928-52.763 15.424-38.964 12.988c-12.203 5.282-19.289 8.773-32.47 16.235l-20.848 14.433a1 1 0 0 0-.368.471l-4.76 12.695-2.407 8.825a1 1 0 0 0-.034.213l-1.612 32.237a1 1 0 0 0 .018.246l4.806 24.028a1 1 0 0 1-.003.405l-2.295 10.71a1 1 0 0 0 .185.819l7.715 10.029a1 1 0 0 0 .293.256l20.933 12.077zm0 0h2.992c.168 0 .332-.042.48-.122l8.705-4.748"/><path fill="#fff" d="M23.667 142.385a1 1 0 1 0-1.5-1.323zm-12.926 13.138-.75-.661a1 1 0 0 0-.245.559zm3.247 2.436-.024.999a1 1 0 0 0 .252-.026zm12.177-5.683-.53-.848-.014.009zm25.975-16.235-.514-.857-.016.009zm12.177-7.305.514.857a1 1 0 0 0 .087-.058zm7.305-6.494.78.625a1 1 0 0 0-1.022-1.596zm-22.729 5.682-.242-.97a1 1 0 0 0-.129.041zm-12.547 3.942a1 1 0 1 0 .743 1.857zm4.43 21.222.3-.954-.138-.043-.144-.003zm-18.608-12.026-12.177 13.8 1.5 1.323 12.176-13.8zM9.746 155.421c-.06.586-.046 1.148.117 1.653.174.538.5.962.963 1.26.432.278.935.417 1.434.497.504.08 1.081.112 1.704.127l.049-1.999c-.602-.015-1.07-.045-1.437-.103-.373-.06-.567-.139-.667-.203a.3.3 0 0 1-.142-.192c-.044-.136-.077-.388-.031-.836zm16.948-2.297 25.976-16.235-1.06-1.696-25.976 16.235zm25.96-16.225 12.177-7.306-1.029-1.715-12.176 7.306zm12.264-7.364c3.636-2.737 5.522-4.219 7.485-6.668l-1.561-1.251c-1.786 2.23-3.481 3.577-7.127 6.321zm6.462-8.264-22.73 5.683.486 1.94 22.729-5.682zm-22.858 5.724-12.176 4.871.743 1.857 12.176-4.871zm-34.306 31.937c4.668-1.089 7.4-2.552 11.676-5.29l-1.079-1.685c-4.183 2.679-6.695 4.011-11.052 5.028zm11.676-5.29.816-.526-1.087-1.679q-.414.268-.808.52zm-.558.157 15.423.289.037-2-15.423-.288zm15.142.243 28.411 8.929.6-1.908-28.412-8.929z"/><path stroke="#fff" stroke-linejoin="round" stroke-width="2" d="M204.749 80.842c-4.046.838-6.546 1.444-10.46 3.79-1.115.669-2.006 1.798-1.892 3.094.201 2.29 2.071 3.572 5.858 5.293m0 0 9.087-1.947a5 5 0 0 1 4.117.942l4.79 3.726c.448.348.951.617 1.489.797l.931.31c.459.153.937.238 1.42.254l17.942.579m-39.776-4.661L84.61 112.5m159.915-14.612h12.176m-12.176 0-6.494-.21m6.494.21 27.6-22.729m-15.424 22.73 6.123-13.011a5 5 0 0 1 .988-1.407l8.313-8.312m-15.424 22.73c1.896 1.243 5.33 1.723 12.988 2.434l15.423.812c5.824-.111 8.339-.289 11.365-.812M272.125 75.16c6.198-1.54 8.502-1.151 12.176 0m-12.176 0 15.508-10.553m-3.332 10.553c3.314 2.071 5.256 3.553 8.181 7.172.497.616.825 1.35.973 2.128l3.022 15.864M284.301 75.16l3.332-10.553m8.844 35.717-.406 2.842m.406-2.842 17.047-.811 86.857-3.247 62.505-4.06m-231.349 12.989h25.164l13.8.812 12.988.811 9.313-.62a3.54 3.54 0 0 0 3.269-3.032m-64.534 2.029 6.494-7.515m-6.494 7.515-6.057 9.085a5 5 0 0 0-.652 1.42c-4.467 16.011-5.292 25.22-5.467 41.447l1.611 47.523c.008.246.036.497.08.74 4.27 23.212 6.556 32.922 10.485 46.712m6.494-154.442 16.235-14.402c11.061-8.98 17.006-13.053 27.599-20.294 16.43-10.343 25.66-15.774 42.211-23.54 18.482-9.684 29.085-12.503 47.894-18.671 21.016-6.543 32.975-8.332 54.387-10.553 14.801-1.24 14.915-2.392 65.752-1.623 26.326 1.262 40.961 2.449 66.563 6.494l51.14 9.74 34.906 9.742 47.893 17.046m0 0 43.023 21.918 31.658 20.293m-74.681-42.21-20.767 15.175a5 5 0 0 1-.714.435l-15.397 7.699q-.463.231-.963.363l-21.092 5.55M767.292 93.83l3.247-.811m-3.247.811-13.239.414c-4.543.142-6.555 5.782-3.127 8.768l15.554 13.547 4.15 2.767a5 5 0 0 0 1.561.69l5.653 1.414M289.171 59.737l-1.538 4.87m-56.096 187.515 136.374-8.118 77.928-2.435m-214.302 10.553-18.67 1.623m232.972-12.176 91.728-1.624 38.152 1.624m-129.88 0-1.624-30.035c1.371-35.004 4.017-51.142 8.93-79.551l8.929-36.461m113.645 146.047h7.306m-7.306 0c5.165-20.58 8.538-31.461 17.858-46.27 10.155-12.536 15.492-19.716 30.847-30.035 7.099-5.075 10.977-6.927 17.858-9.741M462.886 92.207l-.812 3.315m.812-3.315 13.799-1.168m139.621-11.82 15.424-1.624m-15.424 1.624-139.621 11.82m139.621-11.82 2.436-46.27m12.988 44.646c27.642-7.877 38.985-13.116 44.989-24.261.265-.492.047-1.105-.457-1.346-23.729-11.319-35.883-13.939-57.52-19.039m12.988 44.646 1.948 3.247m8.604 74.681 4.059-12.176 3.247-16.235 2.23-27.505a5 5 0 0 0-1.715-4.188l-15.331-13.24a5 5 0 0 1-1.02-1.212l-.074-.125m8.604 74.681c12.134-3.9 18.979-5.98 32.47-6.494 14.796.788 23.016 2.19 37.341 8.93 9.731 5.928 15.179 9.282 23.541 21.917 5.381 7.876 7.723 13.97 10.552 27.599.635 8.225.33 12.978-2.435 21.918m0 0-5.195 1.298a5 5 0 0 1-2.586-.043l-4.395-1.255m12.176 0 8.495-2.832a5 5 0 0 0 2.127-1.389l14.542-16.073M633.678 80.842l-105.041 9.741-66.563 4.939m0 0-42.211 2.367-55.199 3.247-68.593 2.03M469.38 13.467l-20.294 78.74m20.294-78.74h17.858m-17.858 0c-39.187-.846-61.212 1.68-100.657 12.988-22.492 6.81-34.783 12.339-56.823 23.54-10.154 5.669-15.626 8.86-24.267 14.612M476.685 91.04l10.553-77.572m0 0c56.241 2.584 84.946 6.83 131.504 19.482m8.929 75.493h-6.242c-1.209 0-2.355.47-3.336 1.176-1.767 1.271-3.468 1.845-6.657 2.071l-18.924 1.514c-.897.072-1.791.347-2.457.951-1.091.991-.621 1.452 2.711 1.594l24.352-1.624 5.567-.696a4.5 4.5 0 0 0 1.742-.575c2.023-1.203 2.824-2.257 3.244-4.411Zm-189.95 11.364h-6.241c-1.21 0-2.355.47-3.337 1.177-1.766 1.271-3.467 1.844-6.657 2.07l-18.924 1.514c-.896.072-1.79.348-2.456.952-1.091.99-.621 1.452 2.71 1.593l24.353-1.623 5.566-.696a4.5 4.5 0 0 0 1.743-.575c2.022-1.204 2.823-2.258 3.243-4.412Z"/><circle cx="71.434" cy="71.434" r="70.434" stroke="#fff" stroke-width="2" transform="matrix(-1 0 0 1 195.82 159.582)"/><circle cx="63.316" cy="63.316" r="62.316" stroke="#fff" stroke-width="2" transform="matrix(-1 0 0 1 721.834 164.453)"/></svg>