<svg fill="none" viewBox="0 0 1005 650" xmlns="http://www.w3.org/2000/svg"><path stroke="#fff" stroke-width="2" d="m794.039 138.518-81.38-68.2c-11.829-8.757-20.021-12.25-35.806-16.074-19.063-2.633-29.977-3.854-49.385-6.09-44.96-4.111-70.995-3.03-117.947-4.497-56.913.662-95.266.958-172.01 8.472l-17.906 3.18a.992.992 0 0 0-.201.059c-1.121.456-2.215.913-3.287 1.372m477.922 81.778 15.546 11.329c.051.038.1.082.144.129 12.274 13.209 19.585 20.406 33.35 30.877m-49.04-42.335c-85.717-21.228-139.574-27.048-242.432-30.407m-353.212 38.206c26.199-15.459 40.797-28.902 66.819-54.425 20.252-18.052 32.021-27.048 50.903-35.151m-117.722 89.576c-14.266 15.929-22.748 24.25-39.68 36.704-11.937 6.783-16.221 10.344-22.413 16.423-.142.14-.242.325-.281.521-4.196 21.016-5.856 33.337-6.104 56.946l-.022 2.247m68.5-112.841c99.35-30.683 159.818-35.504 270.053-37.792m-345.35 274.177c4.5-20.365 6.101-32.653 6.165-57.251l.632-66.293m-6.797 123.544 10.401 86.554a.99.99 0 0 0 .028.142c6.29 23.239 11.151 35.767 31.849 52.875.137.113.245.263.306.429l11.955 32.449m-54.539-172.449c16.617 12.224 44.739 14.259 95.346 17.766m-40.807 154.683 98.707 18.922c36.024 4.782 70.139 8.235 102.826 20.034 28.145 9.043 62.113 11.092 126.161 12 25.222.357 47.69-.475 65.648-1.643 23.742-1.545 64.648-10.503 87.307-17.756 22.353-9.095 33.588-11.581 52.95-14.103l90.082-19.367 32.681-9.801m-656.362 11.714c2.411-20.142 4.104-31.236 11.659-48.122a.987.987 0 0 1 .093-.164c9.075-13.008 18.845-17.048 46.185-17.46 117.707 1.991 181.801 3.928 309.005 1.826l225.964-10.204c24.196 2.25 41.272-.764 51.515 18.471 5.794 10.489 8.241 21.02 11.941 43.939m0 0 8.099-31.132c.044-.167.132-.322.252-.446 12.566-13.015 17.673-20.32 24.797-33.175a.986.986 0 0 0 .091-.223c9.027-33.022 11.609-56.286 14.29-99.757m-38.449-197.851 1.012.767a.994.994 0 0 0 .224.127c13.516 5.561 20.467 9.386 24.343 24.826a.965.965 0 0 1 .026.161l3.933 47.153m-29.538-73.034-68.602 5.798c-28.017 2.284-38.482 9.401-49.75 32.113l-6.903 16.79-4.591 10.069m0 0 58.439-.566c15.667-.606 23.183 3.936 35.816 14.95m-94.255-14.384-207.901 1.387-210.148 1.365m512.304 11.632c26.958-.63 41.251-1.9 65.129-6.12m-65.129 6.12-16.975 132.267a.976.976 0 0 1-.099.323c-.36.711-.719 1.405-1.078 2.083m83.281-140.793.094 1.124c1.533 47.32 2.316 73.861 8.94 121.347.009.066.012.134.008.2l-.131 2.146m-663.084 21.764c14.403 23.504 27.653 34.037 85.062 35.647 105.899 4.578 165.292 7.127 275.285 2.628 68.917-2.566 107.211-5.137 174.199-14.054a.958.958 0 0 0 .217-.054c19.314-7.149 27.678-13.995 36.129-29.955m-570.892 5.788c-5.171-56.039-9.633-85.455-20.062-135.037m20.062 135.037c221.783 9.078 346.869 6.97 570.892-5.788M198.382 265.431l-68.487-6.273m68.487 6.273c14.237-10.366 22.636-14.66 39.477-15.356l57.325-1.7m0 0c-6.405-18.03-10.997-27.166-20.893-41.692a.996.996 0 0 0-.133-.157c-10.535-10.174-17.983-13.873-34.607-15.991l-80.847-6.391m14.707 342.874c5.805-25.738 6.863-42.161 37.16-47.689.987-.18 2.014-.269 3.016-.281 48.785-.598 87.31 2.416 154.649 3.757 100.474.446 156.815.218 257.361-3.162l160.762-7.455c23.14.793 35.444 2.008 43.591 19.417.031.067.056.139.072.211l5.358 24.665M316.117 56.741c-18.565 12.929-28.89 20.261-35.154 39.608a.994.994 0 0 0-.045.386c.953 10.979 12.207 12.339 34.687 13.618l152.843-1.828M679.09 55.389c21.267 12.13 32.495 19.534 45.618 38.52.056.08.102.175.132.27 3.935 12.697-11.544 13.919-41.77 15.187l-131.463-1.255m0 0-26.967-.258-56.192.672m413.08 270.179c-25.813 7.77-43.282 11.676-92.192 15.976"/></svg>