<svg fill="none" viewBox="0 0 1005 650" xmlns="http://www.w3.org/2000/svg"><path stroke="#fff" stroke-linejoin="round" stroke-width="2" d="m740.513 321.896 30.861 2.111c.224.016.447.05.666.103l21.77 5.256"/><path stroke="#fff" stroke-linejoin="round" stroke-width="2" d="M871.805 236.522c-8.727.193-12.886 1.71-17.79 8.004a3.826 3.826 0 0 0-.616 1.172l-10.083 31.042a3.985 3.985 0 0 1-.277.648c-4.145 7.649-8.337 10.715-17.596 14.452a4.109 4.109 0 0 0-.819.445c-14.208 10.018-21.114 18.009-30.814 37.081-4.807 8.878-8.755 13.207 1.3 14.941l33.798 5.335c12.985 1.358 20.017.822 32.188-1.02.204-.031.413-.079.61-.142 27.629-8.732 42.325-13.897 59.497-25.517 10.306-8.036-.518-26.853-10.4-52.291m-817.655 0-2.864 6.108c-9.212 25.737-19.712 44.888-8.538 52.588 18.542 11.065 34.194 15.755 63.585 23.6.193.052.395.09.592.113 12.866 1.452 20.267 1.765 33.835-.009l35.208-6.416c10.467-2.054 6.13-6.254.687-14.971-11.045-18.758-18.651-26.521-34.024-36.083a4.19 4.19 0 0 0-.825-.393c-9.898-3.441-14.439-6.368-19.136-13.883a3.959 3.959 0 0 1-.328-.654l-11.973-30.675a3.912 3.912 0 0 0-.708-1.168c-5.427-6.13-9.858-7.512-19.019-7.425l-5.293.454"/><path stroke="#fff" stroke-width="2" d="m756.112 169.29-15.599-27.746c-18.696-27.839-26.248-44.114-66.195-67.173a.999.999 0 0 0-.213-.092c-4.195-1.264-6.713-1.669-11.297-2.101-125.232-8.403-195.303-8.07-320.073 0-12.36.094-17.844 1.168-25.895 4.23a.96.96 0 0 0-.197.1c-14.123 9.317-22.317 16.177-37.605 33.021-16.694 23.523-25.069 37.379-40.298 61.896m517.372-2.135 2.546-18.814a.995.995 0 0 1 .368-.645c6.136-4.857 10.064-5.315 17.816-.856.045.025.09.056.13.088 10.505 8.474 15.086 15.435 22.038 29.832 2.116 4.096 1.403 5.513-1.089 7.319-.138.1-.3.161-.468.179l-19.242 2.106m-22.099-19.209c5.583 8.74 10.798 12.794 22.099 19.209m0 0 23.34 18.097c.039.03.081.058.125.082 10.779 6.033 15.398 6.735 23.332 7.434 19.983 3.906 30.906 7.227 48.098 22.41 28.061 20.227 40.791 34.615 59.796 64.03 12.024 16.121 17.014 25.057 18.199 40.552 7.831 44.27 6.312 71.092-1.3 120.591-4.756 24.607-9.403 34.75-16.847 54.288-.034.09-.082.177-.14.254-10.135 13.282-17.823 19.32-36.31 26.563-35.118 9.883-54.753 14.479-89.695 21.343-250.394 25.063-384.44 27.061-609.666 4.269-41.765-6.291-64.177-11.149-101.248-23.429a1.038 1.038 0 0 1-.273-.14c-18.424-13.27-23.791-21.66-29.772-37.26-9.022-26.32-12.054-40.552-14.3-65.097-3.306-34.697-4.596-53.719-2.604-84.231.003-.05.01-.101.02-.15 5.293-24.202 9.883-37.235 23.383-58.62 20.86-32.254 34.811-45.948 62.397-65.097 14.744-10.406 23.319-14.082 38.9-18.117.064-.016.133-.027.199-.031 19.622-1.104 28.958-9.229 45.396-24.539m0 0-19.499-1.067c-7.603-1.064-7.938-3.406-6.541-8.389a.99.99 0 0 1 .126-.277l18.037-27.5c.052-.078.116-.151.188-.212 10.364-8.861 15.095-7.615 22.877-3.335.259.143.444.395.5.686l3.811 19.818m-19.499 20.276c9.681-8.032 14.081-12.478 19.499-20.276"/><path stroke="#fff" stroke-width="2" d="m246.512 181.008 503.274-2.097c2.441-.011 4.858.615 6.963 1.853 21.903 12.878 29.036 22.353 30.561 44.019 2.741 31.436-8.984 59.056-42.886 93.648a13.057 13.057 0 0 1-2.921 2.25c-15.281 8.574-28.438 11.416-55.587 14.021-152.06 10.095-237.226 11.806-387.412.099a13.98 13.98 0 0 1-2.481-.419c-11.583-3.068-18.32-5.248-27.361-10.62a13.261 13.261 0 0 1-2.441-1.882c-31.362-30.433-47.939-48.809-52.084-95.982-.065-.731-.07-1.49-.005-2.222 1.602-17.905 9.003-26.637 23.303-39.245 2.503-2.208 5.739-3.409 9.077-3.423Z"/><path stroke="#fff" stroke-linejoin="round" stroke-width="2" d="M818.509 540.666c-8.089-7.233-13.226-12.132-19.621-18.341-4.232-4.108-8.975-7.751-14.462-9.914-10.508-4.143-19.407-4.753-33.514-4.828-186.439 11.513-292.402 13.335-484.873 5.336-20.311-1.079-29.655.321-41.598 7.471-13.303 9.888-20.183 16.327-32.498 27.746m24.699-214.501 24.698-6.403 27.299-3.202"/></svg>