<svg fill="none" viewBox="0 0 1031 650" xmlns="http://www.w3.org/2000/svg"><path stroke="#fff" stroke-linecap="round" stroke-width="2" d="M993.774 441.597c-.549 15.928-2.039 22.697-6.95 30.119-16.13 22.714-30.105 33.856-57.922 48.531m64.872-78.65 7.956-14.767c.1-.195.18-.4.24-.613l8.02-28.641m-16.216 44.021-10.426 15.059-20.651 26.388c-.133.17-.285.326-.452.464l-25.869 21.37a3.005 3.005 0 0 0-.81 1.047l-6.664 14.322m-435.569-11.461h4.995c.522 0 1.035-.137 1.488-.396l15.527-8.872m-22.01 9.268-18.239-14.819a3.006 3.006 0 0 0-.645-.4c-16.186-7.371-29.842-11.02-56.414-17.217l-139.012-28.961-129.744-27.802-49.813-8.109-14.704-1.132a2.907 2.907 0 0 1-.697-.139c-7.655-2.527-10.76-5.237-14.718-11.472m423.986 110.051c-3.445-11.627-5.993-21.807-7.606-31.278m-416.38-78.773-35.911-75.298C20.86 303.088 13.718 294.674 1 284.05m68.347 114.685 16.218 2.317M68.19 190.217c-26.42 5.7-41.182 9.576-67.189 22.011m67.189-22.011 11.27-18.033c.208-.331.477-.62.798-.842 5.357-3.698 9.977-4.339 18.051-5.452m-30.12 24.327-3.474 11.585c-.728 4.718-.041 7.113 10.425 9.267m23.17-45.179 50.97-45.178c28.574-22.084 44.181-31.95 72.981-45.18 38.458-15.587 59.431-20.63 96.15-25.484 43.748-4.829 72.25-6.057 128.585-5.793 2.777-.02 5.476-.043 8.109-.066M98.308 165.89l5.792 4.634m863.03-26.644-31.277-10.426L832.752 99.86c-53.821-15.573-83.589-21.599-136.694-32.436-51.621-9.898-79.962-13.746-129.744-18.535-46.463-5.5-71.123-5.054-111.21-4.7M967.13 143.88c15.924 3.673 25.079 4.572 41.7 4.634H1020c.28 0 .56.039.82.116 6.76 1.941 9.95 3.381 7.79 8.944-.05.136-.12.271-.19.396l-19.26 32.846c-.21.369-.35.788-.39 1.214-1.82 17.816-.76 25.6 5.8 31.849.73.703 1.14 1.703 1 2.711-.6 4.205-1.4 7.316-5.28 14.082-.19.339-.46.639-.77.877l-14.587 11.224M967.13 143.88c.252 1.34 3.02 2.246.58 4.213-.366.295-.824.45-1.291.505l-18.982 2.233c-17.538 1.148-27.031.728-42.862-3.475l-61.397-17.377-96.149-28.961-106.576-26.643c-46.12-10.435-72.185-15.453-119.318-22.01l-66.031-8.176m539.829 208.584 5.717 44.595c.05.385.17.757.36 1.095l14.35 25.389c.28.486.41 1.043.39 1.6-.52 13.118-.78 20.237-2.28 44.322.04 11.243-.16 17.484-3.48 27.802m-15.057-144.803v-1.812c0-.334-.059-.674-.169-.99-7.679-22.07-12.26-29.365-20.453-30.755a2.749 2.749 0 0 0-.461-.038h-26.413l-48.654 2.317m96.15 31.278-12.743 6.95-9.867 5.482c-.369.205-.69.485-.943.822l-9.53 12.707a3.007 3.007 0 0 1-1.314.995c-20.877 8.106-32.363 9.875-52.109 11.246a3.072 3.072 0 0 1-.748-.041c-11.484-2.081-18.056-3.304-28.347-7.933a3.008 3.008 0 0 1-.46-.258l-43.622-29.847a2.982 2.982 0 0 1-.341-.271L804.95 224.97c-2.781-2.976 1.444-3.277 10.426-3.475h83.407m111.207 176.081-15.057 18.535-28.961 33.595-44.526 53.659a2.998 2.998 0 0 1-1.65 1.011l-91.352 20.554a2.979 2.979 0 0 1-.659.074H804.95M75.14 211.069l-13.276 11.063c-.41.341-.721.786-.902 1.288l-9.972 27.702a2.998 2.998 0 0 0-.178 1.016v1.085c0 .466.109.925.317 1.342l.24.478a3 3 0 0 1 .102 2.456l-1.548 3.868c-.177.443-.246.92-.201 1.395l6.846 73.024c.024.261.083.518.174.764l14.837 39.944c.057.154.126.302.207.444l13.78 24.114M75.138 211.069l17.111 1.141c.177.012.355.008.53-.012l17.919-1.991a3 3 0 0 0 2.669-2.981v-5.424m-27.803 199.25 44.021 4.633 96.149 17.377 81.09 14.641m167.973 36.33-33.595-11.585-46.337-9.267-85.724-15.06-2.317-.418m167.973 36.33 10.929 3.475m-10.929-3.475c-1.952-21.676-1.744-32.525 1.158-49.813 6.457-26.736 11.174-41.286 31.278-62.555 16.027-14.633 25.934-20.745 44.02-27.802m-65.527 143.645c-4.261-25.017-1.997-45.097 7.519-73.878a3.1 3.1 0 0 1 .22-.505c23.8-43.304 44.12-56.823 93.479-61.134a2.95 2.95 0 0 1 .441-.006c69.981 4.119 103.895 21.843 153.85 83.394 24.133 31.876 32.793 56.17 40.81 99.625M551.254 333.863c25.116-6.858 40.336-8.387 70.664-4.634 31.555 6.609 47.987 13.385 75.298 30.119 16.741 12.851 26.132 19.945 42.862 37.07 23.884 26.698 34.295 43.299 48.654 75.298l16.083 51.694c.089.288.135.589.135.891v.703M551.254 333.863l10.426-30.119 31.277-82.249c4.583-10.725 6.808-16.829 5.867-27.051a2.944 2.944 0 0 0-.496-1.374l-8.846-13.047M804.95 525.004h-22.904m0 0c.667 3.615 1.33 7.362 1.997 11.258.037.217.098.43.182.633 2.052 4.967 3.673 7.685 8.413 10.809a2.885 2.885 0 0 0 1.591.468h7.246l20.852-2.317 80.533-11.504a2.996 2.996 0 0 0 1.047-.356l18.044-10.15a531.146 531.146 0 0 0 6.951-3.598M104.1 170.524l9.135 29.688c.088.286.133.583.133.882v.708m-9.268-31.278c19.948-18.903 31.281-29.538 52.13-48.654 19.81-14.844 30.599-23.136 64.872-39.386 32.208-11.617 50.085-18.274 90.357-23.169 61.629-6.34 96.561-7.015 159.863 0 61.033 8.36 95.263 14.087 156.388 27.802 47.933 12.387 73.268 21.515 118.16 38.228m-638.294 52.13c25.064-26.015 39.425-40.205 68.347-61.397 32.727-23.45 51.338-30.094 84.565-40.545 32.554-7.129 51.048-10.561 85.724-12.743m0 0c-21.029 49.708-31.863 78.893-49.445 132.107a1.681 1.681 0 0 1-1.526 1.153v0m50.971-133.26h25.485M113.368 201.802h18.535l163.338-5.752m0 0 18.535-.548m253.696-13.394-231.686 12.743-3.475.103m235.161-12.846 22.01-2.085m-22.01 2.085 23.169-92.37M371.697 62.79h11.585c42.443 1.172 63.917 3.59 101.942 8.11 39.588 5.889 61.835 9.24 104.258 18.534l1.159.303M371.697 62.79c-18.93 48.936-27.194 78.144-39.386 132.164m0 0-18.535.548m432.094-70.157c-43.686 29.974-68.776 41.995-114.684 55.605l-34.753 5.792-30.119 3.476-130.903 8.109-127.427 5.792m437.886-78.774c38.64 13.419 59.107 23.867 94.991 44.021 23.344 17.684 36.221 28.361 57.922 52.129m-590.799-17.376-142.487 4.633h-50.971l193.458-4.633Zm0 0 .9-4.503a3.002 3.002 0 0 1 1.381-1.974l3.511-2.14m-5.792 8.617-17.377 33.594-10.183 23.761c-.16.374-.242.776-.242 1.182v50.14c0 .143.01.29.031.432 5.449 37.862 5.979 54.372 3.542 76.521a3.02 3.02 0 0 0 .29 1.665l22.78 46.289m282.657-257.68c16.511-2.116 26.644-6.024 41.704-10.657 14.409-4.434 47.294-16.453 76.063-38.637 1.781-1.374 1.4-4.135-.67-5.016-24.501-10.438-40.414-15.677-68.443-23.536l-47.495-12.44"/><path stroke="#fff" stroke-width="2" d="M726.447 571.406c10.472-12.645 17.914-25.643 26.081-43.074 4.968-10.603 8.762-21.857 9.541-33.539.797-11.973-.626-20.957-3.456-33.503-14.334-38.077-28.38-48.614-50.971-71.823-31.969-29.511-50.375-33.389-83.407-34.753-28.105-1.472-43.855 2.148-71.823 22.011-26.497 19.505-35.139 38.118-41.703 82.248-.697 23.595 2.347 37.227 9.267 53.288 36.709 70.926 66.064 80.515 109.694 89.898 8.706 1.872 17.587 3.18 26.478 2.695 9.253-.504 17.982-2.109 28.848-5.673 16.076-5.271 30.66-14.745 41.451-27.775Z"/></svg>