<svg fill="none" viewBox="0 0 1005 650" xmlns="http://www.w3.org/2000/svg"><path stroke="#fff" stroke-width="2" d="m151.866 224.388-3.945-.789c-.463-.092-.934.149-1.09.594-.569 1.631-.52 2.997.237 5.538a.966.966 0 0 0 .191.35c1.362 1.581 2.595 2.255 5.273 3.088l17.456 6.161c.512.18 1.08-.079 1.244-.596.619-1.96.226-2.437-.27-3.307a.98.98 0 0 0-.128-.178c-.905-.993-1.677-1.422-3.169-2.08l-12.751-4.251a.951.951 0 0 1-.384-.237c-1.085-1.107-1.533-1.991-1.865-3.493a1.035 1.035 0 0 0-.799-.8Z"/><path stroke="#fff" stroke-width="2" d="m383.849 203.984-21.618 10.809-7.566 2.162-20.538-1.081m0 0h-1.081m1.081 0-8.647-1.081-1.081-.249m8.647 1.33 3.243 12.971m-3.243-12.971c-9.649-17.642-16.72-28.407-31.347-48.642l-42.156-50.803c-19.813-21.897-29.422-28.13-46.48-38.913-22.782-10.954-31.562-11.51-47.56-12.971-13.687-.872-21.27-.365-34.59 3.242-15.507 3.894-23.964 7.948-38.913 16.214m244.289 144.844c.477 6.833-1.065 11.423-8.648 21.618l-2.161 42.157V302.348l5.404 83.231 15.133 78.907m-9.728-235.641-15.133-2.162-25.942-1.081h-9.729l-38.913 1.081c-20.141.007-30.949-.116-43.237-2.162-6.174-1.269-8.879-2.646-9.728-8.647l3.513-14.052m-55.397-20.538-3.243 2.162v5.405m3.243-7.567L92 166.151m49.723 15.133 9.548 2.162m28.284 198.89-4.324-10.809-14.052-23.78v-11.891l-6.485-24.861-21.619-71.341 5.405-37.832v-12.971m41.075 193.485 25.942 11.89L279 427.735l67.017 36.751m-166.462-82.15-32.428-15.133-18.376-8.647-21.618-5.405-9.728-2.162H93.08m252.936 113.497 18.376 11.891M199.011 194.255c3.312-5.032 5.193-7.423 8.648-9.728l39.994-11.89c6.275-1.087 9.821-.321 16.214 4.324l16.214 32.427 11.89 2.162h19.457l12.971 2.994m-125.388-20.289-1.891 7.567m1.891-7.567-47.74-10.809m173.128 31.098c-17.671-27.154-28.07-41.79-47.561-66.768-24.369-31.708-39.505-46.976-71.341-65.937-21.576-8.43-35.184-11.977-55.127-10.088m-10.809 1.441C120.726 76.282 110.343 80.26 92 89.406m47.561-16.214c-5.033 38.859-5.948 61.868-4.324 104.85m4.324-104.85c3.833-.64 7.413-1.12 10.809-1.44M138.48 188.85 92 173.718m46.48 15.133 58.64 12.971m-46.75-130.07c-3.897 40.615-3.945 64.907.901 111.694M912.421 298.024c-12.312 22.597-25.314 38.032-58.37 62.694l-54.046 44.318M501.67 378.013l45.399-6.486c7.944-.861 12.73-1.051 21.618-1.081l46.48 4.324M901.612 399.631c-21.806 34.261-39.08 52.814-82.15 84.312-7.42 8.225-11.667 13.357-19.457 23.78l-17.295 24.862"/><path stroke="#fff" stroke-width="2" d="m775.144 332.614-16.214 19.457m0 0 10.809 5.404c3.46 2.135 4.935 3.402 2.162 6.486-10.817 10.187-17.496 14.636-30.266 20.537-24.379 4.64-39.174 6.288-71.341 4.324-23.057.17-35.945-.089-57.289-15.133l-56.208-48.641c-9.42-7.824-13.867-12.606-16.214-23.781-.554-5.432.487-7.203 6.486-6.485l17.295 1.081 56.208 14.052 48.641 15.133 23.781 5.404c10.554 1.385 17.1 2.935 30.266 7.567l35.67 14.052ZM686.508 162.909c39.267 10.542 61.399 16.91 102.688 35.67 25.958 13.574 41.196 23.293 70.26 46.48 11.453 10.708 16.126 16.321 22.699 25.942 3.609 10.446.527 16.386-7.566 27.023-19.022 16.363-31.638 23.969-60.532 32.428-21.109 6.312-35.824 4.868-65.936-4.324l-101.607-37.832-131.873-42.156-88.636-24.861-28.104-9.729"/><path stroke="#fff" stroke-width="2" d="M646.514 153.18s-29.727 12.242-51.884 18.376c-30.762 8.319-48.038 12.36-78.908 18.376l-68.098 12.971-49.722 8.647c-28.472-10.902-64.587-45.691-138.359-121.063-21.2-17.485-33.495-26.604-61.612-32.428l-32.428-2.162c-18.118.965-28.828 3.25-48.642 9.729C106.098 70.49 101.072 73.813 92 79.678"/><path fill="#fff" d="m253.058 46.169-.047-.999h-.018l-.017.002.082.997Zm92.959-2.162.093-.996-.045-.004h-.046l-.002 1Zm92.96 8.647.153-.988-.03-.005-.031-.002-.092.995Zm79.988 25.943.484-.876-.009-.004-.008-.005-.467.885Zm210.78 94.04.289-.957-.03-.01-.031-.007-.228.974Zm57.289 17.295.304-.953-.008-.002-.007-.003-.289.958Zm55.127 25.942.659-.753-.043-.037-.047-.033-.569.823Zm67.018 107.011.97.243.002-.011.003-.011-.975-.221Zm-8.648 88.636.971.24.014-.058.008-.06-.993-.122Zm-49.722 87.555.679.734.041-.038.036-.042-.756-.654Zm-68.098 51.884.437.9.005-.003-.442-.897Zm-84.313 33.509.227.974.038-.009.036-.011-.301-.954Zm-75.664 10.809.038 1 .012-.001.011-.001-.061-.998Zm-68.098-124.306.897-.441-.003-.007-.004-.007-.89.455Zm-58.37-79.988.701-.713-.008-.008-.007-.007-.686.728Zm-143.763 23.78-.981-.197-.013.068-.005.071.999.058Zm-4.324 56.208.522-.853-.011-.007-.011-.006-.5.866Zm-28.104-16.214.5-.866-.04-.023-.042-.019-.418.908Zm-68.098-31.347.418-.908-.008-.004-.41.912Zm-74.584-33.508-.411.911.001.001.41-.912Zm-33.509-15.133.412-.912-.02-.009-.02-.008-.372.929Zm-10.809-4.324.372-.928-.07-.028-.074-.017-.228.973Zm-39.162-20.011a.999.999 0 1 0-1.664 1.109l1.664-1.109ZM203.335 50.493l-.096-.996h-.003l.099.996ZM366.378 479.95l.919-.393-.919.393Zm-1.445 1.259.521-.853-.521.853Zm230.244 115.128-.039-.999.039.999Zm-.861-.431-.823.567.823-.567Zm313.761-246.135.988-.152-.988.152Zm.004.274.992.122-.992-.122Zm-498.822 2.115-.03.999.03-.999Zm-7.465.861-.264-.964.264.964Zm504.191-17.361-.97-.243.97.243Zm-.019.395-.988.152.988-.152Zm-30.34-82.412.815-.579-.815.579Zm.097.117-.72.694.72-.694ZM118.354 372.38l.48.878-.48-.878Zm-.849.06.359-.934-.359.934Zm-13.318-5.122-.359.933.359-.933Zm-.473-.379-.832.555.832-.555Zm808.444-75.666-.71.705.71-.705Zm.292.636.997-.078-.997.078ZM646.428 153.142l-.406.914.406-.914Zm.178.06.228-.974-.228.974Zm-63.842 418.373-.954.301.954-.301Zm-.036-.157-.99.145.99-.145Zm24.785-435.597-.592.806.592-.806Zm.187.108.406-.913-.406.913ZM253.105 47.168c37.211-1.747 57.583-2.234 92.91-2.161l.004-2c-35.362-.073-55.766.415-93.008 2.163l.094 1.998Zm92.82-2.165 92.959 8.647.185-1.991-92.959-8.648-.185 1.992Zm92.899 8.64c33.672 5.22 51.159 10.774 79.674 25.838l.934-1.769c-28.728-15.176-46.43-20.795-80.302-26.046l-.306 1.977Zm79.658 25.829c34.576 19.095 53.941 31.814 88.439 57.155l1.183-1.612c-34.553-25.381-53.991-38.15-88.655-57.294l-.967 1.751Zm88.811 57.371 38.729 17.213.812-1.828-38.728-17.212-.813 1.827Zm39.086 17.333 83.139 19.435.455-1.948-83.139-19.435-.455 1.948Zm83.077 19.418 57.289 17.295.578-1.915-57.289-17.294-.578 1.914Zm57.275 17.291c9.765 3.108 17.111 5.172 25.219 8.658 8.09 3.478 16.949 8.378 29.643 17.153l1.137-1.645c-12.768-8.826-21.745-13.801-29.99-17.346-8.226-3.536-15.713-5.642-25.402-8.726l-.607 1.906Zm54.772 25.741c13.308 11.649 20.621 19.756 33.308 37.598l1.63-1.159c-12.764-17.95-20.179-26.178-33.621-37.944l-1.317 1.505Zm33.5 37.829c13.655 14.165 20.239 21.217 36.445 37.523l1.419-1.41c-16.193-16.292-22.757-23.324-36.424-37.501l-1.44 1.388Zm36.45 37.532c.296 3.778.593 6.483.27 10.716-.324 4.251-1.276 10.058-3.52 19.961l1.951.442c2.25-9.931 3.228-15.852 3.563-20.251.337-4.416.023-7.282-.27-11.024l-1.994.156Zm-3.245 30.656-3.193 12.775 1.94.486 3.194-12.776-1.941-.485Zm-3.23 13.565 2.11 13.716 1.977-.304-2.11-13.716-1.977.304Zm2.11 13.716-7.549 61.475 1.985.244 7.549-61.475-1.985-.244Zm-7.528 61.358c-5.496 22.27-11.816 37.037-19.763 49.72-7.963 12.71-17.571 23.354-29.744 37.42l1.512 1.308c12.125-14.01 21.862-24.793 29.927-37.666 8.082-12.899 14.474-27.872 20.01-50.303l-1.942-.479Zm-49.431 87.06c-38.057 35.25-50.18 43.002-67.861 51.722l.885 1.793c17.931-8.843 30.218-16.742 68.335-52.047l-1.359-1.468Zm-67.856 51.719c-31.306 15.239-49.701 22.583-84.175 33.454l.601 1.908c34.566-10.901 53.054-18.281 84.449-33.564l-.875-1.798Zm-84.101 33.434c-23.567 5.486-37.303 8.438-75.5 10.785l.123 1.996c38.328-2.355 52.176-5.327 75.83-10.833l-.453-1.948Zm-75.477 10.784-27.557 1.06.077 1.999 27.557-1.06-.077-1.999Zm-27.556 1.06c-5.767-8.362-8.175-13.787-11.421-24.065l-1.908.602c3.293 10.424 5.779 16.039 11.683 24.598l1.646-1.135Zm-11.422-24.067c-6.065-41.186-10.177-64.133-28.184-100.741l-1.795.882c17.868 36.327 21.945 59.028 28 100.15l1.979-.291Zm-28.191-100.755c-18.467-36.19-31.479-53.621-58.559-80.246l-1.402 1.426c26.925 26.474 39.81 43.73 58.18 79.73l1.781-.91Zm-58.574-80.261c-16.672-15.733-30.041-25.274-43.548-30.995-13.516-5.724-27.093-7.591-44.115-8.1l-.06 1.999c16.908.505 30.204 2.356 43.395 7.943 13.199 5.59 26.368 14.954 42.955 30.608l1.373-1.455Zm-95.422-38.198c-15.403 4.204-25.983 9.947-33.681 19.681-7.669 9.697-12.383 23.24-16.327 42.828l1.961.394c3.93-19.517 8.571-32.67 15.935-41.981 7.334-9.274 17.462-14.85 32.639-18.993l-.527-1.929Zm-50.026 62.648c-1.331 22.819 2.023 37.786 13.955 65.639l1.838-.787c-11.855-27.672-15.104-42.322-13.796-64.736l-1.997-.116Zm13.95 65.651-16.753-10.238-1.043 1.706 16.753 10.238 1.043-1.706Zm-16.775-10.251-28.104-16.214-1 1.732 28.104 16.214 1-1.732Zm-28.186-16.256-68.098-31.347-.836 1.817 68.098 31.347.836-1.817Zm-68.106-31.351-74.584-33.508-.82 1.824 74.584 33.508.82-1.824Zm-74.582-33.508-33.509-15.133-.823 1.823 33.509 15.133.823-1.823Zm-33.549-15.15-10.809-4.323-.743 1.857 10.809 4.323.743-1.857Zm-10.953-4.368c-3.187-.747-5.701-1.002-8.119-.668-2.419.334-4.658 1.246-7.31 2.698l.96 1.755c2.551-1.397 4.546-2.185 6.624-2.472 2.078-.287 4.324-.084 7.389.634l.456-1.947Zm-15.439 2.033-13.318-5.122-.718 1.867 13.318 5.122.718-1.867Zm-13.318-5.122-10.633-15.949-1.664 1.109 10.633 15.95 1.664-1.11Zm148.43-321.212c-18.095 1.488-26.804 2.102-49.737 4.325l.193 1.991c22.914-2.221 31.605-2.834 49.708-4.322l-.164-1.994Zm-49.74 4.326c-16.847 1.68-24.784 2.946-37.918 5.417l.37 1.965c13.083-2.461 20.962-3.719 37.747-5.392l-.199-1.99Zm162.223 430.847a.048.048 0 0 1 .004.012c.001.002.001.002 0 0l.001-.012c.001-.003.002-.003 0 0a.035.035 0 0 1-.009.01l-.01.007h.003l.008-.001a.02.02 0 0 0 .007.001l.002.001-.011-.006-1.043 1.706c1.678 1.026 3.649-.726 2.886-2.505l-1.838.787Zm229.679 114.994h.002-.001l-1.646 1.135c.387.562 1.038.89 1.722.864l-.077-1.999Zm311.95-245.415 1.985.244c.023-.182.02-.367-.008-.548l-1.977.304Zm-497.799 1.237c-2.605-.077-5.231.207-7.759.897l.527 1.929c2.323-.634 4.751-.899 7.172-.827l.06-1.999Zm495.726-15.743a2.004 2.004 0 0 0-.037.79l1.977-.304-1.94-.486Zm-30.204-81.194c.058.081.123.159.192.231l1.44-1.388-.001-.001-.001-.001-1.63 1.159ZM117.874 371.503a.022.022 0 0 1-.01.003c-.002 0-.002 0 0 0l-.718 1.867a2.014 2.014 0 0 0 1.688-.115l-.96-1.755Zm-13.328-5.119-1.664 1.11c.229.344.56.608.946.757l.718-1.867Zm806.902-74.406.001.001.002.005.002.004v-.001l1.994-.156a2.028 2.028 0 0 0-.58-1.263l-1.419 1.41ZM646.022 154.056c.115.051.234.091.357.12l.455-1.948-.812 1.828Zm-62.304 417.218-.001-.001v-.001l-1.979.291c.016.106.04.212.072.313l1.908-.602Zm23.203-434.647c.114.084.24.157.372.216l.813-1.827c.001 0 .001 0 0 0l-.002-.001-1.183 1.612Z"/><path stroke="#fff" stroke-width="2" d="M515.722 411.514c-14.773-11.595-25.44-15.848-49.722-18.376-60.892 0-98.364 20.178-98.364 81.07C367.636 535.099 428.888 605 489.78 605c50.762.701 69.784-7.622 92.96-32.428"/></svg>