<svg fill="none" viewBox="0 0 1005 650" xmlns="http://www.w3.org/2000/svg"><path stroke="#fff" stroke-linecap="round" stroke-width="2" d="M18 210.092c40.154-25.154 63.71-38.612 109.682-60.218 90.835-37.438 139.991-48.724 226.89-64.518C476.547 67.845 533.473 66.665 633.078 66c51.473.78 80.193 2.218 131.188 6.452 49.62 5.303 77.456 8.283 135.489 17.205l83.874 17.205"/><path stroke="#fff" stroke-width="2" d="M986.855 136.971c-80.039 13.708-126.575 26.722-216.137 70.97C616.162 286.159 517.756 355.019 292.204 584.3m694.651-432.275c-44.164 7.756-80.758 16.734-136.564 41.179M336.292 584.3C595.392 330.684 665.6 291.573 779.32 227.297a1663 1663 0 0 1 31.184-15.621m39.787-18.472c20.747 123.348 27.472 196.675 27.958 337.33m-27.958-337.33c-12.244 5.363-25.411 11.47-39.787 18.472m67.745 318.858c52.646-61.201 78.796-93.34 108.606-139.79m-108.606 139.79-27.958 31.771M830.935 584.3l19.356-21.995m-39.787-350.629c16.395 159.91 17.164 239.941 9.678 372.624m30.109-21.995 11.828 14.468 2.151 6.452m119.359-145.167L868.571 584.3m116.134-475.288c-83.523 2.548-132.111 5.705-280.657 72.046-118.445 58.836-207.085 113.946-296.786 184.547M166.393 582.149c92.484-89.821 167.036-158.43 240.869-216.544M128.757 148.799c-7.786 17.659 9.788 36.506 53.765 75.272 77.488 60.221 129.384 89.914 224.74 141.534"/></svg>