<?xml version="1.0" encoding="UTF-8"?><svg id="Layer_2" xmlns="http://www.w3.org/2000/svg" viewBox="0 0 500 350"><defs><style>.cls-1{fill:none;stroke:#fff;stroke-linecap:round;stroke-linejoin:round;stroke-width:1px;}</style></defs><path id="fender_front_right" class="selectable cls-1" d="m147.78,222.55c1.1,7.66,2.09,13.51,2.52,16.59l-.05.07c7.05,4.86,11.52,7.71,11.52,7.11,0-.04-.02-.1-.07-.18-3.2-5.2-12.4-33.1,0-51.3,6.28-9.22,17.6-7.69,29.86-.29,11.94,7.19,24.78,19.93,34.74,33.69,2.61,3.61,5.02,7.25,7.24,10.89l28.76-31.59c-15.6-14.5-32.9-41.5-29.1-46.7.07-.1.18-.19.32-.27l-.02-.03c-10-4.2-51-19.1-59-27.7-3-12.4-3.2-18.2,3.6-19.4-4.42-2.34-8.48-5.13-12.25-8.3h-.01s-19.63,11.02-19.63,11.02h0c1.65,4.98,2.46,8.59,2.09,10.08-8.68,29.09-4.03,71.86-.52,96.31Z" /><path id="rocker_panel_right" class="selectable cls-1" d="m82.18,179.6l65.6,42.95c1.1,7.66,2.09,13.51,2.52,16.59l-.05.07c-15.85-10.95-44.75-32.12-65.09-47.32-5.83-4.36-10.95-8.22-14.87-11.21-4.59-3.51-7.53-5.83-7.99-6.34-2.54-2.8-5.76-7.28-9.21-13.79l29.09,19.05Z" /><g id="door_back_right" class="selectable"><path class="cls-1" d="m39.7,71.24s.01-.06.02-.09c1.29,1.42,2.83,2.78,4.68,3.99,7.73,5.02,18.57,10.86,30.29,16.78.01.07.01.15.01.22-12,8.89-3.36,43.7,7.48,87.46l-29.09-19.05h-.01c-.49-.93-.98-1.9-1.48-2.91-3.78-7.38-11.39-29.04-18.43-38.49-.6-.79-1.19-1.5-1.77-2.11-.66-.69-1.38-1.37-2.13-1.96l.03-.04c-6.2-23.7,10.4-43.8,10.4-43.8Zm-9.1,23.2c.3,1.2,9.1,5.2,9.8,4.7.7-.4.7-1.9.4-2.9-.2-1-1.7-1.7-1.7-1.7l-4.5-2.4c-.6-.3-2.8.1-3.5,0-.8,0-.9,1-.5,2.3Z" /><path id="handle_back_right" class="cls-1" d="m30.6,94.44c.3,1.2,9.1,5.2,9.8,4.7.7-.4.7-1.9.4-2.9-.2-1-1.7-1.7-1.7-1.7l-4.5-2.4c-.6-.3-2.8.1-3.5,0-.8,0-.9,1-.5,2.3Z" /></g><path id="background" class="cls-1" d="m21.9,117.04c.54,5.41,2.22,12.04,2.32,13.44h0s.21.01.21.01c-.34-4.12-.08-6.68,3.07-8.75,2.18-1.49,4.46-2.29,5.67-2.59-.6-.79-1.19-1.5-1.77-2.11-.66-.69-1.38-1.37-2.13-1.96-3.48-2.75-7.45-3.88-7.37,1.96Z" /><path id="fender_back_right" class="selectable cls-1" d="m17.39,95.94c1.15,14.11,4.11,30.75,6.81,34.8.03-.02.04-.1.02-.24h0v-.02c-.1-1.4-1.78-8.03-2.32-13.44-.08-5.84,3.89-4.71,7.37-1.96l.03-.04c-6.2-23.7,10.4-43.8,10.4-43.8.01-.03.01-.06.02-.09-4.79-5.27-5.99-11.39-5.52-13.91,3.43-9.08,7.8-15.88,14.6-20.89l-.08-.11h-9.02c-7.13,8.32-15.56,25.43-19.9,35.3.5,2.8.8,6.2.7,8.4-.2,2.7-2.9,15.3-3.1,16h-.01Z" /><path id="tail_light_right" class="selectable cls-1" d="m17.39,95.94h.01c.2-.7,2.9-13.3,3.1-16,.1-2.2-.2-5.6-.7-8.4-.77,1.76-1.42,3.29-1.9,4.5-1.24,3.09-1.23,10.99-.51,19.9Z" /><path id="bumper_front" class="selectable cls-1" d="m262.3,207.54c36,19.4,113.5,19.6,121.3,18.4,7.8-1.2,14.9-5.2,14.4-7.8-1.7-5.2-22.6-18.9-28.5-22.7,28.5-7.7,95-35,91.2-53.5v-.02c7.95,7.43,15.61,16.59,21.9,27.82.2.4.33.92.41,1.55-9.64,39.12-47.15,49.98-61.11,59.85-2.5,1.8-26.8,18.4-30,25.3.9,6.9,16.5,19,28.1,17.6,3-.1,8.1-2.7,14-7.1l.16.03-3.16,15.57s18.21-13.75,29.05-30.87c.21.19-.05.97-.05.97-3,7.3-5.6,12.1-7.4,14.6-15.3,21.7-54.1,59.6-106.4,65.3-44.3,4.8-81.2-13.3-84.7-19.6-.32-1.2-.65-2.44-.99-3.73-4.66-17.77-11.05-43.97-26.97-70.08l28.76-31.59Zm42.5,91.4c4.4.6,14.8-25.3,3.5-40.2-2.7-.7-12.2-1.6-14.3,1.3-3.8,6.5,7.4,35.9,10.8,38.9Z" /><path id="grill_radiator" class="selectable cls-1" d="m391.9,256.44c.9,6.9,16.5,19,28.1,17.6,3-.1,8.1-2.7,14-7.1l.16.03.54-2.63c23.2-15.13,32.53-34.47,33.91-37.57,7.85-22.71,15.4-47.68,14.4-55.48-9.64,39.12-47.15,49.98-61.11,59.85-2.5,1.8-26.8,18.4-30,25.3Z" /><path id="background-2" class="cls-1" d="m255.8,35.14c12.01,5.71,56.87,38.38,71.7,51.83l1.4-2.63c-10.54-6.57-43.22-35.01-71.04-49.54-.27-.14-.53-.28-.79-.41-.23-.12-.47-.24-.7-.36l-.57,1.11Z" /><path id="hood" class="selectable cls-1" d="m174.5,132.84c8,8.6,49,23.5,59,27.7l.02.03c7.15-4.17,102.63,15.16,135.98,34.87,28.5-7.7,95-35,91.2-53.5v-.02c-17.27-16.2-35.86-24.25-44.5-27.88-12.7-5.2-79.8-25.4-87.3-29.7l-1.4,2.63c3.08,2.79,4.87,4.75,4.8,5.47-.4,4.2-124.2,32.5-154.2,21-6.8,1.2-6.6,7-3.6,19.4Z" /><path id="head_light_right" class="selectable cls-1" d="m262.3,207.54c36,19.4,113.5,19.6,121.3,18.4,7.8-1.2,14.9-5.2,14.4-7.8-1.7-5.2-22.6-18.9-28.5-22.7-33.35-19.71-128.83-39.04-135.98-34.87-.14.08-.25.17-.32.27-3.8,5.2,13.5,32.2,29.1,46.7Z" /><path id="mirror_right" class="selectable cls-1" d="m81.1,100.94c.14-1.39,1.14-2.85,2.91-4.24,4.73-3.72,14.96-7,28.99-7.36,9.7.7,17.4,11,17.3,14.4.1,1.2-.1,4.3-.1,4.6l9.2,2.9s0,3.6-2.2,4.7c-1.88,1.03-5.24.96-8.61,1.23-.56.04-1.13.1-1.69.17-3.9.4-26.1,2.4-33.7-.9-3.4-1.54-6.32-4.27-8.45-7.06-2.57-3.38-3.98-6.85-3.65-8.44Z" /><path id="background-3" class="cls-1" d="m161.7,246.14c.05.08.07.14.07.18l1.91-.22c-1.18-10.87-1.54-24.63,2.22-31.46,6.4-11.8,14.7-17.3,25.6-20l.06-.09c-12.26-7.4-23.58-8.93-29.86.29-12.4,18.2-3.2,46.1,0,51.3Z" /><g id="wheel_front_right" class="selectable"><path class="cls-1" d="m165.9,214.64c6.4-11.8,14.7-17.3,25.6-20l.06-.09c11.94,7.19,24.78,19.93,34.74,33.69,2.61,3.61,5.02,7.25,7.24,10.89,15.92,26.11,22.31,52.31,26.97,70.08l-.11.03c-1.8,1.8-24.4,18.6-27.7,18.9-15.4,1.2-26.6-5.3-37.3-16.9-21.6-23.5-28.7-45.6-30.5-56.3-.42-2.49-.86-5.53-1.22-8.84-1.18-10.87-1.54-24.63,2.22-31.46Zm15.38,35.77c2.46,13.62,10.28,28.08,16.69,36.66,11.3,15.14,23.77,15.1,20.77-4.55-2.52-16.49-11.38-32.43-22.76-43.31-10.96-10.47-17.38-3.67-14.7,11.2Z" /><path class="cls-1" d="m181.28,250.41c2.46,13.62,10.28,28.08,16.69,36.66,11.3,15.14,23.77,15.1,20.77-4.55-2.52-16.49-11.38-32.43-22.76-43.31-10.96-10.47-17.38-3.67-14.7,11.2Z" /></g><g id="wheel_back_right" class="selectable"><path class="cls-1" d="m27.5,121.74c2.18-1.49,4.46-2.29,5.67-2.59,7.04,9.45,14.65,31.11,18.43,38.49.5,1.01.99,1.98,1.48,2.9h.01c3.45,6.52,6.67,11,9.21,13.8.46.51,3.4,2.83,7.99,6.34-.7,2.46-1.6,2.86-2.69,3.46-1.1.6-15.3,4.6-17.9,4.8-2.6.2-9.4-4.9-14.8-17.3-2.9-6.7-8.7-23.9-10.2-38.4-.1-.99-.2-1.9-.27-2.75-.34-4.12-.08-6.68,3.07-8.75Zm2.29,18.08c.58,9.06,4.72,21.65,8.7,29.61,3.39,6.77,6.35,4.24,5.69-.96-1.62-12.7-5.32-22.97-11.01-30.98-2.05-2.89-3.61-1.21-3.38,2.33Z" /><path class="cls-1" d="m29.79,139.82c.58,9.06,4.72,21.65,8.7,29.61,3.39,6.77,6.35,4.24,5.69-.96-1.62-12.7-5.32-22.97-11.01-30.98-2.05-2.89-3.61-1.21-3.38,2.33Z" /></g><path id="roof" class="selectable cls-1" d="m54.55,27.89c20.02-6.54,47.15-8.87,79.25-9.05,20.32-.12,53.73,1.54,64.8,2.4,28.34,2.19,47.85,6.67,55.43,11.63h.01c.77.38,1.55.76,2.33,1.16l-.57,1.11c-29.57-10.17-114.04-4.02-135.46-.51-.41.07-.8.14-1.16.2-1.19.22-2.13.42-2.78.61l-8.09,5.59c-1.45-1.86-2.8-3.35-4.01-4.39-6.33-5.41-13.96-7.89-21.59-8.55-.08-.01-.15-.01-.23-.02-10.08-.8-20.13,1.52-27.14,4.42-.29.11-.57.23-.84.35-2.07,1.06-3.97,2.22-5.7,3.51l-.08-.11h-9.02c2.35-2.7,7.18-5.84,14.85-8.35Z" /><path id="windshield_front" class="selectable cls-1" d="m116.4,35.44c16.12,23.16,28.35,52.07,49.45,69.7,3.77,3.17,7.83,5.96,12.25,8.3,30,11.5,153.8-16.8,154.2-21,.07-.72-1.72-2.68-4.8-5.47-14.83-13.45-59.69-46.12-71.7-51.83-29.57-10.17-114.04-4.02-135.46-.51-.41.07-.8.14-1.16.2-1.19.22-2.13.42-2.78.61Z" /><path id="fog_light_front_right" class="selectable cls-1" d="m304.8,298.94c4.4.6,14.8-25.3,3.5-40.2-2.7-.7-12.2-1.6-14.3,1.3-3.8,6.5,7.4,35.9,10.8,38.9Z" /><path id="license_plate_front" class="selectable cls-1" d="m431,282.54s18.21-13.75,29.05-30.87c1.84-2.9,3.46-5.89,4.75-8.93,1.27-3.61,3.87-15.77,3.99-16.38-.02.04-.07.18-.18.41-1.38,3.1-10.71,22.44-33.91,37.57l-.54,2.63-3.16,15.57Z" /><g id="door_front_right" class="selectable"><path class="cls-1" d="m74.7,92.14c0-.07,0-.15-.01-.22,2.99,1.5,6.04,3.02,9.11,4.52l.21.26c-1.77,1.39-2.77,2.85-2.91,4.24-.33,1.59,1.08,5.06,3.65,8.44,2.13,2.79,5.05,5.52,8.45,7.06,7.6,3.3,29.8,1.3,33.7.9.56-.07,1.13-.13,1.69-.17v.17c9.61,4.3,16.91,7.6,19.71,8.9-8.68,29.09-4.03,71.86-.52,96.31l-65.6-42.95c-10.84-43.76-19.48-78.57-7.48-87.46Zm12.2,32c.3-.2.2-2.9,0-3.7-.2-.8-2.8-2.5-2.8-2.5l-6.7-3s-1.7-1.2-2.5-1.5c-.7-.3-3.6.7-4.3,1-.8.3-.5,1.7.2,3.1.8,1.4,15.8,6.8,16.1,6.6Z" /><path id="handle_front_right" class="cls-1" d="m70.8,117.54c.8,1.4,15.8,6.8,16.1,6.6.3-.2.2-2.9,0-3.7-.2-.8-2.8-2.5-2.8-2.5l-6.7-3s-1.7-1.2-2.5-1.5c-.7-.3-3.6.7-4.3,1-.8.3-.5,1.7.2,3.1Z" /></g><path id="quarter_window_back_right" class="selectable cls-1" d="m39.72,71.15c1.75-7.79,10.4-31.34,15.68-38.51l-.06-.15c-.29.11-.57.23-.84.35-10.2,5.2-16,13-20.3,24.4-.47,2.52.73,8.64,5.52,13.91Z" /><path id="window_back_right" class="selectable cls-1" d="m39.72,71.15c1.29,1.42,2.83,2.78,4.68,3.99,7.73,5.02,18.57,10.86,30.29,16.78-.66-20.41,1.32-48.9,7.48-62.55.09-.2.17-.39.26-.58l.05-.72c-10.08-.8-20.13,1.52-27.14,4.42l.06.15c-5.28,7.17-13.93,30.72-15.68,38.51Z" /><path id="pillar" class="selectable cls-1" d="m108.31,41.03c12.04,15.31,31.42,55.65,37.9,75.13l19.63-11.01h.01c-21.1-17.64-33.33-46.55-49.45-69.71l-8.09,5.59Z" /><path id="window_front_right" class="selectable cls-1" d="m74.69,91.92c2.99,1.5,6.04,3.02,9.11,4.52l.21.26c4.73-3.72,14.96-7,28.99-7.36,9.7.7,17.4,11,17.3,14.4.1,1.2-.1,4.3-.1,4.6l9.2,2.9s0,3.6-2.2,4.7c-1.88,1.03-5.24.96-8.61,1.23v.17c9.61,4.3,16.91,7.6,19.71,8.9.37-1.49-.44-5.1-2.09-10.07h0c-6.48-19.49-25.86-59.83-37.9-75.14-1.45-1.86-2.8-3.35-4.01-4.39-6.33-5.41-13.96-7.89-21.59-8.55-.08-.01-.15-.01-.23-.02l-.05.72c-.09.19-.17.38-.26.58-6.16,13.65-8.14,42.14-7.48,62.55Z" /></svg>