<svg xmlns="http://www.w3.org/2000/svg" viewBox="0 0 513.81 319.88"><defs><style>.cls-1{stroke:#fff;stroke-linecap:round;stroke-linejoin:round}.cls-1,.cls-2,.cls-3{fill:none}.cls-4{fill:#e1a25b}.cls-5{fill:#f49796;stroke:#f49796}.cls-2,.cls-3,.cls-5,.cls-6{stroke-miterlimit:10;stroke-width:2px}.cls-6{fill:#31333e;stroke:#595e72}.cls-2{stroke:#e1a25b}.cls-3{stroke:#62b0ef}.cls-7{font-family:sans-serif;font-size:13px;isolation:isolate}.cls-7,.cls-8{fill:#fff}</style></defs><g id="wheel_front_left" class="car-part selectable"><path class="cls-1" d="M266.9 197.05c-1.6-2.7-30.2-12.3-40.7-14.2-29.1 17.7-41.5 57.2-41.5 57.2s-.7.2-1.9.6c-.49 1.95-1.07 4.66-1.75 6.83.17.09.26.17.35.17.53.59 1.01 1.04 1.43 1.44.76.66 1.31 1.24 1.55 2.31.05.23.1.47.12.75v.4c0 .12-.02.26-.04.42v.04c0 .08-.02.17-.03.27 0 .08-.02.17-.03.26v.02c-.73 6.12-5.14 28.81-7.12 33.8v.01c-.06.16-.12.31-.18.43-.04.07-.07.13-.1.19-.06.11-.12.2-.17.26-.5.6-3 1.5-6.6 2.5 11.7 15.8 32.5 26.9 39.5 28 19.1 4.4 44.7-14.7 59.6-45.7 7.34-15.26 10.84-30.76 10.68-44-.16-14.36-4.6-26.07-13.08-32h0Zm-10.62 64.72c-7.26 21.32-22.12 35.54-33.18 31.77-11.06-3.78-14.14-24.11-6.87-45.43 7.27-21.31 22.13-35.53 33.19-31.76s14.13 24.11 6.86 45.42Z"/><path class="cls-1" d="M256.28 261.77c-7.26 21.32-22.12 35.54-33.18 31.77-11.06-3.78-14.14-24.11-6.87-45.43 7.27-21.31 22.13-35.53 33.19-31.76s14.13 24.11 6.86 45.42Z"/></g><path class="cls-1 background" d="M465.4 65.35c-2.2 1.5-49.5 9.5-49.5 9.5s-2.95-.2-3.97-.39c-.04-.17-.09-.34-.13-.51-1.46-5.37-2.75-10.17-2.96-10.98l.06-.02 51.4 2.2 5.1.2ZM454 115.84h0c-.4 4.01-2 8.01-3.3 10.81v2.1h-.1v-2.4c-.1-3.9-.8-6.8-2.1-8.2 0-.1-.1-.1-.2-.2-.1 0-.2-.1-.3-.2-2.1-1.6-5.7-2.7-8.7-3.2l-.04-.02c1.18-2.35 2.26-4.41 3.34-5.98 5.1-7.8 13.4-11 11.4 7.29h0Z"/><path id="hood" class="cls-1 car-part selectable" d="m267.8 97.75-2.5 10.1s-1.5 3.5-7.2 5.3c-21.7 4.9-104.7 31.2-112.7 37.2-1.8 1.4-9.1 13.1-9.1 13.1v.09h-.2c-14.8 0-34.3-.4-49.8-.9v-.11c-12.21-.39-22.62-.79-25.5-.99-.07-.13-.13-.26-.2-.4 0 0-3.1-6.1-6.6-7.9-3.5-1.9-42.68-12.9-53.49-27.89-.01-.11-.01-.21-.01-.31 0-.9.1-1.5.2-1.9 2.8-5.3 8.2-9.7 13.8-13.4 58.5-23.9 96.5-24.5 126.7-32l2.1.7c10.08 5.08 77.13 14.4 120.36 14.76l4.14 4.54h0Z"/><path id="pillar" class="cls-1 car-part selectable" d="M336.4 24.15c-3.7 1.3-5.9 2.9-8.3 6.1-1.6 2.1-23.9 37.6-29.1 62.3l-16.7.1c11.4-21.7 27-53.9 36.2-67.8l17.9-.7Z"/><path class="cls-1 background" d="M200.6 30.85c-2.1 1.5-42.6 32-57.3 47.6l-2.1-.7c6.59-7.86 41.91-37.09 58.36-47.82.11-.07.22-.14.32-.21l.72 1.13Z"/><path id="head_light_left" class="cls-1 car-part selectable" d="M153.7 197.45c-.4 3.6.3 11.5 0 20.4-1.6 5.8-6.3 7.1-11.2 7.5-5 .5-43.2-3-43.2-3s-1.5-14.9-1.5-16.8c-.9-8.7-2.7-19.1-2.7-19.1s-1.1-5.6-1.8-9.1c-1.1-4.8-4.6-9.8-7-14.7 15.5.5 35 .9 49.8.9h.2c2.42-.14 25.09-1.81 27-2.19 10.7 1.1 7.6 12.8 5.8 15.1-1 1.3-11.4 11.7-15.4 21h0Z"/><g id="wheel_back_left" class="car-part selectable"><path class="cls-1" d="M448.5 118.15c0-.1-.1-.1-.2-.2-.1 0-.2-.1-.3-.2-2.1-1.6-5.7-2.7-8.7-3.2l-.04-.02-.06.12c-1.66 3.24-3.43 7.02-5.16 10.88-5.37 11.97-10.34 24.72-10.34 24.72l-10 5.7-6.99 4.02-.31.18c-.4 4 2.8 11.6 3.9 12.4 3.8 2.8 18.8 4.4 20.1 4.5 4.7.6 12-11.4 16.6-27.4 2.29-7.76 3.49-15.21 3.6-20.9v-2.4c-.1-3.9-.8-6.8-2.1-8.2h0Zm-6.65 30.17c-2.75 10.07-7.09 17.66-9.7 16.95-2.62-.71-2.51-9.46.24-19.53s7.09-17.66 9.7-16.94c2.62.71 2.51 9.45-.24 19.52Z"/><path class="cls-1" d="M441.85 148.32c-2.75 10.07-7.09 17.66-9.7 16.95-2.62-.71-2.51-9.46.24-19.53s7.09-17.66 9.7-16.94c2.62.71 2.51 9.45-.24 19.52Z"/></g><path class="cls-1 background" d="M226.1 182.85c4.5-2.8 9.5-5 14.9-6.5 31.65-8.69 43.12 3.44 47.03 20.05 1.89 8.05 2 17.16 1.77 25.45-.6 3-1.82 4.71-2.6 5.5-.26.26-.48.42-.6.5-2.2 1.2-5.5 1-6.6 1.2h-.02c-.16-14.36-4.6-26.07-13.08-32-1.6-2.7-30.2-12.3-40.7-14.2h-.1 0Z"/><path id="roof" class="cls-1 car-part selectable" d="m395.35 23.57-5.75-.42c-1.6-.7-11.5-.9-22.3-.8h-.04c-13.39.1-28.26.8-30.86 1.8l-17.9.7c-1.6-.4-45.3-1.9-79.2 0-20.1 1-37.9 5.6-38.7 6l-.72-1.13c2.86-1.85 5.12-3.11 6.52-3.57 10.6-3.5 15.2-4.3 23.8-6 42.3-8 148.1-6 156.8-2.5 5.35 1.99 6.92 3.49 8.35 5.92h0Z"/><path id="windshield_front" class="cls-1 car-part selectable" d="M318.5 24.85c-9.2 13.9-24.8 46.1-36.2 67.8-5.38.46-11.7.63-18.64.56-43.23-.36-110.28-9.68-120.36-14.76 14.7-15.6 55.2-46.1 57.3-47.6.8-.4 18.6-5 38.7-6 33.9-1.9 77.6-.4 79.2 0h0Z"/><path id="window_back_left" class="cls-1 car-part selectable" d="M404 72.45c0 1.6-.9 6.3-5.5 8.4-.97.41-7.48 2.07-15.5 4.01-.03-5.36-7.84-42.36-13.61-57.73 7.28-.23 13.63-.28 15.91.02 4 .5 5.9 1.3 7.4 3.5 3.7 5.5 11.3 40.2 11.3 41.8Z"/><path id="window_front_left" class="cls-1 car-part selectable" d="M383 84.86c-3.58.87-7.47 1.79-11.3 2.69h-.1c.1-1.8.2-3.6.2-4.3 0-1.6-8.6-8.3-10.5-8.9s-22.9-.9-25.4 0c-2.6.9-7.5 7.9-8.3 9.3-.4.7-1 3.7-1.6 6.8l-4.4-.1h-1.5l-9.17-19.16c.79-1.51 1.54-2.81 2.17-3.74 3.6-7.2 18.1-32.2 19.7-34.1 2-2.4 3.4-3.8 6.8-4.4 2.76-.57 17.59-1.44 29.79-1.82C375.16 42.5 382.97 79.5 383 84.86h0Z"/><path id="mirror_left" class="cls-1 car-part selectable" d="M361.3 74.35c-1.9-.6-22.9-.9-25.4 0-2.6.9-7.5 7.9-8.3 9.3-.4.7-1 3.7-1.6 6.8l-4.4-.1h-1.5l-9.17-19.16c-2.89 5.48-6.42 13.73-7.13 17.26-.4 10.9 2.62 22.08 4.62 26.08 13.2-2.4 25.98-3.78 33.28-7.18v-.19c1.17-.07 2.38-.14 3.6-.21 8.8-.5 17.7-1 19.1-1.3 2.6-.6 4.2-2.6 5-4.3.33-.71.62-1.84.88-3.09.62-2.95 1.02-6.51 1.02-6.51s.2-2.1.3-4.2c.1-1.8.2-3.6.2-4.3 0-1.6-8.6-8.3-10.5-8.9Z"/><path id="fog_light_front_left" class="cls-1 car-part selectable" d="M135.5 281.35s-2.6 3.7-6.7 5.4c-10.3.9-37.4-1.5-40.7-3.6-2.1-4.7-4.2-16.9-3.8-20.7 3.3.4 37.7 3.4 48.6 3.4 1.7 2 2.6 15.5 2.6 15.5h0Z"/><path id="bumper_front" class="cls-1 car-part selectable" d="M153.7 217.85c-1.6 5.8-6.3 7.1-11.2 7.5-5 .5-43.2-3-43.2-3l-23.33-2h0v.02c0 .79-3.48 4.2-6.51 7.01a8.5 8.5 0 0 1-9.67 1.35c-.67-.34-1.34-.68-1.99-1.02-4.71-2.44-8.93-4.77-12.71-6.97-.59-.34-1.16-.68-1.72-1.01a206.763 206.763 0 0 1-7.73-4.82c-3.55-2.33-6.55-4.49-9.09-6.48-.47-.36-.93-.73-1.37-1.08-.04-.03-.07-.06-.1-.08-.42-.34-.83-.68-1.22-1.01-.16-.14-.32-.27-.47-.4-.47-.39-.91-.78-1.33-1.16-.23-.2-.46-.4-.68-.61-2.22-2.03-3.89-3.81-5.15-5.34-.25-.31-.49-.6-.7-.88-2.09-2.71-2.78-4.51-3-5.36-.03-.09-.04-.16-.06-.22-.01-.04-.01-.08-.02-.11l-.04-.03s-.38-.96-.57-1.91c-.17-.77-.39-1.77-.64-2.93-.26-1.16-.56-2.5-.88-3.95-3.08 2.2-5.03 4.55-6.19 7.02.52 10.16 5.27 18.33 35.24 38.48 14.34 9.61 28.11 19.81 42.68 23.97.47.13.94.26 1.41.38l1.46.35c23.85 5.32 45.89 4.67 59.49 3.51 18.6-1.52 29.96-6.81 35.04-9.16.71-.18 1.24-.33 1.52-.44h0c.68-2.18 1.35-4.87 1.74-6.82 1.2-.4 1.9-.6 1.9-.6s3.14-10.01 9.97-22.2H153.7Zm30.68 33.55c-.25-1.01-.79-1.58-1.55-2.31-.42-.36-.9-.74-1.43-1.24-.1-.1-.2-.1-.4-.2.02-.06.03-.11.05-.17-.02-.01-.03-.02-.05-.03 0 0-.02.01-.04.01h0c-.02.07-.04.13-.06.19-4 1.7-15.8 8.1-36.7 9.7-13.57 1.09-35.54 1.62-59.29-3.79l-1.46-.35c-.47-.12-.94-.25-1.41-.38-14.52-4.07-28.27-14.19-42.61-23.68-30.19-20.06-34.92-28.23-35.48-38.41v-.02c.05-.11.11-.23.17-.34-.01-.04-.01-.07-.01-.11-1.58 3.49-1.62 7.19-1.11 11.08.8 6.8 7.67 29.21 10.9 36.03 5.51 11.63 30.12 35.93 42.39 43.69 29.38 18.59 67.62 17.39 85.31 15.38 3.98-.45 19.5-3.1 28.6-5.7 3.5-1.1 6.1-2 6.6-2.5.05-.06.11-.15.17-.26.03-.06.06-.12.1-.19.06-.12.12-.27.18-.43h0c0-.06.03-.11.05-.16.08-.21.16-.46.24-.73.14-.42.28-.9.43-1.43.05-.18.1-.36.15-.55.07-.25.14-.51.21-.78.33-1.26.68-2.73 1.05-4.33.05-.2.09-.4.14-.6.59-2.65 1.22-5.61 1.83-8.57.04-.19.07-.37.11-.56 0-.06.02-.12.04-.17.04-.24.09-.47.14-.71 1.27-6.35 2.35-12.47 2.73-15.22v-.02c0-.09.02-.18.03-.26 0-.1.02-.19.03-.27v-.04c.02-.16.03-.3.04-.42v-.4c-.02-.28-.07-.52-.12-.75h0Zm-160.26-8.32-1.81-17.68 28.36 21.45 2.57 24.04-29.13-27.8h0Zm104.68 43.67c-10.3.9-37.4-1.5-40.7-3.6-2.1-4.7-4.2-16.9-3.8-20.7 3.3.4 37.7 3.4 48.6 3.4 1.7 2 2.6 15.5 2.6 15.5s-2.6 3.7-6.7 5.4h0Z"/><path id="grill_radiator" class="cls-1 car-part selectable" d="m99.3 222.35-23.33-2h0v.02c0 .79-3.48 4.2-6.51 7.01a8.5 8.5 0 0 1-9.67 1.35c-.67-.34-1.34-.68-1.99-1.02-4.71-2.44-8.93-4.77-12.71-6.97a206.763 206.763 0 0 1-8.02-4.9c-.49-.31-.97-.62-1.43-.93-3.55-2.33-6.55-4.49-9.09-6.48-.47-.36-.93-.73-1.37-1.08-.04-.03-.07-.06-.1-.08-.42-.35-.83-.68-1.22-1.01-.16-.13-.32-.26-.47-.4-.47-.39-.91-.78-1.33-1.16-.24-.21-.46-.41-.68-.61-2.22-2.03-3.89-3.81-5.15-5.34-.25-.3-.48-.6-.7-.88-2.09-2.71-2.78-4.51-3-5.36-.02-.08-.04-.15-.06-.22-.01-.04-.01-.08-.02-.11-.04-.15-.04-.23-.04-.23s-.09-.52-.26-1.39v-.02c.02-.07.04-.13.06-.19-.3-1.5-.9-4.2-1.6-7.5l-.09.06c0-.02-.01-.04-.01-.06C7.15 166.93.66 134.69.52 125.36c10.81 14.99 49.99 25.99 53.49 27.89 3.5 1.8 6.6 7.9 6.6 7.9.07.14.13.27.2.4 2.88.2 13.29.6 25.5.99v.11c2.4 4.9 5.9 9.9 7 14.7.7 3.5 1.8 9.1 1.8 9.1s1.8 10.4 2.7 19.1c0 1.9 1.5 16.8 1.5 16.8h0Z"/><g id="door_back_left" class="car-part selectable"><path class="cls-1" d="M415.43 90.48c0-3.52-1.65-8.97-3.5-16.02-.04-.17-.09-.34-.13-.51-1.46-5.37-2.75-10.17-2.96-10.98-.03-.08-.04-.12-.04-.12s-10.1-33.3-13-38.5c-.15-.27-.3-.53-.45-.78l-5.75-.42c-1.6-.7-11.5-.9-22.3-.8h-.04c.66 1.15 1.37 2.78 2.13 4.78 7.28-.23 13.63-.28 15.91.02 4 .5 5.9 1.3 7.4 3.5 3.7 5.5 11.3 40.2 11.3 41.8s-.9 6.3-5.5 8.4c-.97.41-7.48 2.07-15.5 4.01v.19s2.9 5.3 4.3 14.5v.61c0 .28 0 .57-.01.86h0c-.02 2.06-.08 4.17-.21 6.32l-.09 1.59c-.03.53-.07 1.07-.11 1.61l-.12 1.61c-.08 1.08-.18 2.16-.28 3.25l-.27 2.67c-.03.3-.06.61-.1.91-.03.32-.07.63-.11.95l-.15 1.32-.18 1.51c-.14 1.08-.28 2.15-.42 3.21-.17 1.25-.35 2.49-.53 3.71-.19 1.37-.4 2.72-.61 4.04-.01.08-.03.16-.03.25-.79 5.76-1.64 11.57-2.47 17-.48 3.12-.95 6.11-1.41 8.9l26.6-14.02 1.85-.98c.09-1.18.25-4.29-.07-6.98 7-24.1 6.85-45.04 6.85-47.41h0Zm-10.15 12.96-2.81.46-.27-3.12 2.85-.86 6.74-2.19.25 2.9-.52.2-6.24 2.61h0Z"/><path id="handle_back_left" class="cls-1 car-part" d="m412.04 100.63-.52.2-6.24 2.61-2.81.46-.27-3.12 2.85-.86 6.74-2.19.25 2.9z"/></g><path id="fender_back_left" class="cls-1 car-part selectable" d="M465.4 65.35c-2.2 1.5-49.5 9.5-49.5 9.5s-2.95-.2-3.97-.39c1.85 7.05 3.5 12.5 3.5 16.02 0 2.37.15 23.31-6.85 47.41.4 3.4.04 7.47.04 7.47l-4.3 15.9 2.38-1.31v.02l7-4.02 10-5.7s4.97-12.75 10.34-24.72c1.73-3.86 3.5-7.64 5.16-10.88l.06-.12c1.18-2.35 2.26-4.41 3.34-5.98 5.1-7.8 13.4-11 11.4 7.29h0c-.4 4.01-2 8.01-3.3 10.81v2.1l4-3s6.8-5.6 6.9-9.7c.03-.68.21-2.14.49-4.14.76-5.36 2.27-14.53 3.51-22.26.02-.09.03-.19.04-.28.79-4.88 1.57-9.07 1.96-11.42l.03-.18c.18-1 .27-1.62.27-1.62l-2.5-10.8Z"/><g id="door_front_left" class="car-part selectable"><path class="cls-1" d="M383 85.05v-.19c-3.58.87-7.47 1.79-11.3 2.69h-.1c-.1 2.1-.3 4.2-.3 4.2s-.4 3.56-1.02 6.51c-.26 1.25-.55 2.38-.88 3.09-.8 1.7-2.4 3.7-5 4.3-1.4.3-10.3.8-19.1 1.3-1.22.07-2.43.14-3.61.21v.19c-7.29 3.4-20.07 4.78-33.27 7.18-2-4-5.02-15.18-4.62-26.08.9-4.5 6.4-16.7 9.3-21 3.6-7.2 18.1-32.2 19.7-34.1 2-2.4 3.4-3.8 6.8-4.4 2.76-.57 17.59-1.44 29.79-1.82-.76-2-1.47-3.63-2.13-4.78-13.39.1-28.26.8-30.86 1.8-3.7 1.3-5.9 2.9-8.3 6.1-1.6 2.1-23.9 37.6-29.1 62.3.4 5.9.7 6.5 1.7 12.8.12.35.24.7.36 1.08 4.66 13.99 5.31 35.42 4.76 54.82v.1c.05 9.08-.09 18.19-.33 26.57-.11 4.04-.24 7.91-.39 11.52l75.1-39.57c.46-2.79.93-5.78 1.41-8.9.83-5.43 1.68-11.24 2.47-17 0-.09.02-.17.03-.25.21-1.32.42-2.67.61-4.04.18-1.22.36-2.46.53-3.71.14-1.06.28-2.13.42-3.21l.18-1.51.15-1.32c.04-.32.08-.63.11-.95.04-.3.07-.61.1-.91l.27-2.67c.1-1.09.2-2.17.28-3.25l.12-1.61c.04-.54.08-1.08.11-1.61l.09-1.59c.08-1.59.14-3.16.17-4.69.01-.25.02-.5.02-.74.01-.29.01-.58.02-.88h0c.01-.3.01-.59.01-.87v-.61c-1.4-9.2-4.3-14.5-4.3-14.5h0Zm1.7 27.1-.7.2-8.3 2.7-3.8.3h-.1v-4.1l1.4-.8h2.4l6.4-2.1h2.8l-.1 3.8h0Z"/><path id="handle_front_left" class="cls-1 car-part" d="M384.7 108.35v3.8l-.7.2-8.4 2.7-3.7.29v-4.09l1.4-.8h2.4l6.3-2.1h2.7z"/></g><path id="rocker_panel_left" class="cls-1 car-part selectable" d="M408.65 144.87c-.01.31-.03.49-.03.49l-4.3 15.9-1.97 1.09-9.05 4.99h0l-16 9.11-73.18 41.4-2.1 1.19H302l-13.2 7.51-1.3 1.14-.3-.34c.78-.79 2-2.5 2.6-5.5.13-4.6.15-9.46-.17-14.25l15.47-8.16 75.1-39.57 26.6-14.02 1.85-.98h0Z"/><path id="fender_front_left" class="cls-1 car-part selectable" d="M305.82 161.35c.05 9.08-.09 18.19-.33 26.57-.11 4.04-.24 7.91-.39 11.52l-15.47 8.16c-.27-3.83-.76-7.62-1.6-11.2-3.91-16.61-15.38-28.74-47.03-20.05-5.4 1.5-10.4 3.7-14.9 6.5-14.45 8.79-24.79 22.96-31.53 35H153.7c.3-8.9-.4-16.8 0-20.4 4-9.3 14.4-19.7 15.4-21 1.8-2.3 4.9-14-5.8-15.1-1.91.38-24.58 2.05-27 2.19v-.09s7.3-11.7 9.1-13.1c8-6 91-32.3 112.7-37.2 5.7-1.8 7.2-5.3 7.2-5.3l2.5-10.1-4.14-4.54c6.94.07 13.26-.1 18.64-.56l16.7-.1c.4 5.9.7 6.5 1.7 12.8.12.35.24.7.36 1.08 4.66 13.99 5.31 35.42 4.76 54.82v.1h0Z"/><path id="license_plate_front" class="cls-1 car-part selectable" d="m53.24 270.89-29.12-27.81-1.81-17.68 28.36 21.45 2.57 24.04z"/><g id="damage-pill_hood"><circle class="cls-6 damage-pill-background" cx="96.87" cy="115.86" r="19.13"/><circle class="cls-3 severity-low" cx="96.87" cy="115.86" r="9.1"/><circle class="cls-5 severity-high" cx="96.87" cy="115.86" r="9.1"/><circle class="cls-8 severity-none" cx="96.87" cy="115.86" r="9.1"/><g class="severity-medium"><circle class="cls-2 severity-medium severity-medium" cx="96.87" cy="115.86" r="9.1"/><path class="cls-4 severity-medium" d="M96.87 106.76v18.1c-5 0-9.1-4.1-9.1-9.1s4.1-9 9.1-9Z"/></g></g><g id="damage-pill-pricing_hood"><path class="cls-6 damage-pill-background" d="M151.85 134.99H96.87c-10.56 0-19.13-8.58-19.13-19.13 0-10.56 8.58-19.13 19.13-19.13h54.98c10.56 0 19.13 8.58 19.13 19.13 0 10.56-8.58 19.13-19.13 19.13Z"/><text class="cls-7 damage-pill-text" transform="translate(118.96 120.15)">9999€</text><circle class="cls-3 severity-low" cx="96.87" cy="115.86" r="9.1"/><circle class="cls-5 severity-high" cx="96.87" cy="115.86" r="9.1"/><circle class="cls-8 severity-none" cx="96.87" cy="115.86" r="9.1"/><g class="severity-medium"><circle class="cls-2 severity-medium severity-medium" cx="96.87" cy="115.86" r="9.1"/><path class="cls-4 severity-medium" d="M96.87 106.76v18.1c-5 0-9.1-4.1-9.1-9.1s4.1-9 9.1-9Z"/></g></g><g id="damage-pill_head_light_left"><circle class="cls-6 damage-pill-background" cx="123.85" cy="190.27" r="19.13"/><circle class="cls-3 severity-low" cx="123.85" cy="190.27" r="9.1"/><circle class="cls-5 severity-high" cx="123.85" cy="190.27" r="9.1"/><circle class="cls-8 severity-none" cx="123.85" cy="190.27" r="9.1"/><g class="severity-medium"><circle class="cls-2 severity-medium severity-medium" cx="123.85" cy="190.27" r="9.1"/><path class="cls-4 severity-medium" d="M123.85 181.17v18.1c-5 0-9.1-4.1-9.1-9.1s4.1-9 9.1-9Z"/></g></g><g id="damage-pill-pricing_head_light_left"><path class="cls-6 damage-pill-background" d="M178.83 209.41h-54.98c-10.56 0-19.13-8.58-19.13-19.13 0-10.56 8.58-19.13 19.13-19.13h54.98c10.56 0 19.13 8.58 19.13 19.13 0 10.56-8.58 19.13-19.13 19.13Z"/><text class="cls-7 damage-pill-text" transform="translate(145.93 194.56)">9999€</text><circle class="cls-3 severity-low" cx="123.85" cy="190.27" r="9.1"/><circle class="cls-5 severity-high" cx="123.85" cy="190.27" r="9.1"/><circle class="cls-8 severity-none" cx="123.85" cy="190.27" r="9.1"/><g class="severity-medium"><circle class="cls-2 severity-medium severity-medium" cx="123.85" cy="190.27" r="9.1"/><path class="cls-4 severity-medium" d="M123.85 181.17v18.1c-5 0-9.1-4.1-9.1-9.1s4.1-9 9.1-9Z"/></g></g><g id="damage-pill_bumper_front"><circle class="cls-6 damage-pill-background" cx="69.16" cy="270.89" r="19.13"/><circle class="cls-3 severity-low" cx="69.16" cy="270.89" r="9.1"/><circle class="cls-5 severity-high" cx="69.16" cy="270.89" r="9.1"/><circle class="cls-8 severity-none" cx="69.16" cy="270.89" r="9.1"/><g class="severity-medium"><circle class="cls-2 severity-medium severity-medium" cx="69.16" cy="270.89" r="9.1"/><path class="cls-4 severity-medium" d="M69.16 261.79v18.1c-5 0-9.1-4.1-9.1-9.1s4.1-9 9.1-9Z"/></g></g><g id="damage-pill-pricing_bumper_front"><path class="cls-6 damage-pill-background" d="M124.14 290.03H69.16c-10.56 0-19.13-8.58-19.13-19.13 0-10.56 8.58-19.13 19.13-19.13h54.98c10.56 0 19.13 8.58 19.13 19.13 0 10.56-8.58 19.13-19.13 19.13Z"/><text class="cls-7 damage-pill-text" transform="translate(91.24 275.18)">9999€</text><circle class="cls-3 severity-low" cx="69.16" cy="270.89" r="9.1"/><circle class="cls-5 severity-high" cx="69.16" cy="270.89" r="9.1"/><circle class="cls-8 severity-none" cx="69.16" cy="270.89" r="9.1"/><g class="severity-medium"><circle class="cls-2 severity-medium severity-medium" cx="69.16" cy="270.89" r="9.1"/><path class="cls-4 severity-medium" d="M69.16 261.79v18.1c-5 0-9.1-4.1-9.1-9.1s4.1-9 9.1-9Z"/></g></g><g id="damage-pill_grill_radiator"><circle class="cls-6 damage-pill-background" cx="41.44" cy="190.27" r="19.13"/><circle class="cls-3 severity-low" cx="41.44" cy="190.27" r="9.1"/><circle class="cls-5 severity-high" cx="41.44" cy="190.27" r="9.1"/><circle class="cls-8 severity-none" cx="41.44" cy="190.27" r="9.1"/><g class="severity-medium"><circle class="cls-2 severity-medium severity-medium" cx="41.44" cy="190.27" r="9.1"/><path class="cls-4 severity-medium" d="M41.44 181.17v18.1c-5 0-9.1-4.1-9.1-9.1s4.1-9 9.1-9Z"/></g></g><g id="damage-pill-pricing_grill_radiator"><path class="cls-6 damage-pill-background" d="M96.43 209.41H41.45c-10.56 0-19.13-8.58-19.13-19.13 0-10.56 8.58-19.13 19.13-19.13h54.98c10.56 0 19.13 8.58 19.13 19.13 0 10.56-8.58 19.13-19.13 19.13Z"/><text class="cls-7 damage-pill-text" transform="translate(63.53 194.56)">9999€</text><circle class="cls-3 severity-low" cx="41.44" cy="190.27" r="9.1"/><circle class="cls-5 severity-high" cx="41.44" cy="190.27" r="9.1"/><circle class="cls-8 severity-none" cx="41.44" cy="190.27" r="9.1"/><g class="severity-medium"><circle class="cls-2 severity-medium severity-medium" cx="41.44" cy="190.27" r="9.1"/><path class="cls-4 severity-medium" d="M41.44 181.17v18.1c-5 0-9.1-4.1-9.1-9.1s4.1-9 9.1-9Z"/></g></g><g id="damage-pill_license_plate_front"><circle class="cls-6 damage-pill-background" cx="35.51" cy="248.15" r="19.13"/><circle class="cls-3 severity-low" cx="35.51" cy="248.15" r="9.1"/><circle class="cls-5 severity-high" cx="35.51" cy="248.15" r="9.1"/><circle class="cls-8 severity-none" cx="35.51" cy="248.15" r="9.1"/><g class="severity-medium"><circle class="cls-2 severity-medium severity-medium" cx="35.51" cy="248.15" r="9.1"/><path class="cls-4 severity-medium" d="M35.51 239.05v18.1c-5 0-9.1-4.1-9.1-9.1s4.1-9 9.1-9Z"/></g></g><g id="damage-pill-pricing_license_plate_front"><path class="cls-6 damage-pill-background" d="M90.49 267.28H35.51c-10.56 0-19.13-8.58-19.13-19.13 0-10.56 8.58-19.13 19.13-19.13h54.98c10.56 0 19.13 8.58 19.13 19.13 0 10.56-8.58 19.13-19.13 19.13Z"/><text class="cls-7 damage-pill-text" transform="translate(57.59 252.43)">9999€</text><circle class="cls-3 severity-low" cx="35.51" cy="248.15" r="9.1"/><circle class="cls-5 severity-high" cx="35.51" cy="248.15" r="9.1"/><circle class="cls-8 severity-none" cx="35.51" cy="248.15" r="9.1"/><g class="severity-medium"><circle class="cls-2 severity-medium severity-medium" cx="35.51" cy="248.15" r="9.1"/><path class="cls-4 severity-medium" d="M35.51 239.05v18.1c-5 0-9.1-4.1-9.1-9.1s4.1-9 9.1-9Z"/></g></g><g id="damage-pill_fog_light_front_left"><circle class="cls-6 damage-pill-background" cx="108.81" cy="278.33" r="19.13"/><circle class="cls-3 severity-low" cx="108.81" cy="278.33" r="9.1"/><circle class="cls-5 severity-high" cx="108.81" cy="278.33" r="9.1"/><circle class="cls-8 severity-none" cx="108.81" cy="278.33" r="9.1"/><g class="severity-medium"><circle class="cls-2 severity-medium severity-medium" cx="108.81" cy="278.33" r="9.1"/><path class="cls-4 severity-medium" d="M108.81 269.23v18.1c-5 0-9.1-4.1-9.1-9.1s4.1-9 9.1-9Z"/></g></g><g id="damage-pill-pricing_fog_light_front_left"><path class="cls-6 damage-pill-background" d="M163.79 297.46h-54.98c-10.56 0-19.13-8.58-19.13-19.13 0-10.56 8.58-19.13 19.13-19.13h54.98c10.56 0 19.13 8.58 19.13 19.13 0 10.56-8.58 19.13-19.13 19.13Z"/><text class="cls-7 damage-pill-text" transform="translate(130.89 282.61)">9999€</text><circle class="cls-3 severity-low" cx="108.81" cy="278.33" r="9.1"/><circle class="cls-5 severity-high" cx="108.81" cy="278.33" r="9.1"/><circle class="cls-8 severity-none" cx="108.81" cy="278.33" r="9.1"/><g class="severity-medium"><circle class="cls-2 severity-medium severity-medium" cx="108.81" cy="278.33" r="9.1"/><path class="cls-4 severity-medium" d="M108.81 269.23v18.1c-5 0-9.1-4.1-9.1-9.1s4.1-9 9.1-9Z"/></g></g><g id="damage-pill_wheel_front_left"><circle class="cls-6 damage-pill-background" cx="236.81" cy="257.87" r="19.13"/><circle class="cls-3 severity-low" cx="236.81" cy="257.87" r="9.1"/><circle class="cls-5 severity-high" cx="236.81" cy="257.87" r="9.1"/><circle class="cls-8 severity-none" cx="236.81" cy="257.87" r="9.1"/><g class="severity-medium"><circle class="cls-2 severity-medium severity-medium" cx="236.81" cy="257.87" r="9.1"/><path class="cls-4 severity-medium" d="M236.81 248.77v18.1c-5 0-9.1-4.1-9.1-9.1s4.1-9 9.1-9Z"/></g></g><g id="damage-pill-pricing_wheel_front_left"><path class="cls-6 damage-pill-background" d="M291.8 277.01h-54.98c-10.56 0-19.13-8.58-19.13-19.13 0-10.56 8.58-19.13 19.13-19.13h54.98c10.56 0 19.13 8.58 19.13 19.13 0 10.56-8.58 19.13-19.13 19.13Z"/><text class="cls-7 damage-pill-text" transform="translate(258.9 262.16)">9999€</text><circle class="cls-3 severity-low" cx="236.81" cy="257.87" r="9.1"/><circle class="cls-5 severity-high" cx="236.81" cy="257.87" r="9.1"/><circle class="cls-8 severity-none" cx="236.81" cy="257.87" r="9.1"/><g class="severity-medium"><circle class="cls-2 severity-medium severity-medium" cx="236.81" cy="257.87" r="9.1"/><path class="cls-4 severity-medium" d="M236.81 248.77v18.1c-5 0-9.1-4.1-9.1-9.1s4.1-9 9.1-9Z"/></g></g><g id="damage-pill_fender_front_left"><circle class="cls-6 damage-pill-background" cx="228.46" cy="147.04" r="19.13"/><circle class="cls-3 severity-low" cx="228.46" cy="147.04" r="9.1"/><circle class="cls-5 severity-high" cx="228.46" cy="147.04" r="9.1"/><circle class="cls-8 severity-none" cx="228.46" cy="147.04" r="9.1"/><g class="severity-medium"><circle class="cls-2 severity-medium severity-medium" cx="228.46" cy="147.04" r="9.1"/><path class="cls-4 severity-medium" d="M228.46 137.94v18.1c-5 0-9.1-4.1-9.1-9.1s4.1-9 9.1-9Z"/></g></g><g id="damage-pill-pricing_fender_front_left"><path class="cls-6 damage-pill-background" d="M283.44 166.17h-54.98c-10.56 0-19.13-8.58-19.13-19.13 0-10.56 8.58-19.13 19.13-19.13h54.98c10.56 0 19.13 8.58 19.13 19.13 0 10.56-8.58 19.13-19.13 19.13Z"/><text class="cls-7 damage-pill-text" transform="translate(250.54 151.32)">9999€</text><circle class="cls-3 severity-low" cx="228.46" cy="147.04" r="9.1"/><circle class="cls-5 severity-high" cx="228.46" cy="147.04" r="9.1"/><circle class="cls-8 severity-none" cx="228.46" cy="147.04" r="9.1"/><g class="severity-medium"><circle class="cls-2 severity-medium severity-medium" cx="228.46" cy="147.04" r="9.1"/><path class="cls-4 severity-medium" d="M228.46 137.94v18.1c-5 0-9.1-4.1-9.1-9.1s4.1-9 9.1-9Z"/></g></g><g id="damage-pill_pillar"><circle class="cls-6 damage-pill-background" cx="308.91" cy="58.4" r="19.13"/><circle class="cls-3 severity-low" cx="308.91" cy="58.4" r="9.1"/><circle class="cls-5 severity-high" cx="308.91" cy="58.4" r="9.1"/><circle class="cls-8 severity-none" cx="308.91" cy="58.4" r="9.1"/><g class="severity-medium"><circle class="cls-2 severity-medium severity-medium" cx="308.91" cy="58.4" r="9.1"/><path class="cls-4 severity-medium" d="M308.91 49.3v18.1c-5 0-9.1-4.1-9.1-9.1s4.1-9 9.1-9Z"/></g></g><g id="damage-pill-pricing_pillar"><path class="cls-6 damage-pill-background" d="M363.89 77.54h-54.98c-10.56 0-19.13-8.58-19.13-19.13 0-10.56 8.58-19.13 19.13-19.13h54.98c10.56 0 19.13 8.58 19.13 19.13 0 10.56-8.58 19.13-19.13 19.13Z"/><text class="cls-7 damage-pill-text" transform="translate(330.99 62.69)">9999€</text><circle class="cls-3 severity-low" cx="308.91" cy="58.4" r="9.1"/><circle class="cls-5 severity-high" cx="308.91" cy="58.4" r="9.1"/><circle class="cls-8 severity-none" cx="308.91" cy="58.4" r="9.1"/><g class="severity-medium"><circle class="cls-2 severity-medium severity-medium" cx="308.91" cy="58.4" r="9.1"/><path class="cls-4 severity-medium" d="M308.91 49.3v18.1c-5 0-9.1-4.1-9.1-9.1s4.1-9 9.1-9Z"/></g></g><g id="damage-pill_window_front_left"><circle class="cls-6 damage-pill-background" cx="347.15" cy="55.9" r="19.13"/><circle class="cls-3 severity-low" cx="347.15" cy="55.9" r="9.1"/><circle class="cls-5 severity-high" cx="347.15" cy="55.9" r="9.1"/><circle class="cls-8 severity-none" cx="347.15" cy="55.9" r="9.1"/><g class="severity-medium"><circle class="cls-2 severity-medium severity-medium" cx="347.15" cy="55.9" r="9.1"/><path class="cls-4 severity-medium" d="M347.15 46.8v18.1c-5 0-9.1-4.1-9.1-9.1s4.1-9 9.1-9Z"/></g></g><g id="damage-pill-pricing_window_front_left"><path class="cls-6 damage-pill-background" d="M402.14 75.04h-54.98c-10.56 0-19.13-8.58-19.13-19.13 0-10.56 8.58-19.13 19.13-19.13h54.98c10.56 0 19.13 8.58 19.13 19.13 0 10.56-8.58 19.13-19.13 19.13Z"/><text class="cls-7 damage-pill-text" transform="translate(369.24 60.19)">9999€</text><circle class="cls-3 severity-low" cx="347.15" cy="55.9" r="9.1"/><circle class="cls-5 severity-high" cx="347.15" cy="55.9" r="9.1"/><circle class="cls-8 severity-none" cx="347.15" cy="55.9" r="9.1"/><g class="severity-medium"><circle class="cls-2 severity-medium severity-medium" cx="347.15" cy="55.9" r="9.1"/><path class="cls-4 severity-medium" d="M347.15 46.8v18.1c-5 0-9.1-4.1-9.1-9.1s4.1-9 9.1-9Z"/></g></g><g id="damage-pill_window_back_left"><circle class="cls-6 damage-pill-background" cx="390.57" cy="55.9" r="19.13"/><circle class="cls-3 severity-low" cx="390.57" cy="55.9" r="9.1"/><circle class="cls-5 severity-high" cx="390.57" cy="55.9" r="9.1"/><circle class="cls-8 severity-none" cx="390.57" cy="55.9" r="9.1"/><g class="severity-medium"><circle class="cls-2 severity-medium severity-medium" cx="390.57" cy="55.9" r="9.1"/><path class="cls-4 severity-medium" d="M390.57 46.8v18.1c-5 0-9.1-4.1-9.1-9.1s4.1-9 9.1-9Z"/></g></g><g id="damage-pill-pricing_window_back_left"><path class="cls-6 damage-pill-background" d="M445.55 75.04h-54.98c-10.56 0-19.13-8.58-19.13-19.13 0-10.56 8.58-19.13 19.13-19.13h54.98c10.56 0 19.13 8.58 19.13 19.13 0 10.56-8.58 19.13-19.13 19.13Z"/><text class="cls-7 damage-pill-text" transform="translate(412.66 60.19)">9999€</text><circle class="cls-3 severity-low" cx="390.57" cy="55.9" r="9.1"/><circle class="cls-5 severity-high" cx="390.57" cy="55.9" r="9.1"/><circle class="cls-8 severity-none" cx="390.57" cy="55.9" r="9.1"/><g class="severity-medium"><circle class="cls-2 severity-medium severity-medium" cx="390.57" cy="55.9" r="9.1"/><path class="cls-4 severity-medium" d="M390.57 46.8v18.1c-5 0-9.1-4.1-9.1-9.1s4.1-9 9.1-9Z"/></g></g><g id="damage-pill_mirror_left"><circle class="cls-6 damage-pill-background" cx="344.41" cy="91.1" r="19.13"/><circle class="cls-3 severity-low" cx="344.41" cy="91.1" r="9.1"/><circle class="cls-5 severity-high" cx="344.41" cy="91.1" r="9.1"/><circle class="cls-8 severity-none" cx="344.41" cy="91.1" r="9.1"/><g class="severity-medium"><circle class="cls-2 severity-medium severity-medium" cx="344.41" cy="91.1" r="9.1"/><path class="cls-4 severity-medium" d="M344.41 82v18.1c-5 0-9.1-4.1-9.1-9.1s4.1-9 9.1-9Z"/></g></g><g id="damage-pill-pricing_mirror_left"><path class="cls-6 damage-pill-background" d="M399.39 110.23h-54.98c-10.56 0-19.13-8.58-19.13-19.13 0-10.56 8.58-19.13 19.13-19.13h54.98c10.56 0 19.13 8.58 19.13 19.13 0 10.56-8.58 19.13-19.13 19.13Z"/><text class="cls-7 damage-pill-text" transform="translate(366.49 95.38)">9999€</text><circle class="cls-3 severity-low" cx="344.41" cy="91.1" r="9.1"/><circle class="cls-5 severity-high" cx="344.41" cy="91.1" r="9.1"/><circle class="cls-8 severity-none" cx="344.41" cy="91.1" r="9.1"/><g class="severity-medium"><circle class="cls-2 severity-medium severity-medium" cx="344.41" cy="91.1" r="9.1"/><path class="cls-4 severity-medium" d="M344.41 82v18.1c-5 0-9.1-4.1-9.1-9.1s4.1-9 9.1-9Z"/></g></g><g id="damage-pill_door_front_left"><circle class="cls-6 damage-pill-background" cx="339.77" cy="139.28" r="19.13"/><circle class="cls-3 severity-low" cx="339.77" cy="139.28" r="9.1"/><circle class="cls-5 severity-high" cx="339.77" cy="139.28" r="9.1"/><circle class="cls-8 severity-none" cx="339.77" cy="139.28" r="9.1"/><g class="severity-medium"><circle class="cls-2 severity-medium severity-medium" cx="339.77" cy="139.28" r="9.1"/><path class="cls-4 severity-medium" d="M339.77 130.18v18.1c-5 0-9.1-4.1-9.1-9.1s4.1-9 9.1-9Z"/></g></g><g id="damage-pill-pricing_door_front_left"><path class="cls-6 damage-pill-background" d="M394.75 158.41h-54.98c-10.56 0-19.13-8.58-19.13-19.13 0-10.56 8.58-19.13 19.13-19.13h54.98c10.56 0 19.13 8.58 19.13 19.13 0 10.56-8.58 19.13-19.13 19.13Z"/><text class="cls-7 damage-pill-text" transform="translate(361.85 143.56)">9999€</text><circle class="cls-3 severity-low" cx="339.77" cy="139.28" r="9.1"/><circle class="cls-5 severity-high" cx="339.77" cy="139.28" r="9.1"/><circle class="cls-8 severity-none" cx="339.77" cy="139.28" r="9.1"/><g class="severity-medium"><circle class="cls-2 severity-medium severity-medium" cx="339.77" cy="139.28" r="9.1"/><path class="cls-4 severity-medium" d="M339.77 130.18v18.1c-5 0-9.1-4.1-9.1-9.1s4.1-9 9.1-9Z"/></g></g><g id="damage-pill_door_back_left"><circle class="cls-6 damage-pill-background" cx="404.52" cy="109.86" r="19.13"/><circle class="cls-3 severity-low" cx="404.52" cy="109.86" r="9.1"/><circle class="cls-5 severity-high" cx="404.52" cy="109.86" r="9.1"/><circle class="cls-8 severity-none" cx="404.52" cy="109.86" r="9.1"/><g class="severity-medium"><circle class="cls-2 severity-medium severity-medium" cx="404.52" cy="109.86" r="9.1"/><path class="cls-4 severity-medium" d="M404.52 100.76v18.1c-5 0-9.1-4.1-9.1-9.1s4.1-9 9.1-9Z"/></g></g><g id="damage-pill-pricing_door_back_left"><path class="cls-6 damage-pill-background" d="M459.51 129h-54.98c-10.56 0-19.13-8.58-19.13-19.13 0-10.56 8.58-19.13 19.13-19.13h54.98c10.56 0 19.13 8.58 19.13 19.13 0 10.56-8.58 19.13-19.13 19.13Z"/><text class="cls-7 damage-pill-text" transform="translate(426.61 114.15)">9999€</text><circle class="cls-3 severity-low" cx="404.52" cy="109.86" r="9.1"/><circle class="cls-5 severity-high" cx="404.52" cy="109.86" r="9.1"/><circle class="cls-8 severity-none" cx="404.52" cy="109.86" r="9.1"/><g class="severity-medium"><circle class="cls-2 severity-medium severity-medium" cx="404.52" cy="109.86" r="9.1"/><path class="cls-4 severity-medium" d="M404.52 100.76v18.1c-5 0-9.1-4.1-9.1-9.1s4.1-9 9.1-9Z"/></g></g><g id="damage-pill_rocker_panel_left"><circle class="cls-6 damage-pill-background" cx="344.41" cy="186.28" r="19.13"/><circle class="cls-3 severity-low" cx="344.41" cy="186.28" r="9.1"/><circle class="cls-5 severity-high" cx="344.41" cy="186.28" r="9.1"/><circle class="cls-8 severity-none" cx="344.41" cy="186.28" r="9.1"/><g class="severity-medium"><circle class="cls-2 severity-medium severity-medium" cx="344.41" cy="186.28" r="9.1"/><path class="cls-4 severity-medium" d="M344.41 177.18v18.1c-5 0-9.1-4.1-9.1-9.1s4.1-9 9.1-9Z"/></g></g><g id="damage-pill-pricing_rocker_panel_left"><path class="cls-6 damage-pill-background" d="M399.39 205.42h-54.98c-10.56 0-19.13-8.58-19.13-19.13 0-10.56 8.58-19.13 19.13-19.13h54.98c10.56 0 19.13 8.58 19.13 19.13 0 10.56-8.58 19.13-19.13 19.13Z"/><text class="cls-7 damage-pill-text" transform="translate(366.49 190.57)">9999€</text><circle class="cls-3 severity-low" cx="344.41" cy="186.28" r="9.1"/><circle class="cls-5 severity-high" cx="344.41" cy="186.28" r="9.1"/><circle class="cls-8 severity-none" cx="344.41" cy="186.28" r="9.1"/><g class="severity-medium"><circle class="cls-2 severity-medium severity-medium" cx="344.41" cy="186.28" r="9.1"/><path class="cls-4 severity-medium" d="M344.41 177.18v18.1c-5 0-9.1-4.1-9.1-9.1s4.1-9 9.1-9Z"/></g></g><g id="damage-pill_windshield_front"><circle class="cls-6 damage-pill-background" cx="213.71" cy="58.4" r="19.13"/><circle class="cls-3 severity-low" cx="213.71" cy="58.4" r="9.1"/><circle class="cls-5 severity-high" cx="213.71" cy="58.4" r="9.1"/><circle class="cls-8 severity-none" cx="213.71" cy="58.4" r="9.1"/><g class="severity-medium"><circle class="cls-2 severity-medium severity-medium" cx="213.71" cy="58.4" r="9.1"/><path class="cls-4 severity-medium" d="M213.71 49.3v18.1c-5 0-9.1-4.1-9.1-9.1s4.1-9 9.1-9Z"/></g></g><g id="damage-pill-pricing_windshield_front"><path class="cls-6 damage-pill-background" d="M268.7 77.54h-54.98c-10.56 0-19.13-8.58-19.13-19.13 0-10.56 8.58-19.13 19.13-19.13h54.98c10.56 0 19.13 8.58 19.13 19.13 0 10.56-8.58 19.13-19.13 19.13Z"/><text class="cls-7 damage-pill-text" transform="translate(235.8 62.69)">9999€</text><circle class="cls-3 severity-low" cx="213.71" cy="58.4" r="9.1"/><circle class="cls-5 severity-high" cx="213.71" cy="58.4" r="9.1"/><circle class="cls-8 severity-none" cx="213.71" cy="58.4" r="9.1"/><g class="severity-medium"><circle class="cls-2 severity-medium severity-medium" cx="213.71" cy="58.4" r="9.1"/><path class="cls-4 severity-medium" d="M213.71 49.3v18.1c-5 0-9.1-4.1-9.1-9.1s4.1-9 9.1-9Z"/></g></g><g id="damage-pill_roof"><circle class="cls-6 damage-pill-background" cx="291.01" cy="20.13" r="19.13"/><circle class="cls-3 severity-low" cx="291.01" cy="20.13" r="9.1"/><circle class="cls-5 severity-high" cx="291.01" cy="20.13" r="9.1"/><circle class="cls-8 severity-none" cx="291.01" cy="20.13" r="9.1"/><g class="severity-medium"><circle class="cls-2 severity-medium severity-medium" cx="291.01" cy="20.13" r="9.1"/><path class="cls-4 severity-medium" d="M291.01 11.03v18.1c-5 0-9.1-4.1-9.1-9.1s4.1-9 9.1-9Z"/></g></g><g id="damage-pill-pricing_roof"><path class="cls-6 damage-pill-background" d="M345.99 39.27h-54.98c-10.56 0-19.13-8.58-19.13-19.13 0-10.56 8.58-19.13 19.13-19.13h54.98c10.56 0 19.13 8.58 19.13 19.13 0 10.56-8.58 19.13-19.13 19.13Z"/><text class="cls-7 damage-pill-text" transform="translate(313.09 24.42)">9999€</text><circle class="cls-3 severity-low" cx="291.01" cy="20.13" r="9.1"/><circle class="cls-5 severity-high" cx="291.01" cy="20.13" r="9.1"/><circle class="cls-8 severity-none" cx="291.01" cy="20.13" r="9.1"/><g class="severity-medium"><circle class="cls-2 severity-medium severity-medium" cx="291.01" cy="20.13" r="9.1"/><path class="cls-4 severity-medium" d="M291.01 11.03v18.1c-5 0-9.1-4.1-9.1-9.1s4.1-9 9.1-9Z"/></g></g><g id="damage-pill_fender_back_left"><circle class="cls-6 damage-pill-background" cx="438.69" cy="92.86" r="19.13"/><circle class="cls-3 severity-low" cx="438.69" cy="92.86" r="9.1"/><circle class="cls-5 severity-high" cx="438.69" cy="92.86" r="9.1"/><circle class="cls-8 severity-none" cx="438.69" cy="92.86" r="9.1"/><g class="severity-medium"><circle class="cls-2 severity-medium severity-medium" cx="438.69" cy="92.86" r="9.1"/><path class="cls-4 severity-medium" d="M438.69 83.76v18.1c-5 0-9.1-4.1-9.1-9.1s4.1-9 9.1-9Z"/></g></g><g id="damage-pill-pricing_fender_back_left"><path class="cls-6 damage-pill-background" d="M493.68 112H438.7c-10.56 0-19.13-8.58-19.13-19.13 0-10.56 8.58-19.13 19.13-19.13h54.98c10.56 0 19.13 8.58 19.13 19.13 0 10.56-8.58 19.13-19.13 19.13Z"/><text class="cls-7 damage-pill-text" transform="translate(460.78 97.15)">9999€</text><circle class="cls-3 severity-low" cx="438.69" cy="92.86" r="9.1"/><circle class="cls-5 severity-high" cx="438.69" cy="92.86" r="9.1"/><circle class="cls-8 severity-none" cx="438.69" cy="92.86" r="9.1"/><g class="severity-medium"><circle class="cls-2 severity-medium severity-medium" cx="438.69" cy="92.86" r="9.1"/><path class="cls-4 severity-medium" d="M438.69 83.76v18.1c-5 0-9.1-4.1-9.1-9.1s4.1-9 9.1-9Z"/></g></g><g id="damage-pill_wheel_back_left"><circle class="cls-6 damage-pill-background" cx="432.86" cy="147.04" r="19.13"/><circle class="cls-3 severity-low" cx="432.86" cy="147.04" r="9.1"/><circle class="cls-5 severity-high" cx="432.86" cy="147.04" r="9.1"/><circle class="cls-8 severity-none" cx="432.86" cy="147.04" r="9.1"/><g class="severity-medium"><circle class="cls-2 severity-medium severity-medium" cx="432.86" cy="147.04" r="9.1"/><path class="cls-4 severity-medium" d="M432.86 137.94v18.1c-5 0-9.1-4.1-9.1-9.1s4.1-9 9.1-9Z"/></g></g><g id="damage-pill-pricing_wheel_back_left"><path class="cls-6 damage-pill-background" d="M487.84 166.17h-54.98c-10.56 0-19.13-8.58-19.13-19.13 0-10.56 8.58-19.13 19.13-19.13h54.98c10.56 0 19.13 8.58 19.13 19.13 0 10.56-8.58 19.13-19.13 19.13Z"/><text class="cls-7 damage-pill-text" transform="translate(454.95 151.32)">9999€</text><circle class="cls-3 severity-low" cx="432.86" cy="147.04" r="9.1"/><circle class="cls-5 severity-high" cx="432.86" cy="147.04" r="9.1"/><circle class="cls-8 severity-none" cx="432.86" cy="147.04" r="9.1"/><g class="severity-medium"><circle class="cls-2 severity-medium severity-medium" cx="432.86" cy="147.04" r="9.1"/><path class="cls-4 severity-medium" d="M432.86 137.94v18.1c-5 0-9.1-4.1-9.1-9.1s4.1-9 9.1-9Z"/></g></g></svg>
