<svg xmlns="http://www.w3.org/2000/svg" viewBox="0 0 511.24 297.37"><defs><style>.cls-1{stroke:#fff;stroke-linecap:round;stroke-linejoin:round}.cls-1,.cls-2,.cls-3{fill:none}.cls-4{fill:#e1a25b}.cls-5{fill:#f49796;stroke:#f49796}.cls-2,.cls-3,.cls-5,.cls-6{stroke-miterlimit:10;stroke-width:2px}.cls-6{fill:#31333e;stroke:#595e72}.cls-2{stroke:#e1a25b}.cls-3{stroke:#62b0ef}.cls-7{font-family:sans-serif;font-size:13px;isolation:isolate}.cls-7,.cls-8{fill:#fff}</style></defs><path id="bumper_back" class="cls-1 car-part selectable" d="M430.41 184.76c-.79.6-3.02 2.29-6.71 5.04l4.1-2.96-1.4 11.23-18.6 16.49 4.54 1.62.08-.21c15.7-7.9 18-31.2 18-31.2h-.01Zm-6.71 5.03-21.51 15.76c7.15-5.1 15.09-10.95 21.51-15.76Zm-21.51 22.65v-6.89c-2.53 1.8-4.08 2.84-6.64 4.62l6.64 2.27Zm55.43-21.78-27-5.9h-.2s-2.3 23.3-18 31.2l-.08.21 10.88 3.89v.05l.1-.05c4 2.5.7 14.8.5 18.2-.86 3.08 16.77-11.07 23.61-19.66 1.15-1.44 1.99-2.72 2.39-3.74 1.6-4.1 8.2-17.1 7.9-24.1.01 0 .01-.02.02-.03l-.12-.07h0Zm-34.4 29.4-10.88-3.89-4.54-1.62-2.26-.81-3.35-1.3-6.64-2.27c-13.64 9.49-27.64 18.64-40 25.54-.21.12-.42.23-.63.35-6.4 2.1-27 4.3-28.9 4.3v.31c.68 4.04 26.45 14.18 43.3 10.19 16.93-4.04 51.5-29.29 53.91-30.75v-.05h0Zm35.3-57.3-.21.2c-3 2.45-13.61 10.95-27.78 21.69l-.13.1h.21l27 5.91.12.07c4.51-7.39 14.18-16.58 14.18-22.37-1.45-3.29-11.92-4.52-13.39-5.6Zm13.39 5.6c0 5.79-9.67 14.98-14.18 22.37l-.12-.07-27-5.9h-.2s-2.3 23.3-18 31.2l-.08.21 10.88 3.89v.05c-2.4 1.46-36.97 26.71-53.9 30.75-16.85 3.99-42.62-6.15-43.3-10.19v36.5c15.84 4.5 29.57 7.44 36.4 6.69 12.6-3.2 27-18.2 33.6-22.2 0 0 19.7-9.7 24.6-12.7 4.92-3.05 23.51-22.19 29.05-29.65.08-.12.17-.24.25-.35 5.2-7.2 14.8-27.5 17.8-33.5s6.42-14.97 4.2-17.1h0Z"/><path id="trunk" class="cls-1 car-part selectable" d="M438.82 108.07s-3.1 5-2.6 6c.3 1 10.9-3.6 11.5-3.9.5-.3 3.5-5.8 3.5-5.8l-12.4 3.7Zm0 0s-3.1 5-2.6 6c.3 1 10.9-3.6 11.5-3.9.5-.3 3.5-5.8 3.5-5.8l-12.4 3.7Zm13.51-19.17v-.03l-.09-.29c-5.54 1.47-12.32 2.97-19.73 4.42v.07s4.61 10.1 4.71 11-6.3 14.7-5.7 15.1c.7.4 14.2-4.9 15-5.4.7-.5 10-15 10-15.6s-3.94-8.76-4.19-9.27h0Zm14.76-6.9-.07.07c-.56 1.98-6.21 4.22-14.78 6.51-5.54 1.47-12.32 2.97-19.73 4.42-24.22 4.75-55.23 9.05-72.47 10.84 3.07 10.06 4.59 23.96 5.01 39.04.69 24.51-1.5 52.16-4.6 71.61-1.51 9.41-3.22 16.9-4.93 21.18l.03.05c12.36-6.9 26.36-16.05 40-25.54 2.56-1.78 4.11-2.82 6.64-4.62 7.15-5.1 15.09-10.95 21.51-15.76 3.69-2.75 5.92-4.44 6.71-5.04l.13-.1c14.17-10.74 24.78-19.24 27.78-21.69l.21-.2s-.08-.07-.11-.1c10.49-20.39 14.54-74.3 8.67-80.67h0Zm-15.87 22.37s-3 5.5-3.5 5.8c-.6.3-11.2 4.9-11.5 3.9-.5-1 2.6-6 2.6-6l12.4-3.7Z"/><path id="license_plate_back" class="cls-1 car-part selectable" d="m427.8 186.84-1.4 11.23-18.6 16.49-2.26-.81-3.35-1.3v-6.89c7.15-5.1 15.09-10.95 21.51-15.76l4.1-2.96Z"/><path id="tail_light_left" class="cls-1 car-part selectable" d="m360.45 214.49-.13-.02s-27.9 4.1-44.7-2.3c-6.3-3.4-4.9-12.9-3.9-21.5 1-8.5-1.2-18.2-7.8-24.4-5.3-5-7-11.3-6.3-18.8.4-4.9 2-8.3 10-7.6 6.59.6 29.56 7.29 57.43 3.01.69 24.51-1.5 52.16-4.6 71.61h0Z"/><path id="window_front_left" class="cls-1 car-part selectable" d="M85.22 31.87S74.68 62.4 71.75 84.98c-8.46-.58-17.51-1.32-18.23-1.21l-15.8-6.8s-1.55.08-3.06.11c-.2 0-.4.01-.59.01v-.39c7.61-12.12 24.56-35.64 28.35-39.13.61-.56 11.77-3.48 22.77-5.83l.03.13Z"/><path id="window_back_left" class="cls-1 car-part selectable" d="M97.22 76.87c-1.2 3.8-8 8.1-10.8 8.7-1.26.27-7.77-.11-14.67-.59 2.93-22.58 13.47-53.11 13.47-53.11l-.03-.13c10.52-2.23 20.9-3.94 21.83-2.57 1.8 2.9-8.6 43.9-9.8 47.7Z"/><path id="fender_front_left" class="cls-1 car-part selectable" d="m36.66 141.16-4.67-1.99c-.44-1.3-.91-2.7-1.41-4.15-2.38-6.89-5.43-15.08-8.39-21.05-1.89-3.81-3.75-6.72-5.37-7.8-6.6-4.4-2.3 19.6-2.2 20.8h.48c0 .99.04 2.02.1 3.08l-.28.02c-3.7-9.6-3.9-25.2-2.3-31.3 1.56-6.06.07-9.54 1.69-12.21 0 .01.01.01.01.01.68.44 8.77.53 14.8.53v.17c-1.91 9.69 2.58 33.76 6.43 49.52.38 1.55.75 3.01 1.11 4.37Z"/><path id="mirror_left" class="cls-1 car-part selectable" d="M37.72 76.97s-1.55.08-3.06.11c-.2 0-.4.01-.59.01h-.05c-1.19.03-2.2 0-2.2-.12-.02-.07-.13-.59-.3-1.36-.57-2.71-1.79-8.51-2.1-8.74-.5-.3-14.2.2-14.7.4s-5 4.7-5.1 5.1c-.2.4.7 8.1 1 10.1.3 1.99 2.59 3.39 3.69 4.09 0 .01.01.01.01.01.68.44 8.77.53 14.8.53h1.6v.07c-.4 1.4.1 2.5 1.1 2.6s8.9 1.3 11.2 1.3 8.9-7 10.5-7.3l-15.8-6.8Z"/><g id="door_front_left" class="car-part selectable"><path class="cls-1" d="M81.3 29.7c-7.14 1.58-19.49 4.3-20.96 5.65-9.48 10.79-27.62 41.32-28.52 41.62 0 .12 1.01.15 2.2.12h.05v-.39c7.61-12.12 24.56-35.64 28.35-39.13.61-.56 11.77-3.48 22.77-5.83l.83-3.06c-1.62.34-3.21.68-4.72 1.02Zm-8.01 120.55c-3.53-19.93-7.39-46.86-6.57-52.58 1.2-8.6 4.1-10.8 5-12.5l.03-.19c-8.46-.58-17.51-1.32-18.23-1.21-1.6.3-8.2 7.3-10.5 7.3s-10.2-1.2-11.2-1.3-1.5-1.2-1.1-2.6v-.07h-1.6v.17c-1.91 9.69 2.58 33.76 6.43 49.52.38 1.55.75 3.01 1.11 4.37l37.93 16.17c-.42-2.21-.86-4.59-1.3-7.08h0Zm-18.87-44.78c-.3-.3-.5-3.5-.1-3.8s10.1 2.4 10.1 2.4l.1 3.6s-9.8-1.9-10.1-2.2Z"/><path id="handle_front_left" class="cls-1 car-part" d="M64.52 107.67s-9.8-1.9-10.1-2.2-.5-3.5-.1-3.8 10.1 2.4 10.1 2.4l.1 3.6Z"/></g><g id="wheel_back_left" class="car-part selectable"><path class="cls-1" d="M243.42 248.27c-4.16-15.45-9.85-30.23-16.44-43.22-6.87-13.53-14.73-25.13-22.9-33.54l-.16.16c-12.2.7-25.4 5.7-30.7 8.5-9.05 4.75-14.69 14.63-16.33 27.55-.09.67-.17 1.33-.23 2.02h0c-1.27 13.71 1.77 30.56 9.76 48.23 15.8 29.2 28.5 37.8 43.1 38.9 12.3.1 38.6-18.3 41.7-25.6 2.6-5.7 4.2-11.7 4.8-17.7l.07-.19c-5.99-2.31-10.47-4.12-12.67-5.11Zm-41.76 26.58c-8.54 3.14-21.32-10.29-28.55-29.99-7.23-19.69-6.17-38.2 2.37-41.34 8.54-3.13 21.32 10.29 28.55 29.99s6.17 38.21-2.37 41.34Z"/><path class="cls-1" d="M201.66 274.85c-8.54 3.14-21.32-10.29-28.55-29.99-7.23-19.69-6.17-38.2 2.37-41.34 8.54-3.13 21.32 10.29 28.55 29.99s6.17 38.21-2.37 41.34Z"/></g><g id="wheel_front_left" class="car-part selectable"><path class="cls-1" d="M39.36 150.76c-2.71-1.48-4.3-2.4-4.44-2.59-.29-.84-1.38-4.34-2.93-9-.44-1.3-.91-2.7-1.41-4.15-2.38-6.89-5.43-15.08-8.39-21.05-5.23-.03-7.1 5.42-7.09 12.99 0 1 .04 2.03.1 3.09.33 5.61 1.48 12.03 2.92 18.12 3.1 13.9 7.7 22.6 13.6 24 7.2 0 21-1.7 26.1-11.2l.18-.35c-8.02-4.18-14.59-7.65-18.64-9.86Zm-10.5 13.44c-1.72.44-5.22-7.43-7.81-17.57-2.6-10.15-3.3-18.73-1.58-19.17s5.22 7.42 7.81 17.57c2.6 10.15 3.3 18.73 1.58 19.17h0Z"/><path class="cls-1" d="M28.86 164.2c-1.72.44-5.22-7.43-7.81-17.57-2.6-10.15-3.3-18.73-1.58-19.17s5.22 7.42 7.81 17.57c2.6 10.15 3.3 18.73 1.58 19.17h0Z"/></g><path id="fender_back_left" class="cls-1 car-part selectable" d="M360.45 214.49c-1.51 9.41-3.22 16.9-4.93 21.18l.03.05c-.21.12-.42.23-.63.35-6.4 2.1-27 4.3-28.9 4.3-.02.1-.02.2 0 .31v36.5c-24.09-6.84-53.04-17.28-69.93-23.8-5.99-2.31-10.47-4.12-12.67-5.11-4.16-15.45-9.85-30.23-16.44-43.22-6.87-13.53-14.73-25.13-22.9-33.54-3.58-3.7-7.22-6.78-10.86-9.14-18.46-11.94-40.42-12.1-45.99 14.25l-.21 1.05c-2.5 13 3.7 27.5 9.5 30l.37.05c-.09.67-.17 1.33-.23 2.02l-.74-.07c-5.93-2.44-23.9-11.3-44.24-21.56l-1.37-15.56-.82-9.39-4-45.63c-.48-8.54.2-17.11 2.03-25.47l1.9-8.69s225.5 20.4 240.6 21.3c2.27-.1 5.71-.39 10.02-.83 3.07 10.06 4.59 23.96 5.01 39.04-27.87 4.28-50.84-2.41-57.43-3.01-8-.7-9.6 2.7-10 7.6-.7 7.5 1 13.8 6.3 18.8 6.6 6.2 8.8 15.9 7.8 24.4-1 8.6-2.4 18.1 3.9 21.5 16.8 6.4 44.7 2.3 44.7 2.3l.13.02h0Z"/><path id="roof" class="cls-1 car-part selectable" d="M236.32 25.67c-26.4-7.8-102.6-9.1-109.3-8.9-1.04.03-2.91.15-5.4.36h0c-13.61 1.17-45.41 5.25-56.99 14.04-1.27.96-2.72 2.4-4.28 4.18 1.47-1.35 13.82-4.07 20.96-5.65a334.449 334.449 0 0 1 5.58-1.2c.72-.15 1.45-.29 2.18-.44.64-.12 1.28-.25 1.92-.37.42-.08.84-.16 1.25-.24.38-.07.76-.14 1.13-.2 1.96-.36 3.84-.66 5.56-.89.41-.06.82-.11 1.21-.16l.46-.06c.38-.04.74-.08 1.09-.11.13-.01.26-.03.38-.04.41-.04.8-.07 1.18-.09l.63-.03c.33 0 .63-.02.92-.02 10.1 0 13.13 3.78 13.13 3.78l12.6-.76c9-3.9 110.5 2.5 112.1 5l1.56-.2c-2.22-5.2-4.78-7.22-7.86-8h0Z"/><path id="windshield_back" class="cls-1 car-part selectable" d="m256.93 74.01-136.72 8.68s5.24-49.24 10.31-53.82c9-3.9 110.5 2.5 112.1 5 1.6 2.6 14.3 40 14.3 40v.14h.01Z"/><path class="cls-1 background" d="m467.09 82-.07.07c-.56 1.98-6.21 4.22-14.78 6.51-5.54 1.47-12.32 2.97-19.73 4.42-24.22 4.75-55.23 9.05-72.47 10.84-4.31.44-7.75.73-10.02.83-15.1-.9-240.6-21.3-240.6-21.3l10.79-.68 136.72-8.68 2.19-.14v-.1c9 .2 203.1 5.3 207.6 7.9.13.09.25.2.37.33Z"/><path class="cls-1 background" d="M130.52 28.87c-5.07 4.58-10.31 53.82-10.31 53.82l-10.79.68 5.01-31.65 3.49-22.09 12.6-.76ZM204.08 171.51l-.16.16c-12.2.7-25.4 5.7-30.7 8.5-9.05 4.75-14.69 14.63-16.33 27.55l-.37-.05c-5.8-2.5-12-17-9.5-30l.21-1.05c5.57-26.35 27.53-26.19 45.99-14.25 3.64 2.36 7.28 5.44 10.86 9.14h0ZM259.12 73.77v.1l-2.19.14v-.14s-12.71-37.4-14.31-40l1.56-.2c6.08 14.17 12.92 36.42 14.94 40.1ZM22.19 113.97c-5.23-.03-7.1 5.42-7.09 12.99h-.48c-.1-1.19-4.4-25.19 2.2-20.79 1.62 1.08 3.48 3.99 5.37 7.8h0Z"/><g id="door_back_left" class="car-part selectable"><path class="cls-1" d="m109.42 83.37 5.01-31.65 3.49-22.09s-3.03-3.78-13.13-3.78c-.29 0-.59.01-.92.02l-.63.03c-.38.02-.77.05-1.18.09-.12 0-.25.03-.38.04-.35.03-.71.07-1.09.11l-.46.06c-.39.05-.8.1-1.21.16-1.72.23-3.6.53-5.56.89-.37.06-.75.13-1.13.2-.41.08-.83.16-1.25.24-.64.12-1.28.25-1.92.37-.73.15-1.46.29-2.18.44-.29.06-.58.12-.86.18l-.83 3.06c10.52-2.23 20.9-3.94 21.83-2.57 1.8 2.9-8.6 43.9-9.8 47.7-1.2 3.8-8 8.1-10.8 8.7-1.26.27-7.77-.11-14.67-.59l-.03.19c-.9 1.7-3.8 3.9-5 12.5-.82 5.72 3.04 32.65 6.57 52.58.44 2.49.88 4.87 1.3 7.08l32.52 13.86 3.2 1.36-.82-9.39-4-45.63c-.48-8.54.2-17.11 2.03-25.47l1.9-8.69h0Zm-18.07 29.86c-.3-.3-.5-3.5-.1-3.8s10.1 2.4 10.1 2.4l.1 3.6s-9.8-1.9-10.1-2.2Z"/><path id="handle_back_left" class="cls-1 car-part" d="M101.45 115.43s-9.8-1.9-10.1-2.2c-.3-.3-.5-3.5-.1-3.8s10.1 2.4 10.1 2.4l.1 3.6Z"/></g><path id="rocker_panel_left" class="cls-1 car-part selectable" d="M111.68 188.11c-1.05-.52-2.11-1.06-3.17-1.6-10.27-5.19-21.01-10.66-31.01-15.8-7-3.6-13.64-7.03-19.5-10.09-8.02-4.18-14.59-7.65-18.64-9.86-2.71-1.48-4.3-2.4-4.44-2.59-.29-.84-1.38-4.34-2.93-9l4.67 1.99 37.93 16.17 32.52 13.86 3.2 1.36 1.37 15.56Z"/><g id="damage-pill_tail_light_left"><circle class="cls-6 damage-pill-background" cx="336.64" cy="177.77" r="19.13"/><circle class="cls-3 severity-low" cx="336.64" cy="177.77" r="9.1"/><circle class="cls-5 severity-high" cx="336.64" cy="177.77" r="9.1"/><circle class="cls-8 severity-none" cx="336.64" cy="177.77" r="9.1"/><g class="severity-medium"><circle class="cls-2 severity-medium severity-medium" cx="336.64" cy="177.77" r="9.1"/><path class="cls-4 severity-medium" d="M336.64 168.67v18.1c-5 0-9.1-4.1-9.1-9.1s4.1-9 9.1-9Z"/></g></g><g id="damage-pill-pricing_tail_light_left"><path class="cls-6 damage-pill-background" d="M391.62 196.9h-54.98c-10.56 0-19.13-8.58-19.13-19.13 0-10.56 8.58-19.13 19.13-19.13h54.98c10.56 0 19.13 8.58 19.13 19.13 0 10.56-8.58 19.13-19.13 19.13Z"/><text class="cls-7 damage-pill-text" transform="translate(358.72 182.05)">9999€</text><circle class="cls-3 severity-low" cx="336.64" cy="177.77" r="9.1"/><circle class="cls-5 severity-high" cx="336.64" cy="177.77" r="9.1"/><circle class="cls-8 severity-none" cx="336.64" cy="177.77" r="9.1"/><g class="severity-medium"><circle class="cls-2 severity-medium severity-medium" cx="336.64" cy="177.77" r="9.1"/><path class="cls-4 severity-medium" d="M336.64 168.67v18.1c-5 0-9.1-4.1-9.1-9.1s4.1-9 9.1-9Z"/></g></g><g id="damage-pill_bumper_back"><circle class="cls-6 damage-pill-background" cx="392.46" cy="239.18" r="19.13"/><circle class="cls-3 severity-low" cx="392.46" cy="239.18" r="9.1"/><circle class="cls-5 severity-high" cx="392.46" cy="239.18" r="9.1"/><circle class="cls-8 severity-none" cx="392.46" cy="239.18" r="9.1"/><g class="severity-medium"><circle class="cls-2 severity-medium severity-medium" cx="392.46" cy="239.18" r="9.1"/><path class="cls-4 severity-medium" d="M392.46 230.08v18.1c-5 0-9.1-4.1-9.1-9.1s4.1-9 9.1-9Z"/></g></g><g id="damage-pill-pricing_bumper_back"><path class="cls-6 damage-pill-background" d="M447.44 258.32h-54.98c-10.56 0-19.13-8.58-19.13-19.13 0-10.56 8.58-19.13 19.13-19.13h54.98c10.56 0 19.13 8.58 19.13 19.13 0 10.56-8.58 19.13-19.13 19.13Z"/><text class="cls-7 damage-pill-text" transform="translate(414.54 243.47)">9999€</text><circle class="cls-3 severity-low" cx="392.46" cy="239.18" r="9.1"/><circle class="cls-5 severity-high" cx="392.46" cy="239.18" r="9.1"/><circle class="cls-8 severity-none" cx="392.46" cy="239.18" r="9.1"/><g class="severity-medium"><circle class="cls-2 severity-medium severity-medium" cx="392.46" cy="239.18" r="9.1"/><path class="cls-4 severity-medium" d="M392.46 230.08v18.1c-5 0-9.1-4.1-9.1-9.1s4.1-9 9.1-9Z"/></g></g><g id="damage-pill_license_plate_back"><circle class="cls-6 damage-pill-background" cx="418.45" cy="200.42" r="19.13"/><circle class="cls-3 severity-low" cx="418.45" cy="200.42" r="9.1"/><circle class="cls-5 severity-high" cx="418.45" cy="200.42" r="9.1"/><circle class="cls-8 severity-none" cx="418.45" cy="200.42" r="9.1"/><g class="severity-medium"><circle class="cls-2 severity-medium severity-medium" cx="418.45" cy="200.42" r="9.1"/><path class="cls-4 severity-medium" d="M418.45 191.32v18.1c-5 0-9.1-4.1-9.1-9.1s4.1-9 9.1-9Z"/></g></g><g id="damage-pill-pricing_license_plate_back"><path class="cls-6 damage-pill-background" d="M473.43 219.55h-54.98c-10.56 0-19.13-8.58-19.13-19.13 0-10.56 8.58-19.13 19.13-19.13h54.98c10.56 0 19.13 8.58 19.13 19.13 0 10.56-8.58 19.13-19.13 19.13Z"/><text class="cls-7 damage-pill-text" transform="translate(440.53 204.7)">9999€</text><circle class="cls-3 severity-low" cx="418.45" cy="200.42" r="9.1"/><circle class="cls-5 severity-high" cx="418.45" cy="200.42" r="9.1"/><circle class="cls-8 severity-none" cx="418.45" cy="200.42" r="9.1"/><g class="severity-medium"><circle class="cls-2 severity-medium severity-medium" cx="418.45" cy="200.42" r="9.1"/><path class="cls-4 severity-medium" d="M418.45 191.32v18.1c-5 0-9.1-4.1-9.1-9.1s4.1-9 9.1-9Z"/></g></g><g id="damage-pill_wheel_front_left"><circle class="cls-6 damage-pill-background" cx="26.6" cy="143.07" r="19.13"/><circle class="cls-3 severity-low" cx="26.6" cy="143.07" r="9.1"/><circle class="cls-5 severity-high" cx="26.6" cy="143.07" r="9.1"/><circle class="cls-8 severity-none" cx="26.6" cy="143.07" r="9.1"/><g class="severity-medium"><circle class="cls-2 severity-medium severity-medium" cx="26.6" cy="143.07" r="9.1"/><path class="cls-4 severity-medium" d="M26.6 133.97v18.1c-5 0-9.1-4.1-9.1-9.1s4.1-9 9.1-9Z"/></g></g><g id="damage-pill-pricing_wheel_front_left"><path class="cls-6 damage-pill-background" d="M81.59 162.2H26.6c-10.56 0-19.13-8.58-19.13-19.13 0-10.56 8.58-19.13 19.13-19.13h54.98c10.56 0 19.13 8.58 19.13 19.13 0 10.56-8.58 19.13-19.13 19.13Z"/><text class="cls-7 damage-pill-text" transform="translate(48.69 147.35)">9999€</text><circle class="cls-3 severity-low" cx="26.6" cy="143.07" r="9.1"/><circle class="cls-5 severity-high" cx="26.6" cy="143.07" r="9.1"/><circle class="cls-8 severity-none" cx="26.6" cy="143.07" r="9.1"/><g class="severity-medium"><circle class="cls-2 severity-medium severity-medium" cx="26.6" cy="143.07" r="9.1"/><path class="cls-4 severity-medium" d="M26.6 133.97v18.1c-5 0-9.1-4.1-9.1-9.1s4.1-9 9.1-9Z"/></g></g><g id="damage-pill_fender_front_left"><circle class="cls-6 damage-pill-background" cx="20.13" cy="101.64" r="19.13"/><circle class="cls-3 severity-low" cx="20.13" cy="101.64" r="9.1"/><circle class="cls-5 severity-high" cx="20.13" cy="101.64" r="9.1"/><circle class="cls-8 severity-none" cx="20.13" cy="101.64" r="9.1"/><g class="severity-medium"><circle class="cls-2 severity-medium severity-medium" cx="20.13" cy="101.64" r="9.1"/><path class="cls-4 severity-medium" d="M20.13 92.54v18.1c-5 0-9.1-4.1-9.1-9.1s4.1-9 9.1-9Z"/></g></g><g id="damage-pill-pricing_fender_front_left"><path class="cls-6 damage-pill-background" d="M75.12 120.78H20.13C9.57 120.78 1 112.2 1 101.65c0-10.56 8.58-19.13 19.13-19.13h54.98c10.56 0 19.13 8.58 19.13 19.13 0 10.56-8.58 19.13-19.13 19.13Z"/><text class="cls-7 damage-pill-text" transform="translate(42.22 105.93)">9999€</text><circle class="cls-3 severity-low" cx="20.13" cy="101.64" r="9.1"/><circle class="cls-5 severity-high" cx="20.13" cy="101.64" r="9.1"/><circle class="cls-8 severity-none" cx="20.13" cy="101.64" r="9.1"/><g class="severity-medium"><circle class="cls-2 severity-medium severity-medium" cx="20.13" cy="101.64" r="9.1"/><path class="cls-4 severity-medium" d="M20.13 92.54v18.1c-5 0-9.1-4.1-9.1-9.1s4.1-9 9.1-9Z"/></g></g><g id="damage-pill_window_front_left"><circle class="cls-6 damage-pill-background" cx="59.83" cy="59.89" r="19.13"/><circle class="cls-3 severity-low" cx="59.83" cy="59.89" r="9.1"/><circle class="cls-5 severity-high" cx="59.83" cy="59.89" r="9.1"/><circle class="cls-8 severity-none" cx="59.83" cy="59.89" r="9.1"/><g class="severity-medium"><circle class="cls-2 severity-medium severity-medium" cx="59.83" cy="59.89" r="9.1"/><path class="cls-4 severity-medium" d="M59.83 50.79v18.1c-5 0-9.1-4.1-9.1-9.1s4.1-9 9.1-9Z"/></g></g><g id="damage-pill-pricing_window_front_left"><path class="cls-6 damage-pill-background" d="M114.81 79.02H59.83c-10.56 0-19.13-8.58-19.13-19.13 0-10.56 8.58-19.13 19.13-19.13h54.98c10.56 0 19.13 8.58 19.13 19.13 0 10.56-8.58 19.13-19.13 19.13Z"/><text class="cls-7 damage-pill-text" transform="translate(81.92 64.17)">9999€</text><circle class="cls-3 severity-low" cx="59.83" cy="59.89" r="9.1"/><circle class="cls-5 severity-high" cx="59.83" cy="59.89" r="9.1"/><circle class="cls-8 severity-none" cx="59.83" cy="59.89" r="9.1"/><g class="severity-medium"><circle class="cls-2 severity-medium severity-medium" cx="59.83" cy="59.89" r="9.1"/><path class="cls-4 severity-medium" d="M59.83 50.79v18.1c-5 0-9.1-4.1-9.1-9.1s4.1-9 9.1-9Z"/></g></g><g id="damage-pill_window_back_left"><circle class="cls-6 damage-pill-background" cx="90.48" cy="56.16" r="19.13"/><circle class="cls-3 severity-low" cx="90.48" cy="56.16" r="9.1"/><circle class="cls-5 severity-high" cx="90.48" cy="56.16" r="9.1"/><circle class="cls-8 severity-none" cx="90.48" cy="56.16" r="9.1"/><g class="severity-medium"><circle class="cls-2 severity-medium severity-medium" cx="90.48" cy="56.16" r="9.1"/><path class="cls-4 severity-medium" d="M90.48 47.06v18.1c-5 0-9.1-4.1-9.1-9.1s4.1-9 9.1-9Z"/></g></g><g id="damage-pill-pricing_window_back_left"><path class="cls-6 damage-pill-background" d="M145.46 75.3H90.48c-10.56 0-19.13-8.58-19.13-19.13 0-10.56 8.58-19.13 19.13-19.13h54.98c10.56 0 19.13 8.58 19.13 19.13 0 10.56-8.58 19.13-19.13 19.13Z"/><text class="cls-7 damage-pill-text" transform="translate(112.56 60.45)">9999€</text><circle class="cls-3 severity-low" cx="90.48" cy="56.16" r="9.1"/><circle class="cls-5 severity-high" cx="90.48" cy="56.16" r="9.1"/><circle class="cls-8 severity-none" cx="90.48" cy="56.16" r="9.1"/><g class="severity-medium"><circle class="cls-2 severity-medium severity-medium" cx="90.48" cy="56.16" r="9.1"/><path class="cls-4 severity-medium" d="M90.48 47.06v18.1c-5 0-9.1-4.1-9.1-9.1s4.1-9 9.1-9Z"/></g></g><g id="damage-pill_mirror_left"><circle class="cls-6 damage-pill-background" cx="22.04" cy="79.64" r="19.13"/><circle class="cls-3 severity-low" cx="22.04" cy="79.64" r="9.1"/><circle class="cls-5 severity-high" cx="22.04" cy="79.64" r="9.1"/><circle class="cls-8 severity-none" cx="22.04" cy="79.64" r="9.1"/><g class="severity-medium"><circle class="cls-2 severity-medium severity-medium" cx="22.04" cy="79.64" r="9.1"/><path class="cls-4 severity-medium" d="M22.04 70.54v18.1c-5 0-9.1-4.1-9.1-9.1s4.1-9 9.1-9Z"/></g></g><g id="damage-pill-pricing_mirror_left"><path class="cls-6 damage-pill-background" d="M77.02 98.77H22.04c-10.56 0-19.13-8.58-19.13-19.13 0-10.56 8.58-19.13 19.13-19.13h54.98c10.56 0 19.13 8.58 19.13 19.13 0 10.56-8.58 19.13-19.13 19.13Z"/><text class="cls-7 damage-pill-text" transform="translate(44.13 83.93)">9999€</text><circle class="cls-3 severity-low" cx="22.04" cy="79.64" r="9.1"/><circle class="cls-5 severity-high" cx="22.04" cy="79.64" r="9.1"/><circle class="cls-8 severity-none" cx="22.04" cy="79.64" r="9.1"/><g class="severity-medium"><circle class="cls-2 severity-medium severity-medium" cx="22.04" cy="79.64" r="9.1"/><path class="cls-4 severity-medium" d="M22.04 70.54v18.1c-5 0-9.1-4.1-9.1-9.1s4.1-9 9.1-9Z"/></g></g><g id="damage-pill_door_front_left"><circle class="cls-6 damage-pill-background" cx="49.53" cy="116.56" r="19.13"/><circle class="cls-3 severity-low" cx="49.53" cy="116.56" r="9.1"/><circle class="cls-5 severity-high" cx="49.53" cy="116.56" r="9.1"/><circle class="cls-8 severity-none" cx="49.53" cy="116.56" r="9.1"/><g class="severity-medium"><circle class="cls-2 severity-medium severity-medium" cx="49.53" cy="116.56" r="9.1"/><path class="cls-4 severity-medium" d="M49.53 107.46v18.1c-5 0-9.1-4.1-9.1-9.1s4.1-9 9.1-9Z"/></g></g><g id="damage-pill-pricing_door_front_left"><path class="cls-6 damage-pill-background" d="M104.52 135.7H49.54c-10.56 0-19.13-8.58-19.13-19.13 0-10.56 8.58-19.13 19.13-19.13h54.98c10.56 0 19.13 8.58 19.13 19.13 0 10.56-8.58 19.13-19.13 19.13Z"/><text class="cls-7 damage-pill-text" transform="translate(71.62 120.85)">9999€</text><circle class="cls-3 severity-low" cx="49.53" cy="116.56" r="9.1"/><circle class="cls-5 severity-high" cx="49.53" cy="116.56" r="9.1"/><circle class="cls-8 severity-none" cx="49.53" cy="116.56" r="9.1"/><g class="severity-medium"><circle class="cls-2 severity-medium severity-medium" cx="49.53" cy="116.56" r="9.1"/><path class="cls-4 severity-medium" d="M49.53 107.46v18.1c-5 0-9.1-4.1-9.1-9.1s4.1-9 9.1-9Z"/></g></g><g id="damage-pill_door_back_left"><circle class="cls-6 damage-pill-background" cx="87.69" cy="116.86" r="19.13"/><circle class="cls-3 severity-low" cx="87.69" cy="116.86" r="9.1"/><circle class="cls-5 severity-high" cx="87.69" cy="116.86" r="9.1"/><circle class="cls-8 severity-none" cx="87.69" cy="116.86" r="9.1"/><g class="severity-medium"><circle class="cls-2 severity-medium severity-medium" cx="87.69" cy="116.86" r="9.1"/><path class="cls-4 severity-medium" d="M87.69 107.76v18.1c-5 0-9.1-4.1-9.1-9.1s4.1-9 9.1-9Z"/></g></g><g id="damage-pill-pricing_door_back_left"><path class="cls-6 damage-pill-background" d="M142.68 135.99H87.7c-10.56 0-19.13-8.58-19.13-19.13 0-10.56 8.58-19.13 19.13-19.13h54.98c10.56 0 19.13 8.58 19.13 19.13 0 10.56-8.58 19.13-19.13 19.13Z"/><text class="cls-7 damage-pill-text" transform="translate(109.78 121.14)">9999€</text><circle class="cls-3 severity-low" cx="87.69" cy="116.86" r="9.1"/><circle class="cls-5 severity-high" cx="87.69" cy="116.86" r="9.1"/><circle class="cls-8 severity-none" cx="87.69" cy="116.86" r="9.1"/><g class="severity-medium"><circle class="cls-2 severity-medium severity-medium" cx="87.69" cy="116.86" r="9.1"/><path class="cls-4 severity-medium" d="M87.69 107.76v18.1c-5 0-9.1-4.1-9.1-9.1s4.1-9 9.1-9Z"/></g></g><g id="damage-pill_rocker_panel_left"><circle class="cls-6 damage-pill-background" cx="70.65" cy="161.19" r="19.13"/><circle class="cls-3 severity-low" cx="70.65" cy="161.19" r="9.1"/><circle class="cls-5 severity-high" cx="70.65" cy="161.19" r="9.1"/><circle class="cls-8 severity-none" cx="70.65" cy="161.19" r="9.1"/><g class="severity-medium"><circle class="cls-2 severity-medium severity-medium" cx="70.65" cy="161.19" r="9.1"/><path class="cls-4 severity-medium" d="M70.65 152.09v18.1c-5 0-9.1-4.1-9.1-9.1s4.1-9 9.1-9Z"/></g></g><g id="damage-pill-pricing_rocker_panel_left"><path class="cls-6 damage-pill-background" d="M125.63 180.33H70.65c-10.56 0-19.13-8.58-19.13-19.13 0-10.56 8.58-19.13 19.13-19.13h54.98c10.56 0 19.13 8.58 19.13 19.13 0 10.56-8.58 19.13-19.13 19.13Z"/><text class="cls-7 damage-pill-text" transform="translate(92.74 165.48)">9999€</text><circle class="cls-3 severity-low" cx="70.65" cy="161.19" r="9.1"/><circle class="cls-5 severity-high" cx="70.65" cy="161.19" r="9.1"/><circle class="cls-8 severity-none" cx="70.65" cy="161.19" r="9.1"/><g class="severity-medium"><circle class="cls-2 severity-medium severity-medium" cx="70.65" cy="161.19" r="9.1"/><path class="cls-4 severity-medium" d="M70.65 152.09v18.1c-5 0-9.1-4.1-9.1-9.1s4.1-9 9.1-9Z"/></g></g><g id="damage-pill_windshield_back"><circle class="cls-6 damage-pill-background" cx="175.7" cy="52.89" r="19.13"/><circle class="cls-3 severity-low" cx="175.7" cy="52.89" r="9.1"/><circle class="cls-5 severity-high" cx="175.7" cy="52.89" r="9.1"/><circle class="cls-8 severity-none" cx="175.7" cy="52.89" r="9.1"/><g class="severity-medium"><circle class="cls-2 severity-medium severity-medium" cx="175.7" cy="52.89" r="9.1"/><path class="cls-4 severity-medium" d="M175.7 43.79v18.1c-5 0-9.1-4.1-9.1-9.1s4.1-9 9.1-9Z"/></g></g><g id="damage-pill-pricing_windshield_back"><path class="cls-6 damage-pill-background" d="M230.68 72.02H175.7c-10.56 0-19.13-8.58-19.13-19.13 0-10.56 8.58-19.13 19.13-19.13h54.98c10.56 0 19.13 8.58 19.13 19.13 0 10.56-8.58 19.13-19.13 19.13Z"/><text class="cls-7 damage-pill-text" transform="translate(197.78 57.17)">9999€</text><circle class="cls-3 severity-low" cx="175.7" cy="52.89" r="9.1"/><circle class="cls-5 severity-high" cx="175.7" cy="52.89" r="9.1"/><circle class="cls-8 severity-none" cx="175.7" cy="52.89" r="9.1"/><g class="severity-medium"><circle class="cls-2 severity-medium severity-medium" cx="175.7" cy="52.89" r="9.1"/><path class="cls-4 severity-medium" d="M175.7 43.79v18.1c-5 0-9.1-4.1-9.1-9.1s4.1-9 9.1-9Z"/></g></g><g id="damage-pill_roof"><circle class="cls-6 damage-pill-background" cx="140.82" cy="20.13" r="19.13"/><circle class="cls-3 severity-low" cx="140.82" cy="20.13" r="9.1"/><circle class="cls-5 severity-high" cx="140.82" cy="20.13" r="9.1"/><circle class="cls-8 severity-none" cx="140.82" cy="20.13" r="9.1"/><g class="severity-medium"><circle class="cls-2 severity-medium severity-medium" cx="140.82" cy="20.13" r="9.1"/><path class="cls-4 severity-medium" d="M140.82 11.03v18.1c-5 0-9.1-4.1-9.1-9.1s4.1-9 9.1-9Z"/></g></g><g id="damage-pill-pricing_roof"><path class="cls-6 damage-pill-background" d="M195.8 39.27h-54.98c-10.56 0-19.13-8.58-19.13-19.13 0-10.56 8.58-19.13 19.13-19.13h54.98c10.56 0 19.13 8.58 19.13 19.13 0 10.56-8.58 19.13-19.13 19.13Z"/><text class="cls-7 damage-pill-text" transform="translate(162.91 24.42)">9999€</text><circle class="cls-3 severity-low" cx="140.82" cy="20.13" r="9.1"/><circle class="cls-5 severity-high" cx="140.82" cy="20.13" r="9.1"/><circle class="cls-8 severity-none" cx="140.82" cy="20.13" r="9.1"/><g class="severity-medium"><circle class="cls-2 severity-medium severity-medium" cx="140.82" cy="20.13" r="9.1"/><path class="cls-4 severity-medium" d="M140.82 11.03v18.1c-5 0-9.1-4.1-9.1-9.1s4.1-9 9.1-9Z"/></g></g><g id="damage-pill_fender_back_left"><circle class="cls-6 damage-pill-background" cx="207.7" cy="132.99" r="19.13"/><circle class="cls-3 severity-low" cx="207.7" cy="132.99" r="9.1"/><circle class="cls-5 severity-high" cx="207.7" cy="132.99" r="9.1"/><circle class="cls-8 severity-none" cx="207.7" cy="132.99" r="9.1"/><g class="severity-medium"><circle class="cls-2 severity-medium severity-medium" cx="207.7" cy="132.99" r="9.1"/><path class="cls-4 severity-medium" d="M207.7 123.89v18.1c-5 0-9.1-4.1-9.1-9.1s4.1-9 9.1-9Z"/></g></g><g id="damage-pill-pricing_fender_back_left"><path class="cls-6 damage-pill-background" d="M262.69 152.13h-54.98c-10.56 0-19.13-8.58-19.13-19.13 0-10.56 8.58-19.13 19.13-19.13h54.98c10.56 0 19.13 8.58 19.13 19.13 0 10.56-8.58 19.13-19.13 19.13Z"/><text class="cls-7 damage-pill-text" transform="translate(229.79 137.28)">9999€</text><circle class="cls-3 severity-low" cx="207.7" cy="132.99" r="9.1"/><circle class="cls-5 severity-high" cx="207.7" cy="132.99" r="9.1"/><circle class="cls-8 severity-none" cx="207.7" cy="132.99" r="9.1"/><g class="severity-medium"><circle class="cls-2 severity-medium severity-medium" cx="207.7" cy="132.99" r="9.1"/><path class="cls-4 severity-medium" d="M207.7 123.89v18.1c-5 0-9.1-4.1-9.1-9.1s4.1-9 9.1-9Z"/></g></g><g id="damage-pill_wheel_back_left"><circle class="cls-6 damage-pill-background" cx="188.44" cy="238.69" r="19.13"/><circle class="cls-3 severity-low" cx="188.44" cy="238.69" r="9.1"/><circle class="cls-5 severity-high" cx="188.44" cy="238.69" r="9.1"/><circle class="cls-8 severity-none" cx="188.44" cy="238.69" r="9.1"/><g class="severity-medium"><circle class="cls-2 severity-medium severity-medium" cx="188.44" cy="238.69" r="9.1"/><path class="cls-4 severity-medium" d="M188.44 229.59v18.1c-5 0-9.1-4.1-9.1-9.1s4.1-9 9.1-9Z"/></g></g><g id="damage-pill-pricing_wheel_back_left"><path class="cls-6 damage-pill-background" d="M243.42 257.82h-54.98c-10.56 0-19.13-8.58-19.13-19.13 0-10.56 8.58-19.13 19.13-19.13h54.98c10.56 0 19.13 8.58 19.13 19.13 0 10.56-8.58 19.13-19.13 19.13Z"/><text class="cls-7 damage-pill-text" transform="translate(210.52 242.97)">9999€</text><circle class="cls-3 severity-low" cx="188.44" cy="238.69" r="9.1"/><circle class="cls-5 severity-high" cx="188.44" cy="238.69" r="9.1"/><circle class="cls-8 severity-none" cx="188.44" cy="238.69" r="9.1"/><g class="severity-medium"><circle class="cls-2 severity-medium severity-medium" cx="188.44" cy="238.69" r="9.1"/><path class="cls-4 severity-medium" d="M188.44 229.59v18.1c-5 0-9.1-4.1-9.1-9.1s4.1-9 9.1-9Z"/></g></g><g id="damage-pill_trunk"><circle class="cls-6 damage-pill-background" cx="436.13" cy="141.78" r="19.13"/><circle class="cls-3 severity-low" cx="436.13" cy="141.78" r="9.1"/><circle class="cls-5 severity-high" cx="436.13" cy="141.78" r="9.1"/><circle class="cls-8 severity-none" cx="436.13" cy="141.78" r="9.1"/><g class="severity-medium"><circle class="cls-2 severity-medium severity-medium" cx="436.13" cy="141.78" r="9.1"/><path class="cls-4 severity-medium" d="M436.13 132.68v18.1c-5 0-9.1-4.1-9.1-9.1s4.1-9 9.1-9Z"/></g></g><g id="damage-pill-pricing_trunk"><path class="cls-6 damage-pill-background" d="M491.11 160.91h-54.98c-10.56 0-19.13-8.58-19.13-19.13 0-10.56 8.58-19.13 19.13-19.13h54.98c10.56 0 19.13 8.58 19.13 19.13 0 10.56-8.58 19.13-19.13 19.13Z"/><text class="cls-7 damage-pill-text" transform="translate(458.21 146.06)">9999€</text><circle class="cls-3 severity-low" cx="436.13" cy="141.78" r="9.1"/><circle class="cls-5 severity-high" cx="436.13" cy="141.78" r="9.1"/><circle class="cls-8 severity-none" cx="436.13" cy="141.78" r="9.1"/><g class="severity-medium"><circle class="cls-2 severity-medium severity-medium" cx="436.13" cy="141.78" r="9.1"/><path class="cls-4 severity-medium" d="M436.13 132.68v18.1c-5 0-9.1-4.1-9.1-9.1s4.1-9 9.1-9Z"/></g></g></svg>
