<?xml version="1.0" encoding="UTF-8"?><svg id="Layer_1" xmlns="http://www.w3.org/2000/svg" viewBox="0 0 500 375"><defs><style>.cls-1{fill:none;stroke:#fff;stroke-linecap:round;stroke-linejoin:round;stroke-width:1px;}</style></defs><path id="bumper_back" class="selectable cls-1" d="m60.19,223.19c.79.6,3.02,2.29,6.71,5.04l-4.1-2.96,1.4,11.23,18.6,16.49-4.54,1.62-.08-.21c-15.7-7.9-18-31.2-18-31.2h.01Zm6.71,5.03l21.51,15.76c-7.15-5.1-15.09-10.95-21.51-15.76Zm21.51,22.65v-6.89c2.53,1.8,4.08,2.84,6.64,4.62l-6.64,2.27Zm-55.43-21.78l27-5.9h.2s2.3,23.3,18,31.2l.08.21-10.88,3.89v.05c-.05-.02-.08-.04-.1-.05-4,2.5-.7,14.8-.5,18.2.86,3.08-16.77-11.07-23.61-19.66-1.15-1.44-1.99-2.72-2.39-3.74-1.6-4.1-8.2-17.1-7.9-24.1-.01-.01-.01-.02-.02-.03l.12-.07Zm34.4,29.4l10.88-3.89,4.54-1.62,2.26-.81,3.35-1.3,6.64-2.27c13.64,9.49,27.64,18.64,40,25.54.21.12.42.23.63.35,6.4,2.1,27,4.3,28.9,4.3v.31c-.68,4.04-26.45,14.18-43.3,10.19-16.93-4.04-51.5-29.29-53.91-30.75v-.05Zm-35.3-57.3l.21.2c3,2.45,13.61,10.95,27.78,21.69.04.03.09.07.13.1h-.01s-.2.01-.2.01l-27,5.9-.12.07c-4.51-7.39-14.18-16.58-14.18-22.37,1.45-3.29,11.92-4.52,13.39-5.6Zm-13.39,5.6c0,5.79,9.67,14.98,14.18,22.37l.12-.07,27-5.9h.2s2.3,23.3,18,31.2l.08.21-10.88,3.89v.05c2.4,1.46,36.97,26.71,53.9,30.75,16.85,3.99,42.62-6.15,43.3-10.19v36.5c-15.84,4.5-29.57,7.44-36.4,6.69-12.6-3.2-27-18.2-33.6-22.2,0,0-19.7-9.7-24.6-12.7-4.92-3.05-23.51-22.19-29.05-29.65-.08-.12-.17-.24-.25-.35-5.2-7.2-14.8-27.5-17.8-33.5s-6.42-14.97-4.2-17.1Z" /><path id="trunk" class="selectable cls-1" d="m51.78,146.5s3.1,5,2.6,6c-.3,1-10.9-3.6-11.5-3.9-.5-.3-3.5-5.8-3.5-5.8l12.4,3.7Zm0,0s3.1,5,2.6,6c-.3,1-10.9-3.6-11.5-3.9-.5-.3-3.5-5.8-3.5-5.8l12.4,3.7Zm-13.51-19.17s.01-.03.01-.03l.08-.29c5.54,1.47,12.32,2.97,19.73,4.42v.07s-4.61,10.1-4.71,11c-.1.9,6.3,14.7,5.7,15.1-.7.4-14.2-4.9-15-5.4-.7-.5-10-15-10-15.6s3.94-8.76,4.19-9.27Zm-14.76-6.9l.07.07c.56,1.98,6.21,4.22,14.78,6.51,5.54,1.47,12.32,2.97,19.73,4.42,24.22,4.75,55.23,9.05,72.47,10.84-3.07,10.06-4.59,23.96-5.01,39.04-.69,24.51,1.5,52.16,4.6,71.61,1.51,9.41,3.22,16.9,4.93,21.18l-.03.05c-12.36-6.9-26.36-16.05-40-25.54-2.56-1.78-4.11-2.82-6.64-4.62-7.15-5.1-15.09-10.95-21.51-15.76-3.69-2.75-5.92-4.44-6.71-5.04-.04-.03-.09-.07-.13-.1-14.17-10.74-24.78-19.24-27.78-21.69l-.21-.2s.08-.07.11-.1c-10.49-20.39-14.54-74.3-8.67-80.67Zm15.87,22.37s3,5.5,3.5,5.8c.6.3,11.2,4.9,11.5,3.9.5-1-2.6-6-2.6-6l-12.4-3.7Z" /><path id="license_plate_back" class="selectable cls-1" d="m62.8,225.27l1.4,11.23,18.6,16.49,2.26-.81,3.35-1.3v-6.89c-7.15-5.1-15.09-10.95-21.51-15.76l-4.1-2.96Z" /><path id="tail_light_right" class="selectable cls-1" d="m130.15,252.92l.13-.02s27.9,4.1,44.7-2.3c6.3-3.4,4.9-12.9,3.9-21.5-1-8.5,1.2-18.2,7.8-24.4,5.3-5,7-11.3,6.3-18.8-.4-4.9-2-8.3-10-7.6-6.59.6-29.56,7.29-57.43,3.01-.69,24.51,1.5,52.16,4.6,71.61Z" /><path id="window_front_right" class="selectable cls-1" d="m405.38,70.3s10.54,30.53,13.47,53.11c8.46-.58,17.51-1.32,18.23-1.21l15.8-6.8s1.55.08,3.06.11c.2,0,.4.01.59.01v-.39c-7.61-12.12-24.56-35.64-28.35-39.13-.61-.56-11.77-3.48-22.77-5.83l-.03.13Z" /><path id="window_back_right" class="selectable cls-1" d="m393.38,115.3c1.2,3.8,8,8.1,10.8,8.7,1.26.27,7.77-.11,14.67-.59-2.93-22.58-13.47-53.11-13.47-53.11l.03-.13c-10.52-2.23-20.9-3.94-21.83-2.57-1.8,2.9,8.6,43.9,9.8,47.7Z" /><path id="fender_front_right" class="selectable cls-1" d="m453.94,179.59l4.67-1.99c.44-1.3.91-2.7,1.41-4.15,2.38-6.89,5.43-15.08,8.39-21.05,1.89-3.81,3.75-6.72,5.37-7.8,6.6-4.4,2.3,19.6,2.2,20.8h-.48c0,.99-.04,2.02-.1,3.08l.28.02c3.7-9.6,3.9-25.2,2.3-31.3-1.56-6.06-.07-9.54-1.69-12.21,0,.01-.01.01-.01.01-.68.44-8.77.53-14.8.53v.17c1.91,9.69-2.58,33.76-6.43,49.52-.38,1.55-.75,3.01-1.11,4.37Z" /><path id="mirror_right" class="selectable cls-1" d="m452.88,115.4s1.55.08,3.06.11c.2,0,.4.01.59.01h.05c1.19.03,2.2,0,2.2-.12.02-.07.13-.59.3-1.36.57-2.71,1.79-8.51,2.1-8.74.5-.3,14.2.2,14.7.4s5,4.7,5.1,5.1c.2.4-.7,8.1-1,10.1-.3,1.99-2.59,3.39-3.69,4.09,0,.01-.01.01-.01.01-.68.44-8.77.53-14.8.53h-1.6v.07c.4,1.4-.1,2.5-1.1,2.6s-8.9,1.3-11.2,1.3-8.9-7-10.5-7.3l15.8-6.8Z" /><g id="door_front_right" class="selectable"><path class="cls-1" d="m409.3,68.13c7.14,1.58,19.49,4.3,20.96,5.65,9.48,10.79,27.62,41.32,28.52,41.62,0,.12-1.01.15-2.2.12h-.05v-.39c-7.61-12.12-24.56-35.64-28.35-39.13-.61-.56-11.77-3.48-22.77-5.83l-.83-3.06c1.62.34,3.21.68,4.72,1.02Zm8.01,120.55c3.53-19.93,7.39-46.86,6.57-52.58-1.2-8.6-4.1-10.8-5-12.5-.01-.06-.02-.13-.03-.19,8.46-.58,17.51-1.32,18.23-1.21,1.6.3,8.2,7.3,10.5,7.3s10.2-1.2,11.2-1.3,1.5-1.2,1.1-2.6v-.07h1.6v.17c1.91,9.69-2.58,33.76-6.43,49.52-.38,1.55-.75,3.01-1.11,4.37l-37.93,16.17c.42-2.21.86-4.59,1.3-7.08Zm18.87-44.78c.3-.3.5-3.5.1-3.8-.4-.3-10.1,2.4-10.1,2.4l-.1,3.6s9.8-1.9,10.1-2.2Z" /><path id="handle_front_right" class="cls-1" d="m426.08,146.1s9.8-1.9,10.1-2.2.5-3.5.1-3.8c-.4-.3-10.1,2.4-10.1,2.4l-.1,3.6Z" /></g><g id="wheel_back_right" class="selectable"><path class="cls-1" d="m247.18,286.7c4.16-15.45,9.85-30.23,16.44-43.22,6.87-13.53,14.73-25.13,22.9-33.54l.16.16c12.2.7,25.4,5.7,30.7,8.5,9.05,4.75,14.69,14.63,16.33,27.55.09.67.17,1.33.23,2.02h0c1.27,13.71-1.77,30.56-9.76,48.23-15.8,29.2-28.5,37.8-43.1,38.9-12.3.1-38.6-18.3-41.7-25.6-2.6-5.7-4.2-11.7-4.8-17.7l-.07-.19c5.99-2.31,10.47-4.12,12.67-5.11Zm41.76,26.58c8.54,3.14,21.32-10.29,28.55-29.99,7.23-19.69,6.17-38.2-2.37-41.34-8.54-3.13-21.32,10.29-28.55,29.99-7.23,19.7-6.17,38.21,2.37,41.34Z" /><path class="cls-1" d="m288.94,313.28c8.54,3.14,21.32-10.29,28.55-29.99,7.23-19.69,6.17-38.2-2.37-41.34-8.54-3.13-21.32,10.29-28.55,29.99-7.23,19.7-6.17,38.21,2.37,41.34Z" /></g><g id="wheel_front_right" class="selectable"><path class="cls-1" d="m451.24,189.19c2.71-1.48,4.3-2.4,4.44-2.59.29-.84,1.38-4.34,2.93-9,.44-1.3.91-2.7,1.41-4.15,2.38-6.89,5.43-15.08,8.39-21.05,5.23-.03,7.1,5.42,7.09,12.99,0,1-.04,2.03-.1,3.09-.33,5.61-1.48,12.03-2.92,18.12-3.1,13.9-7.7,22.6-13.6,24-7.2,0-21-1.7-26.1-11.2l-.18-.35c8.02-4.18,14.59-7.65,18.64-9.86Zm10.5,13.44c1.72.44,5.22-7.43,7.81-17.57,2.6-10.15,3.3-18.73,1.58-19.17-1.72-.44-5.22,7.42-7.81,17.57-2.6,10.15-3.3,18.73-1.58,19.17Z" /><path class="cls-1" d="m461.74,202.63c1.72.44,5.22-7.43,7.81-17.57,2.6-10.15,3.3-18.73,1.58-19.17-1.72-.44-5.22,7.42-7.81,17.57-2.6,10.15-3.3,18.73-1.58,19.17Z" /></g><path id="fender_back_right" class="selectable cls-1" d="m130.15,252.92c1.51,9.41,3.22,16.9,4.93,21.18l-.03.05c.21.12.42.23.63.35,6.4,2.1,27,4.3,28.9,4.3.02.1.02.2,0,.31v36.5c24.09-6.84,53.04-17.28,69.93-23.8,5.99-2.31,10.47-4.12,12.67-5.11,4.16-15.45,9.85-30.23,16.44-43.22,6.87-13.53,14.73-25.13,22.9-33.54,3.58-3.7,7.22-6.78,10.86-9.14,18.46-11.94,40.42-12.1,45.99,14.25.07.35.14.7.21,1.05,2.5,13-3.7,27.5-9.5,30l-.37.05c.09.67.17,1.33.23,2.02l.74-.07c5.93-2.44,23.9-11.3,44.24-21.56l1.37-15.56.82-9.39,4-45.63c.48-8.54-.2-17.11-2.03-25.47l-1.9-8.69s-225.5,20.4-240.6,21.3c-2.27-.1-5.71-.39-10.02-.83-3.07,10.06-4.59,23.96-5.01,39.04,27.87,4.28,50.84-2.41,57.43-3.01,8-.7,9.6,2.7,10,7.6.7,7.5-1,13.8-6.3,18.8-6.6,6.2-8.8,15.9-7.8,24.4,1,8.6,2.4,18.1-3.9,21.5-16.8,6.4-44.7,2.3-44.7,2.3l-.13.02Z" /><path id="roof" class="selectable cls-1" d="m254.28,64.1c26.4-7.8,102.6-9.1,109.3-8.9,1.04.03,2.91.15,5.4.36h.01c13.61,1.17,45.41,5.25,56.99,14.04,1.27.96,2.72,2.4,4.28,4.18-1.47-1.35-13.82-4.07-20.96-5.65-1.51-.34-3.1-.68-4.72-1.02-.28-.06-.57-.12-.86-.18-.72-.15-1.45-.29-2.18-.44-.64-.12-1.28-.25-1.92-.37-.42-.08-.84-.16-1.25-.24-.38-.07-.76-.14-1.13-.2-1.96-.36-3.84-.66-5.56-.89-.41-.06-.82-.11-1.21-.16-.16-.02-.31-.04-.46-.06-.38-.04-.74-.08-1.09-.11-.13-.01-.26-.03-.38-.04-.41-.04-.8-.07-1.18-.09-.22-.01-.43-.02-.63-.03-.33,0-.63-.02-.92-.02-10.1,0-13.13,3.78-13.13,3.78l-12.6-.76c-9-3.9-110.5,2.5-112.1,5l-1.56-.2c2.22-5.2,4.78-7.22,7.86-8Z" /><path id="windshield_back" class="selectable cls-1" d="m233.67,112.44l136.72,8.68s-5.24-49.24-10.31-53.82c-9-3.9-110.5,2.5-112.1,5-1.6,2.6-14.3,40-14.3,40v.14Z" /><path id="background" class="cls-1" d="m23.51,120.43l.07.07c.56,1.98,6.21,4.22,14.78,6.51,5.54,1.47,12.32,2.97,19.73,4.42,24.22,4.75,55.23,9.05,72.47,10.84,4.31.44,7.75.73,10.02.83,15.1-.9,240.6-21.3,240.6-21.3l-10.79-.68-136.72-8.68-2.19-.14v-.1c-9,.2-203.1,5.3-207.6,7.9-.13.09-.25.2-.37.33Z" /><path id="background-2" class="cls-1" d="m360.08,67.3c5.07,4.58,10.31,53.82,10.31,53.82l10.79.68-5.01-31.65-3.49-22.09-12.6-.76Z" /><path id="background-3" class="cls-1" d="m286.52,209.94l.16.16c12.2.7,25.4,5.7,30.7,8.5,9.05,4.75,14.69,14.63,16.33,27.55l.37-.05c5.8-2.5,12-17,9.5-30-.07-.35-.14-.7-.21-1.05-5.57-26.35-27.53-26.19-45.99-14.25-3.64,2.36-7.28,5.44-10.86,9.14Z" /><path id="background-4" class="cls-1" d="m231.48,112.2v.1l2.19.14v-.14s12.71-37.4,14.31-40l-1.56-.2c-6.08,14.17-12.92,36.42-14.94,40.1Z" /><path id="background-5" class="cls-1" d="m468.41,152.4c5.23-.03,7.1,5.42,7.09,12.99h.48c.1-1.19,4.4-25.19-2.2-20.79-1.62,1.08-3.48,3.99-5.37,7.8Z" /><g id="door_back_right" class="selectable"><path class="cls-1" d="m381.18,121.8l-5.01-31.65-3.49-22.09s3.03-3.78,13.13-3.78c.29,0,.59.01.92.02.2.01.41.02.63.03.38.02.77.05,1.18.09.12,0,.25.03.38.04.35.03.71.07,1.09.11.15.02.3.04.46.06.39.05.8.1,1.21.16,1.72.23,3.6.53,5.56.89.37.06.75.13,1.13.2.41.08.83.16,1.25.24.64.12,1.28.25,1.92.37.73.15,1.46.29,2.18.44.29.06.58.12.86.18l.83,3.06c-10.52-2.23-20.9-3.94-21.83-2.57-1.8,2.9,8.6,43.9,9.8,47.7,1.2,3.8,8,8.1,10.8,8.7,1.26.27,7.77-.11,14.67-.59.01.06.02.13.03.19.9,1.7,3.8,3.9,5,12.5.82,5.72-3.04,32.65-6.57,52.58-.44,2.49-.88,4.87-1.3,7.08l-32.52,13.86-3.2,1.36.82-9.39,4-45.63c.48-8.54-.2-17.11-2.03-25.47l-1.9-8.69Zm18.07,29.86c.3-.3.5-3.5.1-3.8-.4-.3-10.1,2.4-10.1,2.4l-.1,3.6s9.8-1.9,10.1-2.2Z" /><path id="handle_back_right" class="cls-1" d="m389.15,153.86s9.8-1.9,10.1-2.2c.3-.3.5-3.5.1-3.8-.4-.3-10.1,2.4-10.1,2.4l-.1,3.6Z" /></g><path id="rocker_panel_right" class="selectable cls-1" d="m378.92,226.54c1.05-.52,2.11-1.06,3.17-1.6,10.27-5.19,21.01-10.66,31.01-15.8,7-3.6,13.64-7.03,19.5-10.09,8.02-4.18,14.59-7.65,18.64-9.86,2.71-1.48,4.3-2.4,4.44-2.59.29-.84,1.38-4.34,2.93-9l-4.67,1.99-37.93,16.17-32.52,13.86-3.2,1.36-1.37,15.56Z" /></svg>