<svg xmlns="http://www.w3.org/2000/svg" viewBox="0 0 528.1 297.37"><defs><style>.cls-1{stroke:#fff;stroke-linecap:round;stroke-linejoin:round}.cls-1,.cls-2,.cls-3{fill:none}.cls-4{fill:#e1a25b}.cls-5{fill:#f49796;stroke:#f49796}.cls-2,.cls-3,.cls-5,.cls-6{stroke-miterlimit:10;stroke-width:2px}.cls-6{fill:#31333e;stroke:#595e72}.cls-2{stroke:#e1a25b}.cls-3{stroke:#62b0ef}.cls-7{font-family:sans-serif;font-size:13px;isolation:isolate}.cls-7,.cls-8{fill:#fff}</style></defs><path id="bumper_back" class="cls-1 car-part selectable" d="M42.71 184.76c.79.6 3.02 2.29 6.71 5.04l-4.1-2.96 1.4 11.23 18.6 16.49-4.54 1.62-.08-.21c-15.7-7.9-18-31.2-18-31.2h.01Zm6.71 5.03 21.51 15.76c-7.15-5.1-15.09-10.95-21.51-15.76Zm21.51 22.65v-6.89c2.53 1.8 4.08 2.84 6.64 4.62l-6.64 2.27ZM15.5 190.66l27-5.9h.2s2.3 23.3 18 31.2l.08.21-10.88 3.89v.05l-.1-.05c-4 2.5-.7 14.8-.5 18.2.86 3.08-16.77-11.07-23.61-19.66-1.15-1.44-1.99-2.72-2.39-3.74-1.6-4.1-8.2-17.1-7.9-24.1-.01 0-.01-.02-.02-.03l.12-.07h0Zm34.4 29.4 10.88-3.89 4.54-1.62 2.26-.81 3.35-1.3 6.64-2.27c13.64 9.49 27.64 18.64 40 25.54.21.12.42.23.63.35 6.4 2.1 27 4.3 28.9 4.3v.31c-.68 4.04-26.45 14.18-43.3 10.19-16.93-4.04-51.5-29.29-53.91-30.75v-.05h0Zm-35.3-57.3.21.2c3 2.45 13.61 10.95 27.78 21.69l.13.1h-.21l-27 5.91-.12.07c-4.51-7.39-14.18-16.58-14.18-22.37 1.45-3.29 11.92-4.52 13.39-5.6Zm-13.39 5.6c0 5.79 9.67 14.98 14.18 22.37l.12-.07 27-5.9h.2s2.3 23.3 18 31.2l.08.21-10.88 3.89v.05c2.4 1.46 36.97 26.71 53.9 30.75 16.85 3.99 42.62-6.15 43.3-10.19v36.5c-15.84 4.5-29.57 7.44-36.4 6.69-12.6-3.2-27-18.2-33.6-22.2 0 0-19.7-9.7-24.6-12.7-4.92-3.05-23.51-22.19-29.05-29.65-.08-.12-.17-.24-.25-.35-5.2-7.2-14.8-27.5-17.8-33.5s-6.42-14.97-4.2-17.1h0Z"/><path id="trunk" class="cls-1 car-part selectable" d="M34.3 108.07s3.1 5 2.6 6c-.3 1-10.9-3.6-11.5-3.9-.5-.3-3.5-5.8-3.5-5.8l12.4 3.7Zm0 0s3.1 5 2.6 6c-.3 1-10.9-3.6-11.5-3.9-.5-.3-3.5-5.8-3.5-5.8l12.4 3.7ZM20.79 88.9v-.03l.09-.29c5.54 1.47 12.32 2.97 19.73 4.42v.07s-4.61 10.1-4.71 11 6.3 14.7 5.7 15.1c-.7.4-14.2-4.9-15-5.4-.7-.5-10-15-10-15.6s3.94-8.76 4.19-9.27h0ZM6.03 82l.07.07c.56 1.98 6.21 4.22 14.78 6.51 5.54 1.47 12.32 2.97 19.73 4.42 24.22 4.75 55.23 9.05 72.47 10.84-3.07 10.06-4.59 23.96-5.01 39.04-.69 24.51 1.5 52.16 4.6 71.61 1.51 9.41 3.22 16.9 4.93 21.18l-.03.05c-12.36-6.9-26.36-16.05-40-25.54-2.56-1.78-4.11-2.82-6.64-4.62-7.15-5.1-15.09-10.95-21.51-15.76-3.69-2.75-5.92-4.44-6.71-5.04l-.13-.1c-14.17-10.74-24.78-19.24-27.78-21.69l-.21-.2s.08-.07.11-.1C4.21 142.28.16 88.37 6.03 82h0Zm15.87 22.37s3 5.5 3.5 5.8c.6.3 11.2 4.9 11.5 3.9.5-1-2.6-6-2.6-6l-12.4-3.7Z"/><path id="license_plate_back" class="cls-1 car-part selectable" d="m45.32 186.84 1.4 11.23 18.6 16.49 2.26-.81 3.35-1.3v-6.89c-7.15-5.1-15.09-10.95-21.51-15.76l-4.1-2.96Z"/><path id="tail_light_right" class="cls-1 car-part selectable" d="m112.67 214.49.13-.02s27.9 4.1 44.7-2.3c6.3-3.4 4.9-12.9 3.9-21.5-1-8.5 1.2-18.2 7.8-24.4 5.3-5 7-11.3 6.3-18.8-.4-4.9-2-8.3-10-7.6-6.59.6-29.56 7.29-57.43 3.01-.69 24.51 1.5 52.16 4.6 71.61h0Z"/><path id="window_front_right" class="cls-1 car-part selectable" d="M387.9 31.87s10.54 30.53 13.47 53.11c8.46-.58 17.51-1.32 18.23-1.21l15.8-6.8s1.55.08 3.06.11c.2 0 .4.01.59.01v-.39c-7.61-12.12-24.56-35.64-28.35-39.13-.61-.56-11.77-3.48-22.77-5.83l-.03.13Z"/><path id="window_back_right" class="cls-1 car-part selectable" d="M375.9 76.87c1.2 3.8 8 8.1 10.8 8.7 1.26.27 7.77-.11 14.67-.59-2.93-22.58-13.47-53.11-13.47-53.11l.03-.13c-10.52-2.23-20.9-3.94-21.83-2.57-1.8 2.9 8.6 43.9 9.8 47.7Z"/><path id="fender_front_right" class="cls-1 car-part selectable" d="m436.46 141.16 4.67-1.99c.44-1.3.91-2.7 1.41-4.15 2.38-6.89 5.43-15.08 8.39-21.05 1.89-3.81 3.75-6.72 5.37-7.8 6.6-4.4 2.3 19.6 2.2 20.8h-.48c0 .99-.04 2.02-.1 3.08l.28.02c3.7-9.6 3.9-25.2 2.3-31.3-1.56-6.06-.07-9.54-1.69-12.21 0 .01-.01.01-.01.01-.68.44-8.77.53-14.8.53v.17c1.91 9.69-2.58 33.76-6.43 49.52-.38 1.55-.75 3.01-1.11 4.37Z"/><path id="mirror_right" class="cls-1 car-part selectable" d="M435.4 76.97s1.55.08 3.06.11c.2 0 .4.01.59.01h.05c1.19.03 2.2 0 2.2-.12.02-.07.13-.59.3-1.36.57-2.71 1.79-8.51 2.1-8.74.5-.3 14.2.2 14.7.4s5 4.7 5.1 5.1c.2.4-.7 8.1-1 10.1-.3 1.99-2.59 3.39-3.69 4.09 0 .01-.01.01-.01.01-.68.44-8.77.53-14.8.53h-1.6v.07c.4 1.4-.1 2.5-1.1 2.6s-8.9 1.3-11.2 1.3-8.9-7-10.5-7.3l15.8-6.8Z"/><g id="door_front_right" class="car-part selectable"><path class="cls-1" d="M391.82 29.7c7.14 1.58 19.49 4.3 20.96 5.65 9.48 10.79 27.62 41.32 28.52 41.62 0 .12-1.01.15-2.2.12h-.05v-.39c-7.61-12.12-24.56-35.64-28.35-39.13-.61-.56-11.77-3.48-22.77-5.83l-.83-3.06c1.62.34 3.21.68 4.72 1.02Zm8.01 120.55c3.53-19.93 7.39-46.86 6.57-52.58-1.2-8.6-4.1-10.8-5-12.5l-.03-.19c8.46-.58 17.51-1.32 18.23-1.21 1.6.3 8.2 7.3 10.5 7.3s10.2-1.2 11.2-1.3 1.5-1.2 1.1-2.6v-.07h1.6v.17c1.91 9.69-2.58 33.76-6.43 49.52-.38 1.55-.75 3.01-1.11 4.37l-37.93 16.17c.42-2.21.86-4.59 1.3-7.08h0Zm18.87-44.78c.3-.3.5-3.5.1-3.8s-10.1 2.4-10.1 2.4l-.1 3.6s9.8-1.9 10.1-2.2Z"/><path id="handle_front_left" class="cls-1 car-part" d="M408.6 107.67s9.8-1.9 10.1-2.2.5-3.5.1-3.8-10.1 2.4-10.1 2.4l-.1 3.6Z"/></g><g id="wheel_back_right" class="car-part selectable"><path class="cls-1" d="M229.7 248.27c4.16-15.45 9.85-30.23 16.44-43.22 6.87-13.53 14.73-25.13 22.9-33.54l.16.16c12.2.7 25.4 5.7 30.7 8.5 9.05 4.75 14.69 14.63 16.33 27.55.09.67.17 1.33.23 2.02h0c1.27 13.71-1.77 30.56-9.76 48.23-15.8 29.2-28.5 37.8-43.1 38.9-12.3.1-38.6-18.3-41.7-25.6-2.6-5.7-4.2-11.7-4.8-17.7l-.07-.19c5.99-2.31 10.47-4.12 12.67-5.11Zm41.76 26.58c8.54 3.14 21.32-10.29 28.55-29.99 7.23-19.69 6.17-38.2-2.37-41.34-8.54-3.13-21.32 10.29-28.55 29.99s-6.17 38.21 2.37 41.34Z"/><path class="cls-1" d="M271.46 274.85c8.54 3.14 21.32-10.29 28.55-29.99 7.23-19.69 6.17-38.2-2.37-41.34-8.54-3.13-21.32 10.29-28.55 29.99s-6.17 38.21 2.37 41.34Z"/></g><g id="wheel_front_right" class="car-part selectable"><path class="cls-1" d="M433.76 150.76c2.71-1.48 4.3-2.4 4.44-2.59.29-.84 1.38-4.34 2.93-9 .44-1.3.91-2.7 1.41-4.15 2.38-6.89 5.43-15.08 8.39-21.05 5.23-.03 7.1 5.42 7.09 12.99 0 1-.04 2.03-.1 3.09-.33 5.61-1.48 12.03-2.92 18.12-3.1 13.9-7.7 22.6-13.6 24-7.2 0-21-1.7-26.1-11.2l-.18-.35c8.02-4.18 14.59-7.65 18.64-9.86Zm10.5 13.44c1.72.44 5.22-7.43 7.81-17.57 2.6-10.15 3.3-18.73 1.58-19.17s-5.22 7.42-7.81 17.57c-2.6 10.15-3.3 18.73-1.58 19.17h0Z"/><path class="cls-1" d="M444.26 164.2c1.72.44 5.22-7.43 7.81-17.57 2.6-10.15 3.3-18.73 1.58-19.17s-5.22 7.42-7.81 17.57c-2.6 10.15-3.3 18.73-1.58 19.17h0Z"/></g><path id="fender_back_right" class="cls-1 car-part selectable" d="M112.67 214.49c1.51 9.41 3.22 16.9 4.93 21.18l-.03.05c.21.12.42.23.63.35 6.4 2.1 27 4.3 28.9 4.3.02.1.02.2 0 .31v36.5c24.09-6.84 53.04-17.28 69.93-23.8 5.99-2.31 10.47-4.12 12.67-5.11 4.16-15.45 9.85-30.23 16.44-43.22 6.87-13.53 14.73-25.13 22.9-33.54 3.58-3.7 7.22-6.78 10.86-9.14 18.46-11.94 40.42-12.1 45.99 14.25l.21 1.05c2.5 13-3.7 27.5-9.5 30l-.37.05c.09.67.17 1.33.23 2.02l.74-.07c5.93-2.44 23.9-11.3 44.24-21.56l1.37-15.56.82-9.39 4-45.63c.48-8.54-.2-17.11-2.03-25.47l-1.9-8.69s-225.5 20.4-240.6 21.3c-2.27-.1-5.71-.39-10.02-.83-3.07 10.06-4.59 23.96-5.01 39.04 27.87 4.28 50.84-2.41 57.43-3.01 8-.7 9.6 2.7 10 7.6.7 7.5-1 13.8-6.3 18.8-6.6 6.2-8.8 15.9-7.8 24.4 1 8.6 2.4 18.1-3.9 21.5-16.8 6.4-44.7 2.3-44.7 2.3l-.13.02h0Z"/><path id="roof" class="cls-1 car-part selectable" d="M236.8 25.67c26.4-7.8 102.6-9.1 109.3-8.9 1.04.03 2.91.15 5.4.36h0c13.61 1.17 45.41 5.25 56.99 14.04 1.27.96 2.72 2.4 4.28 4.18-1.47-1.35-13.82-4.07-20.96-5.65a334.449 334.449 0 0 0-5.58-1.2c-.72-.15-1.45-.29-2.18-.44-.64-.12-1.28-.25-1.92-.37-.42-.08-.84-.16-1.25-.24-.38-.07-.76-.14-1.13-.2-1.96-.36-3.84-.66-5.56-.89-.41-.06-.82-.11-1.21-.16l-.46-.06c-.38-.04-.74-.08-1.09-.11-.13-.01-.26-.03-.38-.04-.41-.04-.8-.07-1.18-.09l-.63-.03c-.33 0-.63-.02-.92-.02-10.1 0-13.13 3.78-13.13 3.78l-12.6-.76c-9-3.9-110.5 2.5-112.1 5l-1.56-.2c2.22-5.2 4.78-7.22 7.86-8h0Z"/><path id="windshield_back" class="cls-1 car-part selectable" d="m216.19 74.01 136.72 8.68s-5.24-49.24-10.31-53.82c-9-3.9-110.5 2.5-112.1 5-1.6 2.6-14.3 40-14.3 40v.14h-.01Z"/><path class="cls-1 background" d="m6.03 82 .07.07c.56 1.98 6.21 4.22 14.78 6.51 5.54 1.47 12.32 2.97 19.73 4.42 24.22 4.75 55.23 9.05 72.47 10.84 4.31.44 7.75.73 10.02.83 15.1-.9 240.6-21.3 240.6-21.3l-10.79-.68-136.72-8.68-2.19-.14v-.1c-9 .2-203.1 5.3-207.6 7.9-.13.09-.25.2-.37.33Z"/><path class="cls-1 background" d="M342.6 28.87c5.07 4.58 10.31 53.82 10.31 53.82l10.79.68-5.01-31.65-3.49-22.09-12.6-.76ZM269.04 171.51l.16.16c12.2.7 25.4 5.7 30.7 8.5 9.05 4.75 14.69 14.63 16.33 27.55l.37-.05c5.8-2.5 12-17 9.5-30l-.21-1.05c-5.57-26.35-27.53-26.19-45.99-14.25-3.64 2.36-7.28 5.44-10.86 9.14h0ZM214 73.77v.1l2.19.14v-.14s12.71-37.4 14.31-40l-1.56-.2c-6.08 14.17-12.92 36.42-14.94 40.1ZM450.93 113.97c5.23-.03 7.1 5.42 7.09 12.99h.48c.1-1.19 4.4-25.19-2.2-20.79-1.62 1.08-3.48 3.99-5.37 7.8h0Z"/><g id="door_back_right" class="car-part selectable"><path class="cls-1" d="m363.7 83.37-5.01-31.65-3.49-22.09s3.03-3.78 13.13-3.78c.29 0 .59.01.92.02l.63.03c.38.02.77.05 1.18.09.12 0 .25.03.38.04.35.03.71.07 1.09.11l.46.06c.39.05.8.1 1.21.16 1.72.23 3.6.53 5.56.89.37.06.75.13 1.13.2.41.08.83.16 1.25.24.64.12 1.28.25 1.92.37.73.15 1.46.29 2.18.44.29.06.58.12.86.18l.83 3.06c-10.52-2.23-20.9-3.94-21.83-2.57-1.8 2.9 8.6 43.9 9.8 47.7 1.2 3.8 8 8.1 10.8 8.7 1.26.27 7.77-.11 14.67-.59l.03.19c.9 1.7 3.8 3.9 5 12.5.82 5.72-3.04 32.65-6.57 52.58-.44 2.49-.88 4.87-1.3 7.08l-32.52 13.86-3.2 1.36.82-9.39 4-45.63c.48-8.54-.2-17.11-2.03-25.47l-1.9-8.69h0Zm18.07 29.86c.3-.3.5-3.5.1-3.8s-10.1 2.4-10.1 2.4l-.1 3.6s9.8-1.9 10.1-2.2Z"/><path id="handle_back_left" class="cls-1 car-part" d="M371.67 115.43s9.8-1.9 10.1-2.2c.3-.3.5-3.5.1-3.8s-10.1 2.4-10.1 2.4l-.1 3.6Z"/></g><path id="rocker_panel_right" class="cls-1 car-part selectable" d="M361.44 188.11c1.05-.52 2.11-1.06 3.17-1.6 10.27-5.19 21.01-10.66 31.01-15.8 7-3.6 13.64-7.03 19.5-10.09 8.02-4.18 14.59-7.65 18.64-9.86 2.71-1.48 4.3-2.4 4.44-2.59.29-.84 1.38-4.34 2.93-9l-4.67 1.99-37.93 16.17-32.52 13.86-3.2 1.36-1.37 15.56Z"/><g id="damage-pill_tail_light_right"><circle class="cls-6 damage-pill-background" cx="136.48" cy="177.77" r="19.13"/><circle class="cls-3 severity-low" cx="136.48" cy="177.77" r="9.1"/><circle class="cls-5 severity-high" cx="136.48" cy="177.77" r="9.1"/><circle class="cls-8 severity-none" cx="136.48" cy="177.77" r="9.1"/><g class="severity-medium"><circle class="cls-2 severity-medium severity-medium" cx="136.48" cy="177.77" r="9.1"/><path class="cls-4 severity-medium" d="M136.48 168.67v18.1c-5 0-9.1-4.1-9.1-9.1s4.1-9 9.1-9Z"/></g></g><g id="damage-pill-pricing_tail_light_right"><path class="cls-6 damage-pill-background" d="M191.47 196.9h-54.98c-10.56 0-19.13-8.58-19.13-19.13 0-10.56 8.58-19.13 19.13-19.13h54.98c10.56 0 19.13 8.58 19.13 19.13 0 10.56-8.58 19.13-19.13 19.13Z"/><text class="cls-7 damage-pill-text" transform="translate(158.57 182.05)">9999€</text><circle class="cls-3 severity-low" cx="136.48" cy="177.77" r="9.1"/><circle class="cls-5 severity-high" cx="136.48" cy="177.77" r="9.1"/><circle class="cls-8 severity-none" cx="136.48" cy="177.77" r="9.1"/><g class="severity-medium"><circle class="cls-2 severity-medium severity-medium" cx="136.48" cy="177.77" r="9.1"/><path class="cls-4 severity-medium" d="M136.48 168.67v18.1c-5 0-9.1-4.1-9.1-9.1s4.1-9 9.1-9Z"/></g></g><g id="damage-pill_bumper_back"><circle class="cls-6 damage-pill-background" cx="80.66" cy="239.18" r="19.13"/><circle class="cls-3 severity-low" cx="80.66" cy="239.18" r="9.1"/><circle class="cls-5 severity-high" cx="80.66" cy="239.18" r="9.1"/><circle class="cls-8 severity-none" cx="80.66" cy="239.18" r="9.1"/><g class="severity-medium"><circle class="cls-2 severity-medium severity-medium" cx="80.66" cy="239.18" r="9.1"/><path class="cls-4 severity-medium" d="M80.66 230.08v18.1c-5 0-9.1-4.1-9.1-9.1s4.1-9 9.1-9Z"/></g></g><g id="damage-pill-pricing_bumper_back"><path class="cls-6 damage-pill-background" d="M135.65 258.32H80.67c-10.56 0-19.13-8.58-19.13-19.13 0-10.56 8.58-19.13 19.13-19.13h54.98c10.56 0 19.13 8.58 19.13 19.13 0 10.56-8.58 19.13-19.13 19.13Z"/><text class="cls-7 damage-pill-text" transform="translate(102.75 243.47)">9999€</text><circle class="cls-3 severity-low" cx="80.66" cy="239.18" r="9.1"/><circle class="cls-5 severity-high" cx="80.66" cy="239.18" r="9.1"/><circle class="cls-8 severity-none" cx="80.66" cy="239.18" r="9.1"/><g class="severity-medium"><circle class="cls-2 severity-medium severity-medium" cx="80.66" cy="239.18" r="9.1"/><path class="cls-4 severity-medium" d="M80.66 230.08v18.1c-5 0-9.1-4.1-9.1-9.1s4.1-9 9.1-9Z"/></g></g><g id="damage-pill_license_plate_back"><circle class="cls-6 damage-pill-background" cx="54.67" cy="200.42" r="19.13"/><circle class="cls-3 severity-low" cx="54.67" cy="200.42" r="9.1"/><circle class="cls-5 severity-high" cx="54.67" cy="200.42" r="9.1"/><circle class="cls-8 severity-none" cx="54.67" cy="200.42" r="9.1"/><g class="severity-medium"><circle class="cls-2 severity-medium severity-medium" cx="54.67" cy="200.42" r="9.1"/><path class="cls-4 severity-medium" d="M54.67 191.32v18.1c-5 0-9.1-4.1-9.1-9.1s4.1-9 9.1-9Z"/></g></g><g id="damage-pill-pricing_license_plate_back"><path class="cls-6 damage-pill-background" d="M109.65 219.55H54.67c-10.56 0-19.13-8.58-19.13-19.13 0-10.56 8.58-19.13 19.13-19.13h54.98c10.56 0 19.13 8.58 19.13 19.13 0 10.56-8.58 19.13-19.13 19.13Z"/><text class="cls-7 damage-pill-text" transform="translate(76.76 204.7)">9999€</text><circle class="cls-3 severity-low" cx="54.67" cy="200.42" r="9.1"/><circle class="cls-5 severity-high" cx="54.67" cy="200.42" r="9.1"/><circle class="cls-8 severity-none" cx="54.67" cy="200.42" r="9.1"/><g class="severity-medium"><circle class="cls-2 severity-medium severity-medium" cx="54.67" cy="200.42" r="9.1"/><path class="cls-4 severity-medium" d="M54.67 191.32v18.1c-5 0-9.1-4.1-9.1-9.1s4.1-9 9.1-9Z"/></g></g><g id="damage-pill_wheel_front_right"><circle class="cls-6 damage-pill-background" cx="446.52" cy="143.07" r="19.13"/><circle class="cls-3 severity-low" cx="446.52" cy="143.07" r="9.1"/><circle class="cls-5 severity-high" cx="446.52" cy="143.07" r="9.1"/><circle class="cls-8 severity-none" cx="446.52" cy="143.07" r="9.1"/><g class="severity-medium"><circle class="cls-2 severity-medium severity-medium" cx="446.52" cy="143.07" r="9.1"/><path class="cls-4 severity-medium" d="M446.52 133.97v18.1c-5 0-9.1-4.1-9.1-9.1s4.1-9 9.1-9Z"/></g></g><g id="damage-pill-pricing_wheel_front_right"><path class="cls-6 damage-pill-background" d="M501.5 162.2h-54.98c-10.56 0-19.13-8.58-19.13-19.13 0-10.56 8.58-19.13 19.13-19.13h54.98c10.56 0 19.13 8.58 19.13 19.13 0 10.56-8.58 19.13-19.13 19.13Z"/><text class="cls-7 damage-pill-text" transform="translate(468.6 147.35)">9999€</text><circle class="cls-3 severity-low" cx="446.52" cy="143.07" r="9.1"/><circle class="cls-5 severity-high" cx="446.52" cy="143.07" r="9.1"/><circle class="cls-8 severity-none" cx="446.52" cy="143.07" r="9.1"/><g class="severity-medium"><circle class="cls-2 severity-medium severity-medium" cx="446.52" cy="143.07" r="9.1"/><path class="cls-4 severity-medium" d="M446.52 133.97v18.1c-5 0-9.1-4.1-9.1-9.1s4.1-9 9.1-9Z"/></g></g><g id="damage-pill_fender_front_right"><circle class="cls-6 damage-pill-background" cx="452.99" cy="101.64" r="19.13"/><circle class="cls-3 severity-low" cx="452.99" cy="101.64" r="9.1"/><circle class="cls-5 severity-high" cx="452.99" cy="101.64" r="9.1"/><circle class="cls-8 severity-none" cx="452.99" cy="101.64" r="9.1"/><g class="severity-medium"><circle class="cls-2 severity-medium severity-medium" cx="452.99" cy="101.64" r="9.1"/><path class="cls-4 severity-medium" d="M452.99 92.54v18.1c-5 0-9.1-4.1-9.1-9.1s4.1-9 9.1-9Z"/></g></g><g id="damage-pill-pricing_fender_front_right"><path class="cls-6 damage-pill-background" d="M507.97 120.78h-54.98c-10.56 0-19.13-8.58-19.13-19.13 0-10.56 8.58-19.13 19.13-19.13h54.98c10.56 0 19.13 8.58 19.13 19.13 0 10.56-8.58 19.13-19.13 19.13Z"/><text class="cls-7 damage-pill-text" transform="translate(475.07 105.93)">9999€</text><circle class="cls-3 severity-low" cx="452.99" cy="101.64" r="9.1"/><circle class="cls-5 severity-high" cx="452.99" cy="101.64" r="9.1"/><circle class="cls-8 severity-none" cx="452.99" cy="101.64" r="9.1"/><g class="severity-medium"><circle class="cls-2 severity-medium severity-medium" cx="452.99" cy="101.64" r="9.1"/><path class="cls-4 severity-medium" d="M452.99 92.54v18.1c-5 0-9.1-4.1-9.1-9.1s4.1-9 9.1-9Z"/></g></g><g id="damage-pill_window_front_right"><circle class="cls-6 damage-pill-background" cx="413.29" cy="59.89" r="19.13"/><circle class="cls-3 severity-low" cx="413.29" cy="59.89" r="9.1"/><circle class="cls-5 severity-high" cx="413.29" cy="59.89" r="9.1"/><circle class="cls-8 severity-none" cx="413.29" cy="59.89" r="9.1"/><g class="severity-medium"><circle class="cls-2 severity-medium severity-medium" cx="413.29" cy="59.89" r="9.1"/><path class="cls-4 severity-medium" d="M413.29 50.79v18.1c-5 0-9.1-4.1-9.1-9.1s4.1-9 9.1-9Z"/></g></g><g id="damage-pill-pricing_window_front_right"><path class="cls-6 damage-pill-background" d="M468.27 79.02h-54.98c-10.56 0-19.13-8.58-19.13-19.13 0-10.56 8.58-19.13 19.13-19.13h54.98c10.56 0 19.13 8.58 19.13 19.13 0 10.56-8.58 19.13-19.13 19.13Z"/><text class="cls-7 damage-pill-text" transform="translate(435.37 64.17)">9999€</text><circle class="cls-3 severity-low" cx="413.29" cy="59.89" r="9.1"/><circle class="cls-5 severity-high" cx="413.29" cy="59.89" r="9.1"/><circle class="cls-8 severity-none" cx="413.29" cy="59.89" r="9.1"/><g class="severity-medium"><circle class="cls-2 severity-medium severity-medium" cx="413.29" cy="59.89" r="9.1"/><path class="cls-4 severity-medium" d="M413.29 50.79v18.1c-5 0-9.1-4.1-9.1-9.1s4.1-9 9.1-9Z"/></g></g><g id="damage-pill_window_back_right"><circle class="cls-6 damage-pill-background" cx="382.64" cy="56.16" r="19.13"/><circle class="cls-3 severity-low" cx="382.64" cy="56.16" r="9.1"/><circle class="cls-5 severity-high" cx="382.64" cy="56.16" r="9.1"/><circle class="cls-8 severity-none" cx="382.64" cy="56.16" r="9.1"/><g class="severity-medium"><circle class="cls-2 severity-medium severity-medium" cx="382.64" cy="56.16" r="9.1"/><path class="cls-4 severity-medium" d="M382.64 47.06v18.1c-5 0-9.1-4.1-9.1-9.1s4.1-9 9.1-9Z"/></g></g><g id="damage-pill-pricing_window_back_right"><path class="cls-6 damage-pill-background" d="M437.62 75.3h-54.98c-10.56 0-19.13-8.58-19.13-19.13 0-10.56 8.58-19.13 19.13-19.13h54.98c10.56 0 19.13 8.58 19.13 19.13 0 10.56-8.58 19.13-19.13 19.13Z"/><text class="cls-7 damage-pill-text" transform="translate(404.73 60.45)">9999€</text><circle class="cls-3 severity-low" cx="382.64" cy="56.16" r="9.1"/><circle class="cls-5 severity-high" cx="382.64" cy="56.16" r="9.1"/><circle class="cls-8 severity-none" cx="382.64" cy="56.16" r="9.1"/><g class="severity-medium"><circle class="cls-2 severity-medium severity-medium" cx="382.64" cy="56.16" r="9.1"/><path class="cls-4 severity-medium" d="M382.64 47.06v18.1c-5 0-9.1-4.1-9.1-9.1s4.1-9 9.1-9Z"/></g></g><g id="damage-pill_mirror_right"><circle class="cls-6 damage-pill-background" cx="451.08" cy="79.64" r="19.13"/><circle class="cls-3 severity-low" cx="451.08" cy="79.64" r="9.1"/><circle class="cls-5 severity-high" cx="451.08" cy="79.64" r="9.1"/><circle class="cls-8 severity-none" cx="451.08" cy="79.64" r="9.1"/><g class="severity-medium"><circle class="cls-2 severity-medium severity-medium" cx="451.08" cy="79.64" r="9.1"/><path class="cls-4 severity-medium" d="M451.08 70.54v18.1c-5 0-9.1-4.1-9.1-9.1s4.1-9 9.1-9Z"/></g></g><g id="damage-pill-pricing_mirror_right"><path class="cls-6 damage-pill-background" d="M506.06 98.77h-54.98c-10.56 0-19.13-8.58-19.13-19.13 0-10.56 8.58-19.13 19.13-19.13h54.98c10.56 0 19.13 8.58 19.13 19.13 0 10.56-8.58 19.13-19.13 19.13Z"/><text class="cls-7 damage-pill-text" transform="translate(473.16 83.93)">9999€</text><circle class="cls-3 severity-low" cx="451.08" cy="79.64" r="9.1"/><circle class="cls-5 severity-high" cx="451.08" cy="79.64" r="9.1"/><circle class="cls-8 severity-none" cx="451.08" cy="79.64" r="9.1"/><g class="severity-medium"><circle class="cls-2 severity-medium severity-medium" cx="451.08" cy="79.64" r="9.1"/><path class="cls-4 severity-medium" d="M451.08 70.54v18.1c-5 0-9.1-4.1-9.1-9.1s4.1-9 9.1-9Z"/></g></g><g id="damage-pill_door_front_right"><circle class="cls-6 damage-pill-background" cx="423.59" cy="116.56" r="19.13"/><circle class="cls-3 severity-low" cx="423.59" cy="116.56" r="9.1"/><circle class="cls-5 severity-high" cx="423.59" cy="116.56" r="9.1"/><circle class="cls-8 severity-none" cx="423.59" cy="116.56" r="9.1"/><g class="severity-medium"><circle class="cls-2 severity-medium severity-medium" cx="423.59" cy="116.56" r="9.1"/><path class="cls-4 severity-medium" d="M423.59 107.46v18.1c-5 0-9.1-4.1-9.1-9.1s4.1-9 9.1-9Z"/></g></g><g id="damage-pill-pricing_door_front_right"><path class="cls-6 damage-pill-background" d="M478.57 135.7h-54.98c-10.56 0-19.13-8.58-19.13-19.13 0-10.56 8.58-19.13 19.13-19.13h54.98c10.56 0 19.13 8.58 19.13 19.13 0 10.56-8.58 19.13-19.13 19.13Z"/><text class="cls-7 damage-pill-text" transform="translate(445.67 120.85)">9999€</text><circle class="cls-3 severity-low" cx="423.59" cy="116.56" r="9.1"/><circle class="cls-5 severity-high" cx="423.59" cy="116.56" r="9.1"/><circle class="cls-8 severity-none" cx="423.59" cy="116.56" r="9.1"/><g class="severity-medium"><circle class="cls-2 severity-medium severity-medium" cx="423.59" cy="116.56" r="9.1"/><path class="cls-4 severity-medium" d="M423.59 107.46v18.1c-5 0-9.1-4.1-9.1-9.1s4.1-9 9.1-9Z"/></g></g><g id="damage-pill_door_back_right"><circle class="cls-6 damage-pill-background" cx="385.43" cy="116.86" r="19.13"/><circle class="cls-3 severity-low" cx="385.43" cy="116.86" r="9.1"/><circle class="cls-5 severity-high" cx="385.43" cy="116.86" r="9.1"/><circle class="cls-8 severity-none" cx="385.43" cy="116.86" r="9.1"/><g class="severity-medium"><circle class="cls-2 severity-medium severity-medium" cx="385.43" cy="116.86" r="9.1"/><path class="cls-4 severity-medium" d="M385.43 107.76v18.1c-5 0-9.1-4.1-9.1-9.1s4.1-9 9.1-9Z"/></g></g><g id="damage-pill-pricing_door_back_right"><path class="cls-6 damage-pill-background" d="M440.41 135.99h-54.98c-10.56 0-19.13-8.58-19.13-19.13 0-10.56 8.58-19.13 19.13-19.13h54.98c10.56 0 19.13 8.58 19.13 19.13 0 10.56-8.58 19.13-19.13 19.13Z"/><text class="cls-7 damage-pill-text" transform="translate(407.51 121.14)">9999€</text><circle class="cls-3 severity-low" cx="385.43" cy="116.86" r="9.1"/><circle class="cls-5 severity-high" cx="385.43" cy="116.86" r="9.1"/><circle class="cls-8 severity-none" cx="385.43" cy="116.86" r="9.1"/><g class="severity-medium"><circle class="cls-2 severity-medium severity-medium" cx="385.43" cy="116.86" r="9.1"/><path class="cls-4 severity-medium" d="M385.43 107.76v18.1c-5 0-9.1-4.1-9.1-9.1s4.1-9 9.1-9Z"/></g></g><g id="damage-pill_rocker_panel_right"><circle class="cls-6 damage-pill-background" cx="402.47" cy="161.19" r="19.13"/><circle class="cls-3 severity-low" cx="402.47" cy="161.19" r="9.1"/><circle class="cls-5 severity-high" cx="402.47" cy="161.19" r="9.1"/><circle class="cls-8 severity-none" cx="402.47" cy="161.19" r="9.1"/><g class="severity-medium"><circle class="cls-2 severity-medium severity-medium" cx="402.47" cy="161.19" r="9.1"/><path class="cls-4 severity-medium" d="M402.47 152.09v18.1c-5 0-9.1-4.1-9.1-9.1s4.1-9 9.1-9Z"/></g></g><g id="damage-pill-pricing_rocker_panel_right"><path class="cls-6 damage-pill-background" d="M457.45 180.33h-54.98c-10.56 0-19.13-8.58-19.13-19.13 0-10.56 8.58-19.13 19.13-19.13h54.98c10.56 0 19.13 8.58 19.13 19.13 0 10.56-8.58 19.13-19.13 19.13Z"/><text class="cls-7 damage-pill-text" transform="translate(424.55 165.48)">9999€</text><circle class="cls-3 severity-low" cx="402.47" cy="161.19" r="9.1"/><circle class="cls-5 severity-high" cx="402.47" cy="161.19" r="9.1"/><circle class="cls-8 severity-none" cx="402.47" cy="161.19" r="9.1"/><g class="severity-medium"><circle class="cls-2 severity-medium severity-medium" cx="402.47" cy="161.19" r="9.1"/><path class="cls-4 severity-medium" d="M402.47 152.09v18.1c-5 0-9.1-4.1-9.1-9.1s4.1-9 9.1-9Z"/></g></g><g id="damage-pill_windshield_back"><circle class="cls-6 damage-pill-background" cx="297.42" cy="52.89" r="19.13"/><circle class="cls-3 severity-low" cx="297.42" cy="52.89" r="9.1"/><circle class="cls-5 severity-high" cx="297.42" cy="52.89" r="9.1"/><circle class="cls-8 severity-none" cx="297.42" cy="52.89" r="9.1"/><g class="severity-medium"><circle class="cls-2 severity-medium severity-medium" cx="297.42" cy="52.89" r="9.1"/><path class="cls-4 severity-medium" d="M297.42 43.79v18.1c-5 0-9.1-4.1-9.1-9.1s4.1-9 9.1-9Z"/></g></g><g id="damage-pill-pricing_windshield_back"><path class="cls-6 damage-pill-background" d="M352.41 72.02h-54.98c-10.56 0-19.13-8.58-19.13-19.13 0-10.56 8.58-19.13 19.13-19.13h54.98c10.56 0 19.13 8.58 19.13 19.13 0 10.56-8.58 19.13-19.13 19.13Z"/><text class="cls-7 damage-pill-text" transform="translate(319.51 57.17)">9999€</text><circle class="cls-3 severity-low" cx="297.42" cy="52.89" r="9.1"/><circle class="cls-5 severity-high" cx="297.42" cy="52.89" r="9.1"/><circle class="cls-8 severity-none" cx="297.42" cy="52.89" r="9.1"/><g class="severity-medium"><circle class="cls-2 severity-medium severity-medium" cx="297.42" cy="52.89" r="9.1"/><path class="cls-4 severity-medium" d="M297.42 43.79v18.1c-5 0-9.1-4.1-9.1-9.1s4.1-9 9.1-9Z"/></g></g><g id="damage-pill_roof"><circle class="cls-6 damage-pill-background" cx="332.3" cy="20.13" r="19.13"/><circle class="cls-3 severity-low" cx="332.3" cy="20.13" r="9.1"/><circle class="cls-5 severity-high" cx="332.3" cy="20.13" r="9.1"/><circle class="cls-8 severity-none" cx="332.3" cy="20.13" r="9.1"/><g class="severity-medium"><circle class="cls-2 severity-medium severity-medium" cx="332.3" cy="20.13" r="9.1"/><path class="cls-4 severity-medium" d="M332.3 11.03v18.1c-5 0-9.1-4.1-9.1-9.1s4.1-9 9.1-9Z"/></g></g><g id="damage-pill-pricing_roof"><path class="cls-6 damage-pill-background" d="M387.28 39.27H332.3c-10.56 0-19.13-8.58-19.13-19.13 0-10.56 8.58-19.13 19.13-19.13h54.98c10.56 0 19.13 8.58 19.13 19.13 0 10.56-8.58 19.13-19.13 19.13Z"/><text class="cls-7 damage-pill-text" transform="translate(354.39 24.42)">9999€</text><circle class="cls-3 severity-low" cx="332.3" cy="20.13" r="9.1"/><circle class="cls-5 severity-high" cx="332.3" cy="20.13" r="9.1"/><circle class="cls-8 severity-none" cx="332.3" cy="20.13" r="9.1"/><g class="severity-medium"><circle class="cls-2 severity-medium severity-medium" cx="332.3" cy="20.13" r="9.1"/><path class="cls-4 severity-medium" d="M332.3 11.03v18.1c-5 0-9.1-4.1-9.1-9.1s4.1-9 9.1-9Z"/></g></g><g id="damage-pill_fender_back_right"><circle class="cls-6 damage-pill-background" cx="265.42" cy="132.99" r="19.13"/><circle class="cls-3 severity-low" cx="265.42" cy="132.99" r="9.1"/><circle class="cls-5 severity-high" cx="265.42" cy="132.99" r="9.1"/><circle class="cls-8 severity-none" cx="265.42" cy="132.99" r="9.1"/><g class="severity-medium"><circle class="cls-2 severity-medium severity-medium" cx="265.42" cy="132.99" r="9.1"/><path class="cls-4 severity-medium" d="M265.42 123.89v18.1c-5 0-9.1-4.1-9.1-9.1s4.1-9 9.1-9Z"/></g></g><g id="damage-pill-pricing_fender_back_right"><path class="cls-6 damage-pill-background" d="M320.4 152.13h-54.98c-10.56 0-19.13-8.58-19.13-19.13 0-10.56 8.58-19.13 19.13-19.13h54.98c10.56 0 19.13 8.58 19.13 19.13 0 10.56-8.58 19.13-19.13 19.13Z"/><text class="cls-7 damage-pill-text" transform="translate(287.5 137.28)">9999€</text><circle class="cls-3 severity-low" cx="265.42" cy="132.99" r="9.1"/><circle class="cls-5 severity-high" cx="265.42" cy="132.99" r="9.1"/><circle class="cls-8 severity-none" cx="265.42" cy="132.99" r="9.1"/><g class="severity-medium"><circle class="cls-2 severity-medium severity-medium" cx="265.42" cy="132.99" r="9.1"/><path class="cls-4 severity-medium" d="M265.42 123.89v18.1c-5 0-9.1-4.1-9.1-9.1s4.1-9 9.1-9Z"/></g></g><g id="damage-pill_wheel_back_right"><circle class="cls-6 damage-pill-background" cx="284.68" cy="238.69" r="19.13"/><circle class="cls-3 severity-low" cx="284.68" cy="238.69" r="9.1"/><circle class="cls-5 severity-high" cx="284.68" cy="238.69" r="9.1"/><circle class="cls-8 severity-none" cx="284.68" cy="238.69" r="9.1"/><g class="severity-medium"><circle class="cls-2 severity-medium severity-medium" cx="284.68" cy="238.69" r="9.1"/><path class="cls-4 severity-medium" d="M284.68 229.59v18.1c-5 0-9.1-4.1-9.1-9.1s4.1-9 9.1-9Z"/></g></g><g id="damage-pill-pricing_wheel_back_right"><path class="cls-6 damage-pill-background" d="M339.66 257.82h-54.98c-10.56 0-19.13-8.58-19.13-19.13 0-10.56 8.58-19.13 19.13-19.13h54.98c10.56 0 19.13 8.58 19.13 19.13 0 10.56-8.58 19.13-19.13 19.13Z"/><text class="cls-7 damage-pill-text" transform="translate(306.77 242.97)">9999€</text><circle class="cls-3 severity-low" cx="284.68" cy="238.69" r="9.1"/><circle class="cls-5 severity-high" cx="284.68" cy="238.69" r="9.1"/><circle class="cls-8 severity-none" cx="284.68" cy="238.69" r="9.1"/><g class="severity-medium"><circle class="cls-2 severity-medium severity-medium" cx="284.68" cy="238.69" r="9.1"/><path class="cls-4 severity-medium" d="M284.68 229.59v18.1c-5 0-9.1-4.1-9.1-9.1s4.1-9 9.1-9Z"/></g></g><g id="damage-pill_trunk"><circle class="cls-6 damage-pill-background" cx="36.99" cy="141.78" r="19.13"/><circle class="cls-3 severity-low" cx="36.99" cy="141.78" r="9.1"/><circle class="cls-5 severity-high" cx="36.99" cy="141.78" r="9.1"/><circle class="cls-8 severity-none" cx="36.99" cy="141.78" r="9.1"/><g class="severity-medium"><circle class="cls-2 severity-medium severity-medium" cx="36.99" cy="141.78" r="9.1"/><path class="cls-4 severity-medium" d="M36.99 132.68v18.1c-5 0-9.1-4.1-9.1-9.1s4.1-9 9.1-9Z"/></g></g><g id="damage-pill-pricing_trunk"><path class="cls-6 damage-pill-background" d="M91.97 160.91H36.99c-10.56 0-19.13-8.58-19.13-19.13 0-10.56 8.58-19.13 19.13-19.13h54.98c10.56 0 19.13 8.58 19.13 19.13 0 10.56-8.58 19.13-19.13 19.13Z"/><text class="cls-7 damage-pill-text" transform="translate(59.08 146.06)">9999€</text><circle class="cls-3 severity-low" cx="36.99" cy="141.78" r="9.1"/><circle class="cls-5 severity-high" cx="36.99" cy="141.78" r="9.1"/><circle class="cls-8 severity-none" cx="36.99" cy="141.78" r="9.1"/><g class="severity-medium"><circle class="cls-2 severity-medium severity-medium" cx="36.99" cy="141.78" r="9.1"/><path class="cls-4 severity-medium" d="M36.99 132.68v18.1c-5 0-9.1-4.1-9.1-9.1s4.1-9 9.1-9Z"/></g></g></svg>
