<?xml version="1.0" encoding="UTF-8"?><svg id="Layer_1" xmlns="http://www.w3.org/2000/svg" viewBox="0 0 500 375"><defs><style>.cls-1{fill:none;stroke:#fff;stroke-linecap:round;stroke-linejoin:round;stroke-width:1px;}</style></defs><g id="wheel_front_right" class="selectable"><path class="cls-1" d="m216.5,217.6c1.6-2.7,30.2-12.3,40.7-14.2,29.1,17.7,41.5,57.2,41.5,57.2,0,0,.7.2,1.9.6.49,1.95,1.07,4.66,1.75,6.83-.17.09-.26.17-.35.17-.53.59-1.01,1.04-1.43,1.44-.76.66-1.31,1.24-1.55,2.31-.05.23-.1.47-.12.75v.13s.01.1.01.17c0,.03,0,.07.01.1.01.12.02.26.04.42-.01.01,0,.02,0,.04.01.08.02.17.03.27,0,.08.02.17.03.26,0,0,.01.01,0,.02.73,6.12,5.14,28.81,7.12,33.8,0,.01.01.01.01.01.06.16.12.31.18.43.04.07.07.13.1.19.06.11.12.2.17.26.5.6,3,1.5,6.6,2.5-11.7,15.8-32.5,26.9-39.5,28-19.1,4.4-44.7-14.7-59.6-45.7-7.34-15.26-10.84-30.76-10.68-44,.16-14.36,4.6-26.07,13.08-32Zm10.62,64.72c7.26,21.32,22.12,35.54,33.18,31.77,11.06-3.78,14.14-24.11,6.87-45.43-7.27-21.31-22.13-35.53-33.19-31.76s-14.13,24.11-6.86,45.42Z" /><path class="cls-1" d="m227.12,282.32c7.26,21.32,22.12,35.54,33.18,31.77,11.06-3.78,14.14-24.11,6.87-45.43-7.27-21.31-22.13-35.53-33.19-31.76s-14.13,24.11-6.86,45.42Z" /></g><path id="background" class="cls-1" d="m18,85.9c2.2,1.5,49.5,9.5,49.5,9.5,0,0,2.95-.2,3.97-.39.04-.17.09-.34.13-.51,1.46-5.37,2.75-10.17,2.96-10.98l-.06-.02-51.4,2.2-5.1.2Z" /><path id="background-2" class="cls-1" d="m29.4,136.39h0c.4,4.01,2,8.01,3.3,10.81v2.1h.1v-2.4c.1-3.9.8-6.8,2.1-8.2,0-.1.1-.1.2-.2.1,0,.2-.1.3-.2,2.1-1.6,5.7-2.7,8.7-3.2l.04-.02c-1.18-2.35-2.26-4.41-3.34-5.98-5.1-7.8-13.4-11-11.4,7.29Z" /><path id="hood" class="selectable cls-1" d="m215.6,118.3l2.5,10.1s1.5,3.5,7.2,5.3c21.7,4.9,104.7,31.2,112.7,37.2,1.8,1.4,9.1,13.1,9.1,13.1v.09c.11.01.18.01.2.01,14.8,0,34.3-.4,49.8-.9v-.11c12.21-.39,22.62-.79,25.5-.99.07-.13.13-.26.2-.4,0,0,3.1-6.1,6.6-7.9,3.5-1.9,42.68-12.9,53.49-27.89.01-.11.01-.21.01-.31,0-.9-.1-1.5-.2-1.9-2.8-5.3-8.2-9.7-13.8-13.4-58.5-23.9-96.5-24.5-126.7-32l-2.1.7c-10.08,5.08-77.13,14.4-120.36,14.76l-4.14,4.54Z" /><path id="pillar" class="selectable cls-1" d="m147,44.7c3.7,1.3,5.9,2.9,8.3,6.1,1.6,2.1,23.9,37.6,29.1,62.3l16.7.1c-11.4-21.7-27-53.9-36.2-67.8l-17.9-.7Z" /><path id="background-3" class="cls-1" d="m282.8,51.4c2.1,1.5,42.6,32,57.3,47.6l2.1-.7c-6.59-7.86-41.91-37.09-58.36-47.82-.11-.07-.22-.14-.32-.21l-.72,1.13Z" /><path id="head_light_right" class="selectable cls-1" d="m329.7,218c.4,3.6-.3,11.5,0,20.4,1.6,5.8,6.3,7.1,11.2,7.5,5,.5,43.2-3,43.2-3,0,0,1.5-14.9,1.5-16.8.9-8.7,2.7-19.1,2.7-19.1,0,0,1.1-5.6,1.8-9.1,1.1-4.8,4.6-9.8,7-14.7-15.5.5-35,.9-49.8.9-.02,0-.09,0-.2-.01-2.42-.14-25.09-1.81-27-2.19-10.7,1.1-7.6,12.8-5.8,15.1,1,1.3,11.4,11.7,15.4,21Z" /><g id="wheel_back_right" class="selectable"><path class="cls-1" d="m34.9,138.7c0-.1.1-.1.2-.2.1,0,.2-.1.3-.2,2.1-1.6,5.7-2.7,8.7-3.2l.04-.02s.04.08.06.12c1.66,3.24,3.43,7.02,5.16,10.88,5.37,11.97,10.34,24.72,10.34,24.72l10,5.7,6.99,4.02.31.18c.4,4-2.8,11.6-3.9,12.4-3.8,2.8-18.8,4.4-20.1,4.5-4.7.6-12-11.4-16.6-27.4-2.29-7.76-3.49-15.21-3.6-20.9v-2.4c.1-3.9.8-6.8,2.1-8.2Zm6.65,30.17c2.75,10.07,7.09,17.66,9.7,16.95,2.62-.71,2.51-9.46-.24-19.53-2.75-10.07-7.09-17.66-9.7-16.94-2.62.71-2.51,9.45.24,19.52Z" /><path class="cls-1" d="m41.55,168.87c2.75,10.07,7.09,17.66,9.7,16.95,2.62-.71,2.51-9.46-.24-19.53-2.75-10.07-7.09-17.66-9.7-16.94-2.62.71-2.51,9.45.24,19.52Z" /></g><path id="background-4" class="cls-1" d="m257.3,203.4c-4.5-2.8-9.5-5-14.9-6.5-31.65-8.69-43.12,3.44-47.03,20.05-1.89,8.05-2,17.16-1.77,25.45.6,3,1.82,4.71,2.6,5.5.26.26.48.42.6.5,2.2,1.2,5.5,1,6.6,1.2h.02c.16-14.36,4.6-26.07,13.08-32,1.6-2.7,30.2-12.3,40.7-14.2h.1Z" /><path id="roof" class="selectable cls-1" d="m88.05,44.12l5.75-.42c1.6-.7,11.5-.9,22.3-.8h.04c13.39.1,28.26.8,30.86,1.8l17.9.7c1.6-.4,45.3-1.9,79.2,0,20.1,1,37.9,5.6,38.7,6l.72-1.13c-2.86-1.85-5.12-3.11-6.52-3.57-10.6-3.5-15.2-4.3-23.8-6-42.3-8-148.1-6-156.8-2.5-5.35,1.99-6.92,3.49-8.35,5.92Z" /><path id="windshield_front" class="selectable cls-1" d="m164.9,45.4c9.2,13.9,24.8,46.1,36.2,67.8,5.38.46,11.7.63,18.64.56,43.23-.36,110.28-9.68,120.36-14.76-14.7-15.6-55.2-46.1-57.3-47.6-.8-.4-18.6-5-38.7-6-33.9-1.9-77.6-.4-79.2,0Z" /><path id="window_back_right" class="selectable cls-1" d="m79.4,93c0,1.6.9,6.3,5.5,8.4.97.41,7.48,2.07,15.5,4.01.03-5.36,7.84-42.36,13.61-57.73-7.28-.23-13.63-.28-15.91.02-4,.5-5.9,1.3-7.4,3.5-3.7,5.5-11.3,40.2-11.3,41.8Z" /><path id="window_front_right" class="selectable cls-1" d="m100.4,105.41c3.58.87,7.47,1.79,11.3,2.69h.1c-.1-1.8-.2-3.6-.2-4.3,0-1.6,8.6-8.3,10.5-8.9,1.9-.6,22.9-.9,25.4,0,2.6.9,7.5,7.9,8.3,9.3.4.7,1,3.7,1.6,6.8l4.4-.1h1.5l9.17-19.16c-.79-1.51-1.54-2.81-2.17-3.74-3.6-7.2-18.1-32.2-19.7-34.1-2-2.4-3.4-3.8-6.8-4.4-2.76-.57-17.59-1.44-29.79-1.82-5.77,15.37-13.58,52.37-13.61,57.73Z" /><path id="mirror_right" class="selectable cls-1" d="m122.1,94.9c1.9-.6,22.9-.9,25.4,0,2.6.9,7.5,7.9,8.3,9.3.4.7,1,3.7,1.6,6.8l4.4-.1h1.5l9.17-19.16c2.89,5.48,6.42,13.73,7.13,17.26.4,10.9-2.62,22.08-4.62,26.08-13.2-2.4-25.98-3.78-33.28-7.18v-.19c-1.17-.07-2.38-.14-3.6-.21-8.8-.5-17.7-1-19.1-1.3-2.6-.6-4.2-2.6-5-4.3-.33-.71-.62-1.84-.88-3.09-.62-2.95-1.02-6.51-1.02-6.51,0,0-.2-2.1-.3-4.2-.1-1.8-.2-3.6-.2-4.3,0-1.6,8.6-8.3,10.5-8.9Z" /><path id="fog_light_front_right" class="selectable cls-1" d="m347.9,301.9s2.6,3.7,6.7,5.4c10.3.9,37.4-1.5,40.7-3.6,2.1-4.7,4.2-16.9,3.8-20.7-3.3.4-37.7,3.4-48.6,3.4-1.7,2-2.6,15.5-2.6,15.5Z" /><path id="bumper_front" class="selectable cls-1" d="m329.7,238.4c1.6,5.8,6.3,7.1,11.2,7.5,5,.5,43.2-3,43.2-3l23.33-2h0v.02c0,.79,3.48,4.2,6.51,7.01,2.61,2.44,6.48,2.98,9.67,1.35.67-.34,1.34-.68,1.99-1.02,4.71-2.44,8.93-4.77,12.71-6.97.59-.34,1.16-.68,1.72-1.01,2.27-1.35,4.36-2.64,6.3-3.89.49-.31.96-.62,1.43-.93,3.55-2.33,6.55-4.49,9.09-6.48.47-.36.93-.73,1.37-1.08.04-.03.07-.06.1-.08.42-.34.83-.68,1.22-1.01.16-.14.32-.27.47-.4.47-.39.91-.78,1.33-1.16.23-.2.46-.4.68-.61,2.22-2.03,3.89-3.81,5.15-5.34.25-.31.49-.6.7-.88,2.09-2.71,2.78-4.51,3-5.36.03-.09.04-.16.06-.22.01-.04.01-.08.02-.11l.04-.03s.38-.96.57-1.91c.17-.77.39-1.77.64-2.93.26-1.16.56-2.5.88-3.95,3.08,2.2,5.03,4.55,6.19,7.02-.52,10.16-5.27,18.33-35.24,38.48-14.34,9.61-28.11,19.81-42.68,23.97-.47.13-.94.26-1.41.38l-1.46.35c-23.85,5.32-45.89,4.67-59.49,3.51-18.6-1.52-29.96-6.81-35.04-9.16-.71-.18-1.24-.33-1.52-.44h0c-.68-2.18-1.35-4.87-1.74-6.82-1.2-.4-1.9-.6-1.9-.6,0,0-3.14-10.01-9.97-22.2h40.87Zm-30.68,33.55c.25-1.01.79-1.58,1.55-2.31.42-.36.9-.74,1.43-1.24.1-.1.2-.1.4-.2-.02-.06-.03-.11-.05-.17.02-.01.03-.02.05-.03.01,0,.02.01.04.01h0c.02.07.04.13.06.19,4,1.7,15.8,8.1,36.7,9.7,13.57,1.09,35.54,1.62,59.29-3.79l1.46-.35c.47-.12.94-.25,1.41-.38,14.52-4.07,28.27-14.19,42.61-23.68,30.19-20.06,34.92-28.23,35.48-38.41v-.02c-.05-.11-.11-.23-.17-.34.01-.04.01-.07.01-.11,1.58,3.49,1.62,7.19,1.11,11.08-.8,6.8-7.67,29.21-10.9,36.03-5.51,11.63-30.12,35.93-42.39,43.69-29.38,18.59-67.62,17.39-85.31,15.38-3.98-.45-19.5-3.1-28.6-5.7-3.5-1.1-6.1-2-6.6-2.5-.05-.06-.11-.15-.17-.26-.03-.06-.06-.12-.1-.19-.06-.12-.12-.27-.18-.43h0s-.01-.01-.01-.01c-.01-.05-.03-.1-.05-.15-.08-.21-.16-.46-.24-.73-.14-.42-.28-.9-.43-1.43-.05-.18-.1-.36-.15-.55-.07-.25-.14-.51-.21-.78-.33-1.26-.68-2.73-1.05-4.33-.05-.2-.09-.4-.14-.6-.59-2.65-1.22-5.61-1.83-8.57-.04-.19-.07-.37-.11-.56-.01-.06-.02-.12-.04-.17-.04-.24-.09-.47-.14-.71-1.27-6.35-2.35-12.47-2.73-15.22.01,0,0-.02,0-.02-.01-.09-.02-.18-.03-.26-.01-.1-.02-.19-.03-.27,0-.02-.01-.03,0-.04-.02-.16-.03-.3-.04-.42-.01-.03-.01-.07-.01-.1,0-.07-.01-.12-.01-.17v-.13c.02-.28.07-.52.12-.75Zm160.26-8.32l1.81-17.68-28.36,21.45-2.57,24.04,29.13-27.8Zm-104.68,43.67c10.3.9,37.4-1.5,40.7-3.6,2.1-4.7,4.2-16.9,3.8-20.7-3.3.4-37.7,3.4-48.6,3.4-1.7,2-2.6,15.5-2.6,15.5,0,0,2.6,3.7,6.7,5.4Z" /><path id="grill_radiator" class="selectable cls-1" d="m384.1,242.9l23.33-2h0v.02c0,.79,3.48,4.2,6.51,7.01,2.61,2.44,6.48,2.98,9.67,1.35.67-.34,1.34-.68,1.99-1.02,4.71-2.44,8.93-4.77,12.71-6.97.58-.34,1.16-.68,1.72-1.01,2.27-1.35,4.36-2.64,6.3-3.89.49-.31.97-.62,1.43-.93,3.55-2.33,6.55-4.49,9.09-6.48.47-.36.93-.73,1.37-1.08.04-.03.07-.06.1-.08.42-.35.83-.68,1.22-1.01.16-.13.32-.26.47-.4.47-.39.91-.78,1.33-1.16.24-.21.46-.41.68-.61,2.22-2.03,3.89-3.81,5.15-5.34.25-.3.48-.6.7-.88,2.09-2.71,2.78-4.51,3-5.36.02-.08.04-.15.06-.22.01-.04.01-.08.02-.11.04-.15.04-.23.04-.23,0,0,.09-.52.26-1.39v-.02c-.02-.07-.04-.13-.06-.19.3-1.5.9-4.2,1.6-7.5.03.02.06.04.09.06,0-.02.01-.04.01-.06,3.36-15.92,9.85-48.16,9.99-57.49-10.81,14.99-49.99,25.99-53.49,27.89-3.5,1.8-6.6,7.9-6.6,7.9-.07.14-.13.27-.2.4-2.88.2-13.29.6-25.5.99v.11c-2.4,4.9-5.9,9.9-7,14.7-.7,3.5-1.8,9.1-1.8,9.1,0,0-1.8,10.4-2.7,19.1,0,1.9-1.5,16.8-1.5,16.8Z" /><g id="door_back_right" class="selectable"><path class="cls-1" d="m67.97,111.03c0-3.52,1.65-8.97,3.5-16.02.04-.17.09-.34.13-.51,1.46-5.37,2.75-10.17,2.96-10.98.03-.08.04-.12.04-.12,0,0,10.1-33.3,13-38.5.15-.27.3-.53.45-.78l5.75-.42c1.6-.7,11.5-.9,22.3-.8h.04c-.66,1.15-1.37,2.78-2.13,4.78-7.28-.23-13.63-.28-15.91.02-4,.5-5.9,1.3-7.4,3.5-3.7,5.5-11.3,40.2-11.3,41.8s.9,6.3,5.5,8.4c.97.41,7.48,2.07,15.5,4.01v.19s-2.9,5.3-4.3,14.5v.61c0,.28,0,.57.01.86h0c.02,2.06.08,4.17.21,6.32.03.53.06,1.06.09,1.59.03.53.07,1.07.11,1.61.04.53.08,1.07.12,1.61.08,1.08.18,2.16.28,3.25.09.89.18,1.78.27,2.67.03.3.06.61.1.91.03.32.07.63.11.95.05.44.1.88.15,1.32.06.51.12,1.01.18,1.51.14,1.08.28,2.15.42,3.21.17,1.25.35,2.49.53,3.71.19,1.37.4,2.72.61,4.04.01.08.03.16.03.25.79,5.76,1.64,11.57,2.47,17,.48,3.12.95,6.11,1.41,8.9l-26.6-14.02-1.85-.98c-.09-1.18-.25-4.29.07-6.98-7-24.1-6.85-45.04-6.85-47.41Zm10.15,12.96l2.81.46.27-3.12-2.85-.86-6.74-2.19-.25,2.9.52.2,6.24,2.61Z" /><polygon id="handle_back_right" class="cls-1" points="71.36 121.18 71.88 121.38 78.12 123.99 80.93 124.45 81.2 121.33 78.35 120.47 71.61 118.28 71.36 121.18" /></g><path id="fender_back_right" class="selectable cls-1" d="m18,85.9c2.2,1.5,49.5,9.5,49.5,9.5,0,0,2.95-.2,3.97-.39-1.85,7.05-3.5,12.5-3.5,16.02,0,2.37-.15,23.31,6.85,47.41-.4,3.4-.04,7.47-.04,7.47l4.3,15.9-2.38-1.31v.02s-7-4.02-7-4.02l-10-5.7s-4.97-12.75-10.34-24.72c-1.73-3.86-3.5-7.64-5.16-10.88-.02-.04-.04-.08-.06-.12-1.18-2.35-2.26-4.41-3.34-5.98-5.1-7.8-13.4-11-11.4,7.29h0c.4,4.01,2,8.01,3.3,10.81v2.1l-4-3s-6.8-5.6-6.9-9.7c-.03-.68-.21-2.14-.49-4.14-.76-5.36-2.27-14.53-3.51-22.26-.02-.09-.03-.19-.04-.28-.79-4.88-1.57-9.07-1.96-11.42l-.03-.18c-.18-1-.27-1.62-.27-1.62l2.5-10.8Z" /><g id="door_front_right" class="selectable"><path class="cls-1" d="m100.4,105.6v-.19c3.58.87,7.47,1.79,11.3,2.69h.1c.1,2.1.3,4.2.3,4.2,0,0,.4,3.56,1.02,6.51.26,1.25.55,2.38.88,3.09.8,1.7,2.4,3.7,5,4.3,1.4.3,10.3.8,19.1,1.3,1.22.07,2.43.14,3.61.21v.19c7.29,3.4,20.07,4.78,33.27,7.18,2-4,5.02-15.18,4.62-26.08-.9-4.5-6.4-16.7-9.3-21-3.6-7.2-18.1-32.2-19.7-34.1-2-2.4-3.4-3.8-6.8-4.4-2.76-.57-17.59-1.44-29.79-1.82.76-2,1.47-3.63,2.13-4.78,13.39.1,28.26.8,30.86,1.8,3.7,1.3,5.9,2.9,8.3,6.1,1.6,2.1,23.9,37.6,29.1,62.3-.4,5.9-.7,6.5-1.7,12.8-.12.35-.24.7-.36,1.08-4.66,13.99-5.31,35.42-4.76,54.82v.1c-.05,9.08.09,18.19.33,26.57.11,4.04.24,7.91.39,11.52l-75.1-39.57c-.46-2.79-.93-5.78-1.41-8.9-.83-5.43-1.68-11.24-2.47-17,0-.09-.02-.17-.03-.25-.21-1.32-.42-2.67-.61-4.04-.18-1.22-.36-2.46-.53-3.71-.14-1.06-.28-2.13-.42-3.21-.06-.5-.12-1-.18-1.51-.05-.44-.1-.88-.15-1.32-.04-.32-.08-.63-.11-.95-.04-.3-.07-.61-.1-.91-.09-.89-.18-1.78-.27-2.67-.1-1.09-.2-2.17-.28-3.25-.04-.54-.08-1.08-.12-1.61-.04-.54-.08-1.08-.11-1.61-.03-.53-.06-1.06-.09-1.59-.08-1.59-.14-3.16-.17-4.69-.01-.25-.02-.5-.02-.74-.01-.29-.01-.58-.02-.88h0c-.01-.3-.01-.59-.01-.87v-.61c1.4-9.2,4.3-14.5,4.3-14.5Zm-1.7,27.1l.7.2,8.3,2.7,3.8.3h0s.1,0,.1,0v-4.1l-1.4-.8h-2.4l-6.4-2.1h-2.8l.1,3.8Z" /><polygon id="handle_front_right" class="cls-1" points="98.7 128.9 98.7 132.7 99.4 132.9 107.8 135.6 111.5 135.89 111.5 131.8 110.1 131 107.7 131 101.4 128.9 98.7 128.9" /></g><path id="rocker_panel_right" class="selectable cls-1" d="m74.75,165.42c.01.31.03.49.03.49l4.3,15.9,1.97,1.09,9.05,4.99h0s16,9.11,16,9.11l73.18,41.4,2.1,1.19h.02s13.2,7.51,13.2,7.51l1.3,1.14.3-.34c-.78-.79-2-2.5-2.6-5.5-.13-4.6-.15-9.46.17-14.25l-15.47-8.16-75.1-39.57-26.6-14.02-1.85-.98Z" /><path id="fender_front_right" class="selectable cls-1" d="m177.58,181.9c-.05,9.08.09,18.19.33,26.57.11,4.04.24,7.91.39,11.52l15.47,8.16c.27-3.83.76-7.62,1.6-11.2,3.91-16.61,15.38-28.74,47.03-20.05,5.4,1.5,10.4,3.7,14.9,6.5,14.45,8.79,24.79,22.96,31.53,35h40.87c-.3-8.9.4-16.8,0-20.4-4-9.3-14.4-19.7-15.4-21-1.8-2.3-4.9-14,5.8-15.1,1.91.38,24.58,2.05,27,2.19v-.09s-7.3-11.7-9.1-13.1c-8-6-91-32.3-112.7-37.2-5.7-1.8-7.2-5.3-7.2-5.3l-2.5-10.1,4.14-4.54c-6.94.07-13.26-.1-18.64-.56l-16.7-.1c-.4,5.9-.7,6.5-1.7,12.8-.12.35-.24.7-.36,1.08-4.66,13.99-5.31,35.42-4.76,54.82v.1Z" /><polygon id="license_plate_front" class="selectable cls-1" points="430.16 291.44 459.28 263.63 461.09 245.95 432.73 267.4 430.16 291.44" /></svg>