<?xml version="1.0" encoding="UTF-8"?><svg id="Layer_1" xmlns="http://www.w3.org/2000/svg" viewBox="0 0 500 375"><defs><style>.cls-1{fill:none;stroke:#fff;stroke-linecap:round;stroke-linejoin:round;stroke-width:1px;}</style></defs><g id="door_front_right" class="selectable"><path class="cls-1" d="m388.96,189.6c.8-2.8,14-31.4,6.8-52.4-3.8-8.8-5.23-12.56-6.1-15,4.2-1,52.78-15.68,58.18-17.18h0c1.21.04,2.56.07,3.93.1,1.01,1.39,2.6,2.9,5.49,6.08,6.5,18.5-8.96,55.52-14.09,65.48l-53.46,33.46c-.3-2.4-1.55-17.74-.75-20.54Zm15.6-42.7c1.3.6,15.3-5.7,15.8-8.2s-1.9-3.4-2.1-3.4c-.2.1-2.2.4-2.8.6l-6.8,2.8s-4.7,2.3-4.8,3.2c-.2.9-.6,4.4.7,5Z" /><path id="handle_front_right" class="cls-1" d="m404.56,146.9c1.3.6,15.3-5.7,15.8-8.2s-1.9-3.4-2.1-3.4c-.2.1-2.2.4-2.8.6l-6.8,2.8s-4.7,2.3-4.8,3.2c-.2.9-.6,4.4.7,5Z" /></g><g id="door_back_right" class="selectable"><path class="cls-1" d="m353.46,131c6.5-.7,32-7.8,36.2-8.8.87,2.44,2.3,6.2,6.1,15,7.2,21-6,49.6-6.8,52.4-.8,2.8.45,18.14.75,20.54l-55.43,38.75c-9.19-37.29-28.12-49.25-41.62-82.19-16.6-18.9-15.8-25.8-16.4-26.9,7,.5,70.7-8.1,77.2-8.8Zm-40.7,52.8c1.5-.1,9.3-2.2,10.1-2.6,1.2-.5,12.7-5.8,12.7-5.8,0,0,7.1-4,7.1-5.4s-.6-3.8-1.9-4.4c-1-.3-4.9.7-6.5,1.4-.1,0-12.7,5-12.7,5,0,0-7,3.4-7.6,3.7-.9.5-2.3,1.9-2.5,2.6-.4,1.3-.2,4.9,1.3,5.5Z" /><path id="handle_back_right" class="cls-1" d="m312.76,183.8c1.5-.1,9.3-2.2,10.1-2.6,1.2-.5,12.7-5.8,12.7-5.8,0,0,7.1-4,7.1-5.4s-.6-3.8-1.9-4.4c-1-.3-4.9.7-6.5,1.4-.1,0-12.7,5-12.7,5,0,0-7,3.4-7.6,3.7-.9.5-2.3,1.9-2.5,2.6-.4,1.3-.2,4.9,1.3,5.5Z" /></g><path id="fender_front_right" class="selectable cls-1" d="m443.17,176.68l5.89-3.48c6.71-22.61,15.48-39.39,21.25-45.68.93-1.02,1.79-1.77,2.55-2.22,3.8-2.2,4.3,1.5,4.2,5.1-.1,3.02-.6,6.39-1.33,9.83-.24,1.12-.5,2.24-.78,3.37-.77,3.1-1.68,6.18-2.61,9.03-.26.79-.52,1.55-.78,2.3-.03.09-.06.19-.1.28-.15.45-.31.89-.46,1.31,9.49-24.12,8.55-31.73,7.76-37.32.1-2.8.3-14.5-3.1-15.5-1-.4-4.38-1.54-8.38-3.14-.2.53-.41.96-.62,1.24-.6.8-2.3,2.7-4.3,3.1-1.06.21-5.96.28-10.59.22,1.01,1.39,2.6,2.9,5.49,6.08,6.5,18.5-8.96,55.52-14.09,65.48Z" /><path id="window_back_right" class="selectable cls-1" d="m252.56,114c6.4,9.4,23.1,24.7,23.7,25.8,7,.5,70.7-8.1,77.2-8.8s32-7.8,36.2-8.8c-1.7-4.2-8.09-40.64-23.46-72.12-21.01,1.77-64.07,9.52-105.54,40.22-3.28,3.32-6.28,6.29-8.26,9.28-2.92,4.4-3.65,8.82.16,14.42Z" /><path id="window_front_right" class="selectable cls-1" d="m366.2,50.08c15.37,31.48,21.76,67.92,23.46,72.12,4.2-1,52.78-15.68,58.18-17.18h0c-2.43-.09-4.33-.23-4.86-.42-1-.4-2.52-.5-2.52-.5l-1.2-5.2,2.9-1.1s.37-2.62,1.33-5.25c-5.6-6.9-12.03-16.95-25.43-27.45-2.2-1.72-4.5-3.29-6.86-4.71-12.04-7.24-25.53-10.62-33.64-10.79-2.11-.04-6.02.03-11.36.48Z" /><path id="pillar" class="selectable cls-1" d="m411.2,60.39c2.36,1.42,4.66,2.99,6.86,4.71,13.4,10.5,19.83,20.55,25.43,27.45.34-.92.75-1.85,1.24-2.66-8.14-10.24-17.71-20.66-27.55-29.16h0l-5.97-.34Z" /><path id="mirror_right" class="selectable cls-1" d="m442.16,97.8s.37-2.62,1.33-5.25c.34-.92.75-1.85,1.24-2.66.61-1.01,1.35-1.85,2.23-2.29.23-.12.47-.22.72-.32,1.22-1,3.76-.72,6.98.32,3.7,1.2,12.4,5.5,13.2,6.5.8.9.7,2,.5,2.8-.33,1.31-.7,2.66-1.08,3.66-.2.53-.41.96-.62,1.24-.6.8-2.3,2.7-4.3,3.1-1.06.21-5.96.28-10.59.22-1.37-.03-2.72-.06-3.93-.11-2.43-.08-4.33-.22-4.86-.41-1-.4-2.52-.5-2.52-.5l-1.2-5.2,2.9-1.1Z" /><path id="roof" class="selectable cls-1" d="m62.96,67.7c10-5.1,91.1,18.1,96.7,19.6,1.75.46,4.5,1.24,7.91,2.23,14.48,4.21,40.94,12.12,54.29,14.47l30.54-4.42c1.98-2.99,4.98-5.96,8.26-9.28,41.47-30.7,84.53-38.45,105.54-40.22,5.34-.45,9.25-.52,11.36-.48,8.11.17,21.6,3.55,33.64,10.79l5.97.34c-.44-.39-.87-.76-1.31-1.13-10.3-8.7-18.2-12.5-34.9-16.1-15.2-3-51.6-5.8-64.7-6.3-13.3-.5-59.79-1.4-84.4-.4-31.01,1.26-77.2,8.65-99.7,13-9.1,1.76-66.5,13.7-67.9,14.3-1.4.6-1.2,2.1-1.3,3.6Z" /><path id="rocker_panel_right" class="selectable cls-1" d="m314.76,277.6s1,0,1.4-.1c.42-.1,8.73-6.12,20.91-15.05,12.69-9.31,29.58-21.79,46.09-34.05,23.18-17.22,45.61-33.99,54.59-40.9,2.07-1.6,3.43-2.67,3.91-3.1,1.1-2.5,6.67-8.62,7.4-11.2l-5.89,3.48-53.46,33.46-55.43,38.75-13.7,10.01c-1.93,7.59-4.5,13.86-5.53,16.96-.09.58-.19,1.16-.29,1.74Z" /><path id="background" class="cls-1" d="m474.26,137.2c-.07,4.56-1.42,12.61-3.84,20.8.18-.45.35-.89.52-1.32,2.76-7.64,5.84-18.24,6.12-26.28.1-3.6-.4-7.3-4.2-5.1-.76.45-1.62,1.2-2.55,2.22,2.2,1.4,4.05,3.18,3.95,9.68Z" /><path id="background-2" class="cls-1" d="m290.86,225.1c2.7,1.4,9.5,3.5,12.4,5.9,2.9,2.4,9.8,5.9,12,15.4,1.98,8.55,1.45,19.12-.21,29.46,1.03-3.1,3.6-9.37,5.53-16.96,1.61-6.37,2.77-13.68,2.18-20.8-2.2-9.3-7.3-15-15.3-16.6-4.95-.42-10.67.98-16.6,3.6Z" /><path id="fender_back_right" class="selectable cls-1" d="m243.86,183.3c-2.6,10.3-38.8,45.1-41.5,46.7l45.41,34.03c.88-1.39,1.75-2.74,2.59-4.03,8.37-13.06,25.13-28.11,40.5-34.9,5.93-2.62,11.65-4.02,16.6-3.6,8,1.6,13.1,7.3,15.3,16.6.59,7.12-.57,14.43-2.18,20.8l13.7-10.01c-9.19-37.29-28.12-49.25-41.62-82.19-16.6-18.9-15.8-25.8-16.4-26.9-.6-1.1-17.3-16.4-23.7-25.8-3.81-5.6-3.08-10.02-.16-14.42l-30.54,4.42c-5.69,9.68-33.18,45.34-49.59,50.76,0,.02-.01.03-.01.04-1.3,4.8-9.4,19.1-17.6,23.9,10.7.4,62.7-7,67.4-6.5,4.7.5,18,5.9,21.8,11.1Z" /><path id="tail_light_right" class="selectable cls-1" d="m91.06,181.5c3.7-.7,52.9-3.2,63.6-2.8s62.7-7,67.4-6.5c4.7.5,18,5.9,21.8,11.1-2.6,10.3-38.8,45.1-41.5,46.7-2.7,1.6-6,1.8-16.3,2.7-10.3.9-31.6-3.2-34.9-4.3-3.1-1-19.9-11.1-19.9-11.1l-39.4-12.6c-1.9-1.7-9.4-14.2-9.9-16.7.3-2,5.4-5.8,9.1-6.5Z" /><path id="tail_light_left" class="selectable cls-1" d="m20.96,145.2c-.06,1.01.37,2.63,1.1,4.59-.19-8.8,12.1-24.39,14.2-26.59-1.4.7-7.4,3-9.9,5.5s-5.1,11.6-5.4,16.5Z" /><path id="windshield_back" class="selectable cls-1" d="m34.26,132.3c1.9,12.4,44.8,30.3,57.1,32,12.3,1.7,64.4-4.2,80.8-9.5.04,0,.07-.02.11-.04,1.32-4.95,7.39-42.48,6.29-49.96-1.06-7.25-6.14-13-10.99-15.27-3.41-.99-6.16-1.77-7.91-2.23-5.6-1.5-86.7-24.7-96.7-19.6-.1,1.5,2.7,1.4,3.5,2.3.8,1,2.5,5.8,1.9,8.9-.3,1.5-3.47,7.91-4.5,9.6-.99,1.63-16.96,22.15-24.17,30.85,0,0,0,0-.01.02-.02.02-.06.06-.11.13-.02.03-.05.06-.08.1-.03.04-.06.08-.09.12-1.03,1.35-4.55,6.37-5.14,12.58Z" /><path id="trunk" class="selectable cls-1" d="m22.06,149.79h0c1.73,4.65,5.1,11.21,7.47,16.13t.01.02c2.39,2.98,5.14,5.87,8.31,8.69,9.21,8.21,21.96,15.88,39.51,23.85,4.51,2.05,9.33,4.12,14.5,6.22-1.9-1.7-9.4-14.2-9.9-16.7.3-2,5.4-5.8,9.1-6.5,3.7-.7,52.9-3.2,63.6-2.8,8.2-4.8,16.3-19.1,17.6-23.9,0,0,.01-.02.01-.04-.04.02-.07.03-.11.04-16.4,5.3-68.5,11.2-80.8,9.5-12.3-1.7-55.2-19.6-57.1-32,.59-6.21,4.11-11.23,5.14-12.58-1.72,2.03-2.87,3.34-3.14,3.48-2.1,2.2-14.39,17.79-14.2,26.59Zm10.1,22.61c-.04-.93-1.14-3.37-2.62-6.46,2.39,2.98,5.14,5.87,8.31,8.69v17.02l39.71,30.19-.2-23.36c4.51,2.05,9.33,4.12,14.5,6.22l39.4,12.6c.3,3.7,0,23.8-2.9,30.1-2.9,6.3-9.9,11.9-11.5,12.3-1.6.4-7,.5-12.7-2.2-5.7-2.8-46.1-21.9-60.4-44.8s-13-34.2-13-34.2c0,0,2.7-2.6,1.4-6.1Z" /><path id="license_plate_back" class="selectable cls-1" d="m37.85,174.63v17.02l39.71,30.19-.2-23.36c-17.55-7.97-30.3-15.64-39.51-23.85Z" /><g id="wheel_back_right" class="selectable"><path class="cls-1" d="m247.77,264.03c.88-1.39,1.75-2.74,2.59-4.03,8.37-13.06,25.13-28.11,40.5-34.9,2.7,1.4,9.5,3.5,12.4,5.9,2.9,2.4,9.8,5.9,12,15.4,1.98,8.55,1.45,19.12-.21,29.46-.09.58-.19,1.16-.29,1.74-.09.57-.2,1.14-.3,1.7-1.2,3.8-8.5,34.1-34.5,57.9-11.9,9.6-22.9,15.9-34.4,13.7-8.89-2.29-25.18-17.38-26.6-18.71,5.48-28.59,18.37-51.7,28.81-68.16Zm13.39,68.79c7.54,3.99,22.66-9.82,33.78-30.85,11.11-21.02,14.01-41.3,6.46-45.29-7.54-3.98-22.66,9.83-33.78,30.85-11.11,21.03-14.01,41.3-6.46,45.29Z" /><path class="cls-1" d="m261.16,332.82c7.54,3.99,22.66-9.82,33.78-30.85,11.11-21.02,14.01-41.3,6.46-45.29-7.54-3.98-22.66,9.83-33.78,30.85-11.11,21.03-14.01,41.3-6.46,45.29Z" /></g><path id="fog_light_back_right" class="selectable cls-1" d="m173.36,330.2c5,1.6,10.9,2.2,12.6,2,0,0-17-26.5-19.3-27.2s-14.2,3.4-14.6,4.8c-.5,1.8,11.2,12.8,21.3,20.4Z" /><path id="background-3" class="cls-1" d="m172.27,154.76c16.41-5.42,43.9-41.08,49.59-50.76-13.35-2.35-39.81-10.26-54.29-14.47,4.85,2.27,9.93,8.02,10.99,15.27,1.1,7.48-4.97,45.01-6.29,49.96Z" /><path id="bumper_back" class="selectable cls-1" d="m18.26,202c.4-8.8,12.5-28.3,13.9-29.6,1.3,3.5-1.4,6.1-1.4,6.1,0,0-1.3,11.3,13,34.2s54.7,42,60.4,44.8c5.7,2.7,11.1,2.6,12.7,2.2,1.6-.4,8.6-6,11.5-12.3,2.9-6.3,3.2-26.4,2.9-30.1,0,0,16.8,10.1,19.9,11.1,3.3,1.1,24.6,5.2,34.9,4.3,10.3-.9,13.6-1.1,16.3-2.7l45.41,34.03c-10.44,16.46-23.33,39.57-28.81,68.16-.5,2.56-.93,5.16-1.3,7.81-23.3,13.4-61.8,5.9-72.3,3.9-45.6-10.3-57-20.3-76-36.3-20.2-17.1-36.8-43.1-40.7-56.2-.8-3.2-.7-3.7-1.1-5.1-1-3.1-3.8-6.3-4.2-10.9-.4-4.6-1.1-11.2-.5-16.1.6-4.8-5.1-8.5-4.6-17.3Zm155.1,128.2c5,1.6,10.9,2.2,12.6,2,0,0-17-26.5-19.3-27.2s-14.2,3.4-14.6,4.8c-.5,1.8,11.2,12.8,21.3,20.4Z" /><g id="wheel_front_right" class="selectable"><path class="cls-1" d="m441.66,184.4c1.1-2.5,6.67-8.62,7.4-11.2,6.71-22.61,15.48-39.39,21.25-45.68,2.2,1.4,4.05,3.18,3.95,9.68-.07,4.56-1.42,12.61-3.84,20.8-.05.17-.1.34-.15.5-1,3.33-2.17,6.67-3.51,9.8-3.5,8.3-6.9,17.4-15.6,22.5-3.7.8-12.41-2.9-13.41-3.3,2.07-1.6,3.43-2.67,3.91-3.1Zm13.75-3.78c1.65.64,6.04-6.8,9.8-16.61,3.77-9.8,5.49-18.27,3.84-18.9-1.65-.63-6.04,6.8-9.81,16.61-3.76,9.8-5.48,18.27-3.83,18.9Z" /><path class="cls-1" d="m455.41,180.62c1.65.64,6.04-6.8,9.8-16.61,3.77-9.8,5.49-18.27,3.84-18.9-1.65-.63-6.04,6.8-9.81,16.61-3.76,9.8-5.48,18.27-3.83,18.9Z" /></g></svg>