<svg xmlns="http://www.w3.org/2000/svg" viewBox="0 0 538.53 315.99"><defs><style>.cls-1{stroke:#fff;stroke-linecap:round;stroke-linejoin:round}.cls-1,.cls-2,.cls-3{fill:none}.cls-4{fill:#e1a25b}.cls-5{fill:#f49796;stroke:#f49796}.cls-2,.cls-3,.cls-5,.cls-6{stroke-miterlimit:10;stroke-width:2px}.cls-6{fill:#31333e;stroke:#595e72}.cls-2{stroke:#e1a25b}.cls-3{stroke:#62b0ef}.cls-7{font-family:sans-serif;font-size:13px;isolation:isolate}.cls-7,.cls-8{fill:#fff}</style></defs><g id="door_front_left" class="car-part selectable"><path class="cls-1" d="M96.42 153.75c-.8-2.8-14-31.4-6.8-52.4 3.8-8.8 5.23-12.56 6.1-15-4.2-1-52.78-15.68-58.18-17.18h0c-1.21.04-2.56.07-3.93.1-1.01 1.39-2.6 2.9-5.49 6.08-6.5 18.5 8.96 55.52 14.09 65.48l53.46 33.46c.3-2.4 1.55-17.74.75-20.54Zm-15.6-42.7c-1.3.6-15.3-5.7-15.8-8.2s1.9-3.4 2.1-3.4c.2.1 2.2.4 2.8.6l6.8 2.8s4.7 2.3 4.8 3.2c.2.9.6 4.4-.7 5h0Z"/><path id="handle_front_left" class="cls-1 car-part" d="M80.82 111.05c-1.3.6-15.3-5.7-15.8-8.2s1.9-3.4 2.1-3.4c.2.1 2.2.4 2.8.6l6.8 2.8s4.7 2.3 4.8 3.2c.2.9.6 4.4-.7 5h0Z"/></g><g id="door_back_left" class="car-part selectable"><path class="cls-1" d="M131.92 95.15c-6.5-.7-32-7.8-36.2-8.8-.87 2.44-2.3 6.2-6.1 15-7.2 21 6 49.6 6.8 52.4.8 2.8-.45 18.14-.75 20.54l55.43 38.75c9.19-37.29 28.12-49.25 41.62-82.19 16.6-18.9 15.8-25.8 16.4-26.9-7 .5-70.7-8.1-77.2-8.8h0Zm40.7 52.8c-1.5-.1-9.3-2.2-10.1-2.6-1.2-.5-12.7-5.8-12.7-5.8s-7.1-4-7.1-5.4.6-3.8 1.9-4.4c1-.3 4.9.7 6.5 1.4.1 0 12.7 5 12.7 5s7 3.4 7.6 3.7c.9.5 2.3 1.9 2.5 2.6.4 1.3.2 4.9-1.3 5.5h0Z"/><path id="handle_back_left" class="cls-1 car-part" d="M172.62 147.95c-1.5-.1-9.3-2.2-10.1-2.6-1.2-.5-12.7-5.8-12.7-5.8s-7.1-4-7.1-5.4.6-3.8 1.9-4.4c1-.3 4.9.7 6.5 1.4.1 0 12.7 5 12.7 5s7 3.4 7.6 3.7c.9.5 2.3 1.9 2.5 2.6.4 1.3.2 4.9-1.3 5.5h0Z"/></g><path id="fender_front_left" class="cls-1 car-part selectable" d="m42.21 140.83-5.89-3.48c-6.71-22.61-15.48-39.39-21.25-45.68-.93-1.02-1.79-1.77-2.55-2.22-3.8-2.2-4.3 1.5-4.2 5.1.1 3.02.6 6.39 1.33 9.83.24 1.12.5 2.24.78 3.37a132.002 132.002 0 0 0 3.39 11.33c.03.09.06.19.1.28.15.45.31.89.46 1.31-9.49-24.12-8.55-31.73-7.76-37.32-.1-2.8-.3-14.5 3.1-15.5 1-.4 4.38-1.54 8.38-3.14.2.53.41.96.62 1.24.6.8 2.3 2.7 4.3 3.1 1.06.21 5.96.28 10.59.22-1.01 1.39-2.6 2.9-5.49 6.08-6.5 18.5 8.96 55.52 14.09 65.48Z"/><path id="window_back_left" class="cls-1 car-part selectable" d="M232.82 78.15c-6.4 9.4-23.1 24.7-23.7 25.8-7 .5-70.7-8.1-77.2-8.8s-32-7.8-36.2-8.8c1.7-4.2 8.09-40.64 23.46-72.12 21.01 1.77 64.07 9.52 105.54 40.22 3.28 3.32 6.28 6.29 8.26 9.28 2.92 4.4 3.65 8.82-.16 14.42h0Z"/><path id="window_front_left" class="cls-1 car-part selectable" d="M119.18 14.23c-15.37 31.48-21.76 67.92-23.46 72.12-4.2-1-52.78-15.68-58.18-17.18h0c2.43-.09 4.33-.23 4.86-.42 1-.4 2.52-.5 2.52-.5l1.2-5.2-2.9-1.1s-.37-2.62-1.33-5.25c5.6-6.9 12.03-16.95 25.43-27.45 2.2-1.72 4.5-3.29 6.86-4.71 12.04-7.24 25.53-10.62 33.64-10.79 2.11-.04 6.02.03 11.36.48Z"/><path id="pillar" class="cls-1 car-part selectable" d="M74.18 24.54a68.374 68.374 0 0 0-6.86 4.71C53.92 39.75 47.49 49.8 41.89 56.7c-.34-.92-.75-1.85-1.24-2.66C48.79 43.8 58.36 33.38 68.2 24.88h0l5.97-.34h.01Z"/><path id="mirror_left" class="cls-1 car-part selectable" d="M43.22 61.95s-.37-2.62-1.33-5.25c-.34-.92-.75-1.85-1.24-2.66-.61-1.01-1.35-1.85-2.23-2.29-.23-.12-.47-.22-.72-.32-1.22-1-3.76-.72-6.98.32-3.7 1.2-12.4 5.5-13.2 6.5-.8.9-.7 2-.5 2.8.33 1.31.7 2.66 1.08 3.66.2.53.41.96.62 1.24.6.8 2.3 2.7 4.3 3.1 1.06.21 5.96.28 10.59.22 1.37-.03 2.72-.06 3.93-.11 2.43-.08 4.33-.22 4.86-.41 1-.4 2.52-.5 2.52-.5l1.2-5.2-2.9-1.1Z"/><path id="roof" class="cls-1 car-part selectable" d="M422.42 31.85c-10-5.1-91.1 18.1-96.7 19.6-1.75.46-4.5 1.24-7.91 2.23-14.48 4.21-40.94 12.12-54.29 14.47l-30.54-4.42c-1.98-2.99-4.98-5.96-8.26-9.28-41.47-30.7-84.53-38.45-105.54-40.22-5.34-.45-9.25-.52-11.36-.48-8.11.17-21.6 3.55-33.64 10.79l-5.97.34c.44-.39.87-.76 1.31-1.13 10.3-8.7 18.2-12.5 34.9-16.1 15.2-3 51.6-5.8 64.7-6.3 13.3-.5 59.79-1.4 84.4-.4 31.01 1.26 77.2 8.65 99.7 13 9.1 1.76 66.5 13.7 67.9 14.3s1.2 2.1 1.3 3.6h0Z"/><path id="rocker_panel_left" class="cls-1 car-part selectable" d="M170.62 241.75s-1 0-1.4-.1c-.42-.1-8.73-6.12-20.91-15.05-12.69-9.31-29.58-21.79-46.09-34.05-23.18-17.22-45.61-33.99-54.59-40.9-2.07-1.6-3.43-2.67-3.91-3.1-1.1-2.5-6.67-8.62-7.4-11.2l5.89 3.48 53.46 33.46 55.43 38.75 13.7 10.01c1.93 7.59 4.5 13.86 5.53 16.96.09.58.19 1.16.29 1.74h0Z"/><path class="cls-1 background" d="M11.12 101.35c.07 4.56 1.42 12.61 3.84 20.8-.18-.45-.35-.89-.52-1.32-2.76-7.64-5.84-18.24-6.12-26.28-.1-3.6.4-7.3 4.2-5.1.76.45 1.62 1.2 2.55 2.22-2.2 1.4-4.05 3.18-3.95 9.68ZM194.52 189.25c-2.7 1.4-9.5 3.5-12.4 5.9s-9.8 5.9-12 15.4c-1.98 8.55-1.45 19.12.21 29.46-1.03-3.1-3.6-9.37-5.53-16.96-1.61-6.37-2.77-13.68-2.18-20.8 2.2-9.3 7.3-15 15.3-16.6 4.95-.42 10.67.98 16.6 3.6h0Z"/><path id="fender_back_left" class="cls-1 car-part selectable" d="M241.52 147.45c2.6 10.3 38.8 45.1 41.5 46.7l-45.41 34.03c-.88-1.39-1.75-2.74-2.59-4.03-8.37-13.06-25.13-28.11-40.5-34.9-5.93-2.62-11.65-4.02-16.6-3.6-8 1.6-13.1 7.3-15.3 16.6-.59 7.12.57 14.43 2.18 20.8l-13.7-10.01c9.19-37.29 28.12-49.25 41.62-82.19 16.6-18.9 15.8-25.8 16.4-26.9.6-1.1 17.3-16.4 23.7-25.8 3.81-5.6 3.08-10.02.16-14.42l30.54 4.42c5.69 9.68 33.18 45.34 49.59 50.76 0 .02.01.03.01.04 1.3 4.8 9.4 19.1 17.6 23.9-10.7.4-62.7-7-67.4-6.5-4.7.5-18 5.9-21.8 11.1h0Z"/><path id="tail_light_left" class="cls-1 car-part selectable" d="M394.32 145.65c-3.7-.7-52.9-3.2-63.6-2.8s-62.7-7-67.4-6.5c-4.7.5-18 5.9-21.8 11.1 2.6 10.3 38.8 45.1 41.5 46.7 2.7 1.6 6 1.8 16.3 2.7s31.6-3.2 34.9-4.3c3.1-1 19.9-11.1 19.9-11.1l39.4-12.6c1.9-1.7 9.4-14.2 9.9-16.7-.3-2-5.4-5.8-9.1-6.5h0Z"/><path id="tail_light_right" class="cls-1 car-part selectable" d="M464.42 109.35c.06 1.01-.37 2.63-1.1 4.59.19-8.8-12.1-24.39-14.2-26.59 1.4.7 7.4 3 9.9 5.5s5.1 11.6 5.4 16.5h0Z"/><path id="windshield_back" class="cls-1 car-part selectable" d="M451.12 96.45c-1.9 12.4-44.8 30.3-57.1 32-12.3 1.7-64.4-4.2-80.8-9.5-.04 0-.07-.02-.11-.04-1.32-4.95-7.39-42.48-6.29-49.96 1.06-7.25 6.14-13 10.99-15.27 3.41-.99 6.16-1.77 7.91-2.23 5.6-1.5 86.7-24.7 96.7-19.6.1 1.5-2.7 1.4-3.5 2.3-.8 1-2.5 5.8-1.9 8.9.3 1.5 3.47 7.91 4.5 9.6.99 1.63 16.96 22.15 24.17 30.85v.02s.07.06.12.13c.02.03.05.06.08.1l.09.12c1.03 1.35 4.55 6.37 5.14 12.58Z"/><path id="trunk" class="cls-1 car-part selectable" d="M463.32 113.94h0c-1.73 4.65-5.1 11.21-7.47 16.13q-1.58 3.28-.01.02c-2.39 2.98-5.14 5.87-8.31 8.69-9.21 8.21-21.96 15.88-39.51 23.85a387.02 387.02 0 0 1-14.5 6.22c1.9-1.7 9.4-14.2 9.9-16.7-.3-2-5.4-5.8-9.1-6.5s-52.9-3.2-63.6-2.8c-8.2-4.8-16.3-19.1-17.6-23.9 0 0-.01-.02-.01-.04.04.02.07.03.11.04 16.4 5.3 68.5 11.2 80.8 9.5s55.2-19.6 57.1-32c-.59-6.21-4.11-11.23-5.14-12.58 1.72 2.03 2.87 3.34 3.14 3.48 2.1 2.2 14.39 17.79 14.2 26.59h0Zm-10.1 22.61c.04-.93 1.14-3.37 2.62-6.46-2.39 2.98-5.14 5.87-8.31 8.69v17.02l-39.71 30.19.2-23.36a387.02 387.02 0 0 1-14.5 6.22l-39.4 12.6c-.3 3.7 0 23.8 2.9 30.1s9.9 11.9 11.5 12.3 7 .5 12.7-2.2c5.7-2.8 46.1-21.9 60.4-44.8s13-34.2 13-34.2-2.7-2.6-1.4-6.1h0Z"/><path id="license_plate_back" class="cls-1 car-part selectable" d="M447.53 138.78v17.02l-39.71 30.19.2-23.36c17.55-7.97 30.3-15.64 39.51-23.85h0Z"/><g id="wheel_back_left" class="car-part selectable"><path class="cls-1" d="M237.61 228.18c-.88-1.39-1.75-2.74-2.59-4.03-8.37-13.06-25.13-28.11-40.5-34.9-2.7 1.4-9.5 3.5-12.4 5.9s-9.8 5.9-12 15.4c-1.98 8.55-1.45 19.12.21 29.46.09.58.19 1.16.29 1.74.09.57.2 1.14.3 1.7 1.2 3.8 8.5 34.1 34.5 57.9 11.9 9.6 22.9 15.9 34.4 13.7 8.89-2.29 25.18-17.38 26.6-18.71-5.48-28.59-18.37-51.7-28.81-68.16h0Zm-13.39 68.79c-7.54 3.99-22.66-9.82-33.78-30.85-11.11-21.02-14.01-41.3-6.46-45.29 7.54-3.98 22.66 9.83 33.78 30.85 11.11 21.03 14.01 41.3 6.46 45.29Z"/><path class="cls-1" d="M224.22 296.97c-7.54 3.99-22.66-9.82-33.78-30.85-11.11-21.02-14.01-41.3-6.46-45.29 7.54-3.98 22.66 9.83 33.78 30.85 11.11 21.03 14.01 41.3 6.46 45.29Z"/></g><path id="fog_light_back_left" class="cls-1 car-part selectable" d="M312.02 294.35c-5 1.6-10.9 2.2-12.6 2 0 0 17-26.5 19.3-27.2s14.2 3.4 14.6 4.8c.5 1.8-11.2 12.8-21.3 20.4h0Z"/><path class="cls-1 background" d="M313.11 118.91c-16.41-5.42-43.9-41.08-49.59-50.76 13.35-2.35 39.81-10.26 54.29-14.47-4.85 2.27-9.93 8.02-10.99 15.27-1.1 7.48 4.97 45.01 6.29 49.96h0Z"/><path id="bumper_back" class="cls-1 car-part selectable" d="M467.12 166.15c-.4-8.8-12.5-28.3-13.9-29.6-1.3 3.5 1.4 6.1 1.4 6.1s1.3 11.3-13 34.2-54.7 42-60.4 44.8c-5.7 2.7-11.1 2.6-12.7 2.2s-8.6-6-11.5-12.3-3.2-26.4-2.9-30.1c0 0-16.8 10.1-19.9 11.1-3.3 1.1-24.6 5.2-34.9 4.3s-13.6-1.1-16.3-2.7l-45.41 34.03c10.44 16.46 23.33 39.57 28.81 68.16.5 2.56.93 5.16 1.3 7.81 23.3 13.4 61.8 5.9 72.3 3.9 45.6-10.3 57-20.3 76-36.3 20.2-17.1 36.8-43.1 40.7-56.2.8-3.2.7-3.7 1.1-5.1 1-3.1 3.8-6.3 4.2-10.9.4-4.6 1.1-11.2.5-16.1-.6-4.8 5.1-8.5 4.6-17.3h0Zm-155.1 128.2c-5 1.6-10.9 2.2-12.6 2 0 0 17-26.5 19.3-27.2s14.2 3.4 14.6 4.8c.5 1.8-11.2 12.8-21.3 20.4h0Z"/><g id="wheel_front_left" class="car-part selectable"><path class="cls-1" d="M43.72 148.55c-1.1-2.5-6.67-8.62-7.4-11.2-6.71-22.61-15.48-39.39-21.25-45.68-2.2 1.4-4.05 3.18-3.95 9.68.07 4.56 1.42 12.61 3.84 20.8.05.17.1.34.15.5 1 3.33 2.17 6.67 3.51 9.8 3.5 8.3 6.9 17.4 15.6 22.5 3.7.8 12.41-2.9 13.41-3.3-2.07-1.6-3.43-2.67-3.91-3.1Zm-13.75-3.78c-1.65.64-6.04-6.8-9.8-16.61-3.77-9.8-5.49-18.27-3.84-18.9 1.65-.63 6.04 6.8 9.81 16.61 3.76 9.8 5.48 18.27 3.83 18.9Z"/><path class="cls-1" d="M29.97 144.77c-1.65.64-6.04-6.8-9.8-16.61-3.77-9.8-5.49-18.27-3.84-18.9 1.65-.63 6.04 6.8 9.81 16.61 3.76 9.8 5.48 18.27 3.83 18.9Z"/></g><g id="damage-pill_tail_light_left"><circle class="cls-6 damage-pill-background" cx="309.41" cy="166.65" r="19.13"/><circle class="cls-3 severity-low" cx="309.41" cy="166.65" r="9.1"/><circle class="cls-5 severity-high" cx="309.41" cy="166.65" r="9.1"/><circle class="cls-8 severity-none" cx="309.41" cy="166.65" r="9.1"/><g class="severity-medium"><circle class="cls-2 severity-medium severity-medium" cx="309.41" cy="166.65" r="9.1"/><path class="cls-4 severity-medium" d="M309.41 157.55v18.1c-5 0-9.1-4.1-9.1-9.1s4.1-9 9.1-9Z"/></g></g><g id="damage-pill-pricing_tail_light_left"><path class="cls-6 damage-pill-background" d="M364.4 185.79h-54.98c-10.56 0-19.13-8.58-19.13-19.13 0-10.56 8.58-19.13 19.13-19.13h54.98c10.56 0 19.13 8.58 19.13 19.13 0 10.56-8.58 19.13-19.13 19.13Z"/><text class="cls-7 damage-pill-text" transform="translate(331.5 170.94)">9999€</text><circle class="cls-3 severity-low" cx="309.41" cy="166.65" r="9.1"/><circle class="cls-5 severity-high" cx="309.41" cy="166.65" r="9.1"/><circle class="cls-8 severity-none" cx="309.41" cy="166.65" r="9.1"/><g class="severity-medium"><circle class="cls-2 severity-medium severity-medium" cx="309.41" cy="166.65" r="9.1"/><path class="cls-4 severity-medium" d="M309.41 157.55v18.1c-5 0-9.1-4.1-9.1-9.1s4.1-9 9.1-9Z"/></g></g><g id="damage-pill_bumper_back"><circle class="cls-6 damage-pill-background" cx="400.18" cy="244.27" r="19.13"/><circle class="cls-3 severity-low" cx="400.18" cy="244.27" r="9.1"/><circle class="cls-5 severity-high" cx="400.18" cy="244.27" r="9.1"/><circle class="cls-8 severity-none" cx="400.18" cy="244.27" r="9.1"/><g class="severity-medium"><circle class="cls-2 severity-medium severity-medium" cx="400.18" cy="244.27" r="9.1"/><path class="cls-4 severity-medium" d="M400.18 235.17v18.1c-5 0-9.1-4.1-9.1-9.1s4.1-9 9.1-9Z"/></g></g><g id="damage-pill-pricing_bumper_back"><path class="cls-6 damage-pill-background" d="M455.16 263.41h-54.98c-10.56 0-19.13-8.58-19.13-19.13 0-10.56 8.58-19.13 19.13-19.13h54.98c10.56 0 19.13 8.58 19.13 19.13 0 10.56-8.58 19.13-19.13 19.13Z"/><text class="cls-7 damage-pill-text" transform="translate(422.26 248.56)">9999€</text><circle class="cls-3 severity-low" cx="400.18" cy="244.27" r="9.1"/><circle class="cls-5 severity-high" cx="400.18" cy="244.27" r="9.1"/><circle class="cls-8 severity-none" cx="400.18" cy="244.27" r="9.1"/><g class="severity-medium"><circle class="cls-2 severity-medium severity-medium" cx="400.18" cy="244.27" r="9.1"/><path class="cls-4 severity-medium" d="M400.18 235.17v18.1c-5 0-9.1-4.1-9.1-9.1s4.1-9 9.1-9Z"/></g></g><g id="damage-pill_license_plate_back"><circle class="cls-6 damage-pill-background" cx="428.34" cy="162.39" r="19.13"/><circle class="cls-3 severity-low" cx="428.34" cy="162.39" r="9.1"/><circle class="cls-5 severity-high" cx="428.34" cy="162.39" r="9.1"/><circle class="cls-8 severity-none" cx="428.34" cy="162.39" r="9.1"/><g class="severity-medium"><circle class="cls-2 severity-medium severity-medium" cx="428.34" cy="162.39" r="9.1"/><path class="cls-4 severity-medium" d="M428.34 153.29v18.1c-5 0-9.1-4.1-9.1-9.1s4.1-9 9.1-9Z"/></g></g><g id="damage-pill-pricing_license_plate_back"><path class="cls-6 damage-pill-background" d="M483.33 181.52h-54.98c-10.56 0-19.13-8.58-19.13-19.13 0-10.56 8.58-19.13 19.13-19.13h54.98c10.56 0 19.13 8.58 19.13 19.13 0 10.56-8.58 19.13-19.13 19.13Z"/><text class="cls-7 damage-pill-text" transform="translate(450.43 166.67)">9999€</text><circle class="cls-3 severity-low" cx="428.34" cy="162.39" r="9.1"/><circle class="cls-5 severity-high" cx="428.34" cy="162.39" r="9.1"/><circle class="cls-8 severity-none" cx="428.34" cy="162.39" r="9.1"/><g class="severity-medium"><circle class="cls-2 severity-medium severity-medium" cx="428.34" cy="162.39" r="9.1"/><path class="cls-4 severity-medium" d="M428.34 153.29v18.1c-5 0-9.1-4.1-9.1-9.1s4.1-9 9.1-9Z"/></g></g><g id="damage-pill_fog_light_back_left"><circle class="cls-6 damage-pill-background" cx="318.74" cy="280.83" r="19.13"/><circle class="cls-3 severity-low" cx="318.74" cy="280.83" r="9.1"/><circle class="cls-5 severity-high" cx="318.74" cy="280.83" r="9.1"/><circle class="cls-8 severity-none" cx="318.74" cy="280.83" r="9.1"/><g class="severity-medium"><circle class="cls-2 severity-medium severity-medium" cx="318.74" cy="280.83" r="9.1"/><path class="cls-4 severity-medium" d="M318.74 271.73v18.1c-5 0-9.1-4.1-9.1-9.1s4.1-9 9.1-9Z"/></g></g><g id="damage-pill-pricing_fog_light_back_left"><path class="cls-6 damage-pill-background" d="M373.72 299.97h-54.98c-10.56 0-19.13-8.58-19.13-19.13 0-10.56 8.58-19.13 19.13-19.13h54.98c10.56 0 19.13 8.58 19.13 19.13 0 10.56-8.58 19.13-19.13 19.13Z"/><text class="cls-7 damage-pill-text" transform="translate(340.82 285.12)">9999€</text><circle class="cls-3 severity-low" cx="318.74" cy="280.83" r="9.1"/><circle class="cls-5 severity-high" cx="318.74" cy="280.83" r="9.1"/><circle class="cls-8 severity-none" cx="318.74" cy="280.83" r="9.1"/><g class="severity-medium"><circle class="cls-2 severity-medium severity-medium" cx="318.74" cy="280.83" r="9.1"/><path class="cls-4 severity-medium" d="M318.74 271.73v18.1c-5 0-9.1-4.1-9.1-9.1s4.1-9 9.1-9Z"/></g></g><g id="damage-pill_wheel_front_left"><circle class="cls-6 damage-pill-background" cx="22.39" cy="125.15" r="19.13"/><circle class="cls-3 severity-low" cx="22.39" cy="125.15" r="9.1"/><circle class="cls-5 severity-high" cx="22.39" cy="125.15" r="9.1"/><circle class="cls-8 severity-none" cx="22.39" cy="125.15" r="9.1"/><g class="severity-medium"><circle class="cls-2 severity-medium severity-medium" cx="22.39" cy="125.15" r="9.1"/><path class="cls-4 severity-medium" d="M22.39 116.05v18.1c-5 0-9.1-4.1-9.1-9.1s4.1-9 9.1-9Z"/></g></g><g id="damage-pill-pricing_wheel_front_left"><path class="cls-6 damage-pill-background" d="M77.38 144.29H22.39c-10.56 0-19.13-8.58-19.13-19.13 0-10.56 8.58-19.13 19.13-19.13h54.98c10.56 0 19.13 8.58 19.13 19.13 0 10.56-8.58 19.13-19.13 19.13Z"/><text class="cls-7 damage-pill-text" transform="translate(44.48 129.44)">9999€</text><circle class="cls-3 severity-low" cx="22.39" cy="125.15" r="9.1"/><circle class="cls-5 severity-high" cx="22.39" cy="125.15" r="9.1"/><circle class="cls-8 severity-none" cx="22.39" cy="125.15" r="9.1"/><g class="severity-medium"><circle class="cls-2 severity-medium severity-medium" cx="22.39" cy="125.15" r="9.1"/><path class="cls-4 severity-medium" d="M22.39 116.05v18.1c-5 0-9.1-4.1-9.1-9.1s4.1-9 9.1-9Z"/></g></g><g id="damage-pill_fender_front_left"><circle class="cls-6 damage-pill-background" cx="20.13" cy="80.94" r="19.13"/><circle class="cls-3 severity-low" cx="20.13" cy="80.94" r="9.1"/><circle class="cls-5 severity-high" cx="20.13" cy="80.94" r="9.1"/><circle class="cls-8 severity-none" cx="20.13" cy="80.94" r="9.1"/><g class="severity-medium"><circle class="cls-2 severity-medium severity-medium" cx="20.13" cy="80.94" r="9.1"/><path class="cls-4 severity-medium" d="M20.13 71.84v18.1c-5 0-9.1-4.1-9.1-9.1s4.1-9 9.1-9Z"/></g></g><g id="damage-pill-pricing_fender_front_left"><path class="cls-6 damage-pill-background" d="M75.12 100.07H20.13C9.57 100.07 1 91.49 1 80.94c0-10.56 8.58-19.13 19.13-19.13h54.98c10.56 0 19.13 8.58 19.13 19.13 0 10.56-8.58 19.13-19.13 19.13Z"/><text class="cls-7 damage-pill-text" transform="translate(42.22 85.22)">9999€</text><circle class="cls-3 severity-low" cx="20.13" cy="80.94" r="9.1"/><circle class="cls-5 severity-high" cx="20.13" cy="80.94" r="9.1"/><circle class="cls-8 severity-none" cx="20.13" cy="80.94" r="9.1"/><g class="severity-medium"><circle class="cls-2 severity-medium severity-medium" cx="20.13" cy="80.94" r="9.1"/><path class="cls-4 severity-medium" d="M20.13 71.84v18.1c-5 0-9.1-4.1-9.1-9.1s4.1-9 9.1-9Z"/></g></g><g id="damage-pill_pillar"><circle class="cls-6 damage-pill-background" cx="54.24" cy="40.9" r="19.13"/><circle class="cls-3 severity-low" cx="54.24" cy="40.9" r="9.1"/><circle class="cls-5 severity-high" cx="54.24" cy="40.9" r="9.1"/><circle class="cls-8 severity-none" cx="54.24" cy="40.9" r="9.1"/><g class="severity-medium"><circle class="cls-2 severity-medium severity-medium" cx="54.24" cy="40.9" r="9.1"/><path class="cls-4 severity-medium" d="M54.24 31.8v18.1c-5 0-9.1-4.1-9.1-9.1s4.1-9 9.1-9Z"/></g></g><g id="damage-pill-pricing_pillar"><path class="cls-6 damage-pill-background" d="M109.22 60.03H54.24c-10.56 0-19.13-8.58-19.13-19.13 0-10.56 8.58-19.13 19.13-19.13h54.98c10.56 0 19.13 8.58 19.13 19.13 0 10.56-8.58 19.13-19.13 19.13Z"/><text class="cls-7 damage-pill-text" transform="translate(76.33 45.18)">9999€</text><circle class="cls-3 severity-low" cx="54.24" cy="40.9" r="9.1"/><circle class="cls-5 severity-high" cx="54.24" cy="40.9" r="9.1"/><circle class="cls-8 severity-none" cx="54.24" cy="40.9" r="9.1"/><g class="severity-medium"><circle class="cls-2 severity-medium severity-medium" cx="54.24" cy="40.9" r="9.1"/><path class="cls-4 severity-medium" d="M54.24 31.8v18.1c-5 0-9.1-4.1-9.1-9.1s4.1-9 9.1-9Z"/></g></g><g id="damage-pill_window_front_left"><circle class="cls-6 damage-pill-background" cx="78.75" cy="51.81" r="19.13"/><circle class="cls-3 severity-low" cx="78.75" cy="51.81" r="9.1"/><circle class="cls-5 severity-high" cx="78.75" cy="51.81" r="9.1"/><circle class="cls-8 severity-none" cx="78.75" cy="51.81" r="9.1"/><g class="severity-medium"><circle class="cls-2 severity-medium severity-medium" cx="78.75" cy="51.81" r="9.1"/><path class="cls-4 severity-medium" d="M78.75 42.71v18.1c-5 0-9.1-4.1-9.1-9.1s4.1-9 9.1-9Z"/></g></g><g id="damage-pill-pricing_window_front_left"><path class="cls-6 damage-pill-background" d="M133.73 70.94H78.75c-10.56 0-19.13-8.58-19.13-19.13 0-10.56 8.58-19.13 19.13-19.13h54.98c10.56 0 19.13 8.58 19.13 19.13 0 10.56-8.58 19.13-19.13 19.13Z"/><text class="cls-7 damage-pill-text" transform="translate(100.83 56.1)">9999€</text><circle class="cls-3 severity-low" cx="78.75" cy="51.81" r="9.1"/><circle class="cls-5 severity-high" cx="78.75" cy="51.81" r="9.1"/><circle class="cls-8 severity-none" cx="78.75" cy="51.81" r="9.1"/><g class="severity-medium"><circle class="cls-2 severity-medium severity-medium" cx="78.75" cy="51.81" r="9.1"/><path class="cls-4 severity-medium" d="M78.75 42.71v18.1c-5 0-9.1-4.1-9.1-9.1s4.1-9 9.1-9Z"/></g></g><g id="damage-pill_window_back_left"><circle class="cls-6 damage-pill-background" cx="154.3" cy="60.05" r="19.13"/><circle class="cls-3 severity-low" cx="154.3" cy="60.05" r="9.1"/><circle class="cls-5 severity-high" cx="154.3" cy="60.05" r="9.1"/><circle class="cls-8 severity-none" cx="154.3" cy="60.05" r="9.1"/><g class="severity-medium"><circle class="cls-2 severity-medium severity-medium" cx="154.3" cy="60.05" r="9.1"/><path class="cls-4 severity-medium" d="M154.3 50.95v18.1c-5 0-9.1-4.1-9.1-9.1s4.1-9 9.1-9Z"/></g></g><g id="damage-pill-pricing_window_back_left"><path class="cls-6 damage-pill-background" d="M209.28 79.19H154.3c-10.56 0-19.13-8.58-19.13-19.13 0-10.56 8.58-19.13 19.13-19.13h54.98c10.56 0 19.13 8.58 19.13 19.13 0 10.56-8.58 19.13-19.13 19.13Z"/><text class="cls-7 damage-pill-text" transform="translate(176.39 64.34)">9999€</text><circle class="cls-3 severity-low" cx="154.3" cy="60.05" r="9.1"/><circle class="cls-5 severity-high" cx="154.3" cy="60.05" r="9.1"/><circle class="cls-8 severity-none" cx="154.3" cy="60.05" r="9.1"/><g class="severity-medium"><circle class="cls-2 severity-medium severity-medium" cx="154.3" cy="60.05" r="9.1"/><path class="cls-4 severity-medium" d="M154.3 50.95v18.1c-5 0-9.1-4.1-9.1-9.1s4.1-9 9.1-9Z"/></g></g><g id="damage-pill_mirror_left"><circle class="cls-6 damage-pill-background" cx="33.12" cy="60.05" r="19.13"/><circle class="cls-3 severity-low" cx="33.12" cy="60.05" r="9.1"/><circle class="cls-5 severity-high" cx="33.12" cy="60.05" r="9.1"/><circle class="cls-8 severity-none" cx="33.12" cy="60.05" r="9.1"/><g class="severity-medium"><circle class="cls-2 severity-medium severity-medium" cx="33.12" cy="60.05" r="9.1"/><path class="cls-4 severity-medium" d="M33.12 50.95v18.1c-5 0-9.1-4.1-9.1-9.1s4.1-9 9.1-9Z"/></g></g><g id="damage-pill-pricing_mirror_left"><path class="cls-6 damage-pill-background" d="M88.1 79.19H33.12c-10.56 0-19.13-8.58-19.13-19.13 0-10.56 8.58-19.13 19.13-19.13H88.1c10.56 0 19.13 8.58 19.13 19.13 0 10.56-8.58 19.13-19.13 19.13Z"/><text class="cls-7 damage-pill-text" transform="translate(55.21 64.34)">9999€</text><circle class="cls-3 severity-low" cx="33.12" cy="60.05" r="9.1"/><circle class="cls-5 severity-high" cx="33.12" cy="60.05" r="9.1"/><circle class="cls-8 severity-none" cx="33.12" cy="60.05" r="9.1"/><g class="severity-medium"><circle class="cls-2 severity-medium severity-medium" cx="33.12" cy="60.05" r="9.1"/><path class="cls-4 severity-medium" d="M33.12 50.95v18.1c-5 0-9.1-4.1-9.1-9.1s4.1-9 9.1-9Z"/></g></g><g id="damage-pill_door_front_left"><circle class="cls-6 damage-pill-background" cx="59.98" cy="111.09" r="19.13"/><circle class="cls-3 severity-low" cx="59.98" cy="111.09" r="9.1"/><circle class="cls-5 severity-high" cx="59.98" cy="111.09" r="9.1"/><circle class="cls-8 severity-none" cx="59.98" cy="111.09" r="9.1"/><g class="severity-medium"><circle class="cls-2 severity-medium severity-medium" cx="59.98" cy="111.09" r="9.1"/><path class="cls-4 severity-medium" d="M59.98 101.99v18.1c-5 0-9.1-4.1-9.1-9.1s4.1-9 9.1-9Z"/></g></g><g id="damage-pill-pricing_door_front_left"><path class="cls-6 damage-pill-background" d="M114.97 130.23H59.99c-10.56 0-19.13-8.58-19.13-19.13 0-10.56 8.58-19.13 19.13-19.13h54.98c10.56 0 19.13 8.58 19.13 19.13 0 10.56-8.58 19.13-19.13 19.13Z"/><text class="cls-7 damage-pill-text" transform="translate(82.07 115.38)">9999€</text><circle class="cls-3 severity-low" cx="59.98" cy="111.09" r="9.1"/><circle class="cls-5 severity-high" cx="59.98" cy="111.09" r="9.1"/><circle class="cls-8 severity-none" cx="59.98" cy="111.09" r="9.1"/><g class="severity-medium"><circle class="cls-2 severity-medium severity-medium" cx="59.98" cy="111.09" r="9.1"/><path class="cls-4 severity-medium" d="M59.98 101.99v18.1c-5 0-9.1-4.1-9.1-9.1s4.1-9 9.1-9Z"/></g></g><g id="damage-pill_door_back_left"><circle class="cls-6 damage-pill-background" cx="134.08" cy="139.35" r="19.13"/><circle class="cls-3 severity-low" cx="134.08" cy="139.35" r="9.1"/><circle class="cls-5 severity-high" cx="134.08" cy="139.35" r="9.1"/><circle class="cls-8 severity-none" cx="134.08" cy="139.35" r="9.1"/><g class="severity-medium"><circle class="cls-2 severity-medium severity-medium" cx="134.08" cy="139.35" r="9.1"/><path class="cls-4 severity-medium" d="M134.08 130.25v18.1c-5 0-9.1-4.1-9.1-9.1s4.1-9 9.1-9Z"/></g></g><g id="damage-pill-pricing_door_back_left"><path class="cls-6 damage-pill-background" d="M189.06 158.49h-54.98c-10.56 0-19.13-8.58-19.13-19.13 0-10.56 8.58-19.13 19.13-19.13h54.98c10.56 0 19.13 8.58 19.13 19.13 0 10.56-8.58 19.13-19.13 19.13Z"/><text class="cls-7 damage-pill-text" transform="translate(156.16 143.64)">9999€</text><circle class="cls-3 severity-low" cx="134.08" cy="139.35" r="9.1"/><circle class="cls-5 severity-high" cx="134.08" cy="139.35" r="9.1"/><circle class="cls-8 severity-none" cx="134.08" cy="139.35" r="9.1"/><g class="severity-medium"><circle class="cls-2 severity-medium severity-medium" cx="134.08" cy="139.35" r="9.1"/><path class="cls-4 severity-medium" d="M134.08 130.25v18.1c-5 0-9.1-4.1-9.1-9.1s4.1-9 9.1-9Z"/></g></g><g id="damage-pill_rocker_panel_left"><circle class="cls-6 damage-pill-background" cx="91.22" cy="179.08" r="19.13"/><circle class="cls-3 severity-low" cx="91.22" cy="179.08" r="9.1"/><circle class="cls-5 severity-high" cx="91.22" cy="179.08" r="9.1"/><circle class="cls-8 severity-none" cx="91.22" cy="179.08" r="9.1"/><g class="severity-medium"><circle class="cls-2 severity-medium severity-medium" cx="91.22" cy="179.08" r="9.1"/><path class="cls-4 severity-medium" d="M91.22 169.98v18.1c-5 0-9.1-4.1-9.1-9.1s4.1-9 9.1-9Z"/></g></g><g id="damage-pill-pricing_rocker_panel_left"><path class="cls-6 damage-pill-background" d="M146.21 198.21H91.23c-10.56 0-19.13-8.58-19.13-19.13 0-10.56 8.58-19.13 19.13-19.13h54.98c10.56 0 19.13 8.58 19.13 19.13 0 10.56-8.58 19.13-19.13 19.13Z"/><text class="cls-7 damage-pill-text" transform="translate(113.31 183.36)">9999€</text><circle class="cls-3 severity-low" cx="91.22" cy="179.08" r="9.1"/><circle class="cls-5 severity-high" cx="91.22" cy="179.08" r="9.1"/><circle class="cls-8 severity-none" cx="91.22" cy="179.08" r="9.1"/><g class="severity-medium"><circle class="cls-2 severity-medium severity-medium" cx="91.22" cy="179.08" r="9.1"/><path class="cls-4 severity-medium" d="M91.22 169.98v18.1c-5 0-9.1-4.1-9.1-9.1s4.1-9 9.1-9Z"/></g></g><g id="damage-pill_windshield_back"><circle class="cls-6 damage-pill-background" cx="380.32" cy="80.87" r="19.13"/><circle class="cls-3 severity-low" cx="380.32" cy="80.87" r="9.1"/><circle class="cls-5 severity-high" cx="380.32" cy="80.87" r="9.1"/><circle class="cls-8 severity-none" cx="380.32" cy="80.87" r="9.1"/><g class="severity-medium"><circle class="cls-2 severity-medium severity-medium" cx="380.32" cy="80.87" r="9.1"/><path class="cls-4 severity-medium" d="M380.32 71.77v18.1c-5 0-9.1-4.1-9.1-9.1s4.1-9 9.1-9Z"/></g></g><g id="damage-pill-pricing_windshield_back"><path class="cls-6 damage-pill-background" d="M435.31 100.01h-54.98c-10.56 0-19.13-8.58-19.13-19.13 0-10.56 8.58-19.13 19.13-19.13h54.98c10.56 0 19.13 8.58 19.13 19.13 0 10.56-8.58 19.13-19.13 19.13Z"/><text class="cls-7 damage-pill-text" transform="translate(402.41 85.16)">9999€</text><circle class="cls-3 severity-low" cx="380.32" cy="80.87" r="9.1"/><circle class="cls-5 severity-high" cx="380.32" cy="80.87" r="9.1"/><circle class="cls-8 severity-none" cx="380.32" cy="80.87" r="9.1"/><g class="severity-medium"><circle class="cls-2 severity-medium severity-medium" cx="380.32" cy="80.87" r="9.1"/><path class="cls-4 severity-medium" d="M380.32 71.77v18.1c-5 0-9.1-4.1-9.1-9.1s4.1-9 9.1-9Z"/></g></g><g id="damage-pill_trunk"><circle class="cls-6 damage-pill-background" cx="433.16" cy="130.09" r="19.13"/><circle class="cls-3 severity-low" cx="433.16" cy="130.09" r="9.1"/><circle class="cls-5 severity-high" cx="433.16" cy="130.09" r="9.1"/><circle class="cls-8 severity-none" cx="433.16" cy="130.09" r="9.1"/><g class="severity-medium"><circle class="cls-2 severity-medium severity-medium" cx="433.16" cy="130.09" r="9.1"/><path class="cls-4 severity-medium" d="M433.16 120.99v18.1c-5 0-9.1-4.1-9.1-9.1s4.1-9 9.1-9Z"/></g></g><g id="damage-pill-pricing_trunk"><path class="cls-6 damage-pill-background" d="M488.14 149.23h-54.98c-10.56 0-19.13-8.58-19.13-19.13 0-10.56 8.58-19.13 19.13-19.13h54.98c10.56 0 19.13 8.58 19.13 19.13 0 10.56-8.58 19.13-19.13 19.13Z"/><text class="cls-7 damage-pill-text" transform="translate(455.25 134.38)">9999€</text><circle class="cls-3 severity-low" cx="433.16" cy="130.09" r="9.1"/><circle class="cls-5 severity-high" cx="433.16" cy="130.09" r="9.1"/><circle class="cls-8 severity-none" cx="433.16" cy="130.09" r="9.1"/><g class="severity-medium"><circle class="cls-2 severity-medium severity-medium" cx="433.16" cy="130.09" r="9.1"/><path class="cls-4 severity-medium" d="M433.16 120.99v18.1c-5 0-9.1-4.1-9.1-9.1s4.1-9 9.1-9Z"/></g></g><g id="damage-pill_tail_light_right"><circle class="cls-6 damage-pill-background" cx="463.42" cy="100.65" r="19.13"/><circle class="cls-3 severity-low" cx="463.42" cy="100.65" r="9.1"/><circle class="cls-5 severity-high" cx="463.42" cy="100.65" r="9.1"/><circle class="cls-8 severity-none" cx="463.42" cy="100.65" r="9.1"/><g class="severity-medium"><circle class="cls-2 severity-medium severity-medium" cx="463.42" cy="100.65" r="9.1"/><path class="cls-4 severity-medium" d="M463.42 91.55v18.1c-5 0-9.1-4.1-9.1-9.1s4.1-9 9.1-9Z"/></g></g><g id="damage-pill-pricing_tail_light_right"><path class="cls-6 damage-pill-background" d="M518.4 119.78h-54.98c-10.56 0-19.13-8.58-19.13-19.13 0-10.56 8.58-19.13 19.13-19.13h54.98c10.56 0 19.13 8.58 19.13 19.13 0 10.56-8.58 19.13-19.13 19.13Z"/><text class="cls-7 damage-pill-text" transform="translate(485.5 104.93)">9999€</text><circle class="cls-3 severity-low" cx="463.42" cy="100.65" r="9.1"/><circle class="cls-5 severity-high" cx="463.42" cy="100.65" r="9.1"/><circle class="cls-8 severity-none" cx="463.42" cy="100.65" r="9.1"/><g class="severity-medium"><circle class="cls-2 severity-medium severity-medium" cx="463.42" cy="100.65" r="9.1"/><path class="cls-4 severity-medium" d="M463.42 91.55v18.1c-5 0-9.1-4.1-9.1-9.1s4.1-9 9.1-9Z"/></g></g><g id="damage-pill_roof"><circle class="cls-6 damage-pill-background" cx="256.74" cy="27.95" r="19.13"/><circle class="cls-3 severity-low" cx="256.74" cy="27.95" r="9.1"/><circle class="cls-5 severity-high" cx="256.74" cy="27.95" r="9.1"/><circle class="cls-8 severity-none" cx="256.74" cy="27.95" r="9.1"/><g class="severity-medium"><circle class="cls-2 severity-medium severity-medium" cx="256.74" cy="27.95" r="9.1"/><path class="cls-4 severity-medium" d="M256.74 18.85v18.1c-5 0-9.1-4.1-9.1-9.1s4.1-9 9.1-9Z"/></g></g><g id="damage-pill-pricing_roof"><path class="cls-6 damage-pill-background" d="M311.72 47.08h-54.98c-10.56 0-19.13-8.58-19.13-19.13 0-10.56 8.58-19.13 19.13-19.13h54.98c10.56 0 19.13 8.58 19.13 19.13 0 10.56-8.58 19.13-19.13 19.13Z"/><text class="cls-7 damage-pill-text" transform="translate(278.82 32.23)">9999€</text><circle class="cls-3 severity-low" cx="256.74" cy="27.95" r="9.1"/><circle class="cls-5 severity-high" cx="256.74" cy="27.95" r="9.1"/><circle class="cls-8 severity-none" cx="256.74" cy="27.95" r="9.1"/><g class="severity-medium"><circle class="cls-2 severity-medium severity-medium" cx="256.74" cy="27.95" r="9.1"/><path class="cls-4 severity-medium" d="M256.74 18.85v18.1c-5 0-9.1-4.1-9.1-9.1s4.1-9 9.1-9Z"/></g></g><g id="damage-pill_fender_back_left"><circle class="cls-6 damage-pill-background" cx="230.41" cy="123.37" r="19.13"/><circle class="cls-3 severity-low" cx="230.41" cy="123.37" r="9.1"/><circle class="cls-5 severity-high" cx="230.41" cy="123.37" r="9.1"/><circle class="cls-8 severity-none" cx="230.41" cy="123.37" r="9.1"/><g class="severity-medium"><circle class="cls-2 severity-medium severity-medium" cx="230.41" cy="123.37" r="9.1"/><path class="cls-4 severity-medium" d="M230.41 114.27v18.1c-5 0-9.1-4.1-9.1-9.1s4.1-9 9.1-9Z"/></g></g><g id="damage-pill-pricing_fender_back_left"><path class="cls-6 damage-pill-background" d="M285.39 142.5h-54.98c-10.56 0-19.13-8.58-19.13-19.13 0-10.56 8.58-19.13 19.13-19.13h54.98c10.56 0 19.13 8.58 19.13 19.13 0 10.56-8.58 19.13-19.13 19.13Z"/><text class="cls-7 damage-pill-text" transform="translate(252.49 127.65)">9999€</text><circle class="cls-3 severity-low" cx="230.41" cy="123.37" r="9.1"/><circle class="cls-5 severity-high" cx="230.41" cy="123.37" r="9.1"/><circle class="cls-8 severity-none" cx="230.41" cy="123.37" r="9.1"/><g class="severity-medium"><circle class="cls-2 severity-medium severity-medium" cx="230.41" cy="123.37" r="9.1"/><path class="cls-4 severity-medium" d="M230.41 114.27v18.1c-5 0-9.1-4.1-9.1-9.1s4.1-9 9.1-9Z"/></g></g><g id="damage-pill_wheel_back_left"><circle class="cls-6 damage-pill-background" cx="198.84" cy="253.37" r="19.13"/><circle class="cls-3 severity-low" cx="198.84" cy="253.37" r="9.1"/><circle class="cls-5 severity-high" cx="198.84" cy="253.37" r="9.1"/><circle class="cls-8 severity-none" cx="198.84" cy="253.37" r="9.1"/><g class="severity-medium"><circle class="cls-2 severity-medium severity-medium" cx="198.84" cy="253.37" r="9.1"/><path class="cls-4 severity-medium" d="M198.84 244.27v18.1c-5 0-9.1-4.1-9.1-9.1s4.1-9 9.1-9Z"/></g></g><g id="damage-pill-pricing_wheel_back_left"><path class="cls-6 damage-pill-background" d="M253.82 272.51h-54.98c-10.56 0-19.13-8.58-19.13-19.13 0-10.56 8.58-19.13 19.13-19.13h54.98c10.56 0 19.13 8.58 19.13 19.13 0 10.56-8.58 19.13-19.13 19.13Z"/><text class="cls-7 damage-pill-text" transform="translate(220.92 257.66)">9999€</text><circle class="cls-3 severity-low" cx="198.84" cy="253.37" r="9.1"/><circle class="cls-5 severity-high" cx="198.84" cy="253.37" r="9.1"/><circle class="cls-8 severity-none" cx="198.84" cy="253.37" r="9.1"/><g class="severity-medium"><circle class="cls-2 severity-medium severity-medium" cx="198.84" cy="253.37" r="9.1"/><path class="cls-4 severity-medium" d="M198.84 244.27v18.1c-5 0-9.1-4.1-9.1-9.1s4.1-9 9.1-9Z"/></g></g></svg>
