<?xml version="1.0" encoding="UTF-8"?><svg id="Layer_1" xmlns="http://www.w3.org/2000/svg" viewBox="0 0 500 375"><defs><style>.cls-1{fill:none;stroke:#fff;stroke-linecap:round;stroke-linejoin:round;stroke-width:1px;}</style></defs><g id="door_back_left" class="selectable"><path class="cls-1" d="m470.1,93.7c-.7-2-5.8-6.7-8.1-12.9.04-.7.11-1.64.18-2.76-1.24,2.31-6.55,7-17.98,14.76-4.05,2.79-10.75,6.14-19.7,10.28.13,3.29,1.71,14.04,3.4,16.12,3.67,15.47-4.71,48.2-11.37,68.07l27.76-19.94c22.17-41.66,30.02-64.93,25.81-73.63Zm-1.2,13.3c-.3,1-2.7,2.2-3.4,2.6-.8.4-4.3,1.9-4.9,2.2-.6.3-1.5.4-1.6.2s-.9-2.9-.5-3.4c.3-.4,1.1-1,2.1-1.7.3-.2,3.3-1.6,3.8-1.9s1.9-.9,2.2-.9c.6-.1,2.2.7,2.3.8.2.5.3,1.1,0,2.1Z" /><path id="handle_back_left" class="cls-1" d="m468.9,107c-.3,1-2.7,2.2-3.4,2.6-.8.4-4.3,1.9-4.9,2.2-.6.3-1.5.4-1.6.2s-.9-2.9-.5-3.4c.3-.4,1.1-1,2.1-1.7.3-.2,3.3-1.6,3.8-1.9s1.9-.9,2.2-.9c.6-.1,2.2.7,2.3.8.2.5.3,1.1,0,2.1Z" /></g><g id="door_front_left" class="selectable"><path class="cls-1" d="m427.9,119.2c-1.69-2.08-3.27-12.83-3.4-16.12-6.76,3.12-14.78,6.69-23.9,10.82l-.16.3c1.42.73,2.4,1.45,2.66,2.1.9,2.21.37,5.98-.78,8.5h0c-.5,1.15-1.14,2.03-1.82,2.4-2.3,1.2-7.6,3.4-16.5,3.8-9,.5-20.7.2-23,.5-.15.02-.32.05-.52.1l.02.1c-10.6,4.6-18.5,7.9-20.4,8.6l-.12-.1c-1.32,8.64,2.43,12.98,4.52,16.9,6.1,10.96,7.43,39.92-1.06,82.65l73.09-52.48c6.66-19.87,15.04-52.6,11.37-68.07Zm-2.8,13.9c-.7,1.3-10.9,6.1-11.8,6.7-.3.1-3,.6-3.5.3-.2-.3-.3-3-.2-3.7.2-.6,2-2.1,3.1-2.9,1.1-.8,4.7-2.3,6.5-3.2,1-.5,3-1.4,3.5-1.7,1,.1,1.6.3,2.1,1,.4,1.1.4,2.5.3,3.5Z" /><path id="handle_front_left" class="cls-1" d="m425.1,133.1c-.7,1.3-10.9,6.1-11.8,6.7-.3.1-3,.6-3.5.3-.2-.3-.3-3-.2-3.7.2-.6,2-2.1,3.1-2.9,1.1-.8,4.7-2.3,6.5-3.2,1-.5,3-1.4,3.5-1.7,1,.1,1.6.3,2.1,1,.4,1.1.4,2.5.3,3.5Z" /></g><path id="mirror_left" class="selectable cls-1" d="m402.32,124.8h0c-.5,1.15-1.14,2.03-1.82,2.4-2.3,1.2-7.6,3.4-16.5,3.8-9,.5-20.7.2-23,.5-.15.02-.32.05-.52.1l.02.1c-10.6,4.6-18.5,7.9-20.4,8.6l-.12-.1c.25-1.72.71-3.61,1.42-5.7,2.65-7.53,9.34-22.11,16.68-36.36l.14.07v25.18c.66-.23,1.27-.33,1.98-.29.93.05,1.3.13,1.44.2-.22-.43-1.08-2.14-.64-3.1.5-1.1,5.3-11,9.4-12.2,4.1-1.2,5.8-1.7,9.3-.7,2.79.8,15.17,4.01,20.74,6.9,1.42.73,2.4,1.45,2.66,2.1.9,2.21.37,5.98-.78,8.5Z" /><path id="window_front_left" class="selectable cls-1" d="m424.5,103v.08c-6.76,3.12-14.78,6.69-23.9,10.82l-.16.3c-5.57-2.89-17.95-6.1-20.74-6.9-3.5-1-5.2-.5-9.3.7-4.1,1.2-8.9,11.1-9.4,12.2-.44.96.42,2.67.64,3.1-.14-.07-.51-.15-1.44-.2-.71-.04-1.32.06-1.98.29v-25.18l-.14-.07c8.44-16.41,17.74-32.41,22.72-36.74,1.55-1.35,3.12-2.65,4.74-3.9,8.1-6.26,17.2-11,28.46-11.5h.2c6.7,16.5,10.3,55.1,10.3,57Z" /><path id="window_back_left" class="selectable cls-1" d="m462.18,78.03h0c-1.24,2.32-6.55,7.01-17.98,14.77-4.05,2.79-10.75,6.14-19.7,10.28v-.08c0-1.9-3.6-40.5-10.3-57h-.2c.07,0,.13-.01.2-.01,9.11-.39,19.53.01,29.82,4.36h.01c4.91,2.07,9.78,5.04,14.47,9.25,4.05,5.67,3.97,13.64,3.68,18.43Z" /><path id="tail_light_left" class="selectable cls-1" d="m481.52,100.61c-.51-2.12-2.96-9.63-3.52-11.21-.59-1.67-2.81-4.77-5.72-8.85,3.03,2.23,5.65,3.48,8.22,6.05.57,1.22,1,6.89,1.02,14.01Z" /><path id="fender_back_left" class="selectable cls-1" d="m481.52,100.61v.02c.02,10.38-.85,23.83-3.52,31.07-.22.57-2.12,5.54-3.16,7.79,0,0,.21-2.17.22-2.21.56-2.3,1.3-5.67,2.44-10.58,1.2-7,.6-13.1-8-4.3-.12.11-.25.24-.38.37-5.45,5.65-15.25,27.94-21.05,41.85h-.01s-3.76,2.7-3.76,2.7c22.17-41.65,30.01-64.92,25.8-73.62-.7-2-5.8-6.7-8.1-12.9.04-.7.11-1.64.18-2.76h0c.29-4.8.37-12.77-3.68-18.44-4.69-4.21-9.56-7.18-14.47-9.25l13.73-1.05c7.45,7.22,10.56,26.94,11.44,28.7,1.08,1,2.09,1.82,3.07,2.54h.01c2.91,4.09,5.13,7.19,5.72,8.86.56,1.58,3.01,9.09,3.52,11.21Z" /><path id="roof" class="selectable cls-1" d="m457.76,49.3l-13.73,1.05h-.01c-10.29-4.35-20.71-4.75-29.82-4.36-.07,0-.13.01-.2.01-11.26.5-20.36,5.24-28.46,11.5h-14.14c-32.4-7.5-116.5-10-127.7-8.3-.27.12-.56.25-.85.39l-.66-1.38c.29-.14.57-.28.86-.41.28-.14.57-.27.85-.4,29.2-12.7,80.3-14.2,102.6-14,8.56.07,23.35.77,39.39,2.05,2.15.17,4.33.35,6.51.55,25.87,2.28,53.19,6.02,62,11.1,1.21.44,2.32,1.2,3.36,2.2Z" /><path id="rocker_panel_left" class="selectable cls-1" d="m444.3,167.32h-.01s-100.85,72.43-100.85,72.43l-7.69,5.52c-.71,3.81-2,7.34-3.95,10.15-5.17,8.25-6.22,11.8-6.38,12.39-.01.06-.02.09-.02.09,0,0,5.56-4.28,14.27-10.98,17.54-13.51,47.84-36.88,71.21-55.06.01,0,.01,0,.01,0,10.51-8.16,19.6-15.29,25.51-19.99.23-.18.45-.36.66-.53,3.5-2.8,5.76-4.65,6.34-5.23,0,0,1-2.55,2.63-6.55.6-1.46,1.28-3.12,2.03-4.92l-3.76,2.69Z" /><g id="wheel_back_left" class="selectable"><path class="cls-1" d="m474.9,128.6c-1.6-4.5-3.2-5.4-5.2-5.8l-.58-.03c-6.16,6.38-17.86,33.99-23.09,46.78-1.63,4-2.63,6.55-2.63,6.55-.58.58-2.84,2.43-6.34,5.23l.14.17c4.5,2.1,10.4,3.5,14.2,3.4,3.8-.1,8.2-5.2,10.7-9.5,3.5-6.7,9.2-21.6,11.2-29.1.4-1.5.95-3.87,1.38-6.47l.37-2.51c.4-3.25.52-6.57-.15-8.72Zm-9.72,29.96c-3.67,8.96-8.21,15.58-10.15,14.79-1.93-.79-.53-8.7,3.13-17.66,3.67-8.96,8.21-15.59,10.15-14.8,1.93.8.53,8.7-3.13,17.67Z" /><path class="cls-1" d="m465.18,158.56c-3.67,8.96-8.21,15.58-10.15,14.79-1.93-.79-.53-8.7,3.13-17.66,3.67-8.96,8.21-15.59,10.15-14.8,1.93.8.53,8.7-3.13,17.67Z" /></g><g id="wheel_front_left" class="selectable"><path class="cls-1" d="m328.6,236.6c-1-7.9-3.5-14.1-11.1-18.1-7.7-4.1-10.1-4.3-10.1-4.3l-.07-.18c-16.31,6.41-33.92,24.44-44.03,41.48-2.8,4.57-5.23,9.03-7.35,13.36-9.01,18.38-12.37,34.33-14.09,45.32l.14.02c2.8,2.3,11.9,11.5,19.1,13.9,3.8,1.2,12.6,4.4,24.3-3.4,11.7-7.8,27.4-25,36-47.2,1.29-3.06,2.51-6.33,3.58-9.82,2.72-8.94,4.41-19.28,3.62-31.08Zm-21.92,50.61c-10.06,17.43-24.33,28.04-31.86,23.69-7.53-4.35-5.48-22.01,4.58-39.44s24.33-28.03,31.86-23.68c7.53,4.35,5.48,22-4.58,39.43Z" /><path class="cls-1" d="m306.68,287.21c-10.06,17.43-24.33,28.04-31.86,23.69-7.53-4.35-5.48-22.01,4.58-39.44s24.33-28.03,31.86-23.68c7.53,4.35,5.48,22-4.58,39.43Z" /></g><path id="fender_front_left" class="selectable cls-1" d="m343.44,239.75l-7.69,5.52c2.54-13.61-2.29-30.9-10.65-32.77-5.39-1.7-11.49-.95-17.77,1.52-16.31,6.41-33.92,24.44-44.03,41.48-2.8,4.57-5.23,9.03-7.35,13.36l-25.65-16.76c6.9-7.4,26.1-49.9,21-51.9v-.3c10.4-5.4,58.6-24.9,62.2-37,3.3-19.8,4.4-25.9-2.6-27.5v-.1c6.91-.69,15.47-1.61,20-2.7l9.08,7.6c-1.32,8.64,2.43,12.98,4.52,16.9,6.1,10.96,7.43,39.92-1.06,82.65Z" /><path id="license_plate_front" class="selectable cls-1" d="m69.63,304.86s-.04-.05-.13-.15l-32.55-38.37-5.47-17.99s.03.03.08.09c.03.02.06.06.1.1t.02.02c2.72,2.75,31.83,32.27,36.44,37.36l.55,6.95.89,11.19c.01.13.02.24.03.34l.03.38s.01.08.01.08Z" /><path id="grill_radiator" class="selectable cls-1" d="m80.6,296.7c-3.2.39-8.88-2.43-11.93-3.83l-.55-6.95c-4.61-5.09-33.72-34.61-36.44-37.36t-.02-.02s-.07-.08-.1-.1c-.05-.06-.08-.09-.08-.09,0,0-6.59-10.05-6.96-11.29-4.38-14.57-7.42-27.78-7.9-34.35h.08c11,29.89,53.8,53.29,73.3,69.29,7.7,4.6-5.2,24.4-9.4,24.7Z" /><path id="fog_light_front_left" class="selectable cls-1" d="m195.4,314c-7.3.5-33.1-.5-37.4-1.9-2.6-3.2,26.3-27.2,30.3-29.2s24.1-8.7,25.3-7.9c2.1,1.6-16.5,30.3-18.2,39Z" /><path id="bumper_front" class="selectable cls-1" d="m230.3,252.1c-6.9,7.5-31.8,11.6-43.4,11.2-11.6-.4-47.9,7.5-58.8,5.1-10.6-2.3-28.3-9.5-31.7-17.7-.19-4.62,21.62-12.65,28.63-15.22l-.03-.08c-6.8-2.3-13-6.1-20.3-10.2-9.6-5.3-51.1-28.8-67-53l-.05-.05c-6.17,5.8-10.67,10.22-11.75,11.45l-.1-.06c-3.23,5.56-6.36,11.85-9.2,18.96,0,.07.01.14.02.21h.08c11,29.89,53.8,53.29,73.3,69.29,7.7,4.6-5.2,24.4-9.4,24.7-3.2.39-8.88-2.43-11.93-3.83l.89,11.19c.01.13.02.24.03.34l.03.38s.01.08.01.08c0,0-.04-.05-.13-.15l-32.55-38.37-5.47-17.99s-6.59-10.05-6.96-11.29c2.66,8.84,5.8,18.18,9.18,26.84,9.1,23.2,42.2,73.2,89.6,80.9,42.6,6.4,79.9,9.8,116.2-16.1.83-2.22,1.24-7.3,2.36-14.52,1.72-10.99,5.08-26.94,14.09-45.32l-25.65-16.76Zm-34.9,61.9c-7.3.5-33.1-.5-37.4-1.9-2.6-3.2,26.3-27.2,30.3-29.2s24.1-8.7,25.3-7.9c2.1,1.6-16.5,30.3-18.2,39Z" /><path id="head_light_left" class="selectable cls-1" d="m230.3,252.1c-6.9,7.5-31.8,11.6-43.4,11.2-11.6-.4-47.9,7.5-58.8,5.1-10.6-2.3-28.3-9.5-31.7-17.7-.19-4.62,21.62-12.65,28.63-15.22.28-.1.54-.2.77-.28,6-2.1,123-33.9,125.5-35,5.1,2-14.1,44.5-21,51.9Z" /><path id="head_light_right" class="selectable cls-1" d="m84.4,132.9c-10.53,6.16-32.86,26.19-46.75,39.25-6.17,5.8-10.67,10.22-11.75,11.45l-.1-.06c8.49-14.61,17.61-24.09,23.7-29.74,11.25-10.47,28.04-17.65,34.88-20.94l.02.04Z" /><path id="hood" class="selectable cls-1" d="m313.5,162.9c-3.6,12.1-51.8,31.6-62.2,37v.3c-2.5,1.1-119.5,32.9-125.5,35-.23.08-.49.18-.77.28l-.03-.08c-6.8-2.3-13-6.1-20.3-10.2-9.6-5.3-51.1-28.8-67-53l-.05-.05c13.89-13.06,36.22-33.09,46.75-39.25l-.02-.04c1.07-.52,1.89-.94,2.42-1.26,17.4-10.8,61.6-27.3,82.6-33.2l2.3,2.5c13.5,13.7,121.4,37.6,137.1,34.6.67-.07,1.37-.13,2.09-.2v.1c7.01,1.6,5.91,7.7,2.61,27.5Z" /><path id="windshield_front" class="selectable cls-1" d="m371.4,57.5c-4.2,12.4-25.3,43.4-40.5,75.1-4.53,1.09-13.09,2.01-20.01,2.7-.72.07-1.42.13-2.09.2-15.7,3-123.6-20.9-137.1-34.6,1.08-2.66,52.84-42.72,71.15-51.31.29-.14.58-.27.85-.39,11.2-1.7,95.3.8,127.7,8.3Z" /><path id="background" class="cls-1" d="m242.85,49.59c-18.31,8.59-70.07,48.65-71.15,51.31l-2.3-2.5c17.34-12.74,45.43-37.37,72.79-50.19l.66,1.38Z" /><path id="pillar" class="selectable cls-1" d="m385.54,57.5c-1.62,1.25-3.19,2.55-4.74,3.9-9.3,8.1-33.7,56.9-39.4,73.1-.71,2.09-1.17,3.98-1.42,5.7l-9.08-7.6c15.2-31.7,36.3-62.7,40.5-75.1h14.14Z" /><path id="background-2" class="cls-1" d="m477.5,126.7c-1.14,4.91-1.89,8.32-2.45,10.62.4-3.25.52-6.57-.15-8.72-1.6-4.5-3.2-5.4-5.2-5.8l-.58-.03c.13-.13.26-.26.38-.37,8.6-8.8,9.2-2.7,8,4.3Z" /><path id="background-3" class="cls-1" d="m335.75,245.27c-.71,3.81-2,7.34-3.95,10.15-5.17,8.25-6.22,11.8-6.38,12.39l-.44-.13c2.72-8.94,4.41-19.28,3.62-31.08-1-7.9-3.5-14.1-11.1-18.1-7.7-4.1-10.1-4.3-10.1-4.3l-.07-.18c6.28-2.47,12.38-3.22,17.77-1.52,8.36,1.87,13.19,19.16,10.65,32.77Z" /></svg>