<svg id="Layer_1" xmlns="http://www.w3.org/2000/svg" viewBox="0 0 500 375"><defs><style>.cls-1{fill:none;stroke:#fff;stroke-linecap:round;stroke-linejoin:round;stroke-width:1px}</style></defs><path id="fender_front_right" class="selectable cls-1" d="M428.82 180.69s2.45 15.57 2.03 20.94c-.53 6.8.67 8.89-.24 12.35.34-.66.65-1.26.92-1.78.22-.42.45-.83.69-1.22 3.74-6.24 8.66-8.07 9.51-1.58.8 6.9-2 17.9-2.7 19l.06.07c1.67-1.52 6.01-6.68 6.49-19.55.06-1.53-.51-3.03-1.55-4.16-.36-.39-.72-.82-1.1-1.36-1-1.3 0-17.2-2.7-23.8v-.21c-1.39 0-2.67-.04-3.6-.08v.09s.2 1.3 0 1.8c-.42.65-3.75.29-7.81-.52h0Z"/><path id="window_front_right" class="selectable cls-1" d="M405.33 165.5c.2 1.4 1.5 8.4 9.8 11.4 3.23 1.29 8.95 2.85 13.69 3.78v-2.13s-.57-6.83-.39-9.95l-.13-12.78c-4.22-11.02-10.21-26.57-11.17-28.42-1.3-2.8-11.5-8.5-12.7-7.3-1.3 3.7.7 44.1.9 45.4Z"/><path id="mirror_left" class="selectable cls-1" d="M428.3 155.82c2.4 6.27 4.23 11.08 4.23 11.08h.07c.06-.79.14-1.73.28-2.71 0-.01.01-.01 0-.02.52-3.5 1.76-7.62 4.75-8.07a19.8 19.8 0 0 1 4-.29c.12 0 .24.01.35.02.13.01.25.02.37.02h.01c.14 0 .27.02.41.04h.01c3 .31 5.4 1.38 6.45 3.01 1.6 2.5 2.3 11.7 2.2 14.6 0 2-.3 4-2.6 5-.88.38-2.44.61-4.19.74-1.42.11-2.98.15-4.41.15s-2.67-.04-3.6-.08v.09s.2 1.3 0 1.8c-.42.65-3.75.29-7.81-.52v-2.13s-.57-6.83-.39-9.95l-.13-12.78Z"/><g id="door_front_right" class="selectable"><path class="cls-1" d="M400.33 221.6c.5-6.4.1-107.3.1-109.5.57-.95 13.71 5.47 16.53 9.72.01.01.02.02.01.03 2.48 5.94 7.56 19.58 11.33 29.8v4.17c-4.22-11.02-10.21-26.57-11.17-28.42-1.3-2.8-11.5-8.5-12.7-7.3-1.3 3.7.7 44.1.9 45.4.2 1.4 1.5 8.4 9.8 11.4 3.23 1.29 8.95 2.85 13.69 3.78h0s2.45 15.58 2.03 20.95c-.53 6.8.67 8.89-.24 12.35l-.01.02c-.63 1.24-1.37 2.7-2.16 4.3-.22.46-.46.92-.7 1.4-.82 1.66-1.68 3.43-2.55 5.21l-.75 1.53c-1.06 2.17-2.1 4.33-3.06 6.3L397 242.19c1.99-7.77 2.99-16.2 3.33-20.59Zm3.66-35.54s6.34.44 6.74-.06c.4-.5.6-2.5.3-2.5s-6.6-.27-7.1.33l.06 2.23Z"/><path id="handle_front_right" class="cls-1" d="m403.93 183.83.06 2.23s6.34.44 6.74-.06c.4-.5.6-2.5.3-2.5s-6.6-.27-7.1.33Z"/></g><path id="fender_back_right" class="selectable cls-1" d="M320.76 82.3c1.91 17.83-.62 62.16-1.1 80.21 2.42 6.4.48 34.37-2.43 39.41l-4.1 72.75-7.54 2.93-4.37 1.69c.07-.5.11-1.01.15-1.54.11-1.7.05-3.55-.24-5.55-5.7-19.7-21.6-20.4-36.5-12.7-19.56 3.49-72.09 19.84-88.7 23.48.02-1.67.99-85.61 0-88.78-1-3.2-14.5-8.1-15.5-8.7V36.13s94.2 27.11 160.33 46.17Z"/><g id="door_back_right" class="selectable"><path class="cls-1" d="M317.23 201.92c2.91-5.04 4.85-33.01 2.43-39.41.48-18.05 3.01-62.38 1.1-80.21 32.99 9.5 58.99 17.01 62.82 18.14a156.47 156.47 0 0 1 16.85 6.06v5.6c0 2.2.4 103.1-.1 109.5-.34 4.39-1.34 12.82-3.33 20.59l-83.87 32.48 4.1-72.75Zm76.45-15.74c.45-.57.3-2.18 0-2.83-2.55-.38-6.3-.41-8.21 0l-.05 2.62s5.93.43 8.26.21Z"/><path id="handle_back_right" class="cls-1" d="M385.42 185.97s5.93.43 8.26.21c.45-.57.3-2.18 0-2.83-2.55-.38-6.3-.41-8.21 0l-.05 2.62Z"/></g><path id="background" class="cls-1" d="M438.39 229h.04s.25-.16.66-.53l-.06-.07c.7-1.1 3.5-12.1 2.7-19-.85-6.49-5.77-4.66-9.51 1.58 5.46 1.63 6.62 8.45 6.17 18.02Z"/><path id="background-2" class="cls-1" d="m257.35 265.32.08.08c3.6-.4 7-.2 10.2.6 16.21 4.3 23.81 15.46 25.67 28.41.94-1.32 3.51-3.71 5.5-7.52 1.87-3.56 3.24-8.35 2.33-14.69-5.7-19.7-21.6-20.4-36.5-12.7-2.49 1.55-4.92 3.53-7.28 5.82Z"/><g id="trunk" class="selectable"><path id="windshield_back" class="cls-1" d="M93.43 73.9s-.03-.05-.04-.07c19.63-7.09 41.37-12.7 46.44-9.53l-1.2 115.6s-9.4 11.6-15.5 12.5c-3.18.47-19.21-2.63-33.8-5.7.03-.06.07-.13.1-.2-1.7-20 .9-95.9 4-112.6Zm-34.2 17.3c.71-3.49 16.59-11.03 34.16-17.37 19.63-7.09 41.37-12.7 46.44-9.53l-1.2 115.6s-9.4 11.6-15.5 12.5c-3.18.47-19.21-2.63-33.8-5.7-13.35-2.81-25.5-5.6-25.5-5.6s-7.3-6-8-13.7 2.2-70.4 3.4-76.2Z"/><path class="cls-1" d="M87.03 195.2c.79-4.72.41-4.61 2.3-8.5-13.35-2.81-25.5-5.6-25.5-5.6s-7.3-6-8-13.7 2.2-70.4 3.4-76.2c.71-3.49 16.59-11.03 34.16-17.37-1.28-2.08-2.36-4.46-2.56-6.93-.01-.15-.02-.31-.03-.49.01-.03 0-.05 0-.08-.14-4.09.1-15.43 1.75-22.97-5.98 2-11.82 4.51-17.32 7.66-4.7 2.68-9.16 5.83-13.24 9.53-.02.01-.03.02-.04.03-1.16 1.25-2.15 2.54-2.82 3.82-3.5 6.7-5.3 14.4-7.3 30.2-2 15.8-1.2 131.9-.6 142.8l.4.4.6 2.4.05.21h.05c1.4 26.49 12.2 35.69 14 37.19 1.61 1.4 12.07 9.07 24.37 17.84l.03-.04c-8.2-23.8-4.7-91.7-3.7-100.2Zm-27.45 68.62-1.7-14.17 23.55 12.89 1.56 21.37-23.41-20.09ZM92.55 43.36c-5.98 2-11.82 4.51-17.32 7.66-4.7 2.68-9.16 5.83-13.24 9.53-.02.01-.03.02-.04.03-1.16 1.25-2.15 2.54-2.82 3.82-3.5 6.7-5.3 14.4-7.3 30.2-2 15.8-1.2 131.9-.6 142.8l.4.4.6 2.4.05.21h.05c1.4 26.49 12.2 35.69 14 37.19 1.61 1.4 12.07 9.07 24.37 17.84 15.88 11.34 34.82 24.5 41.71 28.35.08-1.16.19-2.35.32-3.59.84-7.59 3.36-23.19 3.67-25.1l.03-.2 10.8-3.7v-.03c-1.38-.61-2.6-1.17-2.6-1.17l.1-97s5.8-7 6.8-7.5 7.9-.6 8.9 0V36.13c-14.37-.51-42.33-1.32-67.88 7.23ZM59.58 263.82l-1.7-14.17 23.55 12.89 1.56 21.37-23.41-20.09Zm44.09-50c-.34.9-12.52-2.14-12.97-3.61-.24-1.1-.2-2.76.11-4l13.28 2.81s-.08 3.9-.42 4.8Zm34.96-33.92s-9.4 11.6-15.5 12.5c-3.18.47-19.21-2.63-33.8-5.7-13.35-2.81-25.5-5.6-25.5-5.6s-7.3-6-8-13.7 2.2-70.4 3.4-76.2c.71-3.49 16.59-11.03 34.16-17.37 19.63-7.09 41.37-12.7 46.44-9.53l-1.2 115.6Zm-34.54 29.12s-.08 3.9-.42 4.8c-.34.9-12.52-2.14-12.97-3.61-.24-1.1-.2-2.76.11-4l13.28 2.81Z"/></g><path id="license_plate_back" class="selectable cls-1" d="m82.99 283.91-23.41-20.09-1.7-14.17 23.55 12.89 1.56 21.37z"/><path id="tail_light_right" class="selectable cls-1" d="M144.63 290s1.22.56 2.61 1.17c1.53.67 3.27 1.38 3.79 1.43 1 .1 14.8.9 19.9-.7 2.17-.68 3.4-2.4 4.09-4.14.94-2.35.91-4.76.91-4.76v-.02c.02-1.67.99-85.61 0-88.78-1-3.2-14.5-8.1-15.5-8.7-1-.6-7.9-.5-8.9 0s-6.8 7.5-6.8 7.5l-.1 97Z"/><g id="wheel_back_right" class="selectable"><path class="cls-1" d="M223.63 321.6c1.42-1.42 15.26-38.38 33.72-56.28l.08.08c3.6-.4 7-.2 10.2.6 16.21 4.3 23.81 15.46 25.67 28.41.09.62.17 1.26.23 1.89.85 8.48-.65 17.6-3.7 26-9.2 25.4-21.3 38.1-38.9 38.1-19.7-4.2-31.5-16.2-35.3-35l-.07-.17c4.61-1.91 7.71-3.27 8.07-3.63Zm35.88 25.6c8.61 2.39 19.28-9 23.84-25.43 4.56-16.44 1.28-31.7-7.33-34.09-8.6-2.39-19.27 9-23.83 25.44-4.56 16.44-1.28 31.7 7.32 34.08Z"/><path class="cls-1" d="M259.51 347.2c8.61 2.39 19.28-9 23.84-25.43 4.56-16.44 1.28-31.7-7.33-34.09-8.6-2.39-19.27 9-23.83 25.44-4.56 16.44-1.28 31.7 7.32 34.08Z"/></g><g id="wheel_front_right" class="selectable"><path class="cls-1" d="M417.13 241.6s1.02-2.14 2.55-5.31c3.02-6.29 8.02-16.62 10.92-22.29l.01-.02c.34-.66.65-1.26.92-1.78.22-.42.45-.83.69-1.22 5.46 1.63 6.62 8.45 6.17 18.02-.04.85-.09 1.71-.16 2.6-.9 13.3-5.3 25.1-13.8 25.1-7.4 0-13.6-2.2-15.1-11.5l-.05-.12 7.85-3.48Zm10.56 10.02c2.36.47 5.57-5.61 7.17-13.59 1.61-7.97.99-14.82-1.37-15.3-2.36-.47-5.57 5.61-7.17 13.59-1.6 7.97-.99 14.82 1.37 15.3Z"/><path class="cls-1" d="M427.69 251.62c2.36.47 5.57-5.61 7.17-13.59 1.61-7.97.99-14.82-1.37-15.3-2.36-.47-5.57 5.61-7.17 13.59-1.6 7.97-.99 14.82 1.37 15.3Z"/></g><path id="bumper_back" class="selectable cls-1" d="M147.95 298.97c.09-.05.18-.07.28-.07 3.4-.2 23 0 26.9-11.1l-.11-.04c.94-2.35.91-4.76.91-4.76v-.02c16.61-3.64 69.14-19.99 88.7-23.48-2.49 1.55-4.92 3.53-7.28 5.82-18.46 17.9-32.3 54.86-33.72 56.28-.36.36-3.46 1.72-8.07 3.63-16 6.62-50.13 19.77-50.13 19.77s-18.9 8.71-32.58 9v-.11c13.04-.83 11.21-52.74 15.1-54.92Zm-11.52-4.07 10.8-3.7v-.03c1.54.67 3.28 1.38 3.8 1.43 1 .1 14.8.9 19.9-.7 2.17-.68 3.4-2.4 4.09-4.14l.11.04c-3.9 11.1-23.5 10.9-26.9 11.1-.1 0-.19.02-.28.07l-11.32-3.87h-.23l.03-.2Zm-94-39.4s1.3-13.5 2-15.9c1.3-1.1 4.2-1.3 6.8-2.2l.4.4.6 2.4.05.21h.05c1.4 26.49 12.2 35.69 14 37.19 1.61 1.4 12.07 9.07 24.37 17.84 15.88 11.34 34.82 24.5 41.71 28.35.08-1.16.19-2.35.32-3.59.84-7.59 3.36-23.19 3.67-25.1l.03-.2 10.8-3.7v-.03c1.54.67 3.28 1.38 3.8 1.43 1 .1 14.8.9 19.9-.7 2.17-.68 3.4-2.4 4.09-4.14l.11.04c-3.9 11.1-23.5 10.9-26.9 11.1-.1 0-.19.02-.28.07-3.89 2.18-2.06 54.09-15.1 54.92v.11c-.11.01-.21.01-.32.01-2.13.03-4.13-.15-5.9-.61-13.2-3.4-48.6-29.7-56-36.6-7.4-6.9-23.1-22.3-26.4-30.9-3.3-8.6-1.8-30.4-1.8-30.4Zm1.57 3.73c.13-4.05 1.83-17.43 1.83-17.43l6.45-1.39h.05c1.4 26.49 12.2 35.69 14 37.19 1.61 1.4 12.07 9.07 24.37 17.84 15.88 11.34 34.82 24.5 41.71 28.35-1.07 13.23-.38 20.88-10.68 17.11-23.1-8.5-75.39-48.48-77.09-62.58-.7-5.41-.86-12.39-.64-19.09Z"/><path id="rocker_panel_right" class="selectable cls-1" d="M298.8 286.89c.27-.52.53-1.07.78-1.64.11-.26.22-.52.32-.79.21-.54.4-1.09.57-1.67.06-.19.12-.38.17-.58.13-.5.25-1.02.36-1.56l.09-.51c.05-.28.09-.56.13-.84h0l4.37-1.7 7.54-2.93L397 242.19l24.38-9.45c-.06.11-.11.23-.16.34-.22.45-.43.88-.63 1.31-.32.66-.62 1.3-.91 1.9-1.53 3.17-2.55 5.31-2.55 5.31l-7.85 3.48-15.65 6.92-100.1 44.3c-.06-.63-.14-1.27-.23-1.89.94-1.32 3.51-3.71 5.5-7.52Z"/><path id="background-3" class="cls-1" d="M432.88 164.17v.02c-.14.98-.22 1.92-.28 2.71h-.07s-1.83-4.81-4.23-11.08v-4.16c2.4 6.52 4.26 11.64 4.58 12.51Z"/><path id="roof" class="selectable cls-1" d="M61.95 60.58s.02-.02.04-.03c4.08-3.7 8.54-6.85 13.24-9.53 5.5-3.15 11.34-5.66 17.32-7.66 25.55-8.55 53.51-7.74 67.88-7.23 0 0 94.2 27.11 160.33 46.17 32.99 9.5 58.99 17.01 62.82 18.14a156.47 156.47 0 0 1 16.85 6.06v5.6c.57-.95 13.71 5.47 16.53 9.72-.43-1.02-.78-1.82-1.03-2.32-.52-1.07-1.72-3.63-3.45-6.84-3.28-6.07-8.47-14.49-14.55-19.66-9.3-7.9-40.1-16.4-40.1-16.4l-145.9-45.4s-29.23-9.19-39.17-11.12c-7.81-1.52-25.61-2.54-36.98-.14-7.24 1.53-50.35 15.64-63.81 24.73-6.17 4.17-10.02 15.91-10.02 15.91Z"/></svg>
