<?xml version="1.0" encoding="UTF-8"?><svg id="Layer_1" xmlns="http://www.w3.org/2000/svg" viewBox="0 0 500 375"><defs><style>.cls-1{fill:none;stroke:#fff;stroke-linecap:round;stroke-linejoin:round;stroke-width:1px;}</style></defs><g id="door_front_right" class="selectable"><path class="cls-1" d="m74.45,114.5c1.29-4.08,3.08-6.87,6.55-10.35,8.3,3.06,14.68,5.38,15.25,5.55l.02.04h-.01c-4.85,2.33-9.78,5.77-10.21,6.06-.6.4.7,3,1.8,4.9,1.32,1.65,2.66,3,3.98,4.11,3.97,3.33,7.8,4.49,10.72,5.09,3.6.8,33.5-.5,35.6-.5s9.3,1.1,10.4,1.2c1.2.1,7.5,2.7,7.5,2.7l.2.7c-1.2,6.2-2.4,8.8-1.9,14.4.07.69.14,1.45.23,2.27.03.27.06.55.09.84.15,1.44.32,3.04.52,4.8.07.71.15,1.43.24,2.18.04.38.08.76.13,1.14.07.7.16,1.42.24,2.15.2,1.77.41,3.62.64,5.56.13,1.15.27,2.33.41,3.53.08.71.17,1.43.25,2.17.1.79.19,1.59.29,2.4.15,1.25.3,2.51.45,3.8.06.53.12,1.06.19,1.6.08.68.16,1.37.24,2.06.07.51.13,1.02.19,1.54.44,3.69.9,7.47,1.36,11.27.07.56.14,1.13.21,1.69.91,7.46,1.84,14.94,2.7,21.91.1.8.2,1.58.3,2.36.61,4.85,1.18,9.39,1.7,13.45-1.56,1.8-4.86,1.06-7.7-.74-1.8-1.14-42.24-29.19-71.64-49.8-7.48-34.13-10.35-52.44-11.09-61.86-.36-4.56-.21-7.03.15-8.22Zm2.1,10.6c1.2,2.7,15.2,6.1,15.4,5.5.2-.6.5-2.5.4-3.2-.06-.44-1.06-1.27-2.04-2-.6-.43-1.18-.84-1.56-1.1-1.1-.6-5.8-2.7-7.8-3.2-2.5-.6-4.8-.5-4.9.1,0,.29-.21.62-.15,1.4.03.56.19,1.34.65,2.5Z" /><path id="handle_front_right" class="cls-1" d="m75.9,122.6c.03.56.19,1.34.65,2.5,1.2,2.7,15.2,6.1,15.4,5.5.2-.6.5-2.5.4-3.2-.06-.44-1.06-1.27-2.04-2-.6-.43-1.18-.84-1.56-1.1-1.1-.6-5.8-2.7-7.8-3.2-2.5-.6-4.8-.5-4.9.1,0,.29-.21.62-.15,1.4Z" /></g><g id="door_back_right" class="selectable"><path class="cls-1" d="m34.45,96.5c.79-3.17,5.51-5.75,7.83-6.87,6.95,2.74,25.33,9.59,38.72,14.52-3.47,3.48-5.26,6.27-6.55,10.35-.36,1.19-.51,3.66-.15,8.22.74,9.42,3.61,27.73,11.09,61.86-11-7.71-20.45-14.37-25.76-18.2-1.45-1.05-2.99-2.83-3.83-4.76-9.18-21.09-23.61-55.36-21.35-65.12Zm1.9,10.1c.7,1.7,10,3.7,10.2,3.3.2-.4.2-1.7,0-2.8-.2-1.1-1.8-1.6-2.3-2.1,0,0-3.4-1.6-4.9-1.9-1.5-.3-3.5.4-3.5.4,0,0-.2,1.4.5,3.1Z" /><path id="handle_back_right" class="cls-1" d="m36.35,106.6c.7,1.7,10,3.7,10.2,3.3.2-.4.2-1.7,0-2.8-.2-1.1-1.8-1.6-2.3-2.1,0,0-3.4-1.6-4.9-1.9-1.5-.3-3.5.4-3.5.4,0,0-.2,1.4.5,3.1Z" /></g><path id="tail_light_right" class="selectable cls-1" d="m18.58,102.85c.58-3.15,3.89-15.08,4.97-17.15l-.07-.11s-.02.01-.03.01c-1.2.3-5.8,2.4-7,4.4-.55.92.65,6.7,2.13,12.85Z" /><path id="fender_back_right" class="selectable cls-1" d="m22.55,125.7c.36,1.81,6.56,15.37,7.71,17.9-.35-2.13-.68-4.42-.9-6.62l-.21.02c-.3-.4-1.4-2.7-2.2-5.5-1.2-4.1-.2-10.8,1.6-12.2,1.12-1.06,3.8,1.42,6.46,4.61h.01c2.34,2.82,4.66,6.17,5.83,8.09,3,4.9,11,22.2,12.8,26.3.3.68.63,1.53.97,2.48,0,0,.41.29,1.17.84-9.17-21.09-23.6-55.36-21.34-65.12.79-3.17,5.51-5.75,7.83-6.87-1.49-.58-2.45-.98-2.73-1.13-2.7-3.1-3.9-8.9-3.9-10.7,2.71-3.49,12.57-12.32,21.16-17.63l-6.09-1.29c-10.68,9.3-25.7,25.83-27.2,26.69-.01.01-.03.01-.04.02l.07.11c-1.08,2.07-4.39,14-4.97,17.15,1.74,7.23,3.86,14.98,3.97,15.95.2,1.5-.2,5.6,0,6.9Z" /><path id="quarter_window_back_right" class="selectable cls-1" d="m35.65,77.8c0,1.8,1.2,7.6,3.9,10.7.28.15,1.24.55,2.73,1.13.03-.01.05-.02.07-.03.5-3.2,9.5-23.4,14.6-29.4l-.14-.03c-8.59,5.31-18.45,14.14-21.16,17.63Z" /><path id="window_back_right" class="selectable cls-1" d="m42.28,89.63c6.95,2.74,25.33,9.59,38.72,14.52.02-.02.03-.03.05-.05,2.17-18.7,11.5-50.1,12.56-53.56,0-.05.03-.1.04-.14h-.04c-.53-.03-.99-.02-1.36,0-7.6,0-21.5,2.3-31.8,7.7-1.14.58-2.33,1.26-3.55,2.01-.03.02-.06.04-.09.06l.14.03c-5.1,6-14.1,26.2-14.6,29.4-.02,0-.04.02-.07.03Z" /><path id="window_front_right" class="selectable cls-1" d="m81,104.15c8.3,3.06,14.68,5.38,15.25,5.55l.02.04c1.9-.89,3.78-1.63,5.38-1.94,5.7-1.1,17.7-4.4,21.1-3.4,3.4,1,10.4,7.3,12.4,14.6.5,1,6.5-.3,6.5-.3,0,0,11.1,3.9,13.9,5.4l.2-.1c-3.4-5.9-20.6-48.4-30.5-61-11.92-10.83-26-12.55-31.6-12.61h-.04.04s-.03.1-.04.15c-1.06,3.46-10.39,34.86-12.56,53.56-.02.02-.03.03-.05.05Z" /><path id="mirror_right" class="selectable cls-1" d="m87.85,120.7c1.32,1.65,2.66,3,3.98,4.11,3.97,3.33,7.8,4.49,10.72,5.09,3.6.8,33.5-.5,35.6-.5s9.3,1.1,10.4,1.2c1.2.1,7.5,2.7,7.5,2.7l-.5-9.2c-2.8-1.5-13.9-5.4-13.9-5.4,0,0-6,1.3-6.5.3-2-7.3-9-13.6-12.4-14.6-3.4-1-15.4,2.3-21.1,3.4-1.6.31-3.48,1.05-5.38,1.94h-.01c-4.85,2.33-9.78,5.77-10.21,6.06-.6.4.7,3,1.8,4.9Z" /><path id="pillar" class="selectable cls-1" d="m125.25,63c9.9,12.6,27.1,55.1,30.5,61l14.2,4.3c-3-3-33.1-65.8-33.5-66.4l-11.2,1.1Z" /><path id="background" class="cls-1" d="m259.55,55.3c5.12,1.18,43.22,29.71,59.09,43.34l.71-1.84c-1.29-1.14-3.8-3.23-7.15-5.93-3.36-2.71-7.57-6.03-12.21-9.6-11.71-9.04-26.14-19.65-36.51-25.97h-3.93Z" /><path id="roof" class="selectable cls-1" d="m56.55,54.3c7-4.7,21.7-8.8,35.8-9.5,4.01-.2,12.19-.64,22.48-1.12,1.36-.07,2.77-.13,4.21-.21,1.12-.04,2.26-.1,3.41-.14,25.75-1.17,60.05-2.37,77.3-1.33,2.36.14,5.09.29,8.11.48,11.93.79,28.51,2.39,45.99,7.82,2.4.85,5.73,2.62,9.63,5h-3.93c-20.4-2.9-107.1,2.7-123.1,6.6l-11.2,1.1c-11.92-10.83-26-12.55-31.6-12.61h-.04c-.53-.02-.99-.01-1.36.01-7.6,0-21.5,2.3-31.8,7.7-1.14.58-2.33,1.26-3.55,2.01-.03.02-.06.04-.09.06l-6.09-1.29c2.17-1.89,4.17-3.48,5.83-4.58Z" /><path id="windshield_front" class="selectable cls-1" d="m136.45,61.9c.4.6,30.5,63.4,33.5,66.4.92.92,3.68,1.66,7.57,2.21,8.73,1.22,23.21,1.48,35.73.79,10.1-.2,112.1-22.5,112.3-25.7.04-.68-2.62-3.28-6.91-6.96-15.87-13.63-53.97-42.16-59.09-43.34-20.4-2.9-107.1,2.7-123.1,6.6Z" /><path id="hood" class="selectable cls-1" d="m184.25,155.4c3.9,5.6,71.8,33.5,88.3,41.4,21.81,10.46,49.98,28.26,58.4,34.53,2.06.21,4.2.42,6.39.64,74.85-25.6,127.51-59.68,128.31-75.77l.07-.08c-17.47-14.79-39.96-24.86-53.27-30.82-15.9-7.1-75.1-25.4-93.1-28.5l-.71,1.84c4.29,3.68,6.95,6.28,6.91,6.96-.2,3.2-102.2,25.5-112.3,25.7-12.52.69-27,.43-35.73-.79-.28,2.78,2.94,19.45,6.73,24.89Zm281.4.8l.07-.08c7.46,6.32,14.01,13.5,18.53,21.58.22.69.42,1.42.59,2.18l-.09.02c.5,9.7-20.3,60.99-69.89,62.9.03-.2.02-.37-.01-.5-.5-1.9-2.4-3.8-3.4-3.9-.59-.07-42.87-3.35-74.11-6.43,74.85-25.6,127.51-59.68,128.31-75.77Z" /><path id="fender_front_right" class="selectable cls-1" d="m154.35,148.4c.07.69.14,1.45.23,2.27.03.27.06.55.09.84.15,1.44.32,3.04.52,4.8.07.71.15,1.43.24,2.18.04.38.08.76.13,1.14.07.7.16,1.42.24,2.15.2,1.77.41,3.62.64,5.56.13,1.15.27,2.32.41,3.53.08.71.17,1.43.25,2.17.1.79.19,1.59.29,2.4.15,1.25.3,2.51.45,3.8.06.53.12,1.06.19,1.6.08.68.16,1.37.24,2.06.07.51.13,1.02.19,1.54.44,3.69.9,7.47,1.36,11.27.07.56.14,1.13.21,1.69.91,7.46,1.84,14.94,2.7,21.91.1.8.2,1.58.3,2.36.61,4.85,1.18,9.39,1.7,13.45l9.09,3.82c-2.02-18.24,1.52-30.43,13.33-34.84,5.67-1.56,11.46-.77,17.45,1.98,9.34,4.26,19.19,13.28,29.85,25.52,6.92,7.93,12.02,15.3,15.97,22.53l31.33-11.83c-7.6-4.8-22.2-30.4-22-33.2.3-2.7,13.7,2.4,16.8,3.4,3.1,1,4.8,4.5,28.2,15.2,1.94.88,12.47,2.2,26.2,3.63-8.42-6.27-36.59-24.07-58.4-34.53-16.5-7.9-84.4-35.8-88.3-41.4-3.79-5.44-7.01-22.11-6.73-24.89-3.89-.55-6.65-1.29-7.57-2.21l-14.2-4.3-.2.1.5,9.2.2.7c-1.2,6.2-2.4,8.8-1.9,14.4Z" /><path id="head_light_right" class="selectable cls-1" d="m259.75,209.1c-.2,2.8,14.4,28.4,22,33.2,5.96,3.85,89.05,21.58,111.5,20.33,2.03-.11,3.56-.38,4.5-.83,10.55-5.04,16.75-16.02,17.11-19,.03-.2.02-.37-.01-.5-.5-1.9-2.4-3.8-3.4-3.9-.59-.07-42.87-3.35-74.11-6.43-2.19-.22-4.33-.43-6.39-.64-13.73-1.43-24.26-2.75-26.2-3.63-23.4-10.7-25.1-14.2-28.2-15.2-3.1-1-16.5-6.1-16.8-3.4Z" /><polygon id="license_plate_front" class="selectable cls-1" points="441.83 281.46 467.27 249.24 470.2 233.52 442.25 258.13 441.83 281.46" /><path id="grill_radiator" class="selectable cls-1" d="m397.75,261.8c10.55-5.04,16.75-16.02,17.11-19,49.59-1.91,70.39-53.2,69.89-62.9l.09-.02c3.17,13.74-1.05,38.47-14.79,66.52h-.03c-3.36,7.61-32.3,48.36-42.17,52.8-3.3,1.9-.4-21.4-9.6-27.2-8.8-4.2-21.3-8.2-25-9.3v-.07c2.03-.11,3.56-.38,4.5-.83Zm69.52-12.56l2.93-15.72-27.95,24.61-.42,23.32,25.43-32.22Z" /><polygon id="fog_light_front_right" class="selectable cls-1" points="298.55 294.18 303.01 303.57 332.13 307.82 330.03 299.31 298.55 294.18" /><path id="bumper_front" class="selectable cls-1" d="m281.75,242.3c5.96,3.85,89.05,21.58,111.5,20.33v.07c3.7,1.1,16.2,5.1,25,9.3,9.2,5.8,6.3,29.1,9.6,27.2,9.87-4.44,38.81-45.19,42.17-52.81h.03c-.8,1.91,1.4,3.81,1.4,5.01,0,3.1-17.2,41.7-57.6,72.1-24.1,12.8-91.9,15.6-104.4,14.5-16.6-1-40-12.3-42.7-16.5-1.17-1.12-1.28-4.77-1.39-10-.13-5.47-.28-12.67-1.71-20.5-3.25-13.14-6.63-24.8-13.23-36.87l31.33-11.83Zm21.26,61.27l29.12,4.25-2.1-8.51-31.48-5.13,4.46,9.39Z" /><g id="wheel_back_right" class="selectable"><path class="cls-1" d="m32.05,124.5c2.32-.56,2.72-.48,2.78-.44l.18-.15h.01c2.34,2.82,4.66,6.17,5.83,8.09,3,4.9,11,22.2,12.8,26.3.3.68.63,1.53.97,2.48.14.36.27.74.41,1.13,1.91,5.44,4.12,13.09,4.12,13.09,0,0,1.25.91,3.5,2.53,1.35.98,3.04,2.21,5.05,3.66l-.15.21c-2.8,1.3-13.9,4-16.9,3.1-4.8-1.5-10.2-9.9-12.6-15-1.8-3.8-4.8-12.5-6.3-18.4-.38-1.52-.96-4.31-1.49-7.5-.35-2.13-.68-4.42-.9-6.62-.16-1.46-.27-2.88-.31-4.18-.1-2.9,1.7-7.6,3-8.3Zm5.07,34.37c3.67,10.44,8.5,18.26,10.81,17.45,2.3-.81,1.19-9.93-2.47-20.38-3.67-10.44-8.5-18.26-10.8-17.45-2.31.81-1.2,9.93,2.46,20.38Z" /><path class="cls-1" d="m37.12,158.87c3.67,10.44,8.5,18.26,10.81,17.45,2.3-.81,1.19-9.93-2.47-20.38-3.67-10.44-8.5-18.26-10.8-17.45-2.31.81-1.2,9.93,2.46,20.38Z" /></g><g id="wheel_front_right" class="selectable"><path class="cls-1" d="m179.15,238.6c1.2-11.8,3.7-19.9,9.1-23.8,4.5-3.6,16.3-8.6,16.3-8.6l.05-.12c9.34,4.26,19.19,13.28,29.85,25.52,6.92,7.93,12.02,15.3,15.97,22.53,6.6,12.07,9.98,23.73,13.23,36.87,1.43,7.83,1.58,15.03,1.71,20.5h-.01s-16.1,11-22.2,12.3c-8.2,1.9-16.9,0-27.5-8.1s-23.3-23.9-30.2-42c-1.69-4.39-3.52-9.67-4.81-15.43-1.39-6.17-2.16-12.89-1.49-19.67Zm18.47,43.09c10.66,19.72,25.88,32.16,34,27.77,8.11-4.39,6.05-23.93-4.62-43.66-10.66-19.72-25.88-32.16-34-27.77-8.11,4.39-6.05,23.93,4.62,43.66Z" /><path class="cls-1" d="m197.62,281.69c10.66,19.72,25.88,32.16,34,27.77,8.11-4.39,6.05-23.93-4.62-43.66-10.66-19.72-25.88-32.16-34-27.77-8.11,4.39-6.05,23.93,4.62,43.66Z" /></g><path id="background-2" class="cls-1" d="m26.95,131.5c.8,2.8,1.9,5.1,2.2,5.5l.21-.02c-.16-1.46-.27-2.88-.31-4.18-.1-2.9,1.7-7.6,3-8.3,2.32-.56,2.72-.48,2.78-.44l.18-.15c-2.66-3.19-5.34-5.67-6.46-4.61-1.8,1.4-2.8,8.1-1.6,12.2Z" /><path id="background-3" class="cls-1" d="m174.39,243.3c.74,4.98,1.84,10.35,3.26,16.1l2.99-1.13c-1.39-6.17-2.16-12.89-1.49-19.67,1.2-11.8,3.7-19.9,9.1-23.8,4.5-3.6,16.3-8.6,16.3-8.6l.05-.12c-5.99-2.75-11.78-3.54-17.45-1.98-12.73,4.75-15.85,18.54-12.76,39.2Z" /><path id="rocker_panel_right" class="selectable cls-1" d="m55.79,161.62h.01c.84,1.93,2.38,3.71,3.83,4.76,5.31,3.83,14.76,10.49,25.76,18.2,29.4,20.61,69.84,48.66,71.64,49.8,2.84,1.8,6.14,2.54,7.7.74l9.09,3.82c.16,1.41.35,2.87.57,4.36.74,4.98,1.84,10.35,3.26,16.1.94.96-3.28-1.87-10.63-7.01-17.72-12.4-53.64-38.24-79.15-56.63-8.06-5.82-15.08-10.89-20.16-14.57h-.01c-2.01-1.45-3.7-2.68-5.05-3.66-2.25-1.62-3.5-2.53-3.5-2.53,0,0-2.21-7.65-4.12-13.09-.14-.39-.27-.77-.41-1.13,0,0,.41.29,1.17.84Zm.39.87l-.25-.58h-.01c.09.2.17.39.26.58Z" /></svg>