<svg xmlns="http://www.w3.org/2000/svg" viewBox="0 0 541.64 308.47"><defs><style>.cls-1{stroke:#fff;stroke-linecap:round;stroke-linejoin:round}.cls-1,.cls-2,.cls-3{fill:none}.cls-4{fill:#e1a25b}.cls-5{fill:#f49796;stroke:#f49796}.cls-2,.cls-3,.cls-5,.cls-6{stroke-miterlimit:10;stroke-width:2px}.cls-6{fill:#31333e;stroke:#595e72}.cls-2{stroke:#e1a25b}.cls-3{stroke:#62b0ef}.cls-7{font-family:sans-serif;font-size:13px;isolation:isolate}.cls-7,.cls-8{fill:#fff}</style></defs><g id="door_front_left" class="car-part selectable"><path class="cls-1" d="M411.89 84.25c-1.29-4.08-3.08-6.87-6.55-10.35-8.3 3.06-14.68 5.38-15.25 5.55l-.02.04h.01c4.85 2.33 9.78 5.77 10.21 6.06.6.4-.7 3-1.8 4.9-1.32 1.65-2.66 3-3.98 4.11-3.97 3.33-7.8 4.49-10.72 5.09-3.6.8-33.5-.5-35.6-.5s-9.3 1.1-10.4 1.2c-1.2.1-7.5 2.7-7.5 2.7l-.2.7c1.2 6.2 2.4 8.8 1.9 14.4-.07.69-.14 1.45-.23 2.27-.03.27-.06.55-.09.84-.15 1.44-.32 3.04-.52 4.8-.07.71-.15 1.43-.24 2.18-.04.38-.08.76-.13 1.14-.07.7-.16 1.42-.24 2.15-.2 1.77-.41 3.62-.64 5.56-.13 1.15-.27 2.33-.41 3.53-.08.71-.17 1.43-.25 2.17-.1.79-.19 1.59-.29 2.4-.15 1.25-.3 2.51-.45 3.8-.06.53-.12 1.06-.19 1.6l-.24 2.06c-.07.51-.13 1.02-.19 1.54-.44 3.69-.9 7.47-1.36 11.27l-.21 1.69c-.91 7.46-1.84 14.94-2.7 21.91-.1.8-.2 1.58-.3 2.36-.61 4.85-1.18 9.39-1.7 13.45 1.56 1.8 4.86 1.06 7.7-.74 1.8-1.14 42.24-29.19 71.64-49.8 7.48-34.13 10.35-52.44 11.09-61.86.36-4.56.21-7.03-.15-8.22h0Zm-2.1 10.6c-1.2 2.7-15.2 6.1-15.4 5.5-.2-.6-.5-2.5-.4-3.2.06-.44 1.06-1.27 2.04-2 .6-.43 1.18-.84 1.56-1.1 1.1-.6 5.8-2.7 7.8-3.2 2.5-.6 4.8-.5 4.9.1 0 .29.21.62.15 1.4-.03.56-.19 1.34-.65 2.5h0Z"/><path id="handle_front_left" class="cls-1 car-part" d="M410.44 92.35c-.03.56-.19 1.34-.65 2.5-1.2 2.7-15.2 6.1-15.4 5.5-.2-.6-.5-2.5-.4-3.2.06-.44 1.06-1.27 2.04-2 .6-.43 1.18-.84 1.56-1.1 1.1-.6 5.8-2.7 7.8-3.2 2.5-.6 4.8-.5 4.9.1 0 .29.21.62.15 1.4h0Z"/></g><g id="door_back_left" class="car-part selectable"><path class="cls-1" d="M451.89 66.25c-.79-3.17-5.51-5.75-7.83-6.87-6.95 2.74-25.33 9.59-38.72 14.52 3.47 3.48 5.26 6.27 6.55 10.35.36 1.19.51 3.66.15 8.22-.74 9.42-3.61 27.73-11.09 61.86 11-7.71 20.45-14.37 25.76-18.2 1.45-1.05 2.99-2.83 3.83-4.76 9.18-21.09 23.61-55.36 21.35-65.12Zm-1.9 10.1c-.7 1.7-10 3.7-10.2 3.3-.2-.4-.2-1.7 0-2.8.2-1.1 1.8-1.6 2.3-2.1 0 0 3.4-1.6 4.9-1.9s3.5.4 3.5.4.2 1.4-.5 3.1h0Z"/><path id="handle_back_left" class="cls-1 car-part" d="M449.99 76.35c-.7 1.7-10 3.7-10.2 3.3-.2-.4-.2-1.7 0-2.8.2-1.1 1.8-1.6 2.3-2.1 0 0 3.4-1.6 4.9-1.9s3.5.4 3.5.4.2 1.4-.5 3.1h0Z"/></g><path id="tail_light_left" class="cls-1 car-part selectable" d="M467.76 72.6c-.58-3.15-3.89-15.08-4.97-17.15l.07-.11s.02.01.03.01c1.2.3 5.8 2.4 7 4.4.55.92-.65 6.7-2.13 12.85Z"/><path id="fender_back_left" class="cls-1 car-part selectable" d="M463.79 95.45c-.36 1.81-6.56 15.37-7.71 17.9.35-2.13.68-4.42.9-6.62l.21.02c.3-.4 1.4-2.7 2.2-5.5 1.2-4.1.2-10.8-1.6-12.2-1.12-1.06-3.8 1.42-6.46 4.61h-.01c-2.34 2.82-4.66 6.17-5.83 8.09-3 4.9-11 22.2-12.8 26.3-.3.68-.63 1.53-.97 2.48 0 0-.41.29-1.17.84 9.17-21.09 23.6-55.36 21.34-65.12-.79-3.17-5.51-5.75-7.83-6.87 1.49-.58 2.45-.98 2.73-1.13 2.7-3.1 3.9-8.9 3.9-10.7-2.71-3.49-12.57-12.32-21.16-17.63l6.09-1.29c10.68 9.3 25.7 25.83 27.2 26.69.01.01.03.01.04.02l-.07.11c1.08 2.07 4.39 14 4.97 17.15-1.74 7.23-3.86 14.98-3.97 15.95-.2 1.5.2 5.6 0 6.9h0Z"/><path id="quarter_window_back_left" class="cls-1 car-part selectable" d="M450.69 47.55c0 1.8-1.2 7.6-3.9 10.7-.28.15-1.24.55-2.73 1.13-.03-.01-.05-.02-.07-.03-.5-3.2-9.5-23.4-14.6-29.4l.14-.03c8.59 5.31 18.45 14.14 21.16 17.63Z"/><path id="window_back_left" class="cls-1 car-part selectable" d="M444.06 59.38c-6.95 2.74-25.33 9.59-38.72 14.52l-.05-.05c-2.17-18.7-11.5-50.1-12.56-53.56 0-.05-.03-.1-.04-.14h.04c.53-.03.99-.02 1.36 0 7.6 0 21.5 2.3 31.8 7.7a51.1 51.1 0 0 1 3.55 2.01l.09.06-.14.03c5.1 6 14.1 26.2 14.6 29.4.02 0 .04.02.07.03h0Z"/><path id="window_front_left" class="cls-1 car-part selectable" d="M405.34 73.9c-8.3 3.06-14.68 5.38-15.25 5.55l-.02.04c-1.9-.89-3.78-1.63-5.38-1.94-5.7-1.1-17.7-4.4-21.1-3.4s-10.4 7.3-12.4 14.6c-.5 1-6.5-.3-6.5-.3s-11.1 3.9-13.9 5.4l-.2-.1c3.4-5.9 20.6-48.4 30.5-61 11.92-10.83 26-12.55 31.6-12.61h.04-.04s.03.1.04.15c1.06 3.46 10.39 34.86 12.56 53.56l.05.05Z"/><path id="mirror_left" class="cls-1 car-part selectable" d="M398.49 90.45c-1.32 1.65-2.66 3-3.98 4.11-3.97 3.33-7.8 4.49-10.72 5.09-3.6.8-33.5-.5-35.6-.5s-9.3 1.1-10.4 1.2c-1.2.1-7.5 2.7-7.5 2.7l.5-9.2c2.8-1.5 13.9-5.4 13.9-5.4s6 1.3 6.5.3c2-7.3 9-13.6 12.4-14.6s15.4 2.3 21.1 3.4c1.6.31 3.48 1.05 5.38 1.94h.01c4.85 2.33 9.78 5.77 10.21 6.06.6.4-.7 3-1.8 4.9Z"/><path id="pillar" class="cls-1 car-part selectable" d="M361.09 32.75c-9.9 12.6-27.1 55.1-30.5 61l-14.2 4.3c3-3 33.1-65.8 33.5-66.4l11.2 1.1Z"/><path class="cls-1 background" d="M226.79 25.05c-5.12 1.18-43.22 29.71-59.09 43.34l-.71-1.84c1.29-1.14 3.8-3.23 7.15-5.93 3.36-2.71 7.57-6.03 12.21-9.6 11.71-9.04 26.14-19.65 36.51-25.97h3.93Z"/><path id="roof" class="cls-1 car-part selectable" d="M429.79 24.05c-7-4.7-21.7-8.8-35.8-9.5-4.01-.2-12.19-.64-22.48-1.12-1.36-.07-2.77-.13-4.21-.21-1.12-.04-2.26-.1-3.41-.14-25.75-1.17-60.05-2.37-77.3-1.33-2.36.14-5.09.29-8.11.48-11.93.79-28.51 2.39-45.99 7.82-2.4.85-5.73 2.62-9.63 5h3.93c20.4-2.9 107.1 2.7 123.1 6.6l11.2 1.1c11.92-10.83 26-12.55 31.6-12.61h.04c.53-.02.99 0 1.36 0 7.6 0 21.5 2.3 31.8 7.7a51.1 51.1 0 0 1 3.55 2.01l.09.06 6.09-1.29c-2.17-1.89-4.17-3.48-5.83-4.58Z"/><path id="windshield_front" class="cls-1 car-part selectable" d="M349.89 31.65c-.4.6-30.5 63.4-33.5 66.4-.92.92-3.68 1.66-7.57 2.21-8.73 1.22-23.21 1.48-35.73.79-10.1-.2-112.1-22.5-112.3-25.7-.04-.68 2.62-3.28 6.91-6.96 15.87-13.63 53.97-42.16 59.09-43.34 20.4-2.9 107.1 2.7 123.1 6.6h0Z"/><path id="hood" class="cls-1 car-part selectable" d="M302.09 125.15c-3.9 5.6-71.8 33.5-88.3 41.4-21.81 10.46-49.98 28.26-58.4 34.53-2.06.21-4.2.42-6.39.64-74.85-25.6-127.51-59.68-128.31-75.77l-.07-.08c17.47-14.79 39.96-24.86 53.27-30.82 15.9-7.1 75.1-25.4 93.1-28.5l.71 1.84c-4.29 3.68-6.95 6.28-6.91 6.96.2 3.2 102.2 25.5 112.3 25.7 12.52.69 27 .43 35.73-.79.28 2.78-2.94 19.45-6.73 24.89h0Zm-281.4.8-.07-.08c-7.46 6.32-14.01 13.5-18.53 21.58-.22.69-.42 1.42-.59 2.18l.09.02c-.5 9.7 20.3 60.99 69.89 62.9-.03-.2-.02-.37.01-.5.5-1.9 2.4-3.8 3.4-3.9.59-.07 42.87-3.35 74.11-6.43-74.85-25.6-127.51-59.68-128.31-75.77h0Z"/><path id="fender_front_left" class="cls-1 car-part selectable" d="M331.99 118.15c-.07.69-.14 1.45-.23 2.27-.03.27-.06.55-.09.84-.15 1.44-.32 3.04-.52 4.8-.07.71-.15 1.43-.24 2.18-.04.38-.08.76-.13 1.14-.07.7-.16 1.42-.24 2.15-.2 1.77-.41 3.62-.64 5.56-.13 1.15-.27 2.32-.41 3.53-.08.71-.17 1.43-.25 2.17-.1.79-.19 1.59-.29 2.4-.15 1.25-.3 2.51-.45 3.8-.06.53-.12 1.06-.19 1.6l-.24 2.06c-.07.51-.13 1.02-.19 1.54-.44 3.69-.9 7.47-1.36 11.27l-.21 1.69c-.91 7.46-1.84 14.94-2.7 21.91-.1.8-.2 1.58-.3 2.36-.61 4.85-1.18 9.39-1.7 13.45l-9.09 3.82c2.02-18.24-1.52-30.43-13.33-34.84-5.67-1.56-11.46-.77-17.45 1.98-9.34 4.26-19.19 13.28-29.85 25.52-6.92 7.93-12.02 15.3-15.97 22.53l-31.33-11.83c7.6-4.8 22.2-30.4 22-33.2-.3-2.7-13.7 2.4-16.8 3.4s-4.8 4.5-28.2 15.2c-1.94.88-12.47 2.2-26.2 3.63 8.42-6.27 36.59-24.07 58.4-34.53 16.5-7.9 84.4-35.8 88.3-41.4 3.79-5.44 7.01-22.11 6.73-24.89 3.89-.55 6.65-1.29 7.57-2.21l14.2-4.3.2.1-.5 9.2-.2.7c1.2 6.2 2.4 8.8 1.9 14.4h0Z"/><path id="head_light_left" class="cls-1 car-part selectable" d="M226.59 178.85c.2 2.8-14.4 28.4-22 33.2-5.96 3.85-89.05 21.58-111.5 20.33-2.03-.11-3.56-.38-4.5-.83-10.55-5.04-16.75-16.02-17.11-19-.03-.2-.02-.37.01-.5.5-1.9 2.4-3.8 3.4-3.9.59-.07 42.87-3.35 74.11-6.43 2.19-.22 4.33-.43 6.39-.64 13.73-1.43 24.26-2.75 26.2-3.63 23.4-10.7 25.1-14.2 28.2-15.2 3.1-1 16.5-6.1 16.8-3.4h0Z"/><path id="license_plate_front" class="cls-1 car-part selectable" d="m44.5 251.21-25.43-32.22-2.93-15.72 27.94 24.61.42 23.33z"/><path id="grill_radiator" class="cls-1 car-part selectable" d="M88.59 231.55c-10.55-5.04-16.75-16.02-17.11-19-49.59-1.91-70.39-53.2-69.89-62.9l-.09-.02c-3.17 13.74 1.05 38.47 14.79 66.52h.03c3.36 7.61 32.3 48.36 42.17 52.8 3.3 1.9.4-21.4 9.6-27.2 8.8-4.2 21.3-8.2 25-9.3v-.07c-2.03-.11-3.56-.38-4.5-.83Zm-69.52-12.56-2.93-15.72 27.95 24.61.42 23.32-25.43-32.22h0Z"/><path id="fog_light_front_left" class="cls-1 car-part selectable" d="m187.79 263.93-4.46 9.39-29.12 4.25 2.1-8.51 31.48-5.13z"/><path id="bumper_front" class="cls-1 car-part selectable" d="M204.59 212.05c-5.96 3.85-89.05 21.58-111.5 20.33v.07c-3.7 1.1-16.2 5.1-25 9.3-9.2 5.8-6.3 29.1-9.6 27.2-9.87-4.44-38.81-45.19-42.17-52.81h-.03c.8 1.91-1.4 3.81-1.4 5.01 0 3.1 17.2 41.7 57.6 72.1 24.1 12.8 91.9 15.6 104.4 14.5 16.6-1 40-12.3 42.7-16.5 1.17-1.12 1.28-4.77 1.39-10 .13-5.47.28-12.67 1.71-20.5 3.25-13.14 6.63-24.8 13.23-36.87l-31.33-11.83Zm-21.26 61.27-29.12 4.25 2.1-8.51 31.48-5.13-4.46 9.39Z"/><g id="wheel_back_left" class="car-part selectable"><path class="cls-1" d="M454.29 94.25c-2.32-.56-2.72-.48-2.78-.44l-.18-.15h-.01c-2.34 2.82-4.66 6.17-5.83 8.09-3 4.9-11 22.2-12.8 26.3-.3.68-.63 1.53-.97 2.48-.14.36-.27.74-.41 1.13-1.91 5.44-4.12 13.09-4.12 13.09s-1.25.91-3.5 2.53c-1.35.98-3.04 2.21-5.05 3.66l.15.21c2.8 1.3 13.9 4 16.9 3.1 4.8-1.5 10.2-9.9 12.6-15 1.8-3.8 4.8-12.5 6.3-18.4.38-1.52.96-4.31 1.49-7.5.35-2.13.68-4.42.9-6.62.16-1.46.27-2.88.31-4.18.1-2.9-1.7-7.6-3-8.3h0Zm-5.07 34.37c-3.67 10.44-8.5 18.26-10.81 17.45-2.3-.81-1.19-9.93 2.47-20.38 3.67-10.44 8.5-18.26 10.8-17.45 2.31.81 1.2 9.93-2.46 20.38Z"/><path class="cls-1" d="M449.22 128.62c-3.67 10.44-8.5 18.26-10.81 17.45-2.3-.81-1.19-9.93 2.47-20.38 3.67-10.44 8.5-18.26 10.8-17.45 2.31.81 1.2 9.93-2.46 20.38Z"/></g><g id="wheel_front_left" class="car-part selectable"><path class="cls-1" d="M307.19 208.35c-1.2-11.8-3.7-19.9-9.1-23.8-4.5-3.6-16.3-8.6-16.3-8.6l-.05-.12c-9.34 4.26-19.19 13.28-29.85 25.52-6.92 7.93-12.02 15.3-15.97 22.53-6.6 12.07-9.98 23.73-13.23 36.87-1.43 7.83-1.58 15.03-1.71 20.5h0s16.1 11 22.2 12.3c8.2 1.9 16.9 0 27.5-8.1s23.3-23.9 30.2-42c1.69-4.39 3.52-9.67 4.81-15.43 1.39-6.17 2.16-12.89 1.49-19.67h0Zm-18.47 43.09c-10.66 19.72-25.88 32.16-34 27.77-8.11-4.39-6.05-23.93 4.62-43.66 10.66-19.72 25.88-32.16 34-27.77 8.11 4.39 6.05 23.93-4.62 43.66h0Z"/><path class="cls-1" d="M288.72 251.44c-10.66 19.72-25.88 32.16-34 27.77-8.11-4.39-6.05-23.93 4.62-43.66 10.66-19.72 25.88-32.16 34-27.77 8.11 4.39 6.05 23.93-4.62 43.66h0Z"/></g><path class="cls-1 background" d="M459.39 101.25c-.8 2.8-1.9 5.1-2.2 5.5l-.21-.02c.16-1.46.27-2.88.31-4.18.1-2.9-1.7-7.6-3-8.3-2.32-.56-2.72-.48-2.78-.44l-.18-.15c2.66-3.19 5.34-5.67 6.46-4.61 1.8 1.4 2.8 8.1 1.6 12.2ZM311.95 213.05c-.74 4.98-1.84 10.35-3.26 16.1l-2.99-1.13c1.39-6.17 2.16-12.89 1.49-19.67-1.2-11.8-3.7-19.9-9.1-23.8-4.5-3.6-16.3-8.6-16.3-8.6l-.05-.12c5.99-2.75 11.78-3.54 17.45-1.98 12.73 4.75 15.85 18.54 12.76 39.2h0Z"/><path id="rocker_panel_left" class="cls-1 car-part selectable" d="M430.55 131.37h-.01c-.84 1.93-2.38 3.71-3.83 4.76-5.31 3.83-14.76 10.49-25.76 18.2-29.4 20.61-69.84 48.66-71.64 49.8-2.84 1.8-6.14 2.54-7.7.74l-9.09 3.82c-.16 1.41-.35 2.87-.57 4.36-.74 4.98-1.84 10.35-3.26 16.1-.94.96 3.28-1.87 10.63-7.01 17.72-12.4 53.64-38.24 79.15-56.63 8.06-5.82 15.08-10.89 20.16-14.57h.01c2.01-1.45 3.7-2.68 5.05-3.66 2.25-1.62 3.5-2.53 3.5-2.53s2.21-7.65 4.12-13.09c.14-.39.27-.77.41-1.13 0 0-.41.29-1.17.84h0Zm-.39.87.25-.58h.01c-.09.2-.17.39-.26.58Z"/><g id="damage-pill_hood"><circle class="cls-6 damage-pill-background" cx="136.3" cy="126.87" r="19.13"/><circle class="cls-3 severity-low" cx="136.3" cy="126.87" r="9.1"/><circle class="cls-5 severity-high" cx="136.3" cy="126.87" r="9.1"/><circle class="cls-8 severity-none" cx="136.3" cy="126.87" r="9.1"/><g class="severity-medium"><circle class="cls-2 severity-medium severity-medium" cx="136.3" cy="126.87" r="9.1"/><path class="cls-4 severity-medium" d="M136.3 117.77v18.1c-5 0-9.1-4.1-9.1-9.1s4.1-9 9.1-9Z"/></g></g><g id="damage-pill-pricing_hood"><path class="cls-6 damage-pill-background" d="M191.28 146.01H136.3c-10.56 0-19.13-8.58-19.13-19.13 0-10.56 8.58-19.13 19.13-19.13h54.98c10.56 0 19.13 8.58 19.13 19.13 0 10.56-8.58 19.13-19.13 19.13Z"/><text class="cls-7 damage-pill-text" transform="translate(158.38 131.16)">9999€</text><circle class="cls-3 severity-low" cx="136.3" cy="126.87" r="9.1"/><circle class="cls-5 severity-high" cx="136.3" cy="126.87" r="9.1"/><circle class="cls-8 severity-none" cx="136.3" cy="126.87" r="9.1"/><g class="severity-medium"><circle class="cls-2 severity-medium severity-medium" cx="136.3" cy="126.87" r="9.1"/><path class="cls-4 severity-medium" d="M136.3 117.77v18.1c-5 0-9.1-4.1-9.1-9.1s4.1-9 9.1-9Z"/></g></g><g id="damage-pill_head_light_left"><circle class="cls-6 damage-pill-background" cx="146.55" cy="213.42" r="19.13"/><circle class="cls-3 severity-low" cx="146.55" cy="213.42" r="9.1"/><circle class="cls-5 severity-high" cx="146.55" cy="213.42" r="9.1"/><circle class="cls-8 severity-none" cx="146.55" cy="213.42" r="9.1"/><g class="severity-medium"><circle class="cls-2 severity-medium severity-medium" cx="146.55" cy="213.42" r="9.1"/><path class="cls-4 severity-medium" d="M146.55 204.32v18.1c-5 0-9.1-4.1-9.1-9.1s4.1-9 9.1-9Z"/></g></g><g id="damage-pill-pricing_head_light_left"><path class="cls-6 damage-pill-background" d="M201.53 232.56h-54.98c-10.56 0-19.13-8.58-19.13-19.13 0-10.56 8.58-19.13 19.13-19.13h54.98c10.56 0 19.13 8.58 19.13 19.13 0 10.56-8.58 19.13-19.13 19.13Z"/><text class="cls-7 damage-pill-text" transform="translate(168.63 217.71)">9999€</text><circle class="cls-3 severity-low" cx="146.55" cy="213.42" r="9.1"/><circle class="cls-5 severity-high" cx="146.55" cy="213.42" r="9.1"/><circle class="cls-8 severity-none" cx="146.55" cy="213.42" r="9.1"/><g class="severity-medium"><circle class="cls-2 severity-medium severity-medium" cx="146.55" cy="213.42" r="9.1"/><path class="cls-4 severity-medium" d="M146.55 204.32v18.1c-5 0-9.1-4.1-9.1-9.1s4.1-9 9.1-9Z"/></g></g><g id="damage-pill_bumper_front"><circle class="cls-6 damage-pill-background" cx="110.1" cy="266.39" r="19.13"/><circle class="cls-3 severity-low" cx="110.1" cy="266.39" r="9.1"/><circle class="cls-5 severity-high" cx="110.1" cy="266.39" r="9.1"/><circle class="cls-8 severity-none" cx="110.1" cy="266.39" r="9.1"/><g class="severity-medium"><circle class="cls-2 severity-medium severity-medium" cx="110.1" cy="266.39" r="9.1"/><path class="cls-4 severity-medium" d="M110.1 257.29v18.1c-5 0-9.1-4.1-9.1-9.1s4.1-9 9.1-9Z"/></g></g><g id="damage-pill-pricing_bumper_front"><path class="cls-6 damage-pill-background" d="M165.08 285.52H110.1c-10.56 0-19.13-8.58-19.13-19.13 0-10.56 8.58-19.13 19.13-19.13h54.98c10.56 0 19.13 8.58 19.13 19.13 0 10.56-8.58 19.13-19.13 19.13Z"/><text class="cls-7 damage-pill-text" transform="translate(132.19 270.67)">9999€</text><circle class="cls-3 severity-low" cx="110.1" cy="266.39" r="9.1"/><circle class="cls-5 severity-high" cx="110.1" cy="266.39" r="9.1"/><circle class="cls-8 severity-none" cx="110.1" cy="266.39" r="9.1"/><g class="severity-medium"><circle class="cls-2 severity-medium severity-medium" cx="110.1" cy="266.39" r="9.1"/><path class="cls-4 severity-medium" d="M110.1 257.29v18.1c-5 0-9.1-4.1-9.1-9.1s4.1-9 9.1-9Z"/></g></g><g id="damage-pill_grill_radiator"><circle class="cls-6 damage-pill-background" cx="27.93" cy="203.27" r="19.13"/><circle class="cls-3 severity-low" cx="27.93" cy="203.27" r="9.1"/><circle class="cls-5 severity-high" cx="27.93" cy="203.27" r="9.1"/><circle class="cls-8 severity-none" cx="27.93" cy="203.27" r="9.1"/><g class="severity-medium"><circle class="cls-2 severity-medium severity-medium" cx="27.93" cy="203.27" r="9.1"/><path class="cls-4 severity-medium" d="M27.93 194.17v18.1c-5 0-9.1-4.1-9.1-9.1s4.1-9 9.1-9Z"/></g></g><g id="damage-pill-pricing_grill_radiator"><path class="cls-6 damage-pill-background" d="M82.91 222.41H27.93c-10.56 0-19.13-8.58-19.13-19.13 0-10.56 8.58-19.13 19.13-19.13h54.98c10.56 0 19.13 8.58 19.13 19.13 0 10.56-8.58 19.13-19.13 19.13Z"/><text class="cls-7 damage-pill-text" transform="translate(50.01 207.56)">9999€</text><circle class="cls-3 severity-low" cx="27.93" cy="203.27" r="9.1"/><circle class="cls-5 severity-high" cx="27.93" cy="203.27" r="9.1"/><circle class="cls-8 severity-none" cx="27.93" cy="203.27" r="9.1"/><g class="severity-medium"><circle class="cls-2 severity-medium severity-medium" cx="27.93" cy="203.27" r="9.1"/><path class="cls-4 severity-medium" d="M27.93 194.17v18.1c-5 0-9.1-4.1-9.1-9.1s4.1-9 9.1-9Z"/></g></g><g id="damage-pill_license_plate_front"><circle class="cls-6 damage-pill-background" cx="30.1" cy="223.88" r="19.13"/><circle class="cls-3 severity-low" cx="30.1" cy="223.88" r="9.1"/><circle class="cls-5 severity-high" cx="30.1" cy="223.88" r="9.1"/><circle class="cls-8 severity-none" cx="30.1" cy="223.88" r="9.1"/><g class="severity-medium"><circle class="cls-2 severity-medium severity-medium" cx="30.1" cy="223.88" r="9.1"/><path class="cls-4 severity-medium" d="M30.1 214.78v18.1c-5 0-9.1-4.1-9.1-9.1s4.1-9 9.1-9Z"/></g></g><g id="damage-pill-pricing_license_plate_front"><path class="cls-6 damage-pill-background" d="M85.08 243.02H30.1c-10.56 0-19.13-8.58-19.13-19.13 0-10.56 8.58-19.13 19.13-19.13h54.98c10.56 0 19.13 8.58 19.13 19.13 0 10.56-8.58 19.13-19.13 19.13Z"/><text class="cls-7 damage-pill-text" transform="translate(52.19 228.17)">9999€</text><circle class="cls-3 severity-low" cx="30.1" cy="223.88" r="9.1"/><circle class="cls-5 severity-high" cx="30.1" cy="223.88" r="9.1"/><circle class="cls-8 severity-none" cx="30.1" cy="223.88" r="9.1"/><g class="severity-medium"><circle class="cls-2 severity-medium severity-medium" cx="30.1" cy="223.88" r="9.1"/><path class="cls-4 severity-medium" d="M30.1 214.78v18.1c-5 0-9.1-4.1-9.1-9.1s4.1-9 9.1-9Z"/></g></g><g id="damage-pill_fog_light_front_left"><circle class="cls-6 damage-pill-background" cx="171.09" cy="270.75" r="19.13"/><circle class="cls-3 severity-low" cx="171.09" cy="270.75" r="9.1"/><circle class="cls-5 severity-high" cx="171.09" cy="270.75" r="9.1"/><circle class="cls-8 severity-none" cx="171.09" cy="270.75" r="9.1"/><g class="severity-medium"><circle class="cls-2 severity-medium severity-medium" cx="171.09" cy="270.75" r="9.1"/><path class="cls-4 severity-medium" d="M171.09 261.65v18.1c-5 0-9.1-4.1-9.1-9.1s4.1-9 9.1-9Z"/></g></g><g id="damage-pill-pricing_fog_light_front_left"><path class="cls-6 damage-pill-background" d="M226.07 289.89h-54.98c-10.56 0-19.13-8.58-19.13-19.13 0-10.56 8.58-19.13 19.13-19.13h54.98c10.56 0 19.13 8.58 19.13 19.13 0 10.56-8.58 19.13-19.13 19.13Z"/><text class="cls-7 damage-pill-text" transform="translate(193.17 275.04)">9999€</text><circle class="cls-3 severity-low" cx="171.09" cy="270.75" r="9.1"/><circle class="cls-5 severity-high" cx="171.09" cy="270.75" r="9.1"/><circle class="cls-8 severity-none" cx="171.09" cy="270.75" r="9.1"/><g class="severity-medium"><circle class="cls-2 severity-medium severity-medium" cx="171.09" cy="270.75" r="9.1"/><path class="cls-4 severity-medium" d="M171.09 261.65v18.1c-5 0-9.1-4.1-9.1-9.1s4.1-9 9.1-9Z"/></g></g><g id="damage-pill_wheel_front_left"><circle class="cls-6 damage-pill-background" cx="274.14" cy="241.54" r="19.13"/><circle class="cls-3 severity-low" cx="274.14" cy="241.54" r="9.1"/><circle class="cls-5 severity-high" cx="274.14" cy="241.54" r="9.1"/><circle class="cls-8 severity-none" cx="274.14" cy="241.54" r="9.1"/><g class="severity-medium"><circle class="cls-2 severity-medium severity-medium" cx="274.14" cy="241.54" r="9.1"/><path class="cls-4 severity-medium" d="M274.14 232.44v18.1c-5 0-9.1-4.1-9.1-9.1s4.1-9 9.1-9Z"/></g></g><g id="damage-pill-pricing_wheel_front_left"><path class="cls-6 damage-pill-background" d="M329.12 260.67h-54.98c-10.56 0-19.13-8.58-19.13-19.13 0-10.56 8.58-19.13 19.13-19.13h54.98c10.56 0 19.13 8.58 19.13 19.13 0 10.56-8.58 19.13-19.13 19.13Z"/><text class="cls-7 damage-pill-text" transform="translate(296.23 245.83)">9999€</text><circle class="cls-3 severity-low" cx="274.14" cy="241.54" r="9.1"/><circle class="cls-5 severity-high" cx="274.14" cy="241.54" r="9.1"/><circle class="cls-8 severity-none" cx="274.14" cy="241.54" r="9.1"/><g class="severity-medium"><circle class="cls-2 severity-medium severity-medium" cx="274.14" cy="241.54" r="9.1"/><path class="cls-4 severity-medium" d="M274.14 232.44v18.1c-5 0-9.1-4.1-9.1-9.1s4.1-9 9.1-9Z"/></g></g><g id="damage-pill_fender_front_left"><circle class="cls-6 damage-pill-background" cx="268.33" cy="162.73" r="19.13"/><circle class="cls-3 severity-low" cx="268.33" cy="162.73" r="9.1"/><circle class="cls-5 severity-high" cx="268.33" cy="162.73" r="9.1"/><circle class="cls-8 severity-none" cx="268.33" cy="162.73" r="9.1"/><g class="severity-medium"><circle class="cls-2 severity-medium severity-medium" cx="268.33" cy="162.73" r="9.1"/><path class="cls-4 severity-medium" d="M268.33 153.63v18.1c-5 0-9.1-4.1-9.1-9.1s4.1-9 9.1-9Z"/></g></g><g id="damage-pill-pricing_fender_front_left"><path class="cls-6 damage-pill-background" d="M323.31 181.86h-54.98c-10.56 0-19.13-8.58-19.13-19.13 0-10.56 8.58-19.13 19.13-19.13h54.98c10.56 0 19.13 8.58 19.13 19.13 0 10.56-8.58 19.13-19.13 19.13Z"/><text class="cls-7 damage-pill-text" transform="translate(290.41 167.01)">9999€</text><circle class="cls-3 severity-low" cx="268.33" cy="162.73" r="9.1"/><circle class="cls-5 severity-high" cx="268.33" cy="162.73" r="9.1"/><circle class="cls-8 severity-none" cx="268.33" cy="162.73" r="9.1"/><g class="severity-medium"><circle class="cls-2 severity-medium severity-medium" cx="268.33" cy="162.73" r="9.1"/><path class="cls-4 severity-medium" d="M268.33 153.63v18.1c-5 0-9.1-4.1-9.1-9.1s4.1-9 9.1-9Z"/></g></g><g id="damage-pill_pillar"><circle class="cls-6 damage-pill-background" cx="340.47" cy="61.77" r="19.13"/><circle class="cls-3 severity-low" cx="340.47" cy="61.77" r="9.1"/><circle class="cls-5 severity-high" cx="340.47" cy="61.77" r="9.1"/><circle class="cls-8 severity-none" cx="340.47" cy="61.77" r="9.1"/><g class="severity-medium"><circle class="cls-2 severity-medium severity-medium" cx="340.47" cy="61.77" r="9.1"/><path class="cls-4 severity-medium" d="M340.47 52.67v18.1c-5 0-9.1-4.1-9.1-9.1s4.1-9 9.1-9Z"/></g></g><g id="damage-pill-pricing_pillar"><path class="cls-6 damage-pill-background" d="M395.46 80.9h-54.98c-10.56 0-19.13-8.58-19.13-19.13 0-10.56 8.58-19.13 19.13-19.13h54.98c10.56 0 19.13 8.58 19.13 19.13 0 10.56-8.58 19.13-19.13 19.13Z"/><text class="cls-7 damage-pill-text" transform="translate(362.56 66.05)">9999€</text><circle class="cls-3 severity-low" cx="340.47" cy="61.77" r="9.1"/><circle class="cls-5 severity-high" cx="340.47" cy="61.77" r="9.1"/><circle class="cls-8 severity-none" cx="340.47" cy="61.77" r="9.1"/><g class="severity-medium"><circle class="cls-2 severity-medium severity-medium" cx="340.47" cy="61.77" r="9.1"/><path class="cls-4 severity-medium" d="M340.47 52.67v18.1c-5 0-9.1-4.1-9.1-9.1s4.1-9 9.1-9Z"/></g></g><g id="damage-pill_window_front_left"><circle class="cls-6 damage-pill-background" cx="377.55" cy="52.95" r="19.13"/><circle class="cls-3 severity-low" cx="377.55" cy="52.95" r="9.1"/><circle class="cls-5 severity-high" cx="377.55" cy="52.95" r="9.1"/><circle class="cls-8 severity-none" cx="377.55" cy="52.95" r="9.1"/><g class="severity-medium"><circle class="cls-2 severity-medium severity-medium" cx="377.55" cy="52.95" r="9.1"/><path class="cls-4 severity-medium" d="M377.55 43.85v18.1c-5 0-9.1-4.1-9.1-9.1s4.1-9 9.1-9Z"/></g></g><g id="damage-pill-pricing_window_front_left"><path class="cls-6 damage-pill-background" d="M432.54 72.08h-54.98c-10.56 0-19.13-8.58-19.13-19.13 0-10.56 8.58-19.13 19.13-19.13h54.98c10.56 0 19.13 8.58 19.13 19.13 0 10.56-8.58 19.13-19.13 19.13Z"/><text class="cls-7 damage-pill-text" transform="translate(399.64 57.23)">9999€</text><circle class="cls-3 severity-low" cx="377.55" cy="52.95" r="9.1"/><circle class="cls-5 severity-high" cx="377.55" cy="52.95" r="9.1"/><circle class="cls-8 severity-none" cx="377.55" cy="52.95" r="9.1"/><g class="severity-medium"><circle class="cls-2 severity-medium severity-medium" cx="377.55" cy="52.95" r="9.1"/><path class="cls-4 severity-medium" d="M377.55 43.85v18.1c-5 0-9.1-4.1-9.1-9.1s4.1-9 9.1-9Z"/></g></g><g id="damage-pill_window_back_left"><circle class="cls-6 damage-pill-background" cx="417.56" cy="44.65" r="19.13"/><circle class="cls-3 severity-low" cx="417.56" cy="44.65" r="9.1"/><circle class="cls-5 severity-high" cx="417.56" cy="44.65" r="9.1"/><circle class="cls-8 severity-none" cx="417.56" cy="44.65" r="9.1"/><g class="severity-medium"><circle class="cls-2 severity-medium severity-medium" cx="417.56" cy="44.65" r="9.1"/><path class="cls-4 severity-medium" d="M417.56 35.55v18.1c-5 0-9.1-4.1-9.1-9.1s4.1-9 9.1-9Z"/></g></g><g id="damage-pill-pricing_window_back_left"><path class="cls-6 damage-pill-background" d="M472.54 63.79h-54.98c-10.56 0-19.13-8.58-19.13-19.13 0-10.56 8.58-19.13 19.13-19.13h54.98c10.56 0 19.13 8.58 19.13 19.13 0 10.56-8.58 19.13-19.13 19.13Z"/><text class="cls-7 damage-pill-text" transform="translate(439.64 48.94)">9999€</text><circle class="cls-3 severity-low" cx="417.56" cy="44.65" r="9.1"/><circle class="cls-5 severity-high" cx="417.56" cy="44.65" r="9.1"/><circle class="cls-8 severity-none" cx="417.56" cy="44.65" r="9.1"/><g class="severity-medium"><circle class="cls-2 severity-medium severity-medium" cx="417.56" cy="44.65" r="9.1"/><path class="cls-4 severity-medium" d="M417.56 35.55v18.1c-5 0-9.1-4.1-9.1-9.1s4.1-9 9.1-9Z"/></g></g><g id="damage-pill_mirror_left"><circle class="cls-6 damage-pill-background" cx="371.87" cy="87.35" r="19.13"/><circle class="cls-3 severity-low" cx="371.87" cy="87.35" r="9.1"/><circle class="cls-5 severity-high" cx="371.87" cy="87.35" r="9.1"/><circle class="cls-8 severity-none" cx="371.87" cy="87.35" r="9.1"/><g class="severity-medium"><circle class="cls-2 severity-medium severity-medium" cx="371.87" cy="87.35" r="9.1"/><path class="cls-4 severity-medium" d="M371.87 78.25v18.1c-5 0-9.1-4.1-9.1-9.1s4.1-9 9.1-9Z"/></g></g><g id="damage-pill-pricing_mirror_left"><path class="cls-6 damage-pill-background" d="M426.85 106.48h-54.98c-10.56 0-19.13-8.58-19.13-19.13 0-10.56 8.58-19.13 19.13-19.13h54.98c10.56 0 19.13 8.58 19.13 19.13 0 10.56-8.58 19.13-19.13 19.13Z"/><text class="cls-7 damage-pill-text" transform="translate(393.95 91.63)">9999€</text><circle class="cls-3 severity-low" cx="371.87" cy="87.35" r="9.1"/><circle class="cls-5 severity-high" cx="371.87" cy="87.35" r="9.1"/><circle class="cls-8 severity-none" cx="371.87" cy="87.35" r="9.1"/><g class="severity-medium"><circle class="cls-2 severity-medium severity-medium" cx="371.87" cy="87.35" r="9.1"/><path class="cls-4 severity-medium" d="M371.87 78.25v18.1c-5 0-9.1-4.1-9.1-9.1s4.1-9 9.1-9Z"/></g></g><g id="damage-pill_door_front_left"><circle class="cls-6 damage-pill-background" cx="373.48" cy="131.53" r="19.13"/><circle class="cls-3 severity-low" cx="373.48" cy="131.53" r="9.1"/><circle class="cls-5 severity-high" cx="373.48" cy="131.53" r="9.1"/><circle class="cls-8 severity-none" cx="373.48" cy="131.53" r="9.1"/><g class="severity-medium"><circle class="cls-2 severity-medium severity-medium" cx="373.48" cy="131.53" r="9.1"/><path class="cls-4 severity-medium" d="M373.48 122.43v18.1c-5 0-9.1-4.1-9.1-9.1s4.1-9 9.1-9Z"/></g></g><g id="damage-pill-pricing_door_front_left"><path class="cls-6 damage-pill-background" d="M428.46 150.67h-54.98c-10.56 0-19.13-8.58-19.13-19.13 0-10.56 8.58-19.13 19.13-19.13h54.98c10.56 0 19.13 8.58 19.13 19.13 0 10.56-8.58 19.13-19.13 19.13Z"/><text class="cls-7 damage-pill-text" transform="translate(395.56 135.82)">9999€</text><circle class="cls-3 severity-low" cx="373.48" cy="131.53" r="9.1"/><circle class="cls-5 severity-high" cx="373.48" cy="131.53" r="9.1"/><circle class="cls-8 severity-none" cx="373.48" cy="131.53" r="9.1"/><g class="severity-medium"><circle class="cls-2 severity-medium severity-medium" cx="373.48" cy="131.53" r="9.1"/><path class="cls-4 severity-medium" d="M373.48 122.43v18.1c-5 0-9.1-4.1-9.1-9.1s4.1-9 9.1-9Z"/></g></g><g id="damage-pill_door_back_left"><circle class="cls-6 damage-pill-background" cx="429.58" cy="93.66" r="19.13"/><circle class="cls-3 severity-low" cx="429.58" cy="93.66" r="9.1"/><circle class="cls-5 severity-high" cx="429.58" cy="93.66" r="9.1"/><circle class="cls-8 severity-none" cx="429.58" cy="93.66" r="9.1"/><g class="severity-medium"><circle class="cls-2 severity-medium severity-medium" cx="429.58" cy="93.66" r="9.1"/><path class="cls-4 severity-medium" d="M429.58 84.56v18.1c-5 0-9.1-4.1-9.1-9.1s4.1-9 9.1-9Z"/></g></g><g id="damage-pill-pricing_door_back_left"><path class="cls-6 damage-pill-background" d="M484.57 112.8h-54.98c-10.56 0-19.13-8.58-19.13-19.13 0-10.56 8.58-19.13 19.13-19.13h54.98c10.56 0 19.13 8.58 19.13 19.13 0 10.56-8.58 19.13-19.13 19.13Z"/><text class="cls-7 damage-pill-text" transform="translate(451.67 97.95)">9999€</text><circle class="cls-3 severity-low" cx="429.58" cy="93.66" r="9.1"/><circle class="cls-5 severity-high" cx="429.58" cy="93.66" r="9.1"/><circle class="cls-8 severity-none" cx="429.58" cy="93.66" r="9.1"/><g class="severity-medium"><circle class="cls-2 severity-medium severity-medium" cx="429.58" cy="93.66" r="9.1"/><path class="cls-4 severity-medium" d="M429.58 84.56v18.1c-5 0-9.1-4.1-9.1-9.1s4.1-9 9.1-9Z"/></g></g><g id="damage-pill_rocker_panel_left"><circle class="cls-6 damage-pill-background" cx="382.96" cy="171.59" r="19.13"/><circle class="cls-3 severity-low" cx="382.96" cy="171.59" r="9.1"/><circle class="cls-5 severity-high" cx="382.96" cy="171.59" r="9.1"/><circle class="cls-8 severity-none" cx="382.96" cy="171.59" r="9.1"/><g class="severity-medium"><circle class="cls-2 severity-medium severity-medium" cx="382.96" cy="171.59" r="9.1"/><path class="cls-4 severity-medium" d="M382.96 162.49v18.1c-5 0-9.1-4.1-9.1-9.1s4.1-9 9.1-9Z"/></g></g><g id="damage-pill-pricing_rocker_panel_left"><path class="cls-6 damage-pill-background" d="M437.94 190.72h-54.98c-10.56 0-19.13-8.58-19.13-19.13 0-10.56 8.58-19.13 19.13-19.13h54.98c10.56 0 19.13 8.58 19.13 19.13 0 10.56-8.58 19.13-19.13 19.13Z"/><text class="cls-7 damage-pill-text" transform="translate(405.04 175.87)">9999€</text><circle class="cls-3 severity-low" cx="382.96" cy="171.59" r="9.1"/><circle class="cls-5 severity-high" cx="382.96" cy="171.59" r="9.1"/><circle class="cls-8 severity-none" cx="382.96" cy="171.59" r="9.1"/><g class="severity-medium"><circle class="cls-2 severity-medium severity-medium" cx="382.96" cy="171.59" r="9.1"/><path class="cls-4 severity-medium" d="M382.96 162.49v18.1c-5 0-9.1-4.1-9.1-9.1s4.1-9 9.1-9Z"/></g></g><g id="damage-pill_windshield_front"><circle class="cls-6 damage-pill-background" cx="249.71" cy="59" r="19.13"/><circle class="cls-3 severity-low" cx="249.71" cy="59" r="9.1"/><circle class="cls-5 severity-high" cx="249.71" cy="59" r="9.1"/><circle class="cls-8 severity-none" cx="249.71" cy="59" r="9.1"/><g class="severity-medium"><circle class="cls-2 severity-medium severity-medium" cx="249.71" cy="59" r="9.1"/><path class="cls-4 severity-medium" d="M249.71 49.9V68c-5 0-9.1-4.1-9.1-9.1s4.1-9 9.1-9Z"/></g></g><g id="damage-pill-pricing_windshield_front"><path class="cls-6 damage-pill-background" d="M304.69 78.13h-54.98c-10.56 0-19.13-8.58-19.13-19.13 0-10.56 8.58-19.13 19.13-19.13h54.98c10.56 0 19.13 8.58 19.13 19.13 0 10.56-8.58 19.13-19.13 19.13Z"/><text class="cls-7 damage-pill-text" transform="translate(271.79 63.28)">9999€</text><circle class="cls-3 severity-low" cx="249.71" cy="59" r="9.1"/><circle class="cls-5 severity-high" cx="249.71" cy="59" r="9.1"/><circle class="cls-8 severity-none" cx="249.71" cy="59" r="9.1"/><g class="severity-medium"><circle class="cls-2 severity-medium severity-medium" cx="249.71" cy="59" r="9.1"/><path class="cls-4 severity-medium" d="M249.71 49.9V68c-5 0-9.1-4.1-9.1-9.1s4.1-9 9.1-9Z"/></g></g><g id="damage-pill_roof"><circle class="cls-6 damage-pill-background" cx="322.03" cy="20.13" r="19.13"/><circle class="cls-3 severity-low" cx="322.03" cy="20.13" r="9.1"/><circle class="cls-5 severity-high" cx="322.03" cy="20.13" r="9.1"/><circle class="cls-8 severity-none" cx="322.03" cy="20.13" r="9.1"/><g class="severity-medium"><circle class="cls-2 severity-medium severity-medium" cx="322.03" cy="20.13" r="9.1"/><path class="cls-4 severity-medium" d="M322.03 11.03v18.1c-5 0-9.1-4.1-9.1-9.1s4.1-9 9.1-9Z"/></g></g><g id="damage-pill-pricing_roof"><path class="cls-6 damage-pill-background" d="M377.02 39.27h-54.98c-10.56 0-19.13-8.58-19.13-19.13 0-10.56 8.58-19.13 19.13-19.13h54.98c10.56 0 19.13 8.58 19.13 19.13 0 10.56-8.58 19.13-19.13 19.13Z"/><text class="cls-7 damage-pill-text" transform="translate(344.12 24.42)">9999€</text><circle class="cls-3 severity-low" cx="322.03" cy="20.13" r="9.1"/><circle class="cls-5 severity-high" cx="322.03" cy="20.13" r="9.1"/><circle class="cls-8 severity-none" cx="322.03" cy="20.13" r="9.1"/><g class="severity-medium"><circle class="cls-2 severity-medium severity-medium" cx="322.03" cy="20.13" r="9.1"/><path class="cls-4 severity-medium" d="M322.03 11.03v18.1c-5 0-9.1-4.1-9.1-9.1s4.1-9 9.1-9Z"/></g></g><g id="damage-pill_fender_back_left"><circle class="cls-6 damage-pill-background" cx="457.82" cy="65.43" r="19.13"/><circle class="cls-3 severity-low" cx="457.82" cy="65.43" r="9.1"/><circle class="cls-5 severity-high" cx="457.82" cy="65.43" r="9.1"/><circle class="cls-8 severity-none" cx="457.82" cy="65.43" r="9.1"/><g class="severity-medium"><circle class="cls-2 severity-medium severity-medium" cx="457.82" cy="65.43" r="9.1"/><path class="cls-4 severity-medium" d="M457.82 56.33v18.1c-5 0-9.1-4.1-9.1-9.1s4.1-9 9.1-9Z"/></g></g><g id="damage-pill-pricing_fender_back_left"><path class="cls-6 damage-pill-background" d="M512.8 84.56h-54.98c-10.56 0-19.13-8.58-19.13-19.13 0-10.56 8.58-19.13 19.13-19.13h54.98c10.56 0 19.13 8.58 19.13 19.13 0 10.56-8.58 19.13-19.13 19.13Z"/><text class="cls-7 damage-pill-text" transform="translate(479.9 69.71)">9999€</text><circle class="cls-3 severity-low" cx="457.82" cy="65.43" r="9.1"/><circle class="cls-5 severity-high" cx="457.82" cy="65.43" r="9.1"/><circle class="cls-8 severity-none" cx="457.82" cy="65.43" r="9.1"/><g class="severity-medium"><circle class="cls-2 severity-medium severity-medium" cx="457.82" cy="65.43" r="9.1"/><path class="cls-4 severity-medium" d="M457.82 56.33v18.1c-5 0-9.1-4.1-9.1-9.1s4.1-9 9.1-9Z"/></g></g><g id="damage-pill_wheel_back_left"><circle class="cls-6 damage-pill-background" cx="445.43" cy="125.1" r="19.13"/><circle class="cls-3 severity-low" cx="445.43" cy="125.1" r="9.1"/><circle class="cls-5 severity-high" cx="445.43" cy="125.1" r="9.1"/><circle class="cls-8 severity-none" cx="445.43" cy="125.1" r="9.1"/><g class="severity-medium"><circle class="cls-2 severity-medium severity-medium" cx="445.43" cy="125.1" r="9.1"/><path class="cls-4 severity-medium" d="M445.43 116v18.1c-5 0-9.1-4.1-9.1-9.1s4.1-9 9.1-9Z"/></g></g><g id="damage-pill-pricing_wheel_back_left"><path class="cls-6 damage-pill-background" d="M500.41 144.23h-54.98c-10.56 0-19.13-8.58-19.13-19.13 0-10.56 8.58-19.13 19.13-19.13h54.98c10.56 0 19.13 8.58 19.13 19.13 0 10.56-8.58 19.13-19.13 19.13Z"/><text class="cls-7 damage-pill-text" transform="translate(467.51 129.38)">9999€</text><circle class="cls-3 severity-low" cx="445.43" cy="125.1" r="9.1"/><circle class="cls-5 severity-high" cx="445.43" cy="125.1" r="9.1"/><circle class="cls-8 severity-none" cx="445.43" cy="125.1" r="9.1"/><g class="severity-medium"><circle class="cls-2 severity-medium severity-medium" cx="445.43" cy="125.1" r="9.1"/><path class="cls-4 severity-medium" d="M445.43 116v18.1c-5 0-9.1-4.1-9.1-9.1s4.1-9 9.1-9Z"/></g></g><g id="damage-pill_tail_light_left"><circle class="cls-6 damage-pill-background" cx="466.53" cy="63.06" r="19.13"/><circle class="cls-3 severity-low" cx="466.53" cy="63.06" r="9.1"/><circle class="cls-5 severity-high" cx="466.53" cy="63.06" r="9.1"/><circle class="cls-8 severity-none" cx="466.53" cy="63.06" r="9.1"/><g class="severity-medium"><circle class="cls-2 severity-medium severity-medium" cx="466.53" cy="63.06" r="9.1"/><path class="cls-4 severity-medium" d="M466.53 53.96v18.1c-5 0-9.1-4.1-9.1-9.1s4.1-9 9.1-9Z"/></g></g><g id="damage-pill-pricing_tail_light_left"><path class="cls-6 damage-pill-background" d="M521.51 82.2h-54.98c-10.56 0-19.13-8.58-19.13-19.13 0-10.56 8.58-19.13 19.13-19.13h54.98c10.56 0 19.13 8.58 19.13 19.13 0 10.56-8.58 19.13-19.13 19.13Z"/><text class="cls-7 damage-pill-text" transform="translate(488.61 67.35)">9999€</text><circle class="cls-3 severity-low" cx="466.53" cy="63.06" r="9.1"/><circle class="cls-5 severity-high" cx="466.53" cy="63.06" r="9.1"/><circle class="cls-8 severity-none" cx="466.53" cy="63.06" r="9.1"/><g class="severity-medium"><circle class="cls-2 severity-medium severity-medium" cx="466.53" cy="63.06" r="9.1"/><path class="cls-4 severity-medium" d="M466.53 53.96v18.1c-5 0-9.1-4.1-9.1-9.1s4.1-9 9.1-9Z"/></g></g><g id="damage-pill_quarter_window_back_left"><circle class="cls-6 damage-pill-background" cx="442.53" cy="48.44" r="19.13"/><circle class="cls-3 severity-low" cx="442.53" cy="48.44" r="9.1"/><circle class="cls-5 severity-high" cx="442.53" cy="48.44" r="9.1"/><circle class="cls-8 severity-none" cx="442.53" cy="48.44" r="9.1"/><g class="severity-medium"><circle class="cls-2 severity-medium severity-medium" cx="442.53" cy="48.44" r="9.1"/><path class="cls-4 severity-medium" d="M442.53 39.34v18.1c-5 0-9.1-4.1-9.1-9.1s4.1-9 9.1-9Z"/></g></g><g id="damage-pill-pricing_quarter_window_back_left"><path class="cls-6 damage-pill-background" d="M497.52 67.57h-54.98c-10.56 0-19.13-8.58-19.13-19.13 0-10.56 8.58-19.13 19.13-19.13h54.98c10.56 0 19.13 8.58 19.13 19.13 0 10.56-8.58 19.13-19.13 19.13Z"/><text class="cls-7 damage-pill-text" transform="translate(464.62 52.72)">9999€</text><circle class="cls-3 severity-low" cx="442.53" cy="48.44" r="9.1"/><circle class="cls-5 severity-high" cx="442.53" cy="48.44" r="9.1"/><circle class="cls-8 severity-none" cx="442.53" cy="48.44" r="9.1"/><g class="severity-medium"><circle class="cls-2 severity-medium severity-medium" cx="442.53" cy="48.44" r="9.1"/><path class="cls-4 severity-medium" d="M442.53 39.34v18.1c-5 0-9.1-4.1-9.1-9.1s4.1-9 9.1-9Z"/></g></g></svg>
