<svg xmlns="http://www.w3.org/2000/svg" viewBox="0 0 517.6 297.06"><defs><style>.cls-1{stroke:#fff;stroke-linecap:round;stroke-linejoin:round}.cls-1,.cls-2,.cls-3{fill:none}.cls-4{fill:#e1a25b}.cls-5{fill:#f49796;stroke:#f49796}.cls-2,.cls-3,.cls-5,.cls-6{stroke-miterlimit:10;stroke-width:2px}.cls-6{fill:#31333e;stroke:#595e72}.cls-2{stroke:#e1a25b}.cls-3{stroke:#62b0ef}.cls-7{font-family:sans-serif;font-size:13px;isolation:isolate}.cls-7,.cls-8{fill:#fff}</style></defs><path id="fender_front_left" class="cls-1 car-part selectable" d="m42.76 130.06-5.18-3.66c-6.21-15.1-12.74-31.54-20.33-40.01-.34-.39-.69-.75-1.03-1.09-9.2-9.1-5.3 7.5-3.5 14.2h.02c.09 2.31.39 4.78.84 7.32-2.69-5.46-6.06-19.84-5.66-23.62.4-3.8.9-5.1 1.2-6 1.22-2.9 1.22-4.95 2.52-8.18 2.62-2.17 6.3-4.94 7.28-5.72l.27-.04c1.52 2.56 5.11 5.96 6.33 6.34.03.01.06.02.09.02s.06.02.1.02h0c1.12.15 4.55-.31 7.91-.84h.59c-8.27 16.9-3.31 33.09 8.53 61.26h.01Z"/><path id="window_front_left" class="cls-1 car-part selectable" d="M112.01 18.66 89.03 76s-.04.02-.12.07c-22.92-5.65-40.88-9.97-40.88-9.97h-2.8c1.11-.18 2.4-.3 2.4-.3l1-5.3s-4.8.6-4.9.4l-.02-.04v-.06c-.03-.09-.06-.25-.11-.46l.24-.04c1.68-2.52 15.97-22.32 31.27-33.13 4.73-3.34 9.55-5.82 14.13-6.67 8.21-1.76 15.79-2.23 22.78-1.84Z"/><path id="window_back_left" class="cls-1 car-part selectable" d="M171.53 41s.1 52.1-1.4 55.9v.03c-19.31-5.45-53.8-14.11-81.21-20.86.08-.05.12-.07.12-.07l22.98-57.34c22.45 1.27 38.87 11.56 50.92 17.44 2.61 1.23 5.51 2.89 8.62 4.87l-.02.03Z"/><g id="door_front_left" class="car-part selectable"><path class="cls-1" d="M81.13 86.5c.83-6 6.87-9.87 7.78-10.43-22.92-5.65-40.88-9.97-40.88-9.97h-2.8c-.56.09-1.07.2-1.36.33-.05.02-.1.05-.14.07-.6.4-1 .9-2.7 1.1-.73.09-3.67.62-6.81 1.11l-.58.09h.59c-8.27 16.9-3.31 33.09 8.53 61.26 0 0 4.53 4.51 7.86 6.66l40.14 25.68c-5.37-20.67-12.13-57.85-9.64-75.9h.01Zm-2.6 8.1c-.9 0-13.2-2.1-13.8-3.8-.6-1.5-.1-4.3 1-4.3h3.4l6.2 2.1s3.3 1.9 3.6 2.6c.4.9.5 3.4-.4 3.4Z"/><path id="handle_front_left" class="cls-1 car-part" d="M78.53 94.6c-.9 0-13.2-2.1-13.8-3.8-.6-1.5-.1-4.3 1-4.3h3.4l6.2 2.1s3.3 1.9 3.6 2.6c.4.9.5 3.4-.4 3.4Z"/></g><g id="door_back_left" class="car-part selectable"><path class="cls-1" d="M88.91 76.07c-.91.56-6.95 4.43-7.78 10.43-2.49 18.05 4.27 55.23 9.64 75.9l31.45 19.21c4.46 2.88 8.85 4.71 13.6 2.32l2.33-1.18c8.37-38.1 30.57-82.35 31.97-85.82-19.31-5.45-53.8-14.11-81.21-20.86Zm52.92 44.53c-1.7-.8-13-4.8-13.7-6.2-.7-1.5-.6-5 .5-5.7l6 .9 12 4.4s5.8 3.4 6 3.9c.2.4.4 3.6-.6 4.4-.9.7-8.5-.9-10.2-1.7h0Z"/><path id="handle_back_left" class="cls-1 car-part" d="M152.03 122.3c-.9.7-8.5-.9-10.2-1.7s-13-4.8-13.7-6.2c-.7-1.5-.6-5 .5-5.7l6 .9 12 4.4s5.8 3.4 6 3.9c.2.4.4 3.6-.6 4.4h0Z"/></g><path id="quarter_window_back_left" class="cls-1 car-part selectable" d="M241.93 102.6c-.7 1.1-26.5-6.4-29.7-7-6.4.6-24.4 6.1-29 5.4-2.34-.92-6.95-2.33-13.11-4.07v-.03c1.5-3.8 1.4-55.9 1.4-55.9l.02-.03c1.58 1.01 3.21 2.1 4.88 3.25 27.11 18.81 65.16 56.16 65.5 56.58.2.3.2 1.5 0 1.8h0Z"/><path id="pillar" class="cls-1 car-part selectable" d="m76.69 22.02-1.59 5.15C59.8 37.98 45.51 57.78 43.83 60.3l-.24.04c-.18-.78-.5-2.24-.86-3.61l.1-.03c.9-.2 1.5-.4 1.7-.4 1.3-.3 17.2-24.1 25.9-30.1 2.24-1.55 4.27-2.93 6.26-4.18Z"/><path id="mirror_left" class="cls-1 car-part selectable" d="m43.73 60.9-.02-.04v-.06c-.03-.09-.06-.25-.11-.46-.18-.78-.5-2.24-.86-3.61-.33-1.25-.69-2.42-1-2.93-.8-1.3-1.4-4-6.2-2.6-2.44.74-5.48 2.07-8.32 3.56h0c-4.51 2.35-8.49 5.09-8.67 6.44-.07.53.2 1.25.67 2.06 1.52 2.56 5.11 5.96 6.33 6.34.03.01.06.02.09.02s.06.02.1.02h0c1.12.15 4.55-.31 7.91-.84l.58-.09c3.14-.49 6.08-1.02 6.81-1.11 1.7-.2 2.1-.7 2.7-1.1.04-.02.09-.05.14-.07.29-.13.8-.24 1.36-.33 1.11-.18 2.4-.3 2.4-.3l1-5.3s-4.8.6-4.9.4Z"/><path class="cls-1 background" d="m17.26 86.39-.23.21c-3.43 2.18-4.53 7-4.28 12.9h-.02c-1.8-6.7-5.7-23.3 3.5-14.2.34.34.69.7 1.03 1.09ZM150.79 210.79c-1.09-3.73-5.5-14.31-6.82-26.09-.34-3.06-.42-4.7-.24-8.1.96-17.83 13.16-20.38 26.77-13.92-20.43 4.54-24.63 25.28-19.71 48.11h0Z"/><path id="rocker_panel_left" class="cls-1 car-part selectable" d="M150.81 210.86s0-.03-.02-.05v-.02c-1.09-3.73-5.5-14.31-6.82-26.09l-5.82-1.95-2.33 1.18c-4.75 2.39-9.14.56-13.6-2.32L90.77 162.4l-40.14-25.68c-3.33-2.15-7.86-6.66-7.86-6.66l-5.18-3.66c1.24 3.01 2.97 7.86 4.14 10.5.75.72 2.97 2.44 6.3 4.9.27.2.55.4.83.62 9.46 6.95 26.73 19.15 44.5 31.58 14.84 10.39 30.03 20.95 41.29 28.76 8.52 5.91 14.8 10.24 16.98 11.74h.04c-.32-1.22-.6-2.44-.86-3.64h0Z"/><g id="wheel_front_left" class="car-part selectable"><path class="cls-1" d="M48.03 141.8c-3.33-2.46-5.55-4.18-6.3-4.9-1.17-2.64-2.9-7.49-4.14-10.5-6.21-15.1-12.74-31.54-20.33-40.01l-.23.21c-3.43 2.18-4.53 7-4.28 12.9.09 2.31.39 4.78.84 7.32h0s0 .02.01.02c.61 3.47 1.5 7.07 2.53 10.56 5 17.1 12.6 29.1 22.8 27.5 3.6-.6 7-1.1 9.8-2.3l.13-.18c-.28-.22-.56-.42-.83-.62h0Zm-17.19-4.78c-2.15.81-6.84-6.4-10.46-16.1-3.63-9.7-4.83-18.21-2.67-19.02 2.15-.81 6.84 6.4 10.47 16.1 3.62 9.7 4.82 18.22 2.66 19.02Z"/><path class="cls-1" d="M30.84 137.02c-2.15.81-6.84-6.4-10.46-16.1-3.63-9.7-4.83-18.21-2.67-19.02 2.15-.81 6.84 6.4 10.47 16.1 3.62 9.7 4.82 18.22 2.66 19.02Z"/></g><g id="wheel_back_left" class="car-part selectable"><path class="cls-1" d="M218.05 224.25h0c-8.96-19.3-20.2-38.53-28.91-47.65-5.87-6.13-12.4-10.97-18.63-13.92-20.43 4.54-24.63 25.28-19.71 48.11v.02s0 .03.02.05c.26 1.2.54 2.42.86 3.63 1.16 4.55 2.67 9.16 4.46 13.71 11.4 28.9 35 50.8 55 42.9 7-2.7 14.1-6.9 19.9-12.4l.18-.05c-2.64-9.76-7.44-22.09-13.16-34.4h0Zm-23.88 30.03c-7.65 3.6-20.59-7.77-28.9-25.4-8.32-17.64-8.87-34.85-1.22-38.46 7.64-3.6 20.58 7.77 28.9 25.4 8.31 17.64 8.86 34.85 1.22 38.46Z"/><path class="cls-1" d="M194.17 254.28c-7.65 3.6-20.59-7.77-28.9-25.4-8.32-17.64-8.87-34.85-1.22-38.46 7.64-3.6 20.58 7.77 28.9 25.4 8.31 17.64 8.86 34.85 1.22 38.46Z"/></g><path class="cls-1 background" d="m407.36 66-11.13-1.7c-1.95-.88-75.15-35.61-81.93-38.08l.39-1.03h.01c18.59 7.01 41.75 17.37 47.93 20.71 5.17 2.79 26.93 12.43 44.73 20.1h0Z"/><path id="fender_back_left" class="cls-1 car-part selectable" d="M273.03 151.5c5 9.74 16.96 27.79 34.28 39.54l-13.29 17.61a34.335 34.335 0 0 1-26.05 13.63l-49.92 1.97h0c-8.96-19.3-20.2-38.53-28.91-47.65-5.87-6.13-12.4-10.97-18.63-13.92-13.61-6.46-25.81-3.91-26.77 13.92-.18 3.4-.1 5.04.24 8.1l-5.82-1.95c8.37-38.1 30.57-82.35 31.97-85.82 6.16 1.74 10.77 3.15 13.11 4.07 4.6.7 22.6-4.8 29-5.4 3.2.6 29 8.1 29.7 7 .2-.3.2-1.5 0-1.8-.34-.42-38.39-37.77-65.5-56.58 6.53-6.25 20.3-8.52 20.3-8.52s96.8 65.1 100.7 65.6c.8 5 4.5 18 7.2 21.6 1.75 2.3 39.79 18.89 48.39 23.81.73.42 1.24.76 1.51.99 1.73 1.53 5.04 3.57 8.87 8.51-20.5 1.07-67.34-10.82-70.07-11.21-2.8-.4-16.3 3.5-20.3 6.5h-.01Z"/><path id="roof" class="cls-1 car-part selectable" d="m314.69 25.19-.39 1.03c-.16-.06-.29-.1-.37-.12-1.3-.3-16.4-2.9-36.4-1.6-.36.02-.72.04-1.08.07-2.44.15-4.93.34-7.47.55h-.01c-.15 0-.28.02-.43.03s-.31.03-.47.04c-3.58.29-7.24.63-10.91 1-2.26.22-4.53.46-6.79.71-.72.08-1.43.16-2.15.23l-.52.06c-.84.1-1.68.2-2.52.29-1.81.21-3.61.43-5.39.65-.7.09-1.4.17-2.1.26l-.48.06a858.54 858.54 0 0 0-5.06.66c-1.51.2-3 .4-4.46.61-.45.06-.91.13-1.37.19-1.2.17-2.38.34-3.53.51-3.87.57-7.46 1.14-10.67 1.68-.53.09-1.04.18-1.55.27-.43.08-.86.15-1.28.23-.55.09-1.09.19-1.61.29-1.65.31-3.15.6-4.47.88-.44.09-.86.18-1.26.27-.25.06-.5.12-.74.17-.22.05-.42.1-.62.15s-.4.1-.58.15c-.56.14-1.05.27-1.48.4-.14.04-.27.09-.4.13-.76.25-1.24.47-1.4.66 0 0-13.77 2.27-20.3 8.52-1.67-1.15-3.3-2.24-4.88-3.25-3.11-1.98-6.01-3.64-8.62-4.87-12.05-5.88-28.47-16.17-50.92-17.44-6.99-.39-14.57.08-22.78 1.84-4.58.85-9.4 3.33-14.13 6.67l1.59-5.15c5.72-3.6 11.14-6.04 20.64-7.82 12.8-2.4 50.8-4.7 71.7-5.4 20.9-.7 72 1.1 79.3 1.6 2.01.15 12.29 1.1 22.88 3.03 10.52 1.92 21.33 4.82 24.52 5.57 4.6 1.04 11.39 3.34 18.96 6.19Z"/><path id="windshield_back" class="cls-1 car-part selectable" d="M404.33 74.6c-1.1 3.8-67.9 23.9-83.8 26.7-7.9 1.4-19.2.5-23.1 0s-100.7-65.6-100.7-65.6c.16-.19.64-.41 1.4-.66.12-.04.26-.08.4-.13.43-.13.92-.26 1.48-.4.18-.05.38-.1.58-.15s.41-.1.62-.15c.24-.05.49-.11.74-.17.4-.09.82-.18 1.26-.27 1.32-.28 2.82-.57 4.47-.88.52-.1 1.06-.19 1.61-.29.42-.08.85-.15 1.28-.23.51-.09 1.02-.18 1.55-.27 3.21-.54 6.8-1.11 10.67-1.68 1.15-.17 2.33-.34 3.53-.51.46-.06.92-.13 1.37-.19 1.46-.2 2.94-.41 4.46-.61a858.54 858.54 0 0 1 5.06-.66l.48-.06c.7-.09 1.4-.17 2.1-.26 1.78-.22 3.58-.44 5.39-.65.84-.09 1.68-.19 2.52-.29l.52-.06c.72-.07 1.43-.15 2.15-.23 2.26-.25 4.53-.49 6.79-.71 3.67-.37 7.33-.71 10.91-1 .16 0 .32-.03.47-.04l.43-.03h.01c2.54-.21 5.03-.4 7.47-.55.36-.03.72-.05 1.08-.07 20-1.3 35.1 1.3 36.4 1.6.08.02.21.06.37.12 6.78 2.47 79.98 37.2 81.93 38.08 2 .9 9.2 6.6 8.1 10.3h0Z"/><path id="trunk" class="cls-1 car-part selectable" d="M465.33 97.8c1.8-1.7 2.5-4.1 1.3-6.6s-30.2-13.7-34.9-15.1c-1.91-.57-12.21-4.88-24.36-10.1h0l-11.13-1.7c2 .9 9.2 6.6 8.1 10.3-1.1 3.8-67.9 23.9-83.8 26.7-7.9 1.4-19.2.5-23.1 0 .8 5 4.5 18 7.2 21.6 1.75 2.3 39.79 18.89 48.39 23.81.73.42 1.24.76 1.51.99 1.73 1.53 5.04 3.57 8.87 8.51.53-.03 1.04-.07 1.53-.11 17.8-1.5 55.4-8.4 56.4-9.4 1.4 0-13.2 21.9-14.5 23.2s-31.5 11.1-31.5 11.1l2.2 6.1s15.9.3 33.7-4.1c.1 0 .15.12.15.3 0 1.58-3.55 9-3.55 9s-11.87 3.16-26.91 5.94v.06c.2 2 11.7 13.9 14.2 14.7s25.1-11.8 35.9-20.9c16.7-12.2 24.8-27.4 26.8-30.8.19-.32.38-.73.58-1.21 1.96-4.68 4.57-16.57 7.02-26.18h0v-.21c.06-.49.39-1.84.85-3.7 1.06-4.22 2.79-11.05 3.55-16.4 1.1-7.7-4.3-14.5-4.5-15.8h0Zm-9.47 61.21-25.54 25.54v-22.88l14.46-10.15 1.67-1.17 9.41-6.6v15.26Z"/><path id="tail_light_left" class="cls-1 car-part selectable" d="M411.38 183.3c0 1.58-3.55 9-3.55 9s-11.87 3.16-26.91 5.94c-14.73 2.73-32.52 5.1-45.19 3.76-10.59-1.13-20.12-5.32-28.42-10.96-17.32-11.75-29.28-29.8-34.28-39.54 4-3 17.5-6.9 20.3-6.5 2.73.39 49.57 12.28 70.07 11.21.53-.03 1.04-.07 1.53-.11 17.8-1.5 55.4-8.4 56.4-9.4 1.4 0-13.2 21.9-14.5 23.2s-31.5 11.1-31.5 11.1l2.2 6.1s15.9.3 33.7-4.1c.1 0 .15.12.15.3Z"/><path id="fog_light_back_left" class="cls-1 car-part selectable" d="M402.13 236.1s-8.3 8.8-30.6 15.2c-6.3 1.3-15.1 5.4-48.5 2.8 0 0 5.96-6.53 6.56-6.53s20.84 1.5 28.14.1c14.9-1.8 40.37-12.33 42.07-14.03s2.33 2.46 2.33 2.46h0Z"/><path id="bumper_back" class="cls-1 car-part selectable" d="M469.13 144.2c-.48-4.6-3.63-8.57-3.7-10.29-2.7 10.6-5.6 23.99-7.6 27.39s-10.1 18.6-26.8 30.8c-10.8 9.1-33.4 21.7-35.9 20.9s-14-12.7-14.2-14.7v-.06c-14.73 2.73-32.52 5.1-45.19 3.76-10.59-1.13-20.12-5.32-28.42-10.96l-13.29 17.61a34.335 34.335 0 0 1-26.05 13.63l-49.92 1.97c5.72 12.31 10.52 24.64 13.16 34.4.3 1.12.58 2.2.82 3.25 1.1 4.8 78.8 33.3 101.5 34.6 22.8 1.2 52-14 60.1-19.1 33.8-21.1 49.5-42.2 54-48s10.9-20.2 11.6-22 5.3-20.9 5-22 6.4-17.7 6.7-20.2c.3-2.5-1.3-16.2-1.8-21h-.01Zm-67 91.9s-8.3 8.8-30.6 15.2c-6.3 1.3-15.1 5.4-48.5 2.8 0 0 5.96-6.53 6.56-6.53s20.84 1.5 28.14.1c14.9-1.8 40.37-12.33 42.07-14.03s2.33 2.46 2.33 2.46h0Z"/><path id="license_plate_back" class="cls-1 car-part selectable" d="M455.86 143.75v15.26l-25.54 25.54v-22.88l14.46-10.15 11.08-7.77z"/><g id="damage-pill_tail_light_left"><circle class="cls-6 damage-pill-background" cx="335.91" cy="179.04" r="19.13"/><circle class="cls-3 severity-low" cx="335.91" cy="179.04" r="9.1"/><circle class="cls-5 severity-high" cx="335.91" cy="179.04" r="9.1"/><circle class="cls-8 severity-none" cx="335.91" cy="179.04" r="9.1"/><g class="severity-medium"><circle class="cls-2 severity-medium severity-medium" cx="335.91" cy="179.04" r="9.1"/><path class="cls-4 severity-medium" d="M335.91 169.94v18.1c-5 0-9.1-4.1-9.1-9.1s4.1-9 9.1-9Z"/></g></g><g id="damage-pill-pricing_tail_light_left"><path class="cls-6 damage-pill-background" d="M390.9 198.17h-54.98c-10.56 0-19.13-8.58-19.13-19.13 0-10.56 8.58-19.13 19.13-19.13h54.98c10.56 0 19.13 8.58 19.13 19.13 0 10.56-8.58 19.13-19.13 19.13Z"/><text class="cls-7 damage-pill-text" transform="translate(358 183.32)">9999€</text><circle class="cls-3 severity-low" cx="335.91" cy="179.04" r="9.1"/><circle class="cls-5 severity-high" cx="335.91" cy="179.04" r="9.1"/><circle class="cls-8 severity-none" cx="335.91" cy="179.04" r="9.1"/><g class="severity-medium"><circle class="cls-2 severity-medium severity-medium" cx="335.91" cy="179.04" r="9.1"/><path class="cls-4 severity-medium" d="M335.91 169.94v18.1c-5 0-9.1-4.1-9.1-9.1s4.1-9 9.1-9Z"/></g></g><g id="damage-pill_bumper_back"><circle class="cls-6 damage-pill-background" cx="435.31" cy="214.5" r="19.13"/><circle class="cls-3 severity-low" cx="435.31" cy="214.5" r="9.1"/><circle class="cls-5 severity-high" cx="435.31" cy="214.5" r="9.1"/><circle class="cls-8 severity-none" cx="435.31" cy="214.5" r="9.1"/><g class="severity-medium"><circle class="cls-2 severity-medium severity-medium" cx="435.31" cy="214.5" r="9.1"/><path class="cls-4 severity-medium" d="M435.31 205.4v18.1c-5 0-9.1-4.1-9.1-9.1s4.1-9 9.1-9Z"/></g></g><g id="damage-pill-pricing_bumper_back"><path class="cls-6 damage-pill-background" d="M490.29 233.63h-54.98c-10.56 0-19.13-8.58-19.13-19.13 0-10.56 8.58-19.13 19.13-19.13h54.98c10.56 0 19.13 8.58 19.13 19.13 0 10.56-8.58 19.13-19.13 19.13Z"/><text class="cls-7 damage-pill-text" transform="translate(457.39 218.78)">9999€</text><circle class="cls-3 severity-low" cx="435.31" cy="214.5" r="9.1"/><circle class="cls-5 severity-high" cx="435.31" cy="214.5" r="9.1"/><circle class="cls-8 severity-none" cx="435.31" cy="214.5" r="9.1"/><g class="severity-medium"><circle class="cls-2 severity-medium severity-medium" cx="435.31" cy="214.5" r="9.1"/><path class="cls-4 severity-medium" d="M435.31 205.4v18.1c-5 0-9.1-4.1-9.1-9.1s4.1-9 9.1-9Z"/></g></g><g id="damage-pill_license_plate_back"><circle class="cls-6 damage-pill-background" cx="442.48" cy="161.36" r="19.13"/><circle class="cls-3 severity-low" cx="442.48" cy="161.36" r="9.1"/><circle class="cls-5 severity-high" cx="442.48" cy="161.36" r="9.1"/><circle class="cls-8 severity-none" cx="442.48" cy="161.36" r="9.1"/><g class="severity-medium"><circle class="cls-2 severity-medium severity-medium" cx="442.48" cy="161.36" r="9.1"/><path class="cls-4 severity-medium" d="M442.48 152.26v18.1c-5 0-9.1-4.1-9.1-9.1s4.1-9 9.1-9Z"/></g></g><g id="damage-pill-pricing_license_plate_back"><path class="cls-6 damage-pill-background" d="M497.46 180.49h-54.98c-10.56 0-19.13-8.58-19.13-19.13 0-10.56 8.58-19.13 19.13-19.13h54.98c10.56 0 19.13 8.58 19.13 19.13 0 10.56-8.58 19.13-19.13 19.13Z"/><text class="cls-7 damage-pill-text" transform="translate(464.57 165.64)">9999€</text><circle class="cls-3 severity-low" cx="442.48" cy="161.36" r="9.1"/><circle class="cls-5 severity-high" cx="442.48" cy="161.36" r="9.1"/><circle class="cls-8 severity-none" cx="442.48" cy="161.36" r="9.1"/><g class="severity-medium"><circle class="cls-2 severity-medium severity-medium" cx="442.48" cy="161.36" r="9.1"/><path class="cls-4 severity-medium" d="M442.48 152.26v18.1c-5 0-9.1-4.1-9.1-9.1s4.1-9 9.1-9Z"/></g></g><g id="damage-pill_trunk"><circle class="cls-6 damage-pill-background" cx="419.94" cy="115.71" r="19.13"/><circle class="cls-3 severity-low" cx="419.94" cy="115.71" r="9.1"/><circle class="cls-5 severity-high" cx="419.94" cy="115.71" r="9.1"/><circle class="cls-8 severity-none" cx="419.94" cy="115.71" r="9.1"/><g class="severity-medium"><circle class="cls-2 severity-medium severity-medium" cx="419.94" cy="115.71" r="9.1"/><path class="cls-4 severity-medium" d="M419.94 106.61v18.1c-5 0-9.1-4.1-9.1-9.1s4.1-9 9.1-9Z"/></g></g><g id="damage-pill-pricing_trunk"><path class="cls-6 damage-pill-background" d="M474.92 134.85h-54.98c-10.56 0-19.13-8.58-19.13-19.13 0-10.56 8.58-19.13 19.13-19.13h54.98c10.56 0 19.13 8.58 19.13 19.13 0 10.56-8.58 19.13-19.13 19.13Z"/><text class="cls-7 damage-pill-text" transform="translate(442.02 120)">9999€</text><circle class="cls-3 severity-low" cx="419.94" cy="115.71" r="9.1"/><circle class="cls-5 severity-high" cx="419.94" cy="115.71" r="9.1"/><circle class="cls-8 severity-none" cx="419.94" cy="115.71" r="9.1"/><g class="severity-medium"><circle class="cls-2 severity-medium severity-medium" cx="419.94" cy="115.71" r="9.1"/><path class="cls-4 severity-medium" d="M419.94 106.61v18.1c-5 0-9.1-4.1-9.1-9.1s4.1-9 9.1-9Z"/></g></g><g id="damage-pill_fog_light_back_left"><circle class="cls-6 damage-pill-background" cx="362.05" cy="250.53" r="19.13"/><circle class="cls-3 severity-low" cx="362.05" cy="250.53" r="9.1"/><circle class="cls-5 severity-high" cx="362.05" cy="250.53" r="9.1"/><circle class="cls-8 severity-none" cx="362.05" cy="250.53" r="9.1"/><g class="severity-medium"><circle class="cls-2 severity-medium severity-medium" cx="362.05" cy="250.53" r="9.1"/><path class="cls-4 severity-medium" d="M362.05 241.43v18.1c-5 0-9.1-4.1-9.1-9.1s4.1-9 9.1-9Z"/></g></g><g id="damage-pill-pricing_fog_light_back_left"><path class="cls-6 damage-pill-background" d="M417.03 269.66h-54.98c-10.56 0-19.13-8.58-19.13-19.13 0-10.56 8.58-19.13 19.13-19.13h54.98c10.56 0 19.13 8.58 19.13 19.13 0 10.56-8.58 19.13-19.13 19.13Z"/><text class="cls-7 damage-pill-text" transform="translate(384.13 254.82)">9999€</text><circle class="cls-3 severity-low" cx="362.05" cy="250.53" r="9.1"/><circle class="cls-5 severity-high" cx="362.05" cy="250.53" r="9.1"/><circle class="cls-8 severity-none" cx="362.05" cy="250.53" r="9.1"/><g class="severity-medium"><circle class="cls-2 severity-medium severity-medium" cx="362.05" cy="250.53" r="9.1"/><path class="cls-4 severity-medium" d="M362.05 241.43v18.1c-5 0-9.1-4.1-9.1-9.1s4.1-9 9.1-9Z"/></g></g><g id="damage-pill_wheel_front_left"><circle class="cls-6 damage-pill-background" cx="21.67" cy="116.25" r="19.13"/><circle class="cls-3 severity-low" cx="21.67" cy="116.25" r="9.1"/><circle class="cls-5 severity-high" cx="21.67" cy="116.25" r="9.1"/><circle class="cls-8 severity-none" cx="21.67" cy="116.25" r="9.1"/><g class="severity-medium"><circle class="cls-2 severity-medium severity-medium" cx="21.67" cy="116.25" r="9.1"/><path class="cls-4 severity-medium" d="M21.67 107.15v18.1c-5 0-9.1-4.1-9.1-9.1s4.1-9 9.1-9Z"/></g></g><g id="damage-pill-pricing_wheel_front_left"><path class="cls-6 damage-pill-background" d="M76.65 135.38H21.67c-10.56 0-19.13-8.58-19.13-19.13 0-10.56 8.58-19.13 19.13-19.13h54.98c10.56 0 19.13 8.58 19.13 19.13 0 10.56-8.58 19.13-19.13 19.13Z"/><text class="cls-7 damage-pill-text" transform="translate(43.76 120.53)">9999€</text><circle class="cls-3 severity-low" cx="21.67" cy="116.25" r="9.1"/><circle class="cls-5 severity-high" cx="21.67" cy="116.25" r="9.1"/><circle class="cls-8 severity-none" cx="21.67" cy="116.25" r="9.1"/><g class="severity-medium"><circle class="cls-2 severity-medium severity-medium" cx="21.67" cy="116.25" r="9.1"/><path class="cls-4 severity-medium" d="M21.67 107.15v18.1c-5 0-9.1-4.1-9.1-9.1s4.1-9 9.1-9Z"/></g></g><g id="damage-pill_fender_front_left"><circle class="cls-6 damage-pill-background" cx="20.13" cy="78.37" r="19.13"/><circle class="cls-3 severity-low" cx="20.13" cy="78.37" r="9.1"/><circle class="cls-5 severity-high" cx="20.13" cy="78.37" r="9.1"/><circle class="cls-8 severity-none" cx="20.13" cy="78.37" r="9.1"/><g class="severity-medium"><circle class="cls-2 severity-medium severity-medium" cx="20.13" cy="78.37" r="9.1"/><path class="cls-4 severity-medium" d="M20.13 69.27v18.1c-5 0-9.1-4.1-9.1-9.1s4.1-9 9.1-9Z"/></g></g><g id="damage-pill-pricing_fender_front_left"><path class="cls-6 damage-pill-background" d="M75.12 97.5H20.13C9.57 97.5 1 88.92 1 78.37c0-10.56 8.58-19.13 19.13-19.13h54.98c10.56 0 19.13 8.58 19.13 19.13 0 10.56-8.58 19.13-19.13 19.13Z"/><text class="cls-7 damage-pill-text" transform="translate(42.22 82.65)">9999€</text><circle class="cls-3 severity-low" cx="20.13" cy="78.37" r="9.1"/><circle class="cls-5 severity-high" cx="20.13" cy="78.37" r="9.1"/><circle class="cls-8 severity-none" cx="20.13" cy="78.37" r="9.1"/><g class="severity-medium"><circle class="cls-2 severity-medium severity-medium" cx="20.13" cy="78.37" r="9.1"/><path class="cls-4 severity-medium" d="M20.13 69.27v18.1c-5 0-9.1-4.1-9.1-9.1s4.1-9 9.1-9Z"/></g></g><g id="damage-pill_pillar"><circle class="cls-6 damage-pill-background" cx="59.55" cy="40.06" r="19.13"/><circle class="cls-3 severity-low" cx="59.55" cy="40.06" r="9.1"/><circle class="cls-5 severity-high" cx="59.55" cy="40.06" r="9.1"/><circle class="cls-8 severity-none" cx="59.55" cy="40.06" r="9.1"/><g class="severity-medium"><circle class="cls-2 severity-medium severity-medium" cx="59.55" cy="40.06" r="9.1"/><path class="cls-4 severity-medium" d="M59.55 30.96v18.1c-5 0-9.1-4.1-9.1-9.1s4.1-9 9.1-9Z"/></g></g><g id="damage-pill-pricing_pillar"><path class="cls-6 damage-pill-background" d="M114.53 59.2H59.55c-10.56 0-19.13-8.58-19.13-19.13 0-10.56 8.58-19.13 19.13-19.13h54.98c10.56 0 19.13 8.58 19.13 19.13 0 10.56-8.58 19.13-19.13 19.13Z"/><text class="cls-7 damage-pill-text" transform="translate(81.63 44.35)">9999€</text><circle class="cls-3 severity-low" cx="59.55" cy="40.06" r="9.1"/><circle class="cls-5 severity-high" cx="59.55" cy="40.06" r="9.1"/><circle class="cls-8 severity-none" cx="59.55" cy="40.06" r="9.1"/><g class="severity-medium"><circle class="cls-2 severity-medium severity-medium" cx="59.55" cy="40.06" r="9.1"/><path class="cls-4 severity-medium" d="M59.55 30.96v18.1c-5 0-9.1-4.1-9.1-9.1s4.1-9 9.1-9Z"/></g></g><g id="damage-pill_window_front_left"><circle class="cls-6 damage-pill-background" cx="78.78" cy="47.59" r="19.13"/><circle class="cls-3 severity-low" cx="78.78" cy="47.59" r="9.1"/><circle class="cls-5 severity-high" cx="78.78" cy="47.59" r="9.1"/><circle class="cls-8 severity-none" cx="78.78" cy="47.59" r="9.1"/><g class="severity-medium"><circle class="cls-2 severity-medium severity-medium" cx="78.78" cy="47.59" r="9.1"/><path class="cls-4 severity-medium" d="M78.78 38.49v18.1c-5 0-9.1-4.1-9.1-9.1s4.1-9 9.1-9Z"/></g></g><g id="damage-pill-pricing_window_front_left"><path class="cls-6 damage-pill-background" d="M133.76 66.72H78.78c-10.56 0-19.13-8.58-19.13-19.13 0-10.56 8.58-19.13 19.13-19.13h54.98c10.56 0 19.13 8.58 19.13 19.13 0 10.56-8.58 19.13-19.13 19.13Z"/><text class="cls-7 damage-pill-text" transform="translate(100.86 51.88)">9999€</text><circle class="cls-3 severity-low" cx="78.78" cy="47.59" r="9.1"/><circle class="cls-5 severity-high" cx="78.78" cy="47.59" r="9.1"/><circle class="cls-8 severity-none" cx="78.78" cy="47.59" r="9.1"/><g class="severity-medium"><circle class="cls-2 severity-medium severity-medium" cx="78.78" cy="47.59" r="9.1"/><path class="cls-4 severity-medium" d="M78.78 38.49v18.1c-5 0-9.1-4.1-9.1-9.1s4.1-9 9.1-9Z"/></g></g><g id="damage-pill_window_back_left"><circle class="cls-6 damage-pill-background" cx="132.57" cy="58.2" r="19.13"/><circle class="cls-3 severity-low" cx="132.57" cy="58.2" r="9.1"/><circle class="cls-5 severity-high" cx="132.57" cy="58.2" r="9.1"/><circle class="cls-8 severity-none" cx="132.57" cy="58.2" r="9.1"/><g class="severity-medium"><circle class="cls-2 severity-medium severity-medium" cx="132.57" cy="58.2" r="9.1"/><path class="cls-4 severity-medium" d="M132.57 49.1v18.1c-5 0-9.1-4.1-9.1-9.1s4.1-9 9.1-9Z"/></g></g><g id="damage-pill-pricing_window_back_left"><path class="cls-6 damage-pill-background" d="M187.55 77.33h-54.98c-10.56 0-19.13-8.58-19.13-19.13 0-10.56 8.58-19.13 19.13-19.13h54.98c10.56 0 19.13 8.58 19.13 19.13 0 10.56-8.58 19.13-19.13 19.13Z"/><text class="cls-7 damage-pill-text" transform="translate(154.66 62.48)">9999€</text><circle class="cls-3 severity-low" cx="132.57" cy="58.2" r="9.1"/><circle class="cls-5 severity-high" cx="132.57" cy="58.2" r="9.1"/><circle class="cls-8 severity-none" cx="132.57" cy="58.2" r="9.1"/><g class="severity-medium"><circle class="cls-2 severity-medium severity-medium" cx="132.57" cy="58.2" r="9.1"/><path class="cls-4 severity-medium" d="M132.57 49.1v18.1c-5 0-9.1-4.1-9.1-9.1s4.1-9 9.1-9Z"/></g></g><g id="damage-pill_mirror_left"><circle class="cls-6 damage-pill-background" cx="32.21" cy="60.3" r="19.13"/><circle class="cls-3 severity-low" cx="32.21" cy="60.3" r="9.1"/><circle class="cls-5 severity-high" cx="32.21" cy="60.3" r="9.1"/><circle class="cls-8 severity-none" cx="32.21" cy="60.3" r="9.1"/><g class="severity-medium"><circle class="cls-2 severity-medium severity-medium" cx="32.21" cy="60.3" r="9.1"/><path class="cls-4 severity-medium" d="M32.21 51.2v18.1c-5 0-9.1-4.1-9.1-9.1s4.1-9 9.1-9Z"/></g></g><g id="damage-pill-pricing_mirror_left"><path class="cls-6 damage-pill-background" d="M87.2 79.43H32.22c-10.56 0-19.13-8.58-19.13-19.13 0-10.56 8.58-19.13 19.13-19.13H87.2c10.56 0 19.13 8.58 19.13 19.13 0 10.56-8.58 19.13-19.13 19.13Z"/><text class="cls-7 damage-pill-text" transform="translate(54.3 64.58)">9999€</text><circle class="cls-3 severity-low" cx="32.21" cy="60.3" r="9.1"/><circle class="cls-5 severity-high" cx="32.21" cy="60.3" r="9.1"/><circle class="cls-8 severity-none" cx="32.21" cy="60.3" r="9.1"/><g class="severity-medium"><circle class="cls-2 severity-medium severity-medium" cx="32.21" cy="60.3" r="9.1"/><path class="cls-4 severity-medium" d="M32.21 51.2v18.1c-5 0-9.1-4.1-9.1-9.1s4.1-9 9.1-9Z"/></g></g><g id="damage-pill_door_front_left"><circle class="cls-6 damage-pill-background" cx="57" cy="101.23" r="19.13"/><circle class="cls-3 severity-low" cx="57" cy="101.23" r="9.1"/><circle class="cls-5 severity-high" cx="57" cy="101.23" r="9.1"/><circle class="cls-8 severity-none" cx="57" cy="101.23" r="9.1"/><g class="severity-medium"><circle class="cls-2 severity-medium severity-medium" cx="57" cy="101.23" r="9.1"/><path class="cls-4 severity-medium" d="M57 92.13v18.1c-5 0-9.1-4.1-9.1-9.1s4.1-9 9.1-9Z"/></g></g><g id="damage-pill-pricing_door_front_left"><path class="cls-6 damage-pill-background" d="M111.98 120.36H57c-10.56 0-19.13-8.58-19.13-19.13 0-10.56 8.58-19.13 19.13-19.13h54.98c10.56 0 19.13 8.58 19.13 19.13 0 10.56-8.58 19.13-19.13 19.13Z"/><text class="cls-7 damage-pill-text" transform="translate(79.08 105.52)">9999€</text><circle class="cls-3 severity-low" cx="57" cy="101.23" r="9.1"/><circle class="cls-5 severity-high" cx="57" cy="101.23" r="9.1"/><circle class="cls-8 severity-none" cx="57" cy="101.23" r="9.1"/><g class="severity-medium"><circle class="cls-2 severity-medium severity-medium" cx="57" cy="101.23" r="9.1"/><path class="cls-4 severity-medium" d="M57 92.13v18.1c-5 0-9.1-4.1-9.1-9.1s4.1-9 9.1-9Z"/></g></g><g id="damage-pill_door_back_left"><circle class="cls-6 damage-pill-background" cx="113.75" cy="117.12" r="19.13"/><circle class="cls-3 severity-low" cx="113.75" cy="117.12" r="9.1"/><circle class="cls-5 severity-high" cx="113.75" cy="117.12" r="9.1"/><circle class="cls-8 severity-none" cx="113.75" cy="117.12" r="9.1"/><g class="severity-medium"><circle class="cls-2 severity-medium severity-medium" cx="113.75" cy="117.12" r="9.1"/><path class="cls-4 severity-medium" d="M113.75 108.02v18.1c-5 0-9.1-4.1-9.1-9.1s4.1-9 9.1-9Z"/></g></g><g id="damage-pill-pricing_door_back_left"><path class="cls-6 damage-pill-background" d="M168.73 136.25h-54.98c-10.56 0-19.13-8.58-19.13-19.13 0-10.56 8.58-19.13 19.13-19.13h54.98c10.56 0 19.13 8.58 19.13 19.13 0 10.56-8.58 19.13-19.13 19.13Z"/><text class="cls-7 damage-pill-text" transform="translate(135.84 121.4)">9999€</text><circle class="cls-3 severity-low" cx="113.75" cy="117.12" r="9.1"/><circle class="cls-5 severity-high" cx="113.75" cy="117.12" r="9.1"/><circle class="cls-8 severity-none" cx="113.75" cy="117.12" r="9.1"/><g class="severity-medium"><circle class="cls-2 severity-medium severity-medium" cx="113.75" cy="117.12" r="9.1"/><path class="cls-4 severity-medium" d="M113.75 108.02v18.1c-5 0-9.1-4.1-9.1-9.1s4.1-9 9.1-9Z"/></g></g><g id="damage-pill_rocker_panel_left"><circle class="cls-6 damage-pill-background" cx="85.04" cy="162.4" r="19.13"/><circle class="cls-3 severity-low" cx="85.04" cy="162.4" r="9.1"/><circle class="cls-5 severity-high" cx="85.04" cy="162.4" r="9.1"/><circle class="cls-8 severity-none" cx="85.04" cy="162.4" r="9.1"/><g class="severity-medium"><circle class="cls-2 severity-medium severity-medium" cx="85.04" cy="162.4" r="9.1"/><path class="cls-4 severity-medium" d="M85.04 153.3v18.1c-5 0-9.1-4.1-9.1-9.1s4.1-9 9.1-9Z"/></g></g><g id="damage-pill-pricing_rocker_panel_left"><path class="cls-6 damage-pill-background" d="M140.02 181.53H85.04c-10.56 0-19.13-8.58-19.13-19.13 0-10.56 8.58-19.13 19.13-19.13h54.98c10.56 0 19.13 8.58 19.13 19.13 0 10.56-8.58 19.13-19.13 19.13Z"/><text class="cls-7 damage-pill-text" transform="translate(107.12 166.68)">9999€</text><circle class="cls-3 severity-low" cx="85.04" cy="162.4" r="9.1"/><circle class="cls-5 severity-high" cx="85.04" cy="162.4" r="9.1"/><circle class="cls-8 severity-none" cx="85.04" cy="162.4" r="9.1"/><g class="severity-medium"><circle class="cls-2 severity-medium severity-medium" cx="85.04" cy="162.4" r="9.1"/><path class="cls-4 severity-medium" d="M85.04 153.3v18.1c-5 0-9.1-4.1-9.1-9.1s4.1-9 9.1-9Z"/></g></g><g id="damage-pill_windshield_back"><circle class="cls-6 damage-pill-background" cx="307.23" cy="61.3" r="19.13"/><circle class="cls-3 severity-low" cx="307.23" cy="61.3" r="9.1"/><circle class="cls-5 severity-high" cx="307.23" cy="61.3" r="9.1"/><circle class="cls-8 severity-none" cx="307.23" cy="61.3" r="9.1"/><g class="severity-medium"><circle class="cls-2 severity-medium severity-medium" cx="307.23" cy="61.3" r="9.1"/><path class="cls-4 severity-medium" d="M307.23 52.2v18.1c-5 0-9.1-4.1-9.1-9.1s4.1-9 9.1-9Z"/></g></g><g id="damage-pill-pricing_windshield_back"><path class="cls-6 damage-pill-background" d="M362.21 80.43h-54.98c-10.56 0-19.13-8.58-19.13-19.13 0-10.56 8.58-19.13 19.13-19.13h54.98c10.56 0 19.13 8.58 19.13 19.13 0 10.56-8.58 19.13-19.13 19.13Z"/><text class="cls-7 damage-pill-text" transform="translate(329.31 65.58)">9999€</text><circle class="cls-3 severity-low" cx="307.23" cy="61.3" r="9.1"/><circle class="cls-5 severity-high" cx="307.23" cy="61.3" r="9.1"/><circle class="cls-8 severity-none" cx="307.23" cy="61.3" r="9.1"/><g class="severity-medium"><circle class="cls-2 severity-medium severity-medium" cx="307.23" cy="61.3" r="9.1"/><path class="cls-4 severity-medium" d="M307.23 52.2v18.1c-5 0-9.1-4.1-9.1-9.1s4.1-9 9.1-9Z"/></g></g><g id="damage-pill_roof"><circle class="cls-6 damage-pill-background" cx="181.78" cy="20.13" r="19.13"/><circle class="cls-3 severity-low" cx="181.78" cy="20.13" r="9.1"/><circle class="cls-5 severity-high" cx="181.78" cy="20.13" r="9.1"/><circle class="cls-8 severity-none" cx="181.78" cy="20.13" r="9.1"/><g class="severity-medium"><circle class="cls-2 severity-medium severity-medium" cx="181.78" cy="20.13" r="9.1"/><path class="cls-4 severity-medium" d="M181.78 11.03v18.1c-5 0-9.1-4.1-9.1-9.1s4.1-9 9.1-9Z"/></g></g><g id="damage-pill-pricing_roof"><path class="cls-6 damage-pill-background" d="M236.76 39.27h-54.98c-10.56 0-19.13-8.58-19.13-19.13 0-10.56 8.58-19.13 19.13-19.13h54.98c10.56 0 19.13 8.58 19.13 19.13 0 10.56-8.58 19.13-19.13 19.13Z"/><text class="cls-7 damage-pill-text" transform="translate(203.87 24.42)">9999€</text><circle class="cls-3 severity-low" cx="181.78" cy="20.13" r="9.1"/><circle class="cls-5 severity-high" cx="181.78" cy="20.13" r="9.1"/><circle class="cls-8 severity-none" cx="181.78" cy="20.13" r="9.1"/><g class="severity-medium"><circle class="cls-2 severity-medium severity-medium" cx="181.78" cy="20.13" r="9.1"/><path class="cls-4 severity-medium" d="M181.78 11.03v18.1c-5 0-9.1-4.1-9.1-9.1s4.1-9 9.1-9Z"/></g></g><g id="damage-pill_fender_back_left"><circle class="cls-6 damage-pill-background" cx="217.85" cy="141.23" r="19.13"/><circle class="cls-3 severity-low" cx="217.85" cy="141.23" r="9.1"/><circle class="cls-5 severity-high" cx="217.85" cy="141.23" r="9.1"/><circle class="cls-8 severity-none" cx="217.85" cy="141.23" r="9.1"/><g class="severity-medium"><circle class="cls-2 severity-medium severity-medium" cx="217.85" cy="141.23" r="9.1"/><path class="cls-4 severity-medium" d="M217.85 132.13v18.1c-5 0-9.1-4.1-9.1-9.1s4.1-9 9.1-9Z"/></g></g><g id="damage-pill-pricing_fender_back_left"><path class="cls-6 damage-pill-background" d="M272.84 160.36h-54.98c-10.56 0-19.13-8.58-19.13-19.13 0-10.56 8.58-19.13 19.13-19.13h54.98c10.56 0 19.13 8.58 19.13 19.13 0 10.56-8.58 19.13-19.13 19.13Z"/><text class="cls-7 damage-pill-text" transform="translate(239.94 145.51)">9999€</text><circle class="cls-3 severity-low" cx="217.85" cy="141.23" r="9.1"/><circle class="cls-5 severity-high" cx="217.85" cy="141.23" r="9.1"/><circle class="cls-8 severity-none" cx="217.85" cy="141.23" r="9.1"/><g class="severity-medium"><circle class="cls-2 severity-medium severity-medium" cx="217.85" cy="141.23" r="9.1"/><path class="cls-4 severity-medium" d="M217.85 132.13v18.1c-5 0-9.1-4.1-9.1-9.1s4.1-9 9.1-9Z"/></g></g><g id="damage-pill_wheel_back_left"><circle class="cls-6 damage-pill-background" cx="177.78" cy="223.4" r="19.13"/><circle class="cls-3 severity-low" cx="177.78" cy="223.4" r="9.1"/><circle class="cls-5 severity-high" cx="177.78" cy="223.4" r="9.1"/><circle class="cls-8 severity-none" cx="177.78" cy="223.4" r="9.1"/><g class="severity-medium"><circle class="cls-2 severity-medium severity-medium" cx="177.78" cy="223.4" r="9.1"/><path class="cls-4 severity-medium" d="M177.78 214.3v18.1c-5 0-9.1-4.1-9.1-9.1s4.1-9 9.1-9Z"/></g></g><g id="damage-pill-pricing_wheel_back_left"><path class="cls-6 damage-pill-background" d="M232.76 242.53h-54.98c-10.56 0-19.13-8.58-19.13-19.13 0-10.56 8.58-19.13 19.13-19.13h54.98c10.56 0 19.13 8.58 19.13 19.13 0 10.56-8.58 19.13-19.13 19.13Z"/><text class="cls-7 damage-pill-text" transform="translate(199.87 227.68)">9999€</text><circle class="cls-3 severity-low" cx="177.78" cy="223.4" r="9.1"/><circle class="cls-5 severity-high" cx="177.78" cy="223.4" r="9.1"/><circle class="cls-8 severity-none" cx="177.78" cy="223.4" r="9.1"/><g class="severity-medium"><circle class="cls-2 severity-medium severity-medium" cx="177.78" cy="223.4" r="9.1"/><path class="cls-4 severity-medium" d="M177.78 214.3v18.1c-5 0-9.1-4.1-9.1-9.1s4.1-9 9.1-9Z"/></g></g><g id="damage-pill_quarter_window_back_left"><circle class="cls-6 damage-pill-background" cx="189.81" cy="78.07" r="19.13"/><circle class="cls-3 severity-low" cx="189.81" cy="78.07" r="9.1"/><circle class="cls-5 severity-high" cx="189.81" cy="78.07" r="9.1"/><circle class="cls-8 severity-none" cx="189.81" cy="78.07" r="9.1"/><g class="severity-medium"><circle class="cls-2 severity-medium severity-medium" cx="189.81" cy="78.07" r="9.1"/><path class="cls-4 severity-medium" d="M189.81 68.97v18.1c-5 0-9.1-4.1-9.1-9.1s4.1-9 9.1-9Z"/></g></g><g id="damage-pill-pricing_quarter_window_back_left"><path class="cls-6 damage-pill-background" d="M244.8 97.2h-54.98c-10.56 0-19.13-8.58-19.13-19.13 0-10.56 8.58-19.13 19.13-19.13h54.98c10.56 0 19.13 8.58 19.13 19.13 0 10.56-8.58 19.13-19.13 19.13Z"/><text class="cls-7 damage-pill-text" transform="translate(211.9 82.35)">9999€</text><circle class="cls-3 severity-low" cx="189.81" cy="78.07" r="9.1"/><circle class="cls-5 severity-high" cx="189.81" cy="78.07" r="9.1"/><circle class="cls-8 severity-none" cx="189.81" cy="78.07" r="9.1"/><g class="severity-medium"><circle class="cls-2 severity-medium severity-medium" cx="189.81" cy="78.07" r="9.1"/><path class="cls-4 severity-medium" d="M189.81 68.97v18.1c-5 0-9.1-4.1-9.1-9.1s4.1-9 9.1-9Z"/></g></g></svg>
