<?xml version="1.0" encoding="UTF-8"?><svg id="Layer_1" xmlns="http://www.w3.org/2000/svg" viewBox="0 0 500 375"><defs><style>.cls-1{fill:none;stroke:#fff;stroke-linecap:round;stroke-linejoin:round;stroke-width:1px;}</style></defs><path id="fender_front_right" class="selectable cls-1" d="m445.27,170.86l5.18-3.66c6.21-15.1,12.74-31.54,20.33-40.01.34-.39.69-.75,1.03-1.09,9.2-9.1,5.3,7.5,3.5,14.2h-.02c-.09,2.31-.39,4.78-.84,7.32,2.69-5.46,6.06-19.84,5.66-23.62-.4-3.8-.9-5.1-1.2-6-1.22-2.9-1.22-4.95-2.52-8.18-2.62-2.17-6.3-4.94-7.28-5.72l-.27-.04c-1.52,2.56-5.11,5.96-6.33,6.34-.03.01-.06.02-.09.02-.03,0-.06.02-.1.02h-.01c-1.12.15-4.55-.31-7.91-.84h-.59c8.27,16.9,3.31,33.09-8.53,61.26Z" /><path id="window_front_right" class="selectable cls-1" d="m376.02,59.46l22.98,57.34s.04.02.12.07c22.92-5.65,40.88-9.97,40.88-9.97h2.8c-1.11-.18-2.4-.3-2.4-.3l-1-5.3s4.8.6,4.9.4c0,0,.01-.02.02-.04,0-.01,0-.04.01-.06.03-.09.06-.25.11-.46l-.24-.04c-1.68-2.52-15.97-22.32-31.27-33.13-4.73-3.34-9.55-5.82-14.13-6.67-8.21-1.76-15.79-2.23-22.78-1.84Z" /><path id="window_back_right" class="selectable cls-1" d="m316.5,81.8s-.1,52.1,1.4,55.9c0,.01.01.02.01.03,19.31-5.45,53.8-14.11,81.21-20.86-.08-.05-.12-.07-.12-.07l-22.98-57.34c-22.45,1.27-38.87,11.56-50.92,17.44-2.61,1.23-5.51,2.89-8.62,4.87l.02.03Z" /><g id="door_front_right" class="selectable"><path class="cls-1" d="m406.9,127.3c-.83-6-6.87-9.87-7.78-10.43,22.92-5.65,40.88-9.97,40.88-9.97h2.8c.56.09,1.07.2,1.36.33.05.02.1.05.14.07.6.4,1,.9,2.7,1.1.73.09,3.67.62,6.81,1.11.19.03.39.06.58.09h-.59c8.27,16.9,3.31,33.09-8.53,61.26,0,0-4.53,4.51-7.86,6.66l-40.14,25.68c5.37-20.67,12.13-57.85,9.64-75.9Zm2.6,8.1c.9,0,13.2-2.1,13.8-3.8.6-1.5.1-4.3-1-4.3h-3.4l-6.2,2.1s-3.3,1.9-3.6,2.6c-.4.9-.5,3.4.4,3.4Z" /><path id="handle_front_right" class="cls-1" d="m409.5,135.4c.9,0,13.2-2.1,13.8-3.8.6-1.5.1-4.3-1-4.3h-3.4l-6.2,2.1s-3.3,1.9-3.6,2.6c-.4.9-.5,3.4.4,3.4Z" /></g><g id="door_back_right" class="selectable"><path class="cls-1" d="m399.12,116.87c.91.56,6.95,4.43,7.78,10.43,2.49,18.05-4.27,55.23-9.64,75.9l-31.45,19.21c-4.46,2.88-8.85,4.71-13.6,2.32l-2.33-1.18c-8.37-38.1-30.57-82.35-31.97-85.82,19.31-5.45,53.8-14.11,81.21-20.86Zm-52.92,44.53c1.7-.8,13-4.8,13.7-6.2.7-1.5.6-5-.5-5.7l-6,.9-12,4.4s-5.8,3.4-6,3.9c-.2.4-.4,3.6.6,4.4.9.7,8.5-.9,10.2-1.7Z" /><path id="handle_back_right" class="cls-1" d="m336,163.1c.9.7,8.5-.9,10.2-1.7s13-4.8,13.7-6.2c.7-1.5.6-5-.5-5.7l-6,.9-12,4.4s-5.8,3.4-6,3.9c-.2.4-.4,3.6.6,4.4Z" /></g><path id="quarter_window_back_right" class="selectable cls-1" d="m246.1,143.4c.7,1.1,26.5-6.4,29.7-7,6.4.6,24.4,6.1,29,5.4,2.34-.92,6.95-2.33,13.11-4.07,0-.01-.01-.02-.01-.03-1.5-3.8-1.4-55.9-1.4-55.9l-.02-.03c-1.58,1.01-3.21,2.1-4.88,3.25-27.11,18.81-65.16,56.16-65.5,56.58-.2.3-.2,1.5,0,1.8Z" /><path id="pillar" class="selectable cls-1" d="m411.34,62.82l1.59,5.15c15.3,10.81,29.59,30.61,31.27,33.13l.24.04c.18-.78.5-2.24.86-3.61l-.1-.03c-.9-.2-1.5-.4-1.7-.4-1.3-.3-17.2-24.1-25.9-30.1-2.24-1.55-4.27-2.93-6.26-4.18Z" /><path id="mirror_right" class="selectable cls-1" d="m444.3,101.7s.01-.02.02-.04c0-.01,0-.04.01-.06.03-.09.06-.25.11-.46.18-.78.5-2.24.86-3.61.33-1.25.69-2.42,1-2.93.8-1.3,1.4-4,6.2-2.6,2.44.74,5.48,2.07,8.32,3.56h.01c4.51,2.35,8.49,5.09,8.67,6.44.07.53-.2,1.25-.67,2.06-1.52,2.56-5.11,5.96-6.33,6.34-.03.01-.06.02-.09.02-.03,0-.06.02-.1.02h-.01c-1.12.15-4.55-.31-7.91-.84-.19-.03-.39-.06-.58-.09-3.14-.49-6.08-1.02-6.81-1.11-1.7-.2-2.1-.7-2.7-1.1-.04-.02-.09-.05-.14-.07-.29-.13-.8-.24-1.36-.33-1.11-.18-2.4-.3-2.4-.3l-1-5.3s4.8.6,4.9.4Z" /><path id="background" class="cls-1" d="m470.77,127.19l.23.21c3.43,2.18,4.53,7,4.28,12.9h.02c1.8-6.7,5.7-23.3-3.5-14.2-.34.34-.69.7-1.03,1.09Z" /><path id="background-2" class="cls-1" d="m337.24,251.59c1.09-3.73,5.5-14.31,6.82-26.09.34-3.06.42-4.7.24-8.1-.96-17.83-13.16-20.38-26.77-13.92,20.43,4.54,24.63,25.28,19.71,48.11Z" /><path id="rocker_panel_right" class="selectable cls-1" d="m337.22,251.66s.01-.03.02-.05v-.02c1.09-3.73,5.5-14.31,6.82-26.09l5.82-1.95,2.33,1.18c4.75,2.39,9.14.56,13.6-2.32l31.45-19.21,40.14-25.68c3.33-2.15,7.86-6.66,7.86-6.66l5.18-3.66c-1.24,3.01-2.97,7.86-4.14,10.5-.75.72-2.97,2.44-6.3,4.9-.27.2-.55.4-.83.62-9.46,6.95-26.73,19.15-44.5,31.58-14.84,10.39-30.03,20.95-41.29,28.76-8.52,5.91-14.8,10.24-16.98,11.74h-.04c.32-1.22.6-2.44.86-3.64Z" /><g id="wheel_front_right" class="selectable"><path class="cls-1" d="m440,182.6c3.33-2.46,5.55-4.18,6.3-4.9,1.17-2.64,2.9-7.49,4.14-10.5,6.21-15.1,12.74-31.54,20.33-40.01l.23.21c3.43,2.18,4.53,7,4.28,12.9-.09,2.31-.39,4.78-.84,7.32h0s0,.02-.01.02c-.61,3.47-1.5,7.07-2.53,10.56-5,17.1-12.6,29.1-22.8,27.5-3.6-.6-7-1.1-9.8-2.3l-.13-.18c.28-.22.56-.42.83-.62Zm17.19-4.78c2.15.81,6.84-6.4,10.46-16.1,3.63-9.7,4.83-18.21,2.67-19.02-2.15-.81-6.84,6.4-10.47,16.1-3.62,9.7-4.82,18.22-2.66,19.02Z" /><path class="cls-1" d="m457.19,177.82c2.15.81,6.84-6.4,10.46-16.1,3.63-9.7,4.83-18.21,2.67-19.02-2.15-.81-6.84,6.4-10.47,16.1-3.62,9.7-4.82,18.22-2.66,19.02Z" /></g><g id="wheel_back_right" class="selectable"><path class="cls-1" d="m269.98,265.05h0c8.96-19.3,20.2-38.53,28.91-47.65,5.87-6.13,12.4-10.97,18.63-13.92,20.43,4.54,24.63,25.28,19.71,48.11v.02s0,.03-.02.05c-.26,1.2-.54,2.42-.86,3.63-1.16,4.55-2.67,9.16-4.46,13.71-11.4,28.9-35,50.8-55,42.9-7-2.7-14.1-6.9-19.9-12.4l-.18-.05c2.64-9.76,7.44-22.09,13.16-34.4Zm23.88,30.03c7.65,3.6,20.59-7.77,28.9-25.4,8.32-17.64,8.87-34.85,1.22-38.46-7.64-3.6-20.58,7.77-28.9,25.4-8.31,17.64-8.86,34.85-1.22,38.46Z" /><path class="cls-1" d="m293.86,295.08c7.65,3.6,20.59-7.77,28.9-25.4,8.32-17.64,8.87-34.85,1.22-38.46-7.64-3.6-20.58,7.77-28.9,25.4-8.31,17.64-8.86,34.85-1.22,38.46Z" /></g><path id="background-3" class="cls-1" d="m80.67,106.8l11.13-1.7c1.95-.88,75.15-35.61,81.93-38.08l-.39-1.03h-.01c-18.59,7.01-41.75,17.37-47.93,20.71-5.17,2.79-26.93,12.43-44.73,20.1Z" /><path id="fender_back_right" class="selectable cls-1" d="m215,192.3c-5,9.74-16.96,27.79-34.28,39.54l13.29,17.61c6.2,8.22,15.76,13.22,26.05,13.63l49.92,1.97h0c8.96-19.3,20.2-38.53,28.91-47.65,5.87-6.13,12.4-10.97,18.63-13.92,13.61-6.46,25.81-3.91,26.77,13.92.18,3.4.1,5.04-.24,8.1l5.82-1.95c-8.37-38.1-30.57-82.35-31.97-85.82-6.16,1.74-10.77,3.15-13.11,4.07-4.6.7-22.6-4.8-29-5.4-3.2.6-29,8.1-29.7,7-.2-.3-.2-1.5,0-1.8.34-.42,38.39-37.77,65.5-56.58-6.53-6.25-20.3-8.52-20.3-8.52,0,0-96.8,65.1-100.7,65.6-.8,5-4.5,18-7.2,21.6-1.75,2.3-39.79,18.89-48.39,23.81-.73.42-1.24.76-1.51.99-1.73,1.53-5.04,3.57-8.87,8.51,20.5,1.07,67.34-10.82,70.07-11.21,2.8-.4,16.3,3.5,20.3,6.5Z" /><path id="roof" class="selectable cls-1" d="m173.34,65.99l.39,1.03c.16-.06.29-.1.37-.12,1.3-.3,16.4-2.9,36.4-1.6.36.02.72.04,1.08.07,2.44.15,4.93.34,7.47.55h.01c.15,0,.28.02.43.03.15.01.31.03.47.04,3.58.29,7.24.63,10.91,1,2.26.22,4.53.46,6.79.71.72.08,1.43.16,2.15.23.17.02.34.04.52.06.84.1,1.68.2,2.52.29,1.81.21,3.61.43,5.39.65.7.09,1.4.17,2.1.26.16.02.32.04.48.06.86.11,1.71.22,2.55.33.85.11,1.68.22,2.51.33,1.51.2,3,.4,4.46.61.45.06.91.13,1.37.19,1.2.17,2.38.34,3.53.51,3.87.57,7.46,1.14,10.67,1.68.53.09,1.04.18,1.55.27.43.08.86.15,1.28.23.55.09,1.09.19,1.61.29,1.65.31,3.15.6,4.47.88.44.09.86.18,1.26.27.25.06.5.12.74.17.22.05.42.1.62.15.2.05.4.1.58.15.56.14,1.05.27,1.48.4.14.04.27.09.4.13.76.25,1.24.47,1.4.66,0,0,13.77,2.27,20.3,8.52,1.67-1.15,3.3-2.24,4.88-3.25,3.11-1.98,6.01-3.64,8.62-4.87,12.05-5.88,28.47-16.17,50.92-17.44,6.99-.39,14.57.08,22.78,1.84,4.58.85,9.4,3.33,14.13,6.67l-1.59-5.15c-5.72-3.6-11.14-6.04-20.64-7.82-12.8-2.4-50.8-4.7-71.7-5.4-20.9-.7-72,1.1-79.3,1.6-2.01.15-12.29,1.1-22.88,3.03-10.52,1.92-21.33,4.82-24.52,5.57-4.6,1.04-11.39,3.34-18.96,6.19Z" /><path id="windshield_back" class="selectable cls-1" d="m83.7,115.4c1.1,3.8,67.9,23.9,83.8,26.7,7.9,1.4,19.2.5,23.1,0,3.9-.5,100.7-65.6,100.7-65.6-.16-.19-.64-.41-1.4-.66-.12-.04-.26-.08-.4-.13-.43-.13-.92-.26-1.48-.4-.18-.05-.38-.1-.58-.15-.2-.05-.41-.1-.62-.15-.24-.05-.49-.11-.74-.17-.4-.09-.82-.18-1.26-.27-1.32-.28-2.82-.57-4.47-.88-.52-.1-1.06-.19-1.61-.29-.42-.08-.85-.15-1.28-.23-.51-.09-1.02-.18-1.55-.27-3.21-.54-6.8-1.11-10.67-1.68-1.15-.17-2.33-.34-3.53-.51-.46-.06-.92-.13-1.37-.19-1.46-.2-2.94-.41-4.46-.61-.83-.11-1.66-.22-2.51-.33-.84-.11-1.69-.22-2.55-.33-.16-.02-.32-.04-.48-.06-.7-.09-1.4-.17-2.1-.26-1.78-.22-3.58-.44-5.39-.65-.84-.09-1.68-.19-2.52-.29-.18-.02-.35-.04-.52-.06-.72-.07-1.43-.15-2.15-.23-2.26-.25-4.53-.49-6.79-.71-3.67-.37-7.33-.71-10.91-1-.16,0-.32-.03-.47-.04-.15-.01-.28-.02-.43-.03h-.01c-2.54-.21-5.03-.4-7.47-.55-.36-.03-.72-.05-1.08-.07-20-1.3-35.1,1.3-36.4,1.6-.08.02-.21.06-.37.12-6.78,2.47-79.98,37.2-81.93,38.08-2,.9-9.2,6.6-8.1,10.3Z" /><path id="trunk" class="selectable cls-1" d="m167.5,142.1c-15.9-2.8-82.7-22.9-83.8-26.7-1.1-3.7,6.1-9.4,8.1-10.3l-11.13,1.7h-.01c-12.15,5.22-22.45,9.53-24.36,10.1-4.7,1.4-33.7,12.6-34.9,15.1-1.2,2.5-.5,4.9,1.3,6.6-.2,1.3-5.6,8.1-4.5,15.8.76,5.35,2.49,12.18,3.55,16.4.46,1.86.79,3.21.85,3.7.01.06.01.13,0,.2h0c2.3,9.02,4.73,20.03,6.65,25.23.12.35.25.67.37.96.2.48.39.89.58,1.21,2,3.4,10.1,18.6,26.8,30.8,10.8,9.1,33.4,21.7,35.9,20.9,2.5-.8,14-12.7,14.2-14.7,0-.02,0-.04.01-.06-15.04-2.78-26.91-5.94-26.91-5.94,0,0-3.55-7.42-3.55-9,0-.18.05-.29.15-.3,17.8,4.4,33.7,4.1,33.7,4.1l2.2-6.1s-30.2-9.8-31.5-11.1-15.9-23.2-14.5-23.2c1,1,38.6,7.9,56.4,9.4.49.04,1,.08,1.53.11,3.83-4.94,7.14-6.98,8.87-8.51.27-.23.78-.57,1.51-.99,8.6-4.92,46.64-21.51,48.39-23.81,2.7-3.6,6.4-16.6,7.2-21.6-3.9.5-15.2,1.4-23.1,0Zm-109.79,83.25l-25.54-25.54v-15.26l9.41,6.6,1.67,1.17,14.46,10.15v22.88Z" /><path id="tail_light_right" class="selectable cls-1" d="m76.65,224.1c0,1.58,3.55,9,3.55,9,0,0,11.87,3.16,26.91,5.94,14.73,2.73,32.52,5.1,45.19,3.76,10.59-1.13,20.12-5.32,28.42-10.96,17.32-11.75,29.28-29.8,34.28-39.54-4-3-17.5-6.9-20.3-6.5-2.73.39-49.57,12.28-70.07,11.21-.53-.03-1.04-.07-1.53-.11-17.8-1.5-55.4-8.4-56.4-9.4-1.4,0,13.2,21.9,14.5,23.2s31.5,11.1,31.5,11.1l-2.2,6.1s-15.9.3-33.7-4.1c-.1.01-.15.12-.15.3Z" /><path id="fog_light_back_right" class="selectable cls-1" d="m85.9,276.9s8.3,8.8,30.6,15.2c6.3,1.3,15.1,5.4,48.5,2.8,0,0-5.96-6.53-6.56-6.53s-20.84,1.5-28.14.1c-14.9-1.8-40.37-12.33-42.07-14.03s-2.33,2.46-2.33,2.46Z" /><path id="bumper_back" class="selectable cls-1" d="m18.9,185c.48-4.6,3.63-8.57,3.7-10.29,2.7,10.6,5.6,23.99,7.6,27.39,2,3.4,10.1,18.6,26.8,30.8,10.8,9.1,33.4,21.7,35.9,20.9,2.5-.8,14-12.7,14.2-14.7,0-.02,0-.04,0-.06,14.73,2.73,32.52,5.1,45.19,3.76,10.59-1.13,20.12-5.32,28.42-10.96l13.29,17.61c6.2,8.22,15.76,13.22,26.05,13.63l49.92,1.97c-5.72,12.31-10.52,24.64-13.16,34.4-.3,1.12-.58,2.2-.82,3.25-1.1,4.8-78.8,33.3-101.5,34.6-22.8,1.2-52-14-60.1-19.1-33.8-21.1-49.5-42.2-54-48s-10.9-20.2-11.6-22c-.7-1.8-5.3-20.9-5-22,.3-1.1-6.4-17.7-6.7-20.2-.3-2.5,1.3-16.2,1.8-21Zm67,91.9s8.3,8.8,30.6,15.2c6.3,1.3,15.1,5.4,48.5,2.8,0,0-5.96-6.53-6.56-6.53s-20.84,1.5-28.14.1c-14.9-1.8-40.37-12.33-42.07-14.03s-2.33,2.46-2.33,2.46Z" /><polygon id="license_plate_back" class="selectable cls-1" points="32.17 184.55 32.17 199.81 57.71 225.35 57.71 202.47 43.25 192.32 32.17 184.55" /></svg>