<?xml version="1.0" encoding="UTF-8"?><svg id="Layer_1" xmlns="http://www.w3.org/2000/svg" viewBox="0 0 500 375"><defs><style>.cls-1{fill:none;stroke:#fff;stroke-linecap:round;stroke-linejoin:round;}</style></defs><g id="door_back_right" class="selectable"><path class="cls-1" d="m405.94,127.22h.02c17.99,9.26,6.32,63.32.23,87.32l-52.41,27.47c.63-20.18-1.54-36.96-6.04-41.1-.74-.79-2.14-.97-4.1-.7.14-8.85-7.24-53.04-18.3-64.1v-.04c26.41-2.9,56.63-6.21,80.59-8.84Zm-64.09,26.78c.6.8,3,2.3,4,2.2s19.5-2.6,20.4-3.3c1.5-1,3.5-7.5-1.3-7.4,0,0-22.7,3-23.1,3.5-.4.5-1.1,3.5,0,5Z" /><path id="handle_back_right" class="cls-1" d="m341.85,154c.6.8,3,2.3,4,2.2s19.5-2.6,20.4-3.3c1.5-1,3.5-7.5-1.3-7.4,0,0-22.7,3-23.1,3.5-.4.5-1.1,3.5,0,5Z" /></g><g id="door_front_right" class="selectable"><path class="cls-1" d="m405.96,127.22c24.94-2.73,43.32-5.29,43.32-5.29,20.45,8.2,5.78,51.05-1.95,71.19l-41.14,21.41c6.09-24,17.76-78.06-.23-87.32Zm11.49,12.58c.7,1.1,1.7,1.4,2.3,1.4.7,0,10-.7,11.6-1.6,1.4-1,1.8-5-1.1-5.6,0,0-12,1.2-12.5,1.7s-1,3-.3,4.1Z" /><path id="handle_front_right" class="cls-1" d="m417.45,139.8c.7,1.1,1.7,1.4,2.3,1.4.7,0,10-.7,11.6-1.6,1.4-1,1.8-5-1.1-5.6,0,0-12,1.2-12.5,1.7s-1,3-.3,4.1Z" /></g><path id="window_front_right" class="selectable cls-1" d="m386.08,70.64c2.69,2.94,15.39,41.83,19.17,56.26.23.1.46.21.69.32h.02c24.94-2.73,43.32-5.29,43.32-5.29-.11-.05-.22-.09-.33-.13-1.16-.12-2.26-.24-3.23-.34-2.35-.26-3.97-.46-3.97-.46-1.4-1.2-2.1-5.3-1.8-5.7.28-.38,1.89-.49,3.16-.75-.79-1.13-13.61-19.33-24.46-31.25-2.38-2.67-4.79-4.7-7.28-6.28-7.13-4.52-14.91-5.28-24.62-6.32-.2-.02-.42-.04-.67-.06Z" /><path id="window_back_right" class="selectable cls-1" d="m313.48,68.28c.84,2.64,10.67,54.5,11.87,67.78,26.41-2.9,56.63-6.21,80.59-8.84-.23-.11-.46-.22-.69-.32-3.78-14.43-16.48-53.32-19.17-56.26h0s-.01-.01-.01-.01c-7.84-.71-39.86-1.94-72.59-2.35Z" /><path id="quarter_window_back_right" class="selectable cls-1" d="m237.55,131.3c9.2,11.9,17,12.5,26.2,11.5.73-.08,28.1-3.08,61.6-6.74-1.2-13.28-11.03-65.14-11.87-67.78-33.04-.42-66.8,0-77.13,2.62.2,5.6-1.5,48.6,1.2,60.4Z" /><path id="tail_light_right" class="selectable cls-1" d="m74.45,166.7c4.45-.55,18.18,5.17,51.1,6.34h.11c2.45.09,5.01.15,7.69.18,20.35.24,47.12-1.24,82.1-6.42,5-1.8,17.7,5.5-1.4,22.1-22.94,11.74-62.23,13.25-91.52,10.43h-.01c-19.62-1.89-34.75-5.72-37.47-9.73-6.8-10-8.8-12.2-14.8-13.6-6-1.4-3.2-8.4,4.2-9.3Z" /><path id="license_plate_back" class="selectable cls-1" d="m41,206.33l31.72,27.01,2.52-16.54.03-.02c-6.24-7.43-12.05-14.56-13.13-15.58-4.48-2.2-11.57-6.38-18.36-10.66l-.04.06-2.74,15.73Z" /><path id="trunk" class="selectable cls-1" d="m21.25,150.8c1.7-4.8,2.4-8.6,2.9-11.1.48-2.4,3.83-6.01,6.3-11.79-.56,13.98,74.43,22.15,110.68,18.97-2.12,9.68-9.68,21.32-9.68,23.02s1.9,3,1.9,3v.32c-2.68-.03-5.24-.09-7.69-.18h-.11c-32.92-1.17-46.65-6.89-51.1-6.34-7.4.9-10.2,7.9-4.2,9.3,6,1.4,8,3.6,14.8,13.6,2.72,4.01,17.85,7.84,37.47,9.73l-4.97,5.07c-1.7,11.3,10.3,33.2,11.1,36.6.09.42-.01.96-.27,1.59l-.23-.09c-6.4-.6-36.6-8.8-41.2-12.3-3.26-3.5-7.56-8.52-11.67-13.42-6.24-7.43-12.05-14.56-13.13-15.58-4.48-2.2-11.57-6.38-18.36-10.66-8.52-5.35-16.57-10.84-18.4-12.73t-.01-.01c-2.4-4.18-4.58-8.19-5.03-9.5-1-2.9-1.2-11.4.9-17.5Zm2.9,66.1c.04.26.09.53.14.81,6.46,15.77,48.63,53.06,69.26,58.29,11.29,2.91,15.27-2.82,19.55-11.08.57-1.1,1.15-2.24,1.75-3.42,3.14-6.19,11.82-14.66,13.53-18.91l-.23-.09c-6.4-.6-36.6-8.8-41.2-12.3-3.26-3.5-7.56-8.52-11.67-13.42l-.03.02-2.52,16.54-31.72-27.01,2.74-15.73.04-.06c-8.52-5.35-16.57-10.84-18.4-12.73,2.88,5.04,6.09,10.34,6.96,11.49-1,1.6-2.3,3.1-3.7,6.3-1.3,3-5.2,17-4.5,21.3Z" /><path id="fog_light_back_right" class="selectable cls-1" d="m87.95,293.5c7.5,6.4,32.7,14.7,62,10.3-8.3-5.2-12.2-7-16.1-7.5-6.8-1.5-32.5-3.3-50.9-15.2-.2,2.1.6,6.7,5,12.4Z" /><path id="bumper_back" class="selectable cls-1" d="m29.45,243.8c-.3,1.4-1,2.7-1.2,3.8.4,2.6,53,63.9,73.8,82.7,6,5.4,29.3,11.3,57.1,10.1,23.61-1.12,74.86-14.84,88.48-23.85,1.03-.67,1.85-1.33,2.42-1.95,4.38-4.76,10.36-19.06,15.31-32.14l-12.98,2.68-1.23,2.67c-1.52,3.31-4.52,5.69-8.08,6.42l-75.14,15.46c-4.02.82-8.21.09-11.71-2.05l-6.27-3.84c-29.3,4.4-54.5-3.9-62-10.3-4.4-5.7-5.2-10.3-5-12.4-14.8-10.29-44-34.05-55.8-52.5.7,1.2-2.9,6.1,2.3,15.2Zm64.1,32.2c11.29,2.91,15.27-2.82,19.55-11.08.57-1.1,1.15-2.24,1.75-3.42,3.14-6.19,11.82-14.66,13.53-18.91.26-.63.36-1.17.27-1.59-.8-3.4-12.8-25.3-11.1-36.6l4.97-5.07h.01c29.29,2.82,68.58,1.31,91.52-10.43l32.87,30.56c5.28,4.9,12.46,7.21,19.61,6.29l28.18-3.64c-12.02,12.81-18.71,31.73-20.56,36.29-1.1,2.71-4.57,12.94-8.79,24.06l-12.98,2.68-1.23,2.67c-1.52,3.31-4.52,5.69-8.08,6.42l-75.14,15.46c-4.02.82-8.21.09-11.71-2.05l-6.27-3.84c-8.3-5.2-12.2-7-16.1-7.5-6.8-1.5-32.5-3.3-50.9-15.2-14.8-10.29-44-34.05-55.8-52.5-.66-1.12-2.86-7.99-2.86-10.89,6.46,15.77,48.63,53.06,69.26,58.29Z" /><path id="fender_back_right" class="selectable cls-1" d="m141.13,146.88c.31-.02.62-.05.92-.08,4.9-.2,14.7-2,21-11,7.6-13,20.2-45,23.3-58l50-6.9c.2,5.6-1.5,48.6,1.2,60.4,9.2,11.9,17,12.5,26.2,11.5.73-.08,28.1-3.08,61.6-6.74v.04c11.06,11.06,18.44,55.25,18.3,64.1-6.73.92-20.17,7.2-36.9,12.7-.77.37-1.52.78-2.26,1.22,0,0-.01,0-.01.01-3.59,2.09-6.83,4.85-9.77,7.98l-28.18,3.64c-7.15.92-14.33-1.39-19.61-6.29l-32.87-30.56c19.1-16.6,6.4-23.9,1.4-22.1-34.98,5.18-61.75,6.66-82.1,6.42v-.32s-1.9-1.3-1.9-3,7.56-13.34,9.68-23.02Z" /><path id="windshield_back" class="selectable cls-1" d="m30.75,127.2c5.2-12.6,34.9-51.7,34.9-51.7l.4-.1c2.46-3.56,69.05-7.92,104.69-1.89,6.38,1.08,11.76,2.49,15.61,4.29-3.1,13-15.7,45-23.3,58-6.3,9-16.1,10.8-21,11-.3.03-.61.06-.92.08-36.25,3.18-111.24-4.99-110.68-18.97h0c.11-.24.2-.47.3-.71Z" /><path id="roof" class="selectable cls-1" d="m55.45,71.3c1,.6,10.2,4.2,10.2,4.2l.4-.1c2.46-3.56,69.05-7.92,104.69-1.89,6.38,1.08,11.76,2.49,15.61,4.29l50-6.9c10.33-2.62,44.09-3.04,77.13-2.62,32.73.41,64.75,1.64,72.59,2.35h.01c.25.03.47.05.67.07,9.71,1.04,17.49,1.8,24.62,6.32h5.62c-1.42-1.33-2.78-2.49-4.04-3.42-11.7-8.6-15.87-10.82-28.97-13.72-.02,0-.07-.02-.09-.02-17.69-3.91-40.17-6.44-78.77-8.84-44.61-2.77-136.22-4.75-179.28-2.02-16.85,1.07-64.7,8.3-69.8,14.2-5.1,5.9-1.6,7.5-.6,8.1Z" /><path id="pillar" class="selectable cls-1" d="m411.37,77.02c2.49,1.58,4.9,3.61,7.28,6.28,10.85,11.92,23.67,30.12,24.46,31.25.08,0,.16-.03.24-.05,0-.77.31-2.42.79-4.15-1.36-1.95-16.03-22.88-27.15-33.33h-5.62Z" /><path id="mirror_right" class="selectable cls-1" d="m439.95,115.3c.28-.38,1.89-.49,3.16-.75.08,0,.16-.03.24-.05,0-.77.31-2.42.79-4.15.63-2.31,1.55-4.79,2.41-5.65.88-.94,3.27-1.25,6.2-1.18.14,0,.27.01.41.01,1.64.06,3.43.23,5.19.47,6.2.9,8.7,3.3,9.2,4.2.7,1.2,1,4,.4,6.2-.66,2.38-1.94,4.5-3.22,6.01-.65.77-1.3,1.38-1.88,1.79-.05.04-.12.07-.21.09-1.54.56-8.28.04-13.69-.49-1.16-.12-2.26-.24-3.23-.34-2.35-.26-3.97-.46-3.97-.46-1.4-1.2-2.1-5.3-1.8-5.7Z" /><path id="rocker_panel_right" class="selectable cls-1" d="m352.94,253.4c.17-2.68.77-8.69.85-11.4l52.41-27.47,41.14-21.41,10.01-5.27h.01c-2.61,6.1-6.15,12.81-8.1,13.25-.84.18-3.01,1.23-6.18,2.93-2.05,1.1-4.52,2.48-7.31,4.07-8.82,5.03-20.84,12.19-33,19.52-23.78,14.35-48.07,29.38-49.9,30.51.08-1.63.11-3.21.08-4.73Z" /><path id="fender_front_right" class="selectable cls-1" d="m447.33,193.12l10.01-5.27h.01c4.95-11.62,9.37-27.02,12.88-34.81.88-1.95,1.63-3.28,2.22-3.74,4.2-3.3,10.8-4.8,11.4-2.3.6,2.5-2.8,17.6-2.8,17.6h-.09c.02.22.03.43.04.65.56-1.54,5.3-15.08,4.55-23.65-.9-9-8.9-19.1-11.8-19.8-2.71-.65-8.3-1.31-9.02-1.39-.65.77-1.3,1.38-1.88,1.79-.05.04-.12.07-.21.09-1.54.56-8.28.04-13.69-.49.11.04.22.08.33.13,20.45,8.2,5.78,51.05-1.95,71.19Z" /><path id="background" class="cls-1" d="m470.23,153.04l.32.06c2.4.3,4.6,1.2,6,1.9,2.67,1.29,4.06,4.7,4.41,9.61h.09s3.4-15.11,2.8-17.61c-.6-2.5-7.2-1-11.4,2.3-.59.46-1.34,1.79-2.22,3.74Z" /><path id="background-2" class="cls-1" d="m304.48,214.13l.17.27c8,.4,15.8,3.2,23.9,5.7,16.01,4.8,24.02,15.1,24.39,33.3.17-2.68.77-8.69.85-11.4.63-20.18-1.54-36.96-6.04-41.1-.74-.79-2.14-.97-4.1-.7-6.73.92-20.17,7.2-36.9,12.7-.77.37-1.52.78-2.26,1.22,0,0-.01,0-.01.01Z" /><g id="wheel_front_right" class="selectable"><path class="cls-1" d="m443.07,204.03c3.17-1.7,5.34-2.75,6.18-2.93,1.95-.44,5.49-7.15,8.1-13.25,4.95-11.62,9.37-27.02,12.88-34.81l.32.06c2.4.3,4.6,1.2,6,1.9,2.67,1.29,4.06,4.7,4.41,9.61.02.21.03.42.04.64.33,6.42-1.02,15.24-3.55,25.15-3.4,10.7-8.7,30.4-17.3,29.6-14.34-2.29-23.62-3.69-24.39-11.9,2.79-1.59,5.26-2.97,7.31-4.07Zm20.38,6.34c2.49.66,6.95-8.05,9.96-19.46,3.01-11.4,3.43-21.17.94-21.83-2.49-.66-6.94,8.05-9.95,19.46-3.01,11.4-3.44,21.17-.95,21.83Z" /><path class="cls-1" d="m463.45,210.37c2.49.66,6.95-8.05,9.96-19.46,3.01-11.4,3.43-21.17.94-21.83-2.49-.66-6.94,8.05-9.95,19.46-3.01,11.4-3.44,21.17-.95,21.83Z" /></g><g id="wheel_back_right" class="selectable"><path class="cls-1" d="m250.05,314.6c4.38-4.76,10.36-19.06,15.31-32.14,4.22-11.12,7.69-21.35,8.79-24.06,1.85-4.56,8.54-23.48,20.56-36.29,2.94-3.13,6.18-5.89,9.77-7.98l.17.27c8,.4,15.8,3.2,23.9,5.7,16.01,4.8,24.02,15.1,24.39,33.3.03,1.52,0,3.1-.08,4.73-.47,10.2-3.03,22.61-7.61,37.57-11.7,30.7-29.3,51.1-49.5,52.6-16.27.69-44.64-21.54-48.12-31.75,1.03-.67,1.85-1.33,2.42-1.95Zm56.62,13.9c8.93,3.01,22.29-12.71,29.85-35.12,7.56-22.41,6.46-43.01-2.47-46.03-8.93-3.01-22.3,12.72-29.86,35.12-7.56,22.41-6.45,43.02,2.48,46.03Z" /><path class="cls-1" d="m306.67,328.5c8.93,3.01,22.29-12.71,29.85-35.12,7.56-22.41,6.46-43.01-2.47-46.03-8.93-3.01-22.3,12.72-29.86,35.12-7.56,22.41-6.45,43.02,2.48,46.03Z" /></g></svg>