<?xml version="1.0" encoding="UTF-8"?><svg id="Layer_1" xmlns="http://www.w3.org/2000/svg" viewBox="0 0 500 375"><defs><style>.cls-1{fill:none;stroke:#fff;stroke-linecap:round;stroke-linejoin:round;stroke-width:1px;}</style></defs><path id="roof" class="selectable cls-1" d="m29.75,58.03l6.13-1.13c5.41-1.22,11.51-2.31,17.91-3.22,12.76-1.82,26.68-2.93,38.51-2.92,10.64.02,19.59.94,24.49,3.07l17.18-.63h.01c10-4.8,112.5-2.2,123.2,2.6.25.11.52.24.81.4h.01l1.43-.12c-2.06-1.23-3.93-2.24-5.55-2.98-12-6.1-19.53-8.37-25.2-9.3-11.17-1.83-22.25-2.49-35-3.49-25.19-1.97-55.64-3.59-62.2-3.61-20.23-.07-67.06,4.39-89.38,10.26-3.8,1-6.51,2.16-7.72,3.34-1.72,2.18-3.25,4.82-4.63,7.73Z" /><path id="quarter_window_back_right" class="selectable cls-1" d="m26.98,88.1c.28.58,6.74,2.53,15.61,4.97.09-.12.19-.25.29-.37.35-3.3,7.42-29.42,10.91-39.02-6.4.91-12.5,2-17.91,3.22-5.7,14.8-10.3,25.4-8.9,31.2Z" /><path id="window_back_right" class="selectable cls-1" d="m42.59,93.07c12.89,3.53,30.86,8.07,42.29,10.89.03-.05.07-.11.1-.16-.95-12.6,5.33-41.81,7.32-53.04-11.83-.01-25.75,1.1-38.51,2.92-3.49,9.6-10.56,35.72-10.91,39.02-.1.12-.2.25-.29.37Z" /><path id="window_front_right" class="selectable cls-1" d="m95.86,106.6c-.75-3.09-1.02-6.13-.18-7.8,1.9-3.8,10.1-6.2,17.5-6.8,7.1-.6,16.3-1.1,21.9,2.5,1.41.9,2.68,2.27,3.78,3.81h.02c.7-1.01,2-10.31,2-10.31,0-.02-.01-.03-.01-.05-.48-2.06-3.27-8.86-7.41-15.94-4.18-7.13-9.73-14.56-15.68-17.71-.31-.16-.64-.32-.99-.47-4.9-2.13-13.85-3.05-24.49-3.07-1.99,11.23-8.27,40.44-7.32,53.04-.03.05-.07.11-.1.16,6.23,1.54,10.52,2.56,10.98,2.64Z" /><path id="mirror_right" class="selectable cls-1" d="m95.86,106.6c.96,3.92,2.69,7.94,3.92,9.4,2.2,2.6,5.3,2.7,8.9,3.1,3.6.4,38.6.7,39.7.7s7.1,1.5,7.1,1.5c0,0-1.1-3.1-1.5-4.2-.4-1-1.5-2.9-4.6-4.1-3.1-1.2-5.1-1-6.2-1.1.1-.3.4-1.9.6-2.2.22-.6-1.62-6.8-4.92-11.39-1.1-1.54-2.37-2.91-3.78-3.81-5.6-3.6-14.8-3.1-21.9-2.5-7.4.6-15.6,3-17.5,6.8-.84,1.67-.57,4.71.18,7.8Z" /><path id="pillar" class="selectable cls-1" d="m116.79,53.83c.35.15.68.31.99.47,5.95,3.15,11.5,10.58,15.68,17.71,4.14,7.08,6.93,13.88,7.41,15.94,0-.76,9.24,15.66,15.49,27.4,3.04,5.7,5.37,10.3,5.61,11.29l10.01-3.34c-2.81-7.08-38.73-66.45-38.16-69.94.01-.11.06-.16.15-.16l-17.18.63Z" /><path id="background" class="cls-1" d="m258,56.2c12.13,6.34,58.08,45.89,62.28,49.5l-.2-2c-1.82-1.9-5.76-5.47-10.9-9.9-4.07-3.48-8.89-7.51-14.03-11.66-12.14-9.81-26.03-20.31-35.72-26.06l-1.43.12Z" /><path id="head_light_right" class="selectable cls-1" d="m310.28,221.2c3.3,2.1,61.6,0,73.6-4.7.5-.2.99-.42,1.47-.67,10.9-5.51,15.8-22.28,14.36-24.29-.01-.01-.02-.03-.03-.04-10.47,3.81-39.48,5.63-60.9,5.96h-.01c-10.09.16-18.49-.01-22.49-.46-12.4-1.5-20.5-5.5-22.6.1-3.4,7,13.4,21.9,16.6,24.1Z" /><path id="grill_radiator" class="selectable cls-1" d="m385.35,215.83l.03.07c9.5,3.5,14.6,17.3,19.6,15,14.3-3.8,54.8-40.6,56.2-42.2,1.4-1.7,3.6-10.2,4.5-15.8l.26.03c.51-4.38,1.05-14.1,1.09-19.65-3.04,5.1-42.28,32.55-67.25,38.22l-.07.04c1.44,2.01-3.46,18.78-14.36,24.29Z" /><polygon id="license_plate_front" class="selectable cls-1" points="431.98 280.71 461.27 245.62 467.03 226.19 436.73 256.03 431.98 280.71" /><path id="grill_low" class="selectable cls-1" d="m415.98,259.7c24.4-18.4,58.3-53.5,62.7-58.2l.11.03c-2.75,11.04-15.1,46.16-16.61,50.87-.07.21-.21.5-.43.87l-.04-.02c-2.48,4.3-57.04,68.93-57.63,53.15,1.4-15,8.7-41.8,11.9-46.7Zm45.29-14.08l5.76-19.43-30.3,29.84-4.75,24.68,29.29-35.09Z" /><path id="fog_light_front_right" class="selectable cls-1" d="m333.42,275.69c0,5.81,4.71,10.51,10.52,10.51s10.51-4.7,10.51-10.51-4.71-10.52-10.51-10.52-10.52,4.71-10.52,10.52Z" /><path id="bumper_front" class="selectable cls-1" d="m310.28,221.2c3.3,2.1,61.6,0,73.6-4.7.5-.2.99-.42,1.47-.67l.03.07c9.5,3.5,14.6,17.3,19.6,15,14.3-3.8,54.8-40.6,56.2-42.2,1.4-1.7,3.6-10.2,4.5-15.8l.26.03c-.02.16-.04.32-.06.47,3.4,3.7,14.9,18.1,13.3,26.4-.09.48-.22,1.06-.39,1.73l-.11-.03c-4.4,4.7-38.3,39.8-62.7,58.2-3.2,4.9-10.5,31.7-11.9,46.7.59,15.78,55.15-48.85,57.63-53.15l.04.02c-5.04,8.53-48.96,58.32-60.27,65.03-11.8,7.1-48.4,23.8-73.6,20.4-19.82-2.68-33.4-12.6-38.24-16.66-1.29-1.08-1.96-1.74-1.96-1.74,0,0-11.61-49.43-25.56-75.6l48.16-23.5Zm33.66,65c5.8,0,10.51-4.7,10.51-10.51s-4.71-10.52-10.51-10.52-10.52,4.71-10.52,10.52,4.71,10.51,10.52,10.51Z" /><g id="door_back_right" class="selectable"><path class="cls-1" d="m33.28,131c-.69-17.97,1.74-28.43,9.31-37.93,12.89,3.53,30.86,8.07,42.29,10.89-1.22,1.88-3.4,4.38-6.8,12.84.38,3.68.29,25.74,12.94,78.19l-37.34-22.58c-4.72-10.56-11.32-25.55-15.51-34.81-.4-.87-.76-1.68-1.09-2.4-.78-1.44-2.25-2.79-3.97-3.95l.17-.25Zm3.7-23.4c.5,2.1,9.3,2.9,10.6,2.4,1.1-.3.4-3.5.4-3.6-.1-.3-.4-.7-1.6-.8-1.1-.1-3.5-.6-4-1.6-.4-1.1-3.8-.9-5-.6-1.3.3-.9,2.1-.4,4.2Z" /><path id="handle_back_right" class="cls-1" d="m36.98,107.6c.5,2.1,9.3,2.9,10.6,2.4,1.1-.3.4-3.5.4-3.6-.1-.3-.4-.7-1.6-.8-1.1-.1-3.5-.6-4-1.6-.4-1.1-3.8-.9-5-.6-1.3.3-.9,2.1-.4,4.2Z" /></g><g id="door_front_right" class="selectable"><path class="cls-1" d="m84.88,103.96c6.23,1.54,10.52,2.56,10.98,2.64.96,3.92,2.69,7.94,3.92,9.4,2.2,2.6,5.3,2.7,8.9,3.1,3.6.4,38.6.7,39.7.7s7.1,1.5,7.1,1.5c0,0-1.1-3.1-1.5-4.2-.05-.12-.11-.26-.19-.41-.52-1.05-1.7-2.64-4.41-3.69-3.1-1.2-5.1-1-6.2-1.1.1-.3.4-1.9.6-2.2.22-.6-1.62-6.8-4.92-11.39h.02c.7-1.01,2-10.31,2-10.31,0-.02-.01-.03-.01-.05,0-.76,9.24,15.66,15.49,27.4,3.04,5.7,5.37,10.3,5.61,11.29.01.07.02.13.01.16-.4,2.2-1.2,1.2-7.7,15.6-5.37,11.89.93,66.31,4.29,92.63l-67.55-40.03c-12.65-52.45-12.56-74.51-12.94-78.19,3.4-8.46,5.58-10.96,6.8-12.84Zm11.4,22.84c.7-.1,1.5-.6,1.7-1.1.3-.7-.2-3.5-.4-3.7,0,0-.9-1.3-3.3-1.6-2.7.4-6.1-1.2-6.7-2.3-.5-.5-3.2-1-4.9-1.3-1.6.2-1.7,1.1-2,2.7-.1.6.9,3.4,1.2,3.7,2,2.3,13.6,3.6,14.4,3.6Z" /><path id="handle_front_right" class="cls-1" d="m81.88,123.2c2,2.3,13.6,3.6,14.4,3.6.7-.1,1.5-.6,1.7-1.1.3-.7-.2-3.5-.4-3.7,0,0-.9-1.3-3.3-1.6-2.7.4-6.1-1.2-6.7-2.3-.5-.5-3.2-1-4.9-1.3-1.6.2-1.7,1.1-2,2.7-.1.6.9,3.4,1.2,3.7Z" /></g><path id="background-2" class="cls-1" d="m25.48,151.2h.34c-.01-3.76.4-7.29,1.56-10,2.09-3.29,9.85-3.5,10.79-3.6-.4-.87-.76-1.68-1.09-2.4-.78-1.44-2.25-2.79-3.97-3.95-4.24-2.87-9.97-4.6-10.33-3.75-.7,3.5,2.7,22.3,2.7,23.7Z" /><path id="background-3" class="cls-1" d="m173.08,258.3c.06.06.1.09.1.1l.73-.03c-.67-14.83,3.08-23.76,5.07-27.57.6-1.4,7.8-9.9,10.1-10.8,6-2.6,27.7-11.7,30.1-11.6l.05-.11c-14.57-7.39-28.84-11.96-35.15-10.09-9.99,6.18-14.17,28.08-13.68,43.99.19,6.23,1.17,14.51,2.68,16.11Z" /><g id="wheel_back_right" class="selectable"><path class="cls-1" d="m27.38,141.2c2.09-3.29,9.85-3.5,10.79-3.6,4.19,9.27,10.79,24.25,15.51,34.81,2.25,5.05,4.83,10.58,5.1,11.19,4.62,3.08,10.01,6.66,15.89,10.55-.7,2.49-1.3,5.86-3.39,7.55-2.1,1.7-15,6-22.1,6.2-7.1.2-11.1-9.8-11.1-9.8,0,0-8.2-16.6-10.1-28.1-.83-4.79-2.15-12.16-2.16-18.81-.01-3.75.4-7.28,1.56-9.99Zm7.44,35.5c3.96,11.38,9.27,19.87,11.87,18.96,2.6-.9,1.5-10.86-2.45-22.24-3.96-11.38-9.28-19.87-11.88-18.96-2.6.9-1.5,10.86,2.46,22.24Z" /><path class="cls-1" d="m34.82,176.7c3.96,11.38,9.27,19.87,11.87,18.96,2.6-.9,1.5-10.86-2.45-22.24-3.96-11.38-9.28-19.87-11.88-18.96-2.6.9-1.5,10.86,2.46,22.24Z" /></g><g id="wheel_front_right" class="selectable"><path class="cls-1" d="m178.98,230.8c.6-1.4,7.8-9.9,10.1-10.8,6-2.6,27.7-11.7,30.1-11.6l.05-.11c14.97,7.6,30.25,18.18,37.55,27.81,1.8,2.41,3.59,5.32,5.34,8.6,13.95,26.17,25.56,75.6,25.56,75.6,0,0,.67.66,1.96,1.74-8.8,9.79-25.47,22.76-31.46,25.76-6,3-11.5,7-20.6,4.7s-28.9-8.6-50-46c-9.67-20.2-13.13-36.1-13.67-48.13-.67-14.83,3.08-23.76,5.07-27.57Zm18,70.86c12.71,23.85,29.94,39.49,38.49,34.94,8.56-4.56,5.19-27.59-7.52-51.44-12.7-23.85-29.94-39.5-38.49-34.94s-5.19,27.59,7.52,51.44Z" /><path class="cls-1" d="m196.98,301.66c12.71,23.85,29.94,39.49,38.49,34.94,8.56-4.56,5.19-27.59-7.52-51.44-12.7-23.85-29.94-39.5-38.49-34.94s-5.19,27.59,7.52,51.44Z" /></g><path id="fender_back_right" class="selectable cls-1" d="m25.48,151.2c0-1.4-3.4-20.2-2.7-23.7.36-.85,6.09.88,10.33,3.75l.17-.25c-.69-17.97,1.74-28.43,9.31-37.93-8.87-2.44-15.33-4.39-15.61-4.97-1.4-5.8,3.2-16.4,8.9-31.2l-6.13,1.13c-5.36,11.25-8.64,26.44-13.57,33.67-4.6,10.5,9.3,60.9,9.3,59.5Z" /><path id="fender_front_right" class="selectable cls-1" d="m158.57,235.03l11.83,7.16c-.49-15.92,3.69-37.81,13.68-43.99,6.31-1.87,20.58,2.7,35.15,10.09,14.97,7.6,30.25,18.18,37.55,27.81,1.8,2.41,3.59,5.32,5.34,8.6l48.16-23.5c-3.2-2.2-20-17.1-16.6-24.1,2.1-5.6,10.2-1.6,22.6-.1,4,.45,12.4.62,22.49.46-.8-6.29-4.13-13.58-24.79-24.56-20.57-10.93-128.58-42.19-131.65-47.6-5.29,0-9.02-.58-10.35-2l-10.01,3.34c.01.07.02.13.01.16-.4,2.2-1.2,1.2-7.7,15.6-5.37,11.89.93,66.31,4.29,92.63Z" /><path id="hood" class="selectable cls-1" d="m182.33,125.3c3.07,5.41,111.08,36.67,131.65,47.6,20.66,10.98,23.99,18.27,24.79,24.56h.01c21.42-.33,50.43-2.15,60.9-5.96.01.01.02.03.03.04l.07-.04c24.97-5.67,64.21-33.12,67.25-38.22.02-1.93-.02-3.35-.15-3.88-.8-1.8-16.9-15.6-33-20.8-18.7-5.5-101.7-21.8-113.8-24.9l.2,2c-12.1,1.7-45.9,5.9-51.9,6.7-4.93.66-61.78,12.91-86.05,12.9Z" /><path id="windshield_front" class="selectable cls-1" d="m171.98,123.3c1.33,1.42,5.06,2,10.35,2,24.27.01,81.12-12.24,86.05-12.9,6-.8,39.8-5,51.9-6.7-4.2-3.61-50.15-43.16-62.28-49.5h-.01c-.29-.16-.56-.29-.81-.4-10.7-4.8-113.2-7.4-123.2-2.6h-.01c-.09,0-.14.05-.15.16-.57,3.49,35.35,62.86,38.16,69.94Z" /><path id="rocker_panel_right" class="selectable cls-1" d="m91.02,194.99l67.55,40.03,11.83,7.16c.19,6.23,1.16,14.51,2.68,16.11.06.06.1.09.1.1,0,.15-5.01-3.02-13.06-8.21h0c-15.46-10-42.15-27.47-66.19-43.32-6.73-4.43-13.25-8.74-19.26-12.72-5.88-3.89-11.27-7.47-15.89-10.55-.27-.61-2.85-6.14-5.1-11.19l37.34,22.58Z" /></svg>