<svg xmlns="http://www.w3.org/2000/svg" viewBox="0 0 530.12 329.45"><defs><style>.cls-1{stroke:#fff;stroke-linecap:round;stroke-linejoin:round}.cls-1,.cls-2,.cls-3{fill:none}.cls-4{fill:#e1a25b}.cls-5{fill:#f49796;stroke:#f49796}.cls-2,.cls-3,.cls-5,.cls-6{stroke-miterlimit:10;stroke-width:2px}.cls-6{fill:#31333e;stroke:#595e72}.cls-2{stroke:#e1a25b}.cls-3{stroke:#62b0ef}.cls-7{font-family:sans-serif;font-size:13px;isolation:isolate}.cls-7,.cls-8{fill:#fff}</style></defs><path id="roof" class="cls-1 car-part selectable" d="m450.08 33.8-6.13-1.13c-5.41-1.22-11.51-2.31-17.91-3.22-12.76-1.82-26.68-2.93-38.51-2.92-10.64.02-19.59.94-24.49 3.07l-17.18-.63h-.01c-10-4.8-112.5-2.2-123.2 2.6-.25.11-.52.24-.81.4h0l-1.43-.12c2.06-1.23 3.93-2.24 5.55-2.98 12-6.1 19.53-8.37 25.2-9.3 11.17-1.83 22.25-2.49 35-3.49 25.19-1.97 55.64-3.59 62.2-3.61 20.23-.07 67.06 4.39 89.38 10.26 3.8 1 6.51 2.16 7.72 3.34 1.72 2.18 3.25 4.82 4.63 7.73h0Z"/><path id="quarter_window_back_left" class="cls-1 car-part selectable" d="M452.85 63.87c-.28.58-6.74 2.53-15.61 4.97a9.36 9.36 0 0 0-.29-.37c-.35-3.3-7.42-29.42-10.91-39.02 6.4.91 12.5 2 17.91 3.22 5.7 14.8 10.3 25.4 8.9 31.2Z"/><path id="window_back_left" class="cls-1 car-part selectable" d="M437.24 68.84c-12.89 3.53-30.86 8.07-42.29 10.89-.03-.05-.07-.11-.1-.16.95-12.6-5.33-41.81-7.32-53.04 11.83 0 25.75 1.1 38.51 2.92 3.49 9.6 10.56 35.72 10.91 39.02.1.12.2.25.29.37Z"/><path id="window_front_left" class="cls-1 car-part selectable" d="M383.97 82.37c.75-3.09 1.02-6.13.18-7.8-1.9-3.8-10.1-6.2-17.5-6.8-7.1-.6-16.3-1.1-21.9 2.5-1.41.9-2.68 2.27-3.78 3.81h-.02c-.7-1.01-2-10.31-2-10.31 0-.02.01-.03.01-.05.48-2.06 3.27-8.86 7.41-15.94 4.18-7.13 9.73-14.56 15.68-17.71.31-.16.64-.32.99-.47 4.9-2.13 13.85-3.05 24.49-3.07 1.99 11.23 8.27 40.44 7.32 53.04.03.05.07.11.1.16-6.23 1.54-10.52 2.56-10.98 2.64Z"/><path id="mirror_left" class="cls-1 car-part selectable" d="M383.97 82.37c-.96 3.92-2.69 7.94-3.92 9.4-2.2 2.6-5.3 2.7-8.9 3.1s-38.6.7-39.7.7-7.1 1.5-7.1 1.5 1.1-3.1 1.5-4.2c.4-1 1.5-2.9 4.6-4.1s5.1-1 6.2-1.1c-.1-.3-.4-1.9-.6-2.2-.22-.6 1.62-6.8 4.92-11.39 1.1-1.54 2.37-2.91 3.78-3.81 5.6-3.6 14.8-3.1 21.9-2.5 7.4.6 15.6 3 17.5 6.8.84 1.67.57 4.71-.18 7.8h0Z"/><path id="pillar" class="cls-1 car-part selectable" d="M363.04 29.6c-.35.15-.68.31-.99.47-5.95 3.15-11.5 10.58-15.68 17.71-4.14 7.08-6.93 13.88-7.41 15.94 0-.76-9.24 15.66-15.49 27.4-3.04 5.7-5.37 10.3-5.61 11.29l-10.01-3.34c2.81-7.08 38.73-66.45 38.16-69.94-.01-.11-.06-.16-.15-.16l17.18.63h0Z"/><path class="cls-1 background" d="M221.83 31.97c-12.13 6.34-58.08 45.89-62.28 49.5l.2-2c1.82-1.9 5.76-5.47 10.9-9.9 4.07-3.48 8.89-7.51 14.03-11.66 12.14-9.81 26.03-20.31 35.72-26.06l1.43.12h0Z"/><path id="head_light_left" class="cls-1 car-part selectable" d="M169.55 196.97c-3.3 2.1-61.6 0-73.6-4.7-.5-.2-.99-.42-1.47-.67-10.9-5.51-15.8-22.28-14.36-24.29.01 0 .02-.03.03-.04 10.47 3.81 39.48 5.63 60.9 5.96h0c10.09.16 18.49 0 22.49-.46 12.4-1.5 20.5-5.5 22.6.1 3.4 7-13.4 21.9-16.6 24.1h0Z"/><path id="grill_radiator" class="cls-1 car-part selectable" d="m94.48 191.6-.03.07c-9.5 3.5-14.6 17.3-19.6 15-14.3-3.8-54.8-40.6-56.2-42.2-1.4-1.7-3.6-10.2-4.5-15.8l-.26.03c-.51-4.38-1.05-14.1-1.09-19.65 3.04 5.1 42.28 32.55 67.25 38.22l.07.04c-1.44 2.01 3.46 18.78 14.36 24.29h0Z"/><path id="license_plate_front" class="cls-1 car-part selectable" d="m47.85 256.48-29.29-35.09-5.76-19.43 30.3 29.84 4.75 24.68z"/><path id="grill_low" class="cls-1 car-part selectable" d="M63.85 235.47c-24.4-18.4-58.3-53.5-62.7-58.2l-.11.03c2.75 11.04 15.1 46.16 16.61 50.87.07.21.21.5.43.87l.04-.02c2.48 4.3 57.04 68.93 57.63 53.15-1.4-15-8.7-41.8-11.9-46.7h0Zm-45.29-14.08-5.76-19.43 30.3 29.84 4.75 24.68-29.29-35.09h0Z"/><path id="fog_light_front_left" class="cls-1 car-part selectable" d="M146.41 251.46c0 5.81-4.71 10.51-10.52 10.51s-10.51-4.7-10.51-10.51 4.71-10.52 10.51-10.52 10.52 4.71 10.52 10.52Z"/><path id="bumper_front" class="cls-1 car-part selectable" d="M169.55 196.97c-3.3 2.1-61.6 0-73.6-4.7-.5-.2-.99-.42-1.47-.67l-.03.07c-9.5 3.5-14.6 17.3-19.6 15-14.3-3.8-54.8-40.6-56.2-42.2-1.4-1.7-3.6-10.2-4.5-15.8l-.26.03.06.47c-3.4 3.7-14.9 18.1-13.3 26.4.09.48.22 1.06.39 1.73l.11-.03c4.4 4.7 38.3 39.8 62.7 58.2 3.2 4.9 10.5 31.7 11.9 46.7-.59 15.78-55.15-48.85-57.63-53.15l-.04.02c5.04 8.53 48.96 58.32 60.27 65.03 11.8 7.1 48.4 23.8 73.6 20.4 19.82-2.68 33.4-12.6 38.24-16.66 1.29-1.08 1.96-1.74 1.96-1.74s11.61-49.43 25.56-75.6l-48.16-23.5h0Zm-33.66 65c-5.8 0-10.51-4.7-10.51-10.51s4.71-10.52 10.51-10.52 10.52 4.71 10.52 10.52-4.71 10.51-10.52 10.51Z"/><g id="door_back_left" class="car-part selectable"><path class="cls-1" d="M446.55 106.77c.69-17.97-1.74-28.43-9.31-37.93-12.89 3.53-30.86 8.07-42.29 10.89 1.22 1.88 3.4 4.38 6.8 12.84-.38 3.68-.29 25.74-12.94 78.19l37.34-22.58c4.72-10.56 11.32-25.55 15.51-34.81.4-.87.76-1.68 1.09-2.4.78-1.44 2.25-2.79 3.97-3.95l-.17-.25h0Zm-3.7-23.4c-.5 2.1-9.3 2.9-10.6 2.4-1.1-.3-.4-3.5-.4-3.6.1-.3.4-.7 1.6-.8 1.1-.1 3.5-.6 4-1.6.4-1.1 3.8-.9 5-.6 1.3.3.9 2.1.4 4.2Z"/><path id="handle_back_left" class="cls-1 car-part" d="M442.85 83.37c-.5 2.1-9.3 2.9-10.6 2.4-1.1-.3-.4-3.5-.4-3.6.1-.3.4-.7 1.6-.8 1.1-.1 3.5-.6 4-1.6.4-1.1 3.8-.9 5-.6 1.3.3.9 2.1.4 4.2Z"/></g><g id="door_front_left" class="car-part selectable"><path class="cls-1" d="M394.95 79.73c-6.23 1.54-10.52 2.56-10.98 2.64-.96 3.92-2.69 7.94-3.92 9.4-2.2 2.6-5.3 2.7-8.9 3.1s-38.6.7-39.7.7-7.1 1.5-7.1 1.5 1.1-3.1 1.5-4.2c.05-.12.11-.26.19-.41.52-1.05 1.7-2.64 4.41-3.69 3.1-1.2 5.1-1 6.2-1.1-.1-.3-.4-1.9-.6-2.2-.22-.6 1.62-6.8 4.92-11.39h-.02c-.7-1.01-2-10.31-2-10.31 0-.02.01-.03.01-.05 0-.76-9.24 15.66-15.49 27.4-3.04 5.7-5.37 10.3-5.61 11.29-.01.07-.02.13-.01.16.4 2.2 1.2 1.2 7.7 15.6 5.37 11.89-.93 66.31-4.29 92.63l67.55-40.03c12.65-52.45 12.56-74.51 12.94-78.19-3.4-8.46-5.58-10.96-6.8-12.84h0Zm-11.4 22.84c-.7-.1-1.5-.6-1.7-1.1-.3-.7.2-3.5.4-3.7 0 0 .9-1.3 3.3-1.6 2.7.4 6.1-1.2 6.7-2.3.5-.5 3.2-1 4.9-1.3 1.6.2 1.7 1.1 2 2.7.1.6-.9 3.4-1.2 3.7-2 2.3-13.6 3.6-14.4 3.6h0Z"/><path id="handle_front_left" class="cls-1 car-part" d="M397.95 98.97c-2 2.3-13.6 3.6-14.4 3.6-.7-.1-1.5-.6-1.7-1.1-.3-.7.2-3.5.4-3.7 0 0 .9-1.3 3.3-1.6 2.7.4 6.1-1.2 6.7-2.3.5-.5 3.2-1 4.9-1.3 1.6.2 1.7 1.1 2 2.7.1.6-.9 3.4-1.2 3.7h0Z"/></g><path class="cls-1 background" d="M454.35 126.97h-.34c.01-3.76-.4-7.29-1.56-10-2.09-3.29-9.85-3.5-10.79-3.6.4-.87.76-1.68 1.09-2.4.78-1.44 2.25-2.79 3.97-3.95 4.24-2.87 9.97-4.6 10.33-3.75.7 3.5-2.7 22.3-2.7 23.7h0ZM306.75 234.07c-.06.06-.1.09-.1.1l-.73-.03c.67-14.83-3.08-23.76-5.07-27.57-.6-1.4-7.8-9.9-10.1-10.8-6-2.6-27.7-11.7-30.1-11.6l-.05-.11c14.57-7.39 28.84-11.96 35.15-10.09 9.99 6.18 14.17 28.08 13.68 43.99-.19 6.23-1.17 14.51-2.68 16.11h0Z"/><g id="wheel_back_left" class="car-part selectable"><path class="cls-1" d="M452.45 116.97c-2.09-3.29-9.85-3.5-10.79-3.6-4.19 9.27-10.79 24.25-15.51 34.81-2.25 5.05-4.83 10.58-5.1 11.19-4.62 3.08-10.01 6.66-15.89 10.55.7 2.49 1.3 5.86 3.39 7.55 2.1 1.7 15 6 22.1 6.2s11.1-9.8 11.1-9.8 8.2-16.6 10.1-28.1c.83-4.79 2.15-12.16 2.16-18.81.01-3.75-.4-7.28-1.56-9.99h0Zm-7.44 35.5c-3.96 11.38-9.27 19.87-11.87 18.96-2.6-.9-1.5-10.86 2.45-22.24 3.96-11.38 9.28-19.87 11.88-18.96 2.6.9 1.5 10.86-2.46 22.24h0Z"/><path class="cls-1" d="M445.01 152.47c-3.96 11.38-9.27 19.87-11.87 18.96-2.6-.9-1.5-10.86 2.45-22.24 3.96-11.38 9.28-19.87 11.88-18.96 2.6.9 1.5 10.86-2.46 22.24h0Z"/></g><g id="wheel_front_left" class="car-part selectable"><path class="cls-1" d="M300.85 206.57c-.6-1.4-7.8-9.9-10.1-10.8-6-2.6-27.7-11.7-30.1-11.6l-.05-.11c-14.97 7.6-30.25 18.18-37.55 27.81-1.8 2.41-3.59 5.32-5.34 8.6-13.95 26.17-25.56 75.6-25.56 75.6s-.67.66-1.96 1.74c8.8 9.79 25.47 22.76 31.46 25.76 6 3 11.5 7 20.6 4.7s28.9-8.6 50-46c9.67-20.2 13.13-36.1 13.67-48.13.67-14.83-3.08-23.76-5.07-27.57h0Zm-18 70.86c-12.71 23.85-29.94 39.49-38.49 34.94-8.56-4.56-5.19-27.59 7.52-51.44 12.7-23.85 29.94-39.5 38.49-34.94s5.19 27.59-7.52 51.44Z"/><path class="cls-1" d="M282.85 277.43c-12.71 23.85-29.94 39.49-38.49 34.94-8.56-4.56-5.19-27.59 7.52-51.44 12.7-23.85 29.94-39.5 38.49-34.94s5.19 27.59-7.52 51.44Z"/></g><path id="fender_back_left" class="cls-1 car-part selectable" d="M454.35 126.97c0-1.4 3.4-20.2 2.7-23.7-.36-.85-6.09.88-10.33 3.75l-.17-.25c.69-17.97-1.74-28.43-9.31-37.93 8.87-2.44 15.33-4.39 15.61-4.97 1.4-5.8-3.2-16.4-8.9-31.2l6.13 1.13c5.36 11.25 8.64 26.44 13.57 33.67 4.6 10.5-9.3 60.9-9.3 59.5h0Z"/><path id="fender_front_left" class="cls-1 car-part selectable" d="m321.26 210.8-11.83 7.16c.49-15.92-3.69-37.81-13.68-43.99-6.31-1.87-20.58 2.7-35.15 10.09-14.97 7.6-30.25 18.18-37.55 27.81-1.8 2.41-3.59 5.32-5.34 8.6l-48.16-23.5c3.2-2.2 20-17.1 16.6-24.1-2.1-5.6-10.2-1.6-22.6-.1-4 .45-12.4.62-22.49.46.8-6.29 4.13-13.58 24.79-24.56 20.57-10.93 128.58-42.19 131.65-47.6 5.29 0 9.02-.58 10.35-2l10.01 3.34c-.01.07-.02.13-.01.16.4 2.2 1.2 1.2 7.7 15.6 5.37 11.89-.93 66.31-4.29 92.63h0Z"/><path id="hood" class="cls-1 car-part selectable" d="M297.5 101.07c-3.07 5.41-111.08 36.67-131.65 47.6-20.66 10.98-23.99 18.27-24.79 24.56h0c-21.42-.33-50.43-2.15-60.9-5.96-.01 0-.02.03-.03.04l-.07-.04c-24.97-5.67-64.21-33.12-67.25-38.22-.02-1.93.02-3.35.15-3.88.8-1.8 16.9-15.6 33-20.8 18.7-5.5 101.7-21.8 113.8-24.9l-.2 2c12.1 1.7 45.9 5.9 51.9 6.7 4.93.66 61.78 12.91 86.05 12.9h0Z"/><path id="windshield_front" class="cls-1 car-part selectable" d="M307.85 99.07c-1.33 1.42-5.06 2-10.35 2-24.27.01-81.12-12.24-86.05-12.9-6-.8-39.8-5-51.9-6.7 4.2-3.61 50.15-43.16 62.28-49.5h0c.29-.16.56-.29.81-.4 10.7-4.8 113.2-7.4 123.2-2.6h.01c.09 0 .14.05.15.16.57 3.49-35.35 62.86-38.16 69.94h0Z"/><path id="rocker_panel_left" class="cls-1 car-part selectable" d="m388.81 170.76-67.55 40.03-11.83 7.16c-.19 6.23-1.16 14.51-2.68 16.11-.06.06-.1.09-.1.1 0 .15 5.01-3.02 13.06-8.21h0c15.46-10 42.15-27.47 66.19-43.32 6.73-4.43 13.25-8.74 19.26-12.72 5.88-3.89 11.27-7.47 15.89-10.55.27-.61 2.85-6.14 5.1-11.19l-37.34 22.58h0Z"/><g id="damage-pill_hood"><circle class="cls-6 damage-pill-background" cx="126.35" cy="117.8" r="19.13"/><circle class="cls-3 severity-low" cx="126.35" cy="117.8" r="9.1"/><circle class="cls-5 severity-high" cx="126.35" cy="117.8" r="9.1"/><circle class="cls-8 severity-none" cx="126.35" cy="117.8" r="9.1"/><g class="severity-medium"><circle class="cls-2 severity-medium severity-medium" cx="126.35" cy="117.8" r="9.1"/><path class="cls-4 severity-medium" d="M126.35 108.7v18.1c-5 0-9.1-4.1-9.1-9.1s4.1-9 9.1-9Z"/></g></g><g id="damage-pill-pricing_hood"><path class="cls-6 damage-pill-background" d="M181.33 136.93h-54.98c-10.56 0-19.13-8.58-19.13-19.13 0-10.56 8.58-19.13 19.13-19.13h54.98c10.56 0 19.13 8.58 19.13 19.13 0 10.56-8.58 19.13-19.13 19.13Z"/><text class="cls-7 damage-pill-text" transform="translate(148.44 122.08)">9999€</text><circle class="cls-3 severity-low" cx="126.35" cy="117.8" r="9.1"/><circle class="cls-5 severity-high" cx="126.35" cy="117.8" r="9.1"/><circle class="cls-8 severity-none" cx="126.35" cy="117.8" r="9.1"/><g class="severity-medium"><circle class="cls-2 severity-medium severity-medium" cx="126.35" cy="117.8" r="9.1"/><path class="cls-4 severity-medium" d="M126.35 108.7v18.1c-5 0-9.1-4.1-9.1-9.1s4.1-9 9.1-9Z"/></g></g><g id="damage-pill_head_light_left"><circle class="cls-6 damage-pill-background" cx="128.28" cy="185.63" r="19.13"/><circle class="cls-3 severity-low" cx="128.28" cy="185.63" r="9.1"/><circle class="cls-5 severity-high" cx="128.28" cy="185.63" r="9.1"/><circle class="cls-8 severity-none" cx="128.28" cy="185.63" r="9.1"/><g class="severity-medium"><circle class="cls-2 severity-medium severity-medium" cx="128.28" cy="185.63" r="9.1"/><path class="cls-4 severity-medium" d="M128.28 176.53v18.1c-5 0-9.1-4.1-9.1-9.1s4.1-9 9.1-9Z"/></g></g><g id="damage-pill-pricing_head_light_left"><path class="cls-6 damage-pill-background" d="M183.26 204.76h-54.98c-10.56 0-19.13-8.58-19.13-19.13 0-10.56 8.58-19.13 19.13-19.13h54.98c10.56 0 19.13 8.58 19.13 19.13 0 10.56-8.58 19.13-19.13 19.13Z"/><text class="cls-7 damage-pill-text" transform="translate(150.36 189.91)">9999€</text><circle class="cls-3 severity-low" cx="128.28" cy="185.63" r="9.1"/><circle class="cls-5 severity-high" cx="128.28" cy="185.63" r="9.1"/><circle class="cls-8 severity-none" cx="128.28" cy="185.63" r="9.1"/><g class="severity-medium"><circle class="cls-2 severity-medium severity-medium" cx="128.28" cy="185.63" r="9.1"/><path class="cls-4 severity-medium" d="M128.28 176.53v18.1c-5 0-9.1-4.1-9.1-9.1s4.1-9 9.1-9Z"/></g></g><g id="damage-pill_bumper_front"><circle class="cls-6 damage-pill-background" cx="105.73" cy="228.22" r="19.13"/><circle class="cls-3 severity-low" cx="105.73" cy="228.22" r="9.1"/><circle class="cls-5 severity-high" cx="105.73" cy="228.22" r="9.1"/><circle class="cls-8 severity-none" cx="105.73" cy="228.22" r="9.1"/><g class="severity-medium"><circle class="cls-2 severity-medium severity-medium" cx="105.73" cy="228.22" r="9.1"/><path class="cls-4 severity-medium" d="M105.73 219.12v18.1c-5 0-9.1-4.1-9.1-9.1s4.1-9 9.1-9Z"/></g></g><g id="damage-pill-pricing_bumper_front"><path class="cls-6 damage-pill-background" d="M160.71 247.36h-54.98c-10.56 0-19.13-8.58-19.13-19.13 0-10.56 8.58-19.13 19.13-19.13h54.98c10.56 0 19.13 8.58 19.13 19.13 0 10.56-8.58 19.13-19.13 19.13Z"/><text class="cls-7 damage-pill-text" transform="translate(127.81 232.51)">9999€</text><circle class="cls-3 severity-low" cx="105.73" cy="228.22" r="9.1"/><circle class="cls-5 severity-high" cx="105.73" cy="228.22" r="9.1"/><circle class="cls-8 severity-none" cx="105.73" cy="228.22" r="9.1"/><g class="severity-medium"><circle class="cls-2 severity-medium severity-medium" cx="105.73" cy="228.22" r="9.1"/><path class="cls-4 severity-medium" d="M105.73 219.12v18.1c-5 0-9.1-4.1-9.1-9.1s4.1-9 9.1-9Z"/></g></g><g id="damage-pill_grill_radiator"><circle class="cls-6 damage-pill-background" cx="40.25" cy="163.27" r="19.13"/><circle class="cls-3 severity-low" cx="40.25" cy="163.27" r="9.1"/><circle class="cls-5 severity-high" cx="40.25" cy="163.27" r="9.1"/><circle class="cls-8 severity-none" cx="40.25" cy="163.27" r="9.1"/><g class="severity-medium"><circle class="cls-2 severity-medium severity-medium" cx="40.25" cy="163.27" r="9.1"/><path class="cls-4 severity-medium" d="M40.25 154.17v18.1c-5 0-9.1-4.1-9.1-9.1s4.1-9 9.1-9Z"/></g></g><g id="damage-pill-pricing_grill_radiator"><path class="cls-6 damage-pill-background" d="M95.23 182.4H40.25c-10.56 0-19.13-8.58-19.13-19.13 0-10.56 8.58-19.13 19.13-19.13h54.98c10.56 0 19.13 8.58 19.13 19.13 0 10.56-8.58 19.13-19.13 19.13Z"/><text class="cls-7 damage-pill-text" transform="translate(62.34 167.55)">9999€</text><circle class="cls-3 severity-low" cx="40.25" cy="163.27" r="9.1"/><circle class="cls-5 severity-high" cx="40.25" cy="163.27" r="9.1"/><circle class="cls-8 severity-none" cx="40.25" cy="163.27" r="9.1"/><g class="severity-medium"><circle class="cls-2 severity-medium severity-medium" cx="40.25" cy="163.27" r="9.1"/><path class="cls-4 severity-medium" d="M40.25 154.17v18.1c-5 0-9.1-4.1-9.1-9.1s4.1-9 9.1-9Z"/></g></g><g id="damage-pill_grill_low"><circle class="cls-6 damage-pill-background" cx="27.06" cy="209.09" r="19.13"/><circle class="cls-3 severity-low" cx="27.06" cy="209.09" r="9.1"/><circle class="cls-5 severity-high" cx="27.06" cy="209.09" r="9.1"/><circle class="cls-8 severity-none" cx="27.06" cy="209.09" r="9.1"/><g class="severity-medium"><circle class="cls-2 severity-medium severity-medium" cx="27.06" cy="209.09" r="9.1"/><path class="cls-4 severity-medium" d="M27.06 199.99v18.1c-5 0-9.1-4.1-9.1-9.1s4.1-9 9.1-9Z"/></g></g><g id="damage-pill-pricing_grill_low"><path class="cls-6 damage-pill-background" d="M82.04 228.22H27.06c-10.56 0-19.13-8.58-19.13-19.13 0-10.56 8.58-19.13 19.13-19.13h54.98c10.56 0 19.13 8.58 19.13 19.13 0 10.56-8.58 19.13-19.13 19.13Z"/><text class="cls-7 damage-pill-text" transform="translate(49.15 213.37)">9999€</text><circle class="cls-3 severity-low" cx="27.06" cy="209.09" r="9.1"/><circle class="cls-5 severity-high" cx="27.06" cy="209.09" r="9.1"/><circle class="cls-8 severity-none" cx="27.06" cy="209.09" r="9.1"/><g class="severity-medium"><circle class="cls-2 severity-medium severity-medium" cx="27.06" cy="209.09" r="9.1"/><path class="cls-4 severity-medium" d="M27.06 199.99v18.1c-5 0-9.1-4.1-9.1-9.1s4.1-9 9.1-9Z"/></g></g><g id="damage-pill_license_plate_front"><circle class="cls-6 damage-pill-background" cx="30.49" cy="227.27" r="19.13"/><circle class="cls-3 severity-low" cx="30.49" cy="227.27" r="9.1"/><circle class="cls-5 severity-high" cx="30.49" cy="227.27" r="9.1"/><circle class="cls-8 severity-none" cx="30.49" cy="227.27" r="9.1"/><g class="severity-medium"><circle class="cls-2 severity-medium severity-medium" cx="30.49" cy="227.27" r="9.1"/><path class="cls-4 severity-medium" d="M30.49 218.17v18.1c-5 0-9.1-4.1-9.1-9.1s4.1-9 9.1-9Z"/></g></g><g id="damage-pill-pricing_license_plate_front"><path class="cls-6 damage-pill-background" d="M85.47 246.41H30.49c-10.56 0-19.13-8.58-19.13-19.13 0-10.56 8.58-19.13 19.13-19.13h54.98c10.56 0 19.13 8.58 19.13 19.13 0 10.56-8.58 19.13-19.13 19.13Z"/><text class="cls-7 damage-pill-text" transform="translate(52.57 231.56)">9999€</text><circle class="cls-3 severity-low" cx="30.49" cy="227.27" r="9.1"/><circle class="cls-5 severity-high" cx="30.49" cy="227.27" r="9.1"/><circle class="cls-8 severity-none" cx="30.49" cy="227.27" r="9.1"/><g class="severity-medium"><circle class="cls-2 severity-medium severity-medium" cx="30.49" cy="227.27" r="9.1"/><path class="cls-4 severity-medium" d="M30.49 218.17v18.1c-5 0-9.1-4.1-9.1-9.1s4.1-9 9.1-9Z"/></g></g><g id="damage-pill_fog_light_front_left"><circle class="cls-6 damage-pill-background" cx="136.1" cy="251.45" r="19.13"/><circle class="cls-3 severity-low" cx="136.1" cy="251.45" r="9.1"/><circle class="cls-5 severity-high" cx="136.1" cy="251.45" r="9.1"/><circle class="cls-8 severity-none" cx="136.1" cy="251.45" r="9.1"/><g class="severity-medium"><circle class="cls-2 severity-medium severity-medium" cx="136.1" cy="251.45" r="9.1"/><path class="cls-4 severity-medium" d="M136.1 242.35v18.1c-5 0-9.1-4.1-9.1-9.1s4.1-9 9.1-9Z"/></g></g><g id="damage-pill-pricing_fog_light_front_left"><path class="cls-6 damage-pill-background" d="M191.08 270.59H136.1c-10.56 0-19.13-8.58-19.13-19.13 0-10.56 8.58-19.13 19.13-19.13h54.98c10.56 0 19.13 8.58 19.13 19.13 0 10.56-8.58 19.13-19.13 19.13Z"/><text class="cls-7 damage-pill-text" transform="translate(158.18 255.74)">9999€</text><circle class="cls-3 severity-low" cx="136.1" cy="251.45" r="9.1"/><circle class="cls-5 severity-high" cx="136.1" cy="251.45" r="9.1"/><circle class="cls-8 severity-none" cx="136.1" cy="251.45" r="9.1"/><g class="severity-medium"><circle class="cls-2 severity-medium severity-medium" cx="136.1" cy="251.45" r="9.1"/><path class="cls-4 severity-medium" d="M136.1 242.35v18.1c-5 0-9.1-4.1-9.1-9.1s4.1-9 9.1-9Z"/></g></g><g id="damage-pill_wheel_front_left"><circle class="cls-6 damage-pill-background" cx="257.54" cy="258.97" r="19.13"/><circle class="cls-3 severity-low" cx="257.54" cy="258.97" r="9.1"/><circle class="cls-5 severity-high" cx="257.54" cy="258.97" r="9.1"/><circle class="cls-8 severity-none" cx="257.54" cy="258.97" r="9.1"/><g class="severity-medium"><circle class="cls-2 severity-medium severity-medium" cx="257.54" cy="258.97" r="9.1"/><path class="cls-4 severity-medium" d="M257.54 249.87v18.1c-5 0-9.1-4.1-9.1-9.1s4.1-9 9.1-9Z"/></g></g><g id="damage-pill-pricing_wheel_front_left"><path class="cls-6 damage-pill-background" d="M312.53 278.1h-54.98c-10.56 0-19.13-8.58-19.13-19.13 0-10.56 8.58-19.13 19.13-19.13h54.98c10.56 0 19.13 8.58 19.13 19.13 0 10.56-8.58 19.13-19.13 19.13Z"/><text class="cls-7 damage-pill-text" transform="translate(279.63 263.25)">9999€</text><circle class="cls-3 severity-low" cx="257.54" cy="258.97" r="9.1"/><circle class="cls-5 severity-high" cx="257.54" cy="258.97" r="9.1"/><circle class="cls-8 severity-none" cx="257.54" cy="258.97" r="9.1"/><g class="severity-medium"><circle class="cls-2 severity-medium severity-medium" cx="257.54" cy="258.97" r="9.1"/><path class="cls-4 severity-medium" d="M257.54 249.87v18.1c-5 0-9.1-4.1-9.1-9.1s4.1-9 9.1-9Z"/></g></g><g id="damage-pill_fender_front_left"><circle class="cls-6 damage-pill-background" cx="256.54" cy="148.17" r="19.13"/><circle class="cls-3 severity-low" cx="256.54" cy="148.17" r="9.1"/><circle class="cls-5 severity-high" cx="256.54" cy="148.17" r="9.1"/><circle class="cls-8 severity-none" cx="256.54" cy="148.17" r="9.1"/><g class="severity-medium"><circle class="cls-2 severity-medium severity-medium" cx="256.54" cy="148.17" r="9.1"/><path class="cls-4 severity-medium" d="M256.54 139.07v18.1c-5 0-9.1-4.1-9.1-9.1s4.1-9 9.1-9Z"/></g></g><g id="damage-pill-pricing_fender_front_left"><path class="cls-6 damage-pill-background" d="M311.53 167.3h-54.98c-10.56 0-19.13-8.58-19.13-19.13 0-10.56 8.58-19.13 19.13-19.13h54.98c10.56 0 19.13 8.58 19.13 19.13 0 10.56-8.58 19.13-19.13 19.13Z"/><text class="cls-7 damage-pill-text" transform="translate(278.63 152.45)">9999€</text><circle class="cls-3 severity-low" cx="256.54" cy="148.17" r="9.1"/><circle class="cls-5 severity-high" cx="256.54" cy="148.17" r="9.1"/><circle class="cls-8 severity-none" cx="256.54" cy="148.17" r="9.1"/><g class="severity-medium"><circle class="cls-2 severity-medium severity-medium" cx="256.54" cy="148.17" r="9.1"/><path class="cls-4 severity-medium" d="M256.54 139.07v18.1c-5 0-9.1-4.1-9.1-9.1s4.1-9 9.1-9Z"/></g></g><g id="damage-pill_pillar"><circle class="cls-6 damage-pill-background" cx="333.31" cy="61.69" r="19.13"/><circle class="cls-3 severity-low" cx="333.31" cy="61.69" r="9.1"/><circle class="cls-5 severity-high" cx="333.31" cy="61.69" r="9.1"/><circle class="cls-8 severity-none" cx="333.31" cy="61.69" r="9.1"/><g class="severity-medium"><circle class="cls-2 severity-medium severity-medium" cx="333.31" cy="61.69" r="9.1"/><path class="cls-4 severity-medium" d="M333.31 52.59v18.1c-5 0-9.1-4.1-9.1-9.1s4.1-9 9.1-9Z"/></g></g><g id="damage-pill-pricing_pillar"><path class="cls-6 damage-pill-background" d="M388.29 80.83h-54.98c-10.56 0-19.13-8.58-19.13-19.13 0-10.56 8.58-19.13 19.13-19.13h54.98c10.56 0 19.13 8.58 19.13 19.13 0 10.56-8.58 19.13-19.13 19.13Z"/><text class="cls-7 damage-pill-text" transform="translate(355.39 65.98)">9999€</text><circle class="cls-3 severity-low" cx="333.31" cy="61.69" r="9.1"/><circle class="cls-5 severity-high" cx="333.31" cy="61.69" r="9.1"/><circle class="cls-8 severity-none" cx="333.31" cy="61.69" r="9.1"/><g class="severity-medium"><circle class="cls-2 severity-medium severity-medium" cx="333.31" cy="61.69" r="9.1"/><path class="cls-4 severity-medium" d="M333.31 52.59v18.1c-5 0-9.1-4.1-9.1-9.1s4.1-9 9.1-9Z"/></g></g><g id="damage-pill_window_front_left"><circle class="cls-6 damage-pill-background" cx="369.46" cy="54.66" r="19.13"/><circle class="cls-3 severity-low" cx="369.46" cy="54.66" r="9.1"/><circle class="cls-5 severity-high" cx="369.46" cy="54.66" r="9.1"/><circle class="cls-8 severity-none" cx="369.46" cy="54.66" r="9.1"/><g class="severity-medium"><circle class="cls-2 severity-medium severity-medium" cx="369.46" cy="54.66" r="9.1"/><path class="cls-4 severity-medium" d="M369.46 45.56v18.1c-5 0-9.1-4.1-9.1-9.1s4.1-9 9.1-9Z"/></g></g><g id="damage-pill-pricing_window_front_left"><path class="cls-6 damage-pill-background" d="M424.44 73.79h-54.98c-10.56 0-19.13-8.58-19.13-19.13 0-10.56 8.58-19.13 19.13-19.13h54.98c10.56 0 19.13 8.58 19.13 19.13 0 10.56-8.58 19.13-19.13 19.13Z"/><text class="cls-7 damage-pill-text" transform="translate(391.55 58.94)">9999€</text><circle class="cls-3 severity-low" cx="369.46" cy="54.66" r="9.1"/><circle class="cls-5 severity-high" cx="369.46" cy="54.66" r="9.1"/><circle class="cls-8 severity-none" cx="369.46" cy="54.66" r="9.1"/><g class="severity-medium"><circle class="cls-2 severity-medium severity-medium" cx="369.46" cy="54.66" r="9.1"/><path class="cls-4 severity-medium" d="M369.46 45.56v18.1c-5 0-9.1-4.1-9.1-9.1s4.1-9 9.1-9Z"/></g></g><g id="damage-pill_window_back_left"><circle class="cls-6 damage-pill-background" cx="412.57" cy="51.66" r="19.13"/><circle class="cls-3 severity-low" cx="412.57" cy="51.66" r="9.1"/><circle class="cls-5 severity-high" cx="412.57" cy="51.66" r="9.1"/><circle class="cls-8 severity-none" cx="412.57" cy="51.66" r="9.1"/><g class="severity-medium"><circle class="cls-2 severity-medium severity-medium" cx="412.57" cy="51.66" r="9.1"/><path class="cls-4 severity-medium" d="M412.57 42.56v18.1c-5 0-9.1-4.1-9.1-9.1s4.1-9 9.1-9Z"/></g></g><g id="damage-pill-pricing_window_back_left"><path class="cls-6 damage-pill-background" d="M467.55 70.79h-54.98c-10.56 0-19.13-8.58-19.13-19.13 0-10.56 8.58-19.13 19.13-19.13h54.98c10.56 0 19.13 8.58 19.13 19.13 0 10.56-8.58 19.13-19.13 19.13Z"/><text class="cls-7 damage-pill-text" transform="translate(434.66 55.94)">9999€</text><circle class="cls-3 severity-low" cx="412.57" cy="51.66" r="9.1"/><circle class="cls-5 severity-high" cx="412.57" cy="51.66" r="9.1"/><circle class="cls-8 severity-none" cx="412.57" cy="51.66" r="9.1"/><g class="severity-medium"><circle class="cls-2 severity-medium severity-medium" cx="412.57" cy="51.66" r="9.1"/><path class="cls-4 severity-medium" d="M412.57 42.56v18.1c-5 0-9.1-4.1-9.1-9.1s4.1-9 9.1-9Z"/></g></g><g id="damage-pill_mirror_left"><circle class="cls-6 damage-pill-background" cx="360.75" cy="82.83" r="19.13"/><circle class="cls-3 severity-low" cx="360.75" cy="82.83" r="9.1"/><circle class="cls-5 severity-high" cx="360.75" cy="82.83" r="9.1"/><circle class="cls-8 severity-none" cx="360.75" cy="82.83" r="9.1"/><g class="severity-medium"><circle class="cls-2 severity-medium severity-medium" cx="360.75" cy="82.83" r="9.1"/><path class="cls-4 severity-medium" d="M360.75 73.73v18.1c-5 0-9.1-4.1-9.1-9.1s4.1-9 9.1-9Z"/></g></g><g id="damage-pill-pricing_mirror_left"><path class="cls-6 damage-pill-background" d="M415.73 101.97h-54.98c-10.56 0-19.13-8.58-19.13-19.13 0-10.56 8.58-19.13 19.13-19.13h54.98c10.56 0 19.13 8.58 19.13 19.13 0 10.56-8.58 19.13-19.13 19.13Z"/><text class="cls-7 damage-pill-text" transform="translate(382.83 87.12)">9999€</text><circle class="cls-3 severity-low" cx="360.75" cy="82.83" r="9.1"/><circle class="cls-5 severity-high" cx="360.75" cy="82.83" r="9.1"/><circle class="cls-8 severity-none" cx="360.75" cy="82.83" r="9.1"/><g class="severity-medium"><circle class="cls-2 severity-medium severity-medium" cx="360.75" cy="82.83" r="9.1"/><path class="cls-4 severity-medium" d="M360.75 73.73v18.1c-5 0-9.1-4.1-9.1-9.1s4.1-9 9.1-9Z"/></g></g><g id="damage-pill_door_front_left"><circle class="cls-6 damage-pill-background" cx="362.04" cy="131.57" r="19.13"/><circle class="cls-3 severity-low" cx="362.04" cy="131.57" r="9.1"/><circle class="cls-5 severity-high" cx="362.04" cy="131.57" r="9.1"/><circle class="cls-8 severity-none" cx="362.04" cy="131.57" r="9.1"/><g class="severity-medium"><circle class="cls-2 severity-medium severity-medium" cx="362.04" cy="131.57" r="9.1"/><path class="cls-4 severity-medium" d="M362.04 122.47v18.1c-5 0-9.1-4.1-9.1-9.1s4.1-9 9.1-9Z"/></g></g><g id="damage-pill-pricing_door_front_left"><path class="cls-6 damage-pill-background" d="M417.02 150.7h-54.98c-10.56 0-19.13-8.58-19.13-19.13 0-10.56 8.58-19.13 19.13-19.13h54.98c10.56 0 19.13 8.58 19.13 19.13 0 10.56-8.58 19.13-19.13 19.13Z"/><text class="cls-7 damage-pill-text" transform="translate(384.13 135.86)">9999€</text><circle class="cls-3 severity-low" cx="362.04" cy="131.57" r="9.1"/><circle class="cls-5 severity-high" cx="362.04" cy="131.57" r="9.1"/><circle class="cls-8 severity-none" cx="362.04" cy="131.57" r="9.1"/><g class="severity-medium"><circle class="cls-2 severity-medium severity-medium" cx="362.04" cy="131.57" r="9.1"/><path class="cls-4 severity-medium" d="M362.04 122.47v18.1c-5 0-9.1-4.1-9.1-9.1s4.1-9 9.1-9Z"/></g></g><g id="damage-pill_door_back_left"><circle class="cls-6 damage-pill-background" cx="421.39" cy="107.44" r="19.13"/><circle class="cls-3 severity-low" cx="421.39" cy="107.44" r="9.1"/><circle class="cls-5 severity-high" cx="421.39" cy="107.44" r="9.1"/><circle class="cls-8 severity-none" cx="421.39" cy="107.44" r="9.1"/><g class="severity-medium"><circle class="cls-2 severity-medium severity-medium" cx="421.39" cy="107.44" r="9.1"/><path class="cls-4 severity-medium" d="M421.39 98.34v18.1c-5 0-9.1-4.1-9.1-9.1s4.1-9 9.1-9Z"/></g></g><g id="damage-pill-pricing_door_back_left"><path class="cls-6 damage-pill-background" d="M476.37 126.57h-54.98c-10.56 0-19.13-8.58-19.13-19.13 0-10.56 8.58-19.13 19.13-19.13h54.98c10.56 0 19.13 8.58 19.13 19.13 0 10.56-8.58 19.13-19.13 19.13Z"/><text class="cls-7 damage-pill-text" transform="translate(443.48 111.72)">9999€</text><circle class="cls-3 severity-low" cx="421.39" cy="107.44" r="9.1"/><circle class="cls-5 severity-high" cx="421.39" cy="107.44" r="9.1"/><circle class="cls-8 severity-none" cx="421.39" cy="107.44" r="9.1"/><g class="severity-medium"><circle class="cls-2 severity-medium severity-medium" cx="421.39" cy="107.44" r="9.1"/><path class="cls-4 severity-medium" d="M421.39 98.34v18.1c-5 0-9.1-4.1-9.1-9.1s4.1-9 9.1-9Z"/></g></g><g id="damage-pill_rocker_panel_left"><circle class="cls-6 damage-pill-background" cx="371.67" cy="185.87" r="19.13"/><circle class="cls-3 severity-low" cx="371.67" cy="185.87" r="9.1"/><circle class="cls-5 severity-high" cx="371.67" cy="185.87" r="9.1"/><circle class="cls-8 severity-none" cx="371.67" cy="185.87" r="9.1"/><g class="severity-medium"><circle class="cls-2 severity-medium severity-medium" cx="371.67" cy="185.87" r="9.1"/><path class="cls-4 severity-medium" d="M371.67 176.77v18.1c-5 0-9.1-4.1-9.1-9.1s4.1-9 9.1-9Z"/></g></g><g id="damage-pill-pricing_rocker_panel_left"><path class="cls-6 damage-pill-background" d="M426.65 205h-54.98c-10.56 0-19.13-8.58-19.13-19.13 0-10.56 8.58-19.13 19.13-19.13h54.98c10.56 0 19.13 8.58 19.13 19.13 0 10.56-8.58 19.13-19.13 19.13Z"/><text class="cls-7 damage-pill-text" transform="translate(393.75 190.15)">9999€</text><circle class="cls-3 severity-low" cx="371.67" cy="185.87" r="9.1"/><circle class="cls-5 severity-high" cx="371.67" cy="185.87" r="9.1"/><circle class="cls-8 severity-none" cx="371.67" cy="185.87" r="9.1"/><g class="severity-medium"><circle class="cls-2 severity-medium severity-medium" cx="371.67" cy="185.87" r="9.1"/><path class="cls-4 severity-medium" d="M371.67 176.77v18.1c-5 0-9.1-4.1-9.1-9.1s4.1-9 9.1-9Z"/></g></g><g id="damage-pill_windshield_front"><circle class="cls-6 damage-pill-background" cx="248.19" cy="59.57" r="19.13"/><circle class="cls-3 severity-low" cx="248.19" cy="59.57" r="9.1"/><circle class="cls-5 severity-high" cx="248.19" cy="59.57" r="9.1"/><circle class="cls-8 severity-none" cx="248.19" cy="59.57" r="9.1"/><g class="severity-medium"><circle class="cls-2 severity-medium severity-medium" cx="248.19" cy="59.57" r="9.1"/><path class="cls-4 severity-medium" d="M248.19 50.47v18.1c-5 0-9.1-4.1-9.1-9.1s4.1-9 9.1-9Z"/></g></g><g id="damage-pill-pricing_windshield_front"><path class="cls-6 damage-pill-background" d="M303.17 78.7h-54.98c-10.56 0-19.13-8.58-19.13-19.13 0-10.56 8.58-19.13 19.13-19.13h54.98c10.56 0 19.13 8.58 19.13 19.13 0 10.56-8.58 19.13-19.13 19.13Z"/><text class="cls-7 damage-pill-text" transform="translate(270.27 63.85)">9999€</text><circle class="cls-3 severity-low" cx="248.19" cy="59.57" r="9.1"/><circle class="cls-5 severity-high" cx="248.19" cy="59.57" r="9.1"/><circle class="cls-8 severity-none" cx="248.19" cy="59.57" r="9.1"/><g class="severity-medium"><circle class="cls-2 severity-medium severity-medium" cx="248.19" cy="59.57" r="9.1"/><path class="cls-4 severity-medium" d="M248.19 50.47v18.1c-5 0-9.1-4.1-9.1-9.1s4.1-9 9.1-9Z"/></g></g><g id="damage-pill_roof"><circle class="cls-6 damage-pill-background" cx="344.18" cy="20.13" r="19.13"/><circle class="cls-3 severity-low" cx="344.18" cy="20.13" r="9.1"/><circle class="cls-5 severity-high" cx="344.18" cy="20.13" r="9.1"/><circle class="cls-8 severity-none" cx="344.18" cy="20.13" r="9.1"/><g class="severity-medium"><circle class="cls-2 severity-medium severity-medium" cx="344.18" cy="20.13" r="9.1"/><path class="cls-4 severity-medium" d="M344.18 11.03v18.1c-5 0-9.1-4.1-9.1-9.1s4.1-9 9.1-9Z"/></g></g><g id="damage-pill-pricing_roof"><path class="cls-6 damage-pill-background" d="M399.16 39.27h-54.98c-10.56 0-19.13-8.58-19.13-19.13 0-10.56 8.58-19.13 19.13-19.13h54.98c10.56 0 19.13 8.58 19.13 19.13 0 10.56-8.58 19.13-19.13 19.13Z"/><text class="cls-7 damage-pill-text" transform="translate(366.26 24.42)">9999€</text><circle class="cls-3 severity-low" cx="344.18" cy="20.13" r="9.1"/><circle class="cls-5 severity-high" cx="344.18" cy="20.13" r="9.1"/><circle class="cls-8 severity-none" cx="344.18" cy="20.13" r="9.1"/><g class="severity-medium"><circle class="cls-2 severity-medium severity-medium" cx="344.18" cy="20.13" r="9.1"/><path class="cls-4 severity-medium" d="M344.18 11.03v18.1c-5 0-9.1-4.1-9.1-9.1s4.1-9 9.1-9Z"/></g></g><g id="damage-pill_fender_back_left"><circle class="cls-6 damage-pill-background" cx="455" cy="80.47" r="19.13"/><circle class="cls-3 severity-low" cx="455" cy="80.47" r="9.1"/><circle class="cls-5 severity-high" cx="455" cy="80.47" r="9.1"/><circle class="cls-8 severity-none" cx="455" cy="80.47" r="9.1"/><g class="severity-medium"><circle class="cls-2 severity-medium severity-medium" cx="455" cy="80.47" r="9.1"/><path class="cls-4 severity-medium" d="M455 71.37v18.1c-5 0-9.1-4.1-9.1-9.1s4.1-9 9.1-9Z"/></g></g><g id="damage-pill-pricing_fender_back_left"><path class="cls-6 damage-pill-background" d="M509.98 99.6H455c-10.56 0-19.13-8.58-19.13-19.13 0-10.56 8.58-19.13 19.13-19.13h54.98c10.56 0 19.13 8.58 19.13 19.13 0 10.56-8.58 19.13-19.13 19.13Z"/><text class="cls-7 damage-pill-text" transform="translate(477.08 84.75)">9999€</text><circle class="cls-3 severity-low" cx="455" cy="80.47" r="9.1"/><circle class="cls-5 severity-high" cx="455" cy="80.47" r="9.1"/><circle class="cls-8 severity-none" cx="455" cy="80.47" r="9.1"/><g class="severity-medium"><circle class="cls-2 severity-medium severity-medium" cx="455" cy="80.47" r="9.1"/><path class="cls-4 severity-medium" d="M455 71.37v18.1c-5 0-9.1-4.1-9.1-9.1s4.1-9 9.1-9Z"/></g></g><g id="damage-pill_wheel_back_left"><circle class="cls-6 damage-pill-background" cx="439.09" cy="148.17" r="19.13"/><circle class="cls-3 severity-low" cx="439.09" cy="148.17" r="9.1"/><circle class="cls-5 severity-high" cx="439.09" cy="148.17" r="9.1"/><circle class="cls-8 severity-none" cx="439.09" cy="148.17" r="9.1"/><g class="severity-medium"><circle class="cls-2 severity-medium severity-medium" cx="439.09" cy="148.17" r="9.1"/><path class="cls-4 severity-medium" d="M439.09 139.07v18.1c-5 0-9.1-4.1-9.1-9.1s4.1-9 9.1-9Z"/></g></g><g id="damage-pill-pricing_wheel_back_left"><path class="cls-6 damage-pill-background" d="M494.08 167.3H439.1c-10.56 0-19.13-8.58-19.13-19.13 0-10.56 8.58-19.13 19.13-19.13h54.98c10.56 0 19.13 8.58 19.13 19.13 0 10.56-8.58 19.13-19.13 19.13Z"/><text class="cls-7 damage-pill-text" transform="translate(461.18 152.45)">9999€</text><circle class="cls-3 severity-low" cx="439.09" cy="148.17" r="9.1"/><circle class="cls-5 severity-high" cx="439.09" cy="148.17" r="9.1"/><circle class="cls-8 severity-none" cx="439.09" cy="148.17" r="9.1"/><g class="severity-medium"><circle class="cls-2 severity-medium severity-medium" cx="439.09" cy="148.17" r="9.1"/><path class="cls-4 severity-medium" d="M439.09 139.07v18.1c-5 0-9.1-4.1-9.1-9.1s4.1-9 9.1-9Z"/></g></g><g id="damage-pill_quarter_window_back_left"><circle class="cls-6 damage-pill-background" cx="440.27" cy="49.14" r="19.13"/><circle class="cls-3 severity-low" cx="440.27" cy="49.14" r="9.1"/><circle class="cls-5 severity-high" cx="440.27" cy="49.14" r="9.1"/><circle class="cls-8 severity-none" cx="440.27" cy="49.14" r="9.1"/><g class="severity-medium"><circle class="cls-2 severity-medium severity-medium" cx="440.27" cy="49.14" r="9.1"/><path class="cls-4 severity-medium" d="M440.27 40.04v18.1c-5 0-9.1-4.1-9.1-9.1s4.1-9 9.1-9Z"/></g></g><g id="damage-pill-pricing_quarter_window_back_left"><path class="cls-6 damage-pill-background" d="M495.26 68.28h-54.98c-10.56 0-19.13-8.58-19.13-19.13 0-10.56 8.58-19.13 19.13-19.13h54.98c10.56 0 19.13 8.58 19.13 19.13 0 10.56-8.58 19.13-19.13 19.13Z"/><text class="cls-7 damage-pill-text" transform="translate(462.36 53.43)">9999€</text><circle class="cls-3 severity-low" cx="440.27" cy="49.14" r="9.1"/><circle class="cls-5 severity-high" cx="440.27" cy="49.14" r="9.1"/><circle class="cls-8 severity-none" cx="440.27" cy="49.14" r="9.1"/><g class="severity-medium"><circle class="cls-2 severity-medium severity-medium" cx="440.27" cy="49.14" r="9.1"/><path class="cls-4 severity-medium" d="M440.27 40.04v18.1c-5 0-9.1-4.1-9.1-9.1s4.1-9 9.1-9Z"/></g></g></svg>
