<?xml version="1.0" encoding="UTF-8"?><svg id="Layer_1" xmlns="http://www.w3.org/2000/svg" viewBox="0 0 500 375"><defs><style>.cls-1{fill:#fff;}.cls-1,.cls-2{stroke:#fff;stroke-linecap:round;stroke-linejoin:round;stroke-width:1px;}.cls-2{fill:none;}</style></defs><path id="fender_front_left" class="selectable cls-2" d="m52.94,196.08l-4.3-2.61c-2.81-6.61-6.31-17.77-8.28-24.59-1.53-5.26-5.3-13.42-9.22-18.78-2.09-2.88-4.23-4.95-6.09-5.34-3.74,2.98-1.15,19.75-.47,21.68h.02c.12,1.65.3,3.41.57,5.26h-.1c-4.05-9.14-6.12-23.64-4.78-28.75,1.34-5.1,5.49-13.47,7.64-18.72,0,0-.16-.01-.43-.02h.48c2.95.26,9.18.39,11.79.39,0,0,.63.7,1.52,1.65h0c-1.11,2.63,2.72,40.72,9.54,58.06.7,1.78,1.49,7.77,2.11,11.78Z" /><path id="mirror_left" class="selectable cls-2" d="m48.51,124.12c-.51,1.49-2.25,6.72-2.25,6.72-1.25-.75-3.47-3-4.97-4.59h0c-.89-.96-1.52-1.66-1.52-1.66-2.61,0-8.84-.13-11.79-.4h-.48c-1.49-.08-6.35-.5-7.77-2.05-2.37-2.61-1.79-7.15-.86-9.81.39-1.15,1.32-2,2.47-2.3,5.34-1.36,16.48-2.93,21.82-2.56l.08-.02c.49.23.94.8,1.32,1.6h0c1.56,3.22,2.23,10.01,1.88,11.87l.78,1.2,1.29,2Z" /><path id="pillar" class="selectable cls-2" d="m79.69,74.01c-4.02,2.31-7.62,5.16-11.62,8.63-9.89,8.55-19.5,19.87-23.51,26.41-.38-.8-.83-1.37-1.32-1.6l-.08.02s.02-.03.04-.05c4.17-5.51,15.05-20.94,30.8-33.41h5.69Z" /><g id="door_front_left" class="selectable"><path class="cls-2" d="m75.59,144.95c.02-7.54,4.82-15.86,7.99-19.72-13.36-1.39-25.72-2.47-36.36-3.11l1.29,2c-.51,1.49-2.25,6.72-2.25,6.72-1.25-.75-3.47-3-4.97-4.59-1.11,2.62,2.72,40.71,9.54,58.05.7,1.78,1.49,7.77,2.11,11.78l34.3,21.09c-2.52-16.13-11.68-64.3-11.65-72.22Zm-2.4-5.64c-1.95-.22-7.78-2.3-8.59-2.62-1.32-.48-.98-2.71.29-2.78,1.05-.07,6.03.07,8.86.64,2.32.46,1.4,4.98-.56,4.76Z" /><path id="handle_front_left" class="cls-2" d="m73.19,139.31c-1.95-.22-7.78-2.3-8.59-2.62-1.32-.48-.98-2.71.29-2.78,1.05-.07,6.03.07,8.86.64,2.32.46,1.4,4.98-.56,4.76Z" /></g><path id="window_front_left" class="selectable cls-2" d="m99.82,67.47c-2.1,5.69-13.47,45.58-16.23,57.75h-.01c-13.36-1.38-25.72-2.46-36.36-3.1l-.78-1.2c.35-1.86-.32-8.65-1.88-11.86h0c4.01-6.55,13.62-17.87,23.51-26.42,4-3.47,7.6-6.32,11.62-8.63,5.33-3.07,11.4-5.18,20.13-6.54Z" /><g id="door_back_left" class="selectable"><path class="cls-2" d="m165.58,135.33c-27.75-3.78-56.68-7.48-82-10.1-3.17,3.86-7.97,12.18-7.99,19.72-.03,7.92,9.13,56.09,11.65,72.22l46.63,27.51,9.92,5.86c-.06-.62-.12-1.24-.16-1.86-.06-.69-.12-1.37-.16-2.04-.09-1.16-.15-2.31-.2-3.44-.04-.6-.06-1.19-.08-1.78-.02-.61-.04-1.22-.05-1.82-.02-.57-.03-1.12-.03-1.68-.05-3.66.05-7.17.29-10.51.09-1.3.2-2.57.33-3.81.16-1.52.35-3,.58-4.44.02-.17.04-.33.07-.49.22-1.39.47-2.74.75-4.05.32-1.56.69-3.06,1.09-4.49,3.54-12.57,13.23-43.16,12.5-50.41-.74-7.25.9-17.21,6.86-24.39Zm-76.74,5.78c-3.34-.31-6.59-.61-9.42-1.44-1.91-.56-1.25-4.49,1-4.34,2.64.17,7.84.78,10.18,2.15,2.37,1.36,1.39,3.93-1.76,3.63Z" /><path id="handle_back_left" class="cls-2" d="m88.84,141.11c-3.34-.31-6.59-.61-9.42-1.44-1.91-.56-1.25-4.49,1-4.34,2.64.17,7.84.78,10.18,2.15,2.37,1.36,1.39,3.93-1.76,3.63Z" /></g><path id="window_back_left" class="selectable cls-2" d="m174.5,65.28c-2.73,6.89-9.12,48.19-8.92,70.05-27.75-3.78-56.68-7.48-82-10.1h.01c2.76-12.18,14.13-52.07,16.23-57.76h.01c.64-.09,1.28-.19,1.95-.28,22.76-3.12,48.86-3.03,72.72-1.91Z" /><path id="quarter_window_back_left" class="selectable cls-2" d="m276.2,143.38c-4.2,5.2-9.57,6.18-14.73,5.47-21.16-2.88-57.39-8.28-95.89-13.52-.2-21.86,6.19-63.16,8.92-70.05,10.72.49,20.98,1.2,30.29,1.91,13.15,1.02,19.02,3.44,24.46,7.08,1.43.96,2.84,2,4.34,3.12,7.21,5.4,38.63,38.02,44.41,45.8,5.79,7.79,2.4,14.99-1.8,20.19Z" /><path id="rocker_panel_left" class="selectable cls-2" d="m151.12,271.14l-4.93-3.47-58.5-41.26-30.53-21.53-3.06-2.15-3.27-2.31s-1.67-5.74-2.19-6.96l4.3,2.62,34.3,21.09,46.63,27.51,9.92,5.86,4.79,2.83h.01c.74,7.34,1.92,14,2.53,17.77Z" /><path id="background" class="cls-2" d="m31.14,150.09c-3.6.88-5.08,2.57-6.14,5.92-.54,1.71-.77,5.54-.4,10.42h-.02c-.68-1.93-3.27-18.7.47-21.68,1.86.39,4,2.46,6.09,5.34Z" /><path id="background-2" class="cls-2" d="m189.26,219.41c-10.13,2.39-24.34,7.54-28.37,13.87-2.91,4.55-6.69,18.58-3.93,36.25h-.01l-5.83,1.61c-.61-3.77-1.79-10.43-2.53-17.77-.9-8.79-1.17-18.56.92-25.49,3.83-12.69,12.26-21.07,27.71-15.65,4.19,1.47,8.22,3.99,12.04,7.18Z" /><g id="wheel_front_left" class="selectable"><path class="cls-2" d="m54.1,202.73l-3.27-2.31s-1.67-5.74-2.19-6.96c-2.81-6.61-6.31-17.77-8.28-24.59-1.53-5.26-5.3-13.42-9.22-18.78-3.6.88-5.08,2.57-6.14,5.92-.54,1.71-.77,5.54-.4,10.42.12,1.65.3,3.41.57,5.26.5,3.49,1.27,7.26,2.39,11.03,3.47,11.62,9.84,25.19,16.65,24.68,7.28-.56,12.8-2.3,12.8-2.3l.15-.22-3.06-2.15Zm-14.74-4.72c-1.91.57-5.55-6.04-8.12-14.76-2.57-8.72-3.1-16.24-1.18-16.81,1.91-.56,5.55,6.05,8.12,14.76,2.57,8.72,3.1,16.25,1.18,16.81Z" /><path class="cls-2" d="m39.36,198.01c-1.91.57-5.55-6.04-8.12-14.76-2.57-8.72-3.1-16.24-1.18-16.81,1.91-.56,5.55,6.05,8.12,14.76,2.57,8.72,3.1,16.25,1.18,16.81Z" /></g><g id="wheel_back_left" class="selectable"><path class="cls-2" d="m223.66,269.53c-2.73-6.71-5.67-12.64-8.6-17.36-6.69-10.77-15.52-24.18-25.8-32.76-10.13,2.39-24.34,7.54-28.37,13.87-2.91,4.55-6.69,18.58-3.93,36.25,1.05,6.82,3.09,14.18,6.52,21.75,12.5,27.57,31.93,46.1,46.68,40.43,12.06-4.63,25.36-14.9,26.18-15.54-2.37-16.36-7.13-33.09-12.68-46.64Zm-23.1,48.21c-7.66,3.2-20.35-9.7-28.34-28.82-7.99-19.12-8.26-37.21-.6-40.41,7.67-3.2,20.35,9.7,28.34,28.82,7.99,19.12,8.26,37.21.6,40.41Z" /><path class="cls-2" d="m200.56,317.74c-7.66,3.2-20.35-9.7-28.34-28.82-7.99-19.12-8.26-37.21-.6-40.41,7.67-3.2,20.35,9.7,28.34,28.82,7.99,19.12,8.26,37.21.6,40.41Z" /></g><path id="fender_back_left" class="selectable cls-2" d="m365.7,301s-4.18,1.52-14.58,5.13c-21.97,7.66-49.8,30.56-65.06,32.86v.02c-14.97-5.58-37.83-14.61-49.34-20.04-.12-.93-.25-1.86-.38-2.8-2.37-16.36-7.13-33.09-12.68-46.64-2.73-6.71-5.67-12.64-8.6-17.36-6.69-10.77-15.52-24.18-25.8-32.76-3.82-3.19-7.85-5.71-12.04-7.18-15.45-5.42-23.88,2.96-27.71,15.65-2.09,6.93-1.82,16.7-.92,25.49h-.01l-4.79-2.83c-.06-.62-.11-1.24-.16-1.86-.06-.69-.12-1.37-.16-2.04-.08-1.16-.15-2.3-.2-3.44-.03-.59-.05-1.19-.08-1.78-.02-.61-.04-1.22-.05-1.82-.01-.57-.02-1.13-.03-1.68-.05-3.66.05-7.17.29-10.51.09-1.3.2-2.57.33-3.81.16-1.52.35-3,.58-4.44.02-.17.04-.33.07-.49.22-1.39.47-2.74.75-4.05.32-1.56.69-3.06,1.09-4.49,3.54-12.57,13.23-43.16,12.5-50.41-.74-7.25.9-17.21,6.86-24.39,38.5,5.24,74.73,10.64,95.89,13.52,5.16.71,10.53-.27,14.73-5.47,4.2-5.2,7.59-12.4,1.8-20.19-5.78-7.78-37.2-40.4-44.41-45.8-1.5-1.12-2.91-2.16-4.34-3.12l67.48,5.61v.03c9.15,22.97,23.31,53.93,43.26,64.08l3.45,21.59c-.93,2.09-2.29,9.69-1.72,14.38h0c-21.23-1.89-46.03-6.55-54.66-6.4-8.91.15-15.58,1.66-19.73,3.83-7.25,3.84-8.35,10.4,0,12.19,8.35,1.78,36.58,7.22,51,10.52,0,0,4.1,16.06,10.33,21.24,10.09.1,20.18-.08,28.84-.65h0c1.12,1.45,2.29,4.99,2.29,4.99-2.1,4.18-3.78,13.99-4.08,18-1.34,17.99,9.91,50.85,9.99,57.32Z" /><path id="roof" class="selectable cls-2" d="m440.38,66.38c1.08-.75.54-3.1-2.32-3.73-12.77-2.87-25.91-3.43-38.9-4.65-11.99-1.13-23.95-2.18-35.98-2.88-9.1-.53-18.54-.97-27.35-1.3-11.19-.42-22.37-.87-33.56-1.11-28.95-.62-57.92-.58-86.87-.28-27.54.28-55.25.09-82.69,2.82-14.11,1.32-35.57,4.78-42.79,8.45-5.73,2.9-11.05,6.46-15.91,10.31h5.68c5.33-3.07,11.4-5.18,20.14-6.54.64-.09,1.28-.19,1.95-.28,22.76-3.12,48.86-3.03,72.72-1.91,10.72.49,20.98,1.2,30.29,1.91,13.15,1.02,19.02,3.44,24.46,7.08l67.48,5.61v.03c9.72-3.05,20.07-6.18,38.06-7.62,34.2-2.71,79.57-1.56,90.82-.81,1.86,1.22,7.23,8.59,9.98,12.6-2.87-4.95-3.59-12.96-2.14-14.84,3.2-.81,5.17-1.61,6.93-2.86Z" /><path id="windshield_back" class="selectable cls-2" d="m458.63,119.95s-.01-.01-.02-.02c-.03-.04-.06-.07-.09-.11-6.49-11.84-19.6-30.42-22.68-35.32-.07-.12-.15-.24-.21-.36-.01-.02-.03-.04-.04-.06-2.75-4.01-8.12-11.38-9.98-12.6-11.25-.75-56.62-1.9-90.82.81-17.99,1.44-28.34,4.57-38.06,7.62,9.15,22.97,23.31,53.93,43.26,64.08,28.34,6.91,77.47,6.03,102.25,0,24.7-6.01,22.45-13.86,16.39-24.04Z" /><path id="tail_light_left" class="selectable cls-2" d="m419.7,194.07c-.55.36-1.09.63-1.61.78-13.16,3.66-32.93,21.21-42.67,23.56-4.43,1.07-10.68,1.81-17.92,2.28-8.66.57-18.75.75-28.84.65-6.23-5.18-10.33-21.24-10.33-21.24-14.42-3.3-42.65-8.74-51-10.52-8.35-1.79-7.25-8.35,0-12.19,4.15-2.17,10.82-3.68,19.73-3.83,8.63-.15,33.43,4.51,54.66,6.41.63.06,1.26.11,1.88.16,21.63,1.78,54.37,1.34,83.67.78.77,2.64-3.59,10.48-7.57,13.16Z" /><polygon id="license_plate_back" class="selectable cls-2" points="457.18 200.65 455.46 219.73 419.07 248.07 420.71 220.69 457.18 200.65" /><path id="trunk" class="selectable cls-2" d="m478.52,144.75c.65,3.08.8,6.86.56,10.04-.25,3.05-1.74,4.71-3.47,6.95t.01.02c-7.22,12.96-35.71,25.74-55.92,32.31,3.98-2.68,8.34-10.52,7.57-13.16-29.3.56-62.04,1-83.67-.78-.62-.05-1.25-.1-1.88-.16h0c-.57-4.7.79-12.3,1.72-14.39l-3.45-21.59c28.34,6.91,77.47,6.03,102.25,0,24.7-6.01,22.45-13.86,16.39-24.04,5.12,5.91,20.07,14.74,21.23,17.36,1.17,2.63-.05,5.73-1.34,7.44Zm-2.91,26.34c-.49,3.2-4.3,23.34-8.72,35.5,2.93,7.99.74,12.89,1.23,17.43.03.32.06.67.08,1.04-5.05,14.13-16.84,28.93-30.16,39.91-13.36,11.01-34.35,24.41-62.38,34.71-7.11,2.62-8.81,2.37-9.96,1.32-.08-6.47-11.33-39.33-9.99-57.32.3-4.01,1.98-13.82,4.08-18,0,0-1.17-3.54-2.29-4.98h0c7.24-.48,13.49-1.22,17.92-2.29,9.74-2.35,29.51-19.9,42.67-23.56.52-.15,1.06-.42,1.61-.78,20.21-6.57,48.7-19.35,55.92-32.31,1.28,3.56.48,6.15-.01,9.33Zm-18.43,29.56l-36.47,20.04-1.63,27.38,36.39-28.33,1.71-19.08Zm18.45-38.91s-.01.01-.01.02" /><path id="bumper_back" class="selectable cls-2" d="m464.87,244.97c1.88,7.91-3.62,26.66-21.51,44.9-17.9,18.24-37.5,31.3-45.02,35.91-7.52,4.59-6.54,6.54-10.42,8.47-3.86,1.93-23.74,11.14-31.38,12.23-7.64,1.08-32.22-.36-48.34-4.37,0,0-2.05,3.52-8.83,1.59-2.02-.57-6.96-2.32-13.32-4.69v-.02c15.27-2.3,43.1-25.2,65.07-32.86,10.4-3.61,14.58-5.13,14.58-5.13,1.15,1.05,2.85,1.3,9.96-1.32,28.03-10.3,49.02-23.7,62.38-34.71,13.32-10.98,25.11-25.78,30.16-39.91.25,4.87-.76,13.67-3.33,19.91Z" /></svg>
