<?xml version="1.0" encoding="UTF-8"?><svg id="Layer_1" xmlns="http://www.w3.org/2000/svg" viewBox="0 0 500 375"><defs><style>.cls-1{fill:#fff;}.cls-1,.cls-2{stroke-linecap:round;stroke-linejoin:round;stroke-width:1px;}.cls-1,.cls-2,.cls-3{stroke:#fff;}.cls-2,.cls-3{fill:none;}.cls-3{stroke-miterlimit:10;}</style></defs><path id="roof" class="selectable cls-2" d="m452.7,38.8c-.9-.34-1.91-.67-3-1-2.46-.75-5.37-1.47-8.61-2.17-9.96-2.12-23.04-3.92-35.71-4.96-7.44-.62-14.73-.97-21.18-.97-4.81-.17-20.67.3-39.82,1.06-7.25.29-14.96.62-22.74.97.25.03.44.05.56.07l-.56-.07h-.01c-11.23.52-22.55,1.07-32.71,1.61h-.01c-7.92.43-15.13.85-21.03,1.24h-.05s-.05,0-.07.01c-.06,0-.12,0-.18.01-7.35.46-12.63.88-14.68,1.2-6.47,1-21.56,3.87-36.69,10.21-.07.03-.14.06-.21.09-.61.25-1.26.53-1.94.84h3.23c.32-.13.62-.24.91-.34,10.7-3.5,113.4-3.4,116.1-3.5,2.9,0,7.5.2,7.7,3.5l21.82,1.57h.01c6.35-2.97,16.24-6.43,27.07-7.11.33-.03.67-.04,1-.06,17.41-.73,36.32.76,48.6,2.69,6.13.97,10.6,2.04,12.4,3.01.58.31,1.24.81,1.94,1.47h0l10.25-1.97c-1.2-2.5.5-2.6-12.4-7.4Z" /><path id="background" class="cls-2" d="m217.28,46.94c-14.22,5.61-62.63,38.94-80.02,52.56l-.96-2c17.55-14.56,59.46-42.32,77.76-50.56h3.22Z" /><path id="windshield_front" class="selectable cls-2" d="m342,46.6c-14.08,19.86-28.8,44.94-40.14,60.37-3.56,4.85-6.79,8.75-9.56,11.23-2.84,2.75-14.57,7.15-21.02,8.6-.82.18-1.56.32-2.18.4-5.5.6-146.2-14.7-137-23.4,1.06-1,2.83-2.47,5.16-4.3,17.39-13.62,65.8-46.95,80.02-52.56h0c.32-.13.62-.24.91-.34,10.7-3.5,113.4-3.4,116.1-3.5,2.9,0,7.5.2,7.7,3.5Z" /><path id="pillar" class="selectable cls-2" d="m363.82,48.17c-3.37,1.58-5.74,3.01-6.72,3.83-8.16,6.82-31.04,38.72-37.4,58.79l-17.84-3.82c11.34-15.43,26.06-40.51,40.14-60.37l21.82,1.57Z" /><path id="fender_back_left" class="selectable cls-2" d="m482,101.4c-.2,4.5-3.9,27.5-4.9,32.1-.99,4.54-6.65,19.59-8.05,23.16.26-1.33.48-2.58.65-3.69l.2.03c2.6-6.8,5.8-22.6,2.6-27.5-2.69-4.09-6.38.38-10.86,7.25-.02.02-.03.03-.04.05-4.2,6.5-14.9,31.9-19.3,51l-5.66,3.9-.14-.2c.38-.86.77-1.74,1.15-2.62.39-.88.77-1.76,1.14-2.65.76-1.78,1.63-3.99,2.38-5.81.64-1.55,1.15-2.71,1.77-4.28,3.12-7.91,6.03-16.05,8.52-24.04.24-.75.47-1.5.69-2.24,1.46-4.82,2.76-9.57,3.85-14.17.17-.69.32-1.37.47-2.05.17-.74.33-1.47.49-2.2,0-.02,0-.04,0-.06.13-.61.26-1.22.38-1.83.52-2.64.97-5.2,1.33-7.68.08-.55.16-1.09.22-1.62,0-.04,0-.08.02-.11.09-.71.18-1.41.25-2.11.01-.1.02-.2.04-.29.07-.7.14-1.39.19-2.07v-.02c.05-.56.09-1.12.12-1.67.07-.92.11-1.82.14-2.69.02-.68.03-1.35.03-2,0-2.12-.11-4.13-.33-6-.11-.94-.26-1.84-.43-2.71s-.38-1.7-.61-2.49c-.23-.8-.5-1.55-.8-2.27-.3-.72-.63-1.39-1-2.03-.55-.96-1.18-1.82-1.89-2.57-.23-.25-.48-.49-.73-.72v-.03c8.91-3.14,15.68-5.49,17-5.87.85-.57,1.43-4.35.23-7.97-.07-.21-.15-.42-.23-.63-1.34-3.3-10.3-18.51-16.05-23.83l10.25-1.97c.89,1.85,5.52,16.63,8.34,25.98.09.3.18.6.27.89.85,2.84,1.51,5.08,1.79,6.13.9,3.5,5.7,6.4,6.1,7.8,0,2-1.2,4.8-1.2,6.1.6,1.6,1.6,5.9,1.6,8.3Z" /><path id="quarter_window_back_left" class="selectable cls-2" d="m470.9,80.6c-1.32.38-8.09,2.73-17,5.87-.91-8.03-7.01-31.88-13.4-42.77h0c6.13.96,10.6,2.03,12.4,3,.58.31,1.24.81,1.94,1.47h0c5.75,5.32,14.71,20.53,16.05,23.83.08.21.16.42.23.63,1.2,3.62.62,7.4-.23,7.97Z" /><path id="window_back_left" class="selectable cls-2" d="m453.9,86.47c-15,5.28-36.08,12.77-47.49,16.84h0c-1.3-5.31-10.8-49.41-15.5-62.21v-.04c.33-.03.67-.04,1-.06,17.41-.73,36.32.76,48.6,2.69h0c6.39,10.9,12.49,34.75,13.4,42.78Z" /><path id="window_front_left" class="selectable cls-2" d="m406.4,103.3h0c-4.65,1.67-7.69,2.75-8.06,2.88h-.01c-.25-.84-.53-1.49-.83-1.88-1.9-2.3-29.8-7-36.6-5.2-6.7,1.8-14.6,10.5-15.1,19.8,0,1.3.7,2.7,1.8,3.6l-3.33,3.58h-.01c-3.28,1.09-10.52,4.72-12.96,4.82h-.1c-2.4,0-12.5-9.6-13-13.7.25-1.94.76-4.1,1.5-6.41,6.36-20.07,29.24-51.97,37.4-58.79.98-.82,3.35-2.25,6.72-3.83h.01c6.35-2.97,16.24-6.43,27.07-7.11v.04c4.7,12.8,14.2,56.9,15.5,62.2Z" /><path id="mirror_left" class="selectable cls-2" d="m399.87,118.12c0,.96-.05,1.66-.17,1.98-.32.85-2.9,2.43-5.84,3.87-2.6,1.27-5.48,2.41-7.36,2.83-3.9.9-25.1,1.5-26.5,1.9s-6.3,8.6-7.1,9.2c-.8.7-2.2,1.2-4.4,1.2s-8.2-4-8.6-4.3c-.4-.3-.6-3.4-.6-3.4l4.96-5.32h.01l3.33-3.58c-1.1-.9-1.8-2.3-1.8-3.6.5-9.3,8.4-18,15.1-19.8,6.8-1.8,34.7,2.9,36.6,5.2.3.39.58,1.04.83,1.88h.01c.96,3.16,1.54,8.85,1.53,11.94Z" /><g id="door_back_left" class="selectable"><path class="cls-2" d="m459.36,99.29c-.12-.94-.26-1.84-.43-2.71s-.38-1.7-.61-2.49c-.24-.8-.5-1.55-.8-2.27-.3-.72-.64-1.39-1-2.03-.55-.95-1.18-1.81-1.89-2.57-.23-.25-.48-.49-.73-.72v-.03c-15,5.28-36.08,12.77-47.49,16.84,3.77,3.01,5.91,7.7,6.87,13.68v.02c.05.33.1.66.15,1,0,.01,0,.03.01.04.02.19.04.37.06.57.02.15.04.3.05.45.12.93.2,1.9.25,2.9,0,.08,0,.17.01.25.03.53.05,1.05.06,1.59.17,6.49-.59,14.03-1.92,22.28-.09.56-.18,1.13-.28,1.7-.33,1.99-.7,4.03-1.09,6.1-.13.69-.26,1.38-.4,2.08-.11.56-.22,1.12-.33,1.69-.22,1.11-.45,2.23-.68,3.36-.5,2.41-1.02,4.86-1.56,7.34-1.52,6.95-3.18,14.15-4.82,21.45-.42,1.84-.83,3.69-1.24,5.54-.35,1.57-.69,3.15-1.03,4.73-.2.9-.32,1.39-.51,2.29l41.16-25.95c.64-1.55,1.14-2.71,1.77-4.28,3.12-7.91,6.03-16.05,8.52-24.04.23-.75.46-1.49.69-2.24,1.46-4.82,2.76-9.57,3.85-14.17.16-.69.32-1.37.47-2.05.17-.74.33-1.47.49-2.2,0-.02,0-.04,0-.06.13-.62.26-1.22.38-1.83.52-2.64.97-5.2,1.33-7.68.08-.55.16-1.09.22-1.62,0-.04,0-.08.02-.11.09-.71.18-1.41.25-2.11.01-.1.02-.2.04-.29.07-.7.14-1.39.19-2.07v-.02c.05-.57.09-1.12.12-1.67.07-.92.11-1.82.14-2.69.02-.68.03-1.35.03-2,0-2.12-.11-4.13-.33-6Zm-33.96,13.11c-1.1.8-8.6,5.3-9.9,4.7-1.3-.6-1.8-3.4-1.6-4.5.1-.6,1.6-1.6,2.5-2.1,1.1-.4,7.8-2.1,9.3-2.2,1.6-.1,1.8,1,1.9,1.5-.1,1.3-1.6,2.2-2.2,2.6Z" /><path id="handle_back_left" class="cls-2" d="m427.6,109.8c-.1,1.3-1.6,2.2-2.2,2.6-1.1.8-8.6,5.3-9.9,4.7-1.3-.6-1.8-3.4-1.6-4.5.1-.6,1.6-1.6,2.5-2.1,1.1-.4,7.8-2.1,9.3-2.2,1.6-.1,1.8,1,1.9,1.5Z" /></g><g id="door_front_left" class="selectable"><path class="cls-2" d="m411.95,146.09c-.09.56-.18,1.13-.28,1.7-.33,1.99-.7,4.03-1.09,6.1-.13.69-.26,1.38-.4,2.08-.11.56-.22,1.12-.33,1.69-.22,1.11-.45,2.23-.68,3.36-.5,2.41-1.02,4.86-1.56,7.34-1.52,6.95-3.18,14.15-4.82,21.45-.42,1.84-.83,3.69-1.24,5.54-.35,1.57-.7,3.15-1.03,4.73-.2.9-.32,1.39-.51,2.29l-65.16,40.35c3.79-39.33,3.5-93.92-3.55-111.82,2.44-.1,9.68-3.73,12.96-4.82l-4.96,5.32s.2,3.1.6,3.4c.4.3,6.4,4.3,8.6,4.3s3.6-.5,4.4-1.2c.8-.6,5.7-8.8,7.1-9.2s22.6-1,26.5-1.9c1.88-.42,4.76-1.56,7.36-2.83l.74.23c.2.4.6.7,1.1.8.8.2,2.2.1,2.8,0,.6-.1,9-3.1,10.3-3.9,1.6-.9,2.1-1.7,2.3-2.2.1-.2.18-.88.07-1.57-.1-.7-.37-1.43-.97-1.73-.9-.5-2-.7-6.2.8-3.11,1.11-3.92,1.56-4.13,1.72.01-3.09-.57-8.78-1.53-11.94.37-.13,3.41-1.21,8.06-2.87h0c3.77,3.01,5.91,7.7,6.87,13.68v.02c.05.33.1.66.15,1,0,.01,0,.03.01.04.02.19.04.37.06.57.02.15.04.3.05.45.11.94.19,1.91.25,2.9,0,.08,0,.17.01.25.02.52.04,1.05.06,1.59.17,6.49-.59,14.03-1.92,22.28Z" /><path id="handle_front_left" class="cls-2" d="m411.1,118.9c-.2.5-.7,1.3-2.3,2.2-1.3.8-9.7,3.8-10.3,3.9-.6.1-2,.2-2.8,0-.5-.1-.9-.4-1.1-.8l-.74-.23c2.94-1.44,5.52-3.02,5.84-3.87.12-.32.17-1.02.17-1.98.21-.16,1.02-.61,4.13-1.72,4.2-1.5,5.3-1.3,6.2-.8.6.3.87,1.03.97,1.73.11.69.03,1.37-.07,1.57Z" /></g><path id="background-2" class="cls-2" d="m469.9,153l-.2-.03c.2-1.25.34-2.33.4-3.17.4-6.7.5-12.5-1.8-14.4-1.99-1.64-5.69-2.46-6.66-2.65,4.48-6.87,8.17-11.34,10.86-7.25,3.2,4.9,0,20.7-2.6,27.5Z" /><g id="wheel_back_left" class="selectable"><path class="cls-2" d="m468.3,135.4c-1.99-1.64-5.69-2.46-6.66-2.65-.02.02-.03.03-.04.05-4.2,6.5-14.9,31.9-19.3,51l-5.66,3.9-4.04,2.78c1.84.49,11.78,3.14,13.5,3.32,1.1.1,4.5.7,6.6-.9,1.2-.9,4.9-3.9,10.5-15.5,1.87-3.81,4.41-13.46,5.84-20.7,0-.01,0-.03.01-.04.26-1.33.48-2.58.65-3.69.2-1.25.34-2.33.4-3.17.4-6.7.5-12.5-1.8-14.4Zm-5.31,31.54c-3.3,10.22-7.76,17.93-9.95,17.22-2.18-.71-1.28-9.57,2.03-19.79,3.31-10.22,7.77-17.93,9.95-17.22,2.19.71,1.28,9.57-2.03,19.79Z" /><path class="cls-2" d="m462.99,166.94c-3.3,10.22-7.76,17.93-9.95,17.22-2.18-.71-1.28-9.57,2.03-19.79,3.31-10.22,7.77-17.93,9.95-17.22,2.19.71,1.28,9.57-2.03,19.79Z" /></g><path id="background-3" class="cls-2" d="m324.2,232.6c.15,7.58-.61,12.87-2.08,18.13-1.39,4.95-3.48,10.06-3.72,11.27l-1.93-.32c2.66-16.71,1.49-28.04-2.97-36.18-5-9.3-12.4-12-17.1-13.8-4.08-1.63-12.1-3.92-13.57-4.33,12.28-6.76,21.78-6.84,26.67-4.67,8.9,4,14.4,15.2,14.7,29.9Z" /><g id="wheel_front_left" class="selectable"><path class="cls-2" d="m313.5,225.5c-5-9.3-12.4-12-17.1-13.8-4.08-1.63-12.1-3.92-13.57-4.33-6.02,3.3-12.71,8.21-19.84,15.24-2.45,2.4-4.95,5.06-7.49,7.99-20.01,23.14-28.34,59.46-31.65,80.51,1.83,1.4,20.23,15.42,21.75,15.99,1.5.5,6.3,4.9,16.6,3.1s20.8-6.6,31.5-20.7c10.7-14.1,19.5-28.6,22.5-46.2.09-.55.18-1.09.27-1.62,2.66-16.71,1.49-28.04-2.97-36.18Zm-12.79,59.01c-9.83,20.29-25.36,33.08-34.68,28.56-9.32-4.51-8.91-24.63.92-44.92,9.84-20.29,25.37-33.08,34.69-28.56,9.32,4.52,8.91,24.63-.93,44.92Z" /><path class="cls-2" d="m300.71,284.51c-9.83,20.29-25.36,33.08-34.68,28.56-9.32-4.51-8.91-24.63.92-44.92,9.84-20.29,25.37-33.08,34.69-28.56,9.32,4.52,8.91,24.63-.93,44.92Z" /></g><path id="rocker_panel_left" class="selectable cls-2" d="m400.01,202.37l-65.16,40.35-12.73,8.01c-1.39,4.95-3.48,10.06-3.72,11.27-.5,2.5,4.8,3.8,4.8,3.8l10.03-6.91,64.5-44.4,34.87-24.01,4.04-2.78-.14-.2c.38-.86.77-1.74,1.15-2.62.38-.87.76-1.76,1.14-2.65.76-1.78,1.63-3.99,2.38-5.81l-41.16,25.95Z" /><path id="fender_front_left" class="selectable cls-2" d="m334.85,242.72l-12.73,8.01c1.47-5.26,2.23-10.55,2.08-18.13-.3-14.7-5.8-25.9-14.7-29.9-4.89-2.17-14.39-2.09-26.67,4.67-6.02,3.3-12.71,8.21-19.84,15.24l-46.57-28.62c16.66-11.06,41.59-29.98,42.88-41.49l.2-.4c.5-5.5,8.9-22.3,11.8-25.2l-.02-.1c6.45-1.45,18.18-5.85,21.02-8.6,2.77-2.48,6-6.38,9.56-11.23l17.84,3.82c-.74,2.31-1.25,4.47-1.5,6.41.5,4.1,10.6,13.7,13,13.7h.1c7.05,17.9,7.34,72.49,3.55,111.82Z" /><path id="hood" class="selectable cls-2" d="m271.3,126.9c-2.9,2.9-11.3,19.7-11.8,25.2l-.2.4c-25.4,12.5-32,14.1-50.3,19.8-19.2,6-82.8,16.9-88.2,17.1-.26.01-.56.04-.88.08l-.02-.08c-49.9,2-90.1-.1-91.1-21.2.5-1.5-.1-4.6,7.8-18,2.2-3.8,19.1-22.6,27.7-28.5,26.4-13.5,65.6-20.7,72-24.2l.96,2c-2.33,1.83-4.1,3.3-5.16,4.3-9.2,8.7,131.5,24,137,23.4.62-.08,1.36-.22,2.18-.4l.02.1Z" /><path id="head_light_left" class="selectable cls-2" d="m259.3,152.5c-1.29,11.51-26.22,30.43-42.88,41.49-5.34,3.54-9.83,6.28-12.42,7.71-.47.26-.95.51-1.43.75-.13.08-.27.14-.4.2-22.94,11.74-57.21,17.11-63.31,17.36-21.65.87-46.98-12.3-47.74-12.7-.01-.01-.02-.01-.02-.01,4.38-8.38,22.36-16.85,28.82-17.82.32-.04.62-.07.88-.08,5.4-.2,69-11.1,88.2-17.1,18.3-5.7,24.9-7.3,50.3-19.8Z" /><path id="fog_light_front_left" class="selectable cls-2" d="m172.7,326.1c-5.7,1.9-46.4-1.6-51.8-2.9l-.29-.21c2.05-2.77,4.19-5.9,6.06-9.01h.01l.02.02c3.3,1,40.7,2.8,42.7,3s6.7,2.9,7.3,3.4c.6.5-.9,4.1-4,5.7Z" /><path id="grill_radiator" class="selectable cls-2" d="m131.9,299.1c-1.9-7.6-28.8-37-41.1-47-12.34-8.66-44.11-10.19-68.96-44.24.79,1.52,1.59,2.87,2.36,4.04,3.78,5.77,6.08,28.26,4.82,28.89.84,4.55,5.52,22.16,11.48,30.31,6,8.2,20.4,32.3,80.1,51.9,0,0,0-.01.01-.01,2.05-2.77,4.19-5.9,6.06-9.01h.01c3.6-5.97,6.21-11.85,5.22-14.88Zm-96.33-46.54v-16.58l28.01,21.65,1.18,28.58-29.19-33.65Z" /><path id="bumper_front" class="selectable cls-2" d="m262.99,222.61c-2.45,2.4-4.95,5.06-7.49,7.99-20.01,23.14-28.34,59.46-31.65,80.51-1.46,9.24-1.96,15.54-2.05,16.49-.3,3.1-28.2,19.8-48,21.1-18.44,1.21-49.7-.01-64.09-5.51-1.07-.4-2.04-.84-2.91-1.29-12.6-6.6-81.2-37.6-83.2-94.2-.2-3.4,4.1-6.6,5.4-6.9.01,0,.01,0,.02,0,.84,4.55,5.52,22.16,11.48,30.31,6,8.2,20.4,32.3,80.1,51.9,0,0,0-.01.01-.01l.29.21c5.4,1.3,46.1,4.8,51.8,2.9,3.1-1.6,4.6-5.2,4-5.7-.6-.5-5.3-3.2-7.3-3.4s-39.4-2-42.7-3l-.02-.02c3.6-5.97,6.21-11.85,5.22-14.88-1.9-7.6-28.8-37-41.1-47-12.34-8.66-44.11-10.19-68.96-44.24-3.11-6-5.88-14.48-4.44-23.66,1.6-9.9,10.9-14.5,11.4-16,1,21.1,41.2,23.2,91.1,21.2l.02.08c-6.46.97-24.44,9.44-28.82,17.82,0,0,.01,0,.02.01.76.4,26.09,13.57,47.74,12.7,6.1-.25,40.37-5.62,63.31-17.36.13-.06.27-.12.4-.2.48-.24.96-.49,1.43-.75,2.59-1.43,7.08-4.17,12.42-7.71l46.57,28.62Z" /><polygon id="license_plate_front" class="selectable cls-3" points="64.76 286.21 35.57 252.56 35.57 235.98 63.58 257.63 64.76 286.21" /></svg>
