<svg xmlns="http://www.w3.org/2000/svg" viewBox="0 0 524.9 302.94"><defs><style>.cls-1{stroke:#fff;stroke-linecap:round;stroke-linejoin:round}.cls-1,.cls-2,.cls-3{fill:none}.cls-4{fill:#e1a25b}.cls-5{fill:#f49796;stroke:#f49796}.cls-2,.cls-3,.cls-5,.cls-6{stroke-miterlimit:10;stroke-width:2px}.cls-6{fill:#31333e;stroke:#595e72}.cls-2{stroke:#e1a25b}.cls-3{stroke:#62b0ef}.cls-7{font-family:sans-serif;font-size:13px;isolation:isolate}.cls-7,.cls-8{fill:#fff}</style></defs><path id="fender_front_right" class="cls-1 car-part selectable" d="m427.89 151.7 4.3-2.61c2.81-6.61 6.31-17.77 8.28-24.59 1.53-5.26 5.3-13.42 9.22-18.78 2.09-2.88 4.23-4.95 6.09-5.34 3.74 2.98 1.15 19.75.47 21.68h-.02c-.12 1.65-.3 3.41-.57 5.26h.1c4.05-9.14 6.12-23.64 4.78-28.75-1.34-5.1-5.49-13.47-7.64-18.72 0 0 .16-.01.43-.02h-.48c-2.95.26-9.18.39-11.79.39 0 0-.63.7-1.52 1.65h0c1.11 2.63-2.72 40.72-9.54 58.06-.7 1.78-1.49 7.77-2.11 11.78h0Z"/><path id="mirror_right" class="cls-1 car-part selectable" d="M432.32 79.74c.51 1.49 2.25 6.72 2.25 6.72 1.25-.75 3.47-3 4.97-4.59h0c.89-.96 1.52-1.66 1.52-1.66 2.61 0 8.84-.13 11.79-.4h.48c1.49-.08 6.35-.5 7.77-2.05 2.37-2.61 1.79-7.15.86-9.81-.39-1.15-1.32-2-2.47-2.3-5.34-1.36-16.48-2.93-21.82-2.56l-.08-.02c-.49.23-.94.8-1.32 1.6h0c-1.56 3.22-2.23 10.01-1.88 11.87l-.78 1.2-1.29 2Z"/><path id="pillar" class="cls-1 car-part selectable" d="M401.14 29.63c4.02 2.31 7.62 5.16 11.62 8.63 9.89 8.55 19.5 19.87 23.51 26.41.38-.8.83-1.37 1.32-1.6l.08.02s-.02-.03-.04-.05c-4.17-5.51-15.05-20.94-30.8-33.41h-5.69Z"/><g id="door_front_right" class="car-part selectable"><path class="cls-1" d="M405.24 100.57c-.02-7.54-4.82-15.86-7.99-19.72 13.36-1.39 25.72-2.47 36.36-3.11l-1.29 2c.51 1.49 2.25 6.72 2.25 6.72 1.25-.75 3.47-3 4.97-4.59 1.11 2.62-2.72 40.71-9.54 58.05-.7 1.78-1.49 7.77-2.11 11.78l-34.3 21.09c2.52-16.13 11.68-64.3 11.65-72.22Zm2.4-5.64c1.95-.22 7.78-2.3 8.59-2.62 1.32-.48.98-2.71-.29-2.78-1.05-.07-6.03.07-8.86.64-2.32.46-1.4 4.98.56 4.76Z"/><path id="handle_front_left" class="cls-1 car-part" d="M407.64 94.93c1.95-.22 7.78-2.3 8.59-2.62 1.32-.48.98-2.71-.29-2.78-1.05-.07-6.03.07-8.86.64-2.32.46-1.4 4.98.56 4.76Z"/></g><path id="window_front_right" class="cls-1 car-part selectable" d="M381.01 23.09c2.1 5.69 13.47 45.58 16.23 57.75h.01c13.36-1.38 25.72-2.46 36.36-3.1l.78-1.2c-.35-1.86.32-8.65 1.88-11.86h0c-4.01-6.55-13.62-17.87-23.51-26.42-4-3.47-7.6-6.32-11.62-8.63-5.33-3.07-11.4-5.18-20.13-6.54Z"/><g id="door_back_right" class="car-part selectable"><path class="cls-1" d="M315.25 90.95c27.75-3.78 56.68-7.48 82-10.1 3.17 3.86 7.97 12.18 7.99 19.72.03 7.92-9.13 56.09-11.65 72.22l-46.63 27.51-9.92 5.86c.06-.62.12-1.24.16-1.86.06-.69.12-1.37.16-2.04.09-1.16.15-2.31.2-3.44.04-.6.06-1.19.08-1.78.02-.61.04-1.22.05-1.82.02-.57.03-1.12.03-1.68.05-3.66-.05-7.17-.29-10.51-.09-1.3-.2-2.57-.33-3.81-.16-1.52-.35-3-.58-4.44a7.22 7.22 0 0 0-.07-.49c-.22-1.39-.47-2.74-.75-4.05a65.64 65.64 0 0 0-1.09-4.49c-3.54-12.57-13.23-43.16-12.5-50.41.74-7.25-.9-17.21-6.86-24.39h0Zm76.74 5.78c3.34-.31 6.59-.61 9.42-1.44 1.91-.56 1.25-4.49-1-4.34-2.64.17-7.84.78-10.18 2.15-2.37 1.36-1.39 3.93 1.76 3.63Z"/><path id="handle_back_left" class="cls-1 car-part" d="M391.99 96.73c3.34-.31 6.59-.61 9.42-1.44 1.91-.56 1.25-4.49-1-4.34-2.64.17-7.84.78-10.18 2.15-2.37 1.36-1.39 3.93 1.76 3.63Z"/></g><path id="window_back_right" class="cls-1 car-part selectable" d="M306.33 20.9c2.73 6.89 9.12 48.19 8.92 70.05 27.75-3.78 56.68-7.48 82-10.1h-.01c-2.76-12.18-14.13-52.07-16.23-57.76H381c-.64-.09-1.28-.19-1.95-.28-22.76-3.12-48.86-3.03-72.72-1.91Z"/><path id="quarter_window_back_right" class="cls-1 car-part selectable" d="M204.63 99c4.2 5.2 9.57 6.18 14.73 5.47 21.16-2.88 57.39-8.28 95.89-13.52.2-21.86-6.19-63.16-8.92-70.05-10.72.49-20.98 1.2-30.29 1.91-13.15 1.02-19.02 3.44-24.46 7.08-1.43.96-2.84 2-4.34 3.12-7.21 5.4-38.63 38.02-44.41 45.8-5.79 7.79-2.4 14.99 1.8 20.19Z"/><path id="rocker_panel_right" class="cls-1 car-part selectable" d="m329.71 226.76 4.93-3.47 58.5-41.26 30.53-21.53 3.06-2.15 3.27-2.31s1.67-5.74 2.19-6.96l-4.3 2.62-34.3 21.09-46.63 27.51-9.92 5.86-4.79 2.83h0c-.74 7.34-1.92 14-2.53 17.77Z"/><path class="cls-1 background" d="M449.69 105.71c3.6.88 5.08 2.57 6.14 5.92.54 1.71.77 5.54.4 10.42h.02c.68-1.93 3.27-18.7-.47-21.68-1.86.39-4 2.46-6.09 5.34ZM291.57 175.03c10.13 2.39 24.34 7.54 28.37 13.87 2.91 4.55 6.69 18.58 3.93 36.25h0l5.83 1.61c.61-3.77 1.79-10.43 2.53-17.77.9-8.79 1.17-18.56-.92-25.49-3.83-12.69-12.26-21.07-27.71-15.65-4.19 1.47-8.22 3.99-12.04 7.18h0Z"/><g id="wheel_front_right" class="car-part selectable"><path class="cls-1" d="m426.73 158.35 3.27-2.31s1.67-5.74 2.19-6.96c2.81-6.61 6.31-17.77 8.28-24.59 1.53-5.26 5.3-13.42 9.22-18.78 3.6.88 5.08 2.57 6.14 5.92.54 1.71.77 5.54.4 10.42-.12 1.65-.3 3.41-.57 5.26-.5 3.49-1.27 7.26-2.39 11.03-3.47 11.62-9.84 25.19-16.65 24.68-7.28-.56-12.8-2.3-12.8-2.3l-.15-.22 3.06-2.15Zm14.74-4.72c1.91.57 5.55-6.04 8.12-14.76s3.1-16.24 1.18-16.81c-1.91-.56-5.55 6.05-8.12 14.76-2.57 8.72-3.1 16.25-1.18 16.81Z"/><path class="cls-1" d="M441.47 153.63c1.91.57 5.55-6.04 8.12-14.76s3.1-16.24 1.18-16.81c-1.91-.56-5.55 6.05-8.12 14.76-2.57 8.72-3.1 16.25-1.18 16.81Z"/></g><g id="wheel_back_right" class="car-part selectable"><path class="cls-1" d="M257.17 225.15c2.73-6.71 5.67-12.64 8.6-17.36 6.69-10.77 15.52-24.18 25.8-32.76 10.13 2.39 24.34 7.54 28.37 13.87 2.91 4.55 6.69 18.58 3.93 36.25-1.05 6.82-3.09 14.18-6.52 21.75-12.5 27.57-31.93 46.1-46.68 40.43-12.06-4.63-25.36-14.9-26.18-15.54 2.37-16.36 7.13-33.09 12.68-46.64h0Zm23.1 48.21c7.66 3.2 20.35-9.7 28.34-28.82 7.99-19.12 8.26-37.21.6-40.41-7.67-3.2-20.35 9.7-28.34 28.82-7.99 19.12-8.26 37.21-.6 40.41Z"/><path class="cls-1" d="M280.27 273.36c7.66 3.2 20.35-9.7 28.34-28.82 7.99-19.12 8.26-37.21.6-40.41-7.67-3.2-20.35 9.7-28.34 28.82-7.99 19.12-8.26 37.21-.6 40.41Z"/></g><path id="fender_back_right" class="cls-1 car-part selectable" d="M115.13 256.62s4.18 1.52 14.58 5.13c21.97 7.66 49.8 30.56 65.06 32.86v.02c14.97-5.58 37.83-14.61 49.34-20.04.12-.93.25-1.86.38-2.8 2.37-16.36 7.13-33.09 12.68-46.64 2.73-6.71 5.67-12.64 8.6-17.36 6.69-10.77 15.52-24.18 25.8-32.76 3.82-3.19 7.85-5.71 12.04-7.18 15.45-5.42 23.88 2.96 27.71 15.65 2.09 6.93 1.82 16.7.92 25.49h0l4.79-2.83c.06-.62.11-1.24.16-1.86.06-.69.12-1.37.16-2.04.08-1.16.15-2.3.2-3.44.03-.59.05-1.19.08-1.78.02-.61.04-1.22.05-1.82 0-.57.02-1.13.03-1.68.05-3.66-.05-7.17-.29-10.51-.09-1.3-.2-2.57-.33-3.81-.16-1.52-.35-3-.58-4.44a7.22 7.22 0 0 0-.07-.49c-.22-1.39-.47-2.74-.75-4.05a65.64 65.64 0 0 0-1.09-4.49c-3.54-12.57-13.23-43.16-12.5-50.41.74-7.25-.9-17.21-6.86-24.39-38.5 5.24-74.73 10.64-95.89 13.52-5.16.71-10.53-.27-14.73-5.47s-7.59-12.4-1.8-20.19c5.78-7.78 37.2-40.4 44.41-45.8 1.5-1.12 2.91-2.16 4.34-3.12l-67.48 5.61v.03c-9.15 22.97-23.31 53.93-43.26 64.08l-3.45 21.59c.93 2.09 2.29 9.69 1.72 14.38h0c21.23-1.89 46.03-6.55 54.66-6.4 8.91.15 15.58 1.66 19.73 3.83 7.25 3.84 8.35 10.4 0 12.19-8.35 1.78-36.58 7.22-51 10.52 0 0-4.1 16.06-10.33 21.24-10.09.1-20.18-.08-28.84-.65h0c-1.12 1.45-2.29 4.99-2.29 4.99 2.1 4.18 3.78 13.99 4.08 18 1.34 17.99-9.91 50.85-9.99 57.32h0Z"/><path id="roof" class="cls-1 car-part selectable" d="M40.45 22c-1.08-.75-.54-3.1 2.32-3.73 12.77-2.87 25.91-3.43 38.9-4.65 11.99-1.13 23.95-2.18 35.98-2.88 9.1-.53 18.54-.97 27.35-1.3 11.19-.42 22.37-.87 33.56-1.11 28.95-.62 57.92-.58 86.87-.28 27.54.28 55.25.09 82.69 2.82 14.11 1.32 35.57 4.78 42.79 8.45 5.73 2.9 11.05 6.46 15.91 10.31h-5.68c-5.33-3.07-11.4-5.18-20.14-6.54-.64-.09-1.28-.19-1.95-.28-22.76-3.12-48.86-3.03-72.72-1.91-10.72.49-20.98 1.2-30.29 1.91-13.15 1.02-19.02 3.44-24.46 7.08L184.1 35.5v.03c-9.72-3.05-20.07-6.18-38.06-7.62-34.2-2.71-79.57-1.56-90.82-.81-1.86 1.22-7.23 8.59-9.98 12.6 2.87-4.95 3.59-12.96 2.14-14.84-3.2-.81-5.17-1.61-6.93-2.86Z"/><path id="windshield_back" class="cls-1 car-part selectable" d="m22.2 75.57.02-.02c.03-.04.06-.07.09-.11 6.49-11.84 19.6-30.42 22.68-35.32.07-.12.15-.24.21-.36.01-.02.03-.04.04-.06 2.75-4.01 8.12-11.38 9.98-12.6 11.25-.75 56.62-1.9 90.82.81 17.99 1.44 28.34 4.57 38.06 7.62-9.15 22.97-23.31 53.93-43.26 64.08-28.34 6.91-77.47 6.03-102.25 0-24.7-6.01-22.45-13.86-16.39-24.04Z"/><path id="tail_light_right" class="cls-1 car-part selectable" d="M61.13 149.69c.55.36 1.09.63 1.61.78 13.16 3.66 32.93 21.21 42.67 23.56 4.43 1.07 10.68 1.81 17.92 2.28 8.66.57 18.75.75 28.84.65 6.23-5.18 10.33-21.24 10.33-21.24 14.42-3.3 42.65-8.74 51-10.52 8.35-1.79 7.25-8.35 0-12.19-4.15-2.17-10.82-3.68-19.73-3.83-8.63-.15-33.43 4.51-54.66 6.41-.63.06-1.26.11-1.88.16-21.63 1.78-54.37 1.34-83.67.78-.77 2.64 3.59 10.48 7.57 13.16h0Z"/><path id="license_plate_back" class="cls-1 car-part selectable" d="m23.65 156.27 1.72 19.08 36.39 28.34-1.64-27.38-36.47-20.04z"/><path id="trunk" class="cls-1 car-part selectable" d="M2.31 100.37c-.65 3.08-.8 6.86-.56 10.04.25 3.05 1.74 4.71 3.47 6.95 1.15 1.49 1.15 1.5-.01.02 7.22 12.96 35.71 25.74 55.92 32.31-3.98-2.68-8.34-10.52-7.57-13.16 29.3.56 62.04 1 83.67-.78.62-.05 1.25-.1 1.88-.16h0c.57-4.7-.79-12.3-1.72-14.39l3.45-21.59c-28.34 6.91-77.47 6.03-102.25 0-24.7-6.01-22.45-13.86-16.39-24.04C17.08 81.48 2.13 90.31.97 92.93c-1.17 2.63.05 5.73 1.34 7.44h0Zm2.91 26.34c.49 3.2 4.3 23.34 8.72 35.5-2.93 7.99-.74 12.89-1.23 17.43-.03.32-.06.67-.08 1.04 5.05 14.13 16.84 28.93 30.16 39.91C56.15 231.6 77.14 245 105.17 255.3c7.11 2.62 8.81 2.37 9.96 1.32.08-6.47 11.33-39.33 9.99-57.32-.3-4.01-1.98-13.82-4.08-18 0 0 1.17-3.54 2.29-4.98h0c-7.24-.48-13.49-1.22-17.92-2.29-9.74-2.35-29.51-19.9-42.67-23.56-.52-.15-1.06-.42-1.61-.78-20.21-6.57-48.7-19.35-55.92-32.31-1.28 3.56-.48 6.15.01 9.33h0Zm18.43 29.56 36.47 20.04 1.63 27.38-36.39-28.33-1.71-19.08h0ZM5.2 117.36s.01 0 .01.02"/><path id="bumper_back" class="cls-1 car-part selectable" d="M15.96 200.59c-1.88 7.91 3.62 26.66 21.51 44.9 17.9 18.24 37.5 31.3 45.02 35.91 7.52 4.59 6.54 6.54 10.42 8.47 3.86 1.93 23.74 11.14 31.38 12.23 7.64 1.08 32.22-.36 48.34-4.37 0 0 2.05 3.52 8.83 1.59 2.02-.57 6.96-2.32 13.32-4.69v-.02c-15.27-2.3-43.1-25.2-65.07-32.86-10.4-3.61-14.58-5.13-14.58-5.13-1.15 1.05-2.85 1.3-9.96-1.32-28.03-10.3-49.02-23.7-62.38-34.71-13.32-10.98-25.11-25.78-30.16-39.91-.25 4.87.76 13.67 3.33 19.91Z"/><g id="damage-pill_tail_light_right"><circle class="cls-6 damage-pill-background" cx="134.91" cy="155.27" r="19.13"/><circle class="cls-3 severity-low" cx="134.91" cy="155.27" r="9.1"/><circle class="cls-5 severity-high" cx="134.91" cy="155.27" r="9.1"/><circle class="cls-8 severity-none" cx="134.91" cy="155.27" r="9.1"/><g class="severity-medium"><circle class="cls-2 severity-medium severity-medium" cx="134.91" cy="155.27" r="9.1"/><path class="cls-4 severity-medium" d="M134.91 146.17v18.1c-5 0-9.1-4.1-9.1-9.1s4.1-9 9.1-9Z"/></g></g><g id="damage-pill-pricing_tail_light_right"><path class="cls-6 damage-pill-background" d="M189.89 174.4h-54.98c-10.56 0-19.13-8.58-19.13-19.13 0-10.56 8.58-19.13 19.13-19.13h54.98c10.56 0 19.13 8.58 19.13 19.13 0 10.56-8.58 19.13-19.13 19.13Z"/><text class="cls-7 damage-pill-text" transform="translate(156.99 159.55)">9999€</text><circle class="cls-3 severity-low" cx="134.91" cy="155.27" r="9.1"/><circle class="cls-5 severity-high" cx="134.91" cy="155.27" r="9.1"/><circle class="cls-8 severity-none" cx="134.91" cy="155.27" r="9.1"/><g class="severity-medium"><circle class="cls-2 severity-medium severity-medium" cx="134.91" cy="155.27" r="9.1"/><path class="cls-4 severity-medium" d="M134.91 146.17v18.1c-5 0-9.1-4.1-9.1-9.1s4.1-9 9.1-9Z"/></g></g><g id="damage-pill_bumper_back"><circle class="cls-6 damage-pill-background" cx="89.24" cy="265.68" r="19.13"/><circle class="cls-3 severity-low" cx="89.24" cy="265.68" r="9.1"/><circle class="cls-5 severity-high" cx="89.24" cy="265.68" r="9.1"/><circle class="cls-8 severity-none" cx="89.24" cy="265.68" r="9.1"/><g class="severity-medium"><circle class="cls-2 severity-medium severity-medium" cx="89.24" cy="265.68" r="9.1"/><path class="cls-4 severity-medium" d="M89.24 256.58v18.1c-5 0-9.1-4.1-9.1-9.1s4.1-9 9.1-9Z"/></g></g><g id="damage-pill-pricing_bumper_back"><path class="cls-6 damage-pill-background" d="M144.23 284.82H89.25c-10.56 0-19.13-8.58-19.13-19.13 0-10.56 8.58-19.13 19.13-19.13h54.98c10.56 0 19.13 8.58 19.13 19.13 0 10.56-8.58 19.13-19.13 19.13Z"/><text class="cls-7 damage-pill-text" transform="translate(111.33 269.97)">9999€</text><circle class="cls-3 severity-low" cx="89.24" cy="265.68" r="9.1"/><circle class="cls-5 severity-high" cx="89.24" cy="265.68" r="9.1"/><circle class="cls-8 severity-none" cx="89.24" cy="265.68" r="9.1"/><g class="severity-medium"><circle class="cls-2 severity-medium severity-medium" cx="89.24" cy="265.68" r="9.1"/><path class="cls-4 severity-medium" d="M89.24 256.58v18.1c-5 0-9.1-4.1-9.1-9.1s4.1-9 9.1-9Z"/></g></g><g id="damage-pill_license_plate_back"><circle class="cls-6 damage-pill-background" cx="40.66" cy="175.68" r="19.13"/><circle class="cls-3 severity-low" cx="40.66" cy="175.68" r="9.1"/><circle class="cls-5 severity-high" cx="40.66" cy="175.68" r="9.1"/><circle class="cls-8 severity-none" cx="40.66" cy="175.68" r="9.1"/><g class="severity-medium"><circle class="cls-2 severity-medium severity-medium" cx="40.66" cy="175.68" r="9.1"/><path class="cls-4 severity-medium" d="M40.66 166.58v18.1c-5 0-9.1-4.1-9.1-9.1s4.1-9 9.1-9Z"/></g></g><g id="damage-pill-pricing_license_plate_back"><path class="cls-6 damage-pill-background" d="M95.64 194.81H40.66c-10.56 0-19.13-8.58-19.13-19.13 0-10.56 8.58-19.13 19.13-19.13h54.98c10.56 0 19.13 8.58 19.13 19.13 0 10.56-8.58 19.13-19.13 19.13Z"/><text class="cls-7 damage-pill-text" transform="translate(62.74 179.96)">9999€</text><circle class="cls-3 severity-low" cx="40.66" cy="175.68" r="9.1"/><circle class="cls-5 severity-high" cx="40.66" cy="175.68" r="9.1"/><circle class="cls-8 severity-none" cx="40.66" cy="175.68" r="9.1"/><g class="severity-medium"><circle class="cls-2 severity-medium severity-medium" cx="40.66" cy="175.68" r="9.1"/><path class="cls-4 severity-medium" d="M40.66 166.58v18.1c-5 0-9.1-4.1-9.1-9.1s4.1-9 9.1-9Z"/></g></g><g id="damage-pill_trunk"><circle class="cls-6 damage-pill-background" cx="30.99" cy="127.17" r="19.13"/><circle class="cls-3 severity-low" cx="30.99" cy="127.17" r="9.1"/><circle class="cls-5 severity-high" cx="30.99" cy="127.17" r="9.1"/><circle class="cls-8 severity-none" cx="30.99" cy="127.17" r="9.1"/><g class="severity-medium"><circle class="cls-2 severity-medium severity-medium" cx="30.99" cy="127.17" r="9.1"/><path class="cls-4 severity-medium" d="M30.99 118.07v18.1c-5 0-9.1-4.1-9.1-9.1s4.1-9 9.1-9Z"/></g></g><g id="damage-pill-pricing_trunk"><path class="cls-6 damage-pill-background" d="M85.97 146.31H30.99c-10.56 0-19.13-8.58-19.13-19.13 0-10.56 8.58-19.13 19.13-19.13h54.98c10.56 0 19.13 8.58 19.13 19.13 0 10.56-8.58 19.13-19.13 19.13Z"/><text class="cls-7 damage-pill-text" transform="translate(53.08 131.46)">9999€</text><circle class="cls-3 severity-low" cx="30.99" cy="127.17" r="9.1"/><circle class="cls-5 severity-high" cx="30.99" cy="127.17" r="9.1"/><circle class="cls-8 severity-none" cx="30.99" cy="127.17" r="9.1"/><g class="severity-medium"><circle class="cls-2 severity-medium severity-medium" cx="30.99" cy="127.17" r="9.1"/><path class="cls-4 severity-medium" d="M30.99 118.07v18.1c-5 0-9.1-4.1-9.1-9.1s4.1-9 9.1-9Z"/></g></g><g id="damage-pill_wheel_front_right"><circle class="cls-6 damage-pill-background" cx="447.7" cy="134.37" r="19.13"/><circle class="cls-3 severity-low" cx="447.7" cy="134.37" r="9.1"/><circle class="cls-5 severity-high" cx="447.7" cy="134.37" r="9.1"/><circle class="cls-8 severity-none" cx="447.7" cy="134.37" r="9.1"/><g class="severity-medium"><circle class="cls-2 severity-medium severity-medium" cx="447.7" cy="134.37" r="9.1"/><path class="cls-4 severity-medium" d="M447.7 125.27v18.1c-5 0-9.1-4.1-9.1-9.1s4.1-9 9.1-9Z"/></g></g><g id="damage-pill-pricing_wheel_front_right"><path class="cls-6 damage-pill-background" d="M502.68 153.5H447.7c-10.56 0-19.13-8.58-19.13-19.13 0-10.56 8.58-19.13 19.13-19.13h54.98c10.56 0 19.13 8.58 19.13 19.13 0 10.56-8.58 19.13-19.13 19.13Z"/><text class="cls-7 damage-pill-text" transform="translate(469.78 138.65)">9999€</text><circle class="cls-3 severity-low" cx="447.7" cy="134.37" r="9.1"/><circle class="cls-5 severity-high" cx="447.7" cy="134.37" r="9.1"/><circle class="cls-8 severity-none" cx="447.7" cy="134.37" r="9.1"/><g class="severity-medium"><circle class="cls-2 severity-medium severity-medium" cx="447.7" cy="134.37" r="9.1"/><path class="cls-4 severity-medium" d="M447.7 125.27v18.1c-5 0-9.1-4.1-9.1-9.1s4.1-9 9.1-9Z"/></g></g><g id="damage-pill_fender_front_right"><circle class="cls-6 damage-pill-background" cx="449.78" cy="93.94" r="19.13"/><circle class="cls-3 severity-low" cx="449.78" cy="93.94" r="9.1"/><circle class="cls-5 severity-high" cx="449.78" cy="93.94" r="9.1"/><circle class="cls-8 severity-none" cx="449.78" cy="93.94" r="9.1"/><g class="severity-medium"><circle class="cls-2 severity-medium severity-medium" cx="449.78" cy="93.94" r="9.1"/><path class="cls-4 severity-medium" d="M449.78 84.84v18.1c-5 0-9.1-4.1-9.1-9.1s4.1-9 9.1-9Z"/></g></g><g id="damage-pill-pricing_fender_front_right"><path class="cls-6 damage-pill-background" d="M504.77 113.07h-54.98c-10.56 0-19.13-8.58-19.13-19.13 0-10.56 8.58-19.13 19.13-19.13h54.98c10.56 0 19.13 8.58 19.13 19.13 0 10.56-8.58 19.13-19.13 19.13Z"/><text class="cls-7 damage-pill-text" transform="translate(471.87 98.23)">9999€</text><circle class="cls-3 severity-low" cx="449.78" cy="93.94" r="9.1"/><circle class="cls-5 severity-high" cx="449.78" cy="93.94" r="9.1"/><circle class="cls-8 severity-none" cx="449.78" cy="93.94" r="9.1"/><g class="severity-medium"><circle class="cls-2 severity-medium severity-medium" cx="449.78" cy="93.94" r="9.1"/><path class="cls-4 severity-medium" d="M449.78 84.84v18.1c-5 0-9.1-4.1-9.1-9.1s4.1-9 9.1-9Z"/></g></g><g id="damage-pill_pillar"><circle class="cls-6 damage-pill-background" cx="424.62" cy="46.53" r="19.13"/><circle class="cls-3 severity-low" cx="424.62" cy="46.53" r="9.1"/><circle class="cls-5 severity-high" cx="424.62" cy="46.53" r="9.1"/><circle class="cls-8 severity-none" cx="424.62" cy="46.53" r="9.1"/><g class="severity-medium"><circle class="cls-2 severity-medium severity-medium" cx="424.62" cy="46.53" r="9.1"/><path class="cls-4 severity-medium" d="M424.62 37.43v18.1c-5 0-9.1-4.1-9.1-9.1s4.1-9 9.1-9Z"/></g></g><g id="damage-pill-pricing_pillar"><path class="cls-6 damage-pill-background" d="M479.6 65.67h-54.98c-10.56 0-19.13-8.58-19.13-19.13 0-10.56 8.58-19.13 19.13-19.13h54.98c10.56 0 19.13 8.58 19.13 19.13 0 10.56-8.58 19.13-19.13 19.13Z"/><text class="cls-7 damage-pill-text" transform="translate(446.7 50.82)">9999€</text><circle class="cls-3 severity-low" cx="424.62" cy="46.53" r="9.1"/><circle class="cls-5 severity-high" cx="424.62" cy="46.53" r="9.1"/><circle class="cls-8 severity-none" cx="424.62" cy="46.53" r="9.1"/><g class="severity-medium"><circle class="cls-2 severity-medium severity-medium" cx="424.62" cy="46.53" r="9.1"/><path class="cls-4 severity-medium" d="M424.62 37.43v18.1c-5 0-9.1-4.1-9.1-9.1s4.1-9 9.1-9Z"/></g></g><g id="damage-pill_window_front_right"><circle class="cls-6 damage-pill-background" cx="410.03" cy="55.92" r="19.13"/><circle class="cls-3 severity-low" cx="410.03" cy="55.92" r="9.1"/><circle class="cls-5 severity-high" cx="410.03" cy="55.92" r="9.1"/><circle class="cls-8 severity-none" cx="410.03" cy="55.92" r="9.1"/><g class="severity-medium"><circle class="cls-2 severity-medium severity-medium" cx="410.03" cy="55.92" r="9.1"/><path class="cls-4 severity-medium" d="M410.03 46.82v18.1c-5 0-9.1-4.1-9.1-9.1s4.1-9 9.1-9Z"/></g></g><g id="damage-pill-pricing_window_front_right"><path class="cls-6 damage-pill-background" d="M465.01 75.05h-54.98c-10.56 0-19.13-8.58-19.13-19.13 0-10.56 8.58-19.13 19.13-19.13h54.98c10.56 0 19.13 8.58 19.13 19.13 0 10.56-8.58 19.13-19.13 19.13Z"/><text class="cls-7 damage-pill-text" transform="translate(432.12 60.2)">9999€</text><circle class="cls-3 severity-low" cx="410.03" cy="55.92" r="9.1"/><circle class="cls-5 severity-high" cx="410.03" cy="55.92" r="9.1"/><circle class="cls-8 severity-none" cx="410.03" cy="55.92" r="9.1"/><g class="severity-medium"><circle class="cls-2 severity-medium severity-medium" cx="410.03" cy="55.92" r="9.1"/><path class="cls-4 severity-medium" d="M410.03 46.82v18.1c-5 0-9.1-4.1-9.1-9.1s4.1-9 9.1-9Z"/></g></g><g id="damage-pill_window_back_right"><circle class="cls-6 damage-pill-background" cx="353.28" cy="52.52" r="19.13"/><circle class="cls-3 severity-low" cx="353.28" cy="52.52" r="9.1"/><circle class="cls-5 severity-high" cx="353.28" cy="52.52" r="9.1"/><circle class="cls-8 severity-none" cx="353.28" cy="52.52" r="9.1"/><g class="severity-medium"><circle class="cls-2 severity-medium severity-medium" cx="353.28" cy="52.52" r="9.1"/><path class="cls-4 severity-medium" d="M353.28 43.42v18.1c-5 0-9.1-4.1-9.1-9.1s4.1-9 9.1-9Z"/></g></g><g id="damage-pill-pricing_window_back_right"><path class="cls-6 damage-pill-background" d="M408.27 71.65h-54.98c-10.56 0-19.13-8.58-19.13-19.13 0-10.56 8.58-19.13 19.13-19.13h54.98c10.56 0 19.13 8.58 19.13 19.13 0 10.56-8.58 19.13-19.13 19.13Z"/><text class="cls-7 damage-pill-text" transform="translate(375.37 56.8)">9999€</text><circle class="cls-3 severity-low" cx="353.28" cy="52.52" r="9.1"/><circle class="cls-5 severity-high" cx="353.28" cy="52.52" r="9.1"/><circle class="cls-8 severity-none" cx="353.28" cy="52.52" r="9.1"/><g class="severity-medium"><circle class="cls-2 severity-medium severity-medium" cx="353.28" cy="52.52" r="9.1"/><path class="cls-4 severity-medium" d="M353.28 43.42v18.1c-5 0-9.1-4.1-9.1-9.1s4.1-9 9.1-9Z"/></g></g><g id="damage-pill_mirror_right"><circle class="cls-6 damage-pill-background" cx="448.78" cy="72.4" r="19.13"/><circle class="cls-3 severity-low" cx="448.78" cy="72.4" r="9.1"/><circle class="cls-5 severity-high" cx="448.78" cy="72.4" r="9.1"/><circle class="cls-8 severity-none" cx="448.78" cy="72.4" r="9.1"/><g class="severity-medium"><circle class="cls-2 severity-medium severity-medium" cx="448.78" cy="72.4" r="9.1"/><path class="cls-4 severity-medium" d="M448.78 63.3v18.1c-5 0-9.1-4.1-9.1-9.1s4.1-9 9.1-9Z"/></g></g><g id="damage-pill-pricing_mirror_right"><path class="cls-6 damage-pill-background" d="M503.77 91.53h-54.98c-10.56 0-19.13-8.58-19.13-19.13 0-10.56 8.58-19.13 19.13-19.13h54.98c10.56 0 19.13 8.58 19.13 19.13 0 10.56-8.58 19.13-19.13 19.13Z"/><text class="cls-7 damage-pill-text" transform="translate(470.87 76.68)">9999€</text><circle class="cls-3 severity-low" cx="448.78" cy="72.4" r="9.1"/><circle class="cls-5 severity-high" cx="448.78" cy="72.4" r="9.1"/><circle class="cls-8 severity-none" cx="448.78" cy="72.4" r="9.1"/><g class="severity-medium"><circle class="cls-2 severity-medium severity-medium" cx="448.78" cy="72.4" r="9.1"/><path class="cls-4 severity-medium" d="M448.78 63.3v18.1c-5 0-9.1-4.1-9.1-9.1s4.1-9 9.1-9Z"/></g></g><g id="damage-pill_door_front_right"><circle class="cls-6 damage-pill-background" cx="418.74" cy="117.75" r="19.13"/><circle class="cls-3 severity-low" cx="418.74" cy="117.75" r="9.1"/><circle class="cls-5 severity-high" cx="418.74" cy="117.75" r="9.1"/><circle class="cls-8 severity-none" cx="418.74" cy="117.75" r="9.1"/><g class="severity-medium"><circle class="cls-2 severity-medium severity-medium" cx="418.74" cy="117.75" r="9.1"/><path class="cls-4 severity-medium" d="M418.74 108.65v18.1c-5 0-9.1-4.1-9.1-9.1s4.1-9 9.1-9Z"/></g></g><g id="damage-pill-pricing_door_front_right"><path class="cls-6 damage-pill-background" d="M473.73 136.89h-54.98c-10.56 0-19.13-8.58-19.13-19.13 0-10.56 8.58-19.13 19.13-19.13h54.98c10.56 0 19.13 8.58 19.13 19.13 0 10.56-8.58 19.13-19.13 19.13Z"/><text class="cls-7 damage-pill-text" transform="translate(440.83 122.04)">9999€</text><circle class="cls-3 severity-low" cx="418.74" cy="117.75" r="9.1"/><circle class="cls-5 severity-high" cx="418.74" cy="117.75" r="9.1"/><circle class="cls-8 severity-none" cx="418.74" cy="117.75" r="9.1"/><g class="severity-medium"><circle class="cls-2 severity-medium severity-medium" cx="418.74" cy="117.75" r="9.1"/><path class="cls-4 severity-medium" d="M418.74 108.65v18.1c-5 0-9.1-4.1-9.1-9.1s4.1-9 9.1-9Z"/></g></g><g id="damage-pill_door_back_right"><circle class="cls-6 damage-pill-background" cx="366.86" cy="121.8" r="19.13"/><circle class="cls-3 severity-low" cx="366.86" cy="121.8" r="9.1"/><circle class="cls-5 severity-high" cx="366.86" cy="121.8" r="9.1"/><circle class="cls-8 severity-none" cx="366.86" cy="121.8" r="9.1"/><g class="severity-medium"><circle class="cls-2 severity-medium severity-medium" cx="366.86" cy="121.8" r="9.1"/><path class="cls-4 severity-medium" d="M366.86 112.7v18.1c-5 0-9.1-4.1-9.1-9.1s4.1-9 9.1-9Z"/></g></g><g id="damage-pill-pricing_door_back_right"><path class="cls-6 damage-pill-background" d="M421.84 140.94h-54.98c-10.56 0-19.13-8.58-19.13-19.13 0-10.56 8.58-19.13 19.13-19.13h54.98c10.56 0 19.13 8.58 19.13 19.13 0 10.56-8.58 19.13-19.13 19.13Z"/><text class="cls-7 damage-pill-text" transform="translate(388.94 126.09)">9999€</text><circle class="cls-3 severity-low" cx="366.86" cy="121.8" r="9.1"/><circle class="cls-5 severity-high" cx="366.86" cy="121.8" r="9.1"/><circle class="cls-8 severity-none" cx="366.86" cy="121.8" r="9.1"/><g class="severity-medium"><circle class="cls-2 severity-medium severity-medium" cx="366.86" cy="121.8" r="9.1"/><path class="cls-4 severity-medium" d="M366.86 112.7v18.1c-5 0-9.1-4.1-9.1-9.1s4.1-9 9.1-9Z"/></g></g><g id="damage-pill_rocker_panel_right"><circle class="cls-6 damage-pill-background" cx="393.57" cy="176.4" r="19.13"/><circle class="cls-3 severity-low" cx="393.57" cy="176.4" r="9.1"/><circle class="cls-5 severity-high" cx="393.57" cy="176.4" r="9.1"/><circle class="cls-8 severity-none" cx="393.57" cy="176.4" r="9.1"/><g class="severity-medium"><circle class="cls-2 severity-medium severity-medium" cx="393.57" cy="176.4" r="9.1"/><path class="cls-4 severity-medium" d="M393.57 167.3v18.1c-5 0-9.1-4.1-9.1-9.1s4.1-9 9.1-9Z"/></g></g><g id="damage-pill-pricing_rocker_panel_right"><path class="cls-6 damage-pill-background" d="M448.56 195.53h-54.98c-10.56 0-19.13-8.58-19.13-19.13 0-10.56 8.58-19.13 19.13-19.13h54.98c10.56 0 19.13 8.58 19.13 19.13 0 10.56-8.58 19.13-19.13 19.13Z"/><text class="cls-7 damage-pill-text" transform="translate(415.66 180.68)">9999€</text><circle class="cls-3 severity-low" cx="393.57" cy="176.4" r="9.1"/><circle class="cls-5 severity-high" cx="393.57" cy="176.4" r="9.1"/><circle class="cls-8 severity-none" cx="393.57" cy="176.4" r="9.1"/><g class="severity-medium"><circle class="cls-2 severity-medium severity-medium" cx="393.57" cy="176.4" r="9.1"/><path class="cls-4 severity-medium" d="M393.57 167.3v18.1c-5 0-9.1-4.1-9.1-9.1s4.1-9 9.1-9Z"/></g></g><g id="damage-pill_windshield_back"><circle class="cls-6 damage-pill-background" cx="88.37" cy="64.67" r="19.13"/><circle class="cls-3 severity-low" cx="88.37" cy="64.67" r="9.1"/><circle class="cls-5 severity-high" cx="88.37" cy="64.67" r="9.1"/><circle class="cls-8 severity-none" cx="88.37" cy="64.67" r="9.1"/><g class="severity-medium"><circle class="cls-2 severity-medium severity-medium" cx="88.37" cy="64.67" r="9.1"/><path class="cls-4 severity-medium" d="M88.37 55.57v18.1c-5 0-9.1-4.1-9.1-9.1s4.1-9 9.1-9Z"/></g></g><g id="damage-pill-pricing_windshield_back"><path class="cls-6 damage-pill-background" d="M143.35 83.8H88.37c-10.56 0-19.13-8.58-19.13-19.13 0-10.56 8.58-19.13 19.13-19.13h54.98c10.56 0 19.13 8.58 19.13 19.13 0 10.56-8.58 19.13-19.13 19.13Z"/><text class="cls-7 damage-pill-text" transform="translate(110.45 68.95)">9999€</text><circle class="cls-3 severity-low" cx="88.37" cy="64.67" r="9.1"/><circle class="cls-5 severity-high" cx="88.37" cy="64.67" r="9.1"/><circle class="cls-8 severity-none" cx="88.37" cy="64.67" r="9.1"/><g class="severity-medium"><circle class="cls-2 severity-medium severity-medium" cx="88.37" cy="64.67" r="9.1"/><path class="cls-4 severity-medium" d="M88.37 55.57v18.1c-5 0-9.1-4.1-9.1-9.1s4.1-9 9.1-9Z"/></g></g><g id="damage-pill_roof"><circle class="cls-6 damage-pill-background" cx="217.77" cy="20.13" r="19.13"/><circle class="cls-3 severity-low" cx="217.77" cy="20.13" r="9.1"/><circle class="cls-5 severity-high" cx="217.77" cy="20.13" r="9.1"/><circle class="cls-8 severity-none" cx="217.77" cy="20.13" r="9.1"/><g class="severity-medium"><circle class="cls-2 severity-medium severity-medium" cx="217.77" cy="20.13" r="9.1"/><path class="cls-4 severity-medium" d="M217.77 11.03v18.1c-5 0-9.1-4.1-9.1-9.1s4.1-9 9.1-9Z"/></g></g><g id="damage-pill-pricing_roof"><path class="cls-6 damage-pill-background" d="M272.75 39.27h-54.98c-10.56 0-19.13-8.58-19.13-19.13 0-10.56 8.58-19.13 19.13-19.13h54.98c10.56 0 19.13 8.58 19.13 19.13 0 10.56-8.58 19.13-19.13 19.13Z"/><text class="cls-7 damage-pill-text" transform="translate(239.85 24.42)">9999€</text><circle class="cls-3 severity-low" cx="217.77" cy="20.13" r="9.1"/><circle class="cls-5 severity-high" cx="217.77" cy="20.13" r="9.1"/><circle class="cls-8 severity-none" cx="217.77" cy="20.13" r="9.1"/><g class="severity-medium"><circle class="cls-2 severity-medium severity-medium" cx="217.77" cy="20.13" r="9.1"/><path class="cls-4 severity-medium" d="M217.77 11.03v18.1c-5 0-9.1-4.1-9.1-9.1s4.1-9 9.1-9Z"/></g></g><g id="damage-pill_fender_back_right"><circle class="cls-6 damage-pill-background" cx="236.52" cy="171.31" r="19.13"/><circle class="cls-3 severity-low" cx="236.52" cy="171.31" r="9.1"/><circle class="cls-5 severity-high" cx="236.52" cy="171.31" r="9.1"/><circle class="cls-8 severity-none" cx="236.52" cy="171.31" r="9.1"/><g class="severity-medium"><circle class="cls-2 severity-medium severity-medium" cx="236.52" cy="171.31" r="9.1"/><path class="cls-4 severity-medium" d="M236.52 162.21v18.1c-5 0-9.1-4.1-9.1-9.1s4.1-9 9.1-9Z"/></g></g><g id="damage-pill-pricing_fender_back_right"><path class="cls-6 damage-pill-background" d="M291.5 190.44h-54.98c-10.56 0-19.13-8.58-19.13-19.13 0-10.56 8.58-19.13 19.13-19.13h54.98c10.56 0 19.13 8.58 19.13 19.13 0 10.56-8.58 19.13-19.13 19.13Z"/><text class="cls-7 damage-pill-text" transform="translate(258.6 175.59)">9999€</text><circle class="cls-3 severity-low" cx="236.52" cy="171.31" r="9.1"/><circle class="cls-5 severity-high" cx="236.52" cy="171.31" r="9.1"/><circle class="cls-8 severity-none" cx="236.52" cy="171.31" r="9.1"/><g class="severity-medium"><circle class="cls-2 severity-medium severity-medium" cx="236.52" cy="171.31" r="9.1"/><path class="cls-4 severity-medium" d="M236.52 162.21v18.1c-5 0-9.1-4.1-9.1-9.1s4.1-9 9.1-9Z"/></g></g><g id="damage-pill_wheel_back_right"><circle class="cls-6 damage-pill-background" cx="298.53" cy="234.69" r="19.13"/><circle class="cls-3 severity-low" cx="298.53" cy="234.69" r="9.1"/><circle class="cls-5 severity-high" cx="298.53" cy="234.69" r="9.1"/><circle class="cls-8 severity-none" cx="298.53" cy="234.69" r="9.1"/><g class="severity-medium"><circle class="cls-2 severity-medium severity-medium" cx="298.53" cy="234.69" r="9.1"/><path class="cls-4 severity-medium" d="M298.53 225.59v18.1c-5 0-9.1-4.1-9.1-9.1s4.1-9 9.1-9Z"/></g></g><g id="damage-pill-pricing_wheel_back_right"><path class="cls-6 damage-pill-background" d="M353.51 253.82h-54.98c-10.56 0-19.13-8.58-19.13-19.13 0-10.56 8.58-19.13 19.13-19.13h54.98c10.56 0 19.13 8.58 19.13 19.13 0 10.56-8.58 19.13-19.13 19.13Z"/><text class="cls-7 damage-pill-text" transform="translate(320.61 238.97)">9999€</text><circle class="cls-3 severity-low" cx="298.53" cy="234.69" r="9.1"/><circle class="cls-5 severity-high" cx="298.53" cy="234.69" r="9.1"/><circle class="cls-8 severity-none" cx="298.53" cy="234.69" r="9.1"/><g class="severity-medium"><circle class="cls-2 severity-medium severity-medium" cx="298.53" cy="234.69" r="9.1"/><path class="cls-4 severity-medium" d="M298.53 225.59v18.1c-5 0-9.1-4.1-9.1-9.1s4.1-9 9.1-9Z"/></g></g><g id="damage-pill_quarter_window_back_right"><circle class="cls-6 damage-pill-background" cx="275.17" cy="61.62" r="19.13"/><circle class="cls-3 severity-low" cx="275.17" cy="61.62" r="9.1"/><circle class="cls-5 severity-high" cx="275.17" cy="61.62" r="9.1"/><circle class="cls-8 severity-none" cx="275.17" cy="61.62" r="9.1"/><g class="severity-medium"><circle class="cls-2 severity-medium severity-medium" cx="275.17" cy="61.62" r="9.1"/><path class="cls-4 severity-medium" d="M275.17 52.52v18.1c-5 0-9.1-4.1-9.1-9.1s4.1-9 9.1-9Z"/></g></g><g id="damage-pill-pricing_quarter_window_back_right"><path class="cls-6 damage-pill-background" d="M330.15 80.75h-54.98c-10.56 0-19.13-8.58-19.13-19.13 0-10.56 8.58-19.13 19.13-19.13h54.98c10.56 0 19.13 8.58 19.13 19.13 0 10.56-8.58 19.13-19.13 19.13Z"/><text class="cls-7 damage-pill-text" transform="translate(297.25 65.9)">9999€</text><circle class="cls-3 severity-low" cx="275.17" cy="61.62" r="9.1"/><circle class="cls-5 severity-high" cx="275.17" cy="61.62" r="9.1"/><circle class="cls-8 severity-none" cx="275.17" cy="61.62" r="9.1"/><g class="severity-medium"><circle class="cls-2 severity-medium severity-medium" cx="275.17" cy="61.62" r="9.1"/><path class="cls-4 severity-medium" d="M275.17 52.52v18.1c-5 0-9.1-4.1-9.1-9.1s4.1-9 9.1-9Z"/></g></g></svg>
