<svg width="204" height="153" fill="none" xmlns="http://www.w3.org/2000/svg"><g clip-path="url(#a)" stroke="#fff" stroke-linecap="round" stroke-linejoin="round"><path d="M159.48 96.38c-8.63-.48-22.26-1.8-31.8-2.41-6.02-.38-10.55-1.98-12.43-2.96-5.33-2.79-89.98-40.81-103.92-47.14 6.59-3.3 104.68-29.66 119.63-32.44 14.95-2.79 30.16-2.03 34.72 5.38 4.56 7.41 31.68 58.74 37.84 71.66" stroke-width=".47"/><path d="M158.91 99.49c-4.9-.51-18.68-1.92-23.38-2.16-5.75-.29-15.15-1.1-19.99-3.31-6.42-2.94-85.78-36.59-92.58-39.52-6.81-2.94-16.79-5.09-16.79-6.56 0-1.91 2.62-3.15 5.16-4.07" stroke-width=".23"/><path d="M203.52 89.38c-6.63-.87-30.41-2.85-35.61-3.22-5.2-.37-7.43 6.07-8.18 9.04-.75 2.97-4.34 24.9-3.96 32.08.38 7.18.62 12.14 7.68 14.49 7.06 2.35 35.31 9.79 36.42 10.34M0 64.69c4.42 1.62 17.43 4.03 20.67 8.56C23.91 77.77 6.5 93.03 0 99.94M73.39 124.83c3.4.3 5.96.49 7.16.52 0 0 5.98-9.93 7.44-13.21 1.46-3.29 2.39-10.57 3.11-15.14 0 0-23.09-10.46-31.75-12.87-8.66-2.4-14.56 1.56-16.72 4.45-2.17 2.89-16.24 24.9-19.61 31.15 0 0 5.41.59 12.93 1.38" stroke-width=".47"/><path d="M73.69 152.12c2.63-5.13 2.7-13.12 2.63-17.06-.07-3.94-.73-5.26-6.06-6.28.8-.37 3.29-2.85 3.72-5.99 1.32-9.49 2.99-18.98-2.19-22.85-2.41-1.8-15.62-4.89-19.49-2.18-3.87 2.71-9.27 17.37-8.98 20.88-5.18 1.24-19.86 5.77-21.17 19.05C15.8 140.39 4.2 148.81 0 152.12" stroke-width=".47"/><path d="M23.02 119.73c-2.09 3.59-10.22 18.74-13.51 25.46M116.23 107.79c-1.41-1.43-8.94-5-10.49-5.64-1.55-.64-2.99-.9-3.79.78-.8 1.68-2.96 16.18-2.65 19.05 4.41.79 10.93 1.36 10.93 1.36" stroke-width=".47"/><path d="M155.78 124.46s-7.45-1.92-10.81-1.86c-1.44.9-3.84 5.82-4.38 8.1 0 0-7.02-1.8-9.04-1.63 0 0 2.1-.64 2.69-2.14.59-1.5 1.51-13.04-.23-15.1-1.74-2.06-10.67-3.92-13.64-4.33-2.97-.41-4.01.36-4.42 1.09-1.82 3.24-4.2 12.32-3.66 14.51-5.42.22-11.52 4.02-13.7 6.79-2.18 2.77-3.1 8.17-2.56 12.98-2.14 2.51-4.52 5.18-6.16 9.25" stroke-width=".47"/><path d="M140.6 130.69c-.54 1.61-1.26 5.66-1.31 8.44 3.1 1.66 16.52 5.12 20.07 5.52 3.55.4 3.58-3.06 3.58-3.06" stroke-width=".23"/><path d="M131.55 129.07c1.98 2.41 3.37 6.49 2.4 10.58-.97 4.09-5.12 12.81-5.12 12.81" stroke-width=".47"/><path d="M112.3 123.1c.99 4.4 16.34 6.76 19.25 5.96M139.29 139.13c-2.57 5.15-5.34 12.99-5.34 12.99M160.81 144.57c.7.6.58 3.98-.86 7.55" stroke-width=".23"/><path d="m167.55 143.04-1.63 9.08M171.21 144.09l-1.37 8.03M143.3 124.62c-1.44-2.93-1.84-6.73-.98-8 .86-1.27 3.63-1.9 7.55-1.44 3.92.46 6.61 1.15 6.61 1.15" stroke-width=".47"/><path d="M43.32 118.64c-.61 5.77 14.31 12.71 20.76 11.94 1.32-1.44 2.98-2.73 6.51-2M22.15 137.69c-.43 2.3-.61 9.59-.2 13.37M96.05 142.87c1.18 1.88 3.47 3.95.4 9.25M116.76 126.65c-1.75 3.56-8.71 20.35-10.11 25.47M123.37 128.5c-3.62 6.73-8.97 23.62-8.97 23.62" stroke-width=".23"/><path d="M97.66 145.63c1.35-3.21 4.58-7.34 6.31-8.9 1.73-1.56 3.99-2.56 8.93-1.2M119.4 137.69c2.24.6 6.2 2.68 7.15 5.35.95 2.67-.5 9.08-.5 9.08M50.3 126.65c-3.16.7-19.44 25.47-19.44 25.47M57.69 129.75c-3.62.89-15.92 22.37-15.92 22.37" stroke-width=".23"/><path d="M21.35 152.12c2.13-4.16 9.1-11.72 10.72-12.74 1.99-1.24 4.83-.74 6.9.87M46.36 144.47c1.53.91 4.61 2.51 5.12 4.3.51 1.79-.26 3.34-.26 3.34" stroke-width=".23"/></g><defs><clipPath id="a"><path fill="#fff" d="M0 0h203.52v152.12H0z"/></clipPath></defs></svg>