<svg width="204" height="153" fill="none" xmlns="http://www.w3.org/2000/svg"><g clip-path="url(#a)" stroke="#fff" stroke-linecap="round" stroke-linejoin="round"><path d="M95.36 58.35c.91 4.88 6.37 13.22 27.62 11.33M142.97 65.43l2.55 4.78 7.04.23" stroke-width=".23"/><path d="m85.12 32.51 35.47 16.5c3.99.77 9.27 2.32 13.39 4.76 4.12 2.45 8.99 11.65 8.99 11.65l5.99.56 3.6 4.45.85 5.72 1.67 1.04v6.98" stroke-width=".23"/><path d="M141.77 43.9c3.02 3.82 32.89 37.21 40.25 64.51" stroke-width=".46"/><path d="M158.63 112.51c-2.14-.18-7.73-1.09-12.75-.29-3.73.59-7.03 2.85-8.98 3.18M121.22 83.95c.62-.71 7.59.67 9.19.48 1.6-.19 17.4-1.12 20.32-1.19l.87.71c6.43.35 9.09.81 9.75 1.74.66.93 12.15 17.13 12.82 19.52.66 2.39-2.24 5.13-2.24 5.13" stroke-width=".23"/><path d="M106.75 123.44c1.4-.08 5.27-.72 5.65-1.06.38-.34.3-2.34.3-2.34 1.28-.94 6-3.19 6-3.19 1.46.52 4.42-.29 4.89-1.44 1.66-1.45 7.7-4.89 7.7-4.89 1.79 2.21 3.76 4 5.62 4.89.57-1.14 1.05-10.74 1.14-11.59.09-.85-.48-2.66-3.04-5.23-2.56-2.57-13.78-14.63-13.78-14.63-1.9 1.1-4.47 2.47-4.47 2.47-.48-.56-1.17-1.46-2.95-1.67-1.78-.21-4.43-.53-5.27-.17-1.57.68-2.38 8.21-2.17 13.27-1.45-.09-3.59-.32-5.22-.63M85.3 83.45c-3.27-1.61-10.16-7.21-7.58-14.35 1.88-5.2 7.56-1.88 9.56-8.61" stroke-width=".23"/><path d="M79.98 85.05c-11.83-5.85-11.58-16.36-9.97-20.7 1.69-4.58 6.77-7.06 11.39-8.11-.36-2.25-1.25-7.94-2.16-11.81" stroke-width=".23"/><path d="M0 86c10.93.62 47.4.5 70.28-.02 8.72-.2 15.02-1.79 16.42-3.54M32.96 30.68c2.41.4 2.39 1.97 2.33 4.21-.06 2.24-.82 28.91-.88 30.81-.07 1.91-1.91 4.45-5.78 4.42-4.56-.03-20.08-.95-28.61-1.7" stroke-width=".23"/><path d="M57.82 34.89c1.31 6.08 5.92 39.94 7.27 51.19M86.79 87.06c1.63 3.8 5.67 21.74 5.82 29.51M22.12 124.61c1.49-5.83 2.98-31.04 2.17-34.16M18.87 88.62c.27 7.38-4.47 43.03-5.42 49.13" stroke-width=".23"/><path d="M91.07 152.12c3.91-.36 21.26-2.8 22.74-3.43 1.48-.63 5.39-2.75 4.65-7.93-.74-5.18-1.8-10.47-1.69-11.42.11-.95 1.15-2.44 3.31-2.37 2.16.07 5.15.2 5.15.2v1.19h2.43s9.15-.85 10.59-1.39c1.44-.54 8.8-4.74 8.8-4.74.2-1.64 2.15-4.5 3.89-4.81 0 0 7.36-5.48 8.9-5.19 1.54.29 22.2-3.81 22.2-3.81 3.78 1.64 4.09 21.17 4.09 21.17-1.02-.92-2.51-1.44-2.96-.37-.3.71 1.01 2.39 2.53 2.96-.16 2.67-1.22 14.1-3.58 19.94" stroke-width=".46"/><path d="M0 25.13c11.73 2.23 55.4 9.04 60.41 10.29 5.01 1.25 23.23 11.41 23.23 11.41 2.64 5.98 3.89 12.24 3.62 14.05-.27 1.81-.56 21.56-.56 21.56 3.34-.28 9.43-1.25 10.76 2.78 1.34 4.03 6.87 22.39 7.58 26.15.71 3.76 3.77 28.24 3.77 28.24l-1.25 5.15-46.46 7.37M97.46 0c3.49.31 7.97 2.34 7.97 2.34.79 1.87.28 4.3.98 4.74M26.74 0c6.86 2.02 62.2 11.88 71.5 13.31 9.3 1.43 27.46 9.58 27.46 9.58.57-1.06 1.12-3.22 1.12-3.22-.21-.56-3.35-5.73-3.35-5.73-2.8-1.68-28.17-8.88-36.97-10.55-.21-.42.35-3.39.35-3.39M132.23 0c0 1.95-.31 9.67-.31 9.67l-2.86.93c-3.24-.93-18.77-4.63-18.77-4.63-.08-.89-.6-5.37-1.35-5.96M159.79 17.58c8.25-1.45 36.11-7.8 43.73-10.51M153.04 41.18c6.42 8.06 13.81 17.58 17.5 23.75 6.73 11.25 26.71 42.33 32.98 53.02M151.84 39.68c-4.78-5.99-8.83-10.95-10.07-12.76l1.12-5.68c5.86-1.13 13.27-2.74 13.27-2.74" stroke-width=".46"/><path d="m155.51 30.63-3.92 16.75c7.68 10.43 26.45 34.97 29.52 40.93 3.07 5.96 13.38 22.04 14.82 30.79 1.44 8.76 3.75 23.89 1.54 33.02M159.72 3.36l-6.31 26.83 3.15.65 6.78-27.92c-.36-.36-2.83-.36-3.63.44h.01Z" stroke-width=".46"/><path d="m0 139.38 13.45-1.63 8.68-13.15c18.03-.41 65.88-6.78 69.68-7.73 3.8-.95 3.66-7.46 3.66-7.46l-4.4-19.11-4.28-3.25c-12.07 1.36-51.65 4.07-62.49 3.39l-5.42-1.82c-7.59-.48-18.87-.75-18.87-.75" stroke-width=".23"/><path d="M0 17.72c13.98 1.95 58.24 9.76 62.55 10.69 4.31.93 14.98 5.88 16.83 6.48 1.85.6 4.72.29 5.75-2.37 1.03-2.66 4.1-4 6.57-4 2.47 0 10.26 2.26 12 3.9 1.74 1.64 6.16 1.44 7.49 3.28 1.33 1.84 2.46 6.67 10.67 6.77 8.21.1 18.09 2.05 19.92 1.44 1.83-.62 1.58-3.03 4.46-2.72 1.07 1.05 3.26 3.55 4.14 4.89l3.66-15.75" stroke-width=".46"/><path d="M82.67 34.89c3.67 1.24 26.28 13.99 26.28 13.99-6.77 0-11.78 3.5-13.14 7.35-1.36 3.85-1.7 26.2-1.7 26.2" stroke-width=".23"/></g><defs><clipPath id="a"><path fill="#fff" d="M0 0h203.52v152.12H0z"/></clipPath></defs></svg>