<svg width="407" height="250" viewBox="0 0 407 250" fill="none" xmlns="http://www.w3.org/2000/svg">
<g id="vehicle-classic-back">
<path id="fenderFrontRight" opacity="0.7" d="M405.033 73.309V64.6913C397.781 55.7917 389.615 50.7163 382.412 47.9863C385.859 51.6423 384.386 57.4147 383.219 59.8438C380.85 64.5836 372.717 63.9732 368.946 63.0755C376.271 69.9696 376.846 75.4634 376.218 77.3486V101.047L367.869 131.209L372.986 132.825C374.709 120.114 381.245 100.778 384.297 92.6988C387.528 84.0811 391.568 82.2858 393.184 82.4653C402.448 83.5425 403.148 101.406 402.34 110.204C408.588 104.817 406.739 83.363 405.033 73.309Z" fill="#EEEFF0"/>
<path id="rockerpanelRight" opacity="0.7" d="M367.869 131.209L270.92 176.452V193.149L373.255 141.712V132.825L367.869 131.209Z" fill="#B5B5B5"/>
<path id="fenderBackRight" opacity="0.7" d="M228.37 18.1016C206.826 22.6259 178.28 36.863 166.7 43.4161L171.547 57.4198V81.9264L148.656 111.55C151.026 112.627 184.743 112.358 201.17 111.55C200.309 119.737 195.784 128.606 193.63 132.017L220.291 163.795L220.56 163.525C231.763 147.583 243.541 142.34 248.029 141.712C263.756 141.065 269.843 164.603 270.92 176.452L275.498 173.49C272.482 139.88 248.747 104.907 237.257 91.6213C233.164 92.0522 227.831 84.4399 225.677 80.5799C224.384 49.7716 229.447 39.197 232.14 37.7607C235.156 33.8827 230.883 23.0388 228.37 18.1016Z" fill="#D2D2D2"/>
<path id="roof" opacity="0.7" d="M166.43 43.1469L62.748 24.0263C143.97 -10.0136 253.145 -0.570022 297.58 8.40675C244.797 7.1141 188.154 31.0282 166.43 43.1469Z" fill="#C4C4C4"/>
<path id="windshieldBack" opacity="0.7" d="M34.2021 67.1149V60.113L62.7483 24.0264L166.43 43.4162L171.547 57.42V76.2712C113.916 98.8927 53.7715 78.9642 34.2021 67.1149Z" fill="#D9D9D9"/>
<path id="bumperRear" opacity="0.7" d="M8.6177 102.394C7.34347 101.969 5.6172 100.047 5.26324 99.1619C-2.38215 108.081 -0.0460596 146.769 2.07766 164.997C2.92715 174.766 16.2358 185.704 22.7839 189.951C60.5862 216.71 147.553 227.647 186.31 229.771C194.381 199.189 212.326 173.138 220.29 163.935L193.743 132.08C179.087 136.864 153.503 139.827 138.422 139.557C138.422 141.256 130.209 149.954 126.315 153.848C76.4821 151.676 25.5998 129.678 8.0791 116.936C4.68114 115.237 7.20189 106.641 8.6177 102.394Z" fill="#EEEFF0"/>
<path id="trunk" opacity="0.7" d="M24.1209 87.851L10.6557 79.7719C7.20867 74.8168 24.8391 64.4217 34.0851 59.8435V67.6533C92.2546 98.4616 149.886 86.4148 171.43 76.5403V81.9264L148.539 111.819C133.027 111.819 105.81 108.587 94.1397 106.972V117.744L116.761 136.595C117.417 139.557 133.036 139.557 138.422 139.557C138.207 141.927 130.496 150.15 126.725 154.1C65.5397 149.36 21.5176 126.81 7.15481 116.128C5.43127 113.327 7.33434 105.805 8.50132 102.393C22.0742 103.902 26.7242 93.3269 27.3525 87.851H24.1209Z" fill="#B5B5B5"/>
<path id="doorBackRight" opacity="0.7" fill-rule="evenodd" clip-rule="evenodd" d="M228.639 18.371C240.937 15.0496 269.573 8.40674 285.731 8.40674L312.123 67.9227C316.88 74.7451 325.318 96.0919 321.01 126.9V153.023L275.767 174.298C274.42 160.204 264.833 123.938 237.256 91.6214C235.551 91.7112 230.847 89.6286 225.676 80.58C224.868 68.3716 225.03 42.6621 232.14 37.4915C233.486 36.5938 234.671 31.513 228.639 18.371ZM232.141 67.9229C232.051 56.6121 235.75 32.5903 251.262 26.9888L267.959 23.2185L285.733 20.5255C292.016 33.5418 303.884 61.2441 301.083 67.9229C281.154 72.7703 238.174 73.3089 232.141 67.9229Z" fill="#DDDEDE"/>
<path id="windowBackRight" opacity="0.7" d="M251.262 26.9887C235.75 32.5902 232.051 56.612 232.141 67.9228C238.174 73.3088 281.154 72.7702 301.083 67.9228C303.884 61.244 292.016 33.5417 285.733 20.5254L267.959 23.2184L251.262 26.9887Z" fill="#F1F3F4"/>
<path id="taillightLeft" opacity="0.7" d="M23.9688 87.8511L10.773 79.772C3.01703 81.0646 3.95061 93.2371 5.3869 99.1618C6.03322 100.67 7.81063 101.945 8.61854 102.393C20.8988 104.763 26.6618 93.7757 27.4698 87.8511H23.9688Z" fill="#F0E8E8"/>
<path id="taillightRight" opacity="0.7" d="M94.2568 117.744V106.972C127.004 113.22 179.177 112.627 201.17 111.55C199.878 121.676 195.605 129.414 193.63 132.017C163.468 141.281 116.07 141.173 116.878 136.595L94.2568 117.744Z" fill="#F0E8E8"/>
<path id="wheelBackRight" opacity="0.7" fill-rule="evenodd" clip-rule="evenodd" d="M235.91 147.636C248.388 149.791 270.166 165.357 257.454 210.384C252.697 225.555 236.233 254.496 208.441 248.894C201.888 248.176 188.297 243.347 186.358 229.774C191.026 212.359 207.472 171.551 235.91 147.636ZM223.58 226.955C231.524 228.843 240.854 218.213 244.42 203.213C247.986 188.212 244.438 174.521 236.495 172.633C228.551 170.744 219.221 181.374 215.655 196.374C212.089 211.375 215.637 225.066 223.58 226.955Z" fill="#454545"/>
<ellipse id="hubcapBackRight" opacity="0.7" cx="229.82" cy="199.761" rx="14.7833" ry="27.918" transform="rotate(13.3729 229.82 199.761)" fill="#EEEFF0"/>
<path id="windowFrontRight" opacity="0.7" d="M316.701 66.2797L297.312 19.421C310.669 13.8195 340.221 31.9884 353.327 41.7731L357.905 59.0085L316.701 66.2797Z" fill="#EEEFF0"/>
<path id="doorFrontRight" opacity="0.7" fill-rule="evenodd" clip-rule="evenodd" d="M285.731 8.4067C297.042 5.17513 347.133 16.2166 364.637 44.7626L368.408 62.5367C371.46 65.4092 377.295 72.447 376.217 77.6176V101.047L367.869 131.209L321.01 153.023V126.631C322.806 113.974 323.595 84.5118 312.392 67.9227L285.731 8.4067ZM297.312 19.4481L316.701 66.3069L357.905 59.0357L353.327 41.8003C340.221 32.0156 310.669 13.8466 297.312 19.4481Z" fill="#CACACA"/>
<path id="mirrorRight" opacity="0.7" d="M357.904 59.0358L353.326 41.8004L363.021 49.0716C362.806 46.9172 364.188 44.9423 364.906 44.2241C369.861 43.3624 378.641 46.3786 382.411 47.9944C385.212 50.1488 384.655 55.8939 384.027 58.4972C379.933 66.8995 364.906 62.3572 357.904 59.0358Z" fill="black"/>
<path id="mirrorRight_2" opacity="0.7" d="M357.904 59.3052L353.326 42.0698L363.021 49.341C362.806 47.1866 364.188 45.2117 364.906 44.4936C369.861 43.6318 378.641 46.648 382.411 48.2638C385.212 50.4182 384.655 56.1634 384.027 58.7666C379.933 67.1689 364.906 62.6266 357.904 59.3052Z" fill="#B5B5B5"/>
<path id="wheelFrontRight" opacity="0.7" fill-rule="evenodd" clip-rule="evenodd" d="M369.215 143.866C369.574 145.482 373.308 148.121 385.373 145.751C389.951 143.507 399.808 133.148 402.608 109.665C402.968 100.239 401.477 81.6034 392.644 82.4652C388.066 82.4652 380.795 93.1296 373.254 132.556V141.712L369.215 143.866ZM385.283 130.439C388.467 131.289 392.847 125.237 395.066 116.921C397.284 108.606 396.502 101.176 393.318 100.326C390.134 99.4767 385.754 105.529 383.535 113.844C381.316 122.16 382.098 129.59 385.283 130.439Z" fill="#454545"/>
<ellipse id="hubcapFrontRight" opacity="0.7" cx="389.501" cy="115.218" rx="5.96717" ry="15.5833" transform="rotate(14.9401 389.501 115.218)" fill="#EEEFF0"/>
</g>
</svg>
