<svg width="385" height="237" viewBox="0 0 385 237" fill="none" xmlns="http://www.w3.org/2000/svg">
<path d="M221.493 140.162C230.156 141.451 247.245 149.741 246.3 172.593C246.873 188.451 241.016 223.087 213.01 234.771C204.168 237.313 184.144 237.606 174.779 218.448" stroke="#274B9F" stroke-width="1.74893"/>
<path d="M215.373 18.9229C218.021 23.111 222.525 32.5826 219.346 36.9641C216.661 38.9687 211.7 49.7862 213.332 77.0199C214.764 79.7046 218.852 85.611 223.749 87.7587C234.201 98.0322 256.094 127.707 260.046 164.219" stroke="#274B9F" stroke-width="1.74893"/>
<path d="M284.526 65.0986C286.846 56.2498 275.756 32.1304 269.922 21.1768C262.19 21.1768 245.58 25.1143 238.242 27.0831C223.551 30.1759 219.378 53.7154 219.127 65.0986C228.233 71.37 266.521 67.7117 284.526 65.0986Z" stroke="#274B9F" stroke-width="1.74893"/>
<path d="M379.031 105.798C377.886 114.962 373.061 134.342 362.923 138.552H349.607L348.104 136.941" stroke="#274B9F" stroke-width="1.74893"/>
<path d="M347.352 59.8369C350.287 62.8796 355.814 70.2536 354.439 75.4082V95.4898L347.352 124.914" stroke="#274B9F" stroke-width="1.74893"/>
<path d="M360.881 46.519C363.387 51.0651 365.37 60.2432 353.256 60.5869C349.283 60.2289 340.649 59.019 337.9 57.0431M337.9 57.0431L332.96 40.6126C322.4 31.5204 297.092 14.6462 280.34 19.8867L298.703 64.0233L337.9 57.0431ZM255.104 167.009L345.954 124.912L352.183 126.309" stroke="#274B9F" stroke-width="1.74893"/>
<path d="M332.533 40.3989L342.413 46.8422C342.592 45.482 343.465 42.7185 345.527 42.5467" stroke="#274B9F" stroke-width="1.74893"/>
<path d="M269.6 9.46875L294.406 65.2033C298.738 70.4295 306.477 88.8931 302.783 120.938V146.496" stroke="#274B9F" stroke-width="1.74893"/>
<path d="M8.54362 97.4209C7.25496 101.036 5.45084 108.954 8.54362 111.704C12.4096 115.14 51.4989 139.624 120.12 145.96C123.091 143.025 129.42 136.274 130.966 132.752" stroke="#274B9F" stroke-width="1.74893"/>
<path d="M183.799 125.342L208.283 155.303" stroke="#274B9F" stroke-width="1.74893"/>
<path d="M190.134 106.763C166.165 110.629 112.922 105.152 89.2969 101.931V111.703L109.915 129.315C123.232 137.154 179.396 128.348 182.832 125.878C185.581 123.902 188.846 112.312 190.134 106.763Z" stroke="#274B9F" stroke-width="1.74893"/>
<path d="M10.9008 76.3735C14.6952 78.9866 22.8639 84.2129 25.1835 84.2129C27.5031 84.2129 26.15 88.7948 25.1835 91.0857C21.1027 95.6676 11.5666 102.77 6.06836 94.5222" stroke="#274B9F" stroke-width="1.74893"/>
<path d="M157.808 42.1157L162.211 55.3245V73.4731M139.767 107.3L162.211 77.876V73.4731M32.4863 57.7944V64.6673C53.1765 76.2652 108.088 94.2635 162.211 73.4731" stroke="#274B9F" stroke-width="1.74893"/>
<path d="M59.8672 24.0751C76.3692 27.6547 119.167 36.1885 158.342 41.6867C178.102 30.4468 230.249 8.24603 280.765 9.36287" stroke="#274B9F" stroke-width="1.74893"/>
<path d="M2.52738 156.163C13.7817 197.056 122.91 214.224 176.067 217.696C192.218 169.329 215.085 144.851 224.499 138.659C250.788 123.023 256.286 160.852 255.749 181.721L352.291 134.685V123.41C359.336 88.5299 366.967 79.1656 369.903 78.8435C379.696 78.8435 380.14 97.1711 379.138 106.335C386.183 94.2215 384.078 76.8031 382.145 69.6081V62.1983C369.258 46.4767 351.002 42.6178 343.485 42.6536C329.396 23.066 298.74 12.9428 285.173 10.3297C180.964 -11.2339 91.6954 9.57798 60.0875 22.6793L31.3074 58.547C13.5239 66.1072 9.86557 73.8678 10.2593 76.803C4.67514 79.8099 4.92572 89.5822 5.74903 94.0925C-0.866089 106.378 0.844964 140.592 2.52738 156.163Z" stroke="#274B9F" stroke-width="1.74893"/>
</svg>
