<svg width="73" height="36" viewBox="0 0 73 36" fill="none" xmlns="http://www.w3.org/2000/svg">
  <path d="M2.76758 26.7334C4.86406 27.8779 9.23022 30.422 9.92298 31.4429" stroke="#274B9F" stroke-width="0.327566"/>
  <path d="M9.93599 3.74756C7.9256 5.27182 3.68907 8.34464 2.82617 8.44186" stroke="#274B9F" stroke-width="0.327566"/>
  <path d="M25.3703 5.98145C23.5676 6.39163 19.9894 8.73726 20.0987 14.8383C20.0633 16.95 20.0744 21.7142 20.4026 23.8775C20.6861 25.7563 22.2104 29.4773 26.0388 29.3314" stroke="#274B9F" stroke-width="0.327566"/>
  <path d="M27.7569 29.1942C28.081 28.5207 28.2248 27.0127 26.2073 26.3685C26.101 24.981 25.9521 21.8687 26.2073 20.5196H27.1948L28.5621 19.4106V16.0836L27.1948 14.8834H26.2073V6.11768" stroke="#274B9F" stroke-width="0.327566"/>
  <path d="M67.1209 8.79199H59.6465V27.4325H67.1209C70.0742 20.7237 68.3515 12.2102 67.1209 8.79199Z" stroke="#274B9F" stroke-width="0.327566"/>
  <path d="M56.712 16.2515L56.6816 19.6393" stroke="#274B9F" stroke-width="0.327566"/>
  <path d="M56.6968 16.2515H53.3242V19.6393H56.6968L59.2187 19.2139V16.5705L56.6968 16.2515Z" stroke="#274B9F" stroke-width="0.327566"/>
  <path d="M57.093 21.7505C57.6095 21.8771 58.6699 22.2366 58.7793 22.662V24.9864C58.7844 25.0674 58.7033 25.2811 58.3387 25.4877L57.0322 26.0042" stroke="#274B9F" stroke-width="0.327566"/>
  <path d="M56.8506 21.6436C57.3215 21.8613 58.2877 22.4244 58.385 22.9349V24.8794C58.3445 24.9655 58.2148 25.165 58.0204 25.2744L57.0481 25.9884" stroke="#274B9F" stroke-width="0.327566"/>
  <path d="M53.4326 19.6689V27.4928" stroke="#274B9F" stroke-width="0.327566"/>
  <path d="M56.2421 10.556C56.3282 10.4497 56.6523 10.3282 57.26 10.6928L58.5209 11.4068C58.5563 11.4422 58.6303 11.5557 58.6424 11.7258V13.64C58.6475 13.716 58.612 13.8922 58.4297 13.9894L56.5915 15.0073C56.5054 15.0326 56.315 15.068 56.2421 15.0073C56.072 14.7885 55.918 14.6528 55.8623 14.6123" stroke="#274B9F" stroke-width="0.327566"/>
  <path d="M57.3052 10.9514C55.9805 10.0277 55.6797 10.9311 55.6949 11.4983V14.2632C55.6949 15.0168 56.7684 14.5772 57.3052 14.2632C57.8157 14.0566 58.0243 13.6708 58.0648 13.5036V11.8021C58.0527 11.4375 57.5534 11.0831 57.3052 10.9514Z" stroke="#274B9F" stroke-width="0.327566"/>
  <path d="M53.3535 16.277C54.1031 16.3258 55.6144 16.043 55.6627 14.5216V10.5537C55.5168 10.0173 54.8507 9.00308 53.3535 9.23713" stroke="#274B9F" stroke-width="0.327566"/>
  <path d="M53.3245 9.45142H45.4551C45.4551 8.30187 46.0335 7.95535 46.3227 7.92578H51.7415C52.399 8.05351 53.0708 8.9961 53.3245 9.45142ZM53.3245 9.45142V16.2813H45.4551" stroke="#274B9F" stroke-width="0.327566"/>
  <path d="M41.2069 10.1C41.293 9.99364 41.6171 9.87211 42.2248 10.2367L43.4857 10.9507C43.5212 10.9862 43.5951 11.0996 43.6073 11.2698V13.1839C43.6123 13.2599 43.5769 13.4361 43.3946 13.5334L41.5564 14.5512C41.4703 14.5765 41.2799 14.612 41.2069 14.5512C41.0368 14.3325 40.8829 14.1967 40.8271 14.1562" stroke="#274B9F" stroke-width="0.327566"/>
  <path d="M42.2671 10.4949C40.9424 9.57119 40.6416 10.4746 40.6568 11.0418V13.8067C40.6568 14.5602 41.7304 14.1207 42.2671 13.8067C42.7776 13.6001 42.9862 13.2142 43.0267 13.0471V11.3456C43.0146 10.981 42.5153 10.6265 42.2671 10.4949Z" stroke="#274B9F" stroke-width="0.327566"/>
  <path d="M38.0003 15.7343C38.7499 15.783 40.5802 15.5863 40.6285 14.065V10.097C40.4826 9.56065 39.4064 8.57269 37.9092 8.80674" stroke="#274B9F" stroke-width="0.327566"/>
  <path d="M37.6536 8.7832H31.0559C30.7042 8.7832 30.4198 9.06946 30.4221 9.42108L30.4595 15.1961C30.4617 15.5445 30.7448 15.8258 31.0932 15.8258H37.6536C38.0036 15.8258 38.2874 15.5421 38.2874 15.192V9.41698C38.2874 9.06695 38.0036 8.7832 37.6536 8.7832Z" stroke="#274B9F" stroke-width="0.327566"/>
  <path d="M41.7773 21.2514C41.8633 21.145 42.1874 21.0235 42.7951 21.3881L44.056 22.1021C44.0915 22.1375 44.1654 22.251 44.1776 22.4211V24.3353C44.1826 24.4113 44.1472 24.5875 43.9649 24.6847L42.1267 25.7026C42.0406 25.7279 41.8502 25.7634 41.7773 25.7026C41.6071 25.4838 41.4532 25.3481 41.3975 25.3076" stroke="#274B9F" stroke-width="0.327566"/>
  <path d="M42.8443 21.6457C41.5195 20.7221 41.2187 21.6255 41.2339 22.1926V24.9576C41.2339 25.7111 42.3075 25.2715 42.8443 24.9576C43.3547 24.751 43.5634 24.3651 43.6039 24.198V22.4965C43.5917 22.1319 43.0924 21.7774 42.8443 21.6457Z" stroke="#274B9F" stroke-width="0.327566"/>
  <path d="M38.5723 26.8854C39.3219 26.9341 41.1522 26.7374 41.2005 25.2161V21.2481C41.0546 20.7118 40.0846 19.7845 38.5875 20.0186" stroke="#274B9F" stroke-width="0.327566"/>
  <path d="M31.0038 21.7355L30.9963 20.572C30.994 20.2203 31.2785 19.9341 31.6301 19.9341H38.2278C38.5779 19.9341 38.8616 20.2178 38.8616 20.5679V26.3429C38.8616 26.6929 38.5779 26.9767 38.2278 26.9767H31.6614C31.3154 26.9767 31.0333 26.6991 31.0277 26.3531L31.0074 25.0929" stroke="#274B9F" stroke-width="0.327566"/>
  <path d="M17.6072 5.6319C18.1663 5.38883 19.2175 5.43435 20.129 5.43435C20.7489 5.28852 22.9244 5.57113 23.5624 5.6319C31.4379 7.02956 36.9819 7.48025 38.7695 7.53088C42.7437 7.9441 55.0502 7.35871 60.7067 7.01436C60.9619 8.07171 61.9271 8.22465 62.3778 8.16894V6.63456L62.9095 6.28514C63.8453 5.55593 67.2088 5.82939 68.7736 6.05726L69.4268 6.81686C71.4322 9.11388 72.0044 13.9925 72.0398 16.1447C72.2586 19.6935 71.4524 24.0344 71.022 25.7612C70.8397 26.3689 69.3458 28.4451 68.6217 29.4073L63.1374 28.9971C62.4689 28.9728 62.2714 28.2375 62.2562 27.8729H61.3599L60.8434 28.2982L55.6629 27.8729C48.6747 27.0221 37.7618 27.7817 33.1789 28.2679C32.1945 28.2679 31.29 28.4603 30.9609 28.5565C27.9711 29.3586 21.8356 29.782 19.1416 29.8934C17.8411 29.9542 17.1717 29.5845 16.9995 29.3921C16.6592 29.2584 16.3311 28.1413 16.2095 27.5994C14.1799 17.7551 15.3639 10.1186 16.2095 7.53088C16.4769 6.4006 17.2527 5.79394 17.6072 5.6319Z" stroke="#274B9F" stroke-width="0.327566"/>
  <path d="M27.6494 3.45923L52.4578 3.15539C56.0938 2.81104 64.5931 2.55683 69.5032 4.29479C70.2121 5.05438 71.5814 7.06883 71.387 9.04986C72.3289 12.0528 73.6475 19.7237 71.387 26.3838C71.387 27.4675 71.0102 29.9053 69.5032 30.987C66.0141 31.8428 57.7203 33.2688 52.4578 32.1264L27.6494 31.7922" stroke="#274B9F" stroke-width="0.327566"/>
  <path d="M25.3266 3.64165H21.9843C17.9737 2.30477 10.398 3.50999 7.11143 4.27972C5.4464 5.00893 3.35903 7.6422 2.52348 8.86768C0.408762 12.3193 1.12582 20.6465 1.74869 24.3786C2.41713 27.2226 4.86304 29.635 6.00243 30.4858C7.75963 30.9567 11.669 31.9169 13.249 31.9898L25.3114 31.7315" stroke="#274B9F" stroke-width="0.327566"/>
  <path d="M45.4859 9.2168L45.4009 19.6385M45.4009 19.6385L45.3491 25.9887C45.3289 26.3735 45.5071 27.1858 46.3822 27.356L54.4339 27.5383C55.1631 27.3965 56.7036 26.888 57.0317 25.9887C56.6367 26.1507 55.8255 26.2014 55.7404 25.1076V21.8565C55.8923 21.6438 56.3268 21.3035 56.8494 21.6438C56.9153 21.1627 56.7856 20.1124 55.7404 19.76C55.6391 19.7144 55.3545 19.6263 55.0264 19.6385H45.4009Z" stroke="#274B9F" stroke-width="0.327566"/>
  <path d="M27.7074 3.37548C27.3851 3.89548 26.986 4.29022 26.6086 4.51146C26.224 4.73697 25.9037 4.76166 25.697 4.63352C25.4903 4.50537 25.3699 4.20754 25.4008 3.76275C25.4311 3.32638 25.6072 2.79337 25.9295 2.27336C26.2519 1.75336 26.6509 1.35862 27.0283 1.13738C27.4129 0.911867 27.7332 0.887184 27.9399 1.01533C28.1466 1.14347 28.267 1.4413 28.2361 1.88609C28.2058 2.32246 28.0298 2.85547 27.7074 3.37548Z" stroke="#274B9F" stroke-width="0.327566"/>
  <path d="M25.901 33.1216C26.2233 33.6416 26.6224 34.0363 26.9998 34.2576C27.3844 34.4831 27.7047 34.5078 27.9114 34.3796C28.1181 34.2515 28.2385 33.9536 28.2076 33.5088C28.1773 33.0725 28.0012 32.5395 27.6789 32.0195C27.3565 31.4995 26.9575 31.1047 26.5801 30.8835C26.1955 30.658 25.8752 30.6333 25.6685 30.7614C25.4618 30.8896 25.3414 31.1874 25.3723 31.6322C25.4026 32.0686 25.5786 32.6016 25.901 33.1216Z" stroke="#274B9F" stroke-width="0.327566"/>
  <path d="M31.2838 23.4362C31.2838 24.2732 31.0328 25.0244 30.6351 25.5625C30.2373 26.1007 29.7009 26.4172 29.1232 26.4172C28.5455 26.4172 28.0091 26.1007 27.6113 25.5625C27.2136 25.0244 26.9626 24.2732 26.9626 23.4362C26.9626 22.5993 27.2136 21.8481 27.6113 21.3099C28.0091 20.7717 28.5455 20.4553 29.1232 20.4553C29.7009 20.4553 30.2373 20.7717 30.6351 21.3099C31.0328 21.8481 31.2838 22.5993 31.2838 23.4362Z" stroke="#274B9F" stroke-width="0.327566"/>
  <path d="M30.8002 23.3757C30.8002 24.1109 30.6237 24.7685 30.3469 25.2367C30.0679 25.7086 29.706 25.9617 29.3384 25.9617C28.9709 25.9617 28.609 25.7086 28.33 25.2367C28.0532 24.7685 27.8767 24.1109 27.8767 23.3757C27.8767 22.6406 28.0532 21.983 28.33 21.5147C28.609 21.0428 28.9709 20.7898 29.3384 20.7898C29.706 20.7898 30.0679 21.0428 30.3469 21.5147C30.6237 21.983 30.8002 22.6406 30.8002 23.3757Z" stroke="#274B9F" stroke-width="0.327566"/>
  <rect x="29.5153" y="16.4455" width="6.17458" height="2.7412" rx="0.533369" stroke="#274B9F" stroke-width="0.327566"/>
  <rect x="36.0476" y="16.4455" width="5.32383" height="2.7412" rx="0.533369" stroke="#274B9F" stroke-width="0.327566"/>
</svg>
