<svg width="401" height="258" viewBox="0 0 401 258" fill="none" xmlns="http://www.w3.org/2000/svg">
<path id="rockerPanelLeft" opacity="0.7" d="M373.505 127.812L288.135 193.522L285.442 209.68L371.081 141.277L373.505 127.812V127.812Z" fill="#A0A0A0"/>
<path id="fenderBackLeft" opacity="0.7" d="M366.772 10.9342C365.91 10.0725 359.95 9.13889 357.077 8.77979C377.975 26.877 385.534 50.9706 386.701 60.7553L388.586 86.8781C393.972 84.7231 398.37 89.3911 399.896 91.9941V55.6386C397.096 43.1429 376.647 20.6291 366.772 10.9342V10.9342Z" fill="#D4D4D4"/>
<path id="doorBackLeft" opacity="0.7" fill-rule="evenodd" clip-rule="evenodd" d="M326.915 10.3952C332.301 9.31802 345.82 7.43292 356.808 8.51012C365.874 16.4994 384.546 38.3489 386.7 61.8321L388.585 86.8777L373.504 127.812L349.537 146.394V90.9167L326.915 10.3952V10.3952ZM334.994 17.3971L348.19 61.8321C357.257 57.613 375.013 46.4818 373.505 35.7097C369.555 29.426 360.309 16.5353 354.923 15.2427C354.115 15.2427 336.071 15.2427 334.994 17.3971V17.3971Z" fill="#BEBEBE"/>
<path id="windowBackLeft" opacity="0.7" d="M347.92 61.8321L334.725 17.3971C335.802 15.2427 353.845 15.2427 354.653 15.2427C360.039 16.5353 369.285 29.426 373.235 35.7097C374.743 46.4818 356.987 57.613 347.92 61.8321Z" fill="#F1F3F4"/>
<path id="fenderFrontLeft" opacity="0.7" d="M277.363 100.881L224.31 142.893C229.05 158.405 223.054 168.746 219.463 171.977L242.623 183.827C251.887 160.99 263.718 153.485 268.476 152.588C287.22 147.202 289.392 177.812 288.135 193.791L297.022 187.058V130.774L288.135 102.497C280.164 107.668 277.632 103.574 277.363 100.881V100.881Z" fill="#BEBEBE"/>
<path id="headerPanel" opacity="0.7" d="M16.4561 143.97C16.4561 138.584 18.6105 133.467 19.6877 131.582C38.862 155.712 100.568 162.642 129.025 163.09C126.87 166.771 122.562 174.293 122.562 174.94C107.05 168.477 89.168 184.994 82.166 194.06C80.012 198.154 74.446 198.1 71.933 197.561L36.654 184.904C32.991 183.827 31.537 179.608 31.268 177.633C29.76 158.243 20.7649 147.112 16.4561 143.97V143.97Z" fill="#A0A0A0"/>
<path id="headlightLeft" opacity="0.7" d="M122.292 175.209L129.025 162.821C174.806 162.821 211.072 149.625 223.55 142.354C230.444 155.712 223.37 167.13 218.972 171.17L151.915 188.674C138.342 190.829 126.511 180.595 122.292 175.209V175.209Z" fill="#F4E8E8"/>
<path id="bumperFront" opacity="0.7" fill-rule="evenodd" clip-rule="evenodd" d="M8.03388 141.325C2.47008 151.67 -5.27672 174.143 8.05988 181.672C4.73848 183.557 -0.450119 193.091 5.36688 216.143L107.433 257.077H166.141L223.772 241.188C227.542 225.838 236.537 192.875 242.354 183.826L219.194 171.977L217.568 172.332L151.868 189.482C138.295 191.637 126.464 181.403 122.245 176.017L122.414 175.706C106.925 169.356 89.105 185.821 82.118 194.868C79.964 198.962 74.398 198.908 71.885 198.369L36.606 185.712C32.944 184.635 31.489 180.416 31.22 178.441C29.712 159.051 20.7173 147.92 16.4084 144.778C15.159 143.112 10.4548 141.815 8.03388 141.325ZM16.45 143.461C16.4591 143.315 16.4697 143.169 16.4816 143.023H16.479C16.468 143.173 16.4583 143.319 16.45 143.461ZM123.953 172.874L122.79 175.013C123.035 174.489 123.426 173.733 123.905 172.845L123.953 172.874Z" fill="#D4D4D5"/>
<path id="doorFrontLeft" opacity="0.7" fill-rule="evenodd" clip-rule="evenodd" d="M349.537 90.917L326.915 10.3955C304.563 16.8588 298.818 25.297 297.561 28.9774L273.863 80.145L269.554 84.454L276.825 101.151L277.176 101.132C279.741 92.104 285.926 72.288 290.829 62.9095L290.876 63.074C297.906 47.7819 314.551 18.0495 325.298 20.6289C329.518 32.209 337.633 57.9005 336.34 68.0263C334.303 69.6962 331.691 71.748 328.766 73.924C332.907 76.076 335.928 79.419 335.533 84.454C335.264 87.147 333.432 92.533 328.262 92.533H297.023C294.834 95.653 291.438 99.699 287.975 102.327C291.23 108.147 295.077 123.192 296.753 130.774V187.058L349.537 146.394V90.917Z" fill="#D4D4D4"/>
<path id="windowFrontLeft" opacity="0.7" fill-rule="evenodd" clip-rule="evenodd" d="M291.098 62.6928C298.128 47.4007 314.773 17.6685 325.52 20.2479C329.739 31.8279 337.854 57.5194 336.562 67.6452C334.525 69.3151 331.913 71.367 328.988 73.543C324.093 70.999 317.634 70.118 313.403 70.069C303.923 70.931 298.681 79.764 297.244 84.073L291.098 62.6928V62.6928Z" fill="#F1F3F4"/>
<path id="roof" opacity="0.7" d="M297.83 28.4387C279.302 23.699 206.447 18.3847 172.335 16.3201L220.271 2.58561C301.062 -3.44669 350.614 2.85491 365.156 10.1261C327.992 1.77771 299.177 20.8982 297.83 28.4387V28.4387Z" fill="#D4D4D4"/>
<path id="windShield" opacity="0.7" d="M105.279 69.9116C102.262 68.8344 102.226 65.513 102.586 63.9869L139.211 37.0566L157.523 24.3994L172.335 16.3203C220.594 17.8284 276.107 24.8482 297.83 28.1696L273.862 80.1451L269.284 84.7231C259.32 94.1491 242.085 94.5981 234.813 94.1491C161.832 86.8781 118.295 75.6571 105.279 69.9116V69.9116Z" fill="#F1F3F4"/>
<path id="hood" opacity="0.7" d="M105.817 70.1809C101.724 68.4573 102.137 65.3334 102.855 63.9868C61.921 77.9909 32.836 100.881 23.4106 110.576C12.9077 121.887 18.0245 128.35 18.0245 129.428C31.597 155.927 101.598 163.45 134.902 163.898C176.913 162.606 211.474 149.715 223.503 143.431L276.825 101.151L269.554 84.7229C258.566 93.9869 242.534 94.8669 235.891 94.1489C179.876 88.0929 125.207 78.3449 105.817 70.1809V70.1809Z" fill="#D4D4D4"/>
<path id="wheelFrontLeft" opacity="0.7" fill-rule="evenodd" clip-rule="evenodd" d="M260.666 156.627C268.835 158.243 284.15 169.931 280.056 203.755C277.722 218.118 269.5 248.136 255.28 253.307C245.047 256.808 222.91 259.663 216.231 243.074L223.503 241.188C229.427 216.861 245.155 165.891 260.666 156.627V156.627ZM251.912 233.573C257.935 234.926 265.197 225.436 268.132 212.376C271.068 199.316 268.565 187.631 262.542 186.278C256.52 184.924 249.258 194.414 246.322 207.474C243.387 220.534 245.89 232.219 251.912 233.573Z" fill="black"/>
<path id="hubcapFrontLeft" opacity="0.7" d="M251.913 233.572C257.936 234.926 265.198 225.436 268.133 212.376C271.068 199.316 268.565 187.631 262.543 186.278C256.52 184.924 249.258 194.414 246.323 207.474C243.388 220.534 245.89 232.219 251.913 233.572Z" fill="#F1F3F4"/>
<path id="wheelBackLeft" opacity="0.7" fill-rule="evenodd" clip-rule="evenodd" d="M388.586 86.8781C391.099 85.9801 396.88 85.7471 399.897 91.9941C400.974 109.23 399.573 144.67 385.354 148.548H367.042C366.144 148.189 364.349 147.202 364.349 146.124L370.812 141.277L373.505 127.812L388.586 86.8781V86.8781ZM385.512 135.358C388.573 135.976 392.504 129.308 394.291 120.464C396.078 111.62 395.045 103.949 391.983 103.33C388.922 102.712 384.991 109.38 383.204 118.224C381.417 127.068 382.45 134.739 385.512 135.358Z" fill="black"/>
<path id="hubcapBackLeft" opacity="0.7" d="M385.512 135.645C388.573 136.263 392.504 129.595 394.291 120.751C396.077 111.907 395.044 104.236 391.983 103.617C388.921 102.999 384.991 109.667 383.204 118.511C381.417 127.355 382.45 135.026 385.512 135.645Z" fill="#F1F3F4"/>
<path id="headLightRight" opacity="0.7" d="M8.04743 140.97C7.18566 120.287 18.281 111.706 23.9363 110C13.595 120.557 17.2038 128.043 19.8968 131.814C17.3115 135.692 16.6652 141.778 16.6652 144.471C15.3725 142.747 10.3814 141.419 8.04743 140.97Z" fill="#F4E8E8"/>
<path id="mirrorLeft" opacity="0.7" d="M297.928 84.5443L291.734 63C286.779 72.4795 280.513 92.6234 278 101.51C282.309 110.99 293.081 99.5355 297.928 92.6234H329.168C334.338 92.6234 336.169 87.2373 336.439 84.5443C337.301 73.5567 321.896 70.6303 314.087 70.5405C304.607 71.4023 299.365 80.2354 297.928 84.5443Z" fill="#A0A0A0"/>
</svg>
