<svg fill="none" viewBox="0 0 1005 650" xmlns="http://www.w3.org/2000/svg"><path stroke="#fff" stroke-linejoin="round" stroke-width="2" d="m203.93 83.147-42.238 2.06-58.365-5.12a4 4 0 0 1-.705-.125C84.247 74.955 76.527 71.56 72.81 65.036c-.52-.914-.54-2.016-.177-3.002L79.277 44M204.96 69.755l-29.875-2.06-24.725-3.091m0 0L148.3 44m2.06 20.604-17.116-1.007a4 4 0 0 1-.784-.124c-7.456-1.926-11.348-1.976-18.156-1.96H74.126m88.597 23.694-112.291 1.03"/><path stroke="#fff" stroke-linejoin="round" stroke-width="2" d="m195.688 44 8.241 22.664c2.384 10.57 2.962 16.52-5.796 26.358a4 4 0 0 1-.869.725l-11.501 7.078a4 4 0 0 0-1.793 2.473l-11.787 49.112a4 4 0 0 0-.056 1.591l.744 4.464c.1.603.061 1.221-.114 1.807l-2.645 8.813a4 4 0 0 0-.168 1.222l2.049 112.697m291.546-215.31-108.171-8.241-79.324-3.09c-14.414-2.576-18.195-6.47-26.785-12.363"/><path stroke="#fff" stroke-linejoin="round" stroke-width="2" d="M917.853 205.74c-1.325 3.875-7.057 5.517-28.846 7.211l-59.751 3.091c-31.431.761-46.793-1.525-71.083-9.272-17.973-5.317-34.498-11.47-95.808-38.117l-83.445-33.996c-36.68-14.987-57.451-22.357-94.778-33.996l-74.174-24.725c-25.131-7.145-24.286-8.78-1.03-8.242h55.63c30.123 2.47 46.198 4.662 74.174 9.272l64.902 13.393m-13.392 74.173c-72.887-31.122-111.007-40.379-177.193-51.509-11.213 8.352-4.562 19.793 28.845 51.509 46.701 44.128 65.758 58.851 87.567 67.993 35.135 9.653 61.943 14.105 120.532 20.604 24.461 3.4 36.854 4.045 54.253 1.089a4 4 0 0 0 .676-.177l39.319-14.115c.351-.126.687-.301.986-.524 5.66-4.243 3.926-6.384-1.487-9.968-32.555-16.878-50.663-26.335-90.361-44.165a4 4 0 0 0-.611-.218c-42.175-11.36-49.156-14.59-62.526-20.519Zm365.718 70.053c-34.477 8.478-53.996 13.404-92.717 25.755-38.405 16.14-56.434 28.868-89.627 50.48"/><path stroke="#fff" stroke-linejoin="round" stroke-width="2" d="M49.402 314.94 182 396.144q.296.181.557.412l34.766 30.675c-17.065-37.631-25.61-59.319-26.785-106.11 3.851-81.989 20.435-104.063 52.511-113.923a32.9 32.9 0 0 1 10.56-1.439c31.088.888 48.619 15.621 78.065 46.34 39.462 48.73 51.108 79.736 72.113 134.955 18.64 54.684 21.756 92.574 32.891 162.298.049.309.138.623.258.912 6.237 15.006 10.174 23.004 18.232 31.351a3.9 3.9 0 0 0 2.807 1.175h106.227c.197 0 .398-.015.593-.044 90.715-13.465 123.45-21.776 170.714-37.043 78.554-32.767 116.698-52.783 165.616-93.543.161-.135.317-.287.455-.445 17.232-19.742 25.987-31.638 31.559-58.694a4 4 0 0 0-.003-1.622l-3.797-18.035a4 4 0 0 1-.033-1.473l12.241-74.464 14.816-61.239a4 4 0 0 0-1.571-4.202l-36.939-26.246c-33.732-27.011-52.264-39.372-84.476-55.63-46.583-20.547-74.609-27.302-126.713-33.997l-54.601-14.422-46.615-11.147a4 4 0 0 1-1.417-.652l-40.564-29.409L537.712 44"/><path stroke="#fff" stroke-linejoin="round" stroke-width="2" d="m749.931 511.707 43.268-53.57c11.103-10.888 16.758-14.603 26.538-20.456.163-.097.34-.187.516-.26 39.476-16.515 57.295-26.346 86.268-44.186M262.651 52.242h-10.257a4 4 0 0 0-2.005.538l-18.363 10.63a4 4 0 0 1-.586.278c-8.501 3.182-15.129 3.66-27.51 4.005"/><path stroke="#fff" stroke-width="2" d="M318.281 240.766c-40.675 6.679-59.151 13.808-77.264 38.118-17.845 26.314-20.352 55.806-12.362 132.894 12.756 65.568 28.427 100.797 66.856 152.984 4.805 6.526 10.514 12.37 17.043 17.171 7.912 5.818 14.813 10.315 22.996 14.742a69.4 69.4 0 0 0 33.191 8.364c1.429-.005 2.839-.029 4.264-.074 6.092-.192 12.119-1.347 17.94-3.156 7.811-2.428 13.796-4.622 18.984-6.954 12.161-5.467 21.141-15.899 28.073-27.289l3.902-6.41"/></svg>