<svg fill="none" viewBox="0 0 1031 650" xmlns="http://www.w3.org/2000/svg"><path stroke="#fff" stroke-linecap="round" stroke-width="2" d="M37.226 441.597c.549 15.928 2.039 22.697 6.95 30.119 16.13 22.714 30.105 33.856 57.922 48.531m-64.872-78.65-7.951-14.767a2.998 2.998 0 0 1-.248-.613l-8.02-28.641m16.219 44.021 10.426 15.059 20.65 26.388c.134.17.286.326.453.464l25.87 21.37c.344.285.62.642.809 1.047l6.664 14.322m435.569-11.461h-4.995a2.999 2.999 0 0 1-1.488-.396l-15.527-8.872m22.01 9.268 18.239-14.819c.197-.16.415-.295.645-.4 16.186-7.371 29.842-11.02 56.414-17.217l139.012-28.961 129.744-27.802 49.812-8.109 14.705-1.132c.236-.018.472-.064.697-.139 7.655-2.527 10.761-5.237 14.718-11.472M537.667 508.786c3.445-11.627 5.993-21.807 7.606-31.278m416.38-78.773 35.911-75.298c12.576-20.349 19.716-28.763 32.436-39.387m-68.347 114.685-16.218 2.317m17.376-210.835c26.42 5.7 41.179 9.576 67.189 22.011m-67.189-22.011-11.271-18.033a2.87 2.87 0 0 0-.797-.842c-5.357-3.698-9.977-4.339-18.051-5.452m30.119 24.327 3.475 11.585c.728 4.718.041 7.113-10.425 9.267m-23.169-45.179-50.971-45.178c-28.574-22.084-44.181-31.95-72.981-45.18-38.458-15.587-59.431-20.63-96.15-25.484-43.748-4.829-72.25-6.057-128.585-5.793-2.777-.02-5.476-.043-8.109-.066M932.692 165.89l-5.792 4.634M63.87 143.88l31.277-10.426L198.248 99.86c53.821-15.573 83.589-21.599 136.694-32.436 51.621-9.898 79.962-13.746 129.744-18.535 46.463-5.5 71.123-5.054 111.21-4.7M63.87 143.88c-15.924 3.673-25.08 4.572-41.704 4.634H11a2.98 2.98 0 0 0-.823.116c-6.761 1.941-9.946 3.381-7.786 8.944.053.136.12.271.193.396l19.254 32.846c.216.369.352.788.396 1.214 1.815 17.816.752 25.6-5.801 31.849-.737.703-1.144 1.703-1.001 2.711.594 4.205 1.402 7.316 5.278 14.082.195.339.457.639.767.877l14.59 11.224M63.87 143.88c-.252 1.34-3.02 2.246-.58 4.213.366.295.824.45 1.291.505l18.982 2.233c17.538 1.148 27.031.728 42.862-3.475l61.397-17.377 96.149-28.961 106.576-26.643c46.12-10.435 72.185-15.453 119.318-22.01l66.031-8.176M36.068 252.773l-5.718 44.595c-.05.385-.173.757-.364 1.095l-14.35 25.389a3.016 3.016 0 0 0-.386 1.6c.523 13.118.781 20.237 2.283 44.322-.043 11.243.153 17.484 3.475 27.802m15.06-144.803v-1.812c0-.334.058-.674.168-.99 7.679-22.07 12.26-29.365 20.453-30.755a2.74 2.74 0 0 1 .462-.038h26.412l48.654 2.317m-96.15 31.278 12.743 6.95 9.867 5.482c.368.205.69.485.943.822l9.53 12.707c.335.446.794.794 1.314.995 20.877 8.106 32.363 9.875 52.109 11.246.248.017.504.003.748-.041 11.484-2.081 18.056-3.304 28.347-7.933.16-.072.315-.159.46-.258l43.622-29.847c.121-.082.234-.173.341-.271l29.959-27.655c2.781-2.976-1.444-3.277-10.426-3.475h-83.407M21.007 397.576l15.06 18.535 28.961 33.595 44.526 53.659c.423.51 1.004.866 1.65 1.011l91.352 20.554c.216.049.437.074.659.074h22.835m729.811-313.935 13.275 11.063c.41.341.721.786.902 1.288l9.972 27.702c.118.326.178.669.178 1.016v1.085c0 .466-.109.925-.317 1.342l-.239.478a2.998 2.998 0 0 0-.103 2.456l1.548 3.868c.177.443.246.92.201 1.395l-6.846 73.024a2.994 2.994 0 0 1-.174.764l-14.837 39.944a2.987 2.987 0 0 1-.207.444l-13.779 24.114m10.426-189.983-17.111 1.141a2.943 2.943 0 0 1-.531-.012l-17.918-1.991a3 3 0 0 1-2.669-2.981v-5.424m27.803 199.25-44.021 4.633-96.149 17.377-81.09 14.641m-167.973 36.33 33.595-11.585 46.337-9.267 85.724-15.06 2.317-.418m-167.973 36.33-10.929 3.475m10.929-3.475c1.952-21.676 1.744-32.525-1.158-49.813-6.457-26.736-11.174-41.286-31.278-62.555-16.027-14.633-25.934-20.745-44.02-27.802m65.527 143.645c4.261-25.017 1.997-45.097-7.519-73.878a3.1 3.1 0 0 0-.22-.505c-23.8-43.304-44.12-56.823-93.479-61.134a2.95 2.95 0 0 0-.441-.006c-69.981 4.119-103.895 21.843-153.85 83.394-24.133 31.876-32.793 56.17-40.81 99.625m230.792-191.141c-25.116-6.858-40.336-8.387-70.664-4.634-31.555 6.609-47.987 13.385-75.298 30.119-16.741 12.851-26.132 19.945-42.862 37.07-23.884 26.698-34.295 43.299-48.654 75.298l-16.083 51.694a3.022 3.022 0 0 0-.135.891v.703m253.696-191.141-10.426-30.119-31.277-82.249c-4.583-10.725-6.808-16.829-5.867-27.051.046-.492.219-.965.496-1.374l8.846-13.047M226.05 525.004h22.904m0 0a887.609 887.609 0 0 0-1.997 11.258c-.037.217-.098.43-.182.633-2.052 4.967-3.673 7.685-8.413 10.809a2.885 2.885 0 0 1-1.591.468h-7.246l-20.852-2.317-80.533-11.504a2.996 2.996 0 0 1-1.047-.356l-18.044-10.15a531.146 531.146 0 0 1-6.951-3.598M926.9 170.524l-9.135 29.688a2.998 2.998 0 0 0-.133.882v.708m9.268-31.278c-19.948-18.903-31.281-29.538-52.13-48.654-19.81-14.844-30.599-23.136-64.872-39.386-32.208-11.617-50.085-18.274-90.357-23.169-61.629-6.34-96.561-7.015-159.863 0-61.033 8.36-95.263 14.087-156.388 27.802-47.933 12.387-73.268 21.515-118.16 38.228m638.294 52.13c-25.064-26.015-39.425-40.205-68.347-61.397-32.727-23.45-51.338-30.094-84.565-40.545-32.554-7.129-51.048-10.561-85.724-12.743m0 0c21.029 49.708 31.863 78.893 49.445 132.107.219.661.83 1.129 1.526 1.153v0M684.788 62.79h-25.485m258.329 139.012h-18.535l-163.338-5.752m0 0-18.535-.548m-253.696-13.394 231.686 12.743 3.475.103m-235.161-12.846-22.01-2.085m22.01 2.085-23.169-92.37M659.303 62.79h-11.585c-42.443 1.172-63.917 3.59-101.942 8.11-39.588 5.889-61.835 9.24-104.258 18.534l-1.159.303M659.303 62.79c18.93 48.936 27.194 78.144 39.386 132.164m0 0 18.535.548M285.13 125.345c43.686 29.974 68.776 41.995 114.684 55.605l34.753 5.792 30.119 3.476 130.903 8.109 127.427 5.792M285.13 125.345c-38.64 13.419-59.107 23.867-94.991 44.021-23.344 17.684-36.221 28.361-57.922 52.129m590.799-17.376 142.487 4.633h50.971l-193.458-4.633Zm0 0-.9-4.503a3.002 3.002 0 0 0-1.381-1.974l-3.511-2.14m5.792 8.617 17.377 33.594 10.183 23.761c.16.374.242.776.242 1.182v50.14c0 .143-.01.29-.031.432-5.449 37.862-5.979 54.372-3.542 76.521a3.02 3.02 0 0 1-.29 1.665l-22.78 46.289m-282.657-257.68c-16.511-2.116-26.644-6.024-41.704-10.657-14.409-4.434-47.294-16.453-76.063-38.637-1.781-1.374-1.4-4.135.67-5.016 24.501-10.438 40.414-15.677 68.443-23.536l47.495-12.44"/><path stroke="#fff" stroke-width="2" d="M304.553 571.406c-10.472-12.645-17.914-25.643-26.081-43.074-4.968-10.603-8.762-21.857-9.541-33.539-.797-11.973.626-20.957 3.456-33.503 14.334-38.077 28.38-48.614 50.971-71.823 31.969-29.511 50.375-33.389 83.407-34.753 28.105-1.472 43.855 2.148 71.823 22.011 26.497 19.505 35.139 38.118 41.703 82.248.697 23.595-2.347 37.227-9.267 53.288-36.709 70.926-66.064 80.515-109.694 89.898-8.706 1.872-17.587 3.18-26.478 2.695-9.253-.504-17.982-2.109-28.848-5.673-16.076-5.271-30.66-14.745-41.451-27.775Z"/></svg>