<svg fill="none" viewBox="0 0 1005 650" xmlns="http://www.w3.org/2000/svg"><path stroke="#fff" stroke-width="2" d="m315.762 484.573-3.978-9.229m0 0c-8.652-16.795-13.286-27.116-20.856-48.372a1 1 0 0 1-.044-.168c-9.628-55.603.93-64.66 17.031-79.039 3.18-2.84 7.148-4.721 11.397-5.087 29.791-2.566 49.98 3.663 90.929 47.415 42.457 53.32 64.351 88.209 97.463 166.085 7.638 14.573 12.858 21.029 27.847 21.88l91.496 3.978c18.242.332 26.308-2.536 39.78-8.951l46.743-14.918 87.518-40.775 17.763-6.908a1 1 0 0 0 .256-.146c18.501-14.531 28.762-24.594 46.625-48.639 10.617-17.614 14.762-29.328 17.885-54.566q.016-.132.065-.255l16.793-41.487q.065-.16.072-.334l.283-6.788M311.784 475.344l-14.638-16.629M91 340.367l3.825 7.651a1 1 0 0 0 .46.454l26.545 12.78 55.693 28.841 74.589 40.776 39.628 21.795q.153.085.269.215l5.137 5.836M683.734 61.902c67.752 20.28 105.047 32.552 170.063 56.687 16.388 5.181 27.619 6.942 49.726 8.951 5.21.824 9.302 1.33 10.54 2.983m0 0c.785 1.05.422 2.561-1.534 4.908q-.055.066-.098.139c-16.945 28.866-17.466 44.11-10.943 70.351.03.121.038.251.022.375-.793 5.928-2.355 9.568-7.703 16.425a1 1 0 0 0-.214.661l.024.626m20.446-93.485-98.057 19.891-91.496 19.89m169.107 53.704c1.108 28.46.881 46.98 7.851 60.537q.067.13.094.272l4.912 25.541q.033.174.005.348l-4.303 26.678m-8.559-113.376L827.94 250.86l-34.808 9.946m-80.557 35.802c11.538-13.503 18.592-18.293 31.748-23.836q.077-.032.157-.051l41.69-9.926 6.962-1.989m-80.557 35.802-98.37 11.924a1 1 0 0 1-.175.006c-19.104-1.05-32.002-5.063-87.366-63.577a1 1 0 0 1-.113-.144l-12.88-19.814c-4.106-5.523-1.298-6.59 9.946-5.967l88.512 3.978m100.446 73.594 10.926 56.616q.015.072.039.142c8.485 24.214 15.016 37.038 31.8 57.612 9.888 13.428 14.984 16.675 31.825 10.94 32.614-12.14 50.453-21.827 81.55-43.759 16.291-13.36 24.313-21.734 33.461-40.775m-290.047-114.37 78.567-1.989 53.704-2.984c13.228-.35 19.518 2.461 28.841 11.935l18.711 22.649a1 1 0 0 1 .221.513l.959 7.668m-181.003-37.792c-5.64-18.489-8.951-28.061-14.918-44.754-11.427-32.17-44.516-48.671-95.474-78.567-57.375-27.87-82.487-34.437-129.288-48.731M900.83 358.269l.704-16.907.642-3.978m-1.346 20.885c-11.326 22.626-21.305 36.077-55.983 63.649-42.567 28.022-67.436 42.183-112.306 66.592a1 1 0 0 0-.142.094c-28.671 22.56-44.104 37.39-71.295 64.349a1.02 1.02 0 0 1-.584.286c-51.3 6.587-80.818 8.48-135.313 4.967a1.02 1.02 0 0 1-.851-.578c-32.468-68.821-50.993-107.283-94.224-163.557-36.275-39.679-50.334-55.411-93.54-65.985-7.752-1.897-15.99-1.737-23.385 1.267-32.028 13.009-36.364 36.704-28.509 89.036.152 1.011.388 2.03.695 3.005l11.753 37.321M99.95 129.529c20.62-38.01 33.893-51.87 58.677-71.606 10.631-7.086 16.396-10.47 25.858-13.923"/><path stroke="#fff" stroke-width="2" d="M502.732 100.688c-40.902 37.36-67.774 54.583-132.272 69.616-55.666 6.221-87.705 9.271-148.183 12.929l-39.781 1.85m-83.54 2.128 80.556-1.989 2.984-.139m183.986-21.741 3.902 9.755c.05.126.075.262.071.398-.429 13.68-9.643 22.206-27.627 37.403a1 1 0 0 0-.304.444l-31.7 93.121a1 1 0 0 0-.047.208l-2.971 25.751m-125.31-145.339.904-4.396a.92.92 0 0 1 .49-.638l2.689-1.344c.217-.109.138-.436-.105-.434m-3.978 6.812-21.788 54.609c-.06.15-.083.315-.066.475 2.849 27.669 6.356 44.919 17.842 80.207q.033.101.045.209l3.941 38.43c.017.164.074.321.166.458l26.712 39.573m0 0 74.365 40.653a1 1 0 0 1 .362.337l8.813 13.708m-83.54-54.698-87.444-42.729a1 1 0 0 0-.152-.059l-19.46-5.838a1 1 0 0 1-.552-.415L91 333.405m7.956-154.15 87.518-.984m0 0c4.743-.326 9.328-.634 13.764-.927M376.427 63.89c39.312 12.218 60.876 20.381 96.261 39.142a1.01 1.01 0 0 1 .239 1.601c-23.309 23.19-38.765 33.454-68.573 47.731a1 1 0 0 1-.165.062c-21.064 5.859-35.33 9.915-52.625 12.933M376.427 63.89c-29.94-9.4-46.032-11.59-74.589-15.912m74.589 15.912-24.863 101.47M220.288 45.989c-2.762.244-5.409.516-7.956.823M99.951 140.468c17.511-29.201 27.292-46.172 45.748-62.654 23.93-20.598 39.79-27.766 66.633-31.002m139.232 118.547c-6.384 1.114-13.181 2.087-20.885 2.956-32.965 3.8-65.951 4.786-129.256 8.951m10.909-130.454c-16.868 50.392-22.985 78.936-31.623 129.273a1.01 1.01 0 0 0 .984 1.181h19.73m0 0-1.185.078m28.006-131.355c-16.112 49.588-21.619 78.553-28.006 131.355m174.2 179.93c-67.714 5.163-67.423 54.055-62.655 110.392 12.252 69.207 59.6 140.844 114.37 137.244 37.649-3.363 56.252-13.037 86.524-39.781"/></svg>