<svg fill="none" viewBox="0 0 1005 650" xmlns="http://www.w3.org/2000/svg"><path stroke="#fff" stroke-linejoin="round" stroke-width="2" d="m802.07 83.147 42.238 2.06 58.365-5.12c.237-.02.476-.063.705-.125 18.375-5.007 26.095-8.402 29.812-14.926.52-.914.54-2.016.177-3.002L926.723 44M801.04 69.755l29.875-2.06 24.725-3.091m0 0L857.7 44m-2.06 20.604 17.116-1.007c.264-.016.528-.058.784-.124 7.456-1.926 11.348-1.976 18.156-1.96h40.178m-88.597 23.694 112.291 1.03"/><path stroke="#fff" stroke-linejoin="round" stroke-width="2" d="m810.312 44-8.241 22.664c-2.384 10.57-2.962 16.52 5.796 26.358.251.281.548.527.869.725l11.501 7.078a4 4 0 0 1 1.793 2.473l11.787 49.112c.125.522.144 1.063.056 1.591l-.744 4.464c-.1.603-.061 1.221.114 1.807l2.645 8.813c.118.397.175.809.168 1.222l-2.049 112.697M542.461 67.694l108.171-8.241 79.324-3.09c14.414-2.576 18.195-6.47 26.785-12.363"/><path stroke="#fff" stroke-linejoin="round" stroke-width="2" d="M88.147 205.74c1.325 3.875 7.057 5.517 28.846 7.211l59.751 3.091c31.431.761 46.793-1.525 71.083-9.272 17.973-5.317 34.498-11.47 95.808-38.117l83.445-33.996c36.68-14.987 57.451-22.357 94.778-33.996l74.174-24.725c25.131-7.145 24.286-8.78 1.03-8.242h-55.63c-30.123 2.47-46.198 4.662-74.174 9.272L402.356 90.36m13.392 74.172c72.887-31.122 111.007-40.379 177.193-51.509 11.213 8.352 4.562 19.793-28.845 51.509-46.701 44.128-65.758 58.851-87.567 67.993-35.135 9.653-61.943 14.105-120.532 20.604-24.461 3.4-36.854 4.045-54.253 1.089a4.05 4.05 0 0 1-.676-.177l-39.319-14.115a3.797 3.797 0 0 1-.986-.524c-5.66-4.243-3.926-6.384 1.487-9.968 32.555-16.878 50.663-26.335 90.361-44.165a4.27 4.27 0 0 1 .611-.218c42.175-11.36 49.156-14.59 62.526-20.519ZM50.03 234.585c34.477 8.478 53.996 13.404 92.717 25.755 38.405 16.14 56.434 28.868 89.627 50.48"/><path stroke="#fff" stroke-linejoin="round" stroke-width="2" d="M956.598 314.94 824 396.144a3.929 3.929 0 0 0-.557.412l-34.766 30.675c17.065-37.631 25.61-59.319 26.785-106.11-3.851-81.989-20.435-104.063-52.511-113.923a32.846 32.846 0 0 0-10.56-1.439c-31.088.888-48.619 15.621-78.065 46.34-39.462 48.73-51.108 79.736-72.113 134.955-18.64 54.684-21.756 92.574-32.891 162.298a4.073 4.073 0 0 1-.258.912c-6.237 15.006-10.174 23.004-18.232 31.351a3.898 3.898 0 0 1-2.807 1.175H441.798a4.06 4.06 0 0 1-.593-.044c-90.715-13.465-123.45-21.776-170.714-37.043-78.554-32.767-116.698-52.783-165.616-93.543a4.157 4.157 0 0 1-.455-.445c-17.232-19.742-25.987-31.638-31.56-58.694a3.999 3.999 0 0 1 .004-1.622l3.797-18.035c.102-.484.113-.984.033-1.473l-12.241-74.464-14.816-61.239a4.001 4.001 0 0 1 1.57-4.202l36.94-26.246c33.732-27.011 52.264-39.372 84.476-55.63 46.583-20.547 74.609-27.302 126.713-33.997l54.601-14.422 46.615-11.147a3.992 3.992 0 0 0 1.417-.652l40.564-29.409L468.288 44"/><path stroke="#fff" stroke-linejoin="round" stroke-width="2" d="m256.069 511.707-43.268-53.57c-11.103-10.888-16.758-14.603-26.538-20.456a4.084 4.084 0 0 0-.516-.26c-39.476-16.515-57.295-26.346-86.268-44.186m643.87-340.993h10.257a4 4 0 0 1 2.005.538l18.363 10.631c.187.108.383.202.586.278 8.501 3.182 15.129 3.66 27.51 4.005"/><path stroke="#fff" stroke-width="2" d="M687.719 240.766c40.675 6.679 59.151 13.808 77.264 38.118 17.845 26.314 20.352 55.806 12.362 132.894-12.756 65.568-28.427 100.797-66.856 152.984-4.805 6.526-10.514 12.37-17.043 17.171-7.912 5.818-14.813 10.315-22.996 14.742a69.374 69.374 0 0 1-33.191 8.364 151.327 151.327 0 0 1-4.264-.074c-6.092-.192-12.119-1.347-17.94-3.156-7.811-2.428-13.796-4.622-18.984-6.954-12.161-5.467-21.141-15.899-28.073-27.289l-3.902-6.41"/></svg>