<svg width="1005" height="650" viewBox="0 0 1005 650" fill="none" xmlns="http://www.w3.org/2000/svg">
<path d="M151.866 224.388L147.921 223.599C147.458 223.507 146.987 223.748 146.831 224.193C146.262 225.824 146.311 227.19 147.068 229.731C147.107 229.859 147.171 229.979 147.259 230.081C148.621 231.662 149.854 232.336 152.532 233.169L169.988 239.33C170.5 239.51 171.068 239.251 171.232 238.734C171.851 236.774 171.458 236.297 170.962 235.427C170.926 235.363 170.883 235.303 170.834 235.249C169.929 234.256 169.157 233.827 167.665 233.169L154.914 228.918C154.769 228.87 154.636 228.79 154.53 228.681C153.445 227.574 152.997 226.69 152.665 225.188C152.577 224.787 152.268 224.469 151.866 224.388Z" stroke="white" stroke-width="2"/>
<path d="M383.849 203.984L362.231 214.793L354.665 216.955L334.127 215.874M334.127 215.874H333.046M334.127 215.874L325.48 214.793L324.399 214.544M333.046 215.874L336.289 228.845M333.046 215.874C323.397 198.232 316.326 187.467 301.699 167.232L259.543 116.429C239.73 94.5324 230.121 88.2985 213.063 77.5157C190.281 66.5618 181.501 66.0061 165.503 64.5446C151.816 63.6727 144.233 64.1798 130.913 67.7873C115.406 71.6815 106.949 75.7348 92 84.0012M336.289 228.845C336.766 235.678 335.224 240.268 327.641 250.463L325.48 292.62V296.943V302.348L330.884 385.579L346.017 464.486M336.289 228.845L321.156 226.683L295.214 225.602H285.485L246.572 226.683C226.431 226.69 215.623 226.567 203.335 224.521C197.161 223.252 194.456 221.875 193.607 215.874L197.12 201.822M141.723 181.284L138.48 183.446V188.851M141.723 181.284L92 166.151M141.723 181.284L151.271 183.446M179.555 382.336L175.231 371.527L161.179 347.747V335.856L154.694 310.995L133.075 239.654L138.48 201.822V188.851M179.555 382.336L205.497 394.226L279 427.735L346.017 464.486M179.555 382.336L147.127 367.203L128.751 358.556L107.133 353.151L97.4046 350.989H93.0809M346.017 464.486L364.393 476.377M199.011 194.255C202.323 189.223 204.204 186.832 207.659 184.527L247.653 172.637C253.928 171.55 257.474 172.316 263.867 176.961L280.081 209.388L291.971 211.55H311.428L324.399 214.544M199.011 194.255L197.12 201.822M199.011 194.255L151.271 183.446M324.399 214.544C306.728 187.39 296.329 172.754 276.838 147.776C252.469 116.068 237.333 100.8 205.497 81.8394C183.921 73.4099 170.313 69.862 150.37 71.7512M139.561 73.192C120.726 76.2815 110.343 80.26 92 89.4058M139.561 73.192C134.528 112.051 133.613 135.06 135.237 178.042M139.561 73.192C143.394 72.5522 146.974 72.0729 150.37 71.7512M138.48 188.851L92 173.718M138.48 188.851L197.12 201.822M150.37 71.7512C146.473 112.367 146.425 136.659 151.271 183.446" stroke="white" stroke-width="2"/>
<path d="M912.421 298.024C900.109 320.621 887.107 336.056 854.051 360.718L800.005 405.036" stroke="white" stroke-width="2"/>
<path d="M501.67 378.013L547.069 371.527C555.013 370.666 559.799 370.476 568.687 370.446L615.167 374.77" stroke="white" stroke-width="2"/>
<path d="M901.612 399.631C879.806 433.892 862.532 452.445 819.462 483.943C812.042 492.168 807.795 497.3 800.005 507.723L782.71 532.585" stroke="white" stroke-width="2"/>
<path d="M775.144 332.614L758.93 352.071M758.93 352.071L769.739 357.475C773.199 359.61 774.674 360.877 771.901 363.961C761.084 374.148 754.405 378.597 741.635 384.498C717.256 389.138 702.461 390.786 670.294 388.822C647.237 388.992 634.349 388.733 613.005 373.689L556.797 325.048C547.377 317.224 542.93 312.442 540.583 301.267C540.029 295.835 541.07 294.064 547.069 294.782L564.364 295.863L620.572 309.915L669.213 325.048L692.994 330.452C703.548 331.837 710.094 333.387 723.26 338.019L758.93 352.071Z" stroke="white" stroke-width="2"/>
<path d="M686.508 162.909C725.775 173.451 747.907 179.819 789.196 198.579C815.154 212.153 830.392 221.872 859.456 245.059C870.909 255.767 875.582 261.38 882.155 271.001C885.764 281.447 882.682 287.387 874.589 298.024C855.567 314.387 842.951 321.993 814.057 330.452C792.948 336.764 778.233 335.32 748.121 326.128L646.514 288.296L514.641 246.14L426.005 221.279L397.901 211.55" stroke="white" stroke-width="2"/>
<path d="M646.514 153.18C646.514 153.18 616.787 165.422 594.63 171.556C563.868 179.875 546.592 183.916 515.722 189.932L447.624 202.903L397.902 211.55C369.43 200.648 333.315 165.859 259.543 90.4869C238.343 73.0024 226.048 63.8825 197.931 58.0592L165.503 55.8973C147.385 56.8617 136.675 59.1476 116.861 65.6257C106.098 70.49 101.072 73.813 92 79.6777" stroke="white" stroke-width="2"/>
<path d="M253.058 46.1689L253.011 45.17L252.993 45.1708L252.976 45.1722L253.058 46.1689ZM346.017 44.007L346.11 43.0113L346.065 43.0071L346.019 43.007L346.017 44.007ZM438.977 52.6544L439.13 51.6662L439.1 51.6615L439.069 51.6587L438.977 52.6544ZM518.965 78.5966L519.449 77.7212L519.44 77.7167L519.432 77.7124L518.965 78.5966ZM729.745 172.637L730.034 171.68L730.004 171.67L729.973 171.663L729.745 172.637ZM787.034 189.932L787.338 188.979L787.33 188.977L787.323 188.974L787.034 189.932ZM842.161 215.874L842.82 215.121L842.777 215.084L842.73 215.051L842.161 215.874ZM909.179 322.885L910.149 323.128L910.151 323.117L910.154 323.106L909.179 322.885ZM900.531 411.521L901.502 411.761L901.516 411.703L901.524 411.643L900.531 411.521ZM850.809 499.076L851.488 499.81L851.529 499.772L851.565 499.73L850.809 499.076ZM782.711 550.96L783.148 551.86L783.153 551.857L782.711 550.96ZM698.398 584.469L698.625 585.443L698.663 585.434L698.699 585.423L698.398 584.469ZM622.734 595.278L622.772 596.278L622.784 596.277L622.795 596.276L622.734 595.278ZM554.636 470.972L555.533 470.531L555.53 470.524L555.526 470.517L554.636 470.972ZM496.266 390.984L496.967 390.271L496.959 390.263L496.952 390.256L496.266 390.984ZM352.503 414.764L351.522 414.567L351.509 414.635L351.504 414.706L352.503 414.764ZM348.179 470.972L348.701 470.119L348.69 470.112L348.679 470.106L348.179 470.972ZM320.075 454.758L320.575 453.892L320.535 453.869L320.493 453.85L320.075 454.758ZM251.977 423.411L252.395 422.503L252.387 422.499L251.977 423.411ZM177.393 389.903L176.982 390.814L176.983 390.815L177.393 389.903ZM143.884 374.77L144.296 373.858L144.276 373.849L144.256 373.841L143.884 374.77ZM133.075 370.446L133.447 369.518L133.377 369.49L133.303 369.473L133.075 370.446ZM93.9131 350.435C93.6068 349.975 92.9859 349.851 92.5264 350.158C92.0668 350.464 91.9427 351.085 92.249 351.544L93.9131 350.435ZM203.335 50.4927L203.239 49.4974L203.236 49.4977L203.335 50.4927ZM366.378 479.951L367.297 479.558L366.378 479.951ZM364.933 481.21L365.454 480.357L364.933 481.21ZM595.177 596.338L595.138 595.339L595.177 596.338ZM594.316 595.907L593.493 596.474L594.316 595.907ZM908.077 349.772L909.065 349.62L908.077 349.772ZM908.081 350.046L909.073 350.168L908.081 350.046ZM409.259 352.161L409.229 353.16L409.259 352.161ZM401.794 353.022L401.53 352.058L401.794 353.022ZM905.985 335.661L905.015 335.418L905.985 335.661ZM905.966 336.056L904.978 336.208L905.966 336.056ZM875.626 253.644L876.441 253.065L875.626 253.644ZM875.723 253.761L875.003 254.455L875.723 253.761ZM118.354 372.38L118.834 373.258L118.354 372.38ZM117.505 372.44L117.864 371.506L117.505 372.44ZM104.187 367.318L103.828 368.251L104.187 367.318ZM103.714 366.939L102.882 367.494L103.714 366.939ZM912.158 291.273L911.448 291.978L912.158 291.273ZM912.45 291.909L913.447 291.831L912.45 291.909ZM646.428 153.142L646.022 154.056L646.428 153.142ZM646.606 153.202L646.834 152.228L646.606 153.202ZM582.764 571.575L581.81 571.876L582.764 571.575ZM582.728 571.418L581.738 571.563L582.728 571.418ZM607.513 135.821L606.921 136.627L607.513 135.821ZM607.7 135.929L608.106 135.016L607.7 135.929ZM253.105 47.1678C290.316 45.4213 310.688 44.9336 346.015 45.007L346.019 43.007C310.657 42.9335 290.253 43.4221 253.011 45.17L253.105 47.1678ZM345.925 45.0027L438.884 53.6501L439.069 51.6587L346.11 43.0113L345.925 45.0027ZM438.824 53.6426C472.496 58.8626 489.983 64.4173 518.498 79.4808L519.432 77.7124C490.704 62.5361 473.002 56.917 439.13 51.6662L438.824 53.6426ZM518.482 79.472C553.058 98.5669 572.423 111.286 606.921 136.627L608.104 135.015C573.551 109.634 554.113 96.8651 519.449 77.7212L518.482 79.472ZM607.293 136.843L646.022 154.056L646.834 152.228L608.106 135.016L607.293 136.843ZM646.379 154.176L729.518 173.611L729.973 171.663L646.834 152.228L646.379 154.176ZM729.456 173.594L786.745 190.889L787.323 188.974L730.034 171.68L729.456 173.594ZM786.731 190.885C796.496 193.993 803.842 196.057 811.95 199.543C820.04 203.021 828.899 207.921 841.593 216.696L842.73 215.051C829.962 206.225 820.985 201.25 812.74 197.705C804.514 194.169 797.027 192.063 787.338 188.979L786.731 190.885ZM841.503 216.626C854.811 228.275 862.124 236.382 874.811 254.224L876.441 253.065C863.677 235.115 856.262 226.887 842.82 215.121L841.503 216.626ZM875.003 254.455C888.658 268.62 895.242 275.672 911.448 291.978L912.867 290.568C896.674 274.276 890.11 267.244 876.443 253.067L875.003 254.455ZM911.453 291.987C911.749 295.765 912.046 298.47 911.723 302.703C911.399 306.954 910.447 312.761 908.203 322.664L910.154 323.106C912.404 313.175 913.382 307.254 913.717 302.855C914.054 298.439 913.74 295.573 913.447 291.831L911.453 291.987ZM908.208 322.643L905.015 335.418L906.955 335.904L910.149 323.128L908.208 322.643ZM904.978 336.208L907.088 349.924L909.065 349.62L906.955 335.904L904.978 336.208ZM907.088 349.924L899.539 411.399L901.524 411.643L909.073 350.168L907.088 349.924ZM899.56 411.282C894.064 433.552 887.744 448.319 879.797 461.002C871.834 473.712 862.226 484.356 850.053 498.422L851.565 499.73C863.69 485.72 873.427 474.937 881.492 462.064C889.574 449.165 895.966 434.192 901.502 411.761L899.56 411.282ZM850.129 498.342C812.072 533.592 799.949 541.344 782.268 550.064L783.153 551.857C801.084 543.014 813.371 535.115 851.488 499.81L850.129 498.342ZM782.273 550.061C750.967 565.3 732.572 572.644 698.098 583.515L698.699 585.423C733.265 574.522 751.753 567.142 783.148 551.859L782.273 550.061ZM698.172 583.495C674.605 588.981 660.869 591.933 622.672 594.28L622.795 596.276C661.123 593.921 674.971 590.949 698.625 585.443L698.172 583.495ZM622.695 594.279L595.138 595.339L595.215 597.338L622.772 596.278L622.695 594.279ZM595.139 595.339C589.372 586.977 586.964 581.552 583.718 571.274L581.81 571.876C585.103 582.3 587.589 587.915 593.493 596.474L595.139 595.339ZM583.717 571.272C577.652 530.086 573.54 507.139 555.533 470.531L553.738 471.413C571.606 507.74 575.683 530.441 581.738 571.563L583.717 571.272ZM555.526 470.517C537.059 434.327 524.047 416.896 496.967 390.271L495.565 391.697C522.49 418.171 535.375 435.427 553.745 471.427L555.526 470.517ZM496.952 390.256C480.28 374.523 466.911 364.982 453.404 359.261C439.888 353.537 426.311 351.67 409.289 351.161L409.229 353.16C426.137 353.665 439.433 355.516 452.624 361.103C465.823 366.693 478.992 376.057 495.579 391.711L496.952 390.256ZM401.53 352.058C386.127 356.262 375.547 362.005 367.849 371.739C360.18 381.436 355.466 394.979 351.522 414.567L353.483 414.961C357.413 395.444 362.054 382.291 369.418 372.98C376.752 363.706 386.88 358.13 402.057 353.987L401.53 352.058ZM351.504 414.706C350.173 437.525 353.527 452.492 365.459 480.345L367.297 479.558C355.442 451.886 352.193 437.236 353.501 414.822L351.504 414.706ZM365.454 480.357L348.701 470.119L347.658 471.825L364.411 482.063L365.454 480.357ZM348.679 470.106L320.575 453.892L319.575 455.624L347.679 471.838L348.679 470.106ZM320.493 453.85L252.395 422.503L251.559 424.32L319.657 455.667L320.493 453.85ZM252.387 422.499L177.803 388.991L176.983 390.815L251.567 424.323L252.387 422.499ZM177.805 388.991L144.296 373.858L143.473 375.681L176.982 390.814L177.805 388.991ZM144.256 373.841L133.447 369.518L132.704 371.375L143.513 375.698L144.256 373.841ZM133.303 369.473C130.116 368.726 127.602 368.471 125.184 368.805C122.765 369.139 120.526 370.051 117.874 371.503L118.834 373.258C121.385 371.861 123.38 371.073 125.458 370.786C127.536 370.499 129.782 370.702 132.847 371.42L133.303 369.473ZM117.864 371.506L104.546 366.384L103.828 368.251L117.146 373.373L117.864 371.506ZM104.546 366.384L93.9131 350.435L92.249 351.544L102.882 367.494L104.546 366.384ZM252.976 45.1722C234.881 46.6597 226.172 47.2743 203.239 49.4974L203.432 51.4881C226.346 49.2668 235.037 48.6536 253.14 47.1655L252.976 45.1722ZM203.236 49.4977C186.389 51.1773 178.452 52.4436 165.318 54.9146L165.688 56.8801C178.771 54.4187 186.65 53.1612 203.435 51.4878L203.236 49.4977ZM365.459 480.345C365.462 480.352 365.463 480.356 365.463 480.357C365.464 480.359 365.464 480.359 365.463 480.357C365.463 480.354 365.464 480.349 365.464 480.345C365.465 480.342 365.466 480.342 365.464 480.345C365.463 480.347 365.46 480.351 365.455 480.355C365.451 480.359 365.447 480.361 365.445 480.362C365.443 480.363 365.444 480.362 365.448 480.362C365.45 480.361 365.453 480.361 365.456 480.361C365.459 480.362 365.461 480.362 365.463 480.362C365.465 480.363 365.466 480.363 365.465 480.363C365.464 480.362 365.46 480.361 365.454 480.357L364.411 482.063C366.089 483.089 368.06 481.337 367.297 479.558L365.459 480.345ZM595.138 595.339C595.141 595.339 595.141 595.339 595.14 595.339C595.139 595.338 595.139 595.338 595.139 595.339L593.493 596.474C593.88 597.036 594.531 597.364 595.215 597.338L595.138 595.339ZM907.088 349.924L909.073 350.168C909.096 349.986 909.093 349.801 909.065 349.62L907.088 349.924ZM409.289 351.161C406.684 351.084 404.058 351.368 401.53 352.058L402.057 353.987C404.38 353.353 406.808 353.088 409.229 353.16L409.289 351.161ZM905.015 335.418C904.95 335.677 904.938 335.945 904.978 336.208L906.955 335.904L905.015 335.418ZM874.811 254.224C874.869 254.305 874.934 254.383 875.003 254.455L876.443 253.067C876.443 253.067 876.443 253.067 876.442 253.066C876.441 253.065 876.441 253.064 876.441 253.065L874.811 254.224ZM117.874 371.503C117.87 371.505 117.867 371.506 117.864 371.506C117.862 371.506 117.862 371.506 117.864 371.506L117.146 373.373C117.703 373.588 118.321 373.538 118.834 373.258L117.874 371.503ZM104.546 366.384L102.882 367.494C103.111 367.838 103.442 368.102 103.828 368.251L104.546 366.384ZM911.448 291.978C911.448 291.977 911.448 291.977 911.449 291.979C911.449 291.98 911.451 291.982 911.451 291.984C911.452 291.986 911.453 291.988 911.453 291.988C911.453 291.989 911.453 291.989 911.453 291.987L913.447 291.831C913.41 291.355 913.2 290.904 912.867 290.568L911.448 291.978ZM646.022 154.056C646.137 154.107 646.256 154.147 646.379 154.176L646.834 152.228L646.022 154.056ZM583.718 571.274C583.718 571.275 583.718 571.274 583.717 571.273C583.717 571.272 583.717 571.271 583.717 571.272L581.738 571.563C581.754 571.669 581.778 571.775 581.81 571.876L583.718 571.274ZM606.921 136.627C607.035 136.711 607.161 136.784 607.293 136.843L608.106 135.016C608.107 135.016 608.107 135.016 608.106 135.016C608.105 135.015 608.105 135.015 608.104 135.015L606.921 136.627Z" fill="white"/>
<path d="M515.722 411.514C500.949 399.919 490.282 395.666 466 393.138C405.108 393.138 367.636 413.316 367.636 474.208C367.636 535.099 428.888 605 489.78 605C540.542 605.701 559.564 597.378 582.74 572.572" stroke="white" stroke-width="2"/>
</svg>
