<svg fill="none" viewBox="0 0 782 303" xmlns="http://www.w3.org/2000/svg"><path stroke="#fff" stroke-linecap="round" stroke-width="2" d="m733.919 269.98 8.058-12.893a1.01 1.01 0 0 0 .096-.202c4.737-13.622 5.82-22.122 3.221-39.595a1.044 1.044 0 0 0-.032-.145c-6.42-21.214-12.543-29.675-25.955-41.328-18.163-12.649-30.619-17.175-60.069-17.047-18.388 2.113-29.071 4.804-50.329 18.671-10.796 8.766-17.111 15.778-24.1 27.082-4.138 6.692-6.916 14.117-8.854 21.742l-9.049 35.592a1 1 0 0 1-1.049.75l-19.453-1.556-50.328-3.247-107.151-2.435-97.41-1.624-55.938.811a.976.976 0 0 0-.144.012l-20.142 3.223a.89.89 0 0 0-.158.039l-8.939 2.979a1 1 0 0 1-1.148-.394l-2.823-4.235-3.247-14.611c-5.472-19.194-9.5-30.405-17.251-43.126-2.971-4.876-6.67-9.279-10.831-13.188-18.63-17.503-32.137-24.369-52.279-27.702-5.913-.979-11.949-1.064-17.911-.456-20.418 2.082-32.248 6.414-44.596 23.591-11.42 18.525-13.484 31.298-.744 61.568.311.739-.32 1.542-1.098 1.351-3.275-.803-5.446-1.952-8.647-4.424a1.141 1.141 0 0 0-.134-.088l-26.399-14.399a1.01 1.01 0 0 1-.453-.515 3247.13 3247.13 0 0 1-11.198-28.797 1.03 1.03 0 0 1-.049-.173l-5.615-29.682a1.002 1.002 0 0 1 .04-.519l4.71-13.345a1.01 1.01 0 0 0 .053-.412l-2.418-30.635c-1.507-9.8-2.065-15.261-.885-23.832a.992.992 0 0 1 .542-.753c2.573-1.265 4.343-1.94 7.419-2.94a1.01 1.01 0 0 0 .4-.245l2.02-2.02a.995.995 0 0 0 .286-.587c.398-3.381.438-5.323-.027-8.487a1.04 1.04 0 0 1-.01-.2c.205-4.001.362-5.86.708-7.557a.974.974 0 0 1 .523-.673c7.542-3.751 11.996-4.589 19.759-6.257a1.01 1.01 0 0 0 .214-.072l12.073-5.635 35.717-14.61 49.517-17.859 47.893-12.176L247.681 5.35c23.57-2.056 36.845-3.067 60.881-4.06C328.2.72 339.211.857 358.89 2.915l36.214 4.995a147.004 147.004 0 0 1 21.393 4.595l30.874 9.08 34.905 13.8 34.905 17.047 45.954 25.354c.74.408 1.571.622 2.416.622h2.299c.314 0 .627.03.935.088l16.583 3.16 41.4 8.928 52.763 15.424 38.964 12.988c12.202 5.282 19.289 8.773 32.47 16.235l20.848 14.433a1 1 0 0 1 .368.471l4.76 12.695 2.407 8.825c.019.069.03.141.034.213l1.612 32.237c.004.083-.002.165-.018.246l-4.806 24.028a.987.987 0 0 0 .003.405l2.295 10.71c.061.287-.006.586-.185.819l-7.715 10.029a.985.985 0 0 1-.293.256l-20.933 12.077-15.423 7.306Zm0 0h-2.992a1 1 0 0 1-.479-.122l-8.706-4.748"/><path fill="#fff" d="M758.333 142.385a.999.999 0 1 1 1.499-1.323l-1.499 1.323Zm12.926 13.138.75-.661c.138.156.223.352.245.559l-.995.102Zm-3.247 2.436.024.999a.965.965 0 0 1-.251-.026l.227-.973Zm-12.176-5.683.53-.848a.146.146 0 0 0 .013.009l-.543.839Zm-25.976-16.235.514-.857.016.009-.53.848Zm-12.177-7.305-.514.857a1.011 1.011 0 0 1-.087-.058l.601-.799Zm-7.305-6.494-.781.625a1 1 0 0 1 1.023-1.596l-.242.971Zm22.729 5.682.242-.97c.044.011.087.025.129.041l-.371.929Zm12.547 3.942a1 1 0 1 1-.743 1.857l.743-1.857Zm-4.43 21.222-.299-.954.137-.043.144-.003.018 1Zm18.608-12.026 12.177 13.8-1.5 1.323-12.176-13.8 1.499-1.323Zm12.422 14.359c.06.586.046 1.148-.117 1.653-.174.538-.5.962-.963 1.26-.432.278-.935.417-1.434.497-.504.08-1.081.112-1.704.127l-.049-1.999c.602-.015 1.07-.045 1.437-.103.373-.06.567-.139.667-.203a.31.31 0 0 0 .142-.192c.044-.136.077-.388.031-.836l1.99-.204Zm-16.948-2.297-25.976-16.235 1.06-1.696 25.976 16.235-1.06 1.696Zm-25.961-16.225-12.176-7.306 1.029-1.715 12.176 7.306-1.029 1.715Zm-12.263-7.364c-3.636-2.737-5.522-4.219-7.485-6.668l1.561-1.251c1.786 2.23 3.481 3.577 7.127 6.321l-1.203 1.598Zm-6.462-8.264 22.729 5.683-.485 1.94-22.729-5.682.485-1.941Zm22.858 5.724 12.176 4.871-.743 1.857-12.176-4.871.743-1.857Zm34.307 31.937c-4.67-1.089-7.401-2.552-11.677-5.29l1.079-1.685c4.183 2.679 6.695 4.011 11.052 5.028l-.454 1.947Zm-11.677-5.29-.816-.526 1.087-1.679c.276.179.545.352.808.52l-1.079 1.685Zm.558.157-15.423.289-.037-2 15.423-.288.037 1.999Zm-15.142.243-28.411 8.929-.6-1.908 28.412-8.929.599 1.908Z"/><path stroke="#fff" stroke-linejoin="round" stroke-width="2" d="M577.251 80.842c4.046.838 6.546 1.444 10.46 3.79 1.115.669 2.006 1.798 1.892 3.094-.201 2.29-2.071 3.572-5.858 5.293m0 0-9.087-1.947a5 5 0 0 0-4.117.942l-4.79 3.726a5.008 5.008 0 0 1-1.489.797l-.931.31a5.003 5.003 0 0 1-1.42.254l-17.942.579m39.776-4.661L697.39 112.5M537.475 97.889h-12.176m12.176 0 6.494-.21m-6.494.21-27.6-22.729m15.424 22.73-6.123-13.011a5.007 5.007 0 0 0-.988-1.407l-8.313-8.312m15.424 22.73c-1.896 1.243-5.33 1.723-12.988 2.434l-15.423.812c-5.824-.111-8.339-.289-11.365-.812m24.352-25.164c-6.198-1.54-8.502-1.151-12.176 0m12.176 0-15.508-10.553m3.332 10.553c-3.314 2.071-5.256 3.553-8.181 7.172a4.816 4.816 0 0 0-.973 2.128l-3.022 15.864m12.176-25.164-3.332-10.553m-8.844 35.717.406 2.842m-.406-2.842-17.047-.811-86.857-3.247-62.505-4.06m231.349 12.989h-25.164l-13.8.812-12.988.811-9.313-.62a3.54 3.54 0 0 1-3.269-3.032m64.534 2.029-6.494-7.515m6.494 7.515 6.057 9.085c.289.435.511.917.652 1.42 4.467 16.011 5.292 25.22 5.467 41.447l-1.611 47.523a5.12 5.12 0 0 1-.08.74c-4.27 23.212-6.556 32.922-10.485 46.712M543.969 97.68l-16.235-14.402c-11.061-8.98-17.006-13.053-27.599-20.294-16.43-10.343-25.66-15.774-42.211-23.54-18.482-9.684-29.085-12.503-47.894-18.671-21.016-6.543-32.975-8.332-54.387-10.553-14.801-1.24-14.915-2.392-65.752-1.623-26.326 1.262-40.961 2.449-66.563 6.494l-51.14 9.74-34.906 9.742-47.893 17.046m0 0L46.367 73.537 14.708 93.83M89.39 51.62l20.767 15.175c.225.165.464.31.714.435l15.397 7.699c.308.154.63.275.963.363l21.092 5.55M14.708 93.83l-3.247-.811m3.247.811 13.239.414c4.543.142 6.555 5.782 3.127 8.768L15.52 116.559l-4.15 2.767a4.996 4.996 0 0 1-1.56.69l-5.654 1.414m488.673-61.693 1.538 4.87m56.096 187.515-136.374-8.118-77.928-2.435m214.302 10.553 18.67 1.623m-232.972-12.176-91.728-1.624-38.152 1.624m129.88 0 1.624-30.035c-1.371-35.004-4.017-51.142-8.93-79.551l-8.929-36.461M206.281 241.569h-7.306m7.306 0c-5.165-20.58-8.538-31.461-17.858-46.27-10.155-12.536-15.492-19.716-30.847-30.035-7.099-5.075-10.977-6.927-17.858-9.741m179.396-63.316.812 3.315m-.812-3.315-13.799-1.168m-139.621-11.82-15.424-1.624m15.424 1.624 139.621 11.82m-139.621-11.82-2.436-46.27M150.27 77.595c-27.642-7.877-38.985-13.116-44.989-24.261-.265-.492-.047-1.105.457-1.346 23.729-11.319 35.883-13.939 57.52-19.039M150.27 77.595l-1.948 3.247m-8.604 74.681-4.059-12.176-3.247-16.235-2.23-27.505a5 5 0 0 1 1.715-4.188l15.331-13.24a5.019 5.019 0 0 0 1.02-1.212l.074-.125m-8.604 74.681c-12.134-3.9-18.979-5.98-32.47-6.494-14.796.788-23.016 2.19-37.34 8.93-9.732 5.928-15.18 9.282-23.541 21.917-5.382 7.876-7.724 13.97-10.553 27.599-.635 8.225-.33 12.978 2.435 21.918m0 0 5.195 1.298a4.996 4.996 0 0 0 2.586-.043l4.395-1.255m-12.176 0-8.495-2.832a5 5 0 0 1-2.127-1.389l-14.542-16.073M148.322 80.842l105.041 9.741 66.563 4.939m0 0 42.211 2.367 55.199 3.247 68.593 2.03M312.62 13.467l20.294 78.74m-20.294-78.74h-17.858m17.858 0c39.187-.846 61.212 1.68 100.657 12.988 22.492 6.81 34.783 12.339 56.823 23.54 10.154 5.669 15.626 8.86 24.267 14.612M305.315 91.04l-10.553-77.572m0 0c-56.241 2.584-84.946 6.83-131.504 19.482m-8.929 75.493h6.242c1.209 0 2.355.47 3.336 1.176 1.767 1.271 3.468 1.845 6.657 2.071l18.924 1.514c.897.072 1.791.347 2.457.951 1.091.991.621 1.452-2.711 1.594l-24.352-1.624-5.567-.696a4.47 4.47 0 0 1-1.742-.575c-2.023-1.203-2.824-2.257-3.244-4.411Zm189.95 11.364h6.241c1.21 0 2.355.47 3.337 1.177 1.766 1.271 3.467 1.844 6.657 2.07l18.924 1.514c.896.072 1.79.348 2.456.952 1.091.99.621 1.452-2.71 1.593l-24.353-1.623-5.566-.696a4.508 4.508 0 0 1-1.743-.575c-2.022-1.204-2.823-2.258-3.243-4.412Z"/><circle cx="657.614" cy="231.016" r="70.434" stroke="#fff" stroke-width="2"/><circle cx="123.483" cy="227.769" r="62.316" stroke="#fff" stroke-width="2"/></svg>