<svg fill="none" viewBox="0 0 1005 754" xmlns="http://www.w3.org/2000/svg"><path stroke="#fff" stroke-width="2" d="M711.046 587.509v42.183c-45.127 1.962-149.898 5.886-207.974 5.886m279.587-85.348v36.298"/><path stroke="#fff" stroke-width="2" d="M773.83 660.104c3.924-2.616 11.772-9.614 11.772-16.677v-52.975c0-2.943-1.962-3.924-4.905-3.924H502.091m-272.72 73.576c-3.924-2.616-11.772-9.614-11.772-16.677v-52.975c0-2.943 1.962-3.924 4.905-3.924H501.11m414.969-257.024c-31.066-45.126-114.386-158.138-199.145-249.175-165.594-3.14-213.535-3.27-214.843-2.944"/><path stroke="#fff" stroke-width="2" d="M90.068 329.631c31.066-45.127 114.386-158.139 199.145-249.176 165.594-3.14 212.551-3.396 213.859-3.07m409.08 280.569L773.83 382.479l-271.739 4.905"/><path stroke="#fff" stroke-width="2" d="m93.992 357.954 138.322 24.525 271.739 4.905m410.061 131.454-21.582 156.961h-94.177l-24.525-15.696h-72.594l-10.791-3.924H503.072M90.068 518.838l21.582 156.961h94.177l24.525-15.696h72.594l10.792-3.924H501.11"/><path stroke="#fff" stroke-width="2" d="m878.797 519.819 35.317-.981c0 4.905-4.905 11.609-35.317 16.677-28.253 4.709-75.21 11.773-95.157 14.716l-281.549 2.943m-376.707-33.355-35.316-.981c0 4.905 4.905 11.609 35.316 16.677 28.253 4.709 75.211 11.773 95.158 14.716l281.549 2.943m412.023-200.126 5.886 3.924-1.962 136.36-22.563 10.791M92.03 353.048l-5.886 3.924 1.962 136.36 22.563 10.791"/><path stroke="#fff" stroke-linecap="round" stroke-width="2" d="m503.072 367.763 271.739-3.924 141.265-34.335-3.924 34.335-135.379 29.43-273.701 2.943"/><path stroke="#fff" stroke-linecap="round" stroke-width="2" d="m503.072 367.763-271.739-3.924-141.265-34.335 3.924 34.335 135.379 29.43 273.701 2.943m273.701-1.961 3.924 127.531 114.778-17.658 16.677-140.284"/><path stroke="#fff" stroke-width="2" d="M878.798 507.066v15.697l-98.101 15.696-277.625 2.943m-377.688-34.336v15.697l98.101 15.696 278.606 2.943"/><path stroke="#fff" stroke-linecap="round" stroke-width="2" d="m229.371 394.251-3.924 127.531-114.778-17.658L93.992 363.84m686.705 157.942-277.625 1.962m-278.606-1.962 277.625 1.962"/><path stroke="#fff" stroke-width="2" d="M856.235 247.1H150.891m635.692 395.346 113.797-23.545m-607.244-31.392v42.183c45.127 1.962 149.898 5.886 207.974 5.886M221.523 550.23v36.298m-3.924 55.918-113.797-23.545m559.174-95.157v15.696m-319.808-15.696v15.696"/></svg>