<svg fill="none" viewBox="0 0 1005 754" xmlns="http://www.w3.org/2000/svg"><g clip-path="url(#a)"><mask id="b" width="1041" height="617" x="64" y="94" maskUnits="userSpaceOnUse" style="mask-type:alpha"><path stroke="#fff" stroke-width="2" d="M69.762 349.687c-.298-6.168.347-21.491 5.308-33.447 65.337-31.142 103.164-49.957 113.91-55.472l1.675-.157M69.762 349.687l-.838.078.158 1.675.393 4.187m.287-5.94c61.368 27.354 196.64 39.827 256.606 42.645l157.724-20.725M190.655 260.611c100.303-47.435 304.762-142.669 320.171-144.115 19.261-1.809 241.181-22.648 299.593-21.374M190.655 260.61l389.485 25.098M810.419 95.122c-23.118 10.027-134.472 105.81-230.279 190.587M810.419 95.122c12.607 2.054 65.955 12.007 142.848 36.76m149.853 57.408c-7.19 60.151-11.52 96.265-12.78 106.803l-13.53 8.873m26.31-115.676L747.981 293.886M1103.12 189.29c-55.4-24.696-106.39-43.416-149.853-57.408m123.543 173.084 13.48-.42 1.83 1.517-9.6 23.712-5.68 11.516-1.33-14.237 1.36-3.507.13-7.615-6.03-55.192-30.28 10.446m36.12 33.78-4.4-46.896-.16-1.675-7.04-12.011-3.51-1.36-38.49 12.907m17.48 15.255-1.99-3.192-15.49-12.063m17.48 15.255c-3.99 12.956-13.11 44.908-23.44 86.683m-9.46 39.75c.19 2.01.29 3.071.31 3.35l-6.51 38.628-3.268 1.152-11.544-14.967-32.947 9.007-208.037 105.707-17.975 24.498 18.332-83.669-41.392-116.922m303.031 33.216a2308 2308 0 0 1 9.46-39.75m-9.46 39.75-4.87 2.147-14.235 1.337-14.453-.97m-269.473-35.73-117.316 37.206m117.316-37.206 2.04-5.261m-119.356 42.467-54.468 121.699-38.05 8.642m92.518-130.341-4.659-4.632-32.951-18.026M494.925 531.95l.786 8.375 23.791 10.438m-24.577-18.813-5.862.551m30.439 18.262-9.774 93.848-1.596.995-7.085 50.509-4.187.393-49.019-18.207-23.374-23.994-59.957-8.732c-57.856-10.337-194.216-45.8-276.819-104.953-3.978-6.385-16.178-37.342-18.64-45.56-1.969-6.573-3.195-16.033-3.562-19.941m454.013 75.642c-5.426 2.199-24.029 6.818-55.035 7.702-31.007.884-99.282-1.659-129.543-3.042-160.977-22.901-251.636-61.697-269.435-80.302m0 0c.645-5.129 4.075-17.786 12.636-27.376m0 0c-2.243-16.685-8.148-59.78-10.82-79.242m10.82 79.242.63 6.7c50.063 36.526 199.609 65.456 268.125 75.356M67.305 368.503c-.158-1.674.056-6.594 2.17-12.876m-2.17 12.876c43.698 26.311 189.749 44.418 257.313 50.182M69.475 355.627l1.31 4.946c25.648 12.235 112.987 39.066 257.155 48.507 55.858-2.542 127.752-6.927 156.717-8.802m-.565-28.671c26.123-23.632 59.984-53.985 96.048-85.898m-96.048 85.898 263.889-77.721m-263.889 77.721.565 28.671m95.483-114.569 13.963 24.879m0 0 151.336-43.78m-151.336 43.78c2.666-2.656 5.505-5.474 8.501-8.436m142.835-35.344 2.542 27.078m-2.542-27.078c-4.02.377-12.092-2.807-15.625-4.447m15.625 4.447 95.31-10.64c7.816-.733 24.039-3.102 26.405-6.703s4.875-8.061 5.834-9.841l-.708-7.537m88.233-86.009c-100.838-30.237-132.452-34.027-145.328-36.197a298 298 0 0 0-5.393 3.885m143.475 18.116 30.337 71.165m0 0-111.324 29.04m111.324-29.04-11.201-2.327-104.434 27.548m4.311 3.819c-.261-.592-1.469-1.996-4.311-3.819m-118.921 22.994 18.581-.055.809-9.369c5.425-11.21 16.985-35.05 19.831-40.724s10.014-4.319 13.242-2.933c16.642 7.302 49.4 21.747 59.95 26.65m-112.413 26.431c-2.345-18.973-8.073-60.78-12.226-76.219m12.226 76.219c-2.792.262-9.851 1.263-15.754 3.169-5.904 1.906-4.78 6.081-3.48 7.93m7.008-87.318c-47.703 42.869-100.714 93.983-134.218 127.109m134.218-127.109c27.747-24.936 53.699-47.083 72.97-61.277M602.604 302.152l127.21-39.791m138.155-34.093a42 42 0 0 0-3.855-2.173c-.57-.286-1.473-.715-2.653-1.264m-51.669-111.065c7.598 1.206 18.888 3.242 32.515 6.046m19.154 105.019 25.576-6.536m-26.078-94.471c27.696 6.212 61.09 14.827 92.253 25.474 2.697 10.73 8.379 26.248 13.852 48.544l-80.027 20.453m-26.078-94.471c5.077 10.986 17.402 45.259 26.078 94.471m-26.078-94.471a1089 1089 0 0 0-18.652-4.012m0 0c4.768 9.873 16.502 44.583 25.285 104.444m155.618 31.675-27.57 102.278m0 0-16.56 39.572-4.848 2.352m21.408-41.924 18.42-1.73 3.19 1.39m-310.451 1.273 41.865 121.947-7.14 31.929 232.708-112.885m-267.433-40.991-11.178-20.07-2.669-1.439-143.119 41.318m0 0-60.77 153.55m0 0-1.832-1.518m0 0-2.508-127.332m2.508 127.332-140.351-1.182m137.777-129.523.066 3.373m0 0-160.105 15.034m0 0 22.262 111.116"/><path stroke="#fff" stroke-width="2" d="m748.032 294.443-5.444 166.941m137.88-241.048 14.866 5.362 4.714 23.212-11.255 159.039-14.728 41.089m110.454-245.232 7.592 17.873-13.273 146.556-16.638 38.734m-294.726 9.63c21.001 4.355 36.913 24.407 45.472 53.806 8.544 29.35 9.661 67.751 1.267 108.228s-24.69 75.266-44.201 98.798c-19.543 23.571-42.117 35.642-63.118 31.286-21.001-4.355-36.912-24.407-45.471-53.805-8.544-29.35-9.661-67.752-1.267-108.228s24.69-75.267 44.201-98.799c19.543-23.57 42.116-35.641 63.117-31.286Z"/></mask><g mask="url(#b)"><path fill="#D9D9D9" d="M955 32.447H7v730h948z"/></g></g><defs><clipPath id="a"><path fill="#fff" d="M1005 0H0v754h1005z"/></clipPath></defs></svg>