<svg fill="none" viewBox="0 0 1005 754" xmlns="http://www.w3.org/2000/svg"><path stroke="#fff" stroke-width="2" d="m742.682 125.644-475.528-1.786m608.461 67.847-14.275-8.928h-32.118l-102.6-50.884H502.687"/><path stroke="#fff" stroke-width="2" d="m264.16 125.644 474.686-1.786m-607.384 67.847 14.249-8.928h32.062l102.418-50.884H503.73M937 190.628c-46.638-17.2-148.291-53.734-181.799-62.274-41.885-10.676-42.776-15.124-100.702-16.903-46.341-1.424-120.308-2.373-151.499-2.669"/><path stroke="#fff" stroke-width="2" d="M70.077 190.628c46.638-17.2 148.291-53.734 181.799-62.274 41.885-10.676 42.776-15.124 100.702-16.903 46.341-1.424 120.308-2.373 151.499-2.669m134.615 470.615-18.747 51.011L503 632.167m420.373-131.27-266.296 2.654m0 0-25.828-7.076-10.687 45.993 20.484 16.806m16.031-55.723v3.538m-16.031 52.185L503 560.158m138.046-.884 16.031-52.185m0 0 268.077-1.769M503 577.848c83.125 1.18 279.477.885 399.888-9.729"/><path stroke="#fff" stroke-width="2" d="m368.385 579.397 18.747 51.011 116.945 1.759M83.705 500.897 350 503.551m0 0 25.828-7.076 10.687 45.993-20.484 16.806M350 503.551v3.538m16.031 52.185 138.046.884m-138.046-.884L350 507.089m0 0L81.923 505.32m422.154 72.528c-83.124 1.18-279.476.885-399.888-9.729m781.76-98.568v7.128m0 0h-10.692m10.692 0 36.532 23.168 2.673 5.346-22.276 63.265-81.082 17.821-17.82 47.226h-4.455c-57.025 3.862-196.379 11.584-297.598 11.584"/><path stroke="#fff" stroke-width="2" d="M118.974 469.551v7.128m0 0h10.692m-10.692 0-36.532 23.168-2.673 5.346 22.276 63.265 81.082 17.821 17.82 47.226h4.455c57.025 3.862 196.379 11.584 297.598 11.584M136.846 245.551l-3.23-54.923m1.312 54.458-3.563-54.343m739.424 54.343 3.564-54.343M74.384 245.551h857.231m-857.23 9.693h857.23m4.302-64.693-21.229 267.231H91.311L70.083 190.551z"/><path stroke="#fff" stroke-width="2" d="m912.808 468.551 1.506-10.923H91.686l1.506 10.923zm-780.346 2h742.154v24.923H132.462z"/></svg>