<svg fill="none" viewBox="0 0 1005 754" xmlns="http://www.w3.org/2000/svg"><g clip-path="url(#a)"><mask id="b" width="1041" height="617" x="-100" y="94" maskUnits="userSpaceOnUse" style="mask-type:alpha"><path stroke="#fff" stroke-width="2" d="M935.238 349.687c.298-6.168-.347-21.491-5.307-33.447-65.338-31.142-103.165-49.957-113.911-55.472l-1.675-.157m120.893 89.076.837.078-.157 1.675-.393 4.187m-.287-5.94c-61.368 27.354-196.64 39.827-256.606 42.645l-157.724-20.725m293.437-110.996c-100.303-47.435-304.762-142.669-320.171-144.115-19.261-1.809-241.181-22.648-299.593-21.374M814.345 260.61 424.86 285.709M194.581 95.122c23.118 10.027 134.472 105.81 230.279 190.587M194.581 95.122c-12.607 2.054-65.955 12.007-142.847 36.76M-98.121 189.29c7.192 60.151 11.517 96.265 12.78 106.803l13.53 8.873m-26.31-115.676 355.14 104.596M-98.121 189.29c55.404-24.696 106.39-43.416 149.854-57.408M-71.812 304.966l-13.477-.42-1.832 1.517 9.6 23.712 5.678 11.516 1.336-14.237-1.36-3.507-.13-7.615 6.028-55.192 30.277 10.446m-36.12 33.78 4.404-46.896.157-1.675 7.042-12.011 3.507-1.36 38.494 12.907m-17.484 15.255 1.99-3.192 15.494-12.063m-17.484 15.255c3.99 12.956 13.113 44.908 23.444 86.683m9.46 39.75-.315 3.35 6.51 38.628 3.271 1.152 11.544-14.967 32.947 9.007 208.037 105.707 17.975 24.498-18.332-83.669 41.392-116.922m-303.03 33.216a2314 2314 0 0 0-9.46-39.75m9.46 39.75 4.868 2.147 14.236 1.337 14.453-.97m269.473-35.73 117.316 37.206m-117.316-37.206-2.04-5.261m119.356 42.467 54.468 121.699 38.05 8.642m-92.518-130.341 4.659-4.632 32.951-18.026m54.908 152.999-.786 8.375-23.791 10.438m24.577-18.813 5.862.551m-30.439 18.262 9.774 93.848 1.596.995 7.085 50.509 4.187.393 49.019-18.207 23.374-23.994 59.957-8.732c57.856-10.337 194.216-45.8 276.819-104.953 3.979-6.385 16.179-37.342 18.64-45.56 1.969-6.573 3.195-16.033 3.562-19.941m-454.013 75.642c5.426 2.199 24.029 6.818 55.035 7.702 31.007.884 99.282-1.659 129.543-3.042 160.977-22.901 251.636-61.697 269.435-80.302m0 0c-.645-5.129-4.075-17.786-12.636-27.376m0 0c2.243-16.685 8.148-59.78 10.82-79.242m-10.82 79.242-.629 6.7c-50.064 36.526-199.61 65.456-268.126 75.356m279.575-161.298c.157-1.674-.056-6.594-2.17-12.876m2.17 12.876c-43.698 26.311-189.749 44.418-257.313 50.182m255.143-63.058-1.309 4.946c-25.649 12.235-112.988 39.066-257.156 48.507-55.858-2.542-127.752-6.927-156.717-8.802m.565-28.671c-26.123-23.632-59.984-53.985-96.048-85.898m96.048 85.898-263.889-77.721m263.889 77.721-.565 28.671M424.86 285.709l-13.963 24.879m0 0-151.336-43.78m151.336 43.78a3134 3134 0 0 0-8.501-8.436m-142.835-35.344-2.542 27.078m2.542-27.078c4.02.377 12.092-2.807 15.625-4.447m-15.625 4.447-95.31-10.64c-7.816-.733-24.039-3.102-26.405-6.703s-4.875-8.061-5.834-9.841l.708-7.537m-88.233-86.009c100.838-30.237 132.452-34.027 145.328-36.197a298 298 0 0 1 5.393 3.885M51.734 131.882l-30.338 71.165m0 0 111.324 29.04m-111.324-29.04 11.201-2.327 104.434 27.548m-4.311 3.819c.261-.592 1.469-1.996 4.311-3.819m118.921 22.994-18.581-.055-.809-9.369c-5.425-11.21-16.985-35.05-19.831-40.724s-10.014-4.319-13.242-2.933c-16.642 7.302-49.4 21.747-59.95 26.65m112.413 26.431c2.345-18.973 8.073-60.78 12.226-76.219m-12.226 76.219c2.792.262 9.851 1.263 15.754 3.169 5.904 1.906 4.78 6.081 3.48 7.93m-7.008-87.318c47.703 42.869 100.714 93.983 134.218 127.109M268.178 175.043c-27.747-24.936-53.699-47.083-72.97-61.277m207.188 188.386-127.21-39.791m-138.155-34.093a42 42 0 0 1 3.855-2.173c.57-.286 1.473-.715 2.653-1.264m51.669-111.065c-7.598 1.206-18.888 3.242-32.515 6.046m-19.154 105.019-25.576-6.536m26.078-94.471c-27.696 6.212-61.09 14.827-92.253 25.474-2.697 10.73-8.379 26.248-13.852 48.544l80.027 20.453m26.078-94.471c-5.077 10.986-17.402 45.259-26.078 94.471m26.078-94.471a1089 1089 0 0 1 18.652-4.012m0 0c-4.768 9.873-16.502 44.583-25.285 104.444m-155.616 31.675L9.36 358.209m0 0 16.56 39.572 4.848 2.352M9.36 358.209l-18.423-1.73-3.185 1.39m310.449 1.273-41.865 121.947 7.14 31.929L30.768 400.133m267.433-40.991 11.178-20.07 2.669-1.439 143.119 41.318m0 0 60.77 153.55m0 0 1.832-1.518m0 0 2.508-127.332m-2.508 127.332 140.351-1.182M520.343 400.278l-.066 3.373m0 0 160.105 15.034m0 0L658.12 529.801"/><path stroke="#fff" stroke-width="2" d="m256.968 294.443 5.444 166.941m-137.88-241.048-14.866 5.362-4.714 23.212 11.255 159.039 14.728 41.089M20.481 203.806l-7.592 17.873 13.273 146.556L42.8 406.969m294.726 9.63c-21.001 4.355-36.913 24.407-45.472 53.806-8.544 29.35-9.661 67.751-1.267 108.228s24.69 75.266 44.201 98.798c19.543 23.571 42.117 35.642 63.118 31.286 21.001-4.355 36.912-24.407 45.471-53.805 8.544-29.35 9.661-67.752 1.267-108.228s-24.69-75.267-44.201-98.799c-19.543-23.57-42.116-35.641-63.117-31.286Z"/></mask><g mask="url(#b)"><path fill="#D9D9D9" d="M53 32.447h945v730H53z"/></g></g><defs><clipPath id="a"><path fill="#fff" d="M0 0h1005v754H0z"/></clipPath></defs></svg>