<svg fill="none" viewBox="0 0 1005 754" xmlns="http://www.w3.org/2000/svg"><path stroke="#fff" stroke-width="2" d="M934.213 410.749v4.394l-13.809 8.787h-14.437v-6.904h4.394l-25.735-45.821-98.545-2.51-50.214 67.161-3.766 27.618-2.51 15.691-43.31-3.138-340.2-3.138-11.926 13.181h-4.393l-3.766-27.618v-2.511l-4.394-31.383-43.31-58.374-86.619-2.511-32.011 48.959v9.415m774.551-11.298.627-.628m-.627.628-11.299 6.277m19.458-52.725-6.904 45.193-.628.627m7.532-45.82-2.51-3.766m2.51 3.766h-14.938m12.428-3.766 1.255-6.904m-1.255 6.904-12.267 1.883m13.522-8.787-12.554-2.511m12.554 2.511c-23.334-8.954-53.977-20.432-87.874-32.734M63 308.438c12.554 65.78 17.366 90.594 18.203 94.779l9.415.627M63 308.438c106.401-20.753 222.484-37.876 319.486-50.551M63 308.438l310.071 15.29M90.618 403.844l-20.086 7.533-1.255 1.255 9.415 20.713 84.108 25.107-4.393-34.522 1.255-1.883m-69.044-18.203 10.042.773m59.002 17.43c-1.674-.418-5.649-1.381-8.16-1.883s-3.557-2.301-3.766-3.138m787.104-6.905 8.16 7.532m0 0-11.926 7.532c-2.929 1.047-10.168 3.013-15.692 2.511-5.021-2.008-7.95-2.929-8.787-3.138l-.628 57.118 7.532 5.022 3.139-1.256 4.393-23.224c2.511-1.883 8.286-6.277 11.299-8.787 7.532-16.571 10.252-30.756 10.67-35.778Zm-20.086-.627h-1.883l-33.266-57.119-113.61-3.766-53.98 76.577-4.393 24.479-178.26-3.068-150.014-2.581m535.406-34.522 4.52-52.725m-539.926 87.247-37.661-.628-6.904-27.618-50.842-70.299-107.96-3.766-36.405 59.001m239.772 43.31-5.649-26.99-8.788-100.83m-225.335 84.51-47.076-3.621m47.076 3.621v8.788m-47.076-12.409v6.76l47.076 5.649m780.827-65.906-391.041-19.283m391.041 19.283-.968 11.298M382.486 257.887C470.314 246.41 542.499 238.579 577.693 235c55.414 8.926 178.749 50.768 275.55 85.897m-470.757-63.01-1.663 11.635m-7.752 54.206 164.451 8.109m-164.451-8.109 2.187-15.29m157.243 6.277-.628 1.883 5.649 15.239m315.721-10.94-3.139 12.648-9.415-1.708m0 0-125.535-8.335c-.209-.418-.753-1.632-1.255-3.138m126.79 11.473c-37.27-13.587-100.842-36.165-158.802-55.412m-306.629 32.013 4.718-1.883m-4.718 1.883 5.565-38.916m-.847 37.033 4.393-37.524m-4.393 37.524 15.692.85m262.368 14.214c0 .628 1.255 1.883 6.276 1.883 5.022 0 31.803.837 44.565 1.255 1.674 0 5.022-.878 5.022-4.393m-55.863 1.255c-3.515-6.026-2.302-8.787-1.256-9.415 6.905-4.394 22.346-14.311 28.873-18.83m-27.617 28.245-109.843-5.951m165.706 4.696v-6.277c-3.766-4.812-11.801-14.939-13.809-16.947-2.511-2.511-6.277-9.415-14.437-3.766m0 0-3.766-16.949m245.708 85.993-.161 1.883m-546.611-94.779 3.546-.491m0 0c3.158-.436 6.538-.902 10.11-1.392m0 0 1.189 39.766m-1.189-39.766c33.019-4.531 82.471-11.177 124.213-16.426m-123.024 56.192 124.907 6.767m-1.883-62.959 1.883 62.959m-1.883-62.959c7.173-.902 14.118-1.762 20.713-2.564m-18.83 65.523 27.618 1.496m-8.788-67.019c14.458-1.758 27.232-3.232 37.033-4.234 23.924 5.717 63.196 17.978 105.449 32.01m-142.482-27.776 8.788 67.019"/><path stroke="#fff" stroke-width="2" d="M537.523 332.29v122.396m175.749-132.439 10.042 17.575-6.276 92.896-3.766 24.479m112.98-71.183c-39.382 0-71.182 29.688-71.182 66.161s31.8 66.161 71.182 66.161 71.183-29.688 71.183-66.161-31.801-66.161-71.183-66.161Zm-584.364 0c-39.382 0-71.183 29.688-71.183 66.161s31.801 66.161 71.183 66.161 71.182-29.688 71.182-66.161-31.8-66.161-71.182-66.161Z"/></svg>