<svg fill="none" viewBox="0 0 1005 754" xmlns="http://www.w3.org/2000/svg"><g clip-path="url(#a)"><mask id="b" width="979" height="523" x="53" y="90" maskUnits="userSpaceOnUse" style="mask-type:alpha"><path stroke="#fff" stroke-width="2" d="M584.232 453.784h7.692l30-1.538h6.924m-4.616-101.539 4.616 1.538 25.384 14.616 4.616 3.846m-16.923-64.616 5.384 1.539 23.077 16.923 3.846 5.385m83.847-19.231v-6.154m220.001 47.692-14.615 1.539h-9.231m35.385-122.308 16.921 5.384v5.385"/><path stroke="#fff" stroke-width="2" d="m482.694 479.938-4.615-6.924m4.615 6.924-354.617-67.681m354.617 67.681 93.077-23.975m-97.692 17.051-20-232.308c74.97-32.481 217.17-90.719 322.309-124.566M478.079 473.014 91.154 399.937M874.235 91.474c11.538 8.462 70 52.308 90.769 70.77m-90.769-70.77c-33.847 0-220.002 18.462-277.694 26.154s-206.924 41.539-229.232 46.154S122.692 219.936 105 224.552a64519 64519 0 0 0-50 13.077l36.154 162.308M874.235 91.474c-23.353 3.568-56.227 12.556-93.847 24.666m184.616 46.104c2.308 0 3.077-.77 6.923 2.307s16.923 16.154 20 20.001c.616 1.23 1.282 2.051 1.539 2.307m-28.462-24.615c-3.692 0-4.615 2.051-4.615 3.077v1.538m33.077 20 6.154 5.404m-6.154-5.404c.256 1.539.769 5.231.769 7.693s-2.051 3.589-3.077 3.846c-2.308.705-9.077 1.98-17.692 1.442m50.774 30.866.76-16.154-25.38-22.289m24.62 38.443-6.16-3.847-28.46 3.847-18.462 90.769-6.154 15m59.236-105.769 4.61 3.077.77 3.076-23.08 4.616-18.459 79.231-10 32.308-5.384 15.385c-.257 1.282-1.693 4-5.385 4.615s-17.436 3.846-23.846 5.385l-147.693 82.308-14.616 16.923-1.538 30.769-2.308 1.539-10 4.615M91.154 399.937l4.615 6.154 32.308 6.166M780.388 116.14l6.252 16.873m14.077 298.463a721 721 0 0 1-15.714 6.923c2.462-20.308 3.59-32.052 3.846-35.385l-35.384-115.385-111.539 18.462-57.693 147.693-8.462 2.179m224.946-24.487 14.286-45.385 3.847-166.155-9.122-24.615m-9.011 236.155c26.219-11.893 58.868-28.146 88.902-43.568M999.62 192.263l3.08 10.75c-5.212-.885-14.879-2.033-29.234-3.173m-163.738-4.519-23.088-62.308m23.088 62.308c25.658-.138 48.67.03 69.122.406m94.616 4.113a891 891 0 0 0-6.154-.467m-6.923-.477v-32.037m0 32.037c-15.815-1.037-35.753-2.002-60-2.674m60 2.674q3.603.237 6.923.477m-6.923-32.514-81.539-63.846c-3.52.652-9.99 2.194-19.231 4.838m-72.979 25.162c26.55-10.345 47.982-17.605 63.748-22.426m43.077 85.454c-5.128-17.271-19.077-59.089-33.846-88.19m33.846 88.19q-7.077-.174-14.615-.314m14.615.314q3.519.086 6.924.181m-40.77-88.371a531 531 0 0 0-9.231 2.736m0 0c7.693 18.002 24.154 60.235 28.462 85.14m21.539.495 10.769 19.868-6.923 133.847-14.616 37.971m0 0c27.644-14.196 53.072-27.689 69.231-36.433l6.154-15m2.308-137.102 9.231 15.179-6.923 106.923-4.616 15m-836.927 75.782v3.834m0 0-54.616 9.231m54.616-9.231 97.693 22.308M73.461 425.322l-1.538 3.077m1.538-3.077 94.616 20.769m-96.154-17.692 16.154 39.231c16.141 5.047 36.672 11.337 60 18.316m-76.154-57.547 95.385 20.769m285.386 116.924 3.077-50m-3.077 50c14.895-1.354 65.187-4.722 106.924-7.433m-106.924 7.433a969 969 0 0 1-10-1.973m182.309-87.258-25.385 79.231c-10.798.683-24.834 1.582-40 2.567m65.385-81.798-1.539-3.847m1.539 3.847-169.232 39.231m167.693-43.078h-3.846l-30.77 2.308-14.615-1.538m49.231-.77-167.693 38.462m118.462-37.692 1.538-17.821m-1.538 17.821-89.231 21.538-146.924-30-35.385 12.308m0 0-2.308 3.846 155.386 34.616M302.693 477.63l153.078 33.846m0 4.616v-4.616m-155.386-28.461.77 34.615-120.001-33.077m0 0 48.462-11.539-3.846-34.615m-44.616 46.154-13.846-35.385m58.462-10.769-57.693 7.692m0 0-.769 3.077m-19.231 36.778 12.308 27.069 47.692 17.692m-60-44.761a6528 6528 0 0 0 38.462 11.378m21.538 33.383 3.077 4.615 98.462 29.231h3.846m-105.385-33.846-21.538-33.383m126.923 67.229 129.232 31.539m-129.232-31.539 28.462-.434 12.308-20.58m-40.77 21.014-8.267-33.846m137.499 65.385 106.154-21.539c1.795-.769 5.693-3.076 6.923-6.153s3.077-7.776 3.847-9.741m-116.924 37.433v-31.973m0 0c-26.008-5.268-56.364-12.429-88.462-20.58m-167.693-46.215c37.065 10.841 78.19 22.514 118.656 33.383m49.037 12.832a3713 3713 0 0 1-49.037-12.832"/><path stroke="#fff" stroke-width="2" d="M458.078 240.705 56.537 236.09m401.541 13.846-401.541-9.231m362.31-85.385-301.54 73.077 310.77 2.308 286.156-97.693zm43.849 131.539L62.694 269.167m559.999 203.847 3.846-2.308 2.308-19.231 30-80.769 15.384-40.77 83.847-19.23 27.692 92.308-5.384 53.846 3.077-1.538 1.538-16.923"/><path stroke="#fff" stroke-width="2" d="M729.727 358.574c-15.952-2.237-32.63 9.478-46.67 30.953-13.992 21.403-25.135 52.19-30.057 87.286-4.923 35.096-2.679 67.76 4.885 92.186 7.59 24.509 20.402 40.361 36.354 42.598s32.631-9.478 46.67-30.953c13.992-21.402 25.136-52.189 30.058-87.285 4.923-35.097 2.679-67.761-4.885-92.187-7.59-24.509-20.403-40.361-36.355-42.598ZM1015.08 255.51c-2.36-.147-4.91 1.329-7.53 4.635-2.6 3.277-5.1 8.164-7.34 14.346-4.489 12.35-7.883 29.648-9.09 48.955-1.208 19.307.004 36.893 2.917 49.706 1.459 6.414 3.33 11.574 5.498 15.15 2.185 3.606 4.535 5.389 6.895 5.536 2.35.148 4.91-1.329 7.53-4.634 2.6-3.278 5.1-8.165 7.34-14.346 4.49-12.351 7.88-29.649 9.09-48.956s-.01-36.893-2.92-49.706c-1.46-6.413-3.33-11.574-5.5-15.149-2.18-3.607-4.53-5.39-6.89-5.537Z"/></mask><g mask="url(#b)"><path fill="#D9D9D9" d="M20.629 22.733h935.358v603.932H20.629z"/></g></g><defs><clipPath id="a"><path fill="#fff" d="M0 0h1005v754H0z"/></clipPath></defs></svg>