<svg fill="none" viewBox="0 0 1005 754" xmlns="http://www.w3.org/2000/svg"><g clip-path="url(#a)"><mask id="b" width="1136" height="653" x="30" y="57" maskUnits="userSpaceOnUse" style="mask-type:alpha"><path stroke="#fff" stroke-width="2" d="M191.561 238.945c63.165-30.113 320.964-135.142 349.608-146.16C569.813 81.77 695.408 67.815 781.341 59c190.962 18.802 316.559 43.579 355.479 53.616l16.16 70.509m-961.419 55.82c-28.644 12.486-88.871 31.582-151.3 75.651-2.812 5.623-7.777 14.691-5.004 24.237m156.304-99.888c23.503 15.424 76.385 23.503 91.809 26.441 12.339 2.35 59.492 8.324 81.526 11.017l12.486 25.707 10.283-5.142M207.72 363.805c-24.728 2.204-82.408 7.198-115.312 9.548-19.097-5.141-41.13-13.22-52.148-25.706-1.29-1.463-2.328-2.935-3.15-4.407m170.61 20.565 405.427-77.494M207.72 363.805l2.85 28.645m942.41-209.325 11.02 48.476-22.03 3.672m11.01-52.148-80.05 15.303m69.04 36.845-56.56 118.984m56.56-118.984 19.83 13.22 2.2 5.142-47.01 99.153m-31.58 1.469-22.77 44.803c-2.86.799-5.8 1.618-8.81 2.455m31.58-47.258 27.18-1.469h4.4M608.74 516.575c1.763-27.028 2.204-40.151 2.204-43.334m-2.204 43.334 6.611-45.537-2.204-184.727m-4.407 230.264c33.925-5.193 141.236-32.734 249.72-61.748m-247.516 18.414L526.48 331.489m84.464 141.752-3.673 9.548-5.141 1.469m-75.65-152.769-221.076 40.395m221.076-40.395v22.768l-2.204 7.345m-218.872 10.282-78.588 146.894m78.588-146.894 23.503 20.566 5.141 5.875M226.816 518.778h-3.673m3.673 0h13.955m-17.628 0L210.79 394.653m12.353 124.125-102.091-15.423M35.257 338.833c-2.25 2.204-5.867 9.255-2.341 19.831.506 1.52 1.295 3.099 2.34 4.715m0-24.546a21 21 0 0 0 1.853 4.407m56.768 54.351c19.83 0 42.863 0 116.913-2.938m-116.913 2.938 27.175 105.764M93.877 397.591c-27.3-7.15-50.574-21.778-58.62-34.212m175.533 31.274-.22-2.203m-89.518 110.905c-22.326-12.34-41.62-29.624-48.475-36.724-12.486-15.424-13.22-16.893-19.83-29.379-1.898-3.584-3.922-9.303-5.831-16.158m-11.66-57.715c2.096 13.94 6.636 39.678 11.66 57.715m0 0-2.983.734c-3.917 6.121-10.43 22.181-5.142 37.458a161 161 0 0 0 1.317 3.673m213.883 77.854c-54.351 8.079-146.159-13.955-151.301-15.424-45.348-28.171-55.986-44.772-62.582-62.43m213.883 77.854c-2.203-4.407-5.876-13.221-13.22-18.362m13.22 18.362-2.938 89.605h-1.469l-2.203 44.803c0 .489-1.175 1.469-5.876 1.469-5.876-2.204-19.83-34.521-28.644-52.148-41.13-5.876-65.368-16.893-78.588-23.503-60.961-49.209-71.244-80.057-81.527-99.153-7.745-14.384-12.587-31.338-12.638-38.927m200.663 59.492c.272-1.763.113-3.183 0-3.673m0 3.673c-3.673 1.469-13.221 4.407-22.034 7.345-63.517-9.226-79.323-11.752-94.747-18.362-11.017-6.61-19.831-13.955-32.353-27.91m149.134 35.254 18.362-2.203h9.548l65.367-118.25m0 0 190.228-36.723m0 0 77.854 122.656m0 0-5.876 52.882 2.938 3.673m0 0-5.875 27.909 52.147-27.909 373.846-101.357 52.88-7.345 16.89 16.893h5.88l9.55-45.537M599.192 540.813l49.21-25.707 381.928-100.622 74.18-11.017m0 0-29.38.734-21.3-2.686m50.68 1.952 12.48-50.679m-63.16 48.727c-8.32 2.315-17.17 4.768-26.44 7.334M607.271 249.962l11.018 5.142m-11.018-5.142-219.606 47.006m219.606-47.006c2.204-5.875 11.018-8.813 11.018-8.813l19.83-3.673m-19.83 17.628-5.142 31.207m5.142-31.207 45.537-5.142m-50.679 36.349 273.958-52.365m-499.44 63.022 225.482-130.001c7.319-3.995 15.787-8.604 24.972-13.588m425.261 20.933c-3.43-8.079-13.52-32.611-26.44-66.102-107.236-18.362-228.424-31.583-249.723-33.052-2.058.823-5.317 2.328-9.548 4.389m285.711 94.765 9.55 24.116m-9.55-24.116-14.69-2.204m14.69 2.204-176.275 31.107m185.825-6.991-24.24 166.846-21.3 43.575m45.54-210.421-185.825 35.518m140.285 174.903c-48.514 13.419-108.902 29.924-168.93 45.978m-94.746-227.633v-4.407l113.843-20.245m-113.843 24.652 123.391-21.775m-123.391 21.775c0 .979-.441 3.672-2.204 6.61-1.762 2.938-6.12 5.631-8.079 6.61-3.183.735-10.723 2.35-15.424 2.938-5.876.735-55.085 5.141-74.181 6.61m384.864-77.854-6.61-2.203m6.61 2.203-171.133 30.434m164.523-32.637-14.69-57.289c-3.33-.531-7.01-1.113-11.02-1.738m25.71 59.027-12.66 2.203M777.669 79.547c18.082 1.781 37.192 3.895 56.554 6.195m-56.554-6.195c-26.785 13.041-92.557 48.336-139.55 73.832m225.483-64.035c5.141 14.732 17.039 56.867 23.503 107.548M863.602 89.344a4073 4073 0 0 0-29.379-3.602m29.379 3.602c59.773 7.542 118.233 16.146 152.768 21.534m-129.265 86.014 142.315-24.784m-142.315 24.784-13.221 2.303M834.223 85.742c4.651 19.707 14.395 70.805 16.158 117.546m0 0-86.667 15.092c.244-.734-.147-2.791-3.673-5.141-3.525-2.351-40.151-22.524-58.023-32.317-1.958-.979-7.198-2.938-12.486-2.938-6.61 0-12.486.735-17.627 7.345-3.796 4.88-19.978 27.235-29.379 40.275m207.855-22.316 23.503-4.093m142.486-88.317c2.58 10.017 8.81 36.287 13.05 61.23m-155.536 27.087 3.673 3.347m9.548 2.877v28.527m0 0-13.221 174.903-15.424 45.978M663.826 249.962c-15.277 1.175-22.034-5.386-23.503-8.813v-12.486l2.203-3.059m-4.407-72.225 4.407 72.225M210.57 392.45c-33.511-.49-102.591-1.763-110.818-2.938-10.282-1.469-46.181-18.362-52.836-25.707s-11.488-11.751-9.806-20.565m463.68 76.119c-61.09-29.679-141.178 8.347-178.697 85.577s-17.908 163.689 43.182 193.368c61.091 29.678 141.178-8.346 178.698-85.576 37.519-77.23 17.908-163.69-43.183-193.369Z"/><path stroke="#fff" stroke-width="2" d="M364.162 277.137C470.905 215.932 702.018 86.91 772.527 60.469"/></mask><g mask="url(#b)"><path fill="#D9D9D9" d="M1006.98 13.814H-.68v739.933h1007.66z"/></g></g><defs><clipPath id="a"><path fill="#fff" d="M1005 0H0v754h1005z"/></clipPath></defs></svg>