<svg fill="none" viewBox="0 0 1005 754" xmlns="http://www.w3.org/2000/svg"><g clip-path="url(#a)"><mask id="b" width="1068" height="493" x="53" y="127" maskUnits="userSpaceOnUse" style="mask-type:alpha"><path stroke="#fff" stroke-width="2" d="m172.444 497.378 6.566 45.227m23.342-76.593 7.295 6.565 4.376-.437m-11.671-6.128-65.553-48.874m65.553 48.874-26.99-198.414M55 242.067 79.073 374.1l21.525 16.048M55 242.067c127.9-24.802 432.718-79.512 628.798-99.937 9.483-.729 108.69-10.212 177.259-13.13M55 242.067l120.362 25.531M861.057 129c-28.011 1.751-133.248 20.668-182.365 29.908M861.057 129c28.929 13.5 103.182 43.997 212.273 104.472m45.96 26.102c-.59 8.17-3.16 33.555-4.38 45.227l-3.2-21.155m7.58-24.072a2574 2574 0 0 0-45.96-26.102m45.96 26.102c-34.24-.418-70.96-.68-109.42-.812m-834.508 8.836 503.33-108.69m-503.33 108.69c113.881-2.414 318.746-5.939 526.672-7.757m-23.342-100.933 3.711 16.048m19.631 84.885v160.944l-8.024 40.773m8.024-201.717-5.122-22.151m5.122 22.151c57.528-.503 115.29-.875 171.424-1.057M694.01 461.558l-43.038 8.831 2.918-42.309-60.546-107.231-167.047 10.942-78.052 126.926-134.222 13.423m479.987-10.582 159.023-32.629M696.912 237.69c34.238 0 94.673.409 164.145 1.639m-164.145-1.639-.675-2.918m379.283 10.942c-.73-4.377-1.46-10.107-2.19-12.242m2.19 12.242c-24.58-1.127-50.11-2.105-75.865-2.953m75.865 2.953-4.11-2.188m-210.353-4.197 12.401 19.455m-12.401-19.455c38.786.686 80.388 1.629 121.821 2.899m-109.42 16.556-8.753 136.47-11.672 33.675m20.425-170.145c46.974-.152 92.807-.171 136.412-.022M853.033 428.929l133.492-27.39m13.13-158.778 10.215 16.001m-10.215-16.001c-5.584-.183-11.179-.361-16.777-.533m16.777.533c9.995.318 15.215-.223 17.535-1.424m-7.32 17.425-10.215 110.961-13.13 31.816m0 0 2.189-.449 51.066-126.197 59.08-2.918 3.65.729 8.75 8.024.45 2.918m-429.307-108.69 13.834 59.816m-13.834-59.816a406 406 0 0 1 10.148-2.686m290.327 69.958-.045-2.35m8.649-37.932c-68.819-34.925-107.719-52.096-128.236-61.275a2127 2127 0 0 0-32.826 4.802m161.062 56.473-9.334 2.189.685 35.743m8.649-37.932c2.338 0 13.138 8.17 30.058 26.261v5.836l-2.19.729-.73 5.106c-.18.559-.64 1.048-1.43 1.459m-25.708-39.391c23.118 11.733 49.618 25.47 79.928 41.58M812.183 148.37c-55.687 9.103-97.504 18.311-119.632 23.9m119.632-23.9c6.566 16.877 20.863 58 25.532 87.482m-25.532-87.482q8.889-1.453 18.237-2.897m240.99 98.053-54.22-2.189m-34.357-1.459c-31.225-1.004-75.23-2.304-119.587-3.412m-167.009-1.694c2.595-.203 6.281-.353 10.904-.454m0 0-14.59-62.048m14.59 62.048c24.683-.543 76.067.276 130.574 1.534m0 0c8.464.195 17.004.401 25.531.614m-32.826-90.993c8.754 20.197 27.574 66.671 32.826 90.993m239.264 93.866h15.32l-6.12-46.686m0 0-52.24 3.648-35.74 83.888-10.94 32.826-7.3 19.695-42.308 4.377-274.278 64.193-41.579 16.048-7.295 24.802-5.106 2.918v-49.604l2.188-51.792-51.062-90.453-129.845 12.401-65.651 105.772-2.189 17.507m0 0-19.695 73.676-20.425-1.179m40.12-72.497-215.921 17.507-48.874-42.309 5.106 32.826-34.285-37.932-8.024-32.826m301.998 62.734h-40.12l-8.024-3.647-110.149 11.671-16.049-15.756M59.377 393.066l8.754 35.014 30.637 34.285 17.507 31.367 33.556 35.743-16.049-29.178 45.227 42.309 3.647.21M59.377 393.066l41.221-2.918m-41.22 2.918 26.99 24.072m14.23-26.99 36.201 26.99m-50.432 0H136.8m211.446 135.231-4.377 12.121-129.845 5.835m134.222-17.956-138.598-7.996m4.376 25.952-31.367-27.509m31.367 27.509-4.376-25.952m-26.991-1.557 26.991 1.557"/><path stroke="#fff" stroke-width="2" d="M549.223 389.966c-48.454-13.42-102.017 25.822-119.321 88.297s8.435 123.681 56.888 137.102 102.017-25.82 119.322-88.294c17.304-62.475-8.436-123.684-56.889-137.105Zm-368.754-82.248-121.09-40.12m566.792-97.019-199.873 6.565m633.172 110.149-1.46-2.918-18.23-9.483M1023 371.911l-2.92-1.459h-18.24m10.22 33.555h-18.969l-11.671-1.459m-330.447 67.841-1.459 8.024-8.024 5.835-6.565 2.189m18.966-58.357-9.483 5.106-7.295 1.459m-43.768-113.067-2.918 17.507-4.376 5.106M426.298 331.79l24.072 18.967 5.107 5.835M348.246 459.447l2.917 1.459 30.638 1.458h8.753"/></mask><g mask="url(#b)"><path fill="#D9D9D9" d="M-8.882 32.611H979.11v592.795H-8.882z"/></g></g><defs><clipPath id="a"><path fill="#fff" d="M0 0h1005v754H0z"/></clipPath></defs></svg>