<svg fill="none" viewBox="0 0 1005 754" xmlns="http://www.w3.org/2000/svg"><g clip-path="url(#a)"><mask id="b" width="1136" height="653" x="-161" y="57" maskUnits="userSpaceOnUse" style="mask-type:alpha"><path stroke="#fff" stroke-width="2" d="M813.439 238.945c-63.165-30.113-320.964-135.142-349.608-146.16C435.187 81.77 309.592 67.815 223.659 59 32.697 77.802-92.898 102.579-131.825 112.616l-16.158 70.509m961.422 55.82c28.644 12.486 88.871 31.582 151.301 75.651 2.811 5.623 7.776 14.691 5.003 24.237m-156.304-99.888c-23.503 15.424-76.385 23.503-91.809 26.441-12.339 2.35-59.492 8.324-81.526 11.017l-12.486 25.707-10.283-5.142m179.945 66.837c24.728 2.204 82.408 7.198 115.312 9.548 19.096-5.141 41.131-13.22 52.148-25.706 1.29-1.463 2.328-2.935 3.15-4.407m-170.61 20.565-405.427-77.494m405.427 77.494-2.85 28.645m-942.413-209.325L-159 231.601l22.034 3.672m-11.017-52.148 80.057 15.303m-69.04 36.845 56.554 118.984m-56.554-118.984-19.831 13.22-2.203 5.142 47.006 99.153m31.582 1.469 22.769 44.803 8.814 2.455m-31.583-47.258-27.175-1.469h-4.407M396.26 516.575c-1.763-27.028-2.204-40.151-2.204-43.334m2.204 43.334-6.611-45.537 2.204-184.727m4.407 230.264c-33.925-5.193-141.236-32.734-249.72-61.748m247.516 18.414 84.464-141.752m-84.464 141.752 3.673 9.548 5.141 1.469m75.65-152.769 221.076 40.395M478.52 331.489v22.768l2.204 7.345m218.872 10.282 78.588 146.894m-78.588-146.894-23.503 20.566-5.141 5.875m107.232 120.453h3.673m-3.673 0h-13.955m17.628 0 12.353-124.125m-12.353 124.125 102.091-15.423m85.795-164.522c2.25 2.204 5.867 9.255 2.341 19.831-.506 1.52-1.295 3.099-2.341 4.715m0-24.546a21 21 0 0 1-1.853 4.407m-56.767 54.351c-19.83 0-42.863 0-116.913-2.938m116.913 2.938-27.175 105.764m27.175-105.764c27.3-7.15 50.574-21.778 58.62-34.212M794.21 394.653l.22-2.203m89.518 110.905c22.326-12.34 41.619-29.624 48.475-36.724 12.486-15.424 13.22-16.893 19.831-29.379 1.897-3.584 3.921-9.303 5.83-16.158m11.659-57.715c-2.095 13.94-6.635 39.678-11.659 57.715m0 0 2.983.734c3.917 6.121 10.43 22.181 5.142 37.458a163 163 0 0 1-1.317 3.673m-213.883 77.854c54.351 8.079 146.159-13.955 151.301-15.424 45.348-28.171 55.986-44.772 62.582-62.43m-213.883 77.854c2.203-4.407 5.876-13.221 13.22-18.362m-13.22 18.362 2.938 89.605h1.469l2.203 44.803c0 .489 1.175 1.469 5.876 1.469 5.876-2.204 19.83-34.521 28.644-52.148 41.13-5.876 65.368-16.893 78.588-23.503 60.961-49.209 71.244-80.057 81.527-99.153 7.745-14.384 12.587-31.338 12.638-38.927m-200.663 59.492c-.272-1.763-.113-3.183 0-3.673m0 3.673c3.673 1.469 13.221 4.407 22.034 7.345 63.517-9.226 79.323-11.752 94.747-18.362 11.017-6.61 19.831-13.955 32.353-27.91m-149.134 35.254-18.362-2.203h-9.548l-65.367-118.25m0 0-190.228-36.723m0 0L402.87 484.258m0 0 5.876 52.882-2.938 3.673m0 0 5.875 27.909-52.147-27.909-373.845-101.357-52.882-7.345-16.893 16.893h-5.876l-9.548-45.537m505.316 137.346-49.21-25.707-381.924-100.622-74.182-11.017m0 0 29.379.734 21.3-2.686m-50.679 1.952-12.486-50.679m63.165 48.727c8.322 2.315 17.164 4.768 26.44 7.334M397.73 249.962l-11.018 5.142m11.018-5.142 219.606 47.006M397.73 249.962c-2.204-5.875-11.018-8.813-11.018-8.813l-19.83-3.673m19.83 17.628 5.142 31.207m-5.142-31.207-45.537-5.142m50.679 36.349-273.958-52.365m499.44 63.022L391.853 166.967c-7.319-3.995-15.787-8.604-24.972-13.588m-425.259 20.933c3.428-8.079 13.515-32.611 26.441-66.102 107.233-18.362 228.421-31.583 249.72-33.052 2.058.823 5.317 2.328 9.548 4.389m-285.709 94.765-9.548 24.116m9.548-24.116 14.69-2.204m-14.69 2.204 176.273 31.107m-185.82-6.991 24.237 166.846 21.3 43.575m-45.538-210.421 185.821 35.518M-22.388 408.849c48.512 13.419 108.9 29.924 168.928 45.978m94.746-227.633v-4.407l-113.843-20.245m113.843 24.652-123.391-21.775m123.391 21.775c0 .979.441 3.672 2.204 6.61 1.762 2.938 6.12 5.631 8.079 6.61 3.183.735 10.723 2.35 15.424 2.938 5.876.735 55.085 5.141 74.181 6.61m-384.862-77.854 6.61-2.203m-6.61 2.203 171.131 30.434m-164.52-32.637 14.688-57.289c3.328-.531 7.012-1.113 11.018-1.738m-25.707 59.027 12.653 2.203m251.756-92.561c-18.082 1.781-37.192 3.895-56.554 6.195m56.554-6.195c26.785 13.041 92.557 48.336 139.55 73.832M141.398 89.344c-5.141 14.732-17.039 56.867-23.503 107.548m23.503-107.548a4073 4073 0 0 1 29.379-3.602m-29.379 3.602c-59.773 7.542-118.233 16.146-152.77 21.534m129.267 86.014-142.32-24.784m142.32 24.784 13.221 2.303m39.661-113.453c-4.651 19.707-14.395 70.805-16.158 117.546m0 0 86.667 15.092c-.244-.734.147-2.791 3.673-5.141 3.525-2.351 40.151-22.524 58.023-32.317 1.958-.979 7.198-2.938 12.486-2.938 6.61 0 12.486.735 17.627 7.345 3.796 4.88 19.978 27.235 29.379 40.275m-207.855-22.316-23.503-4.093m-142.487-88.317c-2.582 10.017-8.807 36.287-13.054 61.23m155.541 27.087-3.673 3.347m-9.548 2.877v28.527m0 0 13.221 174.903 15.424 45.978m194.634-204.865c15.277 1.175 22.034-5.386 23.503-8.813v-12.486l-2.203-3.059m4.407-72.225-4.407 72.225M794.43 392.45c33.511-.49 102.591-1.763 110.818-2.938 10.282-1.469 46.181-18.362 52.836-25.707s11.488-11.751 9.806-20.565m-463.68 76.119c61.09-29.679 141.178 8.347 178.697 85.577s17.908 163.689-43.182 193.368c-61.091 29.678-141.178-8.346-178.698-85.576-37.519-77.23-17.908-163.69 43.183-193.369Z"/><path stroke="#fff" stroke-width="2" d="M640.838 277.137C534.095 215.932 302.982 86.91 232.473 60.469"/></mask><g mask="url(#b)"><path fill="#D9D9D9" d="M-1.976 13.813h1007.66v739.933H-1.976z"/></g></g><defs><clipPath id="a"><path fill="#fff" d="M0 0h1005v754H0z"/></clipPath></defs></svg>