<svg fill="none" viewBox="0 0 1005 754" xmlns="http://www.w3.org/2000/svg"><path stroke="#fff" stroke-width="2" d="M70.787 410.749v4.394l13.81 8.787h14.436v-6.904h-4.394l25.735-45.821 98.545-2.51 50.214 67.161 3.766 27.618 2.51 15.691 43.31-3.138 340.2-3.138 11.926 13.181h4.393l3.766-27.618v-2.511l4.394-31.383 43.31-58.374 86.619-2.511 32.011 48.959v9.415m-774.55-11.298-.628-.628m.627.628 11.299 6.277m-19.458-52.725 6.904 45.193.628.627m-7.532-45.82 2.51-3.766m-2.51 3.766h14.938m-12.428-3.766-1.255-6.904m1.255 6.904 12.267 1.883m-13.522-8.787 12.553-2.511m-12.553 2.511c23.334-8.954 53.977-20.432 87.874-32.734M942 308.438c-12.553 65.78-17.366 90.594-18.203 94.779l-9.415.627M942 308.438c-106.401-20.753-222.484-37.876-319.486-50.551M942 308.438l-310.071 15.29m282.453 80.116 20.086 7.533 1.255 1.255-9.415 20.713-84.108 25.107 4.393-34.522-1.255-1.883m69.044-18.203-10.042.773m-59.002 17.43c1.674-.418 5.649-1.381 8.16-1.883s3.557-2.301 3.766-3.138M70.16 410.121 62 417.653m0 0 11.926 7.532c2.929 1.047 10.168 3.013 15.692 2.511 5.021-2.008 7.95-2.929 8.787-3.138l.628 57.118-7.532 5.022-3.139-1.256-4.393-23.224c-2.511-1.883-8.286-6.277-11.298-8.787C65.138 436.86 62.418 422.675 62 417.653Zm20.086-.627h1.883l33.266-57.119 113.61-3.766 53.98 76.577 4.393 24.479 178.26-3.068 150.014-2.581M82.086 417.026l-4.52-52.725m539.926 87.247 37.661-.628 6.904-27.618 50.842-70.299 107.96-3.766 36.405 59.001m-239.772 43.31 5.649-26.99 8.788-100.83m225.335 84.51 47.076-3.621m-47.076 3.621v8.788m47.076-12.409v6.76l-47.076 5.649M76.437 351.12l391.041-19.283M76.436 351.12l.969 11.298m545.109-104.531C534.686 246.41 462.501 238.579 427.307 235c-55.414 8.926-178.749 50.768-275.55 85.897m470.757-63.01 1.663 11.635m7.752 54.206-164.451 8.109m164.451-8.109-2.187-15.29m-157.243 6.277.628 1.883-5.649 15.239m-315.721-10.94 3.139 12.648 9.415-1.708m0 0 125.535-8.335c.209-.418.753-1.632 1.255-3.138m-126.79 11.473c37.27-13.587 100.842-36.165 158.802-55.412m306.629 32.013-4.718-1.883m4.718 1.883-5.565-38.916m.847 37.033-4.393-37.524m4.393 37.524-15.692.85m-262.368 14.214c0 .628-1.255 1.883-6.276 1.883-5.022 0-31.803.837-44.565 1.255-1.674 0-5.022-.878-5.022-4.393m55.863 1.255c3.515-6.026 2.302-8.787 1.256-9.415-6.905-4.394-22.346-14.311-28.873-18.83m27.617 28.245 109.843-5.951m-165.706 4.696v-6.277c3.766-4.812 11.801-14.939 13.809-16.947 2.511-2.511 6.277-9.415 14.437-3.766m0 0 3.766-16.949M77.405 362.418l.161 1.883m546.611-94.779-3.546-.491m0 0c-3.158-.436-6.538-.902-10.11-1.392m0 0-1.189 39.766m1.189-39.766c-33.019-4.531-82.471-11.177-124.213-16.426m123.024 56.192-124.907 6.767m1.883-62.959-1.883 62.959m1.883-62.959a5140 5140 0 0 0-20.713-2.564m18.83 65.523-27.618 1.496m8.788-67.019c-14.458-1.758-27.232-3.232-37.033-4.234-23.924 5.717-63.196 17.978-105.449 32.01m142.482-27.776-8.788 67.019"/><path stroke="#fff" stroke-width="2" d="M467.477 332.29v122.396M291.728 322.247l-10.042 17.575 6.276 92.896 3.766 24.479m-112.98-71.183c39.382 0 71.182 29.688 71.182 66.161s-31.8 66.161-71.182 66.161-71.183-29.688-71.183-66.161 31.801-66.161 71.183-66.161Zm584.364 0c39.382 0 71.183 29.688 71.183 66.161s-31.801 66.161-71.183 66.161-71.182-29.688-71.182-66.161 31.8-66.161 71.182-66.161Z"/></svg>