<svg fill="none" viewBox="0 0 1005 754" xmlns="http://www.w3.org/2000/svg"><g clip-path="url(#a)"><mask id="b" width="979" height="523" x="-27" y="90" maskUnits="userSpaceOnUse" style="mask-type:alpha"><path stroke="#fff" stroke-width="2" d="M420.768 453.784h-7.692l-30-1.538h-6.924m4.616-101.539-4.616 1.538-25.384 14.616-4.616 3.846m16.923-64.616-5.384 1.539-23.077 16.923-3.846 5.385m-83.847-19.231v-6.154M26.92 352.245l14.615 1.539h9.231M15.381 231.476l-16.923 5.384v5.385"/><path stroke="#fff" stroke-width="2" d="m522.306 479.938 4.615-6.924m-4.615 6.924 354.617-67.681m-354.617 67.681-93.077-23.975m97.692 17.051 20-232.308c-74.97-32.481-217.17-90.719-322.309-124.566m302.309 356.874 386.925-73.077M130.765 91.474c-11.538 8.462-70 52.308-90.77 70.77m90.77-70.77c33.847 0 220.002 18.462 277.694 26.154s206.924 41.539 229.232 46.154S882.308 219.936 900 224.552a64132 64132 0 0 1 50 13.077l-36.154 162.308M130.765 91.474c23.353 3.568 56.227 12.556 93.847 24.666M39.996 162.244c-2.308 0-3.077-.77-6.923 2.307s-16.923 16.154-20 20.001c-.616 1.23-1.283 2.051-1.539 2.307m28.462-24.615c3.692 0 4.615 2.051 4.615 3.077v1.538m-33.077 20-6.154 5.404m6.154-5.404c-.256 1.539-.77 5.231-.77 7.693s2.052 3.589 3.078 3.846c2.307.705 9.077 1.98 17.692 1.442m-50.77 30.866-.768-16.154L5.38 192.263m-24.615 38.443 6.154-3.847 28.461 3.847 18.462 90.769 6.154 15m-59.231-105.769-4.616 3.077-.769 3.076 23.077 4.616 18.462 79.231 10 32.308 5.384 15.385c.257 1.282 1.693 4 5.385 4.615s17.436 3.846 23.846 5.385l147.693 82.308 14.616 16.923 1.538 30.769 2.308 1.539 10 4.615m676.157-114.616-4.615 6.154-32.308 6.166M224.612 116.14l-6.252 16.873m-14.077 298.463a721 721 0 0 0 15.714 6.923c-2.462-20.308-3.59-32.052-3.846-35.385l35.384-115.385 111.539 18.462 57.693 147.693 8.462 2.179m-224.946-24.487-14.286-45.385-3.847-166.155 9.122-24.615m9.011 236.155c-26.219-11.893-58.868-28.146-88.902-43.568m-110-195.645-3.078 10.75c5.21-.885 14.876-2.033 29.231-3.173m163.738-4.519 23.088-62.308m-23.088 62.308c-25.658-.138-48.67.03-69.122.406m-94.616 4.113a887 887 0 0 1 6.154-.467m6.923-.477v-32.037m0 32.037c15.815-1.037 35.753-2.002 60-2.674m-60 2.674q-3.603.237-6.923.477m6.923-32.514 81.539-63.846c3.52.652 9.99 2.194 19.231 4.838m72.979 25.162c-26.55-10.345-47.982-17.605-63.748-22.426m-43.077 85.454c5.128-17.271 19.077-59.089 33.846-88.19m-33.846 88.19q7.077-.174 14.615-.314m-14.615.314q-3.519.086-6.924.181m40.77-88.371a531 531 0 0 1 9.231 2.736m0 0c-7.693 18.002-24.154 60.235-28.462 85.14m-21.539.495L93.842 216.09l6.923 133.847 14.616 37.971m0 0c-27.644-14.196-53.072-27.689-69.231-36.433l-6.154-15m-2.308-137.102-9.23 15.179 6.922 106.923 4.616 15m836.927 75.782v3.834m0 0 54.616 9.231m-54.616-9.231-97.693 22.308m152.309-13.077 1.538 3.077m-1.538-3.077-94.616 20.769m96.154-17.692-16.154 39.231c-16.141 5.047-36.672 11.337-60 18.316m76.154-57.547-95.385 20.769M552.306 566.092l-3.077-50m3.077 50c-14.895-1.354-65.187-4.722-106.924-7.433m106.924 7.433a969 969 0 0 0 10-1.973m-182.309-87.258 25.385 79.231c10.798.683 24.834 1.582 40 2.567m-65.385-81.798 1.539-3.847m-1.539 3.847 169.232 39.231m-167.693-43.078h3.846l30.77 2.308 14.615-1.538m-49.231-.77 167.693 38.462m-118.462-37.692-1.538-17.821m1.538 17.821 89.231 21.538 146.924-30 35.385 12.308m0 0 2.308 3.846-155.386 34.616m153.078-38.462-153.078 33.846m0 4.616v-4.616m155.386-28.461-.77 34.615 120.001-33.077m0 0-48.462-11.539 3.846-34.615m44.616 46.154 13.846-35.385m-58.462-10.769 57.693 7.692m0 0 .769 3.077m19.231 36.778-12.308 27.069-47.692 17.692m60-44.761a6528 6528 0 0 1-38.462 11.378m-21.538 33.383-3.077 4.615-98.462 29.231h-3.846m105.385-33.846 21.538-33.383m-126.923 67.229-129.232 31.539m129.232-31.539-28.462-.434-12.308-20.58m40.77 21.014 8.267-33.846m-137.499 65.385-106.154-21.539c-1.795-.769-5.693-3.076-6.923-6.153a1787 1787 0 0 1-3.847-9.741m116.924 37.433v-31.973m0 0c26.008-5.268 56.364-12.429 88.462-20.58m167.693-46.215c-37.065 10.841-78.19 22.514-118.656 33.383m-49.037 12.832a3713 3713 0 0 0 49.037-12.832"/><path stroke="#fff" stroke-width="2" d="m546.922 240.705 401.541-4.615m-401.541 13.846 401.541-9.231m-362.31-85.385 301.54 73.077-310.77 2.308-286.156-97.693zm-43.849 131.539 400.002-17.692M382.307 473.014l-3.846-2.308-2.308-19.231-30-80.769-15.384-40.77-83.847-19.23-27.692 92.308 5.384 53.846-3.077-1.538-1.538-16.923"/><path stroke="#fff" stroke-width="2" d="M275.273 358.574c15.952-2.237 32.63 9.478 46.67 30.953 13.992 21.403 25.135 52.19 30.057 87.286 4.923 35.096 2.679 67.76-4.885 92.186-7.59 24.509-20.402 40.361-36.354 42.598s-32.631-9.478-46.67-30.953c-13.992-21.402-25.136-52.189-30.058-87.285-4.923-35.097-2.679-67.761 4.885-92.187 7.59-24.509 20.403-40.361 36.355-42.598ZM-10.08 255.51c2.356-.147 4.911 1.329 7.53 4.635 2.597 3.277 5.097 8.164 7.342 14.346 4.487 12.35 7.88 29.648 9.088 48.955s-.004 36.893-2.917 49.706c-1.459 6.414-3.33 11.574-5.498 15.15-2.187 3.606-4.538 5.389-6.894 5.536-2.355.148-4.911-1.329-7.53-4.634-2.597-3.278-5.097-8.165-7.343-14.346-4.487-12.351-7.88-29.649-9.088-48.956s.005-36.893 2.918-49.706c1.458-6.413 3.33-11.574 5.498-15.149 2.187-3.607 4.539-5.39 6.895-5.537Z"/></mask><g mask="url(#b)"><path fill="#D9D9D9" d="M984.371 22.733H49.013v603.932h935.358z"/></g></g><defs><clipPath id="a"><path fill="#fff" d="M1005 0H0v754h1005z"/></clipPath></defs></svg>