<svg fill="none" viewBox="0 0 1005 754" xmlns="http://www.w3.org/2000/svg"><g clip-path="url(#a)"><mask id="b" width="1068" height="493" x="-116" y="127" maskUnits="userSpaceOnUse" style="mask-type:alpha"><path stroke="#fff" stroke-width="2" d="m832.555 497.378-6.565 45.227m-23.342-76.593-7.295 6.565-4.377-.437m11.672-6.128 65.553-48.874m-65.553 48.874 26.99-198.414m120.361-25.531L925.927 374.1l-21.525 16.048m45.597-148.081C822.1 217.265 517.282 162.555 321.202 142.13c-9.483-.729-108.69-10.212-177.26-13.13m806.057 113.067-120.361 25.531M143.942 129c28.012 1.751 133.249 20.668 182.366 29.908M143.942 129C115.013 142.5 40.76 172.997-68.331 233.472m-45.957 26.102c.584 8.17 3.161 33.555 4.377 45.227l3.205-21.155m-7.582-24.072a2571 2571 0 0 1 45.956-26.102m-45.956 26.102c34.239-.418 70.962-.68 109.42-.812m834.506 8.836-503.33-108.69m503.33 108.69c-113.881-2.414-318.746-5.939-526.673-7.757m23.343-100.933-3.711 16.048m-19.632 84.885v160.944l8.024 40.773m-8.024-201.717 5.123-22.151m-5.123 22.151c-57.527-.503-115.289-.875-171.424-1.057m179.448 202.774 43.039 8.831-2.918-42.309 60.545-107.231 167.048 10.942 78.052 126.926 134.221 13.423m-479.987-10.582-159.023-32.629M308.088 237.69c-34.239 0-94.674.409-164.146 1.639m164.146-1.639.675-2.918M-70.52 245.714c.73-4.377 1.459-10.107 2.188-12.242m-2.188 12.242c24.585-1.127 50.113-2.105 75.864-2.953m-75.864 2.953 4.113-2.188m210.349-4.197-12.401 19.455m12.401-19.455c-38.785.686-80.387 1.629-121.82 2.899m109.419 16.556 8.754 136.47 11.671 33.675m-20.425-170.145c-46.973-.152-92.806-.171-136.41-.022m156.835 170.167-133.491-27.39M5.345 242.761l-10.213 16.001m10.212-16.001q8.38-.275 16.778-.533m-16.778.533c-9.996.318-15.218-.223-17.534-1.424m7.322 17.425L5.344 369.723l13.13 31.816m0 0-2.188-.449-51.062-126.197-59.087-2.918-3.647.729-8.754 8.024-.442 2.918m429.303-108.69-13.834 59.816m13.834-59.816a405 405 0 0 0-10.149-2.686M22.122 242.228l.045-2.35m-8.649-37.932c68.819-34.925 107.719-52.096 128.236-61.275a2129 2129 0 0 1 32.826 4.802M13.518 201.946l9.333 2.189-.684 35.743m-8.649-37.932c-2.338 0-13.134 8.17-30.058 26.261v5.836l2.189.729.73 5.106c.185.559.638 1.048 1.431 1.459m25.708-39.391c-23.12 11.733-49.615 25.47-79.925 41.58m259.223-95.156c55.687 9.103 97.505 18.311 119.632 23.9m-119.632-23.9c-6.565 16.877-20.862 58-25.531 87.482m25.531-87.482a2101 2101 0 0 0-18.236-2.897m-240.987 98.053 54.217-2.189m34.357-1.459a17513 17513 0 0 1 119.587-3.412m167.009-1.694c-2.595-.203-6.281-.353-10.904-.454m0 0 14.589-62.048m-14.589 62.048c-24.683-.543-76.067.276-130.574 1.534m0 0c-8.464.195-17.004.401-25.531.614m32.826-90.993c-8.754 20.197-27.574 66.671-32.826 90.993M-97.51 330.332h-15.319l6.123-46.686m0 0 52.234 3.648 35.744 83.888 10.942 32.826 7.295 19.695 42.308 4.377 274.279 64.193 41.579 16.048 7.295 24.802 5.106 2.918v-49.604l-2.188-51.792 51.062-90.453 129.845 12.401 65.651 105.772 2.189 17.507m0 0 19.695 73.676 20.425-1.179m-40.12-72.497 215.921 17.507 48.874-42.309-5.106 32.826 34.284-37.932 8.024-32.826m-301.997 62.734h40.12l8.024-3.647 110.149 11.671 16.048-15.756m154.647-79.074-8.754 35.014-30.637 34.285-17.508 31.367-33.555 35.743 16.048-29.178-45.226 42.309-3.648.21m123.28-149.75-41.221-2.918m41.221 2.918-26.991 24.072m-14.23-26.99-36.201 26.99m50.431 0h-50.431M656.755 552.369l4.377 12.121 129.844 5.835m-134.221-17.956 138.598-7.996m-4.377 25.952 31.367-27.509m-31.367 27.509 4.377-25.952m26.99-1.557-26.99 1.557"/><path stroke="#fff" stroke-width="2" d="M455.777 389.966c48.453-13.42 102.017 25.822 119.321 88.297s-8.435 123.681-56.888 137.102c-48.454 13.421-102.017-25.82-119.322-88.294-17.305-62.475 8.436-123.684 56.889-137.105Zm368.754-82.248 121.091-40.12m-566.793-97.019 199.873 6.565M-54.473 287.293l1.46-2.918 18.236-9.483M-18 371.911l2.917-1.459H3.155m-10.213 33.555h18.966l11.672-1.459m330.447 67.841 1.459 8.024 8.024 5.835 6.565 2.189m-18.966-58.357 9.483 5.106 7.295 1.459m43.767-113.067 2.918 17.507 4.377 5.106m159.753-12.401-24.073 18.967-5.106 5.835m107.231 102.855-2.918 1.459-30.637 1.458h-8.754"/></mask><g mask="url(#b)"><path fill="#D9D9D9" d="M1013.88 32.61H25.888v592.796h987.992z"/></g></g><defs><clipPath id="a"><path fill="#fff" d="M1005 0H0v754h1005z"/></clipPath></defs></svg>