<svg fill="none" viewBox="0 0 1089 855" xmlns="http://www.w3.org/2000/svg"><mask id="a" width="1039" height="703" x="39" y="81" maskUnits="userSpaceOnUse" style="mask-type:alpha"><path stroke="#fff" stroke-width="2" d="M1072.27 286.413c-20.45-14.194-57.49-34.753-97.894-55.874m103.054 97.145-94.535-.79m-242.666-2.03c-3.002 1.573-12.76 3.773-27.777-.004m27.777.004c2.746-1.017 4.63-4.079 6.022-7.263m-6.022 7.263 101.616.85m-129.393-.854-649.161-5.657c61.79-16.529 151.241-39.992 248.966-64.688m400.195 70.345-42.64-9.817c-.462-.056-1.077-.292-1.685-.799m-2.854-11.259.56 4.475c-.066 3.755 1.101 5.79 2.294 6.784m-2.854-11.259-38.787-11.308c.399-2.446 1.637-7.429 3.722-10.62m35.065 21.928 62.468 14.912c5.109 1.213 15.964 2.851 18.51-.296m-78.124-3.357c.106.66-1.063 1.446-6.582-.692s-42.04-14.437-59.61-20.319m0 0-10.008-11.374m10.008 11.374-14.79 31.142-51.886 158.503m66.676-189.645-285.422-4.697m275.414-6.677 1.926-4.786c1.077-.808 4.239-2.449 8.266-2.549s15.643 1.241 20.947 1.925c1.073.503 4.004 2.13 7.142 4.608m-38.281.802-255.958.724m294.239-1.526a9.4 9.4 0 0 1 1.312-1.626c2.884-2.785 26.227-24.492 37.539-34.997 3.045-2.57 10.442-6.963 15.663-3.98 6.527 3.729 28.47 25.73 32.635 30.764 1.853 2.24 8.034 9.363 14.574 16.863m-101.723-7.024 20.228-84.565m95.815 121.109c.81-1.852 1.453-3.745 2.001-5.3 1.194-3.382-.829-6.63-1.989-7.832a6490 6490 0 0 1-5.581-6.372m-428.425-43.582 4.256 34.021m-4.256-34.021c169.115-42.738 363.007-89.168 481.196-109.747M312.257 254.515c-103.607-95.082-95.663-138.965-78.74-149.021m82.996 183.042c5.8-1.798 12.304-3.79 19.456-5.953m639.396-36.065-6.452-3.138m5.463-12.841c-76.538-40.007-165.158-82.029-175.979-86.624q-2.45.418-4.944.853m180.923 85.771 5.968 75.959m0 0-239.662-8.401m239.662 8.401-9.875-6.268m9.875 6.268 2.551 20.396m-242.213-28.797c-1.768-2.02-3.658-4.181-5.572-6.373m-3.179-3.643 83.373 3.101m-83.373-3.101 3.179 3.643m229.873 5.024c.818-5.575 2.748-24.054 3.93-53.368m-3.93 53.368-10.148-.377m10.148.377 5.486 3.482m-1.556-56.85-8.418-4.092m0 0c-1.107 14.49-3.79 46.194-5.66 57.083m5.66-57.083c-30.556-14.86-71.737-34.898-104.826-51.025m99.166 108.108-109.088-4.057m9.922-104.051c-.23 20.254-2.537 69.421-9.922 104.051m9.922-104.051c-7.774-3.79-15.101-7.363-21.739-10.602m11.817 114.653-12.177-.453m.36-114.2c-17.006-8.3-29.486-14.408-33.356-16.343-50.324 10.986-101.094 22.984-150.138 35.174m183.494-18.831c-.994 20.318-6.11 71.469-18.626 113.521m0 0 18.266.679m-183.134-95.369c-130.877 32.53-249.46 66.425-314.467 86.091m399.141 9.141 235.359 8.506M793.453 144.768c-54.046-17.559-171.362-54.552-208.258-62.057-42.142 2.242-291.574 14.759-351.678 22.783m0 0-1.182-1.368c-38.101 3.588-115.995 10.976-122.757 11.822s-49.31 13.575-69.738 19.834m479.507 349.087L481.73 353.722m0 0-288.529-1.278m288.529 1.278-10.75 31.141-6.215 6.838m-271.564-39.257L80.521 456.94m112.68-104.496 15.045 39.53 5.533 7.894M87.675 514.123l126.104-114.255m0 0 250.986-8.167m0 0 33.698 95.78m484.432-160.587-52.824 106.594m52.824-106.594-141.05-1.18m-8.275-33.853 13.51 11.107-5.235 22.746m0 0-53.986 125.564m176.522-22.082 50.339-61.85m0 0 56.69-3.051 3.35 2.61 2 15.912m-62.04-15.471 3.17 1.118 10.01 15.414.44 3.481m48.42-4.542-7.46 33.254 3.6-31.762m3.86-1.492-3.86 1.492m-77.69 41.03 33.13-37.98m0 0 44.56-3.05"/><path stroke="#fff" d="M186.366 494.035c51.321-37.166 106.938-58.13 155.355-62.002 48.426-3.872 89.559 9.355 112.077 40.449 22.518 31.095 22.254 74.301 3.467 119.103-18.782 44.792-56.051 91.094-107.372 128.259-51.32 37.166-106.937 58.131-155.354 62.002-48.426 3.873-89.559-9.354-112.077-40.449s-22.254-74.301-3.467-119.103c18.782-44.792 56.051-91.093 107.371-128.259Zm770.769-4.944c15.72-27.446 33.679-50.136 49.995-64.635 8.16-7.251 15.88-12.433 22.69-15.149 6.82-2.717 12.63-2.933 17.06-.397s7.19 7.661 8.29 14.915c1.1 7.247.54 16.534-1.58 27.24-4.26 21.408-14.74 48.379-30.46 75.825s-33.679 50.135-49.993 64.634c-8.159 7.251-15.885 12.435-22.695 15.15-6.815 2.718-12.63 2.933-17.058.398-4.427-2.536-7.184-7.661-8.289-14.916-1.103-7.247-.541-16.534 1.585-27.241 4.251-21.407 14.735-48.378 30.455-75.824Z"/></mask><g mask="url(#a)"><path fill="#D9D9D9" d="M63.775-87.058h1004.01v513.85H63.775z"/></g></svg>