<svg version="1.1" id="Calque_1" xmlns="http://www.w3.org/2000/svg" x="0" y="0" viewBox="0 0 500 375" style="enable-background:new 0 0 500 375" xml:space="preserve"><style>.st2,.st3{fill:none;stroke:#fff;stroke-miterlimit:10}.st3{stroke-width:.5}</style><g id="Calque_2_00000034804764884486183100000017900029520862581653_"><path class="st2" d="M34.1 117.8c3.6-4.1 9.4-3.3 17.4-7.1C69.3 100 72.1 92 76 87.3s28.7-32.2 37.7-39 5.5-9.9 13.4-15.8c29.6-18.8 94.1-21.9 122.9-22.1 28.8-.2 83.8 3 119.6 19.9 7.6 4.7 9.9 10.3 11.8 12.9C384.6 47 400 60.1 404.6 65c11.4 10.4 29.9 35.7 38.8 43.4 4.6 2.8 18.8 6.2 21.9 8.6 2.7 4.4 4.1 30 3.2 36.1-.8 4.4-2.1 3.9-2.2 5.2.1 2.1-1.1 28 1.3 33.2 3.3 9.3 10.1 16.8 10.9 20.7 2.4 7.3 0 43.3-1.1 53.3s-2.4 29.2-4 33.4-15.9 26.6-20.4 31.6-16.2 18.6-20.4 20-32.4 2.2-40.3.7c-4.6-.1-3.4-2.3-6.6-2.9-5 .5-122 3.8-129.2 3.5s-134.8-1.7-141.5-3.6c-2.6.4-3.6 3.6-6 3.5s-35 1.7-39.6.1-15.8-12.8-17-16.9c-1.3-1.5-4.6-3.8-7.3-7.3-4.9-7.1-15.6-20.3-18.9-29.3-1.1-5.8-3.9-29.3-3.6-33.7s-4.7-43.8-1.2-52.2 10.1-14.2 10.8-19.5c.7-5.2 2.1-31.5 1.7-35-.2-.9-2.9-3.2-2.8-7.1.1-3.8-.7-27.8 3-33z"/><path class="st2" d="M54.9 108.6c12.8-4 67.5-8.7 75.3-3.9 5.9 4.4-15.5 24-28.6 36.8-12.2 9.1-43.3 5.6-62 11.4-2.5.9-2.1 3.7-5.6 5.1M171.1 154.7h157.8l3 28.5H168.4zM442.9 107.8c-19.2-3.2-66.8-7.9-73.6-3.1-4.4 3.5 18.9 30.5 31.7 37.9 13.4 6.9 53.1 7 60.2 10.3 1.3 1.2 1.8 5.2 5 5.3M211.4 236.4c-2.7-4 4.8-17.4 11.8-19.8 6.9-2.4 47.5-2.4 53.1 0s14.5 14.6 12.8 19.3c-1.9 4.6-76 3.7-77.7.5z"/><path class="st3" d="M105.8 137.3s248.1-3.7 287.7.1"/><path class="st3" d="M59.9 105.4c-3.4 2.8-5.5 4.8-7.1 7-.4 2.3.2 7.7.3 7.9.7 2.1 8.4 9 1.5 21.3-3.3 10.9 6.6 35.4 6.6 45.8s-2.3 15.7-1.9 20.7 6.7 46 6.7 46-6.1 7.8-2.2 10.7c10 6.7 98.4 7.3 185.9 7.5 90.1.3 179.3 0 185.6-7.6 3.9-5-1.4-10.4-1.4-10.4l7-47.5s-2-9.8-2.5-18.7c2.5-18.4 6.7-31.8 7.2-37.9.7-9.1-2.3-9-2.8-19.9-.1-3.6 2.2-7.8 3.6-10.3.8-1.4.5-4.9-.5-8-2.1-2.4-5.2-5.5-6.4-7.4"/><path class="st3" d="M22.6 264.6c17.9 12.8 175.5 13.1 226.3 12.8 50.8-.3 180.3 1 228.6-11.9M22.8 264.1c3.6-5 17.7-13.1 18.3-13.6 1 .2 3.4 2.4 25 3.7 42 2.5 134.6 3.4 183.8 3.7 52.6.3 173.9-2.9 184.2-3.4s23.3-2.2 24.6-4c4.4 2.1 19 11.5 18.8 14.2"/><path class="st3" d="M458.6 250.4s1.4-37.3 1.6-37.8c.3-.5 9-1.4 11.6 2.6s.1 41.9 0 43.2M41 250.5l-1.4-38s-9.1-.9-11.8 2.8-2.4 9.6 0 44M75.8 91.8s121.4-6.4 173.9-5.9 156.8 2.9 174 5.9c-10.8-12.7-29.2-29.4-50.2-43.6-21.8-7.6-100.1-13.2-123.3-13-21.4.1-107.9 4.9-124 13.2S75.8 91.8 75.8 91.8z"/></g></svg>