<svg xmlns="http://www.w3.org/2000/svg" viewBox="0 0 500 375" style="enable-background:new 0 0 500 375" xml:space="preserve"><style>.st1,.st2{fill:none;stroke:#fff;stroke-miterlimit:10}.st2{stroke-width:.5}</style><g id="Calque_2"><path class="st1" d="M404.8 54.6c6.3 4.9 67.4 58.7 74 71.4 6.6 12.7 18.2 36.6 20.6 45.2M149.7 23.4c5.9-1.2 53.1-4.5 99.4-4.8 40.3-.3 80 2.2 90.2 3.8 5.7.9 12.3 3.1 19.1 5.9M.4 171.6c4.6-12.1 18-42.5 21.6-47.1 5.9-7.6 50.8-54.5 73.1-69.8"/><path class="st1" d="M159.9 22.7c-2-3.3-1.2-6.2-16.3-2.2-17.4 4.6-44 28-44.8 28.7-.8.8-8.7 13.3-8.7 13.3l10.2-2.8s30-29 50.5-36M358.2 28.3c6.6 3.7 30.3 21.4 40.3 31.1 6.1 2.2 9.5 2.7 11.5 3.3.1-.8-9-13.7-11.9-16.9-1.7-1.9-29.4-23.2-43.6-26.1-12.2-1.9-13 .3-14.4 3.1"/><path class="st2" d="M0 203.6c8.1-22.6 16.7-57.9 34.4-59.1 8.8-.6 108.9.3 212.6-.4 105.3-.7 214.2-2.9 221.6.4 14.8 6.6 22.3 36.9 31.5 57M.4 330.9C20.8 337 131 370 248.2 369.4c117.1-.6 238.4-28.7 251.8-41.4M237.7 61.3h24.6s.1-4.2-.3-6.1c-.7-1-7.1-10.2-9.1-18.3-.8-2.6-5.4-1.8-5.7-.2-.4 2.5-6.7 16.9-9.4 18.5-.3 3-.2 5-.1 6.1z"/></g></svg>