<svg fill="none" viewBox="0 0 500 375" xmlns="http://www.w3.org/2000/svg"><path stroke="#fff" stroke-miterlimit="10" d="M474.5 89.5c-35-47-76-47-76-47-125-17-225 15-225 15l-105 41-51 20c-11 7-2 15-2 15s-8 11-4 23c0 0 3 11 8 17 0 0-12 9-10 25 0 0 2 10 5 17v5s23 77 68 99c0 0 37 18 88 14l74-17 5.5-3.35s25.5-113.65 82.5-122.65c0 0 47-11 20 66l128-77s11.33-28.2 14.17-31.6"/><path stroke="#fff" stroke-miterlimit="10" d="M11 144s1.5 21.5 33.5 36.5c0 0 54 16 62 15l14 1 6 2 53 29s-49 12-91-9c0 0-58-29-69-45m-1.44 57.41S45.5 285.5 91.5 301.5c0 0 76.76 27.54 90.88 29.27M89.16 218.83S83.5 242.5 70.5 247.5l-21 1S9.51 216.34 11 185.42"/><path stroke="#fff" stroke-miterlimit="10" d="M25.38 179.81V184s15.12 40.5 41.12 52.5c0 0 9.08 4.17 13 3.58"/><path stroke="#fff" stroke-miterlimit="10" d="M28.25 182.24v3.18S38.5 204.5 53.5 216.5l2-1 1-14.48m123 26.48 43 26h8.73l34.27-4 8.15-2.2M178.32 56.08S257.5 54.5 289.5 67.5c0 0-87 42-128 68 0 0-84-21-93-31 0 0-2.84-3.84 1.08-6.42M473.5 92.5c-29-46-79-43-79-43-58 1-141 59-141 59s-7 7 5 9c0 0 45 7 74 6l137-22"/><path stroke="#fff" stroke-miterlimit="10" d="M491.5 104.5c-5 1-18-1.62-18-1.62-2-13.62 3-17.38 3-17.38s11 0 16 4"/><path stroke="#fff" stroke-miterlimit="10" d="M473 98s-3.53 3.55-4.53 5.55l3 5 7.89-4.61M335.48 63.88s3 46.62-3 59.62c0 0-2.52 8.68 3.74 15.84 0 0 27.26 24.16 33.26 86.16l4 5h4.33l96.11-53.33s7.78-4.46 9.17-4.07"/><path stroke="#fff" stroke-miterlimit="10" d="M394.5 49.5s19 28.26 27.48 59.63c0 0 12.52 15.37 13.52 24.37 0 0 2 23-8 46v3s2 6-1 10l-5.76 14.19m64.7-102.1s5.06 7.91 6.06 12.91v8.84s-4 23.16-10 34.16v4.37l-4.5 10.66M359.5 152.5l1-1 5-2 2 1s3 2 6 1l6-2 1-1-3-3 4-1 3.44 4v4l-2.44 2-19 5-4-2.43a6.44 6.44 0 0 1 0-4.57Zm82-25 3 1h2l3.48-1-1.48-2h3l2 2v3s-11 4-13 4l-2-1-1-2v-3zM326.2 192c9.7 2.45 19.75 10 19.75 10 16.55 12.58 15.68 45.72-3.91 79.65-19.3 33.43-48.71 52.71-66.24 43.65l-24.09-18.87m220.68-122.05 13.11 4.12s6.5-.4 7.25-2.7"/></svg>