<svg fill="none" viewBox="0 0 500 375" xmlns="http://www.w3.org/2000/svg"><path stroke="#fff" stroke-miterlimit="10" d="M72.5 119.5s70-102 96-105c0 0 80.52-12 165.76 0 0 0 26.76 3 96 105 0 0 35.24 25 56.24 59v7.16s4 7.84 1 15.84c0 0-4 7-9 10 0 0 0 38 5 52l-1 12s-16 40-20 43l-9 4-7 11s-24 18-37 21c0 0-161.7 31-315.85 0 0 0-34.15-17-37.15-21l-8-11-10-7s-16-26-21-47v-7s8-15 6-50l-9-11a47.16 47.16 0 0 1 2-22s29-43 56-59Z"/><path stroke="#fff" stroke-miterlimit="10" d="M368.1 40.05c-117.4-22.45-233.26 0-233.26 0m241.75 9.09c16.09 22.65 41.75 66.36 41.75 66.36-138.16 8-335.84 0-335.84 0s25.5-41.85 37.73-58.93M16.5 178.5s34 17 124 30c0 0 142.36 9 218.68 0 0 0 118.32-20 127.32-30"/><path stroke="#fff" stroke-miterlimit="10" d="M23.5 211.5s18 19 96 18h5.33l13.67-3s143 7 224-1l21 4h7.95s71.07 0 87.07-18"/><path stroke="#fff" stroke-miterlimit="10" d="m167.47 227.66 1 32.84 2 2 161-1 2-2s1.83-26.68.91-31.84"/><path stroke="#fff" stroke-miterlimit="10" d="m78.31 227.88 9.19 24.62s7 15 49 20c0 0 175 11 251-4 0 0 18-4 24-11 0 0 8.12-11.23 11.56-29.62M35.07 309.61s63.43 28 214.93 26.47c0 0 128 3.64 217.76-26.47"/></svg>