<svg fill="none" viewBox="0 0 500 375" xmlns="http://www.w3.org/2000/svg"><path stroke="#fff" stroke-miterlimit="10" d="M143.5 240.5c-12-50 18-46 18-46 63 7 88.5 120.79 88.5 120.79l4.5 5.21 66 14c71 11 96-11 96-11l32-29c31-35 38-75 38-75 13-26-6-42-6-42 16-19 6-38.62 6-38.62 5-6.62 0-13.38 0-13.38l-55-21c-31-14-104-41-104-41-144-40-244-13-244-13-29 8-56 44-56 44l-.44.71M7 152.48s12.5 30 13.5 31c0 0 121 68 126 78"/><path stroke="#fff" stroke-miterlimit="10" d="M172.89 197h-1.43c-3.258.14-6.459.904-9.43 2.25-21.11 9.61-24.79 46.9-8.23 83.31s47.12 58.12 68.23 48.51l26.83-20.39M7.25 189.58s2.25 2.92 5.25 2.92l17-3.94M324.51 62.68s-49-7.18-112 8.82c0 0 114 61 126 69 0 0 102-26 93-36m-111.01 230s73-22 78-23c0 0 50.35-14.48 82.18-71.74m-.18-62.26c-7 13-52 35-52 35l-17 10c-48 25-91 10.24-91 10.24s48-28.24 54-30.24l7-1s37-6 39-7c0 0 34-8 41-13 0 0 27.64-14.82 27.32-35.41"/><path stroke="#fff" stroke-miterlimit="10" d="m443.58 204.59.92 16.91s20.36-15.83 28.18-31.92v-3.68"/><path stroke="#fff" stroke-miterlimit="10" d="M410.56 223s7.94 26.52 18.94 29.52l21 1s31-18.93 39.51-60"/><path stroke="#fff" stroke-miterlimit="10" d="M474.77 184.12v5.46S464.5 219.5 432.5 240.5c0 0-6.57 4.07-12.78 3m-193.43 7.91 10.44 2.09 37.77 5 5-2 41-23.76M7.5 93.5s11-3 15-4l3.35 2s2.65 4.79 1.65 14.89l-2 2.11s-14 2-18 1"/><path stroke="#fff" stroke-miterlimit="10" d="m27.73 102.04 5.77 5.46-4 6-7.38-4.56"/><path stroke="#fff" stroke-miterlimit="10" d="M27.73 96.92S54.5 62.5 77.5 56.5c0 0 36.29-11.58 106.65 20.21 0 0 62.35 32.79 63.35 40.79l-2 3s-28 9-77 7L31.64 105.74M50.5 129.5h2l-2 3.07s6 1.93 8 .93l1-2 4 2-1 5h-2s-11-1-13-4v-1.35s1-3.65 3-3.65Zm73 21-2 2s-1 1.55 1 2.28c0 0 5 1.72 7 1.72 0 0 1.76 1 5.88-3 0 0 6.12 1 6.12 3v5.16l-2 2.84s-16.08-1-22.54-7l-.46-2V153s1-3.52 4-3.52a4.94 4.94 0 0 1 3 1.02Z"/><path stroke="#fff" stroke-miterlimit="10" d="M17.56 177.32s97.6 53.66 101.77 55.42c0 0 9.17 4.76 12.17-2.24 0 0 2-45 25-75 0 0 15-16 12-28 0 0-8.33-26.21-3.17-58.61"/><path stroke="#fff" stroke-miterlimit="10" d="M106.27 54.81s-20.81 34.07-27.79 58.38c0 0-26 23.31-5 71.31 0 0 1.26 2.17-.87 5.08l-.13 4.92s7 10 8 17"/></svg>