<svg fill="none" viewBox="0 0 500 375" xmlns="http://www.w3.org/2000/svg"><path stroke="#fff" stroke-miterlimit="10" d="M312.86 5.33S260.5 23.5 240.5 42.5c0 0-145 3-212 60l-10 24s6 59 11 74l-1 14s48 84 164 100c0 0 105 5 124 2 0 0 35-13 40-20 0 0 45-200 98-198 0 0 25 2 13 67 0 0-2.32 9.19-3.66 11.1m28.91 8.44L457.5 215.5l-1.01.94"/><path stroke="#fff" stroke-miterlimit="10" d="m437.16 104.78 10.54 1c.465.061.926.151 1.38.27 18.54 4.76 21.67 54.93 7 112-13.83 53.85-38.56 94.65-56.88 95.15h-6.92s-32.78-12.7-35.78-16.7M20.95 148.38 73.5 175.5l3 36-49-33-6.55-30.12Z"/><path stroke="#fff" stroke-miterlimit="10" d="M28.5 102.5s72 18 94 15l28 53v4.15l-33 79.85-4 3s-52-15-84-57"/><path stroke="#fff" stroke-miterlimit="10" d="M122.5 117.5s232-28 244-29h8.73l6.27 10-45 53s-31 14-43 15c0 0-134 8-143 4"/><path stroke="#fff" stroke-miterlimit="10" d="M133.27 116.2s36.23 36.3 55.23 43.3c0 0 117-1 148-8M462.36 6S450.5 32.5 450.5 38.5c0 0-168-5-210 4m67.76 52.73S380.5 56.5 452.5 55.5l2-2s-4-12-4-15m25.93-33.17S466.5 34.5 467.5 41.5l1 4 14 1m9.5-19.37-2.5 3.37v7.33l3.25 3.67"/><path stroke="#fff" stroke-miterlimit="10" d="m489.5 37.83-8 9.67s9.5 11.11 11.25 10"/></svg>