<svg fill="none" viewBox="0 0 500 375" xmlns="http://www.w3.org/2000/svg"><path stroke="#fff" stroke-miterlimit="10" d="M491.3 50.83C368.11 23.16 212.5 58.5 212.5 58.5l-104 38c-14 4-47 13-47 13-31 11-43 33.28-43 33.28l-3 6.72 3 9-4 13 1 10 14 11s-26 26-9 53l2 11s24 32 58 37l60 10h10.1a65.885 65.885 0 0 1-3.1-20c0-40.32 37.07-72.28 82-75 49.5-3 93 13 81 75-.62 3.18-.24 6.43-.69 9.56 0 0 169.3-22.73 181.49-21.65"/><path stroke="#fff" stroke-miterlimit="10" d="M96.09 100S76.5 114.5 85.5 124.5c0 0 151-55 159-53 0 0-25-10-32-13m-183 134 10 8a70.821 70.821 0 0 0 24 4"/><path stroke="#fff" stroke-miterlimit="10" d="m17.49 161.78 3 4.72 5 2s44 44 78 70l43 8 11.85.9M491.3 58c-20.19-3.48-70.8-2.51-70.8-2.51-120 3-240 55-240 55s-10 5 3 10c0 0 57 12 97 16 0 0 209.61-.23 210.8-2.11m-211.46 2.12s-8.12 16.55-5.73 25.28c0 0 53.26 91.73 57.32 97.22 0 0 8.07 15.5 33.07 13.5l126.8-10.26"/><path stroke="#fff" stroke-miterlimit="10" d="M314.06 69.06S299.5 111.5 288.5 130.5l-7 2-1.87 4.43m157.43-81.56s26.91 58.9 28.67 80c0 0 13.85 16.86 16.81 36.48 0 0 0 25.63-12 58.63v11l-1 4s-10.11 12.12-13.06 19.56M318.5 170.5s2 6 6 6l16-1s5-1 1-6l10 1s4 4 4 5l-1 4s-25 3-47 3a10.758 10.758 0 0 1-5-4s1-5 4-6l12-2Z"/><path stroke="#fff" stroke-miterlimit="10" d="M318.5 170.5s21-2 23-1m-24.13 12.82 5.13 5.18s10 1 16-1c0 0 4.28-3.77 5.14-5.88m-94.754 154.258c40.183-12.47 64.464-49.303 54.234-82.27-10.23-32.967-51.098-49.584-91.281-37.114-40.182 12.469-64.464 49.303-54.234 82.27 10.231 32.966 51.098 49.583 91.281 37.114Z"/></svg>