<svg fill="none" viewBox="0 0 500 375" xmlns="http://www.w3.org/2000/svg"><path stroke="#fff" stroke-miterlimit="10" d="M492.75 199 333.5 277.5l-10 5s24-60-18-73c0 0-58-13-104 65 0 0-12 28-12 59v7.62l-33 8.38h-18.37s-49.63-2-75.63-24c0 0-23-16-28-68 0 0-20-51-8-78l5-12s49-54 173-68c0 0 47-36 86-48 0 0 87.5-22 202.25 0"/><path stroke="#fff" stroke-miterlimit="10" d="m291.72 208.8 16.14 8.86a26.8 26.8 0 0 1 5.57 3.35c19.67 15.38 14 55.5-12.68 89.62s-54.25 44.87-83.92 33.91a14.5 14.5 0 0 1-6.33-5s-17.71-20.63-19.36-26.82M281.5 54.63s52-5.13 121 5.87c0 0-28 21-66 73 0 0-67-1-134-29 0 0-4.17-1.28-1.08-4.64M31.5 167.5s-2 39 17 54l4 38-3 35s-13.89-20.5-14-28.25"/><path stroke="#fff" stroke-miterlimit="10" d="M48.5 221.5s81 9 101 5l38-7 3.64 6.51-40.64 36.49-30.68 8.76h-5.07S57.5 265.5 52.5 259.5"/><path stroke="#fff" stroke-miterlimit="10" d="M52.5 221.93s6 18.57 21 32.57c0 0 37 10 77 8m-15.57-34.98s93.57-44 168.57-63l17-7 4-4 12-20m66 2.61-6 5.37-7 1s-10.58-5-11.29-9l3.29-5v-4.75a55.3 55.3 0 0 1 19-16.25l7-1s24 3 36 16l-3 8-2.75 3a84.64 84.64 0 0 1-39.25 2l-17-7"/><path stroke="#fff" stroke-miterlimit="10" d="M381.5 123.75s50 3.75 62-1.25"/><path stroke="#fff" stroke-miterlimit="10" d="M492.75 57.5c-36.75-12-68.25 0-68.25 0-25 7-70 74-70 74l-3 7 28-7m58.64-13.69 54.61-13.02"/><path stroke="#fff" stroke-miterlimit="10" d="M455.94 52.2s12.94 37.31 10.75 58.8M452 138.5l6.46 2h2.94l3.22-1-3.22-3.26s3.94-2.32 5.5-1l2.65 3.29v2.9s-14 6-17.55 5l-3.54-.95-.7-3s1.83-3.98 4.24-3.98Z"/></svg>