<svg fill="none" viewBox="0 0 500 375" xmlns="http://www.w3.org/2000/svg"><path stroke="#fff" stroke-miterlimit="10" d="M6 131.85S143.5 49.5 390.5 87.5"/><path stroke="#fff" stroke-miterlimit="10" d="m377.5 92.5 4-2h6l11-10 4-1-4 11 3 1 2 4a85.118 85.118 0 0 1-17 0l-9-3Z"/><path stroke="#fff" stroke-miterlimit="10" d="M399.17 88.66s71.34 17.8 91.84 28.82m-451.76-1.16S-37.5 187.5 80.5 343.5c0 0-26.92 22.33-30 26.17m30-26.17S240 190.94 492.75 151.72"/><path stroke="#fff" stroke-miterlimit="10" d="M111.08 368.25S296 204.55 492.75 176"/><path stroke="#fff" stroke-miterlimit="10" d="M348.71 218.7s9.38 133.13-1.91 151m31.04-162.85s28.48 115 17.57 162.82m3.67 0s88.92-67.73 93.67-73.95m-74.11 72.53s69.36-54.91 74.11-61.83"/></svg>