<svg fill="none" viewBox="0 0 500 375" xmlns="http://www.w3.org/2000/svg"><path stroke="#fff" stroke-miterlimit="10" d="M14.5 50.83c123.2-27.67 278.8 7.67 278.8 7.67l104 38c14 4 47 13 47 13 31 11 43 33.28 43 33.28l3 6.72-3 9 4 13-1 10-14 11s26 26 9 53l-2 11s-24 32-58 37l-60 10h-10.09a66.169 66.169 0 0 0 3.09-20c0-40.32-37.07-72.28-82-75-49.5-3-93 13-81 75 .62 3.18.24 6.43.7 9.56 0 0-169.3-22.73-181.5-21.65"/><path stroke="#fff" stroke-miterlimit="10" d="M409.71 100s19.59 14.5 10.59 24.5c0 0-151-55-159-53 0 0 25-10 32-13m183 134-10 8a70.824 70.824 0 0 1-24 4"/><path stroke="#fff" stroke-miterlimit="10" d="m488.31 161.78-3 4.72-5 2s-44 44-78 70l-43 8-11.85.9M14.5 58c20.2-3.48 70.8-2.51 70.8-2.51 120 3 240 55 240 55s10 5-3 10c0 0-57 12-97 16 0 0-209.6-.23-210.8-2.11M226 136.5s8.13 16.55 5.74 25.28c0 0-53.26 91.73-57.33 97.22 0 0-8.07 15.5-33.07 13.5L14.5 262.24"/><path stroke="#fff" stroke-miterlimit="10" d="M191.74 69.06s14.56 42.44 25.56 61.44l7 2 1.87 4.43M68.74 55.37s-26.91 58.9-28.67 80c0 0-13.85 16.86-16.81 36.48 0 0 0 25.63 12 58.63v11l1 4s10.12 12.12 13.06 19.56M187.3 170.5s-2 6-6 6l-16-1s-5-1-1-6l-10 1s-4 4-4 5l1 4s25 3 47 3a10.758 10.758 0 0 0 5-4s-1-5-4-6l-12-2Z"/><path stroke="#fff" stroke-miterlimit="10" d="M187.3 170.5s-21-2-23-1m24.14 12.82-5.14 5.18s-10 1-16-1c0 0-4.28-3.77-5.14-5.88m186.063 117.176c10.23-32.967-14.051-69.8-54.234-82.27-40.183-12.469-81.051 4.148-91.281 37.115-10.23 32.967 14.051 69.8 54.234 82.269 40.183 12.47 81.051-4.147 91.281-37.114Z"/></svg>