<svg version="1.1" id="Calque_1" xmlns="http://www.w3.org/2000/svg" x="0" y="0" viewBox="0 0 500 375" style="enable-background:new 0 0 500 375" xml:space="preserve"><style>.st1,.st2{fill:none;stroke:#fff;stroke-miterlimit:10}.st2{stroke-width:.5}</style><g id="Calque_2_00000014602230682614385790000010915680884217878412_"><path class="st1" d="M478 131.7c4.5-12.2 3.9-42.1 2.5-45.1-3.4-3.4-6.9-4.5-11.3-8.6-1-2-4.9-27.3-14.8-30.9-15.1-8.7-84.6-13.5-107.9-13.7-22.3-.2-73.4 1.3-102.6 14-27.9 12.6-56.8 38-74.5 51-21 5.9-65.2 22.4-82.6 33.2-3.9 2.4-24.3 10.1-37.3 22.2-8.4 7.8-22.6 22.9-32.9 48.7.7 10.4 8.1 38.3 17.1 61.4 9.1 23.2 42.2 73.2 89.6 80.9 42.6 6.4 79.9 9.8 116.2-16.1 2.4-6.4 1.3-36.5 23.8-73.2 14-23.6 42.4-49.1 61.8-43 10.7 2.4 16.1 33.2 5.7 44.7-5.7 9.1-5.4 10.7-5.4 10.7s113.3-87.1 118-91.8c0 0 18.2-46.4 26.1-53.7 8.6-8.8 9.2-2.7 8 4.3-1.9 8.2-2.7 12.1-3.4 13.9-.3 1.9 3.6-8.1 3.9-8.9z"/><path class="st1" d="M25.9 183.6c3.5-4 43.3-41.8 58.5-50.7M251.3 200.2c5.1 2-14.1 44.5-21 51.9-6.9 7.5-31.8 11.6-43.4 11.2s-47.9 7.5-58.8 5.1c-10.6-2.3-28.3-9.5-31.7-17.7-.2-4.8 23.4-13.3 29.4-15.5 6-2.1 123-33.9 125.5-35zM31.6 248.3l-1.3-1.3c-4.3-5.6-5.1-9.3-5.7-10.2M16.7 202.7C27.7 232.6 70.5 256 90 272c7.7 4.6-5.2 24.4-9.4 24.7-3.3.4-7-.9-10.9-3.3-.6-.4-.9-.6-1.7-.7M242 314.2c2.8 2.3 11.9 11.5 19.1 13.9 3.8 1.2 12.6 4.4 24.3-3.4 11.7-7.8 27.4-25 36-47.2 4.6-10.9 8.3-24.5 7.2-40.9-1-7.9-3.5-14.1-11.1-18.1-7.7-4.1-10.1-4.3-10.1-4.3M437.2 181.5c4.5 2.1 10.4 3.5 14.2 3.4 3.8-.1 8.2-5.2 10.7-9.5 3.5-6.7 9.2-21.6 11.2-29.1 1-3.8 3-13.2 1.6-17.7-1.6-4.5-3.2-5.4-5.2-5.8M419.2 130.3c-1.8.9-5.4 2.4-6.5 3.2s-2.9 2.3-3.1 2.9c-.1.7 0 3.4.2 3.7.5.3 3.2-.2 3.5-.3.9-.6 11.1-5.4 11.8-6.7.1-1 .1-2.4-.3-3.5-.5-.7-1.1-.9-2.1-1-.5.3-2.5 1.2-3.5 1.7zM466.6 104.1c-.3 0-1.7.6-2.2.9s-3.5 1.7-3.8 1.9c-1 .7-1.8 1.3-2.1 1.7-.4.5.4 3.2.5 3.4.1.2 1 .1 1.6-.2.6-.3 4.1-1.8 4.9-2.2.7-.4 3.1-1.6 3.4-2.6s.2-1.6 0-2.1c-.1-.1-1.7-.9-2.3-.8zM348.6 134.5c.4-3.1 2.5-7.7 5.6-9.2s4.2-2.3 6-2.2c1.8.1 1.5.3 1.5.3s-1.2-2.1-.7-3.2 5.3-11 9.4-12.2 5.8-1.7 9.3-.7 22.1 5.8 23.4 9-.4 9.7-2.6 10.9c-2.3 1.2-7.6 3.4-16.5 3.8-9 .5-20.7.2-23 .5-2.5.3-12.6 4.7-12.4 3zM472.1 80.3c3 4.2 5.3 7.4 5.9 9.1s3.4 10.3 3.6 11.6M185.3 86.3c-.6-2.6 1.3-5 2.7-5.5s3.6-1.1 5.9-1.2"/><path class="st2" d="M37.7 172.2c15.9 24.2 57.4 47.7 67 53 7.3 4.1 13.5 7.9 20.3 10.2M251.3 199.9c10.4-5.4 58.6-24.9 62.2-37 3.3-19.8 4.4-25.9-2.6-27.5"/><path class="st2" d="M243.7 49.2c-17.5 7.7-70.9 49-72 51.7 13.5 13.7 121.4 37.6 137.1 34.6 7.2-.7 17.1-1.7 22.1-2.9 15.2-31.7 36.3-62.7 40.5-75.1-32.4-7.5-116.5-10-127.7-8.3zM385.9 35.3c1.1-1.8 2.4-3.3 3.2-3.6.9-.3 2.8 0 3.2 0s-.1 3.4.1 4.3M30 241.9l3.5 12.9s3.9 12 11 19.8 19.1 24.1 23.6 25.4-3-13.9-3.2-16.4-18.8-16.3-21-20S32.2 248 30 241.9zM213.6 275c2.1 1.6-16.5 30.3-18.2 39-7.3.5-33.1-.5-37.4-1.9-2.6-3.2 26.3-27.2 30.3-29.2s24.1-8.7 25.3-7.9zM361.7 123.8c.7 1.5.3 1.8 3.7 2.2 2.6.3 30.8 1.2 33.8 0 3.1-1.2 2.9-1.3 2.9-1.3"/><path class="st2" d="M339.6 257.2c12.6-52.3 11.8-87.7 4.9-100.1-2.5-4.7-7.4-10-3.1-22.6 5.7-16.2 30.1-65 39.4-73.1S400.5 46.6 414 46s29.9.5 44.5 13.6c5 7 3.7 17.5 3.5 21.2 2.3 6.2 7.4 10.9 8.1 12.9 4.7 9.7-5.6 37.5-34 88.7"/><path class="st2" d="M400.6 113.9c21.2-9.6 36.5-16.2 43.6-21.1 11.5-7.8 16.8-12.5 18-14.8M340.1 140.3c1.9-.7 9.8-4 20.4-8.6"/><path class="st2" d="M414.2 46c6.7 16.5 10.3 55.1 10.3 57 .1 3.2 1.7 14.1 3.4 16.2 5 21.1-12.4 74.3-17.3 83.2"/></g></svg>
