<svg xml:space="preserve" id="ffocus18-43ljK5xC_svg__Calque_1" x="0" y="0" version="1.1" viewBox="0 0 500 375" xmlns="http://www.w3.org/2000/svg"><style>.ffocus18-43ljK5xC_svg__st1,.ffocus18-43ljK5xC_svg__st2{fill:none;stroke:#fff;stroke-miterlimit:10}.ffocus18-43ljK5xC_svg__st2{stroke-width:.5}</style><g id="ffocus18-43ljK5xC_svg__Calque_2_00000002372176803176696570000008302613740603601590_"><path d="m500 217.4-28.7 31.7 2.6-13.5s6.8-7.9 7.5-9 16.2-81.9-6.8-85.5-63 81.3-79.6 169.3c-28.1 41.6-91.2 40.9-115.9 42.1-18 1.3-101.3-5.5-142.6-16.9-33-24.3-81.8-45.6-104.6-96.8 1.1-3.9 6.3-8.8 6.5-10.1s-2.3-13.6-2.3-13.6-2.3-3.3-4.2-7.8c-3.7-10.5-4.9-49-5-52.7.3-.8-6.2-6.3-4.2-11.5 2.6-6.5 31.8-34.3 57-45.8 26-11.8 103.7-29.8 144.3-30.5 5.9-2.8 44.5-32.1 78.9-45C330.2 11.7 386 1.9 396.6 0" class="ffocus18-43ljK5xC_svg__st1"/><path d="M414.1 90.3c4.3-.5 6.6 26-22.9 78.5-33.5 14.3-51.3 7.4-66.8 8.9-9.7.9-60.2 7-106 7.2-25.5-2.1-54.4-17.2-54.4-23.4 5.4-31.1 242.5-70.3 250.1-71.2zm-391 53.6c7.9 4.3 37.8 14.5 70.9 22.6 11.4 4.2 55.1 31.6 57.2 36.4s-13.8 40.9-32.9 54.3c-5.8 3.4-14.7 1.5-24.8-3.1" class="ffocus18-43ljK5xC_svg__st1"/><path d="M367.1 207.4c3.4 2.9-31.1 62.4-32.3 73.8 0 3.4-70 1.7-72.3 0-6.6-3.8 40.8-44.6 58.5-59.5 12.7-9 39.8-14.8 46.1-14.3z" class="ffocus18-43ljK5xC_svg__st2"/><path d="M382.5 324.7c7.8 4.2 30 13.6 32.7 14.1 2.8.6 11.8 3.4 20.3-7.1s24.8-36.1 30.8-62 14.6-62.4 12.9-82.2c-1.7-19.9-4.1-28.9-12.1-34.2-6.3-3.1-9.5-2.8-9.5-2.8M224 66.8c17.8-2.6 210.8-18.1 246.9-15.7m29.1 2.1h-8.5c-.9.8-2.1 4.2-1.9 8.9.4.6 7.7 1.7 10.3 1.4" class="ffocus18-43ljK5xC_svg__st1"/><path d="M34.8 202.5s6.7 10.4 22.5 20 33.9 18.1 34.2 18.1 4.6 32 4.2 33.8-33.3-19.9-40.8-27.2c-6.1-5.9-13.4-12.9-15.8-18.7-1.4-4.9-4.3-26-4.3-26zm21.7-91.1c15.2-4.1 80.4 3.9 115.4 10.2 17.6 3.7 40.5 12.7 40.5 12.7m201.7-44.1c31-7.9 50.2-5 54.2-11.6.5-6.6-10.6-27.7-10.6-27.7M230.3 65.7c7.3-5 47.2-32.6 70.3-40.8S383.8 2 411.1 0m52.5 50.5c7.1-20.4 15.8-43.1 17.1-50.5m17.4 63.7c.2 1.2.4 1.9.4 1.9h1.5M500 2c-2.3 0-4.3 2.9-9.2 29.4 1.2 4 3.4 13.5 5.1 21.5" class="ffocus18-43ljK5xC_svg__st2"/></g></svg>