<svg xml:space="preserve" id="ffocus18-IoqRrmlA_svg__Calque_1" x="0" y="0" version="1.1" viewBox="0 0 500 375" xmlns="http://www.w3.org/2000/svg"><style>.ffocus18-IoqRrmlA_svg__st2,.ffocus18-IoqRrmlA_svg__st3{fill:none;stroke:#fff;stroke-miterlimit:10}.ffocus18-IoqRrmlA_svg__st3{stroke-width:.5}</style><g id="ffocus18-IoqRrmlA_svg__Calque_2_00000176008519924175901080000003144327100949702079_"><path d="M27.1 158.4c-2.9-7.7-6.4-19.3-6.7-28-.1-3.6.4-7.3 4.2-5.1 5.4 3.2 16 21.6 23.8 47.9 9 9.3 6.3 8.7 7.4 11.2 5.5 4.9 123.9 92.7 125.5 93.1.4.1 1.9.1 1.9.1" class="ffocus18-IoqRrmlA_svg__st2"/><path d="M30.1 100.6c-4 1.6-7.3 2.7-8.3 3.1-3.4 1-3.2 12.7-3.1 15.5-.8 5.7-1.8 13.5 8.3 38.8m25.9-68.3C61.4 79 71.3 68.3 81.6 59.6s18.2-12.5 34.9-16.1c15.2-3 51.6-5.8 64.7-6.3 13.3-.5 59.8-1.7 84.4-.4 9.4.3 23.6 2.1 38.9 4.2l.2.1M182.1 275.7c-1.9-5.7-8.7-22-7.4-37.6 2.2-9.3 7.3-15 15.3-16.6 17.8-1.5 45.5 20.4 57.1 38.5 11.7 18 27.9 45.3 32.7 80 23.3 13.4 61.8 5.9 72.3 3.9 45.6-10.3 57-20.3 76-36.3 20.2-17.1 36.8-43.1 40.7-56.2.8-3.2.7-3.7 1.1-5.1 1-3.1 3.8-6.3 4.2-10.9s1.1-11.2.5-16.1c-.6-4.8 5.1-8.5 4.6-17.3-.4-8.8-12.5-28.3-13.9-29.6s11.5-22.3 11.2-27.2-2.9-14-5.4-16.5-8.5-4.8-9.9-5.5-26.3-33.2-27.6-34.7c-1.4-1.4-4.2-8.1-4.5-9.6-.6-3.1 1.1-7.9 1.9-8.9.8-.9 3.6-.8 3.5-2.3s.1-3-1.3-3.6-58.7-13.2-67.9-14.3c-4.7-.6-23.9-3.8-44.9-6.9" class="ffocus18-IoqRrmlA_svg__st2"/><path d="M29.1 96.9c.5 2 1.1 4.1 1.7 4.9s2.3 2.7 4.3 3.1 18.3.3 20-.3c1-.4 1.9-.5 1.9-.5l1.2-5.2-2.2-1.3-.7.2s-1.2-8.4-4.8-10.2c-1.8-.9-4-1.2-7.7 0s-12.4 5.5-13.2 6.5c-.8.9-.7 2-.5 2.8z" class="ffocus18-IoqRrmlA_svg__st2"/><path d="M55.2 98.2c.2 1.5.8 4.9-.3 6.3m-19.7.2c-2.1-1.4-4.9-7.1-4.3-9s14.8-8.8 18.8-8.4" class="ffocus18-IoqRrmlA_svg__st3"/><path d="M27 127.6c-2.2 1.4-3.9 3.1-3.8 9.6s2.8 20.1 7.5 31.1c3.5 8.3 6.9 17.4 15.6 22.5 3.7.8 12.9-2.6 13.9-3m146.4 37.3c-2.7 1.4-9.5 3.5-12.4 5.9s-9.8 5.9-12 15.4-1.3 21.5.8 32.9c1.2 3.8 8.5 34.1 34.5 57.9 11.9 9.6 22.9 15.9 34.4 13.7 9.3-2.4 26.7-18.8 26.7-18.8M461.2 123c2.1 2.2 14.4 18 14.2 26.8m-69.8 54.9-39.9 12.8s-16.3 9.9-19.4 10.9c-3.3 1.1-24.6 5.2-34.9 4.3s-13.6-1.1-16.3-2.7-38.9-36.4-41.5-46.7c3.8-5.2 17.1-10.6 21.8-11.1s57.6 6.8 68.3 6.4 59 2.2 62.7 2.9 8.8 4.5 9.1 6.5c-.5 2.5-8 15-9.9 16.7zm14.5-5.8-.2 21.8 39.3-33.9.4-11.9-.1-.3M82 135.9l6.8 2.8s4.7 2.3 4.8 3.2c.2.9.6 4.4-.7 5s-15.3-5.7-15.8-8.2 1.9-3.4 2.1-3.4c.2.1 2.2.4 2.8.6zm81.2 31.1c.1 0 12.7 5 12.7 5s7 3.4 7.6 3.7c.9.5 2.3 1.9 2.5 2.6.4 1.3.2 4.9-1.3 5.5-1.5-.1-9.3-2.2-10.1-2.6-1.2-.5-12.7-5.8-12.7-5.8s-7.1-4-7.1-5.4.6-3.8 1.9-4.4c1-.3 4.9.7 6.5 1.4zm112.1-63.4c16.5-2.9 53.3-13.9 62.5-16.3 5.6-1.5 86.8-24.2 96.8-19.1" class="ffocus18-IoqRrmlA_svg__st2"/><path d="M300.8 45.6s13.7 2.6 14.4 2.6 7-.4 7-.4l.2-2.5s-1.9-1.4-2-2.3c0-.9.9-7.1.9-7.1s-6.3-.4-8.1-.2-7.6 4.4-8.4 5.3-3 2.2-3.5 2.4c-.4.3-.5 2.2-.5 2.2zM275.6 104c5.7 9.7 33.3 45.5 49.7 50.8s68.5 11.2 80.8 9.5 55.2-19.6 57.1-32c-.7-7.3-5.4-13.3-5.4-13.3" class="ffocus18-IoqRrmlA_svg__st3"/><path d="M330.4 89.3c-5 2.1-10.4 8-11.5 15.5s5 45.2 6.3 50 9.4 19.1 17.6 23.9c6.9 6.5 21.7 16.9 22.3 19.3.8 3.6 1.4 15.6 1.1 19.3s0 23.8 2.9 30.1 9.9 11.9 11.5 12.3 7 .5 12.7-2.2c5.7-2.8 46.1-21.9 60.4-44.8s13-34.2 13-34.2-2.9-3.3-1.6-6.8" class="ffocus18-IoqRrmlA_svg__st3"/><path d="M405.7 204.9c32.2-13.1 50.7-24.9 61.8-38.8M59.3 186.9c-2-5.3-5.9-11.1-6.3-11.8s-19.3-45.4-12.8-63.9c2.9-3.2 4.5-4.7 5.5-6.1m8.5-12.9c5.6-6.9 11.8-16.6 25.2-27.1s30.8-15.3 40.5-15.5c10.4-.2 64.9 2.2 116.9 40.7 8.1 8.2 14.5 14.3 8.1 23.7s-23.1 24.7-23.7 25.8.2 8-16.4 26.9c-15 36.6-36.7 47.3-44.3 95.6" class="ffocus18-IoqRrmlA_svg__st3"/><path d="M49.8 105.1c5.4 1.5 53.1 16 57.3 17s30.4 8.2 36.9 8.9 70.3 9.3 77.3 8.8" class="ffocus18-IoqRrmlA_svg__st3"/><path d="M114.3 228.4c-1.5-6.1-7.5-19.2-7.8-20.9.3-2.4 2.8-15.1 2-17.9s-14-31.4-6.8-52.4c3.8-8.8 4.6-13.1 6.1-15 1.7-4.2 8.1-40.7 23.5-72.2m180.2 282.2s17-26.5 19.3-27.2 14.2 3.4 14.6 4.8c.5 1.8-11.2 12.8-21.3 20.4-5 1.6-10.9 2.2-12.6 2z" class="ffocus18-IoqRrmlA_svg__st3"/></g></svg>