<svg version="1.1" id="Layer_3" xmlns="http://www.w3.org/2000/svg" x="0" y="0" viewBox="0 0 2048 1536" style="enable-background:new 0 0 2048 1536" xml:space="preserve"><style>.st0,.st1{fill:none;stroke:#fff;stroke-width:4.6183;stroke-linecap:round;stroke-linejoin:round;stroke-miterlimit:10}.st1{stroke-width:2.4266}</style><path class="st0" d="M0 615.9C64.9 567.1 376.4 454.4 696.1 398c132.5-98.3 335.9-216.8 481.2-247s418.4-45.3 779.9-12.8c13.2-7.6 31-24.5 37.4-27.5 6.4-3.1 19.9-3.7 32.7-2.4-2.8 8.3-6.1 18.7-3.7 22.3 2.4 3.7 7 8 8.9 11.3 4.6.9 15.5 1.5 15.5 1.5"/><path class="st0" d="M696.1 398c-87.5 16.8-132.9 37.5-154.2 65.2-21.3 27.7-13.4 137.9 77.1 181.1s191.7 61.9 316.8 50.3c140.5-140.5 401.6-351.3 518.9-434.5-99.3-21.9-260.8-59.7-386.9-75M1454.6 260.2c80.6-57.1 289.5-105.1 593.4-96.7M1413 691.3c258.2-49.6 536.6-103.5 635-123.9"/><path class="st0" d="M1256 721.5c-112.1 21.5-210.8 40.4-276 52.8 6-8.9 12.3-17.7 18.7-26.4C1141 553.3 1367.4 387 1522.9 295.6c139.3-81.9 349.4-97.3 525.1-91.5"/><path class="st0" d="M1088.4 710c-3.2 3.4-.4 8.9 4.2 8.3 33.4-4.2 82.5-17.3 119.4-7.5 41.8 11.1 117.4 29.6 183.3 19.3 16.3-2.5 27-63.6 8.7-78.9-18.3-15.3-97.2-72.3-120.1-75.9-22.9-3.6-65.7 7.1-82 24.4-16.3 17.3-33.6 34.6-35.1 39.7-1.5 5.1.5 15.3 5.6 22.4-16.3 1.5-55.6 18.4-84 48.2z"/><path class="st0" d="M1412.4 668.7C1650 623.1 1920 570.8 2048 544.5M1202.8 708.9c-71.6 13.7-132 25.2-173.3 33.1-12 2.3-22.3 4.3-30.9 5.9"/><path class="st0" d="M1029.5 742C1132 626.7 1424.1 341.8 1604 282.6s292.3-64.5 444-57.2M1225.5 584.9l2-40.4h0"/><path class="st1" d="M1915.4 204.3c.6 3.4 1.4 12.4 1.1 19.1 7.5 69.3 16.3 232.8 4.2 346.7 5.3 8.6 2.5 22.4 2.5 22.4-2 40.3-2.8 66.4-2.1 86 .6 19.6 1 112.1-42.4 210.6-27.8 63-39.9 86.1-41.1 159-16.4 25-47.6 62.3-47.6 62.3"/><path class="st0" d="M158.2 1536c-38.9-87.2 30.6-299.8 328-384.6 297.5-84.8 450.4 45.9 474 186.3l-9 41c-.9 10.9-5.7 14.3-8.9 14.3 2.9 9.8 5.6 11.2 14.1 9.3 8.5-1.9 1091.5-333.7 1091.5-333.7"/><path class="st0" d="M951.2 1378.6s759.1-247.5 862.3-274.9c103.2-27.4 234.5-57.9 234.5-57.9"/><path class="st1" d="M980 774.3c-10.4 25.1-9.6 48.5 0 75.8 9.6 27.3 51.3 366.1 69.4 461.9l6.7 32.5M1728.3 757.5c-10.9 2.7-33.1 9.6-39.3 14.6-6.1 5.1-8.5 23 1.5 25.2 10 2.2 26.4.4 37-1.2 5.4-5.2 61.8-18.4 76.6-15.7 23-4.9 48.4-11 56.7-17.8 8.4-6.7 3.4-27.3-7.9-27.3-12.1 0-49.4 6.5-49.4 6.5.1 6.6 1.5 8.2-6.7 10s-47.8 10.7-54.2 11.5c-6.4.9-12.9-1.9-14.3-5.8z"/><path class="st1" d="M1728.3 757.5c3.3-13.1 9.6-24 22.8-28.1 13.3-4 22.2-5.1 30.7-4.9 8.5.1 19.1 5.2 21.6 17.4M1727.6 796.2c-.1 7.8 6.1 17.8 16 17.3 9.9-.4 34.9-5.4 42.5-8.6 7.6-3.3 15.5-11.4 18.1-24.3M1869.6 225.9c.6 56.4 6.6 222.6-21.9 358.6M1953.1 222.8c10 57.6 30.7 208.8 23.8 336.1M0 1012c47.2-3.4 116.8-10.9 173-9.6-1.3 28.9-72 140.8-173 244.5M173 1002.4c225.2-49.5 399.5-82.1 455.6-103s127.7-58.3 178-179.6c0 0 3.1-12.8 4.5-24"/><path class="st0" d="M233.4 1295.8c-9.8 44-22 144.8-17.4 177.5 4.6 32.6 23.5 62.7 23.5 62.7M840 1167.7c50.2 87.9 62.3 169.1 36.5 241.1-25.8 72.1-93.3 127.2-93.3 127.2"/><path class="st0" d="M338.1 1536c-41.7-57.4-50-206 154-285.7 204-79.6 337.4 10.2 329.1 137.3-4.6 69.8-67.5 120.1-106.9 148.4M201.5 1536s5-29.4 15.4-56.7"/><path class="st1" d="M696.1 398c-41.7 30.8-46.4 50.5-43.4 86.9 3 36.3 64.7 150.9 208.7 213.1"/></svg>