<svg version="1.1" id="Calque_1" xmlns="http://www.w3.org/2000/svg" x="0" y="0" viewBox="0 0 500 375" style="enable-background:new 0 0 500 375" xml:space="preserve"><style>.st1,.st2{fill:none;stroke:#fff;stroke-miterlimit:10}.st2{stroke-width:.5}</style><g id="Calque_2_00000006704651132218431310000003001396287876372630_"><path class="st1" d="M37.1 145.1c15-27.1 51.5-38.1 63.2-48 4.8-5 19.1-13.9 21-15.8 9.4-14.6 33.5-47 48.9-54.2 19.8-6.8 134.6-6 159.6-.5 25.2 14.6 45.9 52.8 48.4 54.3 7.7 4.4 13.2 8.6 21.7 16.4 12.6 9.6 49.6 23.3 62.5 43.7 7.2 22.4 5.7 79.9 5.7 109.3 0 7-3.2 35.6-7.9 41.3-4.8 5.7-17.6 33.3-62.6 54-92.5 9.6-192.8 12.3-294.8 0-10.2-4.1-53-31.7-61.6-51.4-8.6-19.7-10.5-48.6-10.2-54.3 1.7-31.1-2.9-64.1 6.1-94.8z"/><path class="st1" d="M159.3 301.5c-3.9-.1-6.6-.2-7.7-.2-10.9-.9-34.6-9.7-37.2-12.8-2.6-3.2-33.5-40.9-34.6-50.4-1.2-10.1 41.1-17.6 48.3-18.4 6.8-.8 234.1-.9 242.2 0 8 .9 45.8 10 48.4 14.6s-22.8 46.3-35.5 55.5c-9 6.5-23.9 10.2-35.9 11.5-1 .1-3.4.2-7 .3M58.3 122.7c-4.5 12.6 13.9 41.6 17.5 47.2 4 6.2 13.2 21.9 10.6 30.5-6.1 6.6-19.4 8.7-26 8.4s-28.7-23.9-28.7-27.6M441.8 121.8c1.4 26-14 41.3-19.5 51-4.1 7.3-11.8 22.2-8.7 28.2 5.2 6.6 20.8 8 27.4 7.1s23.8-21 26.4-26.2M371.7 71.7c2-5.3 2.7-7.4 5.9-7.7 3.2-.2 19.1 3.5 20 6.3.8 2.8-.4 8.6-3 10.6s-8.3 3.2-10.6 3.5M128.1 71.3c-1.6-4.2-1.1-5.8-5.6-7-4.3-1.1-20.1 3.2-20.6 6.4-.4 3.2.1 7.4 3.4 9.7 3.2 2.3 9 3.9 11.5 4.2"/><path class="st2" d="M159 289.8c.3 6.6.9 21.5 2.2 29.9 6.4 4.3 147.6 6.7 176.7 0 1.2-4.7 2.8-23 2.8-29.9-75.7 5-128.7 1.3-181.7 0zM54.9 263.4c2 3.4-21.3-13.7-21.6-14.9-.3-1.3 0-46.9 1.8-49.1 1.8.8 9.8 41.3 19.8 64zM444.8 263.7c-2.3 3.9 20.3-12.5 21-15.2s.1-50-.8-50c-2.7 11.8-18.3 62-20.2 65.2zM77.2 172.3c4.4-1.3 19.9-3.8 29.6-4.4 48.1-2.9 235.7-4.6 287-.4 11.6.9 23.8 3.3 28.9 4.8M125.8 83c3.8-11.3 35.4-50.4 43.2-52.3 26.8-7.8 142.9-6.3 162 0 16.9 9.4 42.5 49 43 52.3s-237.6 4.5-248.2 0zM103.5 78.5c2.3.3 12 1.6 18.5 1.3M396.7 78c-3.9.8-16.9 2.1-19.3 2.1"/></g></svg>
