<svg version="1.1" id="Calque_1" xmlns="http://www.w3.org/2000/svg" x="0" y="0" viewBox="0 0 500 375" style="enable-background:new 0 0 500 375" xml:space="preserve"><style>.st2,.st3{fill:none;stroke:#fff;stroke-miterlimit:10}.st3{stroke-width:.5}</style><g id="Calque_2_00000037678504591739799540000014219149497113211786_"><path class="st2" d="M0 178.3c3-4.8 26.7-46.9 27.4-52.2-1-1.7-7.3-3.8-10.5-9.3-.2-.9-.7-7.1 2.5-8.9 15.7-9.7 110.3-44.8 131.2-52.8 19.2-8.4 78.2-27.3 100.1-31.5 17.4-3.3 28.3-3.1 41.5-3.7 10.2-.5 17.6-.8 46.3 1 38.9 2.4 124.3 8.5 161.4 21.2M495.4 271.1l-4 8-7.6 19.7s-6.6 17.2-7 19.4-.8 6.1-.6 7.4c1.3.6 5 .6 7.9-3.3 7.5-9.8 15.7-37.5 15.3-44.2-.1-5.5-4-7-4-7zM498 273.4l2-5.5"/><path class="st2" d="M480.9 325.1s-8.3 27.3-8.9 29.3c-1.4 4.8-4.3 20.5-4.3 20.5"/><path class="st3" d="M0 287.9c3.7 9 44.4 62.8 78.7 87.1M27.6 126c15.1 12.2 169.1 107 252.5 123.8 18.8 16.5 9.2 113.3 9 125.2"/><path class="st3" d="M310.5 375c30.5-39 49.9-96 60.9-126.5-23 6.3-68 6.8-91.3 1.4M219.4 57.4s.8 9.3.4 10.3-4.4 2.6-4.3 3.5-.1 3.7.3 4.1c.4.4 12.1 3.6 14.5 3.3 2.4-.3 19.2-8.6 19.7-9.5s0-2.9-.2-3.3-4.1-3.2-5.4-4-6.7-6.3-9.8-6.9-6.8-1-15.2 2.5zM472.6 352.7s-5.8-13.3-7.8-30.7c-1.2-5.6-29.9-27.5-28.3-45.9-3.9-5-32.7-25.7-30.4-43 3.3-41.8 28.4-79.1 47.8-111.3S500 64.7 500 64.7"/><path class="st3" d="M436.5 276c22.5-23.4 57-60.5 63.4-72.9"/></g></svg>
