<svg version="1.1" id="Layer_2_00000172399934101973458290000013029251758731085212_" xmlns="http://www.w3.org/2000/svg" x="0" y="0" viewBox="0 0 2048 1536" style="enable-background:new 0 0 2048 1536" xml:space="preserve"><style>.st0,.st1{fill:none;stroke:#fff;stroke-width:4.6183;stroke-linecap:round;stroke-linejoin:round;stroke-miterlimit:10}.st1{stroke-width:2.3092}</style><path class="st0" d="M1024 84.6c-88.7 0-219.8 4-314.2 17.7-23.9-1.9-58.5 5.6-80.1 18.3C571.1 155 470 252 429.1 301.9c-8.6 10.4-14 25.6-15 34.9-15.3 33.4-52.1 134.1-70.4 202.9-3.8 14.4-12.1 27.3-23.7 36.7-58.1 47.3-120.8 120.5-142.7 168.1 2.7 28.3 22.2 100.1 30.6 121.8-11.4 83.5-6.2 196-2.3 222.2s68.2 123.3 77.4 148.3c-.9 22.6 10.8 40.3 10.8 40.3 4.8 23.9 34.9 67.1 65.1 87.5 11.3 7.7 60.9 45.2 136.3 66.5 125.5 35.5 322 54.3 528.8 54.3"/><path class="st0" d="M1024 283.6c-63.7 0-261 2.3-414.7 13.8-99.6 7.5-181.2 16.2-195.1 39.5"/><path class="st0" d="M1024 310.2c-52.2 0-142.5-.1-168.3 0-20.7-7.6-34.6-13.5-49.4-15.2-110.3 5.9-249.7 20-290.9 36.4-53 21.2-136 177.2-164.3 247.3 49.5 67.1 171.2 123.2 272.6 149.3 101.4 26 307.5 19 400.3 19M1024 1380.8c-212.9 0-452.1-20.6-550.6-38.5-12.9-2.4-42.8-3.6-60.1.6-36.2 8.9-58.3 16.4-87.4-9.3"/><path class="st1" d="M1024 1157.6c-183.9 0-561.4-7.3-609.9-94.3-35-83.9-73.4-170.9-87.9-197.8-11.5-3.5-20.4-25.4-18.7-39.8-2.1-3-17.3-33.3-20.7-49.8 7.2-27 29.7-79.1 33.5-92.1s10.1-71.5 26.3-111.5"/><path class="st0" d="M351.2 578.7c-5.3-2.7-8-18.1-8.8-34.3"/><path class="st1" d="M199 838.9c9.6 16.9 53.5 37.8 73.9 39.3s33.4-8.5 53.3-12.7c211.4 44.4 518.8 60 697.7 60"/><path class="st0" d="M994.1 148.8v-6.2c0-5 12.3-10 16.7-15.1s6.7-17.9 8.2-32.5c.3-2.6 2.1-4.2 5-4.4M1024 84.6c88.7 0 219.8 4 314.2 17.7 23.9-1.9 58.5 5.6 80.1 18.3C1476.9 155 1578 252 1618.9 301.9c8.6 10.4 14 25.6 15 34.9 15.3 33.4 52.1 134.1 70.4 202.9 3.8 14.4 12.1 27.3 23.7 36.7 58.1 47.3 120.8 120.5 142.7 168.1-2.7 28.3-22.2 100.1-30.6 121.8 11.4 83.5 6.2 196 2.3 222.2-3.9 26.2-68.2 123.3-77.4 148.3.9 22.6-10.8 40.3-10.8 40.3-4.8 23.9-34.9 67.1-65.1 87.5-11.3 7.7-60.9 45.2-136.3 66.5-125.5 35.5-322 54.3-528.8 54.3"/><path class="st0" d="M1024 283.6c63.7 0 261 2.3 414.7 13.8 99.6 7.5 181.2 16.2 195.1 39.5"/><path class="st0" d="M1024 310.2c52.2 0 142.5-.1 168.3 0 20.7-7.6 34.6-13.5 49.4-15.2 110.3 5.9 249.7 20 290.9 36.4 53 21.2 136 177.2 164.3 247.3-49.5 67.1-171.2 123.2-272.6 149.3-101.4 26-307.5 19-400.3 19M1024 1380.8c212.9 0 452.1-20.6 550.6-38.5 12.9-2.4 42.8-3.6 60.1.6 36.2 8.9 58.3 16.4 87.4-9.3"/><path class="st1" d="M1024 1157.6c183.9 0 561.4-7.3 609.9-94.3 35-83.9 73.4-170.9 87.9-197.8 11.5-3.5 20.4-25.4 18.7-39.8 2.1-3 17.3-33.3 20.7-49.8-7.2-27-29.7-79.1-33.5-92.1s-10.1-71.5-26.3-111.5"/><path class="st0" d="M1696.8 578.7c5.3-2.7 8-18.1 8.8-34.3"/><path class="st1" d="M1849 838.9c-9.6 16.9-53.5 37.8-73.9 39.3s-33.4-8.5-53.3-12.7c-211.4 44.4-518.8 60-697.7 60"/><path class="st0" d="M1053.9 148.8v-6.2c0-5-12.3-10-16.7-15.1s-6.7-17.9-8.2-32.5c-.3-2.6-2.1-4.2-5-4.4"/><path class="st1" d="M1018.5 655.1c36-3 256.2 3.8 303.2 16 18.9 4.9 22.5 8.8 22.1 15.9 34.4-1.8 109.1 1.6 120.1 2.8 6.6.7 7.9 11.6-1.3 10.6-30.2-3.1-85-5.1-123.6-4-2.8 3.6-50.5 2.4-107.5 2.1-79.2-.5-176.6-1.3-200.4-2.5-2.4 4.3-16.8 5.8-22.1-1.9s-5.3-22.2-4.4-27.4c1.1-5.1 4-10.8 13.9-11.6z"/><ellipse class="st1" cx="1024" cy="799.8" rx="73.2" ry="28.8"/><path class="st1" d="M414.1 1063.3c15.3 44 28.6 85.5 78.5 108.1 75.5 34.1 367.6 52.1 531.3 52.1M1633.9 1063.3c-15.3 44-28.6 85.5-78.5 108.1-75.5 34.1-367.6 52.1-531.3 52.1M1752.3 597.4c11.8 35.1 16 60.5-24.6 86.4-40.6 25.8-181 88.6-206.7 109.9-25.7 21.3-26.7 36.1-20.8 56.8 5.9 20.8 26.6 45.8 26.6 45.8M295.7 597.4c-11.8 35.1-16 60.5 24.6 86.4 40.6 25.8 181 88.6 206.7 109.9 25.7 21.3 26.7 36.1 20.8 56.8s-26.6 45.8-26.6 45.8"/></svg>