<svg version="1.1" id="Calque_1" xmlns="http://www.w3.org/2000/svg" x="0" y="0" viewBox="0 0 500 375" style="enable-background:new 0 0 500 375" xml:space="preserve"><style>.st2,.st3{fill:none;stroke:#fff;stroke-miterlimit:10}.st3{stroke-width:.5}</style><g id="Calque_2_00000167384706815374372450000016422237926568264108_"><path class="st2" d="M0 236.3c6.6 3.9 29.6 28.2 32.2 64 1.2 16.4 6.1 27.8 7.8 28.2 1.7.4 418.6-5 419.9-5.2s4.8-6.1 4.1-11.9 5.1-56.6 36-80.2"/><path class="st2" d="M500 345.8c-5.8-1.3-30.8-19.7-35.9-33.2M0 346.5c12.7-5.6 30.1-22.3 34.3-32.1M0 158.7c2.1-.2 53.7-7.8 57.4-7.2 3.7.7 43.8-31.2 111-56 52.9-21.3 111.3-22.8 124.5-23.2C351 69.7 448.4 79.5 500 90.6M500 182c-2 .7-14.1 1.8-16.5 1.7s-23.6 0-23.9 0-10.4-.4-12.4-1.7-2.4-4.4-1-5.9c1.5-1.4 11.2-1.8 12.3-1.8 1.1 0 23.3-.6 23.9-.6s15 .2 17.7 1.1M237.1 192.8h24.3s16.9-.4 18.2-2.8 0-4.9-.7-5.7c-1.4-1.6-17.7-1.6-17.7-1.6l-24 .9s-9.5.4-11.4 1.1c-1.8.7-3.2 3.1-2 6.1.6 1.8 13.3 2 13.3 2z"/><path class="st2" d="M81 158s26.4.3 26.9 0 1.5-1.5 1.5-1.5h6.6s.3-29.4-.5-30.1c-.8-.8-11.8-1.5-14.5 0s-10.8 10.3-10.1 12.4c.7 2.1 4.6 7.5 4.7 8.3 0 .7-14 11-14.6 10.9z"/><path class="st3" d="M95.5 146.5c2.6 4.5 11.7 9 13.8 9.8M115.7 156.1c-1.4-3.9-1.8-8.9-2-10.9-.3-3.3-1.8-19.2 1.4-18.8M115.7 126.6c25.5-13.4 52-25.1 68.1-30.1C235 79 270.6 79.2 309.1 77.7c37.6-.4 134.6 5.9 190.9 25.7M69.8 328.3c-3.5-8.3-13.9-27-14.6-29.1-3.5-49-19.5-93.1-7.6-124.6 5.5-9.3 22.8-22 43.8-34.5M499.9 211.4c-14 19.7-72 92.5-86.3 112.6"/><path class="st3" d="M298.2 325.5c-.9-8.6-2.5-38.1-1.8-42.8 2-16.6 1.9-117 7-132.3 2.5-12.5 7-72.7 7-72.7"/><path class="st3" d="M499.9 139.3c-11.4 1.4-102 9.3-119.7 10.4s-102.4 6.3-120 7-186.7 6.9-202.7 7.3"/></g></svg>
