<svg xml:space="preserve" id="ffocus18-3TiCVAaN_svg__Calque_1" x="0" y="0" version="1.1" viewBox="0 0 500 375" xmlns="http://www.w3.org/2000/svg"><style>.ffocus18-3TiCVAaN_svg__st1{fill:none;stroke:#fff;stroke-miterlimit:10}</style><g id="ffocus18-3TiCVAaN_svg__Calque_2_00000098199180654458935800000010388720550817089190_"><path d="M252.6 16.6c.4-.5 40.4.6 55.4 2.2 25.9 2.7 27.8 11.3 35.8 20.3 33.3 44.6 46.3 87.9 53.3 99.8 52.4 63.2 69.2 87.8 78.9 122.1 6.5 30.3 0 80.7-9.1 114m-433.7 0c-4-12.5-17.3-75.1-10.3-109.6 14.8-52.2 58.7-102.6 74.5-120.1 24.8-41.5 32.7-75.9 67.2-116.1 8.7-9.1 20.8-8.8 26.5-9.6 12.6-1.7 56.8-3.4 56.3-3" class="ffocus18-3TiCVAaN_svg__st1"/><path d="M42.5 219.7c0 63.7 19.1 98.7 24.6 113.3 5.6 14.6 15.1 38.2 12.7 42m-58-66.2c3.3 15.8 28.4 63.6 38.1 66.2m396.4-158.2c1.3 60-18.1 105.1-25 118.5-6.5 13.3-11.9 32.2-11.9 39.7m58.5-65.2c-6.5 17.2-19.9 53.1-38 65.2m-57.3-268.6c1-4.8 3-11.2 5.7-12.3 4.4-1.9 18.8.7 22.2 3.8 3.5 3.1 2.6 8.3 0 10.7s-17.4 7-21 8.3c-.6.3-.9 1.4-1.2 2.5m-270.9-12.1c-.3-3.6-2.3-12.6-6.5-13.4-4.2-.9-20.6 2-22.6 5s-.7 6.9 0 8.4c2.2 4.5 19.1 8.4 20.1 9s2.8 1.5 3.1 3" class="ffocus18-3TiCVAaN_svg__st1"/><path d="M159.3 44.2c-4.8 1.6-46.7 81.9-45.3 89.1 23 12.2 253.5 11.9 272.6 1.2-8.5-33.7-38.6-83.4-45.9-89.6-7.1-6.1-174.4-3-181.4-.7zm87.7-27h6c.3 0-.9-1.1-1.6-1.6-.7-.4-.3-3.3-1-3.7s-1.1.1-1.1.4 0 2.7-.3 3c-.4.4-2.4 1.9-2 1.9zM67.4 333.5c31.1 7.7 143.1 12 182.6 11.1s140-2.7 182.2-11.1m44.5-11.1c-2.8 5.7-12.6 26.1-15.5 33.5-2.8 7.2-5.4 15.1-6.7 19.8M23.3 323.4c2.3 4.4 21 46.1 22.2 51.6" style="stroke-width:.5;fill:none;stroke:#fff;stroke-miterlimit:10"/></g></svg>