<svg width="221" height="131" viewBox="0 0 221 131" fill="none" xmlns="http://www.w3.org/2000/svg">
<path id="Vector 162" opacity="0.7" d="M8.6177 3.23164C7.34347 2.80689 5.6172 0.884884 5.26324 0C-2.38215 8.91963 -0.0460596 47.6068 2.07766 65.8354C2.92715 75.6045 16.2358 86.5416 22.7839 90.7891C60.5862 117.548 147.553 128.485 186.31 130.609C194.381 100.027 212.326 73.9763 220.29 64.7735L193.743 32.9177C179.087 37.7024 153.503 40.6648 138.422 40.3955C138.422 42.0945 130.209 50.7923 126.315 54.6858C76.4821 52.5141 25.5998 30.5163 8.0791 17.774C4.68114 16.075 7.20189 7.47908 8.6177 3.23164Z" fill="#7AF7FF"/>
</svg>
