<svg width="97" height="166" viewBox="0 0 97 166" fill="none" xmlns="http://www.w3.org/2000/svg">
<path id="Subtract" opacity="0.7" fill-rule="evenodd" clip-rule="evenodd" d="M3.29383 9.96422C15.592 6.64281 44.2279 0 60.3861 0L86.7778 59.516C91.5355 66.3384 99.9737 87.6851 95.6648 118.493V144.616L50.4219 165.891C49.0754 151.797 39.4882 115.531 11.9115 83.2147C10.2059 83.3045 5.50212 81.2218 0.331498 72.1733C-0.476412 59.9648 -0.314829 34.2554 6.79478 29.0847C8.14129 28.1871 9.32622 23.1062 3.29383 9.96422ZM6.7965 59.5161C6.70674 48.2054 10.4052 24.1835 25.917 18.582L42.6138 14.8118L60.3878 12.1188C66.6716 25.1351 78.5389 52.8374 75.7381 59.5161C55.8097 64.3636 12.8289 64.9022 6.7965 59.5161Z" fill="#2B52BE"/>
</svg>
