<svg width="127" height="159" viewBox="0 0 127 159" fill="none" xmlns="http://www.w3.org/2000/svg">
<path id="Vector 194" opacity="0.7" d="M79.7137 0C58.1695 4.52429 29.6234 18.7615 18.0433 25.3145L22.8908 39.3183V63.8249L0 93.4482C2.36987 94.5254 36.0866 94.2561 52.5141 93.4482C51.6524 101.635 47.1281 110.504 44.9736 113.915L71.6347 145.693L71.904 145.424C83.107 129.481 94.8845 124.239 99.3729 123.61C115.1 122.964 121.186 146.501 122.264 158.35L126.842 155.388C123.826 121.779 100.091 86.8054 88.6008 73.5198C84.5073 73.9507 79.1751 66.3384 77.0207 62.4783C75.7281 31.6701 80.791 21.0954 83.484 19.6591C86.5002 15.7812 82.2272 4.93723 79.7137 0Z" fill="#5CCC68"/>
</svg>
