<svg width="165" height="95" viewBox="0 0 165 95" fill="none" xmlns="http://www.w3.org/2000/svg">
<path id="Vector 187" opacity="0.7" d="M17.657 28.0075L4.19188 19.9284C0.744798 14.9733 18.3752 4.57816 27.6213 0V7.80979C85.7908 38.6181 143.422 26.5713 164.966 16.6968V22.0829L142.075 51.9755C126.563 51.9755 99.3457 48.7439 87.6759 47.1281V57.9002L110.297 76.7514C110.953 79.7138 126.573 79.7138 131.959 79.7138C131.743 82.0836 124.032 90.3064 120.262 94.2561C59.0759 89.5164 15.0538 66.9667 0.690941 56.2844C-1.0326 53.4836 0.870476 45.9611 2.03746 42.5499C15.6103 44.058 20.2603 33.4834 20.8887 28.0075H17.657Z" fill="black"/>
</svg>
