<svg width="904" height="904" xmlns="http://www.w3.org/2000/svg">

 <g>
  <title>Layer 1</title>
  <circle id="svg_1" r="390" cy="452" cx="452" fill="transparent" stroke-width="124" stroke="#274B9F"/>
  <circle id="svg_2" r="102" cy="452" cx="452"/>
  <g>
   <title>Mobile_application</title>
   <path fill="#3f3d56" d="m655.25,903.66661q-36.47625,-5.71034 -70.14288,-9.71417l8.64288,-17.28583c-3,-1 -16,9 -16,9l11,-50c-15,2 -22,53 -22,53l-17,-17l8.36835,19.24713c-68.68128,-7.21667 -127.94678,-9.46881 -177.76581,-8.95227l7.39746,-14.79486c-3,-1 -16,9 -16,9l11,-50c-15,2 -22,53 -22,53l-17,-17l8.8634,20.38586a997.85166,997.85166 0 0 0 -102.02258,8.21586c7.38153,-22.99578 33.15918,-45.10174 33.15918,-45.10174c-19.82056,6.16638 -30.13214,16.2124 -35.4693,25.5246a401.561,401.561 0 0 1 21.4693,-139.02458s-40,90 -34,150l0.76129,10.65808c-34.79938,5.42877 -52.26129,10.84192 -52.26129,10.84192l471,0z"/>
   <path fill="#3f3d56" d="m746.92236,779.80233a12,12 0 1 1 12,-12a12.01375,12.01375 0 0 1 -12,12zm0,-22a10,10 0 1 0 10,10a10.01114,10.01114 0 0 0 -10,-10z"/>
   <path fill="#3f3d56" d="m842.75,902.0922l-19.74115,0l0,-19.74115l19.74115,0l0,19.74115zm-18.2226,-1.51855l16.70405,0l0,-16.704l-16.70405,0l0,16.704z"/>
   <path fill="#3f3d56" d="m174.39387,903.17233l-13.4651,-14.43621l14.43623,-13.46514l13.46509,14.43621l-14.43622,13.46514zm-11.31887,-14.36156l11.39354,12.21526l12.21525,-11.39354l-11.39351,-12.21526l-12.21528,11.39354z"/>
   <rect fill="#3f3d56" height="2" width="857.82764" y="900.97762" x="33.92236"/>
   <path fill="#3f3d56" d="m565.725,456.07606l0,65.68a2.29614,2.29614 0 0 1 -2.29,2.29l-1.62989,0l0,342.15a35.702,35.702 0 0 1 -35.70007,35.7l-213.78995,0a35.69346,35.69346 0 0 1 -35.69006,-35.7l0,-330.15l-1.18,0a1.6176,1.6176 0 0 1 -1.62,-1.61l0,-37.38a1.61971,1.61971 0 0 1 1.62,-1.62l1.18,0l0,-14.08l-1.19003,0a1.69647,1.69647 0 0 1 -1.68994,-1.7l0,-36.87a1.69432,1.69432 0 0 1 1.68994,-1.69l1.19,0l0,-19.22l-1.21,0a1.498,1.498 0 0 1 -1.5,-1.5l0,-20.12a1.50661,1.50661 0 0 1 1.5,-1.51l1.21,0l0,-40.74a35.69136,35.69136 0 0 1 35.69006,-35.69l213.78994,0a35.69991,35.69991 0 0 1 35.70007,35.69l0,95.78l1.62993,0a2.29609,2.29609 0 0 1 2.29,2.29z"/>
   <rect fill="#e6e8ec" rx="2.54189" height="8.08642" width="39.82343" y="340.62285" x="392.22864"/>
   <circle fill="#e6e8ec" r="4.58665" cy="344.66605" cx="442.66006"/>
   <path fill="#274b9f" d="m544.71,365.06657l0,504.09a22.58,22.58 0 0 1 -7.96,17.23a22.6419,22.6419 0 0 1 -14.69,5.41l-204.65,0a22.58668,22.58668 0 0 1 -10.46,-2.55a21.15539,21.15539 0 0 1 -2.2,-1.3a22.66834,22.66834 0 0 1 -9.99,-18.79l0,-504.09a22.649,22.649 0 0 1 22.65,-22.65l30.63,0l0,3.93a18.65015,18.65015 0 0 0 18.65,18.65l104.08,0a18.65009,18.65009 0 0 0 18.65,-18.65l0,-3.93l32.64,0a22.64264,22.64264 0 0 1 22.65,22.65z"/>
   <path opacity="0.3" fill="#fff" d="m544.71,796.99657l0,72.16a22.58,22.58 0 0 1 -7.96,17.23a22.6419,22.6419 0 0 1 -14.69,5.41l-204.65,0a22.58668,22.58668 0 0 1 -10.46,-2.55a21.15539,21.15539 0 0 1 -2.2,-1.3a22.66834,22.66834 0 0 1 -9.99,-18.79l0,-72.13a186.97056,186.97056 0 0 1 249.95,-0.03z"/>
   <path opacity="0.3" fill="#fff" d="m532.54,889.22661a22.40961,22.40961 0 0 1 -10.48,2.57l-204.65,0a22.58668,22.58668 0 0 1 -10.46,-2.55a122.16129,122.16129 0 0 1 225.59,-0.02z"/>
   <path opacity="0.3" fill="#fff" d="m488,890.43616a13.56058,13.56058 0 0 1 -6.34169,1.55517l-123.83874,0a13.66765,13.66765 0 0 1 -6.32958,-1.5431a73.92279,73.92279 0 0 1 136.51001,-0.01207z"/>
   <path fill="#fff" d="m471.7959,537.56653c-20.52881,0 -43.05811,-3.90918 -60.646,-17.1001c-24.4873,-18.36524 -54.65674,-17.38526 -75.65332,-13.32813a164.86282,164.86282 0 0 0 -40.27441,13.415l-0.92481,-1.77344a166.95707,166.95707 0 0 1 40.76758,-13.59521c21.40918,-4.14356 52.19678,-5.13379 77.28516,13.68213c46.99951,35.24951 131.15771,3.59033 132.00146,3.26758l0.7168,1.86718a242.3548,242.3548 0 0 1 -48.70606,11.85694a186.20165,186.20165 0 0 1 -24.5664,1.70805z"/>
   <path opacity="0.3" fill="#fff" d="m294.75,519.66661s69,-16.71229 117,6.16983s133,-0.16983 133,-0.16983"/>
   <path opacity="0.3" fill="#fff" d="m359.89111,545.62756a131.45576,131.45576 0 0 1 -24.82617,-2.479a166.95732,166.95732 0 0 1 -40.76758,-13.59523l0.92481,-1.77344a164.86232,164.86232 0 0 0 40.27441,13.415c20.99561,4.05664 51.16553,5.03711 75.65332,-13.32812c25.06641,-18.79981 60.17725,-18.74707 85.2124,-15.39209a242.3552,242.3552 0 0 1 48.70606,11.85693l-0.7168,1.86719c-0.84472,-0.32373 -85.001,-31.9834 -132.00146,3.26758c-16.4521,12.3394 -35.35694,16.16118 -52.45899,16.16118z"/>
   <path opacity="0.3" fill="#fff" d="m360.231,537.57483c-34.63428,0 -65.39063,-12.4253 -65.852,-12.61524l0.76172,-1.84961c0.68457,0.28223 69.08837,27.89942 116.10009,0.06446c47.82471,-28.31983 132.90576,-3.041 133.75928,-2.78223l-0.58008,1.91406c-0.84472,-0.25586 -85.09277,-25.28125 -132.16064,2.58887c-16.06259,9.51119 -34.54062,12.67969 -52.02837,12.67969z"/>
   <path opacity="0.3" fill="#fff" d="m294.76,522.49678s68.99,22.88212 116.99,0s132.96,-2.16209 132.96,-2.16209"/>
   <path fill="#ffb8b8" d="m562.51913,583.71602l0,29.15278s2.33223,32.65113 15.15945,48.97669c0,0 20.99,29.73584 23.90529,23.32223l-3.59045,-21.11522l-12.15205,-11.5359l-6.41362,-36.14946l-1.74917,-32.65112l-15.15945,0z"/>
   <polygon fill="#ffb8b8" points="691.3740234375,847.2900390625 691.3740234375,868.864990234375 673.8829956054688,875.2796630859375 673.8829956054688,850.205322265625 691.3740234375,847.2900390625 "/>
   <polygon fill="#ffb8b8" points="655.8079833984375,844.957763671875 667.468994140625,871.197509765625 651.1439819335938,878.1949462890625 647.64501953125,852.53857421875 655.8079833984375,844.957763671875 "/>
   <path fill="#2f2e41" d="m684.96085,643.77076s23.32223,210.48313 14.57639,211.06619s-25.65445,11.66112 -25.65445,4.08139s-13.41029,-106.11615 -13.41029,-106.11615l-12.82722,-50.72586l0,69.9667l13.41028,79.29559s-12.82723,16.90861 -22.15612,6.99667l-19.8239,-77.54642s-26.23754,-117.77727 -25.07139,-127.10616c0,0 60.05474,-51.30891 90.9567,-9.91195z"/>
   <path fill="#2f2e41" d="m680.2964,869.9964s4.66445,-9.912 15.15945,-3.49833l8.74584,10.495s22.54831,18.67354 6.54831,22.67354c-16.49131,4.12283 -26.37221,-0.26326 -26.37221,-0.26326s-2.91528,-1.74916 -5.2475,-1.74916s-7.57973,-4.08139 -7.57973,-5.24751s1.74917,-21.82722 1.74917,-21.82722a3.67667,3.67667 0 0 1 4.08139,0.58305c1.74917,1.74917 2.91528,-1.16611 2.91528,-1.16611z"/>
   <path fill="#2f2e41" d="m645.89611,866.49807s11.07806,-8.74584 16.32556,1.16611c0,0 3.304,1.16611 3.69269,0s3.304,-1.74917 3.304,4.66444s3.16611,22.41029 0.25083,22.99334s-5.83055,2.33223 -5.2475,4.66445s-3.16611,2.66111 -16.57639,2.07806s-13.99334,-5.83056 -13.99334,-5.83056s0,-7.57972 3.49833,-11.66111s8.74582,-18.07473 8.74582,-18.07473z"/>
   <path fill="#ffb8b8" d="m624.32305,484.59653s-2.91528,21.57307 15.7425,29.15279s-41.397,32.65113 -47.22752,18.07473s1.16612,-19.24084 1.16612,-19.24084s5.83055,-5.83056 0.58305,-21.57306l29.73585,-6.41362z"/>
   <circle fill="#ffb8b8" r="25.65445" cy="474.10153" cx="605.66526"/>
   <path fill="#f2f2f2" d="m635.40111,520.74599s-17.49168,9.32889 -34.40029,2.33223s-16.32557,23.32223 -16.32557,23.32223l8.74584,22.73917l60.6378,-5.83056l-4.08139,-34.98334l-14.57639,-7.57973z"/>
   <path fill="#3f3d56" d="m626.71069,500.79565a21.16638,21.16638 0 0 1 14.521,11.20451l27.98668,8.74583l6.99667,9.91195l-8.16278,71.71586s15.15945,14.57639 15.15945,22.73918s18.65778,36.14945 9.32889,32.65112s-26.23751,-15.74251 -26.23751,-15.74251s-42.56307,1.74917 -55.97335,13.41029s-18.65779,8.16278 -18.65779,8.16278s-13.99334,-60.6378 -14.57639,-69.9667s-16.90862,-65.30224 -16.90862,-65.30224l29.15279,-16.32556l7.42538,-8.42509l20.5613,32.91343l18.65775,-22.73917s-9.21806,-7.24957 -9.27347,-12.95368z"/>
   <path fill="#ffb8b8" d="m684.96085,575.55323l3.49833,18.65779s15.74251,58.30558 13.41028,78.12947c0,0 1.74917,44.31224 -8.16278,39.06474s-4.66444,-37.31557 -4.66444,-37.31557l-13.99334,-57.72252l-7.57973,-33.81724l17.49168,-6.99667z"/>
   <path fill="#3f3d56" d="m670.38445,527.15961l5.83056,3.49833s22.15612,46.06141 16.90862,49.55974s-27.98663,11.07806 -27.98663,11.07806l5.24745,-64.13613z"/>
   <polygon fill="#3f3d56" points="574.1799926757812,528.3299560546875 560.47802734375,528.037841796875 557.27197265625,533.5771484375 561.35302734375,590.1395263671875 582.343017578125,594.803955078125 574.1799926757812,528.3299560546875 "/>
   <path fill="#2f2e41" d="m626.55608,452.40451l4.62409,-1.68149s-9.6685,-9.66851 -23.12045,-8.82773l3.78344,-3.78338s-9.24818,-3.36292 -17.65558,5.46481c-4.4196,4.64055 -9.53315,10.09526 -12.72091,16.23994l-4.95208,0l2.06681,4.13363l-7.23384,4.13362l7.42483,-0.7425a20.85851,20.85851 0 0 0 0.70227,10.70563l1.68143,4.624s6.726,-13.45182 6.726,-15.13331l0,4.2037s4.62409,-3.78332 4.62409,-6.30552l2.52221,2.94259l1.2611,-4.62409l15.5537,4.62409l-2.52221,-3.78331l9.66851,1.26111l-3.78344,-4.62409s10.92961,5.4648 11.35006,10.08889s3.306,10.65165 3.306,10.65165l3.49833,-4.08139s5.38636,-19.18133 -6.80436,-25.48685z"/>
   <ellipse fill="#ffb8b8" ry="5.2475" rx="2.0407" cy="474.39306" cx="627.23833"/>
   <path fill="#3f3d56" d="m53.884,869.33243c12.42842,23.049 38.806,32.94351 38.806,32.94351s6.22712,-27.47543 -6.2013,-50.52448s-38.806,-32.9435 -38.806,-32.9435s-6.22711,27.47543 6.2013,50.52447z"/>
   <path fill="#274b9f" d="m62.42653,861.74946c22.43841,13.49969 31.08016,40.3138 31.08016,40.3138s-27.73812,4.92679 -50.17653,-8.57291s-31.08016,-40.3138 -31.08016,-40.3138s27.73811,-4.92678 50.17653,8.57291z"/>
   <path opacity="0.3" fill="#fff" d="m294.76,519.66661s68.99,-36 116.99,0s132.96,3.40157 132.96,3.40157"/>
   <circle fill="#fff" r="11" cy="874.99133" cx="420"/>
  </g>
 </g>
</svg>