<svg xmlns="http://www.w3.org/2000/svg" data-name="Layer 1" width="912.89643" height="771.70369" viewBox="0 0 912.89643 771.70369" xmlns:xlink="http://www.w3.org/1999/xlink"><title>visualization</title><rect x="483.44548" y="53.85185" width="65" height="688" transform="translate(-249.98025 140.99534) rotate(-20.43193)" fill="#f2f2f2"/><path d="M525.15021,741.17354a306.99915,306.99915,0,1,1,217.082-89.918A304.99057,304.99057,0,0,1,525.15021,741.17354Zm0-612c-168.17774,0-305,136.82227-305,305s136.82226,305,305,305,305-136.82227,305-305S693.32794,129.17354,525.15021,129.17354Z" transform="translate(-143.55179 -64.14815)" fill="#3f3d56"/><path d="M995.09551,641.27183a225.01406,225.01406,0,0,1-318.07,9.23c-90.38-85.28-94.51-227.69-9.22-318.07a225.00215,225.00215,0,0,1,318.06-9.23C1076.24553,408.49186,1080.37541,550.89182,995.09551,641.27183Z" transform="translate(-143.55179 -64.14815)" fill="#3f3d56"/><path d="M265.44523,164.0036s-47.96352-13.51085-62.14992,52.01679-3.37771,98.62923-3.37771,98.62923l107.07351-12.49754S337.39053,183.93211,265.44523,164.0036Z" transform="translate(-143.55179 -64.14815)" fill="#2f2e41"/><path d="M171.91316,521.45925l21.86745,94.30339,4.10015,36.90132s-2.66259,38.60756,11.72118,72.463q.28515.67113.57926,1.33968c15.03387,34.1679,13.66716,46.46834,13.66716,46.46834h17.7673l-2.73343-58.76878s0-42.36819-6.83358-58.76877L227.9485,526.92612Z" transform="translate(-143.55179 -64.14815)" fill="#ffb9b9"/><path d="M247.08252,540.59328l64.23564,116.17083s12.30044,49.20177,25.9676,64.23564l31.43446,64.23564,13.66716-25.9676L345.48606,633.52994l-34.1679-98.40353Z" transform="translate(-143.55179 -64.14815)" fill="#ffb9b9"/><path d="M244.34909,766.10137l-23.23416,1.36672-1.36672,21.86745s-42.36819,43.7349-13.66716,45.10162,32.80118-10.93373,32.80118-10.93373,16.40059-12.30044,16.40059-17.7673-2.73343-21.86746-5.46686-25.9676S244.34909,766.10137,244.34909,766.10137Z" transform="translate(-143.55179 -64.14815)" fill="#2f2e41"/><path d="M382.38738,749.70078,357.7865,770.20152s19.134,50.56848,27.33431,49.20176,75.16937-49.20176,68.33579-57.40206-16.40059-2.73343-16.40059-2.73343-30.06775,15.03387-36.90132,8.2003Z" transform="translate(-143.55179 -64.14815)" fill="#2f2e41"/><path d="M177.38,436.72288l-12.30044,46.46833s-30.06775,31.43447-19.134,35.53461,19.134,0,20.50074,5.46687,43.7349,19.134,60.13549,15.03387l8.20029-4.10015s5.46687,17.76731,13.66716,16.40059,73.80265-1.36671,72.43593-5.46686-10.93372-19.134-10.93372-23.23417-6.83358-20.50074-6.83358-20.50074a4.77169,4.77169,0,0,0,1.36671-2.73343c0-1.36671-2.73343-71.06921-2.73343-71.06921l-110.704-5.46687Z" transform="translate(-143.55179 -64.14815)" fill="#2f2e41"/><circle cx="111.73103" cy="168.93408" r="35.53461" fill="#ffb9b9"/><path d="M243.66573,259.73319s4.10015,24.60089-10.93372,31.43446l-15.03387,6.83358,58.76877,45.10162,20.50074-56.03534s-20.50074-4.10015-19.134-32.80118Z" transform="translate(-143.55179 -64.14815)" fill="#ffb9b9"/><path d="M236.1488,295.95116s37.795,8.94432,53.06537-12.61179l34.40443,4.4115-9.567,110.704s1.36672,60.13549-13.66715,61.50221-9.567-12.30044-9.567-12.30044-6.83358,9.567-17.76731,9.567-32.80117-8.2003-32.80117-8.2003-31.43447-4.10015-41.00148-2.73343-50.56848,8.20029-10.93372-31.43446c0,0,20.50073-13.66716,17.7673-17.76731s-6.83358-21.86745-6.83358-21.86745l1.36672-76.53608,30.25541-6.67039Z" transform="translate(-143.55179 -64.14815)" fill="#575a89"/><path d="M185.58032,468.15734s32.80117,21.86745,39.63475,5.46686S195.14733,450.39,195.14733,450.39l-13.66716,5.46686Z" transform="translate(-143.55179 -64.14815)" fill="#ffb9b9"/><path d="M289.45071,477.72435s-41.00147-2.73343-34.16789,12.30044,45.10162,2.73343,45.10162,2.73343Z" transform="translate(-143.55179 -64.14815)" fill="#ffb9b9"/><path d="M207.44777,301.418l-6.83358-2.73343s-10.93373,6.83358-20.50074,28.701-27.33431,58.76878-27.33431,58.76878-8.2003,1.36671-4.10015,9.567,4.10015,6.83358,1.36672,10.93372-5.46687,8.2003-2.73343,10.93373,5.46686,2.73343,4.10014,8.20029-1.36671,10.93373,0,12.30045,12.30044,8.20029,10.93373,12.30044-6.83358,5.46686,1.36671,5.46686,10.93373,13.66716,10.93373,13.66716l16.40059,2.73343s-9.567-19.134,10.93373-20.50074c0,0-5.46687-4.10014-5.46687-8.20029s4.10015-4.10015-2.73343-5.46686-8.20029-2.73344-6.83358-6.83358,2.73343-6.83358,0-6.83358-5.46686,4.10015-2.73343,0-5.46686-12.30044-5.46686-12.30044,16.40059-42.36819,27.33431-46.46834S207.44777,301.418,207.44777,301.418Z" transform="translate(-143.55179 -64.14815)" fill="#575a89"/><path d="M312.68488,289.11758l10.93372-1.36671s13.66716,2.73343,17.76731,19.134,5.46686,102.50368,5.46686,102.50368-5.46686,5.46686-2.73343,12.30044,4.10015,5.46686,1.36672,9.567-8.2003,6.83358-8.2003,12.30044,0,8.20029-2.73343,9.567-6.83358,0-6.83358,4.10015S315.41831,470.89077,316.785,473.6242s6.83357,13.66716-12.30045,19.134L297.651,499.5918s-8.2003-21.86745-16.40059-21.86745c0,0,6.83358-1.36671,5.46686-6.83358s4.10015-8.20029,4.10015-8.20029l23.23416-34.16789,4.10015-19.134-19.134-38.26805Z" transform="translate(-143.55179 -64.14815)" fill="#575a89"/><path d="M269.17635,184.07279s-13.51085,35.80376-46.61244,50.6657L217.15956,202.988Z" transform="translate(-143.55179 -64.14815)" fill="#2f2e41"/><ellipse cx="147.949" cy="165.51729" rx="4.55572" ry="6.83358" fill="#ffb9b9"/><rect x="463.8937" y="769.70369" width="449" height="2" fill="#575a89"/><rect x="463.8937" y="719.70369" width="449" height="2" fill="#575a89"/><path d="M995.09551,641.27183a224.34455,224.34455,0,0,1-163.65,70.58v-450a224.22457,224.22457,0,0,1,154.42,61.35C1076.24553,408.49186,1080.37541,550.89182,995.09551,641.27183Z" transform="translate(-143.55179 -64.14815)" fill="#274b9f"/><circle cx="800.8937" cy="148.70369" r="15" fill="#274b9f"/><circle cx="486.8937" cy="647.70369" r="27" fill="#3f3d56"/><circle cx="442.8937" cy="237.70369" r="17" fill="#3f3d56"/><path d="M699.44548,579.85185c0,72.90155,132,132,132,132v-264S699.44548,506.95023,699.44548,579.85185Z" transform="translate(-143.55179 -64.14815)" fill="#274b9f"/><path d="M831.44548,447.85185v264s132-59.09845,132-132S831.44548,447.85185,831.44548,447.85185Z" transform="translate(-143.55179 -64.14815)" fill="#3f3d56"/></svg>