<svg data-name="Layer 1" viewBox="0 0 846.547 604.047" xmlns="http://www.w3.org/2000/svg"><path fill="#f2f2f2" d="m84.579 549.35-16.157 14.875 12.84-21.545c-10.116-18.345-26.661-34.2-26.661-34.2s-34.325 32.887-34.325 58.738 15.368 34.876 34.325 34.876 34.325-9.026 34.325-34.876c0-5.754-1.703-11.856-4.347-17.867Z"/><path fill="#fff" d="M64.267 565.03v1.275c-.076 14.81-2.574 26.367-7.475 34.505-.07.12-.145.233-.215.353l-.549-.335-.523-.328c5.437-8.787 7.361-21.207 7.43-34.126.007-.416.013-.839.007-1.261-.019-5.47-.353-11.002-.89-16.376a95 95 0 0 0-.126-1.262c-.744-7.09-1.816-13.865-2.914-19.75a72 72 0 0 0-.24-1.243c-1.898-9.954-3.835-17.164-4.276-18.76q-.077-.291-.089-.328l.6-.17.006-.006.605-.17c.007.025.114.384.29 1.053.676 2.498 2.43 9.279 4.151 18.224.076.403.158.82.234 1.236a257 257 0 0 1 2.466 15.713q.265 2.11.473 4.163.075.636.133 1.262.87 8.715.902 16.332Z"/><path fill="#fff" d="M60.06 526.325c-.423.056-.852.113-1.288.157a35 35 0 0 1-3.557.183 33.85 33.85 0 0 1-14.635-3.305l-.8 1.01a35.1 35.1 0 0 0 15.435 3.557 36 36 0 0 0 3.797-.202q.646-.068 1.28-.164a34.8 34.8 0 0 0 10.062-3.047q-.407-.52-.795-1.022a33.7 33.7 0 0 1-9.5 2.833Zm3.172 21.112q-.653.038-1.306.038c-.132.007-.27.007-.403.007a34.03 34.03 0 0 1-27.932-14.59 63 63 0 0 0-.75 1.122 35.3 35.3 0 0 0 28.682 14.73q.264.002.53-.007.66-.01 1.312-.038a35.1 35.1 0 0 0 18.703-6.56q-.302-.558-.612-1.117a33.8 33.8 0 0 1-18.224 6.415"/><path fill="#fff" d="M64.267 565.03a36 36 0 0 1-2.744.114 34.12 34.12 0 0 1-32.714-24.55c-.283.51-.567 1.015-.839 1.526a35.37 35.37 0 0 0 33.553 24.286c.473 0 .946-.007 1.413-.032q.671-.02 1.33-.07a35.27 35.27 0 0 0 23.277-11.36c-.132-.467-.284-.927-.435-1.394a34 34 0 0 1-22.841 11.48"/><path fill="#f0f0f0" d="M536.547 76.243h310v187.804h-310z"/><path fill="#cacaca" d="M841.33 36h-432a1 1 0 0 1 0-2h432a1 1 0 0 1 0 2"/><circle cx="431.839" cy="11" r="11" fill="#3f3d56"/><circle cx="469.839" cy="11" r="11" fill="#3f3d56"/><circle cx="507.839" cy="11" r="11" fill="#3f3d56"/><path fill="#fff" d="m713.561 167.855-18.87-19.447a4.3 4.3 0 0 0-3.154-1.268h-.057a4.3 4.3 0 0 0-3.154 1.268l-18.87 19.447a4.164 4.164 0 0 0-.198 5.886q.095.102.198.198a4.66 4.66 0 0 0 6.365 0l11.181-11.688v30.136a4.51 4.51 0 0 0 9.013 0V162.25l11.181 11.688a4.66 4.66 0 0 0 6.365 0 4.164 4.164 0 0 0 .198-5.886q-.095-.102-.198-.198Z"/><path fill="#fff" d="M691.547 216.481a44.286 44.286 0 1 1 44.286-44.286 44.336 44.336 0 0 1-44.286 44.286m0-86.931a42.645 42.645 0 1 0 42.646 42.645 42.694 42.694 0 0 0-42.646-42.645"/><path fill="#fff" d="M716.186 364.36H426.652c-2.959-.007-5.358-4.913-5.361-10.97V206.436c0-6.056 2.402-10.96 5.361-10.97h289.534c2.959.007 5.357 4.912 5.361 10.97v146.952c-.004 6.056-2.406 10.964-5.361 10.972" data-name="Path 138"/><g data-name="Group 38"><circle cx="519.767" cy="253.648" r="25.318" fill="#3f3d56" data-name="Ellipse 7"/><path fill="#274b9f" d="M599.162 331.667H474.959a2.5 2.5 0 0 1-.463-.038l58.744-101.747a4.112 4.112 0 0 1 7.16 0l39.422 68.28 1.89 3.267Z" data-name="Path 63"/><path fill="#274b9f" d="M668.313 331.668H560.888l20.815-30.235 1.498-2.178 27.126-39.404a5.49 5.49 0 0 1 8.154-.486 5 5 0 0 1 .39.486Z" data-name="Path 65"/></g><path fill="#e6e6e6" d="M716.186 364.36H426.652c-2.959-.007-5.358-4.913-5.361-10.97V206.436c0-6.056 2.402-10.96 5.361-10.97h289.534c2.959.007 5.357 4.912 5.361 10.97v146.952c-.004 6.056-2.406 10.964-5.361 10.972M426.652 199.853c-1.776 0-3.215 2.95-3.217 6.582v146.953c0 3.634 1.44 6.58 3.217 6.583h289.534c1.776 0 3.215-2.948 3.217-6.583V206.436c0-3.634-1.441-6.58-3.217-6.583Z" data-name="Path 138"/><path fill="#cacaca" d="M382 604.047H1a1 1 0 1 1 0-2h381a1 1 0 0 1 0 2"/><path fill="#2f2e41" d="M267.952 207.362c-9.416-13.26-28.045-13.878-28.045-13.878s-18.153-1.934-29.798 18.26c-10.854 18.824 4.439 42.221 4.439 42.221 3.023.182 16.091.26 54.983-4.544l1.743-9.397 4.999 8.57c2.078-.254 4.24-.517 6.499-.79-1.023-9.972-5.76-27.683-14.82-40.442"/><path fill="#ffb8b8" d="m290.147 392.887-2.494-85.806-16.983 7.43 8.195 79.306a10.371 10.371 0 1 0 11.282-.93"/><path fill="#e6e6e6" d="M268.017 318.226c11.075 1.072 19.03-3.504 24.412-12.737l-3.715-17.01a26.03 26.03 0 0 0-18.192-24.823l-1.975-.624Z"/><path fill="#274b9f" d="M175.628 294.632a2 2 0 0 1-.432-.045l-20.488-.346-.045-.51v-.022l1.7-42.215a3.287 3.287 0 0 1 3.43-3.138l16.41.731a3.286 3.286 0 0 1 3.137 3.43l-1.614 40.098a2.1 2.1 0 0 1-2.098 2.017"/><path fill="#2f2e41" d="m173.395 294.661-.157-.003-16.087-.717a3.453 3.453 0 0 1-3.292-3.6l1.719-38.545a3.29 3.29 0 0 1 3.43-3.136l16.41.731a3.29 3.29 0 0 1 3.137 3.43l-1.719 38.546a3.45 3.45 0 0 1-3.44 3.294Z"/><circle cx="166.192" cy="258.728" r="2.349" fill="#274b9f"/><path fill="#ffb8b8" d="M185.722 305.12v15.495l-14.968-23.587a9.772 9.772 0 1 0-9.507 4.78l20.924 37.075a10.424 10.424 0 0 0 19.456-4.15l2.589-27.613Z"/><path fill="#e6e6e6" d="M206.215 317.116c-10.431 1.01-17.923-3.3-22.992-11.996l3.499-16.02a24.52 24.52 0 0 1 17.133-23.378l1.86-.587Z"/><path fill="#ffb6b6" d="m230.398 594.758-11.413-1.852 1.712-44.901 16.844 2.733z"/><path fill="#2f2e41" d="m232.962 603.386-37.28.037-.001-.472a14.51 14.51 0 0 1 14.495-14.525h.001l22.77-.023Z"/><path fill="#ffb6b6" d="m284.937 568.612-10.323 5.208-25-37.337 15.235-7.686z"/><path fill="#2f2e41" d="m292.618 577.289-33.284 16.793-.212-.42a14.51 14.51 0 0 1 6.418-19.492l20.33-10.257Z"/><circle cx="238.628" cy="229.796" r="20.295" fill="#ffb8b8"/><path fill="#2f2e41" d="m263.789 209.338-18.405-9.64-25.416 3.943-5.258 23.225c25.956 3.733 43.922 5.874 49.955-.438Zm-57.893 147.364s-15.471 31.642 1.67 78.465l47.348 120.731 22.635-13.38-23.073-51.978 18.768-63.621a110.6 110.6 0 0 0 3.916-44.52c-1.353-11.187-4.492-22.565-11.32-28.3-16.067-13.497-59.944 2.603-59.944 2.603"/><path fill="#2f2e41" d="m231.778 481.348-17.165 87.026 22.86 4.31 14.381-75.328z"/><path fill="#e4e4e4" d="m253.597 260-26.24.35-22.969 5.284 1.361 91.999s41.529 11.75 59.77-4.499l12.03-86.107c-6.75-3.816-14.857-6.012-23.952-7.027"/><circle cx="251.274" cy="196.024" r="13" fill="#2f2e41"/><path fill="#2f2e41" d="M238.274 193.024a12.993 12.993 0 0 1 15.537-12.749 12.994 12.994 0 1 0-8.075 24.497 12.99 12.99 0 0 1-7.462-11.748"/></svg>