<svg data-name="Layer 1" viewBox="0 0 1077.325 784.027" xmlns="http://www.w3.org/2000/svg"><path fill="#f2f2f2" d="M1120.516 609.153c-18.84 38.87-51.46 68.61-88.78 91.24a392.456 392.456 0 0 1-47.64 24.39q-16.11 6.975-32.66 12.73c-54.73 19.11-112.64 28.45-170.65 28.48q-14.22.015-28.44-.73-4.08-.21-8.16-.48-21.495-1.425-42.85-4.57c-.28-.04-.57-.08-.85-.13a539.774 539.774 0 0 1-87.77-20.57q-8.325-2.7-16.55-5.67c-1.48-.52-2.96-1.07-4.43-1.61q-9.27-3.435-18.4-7.21-7.68-3.165-15.27-6.57-7.47-3.375-14.84-6.97-12.06-5.91-23.86-12.39-9.105-5.04-17.97-10.46a496.62 496.62 0 0 1-42.49-29.08q-7.23-5.52-14.26-11.32c-3.25-2.68-6.47-5.42-9.74-8.08-6.9-5.61-14-10.94-21.92-14.93a78.626 78.626 0 0 0-7.34-3.24 91.905 91.905 0 0 0-29.15-5.67c-16.99-.67-34.53 2.49-50.96 7.17-7.81 2.21-15.53 4.75-23.25 7.35q-4.755 1.605-9.5 3.22c-6.54 2.23-13.08 4.41-19.68 6.4-2.2.66-4.4 1.31-6.61 1.92a194.227 194.227 0 0 1-26.91 5.72 143.374 143.374 0 0 1-60.49-5.27l-1.67-.52c-2.8-.88-5.57-1.84-8.33-2.89l-1.67-.64q-3.99-1.544-7.83-3.31l-1.67-.76c-2.46-1.15-4.87-2.35-7.24-3.62-.2-.1-.39-.2-.59-.31-.92-.48-1.83-1-2.73-1.49a164.618 164.618 0 0 1-39.16-30.49c-.33-.33-.64-.67-1-1-1.59-1.72-3.15-3.47-4.66-5.26-.56-.66-1.12-1.32-1.67-2q-2.685-3.284-5.19-6.71c-.25-.33-.49-.67-.73-1a145.03 145.03 0 0 1-16.87-30.5c-.14-.33-.27-.67-.39-1q-1.996-5.144-3.65-10.47c-.45-1.48-.88-3-1.26-4.48-.13-.44-.25-.89-.36-1.33-5.47-21.72-6.06-44.31-6.06-66.77v-7.85c.16-36.33.72-73.28 6.08-109.11a6.036 6.036 0 0 1 .11-.74 344.024 344.024 0 0 1 7.31-35.82 265.599 265.599 0 0 1 12.31-36.3c12.33-29 30.26-55.39 50.17-79.85 50.1-61.51 115.87-113.22 192.85-132.51 82.95-20.83 175.14-.87 242.05 52.4 19.73 15.7 37.52 34.2 59.39 46.66q1.11.646 2.25 1.26 4.335 2.355 8.86 4.28a91.427 91.427 0 0 0 12.31 4.25c13.29 3.57 27.18 3.89 40.43-.54 1.08-.37 2.16-.76 3.23-1.19 2.27-.9 4.44-1.74 6.53-2.52 14.26-5.31 25.24-7.89 42.57-6.96a411.346 411.346 0 0 1 120.36 25.19c1.56.57 3.12 1.16 4.67 1.75 100.71 38.55 187.3 115.1 232.28 213.47q1.8 3.9 3.47 7.86c26.83 62.62 36.51 136.09 6.92 197.15Z" style="isolation:isolate" transform="translate(-61.337 -57.987)"/><path fill="#cacaca" d="M63.608 512.617v.4l-.15.18.15-.58z"/><path fill="#fff" d="M240.948 572.847q-4.755 1.605-9.5 3.22v-3.22Z"/><path fill="#e4e4e4" d="M575.296 58.768h23.422v58.555h-23.422z"/><path fill="#e4e4e4" d="M639.148 112.707v589.39a539.774 539.774 0 0 1-87.77-20.57q-8.324-2.7-16.55-5.67c-1.48-.52-2.96-1.07-4.43-1.61q-9.27-3.435-18.4-7.21-7.68-3.165-15.27-6.57-7.47-3.375-14.84-6.97-12.06-5.91-23.86-12.39-9.105-5.04-17.97-10.46v-517.94Z"/><path fill="#cacaca" d="M719.448 112.707v595.3q-14.22.015-28.44-.73-4.08-.21-8.16-.48-21.495-1.425-42.85-4.57c-.28-.04-.57-.08-.85-.13v-589.39Z"/><path fill="#fff" d="M476.029 171.26h30.114v30.114h-30.114zm48.517 0h30.114v30.114h-30.114zm48.517 0h30.114v30.114h-30.114zm-96.197 68.593h30.114v30.114h-30.114zm48.516 0h30.114v30.114h-30.114zm48.517 0h30.114v30.114h-30.114zm-96.197 68.592h30.114v30.114h-30.114zm48.517 0h30.114v30.114h-30.114zm48.517 0h30.114v30.114h-30.114zm-96.197 68.593h30.114v30.114h-30.114zm48.516 0h30.114v30.114h-30.114zm48.517 0h30.114v30.114h-30.114zm-96.197 68.593h30.114v30.114h-30.114zm48.517 0h30.114v30.114h-30.114zm48.517 0h30.114v30.114h-30.114zm-96.197 68.592h30.114v30.114h-30.114zm48.516 0h30.114v30.114h-30.114zm48.517 0h30.114v30.114h-30.114zm-96.197 68.593h30.114v30.114h-30.114zm48.517 0h30.114v30.114h-30.114zm48.517 0h30.114v30.114h-30.114zm-66.084 68.591v15.63q-7.68-3.165-15.27-6.57-7.47-3.375-14.84-6.97v-2.09Zm48.52 0v30.12h-9.14q-8.324-2.7-16.55-5.67c-1.48-.52-2.96-1.07-4.43-1.61v-22.84Zm18.4.002h30.114v30.114h-30.114z"/><path fill="#e4e4e4" d="M848.27 356.962h23.422v34.704H848.27z"/><path fill="#e4e4e4" d="M890.098 388.687v290.84c-54.73 19.11-112.64 28.45-170.65 28.48q-14.22.015-28.44-.73v-318.59Z"/><path fill="#cacaca" d="M970.398 388.687v253.72a392.456 392.456 0 0 1-47.64 24.39q-16.11 6.975-32.66 12.73v-290.84Z"/><path fill="#fff" d="M730.324 445.631h30.114v30.114h-30.114zm48.517 0h30.114v30.114h-30.114zm48.516 0h30.114v30.114h-30.114zm-96.197 68.592h30.114v30.114H731.16zm48.517 0h30.114v30.114h-30.114zm48.517 0h30.114v30.114h-30.114zm-96.197 68.593h30.114v30.114h-30.114zm48.517 0h30.114v30.114h-30.114zm48.516 0h30.114v30.114H829.03zm-96.197 68.593h30.114v30.114h-30.114zm48.517 0h30.114v30.114H781.35zm48.517 0h30.114v30.114h-30.114z"/><path fill="#3f3d56" d="M714.574 717.18s10.713 38.1 55.578 36.368 64.261-37.06 64.261-37.06Z"/><path fill="#2f2e41" d="M96.331 568.594 83.513 592.07l2.081 44.063 307.157 91.268 133.753 16.449-26.149-159.512-91.503-16.202-137.266 3.922-116.375-21.474-58.88 18.01z"/><path fill="#3f3d56" d="M139.09 723.068h-7.93a40.144 40.144 0 0 1-36.524-23.174c-12.224-26.686-8.603-63.587-8.55-64.113 2.77-31.895 20.25-52.704 43.501-51.76 25.668 1.035 47.555 89.814 48.474 93.593a33.087 33.087 0 0 1-1.153 19.2 40.01 40.01 0 0 1-37.819 26.254Zm323.338 60.959a27.929 27.929 0 0 1-4.047-.391 62.7 62.7 0 0 1-47.347-36.043 501.693 501.693 0 0 1-9.193-21.277c-11.584-28.621-1.873-78.655 13.907-98.02 13.927-17.094 27.945-16.959 49.165-16.758 2.179.02 4.436.041 6.778.046 23.561.038 48.47 86.71 56.655 115.19.651 2.266 1.19 4.142 1.607 5.548 1.282 4.328 1.13 9.504-.453 15.384-4.995 18.551-21.454 32.31-40.957 34.237-14.008 1.382-22.795 2.084-26.115 2.084Z"/><path fill="#3f3d56" d="M85.594 636.133s-9.005-40.177 4.502-67.539l13.615-32.903 51.446 47.797 11.747 74.79 201.315 30.501s-12.468-122.61 65.808-127.458 115.418 127.458 115.418 127.458L588.5 717.18l272.235-20.088s4.806 13.161-2.1 20.088-337.328 28.402-337.328 28.402-16.625-164.173-82.432-148.933-46.125 130.752-46.125 130.752L157.636 686.01s-7.62-111.527-46.412-111.527-25.63 61.651-25.63 61.651Zm46.392-139.675 44.353-69.523 189.11-11.083 209.891 2.771 97.672 90.745-302.022 17.317-243.141-13.161 4.137-17.066z"/><path fill="#274b9f" d="M131.986 496.458s-37.733.787-41.89 72.136c0 0 40.178-72.734 74.813 89.36l206.774 33.596s-7.62-135.078 70.656-124.688 96.98 134.386 96.98 134.386 15.24 30.48 99.057 25.63 209.198-12.468 222.36-29.786c0 0 30.48-103.214-64.422-169.714l-123.302-18.01-279.162 5.541Z"/><path fill="#cacaca" d="M226.56 545.042h-23.552a4.849 4.849 0 1 1 0-9.698h23.552a4.849 4.849 0 0 1 0 9.698Z"/><circle cx="585.038" cy="680.467" r="15.24" fill="#fff"/><path fill="#fff" d="M577.487 605.689c-10.433 0-22.89-4.454-34.04-13.043-19.674-15.156-27.94-37.535-18.425-49.885 9.514-12.351 33.261-10.068 52.935 5.087 9.508 7.325 16.667 16.53 20.157 25.92 3.512 9.447 2.897 17.958-1.732 23.965-4.122 5.351-10.917 7.956-18.895 7.956Zm270.813-19.35c-7.677 0-21.465-7.773-35.116-20.386-8.183-7.561-14.962-15.665-19.088-22.82-4.192-7.269-5.146-12.736-2.689-15.396s7.984-2.14 15.56 1.465c7.459 3.549 16.073 9.667 24.256 17.228 17.268 15.956 26.834 32.742 21.776 38.216a6.133 6.133 0 0 1-4.7 1.693Zm-643.775-89.895q-.247 0-.496-.023l-50.09-4.657a5.388 5.388 0 0 1-4.08-8.206l28.246-45.538a5.385 5.385 0 0 1 4.341-2.543l37.36-1.648a5.388 5.388 0 0 1 5.399 6.928L209.69 492.6a5.407 5.407 0 0 1-5.165 3.844Zm131.994 10.67q-.741 0-1.493-.073l-86.594-8.525a15.118 15.118 0 0 1-13.105-19.02l12.457-45.71a15.048 15.048 0 0 1 14.059-11.134l69.885-2.44a15.202 15.202 0 0 1 15.545 13.367l5.767 49.747a15.087 15.087 0 0 1-.249 4.972l-1.515 6.928a15.123 15.123 0 0 1-14.757 11.888Zm67.583 2.406a11.268 11.268 0 0 1-10.934-8.693l-15.276-66.03a11.22 11.22 0 0 1 10.932-13.75h181.153a11.28 11.28 0 0 1 8.054 3.409l59.17 61.005a11.22 11.22 0 0 1-7.804 19.03l-225.046 5.025a10.1 10.1 0 0 1-.25.003Z"/><path fill="#274b9f" d="m174.793 429.359 1.546-2.424s9.005-24.937 133-29.094 239.678-2.078 266 20.782l-214.047-.693-180.797 12.469Z"/><path fill="#e4e4e4" d="M116.073 607.04c-13.007 0-23.552 21.71-23.552 48.49s10.545 48.489 23.552 48.489 23.552-21.71 23.552-48.49-10.544-48.49-23.552-48.49Zm1.04 10.39c2.868 0 5.194 5.583 5.194 12.47s-2.326 12.468-5.195 12.468-5.195-5.583-5.195-12.469 2.326-12.469 5.195-12.469Zm3.116 38.1c0 2.295-1.55 4.156-3.463 4.156s-3.464-1.861-3.464-4.157 1.551-4.156 3.464-4.156 3.463 1.86 3.463 4.156Zm-18.097 2.667c-4.454.344-8.18-.882-8.324-2.737s3.35-3.64 7.805-3.984c4.454-.344 8.18.882 8.324 2.738s-3.35 3.639-7.805 3.983Zm14.98 35.431c-2.87 0-5.195-5.582-5.195-12.468s2.326-12.47 5.195-12.47 5.196 5.583 5.196 12.47-2.327 12.468-5.196 12.468Zm13.421-35.431c-4.454.344-8.18-.882-8.324-2.737s3.351-3.64 7.805-3.984c4.454-.344 8.18.882 8.324 2.738s-3.35 3.639-7.805 3.983Zm314.577-18.6c-20.659 0-37.406 27.757-37.406 61.998 0 34.24 16.747 61.997 37.406 61.997s37.406-27.757 37.406-61.997c0-34.24-16.747-61.998-37.406-61.998Zm-22.347 66.65c-6.033.466-11.081-1.194-11.276-3.708s4.54-4.93 10.573-5.395 11.081 1.194 11.275 3.707c.195 2.514-4.539 4.93-10.572 5.396Zm22.37 47.3c-3.887 0-7.038-7.561-7.038-16.889s3.15-16.89 7.037-16.89 7.038 7.562 7.038 16.89-3.151 16.89-7.038 16.89Zm-5.564-51.606c0-3.673 2.48-6.65 5.541-6.65s5.542 2.977 5.542 6.65-2.481 6.65-5.542 6.65-5.542-2.977-5.542-6.65Zm5.563-17.828c-3.886 0-7.037-7.562-7.037-16.89s3.15-16.889 7.037-16.889 7.038 7.562 7.038 16.89-3.151 16.889-7.038 16.889Zm23.721 20.748c-6.033.466-11.081-1.194-11.275-3.707s4.54-4.93 10.572-5.396 11.082 1.194 11.276 3.708-4.54 4.93-10.573 5.395Z"/><path fill="#cacaca" d="m314.188 515.602 8.313 19.396s13.854 5.542 22.859-13.162l-18.248-18.247Z"/><path fill="#cacaca" d="M302.758 520.105c-14.896 0-27.015-8.08-27.015-18.01 0-9.932 12.119-18.011 27.015-18.011s27.016 8.08 27.016 18.01c0 9.931-12.12 18.01-27.016 18.01Z"/><path fill="#3f3d56" d="m823.679 583.487-154.877 4.528s-33.894 9.507-37.353 36.671c0 0 4.842 22.184 17.293 22.184s203.366-9.96 203.366-9.96 12.45-19.015 2.075-32.597-30.504-20.826-30.504-20.826Z"/><path fill="#e4e4e4" d="m655.462 598.147 181.626-6.004.068 2.076-181.625 6.005zm-9.304 9.529 197.535-8.95.094 2.077-197.535 8.95zm-7.388 11.37 211.837-11.376.112 2.075-211.837 11.376z"/><g data-name="Group 142"><path fill="#ffb8b8" d="M114.972 561.632a9.422 9.422 0 0 1 3.043-14.123l-1.967-21.44 12.738-4.374 2.353 30.318a9.473 9.473 0 0 1-16.169 9.62Z" data-name="Path 2185"/><path fill="#e6e6e6" d="M128.647 438.571s8.74-18.345 16.509-11.896-10.65 60.696-10.65 60.696l-2.8 52.663-14.762-1.476-4.175-51.303Z" data-name="Path 2186"/><path fill="#ffb8b8" d="m11.395 709.98 10.958 8.87 39.43-38.05-16.173-13.09Z" data-name="Path 2187"/><path fill="#2f2e41" d="m11.494 704.139 21.581 17.467a17.695 17.695 0 0 1 2.62 24.886l-.362.446L0 718.34Z" data-name="Path 2188"/><path fill="#ffb8b8" d="M163.691 734.603h14.098l6.704-54.384h-20.805Z" data-name="Path 2189"/><path fill="#2f2e41" d="M160.093 730h27.767a17.695 17.695 0 0 1 17.695 17.694v.575h-45.46Z" data-name="Path 2190"/><path fill="#2f2e41" d="M188.43 479.66s26.45 32.196 20.7 64.4-10.35 56.352-10.35 56.352l-9.196 72.448s3.45 19.733-1.15 24.816c0 0 6.9 11.984-5.75 16.584s-19.48-1.586-19.48-1.586-9.275-13.36-3.525-16.806l2.423-142.193L69.979 674.01s-1.692 14.635-13.497 14.794L42.38 699.31l-16.1-9.202 8.05-10.35s-4.6-11.5 5.75-13.8l59.8-78.198 14.95-40.25s8.05-31.05 29.9-43.7v-13.46Z" data-name="Path 2191"/><path fill="#e6e6e6" d="M143.005 423.885a21.96 21.96 0 0 1 28.944-4.087l.956.638a84.765 84.765 0 0 1 19.843 40.855l4.306 23.545-54.05 11.708-12.671-43.7a24.69 24.69 0 0 1 12.67-28.958Z" data-name="Path 2192"/><path fill="#ffb8b8" d="M231.805 566.638a10.783 10.783 0 0 1-6.15-15.348l-15.593-19.082 9.285-12.303 21.64 27.257a10.842 10.842 0 0 1-9.182 19.476Z" data-name="Path 2193"/><path fill="#e6e6e6" d="M166.004 441.135s-3.45-23 8.05-21.85 28.75 64.4 28.75 64.4l31.05 51.75-14.95 8.05-36.8-46Z" data-name="Path 2194"/><path fill="#2f2e41" d="M187.064 407.51h-54.762a4.254 4.254 0 0 1-4.25-4.249v-23.604a31.63 31.63 0 1 1 63.26 0v23.604a4.254 4.254 0 0 1-4.248 4.249Z" data-name="Path 2195"/><circle cx="166.183" cy="383.771" r="23.19" fill="#ffb8b8" data-name="Ellipse 430"/><path fill="#2f2e41" d="M198.795 382.017h-29.184l-.3-4.807-1.496 4.807h-4.493l-.593-9.528-2.966 9.528h-8.695v-.472c0-13.796 9.783-25.02 21.81-25.02h4.115c12.024 0 21.81 11.224 21.81 25.02Z" data-name="Path 2196"/><path fill="#2f2e41" d="M170.82 411.916a7.018 7.018 0 0 1-1.066-.082l-34.737-5.35v-36.181a13.936 13.936 0 0 1 13.936-13.936h24.303l-.944.964c-13.171 13.407-3.248 35.154 3.84 46.925a4.638 4.638 0 0 1-.473 5.496 6.31 6.31 0 0 1-4.858 2.167Z" data-name="Path 2197"/></g></svg>