<svg data-name="Layer 1" viewBox="0 0 746 721.343" xmlns="http://www.w3.org/2000/svg"><path fill="#f1f1f1" d="M680.602 720.623v-72.34s28.192 51.286 0 72.34Z"/><path fill="#f1f1f1" d="m682.344 720.61-53.29-48.92s56.845 13.915 53.29 48.92Z"/><path fill="#fff" d="M494.388 319.19 211.602 484.466a4.326 4.326 0 0 1-5.91-1.55L23.841 171.779a4.326 4.326 0 0 1 1.55-5.911L308.177.59a4.326 4.326 0 0 1 5.912 1.55l181.849 311.138a4.326 4.326 0 0 1-1.55 5.911Z"/><path fill="#3f3d56" d="M494.388 319.19 211.602 484.466a4.326 4.326 0 0 1-5.91-1.55L23.841 171.779a4.326 4.326 0 0 1 1.55-5.911L308.177.59a4.326 4.326 0 0 1 5.912 1.55l181.849 311.138a4.326 4.326 0 0 1-1.55 5.911ZM26.264 167.36a2.596 2.596 0 0 0-.93 3.546l181.85 311.139a2.596 2.596 0 0 0 3.546.93l282.785-165.278a2.596 2.596 0 0 0 .93-3.547L312.597 3.012a2.596 2.596 0 0 0-3.546-.93Z"/><path fill="#f2f2f2" d="m208.04 198.345-70.137 40.992a4.326 4.326 0 0 1-5.911-1.55L91 167.65a4.326 4.326 0 0 1 1.55-5.911l70.136-40.992a4.326 4.326 0 0 1 5.912 1.55l40.992 70.137a4.326 4.326 0 0 1-1.55 5.91ZM93.422 163.23a2.596 2.596 0 0 0-.93 3.547l40.992 70.137a2.596 2.596 0 0 0 3.547.93l70.137-40.993a2.596 2.596 0 0 0 .93-3.546l-40.993-70.137a2.596 2.596 0 0 0-3.546-.93Z"/><path fill="#274b9f" d="m192.91 218.7-70.138 40.992a3.893 3.893 0 0 1-5.32-1.395L76.46 188.16a3.893 3.893 0 0 1 1.395-5.32l70.137-40.992a3.893 3.893 0 0 1 5.32 1.395l40.992 70.137a3.893 3.893 0 0 1-1.395 5.32Z"/><path fill="#ccc" d="m362.196 165.804-219.363 128.21a3.889 3.889 0 0 1-3.925-6.715l219.364-128.21a3.889 3.889 0 0 1 3.924 6.715Zm-39.456 54.093-166.39 97.248a3.889 3.889 0 0 1-3.924-6.716l166.388-97.248a3.889 3.889 0 1 1 3.924 6.716ZM311.736 81.18l-96.998 56.692a3.889 3.889 0 0 1-3.924-6.715l96.997-56.692a3.889 3.889 0 0 1 3.925 6.716Zm-10.689 37.28-72.79 42.542a3.889 3.889 0 0 1-3.925-6.715l72.79-42.543a3.889 3.889 0 0 1 3.925 6.715Zm88.187 93.604L169.87 340.274a3.889 3.889 0 0 1-3.925-6.715L385.31 205.35a3.889 3.889 0 0 1 3.925 6.715Zm-39.457 54.093-166.388 97.248a3.889 3.889 0 1 1-3.925-6.715l166.388-97.248a3.889 3.889 0 1 1 3.925 6.715Zm66.494-7.832-219.363 128.21a3.889 3.889 0 0 1-3.925-6.715l219.364-128.21a3.889 3.889 0 0 1 3.924 6.715Zm13.519 23.13-219.364 128.21a3.889 3.889 0 1 1-3.924-6.715l219.363-128.21a3.889 3.889 0 1 1 3.925 6.715Z"/><path fill="#274b9f" d="M358.852 371.498a84.703 84.703 0 0 0 8.202-11.47c2.161-3.65 4.282-7.55 4.759-11.83a11.683 11.683 0 0 0-3.499-9.985 8.222 8.222 0 0 0-9.646-1.097 9.809 9.809 0 0 0-4.923 8.76 12.959 12.959 0 0 0 5.536 9.814c6.484 4.698 16.61 4.452 23.52.877 7.785-4.026 11.806-14.561 5.691-21.773-1.272-1.5-3.389.177-3.07 1.795a8.72 8.72 0 0 0 17.279-2.136l-2.75 1.607a20.99 20.99 0 0 0 20.88-2.24 19.47 19.47 0 0 0 3.907-3.776c1.346-1.756 3.606-2.89 5.437-4.155l13.19-9.114c1.94-1.34.096-4.535-1.86-3.183l-11.947 8.254c-1.99 1.375-3.994 2.734-5.973 4.127-1.414.996-2.284 2.603-3.571 3.786a17.288 17.288 0 0 1-18.252 3.087 1.866 1.866 0 0 0-2.75 1.607 5.048 5.048 0 0 1-10.025 1.188l-3.07 1.794c3.945 4.652 1.318 11.787-3.227 14.909-5.083 3.49-12.593 4.097-18.323 1.927a10.81 10.81 0 0 1-6.365-5.84 6.443 6.443 0 0 1 1.462-7.373 4.623 4.623 0 0 1 6.427-.069 8.269 8.269 0 0 1 2.191 7.46c-.59 3.694-2.633 7.1-4.533 10.256a78.797 78.797 0 0 1-7.337 10.218c-1.522 1.8 1.103 4.394 2.64 2.575Z"/><path fill="#ffb7b7" d="M391.593 459.18a8.672 8.672 0 0 1 .872 1.05l40.848-1 4.766-8.707 14.081 5.474-6.938 16.236a6.591 6.591 0 0 1-6.851 3.953l-46.151-5.575a8.649 8.649 0 1 1-.627-11.432Zm133.16 248.076h-13.431l-6.39-51.807 19.823.001-.002 51.806z"/><path fill="#2f2e41" d="m528.178 720.276-43.308-.002v-.547a16.858 16.858 0 0 1 16.857-16.857l26.452.001Z"/><path fill="#ffb7b7" d="m402.792 706.958-12.351-5.277 14.475-50.152 18.229 7.788-20.353 47.641z"/><path fill="#2f2e41" d="m400.828 720.276-39.826-17.014.215-.504a16.858 16.858 0 0 1 22.123-8.88l.001.001 24.324 10.392Z"/><path fill="#ffb7b7" d="m459.468 470.402-.972 15.739 28.391 3.038 29.706 3.179-8.744-23.899-48.381 1.943z"/><path fill="#2f2e41" d="m457.602 486.343-11.029-76.887 19.117-6.265 5.614-7.7 27.323 1.616 4.012 8.986 14.569 6.884-2.239 41.582 1.633 34.784Z"/><path fill="#2f2e41" d="m450.66 465.739-19.444-7.78.083-.346c.083-.349 8.36-34.932 9.458-40.49 1.145-5.79 5.327-7.39 5.505-7.456l.13-.048 7.695 2.343 3.38 26.554Zm-37.864 232.114-25.884-5.31 41.37-114.154 14.158-38.936s8.98-31.219 13.038-43.3l2.448-16.21 57.962 6.415s16.189 23.775 11.27 62.526l2.225 145.65-25.884 1.328-21.68-146.896-38.051 80.527s-11.994 34.364-20.575 41.812Z"/><path fill="#ffb7b7" d="M492.644 491.765a8.673 8.673 0 0 1 1.364.075l27.04-30.634-3.145-9.415 13.588-6.604 7.188 16.126a6.591 6.591 0 0 1-1.759 7.713l-35.467 30.052a8.649 8.649 0 1 1-8.809-7.313Z"/><path fill="#2f2e41" d="m518.89 464.187-11.28-26.533 4.4-18.481 4.74-5.989a2.73 2.73 0 0 1 2.193.02c1.748.704 3.237 2.86 4.425 6.41l10.571 30.111Zm-58.523-78.528v-20.003a26.804 26.804 0 0 1 53.61 0v20.003a3.605 3.605 0 0 1-3.602 3.6h-46.407a3.605 3.605 0 0 1-3.6-3.6Z"/><circle cx="481.664" cy="369.142" r="19.652" fill="#ffb7b7"/><path fill="#2f2e41" d="M454.026 367.256a21.227 21.227 0 0 1 21.204-21.203h4a21.227 21.227 0 0 1 21.204 21.203v.4h-8.455l-2.884-8.075-.576 8.075h-4.37l-1.455-4.074-.29 4.074h-28.378Z"/><path fill="#2f2e41" d="M479.73 391.509a3.547 3.547 0 0 1-.282-3.766c4.24-8.064 10.175-22.964 2.296-32.153l-.566-.66h22.874v34.341l-20.78 3.666a3.678 3.678 0 0 1-.637.057 3.586 3.586 0 0 1-2.905-1.485Z"/><path fill="#9f616a" d="m212.904 695.94 12.138 4.338 22.509-44.755-17.915-6.402-16.732 46.819z"/><path fill="#2f2e41" d="m205.602 706.6 5.622-15.73 23.905 8.544a16.197 16.197 0 0 1 9.79 20.679l-.177.495Z"/><path fill="#9f616a" d="m291.836 707.946 12.89-.001 6.133-49.719-19.025.001.002 49.719z"/><path fill="#2f2e41" d="M288.548 703.737h25.386a16.178 16.178 0 0 1 16.178 16.177v.526l-41.563.001Z"/><path fill="#f1f1f1" d="m262.459 390.3 5.606-11.077s20.884 5.232 22.782 17.336Z"/><path fill="#2f2e41" d="m239.328 516.96 15.245 85.074-40.48 71.588 24.183 9.463 41.006-69.394 5.257-18.926 3.154 98.834 21.81-.662 9.999-92.287-16.038-85.793-64.136 2.103z"/><path fill="#3f3d56" d="M268.267 537.071c-22.396 0-36.616-4.283-36.935-4.351l-.515-.11 11.665-54.086.526-49.89c0-21.14 13.914-36.727 15.845-38.166a9.096 9.096 0 0 1 4.837-5.945c4.642-2.106 10.313.421 10.552.53l17.023 6.383.08.236c.205.605 22.628 74.214 22.628 74.214s-1.358 64.315-1.83 66.422c0 0-31.432 4.763-43.876 4.763Z"/><circle cx="285.477" cy="352.727" r="23.008" fill="#9f616a"/><path d="m259.823 432.715 40.253 56.162 5.944-26.227-46.197-29.935z" opacity=".2"/><path fill="#9f616a" d="M386.024 470.928a9.874 9.874 0 0 1-14.825-3.073l-34.647 5.546 7.506-16.617 31.75-2.719a9.927 9.927 0 0 1 10.216 16.863Z"/><path fill="#f1f1f1" d="m345.842 455.838 12.449-1.221 3.45 17.366-15.665.277-.234-16.422z"/><path fill="#3f3d56" d="m356.047 478.034-60.97-5.429-30.786-48.96-.094-.433a16.855 16.855 0 0 1 31.466-11.286l18.072 35.25 36.473 5.514Z"/><path fill="#2f2e41" d="m265.879 372.703 19.097.686c1.164.042 4.323-12.521 4.737-15.127a7.113 7.113 0 0 1 7.42-5.754c1.429.135 5.034-2.536 8.753-5.698 7.062-6.004 6.695-17.28-1.063-22.354q-.318-.208-.624-.38c-4.894-2.739-10.619-3.658-16.227-3.729-5.083-.063-10.311.577-14.79 2.983-8.03 4.314-12.302 13.74-12.678 22.848s2.545 18.012 5.858 26.503"/><path fill="#cbcbcb" d="M744.602 721.343H1a1 1 0 0 1 0-2h744a1 1 0 0 1 1 1c0 .552-.845 1-1.398 1Z"/></svg>