<svg data-name="Layer 1" viewBox="0 0 909.754 730.11" xmlns="http://www.w3.org/2000/svg"><path fill="#f2f2f2" d="M379.754 189.776C379.698 84.91 294.642-.056 189.776 0 84.91.056-.056 85.112 0 189.978a189.876 189.876 0 0 0 15.29 74.55c-.185-.206-.377-.407-.562-.615a190.043 190.043 0 0 0 34.582 53.514c.044.047.088.093.131.141a190.933 190.933 0 0 0 3.54 3.775 189.3 189.3 0 0 0 133.923 58.272l-6.417 348.493h19.823l-4.012-230.01 28.674-15.096-4.375-8.308-24.483 12.89-1.883-107.986a189.874 189.874 0 0 0 185.523-189.822Z"/><path fill="#fff" d="M543.939 495.019h363.674V310.91H543.94Z"/><path fill="#3f3d56" d="M909.754 497.159H541.799v-188.39h367.955Zm-365.815-2.14h363.674V310.91H543.94Z"/><path fill="#274b9f" d="M609.233 372.864h37.047v3.087h-37.047zm49.396 0h37.047v3.087h-37.047zm71.778 28.557h37.047v3.087h-37.047zm50.167 0h37.047v3.087h-37.047zm-71.778-28.557h108.825v3.087H708.796zm-99.563 28.557h108.825v3.087H609.233zm0 28.557h108.825v3.087H609.233zm132.751 0h75.637v3.087h-75.637zm-143.163-44.081-13.034-13.033 13.034-13.034 2.607 2.608-10.426 10.426 10.426 10.425-2.607 2.608zm253.911 60.201-2.608-2.607 10.426-10.427-10.426-10.426 2.608-2.607 13.033 13.033-13.033 13.034zm-21.44-1.22 7.719-25.469 3.53 1.07-7.72 25.469z"/><path fill="#ccc" d="M526.317 730.11h-381a1 1 0 0 1 0-2h381a1 1 0 0 1 0 2Z"/><path fill="#ffb8b8" d="m392.222 717.182 12.74-.001 6.06-49.138-18.802.001.002 49.138z"/><path fill="#2f2e41" d="m388.973 713.023 25.088-.001h.001a15.99 15.99 0 0 1 15.989 15.988v.52l-41.078.001Z"/><path fill="#ffb8b8" d="m303.001 708.456 12.367 3.061 17.689-46.243-18.252-4.517-11.804 47.699z"/><path fill="#2f2e41" d="m300.846 703.638 24.354 6.027h.001a15.99 15.99 0 0 1 11.679 19.362l-.125.504-39.874-9.868Zm49.282-194.937-11.202 63.766s-4.308 7.755-2.585 11.202 2.585 3.447 0 5.17-6.032 0-5.17 4.308a43.984 43.984 0 0 1 .862 7.756l-24.128 82.723s-15.51 6.893-4.308 11.202 22.404 7.755 24.989 3.446 0-9.478 0-9.478l39.638-94.787s6.032-8.617 6.032-13.787S394.075 538 394.075 538s.861 37.053 1.723 39.638-1.723 7.755-1.723 11.202-1.724 3.447 0 5.17 1.723 21.543 1.723 21.543-10.34 76.69-4.308 77.552 23.265-.862 23.265-4.308a4.3 4.3 0 0 0-2.585-4.309l11.202-65.489s-.861-4.308.862-7.755 1.723-3.447 1.723-5.17-.861-2.585 0-3.447a4.255 4.255 0 0 0 .862-2.585s-1.723-5.17-.862-6.032 19.82-65.489 13.788-73.244-89.617-12.064-89.617-12.064Z"/><circle cx="388.667" cy="348.694" r="22.404" fill="#ffb8b8"/><path fill="#2f2e41" d="M372.838 364.918c1.152-.772 1.196-2.54.81-3.974s-1.088-2.845-1.028-4.304c.165-3.998 5.671-5.601 5.986-9.58.193-2.446-1.705-5.152-.61-7.27.692-1.338 2.301-1.784 3.767-2.04a46.796 46.796 0 0 1 17.164.23l.826-2.169 4.193 2.767c.23-1.346 2.092-1.48 3.31-.835s2.27 1.762 3.6 1.977c2.116.343 3.79-1.95 3.678-4.156s-1.458-4.205-2.867-5.948a47.165 47.165 0 0 0-12.633-10.936l1.164-2.096-2.492 1-.274-2.507-2.428 1.364-.034-2.258c-2.6 2.984-7.126 2.881-11.1 3.15a31.952 31.952 0 0 0-18.254 6.788 24.272 24.272 0 0 0-8.884 17.446c-.226 5.27 1.591 11.686 5.483 15.595 3.537 3.552 8.779 1.396 10.623 7.756Z"/><path fill="#ffb8b8" d="M443.64 566.065a10.668 10.668 0 0 1 .92-16.332l-5.975-23.635 13.477-7.134 7.97 33.495a10.726 10.726 0 0 1-16.391 13.606Z"/><path fill="#274b9f" d="M407.621 535.478c-27.233.002-52.301-12.324-52.64-12.493l-.28-.14-2.286-54.846c-.663-1.939-13.713-40.182-15.923-52.338-2.239-12.315 30.215-23.124 34.156-24.388l.895-9.907 36.369-3.92 4.61 12.678 13.047 4.892a6.454 6.454 0 0 1 4 7.582l-7.252 29.49 14.265 97.567-.367.165a69.242 69.242 0 0 1-28.594 5.658Z"/><path fill="#274b9f" d="m440.135 541.6-12.621-51.959-13.68-62.7 6.944-31.25h5.937c.109 0 10.897.162 13.22 14.098 2.25 13.499 9.034 56.457 9.102 56.89l11.466 73.383Z"/><path fill="#ffb8b8" d="M386.129 532.82a10.668 10.668 0 0 0-13.025-9.898l-14.108-19.881-14.173 5.626 20.318 27.797a10.726 10.726 0 0 0 20.988-3.645Z"/><path fill="#274b9f" d="m358.633 531.346-42.687-55.379 15.994-50.269c1.172-12.638 9.08-16.167 9.417-16.311l.514-.22 13.918 37.116-10.22 27.252 25.084 42.186Z"/></svg>