<svg data-name="Layer 1" viewBox="0 0 843.317 590.961" xmlns="http://www.w3.org/2000/svg"><path fill="#f0f0f0" d="M46.5 509.256c3.318-26.678 19.852-52.964 45.295-61.646a123.86 123.86 0 0 0 .006 85.04c3.91 10.576 9.359 21.931 5.681 32.59-2.288 6.631-7.885 11.705-14.142 14.878s-13.202 4.685-20.059 6.167l-1.35 1.116c-10.886-24.581-18.748-51.467-15.43-78.145Z"/><path fill="#fff" d="M92.047 448.115a105.87 105.87 0 0 0-26.319 59.583 45.6 45.6 0 0 0 .519 14.275 26.15 26.15 0 0 0 6.503 12.128c2.931 3.221 6.303 6.176 8.4 10.053a16 16 0 0 1 .782 13.07c-1.852 5.312-5.501 9.64-9.217 13.75-4.127 4.563-8.485 9.236-10.238 15.285-.213.733-1.338.36-1.126-.371 3.052-10.524 13.268-16.502 18.14-25.98 2.273-4.424 3.228-9.559 1.096-14.228-1.863-4.083-5.337-7.133-8.333-10.368a27.9 27.9 0 0 1-6.801-11.622 42.2 42.2 0 0 1-1.066-14.202 102.7 102.7 0 0 1 7.502-31.214 107.8 107.8 0 0 1 19.374-31.048c.507-.567 1.287.325.784.889"/><path fill="#fff" d="M66.047 500.528a15.884 15.884 0 0 1-12.09-16.64c.06-.76 1.243-.701 1.183.06a14.71 14.71 0 0 0 11.278 15.455c.742.176.366 1.3-.371 1.125m5.002 32.136a30.62 30.62 0 0 0 13.671-17.632c.215-.732 1.34-.36 1.125.372a31.84 31.84 0 0 1-14.263 18.318c-.657.39-1.187-.67-.533-1.058m6.579-64.646a8.99 8.99 0 0 0 8.52-.432c.653-.398 1.181.663.534 1.058a10.07 10.07 0 0 1-9.425.5.61.61 0 0 1-.377-.749.595.595 0 0 1 .748-.377"/><path fill="#f0f0f0" d="M169.348 495.26c-.4.26-.8.52-1.2.79a118.4 118.4 0 0 0-15.14 11.82c-.37.33-.74.67-1.1 1.01a124.8 124.8 0 0 0-27.11 37.11 121 121 0 0 0-6.64 17.18c-2.45 8.13-4.46 17.14-9.31 23.79a21 21 0 0 1-1.62 2h-43.83c-.1-.05-.2-.09-.3-.14l-1.75.08c.07-.31.15-.63.22-.94.04-.18.09-.36.13-.54.03-.12.06-.24.08-.35.01-.04.02-.08.03-.11.02-.11.05-.21.07-.31q.66-2.685 1.36-5.37c0-.01 0-.01.01-.02 3.59-13.63 8.35-27.08 15-39.38.2-.37.4-.75.62-1.12A115.7 115.7 0 0 1 89.258 525a102 102 0 0 1 6.81-7.79 85 85 0 0 1 21.28-15.94c15.72-8.3 33.92-11.48 50.72-6.41.43.13.85.26 1.28.4"/><path fill="#fff" d="M169.25 495.817a105.87 105.87 0 0 0-56.888 31.728 45.6 45.6 0 0 0-8.18 11.71 26.15 26.15 0 0 0-2.11 13.6c.401 4.336 1.314 8.725.654 13.083a16 16 0 0 1-7.244 10.907c-4.677 3.126-10.197 4.385-15.638 5.429-6.042 1.158-12.335 2.266-17.378 6.04-.61.457-1.284-.517-.674-.974 8.772-6.565 20.528-5.188 30.125-9.823 4.478-2.163 8.332-5.688 9.441-10.699.97-4.382.033-8.909-.411-13.296a27.9 27.9 0 0 1 1.567-13.374 42.2 42.2 0 0 1 7.7-11.981 102.7 102.7 0 0 1 24.782-20.406 107.8 107.8 0 0 1 34.162-13.126c.746-.148.833 1.035.091 1.182Z"/><path fill="#fff" d="M116.933 522.012a15.884 15.884 0 0 1 .364-20.565c.506-.57 1.416.189.91.76a14.71 14.71 0 0 0-.3 19.13c.487.588-.49 1.259-.974.675m-15.354 28.671a30.62 30.62 0 0 0 21.531-5.847c.613-.456 1.287.519.675.974a31.84 31.84 0 0 1-22.418 6.038c-.76-.084-.543-1.25.212-1.166Zm44.175-47.655a8.99 8.99 0 0 0 7.063 4.784c.76.075.543 1.24-.212 1.166a10.07 10.07 0 0 1-7.825-5.276.61.61 0 0 1 .15-.824.595.595 0 0 1 .824.15"/><path fill="#e4e4e4" d="M812.114 307.961h-141v-2h139v-93h2zm-457 39h-2v-95h141v2h-139zm206-212h-141v-95h2v93h139z"/><path fill="#3f3d56" d="M392.057 0a2.855 2.855 0 0 0 0 5.71h57.919a2.855 2.855 0 0 0 0-5.71Z" data-name="Path 680"/><path fill="#3f3d56" d="M392.057 16.822a2.855 2.855 0 0 0 0 5.71h57.919a2.855 2.855 0 0 0 0-5.71Z" data-name="Path 681"/><path fill="#2f2e41" d="M840.462 200.174a2.855 2.855 0 0 0 0-5.71h-57.925a2.855 2.855 0 1 0 0 5.71Z" data-name="Path 683"/><path fill="#2f2e41" d="M840.462 183.35a2.855 2.855 0 0 0 0-5.71h-57.925a2.855 2.855 0 1 0 0 5.71Z" data-name="Path 684"/><path fill="#e4e4e4" d="M595.114 335.96a107 107 0 1 1 107-107 107.12 107.12 0 0 1-107 107m0-212a105 105 0 1 0 105 105 105.12 105.12 0 0 0-105-105"/><circle cx="552.114" cy="134.961" r="12" fill="#274b9f"/><circle cx="491.114" cy="253.961" r="12" fill="#274b9f"/><circle cx="667.114" cy="307.961" r="12" fill="#274b9f"/><path fill="#2f2e41" d="M324.767 359.747a2.855 2.855 0 1 0 0 5.71h57.924a2.855 2.855 0 0 0 0-5.71Z" data-name="Path 683"/><path fill="#2f2e41" d="M324.767 376.57a2.855 2.855 0 1 0 0 5.711h57.924a2.855 2.855 0 0 0 0-5.71Z" data-name="Path 684"/><path fill="#274b9f" d="M181.891 590.393h-14.555a6.91 6.91 0 0 1-6.903-6.903V462.182a6.91 6.91 0 0 1 6.903-6.903h14.555a6.91 6.91 0 0 1 6.903 6.903V583.49a6.91 6.91 0 0 1-6.903 6.903m38.649 0h-14.555a6.91 6.91 0 0 1-6.903-6.903V462.182a6.91 6.91 0 0 1 6.903-6.903h14.555a6.91 6.91 0 0 1 6.903 6.903V583.49a6.91 6.91 0 0 1-6.903 6.903"/><circle cx="195.359" cy="278.881" r="50.293" fill="#274b9f"/><path fill="#2f2e41" d="M212.43 498.295h-36.18a42.677 42.677 0 0 1-37.04-64.154l50.598-87.638a6.41 6.41 0 0 1 11.102 0l49.58 85.873a43.946 43.946 0 0 1-38.06 65.919m-5.2-198.302c3.26-.09 7.317-.204 10.443-2.487a8.02 8.02 0 0 0 3.156-5.989 5.4 5.4 0 0 0-1.835-4.43c-1.633-1.38-4.017-1.704-6.586-.949l2.662-19.452-1.954-.267-3.13 22.868 1.633-.749c1.891-.867 4.488-1.309 6.102.055a3.47 3.47 0 0 1 1.137 2.855 6.06 6.06 0 0 1-2.349 4.465c-2.432 1.777-5.666 2.006-9.334 2.109Zm17.503-31.629h10.622v1.972h-10.622zm-33.528 0h10.622v1.972h-10.622z"/><path fill="#274b9f" d="M183.53 487.047a6.8 6.8 0 0 1-.662-2.812L180.39 393.9a14.18 14.18 0 0 1 28.354-.617l2.479 90.337a6.91 6.91 0 0 1-6.751 7.052l-14.551.316a6.92 6.92 0 0 1-6.39-3.94Z"/><path fill="#2f2e41" d="M190.693 241.704c6.11 7.991 15.81 13.352 26.063 12.082 9.763-1.208 17.817-8.013 19.838-17.755a29.26 29.26 0 0 0-7.689-25.828c-6.91-7.268-16.8-11.177-26.589-12.518-18.544-2.54-37.588 3.992-51.61 16.175a63.2 63.2 0 0 0-16.46 22.065 61.85 61.85 0 0 0-5.104 26.702c.54 18.12 8.476 36.205 22.171 48.222a63 63 0 0 0 5.333 4.177c1.562 1.096 3.042-1.468 1.494-2.554-14.025-9.839-22.971-25.848-25.426-42.669a59.1 59.1 0 0 1 13.858-47.669c11.325-12.877 27.93-21.246 45.128-21.996 17.305-.755 38.931 6.971 42.17 26.235 1.451 8.635-1.776 17.71-9.688 22.033-8.472 4.628-18.86 2.724-26.14-3.254a30 30 0 0 1-4.795-4.941c-1.14-1.492-3.711-.02-2.554 1.493"/><path fill="#3f3d56" d="M382 590.96H1a1 1 0 1 1 0-2h381a1 1 0 0 1 0 2"/></svg>