<svg fill="none" viewBox="0 0 500 327" xmlns="http://www.w3.org/2000/svg"><path stroke="#878787" stroke-width="1.5" d="M426-1c-54.422 111.384-81.374 184.797-123.5 336.5M160-1c10.811 26.863-50.131 113.243-167.5 276.5m4.991 28.001 155-219.5c12.487-18.369 20.773-25.928 44-21.5 49.275 9.994 76.436 15.902 121.5 28.5 27.314 6.94 30.814 15.352 22.5 36.5l-69.5 211"/><path stroke="#878787" stroke-width="1.5" d="M293 264.5c-1.635-3.182-147.39-46.318-221-64.5m40.77-3.124a.681.681 0 0 0-.155.086c-.032.152-.013.396.261.789.307.443.89 1 1.875 1.676 1.962 1.348 5.326 3.043 10.644 5.191 10.619 4.29 28.852 10.322 58.78 18.98 28.262 8.176 46.901 12.812 58.589 14.975 5.851 1.083 9.922 1.538 12.573 1.519 1.331-.01 2.25-.14 2.841-.34.529-.178.679-.368.725-.471a.71.71 0 0 0-.085-.154c-.13-.192-.379-.452-.787-.777-.809-.644-2.095-1.429-3.843-2.336-3.485-1.807-8.668-4.032-15.18-6.526-13.015-4.986-31.259-11.019-51.643-16.916s-39.031-10.536-52.698-13.27c-6.837-1.368-12.408-2.254-16.319-2.587-1.962-.166-3.469-.189-4.497-.076-.518.057-.868.144-1.081.237Zm146.139 42.427-.001-.004.001.004Zm-146.306-42.33-.003.003.003-.003Z"/><path stroke="#FFD60A" stroke-width="3" d="M287.853 110.882a2.5 2.5 0 0 0-1.673-3.305l-81.237-22.29a2.5 2.5 0 0 0-2.861 1.222l-21.212 39.213a2.5 2.5 0 0 0 1.535 3.599l86.83 23.904a2.499 2.499 0 0 0 2.998-1.517l15.62-40.826Zm-21.552 54.129a2.5 2.5 0 0 0-1.646-3.338l-87.632-24.56a2.498 2.498 0 0 0-2.88 1.229l-20.043 37.54a2.5 2.5 0 0 0 1.495 3.574l91.568 27.156a2.5 2.5 0 0 0 3.031-1.466l16.107-40.135Z"/></svg>