<svg fill="none" viewBox="0 0 500 376" xmlns="http://www.w3.org/2000/svg"><mask id="a" width="458" height="344" x="20" y="16" maskUnits="userSpaceOnUse" style="mask-type:luminance"><path fill="#fff" d="M477.574 16.926H20.819v342.189h456.755V16.926Z"/></mask><g mask="url(#a)"><mask id="b" width="475" height="361" x="12" y="16" maskUnits="userSpaceOnUse" style="mask-type:luminance"><path fill="#fff" d="M486.88 16.926H12.215v359.136H486.88V16.926Z"/></mask><g stroke="#fff" stroke-miterlimit="10" mask="url(#b)"><path stroke-width="1.546" d="M82.407 17.191s21.959 59.435-.201 63.042c0 0-65.963 2.304-69.313-3.746"/><path stroke-width="1.546" d="M48.923 17.191s4.937 51.704-2.793 55.827c0 0-13.4 7.215-33.24 0m118.274 9.792s19.583 13.398 20.099-11.338c0 0 6.699-47.138-10.05-49.333 0 0-20.871-5.808-29.116 5.014 0 0-21.645 39.51-10.554 53.513"/><path stroke-width="1.546" d="M141.211 22.14s13.512.377 16.419 18.671c0 0 10.492 39.97 0 45.623h-13.914M82.205 80.23s70.086 54.627 66.994 79.878c0 0 73.694 50.504 72.148 86.577 0 0-4.123 43.804-17.521 76.271M12.891 91.559s91.473 92.761 96.627 131.411"/><path stroke-width="1.546" d="M12.89 162.289s238.877 123.903 190.677 213.403"/><path stroke-width="1.546" d="M203.87 322.756s63.856-71.947 158.164-44.634l8.76-.515s46.268 24.561 45.551 98.084M225.027 201.593s-22.231-34.785-66.551-64.16c0 0-37.145-22.773-43.051-28.132"/><path stroke-width="1.546" d="M174.361 148.862s4.164-13.501-22.613-41.067l-24.736-29.622s-19.439-5.153-24.149 0c0 0-3.839 1.386.881 20.274m125.633 103.146c19.882-28.086-39.465-67.252-39.465-67.252 3.092-19.068-34.744-47.927-34.744-47.927"/><path stroke-width="1.546" d="M197.519 201.595s107.572-3.865 97.662 21.387c0 0 2.953 7.215-9.415 16.491l-65.912-3.479m266.464 15.59s-18.124-19.325-23.793-20.356c0 0-23.19-5.153-37.62-18.552"/><path stroke-width="1.546" d="M382.998 228.839c-19.814-9.497-19.27-51.84 1.215-94.575 20.484-42.736 53.152-69.68 72.966-60.183 19.814 9.497 19.27 51.84-1.215 94.576-20.484 42.735-53.152 69.68-72.966 60.182Z"/><path stroke-width="1.546" d="M381.944 218.918c-12.106-5.803-7.505-40.58 10.276-77.677 17.782-37.097 42.011-62.465 54.117-56.662 12.107 5.803 7.506 40.58-10.276 77.676-17.782 37.097-42.011 62.466-54.117 56.663Z"/><path stroke-width=".515" d="M399.136 161.553c-2.284-1.095-1.822-6.81 1.032-12.764s7.02-9.894 9.303-8.799c2.285 1.095 1.823 6.81-1.031 12.764-2.855 5.954-7.02 9.894-9.304 8.799Z"/><path stroke-width=".515" d="m436.244 129.707 3.092 7.215s-11.853 29.374-26.798 44.319c0 0-11.641 11.337-17.934 0 0 0-14.944-30.617 22.366-55.76 0 0 8.9-2.01 30.065 9.353m-20.578 45.389-15.98 7.199-28.86 29.89"/><path stroke-width=".515" d="m383.351 162.559 10.172 15.846-17.887 29.344m24.276-66.258-7.673-.237m75.621-55.262s-10.766-8.395-15.78 6.833m-39.932.003s-2.71 8.421 2.706 11.57m-79.388-87.207 81.321 71.066m69.531-4.573s-17.006 1.407-17.82 3.875m-78.637 18.442s-4.169-8.554-19.608-22.314c0 0-77.523-82.733-172.737-55.46 0 0-11.462 2.488 0 22.607l25.767 58.471s161.425.304 166.578-3.304Z"/><path stroke-width=".515" d="M191.11 22.71s-13.518 2.382-4.783 18.1l31.307 68.499s4.742 6.998 12.472 37.403l11.007 55.466M189.91 134.34s-3.221 24.819 2.51 29.931m-23.894-35.341s8.585-7.973-15.93-42.516m-62.554.02s37.903 62.871 16.95 73.693l-24.531 11.647m66.737-11.665s-4.566 37.249 3.386 51.607c0 0 38.228 66.813 39.836 90.313"/><path stroke-width=".515" d="M106.991 160.109s65.175 100.193 67.603 119.41m187.441-1.397s-34.012-2.061-27.828 11.337c0 0 38.893 78.157 33.873 86.232"/><path stroke-width=".515" d="M335.355 282.503s-2.695-2.329-14.032 2.309c0 0-113.416 48.957-114.921 44.571m130.743-33.926s-120.224 45.685-128.057 44.582m142.738-13.191s-132.329 45.35-142.749 36.182"/><path stroke-width="1.546" d="M274.426 206.492s25.221 3.984 40.465 1.258c1.278-.227 17.769-1.773 24.468 14.718"/><path stroke-width=".515" d="M295.18 222.985s-3.541 2.577-14.724 0c0 0-65.314-9.08-70.457-6.086m235.118 8.402s-45.721 32.513-60.537 34.682c0 0-26.133 9.199-88.757-5.669"/><path stroke-width=".515" d="M335.355 272.81s-29.152-5.236-32.93-10.013c0 0-12.93-20.232-25.875-23.324m209.768 55.984L399.911 305.8m86.407-146.405-21.932-11.43m.004 2.828s4.32 3.649 1.227 9.833c0 0-5.669 21.129-17.006 32.981 0 0-5.293 6.185-10.894 5.154m-89.973 33.362 8.879-6.823s5.153-13.399-7.344-10.714c0 0-10.446.361-9.93 9.524l-1.088 15.346h4.834l4.649-7.333Z"/><path stroke-width=".515" d="m349.981 230.408 9.993 8.034s3.607 7.73-7.215 6.699c0 0-49.473-.515-52.565-3.092 0 0-9.791-9.791-1.546-12.883l40.423-.959"/><path stroke-width=".515" d="M376.807 224.129s-9.962 12.147-21.387 10.652"/></g></g></svg>