<svg fill="none" viewBox="0 0 1008 756" xmlns="http://www.w3.org/2000/svg"><g stroke="#fff" stroke-linecap="round" stroke-linejoin="round" stroke-miterlimit="10" stroke-width="1.5" clip-path="url(#all-6f747948_svg__a)"><path d="M158 328.426c56.709-75.342 172.654-192.007 300.501-247.207C586.348 26.02 758.137-10.319 850-33.368M158 423.875c19.376 15.262 75.151 88.285 91.206 94.688 16.054 6.402 28.095 5.606 42.523 1.592-1.211 12.424-14.048 46.133-17.646 59.388-3.598 13.254-39.063 223.118-49.201 259.422"/><path d="M285.674 543.827c16.504 6.022 49.789 28.517 51.415 63.021 1.627 34.505-14.428 179.375-20.068 232.152"/><path d="M273.253 583.176c14.843 25.299 36.987 57 38.164 83.06C312.593 692.331 284.498 793.04 270.45 839M158 647.375c18.58-30.906 34.012-48.521 37.852-51.048 3.841-2.526 9.066-1.938 13.529 7.13 4.429 9.067 29.341 59.11 31.278 64.89 1.938 5.78 3.287 15.851 1.142 25.126s-10.034 66.62-11.003 71.639c-.968 5.018-7.196 19.103-13.182 22.806"/><path d="M163.259 638.861c9.169 10.244 53.872 98.253 55.118 106.212 1.246 7.96.761 55.235-5.225 62.191-5.985 6.957-13.909 16.405-19.133 12.182-5.225-4.222-25.016-66.136-36.019-95.241m0-138.329c9.584-14.812 49.859-68.351 52.108-72.574 2.249-4.222 1.591-6.783-4.533-7.163-15.881-.935-33.008-7.303-47.575-38.346"/><path d="M210.315 507.454c8.339 13.739 18.961 24.225 33.355 25.748 14.393 1.523 31.936-4.672 42.004-11.524m51.347 99.187L850 666.478M158 377.5c9.896-38.796 66.363-96.937 109.509-137.187 43.146-40.249 145.251-113.722 216.215-141.962C554.689 70.11 703.331 30.69 850-1.286"/><path d="M821.524 5.012c-5.847 76-81.898 329.401-89.406 355.703-1.868 35.716-15.12 92.404-29.099 127.946-13.978 35.543-40.343 112.027-40.343 136.495 0 6.887 5.605 10.036 15.604 10.452 10 .45 119.889 6.229 171.686 9.794M227.615 347.218c22.836-30.94 101.759-109.327 168.121-148.435 66.363-39.107 214.797-85.932 266.939-91.4 52.143-5.468 59.409 15.92 51.243 54.093-8.166 38.207-44.53 153.21-59.547 202.769-15.016 49.559-58.197 135.491-66.812 147.777-8.65 12.286-15.466 21.872-61.346 21.388-45.88-.485-146.427.173-160.371-4.845-13.944-5.019-27.161-30.525-34.496-37.862-7.335-7.337-15.639-20.28-37.645-20.038-18.822-28.448-62.626-90.327-66.051-96.418-3.46-6.057-6.643-18.066-.035-27.029Z"/><path d="M211.319 386.29c15.708 24.468 83.835 128.535 94.838 144.04 12.871 18.134 37.472 30.732 67.332 32.22 29.86 1.488 140.787 8.479 157.776 7.891 16.988-.589 63.214-3.219 79.026-39.8 15.812-36.581 56.502-146.081 69.961-179.166 13.46-33.086 54.599-160.167 61.761-193.529 12.283-57.381-11.418-96.038-80.791-81.987-69.373 14.051-193.864 46.998-283.062 107.043-89.199 60.045-155.735 136.841-166.841 151.93-11.142 15.054-10.173 35.543 0 51.358Zm125.148 214.675 326.209 24.191"/><path d="M290.38 465.751c11.072-6.333 25.327-21.492 30.205-43.676 2.042-9.309-9.307-19.138-10.241-22.01-.969-2.873 4.913-5.745-2.734-10.383-7.646-4.637-42.142-14.224-79.96-15.366"/><path d="M223.774 359.538c28.961 2.734 73.145 9.172 99.129 26.13 6.298 4.118 2.595 11.628-3.979 12.458 12.456 13.671 9.723 22.738 8.477 27.895-3.148 13.012-12.456 32.289-35.119 42.568m98.507-206.784c-4.913 6.195-11.591 32.739 8.131 63.887 19.722 31.182 33.7 44.471 61.276 38.103 8.996-2.076 13.84-26.856 11.764-36.2-2.076-9.344-8.304-28.759-23.528-47.794-15.224-19.034-29.098-24.053-37.748-25.472-8.65-1.418-15.916 2.458-19.895 7.476Z"/><path d="M437.153 347.945c-.9-1.315-1.661-2.665-2.353-3.98-3.01-5.884-7.889-10.66-13.909-12.425-6.02-1.765-11.245-8.963-19.03-31.112-7.785-22.15-3.633-31.355 4.325-34.297 1.453-.415 5.017 3.357 7.854 4.395 2.837 1.004 6.021-.415 8.546 1.211 2.526 1.627 7.958 5.815 8.962 7.649 1.003 1.834.311 4.257-.727 5.156m6.332 63.403c4.463-.485 9.169-.104 12.387.45 4.74.83 7.854 5.433 3.564 6.367-7.924 1.696-12.768-2.214-15.951-6.817Z"/><path d="M399.474 292.641c12.11-5.122 22.836-11.352 32.697-7.683 9.861 3.668 21.106 22.218 22.317 29.14 1.211 6.921.207 15.712-4.498 17.719-4.671 2.042-14.775-3.876-19.757-7.233-4.982-3.357-15.155-7.371-21.175-6.368"/><path d="M453.519 327.872c1.66 1.973 3.736 3.322 5.086 4.084 2.214-1.281 1.695-6.957.899-10.175-1.003-3.945-4.532-15.055-8.477-20.038-1.557-1.938-2.179 0-2.179 0m1.868 29.728c-.069 1.8-1.073 4.741 1.315 6.61 2.422 1.869 3.771 2.25 5.536 2.838 1.038-1.28 2.041-5.018 2.18-5.814.138-.796-5.363-4.291-6.851-6.022"/><path d="M454.972 339.95c.934-1.177 1.937-2.769.795-3.426-1.141-.623-3.563-1.696-5.293-2.146m-3.183-35.023c1.349-4.811 1.453-10.556-1.903-13.394-3.356-2.837-7.335-3.668-9.446-3.564-2.111.104-2.214 3.287-2.214 3.287m5.259 44.022c-1.938 2.077-4.81 8.445-9.55 6.922M323.215 438.03c8.2-10.763 30.517-45.683 35.015-54.854 23.32-7.026 45.983-15.055 61.484-30.04m-32.178-53.781c-5.397 1.73-12.56 11.109-18.199 25.575-2.007 5.191-4.256 11.006-4.152 16.854.484.589 4.394 2.008 4.394 2.008"/><path d="M374.838 347.46a5.605 5.605 0 0 0 5.605-5.606 5.605 5.605 0 1 0-11.21 0 5.605 5.605 0 0 0 5.605 5.606Zm15.951-1.8c-1.903 2.077 3.875 11.94 11.798 16.024 2.353 1.211 4.706-2.042 3.91-4.88-.83-2.838-8.235-10.97-9.757-12.528-1.557-1.557-4.325-.415-5.951 1.384Zm-1.626-40.491c-4.152 2.492-5.225 8.34-1.627 15.989 3.599 7.648 16.159 27.513 27.992 35.75"/><path d="M377.883 346.56c4.256 1.765 9.792 3.773 14.601 5.538m-27.299-10.279c-.104 2.907.346 5.676-2.699 10.279-3.045 4.602-32.455 44.713-41.624 45.579M441.72 272.222c2.387-2.596 2.975-7.337 3.287-12.805.311-5.468-1.696-11.006 1.591-13.393 3.287-2.388 8.858-3.392 10.588-7.476 1.73-4.084 2.699-9.379 1.488-11.801-1.211-2.423-8.131-8.895-9.55-9.621-1.418-.727-18.684-3.184-24.67-3.184-5.985 0-12.456 3.149-19.652 3.391-7.197.243-24.809.07-24.809.07-7.681 2.491-18.753 6.402-29.167 12.009m29.133-12.009c.484-2.008 6.263-4.015 9.273-5.295 3.045-1.281 14.393-14.224 18.995-20.281m16.228 22.08c.103-3.322 6.989-11.49 12.905-17.512 5.917-6.021 27.473-25.298 39.064-34.954"/><path d="M443.865 190.166c-.657 4.257.554 18.654 1.108 26.06m4.152.9c5.778-2.042 24.808-4.465 41.831-7.233 17.023-2.769 77.954-13.186 99.51-17.166 5.224-15.539 22.005-63.541 21.279-75.1"/><path d="M590.431 192.727c1.592 2.665.173 6.679-.9 10.452-1.072 3.807-9.03 42.637-10.864 50.147m4.844-6.022c2.664-17.062 12.283-56.757 15.258-66.517 6.021-19.727 19.1-51.324 16.47-64.025M468.328 407.99c-11.453 2.042-48.613 4.949-59.374 4.222-17.265-1.142-44.842-4.188-50.758-29.071m-10.657 37.377c-3.149 3.253-8.408 10.417-10.38 14.224a2.674 2.674 0 0 0 .173 2.734c2.457 3.53 7.024 6.472 12.11 8.41a2.63 2.63 0 0 0 3.01-.796c2.803-3.461 6.886-9.171 9.515-13.636.415-.727.45-1.592.139-2.388-1.488-3.426-5.502-8.479-12.353-9.344a2.81 2.81 0 0 0-2.214.796Zm-1.661-7.129c4.152 1.176 10.622 3.807 16.089 7.094a2.042 2.042 0 0 0 2.491-.311c1.384-1.419 2.976-3.565 4.014-5.157a2.04 2.04 0 0 0-.242-2.526c-3.357-3.496-11.211-7.787-18.235-8.168-.622-.034-1.245.208-1.626.693-1.072 1.245-2.56 3.391-3.702 5.398-.623 1.177-.069 2.631 1.211 2.977Z"/><path d="M604.478 372.966c-10.449.554-17.3-.207-27.576-5.71s-17.058-12.078-27.887-12.113c-10.83 0-42.558 2.007-55.776 21.077-14.116 6.61-22.766 25.54-26.607 36.096-3.841 10.555-3.287 32.566 4.602 40.249.553 6.437 5.051 14.812 15.881 22.495"/><path d="M471.234 452.6c6.989-6.61 15.397-10.66 41.105-8.825 25.707 1.834 62.003 9.725 73.767 13.012 11.729 3.288 21.002 2.284 24.289-1.211"/><path d="M627.245 433.358c-4.809.138-10.138 1.072-12.906 8.963-2.768 7.891-12.006 43.018-12.006 43.018"/><path d="M604.236 478.21c-22.247-.865-71.552-7.199-102-13.359-14.671-2.976-18.65 5.157-12.491 18.239 6.159 13.081 17.646 24.018 30.137 26.198 12.49 2.18 41.623 6.056 64.148 7.579m-90.791-140.613c6.955-.034 41.243 4.049 58.682 6.922 17.438 2.872 44.149 8.756 50.412 14.777 6.228 6.022 10.691 20.696 11.003 28.483"/><path d="M611.295 452.392c-4.291-1.903-2.042-17.789 3.494-29.209 5.536-11.421 30.967-45.891 38.96-56.827"/><path d="M582.75 370.025c12.975 4.603 34.876 21.56 42.246 36.615m5.398-7.856c-7.993-11.317-24.497-22.599-32.594-33.224-8.096-10.624-7.3-27.133 3.633-47.448 10.934-20.315 34.739-43.952 43.147-53.158 8.407-9.206 21.555-37.446 41.831-51.912"/><path d="M695.511 229.169c-9.965-2.768-9.342-16.923-9.031-25.644.312-8.722 0-53.47 3.01-71.881 1.384-8.549 5.017-15.643 11.557-21.077m-96.569 202.354c-8.304.865-22.593 3.046-25.604 5.088-3.01 2.041-5.778 7.752-2.837 13.981 2.907 6.23 7.751 9.794 10.415 10.348 2.699.554 6.47-.761 6.47-.761"/><path d="M587.005 342.442c-.865 3.011-3.148 4.188-11.21 5.053-8.062.865-42.316 4.153-42.316 4.153"/><path d="M465.006 360.231s41.866-1.108 53.63-3.496c11.764-2.353 22.04-8.756 23.528-10.175 11.383-.657 27.957-2.907 30.725-3.461 1.418-3.703-.554-10.417-2.215-12.251-8.373.796-25.431 2.215-25.431 2.215.381 2.769.969 9.587-1.107 13.393m30.794-18.03c-7.577.899-25.673 2.699-31.348 2.699-5.674 0-8.615-1.419-15.639-2.042-7.024-.623-23.355-.692-33.147-.657"/><path d="M470.265 321.158c2.63-.242 10.276-.45 13.771.588 3.46 1.073 10.83 6.23 12.145 7.995 1.349 1.765.242 6.091-2.457 6.956-2.699.865-8.304-2.596-10.242-3.461-1.937-.865-6.02-2.215-11.106-2.146"/><path d="M470.507 347.356c10.242.381 45.257.173 49.894-.311 5.086-.554 12.352-2.388 13.528-4.568 1.177-2.181 1.73-8.583.45-9.864-2.63-2.699-26.261-2.768-37.852-2.249m-226.561-30.04c-5.779 5.779-5.709 16.369 11.175 18.757 16.885 2.388 24.324 5.295 43.631 0 10.691-2.941 14.151-5.641 14.67-11.005.519-5.364 13.91-16.577 18.788-18.308 4.879-1.73 11.903-3.357 13.252-6.956 1.349-3.599.969-13.912-11.28-14.743"/><path d="M327.021 293.125c-3.46-1.384-4.913-12.597-2.526-19.899 2.388-7.303 7.197-17.858 16.193-20.142 8.996-2.285 18.684 2.284 20.033 4.429 1.315 2.146.969 10.314-3.46 16.439-4.186 5.745-11.764 14.501-16.054 16.439-4.36 1.904-10.242 4.292-14.186 2.734Z"/><path d="M342.349 252.738c-.346-1.696-2.734-5.157-6.713-3.98-3.944 1.211-16.089 8.063-24.358 13.012m-13.217 59.872c1.938-3.114 4.152-8.582 2.976-17.546-1.142-8.963-2.699-20.626-6.263-21.976-3.564-1.35-5.605 7.406-7.335 13.497-1.73 6.091-3.772 19.173-1.142 24.26"/><path d="M301.002 313.613c4.879-4.81 20.379-18.342 28.372-20.003m70.999-38.45c7.058-5.087 18.476-12.667 21.417-13.739 2.941-1.073 10.588.588 13.633 2.595 3.045 2.008 6.228 5.122 7.473 7.787 1.246 2.665 1.384 15.643-1.937 19.658m-9.204 8.305-4.532 4.153m-28.719-9.448 10.173 14.155"/><path d="m437.118 267.827-16.227-24.122-16.366 10.521"/><path d="M420.891 243.705c1.418-.9 8.234-1.177 11.625.38 3.391 1.558 8.062 5.988 8.892 8.064.831 2.077 1.246 9.414.658 11.698-.588 2.284-1.177 4.879-2.491 6.229m133.245 58.592c-2.388-4.361-5.121-12.736 2.387-27.617 12.318-24.434 33.597-41.703 40.378-50.667 6.782-8.963 15.397-23.464 23.182-34.573 7.785-11.144 16.401-25.368 37.437-28.829 9.446-1.557 13.598 8.687.935 34.089"/><path d="M635.411 194.25c1.626-16.647 4.429-50.632 8.511-59.596 4.083-8.963 14.359-16.196 20.449-17.927 6.09-1.73 10.899.208 13.39 8.341 2.491 8.133 7.197 41.288 7.301 46.202.104 4.914 1.072 8.444-5.017 11.282-6.09 2.838-15.57 4.776-27.403 13.74-5.848 4.429-9.204 7.06-13.218 5.502-4.013-1.557-4.359-4.187-4.013-7.544Z"/><path d="M676.688 183.937c.45.865 1.419 2.249 1.973 2.872m-42.523 0c-5.121 3.045-23.217 31.493-30.691 39.246-7.473 7.752-23.562 19.519-31.313 34.608-7.75 15.089-9.411 27.029 1.973 38.657m-.9 1.731c-7.128.415-14.152 1.107-19.1-2.527-4.947-3.634-14.497-8.963-27.299-9.033-12.802-.069-23.147 1.662-32.04 11.248-9.03 2.319-19.306 11.663-20.933 20.211"/><path d="M496.769 300.774c6.677-1.835 14.462-.45 21.175 1.003 6.712 1.454 34.634 8.825 53.076 10.452m-117.674-33.12c19.307-3.807 91.205-17.097 118.47-23.222-5.017 6.437-8.546 14.431-17.853 18.481-9.308 4.049-56.26 21.907-65.187 23.983-8.927 2.077-12.456.727-17.231-3.045-4.74-3.842-13.667-12.39-18.199-16.197Z"/><path d="M571.816 255.887c2.941-4.776 7.577-23.084 8.304-28.483.381-2.699-4.498-3.045-8.304-2.803-20.552 1.211-63.456 6.61-83.87 14.57s-25.051 12.632-26.296 17.373c-1.246 4.742-1.246 13.048 12.525 18.62"/><path d="M485.004 240.279c2.941-1.177 6.125.623 11.176 4.637 5.052 4.015 15.051 12.009 17.093 14.259 2.041 2.249 3.736 6.506-1.765 8.825m-26.088-21.354c2.422 2.285 14.912 14.536 16.954 15.54-4.775 1.176-9.896 1.972-13.218 0-3.321-1.973-8.165-7.683-9.03-8.964-.865-1.315.173-3.357 5.294-6.576Z"/><path d="M485.42 246.646c1.972-.796 5.19-2.907 7.474-4.187m9.48 19.692c3.391.727 8.685.138 12.352-.865 6.401-.658 49.963-9.068 65.014-12.632m-125.356-6.887c16.02-5.538 47.782-14.086 66.293-17.235 18.511-3.149 49.894-5.71 65.429-5.78"/><path d="M451.996 219.41c16.954-1.869 40.69-3.669 48.129-3.669 4.186 0 11.418 8.756 11.418 8.756-1.177 1.419-3.633 2.527-3.633 2.527"/><path d="M478.119 220.967c2.803 4.015 4.568 6.853 7.682 6.991 3.114.139 14.912-1.177 16.573-1.384 1.626-.243 2.699-1.8 1.626-3.184-1.072-1.385-3.01-3.738-3.875-4.638-.865-.9-2.664-.969-4.602-.9-1.937.07-14.428.693-15.812.9-1.384.208-2.145 1.385-1.592 2.215Z"/><path d="M482.479 226.505c-.277-1.142 1.972-1.835 4.774-2.25 2.803-.415 7.336-1.28 7.958-1.903.623-.623.762-3.115 1.973-4.499M339.581 440.037c-4.048 6.091-16.02 23.533-18.753 27.306-2.734 3.772-2.63 8.167 3.425 11.524 6.055 3.357 32.282 14.813 35.811 16.785 3.979 2.25 5.709 6.68 3.529 11.802-1.626 3.807-10.138 14.535.692 20.522m85.704 4.949c8.892-.796 25.985-5.399 30.31-20.695 4.325-15.297 6.297-29.452 6.055-37.723m-22.006-44.541c-22.974 3.046-36.607 3.392-58.647.658-8.2-1.004-11.556 1.003-13.771 5.571-2.214 4.569-7.127 10.037-15.12 8.306-7.992-1.73-15.293-4.499-19.064-6.506m-66.778-66.378c4.083-5.295 20.206-26.683 22.663-29.798 2.456-3.115 4.325-5.295 12.144-4.914 6.436.311 13.218 1.834 17.197 2.734 1.487.346 2.56 1.626 2.525 3.149-.069 3.392-1.903 7.406-4.255 10.798-3.011 4.326-14.013 23.326-19.446 31.355m129.37-163.178c1.626 1.246 3.84 3.703 5.086 5.918.381.692.208 1.558-.45 2.008-3.494 2.595-10.276 6.471-10.276 6.471-2.145-1.972-4.325-6.679-4.671-8.167 1.972-2.181 6.02-4.707 9.342-6.334.277-.173.657-.138.969.104Z"/></g><defs><clipPath id="all-6f747948_svg__a"><path fill="#fff" d="M0 0h1008v756H0z"/></clipPath></defs></svg>