<svg fill="none" viewBox="0 0 500 353" xmlns="http://www.w3.org/2000/svg"><path stroke="#fff" stroke-linejoin="round" d="m471 249-47.5-2.5c17.333-20.667 36.6-78.2-25-143s-155.667-79-195-78c-39.167-.167-123.2 11.4-146 59s-4.833 95.833 7 114l-26-4"/><path stroke="#fff" d="M133.858 101.147c-12.597 11.015-15.545 30.843-9.913 54.175 5.626 23.305 19.787 49.959 41.172 74.418 21.384 24.458 45.91 42.051 68.256 50.737 22.371 8.696 42.415 8.422 55.012-2.592s15.546-30.844 9.914-54.175c-5.626-23.305-19.788-49.96-41.172-74.418-21.385-24.458-45.911-42.051-68.256-50.738-22.371-8.696-42.416-8.42-55.013 2.593Z"/><path stroke="#fff" d="M115.382 70.875c-16.37 14.313-20.175 40.055-12.879 70.279 7.289 30.198 25.636 64.726 53.333 96.403s59.466 54.469 88.421 65.725c28.98 11.265 54.999 10.93 71.369-3.383 16.37-14.314 20.176-40.055 12.88-70.279-7.29-30.198-25.637-64.726-53.334-96.403s-59.466-54.47-88.421-65.725c-28.979-11.265-54.998-10.93-71.369 3.383Z"/><path stroke="#fff" stroke-linejoin="round" d="m285 309.5 1.5 1c23 .5 31-6 47.5-12.5 13.2-5.2 32.167-33.833 40-47.5 46.4-90-42.833-179.667-90-212l-2.5-2"/><path stroke="#fff" stroke-linejoin="round" d="M370.999 256c19.5-71.5-46.5-193-148.5-226.5l-16-4"/><path stroke="#fff" stroke-linejoin="round" d="M141 43c65.5-27 179.4 48.6 217 167 4 16.333 8.3 53.8-6.5 73"/><path stroke="#fff" stroke-linejoin="round" d="M162 28.5c-16 12-37.5 21-49.5 47"/></svg>