<svg fill="none" viewBox="0 0 204 153" xmlns="http://www.w3.org/2000/svg"><g stroke="#fff" stroke-linecap="round" stroke-linejoin="round"><path stroke-width=".46" d="M47.96 0C37.45 19.71 35.37 90.58 36.5 123.35c.22 6.32.59 12.03 7.04 15.75s22.45 13.02 22.45 13.02"/><path stroke-width=".46" d="M36.84 152.12c-3.16-2.19-10.26-12.98-10.13-22.45s-2.63-65.26-1.97-72.37S30.78 14.27 35.26 0M6.27 0c-1.77 16.8.64 54.6 3.38 72.3 2.73 17.7 17.05 69.34 17.86 73.52s-2.88 6.3-2.88 6.3"/><path stroke-width=".46" d="M24.63 0c-3.72 8.59-13.51 52.64-14.32 76.06M7.49 53.32C8.36 40.61 16.25 10.23 19.95 0m79.31 152.12c4.26-5.38 19.75-10.97 28.58-11.4s9.25-4.09 15.07-10.33 22.17-20.23 24.97-26.26 11.41-24.5 12.7-28.07 1.51-13.9 0-19.71S170.02 16.4 164.42 0"/><path stroke-width=".46" d="M156.67 152.12c10.33-7.74 26.47-20.66 29.27-27.76s12.27-37.2 13.34-48.3-4.09-29.01-7.32-38.03S180.13 0 180.13 0M36.45 121.79c2.69 1.14 8.94 1.42 13.77-3.69s15.03-17.51 27.42-20.46c8.95-2.13 9.95-16.62 9.23-22.87.57-8.95 3.98-23.02 3.55-28.7.85-4.4.13-14.75-2.4-16.96s-8.01-1.79-8.01-1.79L79.8 23c3.69-.42 6.01-3.8 5.8-6.33S83.07 1.9 80.33.01M53.23 0c-.53 3.17 1.48 17.19 2.32 18.98s2.21 5.59 10.02 4.96l.42 6.12c-4.75-1.9-12.47-1.79-14.88.63-2.41 2.43-8.53 10.33-9.8 13.81s1.9 9.28 1.9 9.28c-2.32 2.64-5.72 8.75-5.72 8.75"/><path stroke-width=".46" d="m67.78 23.73.63 7.54c.65.51 6.97.2 9.56-1.32v-6.5c-2.16.57-7.94.56-10.19.28m21.35 34.81s3.42-1.37 4.3-.71c4.92 3.7 6.82 11.19 8.33 15.91.63 1.97-2.03 5.15-2.03 5.15s-.07 6.05.74 7.61"/><path stroke-width=".46" d="M93.43 57.83c1.73-2.89 7.02-8.26 11.03-10.17-.51-1.84-.29-6.96 2.1-9.59 2.54-2.79 6.16-4.95 7.88-5.4-1.91-1.46-2.16-11.88-.57-14.35s7.1-3.51 11.24-2.79c2.92.51 5.14 11.18 4 15.18.83 1.52 1.21 6.35-.7 10.48-1.67 3.61-6.65 16.62-8.42 25.81-.25 1.31-.27 2.93-.83 4.2s-2.06 2.58-6.44 4.36-6.21 6.48-12.95 5.58m36.7 56.61c-8.73-.01-17.21-2.84-23.78-2.72s-8.07-1.74-13.43-3.35-5.55 2.11-7.66 1.86-9.69-2.89-12.41-6.75-2.29-13.16-1.22-21.03 8.94-11.59 14.1-15.88 14.02-3.86 16.6-3.58c3.65-.28 19.3-.7 30.58 15.23 2.11 2.98 6.66 4.42 9.07 2.71s10.24-14.16 21.29-25.51c1.31-7.63 6.95-18.45 10.96-22.39"/><path stroke-width=".46" d="M80.01 127.78c-2.19 3.04-5.78 12.59-4.05 16.69s4.34 5.88 9.18 7.66m24.91-65.9c.1-2.38 5.22-10.51 12.35-10.61s27.17 7.45 31.74 11.55c1.91-3.72 20.34-25.6 26.19-31.73"/><path stroke-width=".46" d="M119.65 76.06c-.77-1.65-.47-5.46 4.96-7.98s11.05-1.1 11.05-1.1c3.92-.5 17.48 2.61 25.11 8.24.8-3.41 12.31-15.58 19.21-21.1m-50.43-16.76 46.12.73M126.6 16.71c-.03-3.93 1.49-10.74 6.58-11.15 6.5-.52 33.06 0 33.06 0M109.77 35.2H90.28m-5.51-23.44c1.31-1.12 4.76-4.07 8.65-4.48s12.76-.82 15.22-.9 6.98 1.73 6.86 10.46m-40.58 7c-1.31.92-6.51 7.43-6.51 7.43m-.34-4.05c.65-.86 2.3-2.5 3.38-3.31M40.01 33.95c2.7.28 8.4-.16 8.4-.16"/><path stroke-width=".23" d="M128.85 66.82c2.41-4.57 7.68-15.4 11.58-19.3s10.18-4.06 15.08-4.06 21.78.59 21.78.59M36.22 105.34c1.43-2.68 3.7-4 6.61-4.28 3.82-.37 8.62 2.22 13.65 10.35"/><path stroke-width=".23" d="M45.37 101.25c.54-8.62.91-35.94 12.64-46.66 3.59-3.28 8.15-4.88 13.66-6.39s17.75-4.2 18.76-2.14m10.97 26.53c1.61-7.77 7.14-20.58 12.57-24.88s13.97-5.5 13.97-5.5m-6.96 56.69c3.87 1.75 22.71 10.73 22.71 10.73-1.62 1.87-4.62 12.86-4.99 15.98-3 1.37-7.99 2.12-12.73 0s-15.85-7.86-19.84-9.73l14.85-16.97s-10.98-9.24-12.32-12.6"/><path stroke-width=".23" d="M106.13 115.88c-4.74-2.62-12.98-9.26-22.71-9.26-2.25 0-4.21 1.76-4.51 3.27s2.95 14.47 7.72 22.08M43.21 53.78c3.23-3.72 13.72-9.88 14.8.81"/><path stroke-width=".23" d="M57.31 51.6c-.13-5.12 2.85-18.76 7.22-22.04m39.92 18.1c3.73-1.92 10.28-4.67 11.76-1.46"/><path stroke-width=".23" d="M115.51 45.31c1.54-2.34 4.42-9.34 3.83-11.61s-4.91-1.03-4.91-1.03"/><path stroke-width=".23" d="M119.34 33.7c1.61.89 8.63-.15 9.76-3m14.59 78.94c.93-3.05 4.62-5.39 4.62-5.39m-9.61 21.36c1.32-2.45 7.35-6.98 12.49-3.33"/></g></svg>