<svg fill="none" viewBox="0 0 1008 756" xmlns="http://www.w3.org/2000/svg"><g stroke="#fff" stroke-linecap="round" stroke-linejoin="round" stroke-miterlimit="10" stroke-width="1.5"><path d="M204 102.38c35.52 28.98 110.52 118.32 120.21 184.56 9.69 66.24-18.12 172.53-120.21 213.51"/><path d="M204 445.22c35.07-13.35 75.09-61.23 76.95-118.74.93-28.53-39.75-27.6-76.95 20.7m0-132.51c14.34-1.47 28.68-6.69 22.62-20.67-6.9-15.96-22.62-27.27-22.62-27.27"/><path d="M220.53 210.47c11.16 9.36 17.61 50.07 11.16 61.14-6.45 11.07-13.38 13.17-27.66 19.41m413.01-144.06c4.62-3.21 19.83-2.1 26.16-6.3 6.33-4.2 114-105.87 160.8-142.17"/><path d="M204 35.33c25.26 9 90.18 54.42 105.24 63.03 12.39 7.08 58.53 11.82 112.02 19.08 71.94 9.75 214.83 30.24 286.83 46.56 15.96 3.63 30.69 10.98 34.32 19.14 3.63 8.16 4.32 19.11 3.99 22.26-.54 5.07-7.92 19.14-26.67 29.52-42.42 1.92-59.73-1.59-105.42 13.44-23.94 7.89-42.54 13.2-78.78 18.48-66.66 9.69-143.97 16.5-211.35 20.07"/><path d="M804 77.87c-10.29 5.7-92.97 64.2-107.49 83.67m26.25 6.99c15.15 5.31 23.37 9.42 39.33 11.07 15.96 1.65 41.94 3.3 41.94 3.3"/><path d="M740.43 174.89s33.66-70.83 39.39-80.7m-77.55 141.33c.9 13.59-.51 22.5-9.99 32.67-9.45 10.2-42.24 30.57-55.77 33.72-13.53 3.15-66.36 10.62-96.96 18.21"/><path d="M511.92 371.57c2.61-.96 5.16-1.92 7.62-2.94 14.46-5.85 19.26-18.54 19.65-22.98 1.17-14.04-.57-65.79-.93-79.2m-26.34 105.12c-2.25 9.09-6.27 21.87-10.32 28.41-5.88 3.06-55.38 20.28-68.58 22.86-8.4-6.99-15.15-13.44-19.86-29.73 25.86-2.04 67.32-10.11 98.76-21.54Zm-191.88-9c11.82-.36 30.66-.36 42.51 20.46 11.85 20.82 51.84 139.98 84.24 200.52"/><path d="M413.19 393.11c-9.75-1.47-21.6-3.06-37.71-12.9 29.55 55.74 54.33 104.46 84.18 156.54 29.85 52.08 71.79 123.03 89.82 139.08 18.03 16.05 37.17 22.8 54.9 20.28 17.73-2.52 67.29-50.13 68.97-63.36 1.68-13.23-2.25-32.94-17.19-53.79-14.91-20.85-90.66-130.35-98.82-143.04-8.16-12.66-20.28-31.83-22.44-79.71"/><path d="M546.27 672.71c21.06 30.84 57.3 105.39 57.3 105.39m-15-82.14c12.45 22.2 33.33 60.09 45.03 82.14m40.14-152.16c38.19 43.2 119.07 138.87 128.94 152.16M662.43 588.71c27.15 29.58 71.16 85.56 141.57 160.23M204 636.68c34.29-21.72 143.82-58.29 178.95-58.29 8.91 0 21.78 10.32 21.78 10.32 4.02 36.33 30.96 160.35 44.22 189.39m-44.22-189.39c10.86-10.32 36.18-15.96 56.7 5.76 20.49 21.72 88.05 119.22 118.2 183.63m-12-326.91c5.19-7.89 16.71-13.77 32.94 1.11 16.23 14.88 87.24 125.97 110.46 155.13C734.25 636.59 762 683 804 719.18"/><path d="M579 443.36c-2.13-8.13 8.94-28.35 31.89-38.61 22.95-10.26 57.21-19.17 90.42-12.42 18.63 3.78 71.22 52.65 102.69 91.5"/><path d="M707.01 394.34c11.31-4.38 42.84-7.14 96.99 26.04m-531.06-52.62c-16.23 6.72-37.83 14.73-68.94 24.42m130.2-4.56c1.32 8.52 4.11 22.74 5.97 26.37 1.26 2.49 5.01 2.34 7.95 1.68 2.94-.69 9.81-2.64 12.06-3.33s3.54-2.46 2.07-7.35c-1.47-4.89-4.2-16.14-6.87-22.26-.81-1.86-2.25-2.16-4.8-1.86-2.55.3-13.62 2.64-14.7 3.24-1.08.6-1.89 2.04-1.68 3.51ZM306 403.16c3.63 5.19 4.98 13.41 4.98 21.15 0 1.74-1.17 3.3-2.85 3.78-8.07 2.37-14.22 3.06-18.51 4.05"/><path d="M310.29 414.98c7.5-2.22 17.7-2.88 21.3 2.67 3.6 5.52 6.81 27.87 8.91 34.11 2.07 6.24 5.67 12.87 13.62 11.91 7.95-.96 14.4-4.74 20.43-3.6 6.06 1.14 11.73 5.49 12.12 15.9.39 10.41 17.25 78.69 37.29 103.98m-187.77-96c.33 7.92-1.77 33.09-32.19 42.48m335.61-199.56c2.91-.96 7.47-.15 16.08 5.55s39.81 24.12 43.83 27.75c4.02 3.63 5.7 7.77 8.31 14.55 2.64 6.81 5.13 16.86 17.55 24.33m-356.1-224.58c25.41-16.5 68.55-24.12 91.8-24.09 28.17.03 129.9 1.53 184.23 6.9 18.42 1.8 45.54 24.03 50.22 30.54 4.68 6.54 13.8 23.19 13.86 28.8.06 5.58-26.85 34.71-54.9 37.53-30.36 3.03-172.65 11.46-187.98 8.16-29.91-6.48-51.39-24.54-60.33-28.41"/><path d="m374.85 155.42 19.71 103.05 152.28-7.56-7.23-89.37-164.76-6.12Zm-72.66 70.71c14.16 9.69 38.22 24.84 53.04 29.01 18.63 5.25 39.33 3.33 39.33 3.33M293.01 209.9c2.7-8.55 7.41-20.85 13.92-26.97 11.31-10.62 46.41-27.57 67.95-27.54"/><path d="M546.84 250.91c5.46.24 18.3-2.94 25.2-6.78 12.51-6.99 21.78-14.43 28.65-21.66 2.19-2.28 2.94-4.86 1.74-8.01-3.6-9.39-8.49-19.98-12.33-24.45-4.59-5.4-25.23-25.74-50.49-28.47m-46.62 248.91c-2.16 2.91-4.05 13.77 0 21.39 4.05 7.62 18.39 42.63 19.74 48.48 1.35 5.82 4.29 13.47 11.88 11.97 7.59-1.5 18.33-6.54 22.17-9.93 3.24-2.85.96-14.16-1.44-21.93s-10.62-27.09-16.32-34.41c-5.67-7.32-14.22-19.29-19.74-20.64-5.52-1.38-13.74 1.62-16.29 5.07Z"/><path d="M516.54 489.29c2.31-8.94-3.51-23.67-5.01-27.6-1.5-3.93-5.4-17.73-5.4-20.97 0-3.24.96-6.48 4.74-8.4 3.78-1.89 16.11-6.27 19.83-4.02"/><path d="M490.98 416.57c-8.88 2.97-30.66 11.16-35.91 14.25-5.25 3.12-5.88 7.35 0 17.91s76.41 131.52 84.54 141.69c8.13 10.17 33.66 31.08 41.73 32.64 8.07 1.56 48.84-26.25 47.07-37.05-1.77-10.8-12.75-39.06-22.77-56.43-11.16-19.41-60.78-98.91-74.94-113.85-6-6.33-11.61-6.06-14.7-5.7m-43.62-10.95a6.33 6.33 0 1 0 0-12.66 6.33 6.33 0 0 0 0 12.66Zm-61.86-61.62a8.25 8.25 0 1 0 0-16.5 8.25 8.25 0 0 0 0 16.5Z"/><path d="M409.71 340.79c6.395 0 11.58-5.185 11.58-11.58 0-6.395-5.185-11.58-11.58-11.58-6.396 0-11.58 5.185-11.58 11.58 0 6.395 5.184 11.58 11.58 11.58Z"/><path d="M407.49 343.01c7.621 0 13.8-6.178 13.8-13.8 0-7.622-6.179-13.8-13.8-13.8-7.622 0-13.8 6.178-13.8 13.8 0 7.622 6.178 13.8 13.8 13.8Z"/><path d="M420.03 323.96c16.23-2.82 74.1-11.4 110.01-20.16.87-.21 1.8.18 2.25.96.75 1.32.96 2.76.87 3.96-.06.78-.6 1.47-1.35 1.74-21.57 7.53-86.19 18-111.09 22.38m-26.94-5.37c-2.94.69-8.97 1.56-12.57 2.01-1.11.15-2.07.87-2.46 1.89-.6 1.53-.99 3.54-1.11 5.28-.06.99.72 1.86 1.74 1.86 5.52.06 11.7-.75 16.56-1.71m95.16 89.4c-7.23 2.07-15.72 5.25-21.45 8.4-2.13 1.17-2.97 3.81-1.95 6.03 9.3 19.98 38.49 65.43 48.51 81.78 2.01 3.27 6.09 4.68 9.69 3.27 16.41-6.33 31.11-14.04 41.61-21.45 2.16-1.5 2.85-4.35 1.65-6.69-6.96-13.74-19.23-32.79-25.62-42.36m9.84 105.663c5.753-1.967 8.731-8.494 6.651-14.576-2.081-6.083-8.431-9.419-14.185-7.451-5.753 1.967-8.731 8.494-6.651 14.576 2.081 6.083 8.431 9.419 14.185 7.451Z"/><path d="M554.894 565.271c7.321-2.503 10.892-11.447 7.975-19.975-2.916-8.529-11.216-13.412-18.537-10.909-7.321 2.504-10.892 11.448-7.975 19.976 2.917 8.528 11.216 13.412 18.537 10.908Zm5.086-44.721c2.73-1.86 10.41-5.7 13.89-6.69 6.96 7.56 20.58 27.9 23.7 33.99-3.45 1.95-11.04 6.45-13.65 8.82-7.2-10.56-18.12-26.43-23.94-36.12ZM804 404.69c-53.07-14.73-107.31-24.48-116.58-41.91-5.1-9.63-11.91-42.18-14.85-59.46-.42-2.37.45-4.8 2.31-6.39 21.36-18.42 41.22-34.05 66.81-36.21 26.73-2.25 42.18-1.74 62.34-1.5"/><path d="M795.09 328.55s-12.57-45.81-15.33-52.11c-5.79 0-11.85.9-16.17 1.83-2.4.51-4.05 2.76-3.78 5.22 1.44 12.6 4.23 26.91 6.69 30.99 2.73 4.47 14.49 7.89 28.59 14.07Zm-15.33-52.14c5.88-2.46 13.86-3.42 24.24-4.11m-8.91 56.25c1.38 2.85 8.91 5.16 8.91 5.16"/><path d="M795.09 273.05c-2.16-3.15-3.12-8.49-11.16-8.76-8.04-.24-36.9 2.7-40.92 3.57-4.02.84-5.22 5.7-4.26 9.96.96 4.26 8.76 38.25 10.35 42.3 1.59 4.05 5.49 6.03 12.06 8.4s33.45 14.16 42.84 14.52m0 16.2c-7.8-1.11-19.68-3.36-29.61-7.59-7.44-3.18-13.05-8.31-18.9-10.32-13.65-4.68-61.47-20.49-81-27.48"/></g></svg>