<svg width="204" height="153" fill="none" xmlns="http://www.w3.org/2000/svg"><g clip-path="url(#a)" stroke="#fff" stroke-linecap="round" stroke-linejoin="round"><path d="M100.64 40.38c.63 2.28-.11 12.59-5.51 17.65-5.27 4.94-13.63 5.85-20.38 4.54M46.29 81.43c-3.48-2.64-5.04-6.95-4.32-10.18.72-3.23 6.45-13.22 6.45-13.22M47.52 57.29l6.37 5.21c.89.25 3.79-.3 5.67-2.14M54.89 46.68l6.58 7.83M49.1 49.4l-1.58 7.89 6.06-2.65 1.31-7.96-5.79 2.72Z" stroke-width=".23"/><path d="M55.15 80.39c-.3-3.92 4.77-24.36 9.56-33.03M109.37 19.26S75.88 41.89 72.39 44.65c-1.31-1.37-2.87-1.73-4.22-1.21-.59.23-1.13 1.1-1.34 2.03-1.11.12-2.13 1.89-2.13 1.89l-8.89.42M163.86 12.12c-2.77 2.49-2.6 4.79-2.72 7.14-.12 2.35-.12 34.02.88 37.32 1 3.3 5.09 2.59 8.93 2.24 3.84-.35 26.8-3.04 32.57-4.11M107.83 77.28c-.13-4.45 7.34-38.64 9.78-45.15M131.59 79.29c-.59-5.29 5.94-53.55 7.09-60.03" stroke-width=".23"/><path d="M103.54 72.04c1.92 5.38 6.74 7.52 16.51 7.39 9.77-.13 67.05-.54 83.47-3.69M107.22 83.5c.15 2.2-3.68 16.24-4.28 29.89M178.44 79.43c-1.44.96-1.87 2.63-1.98 4.97-.56 11.99 2.49 41.15 3.01 48.31M172.36 82.73c-2.16 6.08-4.12 25.55-1.65 37.3M76.16 91.82c-1.55-1.35-6.87-2.15-6.87-2.15M62.72 108.15c.1 1.54 1.7 4.3 2.75 4.94l4.4-1.68s1.73.57 3.53.45c1.01-.05 2.18-.47 2.76-.97 1.27.81 4.09 1.47 5.11 1.27 1.8-.07 6.18 4.43 11.29 5.78.35.37.73.69 1.14.97M95.14 91.36c-1.29.2-2.51 1.65-3.5 3.81-1.65.38-2.98.65-4.11.51-.13-1-2.61-3.05-5.87-2.25-1.13-.91-3.54-1.68-5.5-1.61M76.16 80.23c3.27.22 12.95 7.53 19.33 8.08" stroke-width=".23"/><path d="m51.8 115.34 41.9 7.13M70.25 12.12C73.22 8.68 87.29 1.85 92.76 0M64.56 0c.11 1.85-.15 10.8-.72 13.99M57.18 12.12C59.26 8 60.29 5.49 64.05 0" stroke-width=".46"/><path d="M52.86 0c.51 2.51 3.52 11.5 4.72 12.66 1.2 1.16 4.03 2.4 9.95.41 5.92-1.99 28.04-10.53 48.96-13.08" stroke-width=".46"/><path d="M116.48 20.6c.12 3.24-2.94 4.15-5.16 3.73l-9 5.88c.92 1.46.15 7.5-1.68 10.18 1.38 1.99 6.42 9.31 6.15 18.11M62.72 108.15c.1-3.84 1.2-10.9 3.37-14.01 2.18-3.11 10.06-13.9 10.06-13.9-7.89-.52-25.28-.51-35.17 2.39-3.32 4.57-11.83 18.78-11.62 22.51 6.23-.83 21.73-2.69 33.35 3.01h.01Z" stroke-width=".23"/><path d="M32.94 81.51c-1.78 3.87-9.01 19.16-9.95 26.91 8.27 1.99 23.67 3.04 26.39 4.4 2.72 1.36 6.28 10.05 8.8 11.62 2.51 1.57 4.71 2.3 8.27 2.72 3.56.42 16.23 1.47 16.23 1.47l.94-1.05s4.19.42 5.55 1.05c1.36.63 1.28 2.32 1.02 4.64s-.69 6.88 1.12 9.45c1.81 2.57 3.36 3.83 11.78 4.86 8.42 1.03 24.02 3.11 29.73 4.54M50.66 41.96c-.15-1.92-3.02-2.73-4.2-1.12L40.4 25.38" stroke-width=".46"/><path d="M203.52 1.73c-9.95 1.23-60.85 16.83-65.37 17.65-4.52.82-20.66 13.27-24.36 15.19-3 5.88-10.26 37.47-10.26 37.47-3.24 3.84-6.51 9.48-7.75 14.56-1.24 5.08-2.75 36.94-1.8 48.81.2 2.47 2.81 4.84 7.78 5.34 4.97.5 71.08 11.38 71.08 11.38" stroke-width=".46"/><path d="M26.99 152.12c-5.68-11.52-16.79-42.32 2.84-71.59C37 69.84 50.67 41.95 50.67 41.95c1.02-.09 2.9-.1 4.19-1.43 2.57-2.63 3.58-5.75 4.84-8.4 8.59-2.57 19.5-5.13 22.06-6.8 2.57-1.67 9.85-4.44 9.85-4.44 1.24.28 3.57-.74 4.52-2.37 1.41-.85 5.37-2.83 5.37-2.83.07.74-.14 2.3 1.31 2.12 1.45-.18 1.56-2.59 2.94-2.58.73 0 2.97 4.32 5.5 5.38 2.53 1.06 4.77.57 7.58-1.3 2.81-1.87 6.89-3.06 9.7-4.89 2.81-1.83 15.32-5.42 18.46-5.38.81.01 2.47.11 3.79-.2 1.32-.31 2.31-1.04 2.85-1.67 1.17-1.36 12.8-4.38 13.59-4.55 1.16-.25 1.95.56 3.18.26 1.31-.33 2.41.38 3.21-.27.56-.46.46-1.95.24-2.61M28.72 0l9.72 26.15c.83-.24 2-.69 2.45-1.11L31.62 0" stroke-width=".46"/><path d="M203.52 134.77s-18.8-.82-24.06-2.06c0 0-5.77-8.76-8.76-12.67-35.55-2.47-67.77-6.65-67.77-6.65l-2.3-5.43c.11-5.77 2.28-23.13 6.58-24.46 10.42-.15 65.14-.77 65.14-.77 2.68-2.68 6.08-3.3 6.08-3.3l25.09-1.13" stroke-width=".23"/><path d="m39.13 25.91 6.28 16.05c-3.7 7-20.97 36.79-23.57 43.76-2.6 6.97-5.72 16.87-5.72 16.87s-4.57 6.9-5.57 8.81M0 10.2c7.62.79 21.69 1.67 33.38 2.31" stroke-width=".46"/><path d="M0 152.12c0-7.18 1.34-20.64 5.5-33.85 5.41-17.18 14.44-34.72 19.75-45.56 4.9-10 12.41-24.02 18.46-35.13M36.31 12.66c6.75.35 12.38.6 14.95.68l2.32 6.33s-3.88 6.94-9.01 16.32" stroke-width=".46"/></g><defs><clipPath id="a"><path fill="#fff" d="M0 0h203.52v152.12H0z"/></clipPath></defs></svg>