<svg fill="none" viewBox="0 0 400 231" xmlns="http://www.w3.org/2000/svg"><path stroke="#fff" stroke-width="2" d="M139.465 40.043c15.798-10.69 24.118-17.007 44.234-22.52 26.466-6.293 49.409-3.795 68.362 0 22.557 7.343 31.062 14.154 46.647 23.324"/><path stroke="#fff" stroke-width="2" d="M121.771 60.15c18.455-17.907 28.614-28.056 61.124-36.995 29.654-6.885 46.872-6.139 78.013 2.413 20.769 6.465 30.594 12.998 49.863 28.953"/><path stroke="#fff" stroke-width="2" d="M162.788 216.176c-29.032-18.571-46.993-32.827-56.128-53.282-10.688-23.932-7.916-52.171 1.184-76.75 6.351-17.154 16.942-32.261 37.251-51.73 24.623-20.526 41.59-23.989 73.991-24.931 18.069.575 31.44 2.44 43.966 7.486 25.234 10.165 45.732 30.73 59.339 54.286 4.398 7.614 8.461 17.09 12.508 30.717 12.091 61.492-7.576 87.055-58.711 115.008"/><path fill="#fff" d="m100.861 46.478-.713-.7-.006.005-.006.006zm82.838-42.625-.133-.99-.024.002-.025.005zm180.958 162.46.934.357.021-.057.015-.06zm33.887 11.449a.999.999 0 1 0-.217-1.988l.108.994zm-43.199 12.904-.934-.357zm1.512 1.197-.554-.832zm-286.54-43.798-.33.944zm1.316-1.132.987-.159zM.328 123.687l-.329.945 69.988 24.377.328-.944.33-.944L.657 122.743zm71.304 23.246.987-.159c-4.223-26.347-3.536-44.286 1.437-59.081 4.973-14.797 14.27-26.567 27.529-40.526l-.725-.689-.725-.689C86.832 59.796 77.279 71.828 72.161 87.057s-5.764 33.534-1.516 60.035zM100.86 46.478l.713.701c13.883-14.125 25.534-23.044 38.144-29.263 12.617-6.223 26.253-9.771 44.163-13.08l-.182-.983-.182-.983c-17.968 3.319-31.819 6.907-44.684 13.252-12.873 6.35-24.702 15.429-38.685 29.655zm82.838-42.625.133.991c35.949-4.83 61.558-3.908 89.107 5.87l.334-.943.335-.942c-27.953-9.92-53.911-10.822-90.042-5.967zM363.832 86.62l-.919.393c8.899 20.822 9.43 44.128.773 79.059l.971.241.97.24c8.711-35.15 8.262-58.947-.875-80.326zm.825 79.693-.934-.357-9.312 24.353.934.357.934.357 9.312-24.353zm-7.8 25.55.554.833c6.849-4.56 12.567-7.786 18.838-10.126 6.27-2.34 13.138-3.809 22.295-4.808l-.109-.994-.108-.994c-9.262 1.01-16.303 2.507-22.777 4.922-6.473 2.415-12.334 5.733-19.247 10.335zM273.273 9.771l-.334.942c38.171 13.547 74.138 39.252 89.974 76.3l.919-.393.92-.393c-16.132-37.74-52.665-63.742-91.144-77.398zm82.072 180.895-.934-.357c-.706 1.847 1.392 3.457 3 2.387l-.554-.833-.554-.832-.012.006v.001l.009-.001q.004 0-.002-.001-.006-.002-.014-.009l-.011-.01q-.002-.004.001.001l.002.015v.002l.003-.012zM70.316 148.065l-.329.944c1.474.513 2.866-.782 2.633-2.235l-.988.159-.987.158v.011l-.012.016q-.01.006-.002.003l.011-.001.003.001z"/><path stroke="#fff" stroke-width="2" d="M214.675 69.193c22.284 0 45.088 8.27 62.309 21.764 17.222 13.494 28.766 32.129 28.766 52.836 0 20.724-10.76 38.549-27.16 51.224-16.406 12.68-38.407 20.159-60.712 20.16-22.28 0-44.477-8.268-61.093-21.753s-27.579-32.121-27.579-52.848c0-41.45 40.77-71.383 85.469-71.383Z"/><path stroke="#fff" stroke-width="2" d="M215.552 41.848c28.162 0 56.977 10.627 78.741 27.97 21.765 17.341 36.389 41.319 36.389 67.995 0 26.694-13.63 49.634-34.363 65.93-20.741 16.301-48.544 25.91-76.728 25.91-28.158 0-56.211-10.624-77.214-27.958-21.001-17.332-34.886-41.311-34.886-68.008 0-53.388 51.614-91.839 108.061-91.839Z"/><path stroke="#fff" stroke-width="2" d="M327.661 82.67c-13.398-20.822-22.633-30.908-45.038-43.43-39.231-18.462-62.074-19.764-103.749-9.651-34.513 10.899-49.126 23.488-69.971 53.08"/></svg>