<svg fill="none" viewBox="0 0 1008 756" xmlns="http://www.w3.org/2000/svg"><g stroke="#fff" stroke-linecap="round" stroke-linejoin="round" stroke-miterlimit="10" stroke-width="1.5"><path d="M104 364.68c65.56-87.08 199.6-221.92 347.4-285.72S797.8-26.84 904-53.48M104 475c22.4 17.64 86.88 102.04 105.44 109.44s32.48 6.48 49.16 1.84c-1.4 14.36-16.24 53.32-20.4 68.64s-45.16 257.88-56.88 299.84"/><path d="M251.6 613.64c19.08 6.96 57.56 32.96 59.44 72.84s-16.68 207.32-23.2 268.32"/><path d="M237.24 659.12c17.16 29.24 42.76 65.88 44.12 96 1.36 30.16-31.12 146.56-47.36 199.68M104 733.32c21.48-35.72 39.32-56.08 43.76-59s10.48-2.24 15.64 8.24c5.12 10.48 33.92 68.32 36.16 75s3.8 18.32 1.32 29.04-11.6 77-12.72 82.8-8.32 22.08-15.24 26.36"/><path d="M110.08 723.48c10.6 11.84 62.28 113.56 63.72 122.76s.88 63.84-6.04 71.88-16.08 18.96-22.12 14.08-28.92-76.44-41.64-110.08m0-159.88c11.08-17.12 57.64-79 60.24-83.88s1.84-7.84-5.24-8.28c-18.36-1.08-38.16-8.44-55-44.32"/><path d="M164.48 571.6c9.64 15.88 21.92 28 38.56 29.76s36.92-5.4 48.56-13.32m59.36 114.64L904 755.4m-800-334c11.44-44.84 76.72-112.04 126.6-158.56S398.52 131.4 480.56 98.76 734.44 20.56 904-16.4"/><path d="M871.08-9.12C864.32 78.72 776.4 371.6 767.72 402c-2.16 41.28-17.48 106.8-33.64 147.88s-46.64 129.48-46.64 157.76c0 7.96 6.48 11.6 18.04 12.08 11.56.52 138.6 7.2 198.48 11.32M184.48 386.4c26.4-35.76 117.64-126.36 194.36-171.56s248.32-99.32 308.6-105.64 68.68 18.4 59.24 62.52c-9.44 44.16-51.48 177.08-68.84 234.36s-67.28 156.6-77.24 170.8c-10 14.2-17.88 25.28-70.92 24.72s-169.28.2-185.4-5.6-31.4-35.28-39.88-43.76-18.08-23.44-43.52-23.16c-21.76-32.88-72.4-104.4-76.36-111.44-4-7-7.68-20.88-.04-31.24"/><path d="M165.64 431.56c18.16 28.28 96.92 148.56 109.64 166.48 14.88 20.96 43.32 35.52 77.84 37.24s162.76 9.8 182.4 9.12 73.08-3.72 91.36-46 65.32-168.84 80.88-207.08 63.12-185.12 71.4-223.68c14.2-66.32-13.2-111-93.4-94.76S461.64 127.2 358.52 196.6 178.48 354.76 165.64 372.2c-12.88 17.4-11.76 41.08 0 59.36m144.68 248.12 377.12 27.96"/><path d="M257.04 523.4c12.8-7.32 29.28-24.84 34.92-50.48 2.36-10.76-10.76-22.12-11.84-25.44-1.12-3.32 5.68-6.64-3.16-12s-48.72-16.44-92.44-17.76"/><path d="M180.04 400.64c33.48 3.16 84.56 10.6 114.6 30.2 7.28 4.76 3 13.44-4.6 14.4 14.4 15.8 11.24 26.28 9.8 32.24-3.64 15.04-14.4 37.32-40.6 49.2m113.88-239c-5.68 7.16-13.4 37.84 9.4 73.84 22.8 36.04 38.96 51.4 70.84 44.04 10.4-2.4 16-31.04 13.6-41.84s-9.6-33.24-27.2-55.24-33.64-27.8-43.64-29.44-18.4 2.84-23 8.64"/><path d="M426.72 387.24c-1.04-1.52-1.92-3.08-2.72-4.6-3.48-6.8-9.12-12.32-16.08-14.36s-13-10.36-22-35.96-4.2-36.24 5-39.64c1.68-.48 5.8 3.88 9.08 5.08 3.28 1.16 6.96-.48 9.88 1.4s9.2 6.72 10.36 8.84.36 4.92-.84 5.96m7.32 73.28c5.16-.56 10.6-.12 14.32.52 5.48.96 9.08 6.28 4.12 7.36-9.16 1.96-14.76-2.56-18.44-7.88"/><path d="M383.16 323.32c14-5.92 26.4-13.12 37.8-8.88s24.4 25.68 25.8 33.68.24 18.16-5.2 20.48c-5.4 2.36-17.08-4.48-22.84-8.36s-17.52-8.52-24.48-7.36"/><path d="M445.64 364.04c1.92 2.28 4.32 3.84 5.88 4.72 2.56-1.48 1.96-8.04 1.04-11.76-1.16-4.56-5.24-17.4-9.8-23.16-1.8-2.24-2.52 0-2.52 0m2.16 34.36c-.08 2.08-1.24 5.48 1.52 7.64 2.8 2.16 4.36 2.6 6.4 3.28 1.2-1.48 2.36-5.8 2.52-6.72s-6.2-4.96-7.92-6.96"/><path d="M447.32 378c1.08-1.36 2.24-3.2.92-3.96-1.32-.72-4.12-1.96-6.12-2.48m-3.68-40.48c1.56-5.56 1.68-12.2-2.2-15.48s-8.48-4.24-10.92-4.12-2.56 3.8-2.56 3.8m6.08 50.88c-2.24 2.4-5.56 9.76-11.04 8M295 491.36c9.48-12.44 35.28-52.8 40.48-63.4 26.96-8.12 53.16-17.4 71.08-34.72m-37.2-62.16c-6.24 2-14.52 12.84-21.04 29.56-2.32 6-4.92 12.72-4.8 19.48.56.68 5.08 2.32 5.08 2.32"/><path d="M354.68 386.68a6.48 6.48 0 1 0 0-12.96 6.48 6.48 0 0 0 0 12.96m18.44-2.08c-2.2 2.4 4.48 13.8 13.64 18.52 2.72 1.4 5.44-2.36 4.52-5.64-.96-3.28-9.52-12.68-11.28-14.48-1.8-1.8-5-.48-6.88 1.6m-1.88-46.8c-4.8 2.88-6.04 9.64-1.88 18.48s18.68 31.8 32.36 41.32"/><path d="M358.2 385.64c4.92 2.04 11.32 4.36 16.88 6.4m-31.56-11.88c-.12 3.36.4 6.56-3.12 11.88s-37.52 51.68-48.12 52.68m139.72-145c2.76-3 3.44-8.48 3.8-14.8s-1.96-12.72 1.84-15.48 10.24-3.92 12.24-8.64 3.12-10.84 1.72-13.64-9.4-10.28-11.04-11.12-21.6-3.68-28.52-3.68-14.4 3.64-22.72 3.92-28.68.08-28.68.08c-8.88 2.88-21.68 7.4-33.72 13.88m33.68-13.88c.56-2.32 7.24-4.64 10.72-6.12 3.52-1.48 16.64-16.44 21.96-23.44m18.76 25.52c.12-3.84 8.08-13.28 14.92-20.24s31.76-29.24 45.16-40.4"/><path d="M434.48 204.88c-.76 4.92.64 21.56 1.28 30.12m4.8 1.04c6.68-2.36 28.68-5.16 48.36-8.36s90.12-15.24 115.04-19.84c6.04-17.96 25.44-73.44 24.6-86.8"/><path d="M603.92 207.84c1.84 3.08.2 7.72-1.04 12.08-1.24 4.4-10.44 49.28-12.56 57.96m5.6-6.96c3.08-19.72 14.2-65.6 17.64-76.88 6.96-22.8 22.08-59.32 19.04-74m-169.84 336.6c-13.24 2.36-56.2 5.72-68.64 4.88-19.96-1.32-51.84-4.84-58.68-33.6m-12.32 43.2c-3.64 3.76-9.72 12.04-12 16.44-.52 1-.44 2.24.2 3.16 2.84 4.08 8.12 7.48 14 9.72 1.24.48 2.64.12 3.48-.92 3.24-4 7.96-10.6 11-15.76.48-.84.52-1.84.16-2.76-1.72-3.96-6.36-9.8-14.28-10.8-.92-.08-1.88.24-2.56.92m-1.92-8.24c4.8 1.36 12.28 4.4 18.6 8.2.92.56 2.12.4 2.88-.36 1.6-1.64 3.44-4.12 4.64-5.96.6-.92.48-2.12-.28-2.92-3.88-4.04-12.96-9-21.08-9.44-.72-.04-1.44.24-1.88.8-1.24 1.44-2.96 3.92-4.28 6.24-.72 1.36-.08 3.04 1.4 3.44"/><path d="M620.16 416.16c-12.08.64-20-.24-31.88-6.6s-19.72-13.96-32.24-14c-12.52 0-49.2 2.32-64.48 24.36-16.32 7.64-26.32 29.52-30.76 41.72s-3.8 37.64 5.32 46.52c.64 7.44 5.84 17.12 18.36 26"/><path d="M466.12 508.2c8.08-7.64 17.8-12.32 47.52-10.2s71.68 11.24 85.28 15.04c13.56 3.8 24.28 2.64 28.08-1.4"/><path d="M646.48 485.96c-5.56.16-11.72 1.24-14.92 10.36s-13.88 49.72-13.88 49.72"/><path d="M619.88 537.8c-25.72-1-82.72-8.32-117.92-15.44-16.96-3.44-21.56 5.96-14.44 21.08s20.4 27.76 34.84 30.28 48.12 7 74.16 8.76M491.56 419.96c8.04-.04 47.68 4.68 67.84 8s51.04 10.12 58.28 17.08c7.2 6.96 12.36 23.92 12.72 32.92"/><path d="M628.04 507.96c-4.96-2.2-2.36-20.56 4.04-33.76s35.8-53.04 45.04-65.68"/><path d="M595.04 412.76c15 5.32 40.32 24.92 48.84 42.32m6.24-9.08c-9.24-13.08-28.32-26.12-37.68-38.4s-8.44-31.36 4.2-54.84 40.16-50.8 49.88-61.44 24.92-43.28 48.36-60"/><path d="M725.4 249.96c-11.52-3.2-10.8-19.56-10.44-29.64s0-61.8 3.48-83.08c1.6-9.88 5.8-18.08 13.36-24.36M620.16 346.76c-9.6 1-26.12 3.52-29.6 5.88s-6.68 8.96-3.28 16.16c3.36 7.2 8.96 11.32 12.04 11.96 3.12.64 7.48-.88 7.48-.88"/><path d="M599.96 380.88c-1 3.48-3.64 4.84-12.96 5.84s-48.92 4.8-48.92 4.8"/><path d="M458.92 401.44s48.4-1.28 62-4.04c13.6-2.72 25.48-10.12 27.2-11.76 13.16-.76 32.32-3.36 35.52-4 1.64-4.28-.64-12.04-2.56-14.16-9.68.92-29.4 2.56-29.4 2.56.44 3.2 1.12 11.08-1.28 15.48m35.6-20.84c-8.76 1.04-29.68 3.12-36.24 3.12s-9.96-1.64-18.08-2.36-27-.8-38.32-.76"/><path d="M465 356.28c3.04-.28 11.88-.52 15.92.68 4 1.24 12.52 7.2 14.04 9.24 1.56 2.04.28 7.04-2.84 8.04s-9.6-3-11.84-4-6.96-2.56-12.84-2.48"/><path d="M465.28 386.56c11.84.44 52.32.2 57.68-.36 5.88-.64 14.28-2.76 15.64-5.28s2-9.92.52-11.4c-3.04-3.12-30.36-3.2-43.76-2.6M233.44 332.2c-6.68 6.68-6.6 18.92 12.92 21.68s28.12 6.12 50.44 0c12.36-3.4 16.36-6.52 16.96-12.72S329.84 322 335.48 320s13.76-3.88 15.32-8.04 1.12-16.08-13.04-17.04"/><path d="M299.4 323.88c-4-1.6-5.68-14.56-2.92-23s8.32-20.64 18.72-23.28 21.6 2.64 23.16 5.12c1.52 2.48 1.12 11.92-4 19-4.84 6.64-13.6 16.76-18.56 19-5.04 2.2-11.84 4.96-16.4 3.16"/><path d="M317.12 277.2c-.4-1.96-3.16-5.96-7.76-4.6-4.56 1.4-18.6 9.32-28.16 15.04m-15.28 69.2c2.24-3.6 4.8-9.92 3.44-20.28-1.32-10.36-3.12-23.84-7.24-25.4s-6.48 8.56-8.48 15.6-4.36 22.16-1.32 28.04"/><path d="M269.32 347.56c5.64-5.56 23.56-21.2 32.8-23.12M384.2 280c8.16-5.88 21.36-14.64 24.76-15.88s12.24.68 15.76 3 7.2 5.92 8.64 9 1.6 18.08-2.24 22.72m-10.64 9.6-5.24 4.8m-33.2-10.92 11.76 16.36"/><path d="m426.68 294.64-18.76-27.88L389 278.92m18.92-12.16c1.64-1.04 9.52-1.36 13.44.44s9.32 6.92 10.28 9.32 1.44 10.88.76 13.52-1.36 5.64-2.88 7.2m154.04 67.72c-2.76-5.04-5.92-14.72 2.76-31.92 14.24-28.24 38.84-48.2 46.68-58.56s17.8-27.12 26.8-39.96c9-12.88 18.96-29.32 43.28-33.32 10.92-1.8 15.72 10.04 1.08 39.4"/><path d="M655.92 209.6c1.88-19.24 5.12-58.52 9.84-68.88S682.36 122 689.4 120s12.6.24 15.48 9.64 8.32 47.72 8.44 53.4 1.24 9.76-5.8 13.04-18 5.52-31.68 15.88c-6.76 5.12-10.64 8.16-15.28 6.36s-5.04-4.84-4.64-8.72"/><path d="M703.64 197.68c.52 1 1.64 2.6 2.28 3.32m-49.16 0c-5.92 3.52-26.84 36.4-35.48 45.36s-27.24 22.56-36.2 40-10.88 31.24 2.28 44.68m-1.04 2c-8.24.48-16.36 1.28-22.08-2.92s-16.76-10.36-31.56-10.44-26.76 1.92-37.04 13c-10.44 2.68-22.32 13.48-24.2 23.36"/><path d="M495.64 332.72c7.72-2.12 16.72-.52 24.48 1.16s40.04 10.2 61.36 12.08m-136.04-38.28c22.32-4.4 105.44-19.76 136.96-26.84-5.8 7.44-9.88 16.68-20.64 21.36s-65.04 25.32-75.36 27.72-14.4.84-19.92-3.52c-5.48-4.44-15.8-14.32-21.04-18.72"/><path d="M582.4 280.84c3.4-5.52 8.76-26.68 9.6-32.92.44-3.12-5.2-3.52-9.6-3.24-23.76 1.4-73.36 7.64-96.96 16.84s-28.96 14.6-30.4 20.08-1.44 15.08 14.48 21.52"/><path d="M482.04 262.8c3.4-1.36 7.08.72 12.92 5.36s17.4 13.88 19.76 16.48 4.32 7.52-2.04 10.2m-30.16-24.68c2.8 2.64 17.24 16.8 19.6 17.96-5.52 1.36-11.44 2.28-15.28 0s-9.44-8.88-10.44-10.36c-1-1.52.2-3.88 6.12-7.6"/><path d="M482.52 270.16c2.28-.92 6-3.36 8.64-4.84m10.96 22.76c3.92.84 10.04.16 14.28-1 7.4-.76 57.76-10.48 75.16-14.6m-144.92-7.96c18.52-6.4 55.24-16.28 76.64-19.92s57.68-6.6 75.64-6.68"/><path d="M443.88 238.68c19.6-2.16 47.04-4.24 55.64-4.24 4.84 0 13.2 10.12 13.2 10.12-1.36 1.64-4.2 2.92-4.2 2.92"/><path d="M474.08 240.48c3.24 4.64 5.28 7.92 8.88 8.08s17.24-1.36 19.16-1.6c1.88-.28 3.12-2.08 1.88-3.68s-3.48-4.32-4.48-5.36-3.08-1.12-5.32-1.04-16.68.8-18.28 1.04-2.48 1.6-1.84 2.56"/><path d="M479.12 246.88c-.32-1.32 2.28-2.12 5.52-2.6s8.48-1.48 9.2-2.2.88-3.6 2.28-5.2m-182.2 256.8c-4.68 7.04-18.52 27.2-21.68 31.56s-3.04 9.44 3.96 13.32 37.32 17.12 41.4 19.4c4.6 2.6 6.6 7.72 4.08 13.64-1.88 4.4-11.72 16.8.8 23.72m99.08 5.72c10.28-.92 30.04-6.24 35.04-23.92s7.28-34.04 7-43.6m-25.44-51.48c-26.56 3.52-42.32 3.92-67.8.76-9.48-1.16-13.36 1.16-15.92 6.44s-8.24 11.6-17.48 9.6-17.68-5.2-22.04-7.52m-77.2-76.72c4.72-6.12 23.36-30.84 26.2-34.44s5-6.12 14.04-5.68c7.44.36 15.28 2.12 19.88 3.16 1.72.4 2.96 1.88 2.92 3.64-.08 3.92-2.2 8.56-4.92 12.48-3.48 5-16.2 26.96-22.48 36.24m149.56-188.6c1.88 1.44 4.44 4.28 5.88 6.84.44.8.24 1.8-.52 2.32-4.04 3-11.88 7.48-11.88 7.48-2.48-2.28-5-7.72-5.4-9.44 2.28-2.52 6.96-5.44 10.8-7.32.32-.2.76-.16 1.12.12"/></g></svg>