<svg fill="none" viewBox="0 0 500 353" xmlns="http://www.w3.org/2000/svg"><g stroke="#fff" clip-path="url(#a)"><path stroke-linejoin="round" d="m29 252 47.5-2.5c-17.333-20.667-36.6-78.2 25-143s155.667-79 195-78c39.167-.167 123.2 11.4 146 59s4.833 95.833-7 114l26-4"/><path d="M366.143 104.148c12.597 11.014 15.545 30.842 9.913 54.174-5.626 23.305-19.788 49.96-41.172 74.418-21.385 24.458-45.911 42.051-68.256 50.737-22.371 8.696-42.416 8.422-55.013-2.592s-15.545-30.844-9.913-54.175c5.626-23.305 19.787-49.96 41.172-74.418s45.91-42.051 68.256-50.738c22.371-8.696 42.416-8.42 55.013 2.594Z"/><path d="M384.617 73.875c16.37 14.313 20.175 40.055 12.88 70.279-7.29 30.198-25.637 64.726-53.333 96.403-27.697 31.678-59.467 54.469-88.422 65.725-28.979 11.265-54.998 10.93-71.369-3.383-16.37-14.314-20.175-40.055-12.879-70.279 7.289-30.198 25.637-64.726 53.333-96.403 27.697-31.677 59.466-54.47 88.421-65.725 28.98-11.265 54.999-10.93 71.369 3.383Z"/><path stroke-linejoin="round" d="m215 312.5-1.5 1c-23 .5-31-6-47.5-12.5-13.2-5.2-32.167-33.833-40-47.5-46.4-90 42.833-179.667 90-212l2.5-2"/><path stroke-linejoin="round" d="M129 259c-19.5-71.5 46.5-193 148.5-226.5l16-4"/><path stroke-linejoin="round" d="M359 46c-65.5-27-179.4 48.6-217 167-4 16.333-8.3 53.8 6.5 73"/><path stroke-linejoin="round" d="M338 31.5c16 12 37.5 21 49.5 47"/></g><defs><clipPath id="a"><path fill="#fff" d="M0 0h500v353H0z"/></clipPath></defs></svg>