<svg fill="none" data-name="VIN" viewBox="0 0 500 375" xmlns="http://www.w3.org/2000/svg"><path fill="#000" fill-rule="evenodd" d="M502 0H0v376h502zM388 149H113v78h275z" clip-rule="evenodd" opacity=".3"/><path fill="#fff" fill-rule="evenodd" d="M114.033 149c-.571 0-1.033.462-1.033 1.033v16.934a1.032 1.032 0 1 0 2.065 0v-15.902h15.902a1.032 1.032 0 1 0 0-2.065zm0 78a1.03 1.03 0 0 1-1.033-1.033v-16.934a1.032 1.032 0 1 1 2.065 0v15.902h15.902a1.032 1.032 0 1 1 0 2.065zm272.934 0c.571 0 1.033-.462 1.033-1.033v-16.934a1.032 1.032 0 1 0-2.065 0v15.902h-15.902a1.032 1.032 0 1 0 0 2.065zm0-78c.571 0 1.033.462 1.033 1.033v16.934a1.032 1.032 0 1 1-2.065 0v-15.902h-15.902a1.032 1.032 0 1 1 0-2.065z" clip-rule="evenodd"/></svg>