<svg fill="none" viewBox="0 0 204 153" xmlns="http://www.w3.org/2000/svg"><g stroke="#fff" stroke-linecap="round" stroke-linejoin="round"><path stroke-width=".23" d="M95 21.19c-.09 1.5.02 3.88.88 4.96 1.18 1.47 3.37.69 3.37.69l.3-1.82 1.25-.03.22 1.68c1.51.65 3.22.41 3.82-.83.6-1.25.81-4.63.81-4.63-2.02-.43-8.15-.31-10.66-.01l.01-.01Z"/><path stroke-width=".23" d="M105.55 22.39c1-.13 1.81-.31 2.32-.52 2.15-.89 5.9-7.56 5.9-7.56-2.44-.55-19.05-.63-25.51 0 1.65 4.25 2.77 6.55 5.01 7.64.37.18.96.33 1.7.45m27.86-.23c2.85.11 9.83 3.49 11.14 4.67m-76.12 0c3.56-1.74 6.72-2.99 13.25-4.13"/><path stroke-width=".23" d="M56.48 23.66c1.74 5.2 6.36 11.51 12.48 12.4 2.87.42 14.81.43 20.7-1.59 3.62-1.24 11.15-1.09 14.72.18 4.46 1.58 13.25 1.84 18.99 1.09 4.05-.52 10.26-7.66 13.19-12.84"/><path stroke-width=".23" d="M55.75 23.72c.8 4.27 3.96 16.84 9.71 17.68 5.75.84 52.67 1.05 58.43.31 5.76-.73 13.55-10.69 17.4-18.38"/><path stroke-width=".23" d="M148.67 24.26c-9.64-1.55-24.61-2.29-40.8-2.39h-.01m-14.57.09c-17.43.28-34.86 1.26-47.46 2.74m113.58 82.72c-2.36 1.69-5.88 2.64-11.92 2.62M34.4 105.83c1.53 1.62 5.59 3.12 12.15 3.06m-1.9-28.82c-1.41-.29-3.36-1.49-3.67-2.26m108.47 3.15c2.19.19 4.04-1.38 4.04-1.38M58.43 66.42c6.55-.36 61.07-.38 74.36.5m-79.56 46.2c20.57-1.89 71.87-1.43 87.39-.45M58.51 75.05l6.22-4.89c8.39-.3 53.09-.07 61.71.3 1.86.52 8.06 4.6 8.06 4.6"/><path stroke-width=".23" d="M58.73 86.52c14 2.68 52.05 3.2 76.06 0 1.49-.2 2.59-1.45 1.69-4.45-.9-3-1.98-7.02-1.98-7.02-3.18-.36-68.31-.3-75.99 0-.71 2.08-1.59 5.13-1.78 7.47-.17 2.03.15 3.47 1.99 3.99l.01.01Z"/><path stroke-width=".46" d="m55.23 145.67.49-2.85m5.21 3.28.3-3.16m-.287 3.173c.054-.705-1.18-1.374-2.754-1.494-1.575-.12-2.895.353-2.95 1.058-.053.705 1.18 1.374 2.755 1.495 1.575.12 2.895-.354 2.949-1.059Zm77.047.637-.65-3.8m-5.04 4.23-.31-3.26m3.253 4.322c1.575-.121 2.808-.79 2.754-1.494-.053-.705-1.374-1.179-2.949-1.059-1.575.121-2.808.79-2.754 1.494.054.705 1.374 1.179 2.949 1.059ZM68.31 52.33c5.28-1.59 50.06-1.03 54.34.37 4.28 1.4 6.65 5.69 8.49 10.19 1.85 4.5 8.27 20.3 9.16 23.77.89 3.47 1.7 22.08 0 27.32-1.7 5.24-8.49 4.65-14.25 4.58-5.76-.07-59.81-.37-64.9-.37-5.09 0-8.12-2.07-8.34-8.05-.22-5.98-.52-17.06.52-22.59 1.03-5.54 5.91-25.32 7.38-28.35 1.48-3.03 2.95-5.46 7.6-6.87v0Z"/><path stroke-width=".4" d="M109.18 46.29c.38-.48 1.85-1.57 2.98-1.94 4.07-.1 13.12.62 13.12.62-.36.63-.55 2.33-.55 2.33-2.31-.29-11.59-.9-15.55-1.01v0Zm-13.49-1.74-.1 1.47c1.99.02 10.79.19 10.79.19.82-.78 1.72-1.47 2.37-1.8-3.15-.13-11.12 0-13.05.15l-.01-.01Zm-14.64.14c1.35-.03 9.89-.07 12.19 0 .07.34 0 1.46 0 1.46-3.28-.03-8.75.03-10.33.06-.5-.39-1.18-1.06-1.86-1.52Zm-15.84 2.43c3.49-.2 11.11-.54 15.51-.68-.51-.58-2.13-1.76-2.13-1.76-2.51-.03-13.85.53-13.85.53.13.32.41 1.54.47 1.91v0ZM48.79 27.17l7.17 23.11c.59-1.7 3.97-2.87 6.76-2.87-.1-.56-.26-1.29-.48-1.79-1.55.05-3.98.47-5.43-.87-1.45-1.34-4.73-7.43-4.73-7.43s-.4-2.07.3-4.53c-.51-1.5-2.42-4.35-3.58-5.63l-.01.01Z"/><path stroke-width=".46" d="m145 27.17-9.19 23.11c-.76-1.7-5.09-2.87-8.66-2.87.13-.56.46-1.62.9-2.22 1.99.05 4.72.11 6.58-1.23 1.86-1.34 6.17-6.63 6.17-6.63s.52-2.07-.38-4.53c.66-1.5 3.1-4.35 4.58-5.63v0Z"/><path stroke-width=".46" d="M53.03 48.96c-2.77.81-12.05 28.85-12.05 28.85-2.7.65-4.75 3.67-5.61 9.17-1.62 3.13-1.08 27.39 0 37.96-.09.57-.28 1.31-.38 1.99-.02 3.53 1.09 9.84 5.99 13.32 1.08 1.73 8.9 2.8 13.02 3.13 2.29-1.19 7.15-.97 10.27.54 13.38 2.49 49.16 2.63 66.33 1.29.79-2.2 8.17-3.37 9.76-.96 6.14-.69 10.48-2.55 11.59-3.79 2.83-2.69 5.79-6.41 6.21-12.35l-1.24-.97c1.17-4.97 2.9-20 2.69-26.21.48-4.76-.73-16.88-6.11-21.37-3.08-7.23-13.39-26.05-15.29-29.53"/><path stroke-width=".46" d="M32.17 14.51c1.9.19 3.42 2.43 4.78 2.75 1.36.32 4.88.08 5.36.56.48.48.4 5.6 1.52 6.48 1.12.88 2 .4 2 .4L54 52.24c-4.39 9.71-8.95 25.05-9.36 27.83-.65 4.42 1.8 35.31 4.81 45.88 5.49.89 16.72 1.91 20.21 2 0 0 .21 2.43 1.08 2.47 13.38.74 38.99.96 53.41.29 1.12-.05 1.03-1.69.95-2.8 0 0 12.63-1.19 19.83-2.04 3.15-14.72 5.11-40.56 4.51-44.92 0 0-9.46-23.14-12.21-28.53l11.43-28.17c1.86-.24 7.7-.07 7.7-.07.36-1.71 2.07-6.74 2.07-6.74 1.35.09 7.26-.91 10.1-4.63"/><path stroke-width=".23" d="M68.75 144.58c.79-2.29 1.63-6.5 5.79-6.45 7.88.09 40.01.64 45.35.42 5.34-.22 4.89 7.03 4.89 7.03"/><path stroke-width=".46" d="M30.42 15.07C72.26 1.23 130.79 1.55 173.1 14.12 172.36 9.67 145.8 0 98.37 0 62.23 0 30.88 10.9 30.42 15.07Z"/></g></svg>