<svg fill="none" viewBox="0 0 501 353" xmlns="http://www.w3.org/2000/svg"><path stroke="#fff" d="M174.912 80.943c19.841-13.426 30.291-21.36 55.556-28.282 33.239-7.904 62.055-4.768 85.858 0 28.33 9.222 39.012 17.776 58.586 29.293"/><path stroke="#fff" d="M152.69 106.198c23.177-22.491 35.936-35.238 76.767-46.464 37.244-8.647 58.87-7.71 97.98 3.03 26.086 8.12 38.425 16.325 62.626 36.363"/><path stroke="#fff" d="M204.205 302.158c-40.75-26.066-64.132-45.363-74.086-76.323-8.022-24.952-5.444-52.27 1.921-77.424 7.53-25.72 20.733-46.536 49.942-74.536 30.925-25.78 52.236-30.13 92.93-31.313 27.301.87 46.062 4.083 64.712 13.777 24.138 12.548 43.787 32.72 59.408 54.992 7.775 11.085 14.573 24.624 21.334 47.392 15.185 77.231-9.515 109.336-73.737 144.445"/><path fill="#fff" d="m126.427 89.026-.357-.35-.005.006zm104.04-53.534-.066-.496-.012.002-.012.002zm227.273 204.04.467.178.011-.028.007-.03zm42.479 13.628a.5.5 0 1 0-.109-.994l.054.497zM357.533 48.677l-.199.459zm92.088 76.806.431-.254zm-3.868 145.401-.467-.179zm1.513 1.191-.278-.416zm-358.794-55.32.165-.472zm1.315-1.134.494-.08zM.164 185.997l-.164.472 88.308 30.759.164-.473.165-.472L.329 185.524zm89.623 29.624.494-.08c-5.378-33.31-4.566-56.068 1.725-74.871 6.29-18.804 18.078-33.713 34.784-51.3l-.363-.344-.362-.344c-16.729 17.61-28.645 32.651-35.008 51.671s-7.154 41.961-1.764 75.348zm36.64-126.595.357.35c17.474-17.778 32.174-29.04 48.111-36.9 15.94-7.862 33.147-12.334 55.663-16.493l-.091-.491-.09-.492c-22.546 4.164-39.86 8.656-55.925 16.579-16.068 7.925-30.857 19.268-48.382 37.097zm104.04-53.534.067.495c51.432-6.91 86.156-4.475 126.8 13.149l.199-.46.199-.458c-40.86-17.717-75.78-20.149-127.331-13.222zm219.154 89.991-.431.253c17.735 30.21 20.899 61.887 8.065 113.676l.485.12.485.12c12.873-51.94 9.739-83.911-8.173-114.423zm8.119 114.049-.467-.179-11.987 31.352.467.179.467.178 11.987-31.352zm-10.474 32.543.278.415c8.814-5.905 16.144-10.096 24.181-13.132s16.803-4.923 28.494-6.198l-.055-.497-.054-.497c-11.744 1.281-20.598 3.183-28.738 6.257-8.139 3.074-15.541 7.311-24.384 13.236zM357.533 48.677l-.199.459c37.243 16.149 71.335 41.645 91.856 76.6l.431-.253.431-.254c-20.657-35.186-54.942-60.803-92.32-77.01zm88.22 222.207-.467-.179c-.53 1.386 1.052 2.594 2.258 1.785l-.278-.415-.278-.416c-.423.283-.939-.151-.768-.597zm-357.28-54.129-.165.473c1.096.382 2.15-.587 1.973-1.687l-.494.08-.494.08c.065.399-.32.7-.656.582z"/><path stroke="#fff" d="M269.372 116.799c28.163 0 56.966 10.448 78.722 27.494 21.756 17.047 36.419 40.653 36.419 66.955 0 26.311-13.665 48.903-34.405 64.933-20.743 16.032-48.539 25.476-76.713 25.476-28.162 0-56.208-10.446-77.207-27.489-21-17.042-34.917-40.647-34.917-66.96 0-52.623 51.709-90.409 108.101-90.409Z"/><path stroke="#fff" d="M270.473 82.456c35.55 0 71.904 13.41 99.366 35.292s45.987 52.196 45.987 85.991c0 33.803-17.264 62.818-43.447 83.397-26.187 20.582-61.273 32.703-96.833 32.703-35.548 0-70.949-13.409-97.457-35.287-26.508-21.877-44.091-52.191-44.091-85.996 0-67.608 65.314-116.1 136.475-116.1Z"/><path stroke="#fff" d="M411.276 134.481c-16.827-26.151-28.426-38.818-56.566-54.546-49.271-23.187-77.961-24.822-130.303-12.12-43.346 13.688-61.699 29.5-87.879 66.666"/></svg>