<svg fill="none" viewBox="0 0 500 353" xmlns="http://www.w3.org/2000/svg"><path stroke="#fff" stroke-linejoin="round" stroke-width=".5" d="m471 249-47.5-2.5c17.333-20.667 36.6-78.2-25-143s-155.667-79-195-78c-39.167-.167-123.2 11.4-146 59s-4.833 95.833 7 114l-26-4"/><path stroke="#fff" stroke-width=".5" d="M133.693 100.959c-12.702 11.107-15.632 31.056-9.992 54.421 5.637 23.352 19.822 50.042 41.228 74.524 21.405 24.482 45.963 42.103 68.354 50.806 22.402 8.709 42.564 8.469 55.267-2.637 12.702-11.106 15.632-31.057 9.992-54.421-5.637-23.352-19.821-50.042-41.227-74.525-21.406-24.482-45.964-42.102-68.354-50.806-22.403-8.708-42.566-8.468-55.268 2.638Z"/><path stroke="#fff" stroke-width=".5" d="M115.218 70.687c-16.476 14.405-20.262 40.268-12.958 70.526 7.301 30.245 25.67 64.808 53.387 96.509 27.718 31.701 59.52 54.52 88.519 65.792 29.012 11.278 55.149 10.978 71.624-3.427 16.476-14.405 20.262-40.269 12.958-70.526-7.301-30.245-25.67-64.807-53.388-96.508-27.717-31.702-59.518-54.52-88.518-65.793-29.011-11.278-55.149-10.978-71.624 3.427Z"/><path stroke="#fff" stroke-linejoin="round" stroke-width=".5" d="m285 309.5 1.5 1c23 .5 31-6 47.5-12.5 13.2-5.2 32.167-33.833 40-47.5 46.4-90-42.833-179.667-90-212l-2.5-2"/><path stroke="#fff" stroke-linejoin="round" stroke-width=".5" d="M370.999 256c19.5-71.5-46.5-193-148.5-226.5l-16-4"/><path stroke="#fff" stroke-linejoin="round" stroke-width=".5" d="M141 43c65.5-27 179.4 48.6 217 167 4 16.333 8.3 53.8-6.5 73"/><path stroke="#fff" stroke-linejoin="round" stroke-width=".5" d="M162 28.5c-16 12-37.5 21-49.5 47"/></svg>