<svg fill="none" viewBox="0 0 501 353" xmlns="http://www.w3.org/2000/svg"><path stroke="#fff" stroke-width=".5" d="M174.83 80.943c19.841-13.426 30.291-21.36 55.555-28.282 33.24-7.904 62.056-4.768 85.859 0 28.33 9.222 39.012 17.776 58.586 29.293"/><path stroke="#fff" stroke-width=".5" d="M152.608 106.198c23.177-22.491 35.936-35.238 76.767-46.464 37.244-8.647 58.87-7.71 97.98 3.03 26.086 8.12 38.425 16.325 62.626 36.363"/><path stroke="#fff" stroke-width=".5" d="M204.122 302.158c-40.749-26.066-64.131-45.363-74.085-76.323-8.022-24.952-5.444-52.27 1.921-77.424 7.53-25.72 20.733-46.536 49.942-74.536 30.925-25.78 52.236-30.13 92.93-31.313 27.301.87 46.062 4.083 64.712 13.777 24.137 12.548 43.787 32.72 59.408 54.992 7.774 11.085 14.573 24.624 21.334 47.392 15.185 77.231-9.515 109.336-73.737 144.445"/><path fill="#fff" d="m126.345 89.026-.178-.175-.003.003zm104.04-53.534-.033-.249-.012.003zm227.273 204.04.234.089.005-.014.004-.015zm42.451 13.38a.25.25 0 1 0-.054-.497l.027.248zM357.451 48.677l-.1.23zm92.088 76.806.215-.127zm-3.868 145.401-.234-.09zm1.513 1.191-.139-.208zM88.39 216.755l.082-.236zm1.315-1.134.247-.04zM.082 185.997l-.082.236 88.308 30.759.082-.237.082-.236L.165 185.76zm89.623 29.624.247-.04c-5.381-33.329-4.574-56.133 1.734-74.99 6.309-18.858 18.129-33.8 34.84-51.393l-.181-.172-.181-.172c-16.723 17.605-28.607 32.612-34.952 51.578s-7.141 41.861-1.754 75.229zm36.64-126.595.178.175c17.487-17.79 32.209-29.073 48.179-36.95 15.972-7.876 33.205-12.353 55.729-16.514l-.046-.245-.045-.246c-22.538 4.163-39.826 8.65-55.859 16.557-16.036 7.909-30.803 19.232-48.314 37.048zm104.04-53.534.034.247c51.462-6.915 86.234-4.48 126.932 13.167l.1-.23.099-.229c-40.806-17.694-75.676-20.126-127.198-13.203zm219.154 89.991-.216.126c17.78 30.286 20.936 62.037 8.092 113.863l.243.06.243.06c12.863-51.902 9.721-83.8-8.147-114.236zm8.119 114.049-.234-.089-11.987 31.351.234.09.233.089 11.988-31.352zm-10.474 32.543.139.207c8.821-5.91 16.169-10.112 24.232-13.157s16.85-4.937 28.554-6.213l-.027-.249-.027-.248c-11.73 1.279-20.563 3.177-28.677 6.242-8.113 3.064-15.497 7.29-24.333 13.21zM357.451 48.677l-.1.23c37.277 16.163 71.417 41.69 91.972 76.702l.216-.126.215-.127c-20.623-35.128-54.86-60.715-92.204-76.908zm88.22 222.207-.234-.09c-.44 1.151.875 2.166 1.886 1.488l-.139-.207-.139-.208c-.619.415-1.401-.213-1.141-.894zM88.39 216.755l-.082.237c.907.315 1.793-.486 1.644-1.411l-.247.04-.247.04c.093.574-.459 1.042-.986.858z"/><path stroke="#fff" stroke-width=".5" d="M269.29 116.549c28.222 0 57.078 10.468 78.876 27.548s36.514 40.751 36.515 67.151c0 26.405-13.715 49.065-34.502 65.131-20.789 16.067-48.64 25.528-76.867 25.528-28.22 0-56.321-10.467-77.364-27.545-21.042-17.077-35.01-40.748-35.01-67.154 0-52.81 51.876-90.659 108.352-90.659Z"/><path stroke="#fff" stroke-width=".5" d="M270.391 82.206c35.609 0 72.018 13.43 99.522 35.346s46.081 52.296 46.081 86.187c0 33.895-17.313 62.977-43.543 83.593-26.233 20.618-61.373 32.757-96.988 32.757-35.608 0-71.064-13.43-97.616-35.343-26.551-21.913-44.181-52.294-44.181-86.19 0-67.791 65.476-116.35 136.725-116.35Z"/><path stroke="#fff" stroke-width=".5" d="M411.193 134.481c-16.826-26.151-28.425-38.818-56.565-54.546-49.271-23.187-77.961-24.822-130.303-12.12-43.346 13.688-61.699 29.5-87.879 66.666"/></svg>