<svg fill="none" data-name="front seats" viewBox="0 0 500 375" xmlns="http://www.w3.org/2000/svg"><g stroke="#fff" stroke-miterlimit="10"><path stroke-width="1.546" d="M417.593 16.691s-21.959 59.435.201 63.042c0 0 65.963 2.304 69.313-3.746"/><path stroke-width="1.546" d="M451.077 16.691s-4.937 51.704 2.793 55.827c0 0 13.399 7.215 33.239 0M368.836 82.31s-19.583 13.398-20.099-11.338c0 0-6.699-47.138 10.05-49.333 0 0 20.871-5.808 29.116 5.014 0 0 21.645 39.51 10.554 53.513"/><path stroke-width="1.546" d="M358.789 21.64s-13.512.377-16.419 18.671c0 0-10.492 39.97 0 45.623h13.914m61.511-6.204s-70.086 54.627-66.994 79.878c0 0-73.694 50.504-72.148 86.577 0 0 4.123 43.804 17.521 76.271M487.109 91.059s-91.473 92.761-96.627 131.411"/><path stroke-width="1.546" d="M487.109 161.789S248.233 285.692 296.433 375.192"/><path stroke-width="1.546" d="M296.13 322.256s-63.856-71.947-158.164-44.634l-8.76-.515s-46.268 24.561-45.551 98.084m191.318-174.098s22.231-34.785 66.551-64.16c0 0 37.145-22.773 43.051-28.132"/><path stroke-width="1.546" d="M325.639 148.362s-4.164-13.501 22.613-41.067l24.736-29.622s19.439-5.153 24.149 0c0 0 3.839 1.386-.881 20.274M270.623 201.093c-19.882-28.086 39.465-67.252 39.465-67.252-3.092-19.068 34.744-47.927 34.744-47.927"/><path stroke-width="1.546" d="M302.481 201.095s-107.572-3.865-97.662 21.387c0 0-2.953 7.215 9.415 16.491l65.912-3.479m-266.464 15.59s18.124-19.325 23.793-20.356c0 0 23.19-5.153 37.62-18.552"/><path stroke-width="1.546" d="M117.002 228.339c19.814-9.497 19.27-51.84-1.215-94.575-20.484-42.736-53.152-69.68-72.966-60.183-19.814 9.497-19.27 51.84 1.215 94.576 20.484 42.735 53.152 69.68 72.966 60.182Z"/><path stroke-width="1.546" d="M118.056 218.418c12.106-5.803 7.505-40.58-10.276-77.677-17.782-37.097-42.011-62.465-54.117-56.662-12.107 5.803-7.506 40.58 10.276 77.676 17.782 37.097 42.011 62.466 54.117 56.663Z"/><path stroke-width=".515" d="M100.864 161.053c2.284-1.095 1.822-6.81-1.032-12.764s-7.02-9.894-9.303-8.799c-2.285 1.095-1.823 6.81 1.031 12.764 2.855 5.954 7.02 9.894 9.304 8.799Z"/><path stroke-width=".515" d="m63.756 129.207-3.092 7.215s11.853 29.374 26.798 44.319c0 0 11.641 11.337 17.934 0 0 0 14.944-30.617-22.366-55.76 0 0-8.9-2.01-30.065 9.353m20.578 45.389 15.98 7.199 28.86 29.89"/><path stroke-width=".515" d="m116.649 162.059-10.172 15.846 17.887 29.344m-24.276-66.258 7.673-.237M32.14 85.492s10.766-8.395 15.78 6.833m39.932.003s2.71 8.421-2.706 11.57m79.388-87.207L83.213 87.757m-69.531-4.573s17.006 1.407 17.82 3.875m78.637 18.442s4.169-8.554 19.608-22.314c0 0 77.523-82.733 172.737-55.46 0 0 11.462 2.488 0 22.607l-25.767 58.471s-161.425.304-166.578-3.304Z"/><path stroke-width=".515" d="M308.89 22.21s13.518 2.382 4.783 18.1l-31.307 68.499s-4.742 6.998-12.472 37.403l-11.007 55.466m51.203-67.838s3.221 24.819-2.51 29.931m23.894-35.341s-8.585-7.973 15.93-42.516m62.554.02s-37.903 62.871-16.95 73.693l24.531 11.647m-66.737-11.665s4.566 37.249-3.386 51.607c0 0-38.228 66.813-39.836 90.313"/><path stroke-width=".515" d="M393.009 159.609s-65.175 100.193-67.603 119.41m-187.441-1.397s34.012-2.061 27.828 11.337c0 0-38.893 78.157-33.873 86.232"/><path stroke-width=".515" d="M164.645 282.003s2.695-2.329 14.032 2.309c0 0 113.416 48.957 114.921 44.571m-130.743-33.926s120.224 45.685 128.057 44.582m-142.738-13.191s132.329 45.35 142.749 36.182"/><path stroke-width="1.546" d="M225.574 205.992s-25.221 3.984-40.465 1.258c-1.278-.227-17.769-1.773-24.468 14.718"/><path stroke-width=".515" d="M204.82 222.485s3.541 2.577 14.724 0c0 0 65.314-9.08 70.457-6.086m-235.118 8.402s45.721 32.513 60.537 34.682c0 0 26.133 9.199 88.757-5.669"/><path stroke-width=".515" d="M164.645 272.31s29.152-5.236 32.93-10.013c0 0 12.93-20.232 25.875-23.324M13.682 294.957l86.407 10.343M13.682 158.895l21.932-11.43m-.004 2.828s-4.32 3.649-1.227 9.833c0 0 5.669 21.129 17.006 32.981 0 0 5.293 6.185 10.894 5.154m89.973 33.362-8.879-6.823s-5.153-13.399 7.344-10.714c0 0 10.446.361 9.93 9.524l1.088 15.346h-4.834l-4.649-7.333Z"/><path stroke-width=".515" d="m150.019 229.908-9.993 8.034s-3.607 7.73 7.215 6.699c0 0 49.473-.515 52.565-3.092 0 0 9.791-9.791 1.546-12.883l-40.423-.959"/><path stroke-width=".515" d="M123.193 223.629s9.962 12.147 21.387 10.652"/></g></svg>