<svg fill="none" viewBox="0 0 1008 756" xmlns="http://www.w3.org/2000/svg"><g stroke="#fff" stroke-linecap="round" stroke-linejoin="round" stroke-miterlimit="10" stroke-width="1.5"><path d="M904-57.88c-103 1-449.76 22.8-645.48 77.48-42.08-2.2-106.32 4.28-154.52 9.88"/><path d="M258.52 19.56c25.84 2.08 51.84 12.48 57.44 16.44s15.12 9.84 9.84 32.52c-5.24 22.64-43.08 120.36-24.4 262.72 7.88 60.16 24 110.12 31.56 166.16 2.76 20.64.76 47.2 5.12 78.16s5.04 64.92 1.68 87.48-11.44 83.08-16.16 101.6-20.84 31.96-49.12 36c-28.24 4.04-50.44 15.12-60.88 20.52s-15.48 3.36-23.88-10.44S124.92 694 104 663.4"/><path d="M104 439c41.64-42.56 106.2-99.08 137.84-123.24C243.92 199.32 289.4 88.04 288 79.48c-.84-5.32-72.28-12.96-184.04 70.72m137.88 165.56c2.32-.16 6.48.68 9.84 3.6 16.68-.4 45.12-1.6 51.92 27.28m-29.68 366.28c5.92 6.48 11 13.96 15.12 15.32s6.48-1.16 9.44-5.32 30.04-66.96 31.64-78.36 1.72-49.88-3.4-74.64m-52.8 143c31.8-38.6 59.28-139.04 52.68-167.96-1.96-8.48-1.68-21.36-21.36-22.08-10.68 10.2-29.84 14.56-36.88 24.28s-45.36 80.56-51.68 99.96-8.6 51.08-8.08 63.28c12.12-2.72 41.52-4.96 47.8-5.12 6.32-.2 11.6 1.16 17.52 7.64"/><path d="M305.24 522.92c6.88-6.56 2.56-56.64.48-62.4-3.52-9.72-13.24-12.48-23.64.56-17.32 21.72-83.48 159.36-88.44 170.84s-7.6 18.6-4.52 31c3.08 12.36 12.08 31.08 19.52 47.52M315 405.32c-17.72 16.4-33.68 42.2-40.96 41.44 2.32-6.96.16-32.2 0-43.68-.16-13.16 17.8-42.28 28.64-59.8m-28.64 103.48c-22.2 37.64-77.76 129.96-102.96 186.28-15.84 35.44-33 21.8-33 21.8-7.08-20.24-14.88-40.48-34.12-57.4M335.2 694.6c40.28 13.88 141.6 51.44 162.88 56.08 21.24 4.64 61.76 11.96 89.96 10.96 20.92 11.6 52.12 21.24 70.72 24.56-28.08-54.96-14.64-178.76 245.28-142.92"/><path d="M309.4 32.56c141.76-12.84 317.44-21.2 496.12-13C885.08 23.2 913 61.28 897.8 135.76s-26.84 142.36-76.04 167.92c8.96 88.2-18.52 120.8-47.92 166.8s-73.8 133.6-181.48 239.92c-22.36 22.08-36.72 26.72-69.76 16.08S374.44 681 338.76 669.96"/><path d="M335.36 545c.48 13.68 9.56 31.64 24.72 37.88 40.76 16.8 123.96 39.92 149.36 34.6 43.16-9 99.92-38.36 123.96-65.4s90.64-188 110.88-227.64 46.36-49.32 69.16-75.48S847.6 157.52 848 125.48s-21.52-40.48-45.12-43C670.32 68.28 503.8 66.24 380 76.52c-18 1.48-32.84 8.76-38.12 34.68s-19.24 101.88-22.08 167.16 17.32 183.88 14.64 239.6m371.88 139.56c-11.04 22.52-33.84 94.96-19.24 137.32 14.56 42.36 40.52 77.68 86.56 111.96"/><path d="M904 717.2c-62.6-12.64-147.4-16.8-173.56 47.36-19.76 48.52 33 116.32 77.2 142.2M658.72 786.24s18.16-48.88 18.64-59.52 1.2-34.96 0-49.88m6.88 58.68-7.72-3.56m90.24-439.48c-46.2-12.44-121.72-20.88-136-11.36S526.84 383.44 504 409.64c-29.36 33.72-40.32 52.16-39.04 89.4 1.2 35.32-31.08 71.64-42.76 72.88-16 1.72-72.12-16.08-77.64-21.4-5.56-5.32-6.76-28.68-6.28-45.28s-.84-51.8-8.36-74.2m513.6-327.4c-62.16 4.12-155.48 10.76-233.64 19.76-1.12-16.48-2.04-34.56-4.28-52.8m-30.24-.44c3.92 6.36 10.04 16 6.96 22.84-3.04 6.84-20.08 8.16-31.44 14.4-11.36 6.28-21.24 18.92-27.08 22.12s-7.88-1.44-9.04-7.72-7.28-38.8-7.88-51.36"/><path d="M567.72 106.76c7.44-3.2 21.6-6.2 26.56 6.92s6.88 41.36 4 53.68-14.32 31.52-15.56 42.92-5.52 62.64-5.24 84.04c.2 14.68-8.88 22.84-17.56 30.6s-19.04 17.56-23.36 23.72c-4.36 6.16-12.08 6.4-19.68 2.6m47.16-232.72-1.64-15.8m4.48-1.4 2.08 14m-25.44 8.12-1.08-10.2m4.08-3.08 1.76 13.24M563 108.56c-2.84 1.4-10.36 7.56-11.92 14.8"/><path d="M574.72 110.16c-3.12 4.04-16.76 14-26.48 13.24s-21.64 3.8-31.32 14.76-21.92 32.4-32.72 60.6M433.12 96.2c4.84 8.8 28.16 52.44 34.4 71.88 3.6 11.2.6 13-7.6 17.6s-41.76 23.56-55.12 27.36c-11.4.2-19.36 2-34.16 8.8-5-4.4-5.8-13.6-6.8-29.96-1.08-17.44-4-57.88-1-68.4S379.64 97.4 393.4 91c13.8-6.44 32.72-7.48 39.72 5.2"/><path d="M370.64 221.8c-16.6 7.8-33.16 24.92-50.92 59.32m148.24-101.44c6.96 0 15 3.2 16.28 24.36s1.08 44.36-5.92 59.92c-7 15.6-14.8 27.56-18.56 48.16-3.8 20.56-9.4 51.96-9.8 65.32-.4 13.4-6 23.76-12.6 32.36s-35.96 35.76-44.16 43.96-25.96 29.36-36.96 30.16c-5.6 10.24-14.48 21.24-18.08 26.52"/><path d="M356.24 483.92c-5.04-.56-8.72-6.24-8.52-13.76s-1.76-18.6-13.08-19.2m128.44-152.28c10.88 1.76 35.72 5.32 37.88 18.88-5.08 6.32-18.04 16.28-22.64 17.36s-14.16.48-22.56-.6m45.2-16.76c6.92.76 16 13.24 16.8 22.16.84 9.2-7.08 43.6-10.32 49.92s-19.12 26.4-36.96 31.44c-8.8 2.48-39.2-4.4-39.2-4.4"/><path d="M476.72 335.24c5.96.88 8.8 3.44 11.72 7.24 2.48 3.24 6.72 9.92 7.92 14.44.96 3.6.64 7.92-1.16 14.04s-8.04 31.96-12.48 44.4M467.2 470c-12.24-1.36-33.32-13.36-43.4-19.04s-19.72-6.44-26.8 2.6-39.84 48.24-58.68 66.4m1.04 14.04c10.2 3.56 25.88 7.64 29.2 11.4s3.84 9.8-1.24 14.68m294.04-410.64c5.36 1.24 10.52 11.52 11.84 15.28 1.36 3.76-2.64 4.12-7.04 3.84-7.16-.44-45.04-2.12-50.76-3.76s-11.88-13.44-12.64-15.52 1.52-3 8.28-2.68c6.8.28 42.48 1.04 50.32 2.84"/><path d="M659.08 149.04c-2.08 2.12-1.92 7.52-5.84 8.52-3.88 1-14.96 1.76-17.08 2.12s-1.52 4.4 1.4 5.4 13.24 2.08 19.84 3m187.96-11.48c-36.88.04-159.88 7.32-251.6 23.6m16.12-56.8c-3.84 1.96-9.64 4.12-11.16 11.84"/></g></svg>