<svg fill="none" viewBox="0 0 500 353" xmlns="http://www.w3.org/2000/svg"><g stroke="#fff" stroke-width=".5" clip-path="url(#a)"><path stroke-linejoin="round" d="m29 252 47.5-2.5c-17.333-20.667-36.6-78.2 25-143s155.667-79 195-78c39.167-.167 123.2 11.4 146 59s4.833 95.833-7 114l26-4"/><path d="M366.308 103.959c12.702 11.107 15.631 31.056 9.991 54.421-5.637 23.352-19.821 50.042-41.227 74.524s-45.964 42.103-68.354 50.807c-22.403 8.708-42.565 8.468-55.267-2.638s-15.633-31.057-9.993-54.421c5.637-23.352 19.822-50.042 41.228-74.525 21.405-24.482 45.963-42.102 68.353-50.806 22.403-8.708 42.566-8.468 55.269 2.638Z"/><path d="M384.781 73.687c16.476 14.405 20.262 40.268 12.958 70.526-7.301 30.245-25.669 64.808-53.387 96.509s-59.519 54.52-88.519 65.792c-29.012 11.278-55.149 10.978-71.624-3.427s-20.262-40.269-12.958-70.526c7.301-30.245 25.67-64.807 53.388-96.508 27.717-31.702 59.519-54.52 88.518-65.793 29.012-11.278 55.149-10.978 71.624 3.427Z"/><path stroke-linejoin="round" d="m215 312.5-1.5 1c-23 .5-31-6-47.5-12.5-13.2-5.2-32.167-33.833-40-47.5-46.4-90 42.833-179.667 90-212l2.5-2"/><path stroke-linejoin="round" d="M129 259c-19.5-71.5 46.5-193 148.5-226.5l16-4"/><path stroke-linejoin="round" d="M359 46c-65.5-27-179.4 48.6-217 167-4 16.333-8.3 53.8 6.5 73"/><path stroke-linejoin="round" d="M338 31.5c16 12 37.5 21 49.5 47"/></g><defs><clipPath id="a"><path fill="#fff" d="M0 0h500v353H0z"/></clipPath></defs></svg>