<svg fill="none" viewBox="0 0 416 239" xmlns="http://www.w3.org/2000/svg"><path stroke="#fff" stroke-width="4" d="M261 54.26c-14.087-9.839-21.507-15.653-39.444-20.726-23.6-5.792-44.06-3.493-60.96 0C140.482 40.292 132.897 46.56 119 55"/><path stroke="#fff" stroke-width="4" d="M278 70c-16.501-15.483-25.585-24.258-54.655-31.986-26.516-5.952-41.913-5.307-69.758 2.086C135.015 45.69 126.23 51.338 109 65.132"/><path stroke="#fff" stroke-width="4" d="M240.4 206.302c23.099-14.388 38.331-25.791 47.12-40.706 13.662-23.182 10.726-53.412-.586-77.827-5.848-12.623-15.035-24.45-30.772-39.141-21.935-17.806-37.05-20.81-65.915-21.628-13.965.433-24.78 1.708-34.687 4.897-25.9 8.338-47.31 28.927-59.784 53.108-3.002 5.818-5.855 12.902-8.699 22.228-10.77 53.342 6.75 75.518 52.302 99.767"/><path fill="#fff" d="m295.606 58.658 1.413-1.416.012.012.012.012-1.437 1.392Zm-73.661-37.17.262-1.983.048.006.047.009-.357 1.968ZM61.036 163.155l-1.863.727-.045-.116-.03-.121 1.938-.49Zm-30.249 11.106a2 2 0 0 1 .426-3.977l-.426 3.977Zm38.388 9.768 1.863-.726-1.863.726Zm-1.503 1.211-1.09 1.677 1.09-1.677Zm255.269-38.057.646 1.893-.646-1.893Zm-1.311-1.136-1.974-.321 1.974.321Zm64.016-18.169-62.059 21.198-1.293-3.786 62.06-21.198 1.292 3.786Zm-65.99 17.848c3.709-22.806 3.056-38.193-1.284-50.815-4.342-12.629-12.454-22.732-24.203-34.862l2.874-2.783c11.835 12.22 20.47 22.847 25.111 36.344 4.643 13.504 5.21 29.637 1.45 52.758l-3.948-.642Zm-25.463-85.653c-12.288-12.26-22.549-19.95-33.616-25.304-11.085-5.36-23.093-8.434-38.988-11.313l.713-3.936c16.009 2.9 28.441 6.05 40.016 11.648 11.592 5.607 22.21 13.611 34.701 26.074l-2.826 2.831Zm-72.509-36.602c-29.099-3.835-50.443-3.485-72.394 3.023l-1.137-3.835c22.689-6.726 44.651-7.028 74.054-3.154l-.523 3.966ZM61.112 101.013c-5.283 16.238-4.886 34.946 1.863 61.652l-3.878.98c-6.84-27.07-7.4-46.623-1.788-63.87l3.803 1.238Zm1.788 61.416 8.138 20.874-3.726 1.453-8.139-20.874 3.727-1.453Zm3.682 24.488c-5.971-3.882-10.935-6.602-16.365-8.573-5.43-1.972-11.41-3.226-19.43-4.083l.426-3.977c8.223.879 14.542 2.184 20.37 4.3 5.826 2.115 11.075 5.011 17.179 8.979l-2.18 3.354ZM149.29 26.494c-38.514 11.418-75.935 36.89-88.178 74.519l-3.803-1.238c12.818-39.397 51.699-65.511 90.844-77.116l1.137 3.835ZM71.038 183.303c1.08 2.771-2.05 5.178-4.456 3.614l2.18-3.354c-.765-.497-1.82.246-1.45 1.193l3.726-1.453Zm252.549-34.227c-2.225.76-4.282-1.194-3.931-3.35l3.948.642c.107-.659-.519-1.348-1.31-1.078l1.293 3.786Z"/><path stroke="#fff" stroke-width="4" d="M114 142.902c0 17.625 9.342 32.856 23.739 43.748 14.409 10.901 33.766 17.35 53.405 17.35 19.59 0 39.118-7.12 53.723-18.723C259.472 173.674 269 157.73 269 140.098 269 104.842 233.473 79 193.996 79c-19.597 0-39.671 7.125-54.82 18.744C124.021 109.367 114 125.311 114 142.902Z"/><path stroke="#fff" stroke-width="4" d="M92 139.293c0 22.776 11.816 42.411 29.928 56.415C140.052 209.722 164.381 218 189.054 218c24.623 0 49.168-9.144 67.535-24.056C274.954 179.034 287 158.489 287 135.707 287 90.151 242.146 57 192.623 57c-24.63 0-49.855 9.149-68.9 24.077C104.675 96.007 92 116.551 92 139.293Z"/><path stroke="#fff" stroke-width="4" d="M93 90c11.942-18.237 20.175-27.07 40.147-38.039 34.97-16.17 55.333-17.31 92.482-8.453C256.393 53.054 269.419 64.081 288 90"/></svg>