<svg fill="none" viewBox="0 0 503 299" xmlns="http://www.w3.org/2000/svg"><path stroke="#fff" stroke-width="2" d="M102.5 89.381c25.949-33.159 44.466-45.292 84.9-54.882 45.632-10.257 71.043-8.64 116.088 13.172 23.767 11.21 35.804 22.115 55.012 48.735"/><path stroke="#fff" stroke-width="2" d="M325.158 247.406c44.671-35.465 47.922-58.767 48.342-101.166-2.376-27.939-10.702-45.359-29.858-70.827-7.888-10.486-16.595-20.603-27.722-27.505-12.651-7.848-25.013-11.23-42.255-17.552-27.378-6.406-47.471-8.539-69.13-5.748-31.609 4.072-62.834 17.214-84.83 40.412-9.491 10.01-17.323 22.482-25.035 41.274-11.357 23.939-12.725 38.349-9.928 65.129 5.565 23.367 9.503 33.52 18.56 44.722"/><path stroke="#fff" stroke-linecap="round" stroke-linejoin="round" stroke-width="2" d="m35.5 168.413 34.207 3.043c-20.368-71.264-1.418-101.88 89.631-139.101 78.242-19.92 118.96-11.983 176.855 18.324 11.15 5.837 21.275 13.6 29.748 22.927 49.55 54.546 52.05 83.11 25.052 124.8H468.5"/><path stroke="#fff" stroke-width="2" d="M227.138 260.363h-.03c-26.497.121-53.507-10.45-73.589-26.934-20.087-16.488-33.13-38.794-31.944-62.094l.001-.016v-.015c.415-25.718 15.606-46.676 36.359-61.242 20.758-14.568 46.975-22.656 69.176-22.656 22.184 0 46.404 8.31 65.898 22.99 19.476 14.667 34.179 35.644 37.468 60.962.641 24.115-12.127 46.748-31.637 63.185-19.52 16.446-45.706 26.612-71.702 25.82Z"/><path stroke="#fff" stroke-width="2" d="M233.534 277.183h-.03l-.03.001c-38.513 2.085-76.092-10.665-102.906-31.966-26.816-21.303-42.782-51.077-38.326-83.064l.008-.055v-.055c.376-35.351 20.673-63.244 48.438-81.935 27.776-18.698 62.935-28.117 92.787-26.53 59.81 3.178 121.814 43.02 130.604 108.556 3.114 30.452-11.263 59.445-35.591 80.733-24.329 21.29-58.554 34.816-94.954 34.315Z"/></svg>