<svg fill="none" viewBox="0 0 204 153" xmlns="http://www.w3.org/2000/svg"><g stroke="#fff" stroke-linecap="round" stroke-linejoin="round"><path stroke-width=".47" d="M0 23.55c6.18 10.31 25.16 65.83 30.54 128.57m47.37 0 82.78-29.2c-.41-3.27-.61-12.06 5.31-18.19s22.48-52.74 23.71-66.02c1.23-13.29-2.04-28.54-5.72-38.71m-20.43 0-4.29 21.54c-35.78-3.27-114.68-8.79-135.93-9L16.59 0"/><path stroke-width=".47" d="M23.34 12.54c-4.5 4.7.61 12.26 4.7 21.87s26.37 76.04 35.98 90.55S79.55 140.29 91 137.43s57.94-17.29 64.18-20.85 7.9-7.79 7.9-7.79"/><path stroke-width=".23" d="M31.38 43.24c2.63 1.79 9.39 1.65 16.29 1.38s76.15-2.17 82.92-.61c6.76 1.56 14.47 5.34 16.64 21.31 1.62 11.98 2.3 28 1.89 36.25s-.65 18.07-12.36 21.89"/><path stroke-width=".23" d="M48.09 88.84c.91 2.37 3.72 2.17 8.05 1.6s81.73-11.82 85.05-12.25 5.27-3.65 4.74-7.73-.73-8.8-3.04-9.96-19.91-1.15-22.74-.73-2.47 4.26-1.84 6.15c-5.45.94-12.09 1.43-15.02.7s-5.28-4.22-5.28-4.22c-5.94.1-56.69 2.32-57.25 6.77"/><path stroke-width=".47" d="M0 14.49c6.88 13.05 21.33 52.06 25.21 65.57s9.51 32.98 17.56 42.58c8.86 10.57 19.09 15.02 33.66 14.9m84.56-22.71 20.08 37.29m8.68-125.33c1.47-3.1 13.77-9.97 13.77-9.97m0 31.52c-2.83 5.06-13.86 32.96-16.2 39.57s-3.37 18.55.52 28.81c3.02 7.95 15.68 25.3 15.68 25.3"/><path stroke-width=".23" d="M147.02 63.93s31.96-3.3 37.89-5.38m-35.89 45.05c2.87-.39 18.21-4.94 21.26-6.06M65.02 107.85c14.45-3.66 50.28-10.25 68.93-13.61 2.61 13.9-1.82 15.06-5.71 16.48-3.88 1.43-40.65 11.89-55.46 15.48-1.4-3.81-4.7-11.18-7.76-18.35-3.28-7.71-6.29-15.19-6.36-17.77m75.29 4.16c5.22-.95 13.72-3.19 15.14-5.63"/></g></svg>