<svg fill="none" viewBox="0 0 204 153" xmlns="http://www.w3.org/2000/svg"><g stroke="#fff" stroke-linecap="round" stroke-linejoin="round"><path stroke-width=".23" d="M0 9.42c9.21-1.16 37.49-.86 45.19 6.19 10.52 9.64 23.48 39.03 23.48 39.03"/><path stroke-width=".23" d="m0 47.53 47.32-3.56c6.21 1.71 24.28 12.36 24.28 12.36m25.64 70.04c-15.52 3.27-54.41 18.98-70.52 25.76M0 64.56c12.59-1.55 57.28-7.64 71.6-8.22 2.22 3.58 8.22 14.51 9 17.6.77 3.1.39 6.38-5.22 8.61S21.55 101.22 0 106.34m118.81-6.6c-.34 2.28-5.13 7.14-10.62 8.56"/><path stroke-width=".46" d="M67.03 2.6c-.99-.69-3.4-2.1-8.1-2.6"/><path stroke-width=".46" d="m67.85 0-1.42 4.49C65.17 2.94 60.99.62 54 0m61.73 152.12c.97-2.64 5.68-9 3.83-17.1.64-5.73 1.59-14.97 1.93-22.96.22-5.25-.41-9.69-2.68-12.31 1.23-9.74-.58-34.77-9.65-38.47-6.46-13.57-27.11-43.8-38.31-55.76M0 1.3c13.31-1.1 30.57.14 37.9 2.62 7.34 2.48 17.15 10.64 24.18 22.01 7.03 11.36 26.45 44.42 30.58 56.62 4.13 12.19 4.75 39.47 4.55 46.08s-3.1 13.84-11.67 18.18-10.95 5.32-10.95 5.32"/><path stroke-width=".46" d="m72.72 0-2.98 8.8c7.58 10.29 30.33 43.73 35.61 55.91s4.47 31.54 2.84 43.59c1.08 5.28 2.71 10.7 2.44 15.7-.27 5.01-3.2 25.28-3.2 25.28 1.75-1.55 3.64-2.81 4.76-2.86s1.55 4.41 1.36 5.7"/><path stroke-width=".23" d="M109.16 61.28c-.27.94-2.06 2.84-3.97 3.08"/></g></svg>