<svg viewBox="0 0 2000 1500" xmlns="http://www.w3.org/2000/svg"><defs><clipPath id="all-602375f6_svg__cp1" clipPathUnits="userSpaceOnUse"><path d="M2000 0v1500H0V0z"/></clipPath></defs><style>.all-602375f6_svg__a,.all-602375f6_svg__b{fill:none;stroke:#fff;stroke-linecap:round;stroke-linejoin:round;stroke-width:4.6}.all-602375f6_svg__b{stroke-width:2.4}</style><path d="M1853.1 125.3c-25.8 30.2-337.6 368.7-346.3 379.9-8.6 11.2-36.8 25.3-48.5 25.2-32.8-20.5-57.9-35.6-96.9-36.3-39-.7-120.6-3.5-147.4 0-26.8 3.5-67.3 19.8-86.3 27.7-72.3 2.7-445.7-6.6-536.2 1.9-3.1-3.7-9.6-4.4-19.7-4.3-10 0-23-17.2-28.1-23.3-99.9-120.4-191.6-223.8-331.3-386.5 94.2 4.8 490.6 5.4 603.4 6.3 20.9 30.3 55.8 49.7 119.4 56.5 63.6 6.7 167 1.5 216.4-5.2 49.4-6.7 60.7-33.7 70.4-50.2 107.1 5.1 525.4 4.7 631.1 8.3z" class="all-602375f6_svg__a"/><path d="M1419.1 523c-114.9-13.6-197.4 50.4-213.6 144-16.2 93.6 75.5 180.6 116.7 187 41.2 6.4 104.3 11 123.7 11.7 19.4.7 148-38.7 139-166.2-6.5-91.9-77.8-166.1-165.8-176.5z" class="all-602375f6_svg__a"/><path d="M1490.8 669.1c-.4-7-11.6-33.4-93.9-44.1-75.1-9.8-95.5 2.7-105.5 8.1-8.9 4.8-20.9 6.2-29.9 13.8-2.6 2.2-6.2 2.7-9.1 1-9.4-5.6-4.8-18.3 6.3-31.3 13-15.2 43.7-26.9 52.9-38.4 9.2-11.5 49.3-27.9 90.2-22.2 41 5.7 73 20.5 78.4 35.8 5.3 15.4 37.6 33.6 43.2 44 5.6 10.3 21.9 31.7 7.7 41.6-11.8 8.2-31.8-2.6-40.3-8.3zm-69.1 161.1c.9-14.4-1.2-32.1 22.6-48.1 23.8-15.9 56.7-21.6 72.5-21.4 15.8.2 13.9 15.6 1.4 28.6-12.3 13.1-59.3 65.9-96.5 40.9zm-93.9-16.6c-4.5-27.9-34.9-79.1-69.1-87.6-19.8-4.9-28.4 2.9-16.9 23.7 11.4 20.8 61.2 84.8 86 63.9zm-110.1-188c-22.4-26.8-76.2-46-112-46s-202.1 1.2-225.5 3.2c-23.4 1.9-66.5 30.5-72.4 37.6-5.9 7.2-17.5 29.2-17.5 35.3-.1 6.2 43.8 35.6 79.2 40.7 35.4 5.1 226.5 1.9 245.4-3.3 11.3-3.1 32.2-9.7 43.5-13.9m37.7-14.9c3.4-1.6 8.1-3.9 10.7-5.3M883.9 817.9c-28-9.7-318.4-1.7-347-2.4-28.5-.7-67.9-60.5-68-81.6-.1-23 3.8-43.7 3.8-43.7m118.8-166.6c-14.6 9.5-45.9 22.2-63.1 24.9-17.2 2.7-62.3 9.1-62.3 9.1-5-17.1-43.8-57.1-43.8-57.1-78.6-77.9-279-230.7-422.2-316.2" class="all-602375f6_svg__a"/><path d="M466.1 557.6c-12 0-38.4 11.7-49.9 25.8-11.8 14.5-12.3 29.4-11.8 51.3.1 2.5.6 5 1.5 7.3 12.5 31.7 31.1 44.9 53 47.7 8.8 1.1 92.1.2 152.1 2.8 69.3 2.9 187.1 14.5 244.4 19.3 110.1 9.3 314.7-6.9 348.2-10.9M1490.2 547c36.2 12.6 76.4 24.3 86.8 27.5 10.3 3.2 92.5 24.8 92.5 24.8 35.4 23.6 263.7 60.8 330.6 71" class="all-602375f6_svg__a"/><path d="M1580.8 671.5c15.5.6 39.8 1.3 51 1.1l7.9-12.7c2.4-11.5 1.5-30.3-.6-38.8 0 0-56.5-4.9-79.5-4.1" class="all-602375f6_svg__b"/><path d="M1205.5 667c-7-2.2-43.1-11.9-49.7-11.7-6.6.2-12.3 18.2-2 22.3 10.3 4.1 32.9 7.4 49.8 8.9m-348.2 25.3c1.2 19 12.4 101.9 43.4 122.6 33.8 22.7 81.9 20.1 121.7 18.4 39.8-1.6 95.8-6.5 119.1-26.2 23.4-19.6 43-16.3 62-15.8s36 .6 53.9.5" class="all-602375f6_svg__a"/><path d="M1144.8 822.6c11.5-13.2 28.4-87.5 29.7-118.9m-36.8 124.4c-1.2 17.1-3.4 55.7-15.1 71.4-19.2 26-21.9 36.3-23.4 73.4-2.1 51.1-2.9 112.3-8.3 144.5s-15.7 41.2-25.3 42.3c-9.6 1.1-100.5 3.2-109.8 2.2-9.3-1-13.7-12-17.3-24.2-3.6-12.2-9.2-42.4-9.6-81.3-.4-39 2-86.4 1.1-99.2-2.2-29.5-24.3-57.8-28.7-69.7-4.4-11.9-8.9-58.4-8.9-58.4" class="all-602375f6_svg__a"/><path d="M1122.6 899.5c-2.2 57.8-12.1 259.2-16.6 273.6-4.5 14.4-29.7 33.9-95.2 33.2-65.5-.7-106.1-14.2-109-44.2-1.7-17.1 5.5-228.5 2-269.2m202.3 280.2 16.6 209M902.5 1166l-34.9 202.4m-95.1-107.2c6.5-20.3 13.3-56.7 20.6-96.2 8.6-47 22.2-121.9 31.4-145.7 5.3-13.7 41.6-24.5 54.3-2.3 16.9 29.6 14.7 119.7 11 149-6.4 51.5-32.7 155.3-48.1 216.1" class="all-602375f6_svg__a"/><path d="M834.6 1009.3c-3.8-12.5-16.2-26.5-86.6-34.5-70.4-8.1-123.6-6.1-209.1 19-37.4 11-53.6 37.2-64.2 56.7-10.6 19.5-44.5 76.8-63 115.5-38.8 80.9-95.1 171.4-121.4 204.9" class="all-602375f6_svg__a"/><path d="M500.6 1015.1c-19.8-4.9-51.7-3.1-101.9 24.8-172.1 95.5-215.2 277.4-259.2 349m1134 19.5c-18.2-71.4-39.8-163.3-46.4-213.4-5.4-40.9-17-82.8-23.5-99.9-5.4-14.2-44.3-26.2-58.5-3.6-12.1 19.3-17.5 64.6-19.2 102.4-2.9 62.3 12.6 202.2 38 306" class="all-602375f6_svg__a"/><path d="M1192.9 1084.7c4.4-12.8 18.1-26.9 94.2-33.7 76.1-6.8 133.4-3.6 225 24.2 40.1 12.2 62.7 35.3 80.5 57.4 8.8 11 39.8 59.3 54.2 85 55.4 98.6 106.8 212 148.9 282.4" class="all-602375f6_svg__a"/><path d="M1568.2 1106.4c14-3 35-1.2 63.4 10 58.6 23.3 258.8 128.9 350.3 383.5M483.3 855c-.3 28.6-1.5 80.3-9.2 107.2-7.8 26.9-36 37.9-56.2 47.6-132.8 64-292.4 143.9-417.9 207.1" class="all-602375f6_svg__a"/><path d="M557.7 815.5c-40.4 19.4-103.5 49.3-139.6 84.1-40.4 38.9-295.7 147.7-418.1 209.3m1544.9-246.5c-.9 30-2.5 98.2 10.1 119.1 12.7 20.8 50.8 41.1 71.4 52.4 147.8 81.3 265.9 152.5 373.6 211.5M1244 876c-12.1-.1-39.6.1-45.1.4-14.5.7-11.4 42.8 2.3 42.9 13.7.1 39.3-.2 45.3-.6 13-.9 11.2-42.6-2.5-42.7zm-110.2-10.1c3.4.3 6.7 1 9.1 2.4 7 4.1 8.5 43.1 5.1 46.9-3.8 4.2-18.5 4.3-26.1 3.4m236.4-53 28.8 35.5 26.8 122.2-60.6-.6s-27.1-135.1-28.6-160.4c12.1.4 25.9 2.1 33.6 3.3z" class="all-602375f6_svg__a"/><path d="M1504.6 844.8c-11.4 25-20.9 54.7-20.1 79.4 1.1 33.8 61.9 129.5 110.7 182" class="all-602375f6_svg__b"/><path d="M1576.9 1105.3c-41.9-43.7-129.4-187.5-143.8-240.3m-11.4 188.7c-7.9-21.4-34.1-31.4-61.3-30.9-27.2.5-39.5-19.5-47-42.5s-13.9-61.4-31.9-67.5c-18-6.2-26.9-4.8-26.9-4.8m-64-2.2c-10.9.3-31.2 4.3-32.1 19.8-.9 15.5 6.4 48.6 7.4 60.3 1 11.7-5.1 18.9-19.3 19-14.2.1-23 1.8-28 11.5s11.1 83.6 14.3 110.5m-239.4-286c-30.3-.1-124.5-1.6-140.2-1.6-15.7.1-27.5 8.3-41.8 20.6-14.2 12.3-88 75.5-95.4 82.7-11 10.7-13.5 22.3-14.5 35.8M432.4 651.8c3.7 0 94.4-1.9 105.4-2.7 11-.8 25-5.2 28.3-12.9-8.1-15-18.4-34.8-36.7-34.3-18.2.5-96.1.2-110.1 3.7-2.7 16.1-.8 28.6 0 32.8.9 4.4 6.2 13.3 13.1 13.4zm1081.7-25.9c-3.9 4.4-17.8 23.1-22 29.3-1.4 2.1-.3 4.9 2.1 5.6 16.1 4.1 32.4 4.5 42.6 5.6m-448.6-81.2 4.4 105-191.5 2.8-6.5-105.2zm0 0c27.4 0 55.3 14.6 69.7 26.3 11.3 9.2 21.4 29 23.5 35.6.5 1.7 0 3.5-1.3 4.7l-10 6m-21 13.1c-7.1 6.7-27.5 16.5-56.4 19.3M901.1 693c-21.2.8-39.5-2.2-59.1-10.2-16.5-6.7-30.5-15.3-40.5-22.4-3.1-2.2-4.2-6.3-2.7-9.7 4.6-10.3 11.1-22.8 16-27.7 5.8-5.9 41-34 79.8-35.1m306.3 5.8c9.1-2.5 22.3-6.6 25.7-10 5.3-5.4 13.7-18.5 12.8-39.2-1-20.7-13.2-38.5-37.5-37.7-24.3.7-83.6 31.5-79.2 43.2 4.4 11.7 24.3 25.4 42.1 31.3 10 3.4 23.5 8.5 36.1 12.4zm0 0c9.5 2.9 24.8 5.1 31.4 5.1m222.2-68c-15.4-8.7-39.6-19.8-56.4-19.2-10.7.4-21.6 5.3-30.3 10.5m-35 42.7c-2.7 17.7 2 25.9 14.9 30.2 12.9 4.3 31 6.3 42.4 4.5 11.5-1.8 55.8-10.3 69-26.9" class="all-602375f6_svg__b"/><path d="M1372.4 520c-18.4-4.7-97.2-6-142.9-2.2m68.2 71.4c17.5.3 33.1.8 41.5 1.4m-545.5 54.6c-105.6-9.5-211.5-17.5-227.6-9m924.7 32.9c-.2 21.2-3.9 76.6-50.8 102.5-12 6.6-68.8 1.2-84.2-5.1-15.4-6.3-35.7-42.4-40.5-58.3-4.8-15.9-10.2-72.8-23.7-74.5m117.3 147.9c-4.4 6.4-10.1 13-9.4 21 .7 8-.3 21-.3 21-11.2.8-29.2-1.6-35.9-4.3-2.1-7.8-5.6-29.6.5-42.3 3.8-1.5 35.7 2.7 45.1 4.6z" class="all-602375f6_svg__b"/><path d="M1321.5 723c-25.2-9.6-50.7-18.8-56.4-24-5.8-5.2-12.9-27.2-11.4-48.9m261.2 29.7c16.5 1.8 26.5 17.9 26.8 26.4.2 8.4-1.8 23.1-15 25.4-13.2 2.3-39 5.8-52.8 8.5m-232.7-153.4c-7.9.2-13.8 0-20.8.6" class="all-602375f6_svg__b"/><path d="M1572.5 573.1c38.9-70 252.8-212.8 427.5-329.2" class="all-602375f6_svg__a"/><path d="M1669.4 599.3c9.7-48.1 13.7-96 20.5-139.1m-611.8 736.5 12.6 165m-165.1-169.6L898.1 1353m254.6 147c-1-27.3-10.4-101.1-34.2-122.4-23.8-21.3-86.7-34.7-131.3-35.7-44.6-1-108.5 7.9-125.8 33.2-17.3 25.3-38.6 88.7-43.1 124.9m807.1 0c-57.7-7.3-229.4-104.6-306.1-99.1-76.7 5.5-123.4 38.4-135.3 99.1m-376.8 0c18.3-57.7 54.2-140 27.5-191.8-26.7-51.8-128.8-78.5-213.4-32S499.7 1357 .1 1402.7m424.3-827.3C394 577.1 230.6 618.9 0 645.2" class="all-602375f6_svg__a"/><path d="M379.6 583c-6.8-29.7-12.2-82-10.6-130.9m753.4-178.4c-41.2-7.6-131.2-13.3-194.1-10.1-17.1.9-24.2 18.4-30.7 35.1-6.5 16.7-17.6 47.4 25 55.8 42.6 8.3 175.6 7.9 207.7 3.5 32.1-4.4 28.1-33.4 24.2-43.5-3.9-10.1-10.6-36.9-32.1-40.8z" class="all-602375f6_svg__a"/><path d="M1102.2 171.9c-.4 34.5-18.8 83.2-28.9 95.5m-129.2-94.3c0 17.1 9.7 70.6 22.8 89.5M1222 116.9c12.1-25 30.1-86.9 30.6-116.9M815.8 115.8c-9.6-21.9-27-69.2-39.7-115.8" class="all-602375f6_svg__a"/><path d="M618.2 814.5c5.4 33.8 14 98.5-83.6 180.6" class="all-602375f6_svg__b"/><path d="M541.3 823.3c22.2 30.8 35.4 82.7 21.1 115.7-14.3 33-32.8 49.4-65.1 75.5" class="all-602375f6_svg__b"/><path d="M0 833.3c114.2-37.6 241.6-86.7 424.4-88.9 23.7-.3 70.2 47.2 74.8 60.6 4.6 13.4 7.5 20.7-22.2 34.2-29.7 13.5-347.3 171-476.9 225.1" class="all-602375f6_svg__a"/><path d="M318.1 751.2c-9.6 1.2-15.9 15.7-23.9 48.8-8 33.1-26 97.2-28.1 109.3-2.1 12.1-1.8 24.5 19.6 22.5m61-156.5c1.3 18-15.5 103.1-21.4 116 27.6-18 34.8-29.7 37.3-45.2 2.5-15.5 8-52.8 5.4-62-2.5-9.2-21.3-8.8-21.3-8.8z" class="all-602375f6_svg__a"/><path d="M276.3 869.3c-21.4 4.6-45.7 11.6-71.5 22.1-77.6 31.5-161 66-204.8 86.9m333.4-117.4c12.5-.9 21.2-.9 24.9-1m1641.7-6.4c-103.8-39.7-221.7-83.2-382.5-85.4-23.7-.3-70.2 53.9-74.8 69.1-4.6 15.3-7.5 23.6 22.2 39 26.9 13.9 289.3 162.2 435.1 236" class="all-602375f6_svg__a"/><path d="M1723.7 775.9c9.6 1.3 15.9 17.9 23.9 55.6 8 37.7 26 110.8 28.1 124.6 2.1 13.8 1.8 27.9-19.6 25.6m-60.9-178.4c-1.3 20.5 15.5 117.5 21.4 132.3-27.6-20.5-34.8-33.9-37.3-51.6-2.5-17.7-8-60.2-5.4-70.7 2.6-10.5 21.3-10 21.3-10z" class="all-602375f6_svg__a"/><path d="M1765.6 910.4c21.4 5.3 45.7 13.2 71.5 25.2 57.2 26.5 117.6 54.8 162.9 77.4m-291.6-112.1c-12.5-1-21.2-1.1-24.9-1.2" class="all-602375f6_svg__a"/><path d="M346.7 775.3c-6.6-1.8-31.4-3.4-45.1-1.3m23.7 117.4c-3.8 7.6-31.9 36.7-59.6 30.3m1429.5-118.4c7-1 28.5-2.8 45.6 0m34.8 152.8c-21.6 6.5-47.5-11.3-59.1-20.5" class="all-602375f6_svg__b"/><path d="M1714.6 801.8c.4-5.2-1.8-19.1-12-20.3-10.2-1.2-54-2.4-60.1-1.8-6.1.6-9.7 3.2-9.2 16.9s8.6 86.2 9.9 92c1.3 5.8 6.3 14.1 14.4 21.7 8.1 7.6 49.9 37.4 57 41.5 7.2 4 19.8 3.5 24.3-1.8M328.4 773.3c.7-6.5 1.9-18.7 15.6-19.2 13.7-.6 47.6-.1 54.2 1.6 6.6 1.7 8.8 3.8 8.8 12.1s-12.8 86.6-13.5 93.3c-.7 6.7-14.5 22.9-46.9 41.5" class="all-602375f6_svg__b"/></svg>