<svg fill="none" viewBox="0 0 434 323" xmlns="http://www.w3.org/2000/svg"><path stroke="#FFF" stroke-linejoin="round" stroke-width="2" d="m1 231 47.5-2.5c-17.333-20.666-36.6-78.2 25-143s155.667-79 195-78c39.167-.166 123.2 11.4 146 59s4.833 95.834-7 114l26-4"/><path stroke="#FFF" stroke-width="2" d="M305.754 210.752c-21.259 24.314-45.593 41.745-67.671 50.327-22.178 8.622-41.516 8.138-53.482-2.324-11.965-10.461-15.026-29.562-9.442-52.693 5.558-23.025 19.585-49.469 40.843-73.783 21.259-24.313 45.593-41.744 67.671-50.327 22.178-8.62 41.517-8.137 53.482 2.324s15.026 29.563 9.442 52.694c-5.558 23.025-19.585 49.469-40.843 73.782Z"/><path stroke="#FFF" stroke-width="2" d="M315.035 218.57c-27.57 31.533-59.148 54.162-87.835 65.314-28.787 11.19-54.1 10.646-69.838-3.114-15.739-13.761-19.657-38.774-12.409-68.798 7.222-29.918 25.434-64.235 53.004-95.768 27.571-31.532 59.149-54.162 87.835-65.313 28.788-11.19 54.1-10.647 69.839 3.114s19.656 38.774 12.408 68.797c-7.222 29.919-25.434 64.235-53.004 95.768Z"/><path stroke="#FFF" stroke-linejoin="round" stroke-width="2" d="m187 291.5-1.5 1c-23 .5-31-6-47.5-12.5-13.2-5.2-32.167-33.833-40-47.5-46.4-90 42.833-179.667 90-212l2.5-2"/><path stroke="#FFF" stroke-linejoin="round" stroke-width="2" d="M101.001 238c-19.5-71.5 46.5-193 148.5-226.5l16-4"/><path stroke="#FFF" stroke-linejoin="round" stroke-width="2" d="M331 25C265.5-2 151.6 73.6 114 192c-4 16.333-8.3 53.8 6.5 73"/><path stroke="#FFF" stroke-linejoin="round" stroke-width="2" d="M310 10.5c16 12 37.5 21 49.5 47"/></svg>