<svg width="204" height="153" fill="none" xmlns="http://www.w3.org/2000/svg"><g clip-path="url(#a)" stroke="#fff" stroke-linecap="round" stroke-linejoin="round"><path d="M0 0c2.28 5.58 15.14 30.87 26.18 37.36 3.54 2.08 8.15 1.62 9.95 1.32" stroke-width=".46"/><path d="M102.74 79.63c-1.98 10.87-8.3 19.81-17.16 25.23M45.56 105.81c-7.55-4.07-13.48-10.52-16.71-18.49 0 0 0-.02-.01-.03M27.73 62.57C32.4 46.53 47.23 34.8 64.79 34.8c17.56 0 31.59 10.85 36.69 25.95" stroke-width=".4"/><path d="M109.89 73.52c-.66 25.03-20.19 43.45-45.1 43.45s-45.1-18.54-45.1-43.45c0-24.91 20.19-45.1 45.1-45.1s45.76 20.2 45.1 45.1v0Z" stroke-width=".47"/><path d="M50.59 61.93c6.49-2.77 24.33-2.58 30.92-.57 6.58 2 5.06 23.38 3.24 29.68-1.82 6.3-12.31 8.4-18.8 8.4-8.78 0-17.08-4.49-18.8-11.26-1.72-6.77-3.6-23.24 3.44-26.24v-.01Z" stroke-width=".4"/><path d="M48.52 91.34c.54 2.66.32 14.28-2.96 14.48M56.26 97.51c-2.34 1.73-2.58 11.41-.89 11.99 5.61 1.95 15.69 1.73 21.99-.88 3.25-1.34 1.32-11.67-.9-10.82M83.78 93.06c-.93 1.14-.22 10.06 1.8 11.8M36.1 65.01c-2.4 2.07-1.24 15.21 0 16.71s3.62 3.45 8.93 3.01c-.53-4.95-1.24-14.32-.88-17.24.36-2.92-4.24-5.75-8.05-2.48v0ZM94.82 63.87c2.49 1.96 1.93 15.13.76 16.69-1.17 1.56-3.46 3.61-8.78 3.41.31-4.97.59-14.36.1-17.26-.49-2.9 3.98-5.93 7.92-2.84v0Z" stroke-width=".4"/><path d="M27.73 62.57c.06 1.73-.39 5.78 7.17 5.79M28.85 87.32c-.63-3.39.25-7.23 6.62-7.34M44.07 68.36h2.17M44.56 79.64h1.21M85.29 66.79l1.61-.08M95.89 65.91c2.21.06 5.73-.71 5.59-5.15M86.25 79.64h.76M96.27 77.85c2.62-.79 6-1.25 6.47 1.79M84.41 32.85c3.16-.05 18.02 2.12 23.83 1.96 5.81-.16 80.67-1.28 95.29-.97" stroke-width=".4"/><path d="M40.17 43.67c-1.65 3.79-.86 11.54.55 13.37 1.62 2.11 3.45 4.1 14.14 3.71M77.23 60.49c2.69-.03 10.29-.26 16.06-.64 4.21-.28 6.53-1.14 6.91-2.36M102.49 41.92c1.04 2.29.87 5.57.88 7.77" stroke-width=".23"/><path d="M41.77 42.42c9.25-1.56 34.95-.95 45.23-.68M97 41.71c2.45.05 9.03.33 11.87.71 1-1.51-2.39-6.31-11.12-8.3" stroke-width=".4"/><path d="M108.23 84.79c6.13-.03 28.46-2.35 38.31-2.78 9.85-.43 40.77-2.57 56.98-2.37M103.57 45.91c7.48-2.3 80.26-4.23 99.96-3.49M105.86 54.26c6.1-3.05 82.3-3.32 98.23-2.3M121.56 56.2c-.88 3.03.2 14.2 1.08 15.86.88 1.66 4.01 4.5 8.32 4.7 4.31.2 37.89-.52 41.61-.7 3.72-.18 6.66-2.92 5.78-7.42-.88-4.5-4.9-13.22-4.9-13.22-10.57-.88-43.17-.49-51.89.78v0Z" stroke-width=".47"/><path d="M128.15 83.37c-.12 7.99 3.82 32.2 5.73 37.21 1.91 5.01 13.24 31.54 13.24 31.54M172.87 80.57c2.04 8.63 6.99 29.6 9.55 34.64 3.46 6.8 10 16.94 21.1 27.08" stroke-width=".47"/><path d="M178.5 80.3c.46 5.45 5.73 29.53 7.98 34.2 3.1 6.44 8.21 13.6 17.05 22.78M119.8 84.06c-.12 9.8-.12 29.96 2.63 37.47 2.75 7.51 11.33 30.59 11.33 30.59M141.53 105.89c.02 3.29.37 14.1.27 16.81-.26 7.4 6.19 6.73 8.06 3.75.93-1.48 2.03-7.12 2.67-9.49.64-2.37-.81-8.13-1.52-10.19-1.84-5.35-9.51-4.95-9.49-.88h.01ZM21.76 152.12c10-9.15 8.22-31.55 6.93-41.96-1.29-10.41-7.89-16.17-11.73-20.42-3.84-4.25-9.73-6.85-9.87-12.48-.14-5.63 4.11-23.7 6.58-25.03C11.55 47.36 3.33 38.04 0 36.08" stroke-width=".47"/><path d="M14.4 87.29c1.87 7.11 5.66 27.66 2.69 36.57-2.47 7.4-10.49 13.29-17.1 14.66" stroke-width=".47"/><path d="M57.02 116.35c-.49 2.21 0 14 0 14 1.7.64 5.17.27 7.09 0 .82-2.1 1.37-9.68 1.19-13.38M72.56 116.35c-.2.87.43 3.29 2.13 3.8 2.62.12 5.78.16 8.28 0 1.15-1.39 2.66-5.22 2.24-7.76M93.93 106.84c-.09 1.66-.38 8.99 0 12 .7.48 4.03.59 5.46.28 1.23-4.12.43-12.83-1.15-16.32M49.2 114.4c.07 9.12-2.15 23.42-10.69 37.72" stroke-width=".4"/><path d="m143.14 127.4-.46 4.4c.69.74 3.25.64 3.98.25l.25-3.6M152.63 114.08c10.08-.44 21.63-.63 29.22-.16M141.72 114.69c-4.49.32-7.86.67-9.16.98M151.28 122.17c4.34 6.43 18.47 29.95 18.47 29.95M141.82 120.76c-3.3.28-6.31.84-7.23 1.64M152.63 116.5c2.73 3.6 22.93 31.37 24.64 35.63" stroke-width=".23"/><path d="M168.93 113.65c4.02 2.43 28.69 29.29 34.6 38.47M140.19 100a3.97 3.97 0 1 0 0-7.94 3.97 3.97 0 0 0 0 7.94ZM154.719 99.407c2.051-.285 3.47-2.276 3.168-4.448-.302-2.172-2.209-3.701-4.261-3.416-2.051.285-3.469 2.276-3.168 4.448.302 2.172 2.21 3.701 4.261 3.416ZM169.791 98.86c1.899-.826 2.73-3.126 1.856-5.136-.875-2.011-3.123-2.972-5.022-2.146-1.9.826-2.731 3.126-1.856 5.136.874 2.01 3.122 2.971 5.022 2.146ZM160.52 127.31c-.53-2.3 6.09-5.46 15.02-1.86 4.6 1.86 6.93 5.11 7.15 8.25 2.74 1.25 6.78 4.82 7.74 8.58 2.77 1.05 7.59 5 8.47 9.52" stroke-width=".23"/></g><defs><clipPath id="a"><path fill="#fff" d="M0 0h203.52v152.12H0z"/></clipPath></defs></svg>