<svg fill="none" viewBox="0 0 501 353" xmlns="http://www.w3.org/2000/svg"><path stroke="#fff" d="M325.751 81.035c-19.842-13.426-30.292-21.36-55.556-28.282-33.239-7.904-62.055-4.768-85.858 0-28.33 9.222-39.013 17.776-58.586 29.292"/><path stroke="#fff" d="M347.973 106.289c-23.177-22.491-35.936-35.238-76.767-46.464-37.244-8.647-58.87-7.71-97.98 3.03-26.086 8.12-38.425 16.325-62.626 36.363"/><path stroke="#fff" d="M296.458 302.249c40.749-26.065 64.131-45.363 74.085-76.323 8.022-24.952 5.444-52.269-1.92-77.423-7.531-25.72-20.734-46.536-49.943-74.536-30.925-25.78-52.235-30.13-92.929-31.313-27.302.87-46.063 4.083-64.712 13.777-24.138 12.548-43.788 32.72-59.409 54.992-7.774 11.085-14.572 24.624-21.334 47.392-15.185 77.23 9.516 109.335 73.738 144.444"/><path fill="#fff" d="m374.237 89.118.357-.35.006.005zm-104.04-53.535.067-.495.012.001.012.003zM42.924 239.623l-.467.179-.01-.029-.008-.03zM.446 253.251a.5.5 0 1 1 .108-.994l-.054.497zM143.132 48.769l.199.458zm-92.088 76.805.43.253zm3.868 145.401.467-.179zm-1.514 1.191-.278.415zm358.794-55.319.165.472zm-1.315-1.135-.493-.08zm89.623-29.624.164.472-88.307 30.759-.165-.472-.164-.473 88.308-30.758zm-89.623 29.624-.493-.08c5.378-33.31 4.565-56.068-1.725-74.871s-18.078-33.712-34.784-51.299l.362-.344.363-.344c16.728 17.61 28.644 32.65 35.007 51.67s7.154 41.961 1.764 75.348zm-36.64-126.594-.356.35c-17.475-17.778-32.175-29.04-48.111-36.9-15.941-7.862-33.148-12.334-55.664-16.493l.091-.492.091-.491c22.545 4.164 39.859 8.656 55.924 16.579 16.068 7.925 30.858 19.267 48.382 37.096zm-104.04-53.535-.067.496c-51.432-6.911-86.155-4.475-126.799 13.148l-.199-.458-.199-.46c40.86-17.716 75.779-20.148 127.331-13.221zM51.044 125.574l.43.253c-17.735 30.211-20.899 61.888-8.064 113.676l-.486.12-.485.12c-12.872-51.94-9.739-83.91 8.173-114.422zm-8.12 114.049.467-.179 11.988 31.352-.467.179-.467.178-11.988-31.351zm10.474 32.543-.278.415c-8.813-5.905-16.143-10.096-24.18-13.132s-16.804-4.923-28.494-6.198l.054-.497.054-.497c11.744 1.281 20.599 3.183 28.739 6.257 8.138 3.074 15.54 7.311 24.384 13.236zm89.734-223.397.199.458c-37.244 16.15-71.335 41.646-91.856 76.6l-.431-.253-.431-.253c20.656-35.186 54.942-60.803 92.32-77.011zm-88.22 222.206.467-.179c.53 1.386-1.052 2.594-2.259 1.785l.278-.415.279-.416c.422.283.938-.151.768-.597zm357.28-54.128.165.472c-1.097.382-2.151-.587-1.973-1.687l.493.08.494.08c-.064.399.32.7.657.582z"/><path stroke="#fff" d="M231.293 116.891c-28.163 0-56.966 10.448-78.722 27.494-21.757 17.047-36.419 40.653-36.419 66.955 0 26.311 13.664 48.903 34.404 64.933 20.744 16.032 48.54 25.476 76.714 25.476 28.162 0 56.208-10.446 77.207-27.489s34.917-40.647 34.917-66.96c0-52.623-51.709-90.409-108.101-90.409Z"/><path stroke="#fff" d="M230.192 82.548c-35.55 0-71.905 13.41-99.367 35.292s-45.986 52.196-45.986 85.99c0 33.804 17.264 62.819 43.447 83.398 26.187 20.582 61.273 32.703 96.833 32.703 35.548 0 70.949-13.408 97.457-35.286 26.508-21.877 44.091-52.191 44.091-85.996 0-67.608-65.314-116.1-136.475-116.1Z"/><path stroke="#fff" d="M89.389 134.573c16.827-26.151 28.426-38.818 56.566-54.546 49.271-23.187 77.961-24.821 130.303-12.12 43.346 13.688 61.698 29.5 87.878 66.666"/></svg>