<svg fill="none" viewBox="0 0 500 327" xmlns="http://www.w3.org/2000/svg"><g clip-path="url(#all-HpolaMLT_svg__a)"><path stroke="#878787" d="M300 170c61.077 5.794 101.765 11.555 200.5 32M.5 277.5c196.147-11.903 305.041-3.167 498 30.5"/><path stroke="#878787" stroke-width="1.5" d="M228.5 283.5c-14.92 17.035-21.07 26.53-28 43.5M417 303c-4.765 7.747-7.321 13.109-9 23.5m-381-40c-13.126 12.964-18.716 20.417-26.5 34"/><path stroke="#878787" d="M-1.5 132c191.153-14.334 300.419-10.771 501 28m-500 10c95.602-8.663 148.836-8.857 250-5.5"/><path stroke="#878787" stroke-width="1.5" d="M35.5 194.5c7.88 14.291 10.17 20.557 11.5 29m90-29c7.881 14.291 10.171 20.557 11.5 29M367 212c7.881 14.291 10.171 20.557 11.5 29m76.5-14c7.881 14.291 10.171 20.557 11.5 29"/><path fill="#FFD60A" fill-rule="evenodd" d="M296.265 237.19c6.91-5.127 11.671-11.799 14.458-19.965a42.503 42.503 0 0 0-13.091-46.437 42.497 42.497 0 0 0-48.057-4.28 42.497 42.497 0 0 0-21.09 43.394c1.254 8.229 6.957 16.283 12.924 22.683l-4.301-.297c-5.345-6.174-10.356-13.843-11.589-21.934a45.506 45.506 0 0 1 49.017-52.175 45.5 45.5 0 0 1 39.026 60.015c-2.663 7.804-7.041 14.376-13.249 19.616l-3.997-.55-.051-.07Z" clip-rule="evenodd"/><path stroke="#878787" d="M.5 232c220.463-9.241 325.594 3.509 501 38M-2 104c230.792-22.838 346.26-5.759 503.5 23.5"/></g><defs><clipPath id="all-HpolaMLT_svg__a"><path fill="#fff" d="M0 0h500v327H0z"/></clipPath></defs></svg>