<svg width="2000" height="1500" fill="none" xmlns="http://www.w3.org/2000/svg"><g clip-path="url(#a)" stroke="#fff" stroke-miterlimit="10" stroke-linecap="round" stroke-linejoin="round"><path d="M0 77.8c42.1 50.7 204.5 275.9 218.6 294.7 14.1 18.8 60.8 21.5 80.1 21.5 54.5-33.5 92.1-46 156.5-46.5 64.4-.4 197.2 4 241.4 10.3 44.3 6.3 89 27.7 120.3 41.1 119.4 5.8 754.2 21.5 903.5 37.1 5.2-6.1 16-7.1 32.5-6.9 16.5.2 40.2-2.2 51-9.6 10.8-7.4 151-178.2 196.1-225.6M377.6 415c186.3-20.3 318.7 85.7 343.3 238.8C745.4 806.9 595.5 947.4 528.7 957c-66.8 9.7-169.1 16.1-200.5 16.9-31.4.8-238.9-65.8-222.2-273.7C118.1 550.5 234.8 430.5 377.6 415Z" stroke-width="4.618"/><path d="M258.9 652.3c.7-11.4 19.3-54.3 152.8-70.3 121.8-14.6 154.6 6.1 170.7 15 14.3 7.9 33.7 10.5 48.1 23.1 4.1 3.6 10 4.4 14.7 1.7 15.4-8.9 8.1-29.8-9.6-51.2-20.7-25-70.3-44.6-85-63.6-14.7-19-79.3-46.4-145.7-37.9-66.4 8.6-118.6 32.1-127.5 57.1-8.9 25-61.4 54.3-70.7 71.1-9.3 16.8-36.1 51.4-13.2 67.8 19 13.6 51.5-3.5 65.4-12.8ZM366.7 902c-1.2-24 2.5-53.5-36.5-80.4-39-26.9-93.3-36.9-119.4-36.9-26.1 0-23.2 25.7-2.9 47.7 20.3 21.9 97 110.6 158.8 69.6ZM510.5 887c7.9-46.4 59.1-131.1 115.6-144.7 32.7-7.9 46.8 5.4 27.5 39.8-19.3 34.4-102.5 140.2-143.1 104.9ZM733.9 651c-5.6-2.7-10.6-5.3-14.9-7.6M696.8 574.8c14.7-26 110.6-59.2 169.7-58.6 59.1.6 337.2 9.7 375.9 13.3 38.6 3.6 109.2 51.9 118.8 63.9 9.7 12.1 28.3 48.9 28.3 59.1 0 10.2-73 58.5-131.5 66.4-58.5 7.8-374.8-12.7-406-21.7-18.6-5.3-38.1-12.2-56.8-19.4M1221.9 923c46.4-15.7 536.2.7 583.3 0 47.1-.7 113.3-99.5 113.7-134.7.5-38.3-3.6-66-3.6-66" stroke-width="4.618"/><path d="M720.6 723.9c55.3 7.2 378.5 34.4 560.6 20.8 94.8-7.1 289.5-24.2 404-27.9 99.1-3.2 244.8 6.5 259.5 7.1 30.6 1.2 55.3-29.4 55.3-29.4M1720.3 436.1c24 16 75.3 37.7 103.7 42.5 28.4 4.8 115.5 20.7 115.5 20.7 8.6-28.4 60.5-81.3 60.5-81.3M1939.5 499.3c16.6-.8 52.1 19.4 60.5 25.1M298.6 394c-44.8 28.6-182.1 58.5-199.2 63.7C82.3 462.9 0 495.8 0 495.8" stroke-width="4.618"/><path d="M99.4 457.7C93.8 428.2 29.4 357.1 0 328" stroke-width="4.618"/><path d="M166.3 538.8c-38.1-1.7-166.3 5-166.3 5M0 609.5l12.8 21.3c28.4.9 107.3-1.6 107.3-1.6" stroke-width="2.427"/><path d="M720.9 653.8c11.6-3.5 54.2-8.8 65.2-8.3s20 30.5 2.9 37.2c-17.2 6.7-37.6 9.7-65.5 12M1281.2 744.8c-2.3 31.6-21.7 159.4-78.7 195.4-57.1 35.9-130.7 39.9-196.3 36.5-65.6-3.4-158-12.6-196.3-45.6-38.2-33.1-70.7-28-102.1-27.4-31.4.6-59.5.4-89.1-.1" stroke-width="4.618"/><path d="M759.7 905.3c-18.8-22.2-39.7-117.4-41.2-169.7M812.9 933.4c1.6 25.5 4.5 83.1 23 106.8 30.4 39.1 34.5 54.5 36.3 109.9 2.5 76.3 2.7 167.6 10.9 215.7 8.2 48.1 24.5 61.8 40 63.6 15.4 1.8 161.2 6.4 176.2 5 15-1.4 22.3-17.7 28.2-35.9 5.9-18.2 15.4-63.1 16.8-121.3 1.4-58.1-1.8-129.1 0-148.1 4.1-44.1 40-85.8 47.2-103.6 7.3-17.7 15.8-88.9 15.8-88.9" stroke-width="4.618"/><path d="M829.9 1030.3c2.5 86.3 12 399.3 18.9 420.9 6.9 21.6 56.2 48.8 161.3 48.8 105.1 0 156.3-19.4 159.5-44.9 3.3-25.5 11.4-360.5 17.7-421.3M848.2 1448.8l3.3 51.2M1168 1460.8v39.2" stroke-width="4.618"/><path d="M1180.5 1500c-13.7-47.3-7.7-198.9 20.8-248 21.4-36.8 81.1-18.1 89.7 4.7 14.8 39.8 41.6 164 49.3 243.2" stroke-width="4.618"/><path d="M1274.4 1240.1c6.5-20.7 27.3-43.8 143.6-56 116.4-12.2 204.2-8 345 35.3 61.6 19 87.9 62.9 105.1 95.6 17.2 32.7 56.4 118.9 83.1 185" stroke-width="4.618"/><path d="M1825.8 1255.7c32.7-7.8 100.7-1.3 174.2 59.3M812.9 1500c-.6-63-10.3-138.5-29.9-170.8-23.1-38-87.5-18.7-96.7 4.9-11.1 28.4-28.3 98.4-40.6 165.9" stroke-width="4.618"/><path d="M704.1 1316.9c-7-21.3-29.4-45.2-154.9-57.7s-220.3-8.3-372 36.4c-66.5 19.6-94.8 64.9-113.3 98.6-11.3 20.5-31.4 61.5-51.9 105.9" stroke-width="4.618"/><path d="M109.4 1333c-23.1-5.3-62.6-4.2-109.4 14.8M2000 1263c-32.3-17.9-85.3-40-97.6-84.9-12.3-44.9-9.3-140.8-9.3-188.5" stroke-width="4.618"/><path d="M1770.9 922.6c66.4 33 166.1 88.3 229.1 142.4M0 1035.5c40.1-29.3 134.8-96.5 192-126" stroke-width="4.618"/><path d="M119.8 952.6c1 49.9 2.4 163.6-18.8 198.1-21.3 34.5-67 57.2-101 76.3M612.1 994.5c20 0 65.4.9 74.5 1.4 23.9 1.5 18.1 71.4-4.5 71.4s-65-1.1-74.9-1.8c-21.4-1.7-17.7-71 4.9-71ZM817 979.8c-8.2-.4-28-2.1-37.7 3.5-11.7 6.7-14.8 71.6-9.2 78.1 8.6 9.8 40.6 7.2 48.2 3.8 7.6-3.4 8.6-33.8 6.7-47.4M410.8 969.1l-48.1 58.7-46.4 203h100s47.2-224.5 50.1-266.5" stroke-width="4.618"/><path d="M186 912.7c25.6 46.4 54.9 118.4 52.5 174.7-2.3 56.2-113.1 209.8-155.3 242.9M134.9 1314c74.4-76.6 176.9-257.8 193.3-340M311.4 1263.8c11.5-22.3 59.9-34.2 104.9-32.9 44.9 1.2 66.6-25.7 79.5-63.8 12.9-38.1 24-101.9 53.9-111.9s44.5-7.5 44.5-7.5M699.8 1045.1c18.1.7 51.5 7.7 52.6 33.5 1.2 25.8-11.4 80.9-13.3 100.2-1.9 19.3 8.1 31.5 31.5 32s42.9-1 51 15.2c8.1 16.2-19.3 92.7-25 137.4M1204.4 958.9c50.1.4 217-.5 243-.1s45.3 14.3 68.6 34.9c23.3 20.6 144 127.2 156.1 139.4 18 18 22.5 45.2 23.9 67.6M2000 594c-23-6-145.6-10.4-175.7-11.6-30.1-1.2-47.8 27.3-61.4 52.2 5.2 12.9 24.9 12.9 43 14.5 18.1 1.6 173.5 11.2 179.5 11.2 11.5 0 14.7-8.8 14.7-8.8M241.2 565.7c6.4 7.4 19.2 26.4 26.1 36.8 2.3 3.5.5 8.2-3.6 9.2-26.6 6.5-53.5 6.9-70.4 8.5M901.4 524.9l-11.5 169.7 316.1 18 12.7-175-317.3-12.7ZM901.4 524.9c-53.9 0-95 25.3-120.9 41.5-20.6 12.8-31.5 40.9-35.2 52-.9 2.8-.1 5.8 2 7.8l20.8 19.3M798.5 666.3c11.7 11.3 43.6 23.2 91.4 28.3" stroke-width="2.427"/><path d="M1206 712.6c35 1.8 65.3-3 97.8-16 27.3-10.9 50.7-24.9 67.2-36.6 5.2-3.6 7.1-10.4 4.6-16.2-7.3-17.3-18-38.2-25.9-46.5-9.5-10-67.1-57.3-131.1-59.8M716.4 528c-15-4.3-36.8-11.3-42.3-17.1-8.7-9.1-22.4-31.1-20.4-65.4 2-34.4 22.4-63.8 62.6-62.1 40.2 1.6 137.5 53.9 130.1 73.3-7.5 19.5-40.6 41.8-70 51.4-16.8 5.3-39.2 13.7-60 19.9Zm0 0c-15.8 4.7-30.7 8.1-41.6 8.1M268 449.6c-5.3-5.3-4.6-17.7 9.8-28.7s76.6-46 114.7-44.3c38.1 1.7 78.1 39 78.1 39M495.6 477.2c-1.7 13.8-3.6 25.5-25 32.4-21.4 6.9-51.3 9.9-70.2 6.7-18.9-3.2-62.8-16.3-82.8-23.8" stroke-width="2.427"/><path d="M412.4 380.4c38.2-9.5 233.7-8.3 280.3 6M674.1 510.9c-5.7-.6-11.7-1-20-1.4M551.2 507.6c-39.1.1-73.5 1-82.4 2.6M1386.8 641.5c174.6-14 352.7-27 379.2-12.6M258.9 652.3c-.1 33.1 9.8 115.9 84.2 157 19.1 10.5 109.9 3 134.5-6.5 24.6-9.5 57.7-65.5 65.7-90.2 8-24.7 17.5-113.3 39.1-115.7M385.4 824c7.1 10.7 16.4 21.8 15.1 35.1-1.3 13.3.1 35 .1 35 18.5 1.5 48.3-2.2 59.4-6.6 3.6-12.9 9.8-49.2 0-70.4-6.2-2.7-59 3.8-74.6 6.9Z" stroke-width="2.427"/><path d="M533.2 735.6c40.4-14.6 81.2-28.5 90.5-36.5 9.3-8 21-42.2 19-76.1M210.2 670.2c-26.4 2.5-27.8 22.4-28.3 35.5-.5 13.1 2.4 36 23.5 39.8 21.1 3.8 62.2 9.7 84.1 14.2M1817.1 946.4c-40.2 51.9-59.6 150.7-49.9 188.9 9.7 38.1 34.9 79 77.5 117.9" stroke-width="2.427"/><path d="M1687.1 920.7c-10.3 69.2-14.2 166.7 20.7 216.4 34.9 49.7 72.4 83.6 102.4 105.4" stroke-width="2.427"/></g><defs><clipPath id="a"><path fill="#fff" d="M0 0h2000v1500H0z"/></clipPath></defs></svg>