<svg fill="none" viewBox="0 0 414 239" xmlns="http://www.w3.org/2000/svg"><path stroke="#fff" stroke-width="2" d="M154 51.319c13.988-9.052 21.355-14.4 39.167-19.068 23.433-5.328 43.749-3.214 60.53 0C273.67 38.47 281.201 44.236 295 52"/><path stroke="#fff" stroke-width="2" d="M138 70c16.404-15.913 25.434-24.932 54.332-32.874 26.359-6.118 41.664-5.455 69.345 2.144 18.462 5.744 27.195 11.55 44.323 25.727"/><path stroke="#fff" stroke-width="2" d="M174.6 209.283c-24.024-15.38-39.538-27.441-48.145-43.695-12.255-23.144-9.438-52.056.758-76.178 5.799-13.719 15.101-26.328 31.625-42.181C180.773 28.928 195.888 25.84 224.753 25c14.108.45 25.001 1.783 34.99 5.134 25.791 8.654 46.771 29.629 59.16 53.848 3.119 6.098 6.074 13.553 9.02 23.479 10.77 54.825-6.75 77.616-52.302 102.539"/><path fill="#fff" d="m119.394 58.366-1.425-1.404-.012.013-.012.012zm73.661-37.834-.266-1.982-.049.007-.048.009zM353.964 164.73l1.867.716.044-.115.03-.119zm30.252 11.268a1.999 1.999 0 1 0-.432-3.976zm-28.578-75.618-1.901.622zm-9.826 85.631 1.868.716zm1.512 1.201 1.104 1.668zm-255.267-38.74.657-1.889zm1.317-1.131 1.975-.316zm-64.03-18.556L91.4 150.361l1.313-3.779-62.057-21.576-1.314 3.778Zm66.005 18.24c-3.713-23.228-3.064-38.908 1.28-51.773 4.346-12.869 12.464-23.16 24.214-35.507l-2.898-2.757c-11.839 12.44-20.469 23.254-25.105 36.984-4.638 13.734-5.204 30.147-1.441 53.685zm25.47-87.255c12.29-12.48 22.551-20.308 33.617-25.756 11.082-5.456 23.088-8.583 38.981-11.514l-.725-3.933c-16.011 2.951-28.445 6.158-40.023 11.858-11.593 5.707-22.211 13.855-34.7 26.538zm72.501-37.254c29.089-3.902 50.423-3.546 72.361 3.07l1.155-3.83c-22.688-6.842-44.651-7.148-74.047-3.205zM353.737 101c5.443 16.652 5.098 35.809-1.714 63.246l3.882.964c6.902-27.801 7.405-47.799 1.634-65.453zm-1.641 63.013-8.152 21.281 3.736 1.431 8.151-21.281zm-3.668 24.865c5.972-3.952 10.936-6.72 16.364-8.727 5.427-2.006 11.405-3.282 19.424-4.155l-.432-3.976c-8.227.895-14.549 2.224-20.379 4.379-5.829 2.155-11.08 5.103-17.184 9.143zM265.681 25.585c38.586 11.637 75.708 37.639 88.056 75.416l3.802-1.243c-12.913-39.504-51.448-66.164-90.703-78.003zm78.263 159.71c-1.065 2.781 2.087 5.17 4.484 3.584l-2.207-3.336a1 1 0 0 1 1.151.046c.275.218.484.676.308 1.137zM91.401 150.361c2.225.773 4.293-1.177 3.948-3.337l-3.95.632c-.106-.661.524-1.349 1.315-1.074z"/><path stroke="#fff" stroke-width="2" d="M301 144.435c0 18.066-9.418 33.666-23.906 44.812C262.592 200.403 243.115 207 223.359 207c-19.708 0-39.357-7.284-54.056-19.158S145 159.639 145 141.565C145 105.427 180.793 79 220.489 79c19.714 0 39.912 7.288 55.159 19.18C290.898 110.073 301 126.402 301 144.435Z"/><path stroke="#fff" stroke-width="2" d="M323 138.848c0 23.509-11.897 43.758-30.101 58.187C274.681 211.474 250.234 220 225.448 220c-24.735 0-49.399-9.417-67.861-24.783C139.128 179.854 127 158.668 127 135.152 127 88.13 172.136 54 221.861 54c24.743 0 50.09 9.422 69.234 24.805S323 115.372 323 138.848Z"/><path stroke="#fff" stroke-width="2" d="M321 90c-11.942-18.588-20.175-27.591-40.147-38.77-34.97-16.482-55.333-17.643-92.482-8.616C157.607 52.344 144.581 63.582 126 90"/></svg>