<svg fill="none" viewBox="0 0 434 251" xmlns="http://www.w3.org/2000/svg"><path stroke="#fff" stroke-width="2" d="M282.342 43.416C265.179 31.802 256.14 24.94 234.286 18.95c-28.752-6.837-53.677-4.124-74.267 0-24.506 7.977-33.746 15.376-50.677 25.338"/><path stroke="#fff" stroke-width="2" d="M301.565 65.26c-20.049-19.455-31.086-30.48-66.404-40.191-32.216-7.48-50.922-6.67-84.753 2.62-22.564 7.025-33.238 14.122-54.172 31.455"/><path stroke="#fff" stroke-width="2" d="M257.004 234.765c33.003-21.11 52.836-37.088 62.296-61.021 9.635-24.374 6.925-52.211-1.471-77.04-6.758-19.987-18.284-37.048-41.603-59.403-26.75-22.3-45.184-26.061-80.384-27.086-21.199.676-36.445 2.985-51.012 9.516-24.823 11.129-44.986 31.495-59.4 54.568-5.486 8.783-10.457 19.732-15.406 36.396-13.135 66.804 8.23 94.575 63.783 124.944"/><path fill="#fff" d="m324.283 50.407.713-.7.006.005.006.006zM234.288 4.1l.133-.991.024.003.025.004zM37.698 180.594l-.935.357-.022-.057-.015-.059zM.891 192.947a1 1 0 0 1 .216-1.988l-.108.994zm47.02 14.362-.934.358zm-1.513 1.195.555-.832zm310.93-47.686.329.944zm-1.316-1.133.987.158zm77.487-25.399.329.945-76.171 26.531-.329-.944-.329-.945 76.171-26.531zm-77.487 25.399-.987-.159c4.61-28.685 3.877-48.219-1.528-64.33-5.406-16.113-15.521-28.92-29.94-44.1l.725-.689.725-.689c14.463 15.227 24.836 28.297 30.386 44.841 5.551 16.546 6.242 36.447 1.606 65.284zm-31.73-109.278-.713.701c-15.087-15.35-27.752-25.046-41.463-31.808-13.718-6.766-28.541-10.623-48.001-14.217l.182-.983.182-.984c19.518 3.606 34.556 7.502 48.522 14.39 13.974 6.892 26.817 16.75 42.004 32.2zM234.288 4.1l-.133.99C192.966-.443 164.252.97 132.38 13.3l-.361-.933-.36-.932C163.948-1.058 193.03-2.453 234.421 3.109zM40.798 89.214l.898.441C29.96 113.55 28.6 139.731 38.668 180.354l-.97.24-.972.241c-10.129-40.871-8.847-67.584 3.175-92.062zm-3.1 91.38.933-.357 10.215 26.715-.934.357-.934.358-10.215-26.716zm8.7 27.91-.554.832c-7.507-5.01-13.757-8.554-20.607-11.122s-14.342-4.177-24.345-5.267l.108-.994.108-.994c10.11 1.102 17.778 2.738 24.831 5.382s13.446 6.28 21.015 11.331zM132.02 12.367l.361.933C94.6 27.917 59.478 53.45 41.696 89.655l-.898-.44-.897-.442c18.074-36.8 53.683-62.608 91.758-77.338zM47.912 207.31l.934-.357c.708 1.852-1.4 3.454-3.002 2.384l.555-.832.555-.832.012.007q.002.001 0 0l-.01-.001.003-.001.014-.008.011-.011q.002-.003 0 .003l-.003.015v.002l-.003-.011zm309.417-46.491.329.944c-1.475.514-2.866-.784-2.632-2.236l.987.159.987.158v.009l.001.003q.002.006.011.016.011.006.003.003l-.012-.001H357z"/><path stroke="#fff" stroke-width="2" d="M200.636 74.998c-24.229 0-49.021 8.992-67.744 23.662-18.725 14.672-31.285 34.94-31.285 57.469 0 22.547 11.706 41.935 29.54 55.718 17.839 13.788 41.759 21.919 66.009 21.919 24.226 0 48.36-8.989 66.427-23.651 18.066-14.662 29.993-34.931 29.993-57.481 0-45.095-44.351-77.636-92.94-77.636Z"/><path stroke="#fff" stroke-width="2" d="M199.684 45.292c-30.616 0-61.939 11.552-85.599 30.404s-39.564 44.923-39.564 73.938c0 29.031 14.824 53.976 37.365 71.693 22.548 17.722 52.772 28.166 83.409 28.166 30.612 0 61.107-11.549 83.94-30.393 22.83-18.842 37.932-44.914 37.932-73.949 0-58.064-56.129-99.86-117.483-99.86Z"/><path stroke="#fff" stroke-width="2" d="M77.89 89.726c14.554-22.62 24.587-33.578 48.928-47.182 42.62-20.057 67.437-21.471 112.712-10.485 37.495 11.84 53.37 25.518 76.016 57.667"/></svg>