<svg fill="none" viewBox="0 0 501 353" xmlns="http://www.w3.org/2000/svg"><path stroke="#fff" stroke-width=".5" d="M325.501 81.035c-19.842-13.426-30.292-21.36-55.556-28.282-33.239-7.904-62.055-4.768-85.858 0-28.33 9.222-39.013 17.776-58.586 29.292"/><path stroke="#fff" stroke-width=".5" d="M347.723 106.289c-23.177-22.491-35.936-35.238-76.767-46.464-37.244-8.647-58.87-7.71-97.98 3.03-26.086 8.12-38.425 16.325-62.626 36.363"/><path stroke="#fff" stroke-width=".5" d="M296.208 302.249c40.749-26.065 64.131-45.363 74.085-76.323 8.022-24.952 5.444-52.269-1.92-77.423-7.531-25.72-20.734-46.536-49.943-74.536-30.925-25.78-52.235-30.13-92.929-31.313-27.302.87-46.063 4.083-64.712 13.777-24.138 12.548-43.788 32.72-59.409 54.992-7.774 11.085-14.572 24.624-21.334 47.392-15.185 77.23 9.516 109.335 73.738 144.444"/><path fill="#fff" d="m373.987 89.118.179-.175.003.003zm-104.04-53.535.033-.248.012.002zM42.674 239.623l-.233.089-.006-.014-.003-.015zM.223 253.003a.25.25 0 0 1 .054-.497l-.027.248zM142.882 48.769l.099.229zm-92.088 76.805.215.127zm3.868 145.401.233-.09zm-1.514 1.191-.139.207zm358.794-55.319.082.236zm-1.315-1.135-.246-.04zm89.623-29.624.082.236-88.308 30.759-.082-.236-.082-.237 88.308-30.758zm-89.623 29.624-.246-.04c5.381-33.329 4.574-56.133-1.735-74.99-6.309-18.858-18.129-33.799-34.84-51.392l.181-.172.182-.172c16.722 17.604 28.606 32.611 34.951 51.577s7.141 41.862 1.754 75.229zm-36.64-126.594-.178.175c-17.487-17.79-32.209-29.074-48.179-36.95-15.971-7.877-33.205-12.354-55.728-16.514l.045-.246.045-.245c22.539 4.163 39.826 8.65 55.859 16.557 16.036 7.908 30.803 19.231 48.315 37.048zm-104.04-53.535-.033.248c-51.462-6.915-86.235-4.48-126.933 13.167l-.099-.23-.1-.229c40.806-17.694 75.677-20.126 127.198-13.203zM50.794 125.574l.215.127c-17.78 30.285-20.936 62.036-8.092 113.862l-.243.06-.242.06c-12.863-51.902-9.722-83.799 8.146-114.235zm-8.12 114.049.234-.089 11.987 31.351-.233.09-.234.089-11.987-31.352zm10.474 32.543-.139.207c-8.82-5.91-16.169-10.112-24.231-13.157s-16.851-4.937-28.555-6.213l.027-.249.027-.248c11.73 1.279 20.563 3.177 28.677 6.242s15.498 7.29 24.334 13.21zm89.734-223.397.099.229c-37.277 16.164-71.417 41.69-91.972 76.703l-.215-.127-.216-.126c20.623-35.129 54.86-60.716 92.204-76.909zm-88.22 222.206.233-.09c.44 1.151-.875 2.165-1.886 1.488l.14-.207.139-.208c.618.414 1.4-.213 1.14-.894zm357.28-54.128.082.236c-.906.315-1.793-.486-1.643-1.411l.246.04.247.04c-.092.574.459 1.042.986.858z"/><path stroke="#fff" stroke-width=".5" d="M231.043 116.641c-28.222 0-57.078 10.468-78.876 27.548s-36.515 40.751-36.515 67.151c0 26.405 13.715 49.064 34.502 65.13 20.789 16.067 48.639 25.529 76.866 25.529 28.221 0 56.322-10.467 77.365-27.545 21.042-17.077 35.009-40.748 35.009-67.154 0-52.81-51.875-90.659-108.351-90.659Z"/><path stroke="#fff" stroke-width=".5" d="M229.942 82.298c-35.609 0-72.018 13.432-99.522 35.347S84.34 169.94 84.339 203.83c0 33.896 17.312 62.979 43.543 83.595 26.232 20.618 61.373 32.756 96.987 32.756 35.608 0 71.065-13.43 97.616-35.344 26.552-21.913 44.182-52.292 44.182-86.188 0-67.791-65.476-116.35-136.725-116.35Z"/><path stroke="#fff" stroke-width=".5" d="M89.139 134.573c16.827-26.151 28.426-38.818 56.566-54.546 49.271-23.187 77.961-24.821 130.303-12.12 43.346 13.688 61.698 29.5 87.878 66.666"/></svg>