<svg fill="none" viewBox="0 0 204 153" xmlns="http://www.w3.org/2000/svg"><g stroke="#fff" stroke-linecap="round" stroke-linejoin="round"><path stroke-width=".47" d="M172.45 0C180.26 5.96 204 29.18 204 29.18M135.66 0c25.63 19.57 56.05 43.19 68.34 61.81m0 52.27c-2.92 13.39-8.33 30.03-17.93 37.72M128.21 0c12.81 9.36 61.26 46.79 69.67 60.81 8.41 14.01 2.2 24.42 0 31.23s-8.08 34.42-10.41 40.85c-3.4 9.4-13.52 14.65-51.8 19.23"/><path stroke-width=".47" d="M167.38 30.9c-8.57-.73-45.2-8.16-45.2-8.16C116.98 18.18 96.7 0 96.7 0M80.88 0c7.86 5.12 19.75 15.45 19.75 15.45.53 1.67 2.12 11.75 2.12 11.75-4.14-.32-49.16-1.38-49.16-1.38C51.15 20.3 43.29 4.21 42.12-.01m25.99 152.13C63.21 146.14 2.14 0 2.14 0m23.68 152.12c-4.92-10.52-9.69-27.75-10.46-32.37C12.13 109.6.47 87.29.47 87.29m43.58 64.83c-3.95-3.55-5.77-22.14-8.93-29.58S.47 44 .47 44"/><path stroke-width=".47" d="M23.94 51.79c2.31-1.83 2.92-9.08 0-14.31s-7.16-8.91-10.38-10.27M58.99 91.5l.77-4.21-5.62-1.97-2.38 7.15c.56.49 2.02.92 3.15.95"/><path stroke-width=".47" d="M112.92 129.73c.93-3.02 1.33-8.16-.5-10.94-7.13.52-25.64 5.39-32.77 8S66 137.31 66 137.31c-.19 3.35.57 9.58.99 10.38.97 1.8 4.19 2.9 4.19 2.9l31.57-7.06c6.03-5.47 11.64-12.1 11.93-23.19s.18-20.84-11.59-34.5c-2.67-3.1-10.13-1.71-10.13-1.71-3.96-2.03-14.74-2.67-23.07 1.39s-11.74 7.15-16.65 8.43l-4.91-1.07c3.1-4.38 6.3-13.34 3.42-20.49S42.46 57.57 25.8 47.22m84.8.54c-5.28 14.11-5.72 26.18.77 28.77 7.9 3.15 17.7-6.43 22.66-20.66s4.64-26.48-3.26-28.66c-6.28-1.74-15.55 8.21-20.17 20.55"/><path stroke-width=".47" d="M116.13 44.95c4.13-8.34 10.38-14.38 13.4-13.51 4.16 1.2 4.19 10.77.02 22.72-4.16 11.95-13.3 21.54-17.84 18.66-.58-.37-.85-1.5-1.02-3.1m-.13-4.16c.26-3.73 1.17-8.57 2.87-13.82"/><path stroke-width=".47" d="M131.58 47.21c-3.7-2.15-8.87-2.24-10.69-1.37-2.86 1.37-6.17 8.97-7.02 11.96s-.7 6.89.88 8.71 3.28 2.73 5.11 3.46"/><path stroke-width=".47" d="M119.24 47.21c-1.73-.13-3.42-2.08-3.55-3.58m-.5 10.59c-.21-1.04-1.51-2.73-3.07-3.18m3.78 16.53c-.71 2.39-3.63 4.26-4.6 4.83m3.96-5.36c-1.72.21-4.1 2.11-4.79 2.93m3-6.72c-.29.73-2.79 2.44-3.88 2.73m-8.96-50.53c3.76 3.06 9.72 8.53 10.07 10.39s-6.3 7.62-7.08 10.75 3.51 7.87 6.98 11.17m.1-21.92c5.33 1.17 12.14 3.85 12.14 3.85m14.02 4.91c.88.41 3.59 1.77 3.59 1.77-.39-.9-1.29-4.91 1.74-5 2.18-.07 16.91 4.89 25.66 9.9 3.41 1.95 5.74 5.71 6.32 6.5.9-.95 6.22-3.14 8.43-3.53"/><path stroke-width=".47" d="M170.86 43.63c.35 1.79-5.08 8.44-8.84 10.59-4.34 2.49-6.1 2.23-10.84 0-4.75-2.23-14.61-7.66-14.61-7.66m3.87-10.2c-.74.83-3.13 3.79-3.13 3.79"/><path stroke-width=".47" d="M158.56 55.77c-1.53.22-5.78 2.94-8.19 5.65-2.4 2.71-6.26 6.92-6.72 8.57-.92 3.36 1.97 5.92 5.3 8.26.52 3.75 1.46 8.37 3.47 9.93s25.47 21.91 28.82 23.13 7.81 1.84 11.59.81"/><path stroke-width=".47" d="M193.3 54.89c-1.72 1.05-6.56 6.27-6.56 6.27-2.39-.11-5.39-.44-7.67 1.61-2.28 2.06-14 13.61-15.77 16.22s.89 8.33 3 9.22 7.39 1.11 9.28 0 12.72-13.44 13.11-15.5.61-10.16.61-10.16c2.17-2.89 5.69-5.7 5.69-5.7"/><path stroke-width=".47" d="M167.71 88.62c.76 2.92 8.97 20.29 13.53 22.69m-.44-49.63c-2.07-1.17-14.22-6.14-18.78-7.46"/><path stroke-width=".47" d="M169.83 57.01c-3.24-1.64-15.25 11.1-18 14.91-1.01 1.4-.3 6.77 1.89 8.62-1.46-.43-4.76-2.31-4.76-2.31"/><path stroke-width=".47" d="M163 79.57c-1.2-.7-5.66-3.62-8.05-5.02-.72-.42-.93-1.36-.47-2.06 2.25-3.36 8.71-10.38 12.6-12.98.93-.62 2.1-.79 3.17-.46 4.67 1.42 8.31 4.19 8.31 4.19m-9.48 44.51c.33-1.67-4.5-5.05-6.08-5.59s-5.16 2.88-5.1 5.05 2.85 5.1 4.81 4.78 5.93-2.06 6.36-4.23zm-6.65-11.14c-2.09.71-5.61 4.89-6.43 6.14s-3.09-.87-2.33-2.44 4.23-4.86 6.21-5.85"/><path stroke-width=".47" d="M174.19 106.28c-1.75.06-5.33.52-5.33.52m3.4-2.07c-1.27-.07-4.55.64-4.55.64m-18.22-23.91c-3.54-1.22-11.51-4.53-14.6-5.99s-7-4.64-7-4.64"/><path stroke-width=".47" d="M124.89 71.64c1.81-.14 5.07-1.06 8.21-5.45s6.24-9.22 5.75-11.76-3-4.62-3-4.62m10.74 7.68a43 43 0 0 1 3.78 3.92"/><path stroke-width=".47" d="M137.31 51.35c2.16.92 4.3 2.17 6.37 3.72m-1.319 2.616c-.365-1.071.287-2.264 1.458-2.663 1.171-.4 2.417.145 2.782 1.216.366 1.072-.287 2.264-1.458 2.664-1.17.4-2.416-.145-2.782-1.217"/><path stroke-width=".47" d="M146.6 56.24c.38.63.56 1.58 0 2.66-.11 1.22.31 3.56-.42 4.56s-2.8 1-4.66.76c-.52-.9-.45-2.87 0-3.25.93.11 1.96.1 1.96.1.05-.52 0-1.35 0-1.35-.33-.17-1.64-1.02-1.22-2.46M39.52 0c11.12 22.27 20.57 51.87 22.25 56.31m-22.25.62c7.71-.71 25.88-.43 32 .71s6.91 3.71 6.91 7.92-18.6 3.94-28.27 3.5"/><path stroke-width=".47" d="M73.96 68.3c-.58-2.78-12.73-3.77-27.35-4.38m60.04 4.38c-.51.58-2.67 2.01-6.41 2.52-7.48 1.03-20.49.85-27.88.73m35.76 2.07c-2.03 1.39-5.85 2.25-11.16 2.44s-21.96 0-21.96 0"/><path stroke-width=".47" d="M61.32 69.3c4.88.75 11.79 2.08 13.03 3.1s1.15 3.49 0 4.73c-3.9 1.25-21.5.54-21.5.54m94.86 3.14c-1.69 6.17-5.09 9.1-14.36 10.71s-24.86 1.49-24.86 1.49m1.25-42.86c-2.88 3.84-10.65 11.28-14.9 12.02s-16.59.76-16.59.76"/><path stroke-width=".47" d="M89.51 62.64c-.56-2.2-6.61-3.74-14.58-3.99m-20.16-2.08c-.08-3.48-5.07-12.97-17.99-19.68 0-5.56-3.6-9.65-8.83-13.33.98-6.54-1.79-15.87-5.68-18.4s-10.18-.33-11.41 3.03-1.28 7.24-.84 10.57"/><path stroke-width=".47" d="M25.81 0c2.22 5.98 9.32 25.61 9.32 25.61h-4.51"/><path stroke-width=".23" d="M46.23 56.59c-3.01-3.22-12.61-11.99-20.32-14.33"/><path stroke-width=".23" d="M29.14 43.55c.97-4.12-6.69-22.29-16.72-19.05"/><path stroke-width=".23" d="M11.23 7.44c5.02-2.33 8.62.43 10.04 3.94s3.04 14.84-.44 15.18"/><path stroke-width=".23" d="M27.94 23.56c-2.08-.16-5.43 1.54-6.38 3.64m149.97 112.34c-2.2-3.19-23.25-29.08-26.27-31.02s-10.19 4.33-13.36 5.57-14.04 1.82-16.63 3.48 12.39 28.79 13.85 30.63 3.89 2.63 9.58 1.36 27.16-5.64 29.02-5.93 5.38-1.82 3.82-4.08zM92.97 84.12a47.3 47.3 0 0 1-14.12 8.47c-9.27 3.52-21.82 5.74-28.2 7.34-1.43.85-3 3.8-3.75 5.61m6.33 14.58c9.05-1.23 18.59-3.14 29.49-6.83s21.88-2.84 27.02.38c-.85 2.46-3.28 5.05-5.21 6.36M74 129.88c-5.79.3-11 .16-17.19-1.61"/><path stroke-width=".23" d="M78.85 92.59c1.26 2.75 3.72 16.18 3.87 20.71"/></g></svg>