<svg fill="none" data-name="trunk" viewBox="0 0 500 375" xmlns="http://www.w3.org/2000/svg"><g stroke="#fff" stroke-miterlimit="10"><path stroke-width="1.477" d="M85.948 30.262s-12.483 4.184-18.39 19.935c0 0-30.41 89.094-40.308 127.735 0 0-5.853 50.7 0 69.272 0 0 11.267 39.757 48.184 66.83 0 0 28.058 22.643 62.514 28.057m339.063-73.888c-6.108 13.783-16.662 27.624-34.372 38.936 0 0-45.547 32.487-84.797 34.948M420.42 30.262s20.743 7.137 24.681 29.78l31.911 126.789"/><path stroke-width=".492" d="m150.744 157.992 3.446 9.845-30.519 67.436s-3.445 8.86-15.751 11.813l-26.625 3.717a9.48 9.48 0 0 0-8.324 5.144l-7.383 13.782"/><path stroke-width=".492" d="M154.189 167.837h203.652l4.017-9.845m-4.016 9.848 43.956 128.561"/><path stroke-width="1.477" d="M35.902 147.633S28.178 264.809 94.63 292.374c0 0 17.228 15.259 138.062 14.275l-6.921 18.951h53.437l-5.415-18.951c121.089-1.477 143.624-15.146 143.624-15.146l-55.558-133.509H150.745l-31.011 65.467s-4.43 8.368-20.674 10.829l-21.166 2.462s-5.415-2.462-11.321 8.86l-6.891 13.782m408.013-109.601s9.19 119.199-50.267 141.709"/><path stroke-width=".492" d="m273.805 306.645-4.012 10.829H235.41l-1.969-11.322m1.968 11.328-9.638 8.122m44.02-8.122 9.416 8.122"/><path stroke-width=".492" d="M30.797 164.914S8.474 296.311 115.294 325.599c0 0 63.005 9.707 138.317 9.652 0 0 130.304 2.147 166.798-26.029 0 0 39.285-11.814 56.607-98.013"/><path stroke-width="1.477" d="M24.643 291.504s2.288 38.606 47.456 53.21m404.913-53.21s-9.037 45.497-43.858 53.21"/><path stroke-width=".492" d="M130.562 36.414s-1.969 2.953 12.798 2.46l32.108.055 6.778-4.976s-45.285-3.938-51.684 2.46Zm44.909 2.52 7.27 28.987"/><path stroke-width=".492" d="M182.247 33.953s11.814 17.72 6.892 29.042c0 0-2.841 5.414-10.278 5.907l-48.387 1.107s-2.865.38-2.865-6.02l2.954-27.565"/><path stroke-width=".492" d="M128.456 68.583h-18.143S90.2 85.146 103.49 85.146l107.799-.984s3.446-1.97 3.938-4.923l1.969-12.305h-31.995"/><path stroke-width=".492" d="M101.275 85.144s9.117 6.892 15.516 20.182l33.215 52.669m64.822-77.503L224.663 158m2.858-91.068 2.462 19.69h52.546l2.032-19.69s-.915-18.705-6.822-22.643c0 0-25.734-5.414-44.124 0 0 0-6.098 14.275-6.094 22.643Z"/><path stroke-width=".492" d="M233.617 44.29s2.776 31.01-3.623 42.331M277.74 44.29s-2.722 32.979 4.79 42.331m-55.006-19.687h-10.327m108.709 0h-41.347m42.406-32s1.969 2.954 10.337 2.954l38.394.984s10.337-1.737 0-5.055c0 0-45.778-3.805-48.731 1.117Z"/><path stroke-width=".492" d="M380.255 36.38s4.779 22.18 2.323 30.549c0 0-2.461 2.46-5.907 2.46h-47.806s-8.299-4.921-8.299-12.305c0 0 1.969-19.197 6.399-22.15m-30.868 32 1.821 16.243-8.742 74.82"/><path stroke-width=".492" d="m297.918 83.177 4.548 1.97h105.766l3.047-4.657-9.48-12.572h-20.482m26.915 17.226-46.378 72.851m-326.233 9.846 22.22-9.845 43.424-54.214-2.121-20.25M53.76 91.486l35.505-26.029 21.043 3.126M96.465 30.262l-7.201 35.194"/><path stroke-width=".492" d="M401.799 67.918h25.448l24.518 18.611m-40.486-6.037-1.625 23.854 35.933 52.177 22.614 11.321"/><path stroke-width=".492" d="m417.428 96.3 31.286 43.475 17.056 11.818"/><path stroke-width=".492" d="m417.426 97.137 5.026-10.022-16.249-19.197"/></g></svg>