<svg width="1178" height="725" viewBox="0 0 1178 725" fill="none" xmlns="http://www.w3.org/2000/svg">
<path d="M1177.84 465.31C1177.86 484.939 1175.49 504.497 1170.77 523.55C1169.18 529.97 1167.34 536.257 1165.24 542.41C1162.67 550.006 1159.69 557.456 1156.32 564.73C1154.62 568.41 1152.82 572.017 1150.93 575.55C1150.96 595.679 1146.82 615.595 1138.76 634.04C1124.2 667.135 1098.22 693.894 1065.58 709.44C1045.17 719.179 1022.86 724.3 1000.25 724.44H223.61C189.056 724.514 155.098 715.436 125.19 698.13L124.73 697.87C120.47 695.377 116.317 692.737 112.27 689.95C103.165 683.66 94.6111 676.608 86.7 668.87C75.9924 658.407 66.5572 646.716 58.59 634.04C39.8779 604.328 29.9652 569.924 30 534.81C11.05 501.56 0 461.73 0 418.93C0 364.93 17.56 315.67 46.41 278.38C52.4247 270.59 59.013 263.259 66.12 256.45C73.1324 249.713 80.6694 243.543 88.66 238C95.053 233.561 101.734 229.552 108.66 226C111.55 224.53 114.45 223.14 117.4 221.85C119.99 220.7 122.61 219.63 125.26 218.62C128.44 217.414 131.66 216.304 134.92 215.29C138.18 214.277 141.397 213.39 144.57 212.63C149.237 211.49 153.983 210.564 158.81 209.85C162.81 209.26 166.81 208.85 170.81 208.54C173.99 208.3 177.2 208.17 180.43 208.13H182.18C185.74 208.13 189.28 208.27 192.79 208.51C193.16 207.77 193.56 207.02 193.93 206.29C195.33 203.62 196.78 200.96 198.24 198.36C198.237 198.337 198.237 198.314 198.24 198.29C198.49 197.83 198.74 197.38 199 196.94C200.18 194.81 201.41 192.7 202.67 190.61C203.25 189.61 203.82 188.67 204.41 187.73C204.535 187.497 204.672 187.27 204.82 187.05C205.42 186.05 206.03 185.05 206.65 184.05C209.737 179.117 212.947 174.27 216.28 169.51L217.13 168.29C217.65 167.55 218.13 166.83 218.71 166.09C220.09 164.16 221.51 162.22 222.94 160.32C223.94 158.96 224.94 157.61 226.02 156.32C228.62 152.987 231.287 149.654 234.02 146.32C236.753 142.987 239.593 139.697 242.54 136.45C242.94 136 243.34 135.56 243.76 135.12L248.03 130.46C248.24 130.24 248.42 130.04 248.62 129.84C249.13 129.29 249.62 128.74 250.17 128.21C252.46 125.78 254.81 123.4 257.17 121.03C269.18 109.068 281.976 97.9198 295.47 87.6604C296 87.2404 296.54 86.8404 297.07 86.4404C299.61 84.5304 302.19 82.6404 304.77 80.7804C318.961 70.5999 333.795 61.3473 349.18 53.0804C350.24 52.4704 351.32 51.9004 352.41 51.3404C366.203 44.0435 380.388 37.5136 394.9 31.7804C402.81 28.6504 410.9 25.7104 419.04 23.0204C424.46 21.2404 429.9 19.5504 435.41 17.9604C444.023 15.4804 452.697 13.2571 461.43 11.2904C487.159 5.51726 513.334 1.95097 539.67 0.630405C547.67 0.223738 555.76 0.0137408 563.94 0.000407504C603.41 -0.0518464 642.726 4.92147 680.94 14.8004C681.335 15.3975 681.876 15.8843 682.511 16.2149C683.146 16.5455 683.854 16.7092 684.57 16.6904H687.93C689.39 17.0904 690.84 17.4904 692.3 17.9104C700.453 20.2571 708.49 22.8204 716.41 25.6004L718.41 26.3204C737.958 33.2713 756.977 41.6265 775.32 51.3204C791.855 60.0379 807.775 69.8741 822.97 80.7604C825.31 82.4404 827.617 84.1337 829.89 85.8404C832.65 84.0737 835.457 82.3804 838.31 80.7604C849.329 74.4848 861.032 69.4954 873.19 65.8904C898.608 58.3686 925.502 57.3167 951.43 62.8304C984.68 69.8804 1014.78 87.3804 1039.09 112.27C1048.99 122.454 1057.8 133.641 1065.38 145.65C1065.93 146.51 1066.48 147.38 1067.01 148.26C1073.53 158.889 1079.13 170.053 1083.75 181.63C1083.92 182.06 1084.09 182.46 1084.24 182.88C1088.51 193.722 1091.95 204.87 1094.54 216.23C1094.66 216.81 1094.8 217.38 1094.92 217.96C1097.34 228.955 1098.98 240.105 1099.84 251.33C1099.84 251.73 1099.84 252.14 1099.92 252.56C1100.34 258.367 1100.55 264.234 1100.56 270.16C1100.56 275.46 1100.38 280.72 1100.05 285.94C1100.05 286.51 1099.97 287.1 1099.92 287.69C1099.83 289.2 1099.7 290.69 1099.57 292.21C1107.21 298.371 1114.36 305.115 1120.95 312.38C1123.86 315.56 1126.68 318.86 1129.41 322.28C1137.72 332.69 1145.01 343.863 1151.21 355.65C1168.12 387.57 1177.84 425.12 1177.84 465.31Z" fill="#E4E4E5"/>
<path opacity="0.1" d="M1064.84 705.741C1064.84 712.571 1041.31 718.971 1000.25 724.471H223.61C189.056 724.544 155.098 715.467 125.19 698.161L124.73 697.901C136.53 693.601 157.83 689.591 186.82 685.971L188.12 685.811C201.12 684.221 215.65 682.711 231.53 681.281C231.93 681.281 232.34 681.221 232.74 681.171C245.34 680.051 258.743 679.001 272.95 678.021C273.4 678.021 273.84 677.941 274.29 677.921C279.77 677.527 285.363 677.154 291.07 676.801L293.27 676.661C334.82 674.081 382.05 672.021 433.27 670.661H433.33C440.503 670.461 447.753 670.284 455.08 670.131C463.227 669.937 471.473 669.767 479.82 669.621C486.19 669.481 492.64 669.381 499.11 669.281H499.26C528.45 668.841 558.61 668.621 589.45 668.621C665.71 668.621 737.79 670.011 801.66 672.511H801.84C811.66 672.891 821.3 673.311 830.7 673.741L838.7 674.121C849.307 674.627 859.64 675.171 869.7 675.751C988 682.481 1064.84 693.411 1064.84 705.741Z" fill="#274B9F"/>
<g opacity="0.2">
<path opacity="0.2" d="M680.301 664.031C680.269 665.109 680.145 666.183 679.931 667.241C672.971 666.134 665.971 665.134 658.931 664.241C658.931 663.961 658.931 663.671 658.931 663.381C658.996 660.382 659.859 657.455 661.431 654.901C663.491 651.641 666.621 649.601 670.071 649.711C673.521 649.821 676.511 652.051 678.361 655.421C679.76 658.068 680.429 661.039 680.301 664.031V664.031Z" fill="#3F3D56"/>
<path opacity="0.2" d="M680.875 646.942C681.119 639.209 676.529 632.788 670.623 632.601C664.716 632.415 659.73 638.533 659.485 646.266C659.241 654 663.831 660.421 669.738 660.607C675.644 660.794 680.63 654.676 680.875 646.942Z" fill="#3F3D56"/>
<path opacity="0.2" d="M681.421 629.822C681.665 622.088 677.075 615.668 671.169 615.481C665.262 615.294 660.276 621.412 660.031 629.146C659.787 636.88 664.377 643.3 670.284 643.487C676.19 643.674 681.176 637.555 681.421 629.822Z" fill="#3F3D56"/>
<path opacity="0.2" d="M681.956 612.701C682.2 604.968 677.61 598.547 671.704 598.36C665.797 598.174 660.811 604.292 660.567 612.025C660.322 619.759 664.912 626.18 670.819 626.366C676.725 626.553 681.711 620.435 681.956 612.701Z" fill="#3F3D56"/>
<path opacity="0.2" d="M682.492 595.581C682.736 587.847 678.146 581.427 672.24 581.24C666.333 581.053 661.347 587.171 661.103 594.905C660.858 602.639 665.448 609.059 671.355 609.246C677.261 609.433 682.248 603.315 682.492 595.581Z" fill="#3F3D56"/>
<path opacity="0.2" d="M635.4 476.79C633.992 474.884 632.722 472.879 631.6 470.79L659.86 467.06L629.44 466.331C626.726 459.891 625.353 452.966 625.406 445.979C625.46 438.991 626.938 432.087 629.75 425.69L669.87 448.141L633.12 419.3C636.828 413.304 641.732 408.137 647.526 404.121C653.32 400.105 659.88 397.327 666.796 395.961C673.711 394.594 680.835 394.668 687.721 396.178C694.607 397.688 701.108 400.602 706.817 404.737C712.527 408.872 717.322 414.14 720.904 420.212C724.486 426.284 726.778 433.029 727.636 440.026C728.494 447.024 727.9 454.123 725.891 460.88C723.882 467.638 720.502 473.908 715.96 479.3C718.151 482.266 720.012 485.462 721.51 488.831L684.42 506.631L723.75 494.8C726.227 502.973 726.626 511.634 724.912 520C723.197 528.366 719.423 536.171 713.93 542.71C719.641 550.458 723.055 559.656 723.784 569.252C724.513 578.849 722.526 588.457 718.051 596.978C713.576 605.499 706.794 612.588 698.48 617.435C690.165 622.283 680.655 624.693 671.035 624.39C661.416 624.086 652.076 621.082 644.083 615.72C636.091 610.359 629.768 602.856 625.839 594.07C621.91 585.285 620.533 575.571 621.864 566.039C623.196 556.507 627.184 547.543 633.37 540.17C626.548 530.912 623.037 519.629 623.4 508.134C623.762 496.64 627.978 485.6 635.37 476.79H635.4Z" fill="#274B9F"/>
<path opacity="0.1" d="M725.93 511.371C725.58 522.872 721.351 533.917 713.93 542.711C719.641 550.458 723.055 559.656 723.784 569.252C724.513 578.849 722.526 588.457 718.051 596.978C713.576 605.499 706.794 612.588 698.48 617.436C690.165 622.283 680.655 624.693 671.035 624.39C661.416 624.086 652.076 621.082 644.083 615.721C636.091 610.359 629.768 602.856 625.839 594.07C621.91 585.285 620.533 575.571 621.864 566.039C623.196 556.507 627.184 547.543 633.37 540.171C626.8 531.241 726.11 505.621 725.93 511.371Z" fill="black"/>
</g>
<g opacity="0.2">
<path opacity="0.2" d="M528.301 664.031C528.269 665.109 528.145 666.183 527.931 667.241C520.971 666.134 513.971 665.134 506.931 664.241C506.931 663.961 506.931 663.671 506.931 663.381C506.996 660.382 507.859 657.455 509.431 654.901C511.491 651.641 514.621 649.601 518.071 649.711C521.521 649.821 524.511 652.051 526.361 655.421C527.76 658.068 528.429 661.039 528.301 664.031V664.031Z" fill="#3F3D56"/>
<path opacity="0.2" d="M528.864 646.946C529.108 639.213 524.518 632.792 518.612 632.605C512.705 632.419 507.719 638.537 507.475 646.27C507.23 654.004 511.82 660.425 517.727 660.611C523.633 660.798 528.62 654.68 528.864 646.946Z" fill="#3F3D56"/>
<path opacity="0.2" d="M529.41 629.826C529.654 622.092 525.064 615.672 519.158 615.485C513.251 615.298 508.265 621.416 508.021 629.15C507.776 636.884 512.366 643.304 518.273 643.491C524.179 643.678 529.166 637.56 529.41 629.826Z" fill="#3F3D56"/>
<path opacity="0.2" d="M529.945 612.706C530.189 604.972 525.599 598.551 519.693 598.365C513.786 598.178 508.8 604.296 508.556 612.03C508.311 619.763 512.901 626.184 518.808 626.371C524.714 626.557 529.701 620.439 529.945 612.706Z" fill="#3F3D56"/>
<path opacity="0.2" d="M530.48 595.585C530.725 587.851 526.135 581.431 520.228 581.244C514.322 581.057 509.335 587.175 509.091 594.909C508.847 602.643 513.437 609.063 519.343 609.25C525.25 609.437 530.236 603.319 530.48 595.585Z" fill="#3F3D56"/>
<path opacity="0.2" d="M483.4 476.79C481.992 474.884 480.722 472.879 479.6 470.79L507.86 467.06L477.44 466.331C474.726 459.891 473.353 452.966 473.406 445.979C473.46 438.991 474.938 432.087 477.75 425.69L517.87 448.141L481.12 419.3C484.828 413.304 489.732 408.137 495.526 404.121C501.32 400.105 507.88 397.327 514.796 395.961C521.711 394.594 528.835 394.668 535.721 396.178C542.607 397.688 549.108 400.602 554.817 404.737C560.527 408.872 565.322 414.14 568.904 420.212C572.486 426.284 574.778 433.029 575.636 440.026C576.494 447.024 575.9 454.123 573.891 460.88C571.882 467.638 568.502 473.908 563.96 479.3C566.151 482.266 568.012 485.462 569.51 488.831L532.42 506.631L571.75 494.8C574.227 502.973 574.626 511.634 572.912 520C571.197 528.366 567.423 536.171 561.93 542.71C567.641 550.458 571.055 559.656 571.784 569.252C572.513 578.849 570.526 588.457 566.051 596.978C561.576 605.499 554.794 612.588 546.48 617.435C538.165 622.283 528.655 624.693 519.035 624.39C509.416 624.086 500.076 621.082 492.083 615.72C484.091 610.359 477.768 602.856 473.839 594.07C469.91 585.285 468.533 575.571 469.864 566.039C471.196 556.507 475.184 547.543 481.37 540.17C474.548 530.912 471.037 519.629 471.4 508.134C471.762 496.64 475.978 485.6 483.37 476.79H483.4Z" fill="#274B9F"/>
<path opacity="0.1" d="M573.93 511.371C573.58 522.872 569.351 533.917 561.93 542.711C567.641 550.458 571.055 559.656 571.784 569.252C572.513 578.849 570.526 588.457 566.051 596.978C561.576 605.499 554.794 612.588 546.48 617.436C538.165 622.283 528.655 624.693 519.035 624.39C509.416 624.086 500.076 621.082 492.083 615.721C484.091 610.359 477.768 602.856 473.839 594.07C469.91 585.285 468.533 575.571 469.864 566.039C471.196 556.507 475.184 547.543 481.37 540.171C474.8 531.241 574.11 505.621 573.93 511.371Z" fill="black"/>
</g>
<g opacity="0.2">
<path opacity="0.2" d="M943.5 674.97C943.424 677.014 943.18 679.047 942.77 681.051C929.37 678.911 915.874 676.997 902.28 675.311C902.28 674.771 902.28 674.22 902.28 673.66C902.407 667.886 904.071 662.249 907.1 657.331C911.1 651.061 917.1 647.131 923.73 647.331C930.36 647.531 936.13 651.841 939.73 658.331C942.445 663.443 943.747 669.187 943.5 674.97V674.97Z" fill="#3F3D56"/>
<path opacity="0.2" d="M944.589 642.047C945.059 627.154 936.218 614.789 924.841 614.429C913.464 614.07 903.86 625.852 903.389 640.745C902.919 655.638 911.76 668.003 923.137 668.362C934.514 668.722 944.118 656.94 944.589 642.047Z" fill="#3F3D56"/>
<path opacity="0.2" d="M945.628 609.086C946.098 594.193 937.257 581.828 925.88 581.469C914.503 581.109 904.899 592.891 904.428 607.784C903.958 622.678 912.799 635.042 924.176 635.402C935.553 635.761 945.157 623.98 945.628 609.086Z" fill="#3F3D56"/>
<path opacity="0.2" d="M946.678 576.126C947.148 561.233 938.307 548.868 926.93 548.509C915.553 548.149 905.949 559.931 905.478 574.824C905.008 589.717 913.849 602.082 925.226 602.442C936.603 602.801 946.207 591.019 946.678 576.126Z" fill="#3F3D56"/>
<path opacity="0.2" d="M946.544 541.666C946.991 526.765 938.126 514.409 926.743 514.068C915.361 513.726 905.771 525.529 905.324 540.429C904.877 555.33 913.742 567.686 925.125 568.027C936.507 568.369 946.097 556.566 946.544 541.666Z" fill="#3F3D56"/>
<path opacity="0.2" d="M857.051 314.51C854.352 310.839 851.91 306.987 849.741 302.98L904.141 295.8L845.591 294.39C840.361 281.995 837.715 268.663 837.815 255.211C837.914 241.758 840.758 228.467 846.171 216.15L923.421 259.36L852.681 203.84C859.833 192.324 869.281 182.405 880.435 174.7C891.59 166.996 904.211 161.671 917.513 159.058C930.816 156.445 944.514 156.6 957.754 159.513C970.993 162.425 983.491 168.034 994.469 175.989C1005.45 183.943 1014.67 194.074 1021.56 205.748C1028.45 217.423 1032.86 230.392 1034.52 243.847C1036.18 257.301 1035.05 270.953 1031.2 283.952C1027.35 296.951 1020.87 309.018 1012.15 319.4C1016.36 325.115 1019.95 331.267 1022.84 337.75L951.431 372.04L1027.14 349.24C1031.91 364.955 1032.69 381.611 1029.4 397.701C1026.11 413.791 1018.86 428.808 1008.31 441.39C1019.3 456.305 1025.87 474.012 1027.27 492.486C1028.68 510.96 1024.85 529.455 1016.24 545.858C1007.62 562.26 994.564 575.907 978.558 585.238C962.553 594.569 944.244 599.208 925.726 598.624C907.209 598.04 889.229 592.257 873.843 581.936C858.457 571.615 846.286 557.173 838.721 540.261C831.156 523.349 828.504 504.649 831.066 486.3C833.628 467.951 841.302 450.693 853.211 436.5C840.085 418.677 833.328 396.96 834.024 374.836C834.72 352.712 842.83 331.463 857.051 314.5V314.51Z" fill="#274B9F"/>
<path opacity="0.1" d="M1031.35 381.07C1030.69 403.199 1022.59 424.459 1008.35 441.41C1019.34 456.325 1025.91 474.032 1027.31 492.506C1028.72 510.98 1024.89 529.475 1016.28 545.878C1007.66 562.28 994.604 575.927 978.598 585.258C962.593 594.589 944.284 599.228 925.766 598.644C907.249 598.06 889.269 592.277 873.883 581.957C858.497 571.636 846.326 557.193 838.761 540.281C831.196 523.369 828.544 504.669 831.106 486.32C833.668 467.971 841.342 450.713 853.251 436.52C840.511 419.31 1031.7 370 1031.35 381.07Z" fill="black"/>
</g>
<path d="M157.84 676.73L168.33 676.7H183.12L201.82 372.92L387.01 63.8904L378.96 55.2504V33.3704L178.68 365.76L157.84 676.73Z" fill="#F1C0C0"/>
<path opacity="0.1" d="M169.45 676.7H183.12L201.82 372.92L387.01 63.8904L378.96 55.2504L187.94 368.29L169.45 676.7Z" fill="black"/>
<path d="M126.93 679.26L606.78 715.98L607.19 716.01L1071.58 687.451L1071.93 687.43V667.82L560.23 658.43L133.32 658.021H130.2L129.86 660.22L126.93 679.26Z" fill="#F1C0C0"/>
<path opacity="0.1" d="M126.93 679.26L606.78 715.98L607.19 716.01L1071.58 687.451L1071.93 687.07V668.23H1071.52L606.78 683.75L133.32 658.021H133.25L132.41 658.57L129.86 660.22L126.93 679.26Z" fill="black"/>
<path opacity="0.1" d="M126.93 679.26L606.78 715.98V683.75L132.41 658.57L129.86 660.22L126.93 679.26Z" fill="black"/>
<path d="M378.9 54.8403L590.45 281.9L583.91 681.3L601.88 683.47L602.18 683.51H620.15L622.3 299.05L1018.43 431.37L1025.11 666.97L1039.57 668.59L1044.47 669.14L1033.13 415.03L619.03 269.65L391.97 33.6003H378.9V54.8403Z" fill="#F1C0C0"/>
<path opacity="0.1" d="M620.67 291.7L622.3 299.05L1018.43 431.37L1025.11 666.97L1039.57 668.59L1028.23 426.47L620.67 291.7Z" fill="black"/>
<path opacity="0.1" d="M378.9 54.8403L590.45 281.9L583.91 681.3L601.88 683.47L606.78 268.83L378.9 33.6003V54.8403Z" fill="black"/>
<path d="M621.439 451.99L766.729 480.6L766.779 480.61L1021.25 530.74L1032.9 526.07L1032.86 525.25L1032.1 509L621.589 426.05L621.439 451.99Z" fill="#F1C0C0"/>
<path opacity="0.1" d="M766.779 480.61L1021.25 530.74L1032.9 526.07L1032.86 525.25L766.779 480.61Z" fill="black"/>
<path d="M776.51 350.561L780.44 566.901L782.47 677.891L800.36 677.291L811.62 676.911L808.12 353.691L800.36 351.111L798.66 350.561H776.51Z" fill="#F1C0C0"/>
<path opacity="0.1" d="M776.67 350.51V350.56L780.44 566.9L782.47 677.89L800.36 677.29V350.51H776.67Z" fill="black"/>
<path d="M496.281 405.811C497.33 406.381 498.333 407.033 499.281 407.761C500.401 408.741 501.407 409.845 502.281 411.051C506.571 416.601 510.531 423.051 510.111 430.051C510.12 431.069 509.927 432.079 509.545 433.023C509.162 433.967 508.597 434.826 507.881 435.551C506.111 437.061 503.571 437.131 501.251 437.131C498.731 437.131 496.081 437.131 493.901 435.831C491.721 434.531 489.901 432.001 487.321 432.061C486.957 432.121 486.585 432.121 486.221 432.061C485.331 431.771 485.151 430.601 484.571 429.861C483.571 428.531 481.461 428.861 479.891 429.441C478.321 430.021 476.581 430.891 475.031 430.221C474.131 429.746 473.396 429.01 472.921 428.111C469.211 422.111 468.421 414.901 467.721 407.931C467.291 403.691 464.011 389.231 473.061 392.521C477.061 393.961 480.801 396.841 484.441 398.951L496.281 405.811Z" fill="#3F3D56"/>
<path d="M487.34 407.24C488.149 407.822 489.128 408.116 490.123 408.076C491.118 408.036 492.071 407.665 492.83 407.02C494.32 405.675 495.268 403.834 495.5 401.841C496.5 401.531 497.01 402.84 497.65 403.64C498.77 405 501.05 404.981 502.07 406.431C502.78 407.431 502.62 408.82 503.12 409.95C503.77 411.41 505.38 412.17 506.48 413.35C507.519 414.64 508.269 416.137 508.68 417.74L510.32 422.661C511.105 424.707 511.61 426.849 511.82 429.03C511.924 430.121 511.809 431.221 511.483 432.267C511.157 433.312 510.626 434.282 509.92 435.121C507.72 437.491 504.11 437.74 500.92 437.67C499.855 437.693 498.792 437.569 497.76 437.3C494.93 436.42 493.12 433.571 492.37 430.701C491.62 427.831 491.7 424.821 491.26 421.881C490.785 418.993 489.945 416.177 488.76 413.501C487.88 411.421 485.46 408.32 485.5 406.11C486.22 406.11 486.74 406.77 487.34 407.24Z" fill="#3F3D56"/>
<path d="M490.93 397.11C490.462 395.69 490.19 394.213 490.12 392.72C490.12 389.72 491.49 386.9 492.87 384.22L481.44 385.77C480.06 385.96 478.52 386.24 477.74 387.39C477.444 387.96 477.289 388.593 477.289 389.235C477.289 389.877 477.444 390.51 477.74 391.08C478.313 392.221 478.769 393.417 479.1 394.65C479.126 395.729 479.25 396.804 479.47 397.86C479.826 398.636 480.324 399.339 480.94 399.93C484.21 403.55 486.66 407.82 489.1 412.05C489.03 411.93 495.99 406.54 495.71 404.78C495.55 403.78 493.54 402.58 492.9 401.62C492.016 400.227 491.351 398.706 490.93 397.11V397.11Z" fill="#BE6F72"/>
<path d="M588.93 358.041V367.891L420.26 400.791L411.51 406.091H381.32V400.541L547.04 360.501L588.93 358.041Z" fill="#F1C0C0"/>
<path opacity="0.1" d="M588.93 367.891L420.26 400.791L411.51 406.091H381.32L548.27 370.361L588.93 367.891Z" fill="black"/>
<path d="M453.509 637.66C451.63 635.384 449.036 633.812 446.149 633.198C443.262 632.584 440.252 632.966 437.609 634.28C437.044 634.547 436.545 634.936 436.149 635.42C435.149 636.82 435.789 638.75 435.879 640.48C436.109 644.7 432.749 648.13 429.729 651.08C428.109 652.66 426.459 654.35 425.729 656.5C424.999 658.65 425.539 661.38 427.499 662.5C428.355 662.929 429.285 663.187 430.239 663.26C433.436 663.884 436.713 663.975 439.939 663.53C443.129 662.92 446.259 661.11 447.639 658.17C447.905 657.373 448.346 656.645 448.929 656.04C450.689 654.65 453.389 656.28 455.389 655.29C457.039 654.47 457.109 653.18 457.129 651.48C457.189 646.78 456.489 641.46 453.509 637.66Z" fill="#274B9F"/>
<path d="M477.51 637.48C478.74 640.72 478.91 644.25 479.07 647.71C479.16 649.71 479.22 651.85 478.14 653.54C477.06 655.23 474.95 656.12 472.93 656.54C468.76 657.4 463.93 656.59 461.24 653.28C459.18 650.75 458.75 647.28 459.13 644C459.45 641.31 460.13 638.16 458.2 636.25C457.7 635.74 457.05 635.38 456.59 634.83C455.59 633.61 455.75 631.77 456.29 630.27C456.993 628.836 457.52 627.322 457.86 625.76C457.94 625.02 471.4 626.28 472.64 626.89C474.33 627.72 474.07 629.11 474.58 630.79C475.29 633.13 476.65 635.24 477.51 637.48Z" fill="#274B9F"/>
<path d="M479.98 493.821C482.62 495.531 483.64 498.891 484.05 502.011C485.18 510.561 483.2 519.201 483.05 527.831C482.91 539.921 486.41 552.231 483.42 563.941C481.63 570.941 483.15 578.941 481.47 586.011C480.97 588.111 480.05 590.091 479.57 592.191C478.57 596.741 479.62 601.501 481.03 605.951C481.48 607.15 481.766 608.405 481.88 609.681C481.812 611.645 481.314 613.57 480.42 615.321L474.42 629.511C473.75 631.101 471.11 631.361 469.42 631.571C466.24 631.951 462.69 632.221 460.16 630.251C457.63 628.281 457.02 624.981 456.63 621.901C455.882 615.988 455.548 610.03 455.63 604.071C455.74 602.515 455.602 600.952 455.22 599.441C454.67 597.731 453.46 596.251 453.13 594.441C452.71 592.101 453.9 589.801 454.34 587.441C454.642 585.285 454.608 583.096 454.24 580.951C453.85 577.751 453.4 574.551 452.89 571.371C452.17 566.921 453.2 562.531 453.89 558.071C454.54 553.881 453.71 549.611 452.89 545.451C452.961 548.827 452.54 552.196 451.64 555.451C451.11 557.041 450.35 558.561 449.89 560.181C447.84 567.451 452.21 575.081 451.59 582.611C451.3 586.131 449.92 589.611 450.31 593.081C450.58 595.621 451.76 597.951 452.57 600.371C453.38 602.791 453.8 605.561 452.57 607.821C449.32 613.961 451.75 622.311 454.66 628.611C455.251 629.728 455.765 630.884 456.2 632.071C457.06 634.911 456.34 637.961 456.57 640.921C455.733 641.058 454.875 641.002 454.062 640.758C453.249 640.513 452.503 640.087 451.88 639.511C451.44 639.051 451.08 638.511 450.65 638.031C449.449 636.886 448.026 635.997 446.47 635.421C445.556 634.909 444.515 634.67 443.47 634.731C442.371 635.038 441.383 635.652 440.62 636.501C439.631 637.37 438.582 638.169 437.48 638.891C437.011 639.251 436.462 639.495 435.88 639.601C435.587 639.646 435.288 639.598 435.024 639.463C434.76 639.328 434.545 639.114 434.41 638.851C434.348 638.684 434.311 638.508 434.3 638.331C433.929 635.311 433.732 632.273 433.71 629.231C433.71 624.001 427.45 620.401 426.66 615.231C426.03 611.061 427.2 606.811 426.81 602.611C426.62 600.451 426.02 598.331 426.06 596.171C426.06 594.771 426.38 593.401 426.49 592.011C426.582 590.468 426.558 588.92 426.42 587.381L426.11 582.551C425.81 577.781 425.48 572.911 423.6 568.551C421.371 563.46 420.051 558.017 419.7 552.471C419.5 548.971 419.63 545.471 419.23 541.961C418.87 538.791 418.07 535.641 418.3 532.461C418.49 530.001 419.3 527.621 419.49 525.161C419.88 520.431 418.08 515.831 416.67 511.301C415.26 506.771 414.22 501.751 416.07 497.381C416.335 496.663 416.775 496.024 417.35 495.521C418.059 495.051 418.867 494.75 419.71 494.641C436.868 491.036 454.454 489.915 471.93 491.311C474.779 491.472 477.544 492.334 479.98 493.821Z" fill="#3F3D56"/>
<path d="M423.21 387.61C432.058 387.61 439.23 380.438 439.23 371.59C439.23 362.743 432.058 355.57 423.21 355.57C414.362 355.57 407.19 362.743 407.19 371.59C407.19 380.438 414.362 387.61 423.21 387.61Z" fill="#BE6F72"/>
<path d="M420.11 391.6C420.34 392.516 420.34 393.475 420.11 394.39C419.858 395.03 419.504 395.625 419.06 396.15C417.509 398.151 415.793 400.017 413.93 401.73C414.879 403.85 416.588 405.538 418.72 406.46C420.837 407.361 423.057 407.996 425.33 408.35C426.465 408.649 427.645 408.73 428.81 408.59C429.884 408.321 430.9 407.86 431.81 407.23L440.71 401.9C442.053 401.173 443.297 400.276 444.41 399.23C446.042 397.553 446.966 395.311 446.99 392.97C447.032 392.551 446.918 392.131 446.67 391.79C446.329 391.493 445.901 391.315 445.45 391.28C442.32 390.59 439.85 388.05 438.45 385.17C437.185 382.218 436.366 379.094 436.02 375.9L426.53 380.9C425.12 381.65 423.72 382.4 422.26 383.05C421.33 383.47 419.45 383.82 418.79 384.67C417.53 386.24 419.78 389.71 420.11 391.6Z" fill="#BE6F72"/>
<path d="M413.99 398.82C412.639 399.928 411.584 401.354 410.92 402.97C410.3 404.97 410.92 407.08 411.48 409.06C414.105 417.5 416.11 426.119 417.48 434.85C418.32 440.85 418.63 446.94 419.04 453.01C419.88 465.39 421.1 485.13 422.73 497.43C428.73 497.7 434.58 495.95 440.53 495.31C451.65 494.13 463.1 496.83 473.99 494.31C471.35 483.88 468.71 466.07 466.07 455.65C464.902 451.545 464.092 447.346 463.65 443.1C463.42 440.05 463.56 436.99 463.6 433.92C463.69 427.92 463.36 421.92 463.03 415.92C462.65 408.92 462.27 401.92 460.61 395.07C460.494 394.198 460.085 393.39 459.45 392.78C458.45 392.05 457.15 392.31 455.96 392.47C452.316 392.933 448.628 392.059 445.58 390.01C444.26 389.11 442.49 388.01 441.26 389.01C440.735 389.614 440.389 390.351 440.26 391.14C439.716 392.555 438.876 393.837 437.796 394.901C436.717 395.965 435.422 396.787 434 397.31C431.15 398.342 428.166 398.955 425.14 399.13C424.214 399.329 423.248 399.22 422.39 398.82C420.97 397.95 420.87 394.82 419.08 394.61C417.51 394.43 415.05 397.81 413.99 398.82Z" fill="#3F3D56"/>
<path d="M437.65 423.24C433.96 419.71 432.34 414.59 429.65 410.24C427.818 407.315 425.478 404.741 422.74 402.64C421.364 401.731 420.101 400.66 418.98 399.45C418.03 398.28 417.31 396.72 415.87 396.27C415.275 396.141 414.658 396.158 414.071 396.32C413.484 396.482 412.945 396.784 412.5 397.2C411.619 398.04 410.784 398.928 410 399.86C405.76 404.25 398.31 404.86 394.95 409.94C394.044 411.017 393.428 412.308 393.16 413.69C392.193 421.084 394.105 428.567 398.5 434.59C399.351 435.987 400.658 437.046 402.2 437.59C401.991 439.455 402.238 441.342 402.92 443.09C404.772 449.419 407.047 455.617 409.73 461.64C409.089 463.997 408.64 466.401 408.39 468.83C407.69 474.94 408.34 481.14 407.68 487.26C407.14 492.26 405.68 497.13 405.63 502.14C405.63 502.94 405.7 503.89 406.39 504.3C406.757 504.489 407.168 504.575 407.58 504.55L419.88 504.92C427.02 505.13 434.23 505.34 441.26 504.02C442.196 503.882 443.104 503.595 443.95 503.17C446.33 501.84 447.12 498.84 447.5 496.17C447.996 492.707 448.194 489.207 448.09 485.71C449.58 490.42 451.35 495.29 455.85 497.33C458.23 498.41 460.95 498.33 463.56 498.26C469.186 498.01 474.792 497.432 480.35 496.53C480.693 496.573 481.041 496.535 481.366 496.419C481.691 496.303 481.984 496.112 482.222 495.862C482.46 495.612 482.637 495.31 482.737 494.98C482.837 494.65 482.859 494.3 482.8 493.96L482.86 488.5C482.98 477.41 480.23 466.81 479.16 455.77C478.82 452.29 478.85 448.77 478 445.36C477.65 443.93 477.14 442.53 476.83 441.09C476.563 439.681 476.396 438.254 476.33 436.82L475.55 425.82C475.18 420.73 474.65 415.82 474.26 410.74C474.046 405.794 473.329 400.882 472.12 396.08C471.25 393.08 469.44 389.68 466.31 389.31C464.64 389.12 463.02 389.85 461.43 390.36C457.522 391.591 453.328 391.573 449.43 390.31C448.226 389.835 446.971 389.499 445.69 389.31C445.045 389.223 444.389 389.308 443.788 389.557C443.187 389.807 442.663 390.212 442.27 390.73C441.882 391.512 441.7 392.379 441.74 393.25C441.27 403.24 440.4 413.53 437.65 423.24Z" fill="#274B9F"/>
<path d="M421.56 423.54C416.95 418.68 412.22 413.73 406.28 410.64C403.94 409.42 401.28 408.5 398.69 408.96C396.1 409.42 393.69 411.67 393.81 414.3C393.89 415.93 394.88 417.37 395.19 418.97C395.55 420.77 395.03 422.69 395.59 424.43C396.046 425.577 396.726 426.621 397.59 427.5L404.67 435.89C407.67 439.39 410.67 442.94 414.53 445.36C418.39 447.78 423.39 448.91 427.63 447.19C430.647 445.788 433.155 443.486 434.81 440.6C436.57 437.8 437.81 434.74 439.46 431.85C442.029 427.233 445.417 423.122 449.46 419.72C447.38 419.18 444.77 418.42 443.46 416.72C443.088 416.18 442.769 415.604 442.51 415L440.89 411.5C440.339 411.472 439.789 411.557 439.272 411.752C438.756 411.946 438.286 412.245 437.89 412.63C437.196 413.433 436.451 414.192 435.66 414.9C434.25 415.96 432.34 416.25 431.06 417.46C430.565 417.98 430.117 418.542 429.72 419.14C428.752 420.413 427.523 421.464 426.116 422.223C424.709 422.981 423.156 423.431 421.56 423.54V423.54Z" fill="#3F3D56"/>
<path d="M449.829 402.63C453.299 396.3 453.139 388.71 454.129 381.56C454.236 379.667 454.901 377.847 456.039 376.33C458.039 374.07 461.569 374.04 464.589 374.33C465.479 374.43 466.589 374.85 466.539 375.74C466.469 376.059 466.313 376.353 466.089 376.59C463.162 380.368 461.441 384.94 461.149 389.71C462.719 390.8 465.149 388.56 466.659 389.71C467.659 390.55 467.199 392.21 466.599 393.41C465.206 396.19 463.769 398.95 462.289 401.69C461.108 404.105 459.567 406.327 457.719 408.28C456.449 409.5 454.959 410.46 453.669 411.66C450.669 414.47 448.859 418.44 445.759 421.18C445.497 421.464 445.143 421.645 444.759 421.69C444.365 421.662 443.993 421.496 443.709 421.22C442.161 419.961 440.876 418.408 439.929 416.65C438.749 414.47 438.929 413.83 440.789 412.29C444.269 409.54 447.659 406.59 449.829 402.63Z" fill="#BE6F72"/>
<path d="M415.76 419.241C416.36 419.611 417.1 420.031 417.76 419.721C418.03 419.557 418.259 419.335 418.43 419.071C419.573 417.545 420.527 415.886 421.27 414.131C421.398 413.883 421.47 413.609 421.48 413.331C421.48 412.691 420.91 412.221 420.38 411.851C417.54 410.041 414.487 408.589 411.29 407.531C408.65 406.531 405.89 405.661 403.09 405.911C402.038 405.981 401.011 406.264 400.071 406.742C399.131 407.219 398.297 407.882 397.62 408.691C395.62 411.261 398.97 412.041 401.07 412.971C405.93 415.181 411.19 416.461 415.76 419.241Z" fill="#274B9F"/>
<path opacity="0.1" d="M412.61 436.24C412.576 436.469 412.597 436.702 412.67 436.92C412.743 437.139 412.866 437.338 413.03 437.5C413.32 436.08 412.94 434.58 413.24 433.15C413.68 431 415.77 429.38 415.95 427.22C412.12 426.47 412.64 433.92 412.61 436.24Z" fill="black"/>
<path opacity="0.2" d="M588.929 358.041V367.891L548.269 370.361L547.039 360.501L588.929 358.041Z" fill="black"/>
<path d="M408.79 373.97C411.33 371.9 409.86 367.56 411.58 364.78C412.58 363.26 414.27 362.46 415.93 361.78C417.933 360.843 420.08 360.248 422.28 360.02C423.382 359.914 424.493 360.058 425.532 360.441C426.571 360.823 427.51 361.435 428.28 362.23C428.93 362.97 429.37 363.87 429.98 364.64C430.735 365.539 431.72 366.216 432.829 366.599C433.938 366.983 435.131 367.06 436.28 366.82C437.61 366.52 438.99 365.51 438.9 364.15C438.75 363.323 438.327 362.57 437.7 362.01L434.84 358.84C431.59 355.24 427.98 351.42 423.21 350.52C419.89 349.89 416.49 350.78 413.29 351.85C412 352.28 410.55 352.92 410.19 354.23C409.95 355.13 410.31 356.11 410.1 357.02C409.69 358.83 407.37 359.44 406.29 360.96C405.21 362.48 405.54 364.28 405.23 365.96C404.92 367.64 404.02 369.28 403.91 371.02C403.84 372.07 404.37 374.02 405.55 374.4C406.73 374.78 408.06 372.72 408.79 373.97Z" fill="#3F3D56"/>
<path d="M437.93 362.71C437.087 358.31 435.269 354.155 432.61 350.55C430.246 347.182 426.957 344.57 423.14 343.03C421.232 342.285 419.18 341.981 417.139 342.142C415.097 342.303 413.118 342.925 411.35 343.96C408.727 345.833 406.685 348.408 405.46 351.39C402.87 356.97 401.91 363.79 404.92 369.15C406.12 367.69 408.18 368.35 410 367.82C412.28 367.17 414.21 365.65 416.38 364.7C422.93 361.81 430.93 364.15 437.93 362.71Z" fill="#FED253"/>
<path opacity="0.1" d="M406.45 362.4C406.22 360.6 406.07 358.51 407.35 357.23C407.414 357.152 407.495 357.089 407.587 357.048C407.679 357.006 407.78 356.986 407.88 356.99C407.97 357.019 408.052 357.066 408.123 357.128C408.193 357.19 408.25 357.265 408.29 357.35C409.029 358.516 409.659 359.748 410.17 361.03C409.425 360.858 408.645 360.914 407.932 361.191C407.219 361.467 406.605 361.951 406.17 362.58" fill="black"/>
<path opacity="0.1" d="M429.82 357.32L429.46 353.75C429.402 353.456 429.426 353.152 429.53 352.87C429.68 352.635 429.913 352.464 430.183 352.39C430.452 352.316 430.74 352.345 430.99 352.47C431.482 352.743 431.887 353.148 432.16 353.64C432.992 354.918 433.683 356.283 434.22 357.71C432.609 357.4 430.952 357.421 429.35 357.77" fill="black"/>
<path opacity="0.1" d="M438.77 502.21V510.37L431.88 510.83H395.64V502.21H438.77Z" fill="black"/>
<path d="M438.77 502.211V510.831H395.64L281.06 367.301V360.521H305.08L438.77 502.211Z" fill="#F1C0C0"/>
<path opacity="0.1" d="M438.77 502.211V510.831H395.64L281.06 367.301V360.521H305.08L438.77 502.211Z" fill="black"/>
<path opacity="0.1" d="M438.77 502.211V510.831H395.64L281.06 367.301V360.521L396.26 502.211H438.77Z" fill="black"/>
<path d="M296.08 646.07C296.156 646.476 296.147 646.893 296.054 647.295C295.961 647.696 295.786 648.075 295.54 648.406C295.294 648.738 294.982 649.015 294.625 649.22C294.267 649.425 293.87 649.555 293.46 649.6C290.68 650.54 287.73 651.47 285.76 653.6C283.79 655.73 283.4 659.68 285.76 661.41C286.967 662.138 288.352 662.515 289.76 662.5C294.29 662.81 299.01 662.75 303.12 660.83C306.06 659.47 308.83 657.15 312.06 657.36C313.73 657.46 315.51 658.24 317 657.48C318.49 656.72 318.91 654.6 318.92 652.83C318.958 649.135 318.401 645.458 317.27 641.94C317.12 641.46 310.76 641.09 310 640.94L302.29 639.94C300.83 639.75 297.68 638.65 296.53 639.87C295.38 641.09 296.08 644.62 296.08 646.07Z" fill="#274B9F"/>
<path d="M342.09 621.11C342.417 622.911 342.947 624.669 343.67 626.35C344.74 629.07 346.11 631.96 348.73 633.28C351.11 634.47 354.03 634.04 356.45 632.91C357.46 632.492 358.345 631.82 359.02 630.96C359.801 629.599 360.15 628.034 360.02 626.47C360.02 622.6 359.79 618.6 358.02 615.16C356.5 612.16 353.85 609.58 353.81 606.26L344.7 608.02C344.212 608.067 343.748 608.251 343.36 608.55C343.071 608.854 342.871 609.231 342.78 609.64C341.807 613.383 341.573 617.278 342.09 621.11V621.11Z" fill="#274B9F"/>
<path d="M233.3 526.111C232.92 529.331 233.08 532.781 234.76 535.561C236.44 538.341 239.98 540.181 243.04 539.071C243.197 539.03 243.344 538.959 243.473 538.861C243.602 538.764 243.71 538.641 243.79 538.501C243.872 538.163 243.825 537.806 243.66 537.501C242.309 533.895 242.42 529.905 243.97 526.381C244.17 525.921 244.6 525.381 245.07 525.561C245.267 525.66 245.425 525.822 245.52 526.021C246.004 526.858 246.247 527.813 246.22 528.78C246.079 529.657 246.052 530.547 246.14 531.431C246.33 532.291 247.25 533.101 248.05 532.731C248.281 532.588 248.481 532.401 248.638 532.179C248.794 531.957 248.904 531.706 248.96 531.441C251.19 524.991 250.18 517.941 249.16 511.191C249.169 511.036 249.143 510.881 249.085 510.737C249.027 510.593 248.938 510.463 248.825 510.357C248.711 510.251 248.576 510.172 248.428 510.124C248.28 510.076 248.124 510.061 247.97 510.081C243.25 509.611 240.67 508.481 237.97 512.871C235.65 516.571 233.3 521.661 233.3 526.111Z" fill="#274B9F"/>
<path d="M288.48 509.7C287.08 515.52 285.67 521.41 285.58 527.39C285.604 531.115 285.885 534.834 286.42 538.52L287.47 547.18C287.83 550.1 288.18 553.01 288.69 555.9C289.015 557.389 289.192 558.906 289.22 560.43C289.122 561.932 288.884 563.422 288.51 564.88C287.881 567.942 287.529 571.055 287.46 574.18C287.35 579.18 287.97 584.18 288.36 589.18C289.138 599.144 289.021 609.157 288.01 619.1C287.606 621.784 288.188 624.523 289.65 626.81C290.243 627.531 290.731 628.333 291.1 629.19C291.85 631.48 290.1 633.77 289.65 636.12C289.362 637.953 289.813 639.824 290.904 641.324C291.996 642.824 293.638 643.83 295.47 644.12C303.47 645.07 311.69 644.64 318.9 648.3C319.66 646.08 318 643.56 318.76 641.3C319.24 639.9 320.56 638.99 321.46 637.81C322.669 636.012 323.271 633.875 323.18 631.71C323.215 628.885 322.713 626.078 321.7 623.44C320.85 621.24 319.63 619.07 319.7 616.71C319.7 615.55 320.11 614.33 319.64 613.26C319.317 612.646 318.879 612.099 318.35 611.65C315.361 608.376 313.524 604.215 313.12 599.8C312.73 595.419 312.871 591.007 313.54 586.66C314.03 582.52 314.69 578.15 317.32 574.92C316.1 565.126 316.817 555.188 319.43 545.67C319.69 544.79 320.1 543.77 321 543.56C321.357 543.524 321.718 543.574 322.052 543.706C322.387 543.838 322.684 544.049 322.92 544.32C324.49 545.79 325.24 547.92 325.92 549.96C326.67 552.17 327.43 554.53 326.86 556.79C326.62 557.79 326.14 558.67 325.86 559.63C325.251 561.559 325.358 563.643 326.16 565.5C326.55 566.179 326.796 566.932 326.88 567.71C326.787 568.379 326.584 569.028 326.28 569.63C325.909 570.814 325.791 572.062 325.934 573.293C326.077 574.525 326.477 575.713 327.11 576.78C328.384 578.904 329.957 580.833 331.78 582.51C330.909 586.348 331.134 590.354 332.43 594.07C332.523 594.238 332.583 594.422 332.605 594.612C332.627 594.803 332.612 594.996 332.56 595.18C332.38 595.56 331.92 595.7 331.56 595.97C330.56 596.79 331.18 598.34 331.85 599.41C333.686 602.347 335.714 605.16 337.92 607.83C339.92 610.22 339.74 614.83 342.72 615.69C343.972 615.961 345.267 615.961 346.52 615.69C349.46 615.24 352.74 614.39 354.18 611.79C354.77 610.72 355.01 609.42 355.93 608.62C356.85 607.82 358.04 607.68 358.55 606.72C359.06 605.76 358.49 604.5 358.66 603.39C358.83 602.28 359.8 601.39 360.11 600.22C360.85 597.52 357.7 595.3 357.27 592.54C356.65 588.54 361.69 585.54 361.48 581.54C361.04 572.85 360.76 564.12 360.31 555.43C359.745 547.646 359.665 539.834 360.07 532.04C360.42 527.19 361.07 522.11 359.29 517.6C356.73 511.24 349.67 507.67 342.84 506.99C336.01 506.31 329.2 507.93 322.43 508.99C311.194 510.722 299.778 510.961 288.48 509.7V509.7Z" fill="#3F3D56"/>
<path d="M308.78 414.121C317.628 414.121 324.8 406.948 324.8 398.101C324.8 389.253 317.628 382.081 308.78 382.081C299.933 382.081 292.76 389.253 292.76 398.101C292.76 406.948 299.933 414.121 308.78 414.121Z" fill="#FBBEBE"/>
<path d="M302.26 417.11C301.715 418.377 300.8 419.45 299.635 420.187C298.469 420.925 297.108 421.292 295.73 421.24C295.15 423.64 296.54 426.06 298.13 427.95C301.431 431.792 305.698 434.684 310.49 436.328C315.281 437.971 320.425 438.307 325.39 437.3C327.322 436.954 329.154 436.19 330.76 435.06C332.923 433.253 334.376 430.738 334.86 427.96C335.32 425.202 335.451 422.399 335.25 419.61C335.306 419.06 335.148 418.508 334.81 418.07C334.41 417.761 333.915 417.598 333.41 417.61C330.03 417.31 326.5 417.18 323.53 415.52C320.56 413.86 318.45 410.11 319.88 407.03C319.65 407.51 313.81 407.74 313.04 407.84C310.63 408.18 308.22 408.56 305.82 409C304.666 409.064 303.527 409.279 302.43 409.64C300.98 410.39 301.52 410.02 301.86 411.38C302.37 413.46 303.12 414.95 302.26 417.11Z" fill="#FBBEBE"/>
<path d="M314.45 426.85C312.292 426.875 310.14 426.637 308.04 426.14C305.92 425.645 304.051 424.398 302.78 422.63C302.04 421.51 301.56 420.1 300.38 419.47C298.45 418.47 296.25 420.16 294.71 421.71C293.308 423.239 291.683 424.547 289.89 425.59C287.75 426.72 285.25 427.12 283.23 428.45C281.652 429.643 280.297 431.105 279.23 432.77L265.06 452.07C259.37 459.83 254.42 468.16 249.35 476.35C244.96 483.44 242.66 491.6 239.35 499.25C239.088 499.719 238.979 500.257 239.04 500.79C239.16 501.31 239.79 501.73 240.23 501.43C238.74 502.91 240.05 505.43 239.7 507.51C239.302 508.966 238.472 510.266 237.32 511.24C239.521 510.953 241.755 511.058 243.92 511.55C246.157 512.184 248.268 513.199 250.16 514.55C251.37 514.36 251.26 512.21 252.16 511.41C252.7 510.94 253.5 511 254.21 510.86C256.88 510.34 257.94 507.13 259.99 505.32C261.7 503.81 264.12 503.32 265.93 501.9C268.87 499.59 269.5 495.48 271.04 492.07C272.35 489.18 274.41 486.66 275.56 483.7C276.31 481.78 276.67 479.7 277.74 477.93C279.45 475.07 282.67 473.55 285.74 472.18C287.68 471.31 289.74 470.41 291.83 470.55C291.72 475.2 291.13 479.78 292.14 484.32C292.49 485.92 292.98 487.48 293.4 489.07C295.31 496.23 295.76 503.69 295.85 511.07C300.444 510.019 305.137 509.456 309.85 509.39C313.56 509.28 317.26 509.76 320.97 509.69C325.37 509.61 329.72 508.76 334.12 508.46C338.52 508.16 343.12 508.46 347.01 510.46C346.694 504.123 346.871 497.77 347.54 491.46L348.6 481.52C348.839 478.633 349.283 475.765 349.93 472.94C350.51 470.66 351.35 468.46 351.99 466.19C354.24 458.19 353.83 449.65 353.4 441.32C353.18 437.04 351.53 432.83 349.59 429.02C348.888 427.605 348.086 426.242 347.19 424.94C344.846 421.71 341.721 419.127 338.109 417.431C334.496 415.734 330.512 414.981 326.53 415.24C326.021 415.256 325.52 415.365 325.05 415.56C324.206 416.101 323.546 416.886 323.16 417.81C321.091 421.529 318.089 424.645 314.45 426.85Z" fill="#3F3D56"/>
<path d="M294.69 403.41C295.14 402.41 296.35 402.04 297.09 401.24C298.51 399.72 297.87 397.29 298.09 395.24C298.45 392.24 300.94 389.73 303.79 388.66C306.697 387.727 309.789 387.532 312.79 388.09C314.235 388.196 315.63 388.66 316.85 389.44C317.37 389.82 317.85 390.31 318.34 390.66C319.234 391.2 320.302 391.369 321.319 391.132C322.335 390.895 323.219 390.27 323.78 389.39C320.24 385.13 316.32 380.63 310.94 379.32C309.095 378.943 307.214 378.766 305.33 378.79C302.84 378.74 300.27 378.7 297.97 379.65C294.84 380.94 292.64 383.91 291.51 387.11C290.522 390.354 289.994 393.72 289.94 397.11C289.735 399.372 289.735 401.648 289.94 403.91C290.327 406.999 291.475 409.944 293.28 412.48C293.525 412.874 293.87 413.195 294.28 413.41C298.84 415.41 294.32 404.24 294.69 403.41Z" fill="#3F3D56"/>
<path d="M323.26 386.921C322.71 382.211 319.35 378.321 315.78 375.191C312.902 372.477 309.475 370.413 305.73 369.141C301.96 368.031 297.62 368.271 294.39 370.521C291.79 372.331 290.14 375.211 288.87 378.111C287.201 381.533 286.375 385.304 286.46 389.111C286.71 392.891 288.55 396.721 291.83 398.631C293.01 396.891 295.06 395.991 297.03 395.281C305.616 392.023 314.372 389.232 323.26 386.921V386.921Z" fill="#FED253"/>
<path opacity="0.1" d="M292.93 384.96C293.25 384.96 293.46 385.29 293.62 385.56C294.434 386.829 295.134 388.168 295.71 389.56C294.54 389.81 292.53 390.09 291.95 389.06C291.64 388.54 292.01 384.91 292.93 384.96Z" fill="black"/>
<path opacity="0.1" d="M315.72 382.7C315.48 382.93 315.2 382.46 315.2 382.12V378.24C315.193 378.132 315.218 378.025 315.27 377.93C315.311 377.883 315.362 377.844 315.419 377.817C315.475 377.789 315.537 377.773 315.6 377.77C316.41 377.68 317.08 378.37 317.6 379.03C318.389 380.1 319.075 381.242 319.65 382.44L315.42 382.31" fill="black"/>
<path d="M368.51 446.95C369.43 446.077 370.413 445.271 371.45 444.54C374.22 442.69 377.57 441.96 380.68 440.78C383.79 439.6 386.95 437.69 388.16 434.59C388.766 432.652 388.963 430.609 388.74 428.59C388.769 427.745 388.619 426.903 388.3 426.12C387.919 425.428 387.377 424.838 386.72 424.4C382.5 421.28 376.84 421.03 371.6 421.35C360.047 422.067 348.724 424.893 338.19 429.69C337.633 429.874 337.145 430.223 336.79 430.69C336.585 431.124 336.492 431.602 336.52 432.08C336.334 435.029 336.717 437.987 337.65 440.79C339.03 444.35 341.87 447.22 343.06 450.85C343.6 452.48 343.78 454.21 344.25 455.85C344.635 457.544 345.637 459.034 347.06 460.03C351.01 462.39 354.74 459.22 357.48 456.76L368.51 446.95Z" fill="#3F3D56"/>
<path d="M316.78 460.8L311.71 449.74C310.967 448.208 310.326 446.628 309.79 445.01C309.21 443.08 308.93 441.08 308.39 439.14C306.61 432.68 302.12 427.3 299.93 420.97C299.792 420.399 299.51 419.872 299.11 419.44C298.791 419.214 298.425 419.061 298.04 418.992C297.655 418.923 297.259 418.94 296.88 419.04C293.82 419.57 291.43 421.9 288.63 423.22C287.33 423.82 285.93 424.22 284.63 424.91C283.981 425.218 283.405 425.662 282.942 426.213C282.48 426.763 282.142 427.407 281.95 428.1C281.64 429.63 282.4 431.1 283.04 432.59C285.76 438.73 286.38 445.59 286.5 452.31C286.59 456.83 286.36 461.68 283.69 465.31C278.56 472.31 281.84 482.59 283.76 491.06C283.99 492.06 284.26 493.14 284.42 494.2C284.59 495.527 284.667 496.863 284.65 498.2C284.65 502.69 284.4 507.32 282.52 511.39C284.377 512.378 286.422 512.958 288.52 513.09C294.327 513.83 300.157 514.35 306.01 514.65C307.844 514.823 309.694 514.729 311.5 514.37C313.646 513.791 315.538 512.512 316.876 510.738C318.214 508.963 318.923 506.793 318.89 504.57C319.21 507.34 319.8 510.35 321.81 512.27C323.82 514.19 326.75 514.48 329.48 514.63C337.185 515.039 344.911 514.822 352.58 513.98C353.07 513.958 353.551 513.846 354 513.65C355.48 512.91 355.56 510.87 355.44 509.23C355.22 506.16 354.99 503.09 354.62 500.04C354.307 498.096 354.146 496.13 354.14 494.16C354.293 492.134 354.628 490.126 355.14 488.16C356.48 481.92 357.54 475.55 357.09 469.16C356.913 467.604 356.849 466.036 356.9 464.47C357.16 460.94 359.02 457.58 358.67 454.07C357.67 443.75 356.86 433.16 353.98 423.2C353.46 421.42 352.8 419.51 351.25 418.49C349.25 417.15 346.44 417.85 344.15 417C343.076 416.5 342.054 415.894 341.1 415.19C339.028 413.894 336.653 413.164 334.21 413.07C332.37 413 330.32 413.41 329.21 414.89C328.696 415.724 328.356 416.652 328.21 417.62C326.76 423.72 325.06 429.75 323.36 435.78L321.73 441.56L317.36 457.08C316.93 458.73 317.22 459.24 316.78 460.8Z" fill="#274B9F"/>
<path d="M342.35 400.25L439.08 501.9V510.52H395.95L323.26 415.65" fill="#F1C0C0"/>
<path opacity="0.1" d="M342.35 400.25L439.08 501.9V510.52H395.95L323.26 415.65" fill="black"/>
<path opacity="0.1" d="M324.8 414.311L325.11 414.421L396.57 501.901H439.08V510.521H395.95L323.26 415.651L324.8 414.311Z" fill="black"/>
<path d="M335.93 416.451C332.43 417.981 328.54 419.941 327.49 423.621C327.282 424.266 327.238 424.953 327.36 425.621C327.615 426.405 328.103 427.094 328.758 427.595C329.414 428.097 330.205 428.388 331.03 428.431C332.676 428.47 334.314 428.171 335.84 427.551L356.49 420.731C357.05 420.551 357.69 420.281 357.83 419.731C357.866 419.385 357.796 419.036 357.63 418.731C356.99 417.171 356.36 413.981 355.02 412.891C353.92 412.011 351.74 412.321 350.41 412.341C345.29 412.381 340.48 414.451 335.93 416.451Z" fill="#274B9F"/>
<path d="M354.34 421.54C357.819 421.53 361.278 422.067 364.59 423.13C367.917 424.21 370.864 426.224 373.08 428.93C373.726 429.687 374.184 430.584 374.42 431.55C374.62 432.55 377.88 433.15 377.16 433.83C379.35 433.48 378.83 434.51 381.05 434.49C383.27 434.47 385.67 433.9 387 432.13C387.924 430.676 388.336 428.955 388.17 427.24C388.199 426.053 387.974 424.873 387.51 423.78C386.51 421.68 384.21 420.55 382.09 419.58L364.23 411.41C363.194 410.859 362.082 410.465 360.93 410.24C359.961 410.149 358.984 410.172 358.02 410.31L349.93 411.24C351.699 412.385 353.14 413.971 354.109 415.842C355.079 417.713 355.545 419.805 355.46 421.91" fill="#3F3D56"/>
</svg>
