<svg width="500" height="375" fill="none" xmlns="http://www.w3.org/2000/svg">
  <g clip-path="url(#a)">
    <g clip-path="url(#b)" stroke="#fff" stroke-miterlimit="10">
      <path d="M10.312 90.95c1.338-2.346 3.851-8.71 3.851-8.71C27.796 44.505 42.52 37.58 42.52 37.58c48.9-25.455 184.663-6.476 184.663-6.476C253.963 40.04 302.77 89.5 302.77 89.5l17.417 4.016s78.712 10.386 118.901 39.167c0 0 26.78 16.75 23.45 36.844l15.405 22.802s-.818 41.679-6.028 68.166l-8.934 23.372s-111.253 71.463-218.854 74.14c0 0-42.511-2.234-74.983-20.318 0 0-20.099-78.713-26.463-99.479 0 0-19.422-51.247-42.2-52.25 0 0-18.643-2.566-12.615 44.771l6.013 34.39-74.136-80.607s-2.756-32.136-8.52-37.735" stroke-width="1.5"/>
      <path d="M102.589 284.379c-5.438-33.354-1.613-61.734 8.544-63.39 10.157-1.656 22.8 24.039 28.238 57.393 5.437 33.353 1.612 61.734-8.545 63.39-10.157 1.656-22.799-24.04-28.237-57.393Z" stroke-width="1.5"/>
      <path d="M123.238 202.145c-13.293 1.704-18.775 6.222-18.775 6.222-11.053 6.817-13.97 40.413-6.281 78.956 8.277 41.563 24.797 70.684 39.069 70.451h11.198s28.104-7.543 36.299-12.772m50.151-307.564s-112.815-13.58-159.134 0c0 0 7.303 53.072 6.996 56.938 0 0 .745 7.742 13.546 8.185 0 0 189.357-13.395 202.752-10.045.024 0-24.389-31.337-64.16-55.078ZM452.058 155.48s-93.111 10.941-161.443 31.484l-9.075 5.356s16.204 8.043 20.552 31.824c0 0 20.099 5.696 31.819 20.766 0 0 75.811-1.003 118.123-32.491.024 0 12.956-34.161.024-56.939Z" stroke-width="1.5"/>
      <path d="M281.521 192.329s-56.792-20.771-113.064-22.11c0 0-7.254-.112-19.963 4.801 0 0 28.358 50.799 50.463 58.165 0 0 10.829 1.12 19.315-3.793 0 0 8.278-5.136 83.845-5.248m154.153-75.519-4.232 6.856m10.499 14.066s1.427 6.471-4.757 12.314" stroke-width="1.5"/>
      <path d="m120.117 198.255 7.479-14.865 20.879-8.374" stroke-width=".57"/>
      <path d="M302.092 301.293s-78.187 7.304-105.58 2.23l-3.409 4.913 3.574 19.651s15.669 18.644 73.61 7.591c-.009 0 28.796-28.245 31.805-34.385Zm153-59.402-90.954 30.67v28.284l89.912-34.541 1.042-24.413Zm-97.727 52.257s-26.127 5.809-33.718 14.963c0 0-32.267 40.413-38.129 44.761m168.869-95.432s8.594-8.058 9.49 2.211l2.303 14.821" stroke-width="1.5"/>
      <path d="m364.139 272.564-7.333-4.095v9.971m98.286-36.548-7.966-4.017-90.321 30.592M90.684 101.746l-3.895 4.835v15.182s71.682 34.117 84.59 48.544" stroke-width=".57"/>
      <path d="M72.518 101.748s-58.507-1.865-58.95-2.756c0 0-1.64 4.017 6.398 5.21l43.617 4.017s1.899.672 1.675.448c0 0 6.042-.146 7.26-6.919Z" stroke-width="1.5"/>
      <path d="m13.568 98.992 4.611-13.511 2.795-1.563a77.953 77.953 0 0 1 28.693-4.241s3.793 1.899 4.8 3.35c0 0 5.357 3.997 5.576 18.298m12.475.421s-4.655-7.445-7.67-6.778c0 0-.447.112-.554 1.563l-4.25.896" stroke-width="1.5"/>
      <path d="M72.104 103.342a6.027 6.027 0 0 0 2.921-2.868c-1.636-61.35-7.59-60.736-7.59-60.736-29.03-6.101-37.215 13.696-37.215 13.696l-9.528 20.397s-2.099 6.734 1.203 9.738" stroke-width=".57"/>
      <path d="M53.24 38.742s-10.05 32.17-11.836 40.851m33.64 20.884v9.007s-6.734 18.532-6.734 36.284c0 0 3.895 61.633 7.48 90.438" stroke-width=".57"/>
      <path d="M91.545 251.821c-.107-.628-72.549-74.243-72.549-74.243" stroke-width="1.5"/>
      <path d="M42.754 209.529s-20.776 2.226-25.69 1.778c0 0-3.894-.224-6.752-10.381"/>
    </g>
  </g>
  <defs>
    <clipPath id="a">
      <path fill="#fff" transform="matrix(-1 0 0 1 478.756 24)" d="M0 0h456.755v342.189H0z"/>
    </clipPath>
    <clipPath id="b">
      <path fill="#fff" transform="matrix(-1 0 0 1 478.678 23.574)" d="M0 0h469v335.165H0z"/>
    </clipPath>
  </defs>
</svg>
