<svg width="500" height="375" fill="none" xmlns="http://www.w3.org/2000/svg">
  <g clip-path="url(#a)">
    <g clip-path="url(#b)">
      <g clip-path="url(#c)" stroke="#fff" stroke-miterlimit="10">
        <path d="M14.301 81.028c17.054-30.257 43.46-49.512 43.46-49.512l18.705-11.002c206.298-13.753 299.27 20.355 299.27 20.355l12.103 15.953c33.008 24.756 81.496 80.666 81.496 80.666s.474 38.162-4.478 42.564l13.204 24.755-5.502 61.065-13.203 26.956s-99.573 51.712-234.355 59.964c0 0-37.959-5.501-78.669-21.455 0 0-12.103-17.054-23.655-71.517 0 0-13.754-79.768-48.412-60.514 0 0-16.504 8.252-4.4 61.064l-79.77-92.421s-.55-53.363-9.902-56.114c0 0-5.501-2.2-2.2 14.854" stroke-width="1.65"/>
        <path d="M387.841 56.828s-175.492-6.052-206.849 9.352c0 0 12.103 40.71 25.581 60.228 0 0 8.527 14.04 50.337 14.59 0 0 206.299-4.038 193.096-24.756M75.916 37.02S46.759 93.59 46.49 105.185l-14.584 14.353s-10.453 44.01-5.502 84.17m84.418-85.673-16.751 26.808v6.112s-17.835 24.811-14.304 46.15m-89.785-31.417 77.133 80.935" stroke-width="1.65"/>
        <path d="m218.399 134.393 7.977 26.158 4.126 61.312s13.203 55.563 46.211 55.013c0 0 141.383-8.802 179.342-36.858 0 0 23.106-12.07 0-53.363l8.802-53.913" stroke-width="1.65"/>
        <path d="m460.733 157.34-27.781 16.663s4.401 19.838 23.105 12.653l8.802-6.051m-31.908-6.601-136.432 18.154-68.711-10.546" stroke-width="1.65"/>
        <path d="M224.095 153.535s-62.115 3.301-65.262 13.825c0 0-5.347 17.098 11.157 41.854 0 0 9.385 8.802 60.255 8.802h22.264c24.756-.55 44.011-25.856 44.011-25.856m-131.581 8.481-53.813 22.324m298.169-41.809-98.473 13.203 1.909 31.396 97.923-13.753-1.359-30.846Zm52.201 106.71s5.012-14.854-10.942-9.902c0 0-105.625 35.208-160.088 39.609 0 0-33.558 1.65-48.961 25.306 0 0-8.252 7.152-16.504 9.902M76.512 289.822c-3.376-29.085 2.206-53.628 12.468-54.819 10.261-1.191 21.316 21.422 24.691 50.506 3.376 29.085-2.206 53.628-12.468 54.819-10.26 1.191-21.316-21.421-24.691-50.506Z" stroke-width="1.65"/>
        <path d="M107.275 214.163s-37.96-8.252-36.309 51.162c0 0 0 90.772 36.309 92.422 0 0 42.525-6.843 62.164-18.154M14.3 86.531S42.907 35.37 70.413 37.02c0 0 65.466 4.4 80.869 26.956 0 0 15.404 31.907 2.201 42.91 0 0-14.854 16.504-68.766 9.352 0 0-60.515-12.95-69.317-19.254-3.85-2.75-25.306-2.2-25.306-2.2-8.802-3.302 2.75-15.955 2.75-15.955 2.201-2.75 15.405-4.4 15.405-4.4 8.251-1.1 5.5 14.176 5.5 14.176s-1.1 6.178-1.1 6.728" stroke-width="1.65"/>
        <path d="m25.073 70.813-8.021 19.573s-2.2 3.3 1.65 4.951l27.858 8.907m68.415 10.892c11.167-.22 22.555-1.952 33.007-6.051 0 0 5.502-3.928 6.475-9.11.677-3.543.127-28.299-8.125-34.35 0 0-6.387-6.602-22.638-12.906m-3.794-1.397c-10.397-3.659-24.277-7.048-42.36-8.803 0 0-23.501 49.721-25.229 61.72 0 0 27.358 10.359 57.764 10.848m348 75.343s2.382 34.729-22.924 44.632c0 0-70.296 25.955-182.307 30.857m208.32 23.225s-.154-8.968-8.406-5.117c0 0-86.92 31.358-151.286 40.16 0 0-56.856 3.141-60.607 27.424m231.696-85.735s-.281-18.309-10.321-14.656c0 0-76.6 29.509-192.127 42.162 0 0-22.556 0-37.409 17.604 0 0-13.753 11.003-48.412 2.201 0 0-34.108-11.3-54.462-24.079m80.99-134.595s-59.535-4.164-58.985 17.841c0 0 .55 36.308 4.951 48.961 0 0 14.254 25.306 33.256 29.421 0 0 41.204 6.321 55.134 5.502m232.885-51.426s-6.426 10.695-11.74 13.6M387.84 56.825s-7.702-12.103-35.759-12.653c0 0-149.75-5.969-164.488 19.805" stroke-width=".55"/>
        <path d="M356.055 44.331s-109.597-16.663-176.713 6.442c0 0-2.751 11.553 1.65 15.404m-1.65-15.404S110.367 17.27 56.283 32.646m413.053 104.842S183.191 163.548 180.991 174c0 0-10.453 6.602-11.003 35.209" stroke-width=".55"/>
      </g>
    </g>
  </g>
  <defs>
    <clipPath id="a">
      <path fill="#fff" transform="translate(22.148 16.426)" d="M0 0h456.755v342.189H0z"/>
    </clipPath>
    <clipPath id="b">
      <path fill="#fff" transform="matrix(-1 0 0 1 478.904 16.426)" d="M0 0h456.755v342.189H0z"/>
    </clipPath>
    <clipPath id="c">
      <path fill="#fff" transform="matrix(-1 0 0 1 478.904 16.426)" d="M0 0h504.343v342.153H0z"/>
    </clipPath>
  </defs>
</svg>
