<svg width="308" height="200" viewBox="0 0 308 200" fill="none" xmlns="http://www.w3.org/2000/svg">
<g clip-path="url(#clip0_348_134)">
<path d="M94.3994 187.232C96.48 182.738 98.559 178.178 99.462 173.309C100.365 168.439 99.986 163.155 97.3998 158.931C94.8137 154.708 89.7217 151.844 84.8624 152.799C80.8712 153.583 77.6665 156.726 75.79 160.335C73.9135 163.944 73.1607 168.014 72.4308 172.016C72.195 167.47 71.9452 162.851 70.4351 158.556C68.925 154.262 65.9514 150.26 61.7135 148.599C57.4757 146.937 51.9627 148.244 49.7291 152.21C46.5823 157.798 50.7549 165.636 47.1365 170.931C46.5158 165.62 40.9618 161.424 35.6832 162.278C30.4046 163.132 26.4573 168.865 27.5432 174.101C28.1893 177.217 30.315 179.867 32.8563 181.781C35.3976 183.695 38.3533 185.914 41.2772 187.169L94.3994 187.232Z" fill="#F2F2F2"/>
<path d="M30.3146 166.03C34.5076 167.496 38.7392 168.978 42.5672 171.269C45.998 173.323 49.0531 176.088 50.9826 179.629C52.0397 181.528 52.6674 183.637 52.8213 185.805C52.8492 186.259 53.5587 186.262 53.5307 185.805C53.2826 181.767 51.3146 178.072 48.5895 175.149C45.6017 171.945 41.7299 169.756 37.7324 168.058C35.3622 167.051 32.9331 166.196 30.5032 165.346C30.0714 165.195 29.8858 165.88 30.3147 166.03H30.3146Z" fill="white"/>
<path d="M54.5002 149.302C57.0764 153.594 59.1393 158.174 60.6466 162.947C62.1569 167.718 63.1082 172.649 63.4815 177.64C63.6881 180.434 63.7107 183.238 63.549 186.035C63.5227 186.491 64.2321 186.49 64.2584 186.035C64.5445 180.992 64.2394 175.934 63.3491 170.962C62.4601 165.991 60.9992 161.14 58.9953 156.504C57.8705 153.901 56.5734 151.375 55.1127 148.944C55.0636 148.866 54.9862 148.811 54.8968 148.789C54.8074 148.767 54.713 148.781 54.6335 148.827C54.5541 148.874 54.4958 148.949 54.4709 149.038C54.446 149.126 54.4566 149.221 54.5002 149.302V149.302Z" fill="white"/>
<path d="M89.2184 153.377C85.5746 161.564 83.0103 170.19 81.5901 179.039C81.1913 181.524 80.8826 184.021 80.664 186.531C80.6244 186.986 81.334 186.983 81.3734 186.531C82.1458 177.703 84.0538 169.011 87.0503 160.671C87.8923 158.326 88.8192 156.014 89.8309 153.735C90.0146 153.322 89.4035 152.961 89.2184 153.377V153.377Z" fill="white"/>
<path d="M215.026 196.895L214.969 192.491L194.207 192.759L194.264 197.163L215.026 196.895Z" fill="#E6E6E6"/>
<path d="M222.403 197.877L219.438 197.868L217.605 194.598L219.586 191.339L222.341 191.347C221.651 190.47 220.704 189.83 219.632 189.518C218.56 189.206 217.418 189.237 216.364 189.607C215.311 189.977 214.4 190.667 213.759 191.581C213.118 192.495 212.779 193.587 212.789 194.703C212.8 195.819 213.16 196.904 213.818 197.806C214.476 198.707 215.4 199.38 216.46 199.73C217.52 200.08 218.663 200.09 219.729 199.757C220.795 199.425 221.73 198.767 222.403 197.877V197.877Z" fill="#E6E6E6"/>
<path d="M186.83 197.877L189.795 197.868L191.628 194.598L189.647 191.339L186.892 191.347C187.582 190.47 188.529 189.83 189.601 189.518C190.673 189.206 191.815 189.237 192.868 189.607C193.922 189.977 194.833 190.667 195.474 191.581C196.115 192.495 196.454 193.587 196.443 194.703C196.433 195.819 196.073 196.904 195.415 197.806C194.756 198.707 193.833 199.38 192.772 199.73C191.712 200.08 190.569 200.09 189.504 199.757C188.438 199.425 187.503 198.767 186.83 197.877V197.877Z" fill="#E6E6E6"/>
<path d="M307.069 187.615H0.445673C0.327473 187.615 0.214114 187.568 0.130534 187.484C0.0469544 187.4 0 187.287 0 187.169C0 187.051 0.0469544 186.937 0.130534 186.854C0.214114 186.77 0.327473 186.723 0.445673 186.723H307.069C307.187 186.723 307.3 186.77 307.384 186.854C307.468 186.937 307.515 187.051 307.515 187.169C307.515 187.287 307.468 187.4 307.384 187.484C307.3 187.568 307.187 187.615 307.069 187.615Z" fill="#3F3D56"/>
<path d="M240.88 102.937C249.003 102.937 255.588 96.3523 255.588 88.2297C255.588 80.1071 249.003 73.5225 240.88 73.5225C232.758 73.5225 226.173 80.1071 226.173 88.2297C226.173 96.3523 232.758 102.937 240.88 102.937Z" fill="#2F2E41"/>
<path d="M246.84 170.794L247.973 176.139L269.129 174.314L267.457 166.425L246.84 170.794Z" fill="#FFB8B8"/>
<path d="M245.194 187.499L241.634 170.7L248.125 169.325L250.309 179.633C250.674 181.354 250.34 183.15 249.381 184.625C248.421 186.101 246.916 187.134 245.194 187.499L245.194 187.499Z" fill="#2F2E41"/>
<path d="M233.586 170.508L231.205 175.426L211.103 168.582L214.618 161.324L233.586 170.508Z" fill="#FFB8B8"/>
<path d="M228.099 178.258L232.691 168.774L238.663 171.666L231.18 187.121C230.395 186.742 229.694 186.211 229.114 185.56C228.535 184.909 228.09 184.151 227.804 183.328C227.518 182.505 227.397 181.634 227.447 180.764C227.498 179.894 227.72 179.043 228.099 178.258V178.258Z" fill="#2F2E41"/>
<path d="M193.983 160.796C194.672 160.924 195.379 160.9 196.057 160.725C196.735 160.55 197.366 160.228 197.906 159.783C198.446 159.338 198.882 158.779 199.183 158.147C199.483 157.515 199.642 156.825 199.647 156.125L232.794 125.565L224.562 119.189L194.552 151.253C193.375 151.322 192.265 151.82 191.432 152.653C190.598 153.486 190.099 154.596 190.029 155.772C189.959 156.948 190.323 158.109 191.051 159.035C191.78 159.961 192.824 160.588 193.983 160.796H193.983Z" fill="#FFB8B8"/>
<path d="M239.034 103.601C245.08 103.601 249.981 98.7001 249.981 92.6547C249.981 86.6093 245.08 81.7085 239.034 81.7085C232.989 81.7085 228.088 86.6093 228.088 92.6547C228.088 98.7001 232.989 103.601 239.034 103.601Z" fill="#FFB8B8"/>
<path d="M248.858 156.999C241.18 156.999 231.932 155.382 226.227 148.764L226.099 148.615L226.231 148.469C226.274 148.421 230.471 143.625 226.28 135.071L220.519 136.844L214.783 129.273L217.96 119.74L230.964 109.265C232.827 107.772 235.096 106.874 237.475 106.685C241.782 106.269 245.978 105.074 249.858 103.158C251.634 102.296 253.589 101.868 255.563 101.911L255.819 101.918C256.419 101.935 257.009 102.074 257.554 102.326C258.099 102.578 258.587 102.938 258.989 103.384C259.391 103.83 259.698 104.353 259.891 104.922C260.085 105.49 260.161 106.092 260.115 106.69C259.233 118.113 257.676 145.706 262.251 155.207L262.369 155.452L262.105 155.519C257.757 156.498 253.314 156.994 248.858 156.999V156.999Z" fill="#274B9F"/>
<path d="M227.733 148.618C227.733 148.618 198.764 145.944 195.644 154.412C192.525 162.88 196.09 166.891 201.438 168.674C206.786 170.456 219.711 172.685 219.711 172.685L225.505 165.554L240.657 166.445C240.657 166.445 257.542 176.238 262.21 186.712C263.212 188.979 264.809 190.931 266.832 192.363C268.855 193.794 271.228 194.65 273.698 194.84C277.441 195.101 280.768 193.687 280.768 187.838C280.768 174.468 262.05 155.304 262.05 155.304L227.733 148.618Z" fill="#2F2E41"/>
<path d="M205.672 161.766C205.672 161.766 213.249 159.538 225.282 165.331Z" fill="#2F2E41"/>
<path d="M228.115 85.6744C232.39 88.2839 237.209 89.8719 242.198 90.3147L240.713 88.536C241.794 88.9356 242.931 89.1615 244.083 89.2051C244.659 89.2218 245.232 89.1032 245.754 88.8587C246.277 88.6142 246.735 88.2506 247.091 87.7972C247.382 87.3263 247.555 86.792 247.595 86.2399C247.635 85.6877 247.541 85.1341 247.321 84.6262C246.868 83.6132 246.164 82.7327 245.275 82.0687C243.7 80.8224 241.841 79.9852 239.863 79.6318C237.886 79.2784 235.851 79.4197 233.942 80.0431C232.632 80.4346 231.459 81.1872 230.557 82.2146C230.113 82.7321 229.805 83.3516 229.66 84.0175C229.515 84.6835 229.538 85.3749 229.726 86.0299" fill="#2F2E41"/>
<path d="M240.801 76.9247C242.746 72.4088 245.658 68.3742 249.33 65.1048C251.689 63.0089 254.443 61.2083 257.551 60.6647C260.659 60.1212 264.162 61.0524 266.068 63.5666C267.627 65.6225 267.919 68.3766 267.747 70.9509C267.575 73.5252 267 76.0746 267.055 78.6541C267.111 81.286 267.824 83.8622 269.128 86.1489C270.433 88.4355 272.288 90.3602 274.524 91.7481C276.761 93.1361 279.309 93.9434 281.938 94.0968C284.566 94.2501 287.19 93.7447 289.574 92.6264C286.89 94.11 284.799 96.4582 282.307 98.2455C279.815 100.033 276.53 101.258 273.7 100.077C270.706 98.8277 269.333 95.4336 268.26 92.3716L263.477 78.7164C262.664 76.3951 261.811 74.0049 260.152 72.1893C258.492 70.3737 255.8 69.2671 253.516 70.1799C251.785 70.8717 250.658 72.5231 249.67 74.1036C248.681 75.6842 247.639 77.3659 245.969 78.1946C244.299 79.0234 241.825 78.5132 241.279 76.7307" fill="#2F2E41"/>
<path d="M240.497 143.147L237.423 146.301L252.293 160.792L255.367 157.637L240.497 143.147Z" fill="#E6E6E6"/>
<path d="M252.478 157.897C251.87 158.521 251.461 159.311 251.302 160.167C251.143 161.024 251.242 161.908 251.586 162.709C251.93 163.509 252.503 164.19 253.233 164.664C253.964 165.139 254.819 165.386 255.69 165.375C256.561 165.363 257.409 165.094 258.127 164.601C258.845 164.108 259.4 163.412 259.723 162.603C260.046 161.794 260.122 160.908 259.941 160.056C259.76 159.204 259.33 158.424 258.707 157.816C257.87 157.001 256.744 156.552 255.576 156.567C254.408 156.582 253.294 157.06 252.478 157.897V157.897ZM256.985 162.288C256.724 162.555 256.39 162.74 256.025 162.817C255.66 162.895 255.28 162.862 254.933 162.724C254.586 162.585 254.288 162.347 254.077 162.04C253.866 161.732 253.75 161.368 253.745 160.995C253.741 160.622 253.846 160.255 254.05 159.942C254.253 159.629 254.545 159.384 254.888 159.236C255.231 159.089 255.61 159.047 255.977 159.115C256.344 159.183 256.683 159.358 256.95 159.619C257.309 159.968 257.514 160.446 257.52 160.946C257.527 161.447 257.334 161.929 256.985 162.288Z" fill="#E6E6E6"/>
<path d="M235.975 137.236L238.065 139.338L237.049 142.946L233.344 143.85L231.402 141.896C231.269 143.005 231.486 144.127 232.024 145.106C232.561 146.084 233.391 146.87 234.397 147.353C235.403 147.836 236.536 147.992 237.635 147.799C238.735 147.606 239.746 147.074 240.528 146.277C241.31 145.481 241.823 144.459 241.995 143.356C242.167 142.253 241.99 141.124 241.487 140.127C240.985 139.13 240.184 138.315 239.195 137.796C238.207 137.278 237.081 137.082 235.975 137.236V137.236Z" fill="#E6E6E6"/>
<path d="M244.557 157.037C244.368 157.037 244.179 157.026 243.992 157.006C242.892 156.878 241.867 156.382 241.084 155.599C240.301 154.816 239.805 153.791 239.678 152.691C239.599 152.005 239.667 151.309 239.876 150.651C240.085 149.993 240.431 149.386 240.891 148.87C241.351 148.355 241.915 147.942 242.545 147.66C243.175 147.378 243.858 147.232 244.549 147.231C244.768 147.233 244.986 147.249 245.203 147.28L260.168 131.35L258.606 126.142L266.452 122.625L268.651 128C269.387 129.821 269.517 131.83 269.021 133.731C268.526 135.631 267.43 137.321 265.898 138.55L249.425 151.653C249.442 151.813 249.451 151.973 249.452 152.134C249.451 152.823 249.306 153.505 249.024 154.134C248.743 154.764 248.332 155.327 247.819 155.787C246.925 156.595 245.762 157.04 244.557 157.037Z" fill="#FFB8B8"/>
<path d="M256.256 104.051C256.775 103.82 257.335 103.697 257.903 103.688C258.47 103.68 259.034 103.786 259.56 104.001C260.085 104.215 260.562 104.534 260.962 104.938C261.361 105.341 261.675 105.821 261.884 106.349L269.626 125.889L257.593 133.911L256.256 104.051Z" fill="#274B9F"/>
<rect x="25" y="1" width="174" height="119" rx="12" fill="white"/>
<path d="M199.878 108.614V11.2587C199.874 8.27403 198.687 5.41278 196.576 3.30227C194.466 1.19176 191.604 0.00422311 188.62 0H35.6333C32.6486 0.00422428 29.7874 1.19176 27.6769 3.30227C25.5663 5.41278 24.3788 8.27403 24.3746 11.2587V108.614C24.3788 111.598 25.5663 114.46 27.6769 116.57C29.7874 118.681 32.6486 119.868 35.6333 119.872H188.62C191.604 119.868 194.466 118.681 196.576 116.57C198.687 114.46 199.874 111.598 199.878 108.614ZM35.6333 118.548C32.9996 118.545 30.4746 117.497 28.6123 115.635C26.75 113.772 25.7023 111.247 25.6991 108.614V11.2587C25.7023 8.62501 26.75 6.10007 28.6123 4.23775C30.4746 2.37542 32.9996 1.32775 35.6333 1.32455H188.62C191.253 1.32775 193.778 2.37542 195.641 4.23775C197.503 6.10007 198.551 8.62501 198.554 11.2587V108.614C198.551 111.247 197.503 113.772 195.641 115.635C193.778 117.497 191.253 118.545 188.62 118.548H35.6333Z" fill="#3F3D56"/>
<path d="M198.554 17.5164H25.6991C25.5235 17.5164 25.355 17.4467 25.2308 17.3225C25.1066 17.1983 25.0369 17.0298 25.0369 16.8542C25.0369 16.6785 25.1066 16.5101 25.2308 16.3859C25.355 16.2617 25.5235 16.1919 25.6991 16.1919H198.554C198.729 16.1919 198.898 16.2617 199.022 16.3859C199.146 16.5101 199.216 16.6785 199.216 16.8542C199.216 17.0298 199.146 17.1983 199.022 17.3225C198.898 17.4467 198.729 17.5164 198.554 17.5164Z" fill="#3F3D56"/>
<path d="M36.9579 12.5832C38.7867 12.5832 40.2693 11.1007 40.2693 9.27184C40.2693 7.44301 38.7867 5.96045 36.9579 5.96045C35.129 5.96045 33.6465 7.44301 33.6465 9.27184C33.6465 11.1007 35.129 12.5832 36.9579 12.5832Z" fill="#274B9F"/>
<path d="M48.2166 12.5832C50.0454 12.5832 51.528 11.1007 51.528 9.27184C51.528 7.44301 50.0454 5.96045 48.2166 5.96045C46.3878 5.96045 44.9052 7.44301 44.9052 9.27184C44.9052 11.1007 46.3878 12.5832 48.2166 12.5832Z" fill="#274B9F"/>
<path d="M59.4753 12.5832C61.3042 12.5832 62.7867 11.1007 62.7867 9.27184C62.7867 7.44301 61.3042 5.96045 59.4753 5.96045C57.6465 5.96045 56.1639 7.44301 56.1639 9.27184C56.1639 11.1007 57.6465 12.5832 59.4753 12.5832Z" fill="#274B9F"/>
<path d="M110.398 48.134H105.05C104.222 48.134 103.429 47.8053 102.844 47.2202C102.259 46.6352 101.93 45.8416 101.93 45.0142C101.93 44.1868 102.259 43.3933 102.844 42.8083C103.429 42.2232 104.222 41.8945 105.05 41.8945H110.398C111.225 41.8945 112.019 42.2232 112.604 42.8083C113.189 43.3933 113.518 44.1868 113.518 45.0142C113.518 45.8416 113.189 46.6352 112.604 47.2202C112.019 47.8053 111.225 48.134 110.398 48.134V48.134Z" fill="#CCCCCC"/>
<path d="M146.943 61.2814H141.595C140.768 61.2814 139.974 60.9527 139.389 60.3677C138.804 59.7826 138.475 58.9891 138.475 58.1617C138.475 57.3343 138.804 56.5408 139.389 55.9557C139.974 55.3707 140.768 55.042 141.595 55.042H146.943C147.771 55.042 148.564 55.3707 149.149 55.9557C149.734 56.5408 150.063 57.3343 150.063 58.1617C150.063 58.9891 149.734 59.7826 149.149 60.3677C148.564 60.9527 147.771 61.2814 146.943 61.2814V61.2814Z" fill="#CCCCCC"/>
<path d="M163.879 61.2814H158.531C157.703 61.2814 156.91 60.9527 156.325 60.3677C155.74 59.7826 155.411 58.9891 155.411 58.1617C155.411 57.3343 155.74 56.5408 156.325 55.9557C156.91 55.3707 157.703 55.042 158.531 55.042H163.879C164.706 55.042 165.5 55.3707 166.085 55.9557C166.67 56.5408 166.998 57.3343 166.998 58.1617C166.998 58.9891 166.67 59.7826 166.085 60.3677C165.5 60.9527 164.706 61.2814 163.879 61.2814V61.2814Z" fill="#CCCCCC"/>
<path d="M180.814 61.2814H175.466C174.639 61.2814 173.845 60.9527 173.26 60.3677C172.675 59.7826 172.347 58.9891 172.347 58.1617C172.347 57.3343 172.675 56.5408 173.26 55.9557C173.845 55.3707 174.639 55.042 175.466 55.042H180.814C181.642 55.042 182.435 55.3707 183.02 55.9557C183.605 56.5408 183.934 57.3343 183.934 58.1617C183.934 58.9891 183.605 59.7826 183.02 60.3677C182.435 60.9527 181.642 61.2814 180.814 61.2814V61.2814Z" fill="#CCCCCC"/>
<path d="M147.389 48.3571H122.431C121.604 48.3571 120.81 48.0284 120.225 47.4434C119.64 46.8583 119.311 46.0648 119.311 45.2374C119.311 44.41 119.64 43.6165 120.225 43.0314C120.81 42.4464 121.604 42.1177 122.431 42.1177H147.389C148.216 42.1177 149.01 42.4464 149.595 43.0314C150.18 43.6165 150.509 44.41 150.509 45.2374C150.509 46.0648 150.18 46.8583 149.595 47.4434C149.01 48.0284 148.216 48.3571 147.389 48.3571Z" fill="#CCCCCC"/>
<path d="M130.008 60.8356H105.05C104.222 60.8356 103.429 60.5069 102.844 59.9219C102.259 59.3368 101.93 58.5433 101.93 57.7159C101.93 56.8885 102.259 56.095 102.844 55.5099C103.429 54.9249 104.222 54.5962 105.05 54.5962H130.008C130.835 54.5962 131.628 54.9249 132.214 55.5099C132.799 56.095 133.127 56.8885 133.127 57.7159C133.127 58.5433 132.799 59.3368 132.214 59.9219C131.628 60.5069 130.835 60.8356 130.008 60.8356Z" fill="#CCCCCC"/>
<path d="M179.032 48.3571H159.868C159.04 48.3571 158.247 48.0284 157.662 47.4434C157.077 46.8583 156.748 46.0648 156.748 45.2374C156.748 44.41 157.077 43.6165 157.662 43.0314C158.247 42.4464 159.04 42.1177 159.868 42.1177H179.032C179.859 42.1177 180.653 42.4464 181.238 43.0314C181.823 43.6165 182.151 44.41 182.151 45.2374C182.151 46.0648 181.823 46.8583 181.238 47.4434C180.653 48.0284 179.859 48.3571 179.032 48.3571Z" fill="#CCCCCC"/>
<path d="M110.398 74.4289H105.05C104.222 74.4289 103.429 74.1002 102.844 73.5151C102.259 72.9301 101.93 72.1366 101.93 71.3092C101.93 70.4818 102.259 69.6883 102.844 69.1032C103.429 68.5181 104.222 68.1895 105.05 68.1895H110.398C111.225 68.1895 112.019 68.5181 112.604 69.1032C113.189 69.6883 113.518 70.4818 113.518 71.3092C113.518 72.1366 113.189 72.9301 112.604 73.5151C112.019 74.1002 111.225 74.4289 110.398 74.4289V74.4289Z" fill="#CCCCCC"/>
<path d="M147.389 74.6515H122.431C121.604 74.6515 120.81 74.3228 120.225 73.7378C119.64 73.1527 119.311 72.3592 119.311 71.5318C119.311 70.7044 119.64 69.9109 120.225 69.3259C120.81 68.7408 121.604 68.4121 122.431 68.4121H147.389C148.216 68.4121 149.01 68.7408 149.595 69.3259C150.18 69.9109 150.509 70.7044 150.509 71.5318C150.509 72.3592 150.18 73.1527 149.595 73.7378C149.01 74.3228 148.216 74.6515 147.389 74.6515V74.6515Z" fill="#CCCCCC"/>
<path d="M179.032 74.6515H159.868C159.04 74.6515 158.247 74.3228 157.662 73.7378C157.077 73.1527 156.748 72.3592 156.748 71.5318C156.748 70.7044 157.077 69.9109 157.662 69.3259C158.247 68.7408 159.04 68.4121 159.868 68.4121H179.032C179.859 68.4121 180.653 68.7408 181.238 69.3259C181.823 69.9109 182.151 70.7044 182.151 71.5318C182.151 72.3592 181.823 73.1527 181.238 73.7378C180.653 74.3228 179.859 74.6515 179.032 74.6515V74.6515Z" fill="#CCCCCC"/>
<path d="M170.564 85.1251C170.565 84.298 170.894 83.505 171.479 82.9201C172.063 82.3353 172.856 82.0063 173.684 82.0054H179.032C179.859 82.0054 180.653 82.3341 181.238 82.9191C181.823 83.5042 182.151 84.2977 182.151 85.1251C182.151 85.9525 181.823 86.746 181.238 87.331C180.653 87.9161 179.859 88.2448 179.032 88.2448H173.684C172.856 88.2439 172.063 87.9149 171.479 87.33C170.894 86.7452 170.565 85.9522 170.564 85.1251V85.1251Z" fill="#CCCCCC"/>
<path d="M133.573 85.3477C133.574 84.5206 133.903 83.7277 134.488 83.1428C135.073 82.5579 135.866 82.229 136.693 82.228H161.65C162.478 82.228 163.271 82.5567 163.856 83.1418C164.441 83.7268 164.77 84.5203 164.77 85.3477C164.77 86.1751 164.441 86.9687 163.856 87.5537C163.271 88.1388 162.478 88.4675 161.65 88.4675H136.693C135.866 88.4665 135.073 88.1376 134.488 87.5527C133.903 86.9678 133.574 86.1749 133.573 85.3477Z" fill="#CCCCCC"/>
<path d="M101.93 85.3477C101.931 84.5206 102.26 83.7277 102.845 83.1428C103.43 82.5579 104.223 82.229 105.05 82.228H124.214C125.041 82.228 125.835 82.5567 126.42 83.1418C127.005 83.7268 127.334 84.5203 127.334 85.3477C127.334 86.1751 127.005 86.9687 126.42 87.5537C125.835 88.1388 125.041 88.4675 124.214 88.4675H105.05C104.223 88.4665 103.43 88.1376 102.845 87.5527C102.26 86.9678 101.931 86.1749 101.93 85.3477Z" fill="#CCCCCC"/>
<path d="M63.6702 85.3404C73.9815 85.3404 82.3404 76.9815 82.3404 66.6702C82.3404 56.3589 73.9815 48 63.6702 48C53.3589 48 45 56.3589 45 66.6702C45 76.9815 53.3589 85.3404 63.6702 85.3404Z" fill="#FA603D"/>
<rect x="61.5" y="55" width="4" height="17" rx="2" fill="white"/>
<rect x="61.5" y="74" width="4" height="4" rx="2" fill="white"/>
</g>
<defs>
<clipPath id="clip0_348_134">
<rect width="307.515" height="200" fill="white"/>
</clipPath>
</defs>
</svg>
