<svg xmlns="http://www.w3.org/2000/svg" viewBox="0 0 500 375" style="enable-background:new 0 0 500 375" xml:space="preserve"><style>.st2,.st3{fill:none;stroke:#fff;stroke-miterlimit:10}.st3{stroke-width:.5}</style><g id="Calque_2"><path class="st2" d="M424.8 276.4c0 15.5-13.1 28.1-29.2 28.1s-32.8-15.3-32.8-30.8 11.3-30.6 31.7-29.7c16.6.8 30.3 13.5 30.3 32.4zM118.9 266.8c.3 1.9.5 3.9.5 6 0 17.1-16.3 32-33.4 32s-30-13.3-30-30.4S73.7 244 90.8 244c3.4 0 6.5.5 9.4 1.3" transform="matrix(-1 0 0 1 500 0)"/><path class="st2" d="M357.8 275.1s-234.4 4.3-235.1 4.2c-.6-.1-2-16.2-14.7-28.6-27.1-21.7-49.1-3.2-52.7 2-2.8 4-8.9 16.5-1.1 26.6-1.7.6-26.6-.7-31.2-8.1-4.9-7.8-6.1-26.3 1.5-30.4.4-3.1-.2-10.9 3-14.4 1-1.3 3-11.1 8-16.7.6-1 1.6-2.7 4.4-4.5 8.4-4 32.7-12 36.6-14.9 3.9-2.9 12.7-8.1 35.1-29.6 23-20.5 29.6-26.6 37.6-32 8-5.4 24.1-14.6 40.5-17.6s64.4-3.8 135.1-5.5c37.5-.3 118.6-2 126.7-1.5 8 .5 11.7.9 14.7 6.1 5.3 9.1 8.1 53.1 8.6 62.5s1.6 55.9 1.3 64.6c.2.1 1 .2 1.3.2 1.4.2 4.3 1.1 5 1.5v2.5c0 .5-2.1.4-2.4.8 0 .3-.3 5.7-.2 6.6.5.3 3.5 1.2 4.2 1.8.6 1 .1 11.4-.1 12.1-.2.7.3 3.9-7.1 4.7-7.4.8-45.2 2.9-45.8 2.7s3.5-6-2.3-16.9c-5.8-10.9-18.7-17.3-30.3-17.2-11.8.2-20.9 6.1-26.6 11.4-5.2 4.7-13.5 20-14 27.6z" transform="matrix(-1 0 0 1 500 0)"/><path class="st2" d="M474.8 185.1c-1.6 0-5.5 4.6-6 5.1-.5.4.7 44.1.7 44.6s.8 3.8 2.2 3.8 4.3-1.5 4.3-1.5M163.7 207s18.2-.7 18.5-.6c.3.1 0 2.3 0 2.4 0 .2-17.6.7-18 .6s-.6-1.9-.5-2.4zM59.7 202.2S48.4 213.6 48 214.5c-.4.9-4.3 10.3-4.4 10.7-.1.5-14.5 1.1-14.7 1.1-.2 0 4.9-14.5 6.8-16.3 4.5-3.2 22.6-7.5 24-7.8zM104.3 206.9l-6.6 1.2v-1.2s-3.6-.1-4.4-.2c-1-.1-3-1.7-3-4.1s0-19.6 1.2-22.2c1.2-2.6 3.4-2.7 5.3-2.6 1.9 0 2.9.8 3.3 1.3.6.7.9 6 1.2 14.1.6.1.9.2.9.2l2.1 13.5z" transform="matrix(-1 0 0 1 500 0)"/><path class="st3" d="M98.4 178.4c-1.4.3-2.6 2.2-2.8 6s-.7 19.9-.6 20.3c.1.4 1.3 2 3.1 2s2.5-1.1 2.9-2c.3-.9.2-11.1.2-11.1M24.8 240.9c-.3 2.4 20.2 2.3 30 2.3 0 0 12.1-10.7 28.3-9.6 16.2 1.1 26.2 6.2 32.2 14.7 6.1 8.5 12.4 22.3 13.6 31.1M20.8 252.3s.5 10.3 1 10.9c.5.6 5.2 4.1 7.2 2.2 2-1.8 2.2-7.4 2-7.8-.1-.4-2.3-3.8-3.3-3.8-1.1-.1-6-1.3-6.9-1.5zM471.8 238.8c1.5.5 9.6.7 10.3.3M479.4 249.1c0 .3.1 1.9.1 1.9s3.3 0 4-.2M350.6 275.2c2.4-12 10.9-28.7 21-36.1 13.1-9.7 33.1-12.5 47.7-3.2 27.9-.4 48.2-.8 50.2-.9" transform="matrix(-1 0 0 1 500 0)"/><path class="st3" d="m193.4 278-2.2-34-1.9-112.7s-35.7 2.7-46.7 8.5c-14.6 7.6-41.4 33.9-45.5 37.9M90.4 187.5S67.9 210 68.2 210.6c2 1.5 29.1-2.2 29.1-2.2" transform="matrix(-1 0 0 1 500 0)"/><path class="st3" d="M92.5 206.4s.7 25.3 2.4 29M104.8 207.1c2.7-.5 38.6-6.1 41.8-7.3 5.2-1.9 22.9-6.2 25.9-12.4 3.5-7.1 7.8-41.3 5.7-46.8-3.2-5.1-34 .3-41.9 5.9-11.8 8.3-30.7 27-36.4 31.9M213.2 131.3c-2 .5-8.3 0-9.3 11.2-1.3 16.3-3.3 42.9-1.9 45 1.8 2.7 5.9 6 16.3 5.1s208.2-7.7 211.2-7.4c3 .3 22.8-14 22.8-17.2s-.3-34.1-1.8-35c-1.5-.9 0-6.2-15.1-6.5-15.1-.4-214.1 2.8-222.2 4.8z" transform="matrix(-1 0 0 1 500 0)"/><path class="st2" d="m52.7 276.8 3.3-2.4M359 269.4l4.6-2.5M423.9 268.2l6.8 2" transform="matrix(-1 0 0 1 500 0)"/></g></svg>