<svg xml:space="preserve" style="enable-background:new 0 0 500 375" viewBox="0 90 500 220" xmlns="http://www.w3.org/2000/svg"><style>.ftransit18-G24AdP6r_svg__st2,.ftransit18-G24AdP6r_svg__st3{fill:none;stroke:#fff;stroke-miterlimit:10}.ftransit18-G24AdP6r_svg__st3{stroke-width:.5}</style><g id="ftransit18-G24AdP6r_svg__Calque_2"><path d="M75.2 276.4c0 15.5 13.1 28.1 29.2 28.1s32.8-15.3 32.8-30.8-11.3-30.6-31.7-29.7c-16.6.8-30.3 13.5-30.3 32.4zm305.9-9.6c-.3 1.9-.5 3.9-.5 6 0 17.1 16.3 32 33.4 32s30-13.3 30-30.4-17.7-30.4-34.8-30.4c-3.4 0-6.5.5-9.4 1.3" class="ftransit18-G24AdP6r_svg__st2"/><path d="M142.2 275.1s234.4 4.3 235.1 4.2c.6-.1 2-16.2 14.7-28.6 27.1-21.7 49.1-3.2 52.7 2 2.8 4 8.9 16.5 1.1 26.6 1.7.6 26.6-.7 31.2-8.1 4.9-7.8 6.1-26.3-1.5-30.4-.4-3.1.2-10.9-3-14.4-1-1.3-3-11.1-8-16.7-.6-1-1.6-2.7-4.4-4.5-8.4-4-32.7-12-36.6-14.9-3.9-2.9-12.7-8.1-35.1-29.6-23-20.5-29.6-26.6-37.6-32-8-5.4-24.1-14.6-40.5-17.6s-64.4-3.8-135.1-5.5c-37.5-.3-118.6-2-126.7-1.5-8 .5-11.7.9-14.7 6.1-5.3 9.1-8.1 53.1-8.6 62.5s-1.6 55.9-1.3 64.6c-.2.1-1 .2-1.3.2-1.4.2-4.3 1.1-5 1.5v2.5c0 .5 2.1.4 2.4.8 0 .3.3 5.7.2 6.6-.5.3-3.5 1.2-4.2 1.8-.6 1-.1 11.4.1 12.1.2.7-.3 3.9 7.1 4.7 7.4.8 45.2 2.9 45.8 2.7s-3.5-6 2.3-16.9c5.8-10.9 18.7-17.3 30.3-17.2 11.8.2 20.9 6.1 26.6 11.4 5.2 4.7 13.5 20 14 27.6z" class="ftransit18-G24AdP6r_svg__st2"/><path d="M25.2 185.1c1.6 0 5.5 4.6 6 5.1.5.4-.7 44.1-.7 44.6s-.8 3.8-2.2 3.8-4.3-1.5-4.3-1.5M336.3 207s-18.2-.7-18.5-.6c-.3.1 0 2.3 0 2.4 0 .2 17.6.7 18 .6s.6-1.9.5-2.4zm104-4.8s11.3 11.4 11.7 12.3c.4.9 4.3 10.3 4.4 10.7.1.5 14.5 1.1 14.7 1.1.2 0-4.9-14.5-6.8-16.3-4.5-3.2-22.6-7.5-24-7.8zm-44.6 4.7 6.6 1.2v-1.2s3.6-.1 4.4-.2c1-.1 3-1.7 3-4.1s0-19.6-1.2-22.2c-1.2-2.6-3.4-2.7-5.3-2.6-1.9 0-2.9.8-3.3 1.3-.6.7-.9 6-1.2 14.1-.6.1-.9.2-.9.2l-2.1 13.5z" class="ftransit18-G24AdP6r_svg__st2"/><path d="M401.6 178.4c1.4.3 2.6 2.2 2.8 6s.7 19.9.6 20.3c-.1.4-1.3 2-3.1 2s-2.5-1.1-2.9-2c-.3-.9-.2-11.1-.2-11.1m76.4 47.3c.3 2.4-20.2 2.3-30 2.3 0 0-12.1-10.7-28.3-9.6-16.2 1.1-26.2 6.2-32.2 14.7-6.1 8.5-12.4 22.3-13.6 31.1m108.1-27.1s-.5 10.3-1 10.9c-.5.6-5.2 4.1-7.2 2.2-2-1.8-2.2-7.4-2-7.8.1-.4 2.3-3.8 3.3-3.8 1.1-.1 6-1.3 6.9-1.5zm-451-13.5c-1.5.5-9.6.7-10.3.3m2.7 10c0 .3-.1 1.9-.1 1.9s-3.3 0-4-.2m132.9 24.4c-2.4-12-10.9-28.7-21-36.1-13.1-9.7-33.1-12.5-47.7-3.2-27.9-.4-48.2-.8-50.2-.9" class="ftransit18-G24AdP6r_svg__st3"/><path d="m306.6 278 2.2-34 1.9-112.7s35.7 2.7 46.7 8.5c14.6 7.6 41.4 33.9 45.5 37.9m6.7 9.8s22.5 22.5 22.2 23.1c-2 1.5-29.1-2.2-29.1-2.2" class="ftransit18-G24AdP6r_svg__st3"/><path d="M407.5 206.4s-.7 25.3-2.4 29m-9.9-28.3c-2.7-.5-38.6-6.1-41.8-7.3-5.2-1.9-22.9-6.2-25.9-12.4-3.5-7.1-7.8-41.3-5.7-46.8 3.2-5.1 34 .3 41.9 5.9 11.8 8.3 30.7 27 36.4 31.9m-113.3-47.1c2 .5 8.3 0 9.3 11.2 1.3 16.3 3.3 42.9 1.9 45-1.8 2.7-5.9 6-16.3 5.1s-208.2-7.7-211.2-7.4c-3 .3-22.8-14-22.8-17.2s.3-34.1 1.8-35c1.5-.9 0-6.2 15.1-6.5 15.1-.4 214.1 2.8 222.2 4.8z" class="ftransit18-G24AdP6r_svg__st3"/><path d="m447.3 276.8-3.3-2.4m-303-5-4.6-2.5m-60.3 1.3-6.8 2" class="ftransit18-G24AdP6r_svg__st2"/></g></svg>