<svg version="1.1" id="Calque_1" xmlns="http://www.w3.org/2000/svg" x="0" y="0" viewBox="0 0 500 375" style="enable-background:new 0 0 500 375" xml:space="preserve"><style>.st2,.st3{fill:none;stroke:#fff;stroke-miterlimit:10}.st3{stroke-width:.5}</style><g id="Calque_1_00000048472917073567943130000000551728185891398280_"><path class="st2" d="m499.8 193.6-68.9 57s-2.7-1.5 3-7.9 16.7-33.8 12-53.5-23.4-7.7-28.1-4.3c-9.4 5.6-36.6 42.2-63.9 103-4.5 25.4-12.4 32.4-17.1 35.5-4.7 3-51.5 26-75 29.1-24.8 3.4-64.2 3.2-90.2-7.7-46.7-19.2-96.4-58.2-123.8-90.6-17.1-25.4-30-57.9-25.3-66.2s13.6-16.6 14.2-17.6c.7-1-8.8-36.8 5-69.7 8.7-18.5 98.4-44.2 101.7-45.1 9.8-5.1 50.1-47.8 60-55.5"/><path class="st2" d="M36.9 170.1c0 7.9.9 20.2 5.6 24.2s56.8 37.6 69.2 37.3c12.4-.3 17.9-7.5 21.2-16.9s10.4-49.8 10.4-55.2-9.8-49-17.9-55.7c-8-6.7-82.2-5-85.1.8M372 51.1s-23.7 37.5-24.8 43.8-11.4 48.8-11.4 48.8-129.8 23-138.8 21.5-26.3-29.5-26.5-43.6c-.1-7.2 3.6-17.2 11.5-22.2 10.2-6.3 181-46 190-48.3zM460.7 0s-6.2 24.3-6.7 31.4c-5.2 1.8-16.3 3.1-18.8 3.9-1.1 2.1.1 35.7 0 37.1-.7 1 18-4.9 19.4-4.9s3.6 4.4 13.4 4.1 29.8-2.4 31.7-3.9M499.8 82.9s-11.1-.4-11.4 0c-.4.4-1.1 3.9-.7 5.3s11.9.6 12.4.5M406.6 196.2c6.8 2.7 19.8 10.4 22.1 33 2.6 25.6-2.3 48-10 71s-18.2 45.7-35.5 58.3c-18.6 9.2-34.8-1.8-42.3-6-7.6-4.3-21.3-14.6-22-20.2"/><path class="st3" d="M180 293.3c5 9.1 14.2 25.2 17.3 27.8s7.3 6.3 15 6.6c7.7.3 49.3-1.4 67.5-6.8 5.4-2.1 6.8-2.6 11.7-9.1 4.9-6.5 11.9-21.7 12.1-24.8.2-3.1-4-11.9-9.8-12.4s-52.1 5.6-56.3 5.4-47.4 2.4-51.4 2.6c-4 .2-10.8 2-6.1 10.7zM33.2 228.5l-2.1-20.3 42.6 29.5 3.4 28.5-42.4-34.7M172.5 111.6l-40.1 5.2M372.6 50.6c2.4-3.7 12.1-17.1 11.2-20.4-1.3-4.6-19.1-9-21.5-9.7M394.5 0c-6.3 7.1-16.6 17.1-34.2 20.6s-154 30-200.5 31.4c10.7-12.7 44-45.5 48.4-52M458.6 69.8S397.7 93 388.5 84.9c-.9-3.4 21.9-44.4 40.8-84.8M445.1 238.8c14.5-35.1 2.3-72.4-1.2-76.5-3-3.4-19.8-22.7-62.1 40.4-159.1 45.7-240.5 19.1-249.3 15.1"/><path class="st3" d="M429.1.3c1.3 14.7-2 99-1.6 111.3s11.7 36.1 16.6 51.1"/></g></svg>
