<svg version="1.1" id="Layer_1" xmlns="http://www.w3.org/2000/svg" x="0" y="0" viewBox="0 0 500 375" style="enable-background:new 0 0 500 375" xml:space="preserve"><style>.st0{fill:none;stroke:#fff;stroke-width:1.0006;stroke-miterlimit:10}</style><path class="st0" d="M113.7 213c0 77.5 55.3 145.9 137.7 150.7 78.1 4.6 139.1-36.5 143.4-129.4.2-91.5-62.2-151.2-140.5-151.2S113.7 135.5 113.7 213z"/><path class="st0" d="m0 224.9 64 6.7 25.8 2.7S52.9 157 118.3 97.8c47.6-36.3 111.8-60.1 204.1-18.1 61.8 31 86.4 81.6 92.6 122.5 3.4 22.7 1.1 42.4-3.8 54 3.8 5.8 45.4 6.1 88.8.4"/><path class="st0" d="M64 231.4C30.9 144 86.4 54.1 169.5 26.9c1.2-.4 2.4-.8 3.5-1.1C264.6.2 349.7 42 384.6 74.5c15.9-.9 66.5 2.6 115.4 4.5"/><path class="st0" d="m414.8 202.2-23.2-3.1M113.7 213s-14.8 5.2-23.5 21.8M169.4 27.2c0-.1.1-.2.1-.2 1.4-2.9 4-13.2 7.2-26.9"/></svg>
