<svg xml:space="preserve" style="enable-background:new 0 0 500 375" viewBox="0 0 500 375" xmlns="http://www.w3.org/2000/svg"><style>.ftransit18-eztNpSRX_svg__st2,.ftransit18-eztNpSRX_svg__st3{fill:none;stroke:#fff;stroke-miterlimit:10}.ftransit18-eztNpSRX_svg__st3{stroke-width:.5}</style><g id="ftransit18-eztNpSRX_svg__Calque_2"><path d="M500 267.9c-4.1 3.8-15.7 18-24.2 61.1-1.1.2-451.6-7-456.5-7.9-1.2-7-6.6-28.8-19.2-46.4" class="ftransit18-eztNpSRX_svg__st2"/><path d="M0 350.7c4.8-4.6 18-25.5 14.4-47.6m70.9 19.5c-4.4 4.7-24.4 5.4-30.2-.6M500 362.2c-7.7-3.1-21.9-27.1-24.2-33.2m21.8-194.6c-9.6-7-67.6-51.3-72.8-54.8-5.3-3.6-45.8-33.8-94.9-43S.1 27.6.1 27.6m385.5 163.8s-32.9-.3-33.9-.5c-1-.3-1.5-3.6-.7-4.7s33.2.2 33.7.8c.7.7 1.8 1.5.9 4.4z" class="ftransit18-eztNpSRX_svg__st2"/><path d="M500.5 131c-1 .6-3 1.9-3.9 6.9-.9 5.1.7 24.6.8 25.2.1.6-2.2 1.2-3.8 1.2-1 0-1.7 1.2-1.7 1.6s.5 22.7.5 22.7 7.5 1.1 8.1 1.3" class="ftransit18-eztNpSRX_svg__st2"/><path d="M335.7 327c3.2-17.1 3.8-30.3 2.8-32.5-1.9-6.3-3.8-29.3.4-37.8.7-12.6-7.3-182-6.7-192.5 41.6.8 80.4 10 90.9 17.7s72.2 52.8 73.5 56" class="ftransit18-eztNpSRX_svg__st3"/><path d="M492.2 188.8c-5.8-.8-62-8.2-69.2-10.5s-48.5-11.2-54.6-21.2c-6.2-6.5-15.1-50.7-17.3-71-1.4-12.8 4.8-10.2 12.4-10.1 4.8.2 44.1 3.2 62.9 14.8s70 51 70 51M0 56.5s270.4 5 279.1 5.3c10 .3 24.2-2.5 27.7 13.9s8.8 68.8 7 72.4c-1.8 3.5 1.3 11.9-15.4 12.3-16.7.4-298.4-8.8-298.4-8.8" class="ftransit18-eztNpSRX_svg__st3"/></g></svg>