<svg xml:space="preserve" id="ftransit18-NwBMLo3Z_svg__Calque_1" x="0" y="0" style="enable-background:new 0 0 500 375" version="1.1" viewBox="0 0 500 375" xmlns="http://www.w3.org/2000/svg"><style>.ftransit18-NwBMLo3Z_svg__st2{fill:none;stroke:#fff;stroke-miterlimit:10}</style><g id="ftransit18-NwBMLo3Z_svg__Calque_1_00000048502369421040073170000003706523260150608041_"><path d="m295.1 26.9.2-.3c41.8.3 66 6.1 75.9 9 9.3 2.8 10.3 3.4 15.1 24.5 12 49.9 10.4 188.3 7.2 218.7 2.6 4.4 4.9 7.7 5.9 10.3.4 4.8-.6 23.4-3.5 43.1s-21.1 20.7-28.8 22.5c-81 9.2-195.3 4.6-233.3 0-15.6-2.1-24-7.5-27.7-16.7s-6.7-41.3-5.5-48.9c1.3-4.4 5.8-8.7 5.7-11.1-6-85.6 2.6-198.2 7.5-216.7 4.5-26.5 7-24.3 25.9-29 16.2-3 65.5-6 65.6-6.2.1 0-.2 0-.1.2" class="ftransit18-NwBMLo3Z_svg__st2"/><path d="m106.1 278 .1 4.1 6.3 4.7 8.7.4-2.1-91.6s-8.5-8-9.8-8.1-4.7 3.1-5 3.4m289.1 87.9v3.6l-6 4.5H379l1.8-91.5s7.8-7.5 9.3-7.7c1.5-.1 4.8 2.4 5.6 3.9m-274.4 96.1c.1 9.1 1.7 32.9 7.7 38 9.3 5.8 64.2 5.9 121.2 6.1 53 .2 106.2 0 121.2-6.1 6.1-8.5 7.3-26.6 7.6-38.4m-128.9 44.5-.3-296.4" class="ftransit18-NwBMLo3Z_svg__st2"/><path d="M117.7 194.3c.5-12.3-.5-135.2 8.3-147.1 1.3-1.7 4.1-5.1 9.9-6 40.3-6 181.2-9.1 227.7-.8 6.6 1.2 10.3 3.9 12 9.6 10.6 56.6 6.3 134.7 6.6 144m-84.3 29.6s-31.6-.2-32.2-.3c-.6 0-3.2.3-3.1 2.1 0 1.8.3 3 1.9 3.3s31.8-.3 33.2-.5c1.5-.1 1.2-4.6.2-4.6zm-197.5 65.7c4.1 3.7 17.6 2.8 17.6 2.8l3.3-4.9m278 2c-2.2 3-16.9 2.7-16.9 2.7l-3.6-5m3.7 5.1c-.2 5.8 1.4 37.7-.2 42.1-2.1 6-2.6 6.9-12.8 8.5-5 .8-62.5 5.6-119.7 5.5-59-.1-117.8-5-120.1-5.4-4.4-.7-12.3-2.1-12.7-10.8s.8-39.5.8-39.5" class="ftransit18-NwBMLo3Z_svg__st2"/><path d="M203.5 36.3s-1.4-5.5-2-6c-.6-.6 11.3-10.2 13.7-11.7 2.2-1.3 4.9-2 10.4-2.3 5.3-.3 47.1-.5 51.7.2s7.8 2.2 9.2 3.3c1.3 1 11 9.1 12.1 10.2-.6 2-1.3 3.2-2 5.4m-133.1 271h78.6v15.8h-78.6zm-26 40.7v5.2l16.7 1.1-.3-5.3zm208.5 1-.3 5.5 16.4-1.3.1-5.2zM134.7 82.7c-5.1 18.6-3.7 92.1-3.1 94.7s1.2 17.5 34.2 21.1 154.6 1.7 162 1.2c18.4-1.2 36.6-9.3 38.9-16.1 2.4-6.8 1.4-91.3-1-98.3-.3-.9-.9-7.8-6.7-11.4-10.2-3.5-100.4-6.5-108.7-5.9s-96.4 3.6-100.3 4.2c-3.8.6-12.7.9-15.3 10.5z" style="stroke-width:.5;fill:none;stroke:#fff;stroke-miterlimit:10"/></g></svg>