<svg version="1.2" xmlns="http://www.w3.org/2000/svg" width="2048" height="1536"><style>.s0{fill:none;stroke:#fff;stroke-linecap:round;stroke-linejoin:round;stroke-width:4.6}</style><path id="Layer" class="s0" d="M450.3 0c306.5 45.8 1216.1 190.1 1337.4 213.6 121.3 23.5 190.6 64.2 260.2 124m0 922.1L862.5 1460.5l-6.3-9.7 3.4-35-27.9-55.6c-24.2-.9-52.1 0-52.1 0"/><path class="s0" d="M272.6 1536s-2-77 77.1-179.6c79-102.6 247.4-154.6 357.4-74.1 112.3 82.2 111.9 205.2 102.1 253.7"/><path class="s0" d="M378.2 1536c11.7-48.5 59.9-137.4 183.1-153.1 131-16.7 184.6 92.3 172.8 153.1"/><path class="s0" d="M215.2 1536c-6.4-132.7 125.2-297.8 333.9-327.8s328.8 112.8 310.5 207.5c0 0 1039.8-164.7 1188.3-188"/><path class="s0" d="M141.3 1536c7.3-73.5 11.3-136.3 143.9-260.9 132.6-124.6 302.2-142.3 432.4-107.7 130.2 34.6 218.6 188.1 191.2 240.5"/><path class="s0" d="M310.3 1416.2c-25.8 3.6-73.4 13.2-73.4 13.2m1811-652.5c-58.1-24.9-59.4-63.3-63-96.1-3.5-32.9-12.4-184.9-12.4-208.1 0-23.2 1.3-32.7 10.9-31.8 9.6.9 42.2 3.6 64.5 8.6M-.1 169.1c27.4-13.9 68.2-12.7 243 4.1C417.7 190 1609.5 324 1782.8 356.1c26.8 5 68.1 11.5 72.1 58.1s14.5 245.7 11.7 288.3c-2.8 42.6-7 62.1-77.4 61.4-70.4-.7-1521.1-18.1-1556.1-19.5-39.9-1.6-61.7-10.3-99.9-32.1-37.4-21.4-86.3-53.4-133.3-88.9m1915-371.8c12.3 25.4 15 104.9 15 166.3 0 61.4-9.9 340.6-8.1 350.1 1.8 9.4 8 23.3 8.1 41.2.1 17.8-.9 71.3-2.4 80.6-1.4 9.3-8.8 25.7-8.6 31.7 1.4 34.9-.8 94.8-4.1 128.4-.6 5.7 11.9 23.9 9.4 39.9s-5 48.1-9.5 63.8c-4.5 15.7-11.9 32.5-11.6 48.1-5 25.7-4.4 34.9-24.5 52.6"/><path class="s0" d="M1919.4 961.7c23.6 16.7 46 42.8 48.4 48.6 2.3 5.7-.5 28.7-1.7 39.7-.6 5.7 11.9 23.9 9.4 39.9s-5 48.1-9.5 63.8c-4.5 15.6-12 32.4-11.6 48.1-5 25.7-10.6 34.4-24.5 44.5m118-843.5c-24.7-6.7-83.5-21-118-28.1M185.8 0c437.8 62.5 1378.1 202.2 1477.1 218.7s182.9 29.7 259 57.5"/><path class="s0" d="M1205.5 149.6c3.8 34.4 8.9 126 5.1 132.5.9 43.9 8.8 384.5 4.9 475 7.7 27 9.3 98.6 8.9 118.5-.4 19.9-5.5 51.2-4.3 66.8 1.2 15.6 6 60.5 4.3 91.4-1.6 30.9-7.1 63.3-4.7 75 2.3 11.7 5.1 35.5 5.1 45.3 0 9.8-6.2 52.7-6.2 64.4 0 11.7-16.8 65.2-1.6 82 1.2 21.5-.3 43.9-11.5 60.4"/><path class="s0" d="M795.3 1204.2c129.9-23 343.9-43.8 429.5-50.2 85.6-6.4 823.1-75.4 823.1-75.4m0 104.5s-1020.5 136.4-1140.4 165.5m-571.4-114.9c-85 .7-225.3 14.5-336.2 30.3m158.5 180.3L-.1 1460.4M2048 861.2c-13.5 5.6-71.1 4.3-77.8 4.2-6.7-.2-6.6-2.5-6.6-4.5v-6.4c0-4.8 4.3-5.6 9-5.8 4.7-.2 36.9-.4 47.6-.8 10.7-.4 23.3-.4 27.7 1.9"/><path class="s0" d="M1979.4 848.6c-.5-3.8 4.3-15.2 17.3-15.2 15.8 0 25.1 8.9 25.2 14.5m-.4 17.1c-1.3 6.3-6.6 13.3-20.9 13.8-14.3.5-20.2-6.1-21.9-13.1"/></svg>