<svg xmlns="http://www.w3.org/2000/svg" viewBox="0 0 515.41 334.35"><defs><style>.cls-1{stroke:#fff;stroke-linecap:round;stroke-linejoin:round}.cls-1,.cls-2,.cls-3{fill:none}.cls-4{fill:#e1a25b}.cls-5{fill:#f49796;stroke:#f49796}.cls-2,.cls-3,.cls-5,.cls-6{stroke-miterlimit:10;stroke-width:2px}.cls-6{fill:#31333e;stroke:#595e72}.cls-2{stroke:#e1a25b}.cls-3{stroke:#62b0ef}.cls-7{font-family:sans-serif;font-size:13px;isolation:isolate}.cls-7,.cls-8{fill:#fff}</style></defs><path id="bumper_back" class="cls-1 car-part selectable" d="M13.86 148.21c-.1 3 2.6 13.7 4.7 18s11.2 8.2 11.2 8.2 0-.4-.1-1c-.9-1.4-3.2-4.2-3.8-8.3-.92-6.33 1.61-12.99 4.66-13.05l-14.96-5.65s-1.5 1.3-1.7 1.8h0Z"/><g id="door_back_right" class="car-part selectable"><path class="cls-1" d="M48.26 104.69V38.55c24.64-6.23 55.58-13.47 73.65-15.53l.55 10.79s.7 84.5.8 87.8c-1.47 6.8-3.19 20.8-1.68 33.9-1.29 11.17-5.2 31.65 2.89 63.66l-70.18-37.74c-2.14-11.17-5.81-38.21-6.03-50.6-1.31-5.66-1.66-20.21 0-26.14h0Zm49.95 33.77c2.71 1.65 11.13 3.39 14.91 3.51.57-1.24.42-3.03.42-3.03-3.85-1.32-11.75-3.35-14.92-3.8-.72.7-.68 2.57-.41 3.32Z"/><path id="handle_back_left" class="cls-1 car-part" d="M98.21 138.46c2.71 1.65 11.13 3.39 14.91 3.51.57-1.24.42-3.03.42-3.03-3.85-1.32-11.75-3.35-14.92-3.8-.72.7-.68 2.57-.41 3.32Z"/></g><path id="fender_back_right" class="cls-1 car-part selectable" d="M11.36 108.41c.1 3.5 4.2 38 4.2 38l14.96 5.65c.28 0 .56.04.84.15 1.78.68 4.46 4.02 7.02 8.29 2.33 3.9 4.55 8.56 5.88 12.71.38 1.2.85 2.39 1.39 3.57l8.64 4.65c-2.14-11.17-5.81-38.21-6.03-50.6-1.31-5.66-1.66-20.21 0-26.14V38.55c-20.99 5.3-37.4 9.86-37.4 9.86-.8 4.8.4 56.5.5 60h0Z"/><path id="head_light_right" class="cls-1 car-part selectable" d="M265.06 156.21s17.7 25.2 18.7 28.6c1 3.4 6.6 24.4 6.6 24.4s63.3 18.9 75.3 13.9c8.3-3 12.5-25.6 11-30.1-.02-.07-.05-.14-.07-.2-1.28-3.55-2.49-4.74-5.73-6.6-90.2-17.1-105.8-30.7-105.8-30h0Z"/><path id="windshield_front" class="cls-1 car-part selectable" d="M183.66 45.21c.16.25 1.14 1.6 2.74 3.78 9.17 12.48 38.67 52.1 51.36 68.02.46.58.93 1.14 1.42 1.68 6.36 7.11 14.94 11.46 23.15 14.11 11.52 3.73 22.33 4.11 25.33 4.11 5.3 0 87.7-9.3 88.6-10.7.48-.75-19.3-20.76-37.84-39.24-16.15-16.11-31.36-31.06-31.36-31.06-34.4-15.2-88.28-15.92-119.5-17.5-4.51 0-5 5.1-3.9 6.8h0Z"/><g id="door_front_right" class="car-part selectable"><path class="cls-1" d="m124.47 219.17 59.44 31.96c-1.92-7.78-1.36-17.27 6.35-26.12.43-.5.88-.96 1.36-1.39.19-.18.39-.36.6-.52.07-.06.15-.12.22-.17.19-.16.38-.3.57-.43a.81.81 0 0 1 .2-.14c.19-.15.38-.27.58-.39.24-.16.49-.31.75-.45.29-.17.58-.31.87-.45.04-.02.08-.04.11-.06.63-.29 1.27-.54 1.94-.76h.01c.13-.43 2.23-13.85 2.3-13.85v-.19c1.18-7.75 12.65-41.57 13.96-44.74-6.18-2.4-11.98-4.95-16.27-7.26v-.51h-.5c-1.2 3.3-32 4.9-33.3-3.7-.47-2.71-.64-6.84-.53-11.52-19.77-11.58-21.07-14.88-23.67-19.98-1.4-6.1-8.6-64.2-4.5-74.7 17.4-6.6 30.6 4.5 36.7 10.1 5.38 4.94 34.77 48.31 43.04 60.4.06-1.19.12-2.32.18-3.4.18-3.29-.68-6.55-2.48-9.31-6.75-10.35-20.1-31.78-33.63-47.31-4.81-5.53-9.64-10.31-14.21-13.58-13.42-9.6-42.1-6.9-42.1-6.9s.7 84.5.8 87.8c-1.47 6.8-3.19 20.8-1.68 33.9-1.29 11.17-5.2 31.65 2.89 63.66h0Z"/><path id="handle_front_left" class="cls-1 car-part" d="M126.46 146.01c2.58 1 10.89 2.72 14.8 3.1.29-.98.4-3.3.4-3.3-2.53-1.22-11.24-3.08-14.9-3.4-.5.1-.9 2.4-.3 3.6h0Z"/></g><path id="mirror_right" class="cls-1 car-part selectable" d="M163.66 150.01c1.3 8.6 32.1 7 33.3 3.7.08-.02.26-.02.51 0 .09 0 .2 0 .34.03.07 0 .14 0 .22.02.08 0 .17.02.26.03l.29.03c.86.1 2.09.27 3.5.47l.21.03c1.38.2 2.93.43 4.47.66 2.56.38 5.09.77 6.83 1.04 0 .33 0 .64.01.95 0 .61.01 1.17.02 1.68v.09c0 .14.01.28.01.42 0 .12.01.24.01.36.01.12.01.24.02.35 0 .12.01.23.01.34v.27c.01.19.02.37.04.52.01.16.03.3.04.42l-.03.06c17.03 6.62 36.87 12.11 35.33 8.44 0 0-14.99-24.72-24.61-40.34-3.9-6.33-6.91-11.16-7.69-12.26-.25-.34-.97-1.39-2.06-2.99-.02.33-.03.66-.05 1-.02.5-.04 1.02-.07 1.54l-.03.59c-.01.4-.03.81-.05 1.22v.32c-.02.37-.03.74-.05 1.11-.02.4-.03.81-.05 1.22 0 .09 0 .18-.01.26-.03.66-.05 1.32-.08 1.99 0 .08 0 .16-.01.24l-.09 2.53v.04c-.04.87-.07 1.75-.09 2.63-.06 1.69-.11 3.39-.16 5.07l-5.99-.57-8.4-.8s-1.5-15.7-3-19.8-3.3-9.5-7.2-9.9c-3.9-.4-15.1-.5-17.7 1.4-5.41 2.6-8.19 20.65-8.53 34.08-.11 4.68.06 8.81.53 11.52h0Z"/><path id="window_front_right" class="cls-1 car-part selectable" d="M134.96 43.81c17.4-6.6 30.6 4.5 36.7 10.1 5.38 4.94 34.77 48.31 43.04 60.4h0c-.02.34-.03.67-.05 1.01-.01.33-.03.67-.05 1.02 0 .17-.01.34-.02.52l-.03.59c-.01.4-.03.81-.05 1.22v.32c-.02.37-.03.74-.05 1.11-.01.37-.03.74-.04 1.11 0 .04-.01.07-.01.11 0 .09 0 .18-.01.26-.03.66-.05 1.32-.08 1.99 0 .08 0 .16-.01.24v.16l-.09 2.37v.04c-.03.81-.06 1.63-.08 2.44v.19c-.06 1.69-.11 3.39-.16 5.07l-5.99-.57-8.4-.8s-1.5-15.7-3-19.8-3.3-9.5-7.2-9.9c-3.9-.4-15.1-.5-17.7 1.4-5.41 2.6-8.19 20.65-8.53 34.08-19.77-11.58-21.07-14.88-23.67-19.98-1.4-6.1-8.6-64.2-4.5-74.7h-.02Zm62.51 109.89c.09 0 .2 0 .34.03.07 0 .14 0 .22.02.08 0 .17.02.26.03l.29.03c.86.11 2.09.28 3.5.47l.21.03c.33.05.67.1 1.02.15 1.88.29 3.45.55 3.45.55v-.04c2.56.38 5.09.77 6.83 1.04 0 .33 0 .64.01.95-.01.22 0 .44 0 .66v.24c.01.18.01.34.01.51v.36c0 .14.01.28.01.42 0 .12.01.24.01.36.01.12.01.24.02.35 0 .12.01.23.01.34v.27c.01.13.02.24.03.35 0 .06 0 .12.01.17.01.16.03.3.04.42l-.03.06c-6.18-2.4-11.98-4.95-16.27-7.26v-.51h.03Z"/><path id="grill_radiator" class="cls-1 car-part selectable" d="M393.26 219.61c0 1.7 3.8 25.2 4.8 28.4.09.3.19.62.31.95 1.13 3.03 3.89 6.87 11.29 6.15 8.3-.8 34.5-25.1 37.2-29.8 2.68-4.67 2.21-14.47 2.59-18.91h.11c0-.69 4.6-21.79-2-36.09-.48-1.17-.98-2.25-1.5-3.25l-.1.05c-1.6-.1-9 4.4-13.8 6.4-7.8 3.3-28.7 10.2-32.1 14.8-.89 1.2-1.78 3.79-2.6 7h-.01c-2.33 9.06-4.19 23.04-4.19 24.3Z"/><path id="hood" class="cls-1 car-part selectable" d="M259.7 142.11c0 5.53 3.24 11.31 5.36 14.1 0-.7 15.6 12.9 105.8 30 3.24 1.86 4.45 3.05 5.73 6.6l.27-.1c2.1.9 15.28 2.6 20.59 2.6h.01c.82-3.21 1.71-5.8 2.6-7 3.4-4.6 24.3-11.5 32.1-14.8 4.8-2 12.2-6.5 13.8-6.4l.1-.05c-4.44-8.69-9.69-11.1-12.2-14.15-3.9-6.5-13.2-11.6-17.1-13.4-3.9-1.8-32.9-15.3-39-18s-14.1-9.6-15.5-11.3c-.74-.9-10.11-10.03-20.36-20.25l-.81-.81-.81-.81-.81-.81c-.27-.27-.54-.54-.81-.8l-.24.24c18.54 18.48 38.32 38.49 37.84 39.24-.9 1.4-83.3 10.7-88.6 10.7-3 0-13.81-.38-25.33-4.11l-.07.21c-.3.1-2.56 4.87-2.56 9.1h0Z"/><path id="license_plate_front" class="cls-1 car-part selectable" d="m425.58 279.77 25.58-28.14c.59-1.02 1.12-1.98 1.57-2.88V235.3l-26.66 24.29-.48 20.19h0Z"/><path id="fog_light_front_right" class="cls-1 car-part selectable" d="M309.46 289.11c.2 1.7 4.2 12 9.6 16.1 5.3 4.1 37.1 4.5 41.6 4.2 4.5-.4 5.3-2.2 6.1-2.9 2.4-2.4 11.1-16.6 10.7-18.6-.1-.8-1.5-2.3-3.8-2.3s-23-1.1-34.2-1.9-15.1-3.4-22.2-2.3-8 6-7.8 7.7h0Z"/><path id="fender_front_right" class="cls-1 car-part selectable" d="M197.47 220.24c7.66-2.52 17.83-.06 27.71 5.54 2.74 1.55 5.45 3.34 8.08 5.33 2.24 1.7 4.45 3.72 6.62 5.97l17.48 2.73c2.2 1.6 71.8 17.2 81 18 9.19.8 41.89 1.5 60.01-8.85-.12-.33-.22-.65-.31-.95-1-3.2-4.8-26.7-4.8-28.4 0-1.26 1.86-15.24 4.19-24.3-5.31 0-18.49-1.7-20.59-2.6l-.27.1c.02.06.05.13.07.2 1.5 4.5-2.7 27.1-11 30.1-12 5-75.3-13.9-75.3-13.9s-5.6-21-6.6-24.4-18.7-28.6-18.7-28.6c-2.12-2.79-5.36-8.57-5.36-14.1 0-4.23 2.26-9 2.56-9.1l.07-.21c-8.21-2.65-16.79-7-23.15-14.11l-14.73 10.88c9.62 15.62 24.61 40.34 24.61 40.34 1.54 3.67-18.3-1.82-35.33-8.44-1.31 3.17-12.78 36.99-13.97 44.74v.19c-.06 0-2.16 13.42-2.29 13.84h0Z"/><path id="bumper_front" class="cls-1 car-part selectable" d="M257.36 239.81c2.2 1.6 71.8 17.2 81 18 9.19.8 41.89 1.5 60.01-8.85 1.13 3.03 3.89 6.87 11.29 6.15 8.3-.8 34.5-25.1 37.2-29.8 2.68-4.67 2.21-14.47 2.59-18.91h.11c0 .61 9.2 9.61 9.5 12.21s-.3 18-6 29.5c-.1.21-.21.42-.33.64V235.3l-26.66 24.29-.48 20.19 25.58-28.14c-7.13 12.33-23.25 33.09-38.3 45.88-16.6 14.1-24.9 18.1-35.2 21.7-10.3 3.6-33.2 9.5-59 4-20.8-4.43-34.58-9.91-39.98-12.44-1.3-.61-2.11-1.05-2.42-1.26-1.6-1.1-5.1-21.2-9.3-30.9-1.21-2.78-12.96-26.85-27.08-41.53l17.48 2.73h0Zm52.1 49.3c.2 1.7 4.2 12 9.6 16.1 5.3 4.1 37.1 4.5 41.6 4.2 4.5-.4 5.3-2.2 6.1-2.9 2.4-2.4 11.1-16.6 10.7-18.6-.1-.8-1.5-2.3-3.8-2.3s-23-1.1-34.2-1.9-15.1-3.4-22.2-2.3-8 6-7.8 7.7h0Z"/><path id="roof" class="cls-1 car-part selectable" d="M10.86 48.41s16.41-4.56 37.4-9.86c24.64-6.23 55.58-13.47 73.65-15.53l.55 10.79s28.68-2.7 42.1 6.9c4.57 3.27 9.4 8.05 14.21 13.58 1.49-1.89 6.44-4.84 7.63-5.3-1.6-2.18-2.58-3.53-2.74-3.78-1.1-1.7-.61-6.81 3.9-6.8 31.22 1.58 85.1 2.3 119.5 17.5 0 0 15.21 14.95 31.36 31.06l.24-.24c-8.21-8.23-16.48-16.67-20.9-21.72-10.6-12.1-25.6-23.9-33.8-28.9s-35.8-15.2-40.3-16.8-44-13.6-85.4-15.8c-41.4-2.2-35.8-.6-50.8 2.9s-91.3 30.8-92.4 31c-1.1.2-3.4 6.2-4.2 11Z"/><path id="pillar" class="cls-1 car-part selectable" d="M212.4 101.6a15.48 15.48 0 0 1 2.48 9.31c-.06 1.08-.12 2.21-.18 3.4h0c1.09 1.61 1.81 2.66 2.06 3 .78 1.1 3.79 5.93 7.69 12.26l14.73-10.88c-.49-.54-.96-1.1-1.42-1.68-12.69-15.92-42.19-55.54-51.36-68.02-1.19.46-6.14 3.41-7.63 5.3 13.53 15.53 26.88 36.96 33.63 47.31Z"/><g id="wheel_back_right" class="car-part selectable"><path class="cls-1" d="M30.55 174.41c.2-6 1.57-9.6 4.01-12.2 1.4-1.1 3.8-1.7 3.8-1.7h.02c2.33 3.89 4.55 8.55 5.88 12.7.38 1.2.85 2.39 1.39 3.57.22.49.46.98.7 1.46.23.45.47.91.71 1.35.04.07.08.13.11.19.25.44.49.87.75 1.29.27.46.56.92.84 1.36 3.22 5.01 6.98 8.96 8.7 9.98 1.69.94 3.81 2.14 6.3 3.54-.2 3.31-.32 9.57-6 12.86-5.7 3.4-11.56 2.75-13.01 2.34-3.74-1.07-6.69-3.64-10.29-12.14-1.5-3.5-3.6-12.6-3.9-20.9-.05-1.33-.05-2.56 0-3.7h0Zm5.77 15.38c2.17 9.1 5.97 16 8.48 15.4 2.52-.6 2.8-8.47.63-17.57-2.17-9.11-5.96-16-8.48-15.4-2.51.59-2.79 8.46-.63 17.57h0Z"/><path class="cls-1" d="M36.32 189.79c2.17 9.1 5.97 16 8.48 15.4 2.52-.6 2.8-8.47.63-17.57-2.17-9.11-5.96-16-8.48-15.4-2.51.59-2.79 8.46-.63 17.57h0Z"/></g><path class="cls-1 background" d="M25.86 165.11c.6 4.1 2.9 6.9 3.8 8.3.1.6.1 1 .1 1h.79c.2-6 1.57-9.6 4.01-12.2 1.4-1.1 3.8-1.7 3.8-1.7h.02c-2.56-4.28-5.24-7.62-7.02-8.3-.28-.11-.56-.16-.84-.15-3.05.06-5.58 6.72-4.66 13.05h0ZM183.91 251.13c.69 2.79 1.7 5.36 2.81 7.61h.01c.68 1.4 1.41 2.66 2.13 3.77l4.48-.47c.44-8.2 2.23-16.46 6.72-22.73 6.8-9.5 21.4-12.2 25.1-13.5l.02-.03c-9.88-5.6-20.05-8.06-27.71-5.54-.67.22-1.32.47-1.95.77-.03.02-.07.04-.11.06-.29.14-.58.28-.87.45-.26.14-.51.29-.75.45-.2.12-.39.24-.58.39a.81.81 0 0 0-.2.14c-.19.13-.38.27-.57.43-.07.05-.15.11-.22.17-.21.16-.41.34-.6.52-.48.43-.93.89-1.36 1.39-7.71 8.85-8.27 18.34-6.35 26.12h0Z"/><g id="wheel_front_right" class="car-part selectable"><path class="cls-1" d="M193.34 262.04c.44-8.2 2.23-16.46 6.72-22.73 6.8-9.5 21.4-12.2 25.1-13.5l.02-.03c2.74 1.55 5.45 3.34 8.08 5.33 2.24 1.7 4.45 3.72 6.62 5.97l.58.61c.42.45.85.92 1.28 1.39 1.51 1.69 2.99 3.47 4.43 5.31.24.3.48.61.71.91.48.61.94 1.23 1.4 1.86l.69.93c.22.31.45.63.68.94.22.32.44.63.67.95.22.31.44.63.66.94l.65.95c.43.63.86 1.26 1.28 1.9.21.31.41.63.62.94.41.63.82 1.26 1.22 1.89.4.62.79 1.24 1.17 1.86.19.31.38.62.57.92 1.75 2.86 3.34 5.59 4.72 8.06l.68 1.24c.15.28.3.56.45.82.34.63.66 1.23.97 1.81.21.4.41.78.61 1.15.19.37.38.73.56 1.08.17.35.34.68.51 1 .16.32.31.62.46.91.12.26.24.5.35.72.02.03.03.06.05.09.12.25.24.49.35.71.26.56.47 1 .62 1.32.05.13.1.23.14.32 4.2 9.7 7.7 29.8 9.3 30.9.31.21 1.12.65 2.42 1.26l-.02.04c-1.7 4.9-3.7 6.9-4.6 7.5-.9.6-14.9 13.6-24.4 15s-20.3 1-33.4-12.5c-13.1-13.5-21.8-34.9-22.7-46.4-.31-3.92-.44-8.13-.22-12.37h0Zm14.44 32.82c8.36 18.11 22.93 29.19 32.54 24.75s10.62-22.72 2.26-40.82c-8.36-18.11-22.93-29.19-32.54-24.75s-10.62 22.71-2.26 40.82Z"/><path class="cls-1" d="M207.78 294.86c8.36 18.11 22.93 29.19 32.54 24.75s10.62-22.72 2.26-40.82c-8.36-18.11-22.93-29.19-32.54-24.75s-10.62 22.71-2.26 40.82Z"/></g><path id="rocker_panel_right" class="cls-1 car-part selectable" d="M45.65 176.78c.22.49.46.98.7 1.46.23.45.47.91.71 1.35.04.07.08.13.11.19.25.44.49.87.75 1.29.27.46.56.92.84 1.36 3.22 5.01 6.98 8.96 8.7 9.98 1.69.94 3.81 2.14 6.3 3.54 14.18 8.04 40.15 23 64.72 36.96 21.98 12.49 42.84 24.17 53.16 29.36 1.77.9 3.23 1.6 4.33 2.08 1.3.6 2.96-1.21 2.89-1.84-.72-1.11-1.45-2.37-2.13-3.76h-.01c-1.11-2.26-2.12-4.83-2.81-7.62l-59.44-31.96-70.18-37.74-8.64-4.65h0Z"/><g id="damage-pill_hood"><circle class="cls-6 damage-pill-background" cx="383.4" cy="157.18" r="19.13"/><circle class="cls-3 severity-low" cx="383.4" cy="157.18" r="9.1"/><circle class="cls-5 severity-high" cx="383.4" cy="157.18" r="9.1"/><circle class="cls-8 severity-none" cx="383.4" cy="157.18" r="9.1"/><g class="severity-medium"><circle class="cls-2 severity-medium severity-medium" cx="383.4" cy="157.18" r="9.1"/><path class="cls-4 severity-medium" d="M383.4 148.08v18.1c-5 0-9.1-4.1-9.1-9.1s4.1-9 9.1-9Z"/></g></g><g id="damage-pill-pricing_hood"><path class="cls-6 damage-pill-background" d="M438.38 176.32H383.4c-10.56 0-19.13-8.58-19.13-19.13 0-10.56 8.58-19.13 19.13-19.13h54.98c10.56 0 19.13 8.58 19.13 19.13 0 10.56-8.58 19.13-19.13 19.13Z"/><text class="cls-7 damage-pill-text" transform="translate(405.49 161.47)">9999€</text><circle class="cls-3 severity-low" cx="383.4" cy="157.18" r="9.1"/><circle class="cls-5 severity-high" cx="383.4" cy="157.18" r="9.1"/><circle class="cls-8 severity-none" cx="383.4" cy="157.18" r="9.1"/><g class="severity-medium"><circle class="cls-2 severity-medium severity-medium" cx="383.4" cy="157.18" r="9.1"/><path class="cls-4 severity-medium" d="M383.4 148.08v18.1c-5 0-9.1-4.1-9.1-9.1s4.1-9 9.1-9Z"/></g></g><g id="damage-pill_head_light_right"><circle class="cls-6 damage-pill-background" cx="333.93" cy="199.19" r="19.13"/><circle class="cls-3 severity-low" cx="333.93" cy="199.19" r="9.1"/><circle class="cls-5 severity-high" cx="333.93" cy="199.19" r="9.1"/><circle class="cls-8 severity-none" cx="333.93" cy="199.19" r="9.1"/><g class="severity-medium"><circle class="cls-2 severity-medium severity-medium" cx="333.93" cy="199.19" r="9.1"/><path class="cls-4 severity-medium" d="M333.93 190.09v18.1c-5 0-9.1-4.1-9.1-9.1s4.1-9 9.1-9Z"/></g></g><g id="damage-pill-pricing_head_light_right"><path class="cls-6 damage-pill-background" d="M388.91 218.32h-54.98c-10.56 0-19.13-8.58-19.13-19.13 0-10.56 8.58-19.13 19.13-19.13h54.98c10.56 0 19.13 8.58 19.13 19.13 0 10.56-8.58 19.13-19.13 19.13Z"/><text class="cls-7 damage-pill-text" transform="translate(356.02 203.47)">9999€</text><circle class="cls-3 severity-low" cx="333.93" cy="199.19" r="9.1"/><circle class="cls-5 severity-high" cx="333.93" cy="199.19" r="9.1"/><circle class="cls-8 severity-none" cx="333.93" cy="199.19" r="9.1"/><g class="severity-medium"><circle class="cls-2 severity-medium severity-medium" cx="333.93" cy="199.19" r="9.1"/><path class="cls-4 severity-medium" d="M333.93 190.09v18.1c-5 0-9.1-4.1-9.1-9.1s4.1-9 9.1-9Z"/></g></g><g id="damage-pill_bumper_front"><circle class="cls-6 damage-pill-background" cx="398.15" cy="278.6" r="19.13"/><circle class="cls-3 severity-low" cx="398.15" cy="278.6" r="9.1"/><circle class="cls-5 severity-high" cx="398.15" cy="278.6" r="9.1"/><circle class="cls-8 severity-none" cx="398.15" cy="278.6" r="9.1"/><g class="severity-medium"><circle class="cls-2 severity-medium severity-medium" cx="398.15" cy="278.6" r="9.1"/><path class="cls-4 severity-medium" d="M398.15 269.5v18.1c-5 0-9.1-4.1-9.1-9.1s4.1-9 9.1-9Z"/></g></g><g id="damage-pill-pricing_bumper_front"><path class="cls-6 damage-pill-background" d="M453.13 297.74h-54.98c-10.56 0-19.13-8.58-19.13-19.13 0-10.56 8.58-19.13 19.13-19.13h54.98c10.56 0 19.13 8.58 19.13 19.13 0 10.56-8.58 19.13-19.13 19.13Z"/><text class="cls-7 damage-pill-text" transform="translate(420.24 282.89)">9999€</text><circle class="cls-3 severity-low" cx="398.15" cy="278.6" r="9.1"/><circle class="cls-5 severity-high" cx="398.15" cy="278.6" r="9.1"/><circle class="cls-8 severity-none" cx="398.15" cy="278.6" r="9.1"/><g class="severity-medium"><circle class="cls-2 severity-medium severity-medium" cx="398.15" cy="278.6" r="9.1"/><path class="cls-4 severity-medium" d="M398.15 269.5v18.1c-5 0-9.1-4.1-9.1-9.1s4.1-9 9.1-9Z"/></g></g><g id="damage-pill_grill_radiator"><circle class="cls-6 damage-pill-background" cx="425.86" cy="210.02" r="19.13"/><circle class="cls-3 severity-low" cx="425.86" cy="210.02" r="9.1"/><circle class="cls-5 severity-high" cx="425.86" cy="210.02" r="9.1"/><circle class="cls-8 severity-none" cx="425.86" cy="210.02" r="9.1"/><g class="severity-medium"><circle class="cls-2 severity-medium severity-medium" cx="425.86" cy="210.02" r="9.1"/><path class="cls-4 severity-medium" d="M425.86 200.92v18.1c-5 0-9.1-4.1-9.1-9.1s4.1-9 9.1-9Z"/></g></g><g id="damage-pill-pricing_grill_radiator"><path class="cls-6 damage-pill-background" d="M480.85 229.16h-54.98c-10.56 0-19.13-8.58-19.13-19.13 0-10.56 8.58-19.13 19.13-19.13h54.98c10.56 0 19.13 8.58 19.13 19.13 0 10.56-8.58 19.13-19.13 19.13Z"/><text class="cls-7 damage-pill-text" transform="translate(447.95 214.31)">9999€</text><circle class="cls-3 severity-low" cx="425.86" cy="210.02" r="9.1"/><circle class="cls-5 severity-high" cx="425.86" cy="210.02" r="9.1"/><circle class="cls-8 severity-none" cx="425.86" cy="210.02" r="9.1"/><g class="severity-medium"><circle class="cls-2 severity-medium severity-medium" cx="425.86" cy="210.02" r="9.1"/><path class="cls-4 severity-medium" d="M425.86 200.92v18.1c-5 0-9.1-4.1-9.1-9.1s4.1-9 9.1-9Z"/></g></g><g id="damage-pill_license_plate_front"><circle class="cls-6 damage-pill-background" cx="440.3" cy="256.49" r="19.13"/><circle class="cls-3 severity-low" cx="440.3" cy="256.49" r="9.1"/><circle class="cls-5 severity-high" cx="440.3" cy="256.49" r="9.1"/><circle class="cls-8 severity-none" cx="440.3" cy="256.49" r="9.1"/><g class="severity-medium"><circle class="cls-2 severity-medium severity-medium" cx="440.3" cy="256.49" r="9.1"/><path class="cls-4 severity-medium" d="M440.3 247.39v18.1c-5 0-9.1-4.1-9.1-9.1s4.1-9 9.1-9Z"/></g></g><g id="damage-pill-pricing_license_plate_front"><path class="cls-6 damage-pill-background" d="M495.28 275.62H440.3c-10.56 0-19.13-8.58-19.13-19.13 0-10.56 8.58-19.13 19.13-19.13h54.98c10.56 0 19.13 8.58 19.13 19.13 0 10.56-8.58 19.13-19.13 19.13Z"/><text class="cls-7 damage-pill-text" transform="translate(462.38 260.77)">9999€</text><circle class="cls-3 severity-low" cx="440.3" cy="256.49" r="9.1"/><circle class="cls-5 severity-high" cx="440.3" cy="256.49" r="9.1"/><circle class="cls-8 severity-none" cx="440.3" cy="256.49" r="9.1"/><g class="severity-medium"><circle class="cls-2 severity-medium severity-medium" cx="440.3" cy="256.49" r="9.1"/><path class="cls-4 severity-medium" d="M440.3 247.39v18.1c-5 0-9.1-4.1-9.1-9.1s4.1-9 9.1-9Z"/></g></g><g id="damage-pill_fog_light_front_right"><circle class="cls-6 damage-pill-background" cx="346.81" cy="297.04" r="19.13"/><circle class="cls-3 severity-low" cx="346.81" cy="297.04" r="9.1"/><circle class="cls-5 severity-high" cx="346.81" cy="297.04" r="9.1"/><circle class="cls-8 severity-none" cx="346.81" cy="297.04" r="9.1"/><g class="severity-medium"><circle class="cls-2 severity-medium severity-medium" cx="346.81" cy="297.04" r="9.1"/><path class="cls-4 severity-medium" d="M346.81 287.94v18.1c-5 0-9.1-4.1-9.1-9.1s4.1-9 9.1-9Z"/></g></g><g id="damage-pill-pricing_fog_light_front_right"><path class="cls-6 damage-pill-background" d="M401.79 316.17h-54.98c-10.56 0-19.13-8.58-19.13-19.13 0-10.56 8.58-19.13 19.13-19.13h54.98c10.56 0 19.13 8.58 19.13 19.13 0 10.56-8.58 19.13-19.13 19.13Z"/><text class="cls-7 damage-pill-text" transform="translate(368.89 301.32)">9999€</text><circle class="cls-3 severity-low" cx="346.81" cy="297.04" r="9.1"/><circle class="cls-5 severity-high" cx="346.81" cy="297.04" r="9.1"/><circle class="cls-8 severity-none" cx="346.81" cy="297.04" r="9.1"/><g class="severity-medium"><circle class="cls-2 severity-medium severity-medium" cx="346.81" cy="297.04" r="9.1"/><path class="cls-4 severity-medium" d="M346.81 287.94v18.1c-5 0-9.1-4.1-9.1-9.1s4.1-9 9.1-9Z"/></g></g><g id="damage-pill_wheel_front_right"><circle class="cls-6 damage-pill-background" cx="227.61" cy="284.01" r="19.13"/><circle class="cls-3 severity-low" cx="227.61" cy="284.01" r="9.1"/><circle class="cls-5 severity-high" cx="227.61" cy="284.01" r="9.1"/><circle class="cls-8 severity-none" cx="227.61" cy="284.01" r="9.1"/><g class="severity-medium"><circle class="cls-2 severity-medium severity-medium" cx="227.61" cy="284.01" r="9.1"/><path class="cls-4 severity-medium" d="M227.61 274.91v18.1c-5 0-9.1-4.1-9.1-9.1s4.1-9 9.1-9Z"/></g></g><g id="damage-pill-pricing_wheel_front_right"><path class="cls-6 damage-pill-background" d="M282.59 303.14h-54.98c-10.56 0-19.13-8.58-19.13-19.13 0-10.56 8.58-19.13 19.13-19.13h54.98c10.56 0 19.13 8.58 19.13 19.13 0 10.56-8.58 19.13-19.13 19.13Z"/><text class="cls-7 damage-pill-text" transform="translate(249.7 288.29)">9999€</text><circle class="cls-3 severity-low" cx="227.61" cy="284.01" r="9.1"/><circle class="cls-5 severity-high" cx="227.61" cy="284.01" r="9.1"/><circle class="cls-8 severity-none" cx="227.61" cy="284.01" r="9.1"/><g class="severity-medium"><circle class="cls-2 severity-medium severity-medium" cx="227.61" cy="284.01" r="9.1"/><path class="cls-4 severity-medium" d="M227.61 274.91v18.1c-5 0-9.1-4.1-9.1-9.1s4.1-9 9.1-9Z"/></g></g><g id="damage-pill_fender_front_right"><circle class="cls-6 damage-pill-background" cx="257" cy="202.89" r="19.13"/><circle class="cls-3 severity-low" cx="257" cy="202.89" r="9.1"/><circle class="cls-5 severity-high" cx="257" cy="202.89" r="9.1"/><circle class="cls-8 severity-none" cx="257" cy="202.89" r="9.1"/><g class="severity-medium"><circle class="cls-2 severity-medium severity-medium" cx="257" cy="202.89" r="9.1"/><path class="cls-4 severity-medium" d="M257 193.79v18.1c-5 0-9.1-4.1-9.1-9.1s4.1-9 9.1-9Z"/></g></g><g id="damage-pill-pricing_fender_front_right"><path class="cls-6 damage-pill-background" d="M311.99 222.02h-54.98c-10.56 0-19.13-8.58-19.13-19.13 0-10.56 8.58-19.13 19.13-19.13h54.98c10.56 0 19.13 8.58 19.13 19.13 0 10.56-8.58 19.13-19.13 19.13Z"/><text class="cls-7 damage-pill-text" transform="translate(279.09 207.18)">9999€</text><circle class="cls-3 severity-low" cx="257" cy="202.89" r="9.1"/><circle class="cls-5 severity-high" cx="257" cy="202.89" r="9.1"/><circle class="cls-8 severity-none" cx="257" cy="202.89" r="9.1"/><g class="severity-medium"><circle class="cls-2 severity-medium severity-medium" cx="257" cy="202.89" r="9.1"/><path class="cls-4 severity-medium" d="M257 193.79v18.1c-5 0-9.1-4.1-9.1-9.1s4.1-9 9.1-9Z"/></g></g><g id="damage-pill_pillar"><circle class="cls-6 damage-pill-background" cx="207.2" cy="83.98" r="19.13"/><circle class="cls-3 severity-low" cx="207.2" cy="83.98" r="9.1"/><circle class="cls-5 severity-high" cx="207.2" cy="83.98" r="9.1"/><circle class="cls-8 severity-none" cx="207.2" cy="83.98" r="9.1"/><g class="severity-medium"><circle class="cls-2 severity-medium severity-medium" cx="207.2" cy="83.98" r="9.1"/><path class="cls-4 severity-medium" d="M207.2 74.88v18.1c-5 0-9.1-4.1-9.1-9.1s4.1-9 9.1-9Z"/></g></g><g id="damage-pill-pricing_pillar"><path class="cls-6 damage-pill-background" d="M262.18 103.11H207.2c-10.56 0-19.13-8.58-19.13-19.13 0-10.56 8.58-19.13 19.13-19.13h54.98c10.56 0 19.13 8.58 19.13 19.13 0 10.56-8.58 19.13-19.13 19.13Z"/><text class="cls-7 damage-pill-text" transform="translate(229.28 88.26)">9999€</text><circle class="cls-3 severity-low" cx="207.2" cy="83.98" r="9.1"/><circle class="cls-5 severity-high" cx="207.2" cy="83.98" r="9.1"/><circle class="cls-8 severity-none" cx="207.2" cy="83.98" r="9.1"/><g class="severity-medium"><circle class="cls-2 severity-medium severity-medium" cx="207.2" cy="83.98" r="9.1"/><path class="cls-4 severity-medium" d="M207.2 74.88v18.1c-5 0-9.1-4.1-9.1-9.1s4.1-9 9.1-9Z"/></g></g><g id="damage-pill_window_front_right"><circle class="cls-6 damage-pill-background" cx="160.22" cy="87.13" r="19.13"/><circle class="cls-3 severity-low" cx="160.22" cy="87.13" r="9.1"/><circle class="cls-5 severity-high" cx="160.22" cy="87.13" r="9.1"/><circle class="cls-8 severity-none" cx="160.22" cy="87.13" r="9.1"/><g class="severity-medium"><circle class="cls-2 severity-medium severity-medium" cx="160.22" cy="87.13" r="9.1"/><path class="cls-4 severity-medium" d="M160.22 78.03v18.1c-5 0-9.1-4.1-9.1-9.1s4.1-9 9.1-9Z"/></g></g><g id="damage-pill-pricing_window_front_right"><path class="cls-6 damage-pill-background" d="M215.21 106.27h-54.98c-10.56 0-19.13-8.58-19.13-19.13 0-10.56 8.58-19.13 19.13-19.13h54.98c10.56 0 19.13 8.58 19.13 19.13 0 10.56-8.58 19.13-19.13 19.13Z"/><text class="cls-7 damage-pill-text" transform="translate(182.31 91.42)">9999€</text><circle class="cls-3 severity-low" cx="160.22" cy="87.13" r="9.1"/><circle class="cls-5 severity-high" cx="160.22" cy="87.13" r="9.1"/><circle class="cls-8 severity-none" cx="160.22" cy="87.13" r="9.1"/><g class="severity-medium"><circle class="cls-2 severity-medium severity-medium" cx="160.22" cy="87.13" r="9.1"/><path class="cls-4 severity-medium" d="M160.22 78.03v18.1c-5 0-9.1-4.1-9.1-9.1s4.1-9 9.1-9Z"/></g></g><g id="damage-pill_mirror_right"><circle class="cls-6 damage-pill-background" cx="182.49" cy="131.87" r="19.13"/><circle class="cls-3 severity-low" cx="182.49" cy="131.87" r="9.1"/><circle class="cls-5 severity-high" cx="182.49" cy="131.87" r="9.1"/><circle class="cls-8 severity-none" cx="182.49" cy="131.87" r="9.1"/><g class="severity-medium"><circle class="cls-2 severity-medium severity-medium" cx="182.49" cy="131.87" r="9.1"/><path class="cls-4 severity-medium" d="M182.49 122.77v18.1c-5 0-9.1-4.1-9.1-9.1s4.1-9 9.1-9Z"/></g></g><g id="damage-pill-pricing_mirror_right"><path class="cls-6 damage-pill-background" d="M237.47 151.01h-54.98c-10.56 0-19.13-8.58-19.13-19.13 0-10.56 8.58-19.13 19.13-19.13h54.98c10.56 0 19.13 8.58 19.13 19.13 0 10.56-8.58 19.13-19.13 19.13Z"/><text class="cls-7 damage-pill-text" transform="translate(204.57 136.16)">9999€</text><circle class="cls-3 severity-low" cx="182.49" cy="131.87" r="9.1"/><circle class="cls-5 severity-high" cx="182.49" cy="131.87" r="9.1"/><circle class="cls-8 severity-none" cx="182.49" cy="131.87" r="9.1"/><g class="severity-medium"><circle class="cls-2 severity-medium severity-medium" cx="182.49" cy="131.87" r="9.1"/><path class="cls-4 severity-medium" d="M182.49 122.77v18.1c-5 0-9.1-4.1-9.1-9.1s4.1-9 9.1-9Z"/></g></g><g id="damage-pill_door_front_right"><circle class="cls-6 damage-pill-background" cx="160.4" cy="181.05" r="19.13"/><circle class="cls-3 severity-low" cx="160.4" cy="181.05" r="9.1"/><circle class="cls-5 severity-high" cx="160.4" cy="181.05" r="9.1"/><circle class="cls-8 severity-none" cx="160.4" cy="181.05" r="9.1"/><g class="severity-medium"><circle class="cls-2 severity-medium severity-medium" cx="160.4" cy="181.05" r="9.1"/><path class="cls-4 severity-medium" d="M160.4 171.95v18.1c-5 0-9.1-4.1-9.1-9.1s4.1-9 9.1-9Z"/></g></g><g id="damage-pill-pricing_door_front_right"><path class="cls-6 damage-pill-background" d="M215.39 200.19h-54.98c-10.56 0-19.13-8.58-19.13-19.13 0-10.56 8.58-19.13 19.13-19.13h54.98c10.56 0 19.13 8.58 19.13 19.13 0 10.56-8.58 19.13-19.13 19.13Z"/><text class="cls-7 damage-pill-text" transform="translate(182.49 185.34)">9999€</text><circle class="cls-3 severity-low" cx="160.4" cy="181.05" r="9.1"/><circle class="cls-5 severity-high" cx="160.4" cy="181.05" r="9.1"/><circle class="cls-8 severity-none" cx="160.4" cy="181.05" r="9.1"/><g class="severity-medium"><circle class="cls-2 severity-medium severity-medium" cx="160.4" cy="181.05" r="9.1"/><path class="cls-4 severity-medium" d="M160.4 171.95v18.1c-5 0-9.1-4.1-9.1-9.1s4.1-9 9.1-9Z"/></g></g><g id="damage-pill_door_back_right"><circle class="cls-6 damage-pill-background" cx="82.89" cy="102.89" r="19.13"/><circle class="cls-3 severity-low" cx="82.89" cy="102.89" r="9.1"/><circle class="cls-5 severity-high" cx="82.89" cy="102.89" r="9.1"/><circle class="cls-8 severity-none" cx="82.89" cy="102.89" r="9.1"/><g class="severity-medium"><circle class="cls-2 severity-medium severity-medium" cx="82.89" cy="102.89" r="9.1"/><path class="cls-4 severity-medium" d="M82.89 93.79v18.1c-5 0-9.1-4.1-9.1-9.1s4.1-9 9.1-9Z"/></g></g><g id="damage-pill-pricing_door_back_right"><path class="cls-6 damage-pill-background" d="M137.88 122.02H82.9c-10.56 0-19.13-8.58-19.13-19.13 0-10.56 8.58-19.13 19.13-19.13h54.98c10.56 0 19.13 8.58 19.13 19.13 0 10.56-8.58 19.13-19.13 19.13Z"/><text class="cls-7 damage-pill-text" transform="translate(104.98 107.17)">9999€</text><circle class="cls-3 severity-low" cx="82.89" cy="102.89" r="9.1"/><circle class="cls-5 severity-high" cx="82.89" cy="102.89" r="9.1"/><circle class="cls-8 severity-none" cx="82.89" cy="102.89" r="9.1"/><g class="severity-medium"><circle class="cls-2 severity-medium severity-medium" cx="82.89" cy="102.89" r="9.1"/><path class="cls-4 severity-medium" d="M82.89 93.79v18.1c-5 0-9.1-4.1-9.1-9.1s4.1-9 9.1-9Z"/></g></g><g id="damage-pill_door_bumper_back"><circle class="cls-6 damage-pill-background" cx="20.13" cy="157.47" r="19.13"/><circle class="cls-3 severity-low" cx="20.13" cy="157.47" r="9.1"/><circle class="cls-5 severity-high" cx="20.13" cy="157.47" r="9.1"/><circle class="cls-8 severity-none" cx="20.13" cy="157.47" r="9.1"/><g class="severity-medium"><circle class="cls-2 severity-medium severity-medium" cx="20.13" cy="157.47" r="9.1"/><path class="cls-4 severity-medium" d="M20.13 148.37v18.1c-5 0-9.1-4.1-9.1-9.1s4.1-9 9.1-9Z"/></g></g><g id="damage-pill-pricing_bumper_back"><path class="cls-6 damage-pill-background" d="M75.12 176.6H20.13C9.57 176.6 1 168.02 1 157.47c0-10.56 8.58-19.13 19.13-19.13h54.98c10.56 0 19.13 8.58 19.13 19.13 0 10.56-8.58 19.13-19.13 19.13Z"/><text class="cls-7 damage-pill-text" transform="translate(42.22 161.75)">9999€</text><circle class="cls-3 severity-low" cx="20.13" cy="157.47" r="9.1"/><circle class="cls-5 severity-high" cx="20.13" cy="157.47" r="9.1"/><circle class="cls-8 severity-none" cx="20.13" cy="157.47" r="9.1"/><g class="severity-medium"><circle class="cls-2 severity-medium severity-medium" cx="20.13" cy="157.47" r="9.1"/><path class="cls-4 severity-medium" d="M20.13 148.37v18.1c-5 0-9.1-4.1-9.1-9.1s4.1-9 9.1-9Z"/></g></g><g id="damage-pill_rocker_panel_right"><circle class="cls-6 damage-pill-background" cx="113.55" cy="219.51" r="19.13"/><circle class="cls-3 severity-low" cx="113.55" cy="219.51" r="9.1"/><circle class="cls-5 severity-high" cx="113.55" cy="219.51" r="9.1"/><circle class="cls-8 severity-none" cx="113.55" cy="219.51" r="9.1"/><g class="severity-medium"><circle class="cls-2 severity-medium severity-medium" cx="113.55" cy="219.51" r="9.1"/><path class="cls-4 severity-medium" d="M113.55 210.41v18.1c-5 0-9.1-4.1-9.1-9.1s4.1-9 9.1-9Z"/></g></g><g id="damage-pill-pricing_rocker_panel_right"><path class="cls-6 damage-pill-background" d="M168.53 238.64h-54.98c-10.56 0-19.13-8.58-19.13-19.13 0-10.56 8.58-19.13 19.13-19.13h54.98c10.56 0 19.13 8.58 19.13 19.13 0 10.56-8.58 19.13-19.13 19.13Z"/><text class="cls-7 damage-pill-text" transform="translate(135.64 223.79)">9999€</text><circle class="cls-3 severity-low" cx="113.55" cy="219.51" r="9.1"/><circle class="cls-5 severity-high" cx="113.55" cy="219.51" r="9.1"/><circle class="cls-8 severity-none" cx="113.55" cy="219.51" r="9.1"/><g class="severity-medium"><circle class="cls-2 severity-medium severity-medium" cx="113.55" cy="219.51" r="9.1"/><path class="cls-4 severity-medium" d="M113.55 210.41v18.1c-5 0-9.1-4.1-9.1-9.1s4.1-9 9.1-9Z"/></g></g><g id="damage-pill_windshield_front"><circle class="cls-6 damage-pill-background" cx="292.55" cy="92.9" r="19.13"/><circle class="cls-3 severity-low" cx="292.55" cy="92.9" r="9.1"/><circle class="cls-5 severity-high" cx="292.55" cy="92.9" r="9.1"/><circle class="cls-8 severity-none" cx="292.55" cy="92.9" r="9.1"/><g class="severity-medium"><circle class="cls-2 severity-medium severity-medium" cx="292.55" cy="92.9" r="9.1"/><path class="cls-4 severity-medium" d="M292.55 83.8v18.1c-5 0-9.1-4.1-9.1-9.1s4.1-9 9.1-9Z"/></g></g><g id="damage-pill-pricing_windshield_front"><path class="cls-6 damage-pill-background" d="M347.54 112.03h-54.98c-10.56 0-19.13-8.58-19.13-19.13 0-10.56 8.58-19.13 19.13-19.13h54.98c10.56 0 19.13 8.58 19.13 19.13 0 10.56-8.58 19.13-19.13 19.13Z"/><text class="cls-7 damage-pill-text" transform="translate(314.64 97.19)">9999€</text><circle class="cls-3 severity-low" cx="292.55" cy="92.9" r="9.1"/><circle class="cls-5 severity-high" cx="292.55" cy="92.9" r="9.1"/><circle class="cls-8 severity-none" cx="292.55" cy="92.9" r="9.1"/><g class="severity-medium"><circle class="cls-2 severity-medium severity-medium" cx="292.55" cy="92.9" r="9.1"/><path class="cls-4 severity-medium" d="M292.55 83.8v18.1c-5 0-9.1-4.1-9.1-9.1s4.1-9 9.1-9Z"/></g></g><g id="damage-pill_roof"><circle class="cls-6 damage-pill-background" cx="175.15" cy="20.13" r="19.13"/><circle class="cls-3 severity-low" cx="175.15" cy="20.13" r="9.1"/><circle class="cls-5 severity-high" cx="175.15" cy="20.13" r="9.1"/><circle class="cls-8 severity-none" cx="175.15" cy="20.13" r="9.1"/><g class="severity-medium"><circle class="cls-2 severity-medium severity-medium" cx="175.15" cy="20.13" r="9.1"/><path class="cls-4 severity-medium" d="M175.15 11.03v18.1c-5 0-9.1-4.1-9.1-9.1s4.1-9 9.1-9Z"/></g></g><g id="damage-pill-pricing_roof"><path class="cls-6 damage-pill-background" d="M230.14 39.27h-54.98c-10.56 0-19.13-8.58-19.13-19.13 0-10.56 8.58-19.13 19.13-19.13h54.98c10.56 0 19.13 8.58 19.13 19.13 0 10.56-8.58 19.13-19.13 19.13Z"/><text class="cls-7 damage-pill-text" transform="translate(197.24 24.42)">9999€</text><circle class="cls-3 severity-low" cx="175.15" cy="20.13" r="9.1"/><circle class="cls-5 severity-high" cx="175.15" cy="20.13" r="9.1"/><circle class="cls-8 severity-none" cx="175.15" cy="20.13" r="9.1"/><g class="severity-medium"><circle class="cls-2 severity-medium severity-medium" cx="175.15" cy="20.13" r="9.1"/><path class="cls-4 severity-medium" d="M175.15 11.03v18.1c-5 0-9.1-4.1-9.1-9.1s4.1-9 9.1-9Z"/></g></g><g id="damage-pill_fender_back_right"><circle class="cls-6 damage-pill-background" cx="29.37" cy="97.19" r="19.13"/><circle class="cls-3 severity-low" cx="29.37" cy="97.19" r="9.1"/><circle class="cls-5 severity-high" cx="29.37" cy="97.19" r="9.1"/><circle class="cls-8 severity-none" cx="29.37" cy="97.19" r="9.1"/><g class="severity-medium"><circle class="cls-2 severity-medium severity-medium" cx="29.37" cy="97.19" r="9.1"/><path class="cls-4 severity-medium" d="M29.37 88.09v18.1c-5 0-9.1-4.1-9.1-9.1s4.1-9 9.1-9Z"/></g></g><g id="damage-pill-pricing_fender_back_right"><path class="cls-6 damage-pill-background" d="M84.35 116.32H29.37c-10.56 0-19.13-8.58-19.13-19.13 0-10.56 8.58-19.13 19.13-19.13h54.98c10.56 0 19.13 8.58 19.13 19.13 0 10.56-8.58 19.13-19.13 19.13Z"/><text class="cls-7 damage-pill-text" transform="translate(51.45 101.47)">9999€</text><circle class="cls-3 severity-low" cx="29.37" cy="97.19" r="9.1"/><circle class="cls-5 severity-high" cx="29.37" cy="97.19" r="9.1"/><circle class="cls-8 severity-none" cx="29.37" cy="97.19" r="9.1"/><g class="severity-medium"><circle class="cls-2 severity-medium severity-medium" cx="29.37" cy="97.19" r="9.1"/><path class="cls-4 severity-medium" d="M29.37 88.09v18.1c-5 0-9.1-4.1-9.1-9.1s4.1-9 9.1-9Z"/></g></g><g id="damage-pill_wheel_back_right"><circle class="cls-6 damage-pill-background" cx="40.27" cy="188.7" r="19.13"/><circle class="cls-3 severity-low" cx="40.27" cy="188.7" r="9.1"/><circle class="cls-5 severity-high" cx="40.27" cy="188.7" r="9.1"/><circle class="cls-8 severity-none" cx="40.27" cy="188.7" r="9.1"/><g class="severity-medium"><circle class="cls-2 severity-medium severity-medium" cx="40.27" cy="188.7" r="9.1"/><path class="cls-4 severity-medium" d="M40.27 179.6v18.1c-5 0-9.1-4.1-9.1-9.1s4.1-9 9.1-9Z"/></g></g><g id="damage-pill-pricing_wheel_back_right"><path class="cls-6 damage-pill-background" d="M95.25 207.84H40.27c-10.56 0-19.13-8.58-19.13-19.13 0-10.56 8.58-19.13 19.13-19.13h54.98c10.56 0 19.13 8.58 19.13 19.13 0 10.56-8.58 19.13-19.13 19.13Z"/><text class="cls-7 damage-pill-text" transform="translate(62.35 192.99)">9999€</text><circle class="cls-3 severity-low" cx="40.27" cy="188.7" r="9.1"/><circle class="cls-5 severity-high" cx="40.27" cy="188.7" r="9.1"/><circle class="cls-8 severity-none" cx="40.27" cy="188.7" r="9.1"/><g class="severity-medium"><circle class="cls-2 severity-medium severity-medium" cx="40.27" cy="188.7" r="9.1"/><path class="cls-4 severity-medium" d="M40.27 179.6v18.1c-5 0-9.1-4.1-9.1-9.1s4.1-9 9.1-9Z"/></g></g></svg>
