<svg xmlns="http://www.w3.org/2000/svg" viewBox="0 0 543.74 331.97"><defs><style>.cls-1{stroke:#fff;stroke-linecap:round;stroke-linejoin:round}.cls-1,.cls-2,.cls-3{fill:none}.cls-4{fill:#e1a25b}.cls-5{fill:#f49796;stroke:#f49796}.cls-2,.cls-3,.cls-5,.cls-6{stroke-miterlimit:10;stroke-width:2px}.cls-6{fill:#31333e;stroke:#595e72}.cls-2{stroke:#e1a25b}.cls-3{stroke:#62b0ef}.cls-7{font-family:sans-serif;font-size:13px;isolation:isolate}.cls-7,.cls-8{fill:#fff}</style></defs><path id="fender_front_left" class="cls-1 car-part selectable" d="M335.79 220.77c-1.1 7.7-2.1 13.5-2.5 16.6v.1c-7 4.9-11.5 7.7-11.5 7.1 0 0 0-.1.1-.2 3.2-5.2 12.4-33.1 0-51.3-6.3-9.2-17.6-7.7-29.9-.3-11.9 7.2-24.8 19.9-34.7 33.7-2.6 3.6-5 7.2-7.2 10.9l-28.8-31.6c15.6-14.5 32.9-41.5 29.1-46.7l-.3-.3h0c10-4.2 51-19.1 59-27.7 3-12.4 3.2-18.2-3.6-19.4 4.4-2.3 8.5-5.1 12.2-8.3h0l19.6 11h0c-1.6 5-2.5 8.6-2.1 10.1 8.8 29 4.1 71.8.6 96.3h0Z"/><path id="rocker_panel_left" class="cls-1 car-part selectable" d="m401.39 177.77-65.6 42.9c-1.1 7.7-2.1 13.5-2.5 16.6v.1c15.9-10.9 44.8-32.1 65.1-47.3 5.8-4.4 11-8.2 14.9-11.2 4.6-3.5 7.5-5.8 8-6.3 2.5-2.8 5.8-7.3 9.2-13.8l-29.1 19h0Z"/><g id="door_back_left" class="car-part selectable"><path class="cls-1" d="M443.89 69.37h0c-1.3 1.3-2.8 2.7-4.7 3.9-7.7 5-18.6 10.9-30.3 16.8v.2c12 8.9 3.4 43.7-7.5 87.5l29.1-19.1h0c.5-.9 1-1.9 1.5-2.9 3.8-7.4 11.4-29 18.4-38.5.6-.8 1.2-1.5 1.8-2.1.7-.7 1.4-1.4 2.1-2h0c6.2-23.7-10.4-43.8-10.4-43.8Zm9.1 23.2c-.3 1.2-9.1 5.2-9.8 4.7-.7-.4-.7-1.9-.4-2.9.2-1 1.7-1.7 1.7-1.7l4.5-2.4c.6-.3 2.8.1 3.5 0 .8 0 .9 1 .5 2.3h0Z"/><path id="handle_back_left" class="cls-1 car-part" d="M452.99 92.57c-.3 1.2-9.1 5.2-9.8 4.7-.7-.4-.7-1.9-.4-2.9.2-1 1.7-1.7 1.7-1.7l4.5-2.4c.6-.3 2.8.1 3.5 0 .8 0 .9 1 .5 2.3h0Z"/></g><path class="cls-1 background" d="M461.69 115.17c-.5 5.4-2.2 12-2.3 13.4h-.2c.3-4.1.1-6.7-3.1-8.8-2.2-1.5-4.5-2.3-5.7-2.6.6-.8 1.2-1.5 1.8-2.1.7-.7 1.4-1.4 2.1-2 3.5-2.6 7.5-3.7 7.4 2.1h0Z"/><path id="fender_back_left" class="cls-1 car-part selectable" d="M466.19 94.07c-1.1 14.1-4.1 30.8-6.8 34.8v-.2h0c.1-1.4 1.8-8 2.3-13.4.1-5.8-3.9-4.7-7.4-2h0c6.2-23.7-10.4-43.8-10.4-43.8v-.1c4.8-5.3 6-11.4 5.5-13.9-3.4-9.1-7.8-15.9-14.6-20.9l.1-.1h9c7.1 8.3 15.6 25.4 19.9 35.3-.5 2.8-.8 6.2-.7 8.4.2 2.6 2.9 15.2 3.1 15.9h0Z"/><path id="tail_light_left" class="cls-1 car-part selectable" d="M466.19 94.07h0c-.2-.7-2.9-13.3-3.1-16-.1-2.2.2-5.6.7-8.4.8 1.8 1.4 3.3 1.9 4.5 1.2 3.1 1.2 11 .5 19.9Z"/><path id="bumper_front" class="cls-1 car-part selectable" d="M221.29 205.67c-36 19.4-113.5 19.6-121.3 18.4-7.8-1.2-14.9-5.2-14.4-7.8 1.7-5.2 22.6-18.9 28.5-22.7-28.5-7.7-95-35-91.2-53.5h0c-8 7.4-15.6 16.6-21.9 27.8-.2.4-.3.9-.4 1.6 9.6 39.1 47.2 50 61.1 59.8 2.5 1.8 26.8 18.4 30 25.3-.9 6.9-16.5 19-28.1 17.6-3-.1-8.1-2.7-14-7.1h-.2l3.2 15.6s-18.2-13.8-29-30.9c-.2.2 0 1 0 1 3 7.3 5.6 12.1 7.4 14.6 15.3 21.7 54.1 59.6 106.4 65.3 44.3 4.8 81.2-13.3 84.7-19.6.3-1.2.6-2.4 1-3.7 4.7-17.8 11.1-44 27-70.1l-28.8-31.6h0Zm-42.5 91.4c-4.4.6-14.8-25.3-3.5-40.2 2.7-.7 12.2-1.6 14.3 1.3 3.8 6.5-7.4 35.9-10.8 38.9h0Z"/><path id="grill_radiator" class="cls-1 car-part selectable" d="M91.69 254.57c-.9 6.9-16.5 19-28.1 17.6-3-.1-8.1-2.7-14-7.1h-.2l-.5-2.6c-23.2-15.1-32.5-34.5-33.9-37.6-7.9-22.6-15.4-47.6-14.4-55.4 9.6 39.1 47.2 50 61.1 59.8 2.5 1.8 26.8 18.4 30 25.3h0Z"/><path class="cls-1 background" d="M227.79 33.27c-12 5.7-56.9 38.4-71.7 51.8l-1.4-2.6c10.5-6.6 43.2-35 71-49.5.3-.1.5-.3.8-.4.2-.1.5-.2.7-.4l.6 1.1h0Z"/><path id="hood" class="cls-1 car-part selectable" d="M309.09 130.97c-8 8.6-49 23.5-59 27.7h0c-7.1-4.2-102.6 15.2-136 34.9-28.5-7.7-95-35-91.2-53.5h0c17.3-16.2 35.9-24.3 44.5-27.9 12.7-5.2 79.8-25.4 87.3-29.7l1.4 2.6c-3.1 2.8-4.9 4.8-4.8 5.5.4 4.2 124.2 32.5 154.2 21 6.8 1.2 6.6 7 3.6 19.4h0Z"/><path id="head_light_left" class="cls-1 car-part selectable" d="M221.29 205.67c-36 19.4-113.5 19.6-121.3 18.4-7.8-1.2-14.9-5.2-14.4-7.8 1.7-5.2 22.6-18.9 28.5-22.7 33.4-19.7 128.8-39 136-34.9l.3.3c3.8 5.2-13.5 32.2-29.1 46.7h0Z"/><path id="mirror_left" class="cls-1 car-part selectable" d="M402.49 99.07c-.1-1.4-1.1-2.8-2.9-4.2-4.7-3.7-15-7-29-7.4-9.7.7-17.4 11-17.3 14.4-.1 1.2.1 4.3.1 4.6l-9.2 2.9s0 3.6 2.2 4.7c1.9 1 5.2 1 8.6 1.2.6 0 1.1.1 1.7.2 3.9.4 26.1 2.4 33.7-.9 3.4-1.5 6.3-4.3 8.5-7.1 2.5-3.3 3.9-6.8 3.6-8.4h0Z"/><path class="cls-1 background" d="M321.89 244.27c0 .1-.1.1-.1.2l-1.9-.2c1.2-10.9 1.5-24.6-2.2-31.5-6.4-11.8-14.7-17.3-25.6-20l-.1-.1c12.3-7.4 23.6-8.9 29.9.3 12.4 18.2 3.2 46.1 0 51.3h0Z"/><g id="wheel_front_left" class="car-part selectable"><path class="cls-1" d="M317.69 212.77c-6.4-11.8-14.7-17.3-25.6-20l-.1-.1c-11.9 7.2-24.8 19.9-34.7 33.7-2.6 3.6-5 7.2-7.2 10.9-15.9 26.1-22.3 52.3-27 70.1h.1c1.8 1.8 24.4 18.6 27.7 18.9 15.4 1.2 26.6-5.3 37.3-16.9 21.6-23.5 28.7-45.6 30.5-56.3.4-2.5.9-5.5 1.2-8.8 1.2-10.9 1.6-24.6-2.2-31.5h0Zm-15.4 35.8c-2.5 13.6-10.3 28.1-16.7 36.7-11.3 15.1-23.8 15.1-20.8-4.5 2.5-16.5 11.4-32.4 22.8-43.3 11-10.6 17.4-3.8 14.7 11.1h0Z"/><path class="cls-1" d="M302.29 248.57c-2.5 13.6-10.3 28.1-16.7 36.7-11.3 15.1-23.8 15.1-20.8-4.5 2.5-16.5 11.4-32.4 22.8-43.3 11-10.6 17.4-3.8 14.7 11.1h0Z"/></g><g id="wheel_back_left" class="car-part selectable"><path class="cls-1" d="M456.09 119.87c-2.2-1.5-4.5-2.3-5.7-2.6-7 9.5-14.6 31.1-18.4 38.5-.5 1-1 2-1.5 2.9h0c-3.5 6.5-6.7 11-9.2 13.8-.5.5-3.4 2.8-8 6.3.7 2.5 1.6 2.9 2.7 3.5s15.3 4.6 17.9 4.8 9.4-4.9 14.8-17.3c2.9-6.7 8.7-23.9 10.2-38.4.1-1 .2-1.9.3-2.8.3-4 0-6.6-3.1-8.7h0Zm-2.3 18.1c-.6 9.1-4.7 21.6-8.7 29.6-3.4 6.8-6.4 4.2-5.7-1 1.6-12.7 5.3-23 11-31 2.1-2.8 3.6-1.1 3.4 2.4Z"/><path class="cls-1" d="M453.79 137.97c-.6 9.1-4.7 21.6-8.7 29.6-3.4 6.8-6.4 4.2-5.7-1 1.6-12.7 5.3-23 11-31 2.1-2.8 3.6-1.1 3.4 2.4Z"/></g><path id="roof" class="cls-1 car-part selectable" d="M429.09 26.07c-20-6.5-47.1-8.9-79.2-9-20.3-.1-53.7 1.5-64.8 2.4-28.3 2.2-47.9 6.7-55.4 11.6h0c-.8.4-1.6.8-2.3 1.2l.6 1.1c29.6-10.2 114-4 135.5-.5.4.1.8.1 1.2.2 1.2.2 2.1.4 2.8.6l8.1 5.6c1.5-1.9 2.8-3.3 4-4.4 6.3-5.4 14-7.9 21.6-8.5h.2c10.1-.8 20.1 1.5 27.1 4.4.3.1.6.2.8.3 2.1 1.1 4 2.2 5.7 3.5l.1-.1h9c-2.5-2.8-7.4-5.9-15-8.4Z"/><path id="windshield_front" class="cls-1 car-part selectable" d="M367.19 33.57c-16.1 23.2-28.4 52.1-49.5 69.7-3.8 3.2-7.8 6-12.2 8.3-30 11.5-153.8-16.8-154.2-21-.1-.7 1.7-2.7 4.8-5.5 14.8-13.4 59.7-46.1 71.7-51.8 29.6-10.2 114-4 135.5-.5.4.1.8.1 1.2.2 1.1.2 2.1.4 2.7.6Z"/><path id="fog_light_front_left" class="cls-1 car-part selectable" d="M178.79 297.07c-4.4.6-14.8-25.3-3.5-40.2 2.7-.7 12.2-1.6 14.3 1.3 3.8 6.5-7.4 35.9-10.8 38.9h0Z"/><path id="license_plate_front" class="cls-1 car-part selectable" d="M52.59 280.67s-18.2-13.8-29-30.9c-1.8-2.9-3.5-5.9-4.8-8.9-1.3-3.6-3.9-15.8-4-16.4l.2.4c1.4 3.1 10.7 22.4 33.9 37.6l.5 2.6 3.2 15.6h0Z"/><g id="door_front_left" class="car-part selectable"><path class="cls-1" d="M408.89 90.27v-.2c-3 1.5-6 3-9.1 4.5l-.2.3c1.8 1.4 2.8 2.8 2.9 4.2.3 1.6-1.1 5.1-3.6 8.4-2.1 2.8-5 5.5-8.5 7.1-7.6 3.3-29.8 1.3-33.7.9-.6-.1-1.1-.1-1.7-.2v.2c-9.6 4.3-16.9 7.6-19.7 8.9 8.7 29.1 4 71.9.5 96.3l65.6-42.9c10.9-43.8 19.5-78.6 7.5-87.5h0Zm-12.2 32c-.3-.2-.2-2.9 0-3.7.2-.8 2.8-2.5 2.8-2.5l6.7-3s1.7-1.2 2.5-1.5c.7-.3 3.6.7 4.3 1 .8.3.5 1.7-.2 3.1-.8 1.4-15.8 6.8-16.1 6.6h0Z"/><path id="handle_front_left" class="cls-1 car-part" d="M412.79 115.67c-.8 1.4-15.8 6.8-16.1 6.6-.3-.2-.2-2.9 0-3.7.2-.8 2.8-2.5 2.8-2.5l6.7-3s1.7-1.2 2.5-1.5c.7-.3 3.6.7 4.3 1 .8.3.5 1.7-.2 3.1h0Z"/></g><path id="quarter_window_back_left" class="cls-1 car-part selectable" d="M443.89 69.27c-1.8-7.8-10.4-31.3-15.7-38.5l.1-.2c.3.1.6.2.8.3 10.2 5.2 16 13 20.3 24.4.5 2.7-.7 8.8-5.5 14Z"/><path id="window_back_left" class="cls-1 car-part selectable" d="M443.89 69.27c-1.3 1.4-2.8 2.8-4.7 4-7.7 5-18.6 10.9-30.3 16.8.7-20.4-1.3-48.9-7.5-62.5l-.3-.6v-.7c10.1-.8 20.1 1.5 27.1 4.4l-.1.2c5.4 7.1 14 30.7 15.8 38.4h0Z"/><path id="pillar" class="cls-1 car-part selectable" d="M375.29 39.17c-12 15.3-31.4 55.7-37.9 75.1l-19.6-11h0c21.1-17.6 33.3-46.5 49.5-69.7-.1 0 8 5.6 8 5.6Z"/><path id="window_front_left" class="cls-1 car-part selectable" d="M408.89 90.07c-3 1.5-6 3-9.1 4.5l-.2.3c-4.7-3.7-15-7-29-7.4-9.7.7-17.4 11-17.3 14.4-.1 1.2.1 4.3.1 4.6l-9.2 2.9s0 3.6 2.2 4.7c1.9 1 5.2 1 8.6 1.2v.2c-9.6 4.3-16.9 7.6-19.7 8.9-.4-1.5.4-5.1 2.1-10.1h0c6.5-19.5 25.9-59.8 37.9-75.1 1.5-1.9 2.8-3.3 4-4.4 6.3-5.4 14-7.9 21.6-8.5h.2v.7l.3.6c6.2 13.6 8.2 42.1 7.5 62.5h0Z"/><g id="damage-pill_hood"><circle class="cls-6 damage-pill-background" cx="123.79" cy="129.8" r="19.13"/><circle class="cls-3 severity-low" cx="123.79" cy="129.8" r="9.1"/><circle class="cls-5 severity-high" cx="123.79" cy="129.8" r="9.1"/><circle class="cls-8 severity-none" cx="123.79" cy="129.8" r="9.1"/><g class="severity-medium"><circle class="cls-2 severity-medium severity-medium" cx="123.79" cy="129.8" r="9.1"/><path class="cls-4 severity-medium" d="M123.79 120.7v18.1c-5 0-9.1-4.1-9.1-9.1s4.1-9 9.1-9Z"/></g></g><g id="damage-pill-pricing_hood"><path class="cls-6 damage-pill-background" d="M178.78 148.93H123.8c-10.56 0-19.13-8.58-19.13-19.13 0-10.56 8.58-19.13 19.13-19.13h54.98c10.56 0 19.13 8.58 19.13 19.13 0 10.56-8.58 19.13-19.13 19.13Z"/><text class="cls-7 damage-pill-text" transform="translate(145.88 134.08)">9999€</text><circle class="cls-3 severity-low" cx="123.79" cy="129.8" r="9.1"/><circle class="cls-5 severity-high" cx="123.79" cy="129.8" r="9.1"/><circle class="cls-8 severity-none" cx="123.79" cy="129.8" r="9.1"/><g class="severity-medium"><circle class="cls-2 severity-medium severity-medium" cx="123.79" cy="129.8" r="9.1"/><path class="cls-4 severity-medium" d="M123.79 120.7v18.1c-5 0-9.1-4.1-9.1-9.1s4.1-9 9.1-9Z"/></g></g><g id="damage-pill_head_light_left"><circle class="cls-6 damage-pill-background" cx="165.47" cy="196.23" r="19.13"/><circle class="cls-3 severity-low" cx="165.47" cy="196.23" r="9.1"/><circle class="cls-5 severity-high" cx="165.47" cy="196.23" r="9.1"/><circle class="cls-8 severity-none" cx="165.47" cy="196.23" r="9.1"/><g class="severity-medium"><circle class="cls-2 severity-medium severity-medium" cx="165.47" cy="196.23" r="9.1"/><path class="cls-4 severity-medium" d="M165.47 187.13v18.1c-5 0-9.1-4.1-9.1-9.1s4.1-9 9.1-9Z"/></g></g><g id="damage-pill-pricing_head_light_left"><path class="cls-6 damage-pill-background" d="M220.45 215.36h-54.98c-10.56 0-19.13-8.58-19.13-19.13 0-10.56 8.58-19.13 19.13-19.13h54.98c10.56 0 19.13 8.58 19.13 19.13 0 10.56-8.58 19.13-19.13 19.13Z"/><text class="cls-7 damage-pill-text" transform="translate(187.55 200.51)">9999€</text><circle class="cls-3 severity-low" cx="165.47" cy="196.23" r="9.1"/><circle class="cls-5 severity-high" cx="165.47" cy="196.23" r="9.1"/><circle class="cls-8 severity-none" cx="165.47" cy="196.23" r="9.1"/><g class="severity-medium"><circle class="cls-2 severity-medium severity-medium" cx="165.47" cy="196.23" r="9.1"/><path class="cls-4 severity-medium" d="M165.47 187.13v18.1c-5 0-9.1-4.1-9.1-9.1s4.1-9 9.1-9Z"/></g></g><g id="damage-pill_bumper_front"><circle class="cls-6 damage-pill-background" cx="31.19" cy="182.22" r="19.13"/><circle class="cls-3 severity-low" cx="31.19" cy="182.22" r="9.1"/><circle class="cls-5 severity-high" cx="31.19" cy="182.22" r="9.1"/><circle class="cls-8 severity-none" cx="31.19" cy="182.22" r="9.1"/><g class="severity-medium"><circle class="cls-2 severity-medium severity-medium" cx="31.19" cy="182.22" r="9.1"/><path class="cls-4 severity-medium" d="M31.19 173.12v18.1c-5 0-9.1-4.1-9.1-9.1s4.1-9 9.1-9Z"/></g></g><g id="damage-pill-pricing_bumper_front"><path class="cls-6 damage-pill-background" d="M86.17 201.35H31.19c-10.56 0-19.13-8.58-19.13-19.13 0-10.56 8.58-19.13 19.13-19.13h54.98c10.56 0 19.13 8.58 19.13 19.13 0 10.56-8.58 19.13-19.13 19.13Z"/><text class="cls-7 damage-pill-text" transform="translate(53.27 186.5)">9999€</text><circle class="cls-3 severity-low" cx="31.19" cy="182.22" r="9.1"/><circle class="cls-5 severity-high" cx="31.19" cy="182.22" r="9.1"/><circle class="cls-8 severity-none" cx="31.19" cy="182.22" r="9.1"/><g class="severity-medium"><circle class="cls-2 severity-medium severity-medium" cx="31.19" cy="182.22" r="9.1"/><path class="cls-4 severity-medium" d="M31.19 173.12v18.1c-5 0-9.1-4.1-9.1-9.1s4.1-9 9.1-9Z"/></g></g><g id="damage-pill_grill_radiator"><circle class="cls-6 damage-pill-background" cx="25.76" cy="223.23" r="19.13"/><circle class="cls-3 severity-low" cx="25.76" cy="223.23" r="9.1"/><circle class="cls-5 severity-high" cx="25.76" cy="223.23" r="9.1"/><circle class="cls-8 severity-none" cx="25.76" cy="223.23" r="9.1"/><g class="severity-medium"><circle class="cls-2 severity-medium severity-medium" cx="25.76" cy="223.23" r="9.1"/><path class="cls-4 severity-medium" d="M25.76 214.13v18.1c-5 0-9.1-4.1-9.1-9.1s4.1-9 9.1-9Z"/></g></g><g id="damage-pill-pricing_grill_radiator"><path class="cls-6 damage-pill-background" d="M80.74 242.37H25.76c-10.56 0-19.13-8.58-19.13-19.13 0-10.56 8.58-19.13 19.13-19.13h54.98c10.56 0 19.13 8.58 19.13 19.13 0 10.56-8.58 19.13-19.13 19.13Z"/><text class="cls-7 damage-pill-text" transform="translate(47.84 227.52)">9999€</text><circle class="cls-3 severity-low" cx="25.76" cy="223.23" r="9.1"/><circle class="cls-5 severity-high" cx="25.76" cy="223.23" r="9.1"/><circle class="cls-8 severity-none" cx="25.76" cy="223.23" r="9.1"/><g class="severity-medium"><circle class="cls-2 severity-medium severity-medium" cx="25.76" cy="223.23" r="9.1"/><path class="cls-4 severity-medium" d="M25.76 214.13v18.1c-5 0-9.1-4.1-9.1-9.1s4.1-9 9.1-9Z"/></g></g><g id="damage-pill_license_plate_front"><circle class="cls-6 damage-pill-background" cx="35.56" cy="264.25" r="19.13"/><circle class="cls-3 severity-low" cx="35.56" cy="264.25" r="9.1"/><circle class="cls-5 severity-high" cx="35.56" cy="264.25" r="9.1"/><circle class="cls-8 severity-none" cx="35.56" cy="264.25" r="9.1"/><g class="severity-medium"><circle class="cls-2 severity-medium severity-medium" cx="35.56" cy="264.25" r="9.1"/><path class="cls-4 severity-medium" d="M35.56 255.15v18.1c-5 0-9.1-4.1-9.1-9.1s4.1-9 9.1-9Z"/></g></g><g id="damage-pill-pricing_license_plate_front"><path class="cls-6 damage-pill-background" d="M90.54 283.38H35.56c-10.56 0-19.13-8.58-19.13-19.13 0-10.56 8.58-19.13 19.13-19.13h54.98c10.56 0 19.13 8.58 19.13 19.13 0 10.56-8.58 19.13-19.13 19.13Z"/><text class="cls-7 damage-pill-text" transform="translate(57.64 268.53)">9999€</text><circle class="cls-3 severity-low" cx="35.56" cy="264.25" r="9.1"/><circle class="cls-5 severity-high" cx="35.56" cy="264.25" r="9.1"/><circle class="cls-8 severity-none" cx="35.56" cy="264.25" r="9.1"/><g class="severity-medium"><circle class="cls-2 severity-medium severity-medium" cx="35.56" cy="264.25" r="9.1"/><path class="cls-4 severity-medium" d="M35.56 255.15v18.1c-5 0-9.1-4.1-9.1-9.1s4.1-9 9.1-9Z"/></g></g><g id="damage-pill_fog_light_front_left"><circle class="cls-6 damage-pill-background" cx="173.82" cy="273.3" r="19.13"/><circle class="cls-3 severity-low" cx="173.82" cy="273.3" r="9.1"/><circle class="cls-5 severity-high" cx="173.82" cy="273.3" r="9.1"/><circle class="cls-8 severity-none" cx="173.82" cy="273.3" r="9.1"/><g class="severity-medium"><circle class="cls-2 severity-medium severity-medium" cx="173.82" cy="273.3" r="9.1"/><path class="cls-4 severity-medium" d="M173.82 264.2v18.1c-5 0-9.1-4.1-9.1-9.1s4.1-9 9.1-9Z"/></g></g><g id="damage-pill-pricing_fog_light_front_left"><path class="cls-6 damage-pill-background" d="M228.81 292.44h-54.98c-10.56 0-19.13-8.58-19.13-19.13 0-10.56 8.58-19.13 19.13-19.13h54.98c10.56 0 19.13 8.58 19.13 19.13 0 10.56-8.58 19.13-19.13 19.13Z"/><text class="cls-7 damage-pill-text" transform="translate(195.91 277.59)">9999€</text><circle class="cls-3 severity-low" cx="173.82" cy="273.3" r="9.1"/><circle class="cls-5 severity-high" cx="173.82" cy="273.3" r="9.1"/><circle class="cls-8 severity-none" cx="173.82" cy="273.3" r="9.1"/><g class="severity-medium"><circle class="cls-2 severity-medium severity-medium" cx="173.82" cy="273.3" r="9.1"/><path class="cls-4 severity-medium" d="M173.82 264.2v18.1c-5 0-9.1-4.1-9.1-9.1s4.1-9 9.1-9Z"/></g></g><g id="damage-pill_wheel_front_left"><circle class="cls-6 damage-pill-background" cx="275.42" cy="264.2" r="19.13"/><circle class="cls-3 severity-low" cx="275.42" cy="264.2" r="9.1"/><circle class="cls-5 severity-high" cx="275.42" cy="264.2" r="9.1"/><circle class="cls-8 severity-none" cx="275.42" cy="264.2" r="9.1"/><g class="severity-medium"><circle class="cls-2 severity-medium severity-medium" cx="275.42" cy="264.2" r="9.1"/><path class="cls-4 severity-medium" d="M275.42 255.1v18.1c-5 0-9.1-4.1-9.1-9.1s4.1-9 9.1-9Z"/></g></g><g id="damage-pill-pricing_wheel_front_left"><path class="cls-6 damage-pill-background" d="M330.4 283.34h-54.98c-10.56 0-19.13-8.58-19.13-19.13 0-10.56 8.58-19.13 19.13-19.13h54.98c10.56 0 19.13 8.58 19.13 19.13 0 10.56-8.58 19.13-19.13 19.13Z"/><text class="cls-7 damage-pill-text" transform="translate(297.5 268.49)">9999€</text><circle class="cls-3 severity-low" cx="275.42" cy="264.2" r="9.1"/><circle class="cls-5 severity-high" cx="275.42" cy="264.2" r="9.1"/><circle class="cls-8 severity-none" cx="275.42" cy="264.2" r="9.1"/><g class="severity-medium"><circle class="cls-2 severity-medium severity-medium" cx="275.42" cy="264.2" r="9.1"/><path class="cls-4 severity-medium" d="M275.42 255.1v18.1c-5 0-9.1-4.1-9.1-9.1s4.1-9 9.1-9Z"/></g></g><g id="damage-pill_fender_front_left"><circle class="cls-6 damage-pill-background" cx="282.6" cy="166.74" r="19.13"/><circle class="cls-3 severity-low" cx="282.6" cy="166.74" r="9.1"/><circle class="cls-5 severity-high" cx="282.6" cy="166.74" r="9.1"/><circle class="cls-8 severity-none" cx="282.6" cy="166.74" r="9.1"/><g class="severity-medium"><circle class="cls-2 severity-medium severity-medium" cx="282.6" cy="166.74" r="9.1"/><path class="cls-4 severity-medium" d="M282.6 157.64v18.1c-5 0-9.1-4.1-9.1-9.1s4.1-9 9.1-9Z"/></g></g><g id="damage-pill-pricing_fender_front_left"><path class="cls-6 damage-pill-background" d="M337.58 185.87H282.6c-10.56 0-19.13-8.58-19.13-19.13 0-10.56 8.58-19.13 19.13-19.13h54.98c10.56 0 19.13 8.58 19.13 19.13 0 10.56-8.58 19.13-19.13 19.13Z"/><text class="cls-7 damage-pill-text" transform="translate(304.68 171.02)">9999€</text><circle class="cls-3 severity-low" cx="282.6" cy="166.74" r="9.1"/><circle class="cls-5 severity-high" cx="282.6" cy="166.74" r="9.1"/><circle class="cls-8 severity-none" cx="282.6" cy="166.74" r="9.1"/><g class="severity-medium"><circle class="cls-2 severity-medium severity-medium" cx="282.6" cy="166.74" r="9.1"/><path class="cls-4 severity-medium" d="M282.6 157.64v18.1c-5 0-9.1-4.1-9.1-9.1s4.1-9 9.1-9Z"/></g></g><g id="damage-pill_pillar"><circle class="cls-6 damage-pill-background" cx="352.34" cy="67.61" r="19.13"/><circle class="cls-3 severity-low" cx="352.34" cy="67.61" r="9.1"/><circle class="cls-5 severity-high" cx="352.34" cy="67.61" r="9.1"/><circle class="cls-8 severity-none" cx="352.34" cy="67.61" r="9.1"/><g class="severity-medium"><circle class="cls-2 severity-medium severity-medium" cx="352.34" cy="67.61" r="9.1"/><path class="cls-4 severity-medium" d="M352.34 58.51v18.1c-5 0-9.1-4.1-9.1-9.1s4.1-9 9.1-9Z"/></g></g><g id="damage-pill-pricing_pillar"><path class="cls-6 damage-pill-background" d="M407.33 86.74h-54.98c-10.56 0-19.13-8.58-19.13-19.13 0-10.56 8.58-19.13 19.13-19.13h54.98c10.56 0 19.13 8.58 19.13 19.13 0 10.56-8.58 19.13-19.13 19.13Z"/><text class="cls-7 damage-pill-text" transform="translate(374.43 71.89)">9999€</text><circle class="cls-3 severity-low" cx="352.34" cy="67.61" r="9.1"/><circle class="cls-5 severity-high" cx="352.34" cy="67.61" r="9.1"/><circle class="cls-8 severity-none" cx="352.34" cy="67.61" r="9.1"/><g class="severity-medium"><circle class="cls-2 severity-medium severity-medium" cx="352.34" cy="67.61" r="9.1"/><path class="cls-4 severity-medium" d="M352.34 58.51v18.1c-5 0-9.1-4.1-9.1-9.1s4.1-9 9.1-9Z"/></g></g><g id="damage-pill_window_front_left"><circle class="cls-6 damage-pill-background" cx="389.11" cy="58.09" r="19.13"/><circle class="cls-3 severity-low" cx="389.11" cy="58.09" r="9.1"/><circle class="cls-5 severity-high" cx="389.11" cy="58.09" r="9.1"/><circle class="cls-8 severity-none" cx="389.11" cy="58.09" r="9.1"/><g class="severity-medium"><circle class="cls-2 severity-medium severity-medium" cx="389.11" cy="58.09" r="9.1"/><path class="cls-4 severity-medium" d="M389.11 48.99v18.1c-5 0-9.1-4.1-9.1-9.1s4.1-9 9.1-9Z"/></g></g><g id="damage-pill-pricing_window_front_left"><path class="cls-6 damage-pill-background" d="M444.09 77.22h-54.98c-10.56 0-19.13-8.58-19.13-19.13 0-10.56 8.58-19.13 19.13-19.13h54.98c10.56 0 19.13 8.58 19.13 19.13 0 10.56-8.58 19.13-19.13 19.13Z"/><text class="cls-7 damage-pill-text" transform="translate(411.19 62.37)">9999€</text><circle class="cls-3 severity-low" cx="389.11" cy="58.09" r="9.1"/><circle class="cls-5 severity-high" cx="389.11" cy="58.09" r="9.1"/><circle class="cls-8 severity-none" cx="389.11" cy="58.09" r="9.1"/><g class="severity-medium"><circle class="cls-2 severity-medium severity-medium" cx="389.11" cy="58.09" r="9.1"/><path class="cls-4 severity-medium" d="M389.11 48.99v18.1c-5 0-9.1-4.1-9.1-9.1s4.1-9 9.1-9Z"/></g></g><g id="damage-pill_window_back_left"><circle class="cls-6 damage-pill-background" cx="424.12" cy="52.7" r="19.13"/><circle class="cls-3 severity-low" cx="424.12" cy="52.7" r="9.1"/><circle class="cls-5 severity-high" cx="424.12" cy="52.7" r="9.1"/><circle class="cls-8 severity-none" cx="424.12" cy="52.7" r="9.1"/><g class="severity-medium"><circle class="cls-2 severity-medium severity-medium" cx="424.12" cy="52.7" r="9.1"/><path class="cls-4 severity-medium" d="M424.12 43.6v18.1c-5 0-9.1-4.1-9.1-9.1s4.1-9 9.1-9Z"/></g></g><g id="damage-pill-pricing_window_back_left"><path class="cls-6 damage-pill-background" d="M479.1 71.84h-54.98c-10.56 0-19.13-8.58-19.13-19.13 0-10.56 8.58-19.13 19.13-19.13h54.98c10.56 0 19.13 8.58 19.13 19.13 0 10.56-8.58 19.13-19.13 19.13Z"/><text class="cls-7 damage-pill-text" transform="translate(446.2 56.99)">9999€</text><circle class="cls-3 severity-low" cx="424.12" cy="52.7" r="9.1"/><circle class="cls-5 severity-high" cx="424.12" cy="52.7" r="9.1"/><circle class="cls-8 severity-none" cx="424.12" cy="52.7" r="9.1"/><g class="severity-medium"><circle class="cls-2 severity-medium severity-medium" cx="424.12" cy="52.7" r="9.1"/><path class="cls-4 severity-medium" d="M424.12 43.6v18.1c-5 0-9.1-4.1-9.1-9.1s4.1-9 9.1-9Z"/></g></g><g id="damage-pill_mirror_left"><circle class="cls-6 damage-pill-background" cx="369.97" cy="101.95" r="19.13"/><circle class="cls-3 severity-low" cx="369.97" cy="101.95" r="9.1"/><circle class="cls-5 severity-high" cx="369.97" cy="101.95" r="9.1"/><circle class="cls-8 severity-none" cx="369.97" cy="101.95" r="9.1"/><g class="severity-medium"><circle class="cls-2 severity-medium severity-medium" cx="369.97" cy="101.95" r="9.1"/><path class="cls-4 severity-medium" d="M369.97 92.85v18.1c-5 0-9.1-4.1-9.1-9.1s4.1-9 9.1-9Z"/></g></g><g id="damage-pill-pricing_mirror_left"><path class="cls-6 damage-pill-background" d="M424.96 121.08h-54.98c-10.56 0-19.13-8.58-19.13-19.13 0-10.56 8.58-19.13 19.13-19.13h54.98c10.56 0 19.13 8.58 19.13 19.13 0 10.56-8.58 19.13-19.13 19.13Z"/><text class="cls-7 damage-pill-text" transform="translate(392.06 106.24)">9999€</text><circle class="cls-3 severity-low" cx="369.97" cy="101.95" r="9.1"/><circle class="cls-5 severity-high" cx="369.97" cy="101.95" r="9.1"/><circle class="cls-8 severity-none" cx="369.97" cy="101.95" r="9.1"/><g class="severity-medium"><circle class="cls-2 severity-medium severity-medium" cx="369.97" cy="101.95" r="9.1"/><path class="cls-4 severity-medium" d="M369.97 92.85v18.1c-5 0-9.1-4.1-9.1-9.1s4.1-9 9.1-9Z"/></g></g><g id="damage-pill_door_front_left"><circle class="cls-6 damage-pill-background" cx="375.04" cy="147.6" r="19.13"/><circle class="cls-3 severity-low" cx="375.04" cy="147.6" r="9.1"/><circle class="cls-5 severity-high" cx="375.04" cy="147.6" r="9.1"/><circle class="cls-8 severity-none" cx="375.04" cy="147.6" r="9.1"/><g class="severity-medium"><circle class="cls-2 severity-medium severity-medium" cx="375.04" cy="147.6" r="9.1"/><path class="cls-4 severity-medium" d="M375.04 138.5v18.1c-5 0-9.1-4.1-9.1-9.1s4.1-9 9.1-9Z"/></g></g><g id="damage-pill-pricing_door_front_left"><path class="cls-6 damage-pill-background" d="M430.02 166.74h-54.98c-10.56 0-19.13-8.58-19.13-19.13 0-10.56 8.58-19.13 19.13-19.13h54.98c10.56 0 19.13 8.58 19.13 19.13 0 10.56-8.58 19.13-19.13 19.13Z"/><text class="cls-7 damage-pill-text" transform="translate(397.12 151.89)">9999€</text><circle class="cls-3 severity-low" cx="375.04" cy="147.6" r="9.1"/><circle class="cls-5 severity-high" cx="375.04" cy="147.6" r="9.1"/><circle class="cls-8 severity-none" cx="375.04" cy="147.6" r="9.1"/><g class="severity-medium"><circle class="cls-2 severity-medium severity-medium" cx="375.04" cy="147.6" r="9.1"/><path class="cls-4 severity-medium" d="M375.04 138.5v18.1c-5 0-9.1-4.1-9.1-9.1s4.1-9 9.1-9Z"/></g></g><g id="damage-pill_door_back_left"><circle class="cls-6 damage-pill-background" cx="437.38" cy="110.95" r="19.13"/><circle class="cls-3 severity-low" cx="437.38" cy="110.95" r="9.1"/><circle class="cls-5 severity-high" cx="437.38" cy="110.95" r="9.1"/><circle class="cls-8 severity-none" cx="437.38" cy="110.95" r="9.1"/><g class="severity-medium"><circle class="cls-2 severity-medium severity-medium" cx="437.38" cy="110.95" r="9.1"/><path class="cls-4 severity-medium" d="M437.38 101.85v18.1c-5 0-9.1-4.1-9.1-9.1s4.1-9 9.1-9Z"/></g></g><g id="damage-pill-pricing_door_back_left"><path class="cls-6 damage-pill-background" d="M492.36 130.08h-54.98c-10.56 0-19.13-8.58-19.13-19.13 0-10.56 8.58-19.13 19.13-19.13h54.98c10.56 0 19.13 8.58 19.13 19.13 0 10.56-8.58 19.13-19.13 19.13Z"/><text class="cls-7 damage-pill-text" transform="translate(459.46 115.24)">9999€</text><circle class="cls-3 severity-low" cx="437.38" cy="110.95" r="9.1"/><circle class="cls-5 severity-high" cx="437.38" cy="110.95" r="9.1"/><circle class="cls-8 severity-none" cx="437.38" cy="110.95" r="9.1"/><g class="severity-medium"><circle class="cls-2 severity-medium severity-medium" cx="437.38" cy="110.95" r="9.1"/><path class="cls-4 severity-medium" d="M437.38 101.85v18.1c-5 0-9.1-4.1-9.1-9.1s4.1-9 9.1-9Z"/></g></g><g id="damage-pill_rocker_panel_left"><circle class="cls-6 damage-pill-background" cx="373.9" cy="205.33" r="19.13"/><circle class="cls-3 severity-low" cx="373.9" cy="205.33" r="9.1"/><circle class="cls-5 severity-high" cx="373.9" cy="205.33" r="9.1"/><circle class="cls-8 severity-none" cx="373.9" cy="205.33" r="9.1"/><g class="severity-medium"><circle class="cls-2 severity-medium severity-medium" cx="373.9" cy="205.33" r="9.1"/><path class="cls-4 severity-medium" d="M373.9 196.23v18.1c-5 0-9.1-4.1-9.1-9.1s4.1-9 9.1-9Z"/></g></g><g id="damage-pill-pricing_rocker_panel_left"><path class="cls-6 damage-pill-background" d="M428.88 224.46H373.9c-10.56 0-19.13-8.58-19.13-19.13 0-10.56 8.58-19.13 19.13-19.13h54.98c10.56 0 19.13 8.58 19.13 19.13 0 10.56-8.58 19.13-19.13 19.13Z"/><text class="cls-7 damage-pill-text" transform="translate(395.98 209.61)">9999€</text><circle class="cls-3 severity-low" cx="373.9" cy="205.33" r="9.1"/><circle class="cls-5 severity-high" cx="373.9" cy="205.33" r="9.1"/><circle class="cls-8 severity-none" cx="373.9" cy="205.33" r="9.1"/><g class="severity-medium"><circle class="cls-2 severity-medium severity-medium" cx="373.9" cy="205.33" r="9.1"/><path class="cls-4 severity-medium" d="M373.9 196.23v18.1c-5 0-9.1-4.1-9.1-9.1s4.1-9 9.1-9Z"/></g></g><g id="damage-pill_windshield_front"><circle class="cls-6 damage-pill-background" cx="231.75" cy="69.27" r="19.13"/><circle class="cls-3 severity-low" cx="231.75" cy="69.27" r="9.1"/><circle class="cls-5 severity-high" cx="231.75" cy="69.27" r="9.1"/><circle class="cls-8 severity-none" cx="231.75" cy="69.27" r="9.1"/><g class="severity-medium"><circle class="cls-2 severity-medium severity-medium" cx="231.75" cy="69.27" r="9.1"/><path class="cls-4 severity-medium" d="M231.75 60.17v18.1c-5 0-9.1-4.1-9.1-9.1s4.1-9 9.1-9Z"/></g></g><g id="damage-pill-pricing_windshield_front"><path class="cls-6 damage-pill-background" d="M286.73 88.4h-54.98c-10.56 0-19.13-8.58-19.13-19.13 0-10.56 8.58-19.13 19.13-19.13h54.98c10.56 0 19.13 8.58 19.13 19.13 0 10.56-8.58 19.13-19.13 19.13Z"/><text class="cls-7 damage-pill-text" transform="translate(253.83 73.55)">9999€</text><circle class="cls-3 severity-low" cx="231.75" cy="69.27" r="9.1"/><circle class="cls-5 severity-high" cx="231.75" cy="69.27" r="9.1"/><circle class="cls-8 severity-none" cx="231.75" cy="69.27" r="9.1"/><g class="severity-medium"><circle class="cls-2 severity-medium severity-medium" cx="231.75" cy="69.27" r="9.1"/><path class="cls-4 severity-medium" d="M231.75 60.17v18.1c-5 0-9.1-4.1-9.1-9.1s4.1-9 9.1-9Z"/></g></g><g id="damage-pill_roof"><circle class="cls-6 damage-pill-background" cx="288.82" cy="20.13" r="19.13"/><circle class="cls-3 severity-low" cx="288.82" cy="20.13" r="9.1"/><circle class="cls-5 severity-high" cx="288.82" cy="20.13" r="9.1"/><circle class="cls-8 severity-none" cx="288.82" cy="20.13" r="9.1"/><g class="severity-medium"><circle class="cls-2 severity-medium severity-medium" cx="288.82" cy="20.13" r="9.1"/><path class="cls-4 severity-medium" d="M288.82 11.03v18.1c-5 0-9.1-4.1-9.1-9.1s4.1-9 9.1-9Z"/></g></g><g id="damage-pill-pricing_roof"><path class="cls-6 damage-pill-background" d="M343.8 39.27h-54.98c-10.56 0-19.13-8.58-19.13-19.13 0-10.56 8.58-19.13 19.13-19.13h54.98c10.56 0 19.13 8.58 19.13 19.13 0 10.56-8.58 19.13-19.13 19.13Z"/><text class="cls-7 damage-pill-text" transform="translate(310.91 24.42)">9999€</text><circle class="cls-3 severity-low" cx="288.82" cy="20.13" r="9.1"/><circle class="cls-5 severity-high" cx="288.82" cy="20.13" r="9.1"/><circle class="cls-8 severity-none" cx="288.82" cy="20.13" r="9.1"/><g class="severity-medium"><circle class="cls-2 severity-medium severity-medium" cx="288.82" cy="20.13" r="9.1"/><path class="cls-4 severity-medium" d="M288.82 11.03v18.1c-5 0-9.1-4.1-9.1-9.1s4.1-9 9.1-9Z"/></g></g><g id="damage-pill_fender_back_left"><circle class="cls-6 damage-pill-background" cx="457.98" cy="68.33" r="19.13"/><circle class="cls-3 severity-low" cx="457.98" cy="68.33" r="9.1"/><circle class="cls-5 severity-high" cx="457.98" cy="68.33" r="9.1"/><circle class="cls-8 severity-none" cx="457.98" cy="68.33" r="9.1"/><g class="severity-medium"><circle class="cls-2 severity-medium severity-medium" cx="457.98" cy="68.33" r="9.1"/><path class="cls-4 severity-medium" d="M457.98 59.23v18.1c-5 0-9.1-4.1-9.1-9.1s4.1-9 9.1-9Z"/></g></g><g id="damage-pill-pricing_fender_back_left"><path class="cls-6 damage-pill-background" d="M512.96 87.47h-54.98c-10.56 0-19.13-8.58-19.13-19.13 0-10.56 8.58-19.13 19.13-19.13h54.98c10.56 0 19.13 8.58 19.13 19.13 0 10.56-8.58 19.13-19.13 19.13Z"/><text class="cls-7 damage-pill-text" transform="translate(480.06 72.62)">9999€</text><circle class="cls-3 severity-low" cx="457.98" cy="68.33" r="9.1"/><circle class="cls-5 severity-high" cx="457.98" cy="68.33" r="9.1"/><circle class="cls-8 severity-none" cx="457.98" cy="68.33" r="9.1"/><g class="severity-medium"><circle class="cls-2 severity-medium severity-medium" cx="457.98" cy="68.33" r="9.1"/><path class="cls-4 severity-medium" d="M457.98 59.23v18.1c-5 0-9.1-4.1-9.1-9.1s4.1-9 9.1-9Z"/></g></g><g id="damage-pill_wheel_back_left"><circle class="cls-6 damage-pill-background" cx="447.32" cy="152.92" r="19.13"/><circle class="cls-3 severity-low" cx="447.32" cy="152.92" r="9.1"/><circle class="cls-5 severity-high" cx="447.32" cy="152.92" r="9.1"/><circle class="cls-8 severity-none" cx="447.32" cy="152.92" r="9.1"/><g class="severity-medium"><circle class="cls-2 severity-medium severity-medium" cx="447.32" cy="152.92" r="9.1"/><path class="cls-4 severity-medium" d="M447.32 143.82v18.1c-5 0-9.1-4.1-9.1-9.1s4.1-9 9.1-9Z"/></g></g><g id="damage-pill-pricing_wheel_back_left"><path class="cls-6 damage-pill-background" d="M502.31 172.05h-54.98c-10.56 0-19.13-8.58-19.13-19.13 0-10.56 8.58-19.13 19.13-19.13h54.98c10.56 0 19.13 8.58 19.13 19.13 0 10.56-8.58 19.13-19.13 19.13Z"/><text class="cls-7 damage-pill-text" transform="translate(469.41 157.2)">9999€</text><circle class="cls-3 severity-low" cx="447.32" cy="152.92" r="9.1"/><circle class="cls-5 severity-high" cx="447.32" cy="152.92" r="9.1"/><circle class="cls-8 severity-none" cx="447.32" cy="152.92" r="9.1"/><g class="severity-medium"><circle class="cls-2 severity-medium severity-medium" cx="447.32" cy="152.92" r="9.1"/><path class="cls-4 severity-medium" d="M447.32 143.82v18.1c-5 0-9.1-4.1-9.1-9.1s4.1-9 9.1-9Z"/></g></g><g id="damage-pill_tail_light_left"><circle class="cls-6 damage-pill-background" cx="468.63" cy="80.47" r="19.13"/><circle class="cls-3 severity-low" cx="468.63" cy="80.47" r="9.1"/><circle class="cls-5 severity-high" cx="468.63" cy="80.47" r="9.1"/><circle class="cls-8 severity-none" cx="468.63" cy="80.47" r="9.1"/><g class="severity-medium"><circle class="cls-2 severity-medium severity-medium" cx="468.63" cy="80.47" r="9.1"/><path class="cls-4 severity-medium" d="M468.63 71.37v18.1c-5 0-9.1-4.1-9.1-9.1s4.1-9 9.1-9Z"/></g></g><g id="damage-pill-pricing_tail_light_left"><path class="cls-6 damage-pill-background" d="M523.61 99.6h-54.98c-10.56 0-19.13-8.58-19.13-19.13 0-10.56 8.58-19.13 19.13-19.13h54.98c10.56 0 19.13 8.58 19.13 19.13 0 10.56-8.58 19.13-19.13 19.13Z"/><text class="cls-7 damage-pill-text" transform="translate(490.71 84.75)">9999€</text><circle class="cls-3 severity-low" cx="468.63" cy="80.47" r="9.1"/><circle class="cls-5 severity-high" cx="468.63" cy="80.47" r="9.1"/><circle class="cls-8 severity-none" cx="468.63" cy="80.47" r="9.1"/><g class="severity-medium"><circle class="cls-2 severity-medium severity-medium" cx="468.63" cy="80.47" r="9.1"/><path class="cls-4 severity-medium" d="M468.63 71.37v18.1c-5 0-9.1-4.1-9.1-9.1s4.1-9 9.1-9Z"/></g></g><g id="damage-pill_quarter_window_back_left"><circle class="cls-6 damage-pill-background" cx="441.62" cy="51.85" r="19.13"/><circle class="cls-3 severity-low" cx="441.62" cy="51.85" r="9.1"/><circle class="cls-5 severity-high" cx="441.62" cy="51.85" r="9.1"/><circle class="cls-8 severity-none" cx="441.62" cy="51.85" r="9.1"/><g class="severity-medium"><circle class="cls-2 severity-medium severity-medium" cx="441.62" cy="51.85" r="9.1"/><path class="cls-4 severity-medium" d="M441.62 42.75v18.1c-5 0-9.1-4.1-9.1-9.1s4.1-9 9.1-9Z"/></g></g><g id="damage-pill-pricing_quarter_window_back_left"><path class="cls-6 damage-pill-background" d="M496.61 70.99h-54.98c-10.56 0-19.13-8.58-19.13-19.13 0-10.56 8.58-19.13 19.13-19.13h54.98c10.56 0 19.13 8.58 19.13 19.13 0 10.56-8.58 19.13-19.13 19.13Z"/><text class="cls-7 damage-pill-text" transform="translate(463.71 56.14)">9999€</text><circle class="cls-3 severity-low" cx="441.62" cy="51.85" r="9.1"/><circle class="cls-5 severity-high" cx="441.62" cy="51.85" r="9.1"/><circle class="cls-8 severity-none" cx="441.62" cy="51.85" r="9.1"/><g class="severity-medium"><circle class="cls-2 severity-medium severity-medium" cx="441.62" cy="51.85" r="9.1"/><path class="cls-4 severity-medium" d="M441.62 42.75v18.1c-5 0-9.1-4.1-9.1-9.1s4.1-9 9.1-9Z"/></g></g></svg>
