<svg xmlns="http://www.w3.org/2000/svg" viewBox="0 0 532.62 330.86"><defs><style>.cls-1{stroke:#fff;stroke-linecap:round;stroke-linejoin:round}.cls-1,.cls-2,.cls-3{fill:none}.cls-4{fill:#e1a25b}.cls-5{fill:#f49796;stroke:#f49796}.cls-2,.cls-3,.cls-5,.cls-6{stroke-miterlimit:10;stroke-width:2px}.cls-6{fill:#31333e;stroke:#595e72}.cls-2{stroke:#e1a25b}.cls-3{stroke:#62b0ef}.cls-7{font-family:sans-serif;font-size:13px;isolation:isolate}.cls-7,.cls-8{fill:#fff}</style></defs><g id="wheel_front_right" class="car-part selectable"><path class="cls-1" d="M422.42 174.27c1.54-1.26 3.07-2.53 4.59-3.81 1.41-1.74 3.56-6.03 6.1-11.49 6.09-13.09 14.41-32.9 20.2-40.31.42-.53.82-1.04 1.22-1.53 5.36 1.63 6.62 10.42 5.15 20.87v.02c-.14 1.11-.33 2.24-.55 3.39 0 .02-.01.03-.01.04a85.626 85.626 0 0 1-5.31 17.51c-8.1 19-11.7 27-19.9 26.3-8.7-1-18.3-4.2-18.3-5.4l-.06-.07c2.3-1.82 4.59-3.66 6.87-5.52h0Zm16.9-2.39c2.47.95 7.41-5.88 11.02-15.27 3.61-9.38 4.54-17.76 2.06-18.71-2.47-.95-7.4 5.88-11.01 15.27-3.62 9.38-4.54 17.76-2.07 18.71h0Z"/><path class="cls-1" d="M439.32 171.88c2.47.95 7.41-5.88 11.02-15.27 3.61-9.38 4.54-17.76 2.06-18.71-2.47-.95-7.4 5.88-11.01 15.27-3.62 9.38-4.54 17.76-2.07 18.71h0Z"/></g><g id="wheel_back_right" class="car-part selectable"><path class="cls-1" d="M218.78 282.39c8.56-18.53 21.14-45.83 44.23-71.43 5.13-5.13 13.28-12.6 22.12-18.11 5.54 1.51 12.19 4.16 17.98 6.81 12.18 5.42 17.21 20.65 16.18 39.4-.07 1.19-.16 2.39-.27 3.6h0c-1.3 13.93-5.78 29.5-13 44.3-10 21.7-31.6 43.4-55.5 43.4-12.6 0-38.7-23.4-39.6-31.6l-.2-.12c2.37-3.92 4.95-9.5 8.07-16.25h-.01Zm49.28 17.38c9.76 4.11 24.06-7.75 31.93-26.48 7.87-18.72 6.33-37.23-3.43-41.33-9.76-4.11-24.06 7.75-31.93 26.48-7.87 18.72-6.33 37.23 3.43 41.33h0Z"/><path class="cls-1" d="M268.06 299.77c9.76 4.11 24.06-7.75 31.93-26.48 7.87-18.72 6.33-37.23-3.43-41.33-9.76-4.11-24.06 7.75-31.93 26.48-7.87 18.72-6.33 37.23 3.43 41.33h0Z"/></g><path id="rocker_panel_right" class="cls-1 car-part selectable" d="M319.02 242.66c.6-.31 26.57-13.99 58.22-35.16 12.29-8.22 25.45-17.57 38.31-27.71 2.3-1.82 4.59-3.66 6.87-5.52 1.54-1.26 3.07-2.53 4.59-3.81 1.41-1.74 3.56-6.03 6.1-11.49l-3.83 2.19-4.93 2.82-43.09 24.67-56.25 32.2H325c-1.31 8.79-4.8 15.19-5.71 18.21-.07 1.19-.16 2.39-.27 3.6h0Z"/><path class="cls-1 background" d="M459.68 138c.36-1.15 1.81-6.04 3.73-13.44 2.85-17.18-1.42-16.52-8.88-7.43 5.36 1.63 6.62 10.42 5.15 20.87Z"/><path id="fender_front_right" class="cls-1 car-part selectable" d="m429.28 161.16 3.83-2.19c6.09-13.09 14.41-32.9 20.2-40.31.42-.53.82-1.04 1.22-1.53 7.46-9.09 11.73-9.75 8.88 7.43-1.92 7.4-3.37 12.29-3.73 13.44v.02c-.14 1.11-.33 2.24-.55 3.39.58-1.17 11-22.57 8.18-44.55-1.07-7.12-4.53-8.72-8.6-10.94-2.03 3.27-5.15 5.81-6 6.24-.35.17-1.68.27-3.49.34-.13 0-.26.01-.4.01h-.01c-1.98.04-4.43.04-6.77 0 9.69 13.29-3.6 48.95-12.76 68.65h0Z"/><path class="cls-1 background" d="M285.13 192.85c5.54 1.51 12.19 4.16 17.98 6.81 12.18 5.42 17.21 20.65 16.18 39.4.91-3.02 4.4-9.42 5.71-18.21 1.06-7 .73-15.53-3.39-25.09-4.17-7.35-9.84-10.16-16.1-10.16h-.78c-6.29.23-13.13 3.21-19.6 7.24h0Z"/><path id="bumper_back" class="cls-1 car-part selectable" d="M11.11 222.36c3.1 7.5 16.1 31.2 36.5 49 16.4 14.4 47.4 42.5 64.7 46.3 6.8-.4 10.1-4.8 24-1.5 14.5 3.4 55.9-1.8 70.1-12.2 1.4-1.02 2.81-2.84 4.3-5.32 2.37-3.92 4.95-9.5 8.07-16.25l-.27-.13c-8.8 3.4-32.6 14.9-39.8 9.5-2.91-2.21-7.7-9.64-12.92-18.05l-.08.05c-10.1 9-49.3 11.6-77 1.1-33.3-12.7-77.8-52.5-82.9-77.7H5.8c-.59 9.19 2.68 18.85 5.31 25.2h0Zm-4.6-30.1c2.5-10.5 11.8-12.5 11.4-14.4l.21-.04c.42 1.91 2.12 10.2 5.39 16.64 4 7.1 26 37.2 77.9 60.4 2.89 1.35 5.84 2.5 8.78 3.47 18.99 6.31 37.91 5.53 42.92 5.43h.1l11.51 8.23h0c.36.58.72 1.15 1.07 1.72l-.08.05c-10.1 9-49.3 11.6-77 1.1-33.3-12.7-77.8-52.5-82.9-77.7H5.8c.1-1.65.33-3.29.71-4.9h0Z"/><path id="license_plate_back" class="cls-1 car-part selectable" d="m24.11 168.79 37.59 31.77.71-29.1c-3.94-4.61-6.79-7.95-7.2-8.4-8.08-3.27-20.36-8.19-31.1-14.38v20.11Z"/><path id="windshield_back" class="cls-1 car-part selectable" d="M15.21 92.04c-.81 23.18 94.54 34.3 110.3 27.42 11.9-13 54.5-67.2 47.9-74.1-8.16-5.87-98.3-13.14-111.82-4.32-.3 1.34-.93 2.76-2.08 4.12-1.82 2.17-27.86 29.3-44.3 46.88h0Z"/><path id="pillar" class="cls-1 car-part selectable" d="M393.87 32.06c17.43 9.76 29.4 27.32 39.24 43.9.52-1.17 1-2 1.53-2.58-1.93-4.67-15.84-24.2-26.33-33.82-2.87-2.69-6.21-5.32-9.61-7.75h-.01l-4.82.25Z"/><path id="tail_light_right" class="cls-1 car-part selectable" d="M57.91 138.76c8.7 1.1 39.7 4.1 56.2 4.8h.68c12.69.25 83.29-3.22 92.02-3.51 8.9-.3 12.1 1 13.4 3.8 1.3 2.8-12.6 28.1-32.7 39.3-20.1 11.2-40.7 8-53.1 4.9-11-1.24-20.08-2.61-27.59-4.03-24.07-4.57-31.98-9.67-35.41-12.57-4.4-3.8-16.3-22-18.1-25.6-1.8-3.6-.3-7.7 4.6-7.1Z"/><path id="mirror_right" class="cls-1 car-part selectable" d="M430.91 84.36c.1-1-.1-2.7 1.8-7.4.14-.36.27-.69.4-1 .52-1.17 1-2 1.53-2.58.91-1.03 1.93-1.33 3.35-1.5.35-.05.72-.08 1.12-.12 3.2-.4 10.9 2.1 12.2 2.4 1.3.3 9.9 2.4 9.1 7.5-.23 1.48-.87 2.93-1.7 4.26-2.03 3.27-5.15 5.81-6 6.24-.35.17-1.68.27-3.49.34-.13 0-.26.01-.4.01h-.01c-1.98.04-4.43.04-6.77 0-3.07-.06-5.91-.19-7.13-.35-1.36-.18-2.25-.73-2.83-1.3-.75-.74-.97-1.5-.97-1.5l-.9-.2-.2-4.6s.8 0 .9-.2Z"/><path id="roof" class="cls-1 car-part selectable" d="M152.66 14.36c1.97-.17 3.64-.3 4.95-.4 4.42-.34 10.58-.73 17.72-1.12 25.99-1.44 64.91-1.93 80.09-2.11 46.67-.55 98.03 0 124.49 10.03 2.45.92 7.84 3.8 13.77 7.64 1.65 1.07 3.34 2.21 5.01 3.41l-4.82.25c-5.59-3.13-11.74-5.46-18.56-6.7-3.89-.98-8.28-1.71-13-2.22-21.08-2.3-48.67-.2-67.4 3.65-2.27.46-4.42.96-6.4 1.47-5.34 1.38-11.17 4.21-17.06 7.91l-51.22 5.87c.05-2.46-.38-4.94-1.32-7.48-5.7-14.7-51.6-15.9-78.8-18.9v-.16c4.85-.46 9.15-.85 12.55-1.14h0Zm103.45-3.6c-.22 0-.44-.03-.68-.03"/><path id="quarter_window_back_right" class="cls-1 car-part selectable" d="M288.11 99.16s.06.01.1.01h0c.9-11.69 6.78-66.14 6.7-72.38-2.27.46-4.42.96-6.4 1.47-5.34 1.38-11.17 4.21-17.06 7.91-21.93 13.75-44.65 39.38-45.44 45.69-2.9 7.1 38.5 13.8 62.1 17.3h0Z"/><path id="window_front_right" class="cls-1 car-part selectable" d="M362.31 23.14v.02c3.39 5.39 16.65 63.58 19.68 73.34 26-2.4 47.16-5.1 49.82-5.54l.27-.1c-.75-.74-.97-1.5-.97-1.5l-.9-.2-.2-4.6s.8 0 .9-.2c.1-1-.1-2.7 1.8-7.4.14-.36.27-.69.4-1-13-21.9-29.7-45.5-57.8-50.6-3.89-.98-8.28-1.71-13-2.22h0Z"/><path id="window_back_right" class="cls-1 car-part selectable" d="M288.21 99.16h.01c20.81 2.94 61.11.37 93.77-2.66-3.03-9.76-16.29-67.95-19.68-73.34v-.02c-21.08-2.3-48.67-.2-67.4 3.65.08 6.24-5.8 60.69-6.7 72.37h0Z"/><path id="fender_back_right" class="cls-1 car-part selectable" d="m110.21 258.26-.02.07c18.99 6.31 37.91 5.53 42.92 5.43h.1l-.1-.1-16.4-23.9.04-.1c3.09 1.36 5.96 2.84 8.26 4.4 4.62 3.21 12.47 16.21 19.71 27.93h0c.36.58.72 1.15 1.07 1.72 5.22 8.41 10.01 15.84 12.92 18.05 7.2 5.4 31-6.1 39.8-9.5l.27.13c8.56-18.53 21.14-45.83 44.23-71.43 5.13-5.13 13.28-12.6 22.12-18.11 6.47-4.03 13.31-7.01 19.6-7.24h.78l-.8-.34c1.8-19.5-8.1-69.98-16.49-86.09h-.01s-.06 0-.1-.01c-23.6-3.5-65-10.2-62.1-17.3.79-6.31 23.51-31.94 45.44-45.69l-51.22 5.87c-.37 19.23-30.1 37.17-75.32 72.02-4.59 2.09-20.36 18.15-30.12 29.51 12.69.25 83.29-3.22 92.02-3.51 8.9-.3 12.1 1 13.4 3.8 1.3 2.8-12.6 28.1-32.7 39.3-20.1 11.2-40.7 8-53.1 4.9-11-1.24-20.08-2.61-27.59-4.03 1.55 7.65 11.76 27.68.79 43.63-2 5.4 3.1 27.9 2.6 30.6h0Z"/><path id="trunk" class="cls-1 car-part selectable" d="M2.01 106.66c.87-1.32 6.15-7.09 13.2-14.62-.81 23.18 94.54 34.3 110.3 27.42 11.9-13 54.5-67.2 47.9-74.1-8.16-5.87-98.3-13.14-111.82-4.32.44-1.92.21-3.66-.08-4.78-.9-1.5-4.3-2.1-5.6-4.2-.8-4.5 4.4-7.2 7.9-8.2 3.67-1.09 48.88-5.79 76.28-8.36h0v.16c27.21 3 73.11 4.2 78.81 18.9.94 2.54 1.37 5.02 1.32 7.48-.37 19.23-30.1 37.17-75.32 72.02-4.59 2.09-20.36 18.15-30.12 29.51h-.68c-16.5-.7-47.5-3.7-56.2-4.8-4.9-.6-6.4 3.5-4.6 7.1s13.7 21.8 18.1 25.6c3.43 2.9 11.34 8 35.41 12.57 1.55 7.65 11.76 27.68.79 43.63-2 5.4 3.1 27.9 2.6 30.6l-.02.07c-2.94-.97-5.89-2.12-8.78-3.47-51.9-23.2-73.9-53.3-77.9-60.4-3.27-6.44-4.97-14.73-5.39-16.64l-.21.04c-.4-2-4.8-19.4-4.8-22.5s2.5-4.1 2.2-6.6c-.82-1.13-3.77-6.11-6.65-11.45-2.74-5.08-5.42-10.47-6.15-13.15-1.5-5.5-3.4-13.2-.5-17.5h0Zm59.69 93.9.71-29.1c-3.94-4.61-6.79-7.95-7.2-8.4-8.08-3.27-20.36-8.19-31.1-14.38v20.11l37.59 31.77Zm-53.19-63.4.15.15c4.04 4.14 9.51 7.95 15.45 11.37m63.5 51.88c-6.28-7-17.71-20.35-25.2-29.1"/><path id="fog_light_back_right" class="cls-1 car-part selectable" d="m136.71 239.76 16.4 23.9.1.1 11.51 8.23c-7.24-11.72-15.09-24.72-19.71-27.93-2.3-1.56-5.17-3.04-8.26-4.4l-.04.1h0Z"/><g id="door_front_right" class="car-part selectable"><path class="cls-1" d="M382.01 96.56s-.01-.04-.02-.06c26-2.4 47.16-5.1 49.82-5.54l.27-.1c.58.57 1.47 1.12 2.83 1.3 1.22.16 4.06.29 7.13.35 9.69 13.29-3.6 48.95-12.76 68.65l-4.93 2.82-43.09 24.67c8.18-36.11 18.14-76.05.75-92.09h0Zm16.8 22c.3 1.8 14-2.2 15.1-2.9s1.6-3.5.2-4.1c-1.2-.5-3.4-.5-4.4-.3 0 0-8.7 1.8-9.3 2.4-.6.5-2.1 1.5-1.6 4.9h0Z"/><path id="handle_front_right" class="cls-1 car-part" d="M398.81 118.56c.3 1.8 14-2.2 15.1-2.9s1.6-3.5.2-4.1c-1.2-.5-3.4-.5-4.4-.3 0 0-8.7 1.8-9.3 2.4-.6.5-2.1 1.5-1.6 4.9h0Z"/></g><g id="door_back_right" class="car-part selectable"><path class="cls-1" d="M288.22 99.17c20.81 2.93 61.11.36 93.77-2.67.01.02.01.04.02.06 17.39 16.04 7.43 55.98-.75 92.09l-56.25 32.2H325c1.06-7 .73-15.53-3.39-25.09-4.17-7.35-9.84-10.16-16.1-10.16l-.8-.34c1.8-19.5-8.1-69.98-16.49-86.09h0Zm28.19 41.59c4.9-.6 20.3-5.3 22.3-6.6 1.9-1.4 2.3-4-.6-4.9-3-1-5.4-.3-6.5 0l-13.7 3.1s-7.2.9-7.1 4.1c.1 3.3.7 4.9 5.6 4.3h0Z"/><path id="handle_back_right" class="cls-1 car-part" d="M310.81 136.46c.1 3.3.7 4.9 5.6 4.3 4.9-.6 20.3-5.3 22.3-6.6 1.9-1.4 2.3-4-.6-4.9-3-1-5.4-.3-6.5 0l-13.7 3.1s-7.2.9-7.1 4.1h0Z"/></g><g id="damage-pill_tail_light_right"><circle class="cls-6 damage-pill-background" cx="141.88" cy="165.71" r="19.13"/><circle class="cls-3 severity-low" cx="141.88" cy="165.71" r="9.1"/><circle class="cls-5 severity-high" cx="141.88" cy="165.71" r="9.1"/><circle class="cls-8 severity-none" cx="141.88" cy="165.71" r="9.1"/><g class="severity-medium"><circle class="cls-2 severity-medium severity-medium" cx="141.88" cy="165.71" r="9.1"/><path class="cls-4 severity-medium" d="M141.88 156.61v18.1c-5 0-9.1-4.1-9.1-9.1s4.1-9 9.1-9Z"/></g></g><g id="damage-pill-pricing_tail_light_right"><path class="cls-6 damage-pill-background" d="M196.87 184.85h-54.98c-10.56 0-19.13-8.58-19.13-19.13 0-10.56 8.58-19.13 19.13-19.13h54.98c10.56 0 19.13 8.58 19.13 19.13 0 10.56-8.58 19.13-19.13 19.13Z"/><text class="cls-7 damage-pill-text" transform="translate(163.97 170)">9999€</text><circle class="cls-3 severity-low" cx="141.88" cy="165.71" r="9.1"/><circle class="cls-5 severity-high" cx="141.88" cy="165.71" r="9.1"/><circle class="cls-8 severity-none" cx="141.88" cy="165.71" r="9.1"/><g class="severity-medium"><circle class="cls-2 severity-medium severity-medium" cx="141.88" cy="165.71" r="9.1"/><path class="cls-4 severity-medium" d="M141.88 156.61v18.1c-5 0-9.1-4.1-9.1-9.1s4.1-9 9.1-9Z"/></g></g><g id="damage-pill_bumper_back"><circle class="cls-6 damage-pill-background" cx="53.88" cy="255.83" r="19.13"/><circle class="cls-3 severity-low" cx="53.88" cy="255.83" r="9.1"/><circle class="cls-5 severity-high" cx="53.88" cy="255.83" r="9.1"/><circle class="cls-8 severity-none" cx="53.88" cy="255.83" r="9.1"/><g class="severity-medium"><circle class="cls-2 severity-medium severity-medium" cx="53.88" cy="255.83" r="9.1"/><path class="cls-4 severity-medium" d="M53.88 246.73v18.1c-5 0-9.1-4.1-9.1-9.1s4.1-9 9.1-9Z"/></g></g><g id="damage-pill-pricing_bumper_back"><path class="cls-6 damage-pill-background" d="M108.86 274.96H53.88c-10.56 0-19.13-8.58-19.13-19.13 0-10.56 8.58-19.13 19.13-19.13h54.98c10.56 0 19.13 8.58 19.13 19.13 0 10.56-8.58 19.13-19.13 19.13Z"/><text class="cls-7 damage-pill-text" transform="translate(75.97 260.11)">9999€</text><circle class="cls-3 severity-low" cx="53.88" cy="255.83" r="9.1"/><circle class="cls-5 severity-high" cx="53.88" cy="255.83" r="9.1"/><circle class="cls-8 severity-none" cx="53.88" cy="255.83" r="9.1"/><g class="severity-medium"><circle class="cls-2 severity-medium severity-medium" cx="53.88" cy="255.83" r="9.1"/><path class="cls-4 severity-medium" d="M53.88 246.73v18.1c-5 0-9.1-4.1-9.1-9.1s4.1-9 9.1-9Z"/></g></g><g id="damage-pill_license_plate_back"><circle class="cls-6 damage-pill-background" cx="43.23" cy="174.62" r="19.13"/><circle class="cls-3 severity-low" cx="43.23" cy="174.62" r="9.1"/><circle class="cls-5 severity-high" cx="43.23" cy="174.62" r="9.1"/><circle class="cls-8 severity-none" cx="43.23" cy="174.62" r="9.1"/><g class="severity-medium"><circle class="cls-2 severity-medium severity-medium" cx="43.23" cy="174.62" r="9.1"/><path class="cls-4 severity-medium" d="M43.23 165.52v18.1c-5 0-9.1-4.1-9.1-9.1s4.1-9 9.1-9Z"/></g></g><g id="damage-pill-pricing_license_plate_back"><path class="cls-6 damage-pill-background" d="M98.21 193.76H43.23c-10.56 0-19.13-8.58-19.13-19.13 0-10.56 8.58-19.13 19.13-19.13h54.98c10.56 0 19.13 8.58 19.13 19.13 0 10.56-8.58 19.13-19.13 19.13Z"/><text class="cls-7 damage-pill-text" transform="translate(65.31 178.91)">9999€</text><circle class="cls-3 severity-low" cx="43.23" cy="174.62" r="9.1"/><circle class="cls-5 severity-high" cx="43.23" cy="174.62" r="9.1"/><circle class="cls-8 severity-none" cx="43.23" cy="174.62" r="9.1"/><g class="severity-medium"><circle class="cls-2 severity-medium severity-medium" cx="43.23" cy="174.62" r="9.1"/><path class="cls-4 severity-medium" d="M43.23 165.52v18.1c-5 0-9.1-4.1-9.1-9.1s4.1-9 9.1-9Z"/></g></g><g id="damage-pill_fog_light_back_right"><circle class="cls-6 damage-pill-background" cx="149.48" cy="255.83" r="19.13"/><circle class="cls-3 severity-low" cx="149.48" cy="255.83" r="9.1"/><circle class="cls-5 severity-high" cx="149.48" cy="255.83" r="9.1"/><circle class="cls-8 severity-none" cx="149.48" cy="255.83" r="9.1"/><g class="severity-medium"><circle class="cls-2 severity-medium severity-medium" cx="149.48" cy="255.83" r="9.1"/><path class="cls-4 severity-medium" d="M149.48 246.73v18.1c-5 0-9.1-4.1-9.1-9.1s4.1-9 9.1-9Z"/></g></g><g id="damage-pill-pricing_fog_light_back_right"><path class="cls-6 damage-pill-background" d="M204.46 274.96h-54.98c-10.56 0-19.13-8.58-19.13-19.13 0-10.56 8.58-19.13 19.13-19.13h54.98c10.56 0 19.13 8.58 19.13 19.13 0 10.56-8.58 19.13-19.13 19.13Z"/><text class="cls-7 damage-pill-text" transform="translate(171.57 260.11)">9999€</text><circle class="cls-3 severity-low" cx="149.48" cy="255.83" r="9.1"/><circle class="cls-5 severity-high" cx="149.48" cy="255.83" r="9.1"/><circle class="cls-8 severity-none" cx="149.48" cy="255.83" r="9.1"/><g class="severity-medium"><circle class="cls-2 severity-medium severity-medium" cx="149.48" cy="255.83" r="9.1"/><path class="cls-4 severity-medium" d="M149.48 246.73v18.1c-5 0-9.1-4.1-9.1-9.1s4.1-9 9.1-9Z"/></g></g><g id="damage-pill_wheel_front_right"><circle class="cls-6 damage-pill-background" cx="448.57" cy="148.68" r="19.13"/><circle class="cls-3 severity-low" cx="448.57" cy="148.68" r="9.1"/><circle class="cls-5 severity-high" cx="448.57" cy="148.68" r="9.1"/><circle class="cls-8 severity-none" cx="448.57" cy="148.68" r="9.1"/><g class="severity-medium"><circle class="cls-2 severity-medium severity-medium" cx="448.57" cy="148.68" r="9.1"/><path class="cls-4 severity-medium" d="M448.57 139.58v18.1c-5 0-9.1-4.1-9.1-9.1s4.1-9 9.1-9Z"/></g></g><g id="damage-pill-pricing_wheel_front_right"><path class="cls-6 damage-pill-background" d="M503.56 167.82h-54.98c-10.56 0-19.13-8.58-19.13-19.13 0-10.56 8.58-19.13 19.13-19.13h54.98c10.56 0 19.13 8.58 19.13 19.13 0 10.56-8.58 19.13-19.13 19.13Z"/><text class="cls-7 damage-pill-text" transform="translate(470.66 152.97)">9999€</text><circle class="cls-3 severity-low" cx="448.57" cy="148.68" r="9.1"/><circle class="cls-5 severity-high" cx="448.57" cy="148.68" r="9.1"/><circle class="cls-8 severity-none" cx="448.57" cy="148.68" r="9.1"/><g class="severity-medium"><circle class="cls-2 severity-medium severity-medium" cx="448.57" cy="148.68" r="9.1"/><path class="cls-4 severity-medium" d="M448.57 139.58v18.1c-5 0-9.1-4.1-9.1-9.1s4.1-9 9.1-9Z"/></g></g><g id="damage-pill_fender_front_right"><circle class="cls-6 damage-pill-background" cx="457.5" cy="101.27" r="19.13"/><circle class="cls-3 severity-low" cx="457.5" cy="101.27" r="9.1"/><circle class="cls-5 severity-high" cx="457.5" cy="101.27" r="9.1"/><circle class="cls-8 severity-none" cx="457.5" cy="101.27" r="9.1"/><g class="severity-medium"><circle class="cls-2 severity-medium severity-medium" cx="457.5" cy="101.27" r="9.1"/><path class="cls-4 severity-medium" d="M457.5 92.17v18.1c-5 0-9.1-4.1-9.1-9.1s4.1-9 9.1-9Z"/></g></g><g id="damage-pill-pricing_fender_front_right"><path class="cls-6 damage-pill-background" d="M512.49 120.4h-54.98c-10.56 0-19.13-8.58-19.13-19.13 0-10.56 8.58-19.13 19.13-19.13h54.98c10.56 0 19.13 8.58 19.13 19.13 0 10.56-8.58 19.13-19.13 19.13Z"/><text class="cls-7 damage-pill-text" transform="translate(479.59 105.55)">9999€</text><circle class="cls-3 severity-low" cx="457.5" cy="101.27" r="9.1"/><circle class="cls-5 severity-high" cx="457.5" cy="101.27" r="9.1"/><circle class="cls-8 severity-none" cx="457.5" cy="101.27" r="9.1"/><g class="severity-medium"><circle class="cls-2 severity-medium severity-medium" cx="457.5" cy="101.27" r="9.1"/><path class="cls-4 severity-medium" d="M457.5 92.17v18.1c-5 0-9.1-4.1-9.1-9.1s4.1-9 9.1-9Z"/></g></g><g id="damage-pill_pillar"><circle class="cls-6 damage-pill-background" cx="419.11" cy="50.95" r="19.13"/><circle class="cls-3 severity-low" cx="419.11" cy="50.95" r="9.1"/><circle class="cls-5 severity-high" cx="419.11" cy="50.95" r="9.1"/><circle class="cls-8 severity-none" cx="419.11" cy="50.95" r="9.1"/><g class="severity-medium"><circle class="cls-2 severity-medium severity-medium" cx="419.11" cy="50.95" r="9.1"/><path class="cls-4 severity-medium" d="M419.11 41.85v18.1c-5 0-9.1-4.1-9.1-9.1s4.1-9 9.1-9Z"/></g></g><g id="damage-pill-pricing_pillar"><path class="cls-6 damage-pill-background" d="M474.09 70.08h-54.98c-10.56 0-19.13-8.58-19.13-19.13 0-10.56 8.58-19.13 19.13-19.13h54.98c10.56 0 19.13 8.58 19.13 19.13 0 10.56-8.58 19.13-19.13 19.13Z"/><text class="cls-7 damage-pill-text" transform="translate(441.19 55.23)">9999€</text><circle class="cls-3 severity-low" cx="419.11" cy="50.95" r="9.1"/><circle class="cls-5 severity-high" cx="419.11" cy="50.95" r="9.1"/><circle class="cls-8 severity-none" cx="419.11" cy="50.95" r="9.1"/><g class="severity-medium"><circle class="cls-2 severity-medium severity-medium" cx="419.11" cy="50.95" r="9.1"/><path class="cls-4 severity-medium" d="M419.11 41.85v18.1c-5 0-9.1-4.1-9.1-9.1s4.1-9 9.1-9Z"/></g></g><g id="damage-pill_window_front_right"><circle class="cls-6 damage-pill-background" cx="395.25" cy="62.98" r="19.13"/><circle class="cls-3 severity-low" cx="395.25" cy="62.98" r="9.1"/><circle class="cls-5 severity-high" cx="395.25" cy="62.98" r="9.1"/><circle class="cls-8 severity-none" cx="395.25" cy="62.98" r="9.1"/><g class="severity-medium"><circle class="cls-2 severity-medium severity-medium" cx="395.25" cy="62.98" r="9.1"/><path class="cls-4 severity-medium" d="M395.25 53.88v18.1c-5 0-9.1-4.1-9.1-9.1s4.1-9 9.1-9Z"/></g></g><g id="damage-pill-pricing_window_front_right"><path class="cls-6 damage-pill-background" d="M450.24 82.12h-54.98c-10.56 0-19.13-8.58-19.13-19.13 0-10.56 8.58-19.13 19.13-19.13h54.98c10.56 0 19.13 8.58 19.13 19.13 0 10.56-8.58 19.13-19.13 19.13Z"/><text class="cls-7 damage-pill-text" transform="translate(417.34 67.27)">9999€</text><circle class="cls-3 severity-low" cx="395.25" cy="62.98" r="9.1"/><circle class="cls-5 severity-high" cx="395.25" cy="62.98" r="9.1"/><circle class="cls-8 severity-none" cx="395.25" cy="62.98" r="9.1"/><g class="severity-medium"><circle class="cls-2 severity-medium severity-medium" cx="395.25" cy="62.98" r="9.1"/><path class="cls-4 severity-medium" d="M395.25 53.88v18.1c-5 0-9.1-4.1-9.1-9.1s4.1-9 9.1-9Z"/></g></g><g id="damage-pill_window_back_right"><circle class="cls-6 damage-pill-background" cx="337.47" cy="62.93" r="19.13"/><circle class="cls-3 severity-low" cx="337.47" cy="62.93" r="9.1"/><circle class="cls-5 severity-high" cx="337.47" cy="62.93" r="9.1"/><circle class="cls-8 severity-none" cx="337.47" cy="62.93" r="9.1"/><g class="severity-medium"><circle class="cls-2 severity-medium severity-medium" cx="337.47" cy="62.93" r="9.1"/><path class="cls-4 severity-medium" d="M337.47 53.83v18.1c-5 0-9.1-4.1-9.1-9.1s4.1-9 9.1-9Z"/></g></g><g id="damage-pill-pricing_window_back_right"><path class="cls-6 damage-pill-background" d="M392.46 82.07h-54.98c-10.56 0-19.13-8.58-19.13-19.13 0-10.56 8.58-19.13 19.13-19.13h54.98c10.56 0 19.13 8.58 19.13 19.13 0 10.56-8.58 19.13-19.13 19.13Z"/><text class="cls-7 damage-pill-text" transform="translate(359.56 67.22)">9999€</text><circle class="cls-3 severity-low" cx="337.47" cy="62.93" r="9.1"/><circle class="cls-5 severity-high" cx="337.47" cy="62.93" r="9.1"/><circle class="cls-8 severity-none" cx="337.47" cy="62.93" r="9.1"/><g class="severity-medium"><circle class="cls-2 severity-medium severity-medium" cx="337.47" cy="62.93" r="9.1"/><path class="cls-4 severity-medium" d="M337.47 53.83v18.1c-5 0-9.1-4.1-9.1-9.1s4.1-9 9.1-9Z"/></g></g><g id="damage-pill_mirror_right"><circle class="cls-6 damage-pill-background" cx="443.04" cy="84.16" r="19.13"/><circle class="cls-3 severity-low" cx="443.04" cy="84.16" r="9.1"/><circle class="cls-5 severity-high" cx="443.04" cy="84.16" r="9.1"/><circle class="cls-8 severity-none" cx="443.04" cy="84.16" r="9.1"/><g class="severity-medium"><circle class="cls-2 severity-medium severity-medium" cx="443.04" cy="84.16" r="9.1"/><path class="cls-4 severity-medium" d="M443.04 75.06v18.1c-5 0-9.1-4.1-9.1-9.1s4.1-9 9.1-9Z"/></g></g><g id="damage-pill-pricing_mirror_right"><path class="cls-6 damage-pill-background" d="M498.03 103.3h-54.98c-10.56 0-19.13-8.58-19.13-19.13 0-10.56 8.58-19.13 19.13-19.13h54.98c10.56 0 19.13 8.58 19.13 19.13 0 10.56-8.58 19.13-19.13 19.13Z"/><text class="cls-7 damage-pill-text" transform="translate(465.13 88.45)">9999€</text><circle class="cls-3 severity-low" cx="443.04" cy="84.16" r="9.1"/><circle class="cls-5 severity-high" cx="443.04" cy="84.16" r="9.1"/><circle class="cls-8 severity-none" cx="443.04" cy="84.16" r="9.1"/><g class="severity-medium"><circle class="cls-2 severity-medium severity-medium" cx="443.04" cy="84.16" r="9.1"/><path class="cls-4 severity-medium" d="M443.04 75.06v18.1c-5 0-9.1-4.1-9.1-9.1s4.1-9 9.1-9Z"/></g></g><g id="damage-pill_door_front_right"><circle class="cls-6 damage-pill-background" cx="415.65" cy="125.76" r="19.13"/><circle class="cls-3 severity-low" cx="415.65" cy="125.76" r="9.1"/><circle class="cls-5 severity-high" cx="415.65" cy="125.76" r="9.1"/><circle class="cls-8 severity-none" cx="415.65" cy="125.76" r="9.1"/><g class="severity-medium"><circle class="cls-2 severity-medium severity-medium" cx="415.65" cy="125.76" r="9.1"/><path class="cls-4 severity-medium" d="M415.65 116.66v18.1c-5 0-9.1-4.1-9.1-9.1s4.1-9 9.1-9Z"/></g></g><g id="damage-pill-pricing_door_front_right"><path class="cls-6 damage-pill-background" d="M470.64 144.89h-54.98c-10.56 0-19.13-8.58-19.13-19.13 0-10.56 8.58-19.13 19.13-19.13h54.98c10.56 0 19.13 8.58 19.13 19.13 0 10.56-8.58 19.13-19.13 19.13Z"/><text class="cls-7 damage-pill-text" transform="translate(437.74 130.04)">9999€</text><circle class="cls-3 severity-low" cx="415.65" cy="125.76" r="9.1"/><circle class="cls-5 severity-high" cx="415.65" cy="125.76" r="9.1"/><circle class="cls-8 severity-none" cx="415.65" cy="125.76" r="9.1"/><g class="severity-medium"><circle class="cls-2 severity-medium severity-medium" cx="415.65" cy="125.76" r="9.1"/><path class="cls-4 severity-medium" d="M415.65 116.66v18.1c-5 0-9.1-4.1-9.1-9.1s4.1-9 9.1-9Z"/></g></g><g id="damage-pill_door_back_right"><circle class="cls-6 damage-pill-background" cx="352.28" cy="134.82" r="19.13"/><circle class="cls-3 severity-low" cx="352.28" cy="134.82" r="9.1"/><circle class="cls-5 severity-high" cx="352.28" cy="134.82" r="9.1"/><circle class="cls-8 severity-none" cx="352.28" cy="134.82" r="9.1"/><g class="severity-medium"><circle class="cls-2 severity-medium severity-medium" cx="352.28" cy="134.82" r="9.1"/><path class="cls-4 severity-medium" d="M352.28 125.72v18.1c-5 0-9.1-4.1-9.1-9.1s4.1-9 9.1-9Z"/></g></g><g id="damage-pill-pricing_door_back_right"><path class="cls-6 damage-pill-background" d="M407.26 153.95h-54.98c-10.56 0-19.13-8.58-19.13-19.13 0-10.56 8.58-19.13 19.13-19.13h54.98c10.56 0 19.13 8.58 19.13 19.13 0 10.56-8.58 19.13-19.13 19.13Z"/><text class="cls-7 damage-pill-text" transform="translate(374.37 139.1)">9999€</text><circle class="cls-3 severity-low" cx="352.28" cy="134.82" r="9.1"/><circle class="cls-5 severity-high" cx="352.28" cy="134.82" r="9.1"/><circle class="cls-8 severity-none" cx="352.28" cy="134.82" r="9.1"/><g class="severity-medium"><circle class="cls-2 severity-medium severity-medium" cx="352.28" cy="134.82" r="9.1"/><path class="cls-4 severity-medium" d="M352.28 125.72v18.1c-5 0-9.1-4.1-9.1-9.1s4.1-9 9.1-9Z"/></g></g><g id="damage-pill_rocker_panel_right"><circle class="cls-6 damage-pill-background" cx="387.71" cy="193.76" r="19.13"/><circle class="cls-3 severity-low" cx="387.71" cy="193.76" r="9.1"/><circle class="cls-5 severity-high" cx="387.71" cy="193.76" r="9.1"/><circle class="cls-8 severity-none" cx="387.71" cy="193.76" r="9.1"/><g class="severity-medium"><circle class="cls-2 severity-medium severity-medium" cx="387.71" cy="193.76" r="9.1"/><path class="cls-4 severity-medium" d="M387.71 184.66v18.1c-5 0-9.1-4.1-9.1-9.1s4.1-9 9.1-9Z"/></g></g><g id="damage-pill-pricing_rocker_panel_right"><path class="cls-6 damage-pill-background" d="M442.69 212.89h-54.98c-10.56 0-19.13-8.58-19.13-19.13 0-10.56 8.58-19.13 19.13-19.13h54.98c10.56 0 19.13 8.58 19.13 19.13 0 10.56-8.58 19.13-19.13 19.13Z"/><text class="cls-7 damage-pill-text" transform="translate(409.79 198.04)">9999€</text><circle class="cls-3 severity-low" cx="387.71" cy="193.76" r="9.1"/><circle class="cls-5 severity-high" cx="387.71" cy="193.76" r="9.1"/><circle class="cls-8 severity-none" cx="387.71" cy="193.76" r="9.1"/><g class="severity-medium"><circle class="cls-2 severity-medium severity-medium" cx="387.71" cy="193.76" r="9.1"/><path class="cls-4 severity-medium" d="M387.71 184.66v18.1c-5 0-9.1-4.1-9.1-9.1s4.1-9 9.1-9Z"/></g></g><g id="damage-pill_windshield_back"><circle class="cls-6 damage-pill-background" cx="94.5" cy="71.72" r="19.13"/><circle class="cls-3 severity-low" cx="94.5" cy="71.72" r="9.1"/><circle class="cls-5 severity-high" cx="94.5" cy="71.72" r="9.1"/><circle class="cls-8 severity-none" cx="94.5" cy="71.72" r="9.1"/><g class="severity-medium"><circle class="cls-2 severity-medium severity-medium" cx="94.5" cy="71.72" r="9.1"/><path class="cls-4 severity-medium" d="M94.5 62.62v18.1c-5 0-9.1-4.1-9.1-9.1s4.1-9 9.1-9Z"/></g></g><g id="damage-pill-pricing_windshield_back"><path class="cls-6 damage-pill-background" d="M149.48 90.86H94.5c-10.56 0-19.13-8.58-19.13-19.13 0-10.56 8.58-19.13 19.13-19.13h54.98c10.56 0 19.13 8.58 19.13 19.13 0 10.56-8.58 19.13-19.13 19.13Z"/><text class="cls-7 damage-pill-text" transform="translate(116.58 76.01)">9999€</text><circle class="cls-3 severity-low" cx="94.5" cy="71.72" r="9.1"/><circle class="cls-5 severity-high" cx="94.5" cy="71.72" r="9.1"/><circle class="cls-8 severity-none" cx="94.5" cy="71.72" r="9.1"/><g class="severity-medium"><circle class="cls-2 severity-medium severity-medium" cx="94.5" cy="71.72" r="9.1"/><path class="cls-4 severity-medium" d="M94.5 62.62v18.1c-5 0-9.1-4.1-9.1-9.1s4.1-9 9.1-9Z"/></g></g><g id="damage-pill_roof"><circle class="cls-6 damage-pill-background" cx="269.09" cy="20.13" r="19.13"/><circle class="cls-3 severity-low" cx="269.09" cy="20.13" r="9.1"/><circle class="cls-5 severity-high" cx="269.09" cy="20.13" r="9.1"/><circle class="cls-8 severity-none" cx="269.09" cy="20.13" r="9.1"/><g class="severity-medium"><circle class="cls-2 severity-medium severity-medium" cx="269.09" cy="20.13" r="9.1"/><path class="cls-4 severity-medium" d="M269.09 11.03v18.1c-5 0-9.1-4.1-9.1-9.1s4.1-9 9.1-9Z"/></g></g><g id="damage-pill-pricing_roof"><path class="cls-6 damage-pill-background" d="M324.07 39.27h-54.98c-10.56 0-19.13-8.58-19.13-19.13 0-10.56 8.58-19.13 19.13-19.13h54.98c10.56 0 19.13 8.58 19.13 19.13 0 10.56-8.58 19.13-19.13 19.13Z"/><text class="cls-7 damage-pill-text" transform="translate(291.17 24.42)">9999€</text><circle class="cls-3 severity-low" cx="269.09" cy="20.13" r="9.1"/><circle class="cls-5 severity-high" cx="269.09" cy="20.13" r="9.1"/><circle class="cls-8 severity-none" cx="269.09" cy="20.13" r="9.1"/><g class="severity-medium"><circle class="cls-2 severity-medium severity-medium" cx="269.09" cy="20.13" r="9.1"/><path class="cls-4 severity-medium" d="M269.09 11.03v18.1c-5 0-9.1-4.1-9.1-9.1s4.1-9 9.1-9Z"/></g></g><g id="damage-pill_fender_back_right"><circle class="cls-6 damage-pill-background" cx="262.6" cy="146.01" r="19.13"/><circle class="cls-3 severity-low" cx="262.6" cy="146.01" r="9.1"/><circle class="cls-5 severity-high" cx="262.6" cy="146.01" r="9.1"/><circle class="cls-8 severity-none" cx="262.6" cy="146.01" r="9.1"/><g class="severity-medium"><circle class="cls-2 severity-medium severity-medium" cx="262.6" cy="146.01" r="9.1"/><path class="cls-4 severity-medium" d="M262.6 136.91v18.1c-5 0-9.1-4.1-9.1-9.1s4.1-9 9.1-9Z"/></g></g><g id="damage-pill-pricing_fender_back_right"><path class="cls-6 damage-pill-background" d="M317.59 165.15h-54.98c-10.56 0-19.13-8.58-19.13-19.13 0-10.56 8.58-19.13 19.13-19.13h54.98c10.56 0 19.13 8.58 19.13 19.13 0 10.56-8.58 19.13-19.13 19.13Z"/><text class="cls-7 damage-pill-text" transform="translate(284.69 150.3)">9999€</text><circle class="cls-3 severity-low" cx="262.6" cy="146.01" r="9.1"/><circle class="cls-5 severity-high" cx="262.6" cy="146.01" r="9.1"/><circle class="cls-8 severity-none" cx="262.6" cy="146.01" r="9.1"/><g class="severity-medium"><circle class="cls-2 severity-medium severity-medium" cx="262.6" cy="146.01" r="9.1"/><path class="cls-4 severity-medium" d="M262.6 136.91v18.1c-5 0-9.1-4.1-9.1-9.1s4.1-9 9.1-9Z"/></g></g><g id="damage-pill_wheel_back_right"><circle class="cls-6 damage-pill-background" cx="281.38" cy="265.87" r="19.13"/><circle class="cls-3 severity-low" cx="281.38" cy="265.87" r="9.1"/><circle class="cls-5 severity-high" cx="281.38" cy="265.87" r="9.1"/><circle class="cls-8 severity-none" cx="281.38" cy="265.87" r="9.1"/><g class="severity-medium"><circle class="cls-2 severity-medium severity-medium" cx="281.38" cy="265.87" r="9.1"/><path class="cls-4 severity-medium" d="M281.38 256.77v18.1c-5 0-9.1-4.1-9.1-9.1s4.1-9 9.1-9Z"/></g></g><g id="damage-pill-pricing_wheel_back_right"><path class="cls-6 damage-pill-background" d="M336.36 285h-54.98c-10.56 0-19.13-8.58-19.13-19.13 0-10.56 8.58-19.13 19.13-19.13h54.98c10.56 0 19.13 8.58 19.13 19.13 0 10.56-8.58 19.13-19.13 19.13Z"/><text class="cls-7 damage-pill-text" transform="translate(303.46 270.15)">9999€</text><circle class="cls-3 severity-low" cx="281.38" cy="265.87" r="9.1"/><circle class="cls-5 severity-high" cx="281.38" cy="265.87" r="9.1"/><circle class="cls-8 severity-none" cx="281.38" cy="265.87" r="9.1"/><g class="severity-medium"><circle class="cls-2 severity-medium severity-medium" cx="281.38" cy="265.87" r="9.1"/><path class="cls-4 severity-medium" d="M281.38 256.77v18.1c-5 0-9.1-4.1-9.1-9.1s4.1-9 9.1-9Z"/></g></g><g id="damage-pill_quarter_window_back_right"><circle class="cls-6 damage-pill-background" cx="266.38" cy="62.98" r="19.13"/><circle class="cls-3 severity-low" cx="266.38" cy="62.98" r="9.1"/><circle class="cls-5 severity-high" cx="266.38" cy="62.98" r="9.1"/><circle class="cls-8 severity-none" cx="266.38" cy="62.98" r="9.1"/><g class="severity-medium"><circle class="cls-2 severity-medium severity-medium" cx="266.38" cy="62.98" r="9.1"/><path class="cls-4 severity-medium" d="M266.38 53.88v18.1c-5 0-9.1-4.1-9.1-9.1s4.1-9 9.1-9Z"/></g></g><g id="damage-pill-pricing_quarter_window_back_right"><path class="cls-6 damage-pill-background" d="M321.36 82.12h-54.98c-10.56 0-19.13-8.58-19.13-19.13 0-10.56 8.58-19.13 19.13-19.13h54.98c10.56 0 19.13 8.58 19.13 19.13 0 10.56-8.58 19.13-19.13 19.13Z"/><text class="cls-7 damage-pill-text" transform="translate(288.47 67.27)">9999€</text><circle class="cls-3 severity-low" cx="266.38" cy="62.98" r="9.1"/><circle class="cls-5 severity-high" cx="266.38" cy="62.98" r="9.1"/><circle class="cls-8 severity-none" cx="266.38" cy="62.98" r="9.1"/><g class="severity-medium"><circle class="cls-2 severity-medium severity-medium" cx="266.38" cy="62.98" r="9.1"/><path class="cls-4 severity-medium" d="M266.38 53.88v18.1c-5 0-9.1-4.1-9.1-9.1s4.1-9 9.1-9Z"/></g></g><g id="damage-pill_trunk"><circle class="cls-6 damage-pill-background" cx="36" cy="131.29" r="19.13"/><circle class="cls-3 severity-low" cx="36" cy="131.29" r="9.1"/><circle class="cls-5 severity-high" cx="36" cy="131.29" r="9.1"/><circle class="cls-8 severity-none" cx="36" cy="131.29" r="9.1"/><g class="severity-medium"><circle class="cls-2 severity-medium severity-medium" cx="36" cy="131.29" r="9.1"/><path class="cls-4 severity-medium" d="M36 122.19v18.1c-5 0-9.1-4.1-9.1-9.1s4.1-9 9.1-9Z"/></g></g><g id="damage-pill-pricing_trunk"><path class="cls-6 damage-pill-background" d="M90.99 150.42H36.01c-10.56 0-19.13-8.58-19.13-19.13 0-10.56 8.58-19.13 19.13-19.13h54.98c10.56 0 19.13 8.58 19.13 19.13 0 10.56-8.58 19.13-19.13 19.13Z"/><text class="cls-7 damage-pill-text" transform="translate(58.09 135.57)">9999€</text><circle class="cls-3 severity-low" cx="36" cy="131.29" r="9.1"/><circle class="cls-5 severity-high" cx="36" cy="131.29" r="9.1"/><circle class="cls-8 severity-none" cx="36" cy="131.29" r="9.1"/><g class="severity-medium"><circle class="cls-2 severity-medium severity-medium" cx="36" cy="131.29" r="9.1"/><path class="cls-4 severity-medium" d="M36 122.19v18.1c-5 0-9.1-4.1-9.1-9.1s4.1-9 9.1-9Z"/></g></g></svg>
