<svg xmlns="http://www.w3.org/2000/svg" viewBox="0 0 538.12 331.97"><defs><style>.cls-1{stroke:#fff;stroke-linecap:round;stroke-linejoin:round}.cls-1,.cls-2,.cls-3{fill:none}.cls-4{fill:#e1a25b}.cls-5{fill:#f49796;stroke:#f49796}.cls-2,.cls-3,.cls-5,.cls-6{stroke-miterlimit:10;stroke-width:2px}.cls-6{fill:#31333e;stroke:#595e72}.cls-2{stroke:#e1a25b}.cls-3{stroke:#62b0ef}.cls-7{font-family:sans-serif;font-size:13px;isolation:isolate}.cls-7,.cls-8{fill:#fff}</style></defs><path id="fender_front_right" class="cls-1 car-part selectable" d="M152.97 220.77c1.1 7.7 2.1 13.5 2.5 16.6v.1c7 4.9 11.5 7.7 11.5 7.1 0 0 0-.1-.1-.2-3.2-5.2-12.4-33.1 0-51.3 6.3-9.2 17.6-7.7 29.9-.3 11.9 7.2 24.8 19.9 34.7 33.7 2.6 3.6 5 7.2 7.2 10.9l28.8-31.6c-15.6-14.5-32.9-41.5-29.1-46.7l.3-.3h0c-10-4.2-51-19.1-59-27.7-3-12.4-3.2-18.2 3.6-19.4-4.4-2.3-8.5-5.1-12.2-8.3h0l-19.6 11h0c1.6 5 2.5 8.6 2.1 10.1-8.8 29-4.1 71.8-.6 96.3h0Z"/><path id="rocker_panel_right" class="cls-1 car-part selectable" d="m87.37 177.77 65.6 42.9c1.1 7.7 2.1 13.5 2.5 16.6v.1c-15.9-10.9-44.8-32.1-65.1-47.3-5.8-4.4-11-8.2-14.9-11.2-4.6-3.5-7.5-5.8-8-6.3-2.5-2.8-5.8-7.3-9.2-13.8l29.1 19h0Z"/><g id="door_back_right" class="car-part selectable"><path class="cls-1" d="M44.87 69.37h0c1.3 1.3 2.8 2.7 4.7 3.9 7.7 5 18.6 10.9 30.3 16.8v.2c-12 8.9-3.4 43.7 7.5 87.5l-29.1-19.1h0c-.5-.9-1-1.9-1.5-2.9-3.8-7.4-11.4-29-18.4-38.5-.6-.8-1.2-1.5-1.8-2.1-.7-.7-1.4-1.4-2.1-2h0c-6.2-23.7 10.4-43.8 10.4-43.8Zm-9.1 23.2c.3 1.2 9.1 5.2 9.8 4.7.7-.4.7-1.9.4-2.9-.2-1-1.7-1.7-1.7-1.7l-4.5-2.4c-.6-.3-2.8.1-3.5 0-.8 0-.9 1-.5 2.3h0Z"/><path id="handle_back_right" class="cls-1 car-part" d="M35.77 92.57c.3 1.2 9.1 5.2 9.8 4.7.7-.4.7-1.9.4-2.9-.2-1-1.7-1.7-1.7-1.7l-4.5-2.4c-.6-.3-2.8.1-3.5 0-.8 0-.9 1-.5 2.3h0Z"/></g><path class="cls-1 background" d="M27.07 115.17c.5 5.4 2.2 12 2.3 13.4h.2c-.3-4.1-.1-6.7 3.1-8.8 2.2-1.5 4.5-2.3 5.7-2.6-.6-.8-1.2-1.5-1.8-2.1-.7-.7-1.4-1.4-2.1-2-3.5-2.6-7.5-3.7-7.4 2.1h0Z"/><path id="fender_back_right" class="cls-1 car-part selectable" d="M22.57 94.07c1.1 14.1 4.1 30.8 6.8 34.8v-.2h0c-.1-1.4-1.8-8-2.3-13.4-.1-5.8 3.9-4.7 7.4-2h0c-6.2-23.7 10.4-43.8 10.4-43.8v-.1c-4.8-5.3-6-11.4-5.5-13.9 3.4-9.1 7.8-15.9 14.6-20.9l-.1-.1h-9c-7.1 8.3-15.6 25.4-19.9 35.3.5 2.8.8 6.2.7 8.4-.2 2.6-2.9 15.2-3.1 15.9h0Z"/><path id="tail_light_right" class="cls-1 car-part selectable" d="M22.57 94.07h0c.2-.7 2.9-13.3 3.1-16 .1-2.2-.2-5.6-.7-8.4-.8 1.8-1.4 3.3-1.9 4.5-1.2 3.1-1.2 11-.5 19.9Z"/><path id="bumper_front" class="cls-1 car-part selectable" d="M267.47 205.67c36 19.4 113.5 19.6 121.3 18.4 7.8-1.2 14.9-5.2 14.4-7.8-1.7-5.2-22.6-18.9-28.5-22.7 28.5-7.7 95-35 91.2-53.5h0c8 7.4 15.6 16.6 21.9 27.8.2.4.3.9.4 1.6-9.6 39.1-47.2 50-61.1 59.8-2.5 1.8-26.8 18.4-30 25.3.9 6.9 16.5 19 28.1 17.6 3-.1 8.1-2.7 14-7.1h.2l-3.2 15.6s18.2-13.8 29-30.9c.2.2 0 1 0 1-3 7.3-5.6 12.1-7.4 14.6-15.3 21.7-54.1 59.6-106.4 65.3-44.3 4.8-81.2-13.3-84.7-19.6-.3-1.2-.6-2.4-1-3.7-4.7-17.8-11.1-44-27-70.1l28.8-31.6h0Zm42.5 91.4c4.4.6 14.8-25.3 3.5-40.2-2.7-.7-12.2-1.6-14.3 1.3-3.8 6.5 7.4 35.9 10.8 38.9h0Z"/><path id="grill_radiator" class="cls-1 car-part selectable" d="M397.07 254.57c.9 6.9 16.5 19 28.1 17.6 3-.1 8.1-2.7 14-7.1h.2l.5-2.6c23.2-15.1 32.5-34.5 33.9-37.6 7.9-22.6 15.4-47.6 14.4-55.4-9.6 39.1-47.2 50-61.1 59.8-2.5 1.8-26.8 18.4-30 25.3h0Z"/><path class="cls-1 background" d="M260.97 33.27c12 5.7 56.9 38.4 71.7 51.8l1.4-2.6c-10.5-6.6-43.2-35-71-49.5-.3-.1-.5-.3-.8-.4-.2-.1-.5-.2-.7-.4l-.6 1.1h0Z"/><path id="hood" class="cls-1 car-part selectable" d="M179.67 130.97c8 8.6 49 23.5 59 27.7h0c7.1-4.2 102.6 15.2 136 34.9 28.5-7.7 95-35 91.2-53.5h0c-17.3-16.2-35.9-24.3-44.5-27.9-12.7-5.2-79.8-25.4-87.3-29.7l-1.4 2.6c3.1 2.8 4.9 4.8 4.8 5.5-.4 4.2-124.2 32.5-154.2 21-6.8 1.2-6.6 7-3.6 19.4h0Z"/><path id="head_light_right" class="cls-1 car-part selectable" d="M267.47 205.67c36 19.4 113.5 19.6 121.3 18.4 7.8-1.2 14.9-5.2 14.4-7.8-1.7-5.2-22.6-18.9-28.5-22.7-33.4-19.7-128.8-39-136-34.9l-.3.3c-3.8 5.2 13.5 32.2 29.1 46.7h0Z"/><path id="mirror_right" class="cls-1 car-part selectable" d="M86.27 99.07c.1-1.4 1.1-2.8 2.9-4.2 4.7-3.7 15-7 29-7.4 9.7.7 17.4 11 17.3 14.4.1 1.2-.1 4.3-.1 4.6l9.2 2.9s0 3.6-2.2 4.7c-1.9 1-5.2 1-8.6 1.2-.6 0-1.1.1-1.7.2-3.9.4-26.1 2.4-33.7-.9-3.4-1.5-6.3-4.3-8.5-7.1-2.5-3.3-3.9-6.8-3.6-8.4h0Z"/><path class="cls-1 background" d="M166.87 244.27c0 .1.1.1.1.2l1.9-.2c-1.2-10.9-1.5-24.6 2.2-31.5 6.4-11.8 14.7-17.3 25.6-20l.1-.1c-12.3-7.4-23.6-8.9-29.9.3-12.4 18.2-3.2 46.1 0 51.3h0Z"/><g id="wheel_front_right" class="car-part selectable"><path class="cls-1" d="M171.07 212.77c6.4-11.8 14.7-17.3 25.6-20l.1-.1c11.9 7.2 24.8 19.9 34.7 33.7 2.6 3.6 5 7.2 7.2 10.9 15.9 26.1 22.3 52.3 27 70.1h-.1c-1.8 1.8-24.4 18.6-27.7 18.9-15.4 1.2-26.6-5.3-37.3-16.9-21.6-23.5-28.7-45.6-30.5-56.3-.4-2.5-.9-5.5-1.2-8.8-1.2-10.9-1.6-24.6 2.2-31.5h0Zm15.4 35.8c2.5 13.6 10.3 28.1 16.7 36.7 11.3 15.1 23.8 15.1 20.8-4.5-2.5-16.5-11.4-32.4-22.8-43.3-11-10.6-17.4-3.8-14.7 11.1h0Z"/><path class="cls-1" d="M186.47 248.57c2.5 13.6 10.3 28.1 16.7 36.7 11.3 15.1 23.8 15.1 20.8-4.5-2.5-16.5-11.4-32.4-22.8-43.3-11-10.6-17.4-3.8-14.7 11.1h0Z"/></g><g id="wheel_back_right" class="car-part selectable"><path class="cls-1" d="M32.67 119.87c2.2-1.5 4.5-2.3 5.7-2.6 7 9.5 14.6 31.1 18.4 38.5.5 1 1 2 1.5 2.9h0c3.5 6.5 6.7 11 9.2 13.8.5.5 3.4 2.8 8 6.3-.7 2.5-1.6 2.9-2.7 3.5s-15.3 4.6-17.9 4.8-9.4-4.9-14.8-17.3c-2.9-6.7-8.7-23.9-10.2-38.4-.1-1-.2-1.9-.3-2.8-.3-4 0-6.6 3.1-8.7h0Zm2.3 18.1c.6 9.1 4.7 21.6 8.7 29.6 3.4 6.8 6.4 4.2 5.7-1-1.6-12.7-5.3-23-11-31-2.1-2.8-3.6-1.1-3.4 2.4Z"/><path class="cls-1" d="M34.97 137.97c.6 9.1 4.7 21.6 8.7 29.6 3.4 6.8 6.4 4.2 5.7-1-1.6-12.7-5.3-23-11-31-2.1-2.8-3.6-1.1-3.4 2.4Z"/></g><path id="roof" class="cls-1 car-part selectable" d="M59.67 26.07c20-6.5 47.1-8.9 79.2-9 20.3-.1 53.7 1.5 64.8 2.4 28.3 2.2 47.9 6.7 55.4 11.6h0c.8.4 1.6.8 2.3 1.2l-.6 1.1c-29.6-10.2-114-4-135.5-.5-.4.1-.8.1-1.2.2-1.2.2-2.1.4-2.8.6l-8.1 5.6c-1.5-1.9-2.8-3.3-4-4.4-6.3-5.4-14-7.9-21.6-8.5h-.2c-10.1-.8-20.1 1.5-27.1 4.4-.3.1-.6.2-.8.3-2.1 1.1-4 2.2-5.7 3.5l-.1-.1h-9c2.5-2.8 7.4-5.9 15-8.4Z"/><path id="windshield_front" class="cls-1 car-part selectable" d="M121.57 33.57c16.1 23.2 28.4 52.1 49.5 69.7 3.8 3.2 7.8 6 12.2 8.3 30 11.5 153.8-16.8 154.2-21 .1-.7-1.7-2.7-4.8-5.5-14.8-13.4-59.7-46.1-71.7-51.8-29.6-10.2-114-4-135.5-.5-.4.1-.8.1-1.2.2-1.1.2-2.1.4-2.7.6Z"/><path id="fog_light_front_right" class="cls-1 car-part selectable" d="M309.97 297.07c4.4.6 14.8-25.3 3.5-40.2-2.7-.7-12.2-1.6-14.3 1.3-3.8 6.5 7.4 35.9 10.8 38.9h0Z"/><path id="license_plate_front" class="cls-1 car-part selectable" d="M436.17 280.67s18.2-13.8 29-30.9c1.8-2.9 3.5-5.9 4.8-8.9 1.3-3.6 3.9-15.8 4-16.4l-.2.4c-1.4 3.1-10.7 22.4-33.9 37.6l-.5 2.6-3.2 15.6h0Z"/><g id="door_front_right" class="car-part selectable"><path class="cls-1" d="M79.87 90.27v-.2c3 1.5 6 3 9.1 4.5l.2.3c-1.8 1.4-2.8 2.8-2.9 4.2-.3 1.6 1.1 5.1 3.6 8.4 2.1 2.8 5 5.5 8.5 7.1 7.6 3.3 29.8 1.3 33.7.9.6-.1 1.1-.1 1.7-.2v.2c9.6 4.3 16.9 7.6 19.7 8.9-8.7 29.1-4 71.9-.5 96.3l-65.6-42.9c-10.9-43.8-19.5-78.6-7.5-87.5h0Zm12.2 32c.3-.2.2-2.9 0-3.7-.2-.8-2.8-2.5-2.8-2.5l-6.7-3s-1.7-1.2-2.5-1.5c-.7-.3-3.6.7-4.3 1-.8.3-.5 1.7.2 3.1.8 1.4 15.8 6.8 16.1 6.6h0Z"/><path id="handle_front_right" class="cls-1 car-part" d="M75.97 115.67c.8 1.4 15.8 6.8 16.1 6.6.3-.2.2-2.9 0-3.7-.2-.8-2.8-2.5-2.8-2.5l-6.7-3s-1.7-1.2-2.5-1.5c-.7-.3-3.6.7-4.3 1-.8.3-.5 1.7.2 3.1h0Z"/></g><path id="quarter_window_back_right" class="cls-1 car-part selectable" d="M44.87 69.27c1.8-7.8 10.4-31.3 15.7-38.5l-.1-.2c-.3.1-.6.2-.8.3-10.2 5.2-16 13-20.3 24.4-.5 2.7.7 8.8 5.5 14Z"/><path id="window_back_right" class="cls-1 car-part selectable" d="M44.87 69.27c1.3 1.4 2.8 2.8 4.7 4 7.7 5 18.6 10.9 30.3 16.8-.7-20.4 1.3-48.9 7.5-62.5l.3-.6v-.7c-10.1-.8-20.1 1.5-27.1 4.4l.1.2c-5.4 7.1-14 30.7-15.8 38.4h0Z"/><path id="pillar" class="cls-1 car-part selectable" d="M113.47 39.17c12 15.3 31.4 55.7 37.9 75.1l19.6-11h0c-21.1-17.6-33.3-46.5-49.5-69.7.1 0-8 5.6-8 5.6Z"/><path id="window_front_right" class="cls-1 car-part selectable" d="M79.87 90.07c3 1.5 6 3 9.1 4.5l.2.3c4.7-3.7 15-7 29-7.4 9.7.7 17.4 11 17.3 14.4.1 1.2-.1 4.3-.1 4.6l9.2 2.9s0 3.6-2.2 4.7c-1.9 1-5.2 1-8.6 1.2v.2c9.6 4.3 16.9 7.6 19.7 8.9.4-1.5-.4-5.1-2.1-10.1h0c-6.5-19.5-25.9-59.8-37.9-75.1-1.5-1.9-2.8-3.3-4-4.4-6.3-5.4-14-7.9-21.6-8.5h-.2v.7l-.3.6c-6.2 13.6-8.2 42.1-7.5 62.5h0Z"/><g id="damage-pill_hood"><circle class="cls-6 damage-pill-background" cx="364.97" cy="129.8" r="19.13"/><circle class="cls-3 severity-low" cx="364.97" cy="129.8" r="9.1"/><circle class="cls-5 severity-high" cx="364.97" cy="129.8" r="9.1"/><circle class="cls-8 severity-none" cx="364.97" cy="129.8" r="9.1"/><g class="severity-medium"><circle class="cls-2 severity-medium severity-medium" cx="364.97" cy="129.8" r="9.1"/><path class="cls-4 severity-medium" d="M364.97 120.7v18.1c-5 0-9.1-4.1-9.1-9.1s4.1-9 9.1-9Z"/></g></g><g id="damage-pill-pricing_hood"><path class="cls-6 damage-pill-background" d="M419.95 148.93h-54.98c-10.56 0-19.13-8.58-19.13-19.13 0-10.56 8.58-19.13 19.13-19.13h54.98c10.56 0 19.13 8.58 19.13 19.13 0 10.56-8.58 19.13-19.13 19.13Z"/><text class="cls-7 damage-pill-text" transform="translate(387.05 134.08)">9999€</text><circle class="cls-3 severity-low" cx="364.97" cy="129.8" r="9.1"/><circle class="cls-5 severity-high" cx="364.97" cy="129.8" r="9.1"/><circle class="cls-8 severity-none" cx="364.97" cy="129.8" r="9.1"/><g class="severity-medium"><circle class="cls-2 severity-medium severity-medium" cx="364.97" cy="129.8" r="9.1"/><path class="cls-4 severity-medium" d="M364.97 120.7v18.1c-5 0-9.1-4.1-9.1-9.1s4.1-9 9.1-9Z"/></g></g><g id="damage-pill_head_light_right"><circle class="cls-6 damage-pill-background" cx="323.3" cy="196.23" r="19.13"/><circle class="cls-3 severity-low" cx="323.3" cy="196.23" r="9.1"/><circle class="cls-5 severity-high" cx="323.3" cy="196.23" r="9.1"/><circle class="cls-8 severity-none" cx="323.3" cy="196.23" r="9.1"/><g class="severity-medium"><circle class="cls-2 severity-medium severity-medium" cx="323.3" cy="196.23" r="9.1"/><path class="cls-4 severity-medium" d="M323.3 187.13v18.1c-5 0-9.1-4.1-9.1-9.1s4.1-9 9.1-9Z"/></g></g><g id="damage-pill-pricing_head_light_right"><path class="cls-6 damage-pill-background" d="M378.28 215.36H323.3c-10.56 0-19.13-8.58-19.13-19.13 0-10.56 8.58-19.13 19.13-19.13h54.98c10.56 0 19.13 8.58 19.13 19.13 0 10.56-8.58 19.13-19.13 19.13Z"/><text class="cls-7 damage-pill-text" transform="translate(345.38 200.51)">9999€</text><circle class="cls-3 severity-low" cx="323.3" cy="196.23" r="9.1"/><circle class="cls-5 severity-high" cx="323.3" cy="196.23" r="9.1"/><circle class="cls-8 severity-none" cx="323.3" cy="196.23" r="9.1"/><g class="severity-medium"><circle class="cls-2 severity-medium severity-medium" cx="323.3" cy="196.23" r="9.1"/><path class="cls-4 severity-medium" d="M323.3 187.13v18.1c-5 0-9.1-4.1-9.1-9.1s4.1-9 9.1-9Z"/></g></g><g id="damage-pill_bumper_front"><circle class="cls-6 damage-pill-background" cx="457.57" cy="182.22" r="19.13"/><circle class="cls-3 severity-low" cx="457.57" cy="182.22" r="9.1"/><circle class="cls-5 severity-high" cx="457.57" cy="182.22" r="9.1"/><circle class="cls-8 severity-none" cx="457.57" cy="182.22" r="9.1"/><g class="severity-medium"><circle class="cls-2 severity-medium severity-medium" cx="457.57" cy="182.22" r="9.1"/><path class="cls-4 severity-medium" d="M457.57 173.12v18.1c-5 0-9.1-4.1-9.1-9.1s4.1-9 9.1-9Z"/></g></g><g id="damage-pill-pricing_bumper_front"><path class="cls-6 damage-pill-background" d="M512.56 201.35h-54.98c-10.56 0-19.13-8.58-19.13-19.13 0-10.56 8.58-19.13 19.13-19.13h54.98c10.56 0 19.13 8.58 19.13 19.13 0 10.56-8.58 19.13-19.13 19.13Z"/><text class="cls-7 damage-pill-text" transform="translate(479.66 186.5)">9999€</text><circle class="cls-3 severity-low" cx="457.57" cy="182.22" r="9.1"/><circle class="cls-5 severity-high" cx="457.57" cy="182.22" r="9.1"/><circle class="cls-8 severity-none" cx="457.57" cy="182.22" r="9.1"/><g class="severity-medium"><circle class="cls-2 severity-medium severity-medium" cx="457.57" cy="182.22" r="9.1"/><path class="cls-4 severity-medium" d="M457.57 173.12v18.1c-5 0-9.1-4.1-9.1-9.1s4.1-9 9.1-9Z"/></g></g><g id="damage-pill_grill_radiator"><circle class="cls-6 damage-pill-background" cx="463" cy="223.23" r="19.13"/><circle class="cls-3 severity-low" cx="463" cy="223.23" r="9.1"/><circle class="cls-5 severity-high" cx="463" cy="223.23" r="9.1"/><circle class="cls-8 severity-none" cx="463" cy="223.23" r="9.1"/><g class="severity-medium"><circle class="cls-2 severity-medium severity-medium" cx="463" cy="223.23" r="9.1"/><path class="cls-4 severity-medium" d="M463 214.13v18.1c-5 0-9.1-4.1-9.1-9.1s4.1-9 9.1-9Z"/></g></g><g id="damage-pill-pricing_grill_radiator"><path class="cls-6 damage-pill-background" d="M517.99 242.37h-54.98c-10.56 0-19.13-8.58-19.13-19.13 0-10.56 8.58-19.13 19.13-19.13h54.98c10.56 0 19.13 8.58 19.13 19.13 0 10.56-8.58 19.13-19.13 19.13Z"/><text class="cls-7 damage-pill-text" transform="translate(485.09 227.52)">9999€</text><circle class="cls-3 severity-low" cx="463" cy="223.23" r="9.1"/><circle class="cls-5 severity-high" cx="463" cy="223.23" r="9.1"/><circle class="cls-8 severity-none" cx="463" cy="223.23" r="9.1"/><g class="severity-medium"><circle class="cls-2 severity-medium severity-medium" cx="463" cy="223.23" r="9.1"/><path class="cls-4 severity-medium" d="M463 214.13v18.1c-5 0-9.1-4.1-9.1-9.1s4.1-9 9.1-9Z"/></g></g><g id="damage-pill_license_plate_front"><circle class="cls-6 damage-pill-background" cx="453.21" cy="264.25" r="19.13"/><circle class="cls-3 severity-low" cx="453.21" cy="264.25" r="9.1"/><circle class="cls-5 severity-high" cx="453.21" cy="264.25" r="9.1"/><circle class="cls-8 severity-none" cx="453.21" cy="264.25" r="9.1"/><g class="severity-medium"><circle class="cls-2 severity-medium severity-medium" cx="453.21" cy="264.25" r="9.1"/><path class="cls-4 severity-medium" d="M453.21 255.15v18.1c-5 0-9.1-4.1-9.1-9.1s4.1-9 9.1-9Z"/></g></g><g id="damage-pill-pricing_license_plate_front"><path class="cls-6 damage-pill-background" d="M508.19 283.38h-54.98c-10.56 0-19.13-8.58-19.13-19.13 0-10.56 8.58-19.13 19.13-19.13h54.98c10.56 0 19.13 8.58 19.13 19.13 0 10.56-8.58 19.13-19.13 19.13Z"/><text class="cls-7 damage-pill-text" transform="translate(475.29 268.53)">9999€</text><circle class="cls-3 severity-low" cx="453.21" cy="264.25" r="9.1"/><circle class="cls-5 severity-high" cx="453.21" cy="264.25" r="9.1"/><circle class="cls-8 severity-none" cx="453.21" cy="264.25" r="9.1"/><g class="severity-medium"><circle class="cls-2 severity-medium severity-medium" cx="453.21" cy="264.25" r="9.1"/><path class="cls-4 severity-medium" d="M453.21 255.15v18.1c-5 0-9.1-4.1-9.1-9.1s4.1-9 9.1-9Z"/></g></g><g id="damage-pill_fog_light_front_right"><circle class="cls-6 damage-pill-background" cx="314.94" cy="273.3" r="19.13"/><circle class="cls-3 severity-low" cx="314.94" cy="273.3" r="9.1"/><circle class="cls-5 severity-high" cx="314.94" cy="273.3" r="9.1"/><circle class="cls-8 severity-none" cx="314.94" cy="273.3" r="9.1"/><g class="severity-medium"><circle class="cls-2 severity-medium severity-medium" cx="314.94" cy="273.3" r="9.1"/><path class="cls-4 severity-medium" d="M314.94 264.2v18.1c-5 0-9.1-4.1-9.1-9.1s4.1-9 9.1-9Z"/></g></g><g id="damage-pill-pricing_fog_light_front_right"><path class="cls-6 damage-pill-background" d="M369.92 292.44h-54.98c-10.56 0-19.13-8.58-19.13-19.13 0-10.56 8.58-19.13 19.13-19.13h54.98c10.56 0 19.13 8.58 19.13 19.13 0 10.56-8.58 19.13-19.13 19.13Z"/><text class="cls-7 damage-pill-text" transform="translate(337.02 277.59)">9999€</text><circle class="cls-3 severity-low" cx="314.94" cy="273.3" r="9.1"/><circle class="cls-5 severity-high" cx="314.94" cy="273.3" r="9.1"/><circle class="cls-8 severity-none" cx="314.94" cy="273.3" r="9.1"/><g class="severity-medium"><circle class="cls-2 severity-medium severity-medium" cx="314.94" cy="273.3" r="9.1"/><path class="cls-4 severity-medium" d="M314.94 264.2v18.1c-5 0-9.1-4.1-9.1-9.1s4.1-9 9.1-9Z"/></g></g><g id="damage-pill_wheel_front_right"><circle class="cls-6 damage-pill-background" cx="213.35" cy="264.2" r="19.13"/><circle class="cls-3 severity-low" cx="213.35" cy="264.2" r="9.1"/><circle class="cls-5 severity-high" cx="213.35" cy="264.2" r="9.1"/><circle class="cls-8 severity-none" cx="213.35" cy="264.2" r="9.1"/><g class="severity-medium"><circle class="cls-2 severity-medium severity-medium" cx="213.35" cy="264.2" r="9.1"/><path class="cls-4 severity-medium" d="M213.35 255.1v18.1c-5 0-9.1-4.1-9.1-9.1s4.1-9 9.1-9Z"/></g></g><g id="damage-pill-pricing_wheel_front_right"><path class="cls-6 damage-pill-background" d="M268.33 283.34h-54.98c-10.56 0-19.13-8.58-19.13-19.13 0-10.56 8.58-19.13 19.13-19.13h54.98c10.56 0 19.13 8.58 19.13 19.13 0 10.56-8.58 19.13-19.13 19.13Z"/><text class="cls-7 damage-pill-text" transform="translate(235.43 268.49)">9999€</text><circle class="cls-3 severity-low" cx="213.35" cy="264.2" r="9.1"/><circle class="cls-5 severity-high" cx="213.35" cy="264.2" r="9.1"/><circle class="cls-8 severity-none" cx="213.35" cy="264.2" r="9.1"/><g class="severity-medium"><circle class="cls-2 severity-medium severity-medium" cx="213.35" cy="264.2" r="9.1"/><path class="cls-4 severity-medium" d="M213.35 255.1v18.1c-5 0-9.1-4.1-9.1-9.1s4.1-9 9.1-9Z"/></g></g><g id="damage-pill_fender_front_right"><circle class="cls-6 damage-pill-background" cx="206.17" cy="166.74" r="19.13"/><circle class="cls-3 severity-low" cx="206.17" cy="166.74" r="9.1"/><circle class="cls-5 severity-high" cx="206.17" cy="166.74" r="9.1"/><circle class="cls-8 severity-none" cx="206.17" cy="166.74" r="9.1"/><g class="severity-medium"><circle class="cls-2 severity-medium severity-medium" cx="206.17" cy="166.74" r="9.1"/><path class="cls-4 severity-medium" d="M206.17 157.64v18.1c-5 0-9.1-4.1-9.1-9.1s4.1-9 9.1-9Z"/></g></g><g id="damage-pill-pricing_fender_front_right"><path class="cls-6 damage-pill-background" d="M261.15 185.87h-54.98c-10.56 0-19.13-8.58-19.13-19.13 0-10.56 8.58-19.13 19.13-19.13h54.98c10.56 0 19.13 8.58 19.13 19.13 0 10.56-8.58 19.13-19.13 19.13Z"/><text class="cls-7 damage-pill-text" transform="translate(228.25 171.02)">9999€</text><circle class="cls-3 severity-low" cx="206.17" cy="166.74" r="9.1"/><circle class="cls-5 severity-high" cx="206.17" cy="166.74" r="9.1"/><circle class="cls-8 severity-none" cx="206.17" cy="166.74" r="9.1"/><g class="severity-medium"><circle class="cls-2 severity-medium severity-medium" cx="206.17" cy="166.74" r="9.1"/><path class="cls-4 severity-medium" d="M206.17 157.64v18.1c-5 0-9.1-4.1-9.1-9.1s4.1-9 9.1-9Z"/></g></g><g id="damage-pill_pillar"><circle class="cls-6 damage-pill-background" cx="136.42" cy="67.61" r="19.13"/><circle class="cls-3 severity-low" cx="136.42" cy="67.61" r="9.1"/><circle class="cls-5 severity-high" cx="136.42" cy="67.61" r="9.1"/><circle class="cls-8 severity-none" cx="136.42" cy="67.61" r="9.1"/><g class="severity-medium"><circle class="cls-2 severity-medium severity-medium" cx="136.42" cy="67.61" r="9.1"/><path class="cls-4 severity-medium" d="M136.42 58.51v18.1c-5 0-9.1-4.1-9.1-9.1s4.1-9 9.1-9Z"/></g></g><g id="damage-pill-pricing_pillar"><path class="cls-6 damage-pill-background" d="M191.4 86.74h-54.98c-10.56 0-19.13-8.58-19.13-19.13 0-10.56 8.58-19.13 19.13-19.13h54.98c10.56 0 19.13 8.58 19.13 19.13 0 10.56-8.58 19.13-19.13 19.13Z"/><text class="cls-7 damage-pill-text" transform="translate(158.51 71.89)">9999€</text><circle class="cls-3 severity-low" cx="136.42" cy="67.61" r="9.1"/><circle class="cls-5 severity-high" cx="136.42" cy="67.61" r="9.1"/><circle class="cls-8 severity-none" cx="136.42" cy="67.61" r="9.1"/><g class="severity-medium"><circle class="cls-2 severity-medium severity-medium" cx="136.42" cy="67.61" r="9.1"/><path class="cls-4 severity-medium" d="M136.42 58.51v18.1c-5 0-9.1-4.1-9.1-9.1s4.1-9 9.1-9Z"/></g></g><g id="damage-pill_window_front_right"><circle class="cls-6 damage-pill-background" cx="99.65" cy="58.09" r="19.13"/><circle class="cls-3 severity-low" cx="99.65" cy="58.09" r="9.1"/><circle class="cls-5 severity-high" cx="99.65" cy="58.09" r="9.1"/><circle class="cls-8 severity-none" cx="99.65" cy="58.09" r="9.1"/><g class="severity-medium"><circle class="cls-2 severity-medium severity-medium" cx="99.65" cy="58.09" r="9.1"/><path class="cls-4 severity-medium" d="M99.65 48.99v18.1c-5 0-9.1-4.1-9.1-9.1s4.1-9 9.1-9Z"/></g></g><g id="damage-pill-pricing_window_front_right"><path class="cls-6 damage-pill-background" d="M154.64 77.22H99.66c-10.56 0-19.13-8.58-19.13-19.13 0-10.56 8.58-19.13 19.13-19.13h54.98c10.56 0 19.13 8.58 19.13 19.13 0 10.56-8.58 19.13-19.13 19.13Z"/><text class="cls-7 damage-pill-text" transform="translate(121.74 62.37)">9999€</text><circle class="cls-3 severity-low" cx="99.65" cy="58.09" r="9.1"/><circle class="cls-5 severity-high" cx="99.65" cy="58.09" r="9.1"/><circle class="cls-8 severity-none" cx="99.65" cy="58.09" r="9.1"/><g class="severity-medium"><circle class="cls-2 severity-medium severity-medium" cx="99.65" cy="58.09" r="9.1"/><path class="cls-4 severity-medium" d="M99.65 48.99v18.1c-5 0-9.1-4.1-9.1-9.1s4.1-9 9.1-9Z"/></g></g><g id="damage-pill_window_back_right"><circle class="cls-6 damage-pill-background" cx="64.64" cy="52.7" r="19.13"/><circle class="cls-3 severity-low" cx="64.64" cy="52.7" r="9.1"/><circle class="cls-5 severity-high" cx="64.64" cy="52.7" r="9.1"/><circle class="cls-8 severity-none" cx="64.64" cy="52.7" r="9.1"/><g class="severity-medium"><circle class="cls-2 severity-medium severity-medium" cx="64.64" cy="52.7" r="9.1"/><path class="cls-4 severity-medium" d="M64.64 43.6v18.1c-5 0-9.1-4.1-9.1-9.1s4.1-9 9.1-9Z"/></g></g><g id="damage-pill-pricing_window_back_right"><path class="cls-6 damage-pill-background" d="M119.63 71.84H64.65c-10.56 0-19.13-8.58-19.13-19.13 0-10.56 8.58-19.13 19.13-19.13h54.98c10.56 0 19.13 8.58 19.13 19.13 0 10.56-8.58 19.13-19.13 19.13Z"/><text class="cls-7 damage-pill-text" transform="translate(86.73 56.99)">9999€</text><circle class="cls-3 severity-low" cx="64.64" cy="52.7" r="9.1"/><circle class="cls-5 severity-high" cx="64.64" cy="52.7" r="9.1"/><circle class="cls-8 severity-none" cx="64.64" cy="52.7" r="9.1"/><g class="severity-medium"><circle class="cls-2 severity-medium severity-medium" cx="64.64" cy="52.7" r="9.1"/><path class="cls-4 severity-medium" d="M64.64 43.6v18.1c-5 0-9.1-4.1-9.1-9.1s4.1-9 9.1-9Z"/></g></g><g id="damage-pill_mirror_right"><circle class="cls-6 damage-pill-background" cx="118.79" cy="101.95" r="19.13"/><circle class="cls-3 severity-low" cx="118.79" cy="101.95" r="9.1"/><circle class="cls-5 severity-high" cx="118.79" cy="101.95" r="9.1"/><circle class="cls-8 severity-none" cx="118.79" cy="101.95" r="9.1"/><g class="severity-medium"><circle class="cls-2 severity-medium severity-medium" cx="118.79" cy="101.95" r="9.1"/><path class="cls-4 severity-medium" d="M118.79 92.85v18.1c-5 0-9.1-4.1-9.1-9.1s4.1-9 9.1-9Z"/></g></g><g id="damage-pill-pricing_mirror_right"><path class="cls-6 damage-pill-background" d="M173.77 121.08h-54.98c-10.56 0-19.13-8.58-19.13-19.13 0-10.56 8.58-19.13 19.13-19.13h54.98c10.56 0 19.13 8.58 19.13 19.13 0 10.56-8.58 19.13-19.13 19.13Z"/><text class="cls-7 damage-pill-text" transform="translate(140.87 106.24)">9999€</text><circle class="cls-3 severity-low" cx="118.79" cy="101.95" r="9.1"/><circle class="cls-5 severity-high" cx="118.79" cy="101.95" r="9.1"/><circle class="cls-8 severity-none" cx="118.79" cy="101.95" r="9.1"/><g class="severity-medium"><circle class="cls-2 severity-medium severity-medium" cx="118.79" cy="101.95" r="9.1"/><path class="cls-4 severity-medium" d="M118.79 92.85v18.1c-5 0-9.1-4.1-9.1-9.1s4.1-9 9.1-9Z"/></g></g><g id="damage-pill_door_front_right"><circle class="cls-6 damage-pill-background" cx="113.72" cy="147.6" r="19.13"/><circle class="cls-3 severity-low" cx="113.72" cy="147.6" r="9.1"/><circle class="cls-5 severity-high" cx="113.72" cy="147.6" r="9.1"/><circle class="cls-8 severity-none" cx="113.72" cy="147.6" r="9.1"/><g class="severity-medium"><circle class="cls-2 severity-medium severity-medium" cx="113.72" cy="147.6" r="9.1"/><path class="cls-4 severity-medium" d="M113.72 138.5v18.1c-5 0-9.1-4.1-9.1-9.1s4.1-9 9.1-9Z"/></g></g><g id="damage-pill-pricing_door_front_right"><path class="cls-6 damage-pill-background" d="M168.71 166.74h-54.98c-10.56 0-19.13-8.58-19.13-19.13 0-10.56 8.58-19.13 19.13-19.13h54.98c10.56 0 19.13 8.58 19.13 19.13 0 10.56-8.58 19.13-19.13 19.13Z"/><text class="cls-7 damage-pill-text" transform="translate(135.81 151.89)">9999€</text><circle class="cls-3 severity-low" cx="113.72" cy="147.6" r="9.1"/><circle class="cls-5 severity-high" cx="113.72" cy="147.6" r="9.1"/><circle class="cls-8 severity-none" cx="113.72" cy="147.6" r="9.1"/><g class="severity-medium"><circle class="cls-2 severity-medium severity-medium" cx="113.72" cy="147.6" r="9.1"/><path class="cls-4 severity-medium" d="M113.72 138.5v18.1c-5 0-9.1-4.1-9.1-9.1s4.1-9 9.1-9Z"/></g></g><g id="damage-pill_door_back_right"><circle class="cls-6 damage-pill-background" cx="51.39" cy="110.95" r="19.13"/><circle class="cls-3 severity-low" cx="51.39" cy="110.95" r="9.1"/><circle class="cls-5 severity-high" cx="51.39" cy="110.95" r="9.1"/><circle class="cls-8 severity-none" cx="51.39" cy="110.95" r="9.1"/><g class="severity-medium"><circle class="cls-2 severity-medium severity-medium" cx="51.39" cy="110.95" r="9.1"/><path class="cls-4 severity-medium" d="M51.39 101.85v18.1c-5 0-9.1-4.1-9.1-9.1s4.1-9 9.1-9Z"/></g></g><g id="damage-pill-pricing_door_back_right"><path class="cls-6 damage-pill-background" d="M106.37 130.08H51.39c-10.56 0-19.13-8.58-19.13-19.13 0-10.56 8.58-19.13 19.13-19.13h54.98c10.56 0 19.13 8.58 19.13 19.13 0 10.56-8.58 19.13-19.13 19.13Z"/><text class="cls-7 damage-pill-text" transform="translate(73.47 115.24)">9999€</text><circle class="cls-3 severity-low" cx="51.39" cy="110.95" r="9.1"/><circle class="cls-5 severity-high" cx="51.39" cy="110.95" r="9.1"/><circle class="cls-8 severity-none" cx="51.39" cy="110.95" r="9.1"/><g class="severity-medium"><circle class="cls-2 severity-medium severity-medium" cx="51.39" cy="110.95" r="9.1"/><path class="cls-4 severity-medium" d="M51.39 101.85v18.1c-5 0-9.1-4.1-9.1-9.1s4.1-9 9.1-9Z"/></g></g><g id="damage-pill_rocker_panel_right"><circle class="cls-6 damage-pill-background" cx="114.86" cy="205.33" r="19.13"/><circle class="cls-3 severity-low" cx="114.86" cy="205.33" r="9.1"/><circle class="cls-5 severity-high" cx="114.86" cy="205.33" r="9.1"/><circle class="cls-8 severity-none" cx="114.86" cy="205.33" r="9.1"/><g class="severity-medium"><circle class="cls-2 severity-medium severity-medium" cx="114.86" cy="205.33" r="9.1"/><path class="cls-4 severity-medium" d="M114.86 196.23v18.1c-5 0-9.1-4.1-9.1-9.1s4.1-9 9.1-9Z"/></g></g><g id="damage-pill-pricing_rocker_panel_right"><path class="cls-6 damage-pill-background" d="M169.85 224.46h-54.98c-10.56 0-19.13-8.58-19.13-19.13 0-10.56 8.58-19.13 19.13-19.13h54.98c10.56 0 19.13 8.58 19.13 19.13 0 10.56-8.58 19.13-19.13 19.13Z"/><text class="cls-7 damage-pill-text" transform="translate(136.95 209.61)">9999€</text><circle class="cls-3 severity-low" cx="114.86" cy="205.33" r="9.1"/><circle class="cls-5 severity-high" cx="114.86" cy="205.33" r="9.1"/><circle class="cls-8 severity-none" cx="114.86" cy="205.33" r="9.1"/><g class="severity-medium"><circle class="cls-2 severity-medium severity-medium" cx="114.86" cy="205.33" r="9.1"/><path class="cls-4 severity-medium" d="M114.86 196.23v18.1c-5 0-9.1-4.1-9.1-9.1s4.1-9 9.1-9Z"/></g></g><g id="damage-pill_windshield_front"><circle class="cls-6 damage-pill-background" cx="257.02" cy="69.27" r="19.13"/><circle class="cls-3 severity-low" cx="257.02" cy="69.27" r="9.1"/><circle class="cls-5 severity-high" cx="257.02" cy="69.27" r="9.1"/><circle class="cls-8 severity-none" cx="257.02" cy="69.27" r="9.1"/><g class="severity-medium"><circle class="cls-2 severity-medium severity-medium" cx="257.02" cy="69.27" r="9.1"/><path class="cls-4 severity-medium" d="M257.02 60.17v18.1c-5 0-9.1-4.1-9.1-9.1s4.1-9 9.1-9Z"/></g></g><g id="damage-pill-pricing_windshield_front"><path class="cls-6 damage-pill-background" d="M312 88.4h-54.98c-10.56 0-19.13-8.58-19.13-19.13 0-10.56 8.58-19.13 19.13-19.13H312c10.56 0 19.13 8.58 19.13 19.13 0 10.56-8.58 19.13-19.13 19.13Z"/><text class="cls-7 damage-pill-text" transform="translate(279.1 73.55)">9999€</text><circle class="cls-3 severity-low" cx="257.02" cy="69.27" r="9.1"/><circle class="cls-5 severity-high" cx="257.02" cy="69.27" r="9.1"/><circle class="cls-8 severity-none" cx="257.02" cy="69.27" r="9.1"/><g class="severity-medium"><circle class="cls-2 severity-medium severity-medium" cx="257.02" cy="69.27" r="9.1"/><path class="cls-4 severity-medium" d="M257.02 60.17v18.1c-5 0-9.1-4.1-9.1-9.1s4.1-9 9.1-9Z"/></g></g><g id="damage-pill_roof"><circle class="cls-6 damage-pill-background" cx="199.94" cy="20.13" r="19.13"/><circle class="cls-3 severity-low" cx="199.94" cy="20.13" r="9.1"/><circle class="cls-5 severity-high" cx="199.94" cy="20.13" r="9.1"/><circle class="cls-8 severity-none" cx="199.94" cy="20.13" r="9.1"/><g class="severity-medium"><circle class="cls-2 severity-medium severity-medium" cx="199.94" cy="20.13" r="9.1"/><path class="cls-4 severity-medium" d="M199.94 11.03v18.1c-5 0-9.1-4.1-9.1-9.1s4.1-9 9.1-9Z"/></g></g><g id="damage-pill-pricing_roof"><path class="cls-6 damage-pill-background" d="M254.92 39.27h-54.98c-10.56 0-19.13-8.58-19.13-19.13 0-10.56 8.58-19.13 19.13-19.13h54.98c10.56 0 19.13 8.58 19.13 19.13 0 10.56-8.58 19.13-19.13 19.13Z"/><text class="cls-7 damage-pill-text" transform="translate(222.03 24.42)">9999€</text><circle class="cls-3 severity-low" cx="199.94" cy="20.13" r="9.1"/><circle class="cls-5 severity-high" cx="199.94" cy="20.13" r="9.1"/><circle class="cls-8 severity-none" cx="199.94" cy="20.13" r="9.1"/><g class="severity-medium"><circle class="cls-2 severity-medium severity-medium" cx="199.94" cy="20.13" r="9.1"/><path class="cls-4 severity-medium" d="M199.94 11.03v18.1c-5 0-9.1-4.1-9.1-9.1s4.1-9 9.1-9Z"/></g></g><g id="damage-pill_fender_back_right"><circle class="cls-6 damage-pill-background" cx="30.79" cy="68.33" r="19.13"/><circle class="cls-3 severity-low" cx="30.79" cy="68.33" r="9.1"/><circle class="cls-5 severity-high" cx="30.79" cy="68.33" r="9.1"/><circle class="cls-8 severity-none" cx="30.79" cy="68.33" r="9.1"/><g class="severity-medium"><circle class="cls-2 severity-medium severity-medium" cx="30.79" cy="68.33" r="9.1"/><path class="cls-4 severity-medium" d="M30.79 59.23v18.1c-5 0-9.1-4.1-9.1-9.1s4.1-9 9.1-9Z"/></g></g><g id="damage-pill-pricing_fender_back_right"><path class="cls-6 damage-pill-background" d="M85.77 87.47H30.79c-10.56 0-19.13-8.58-19.13-19.13 0-10.56 8.58-19.13 19.13-19.13h54.98c10.56 0 19.13 8.58 19.13 19.13 0 10.56-8.58 19.13-19.13 19.13Z"/><text class="cls-7 damage-pill-text" transform="translate(52.87 72.62)">9999€</text><circle class="cls-3 severity-low" cx="30.79" cy="68.33" r="9.1"/><circle class="cls-5 severity-high" cx="30.79" cy="68.33" r="9.1"/><circle class="cls-8 severity-none" cx="30.79" cy="68.33" r="9.1"/><g class="severity-medium"><circle class="cls-2 severity-medium severity-medium" cx="30.79" cy="68.33" r="9.1"/><path class="cls-4 severity-medium" d="M30.79 59.23v18.1c-5 0-9.1-4.1-9.1-9.1s4.1-9 9.1-9Z"/></g></g><g id="damage-pill_wheel_back_right"><circle class="cls-6 damage-pill-background" cx="41.44" cy="152.92" r="19.13"/><circle class="cls-3 severity-low" cx="41.44" cy="152.92" r="9.1"/><circle class="cls-5 severity-high" cx="41.44" cy="152.92" r="9.1"/><circle class="cls-8 severity-none" cx="41.44" cy="152.92" r="9.1"/><g class="severity-medium"><circle class="cls-2 severity-medium severity-medium" cx="41.44" cy="152.92" r="9.1"/><path class="cls-4 severity-medium" d="M41.44 143.82v18.1c-5 0-9.1-4.1-9.1-9.1s4.1-9 9.1-9Z"/></g></g><g id="damage-pill-pricing_wheel_back_right"><path class="cls-6 damage-pill-background" d="M96.42 172.05H41.44c-10.56 0-19.13-8.58-19.13-19.13 0-10.56 8.58-19.13 19.13-19.13h54.98c10.56 0 19.13 8.58 19.13 19.13 0 10.56-8.58 19.13-19.13 19.13Z"/><text class="cls-7 damage-pill-text" transform="translate(63.52 157.2)">9999€</text><circle class="cls-3 severity-low" cx="41.44" cy="152.92" r="9.1"/><circle class="cls-5 severity-high" cx="41.44" cy="152.92" r="9.1"/><circle class="cls-8 severity-none" cx="41.44" cy="152.92" r="9.1"/><g class="severity-medium"><circle class="cls-2 severity-medium severity-medium" cx="41.44" cy="152.92" r="9.1"/><path class="cls-4 severity-medium" d="M41.44 143.82v18.1c-5 0-9.1-4.1-9.1-9.1s4.1-9 9.1-9Z"/></g></g><g id="damage-pill_tail_light_right"><circle class="cls-6 damage-pill-background" cx="20.13" cy="80.47" r="19.13"/><circle class="cls-3 severity-low" cx="20.13" cy="80.47" r="9.1"/><circle class="cls-5 severity-high" cx="20.13" cy="80.47" r="9.1"/><circle class="cls-8 severity-none" cx="20.13" cy="80.47" r="9.1"/><g class="severity-medium"><circle class="cls-2 severity-medium severity-medium" cx="20.13" cy="80.47" r="9.1"/><path class="cls-4 severity-medium" d="M20.13 71.37v18.1c-5 0-9.1-4.1-9.1-9.1s4.1-9 9.1-9Z"/></g></g><g id="damage-pill-pricing_tail_light_right"><path class="cls-6 damage-pill-background" d="M75.12 99.6H20.13C9.57 99.6 1 91.02 1 80.47c0-10.56 8.58-19.13 19.13-19.13h54.98c10.56 0 19.13 8.58 19.13 19.13 0 10.56-8.58 19.13-19.13 19.13Z"/><text class="cls-7 damage-pill-text" transform="translate(42.22 84.75)">9999€</text><circle class="cls-3 severity-low" cx="20.13" cy="80.47" r="9.1"/><circle class="cls-5 severity-high" cx="20.13" cy="80.47" r="9.1"/><circle class="cls-8 severity-none" cx="20.13" cy="80.47" r="9.1"/><g class="severity-medium"><circle class="cls-2 severity-medium severity-medium" cx="20.13" cy="80.47" r="9.1"/><path class="cls-4 severity-medium" d="M20.13 71.37v18.1c-5 0-9.1-4.1-9.1-9.1s4.1-9 9.1-9Z"/></g></g><g id="damage-pill_quarter_window_back_right"><circle class="cls-6 damage-pill-background" cx="47.14" cy="51.85" r="19.13"/><circle class="cls-3 severity-low" cx="47.14" cy="51.85" r="9.1"/><circle class="cls-5 severity-high" cx="47.14" cy="51.85" r="9.1"/><circle class="cls-8 severity-none" cx="47.14" cy="51.85" r="9.1"/><g class="severity-medium"><circle class="cls-2 severity-medium severity-medium" cx="47.14" cy="51.85" r="9.1"/><path class="cls-4 severity-medium" d="M47.14 42.75v18.1c-5 0-9.1-4.1-9.1-9.1s4.1-9 9.1-9Z"/></g></g><g id="damage-pill-pricing_quarter_window_back_right"><path class="cls-6 damage-pill-background" d="M102.12 70.99H47.14c-10.56 0-19.13-8.58-19.13-19.13 0-10.56 8.58-19.13 19.13-19.13h54.98c10.56 0 19.13 8.58 19.13 19.13 0 10.56-8.58 19.13-19.13 19.13Z"/><text class="cls-7 damage-pill-text" transform="translate(69.22 56.14)">9999€</text><circle class="cls-3 severity-low" cx="47.14" cy="51.85" r="9.1"/><circle class="cls-5 severity-high" cx="47.14" cy="51.85" r="9.1"/><circle class="cls-8 severity-none" cx="47.14" cy="51.85" r="9.1"/><g class="severity-medium"><circle class="cls-2 severity-medium severity-medium" cx="47.14" cy="51.85" r="9.1"/><path class="cls-4 severity-medium" d="M47.14 42.75v18.1c-5 0-9.1-4.1-9.1-9.1s4.1-9 9.1-9Z"/></g></g></svg>
