<svg viewBox="0 0 21 9" xmlns="http://www.w3.org/2000/svg"><path d="M10.675 5.934c-.765 0-1.307-.632-1.211-1.41.095-.78.793-1.412 1.558-1.412.44 0 .807.21 1.02.536l1.397-1.435c-.511-.623-1.291-1.012-2.208-1.012-1.787 0-3.417 1.477-3.64 3.298-.225 1.82 1.042 3.297 2.83 3.297.92 0 1.798-.392 2.464-1.02L11.647 5.57a1.537 1.537 0 0 1-.972.364ZM17.857 0h2.51l-4.67 7.507h-2.511L17.855 0Z"/><path d="M7.352 4.939a3.61 3.61 0 0 1 .151-1.062l-.28-2.076-1.6 2.57.13.95H5.03l-.827 1.332h1.729l.115.854h1.946l-.104-.766a3.126 3.126 0 0 1-.537-1.802ZM4.671 1.493h2.511L2.512 9H0l4.671-7.507Zm9.636 0H12.88c.308.18.584.426.84.72l-1.11 1.138.524 3.878 1.599-2.57-.425-3.166Z"/></svg>