<svg viewBox="0 0 24 24" xmlns="http://www.w3.org/2000/svg"><path d="m18.56 8.114.768-1.7 1.7-.768a.486.486 0 0 0 0-.884l-1.7-.768-.767-1.71a.486.486 0 0 0-.884 0l-.768 1.7-1.71.768a.486.486 0 0 0 0 .884l1.7.768.768 1.71a.494.494 0 0 0 .894 0ZM10.828 9.57l-1.545-3.4c-.34-.758-1.428-.758-1.768 0L5.97 9.57l-3.4 1.545c-.758.35-.758 1.428 0 1.768l3.4 1.545 1.545 3.4c.35.758 1.428.758 1.768 0l1.545-3.4 3.4-1.545c.758-.35.758-1.428 0-1.768l-3.4-1.545Zm6.84 6.315-.768 1.7-1.7.768a.486.486 0 0 0 0 .884l1.7.768.768 1.71a.486.486 0 0 0 .884 0l.767-1.7 1.71-.768a.486.486 0 0 0 0-.884l-1.7-.768-.767-1.71a.494.494 0 0 0-.894 0Z"/></svg>