<svg viewBox="0 0 24 24" xmlns="http://www.w3.org/2000/svg"><path fill-rule="evenodd" d="M10.71 11.732c-.113.58-.238 1.232-.372 1.864C9.469 17.698 6.9 19.2 5.163 19.2H3.6v-3.323h1.563l.023-.002a1.189 1.189 0 0 0 .266-.075 2.01 2.01 0 0 0 .584-.383c.42-.383.95-1.128 1.25-2.55.136-.642.241-1.188.343-1.715.073-.383.145-.756.225-1.149.173-.846.369-1.687.657-2.416.294-.744.731-1.492 1.454-2.033.734-.547 1.589-.754 2.496-.754s1.763.207 2.496.754c.723.54 1.16 1.289 1.454 2.033.289.73.484 1.57.657 2.416.08.393.152.766.226 1.149.1.527.206 1.073.342 1.714.3 1.423.83 2.168 1.25 2.551.216.198.42.316.584.383a1.186 1.186 0 0 0 .267.075l.022.002h1.564V19.2h-1.564c-1.737 0-4.306-1.501-5.175-5.604a106.22 106.22 0 0 1-.371-1.864c-.074-.38-.141-.73-.201-1.023-.17-.828-.316-1.41-.484-1.835-.162-.409-.295-.545-.37-.601-.065-.049-.236-.15-.697-.15-.461 0-.632.101-.697.15-.075.056-.208.192-.37.601-.168.425-.314 1.007-.483 1.835-.06.293-.128.643-.201 1.023Z" clip-rule="evenodd"/></svg>