<svg viewBox="0 0 24 24" xmlns="http://www.w3.org/2000/svg"><path d="M11.418 8.36 8.107 5.05l.88-.966c.364-.393.88-.622 1.416-.622h4.057c.536 0 1.053.23 1.407.622l1.186 1.291h3.033A1.92 1.92 0 0 1 22 7.29v11.482c0 .048-.01.095-.02.153l-4.879-4.88c.077-.335.115-.67.115-1.014a4.786 4.786 0 0 0-4.784-4.784c-.345 0-.68.038-1.014.115Zm8.458 13.865-1.54-1.54H4.776a1.92 1.92 0 0 1-1.913-1.914V7.289c0-.565.258-1.072.65-1.426L2.28 4.63a.953.953 0 1 1 1.349-1.35l17.586 17.587a.953.953 0 0 1 0 1.35.933.933 0 0 1-1.34.009Zm-5.062-5.062-1.435-1.435c-.306.096-.612.172-.947.172a2.867 2.867 0 0 1-2.87-2.87c0-.335.076-.641.181-.938l-1.435-1.435a4.535 4.535 0 0 0-.66 2.373 4.786 4.786 0 0 0 4.784 4.784c.87 0 1.684-.24 2.382-.65Z"/></svg>