<svg viewBox="0 0 24 24" xmlns="http://www.w3.org/2000/svg"><path d="M6.275 19.925c-1.467 0-2.713-.512-3.738-1.538C1.514 17.363 1 16.117 1 14.65c0-1.3.417-2.442 1.25-3.425.833-.983 1.892-1.575 3.175-1.775.3-1.5.992-2.75 2.075-3.75 1.083-1 2.342-1.567 3.775-1.7v8.725L9.2 10.65l-1.075 1.075 3.9 3.9 3.9-3.9-1.075-1.075-2.075 2.075V4c1.683.183 3.092.933 4.225 2.25 1.133 1.317 1.7 2.858 1.7 4.625v.6c1.2-.033 2.217.354 3.05 1.162.833.809 1.25 1.83 1.25 3.063 0 1.15-.417 2.142-1.25 2.975-.833.833-1.825 1.25-2.975 1.25h-12.5Z"/></svg>