<svg viewBox="0 0 24 24" xmlns="http://www.w3.org/2000/svg"><path d="M9.637 7.643c.29-.62.42-1.329.34-2.088-.19-1.73-1.54-3.198-3.258-3.488a4.006 4.006 0 0 0-4.657 4.647c.3 1.719 1.759 3.068 3.488 3.258.76.08 1.459-.05 2.088-.34L9.997 12l-2.359 2.36a3.92 3.92 0 0 0-2.088-.34c-1.73.19-3.198 1.539-3.488 3.258a3.999 3.999 0 0 0 4.647 4.646c1.719-.3 3.068-1.758 3.258-3.487.08-.76-.05-1.46-.34-2.089L11.995 14l7.585 7.585c.89.889 2.409.26 2.409-1v-.01c0-.37-.15-.73-.41-.999L9.637 7.643Zm-3.638.36a1.998 1.998 0 1 1 0-3.996 1.998 1.998 0 0 1 0 3.996Zm0 11.992a1.998 1.998 0 1 1 0-3.996 1.998 1.998 0 0 1 0 3.996Zm5.996-7.495c-.28 0-.5-.22-.5-.5s.22-.5.5-.5.5.22.5.5-.22.5-.5.5ZM19.58 2.417l-6.585 6.585 1.998 1.999 6.586-6.586c.26-.26.41-.62.41-.999v-.01c0-1.25-1.52-1.879-2.409-.99Z"/></svg>