<svg viewBox="0 0 21 7" xmlns="http://www.w3.org/2000/svg"><path d="M18.736 3.398 2.89 2.748a.102.102 0 0 1 .004.041.1.1 0 0 1-.02.053l-.21.251a.657.657 0 0 1-.448.256l-1.254.157a1.409 1.409 0 0 0 .054 1.42.72.72 0 0 0 .524.338l2.224.28a1.188 1.188 0 1 1 2.214.18l7.464-.017s1.47.013 2.904.017l-.024-.052a1.188 1.188 0 1 1 2.17.05c.241-.004.417-.009.5-.015.323-.043.635-.144.922-.298a.837.837 0 0 0 .461-.772A5.433 5.433 0 0 0 20.297 4a2.305 2.305 0 0 1-1.56-.6v-.002Z" opacity=".8"/><path d="m14.463 1.886-.533.476c-8.073-1.038-11.892-.62-12.483-.418-.254.085-.286.503-.272.734h1.614a.103.103 0 0 1 .093.055l.007.015 15.847.65a2.302 2.302 0 0 1-.292-.322.106.106 0 0 1 .096-.168s1.03.075 1.27.11c-.633-.66-5.347-1.132-5.347-1.132Z" opacity=".6"/><path d="M20.58 4.626v-.003a5.629 5.629 0 0 0-.24-1.312l-.005-.02-.01-.017c-.125-.208-.3-.38-.511-.5a3.936 3.936 0 0 0-.776-.358 11.803 11.803 0 0 0-1.957-.46 25.36 25.36 0 0 0-2.39-.263l-.162-.01-.042-.002h-.016l-.084-.004-.023.021c-.493-.26-2.492-1.309-2.542-1.327a2.32 2.32 0 0 0-.478.258.13.13 0 0 0 0 .231l2.419 1.273a91.184 91.184 0 0 0-4.499-.463v-.376a.313.313 0 1 0-.625-.023v.351c-.786-.054-1.5-.09-2.152-.11v-.218a.313.313 0 1 0-.626-.026v.226a45.498 45.498 0 0 0-.983-.012c-1.024 0-1.817.04-2.392.091-.377.022-.75.08-1.115.175a.612.612 0 0 0-.398.388 1.01 1.01 0 0 0-.028.477c.021.129.053.256.094.38l.013.042c-.29.292-.458.683-.468 1.094.006.316.092.625.25.897l.003.004.002.005a.926.926 0 0 0 .674.433l2.026.255c.068.2.18.382.325.534a1.474 1.474 0 0 0 2.268-.223c.021-.033.03-.07.05-.105l7.258-.016h.003l.211.001.573.005 1.776.01h.132a1.47 1.47 0 0 0 2.51.104c.023-.034.033-.075.053-.11.137-.004.25-.008.308-.012h.012a2.92 2.92 0 0 0 .99-.32 1.044 1.044 0 0 0 .573-.962l-.001-.003ZM4.92 6.112a.897.897 0 1 1 .001 0H4.92Zm12.495 0a.897.897 0 1 1 .343-.068.897.897 0 0 1-.344.068h.001Zm2.664-1.128a.632.632 0 0 1-.259.24h-.002l-.003.002a2.5 2.5 0 0 1-.846.274c-.04.003-.08.004-.119.005a1.466 1.466 0 1 0-2.877-.006l.006.016c-.649-.002-1.28-.006-1.749-.01l-.572-.004-.215-.002h-.003l-7.104.016a1.464 1.464 0 1 0-2.885-.22l-1.887-.237a.513.513 0 0 1-.371-.236 1.437 1.437 0 0 1-.197-.69 1.24 1.24 0 0 1 .427-.888.216.216 0 0 0 .062-.137.256.256 0 0 0-.001-.056.498.498 0 0 0-.014-.062 3.005 3.005 0 0 0-.027-.087l-.01-.034a2.149 2.149 0 0 1-.079-.317.612.612 0 0 1 .01-.28.2.2 0 0 1 .14-.132 5.546 5.546 0 0 1 1.02-.155c.56-.05 1.34-.09 2.355-.09 3.02.035 6.034.259 9.025.671l.093.012.54-.48.13.007c.787.05 1.57.137 2.35.257.64.094 1.27.243 1.885.443.242.081.475.188.694.318.143.081.265.194.357.33.118.388.19.788.216 1.192a.63.63 0 0 1-.09.34Z"/></svg>