<svg viewBox="0 0 24 24" xmlns="http://www.w3.org/2000/svg"><path d="M14.636 3h-9C4.736 3 4 3.736 4 4.636v10.637c0 .45.368.818.818.818a.82.82 0 0 0 .818-.818V5.455a.82.82 0 0 1 .819-.819h8.181a.82.82 0 0 0 .819-.818.82.82 0 0 0-.819-.818Zm3.273 3.273h-9c-.9 0-1.636.736-1.636 1.636v11.455c0 .9.736 1.636 1.636 1.636h9c.9 0 1.637-.736 1.637-1.636V7.909c0-.9-.737-1.636-1.637-1.636Zm-.818 13.09H9.727a.82.82 0 0 1-.818-.817v-9.82a.82.82 0 0 1 .818-.818h7.364a.82.82 0 0 1 .818.818v9.819a.82.82 0 0 1-.818.818Z"/></svg>