<svg viewBox="0 0 21 7" xmlns="http://www.w3.org/2000/svg"><path fill-rule="evenodd" d="M20.373 4.305a2.959 2.959 0 0 1-2.128-1.008.143.143 0 0 1 .123-.226c.498.054 1.44.16 1.476.193 0 0 .087-.048-.437-.313 0 0-15.769-.243-16.633-.267-.02 0-.01.04-.023.056l-.016.02a1.275 1.275 0 0 1-.706.4h-.957c-.03.06-.062.118-.096.176a4.828 4.828 0 0 0-.165.335c-.07.427.015.865.242 1.232a.935.935 0 0 0 .731.44l1.832.226.273.014a1.19 1.19 0 1 1 1.93.084l10.412.103a1.19 1.19 0 1 1 1.735-.052l1.688-.095c.844 0 .72-1.318.72-1.318Z" clip-rule="evenodd" opacity=".8"/><path d="M10.137 1.253c.398.362.863.793 1.25 1.15h1.424a.084.084 0 0 0 .043-.154 6.257 6.257 0 0 0-2.717-.996Z" opacity=".2"/><path fill-rule="evenodd" d="m6.667 2.403-.444-.868.388-.11.456.98-.4-.002Z" clip-rule="evenodd"/><path d="M14.114 2.173C8.85-1.367 3.289 1.947 3.289 1.947l-1.241.056a2.2 2.2 0 0 0-.626.453l1.228.077a.135.135 0 0 1 .126.144v.008c4.34.073 16.652.278 16.632.267-1.556-.83-5.294-.78-5.294-.78Zm-1.254.214a.084.084 0 0 1-.05.017h-1.423l-.006-.005H4.769a.084.084 0 0 1-.045-.153 7.367 7.367 0 0 1 4.338-1.078 6.39 6.39 0 0 1 1.063.08c.95.211 1.868.548 2.729 1.002a.084.084 0 0 1 .025.116.083.083 0 0 1-.02.02Z" opacity=".6"/><path d="m20.58 4.357-.002-.047-.001-.013V4.29l-.001-.008a1.996 1.996 0 0 0-1.076-1.51 5.75 5.75 0 0 0-1.537-.49 16.091 16.091 0 0 0-1.77-.232 25.454 25.454 0 0 0-1.916-.08h-.103A9.92 9.92 0 0 0 6.689.534c-.867.164-1.715.42-2.528.764-.31.13-.612.275-.907.435l-.024.013-1.18.05a.882.882 0 0 0-.891.59l-.002.005-.002.007c-.082.292-.2.574-.353.837-.04.071-.078.144-.112.219l-.045.095-.013.029-.004.008-.001.003-.016.05c-.079.474.017.961.27 1.37a1.137 1.137 0 0 0 .884.535l1.834.227.097.005a1.44 1.44 0 0 0 1.753.518c.214-.095.403-.24.55-.421l10.032.098.004.006a1.432 1.432 0 0 0 2.12-.066l1.505-.085a.793.793 0 0 0 .616-.275c.127-.157.214-.343.253-.54a2.41 2.41 0 0 0 .052-.654ZM4.888 5.85a.906.906 0 1 1 0-1.812.906.906 0 0 1 0 1.812Zm12.188 0a.906.906 0 1 1 0-1.812.906.906 0 0 1 0 1.812Zm3.058-.93a.837.837 0 0 1-.163.365.39.39 0 0 1-.316.135h-.005l-1.226.07a1.414 1.414 0 0 0-.308-1.597 1.462 1.462 0 0 0-2.361 1.67L7.8 5.483l-.382-1.832a.186.186 0 1 0-.364.076l.367 1.754-1.178-.012a1.465 1.465 0 1 0-2.8-.248c.008.045.032.084.045.127l-1.683-.207h-.006a.732.732 0 0 1-.573-.344 1.583 1.583 0 0 1-.22-1.066l.007-.013.043-.09a2.57 2.57 0 0 1 .095-.187V3.44c.17-.291.302-.603.393-.926a.477.477 0 0 1 .487-.312h.013l1.304-.054.044-.027.003-.001.01-.006.046-.026a9.96 9.96 0 0 1 .868-.416c.787-.333 1.607-.58 2.446-.74A9.512 9.512 0 0 1 14 2.342l.052.035.066-.001h.158a24.68 24.68 0 0 1 1.884.079c.578.043 1.154.118 1.724.225.495.082.975.234 1.428.45l.002.002a1.592 1.592 0 0 1 .858 1.2v.008l.003.037c0 .033.003.08.002.137a2 2 0 0 1-.045.408Z"/></svg>