<svg viewBox="0 0 21 9" xmlns="http://www.w3.org/2000/svg"><path d="M20.014 5.113a2.88 2.88 0 0 1-1.172-.023 1.933 1.933 0 0 1-.912-.95l.084-.003.12-.005L2.536 3.11c-.45.326-1.032.615-1.126.25 0 .455-.2.563-.2.563-.186.164-.142.54-.142.54l.054.79a.37.37 0 0 0-.333.2v.494c.183.473 1.021.725 1.962.857a1.263 1.263 0 1 1 2.438.138c.376-.002.616-.013.616-.013s5.61.088 9.49.143l-.015-.037a1.262 1.262 0 1 1 2.303.068c.788.01 1.292.014 1.333.011 1.17-.077 1.461-.342 1.461-.456 0-.114-.228-.198-.228-.198V5.093c.002-.102-.06.008-.135.02Z" opacity=".8"/><path fill-rule="evenodd" d="m18.137 4.131-15.6-1.02c.17-.12.328-.256.47-.407.21-.242-.381-.29-.747-.299.231-.37.528-.695.875-.96l-.184-.267s6.304-1.04 8.834.074c.94.434 1.833.963 2.665 1.58 0 0 3.43-.05 5.304 1.407h-.002a6.69 6.69 0 0 0-1.615-.106v-.002Zm-4.48-.974a.102.102 0 0 1-.058.02c-1.264.032-6.954.176-8.482-.43-1.528-.606-.28-1.106-.28-1.106a14.708 14.708 0 0 1 4.19-.264 7.732 7.732 0 0 1 4.633 1.618.102.102 0 0 1 .015.145.108.108 0 0 1-.02.018h.002Z" clip-rule="evenodd" opacity=".6"/><path d="M10.622 1.581a9.098 9.098 0 0 0-1.596-.205 14.71 14.71 0 0 0-4.189.265s-1.25.5.278 1.106c1.225.486 5.121.49 7.272.456-.538-.5-1.262-1.166-1.765-1.62V1.58Z" opacity=".05"/><path d="M10.621 1.581a220.31 220.31 0 0 1 1.767 1.624c.535 0 .966-.02 1.22-.027a.103.103 0 0 0 .061-.183 7.237 7.237 0 0 0-3.048-1.414Z" opacity=".2"/><path fill-rule="evenodd" d="m8.557 3.201-.293-1.876h.415l.28 1.876h-.402Zm-3.043-.32.272-1.478.448-.034-.288 1.61-.432-.099Z" clip-rule="evenodd"/><path d="M20.494 6.444a1.222 1.222 0 0 0-.14-.11V5.095a.643.643 0 0 1 .056-.237.628.628 0 0 0-.202-.675 7.73 7.73 0 0 0-3.602-1.372 15.82 15.82 0 0 0-1.524-.163c-.194-.01-.565-.02-.565-.02a15.194 15.194 0 0 0-2.647-1.563h-.004a7.72 7.72 0 0 0-2.517-.5 23.98 23.98 0 0 0-2.944.027A40.63 40.63 0 0 0 3.948.83C3.63.87 2.916.976 2.916.976a.212.212 0 0 0-.168.235.442.442 0 0 0 .083.152 2.55 2.55 0 0 0-.145.105c-.13.101-.817.77-.817.77a1.175 1.175 0 0 0-.636.722 1.007 1.007 0 0 0-.03.403l.003.015a.656.656 0 0 1-.071.33.179.179 0 0 1-.032.04v.001a.23.23 0 0 0-.03.021.715.715 0 0 0-.206.463c-.006.058.04.857.04.857a.573.573 0 0 0-.298.268.204.204 0 0 0-.023.095v.494c0 .026.005.05.014.074.087.202.236.37.426.48.213.129.442.228.68.294.227.065.456.117.688.155a1.626 1.626 0 0 0 3.13.191l9.442.13a1.575 1.575 0 0 0 2.936.04c.142.002 1 .01 1.027.008a4.06 4.06 0 0 0 1.233-.23.97.97 0 0 0 .29-.17.36.36 0 0 0 .13-.26.324.324 0 0 0-.088-.215Zm-15.65.28a.869.869 0 1 1-1.705-.337.869.869 0 0 1 1.705.337Zm12.457 0a.869.869 0 1 1-1.704-.336.869.869 0 0 1 1.704.336Zm2.707-.012a3.69 3.69 0 0 1-1.106.2h-.168l-.44-.004-.242-.003a1.646 1.646 0 0 0-1.587-2.004 1.648 1.648 0 0 0-1.64 1.961l-2.541-.037-2.788-.042-.326-2.4a.187.187 0 0 0-.373.03l.003.02.318 2.344-1.29-.02-1.464-.023-.554-.008h-.026l-.037.001-.128.004c.012-.058.021-.118.027-.178a1.64 1.64 0 0 0-1.472-1.637l.494-1.897a.187.187 0 1 0-.361-.094l-.498 1.906a.176.176 0 0 0 .013.092A1.585 1.585 0 0 0 2.35 6.528a5.522 5.522 0 0 1-.526-.124 2.346 2.346 0 0 1-.578-.247.676.676 0 0 1-.253-.253v-.39a.165.165 0 0 1 .126-.057.204.204 0 0 0 .207-.2V5.24l-.055-.79v-.01l-.002-.009-.001-.035c-.001-.04 0-.08.004-.12a.356.356 0 0 1 .065-.193.592.592 0 0 0 .147-.166 1.07 1.07 0 0 0 .125-.603l-.002-.01a.598.598 0 0 1 .018-.232.785.785 0 0 1 .458-.484.207.207 0 0 0 .06-.045l.002-.002.007-.007.025-.027c.13-.137.262-.27.399-.4.118-.113.245-.226.36-.316a.986.986 0 0 1 .255-.16.204.204 0 0 0 .117-.3A39.495 39.495 0 0 1 6.43 1 23.581 23.581 0 0 1 9.323.973a7.344 7.344 0 0 1 2.377.463c.927.428 1.807.95 2.627 1.558.036.027.079.04.123.04h.04c.028 0 .068 0 .12.002.647.018 1.292.077 1.93.177a7.342 7.342 0 0 1 3.408 1.283v.001a.22.22 0 0 1 .075.23.989.989 0 0 0-.078.36V6.46a.205.205 0 0 0 .133.191l.004.002.018.008.007.003a.924.924 0 0 1-.1.047v.001Zm.179-.106-.002.002.002-.003v.001Z"/></svg>