<svg viewBox="0 0 24 24" xmlns="http://www.w3.org/2000/svg"><path d="M3.429 14.857C2.643 14.857 2 15.5 2 16.286v4.285C2 21.357 2.643 22 3.429 22h4.285c.786 0 1.429-.643 1.429-1.429 0-.785-.643-1.428-1.429-1.428H4.857v-2.857c0-.786-.643-1.429-1.428-1.429Zm0-5.714c.785 0 1.428-.643 1.428-1.429V4.857h2.857c.786 0 1.429-.643 1.429-1.428C9.143 2.643 8.5 2 7.714 2H3.43C2.643 2 2 2.643 2 3.429v4.285c0 .786.643 1.429 1.429 1.429Zm15.714 10h-2.857c-.786 0-1.429.643-1.429 1.428 0 .786.643 1.429 1.429 1.429h4.285c.786 0 1.429-.643 1.429-1.429v-4.285c0-.786-.643-1.429-1.429-1.429-.785 0-1.428.643-1.428 1.429v2.857ZM14.857 3.429c0 .785.643 1.428 1.429 1.428h2.857v2.857c0 .786.643 1.429 1.428 1.429.786 0 1.429-.643 1.429-1.429V3.43C22 2.643 21.357 2 20.571 2h-4.285c-.786 0-1.429.643-1.429 1.429Z"/></svg>