<svg viewBox="0 0 24 24" xmlns="http://www.w3.org/2000/svg"><path fill-rule="evenodd" d="M8.667 10.889H4.222C3 10.889 2 9.889 2 8.667V4.222C2 3 3 2 4.222 2h4.445c1.222 0 2.222 1 2.222 2.222v4.445c0 1.222-1 2.222-2.222 2.222Zm0 11.111H4.222C3 22 2 21 2 19.778v-4.445c0-1.222 1-2.222 2.222-2.222h4.445c1.222 0 2.222 1 2.222 2.222v4.445c0 1.222-1 2.222-2.222 2.222ZM13.11 4.222v4.445c0 1.222 1 2.222 2.223 2.222h4.444c1.222 0 2.222-1 2.222-2.222V4.222A2.227 2.227 0 0 0 19.778 2h-4.444a2.23 2.23 0 0 0-2.224 2.222ZM19.778 22h-4.444c-1.223 0-2.223-1-2.223-2.222v-4.445c0-1.222 1-2.222 2.223-2.222h4.444c1.222 0 2.222 1 2.222 2.222v4.445C22 21 21 22 19.778 22Z" clip-rule="evenodd"/></svg>