<svg viewBox="0 0 24 24" xmlns="http://www.w3.org/2000/svg"><path d="M7.582 4v.89l2 2V4h4v4h-2.89l2 2h.89v.89l2 2V10h4v4h-2.89l2 2h.89v.89l2 2V4c0-1.1-.9-2-2-2H4.692l2 2h.89Zm8 0h3c.55 0 1 .45 1 1v3h-4V4Zm6.16 17.88L1.703 1.84a.996.996 0 1 0-1.41 1.41l1.29 1.3V20c0 1.1.9 2 2 2h15.45l1.3 1.3c.39.39 1.02.39 1.41 0 .39-.39.39-1.03 0-1.42Zm-12.16-9.33 1.45 1.45h-1.45v-1.45Zm-6-6L5.032 8h-1.45V6.55Zm4 13.45h-3c-.55 0-1-.45-1-1v-3h4v4Zm0-6h-4v-4h3.45l.55.55V14Zm6 6h-4v-4h3.45l.55.55V20Zm2 0v-1.45l1.45 1.45h-1.45Z"/></svg>