<svg viewBox="0 0 21 9" xmlns="http://www.w3.org/2000/svg"><path d="M1.243 3.649v.74a.475.475 0 0 0-.185.185.667.667 0 0 0-.232.58c.001.416.13.82.37 1.16.429.45.975.771 1.577.927.1.019.2.026.301.022l.033-.002a1.275 1.275 0 1 1 2.332-.195l.137-.01H15.89l.176-.006a1.275 1.275 0 1 1 2.45-.07l.62-.019c1.228-.255 1.343-1.02 1.204-1.692a2.324 2.324 0 0 0-.214-.603c-.095-.003-1.33-.046-1.732-.092-.232-.022-.487-.3-.65-.532a.242.242 0 0 1-.05-.117c-3.636-.205-11.335-.642-14.659-.857.037.082.076.17.017.21a9.16 9.16 0 0 1-1.32.37.337.337 0 0 1-.349-.325c-.006-.04-.16.077-.139.326Z" opacity=".8"/><g opacity=".6"><path fill-rule="evenodd" d="m19.294 3.77.214.146-1.65-.135c-.094 0-.164.046-.164.14v.003c-3.653-.206-11.352-.642-14.66-.857a.392.392 0 0 0-.334-.26h-.973a.315.315 0 0 0-.198.07l1.032-1.252a.664.664 0 0 1 .58-.556c.037-.005.11-.019.21-.038C4.616.788 10.564-.352 15.54 2.714c1.286.216 2.546.57 3.755 1.055Zm-5.145-.36-9.804-.74a.588.588 0 0 1-.417-.234.58.58 0 0 1-.185-.417c0-.232.65-.417.65-.417a16.517 16.517 0 0 1 4.31-.348c.092.012.22.024.347.035.128.011.255.023.347.035 3.917.58 4.66 1.483 4.937 1.877.07.093-.07.208-.185.208Z" clip-rule="evenodd"/><path d="m19.636 4.033-.048-.062c.053.036.09.06.1.065l-.052-.003Z"/></g><path d="m4.345 2.668 8.825.668a58.74 58.74 0 0 0-1.78-1.618l-.013-.017a21.776 21.776 0 0 0-1.98-.377c-.093-.012-.22-.023-.348-.035-.128-.012-.254-.023-.347-.035a16.527 16.527 0 0 0-4.31.348s-.65.185-.65.417a.58.58 0 0 0 .186.417.587.587 0 0 0 .417.232Z" opacity=".05"/><path d="m13.175 3.342.974.069c.116 0 .255-.116.185-.21-.232-.323-.742-.972-2.943-1.482.605.528 1.2 1.069 1.784 1.622Z" opacity=".2"/><path fill-rule="evenodd" d="m7.952 2.955-.244-1.718h.418l.236 1.744-.41-.026Zm-2.559-.202-.522-1.28.244-.046.544 1.36-.266-.034Z" clip-rule="evenodd"/><path d="M20.521 5.194a2.756 2.756 0 0 0-1.553-1.877 12.864 12.864 0 0 0-3.36-.81C12.363.536 8.006-.067 3.325.813c-.07.011-.14.027-.209.047a.867.867 0 0 0-.74.65L1.331 2.667a1.442 1.442 0 0 0-.325.95v.65c-.046.045-.092.07-.115.115a.98.98 0 0 0-.302.742c0 .459.146.905.417 1.274a3.33 3.33 0 0 0 1.67.996c.01.003.023.003.033.006a1.677 1.677 0 0 0 3.077-.19h2.846c.005 0 .008.004.013.003l.008-.004h7.017a1.68 1.68 0 0 0 3.19-.085l.222-.008h.047a1.83 1.83 0 0 0 1.205-.695 1.46 1.46 0 0 0 .186-1.228ZM4.206 7.512a.88.88 0 1 1 0-1.76.88.88 0 0 1 0 1.76Zm13.047 0a.88.88 0 1 1 0-1.76.88.88 0 0 1 0 1.76Zm2.711-1.344a1.436 1.436 0 0 1-.903.533l-.124.005c.001-.025.008-.05.008-.075a1.692 1.692 0 1 0-3.384 0c.004.063.01.125.02.186H8.807l-.194-2.61a.19.19 0 0 0-.38.028l.193 2.581H5.878c.01-.06.017-.123.02-.185a1.692 1.692 0 0 0-3.384 0c.002.097.012.194.03.288a2.632 2.632 0 0 1-1.212-.75l-.023-.025a1.985 1.985 0 0 1-.324-1.042.612.612 0 0 1 .162-.44 1.13 1.13 0 0 1 .162-.14.234.234 0 0 0 .093-.162v-.765c-.013-.241.06-.48.208-.672l1.066-1.182a.176.176 0 0 0 .046-.092.467.467 0 0 1 .394-.37 1.92 1.92 0 0 0 .232-.047 22.705 22.705 0 0 1 4.08-.395 15.272 15.272 0 0 1 7.971 2.04c.023.023.046.023.093.023 1.118.11 2.217.367 3.267.765a2.263 2.263 0 0 1 1.321 1.576 1.213 1.213 0 0 1-.116.927Z"/></svg>