<svg viewBox="0 0 24 24" xmlns="http://www.w3.org/2000/svg"><path d="M12 2.4c-5.299 0-9.6 4.3-9.6 9.6s4.301 9.6 9.6 9.6c5.3 0 9.6-4.3 9.6-9.6S17.3 2.4 12 2.4Zm.96 16.32h-1.92V16.8h1.92v1.92Zm1.988-7.44-.864.883c-.48.49-.826.931-.999 1.623a4.404 4.404 0 0 0-.125 1.094h-1.92v-.48a3.837 3.837 0 0 1 1.123-2.717l1.191-1.21c.442-.422.653-1.056.528-1.728a1.911 1.911 0 0 0-1.334-1.468 1.936 1.936 0 0 0-2.372 1.219c-.115.355-.412.624-.787.624h-.288c-.557 0-.94-.538-.787-1.075a3.847 3.847 0 0 1 3.1-2.717c1.46-.23 2.852.528 3.716 1.728 1.133 1.565.797 3.245-.182 4.224Z"/></svg>