<svg viewBox="0 0 24 24" xmlns="http://www.w3.org/2000/svg"><path d="M13.384 3.003c-5.016-.138-9.126 3.893-9.126 8.87H2.494a.488.488 0 0 0-.345.837l2.75 2.76a.488.488 0 0 0 .7 0l2.749-2.76a.493.493 0 0 0-.355-.837H6.23a6.896 6.896 0 0 1 6.997-6.899c3.666.05 6.75 3.134 6.8 6.8a6.902 6.902 0 0 1-6.899 6.997 6.795 6.795 0 0 1-4.217-1.459.98.98 0 0 0-1.301.08c-.414.413-.385 1.113.079 1.468a8.729 8.729 0 0 0 5.44 1.882c4.976 0 9.006-4.11 8.869-9.126-.128-4.621-3.992-8.484-8.613-8.613Zm-.503 4.928a.745.745 0 0 0-.74.739v3.626c0 .345.188.67.484.848l3.075 1.823a.747.747 0 0 0 1.015-.256.747.747 0 0 0-.257-1.015L13.62 12.01V8.66a.742.742 0 0 0-.739-.73Z"/></svg>