<svg viewBox="0 0 24 24" xmlns="http://www.w3.org/2000/svg"><path d="M11.325 17h1.5v-6h-1.5v6ZM12 9.15c.233 0 .43-.075.588-.225a.757.757 0 0 0 .237-.575.84.84 0 0 0-.237-.6A.778.778 0 0 0 12 7.5a.778.778 0 0 0-.588.25.84.84 0 0 0-.237.6c0 .233.08.425.237.575.159.15.355.225.588.225ZM12 22c-1.417 0-2.733-.254-3.95-.762a9.76 9.76 0 0 1-3.175-2.113 9.76 9.76 0 0 1-2.112-3.175C2.254 14.733 2 13.417 2 12c0-1.4.254-2.708.763-3.925A9.76 9.76 0 0 1 4.875 4.9c.9-.9 1.958-1.608 3.175-2.125C9.267 2.258 10.583 2 12 2c1.4 0 2.708.258 3.925.775A9.927 9.927 0 0 1 19.1 4.9c.9.9 1.608 1.958 2.125 3.175C21.742 9.292 22 10.6 22 12c0 1.417-.258 2.733-.775 3.95a9.927 9.927 0 0 1-2.125 3.175c-.9.9-1.958 1.604-3.175 2.113C14.708 21.745 13.4 22 12 22Zm0-1.5c2.333 0 4.333-.833 6-2.5 1.667-1.667 2.5-3.667 2.5-6s-.833-4.333-2.5-6c-1.667-1.667-3.667-2.5-6-2.5S7.667 4.333 6 6c-1.667 1.667-2.5 3.667-2.5 6s.833 4.333 2.5 6c1.667 1.667 3.667 2.5 6 2.5Z"/></svg>