<svg viewBox="0 0 24 24" xmlns="http://www.w3.org/2000/svg"><path fill-rule="evenodd" d="M12 5.441c2.136 0 2.39.009 3.233.047.78.036 1.203.166 1.485.276.374.145.64.318.92.598.28.28.453.546.598.92.11.282.24.705.276 1.485.038.844.047 1.097.047 3.233s-.009 2.39-.047 3.233c-.036.78-.166 1.203-.276 1.485a2.48 2.48 0 0 1-.598.92c-.28.28-.546.453-.92.598-.282.11-.705.24-1.485.276-.844.038-1.097.046-3.233.046s-2.39-.008-3.233-.046c-.78-.036-1.203-.166-1.485-.276a2.479 2.479 0 0 1-.92-.598 2.48 2.48 0 0 1-.598-.92c-.11-.282-.24-.705-.276-1.485-.038-.844-.047-1.097-.047-3.233s.009-2.39.047-3.233c.036-.78.166-1.203.276-1.485.145-.374.318-.64.598-.92.28-.28.546-.453.92-.598.282-.11.705-.24 1.485-.276.844-.038 1.097-.047 3.233-.047ZM12 4c-2.173 0-2.445.01-3.298.048-.852.039-1.433.174-1.942.372a3.922 3.922 0 0 0-1.417.923A3.9 3.9 0 0 0 4.42 6.76c-.198.509-.333 1.09-.372 1.942C4.01 9.555 4 9.827 4 12s.01 2.445.048 3.298c.039.852.174 1.433.372 1.942.204.526.478.973.923 1.417.444.445.89.718 1.417.923.509.198 1.09.333 1.942.372C9.555 19.99 9.827 20 12 20s2.445-.01 3.298-.048c.852-.039 1.433-.174 1.942-.372a3.92 3.92 0 0 0 1.417-.923c.445-.445.719-.89.923-1.417.198-.509.333-1.09.372-1.942.039-.853.048-1.125.048-3.298s-.01-2.445-.048-3.298c-.039-.852-.174-1.433-.372-1.942a3.922 3.922 0 0 0-.923-1.417 3.922 3.922 0 0 0-1.417-.923c-.509-.198-1.09-.333-1.942-.372C14.445 4.01 14.173 4 12 4Zm.005 3.896a4.108 4.108 0 1 0 0 8.216 4.108 4.108 0 0 0 0-8.216Zm0 6.774a2.667 2.667 0 1 1 0-5.333 2.667 2.667 0 0 1 0 5.333Zm4.27-5.98a.96.96 0 1 0 0-1.92.96.96 0 0 0 0 1.92Z" clip-rule="evenodd"/></svg>