<svg viewBox="0 0 21 6" xmlns="http://www.w3.org/2000/svg"><path d="M14.387 2.04a3.223 3.223 0 0 0-1.705-.598h-.1c.423.383.954.875 1.357 1.258l.777.01a.18.18 0 0 0 .182-.178V2.53a.182.182 0 0 0-.06-.14 12.64 12.64 0 0 0-.451-.35Z" opacity=".2"/><path d="M14.897 2.51h2.337c1.026.117 2.125.262 2.417.302a.45.45 0 0 1 .137.04h-.7s-.02.725.885.725l.092-.332a.97.97 0 0 1 .03.211c.04 0 .06 0 .08.02a.382.382 0 0 1 .221.443c-.04.202-.2.403-.624.524-.42.082-.847.118-1.275.107a.748.748 0 0 0-.702-.99.734.734 0 0 0-.732.967l-.07-.003H4.944a.734.734 0 0 0-.699-.968c-.41-.01-.75.232-.75.91a56.727 56.727 0 0 0-2.13-.164C.68 4.262.8 3.98.8 3.98a.552.552 0 0 1 .28-.643.272.272 0 0 0 .002.08c.235.02.47.02.705 0 .272-.059.207-.9.202-.964l.16.057h2.675a.162.162 0 0 0 .124.06l9.768.14a.18.18 0 0 0 .181-.18v-.02Z" opacity=".8"/><path d="M14.334 1.462c.522.264 1.026.56 1.51.886.304.014.702.056 1.123.1.194.021.393.042.59.061h-2.66a.182.182 0 0 0-.06-.12 12.022 12.022 0 0 0-.443-.343 3.44 3.44 0 0 0-1.712-.604l-3.867-.12c-.282 0-1.732 0-2.014.04-.726.1-1.914.342-2.015 1.006a.17.17 0 0 0 .038.141H2.148v-.06l1.39-.1C4.545.496 9.661.92 9.661.92l3.424.14c.441.042.867.18 1.25.403Z" opacity=".6"/><path d="m4.947 2.57 8.991.13c-.448-.424-.9-.843-1.357-1.258h.1l-3.867-.12c-.282 0-1.732 0-2.014.04-.725.1-1.913.342-2.014 1.007a.17.17 0 0 0 .137.198l.024.003Z" opacity=".05"/><path fill-rule="evenodd" d="M7.206 2.608V1.33l.38-.022V2.61h-.38Zm5.357.082-.325-1.27.342.014.332 1.256h-.35Z" clip-rule="evenodd"/><path d="M20.276 3.315a.738.738 0 0 0-.584-.684c-.403-.06-2.68-.363-3.787-.444a16.12 16.12 0 0 0-1.49-.886 3.126 3.126 0 0 0-1.33-.423L9.682.738C9.48.718 4.586.334 3.438 2.168l-1.692.12a.845.845 0 0 0-.584.242 1.076 1.076 0 0 0-.282.705c-.234.17-.23.89-.188.964.1.161.268.264.63.284.394.018 1.312.1 1.979.16a.978.978 0 0 0 1.83.062h11.738a.98.98 0 0 0 1.795.036c.385.003.77-.036 1.148-.116.443-.14.685-.363.745-.665a.526.526 0 0 0-.281-.645ZM4.243 4.845a.516.516 0 0 1-.232-.98.503.503 0 0 1 .19-.046h.022a.514.514 0 0 1 .02 1.026Zm13.515 0a.502.502 0 0 1-.504-.502v-.02a.513.513 0 1 1 .504.522Zm1.953-.563a4.79 4.79 0 0 1-.957.096c0-.02.01-.036.01-.056a.987.987 0 0 0-1.973 0c0 .007.004.013.004.02h-3.773V3.335a.159.159 0 0 0-.317 0v1.007H7.504V3.335a.158.158 0 0 0-.316 0v1.007H5.206c0-.007.004-.013.004-.02a.982.982 0 0 0-1.962-.058 60.575 60.575 0 0 0-1.885-.143c-.282-.02-.337-.037-.383-.1 0 0-.078-.44.16-.524a.176.176 0 0 0 .122-.18.797.797 0 0 1 .16-.545.501.501 0 0 1 .344-.14l1.792-.122a.151.151 0 0 0 .14-.1C4.647.697 9.602 1.1 9.662 1.1l3.404.141c.42.036.826.167 1.188.383.512.269 1.01.565 1.49.886a.12.12 0 0 0 .08.02c1.088.08 3.404.383 3.807.443.282.04.282.463.282.483a.217.217 0 0 0 .06.141c.04.04.08.06.12.04a.205.205 0 0 1 .122.242c-.02.121-.1.282-.503.403Z"/></svg>