<svg viewBox="0 0 24 24" xmlns="http://www.w3.org/2000/svg"><path fill-rule="evenodd" d="M5.705 7.3c1.078 0 1.768-.733 1.768-1.639C7.452 4.711 6.783 4 5.725 4 4.67 4 3.98 4.711 4 5.661c-.02.906.669 1.638 1.705 1.638ZM4.087 8.593V19.14h3.278V8.595H4.087Zm5.82.001c.043.928.086 2.05.086 3.365h.001v7.183h3.278V13.06c0-.303.043-.604.13-.82.215-.604.754-1.23 1.66-1.23 1.186 0 1.66.928 1.66 2.287v5.846H20v-6.256c0-3.105-1.617-4.529-3.774-4.529-1.747 0-2.825 1.013-3.256 1.682h-.065l-.151-1.445H9.905Z" clip-rule="evenodd"/></svg>