<svg viewBox="0 0 22 10" xmlns="http://www.w3.org/2000/svg"><path fill-rule="evenodd" d="M19.21 3.835c.343.065.659.23.908.476L2.517 3.55a.19.19 0 0 0-.186-.156h-.993c.229-.702.515-1.385.855-2.04A1.492 1.492 0 0 1 1.908.72a.145.145 0 0 1 .1-.178c.016-.004 2.23-.005 2.23-.005a34.338 34.338 0 0 1 7.827.13c1.6.42 3.084 1.199 4.34 2.276a.492.492 0 0 0 .2.116l2.605.775Zm-15.501-.6c-.623-.042-.716-.85-.414-1.36.116-.183.28-.332.474-.43.37-.173.77-.276 1.179-.302 1.89-.096 3.784-.07 5.67.08.479.05.953.133 1.42.25l-.003-.002a9.8 9.8 0 0 1 2.685 1.114c.251.138.48.314.68.52.244.32-.224.369-.473.373" clip-rule="evenodd" opacity=".6"/><path d="M2.518 3.55a.25.25 0 0 1-.03.144 1.406 1.406 0 0 1-1.265.652c-.1.986.05 1.981.436 2.895a.469.469 0 0 0 .392.26l1.31.006a1.46 1.46 0 1 1 2.881.012l9.327.04a1.46 1.46 0 1 1 2.865.01l1.417.007s.948.084.948-1.05v-.57a2.268 2.268 0 0 0-.167-.885 1.66 1.66 0 0 1-1.26-.472.145.145 0 0 1 .1-.247h.693l-.04-.041h-.005L2.518 3.55Z" opacity=".8"/><path d="M14.723 2.586c.25.138.48.313.68.52.268.339-.276.373-.511.373.237 0 .763-.037.506-.372a2.867 2.867 0 0 0-.68-.522 9.82 9.82 0 0 0-.49-.276c.166.086.331.178.495.276Zm-2.688-1.112a9.859 9.859 0 0 0-1.42-.25 43.517 43.517 0 0 0-5.67-.081 3.326 3.326 0 0 0-1.179.304 1.192 1.192 0 0 0-.474.429c-.3.51-.208 1.317.416 1.36l10.926.237-.56-.012c-.674-.668-1.354-1.33-2.038-1.987Z" opacity=".05"/><path d="M12.033 1.472c.583.558 1.41 1.36 2.041 1.989l.71.015s.941.057.615-.37a2.867 2.867 0 0 0-.68-.521 9.787 9.787 0 0 0-2.686-1.113Z" opacity=".2"/><path d="m19.266 3.64-.01-.003.005.002h.005Z"/><path fill-rule="evenodd" d="m6.006 1.098-.62 2.182c-.22-.008-.066 0-.424-.02l.628-2.15c.146-.012.276-.012.416-.012Zm4.804.144-.073 2.146c-.36 0-.137 0-.407-.01l.075-2.174c.3.025.12.01.406.037Z" clip-rule="evenodd"/><path d="M20.31 4.21a1.978 1.978 0 0 0-1.049-.571l-.015-.004.01.002-2.593-.773a.29.29 0 0 1-.117-.067l-.002-.002a10.724 10.724 0 0 0-1.626-1.16A9.541 9.541 0 0 0 12.108.47 22.669 22.669 0 0 0 8.41.182c-1.396-.03-2.792.02-4.183.152H2.058a.357.357 0 0 0-.36.336c.019.25.107.49.253.694-.017.03-.238.44-.345.668a5.818 5.818 0 0 0-.522 1.606v.003a6.771 6.771 0 0 0 .388 3.683l.003.007a.672.672 0 0 0 .562.373l.908.004a1.895 1.895 0 0 0 3.706.016l8.51.035a1.897 1.897 0 0 0 3.682.016s1.134.003 1.177-.002a1.16 1.16 0 0 0 .396-.116.99.99 0 0 0 .41-.386A1.45 1.45 0 0 0 21 6.526v-.568a2.47 2.47 0 0 0-.69-1.747ZM4.803 8.38a1.005 1.005 0 1 1 0-2.01 1.005 1.005 0 0 1 0 2.01Zm12.188 0a1.005 1.005 0 1 1 0-2.01 1.005 1.005 0 0 1 0 2.01Zm3.484-1.313a.582.582 0 0 1-.243.23.777.777 0 0 1-.34.079h-.024l-.016-.001-.948-.004c0-.03.013-.06.013-.09a1.914 1.914 0 0 0-1.914-1.914l-.012.002a1.86 1.86 0 0 0-1.88 1.986l-4.188-.02-.159-2.86a.201.201 0 0 0-.134-.187.203.203 0 0 0-.27.21l.157 2.836-3.805-.016c0-.013.005-.024.005-.037a1.897 1.897 0 0 0-1.65-1.888l.148-1.02a.203.203 0 1 0-.402-.058l-.156 1.074a1.835 1.835 0 0 0-1.749 1.913l-.85-.003a.267.267 0 0 1-.217-.145 6.377 6.377 0 0 1-.354-3.464c.09-.516.254-1.017.487-1.486.103-.22.39-.742.39-.742l.001-.001a.203.203 0 0 0-.012-.231A1.29 1.29 0 0 1 2.12.74h2.14A35.584 35.584 0 0 1 8.403.588a22.365 22.365 0 0 1 3.62.28c.95.226 1.856.602 2.686 1.115.552.32 1.073.691 1.556 1.108.08.076.177.131.282.163l2.603.775.02.005c.323.06.62.22.846.458.378.392.586.918.578 1.463v.572c.01.187-.031.374-.119.54Z"/></svg>