<svg viewBox="0 0 21 11" xmlns="http://www.w3.org/2000/svg"><path d="M2.365 6.498V4.546h17.486v1.348h.515v1.83a.459.459 0 0 1-.454.458l-.567.008a1.488 1.488 0 0 0-2.9.04l-8.225.11a1.489 1.489 0 0 0-2.955.04l-2.35.032a.076.076 0 0 1-.082-.106V6.498h-.468Zm17.891-1.952h-.01a.772.772 0 0 0-.544-.363l-5.106-.756 5.116.757a.767.767 0 0 1 .545.362Z" opacity=".8"/><path fill-rule="evenodd" d="M13.248 1.134a.6.6 0 0 1 .22.23l1.242 2.037 4.992.783a.773.773 0 0 1 .544.362H2.366V1.56a.51.51 0 0 1 .51-.51H12.94a.6.6 0 0 1 .307.085Zm1.452 2.41H2.51s-.003-1.894 0-1.929h11.004L14.7 3.543Z" clip-rule="evenodd" opacity=".6"/><path d="M13.498 3.543a257.627 257.627 0 0 0-2.09-1.928h-9.03a.54.54 0 0 0 0 .106v1.822h11.12Zm1.203-.089v-.003l-.104-.015.104.018Z" opacity=".05"/><path d="M11.408 1.615c.66.601 1.433 1.314 2.095 1.933h1.208v-.092l-.114-.02-1.082-1.82h-2.107Z" opacity=".2"/><path fill-rule="evenodd" d="M2.378.446a.198.198 0 0 1 .198-.199h10.421a.198.198 0 1 1 .01.396H2.575a.198.198 0 0 1-.198-.198h.001Z" clip-rule="evenodd"/><path d="M.846 4.53v.65a.263.263 0 0 1-.264-.264v-.12a.263.263 0 0 1 .261-.267h.003Z"/><path fill-rule="evenodd" d="M10.424 3.543V1.615h.433v1.928h-.433Zm-6.524 0V1.615h.433v1.928H3.9Z" clip-rule="evenodd"/><path d="M20.343 4.298a.983.983 0 0 0-.6-.329l-5.009-.74-1.076-1.968a.817.817 0 0 0-.717-.427H2.875a.726.726 0 0 0-.727.726v1.461a.37.37 0 0 0-.16-.039h-.576a.377.377 0 0 0-.377.377v2.992a.377.377 0 0 0 .377.377h.575a.37.37 0 0 0 .16-.04v1.178a.762.762 0 0 0 .762.762h.008l1.9-.025a1.92 1.92 0 0 0 .015.322 1.952 1.952 0 0 0 3.866-.375l7.262-.098a1.946 1.946 0 1 0 3.888.2c.002-.036.003-.073.002-.11 0-.048-.01-.095-.014-.143h.077a.675.675 0 0 0 .668-.676V4.94a.982.982 0 0 0-.239-.64h.001ZM6.745 9.568a1.025 1.025 0 1 1 0-2.047 1.025 1.025 0 0 1 0 2.046v.001Zm11.152 0a1.025 1.025 0 1 1 0-2.048 1.025 1.025 0 0 1 0 2.047v.001Zm2.253-1.845a.243.243 0 0 1-.24.243l-.155.002a1.946 1.946 0 0 0-3.66-.173 1.883 1.883 0 0 0-.056.223l-5.2.07v-2.91a.199.199 0 0 0-.397 0v2.916l-1.793.024a1.924 1.924 0 0 0-3.799.051l-.535.007V5.18a.199.199 0 0 0-.397 0v3.003l-1.004.014a.33.33 0 0 1-.333-.328V1.56a.294.294 0 0 1 .294-.293h10.066a.383.383 0 0 1 .337.2l1.18 2.16 5.223.771a.55.55 0 0 1 .47.543v2.783Z"/></svg>