<svg viewBox="0 0 21 7" xmlns="http://www.w3.org/2000/svg"><path d="m1.662 2.587 17.709.71.543.33h.476v1.314l-.34.136s.362.317.18.498c-.807.144-1.626.205-2.445.181H17.3a1.245 1.245 0 1 0-1.3 0H5.357a1.185 1.185 0 0 0 .582-1.064 1.246 1.246 0 1 0-1.896 1.064h-.89a2.206 2.206 0 0 1-1.291-.589l-.76-1.498c1.075-.296.76-1.016.76-1.016s-.252-.05-.2-.066Z" opacity=".8"/><path fill-rule="evenodd" d="M18.19 2.517c.195.178.442.289.704.317l.216.03c.467.058 1.104.14 1.143.47l-18.641-.75c.09-.023-.068-.25-.068-.25s-.068-.18-.702-.27c0 0-.182-.16.158-.703.754.338 1.575.5 2.4.476A15.52 15.52 0 0 1 10.877.66a5.742 5.742 0 0 1 2.31 1.02 3.162 3.162 0 0 0 1.948.52h2.06a1.304 1.304 0 0 1 .997.317Zm-5.05-.023a.106.106 0 0 0-.01-.148l-.012-.01a6.645 6.645 0 0 0-3.76-1.223c-1.13.052-2.253.196-3.358.432a4.75 4.75 0 0 1-.243.044c-.182 0-.16.09-.16.09.024.136.363.227.363.227.742.224 5.608.538 7.056.632l.034.002a.118.118 0 0 0 .09-.046Z" clip-rule="evenodd" opacity=".6"/><path d="M13.163 2.448a.096.096 0 0 0-.044-.112.118.118 0 0 1 .045.09l-.001.022Zm-1.034.031-1.236-1.17a6.18 6.18 0 0 0-1.534-.197 20.58 20.58 0 0 0-3.357.432 4.79 4.79 0 0 1-.244.044c-.182 0-.16.09-.16.09.024.137.364.227.364.227.627.19 4.202.444 6.167.574Z" opacity=".05"/><path d="m12.132 2.48.921.06a.107.107 0 0 0 .113-.114.118.118 0 0 0-.045-.09 6.869 6.869 0 0 0-2.226-1.027l1.237 1.17Z" opacity=".2"/><path fill-rule="evenodd" d="m7.641 2.137-.577-.79.41-.065.582.892-.415-.037Z" clip-rule="evenodd"/><path d="M20.411 3.378c-.226-.476-1.2-.702-1.495-.725a1.069 1.069 0 0 1-.566-.25 1.495 1.495 0 0 0-1.155-.407h-2.062a2.86 2.86 0 0 1-1.812-.498 5.846 5.846 0 0 0-2.4-1.042 15.896 15.896 0 0 0-7.544 1.2 5.74 5.74 0 0 1-2.287-.498.19.19 0 0 0-.25.09c-.407.635-.203.907-.135.975a.174.174 0 0 0 .113.045c.196.02.384.09.544.204a1.196 1.196 0 0 0-.52.317.848.848 0 0 0-.024.748l.861 1.698a.022.022 0 0 0 .014.02.022.022 0 0 0 .008.003c.39.384.904.616 1.45.657h.478c.297.27.685.415 1.086.407a1.61 1.61 0 0 0 1.063-.407h9.775a1.626 1.626 0 0 0 2.25-.046h.547c1.79 0 1.948-.158 1.993-.203a.414.414 0 0 0 .113-.272.555.555 0 0 0-.09-.272l.068-.023a.19.19 0 0 0 .136-.18v-1.36a.16.16 0 0 0-.139-.18l-.02-.001ZM4.693 5.553a.86.86 0 1 1 .001-.001Zm11.1-.861Zm2.31.774a1.623 1.623 0 0 0 .082-1.408A1.654 1.654 0 0 0 15 4.666v.026c.002.287.08.568.226.816H8.891L8.362 3.2A.186.186 0 0 0 8 3.284l.51 2.224H6.12c.154-.254.24-.542.25-.838a1.694 1.694 0 0 0-1.677-1.631 1.63 1.63 0 0 0-1.63 1.627v.026c.008.287.09.567.235.815h-.123a1.917 1.917 0 0 1-1.132-.475l-.838-1.676a.512.512 0 0 1-.022-.362c.188-.138.405-.231.634-.272a.204.204 0 0 0 .136-.136.231.231 0 0 0-.045-.204 1.682 1.682 0 0 0-.906-.521.71.71 0 0 1 .09-.272 5.655 5.655 0 0 0 2.355.453.083.083 0 0 0 .068-.023A15.345 15.345 0 0 1 10.877.842a5.14 5.14 0 0 1 2.22.974 3.35 3.35 0 0 0 2.061.566h2.061c.312-.026.62.072.861.272.226.205.512.332.815.362.456.082.879.295 1.217.612h-.197v1.377a.202.202 0 0 0 .045.163c.068.068.136.18.16.204-.67.084-1.344.116-2.018.095v-.001Z"/></svg>