<svg viewBox="0 0 24 24" xmlns="http://www.w3.org/2000/svg"><path d="m6.171 7.579-3.595 3.605a1.974 1.974 0 0 0 0 2.787l3.605 3.605c.769.769 2.02.769 2.788 0l3.605-3.595a1.974 1.974 0 0 0 0-2.787L8.959 7.569a1.965 1.965 0 0 0-2.788.01Zm-1.507 4.294 2.217-2.216a.993.993 0 0 1 1.398 0l2.207 2.207a.981.981 0 0 1 0 1.388L8.269 15.47a.993.993 0 0 1-1.398 0l-2.207-2.197a.993.993 0 0 1 0-1.399ZM19.4 6.407a8.815 8.815 0 0 0-6.265-2.6v-.818c0-.877-1.064-1.32-1.684-.7L9.658 4.093a.98.98 0 0 0 0 1.389l1.803 1.802c.61.621 1.674.188 1.674-.689v-.818c1.99 0 3.97.848 5.368 2.571 2.02 2.482 2.02 6.176 0 8.658a6.88 6.88 0 0 1-7.623 2.177.983.983 0 0 0-1.005.256c-.493.493-.335 1.37.335 1.596a8.815 8.815 0 0 0 9.19-2.098 8.846 8.846 0 0 0 0-12.53Z"/></svg>