<svg viewBox="0 0 21 8" xmlns="http://www.w3.org/2000/svg"><path fill-rule="evenodd" d="m10.347 3.473-.388-1.71.404.025.375 1.71-.391-.025Z" clip-rule="evenodd"/><path fill-rule="evenodd" d="M19.134 4.152c.406-.017.812.035 1.2.152-.98-.83-3.543-1.194-4.279-1.282a.764.764 0 0 1-.354-.14 10.802 10.802 0 0 0-5.09-1.692 13.992 13.992 0 0 0-7.036 1.401.743.743 0 0 1-.356.07 5.3 5.3 0 0 0-1.491.11c-.066.027-.122.141-.167.3l.025.058.963.104a.234.234 0 0 1 .192.272c-.119.22-.293.406-.506.537 0 0 4.64.144 7.609.208 3.418.073 7.027.15 9.55.264-.204-.166-.332-.319-.26-.362Zm-5.771-.497c.76.047 1.3.075 1.415.066.325-.024.18-.236.016-.415a1.683 1.683 0 0 0-.392-.303 10.778 10.778 0 0 0-2.764-.999 9.775 9.775 0 0 0-2.91-.21c-2.502.22-3.112.598-3.134.99a.356.356 0 0 0 .34.347c1.052.08 7.429.524 7.429.524Z" clip-rule="evenodd" opacity=".6"/><path d="M3.68 2.589a14.027 14.027 0 0 1 7.037-1.398 13.993 13.993 0 0 0-7.037 1.4.744.744 0 0 1-.305.073.734.734 0 0 0 .305-.075ZM1.474 4.366a.781.781 0 0 1-.078.28c-.568 1.199.368 1.583.378 1.579a7.67 7.67 0 0 0 2.327.398 1.307 1.307 0 1 1 2.365.103c2.818.062 6.352-.02 9.206-.12a1.307 1.307 0 1 1 2.46-.096 244.47 244.47 0 0 0 1.95-.09.752.752 0 0 0 .708-.755v-.707a.99.99 0 0 0-.166-.386c.078.202.126.454-.12.454a2.557 2.557 0 0 1-1.112-.512c-2.522-.114-6.024-.19-9.443-.264-3.436-.073-8.44-.24-8.44-.24s-.004-.048-.035.356Zm1.824-1.704a5.972 5.972 0 0 0 0-.001Z" opacity=".8"/><path d="M5.68 3.007a.36.36 0 0 1-.09-.246c.09-.457.777-.766 3.278-.985a10.05 10.05 0 0 1 2.672.206c.515.465 1.28 1.17 1.82 1.67 0 0-6.397-.445-7.45-.524a.355.355 0 0 1-.23-.12Z" opacity=".05"/><path d="M13.362 3.655c.76.048 1.3.076 1.416.067.325-.024.18-.236.016-.416a1.692 1.692 0 0 0-.391-.302c-.9-.472-1.863-.816-2.86-1.019.515.465 1.28 1.17 1.82 1.67h-.001Z" opacity=".2"/><path d="m20.863 4.461-.002-.002-.001-.002a2.357 2.357 0 0 0-.967-.735c-.442-.2-.9-.358-1.37-.476-.77-.195-1.55-.34-2.338-.434a.554.554 0 0 1-.255-.102A11.041 11.041 0 0 0 10.738.98a14.239 14.239 0 0 0-7.153 1.418.525.525 0 0 1-.257.052 6.072 6.072 0 0 0-1.542.112l-.02.005-.02.008a.393.393 0 0 0-.177.163.985.985 0 0 0-.087.196c-.05.158-.088.318-.113.481-.06.346-.092.73-.108.932a.571.571 0 0 1-.056.204l-.002.003a1.406 1.406 0 0 0-.012 1.448 1.182 1.182 0 0 0 .49.413l.012.005a4.49 4.49 0 0 0 1.24.297c.247.034.528.061.824.087a1.702 1.702 0 0 0 2.975.257c.025-.038.036-.083.058-.123 1.14.02 2.365.022 3.624.007 1.683-.02 3.389-.067 4.927-.12a1.677 1.677 0 0 0 3.135-.12c.66-.03 1.216-.056 1.615-.076h.002a.964.964 0 0 0 .906-.966V4.96a.888.888 0 0 0-.136-.498ZM5.306 7.007a.9.9 0 1 1 0-1.8.9.9 0 0 1 0 1.8Zm11.579 0a.9.9 0 1 1 .635-.263.9.9 0 0 1-.636.263Zm3.692-2.054v.712a.541.541 0 0 1-.508.543c-.375.02-.89.043-1.497.07.01-.055.019-.11.025-.168a1.712 1.712 0 1 0-3.395.298c-1.29.043-2.69.081-4.098.104L10.92 5a.212.212 0 0 0-.42.051l.18 1.468-.271.005c-1.15.015-2.3.014-3.45-.004a1.706 1.706 0 1 0-3.334-.15 15.025 15.025 0 0 1-.635-.07 4.037 4.037 0 0 1-1.123-.264l-.095-.048-.025-.015a.76.76 0 0 1-.205-.204.993.993 0 0 1 .043-1.03.994.994 0 0 0 .098-.356V4.38c.015-.2.047-.568.103-.894.022-.14.054-.28.097-.417a.634.634 0 0 1 .043-.104 5.7 5.7 0 0 1 1.38-.094c.16.009.32-.023.464-.094a13.818 13.818 0 0 1 6.92-1.379c1.776.125 3.492.694 4.99 1.653a.976.976 0 0 0 .452.18h.002c.769.092 1.531.233 2.282.423.444.111.878.262 1.296.45.31.125.584.326.795.585a.467.467 0 0 1 .07.26v.004Z"/></svg>