<svg viewBox="0 0 24 24" xmlns="http://www.w3.org/2000/svg"><path d="M13.65 22h-3.3a.745.745 0 0 1-.488-.175.735.735 0 0 1-.262-.45l-.4-2.525a6.702 6.702 0 0 1-1-.475c-.35-.2-.659-.408-.925-.625L4.95 18.825a.743.743 0 0 1-.55.038.725.725 0 0 1-.425-.363l-1.65-2.925a.65.65 0 0 1-.075-.525.834.834 0 0 1 .3-.45l2.15-1.575a2.972 2.972 0 0 1-.063-.513A11.94 11.94 0 0 1 4.625 12c0-.15.004-.32.012-.512s.03-.363.063-.513L2.55 9.4a.834.834 0 0 1-.3-.45.65.65 0 0 1 .075-.525L3.975 5.5a.725.725 0 0 1 .425-.362.743.743 0 0 1 .55.037L7.275 6.25a6.87 6.87 0 0 1 .925-.625c.35-.2.683-.35 1-.45l.4-2.55a.735.735 0 0 1 .262-.45A.745.745 0 0 1 10.35 2h3.3c.183 0 .345.058.487.175.142.117.23.267.263.45l.4 2.525a8.1 8.1 0 0 1 1.012.462c.358.192.663.405.913.638l2.325-1.075a.743.743 0 0 1 .55-.037.725.725 0 0 1 .425.362l1.65 2.9c.1.167.129.346.087.537a.74.74 0 0 1-.312.463l-2.15 1.525c.033.167.054.346.062.537a12.473 12.473 0 0 1 0 1.063c-.008.183-.03.358-.062.525l2.15 1.55c.15.117.25.267.3.45a.65.65 0 0 1-.075.525l-1.65 2.925a.725.725 0 0 1-.425.363.743.743 0 0 1-.55-.038l-2.325-1.075a8.08 8.08 0 0 1-.913.637 4.36 4.36 0 0 1-1.012.463l-.4 2.525a.735.735 0 0 1-.263.45.745.745 0 0 1-.487.175ZM12 15.25c.9 0 1.666-.317 2.3-.95.633-.633.95-1.4.95-2.3 0-.9-.317-1.667-.95-2.3a3.133 3.133 0 0 0-2.3-.95c-.9 0-1.667.317-2.3.95a3.13 3.13 0 0 0-.95 2.3c0 .9.316 1.667.95 2.3.633.633 1.4.95 2.3.95Z"/></svg>