<svg viewBox="0 0 24 24" xmlns="http://www.w3.org/2000/svg"><path fill-rule="evenodd" d="M13.26 13.657a.92.92 0 0 1-.918.918.92.92 0 0 1-.918-.918V4.48H9.783a.459.459 0 0 1-.33-.78l2.56-2.561a.454.454 0 0 1 .652 0l2.56 2.56a.454.454 0 0 1-.32.78H13.26v9.18Zm2.754-6.425h1.836c1.01 0 1.836.826 1.836 1.836v10.096c0 1.01-.826 1.836-1.836 1.836H6.836A1.841 1.841 0 0 1 5 19.164V9.068c0-1.01.826-1.836 1.836-1.836H8.67a.92.92 0 0 1 .918.918.92.92 0 0 1-.918.918H6.836v10.096H17.85V9.068h-1.836a.92.92 0 0 1-.918-.918.92.92 0 0 1 .918-.918Z" clip-rule="evenodd"/></svg>