<svg viewBox="0 0 22 9" xmlns="http://www.w3.org/2000/svg"><path d="M1.58 4.802c.005-.003.884-.63 1-1 .053-.17-.107-.276-.297-.342l16.744.946a.227.227 0 0 0 .094.14c.365.33.803.568 1.278.697a.206.206 0 0 0 .278-.162.149.149 0 0 0 0-.14c.08.413.095.837.047 1.255a.552.552 0 0 1-.372.465 6.78 6.78 0 0 1-.937.196 1.417 1.417 0 1 0-2.774.237c-1.962.087-4.866.1-9.16-.061 0 0-.274-.006-.705-.02a1.417 1.417 0 1 0-2.792-.129 8.442 8.442 0 0 1-2.496-.363A1.47 1.47 0 0 1 1.58 4.8Z" opacity=".8"/><path fill-rule="evenodd" d="M1.799 3.36c.163.016.324.049.48.099l16.743.946a.206.206 0 0 1 0-.093.235.235 0 0 1 .277-.186h.003l1.07.094c.115 0 .237.1.185.023-.395-.511-4.02-.93-4.856-1.022a.51.51 0 0 1-.278-.117 9.835 9.835 0 0 0-3.671-1.788c-2.44-.65-9.34 0-9.34 0l.07.07a.533.533 0 0 1 .094.65c-.24.37-.583.965-.777 1.325Zm1.357-.697c-.163.186.046.418.278.418.832.05 2.504.157 4.31.272 3.24.206 6.913.44 6.958.425.07-.023-1.394-1.998-5.158-2.137a34.342 34.342 0 0 0-4.507-.024c-.74.09-1.415.465-1.881 1.046Z" clip-rule="evenodd" opacity=".6"/><path d="M3.159 2.664c-.162.186.047.418.28.418.83.05 2.503.157 4.31.272 1.782.113 3.696.235 5.064.32l-1.43-1.753-.043-.052a9.745 9.745 0 0 0-1.792-.227 34.338 34.338 0 0 0-4.507-.023c-.74.09-1.415.464-1.882 1.045Z" opacity=".05"/><path d="M12.819 3.678c1.115.07 1.777.098 1.883.098.07-.024-.944-1.374-3.36-1.908l1.477 1.81Z" opacity=".2"/><path fill-rule="evenodd" d="m10.634 3.574-.274-1.892.43.057.244 1.835h-.4Zm-4.218-.296.33-1.706.415.005-.337 1.727-.408-.026Z" clip-rule="evenodd"/><path d="M20.723 4.104c-.395-.51-2.927-.882-4.995-1.115a.264.264 0 0 1-.186-.07 9.9 9.9 0 0 0-3.717-1.812c-2.463-.65-9.153-.046-9.432-.023a.36.36 0 0 0-.186.14.178.178 0 0 0 .046.208l.07.07a.292.292 0 0 1 .047.395c-.279.465-.86 1.464-.953 1.627 0 .023-.023.046-.023.07-.024.25 0 .502.07.743a.353.353 0 0 1-.07.302A1.515 1.515 0 0 0 1 5.754a1.139 1.139 0 0 0 .325.883 6.381 6.381 0 0 0 2.242.407 1.85 1.85 0 0 0 3.597.186c.11.005.211.01.295.01 2.44.093 4.414.14 6.04.14.922.002 1.843-.015 2.764-.051a1.85 1.85 0 0 0 3.571-.332c.19-.031.379-.074.564-.128a.817.817 0 0 0 .535-.628 3.365 3.365 0 0 0-.209-2.137ZM5.39 7.682a.976.976 0 1 1 0-1.952.976.976 0 0 1 0 1.952Zm12.615 0a.976.976 0 1 1 0-1.952.976.976 0 0 1 0 1.952Zm2.51-1.51a.327.327 0 0 1-.233.279c-.143.04-.288.074-.434.104a1.854 1.854 0 0 0-3.702.152c.003.067.01.135.02.202-1.235.047-2.81.06-4.82.024l-.197-2.104a.207.207 0 0 0-.408-.045.208.208 0 0 0-.006.083l.193 2.058c-1.15-.024-2.298-.058-3.447-.102-.084 0-.164-.008-.244-.01.002-.035.011-.07.011-.106a1.856 1.856 0 0 0-.915-1.592l.122-.77a.208.208 0 0 0-.41-.064l-.105.66a1.821 1.821 0 0 0-.55-.093 1.86 1.86 0 0 0-1.85 1.78 6.258 6.258 0 0 1-1.914-.293.827.827 0 0 1-.186-.58c-.009-.296.09-.586.28-.814a.746.746 0 0 0 .185-.72 1.98 1.98 0 0 1-.07-.534c.093-.186.557-1 .906-1.557a.768.768 0 0 0 .046-.674c1.487-.093 6.877-.488 8.921.046a9.25 9.25 0 0 1 3.555 1.743c.11.096.249.154.395.163 2.997.325 4.553.72 4.716.952.243.572.292 1.209.14 1.812Z"/></svg>