<svg viewBox="0 0 22 9" xmlns="http://www.w3.org/2000/svg"><path d="M20.83 5.176V6.72a.663.663 0 0 1-.661.663h-2.014a1.304 1.304 0 1 0-2.58 0H6.55a1.304 1.304 0 1 0-2.58 0H1.875a.662.662 0 0 1-.662-.662v-.94H1.5a.629.629 0 0 0 .684-.52c.04-.227.055-.457.043-.687h16.879c.059.133.146.25.255.346a.912.912 0 0 0 .42.234c.26.058.528.077.794.055a.205.205 0 0 0 .184-.224c-.001-.018.073.002.072.191Z" opacity=".8"/><path fill-rule="evenodd" d="M20.136 3.97a1.43 1.43 0 0 0-.77-.227H17.3l-2.55-2.17a1.92 1.92 0 0 0-1.25-.467H9.38a.583.583 0 0 0-.583.583v2.048h-6.95a.662.662 0 0 0-.662.662v.174h.152V4.39s.817.002.892.177v.007H19.11a.822.822 0 0 1-.021-.069.205.205 0 0 1 .192-.27h1.033a.205.205 0 0 1 .196.133l.075.206h.077a1.432 1.432 0 0 0-.527-.605Zm-4.076-.274a.128.128 0 0 1-.115.083h-1.082l-.008-.008-4.966-.034a.22.22 0 0 1-.22-.22v-1.39a.22.22 0 0 1 .22-.22h3.807c.249 0 .49.087.68.248l1.653 1.403a.128.128 0 0 1 .03.14v-.002Z" clip-rule="evenodd" opacity=".6"/><path fill-rule="evenodd" d="M9.67 3.516v-1.39a.22.22 0 0 1 .22-.22h2.94c.678.62 1.353 1.242 2.026 1.866L9.89 3.737a.22.22 0 0 1-.22-.22Z" clip-rule="evenodd" opacity=".05"/><path d="M14.376 2.154a1.05 1.05 0 0 0-.68-.249h-.868c.6.55 1.422 1.302 2.035 1.874h1.082a.128.128 0 0 0 .123-.133l-.003-.024a.127.127 0 0 0-.037-.064l-1.652-1.404Z" opacity=".2"/><path fill-rule="evenodd" d="M11.637 3.753V1.906h.395v1.847h-.395Z" clip-rule="evenodd"/><path d="M20.884 4.55a1.628 1.628 0 0 0-1.513-1.01h-1.993l-2.493-2.117A2.116 2.116 0 0 0 13.508.91H9.385a.78.78 0 0 0-.78.78v1.85H1.852a.86.86 0 0 0-.86.86v2.322a.86.86 0 0 0 .86.86h1.733a1.695 1.695 0 0 0 3.314 0h8.284a1.694 1.694 0 0 0 3.314 0h1.65a.86.86 0 0 0 .86-.86V5.178a1.627 1.627 0 0 0-.123-.628ZM5.237 8.086a.899.899 0 1 1 0-1.797.899.899 0 0 1 0 1.797Zm11.605 0a.9.9 0 1 1 .344-.068.899.899 0 0 1-.345.068h.001Zm3.77-2.909v1.546a.465.465 0 0 1-.466.464h-1.592a1.707 1.707 0 0 0-1.666-1.786 1.705 1.705 0 0 0-1.742 1.713v.073h-3.145V4.99a.167.167 0 0 0-.333 0v2.197h-4.71a1.71 1.71 0 0 0-1.71-1.71h-.01a1.665 1.665 0 0 0-1.69 1.64v.07H1.852a.465.465 0 0 1-.464-.464V4.401a.464.464 0 0 1 .464-.464h6.95A.198.198 0 0 0 9 3.739V1.69a.385.385 0 0 1 .385-.385h4.122c.411.002.809.15 1.12.418h.001l2.55 2.166c.036.03.08.047.127.047h2.067a1.231 1.231 0 0 1 1.238 1.227v.014Z"/></svg>