<svg viewBox="0 0 24 24" xmlns="http://www.w3.org/2000/svg"><path d="M9.004 18.035c6.055 0 9.356-5.024 9.356-9.356v-.42A6.644 6.644 0 0 0 20 6.556a6.998 6.998 0 0 1-1.892.525 3.323 3.323 0 0 0 1.45-1.829 6.582 6.582 0 0 1-2.081.8A3.256 3.256 0 0 0 15.08 5a3.293 3.293 0 0 0-3.3 3.3c0 .253.02.506.083.758a9.416 9.416 0 0 1-6.79-3.448 3.355 3.355 0 0 0-.442 1.64c0 1.135.588 2.144 1.471 2.733a3.239 3.239 0 0 1-1.492-.42v.041a3.273 3.273 0 0 0 2.649 3.217 2.949 2.949 0 0 1-.862.126c-.21 0-.42-.02-.61-.063a3.332 3.332 0 0 0 3.07 2.292 6.612 6.612 0 0 1-4.08 1.409c-.272 0-.525-.021-.777-.042a9.041 9.041 0 0 0 5.004 1.492Z"/></svg>