<svg viewBox="0 0 20 11" xmlns="http://www.w3.org/2000/svg"><path d="M19.263 4.892a4.287 4.287 0 0 1-.946-.692H.974c0 .055-.002.109-.006.162C.915 4.786.875 5.537.85 6.03l-.02.36a.149.149 0 0 1-.139.138l-.3.046c-.092 0-.16-.046-.16-.14H.207v1.729a.62.62 0 0 0 .618.623h2.226a1.383 1.383 0 1 1 2.746 0h9.396a1.384 1.384 0 1 1 2.746 0h1.024a.846.846 0 0 0 .853-.83v-2.12a1.038 1.038 0 0 0-.047-.23.266.266 0 0 1-.255.277h-.643a1.051 1.051 0 0 1-.968-.67.173.173 0 0 1-.023-.114.263.263 0 0 1 .27-.254h.007l1.106.047Z" opacity=".8"/><path fill-rule="evenodd" d="M18.088 3.947a8.04 8.04 0 0 0-2.443-2.143 5.264 5.264 0 0 0-2.695-.668l-11.245.069a.766.766 0 0 0-.76.622L.568 3.513a.138.138 0 0 1 .17-.073.153.153 0 0 1 .115.092c.077.214.118.44.12.668h17.368a2.11 2.11 0 0 1-.253-.253ZM1.475 1.919l-.369 1.407a.212.212 0 0 0 .161.253h15.208a.061.061 0 0 0 .07-.07v-.023a4.025 4.025 0 0 0-2.858-1.705c-1.467-.114-7.692-.087-10.624-.074l-1.335.005a.293.293 0 0 0-.253.207Z" clip-rule="evenodd" opacity=".6"/><path d="m1.107 3.325.369-1.406a.293.293 0 0 1 .253-.207c.252 0 .717-.01 1.33-.012 2.933-.012 9.162-.033 10.629.08a3.84 3.84 0 0 1 2.336 1.1 3.803 3.803 0 0 0-2.29-1.076 9.552 9.552 0 0 0-1.03-.066c.42.375.86.818 1.3 1.232.22.207.45.413.662.609H1.269a.212.212 0 0 1-.162-.253v-.001Z" opacity=".05"/><path d="m14.661 3.576 1.814.002a.06.06 0 0 0 .07-.052v-.04a4.013 4.013 0 0 0-2.757-1.695 10.148 10.148 0 0 0-1.093-.051c.646.576 1.32 1.236 1.965 1.835h.001Z" opacity=".2"/><path fill-rule="evenodd" d="M5.209 3.578v-1.89h.412v1.89h-.412Zm6.106 0v-1.89h.412v1.89h-.412Z" clip-rule="evenodd"/><path d="M19.355 4.707a4.522 4.522 0 0 1-1.106-.875 8.564 8.564 0 0 0-2.511-2.213 5.648 5.648 0 0 0-2.811-.69L1.705.998a1.006 1.006 0 0 0-.967.783L.046 4.938a.332.332 0 0 0-.046.16V8.14a.826.826 0 0 0 .823.83H2.66a1.783 1.783 0 0 0 1.787 1.475 1.829 1.829 0 0 0 1.776-1.452h8.587a1.77 1.77 0 0 0 1.78 1.452 1.797 1.797 0 0 0 1.766-1.498h.584a1.11 1.11 0 0 0 .738-.3c.198-.196.313-.46.322-.737V5.79a1.165 1.165 0 0 0-.645-1.083ZM4.425 9.569a.934.934 0 0 1-.945-.924v-.02a.945.945 0 1 1 .945.944Zm12.142 0a.934.934 0 0 1-.945-.924v-.02a.92.92 0 0 1 .896-.945h.05a.945.945 0 1 1-.001 1.889Zm3.018-1.636a.63.63 0 0 1-.644.622h-.562a1.828 1.828 0 0 0-1.623-1.71v-1.47a.19.19 0 0 0-.378 0v1.47a1.78 1.78 0 0 0-1.604 1.756H11.71V5.376a.19.19 0 0 0-.378 0v3.226H6.265a1.83 1.83 0 0 0-.65-1.33l-.011-1.76a.189.189 0 1 0-.378 0v1.505a1.788 1.788 0 0 0-2.593 1.562H.83a.413.413 0 0 1-.415-.411V5.123a.085.085 0 0 1 .024-.07l.69-3.202a.584.584 0 0 1 .553-.46l11.245-.07h.069c.878.003 1.74.225 2.511.645a8.072 8.072 0 0 1 2.396 2.12c.348.39.762.718 1.222.968a.883.883 0 0 1 .46.76v2.119Z"/></svg>