<svg viewBox="0 0 24 24" xmlns="http://www.w3.org/2000/svg"><path d="M12 7.302a4.547 4.547 0 0 1 4.546 4.546c0 .463-.091.909-.219 1.327l2.782 2.782A10.73 10.73 0 0 0 22 11.839c-1.573-3.982-5.454-6.81-10-6.81a10.76 10.76 0 0 0-3.31.519l1.974 1.972A4.674 4.674 0 0 1 12 7.302ZM3.555 4.266a.905.905 0 0 0 0 1.282l1.79 1.79A10.81 10.81 0 0 0 2 11.849c1.573 3.99 5.455 6.818 10 6.818 1.382 0 2.7-.273 3.918-.745l2.473 2.472a.905.905 0 1 0 1.282-1.282L4.845 4.266a.916.916 0 0 0-1.29 0ZM12 16.393a4.547 4.547 0 0 1-4.545-4.545c0-.7.163-1.364.445-1.946l1.427 1.428a3.123 3.123 0 0 0-.054.518A2.724 2.724 0 0 0 12 14.575c.182 0 .345-.027.518-.064l1.427 1.428a4.376 4.376 0 0 1-1.945.454Zm2.7-4.845a2.7 2.7 0 0 0-2.4-2.4l2.4 2.4Z"/></svg>