<svg viewBox="0 0 21 8" xmlns="http://www.w3.org/2000/svg"><path d="M18.71 3.49 1.194 3.088c.018.048.027.1.027.152l-.027.855c.003.02.003.04 0 .06-.03.074-.13.22-.45.18a.202.202 0 0 1-.172-.201l-.104.263s-.055.046-.187.143c-.096.068-.09.468-.079.688a.4.4 0 0 0 .117.27c.641.64 2.545.64 2.545.64l.7.098a1.099 1.099 0 1 1 1.825.049h7.41s1.32-.013 2.756-.03a1.099 1.099 0 1 1 1.85-.024 64.09 64.09 0 0 0 1.694-.037c.098-.007.195-.026.288-.057a.66.66 0 0 0 .424-.622v-.468a1.093 1.093 0 0 0-.036-.32l-.006-.003c-1.068 0-1.446-.387-1.58-.66a.19.19 0 0 1 .167-.274h.91a2.263 2.263 0 0 0-.56-.303l.002.005Z" opacity=".8"/><path d="M10.282 1.424c-.339-.036-.679-.06-1.02-.07-1.225-.044-4.641.09-5.402.129a1.38 1.38 0 0 0-1.32.723c-.41.565.513.625.513.625l5.917.182s1.646.026 3.088.046a452.007 452.007 0 0 0-1.776-1.635Z" opacity=".05"/><path d="M12.06 3.058c1.127.016 2.131.027 2.122.018a7.033 7.033 0 0 0-3.9-1.653c.542.497 1.221 1.12 1.777 1.635Z" opacity=".2"/><path fill-rule="evenodd" d="M14.887 2.686a1.985 1.985 0 0 1-.134-.01 7.943 7.943 0 0 0-3.915-1.662A29.923 29.923 0 0 0 6.114.933C5.67.95 5.28.966 4.964.968c-.966.028-1.93.113-2.885.255a.196.196 0 0 1-.07.303L.846 2.676a.935.935 0 0 0-.029.2.97.97 0 0 1-.028.202l17.92.413c-.897-.613-3.235-.766-3.822-.805Zm-.875.393c-.332 0-1.108-.01-1.954-.02-1.442-.02-3.088-.047-3.088-.047L3.053 2.83s-.923-.06-.512-.624a1.38 1.38 0 0 1 1.318-.724c.76-.036 4.176-.173 5.403-.126.304.01.647.027 1.018.069v-.002c.351.033.7.094 1.043.18a7.717 7.717 0 0 1 2.856 1.473h.002a1.646 1.646 0 0 1-.17.004l.001-.001Z" clip-rule="evenodd" opacity=".6"/><path fill-rule="evenodd" d="m4.918 2.889.467-1.473.368-.012-.443 1.495-.392-.01Zm4.326.133-.36-1.68.403.007.345 1.673h-.388Z" clip-rule="evenodd"/><path fill-rule="evenodd" d="M19.938 4.602a.552.552 0 0 0-.131-.18 1.816 1.816 0 0 1-.15-.385l-.002-.007a.808.808 0 0 0-.265-.393 3.585 3.585 0 0 0-1.15-.517 14.883 14.883 0 0 0-1.515-.35 29.487 29.487 0 0 0-1.77-.267l-.018-.002-.097-.013a8.14 8.14 0 0 0-3.974-1.67h-.003a31.185 31.185 0 0 0-4.731-.08A32.23 32.23 0 0 1 4.965.77h-.006c-.973.028-1.944.114-2.907.257a.197.197 0 0 0-.124.32.195.195 0 0 0-.057.038L.71 2.534a1.31 1.31 0 0 0-.392.95c-.01.21-.003.42.02.63l.006.072c.001.02 0 .041-.002.062l-.006.005-.031.024-.137.104a.302.302 0 0 0-.092.11.51.51 0 0 0-.038.106 1.241 1.241 0 0 0-.03.217c-.008.14-.008.281 0 .422a.598.598 0 0 0 .173.402c.214.193.468.335.745.417.287.091.581.158.88.198.322.045.646.072.972.08h.073l.43.06a1.423 1.423 0 0 0 2.392.089h7.13l.25-.003 2.242-.024c.046.076.1.148.159.214a1.44 1.44 0 0 0 2.215-.217c.006-.01.008-.02.014-.028a57.01 57.01 0 0 0 1.432-.033c.115-.008.228-.03.337-.067l.004-.001.003-.002a.856.856 0 0 0 .55-.806v-.47a1.09 1.09 0 0 0-.07-.444h-.001ZM4.5 6.408a.756.756 0 1 1 0-1.512.756.756 0 0 1 0 1.512Zm11.973 0a.756.756 0 1 1 0-1.512.756.756 0 0 1 0 1.512Zm3.142-.892a.466.466 0 0 1-.295.436.96.96 0 0 1-.234.047c-.127.008-.604.018-1.232.029a1.437 1.437 0 1 0-2.796-.097c.01.047.034.088.047.133l-2.058.022-.25.002h-2.664c0-.007.006-.013.005-.02l-.24-1.64a.18.18 0 1 0-.356.053l.235 1.607H5.87a1.437 1.437 0 0 0-1.367-1.876H4.5a1.44 1.44 0 0 0-1.41 1.722c.003.013.01.025.014.038l-.212-.03-.028-.002h-.078a7.811 7.811 0 0 1-.925-.077 4.748 4.748 0 0 1-.81-.182 1.54 1.54 0 0 1-.592-.322.204.204 0 0 1-.06-.138v-.003a3.505 3.505 0 0 1 0-.378.872.872 0 0 1 .02-.147l.004-.012a5.79 5.79 0 0 0 .124-.094L.58 4.56l.02-.014a.304.304 0 0 0 .076-.085.514.514 0 0 0 .06-.294 2.09 2.09 0 0 0-.01-.121 3.427 3.427 0 0 1-.016-.54.927.927 0 0 1 .254-.673l.015-.013 1.148-1.134a.392.392 0 0 0 .193-.3 24.329 24.329 0 0 1 2.647-.22c.335 0 .746-.016 1.213-.034a30.417 30.417 0 0 1 4.636.078 7.748 7.748 0 0 1 3.82 1.62l.06.033.032.008h.008l.008.003.037.005.105.013.018.002.425.056c.352.047.824.117 1.323.208.497.087.989.2 1.474.34.361.09.705.24 1.016.446a.42.42 0 0 1 .135.198c.046.173.113.34.199.498.01.017.02.032.035.046l.02.02c.02.015.036.035.047.058.03.091.043.188.036.285v.467Z" clip-rule="evenodd"/></svg>