<svg viewBox="0 0 24 24" xmlns="http://www.w3.org/2000/svg"><path d="M2.406 10.406c.492.492 1.273.54 1.804.096 4.506-3.705 11.049-3.705 15.564-.01a1.36 1.36 0 0 0 1.824-.086 1.37 1.37 0 0 0-.096-2.026c-5.51-4.507-13.48-4.507-19 0a1.362 1.362 0 0 0-.096 2.026Zm7.488 7.488 1.418 1.418a.96.96 0 0 0 1.36 0l1.419-1.418c.454-.454.357-1.235-.222-1.534a4.13 4.13 0 0 0-3.773 0c-.55.299-.656 1.08-.202 1.534Zm-3.6-3.6a1.362 1.362 0 0 0 1.766.126 6.816 6.816 0 0 1 7.874 0c.55.386 1.293.348 1.766-.125l.01-.01c.578-.579.54-1.563-.126-2.036a9.561 9.561 0 0 0-11.174 0c-.666.482-.704 1.457-.116 2.046Z"/></svg>