<svg viewBox="0 0 24 24" xmlns="http://www.w3.org/2000/svg"><path d="M19.774 11.81c.54.444 1.332.405 1.824-.087a1.37 1.37 0 0 0-.096-2.026c-3.465-2.838-7.914-3.89-12.113-3.147l2.5 2.5c2.79-.029 5.598.888 7.885 2.76Zm-2.19 1.766a8.96 8.96 0 0 0-2.433-1.254l2.847 2.847c.232-.56.097-1.226-.415-1.593Zm-3.707 4.112a4.131 4.131 0 0 0-3.773 0c-.57.299-.676 1.08-.222 1.534l1.418 1.419a.961.961 0 0 0 1.361 0l1.419-1.419c.473-.453.376-1.235-.203-1.534Zm5.53 1.611L4.39 4.282a.961.961 0 1 0-1.36 1.361l2.258 2.268a14.536 14.536 0 0 0-2.79 1.786 1.37 1.37 0 0 0-.096 2.026 1.34 1.34 0 0 0 1.805.097 12.243 12.243 0 0 1 3.136-1.863l2.153 2.152a9.295 9.295 0 0 0-3.08 1.458c-.665.482-.704 1.457-.125 2.036l.01.01a1.362 1.362 0 0 0 1.766.125 6.886 6.886 0 0 1 3.832-1.245l6.147 6.148a.961.961 0 0 0 1.361 0 .938.938 0 0 0 0-1.341Z"/></svg>