<svg viewBox="0 0 24 24" xmlns="http://www.w3.org/2000/svg"><path d="M15.499 14h-.79l-.28-.27a6.5 6.5 0 0 0 1.48-5.34c-.47-2.78-2.79-5-5.59-5.34-4.23-.52-7.78 3.04-7.27 7.27.34 2.8 2.56 5.12 5.34 5.59a6.5 6.5 0 0 0 5.34-1.48l.27.28v.79l4.26 4.25c.41.41 1.07.41 1.48 0l.01-.01c.41-.41.41-1.07 0-1.48L15.499 14Zm-6 0c-2.49 0-4.5-2.01-4.5-4.5S7.009 5 9.499 5s4.5 2.01 4.5 4.5-2.01 4.5-4.5 4.5Zm0-7c-.28 0-.5.22-.5.5V9h-1.5c-.28 0-.5.22-.5.5s.22.5.5.5h1.5v1.5c0 .28.22.5.5.5s.5-.22.5-.5V10h1.5c.28 0 .5-.22.5-.5s-.22-.5-.5-.5h-1.5V7.5c0-.28-.22-.5-.5-.5Z"/></svg>