<svg width="221" height="217" viewBox="0 0 221 217" fill="none" xmlns="http://www.w3.org/2000/svg">
<rect y="42.5015" width="145" height="166.69" rx="6" transform="rotate(-17.0443 0 42.5015)" fill="white"/>
<rect x="0.499676" y="42.7662" width="144.2" height="165.89" rx="5.6" transform="rotate(-17.0443 0.499676 42.7662)" stroke="#3F3D56" stroke-width="0.8"/>
<path d="M140.536 49.7556H81.413C80.0657 49.7572 78.7741 50.2932 77.8214 51.2459C76.8687 52.1986 76.3327 53.4902 76.3311 54.8375V186.239L75.6535 186.445L61.1497 190.887C60.4624 191.097 59.7199 191.025 59.0854 190.688C58.4508 190.35 57.9761 189.775 57.7653 189.088L14.6231 48.1667C14.4132 47.4793 14.4848 46.7367 14.8221 46.102C15.1594 45.4674 15.735 44.9926 16.4222 44.7821L38.7725 37.9385L103.567 18.1055L125.917 11.2618C126.257 11.1572 126.615 11.1206 126.969 11.1542C127.323 11.1878 127.667 11.291 127.982 11.4577C128.296 11.6245 128.574 11.8517 128.801 12.1262C129.027 12.4007 129.198 12.7171 129.302 13.0574L140.329 49.078L140.536 49.7556Z" fill="#F2F2F2"/>
<path d="M42.8065 44.8929C42.1535 44.8924 41.5179 44.6827 40.9928 44.2945C40.4677 43.9063 40.0809 43.36 39.8891 42.7359L35.5253 28.4822C35.408 28.0993 35.3673 27.6971 35.4055 27.2985C35.4437 26.8999 35.5601 26.5127 35.7479 26.1591C35.9358 25.8055 36.1915 25.4923 36.5004 25.2375C36.8093 24.9827 37.1654 24.7913 37.5483 24.6741L97.1553 6.42537C97.9286 6.18941 98.7639 6.26989 99.4778 6.64913C100.192 7.02838 100.726 7.67541 100.964 8.44821L105.327 22.702C105.563 23.4753 105.483 24.3105 105.103 25.0245C104.724 25.7384 104.077 26.2728 103.305 26.5103L43.6973 44.759C43.4087 44.8476 43.1085 44.8927 42.8065 44.8929V44.8929Z" fill="#274B9F"/>
<rect x="75.2441" y="49.5908" width="145" height="166.69" rx="6" fill="white"/>
<rect x="75.6441" y="49.9903" width="144.2" height="165.89" rx="5.6" stroke="#3F3D56" stroke-width="0.8"/>
<path d="M65.6655 16.8184C69.4077 16.8184 72.4414 13.7847 72.4414 10.0425C72.4414 6.30027 69.4077 3.2666 65.6655 3.2666C61.9233 3.2666 58.8896 6.30027 58.8896 10.0425C58.8896 13.7847 61.9233 16.8184 65.6655 16.8184Z" fill="#274B9F"/>
<path d="M65.6657 14.3333C68.0354 14.3333 69.9564 12.4123 69.9564 10.0426C69.9564 7.67296 68.0354 5.75195 65.6657 5.75195C63.296 5.75195 61.375 7.67296 61.375 10.0426C61.375 12.4123 63.296 14.3333 65.6657 14.3333Z" fill="white"/>
<path d="M205.412 198.825H90.8993C90.1358 198.824 89.4038 198.52 88.864 197.981C88.3241 197.441 88.0204 196.709 88.0195 195.945V58.7338C88.0204 57.9703 88.3241 57.2383 88.8639 56.6984C89.4038 56.1585 90.1358 55.8549 90.8993 55.854H205.412C206.175 55.8549 206.907 56.1586 207.447 56.6984C207.987 57.2383 208.29 57.9703 208.291 58.7338V195.945C208.29 196.709 207.987 197.441 207.447 197.981C206.907 198.52 206.175 198.824 205.412 198.825V198.825Z" fill="#E6E6E6"/>
<path d="M179.325 63.9847H116.987C116.178 63.9838 115.403 63.6623 114.832 63.0906C114.26 62.519 113.938 61.744 113.938 60.9356V46.0286C113.938 45.2202 114.26 44.4452 114.832 43.8736C115.403 43.3019 116.178 42.9804 116.987 42.9795H179.325C180.133 42.9804 180.908 43.3019 181.48 43.8736C182.051 44.4452 182.373 45.2202 182.374 46.0286V60.9356C182.373 61.744 182.051 62.519 181.48 63.0906C180.908 63.6623 180.133 63.9838 179.325 63.9847V63.9847Z" fill="#274B9F"/>
<path d="M148.156 43.9961C151.898 43.9961 154.932 40.9624 154.932 37.2202C154.932 33.478 151.898 30.4443 148.156 30.4443C144.414 30.4443 141.38 33.478 141.38 37.2202C141.38 40.9624 144.414 43.9961 148.156 43.9961Z" fill="#274B9F"/>
<path d="M148.155 41.3475C150.435 41.3475 152.283 39.4998 152.283 37.2204C152.283 34.941 150.435 33.0933 148.155 33.0933C145.876 33.0933 144.028 34.941 144.028 37.2204C144.028 39.4998 145.876 41.3475 148.155 41.3475Z" fill="white"/>
</svg>
