<svg width="359" height="174" viewBox="0 0 359 174" fill="none" xmlns="http://www.w3.org/2000/svg">
<path d="M9.25391 131.964C19.696 137.664 41.4429 150.336 44.8933 155.421" stroke="#43494A" stroke-width="1.56435"/>
<path d="M203.571 104.658C204 104.128 205.614 103.523 208.641 105.339L214.922 108.895C215.098 109.071 215.466 109.636 215.527 110.484V120.018C215.552 120.396 215.376 121.274 214.467 121.758L205.312 126.828C204.883 126.954 203.935 127.131 203.571 126.828C202.724 125.738 201.957 125.063 201.68 124.861" stroke="#43494A" stroke-width="1.56435"/>
<path d="M208.869 106.624C202.271 102.024 200.773 106.523 200.848 109.348V123.12C200.848 126.873 206.196 124.684 208.869 123.12C211.412 122.091 212.451 120.169 212.652 119.337V110.862C212.592 109.046 210.105 107.28 208.869 106.624Z" stroke="#43494A" stroke-width="1.56435"/>
<path d="M187.604 132.721C191.337 132.964 200.453 131.984 200.694 124.406V104.643C199.967 101.972 195.136 97.3533 187.679 98.519" stroke="#43494A" stroke-width="1.56435"/>
<path d="M149.903 107.07L149.864 101.144C149.854 99.4647 151.212 98.0977 152.891 98.0977H186.014C187.685 98.0977 189.04 99.4527 189.04 101.124V130.149C189.04 131.82 187.685 133.175 186.014 133.175H153.05C151.397 133.175 150.05 131.85 150.024 130.197L149.92 123.792" stroke="#43494A" stroke-width="1.56435"/>
<path d="M83.1809 26.8624C85.9655 25.6517 91.2014 25.8785 95.7416 25.8785C98.8289 25.1521 109.664 26.5598 112.842 26.8624C152.068 33.8239 179.682 36.0686 188.586 36.3208C208.38 38.379 269.676 35.4633 297.849 33.7481C299.121 39.0146 303.928 39.7763 306.173 39.4989V31.8564L308.821 30.1161C313.482 26.484 330.235 27.8461 338.029 28.9811L341.283 32.7644C351.271 44.2054 354.121 68.5047 354.297 79.2243C355.387 96.9002 351.372 118.521 349.228 127.122C348.32 130.149 340.879 140.49 337.272 145.282L309.956 143.239C306.627 143.118 305.643 139.456 305.568 137.64H301.103L298.53 139.758L272.728 137.64C237.921 133.402 183.566 137.186 160.74 139.607C155.837 139.607 151.332 140.565 149.693 141.045C134.801 145.04 104.242 147.149 90.8232 147.703C84.346 148.006 81.0116 146.165 80.1541 145.206C78.4591 144.54 76.8248 138.976 76.2195 136.278C66.1103 87.2451 72.0073 49.2095 76.2195 36.3208C77.5512 30.6912 81.4153 27.6695 83.1809 26.8624Z" stroke="#43494A" stroke-width="1.56435"/>
<path d="M133.197 16.0414L256.762 14.528C274.872 12.8129 317.206 11.5467 341.661 20.2031C345.192 23.9865 352.013 34.02 351.044 43.887C355.735 58.8439 362.303 97.051 351.044 130.224C351.044 135.621 349.167 147.763 341.661 153.151C324.283 157.413 282.974 164.516 256.762 158.826L133.197 157.161" stroke="#43494A" stroke-width="1.56435"/>
<path d="M121.62 16.9492H104.973C84.9971 10.2904 47.2643 16.2934 30.8949 20.1272C22.6017 23.7593 12.205 36.875 8.04332 42.9788C-2.48959 60.1705 1.08191 101.646 4.18428 120.235C7.51365 134.4 19.6961 146.416 25.3712 150.654C34.1234 152.999 53.5951 157.782 61.4645 158.145L121.545 156.858" stroke="#43494A" stroke-width="1.56435"/>
<path d="M133.505 15.6409C131.897 18.2346 129.906 20.205 128.021 21.3103C126.101 22.4359 124.491 22.5658 123.445 21.9178C122.4 21.2697 121.8 19.7699 121.954 17.5498C122.106 15.3699 122.985 12.7099 124.593 10.1161C126.2 7.52243 128.192 5.55204 130.077 4.44678C131.997 3.32116 133.607 3.19124 134.652 3.8393C135.698 4.48735 136.297 5.98713 136.143 8.20725C135.992 10.3872 135.113 13.0472 133.505 15.6409Z" stroke="#43494A" stroke-width="1.56435"/>
<path d="M124.441 163.798C126.049 166.392 128.04 168.362 129.926 169.468C131.845 170.593 133.455 170.723 134.501 170.075C135.546 169.427 136.146 167.927 135.992 165.707C135.84 163.527 134.961 160.867 133.354 158.273C131.746 155.68 129.754 153.709 127.869 152.604C125.949 151.478 124.339 151.348 123.294 151.997C122.249 152.645 121.649 154.144 121.803 156.364C121.954 158.544 122.833 161.204 124.441 163.798Z" stroke="#43494A" stroke-width="1.56435"/>
<path d="M151.332 115.544C151.332 119.719 150.08 123.468 148.094 126.155C146.108 128.842 143.428 130.425 140.537 130.425C137.647 130.425 134.966 128.842 132.98 126.155C130.994 123.468 129.742 119.719 129.742 115.544C129.742 111.369 130.994 107.62 132.98 104.933C134.966 102.246 137.647 100.663 140.537 100.663C143.428 100.663 146.108 102.246 148.094 104.933C150.08 107.62 151.332 111.369 151.332 115.544Z" stroke="#43494A" stroke-width="1.56435"/>
<path d="M148.911 115.242C148.911 118.908 148.03 122.19 146.648 124.528C145.256 126.884 143.444 128.155 141.596 128.155C139.749 128.155 137.937 126.884 136.545 124.528C135.162 122.19 134.282 118.908 134.282 115.242C134.282 111.575 135.162 108.294 136.545 105.955C137.937 103.6 139.749 102.328 141.596 102.328C143.444 102.328 145.256 103.6 146.648 105.955C148.03 108.294 148.911 111.575 148.911 115.242Z" stroke="#43494A" stroke-width="1.56435"/>
<rect x="142.454" y="80.6874" width="30.8213" height="13.7205" rx="2.5472" stroke="#43494A" stroke-width="1.56435"/>
<rect x="174.991" y="80.6874" width="26.584" height="13.7205" rx="2.5472" stroke="#43494A" stroke-width="1.56435"/>
<path id="Dashboard" opacity="0.7" d="M120.348 28.2461L126.274 29.1351V72.993H130.719L137.535 78.9198V95.811L130.719 100.849H126.274C124.141 109.146 125.385 123.864 126.274 130.186C135.52 133.505 135.263 140.854 133.979 144.114L126.274 145.299C108.968 144.825 100.888 131.47 99.0113 124.852C94.9811 116.318 95.1589 82.5746 95.7516 66.77C97.8852 41.6405 113.038 30.6168 120.348 28.2461Z" fill="#8FA2D1"/>
<path id="Trunk" opacity="0.7" d="M329.781 42.6016H292.553V135.446H329.781C344.491 102.031 335.91 59.6268 329.781 42.6016Z" fill="#4E69AB"/>
<path id="Rear sitting area" opacity="0.7" d="M224.658 46.0256V75.6594C224.895 77.793 226.732 78.524 227.621 78.6227L260.218 78.9191V96.1067H227.917C225.073 96.1067 223.966 98.4774 223.769 99.6627L224.065 126.926C224.065 130.719 226.041 132.062 227.028 132.26L262.293 131.667C272.012 132.378 275.43 126.432 275.924 123.37C277.584 126.215 279.184 126.333 279.777 126.037L288.667 120.999C289.852 120.762 290.346 119.122 290.445 118.332V109.146C290.445 107.723 288.864 106.775 288.074 106.478L280.962 102.626C278.828 101.441 276.714 103.12 275.924 104.108C273.553 97.7069 266.046 96.1067 262.589 96.1067H277.702L291.037 93.736V80.1044L277.702 78.3264H262.589C272.546 77.8523 275.628 72.5972 275.924 70.029C277.109 72.8738 279.579 72.7948 280.666 72.3997L289.259 67.3619C290.682 67.1249 291.037 65.2876 291.037 64.3986V56.9901C291.274 54.6194 289.951 53.2365 289.259 52.8414L280.666 48.3963C277.11 47.6851 275.825 49.878 275.628 51.0634C274.442 43.7142 266.046 42.4696 261.996 42.7659L229.399 42.7659C225.132 42.7659 224.46 44.9391 224.658 46.0256Z" fill="#8CA5E1"/>
<path id="Driver sitting area" opacity="0.7" d="M205.989 104.108C202.907 103.16 201.149 105.491 200.655 106.775C201.366 99.9002 192.654 97.9839 188.209 97.8851H154.13C151.285 97.6481 149.981 99.1693 149.685 99.9595V105.886C153.952 114.658 151.463 122.185 149.685 124.852V129.593C149.922 132.438 151.562 133.149 152.352 133.149H188.209C199.114 133.149 201.05 127.223 200.655 124.259C202.789 127.815 205.1 127.914 205.989 127.519L213.99 122.481C215.413 122.007 215.966 120.506 216.064 119.814V111.22C216.064 109.324 215.077 108.652 214.583 108.553C212.113 107.072 206.937 104.108 205.989 104.108Z" fill="#4E69AB"/>
<path id="Passenger sitting area" opacity="0.7" d="M205.1 47.2362C202.018 46.2879 200.26 48.6191 199.766 49.9032C200.477 43.0282 191.765 41.1119 187.32 41.0131L153.241 41.0131C150.396 40.776 149.093 42.2972 148.796 43.0874V49.0142V67.9798V72.7212C149.033 75.566 150.673 76.2772 151.463 76.2772H187.32C198.225 76.2772 200.161 70.3505 199.766 67.3871C201.9 70.9432 204.211 71.0419 205.1 70.6468L213.101 65.6091C214.524 65.1349 215.077 63.6335 215.176 62.9421V54.3483C215.176 52.4517 214.188 51.78 213.694 51.6812C211.225 50.1995 206.049 47.2362 205.1 47.2362Z" fill="#4E69AB"/>
</svg>
