<svg width="374" height="230" viewBox="0 0 374 230" fill="none" xmlns="http://www.w3.org/2000/svg">
<path id="fenderFrontRight" opacity="0.7" d="M372.483 67.8727V59.9476C365.814 51.7632 358.304 47.0956 351.679 44.5851C354.849 47.9473 353.496 53.2557 352.422 55.4897C350.243 59.8485 342.764 59.2872 339.296 58.4616C346.033 64.8017 346.561 69.854 345.983 71.5877V93.3818L338.306 121.12L343.011 122.606C344.596 110.916 350.606 93.1342 353.413 85.7043C356.385 77.7792 360.1 76.1281 361.586 76.2932C370.105 77.2839 370.749 93.712 370.006 101.802C375.752 96.8491 374.051 77.1188 372.483 67.8727Z" fill="#8CA5E1"/>
<path id="rockerpanelRight" opacity="0.7" d="M338.305 121.12L249.147 162.727V178.082L343.259 130.778V122.606L338.305 121.12Z" fill="#4E69AB"/>
<path id="fenderBackRight" opacity="0.7" d="M210.018 17.1019C190.205 21.2626 163.953 34.3556 153.303 40.3821L157.761 53.2604V75.7976L136.71 103.04C138.889 104.031 169.897 103.783 185.004 103.04C184.211 110.569 180.051 118.726 178.069 121.863L202.588 151.087L202.835 150.839C213.138 136.177 223.969 131.356 228.097 130.778C242.56 130.184 248.157 151.83 249.148 162.727L253.358 160.002C250.585 129.094 228.757 96.9313 218.19 84.7134C214.426 85.1097 209.522 78.1091 207.541 74.5593C206.352 46.2269 211.008 36.502 213.485 35.1812C216.259 31.6149 212.329 21.6424 210.018 17.1019Z" fill="#AFC0E7"/>
<path id="roof" opacity="0.7" d="M153.055 40.1345L57.7051 22.5506C132.4 -8.75379 232.801 -0.069135 273.666 8.18623C225.124 6.99746 173.033 28.9898 153.055 40.1345Z" fill="#4E69AB"/>
<path id="windshieldBack" opacity="0.7" d="M31.4541 62.1764V55.7372L57.7062 22.5506L153.056 40.3822L157.761 53.2606V70.5968C104.762 91.4004 49.4508 73.0735 31.4541 62.1764Z" fill="#D6DDF6"/>
<path id="bumperRear" opacity="0.7" d="M7.92515 94.6199C6.75332 94.2293 5.16578 92.4617 4.84027 91.6479C-2.19071 99.8508 -0.0423581 135.429 1.91069 152.193C2.69191 161.177 14.931 171.235 20.9529 175.141C55.7173 199.749 135.695 209.808 171.338 211.761C178.76 183.637 195.263 159.679 202.587 151.216L178.174 121.92C164.695 126.32 141.167 129.045 127.298 128.797C127.298 130.36 119.745 138.358 116.164 141.939C70.3357 139.942 23.5425 119.712 7.42983 107.994C4.30495 106.431 6.62312 98.526 7.92515 94.6199Z" fill="#8CA5E1"/>
<path id="trunk" opacity="0.7" d="M22.1824 81.2461L9.79934 73.8162C6.62928 69.2593 22.8428 59.6996 31.3459 55.4893V62.6715C84.8406 91.0039 137.84 79.9252 157.653 70.8443V75.7975L136.602 103.288C122.337 103.288 97.3063 100.316 86.5743 98.83V108.736L107.378 126.073C107.981 128.797 122.345 128.797 127.298 128.797C127.1 130.976 120.009 138.538 116.541 142.171C60.2727 137.812 19.7883 117.074 6.57975 107.25C4.99472 104.675 6.74486 97.7568 7.81806 94.6198C20.3002 96.0067 24.5765 86.2818 25.1543 81.2461H22.1824Z" fill="#4E69AB"/>
<path id="doorBackRight" opacity="0.7" fill-rule="evenodd" clip-rule="evenodd" d="M210.265 17.3497C221.574 14.2952 247.909 8.18622 262.769 8.18622L287.039 62.9193C291.415 69.1934 299.175 88.8247 295.212 117.157V141.18L253.605 160.745C252.367 147.785 243.55 114.433 218.19 84.7135C216.621 84.7961 212.295 82.8808 207.54 74.5594C206.797 63.3321 206.946 39.6887 213.484 34.9336C214.722 34.1081 215.812 29.4355 210.265 17.3497ZM213.486 62.9194C213.403 52.5176 216.804 30.4263 231.07 25.2749L246.425 21.8077L262.77 19.3311C268.549 31.3013 279.463 56.7774 276.887 62.9194C258.56 67.3773 219.033 67.8726 213.486 62.9194Z" fill="#8CA5E1"/>
<path id="windowBackRight" opacity="0.7" d="M231.07 25.2748C216.804 30.4261 213.403 52.5175 213.486 62.9193C219.033 67.8725 258.56 67.3772 276.887 62.9193C279.463 56.7773 268.549 31.3012 262.77 19.3309L246.425 21.8075L231.07 25.2748Z" fill="#D6DDF6"/>
<path id="taillightLeft" opacity="0.7" d="M22.0428 81.2461L9.90737 73.8163C2.77473 75.0051 3.63329 86.1993 4.95415 91.6479C5.54853 93.0348 7.1831 94.207 7.92608 94.6198C19.2194 96.7992 24.5194 86.6947 25.2624 81.2461H22.0428Z" fill="#D6DDF6"/>
<path id="taillightRight" opacity="0.7" d="M86.6826 108.737V98.8301C116.798 104.576 164.778 104.031 185.004 103.04C183.815 112.352 179.886 119.469 178.07 121.863C150.332 130.382 106.743 130.283 107.486 126.073L86.6826 108.737Z" fill="#D6DDF6"/>
<path id="wheelBackRight" opacity="0.7" fill-rule="evenodd" clip-rule="evenodd" d="M216.951 136.227C228.426 138.208 248.454 152.523 236.764 193.932C232.389 207.884 217.249 234.499 191.69 229.348C185.664 228.687 173.165 224.246 171.382 211.764C175.675 195.748 190.798 158.219 216.951 136.227ZM205.613 209.171C212.918 210.907 221.498 201.132 224.778 187.337C228.057 173.542 224.794 160.951 217.489 159.214C210.184 157.478 201.604 167.253 198.324 181.048C195.045 194.843 198.308 207.434 205.613 209.171Z" fill="#2A4893"/>
<ellipse id="hubcapBackRight" opacity="0.7" cx="211.351" cy="184.163" rx="13.5953" ry="25.6744" transform="rotate(13.3729 211.351 184.163)" fill="#D6DDF6"/>
<path id="windowFrontRight" opacity="0.7" d="M291.252 61.4083L273.42 18.3153C285.704 13.1639 312.881 29.8728 324.933 38.8711L329.144 54.7215L291.252 61.4083Z" fill="#D6DDF6"/>
<path id="doorFrontRight" opacity="0.7" fill-rule="evenodd" clip-rule="evenodd" d="M262.769 8.18621C273.17 5.21434 319.235 15.3684 335.333 41.6205L338.801 57.9661C341.607 60.6078 346.973 67.08 345.983 71.8351V93.3816L338.305 121.12L295.212 141.18V116.909C296.863 105.269 297.59 78.1752 287.287 62.9193L262.769 8.18621ZM273.419 18.3402L291.251 61.4333L329.143 54.7464L324.933 38.8961C312.88 29.8977 285.703 13.1889 273.419 18.3402Z" fill="#AFC0E7"/>
<path id="mirrorRight" opacity="0.7" d="M329.141 54.7466L324.931 38.8962L333.846 45.5831C333.648 43.6018 334.92 41.7856 335.58 41.1252C340.137 40.3327 348.211 43.1065 351.678 44.5924C354.254 46.5737 353.742 51.8572 353.164 54.2512C349.4 61.9783 335.58 57.801 329.141 54.7466Z" fill="black"/>
<path id="mirrorRight_2" opacity="0.7" d="M329.141 54.9943L324.931 39.144L333.846 45.8308C333.648 43.8495 334.92 42.0334 335.58 41.3729C340.137 40.5804 348.211 43.3542 351.678 44.8402C354.254 46.8215 353.742 52.1049 353.164 54.499C349.4 62.226 335.58 58.0488 329.141 54.9943Z" fill="#4E69AB"/>
<path id="wheelFrontRight" opacity="0.7" fill-rule="evenodd" clip-rule="evenodd" d="M339.544 132.76C339.874 134.246 343.308 136.673 354.404 134.493C358.614 132.43 367.678 122.903 370.254 101.307C370.584 92.6387 369.214 75.5005 361.09 76.293C356.88 76.2931 350.193 86.1004 343.259 122.358V130.778L339.544 132.76ZM354.32 120.412C357.248 121.193 361.276 115.627 363.316 107.98C365.357 100.333 364.637 93.5001 361.709 92.7188C358.781 91.9374 354.753 97.5033 352.712 105.151C350.672 112.798 351.391 119.63 354.32 120.412Z" fill="#2A4893"/>
<ellipse id="hubcapFrontRight" opacity="0.7" cx="358.199" cy="106.414" rx="5.48763" ry="14.331" transform="rotate(14.9401 358.199 106.414)" fill="#D6DDF6"/>
</svg>
