<svg width="390" height="252" viewBox="0 0 390 252" fill="none" xmlns="http://www.w3.org/2000/svg">
<path id="rockerPanelLeft" opacity="0.7" d="M363.959 125.11L280.618 189.258L277.989 205.032L361.593 138.255L363.959 125.11Z" fill="#4E69AB"/>
<path id="fenderBackLeft" opacity="0.7" d="M357.385 11.0099C356.544 10.1687 350.726 9.2573 347.921 8.90674C368.322 26.5738 375.701 50.0947 376.841 59.6468L378.681 85.1487C383.939 83.0449 388.232 87.6019 389.722 90.1431V54.6517C386.989 42.453 367.026 20.4744 357.385 11.0099Z" fill="#8CA5E1"/>
<path id="doorBackLeft" opacity="0.7" fill-rule="evenodd" clip-rule="evenodd" d="M318.477 10.4834C323.735 9.43179 336.932 7.5915 347.659 8.6431C356.51 16.4425 374.738 37.7726 376.84 60.6976L378.681 85.1479L363.958 125.109L340.561 143.249V89.0909L318.477 10.4834ZM326.364 17.3189L339.246 60.6976C348.097 56.5788 365.431 45.7122 363.959 35.1962C360.103 29.0618 351.077 16.4775 345.819 15.2157C345.03 15.2157 327.415 15.2157 326.364 17.3189Z" fill="#AFC0E7"/>
<path id="windowBackLeft" opacity="0.7" d="M338.981 60.6978L326.1 17.319C327.151 15.2158 344.765 15.2158 345.554 15.2158C350.812 16.4777 359.838 29.062 363.694 35.1963C365.166 45.7124 347.832 56.579 338.981 60.6978Z" fill="#D6DDF6"/>
<path id="fenderFrontLeft" opacity="0.7" d="M270.101 98.8193L218.309 139.833C222.936 154.976 217.083 165.071 213.577 168.225L236.187 179.794C245.23 157.5 256.78 150.173 261.425 149.297C279.724 144.039 281.844 173.922 280.617 189.521L289.293 182.948V128.002L280.617 100.397C272.835 105.445 270.363 101.448 270.101 98.8193Z" fill="#AFC0E7"/>
<path id="headerPanel" opacity="0.7" d="M15.3965 140.883C15.3965 135.625 17.4997 130.63 18.5513 128.79C37.2698 152.346 97.5091 159.111 125.29 159.549C123.186 163.142 118.98 170.485 118.98 171.117C103.837 164.808 86.38 180.932 79.5445 189.782C77.4417 193.779 72.008 193.726 69.5547 193.2L35.1143 180.844C31.5384 179.793 30.1189 175.674 29.8563 173.746C28.3842 154.817 19.6029 143.95 15.3965 140.883Z" fill="#4E69AB"/>
<path id="headlightLeft" opacity="0.7" d="M118.717 171.38L125.29 159.287C169.983 159.287 205.387 146.404 217.568 139.306C224.298 152.347 217.392 163.493 213.099 167.437L147.636 184.525C134.385 186.629 122.836 176.638 118.717 171.38Z" fill="#D6DDF6"/>
<path id="bumperFront" opacity="0.7" fill-rule="evenodd" clip-rule="evenodd" d="M7.17462 138.301C1.74307 148.4 -5.81959 170.339 7.2 177.689C3.95755 179.529 -1.10772 188.837 4.57101 211.341L104.211 251.302H161.524L217.785 235.791C221.465 220.805 230.246 188.626 235.925 179.792L213.316 168.225L211.728 168.571L147.59 185.314C134.339 187.417 122.79 177.427 118.671 172.169L118.836 171.865C103.715 165.666 86.3187 181.74 79.4978 190.572C77.395 194.568 71.9613 194.516 69.508 193.989L35.0676 181.633C31.4926 180.582 30.0722 176.463 29.8096 174.535C28.3374 155.606 19.5565 144.74 15.3501 141.672C14.1304 140.046 9.53798 138.78 7.17462 138.301ZM15.3907 140.386C15.3996 140.244 15.4099 140.101 15.4215 139.959H15.419C15.4082 140.105 15.3988 140.248 15.3907 140.386ZM120.338 169.1L119.203 171.189C119.442 170.677 119.824 169.939 120.292 169.072L120.338 169.1Z" fill="#8CA5E1"/>
<path id="doorFrontLeft" opacity="0.7" fill-rule="evenodd" clip-rule="evenodd" d="M340.56 89.0919L318.476 10.4844C296.655 16.794 291.047 25.0317 289.82 28.6246L266.685 78.576L262.479 82.7825L269.577 99.0826L269.919 99.0641C272.423 90.2507 278.461 70.9057 283.248 61.7501L283.294 61.9107C290.157 46.9821 306.406 17.9564 316.898 20.4745C321.017 31.7794 328.939 56.8602 327.677 66.7453C325.688 68.3755 323.139 70.3786 320.283 72.5028C324.326 74.6037 327.275 77.8672 326.889 82.7825C326.627 85.4115 324.838 90.6695 319.791 90.6695H289.295C287.158 93.7153 283.842 97.6652 280.462 100.231C283.639 105.912 287.395 120.6 289.031 128.002V182.948L340.56 143.25V89.0919Z" fill="#8CA5E1"/>
<path id="windowFrontLeft" opacity="0.7" fill-rule="evenodd" clip-rule="evenodd" d="M283.511 61.538C290.374 46.6094 306.623 17.584 317.115 20.102C321.233 31.4068 329.155 56.4876 327.894 66.3727C325.906 68.0029 323.356 70.0061 320.5 72.1303C315.721 69.6468 309.416 68.7867 305.286 68.7389C296.031 69.5804 290.913 78.2035 289.511 82.41L283.511 61.538Z" fill="#D6DDF6"/>
<path id="roof" opacity="0.7" d="M290.082 28.0983C271.995 23.4713 200.871 18.2833 167.57 16.2678L214.367 2.85973C293.238 -3.02918 341.612 3.12263 355.808 10.221C319.527 2.07104 291.397 20.737 290.082 28.0983Z" fill="#4E69AB"/>
<path id="windShield" opacity="0.7" d="M102.109 68.585C99.1635 67.5334 99.1283 64.291 99.4798 62.8012L135.234 36.511L153.111 24.1546L167.571 16.2676C214.683 17.7398 268.876 24.5928 290.083 27.8352L266.685 78.5753L262.215 83.0445C252.488 92.2464 235.663 92.6847 228.564 92.2464C157.318 85.1482 114.815 74.194 102.109 68.585Z" fill="#D6DDF6"/>
<path id="hood" opacity="0.7" d="M102.633 68.8481C98.6375 67.1655 99.0407 64.1159 99.7416 62.8013C59.7806 76.4725 31.3869 98.8184 22.1856 108.283C11.9323 119.325 16.9275 125.634 16.9275 126.687C30.1774 152.556 98.5145 159.9 131.027 160.338C172.039 159.076 205.779 146.492 217.522 140.357L269.576 99.082L262.478 83.0445C251.751 92.0883 236.1 92.9474 229.615 92.2464C174.932 86.3344 121.562 76.8181 102.633 68.8481Z" fill="#8CA5E1"/>
<path id="wheelFrontLeft" opacity="0.7" fill-rule="evenodd" clip-rule="evenodd" d="M253.802 153.24C261.776 154.818 276.727 166.228 272.731 199.248C270.452 213.27 262.426 242.574 248.544 247.622C238.554 251.04 216.943 253.827 210.423 237.632L217.522 235.791C223.305 212.042 238.659 162.284 253.802 153.24ZM245.256 228.357C251.136 229.678 258.225 220.414 261.09 207.664C263.956 194.915 261.513 183.507 255.633 182.186C249.754 180.865 242.665 190.129 239.799 202.879C236.933 215.628 239.377 227.035 245.256 228.357Z" fill="#2A4893"/>
<path id="hubcapFrontLeft" opacity="0.7" d="M245.257 228.357C251.137 229.678 258.226 220.414 261.091 207.664C263.957 194.915 261.514 183.508 255.634 182.186C249.755 180.865 242.665 190.129 239.8 202.879C236.934 215.628 239.378 227.035 245.257 228.357Z" fill="#F1F3F4"/>
<path id="wheelBackLeft" opacity="0.7" fill-rule="evenodd" clip-rule="evenodd" d="M378.68 85.1481C381.134 84.2715 386.777 84.044 389.723 90.1425C390.774 106.969 389.406 141.566 375.525 145.352H357.649C356.772 145.002 355.02 144.038 355.02 142.986L361.329 138.254L363.958 125.109L378.68 85.1481ZM375.679 132.476C378.668 133.079 382.505 126.57 384.25 117.936C385.994 109.302 384.986 101.813 381.997 101.209C379.008 100.606 375.171 107.115 373.426 115.749C371.682 124.383 372.69 131.871 375.679 132.476Z" fill="#2A4893"/>
<path id="hubcapBackLeft" opacity="0.7" d="M375.68 132.756C378.669 133.36 382.506 126.85 384.25 118.216C385.995 109.583 384.986 102.094 381.998 101.49C379.009 100.886 375.172 107.396 373.427 116.03C371.683 124.664 372.691 132.152 375.68 132.756Z" fill="#F1F3F4"/>
<path id="headLightRight" opacity="0.7" d="M7.18888 137.955C6.34759 117.764 17.1792 109.386 22.7001 107.721C12.6046 118.027 16.1276 125.336 18.7566 129.016C16.2327 132.802 15.6018 138.744 15.6018 141.373C14.3399 139.69 9.46738 138.393 7.18888 137.955Z" fill="#D6DDF6"/>
<path id="mirrorLeft" opacity="0.7" d="M290.178 82.87L284.132 61.8379C279.294 71.092 273.177 90.7571 270.724 99.4329C274.93 108.687 285.446 97.5049 290.178 90.7571H320.675C325.723 90.7571 327.51 85.4991 327.773 82.87C328.615 72.1436 313.577 69.2868 305.952 69.1991C296.698 70.0404 291.581 78.6636 290.178 82.87Z" fill="#4E69AB"/>
</svg>
