<svg version="1.1" id="Calque_1" xmlns="http://www.w3.org/2000/svg" x="0" y="0" viewBox="0 0 500 375" style="enable-background:new 0 0 500 375" xml:space="preserve"><style>.st1,.st2{fill:none;stroke:#fff;stroke-miterlimit:10}.st2{stroke-width:.5}</style><g id="Calque_3"><path class="st1" d="M79.7 175.5c-1.9 6.1-9.5 9.5-12.8 14-4 5.6 1.2 23-.7 29.1-1.5 4.9-30.8 3.5-32-.4V217.9c-1.9-6.9-3.4-14.3-4.5-21.7 0-.2-.1-.5-.1-.7-.8-5.1-1.4-10.3-1.9-15.4 0-.4-.1-.8-.1-1.2-.5-6.2-1.3-19.6-.7-21 .8-1.7 1.3 1.5 14.3 1.9 16.4.6 32.7-2.3 35.8 0 4.4 3.5 3.4 13.3 2.7 15.7zM288.6 270.7c0 1.5-.1 3.1-.2 4.6-1.3 17.7-10.4 33.3-23.8 43.5h-.1c-6.5 5.5-14.2 9.8-22.5 12.6-23.6 8-57.1 3.1-69.3-28.3-.4-.9-.7-1.8-1-2.8-3.3-8-5.3-17.8-5.7-29.7-.2-5.8.5-11.3 1.9-16.6 6.9-25.4 31.3-44 59.3-44 26 0 49.2 18 58.4 40.1 2.4 6.5 3 13.4 3 20.6z"/><path class="st1" d="M26.9 157.9c-1.5-6.8-.3-32.8 1.3-35.5 1.6-2.6 18.6-4.9 26.2-5.8s205 0 212.5 0 107.6 8.5 107.6 8.5c.6 4.1 2.9 13 4.3 21.9 1.5 9.2-4.1 57-5.4 68.1-.6 1.4.1 4.3-.1 8.6-.1 2.8-.1 23.9-2.9 24.5-7.2 1.4-63.7 11.1-67.7 11.2h-.2c.1-.1.1-.2.2-.4 2.2-19.2-1.4-71.5-71.4-65.6-22.5 1.5-60.8 19.3-72.7 61.3-1.6 5.6-2.7 11.5-3.2 18-16.5 1.4-88.3 6-90.5 4.6-.9-.5-1.8-2.2-2.8-4.4-2.5-6-5.3-16.6-7.2-23.2-1-3.3-1.8-5.5-2.2-5.8-.3-.2-.7-.4-1.1-.5-2.9-1.2-7.7-2.4-10.8-6.4-2.1-5-4.9-12.8-6.5-18.6"/><path class="st1" d="M62 272.7c-1.1 2.8-1.9 4.8-2.1 4.8-9 .7-26.2-.1-27.6-2.2-4.2-5.8-8.6-13.1-11.8-21.1-.1-.2-.2-.5-.3-.7-.9-2.3.1-4.6 1.4-8.5 3-9.1 11.2-24.8 11.2-24.8.7-.2 1.4-.1 2.1.1M274 117.4l11-40.9c1.8-5.8 6.8-9.5 12.7-11l23.8-6.9 40.3-6.8c7.3-1.7 40.5-1.5 48-.7l34.3 3.2c2.5.3 46 7.5 48.4 8.4l7.8 3.6"/><path class="st2" d="m370.2 124.5-4.8-60.9-32.3 2.5c-7.8.7-26.6 4-34.1 6.1l-11.8 4-11.9 40.8"/><path class="st1" d="m370.5 248.2 6.9.4L500 231"/><path class="st2" d="M445.1 61.3c2.9.4 13.9 60.7 14.1 68.8l4.2 9.7c4.3 11.7-6.1 62.9-6.7 67.4l-1.3 10.1-4.7 12.5c.1 2.6-.4 8.2-1.7 8.4-4.3.6-65.6 9.4-65.6 9.4 7.1-14.7 13.7-90.3 11.8-100.7-4.3-23.3-10.7-81.3-8-88.3 1.4-3.4 38.2-.1 57.9 2.7z"/><path class="st2" d="m500.2 70.2-8.2-2.4c-1.9-.6-21.7-3.5-23.7-3.7l-23.2-2.7M500 74l-4.8-1.8s-90.2-12.8-95.8-8.6c-5.6 4.2 4.6 56.3 4.6 56.3s5.6 7.3 18.8 9.4c13.2 2.1 77.4 2 77.4 2"/><path class="st1" d="M472 155.6v3.9l21.4-.8v-4zM500 245.9l-93 15.3-26.9-2-6.4-3.4v-7.2"/></g><path class="st1" d="M285.6 250.1c2.4.2 6.2 3 11 7.9 1.2 1.2 2.7 1.9 6 1.4M158.4 255.4c2.4-.2 5.7-.4 9.6-.6M374.5 125.1c-13.6.1-341.2 1.8-343.6 1.1s-3.5-2.6-2.6-3.9"/></svg>
