<svg xml:space="preserve" id="ff150-3rM9XB0Z_svg__Calque_1" x="0" y="0" version="1.1" viewBox="0 0 500 375" xmlns="http://www.w3.org/2000/svg"><style>.ff150-3rM9XB0Z_svg__st2{fill:none;stroke:#fff;stroke-miterlimit:10}</style><g id="ff150-3rM9XB0Z_svg__Calque_2_00000011013376770306322660000013698089000844325002_"><path d="M221.2 233.5c-10.5.3-17 .6-17 .6M500 248.4l-76.6 4.8s-4.8 3.2-14 0c-.4-1.3-1.3-4.6-9.7-8.8" class="ff150-3rM9XB0Z_svg__st2"/><path d="M423.4 253.2c7.7-17.8.7-50-3.1-60.6-2.2-6.1-8.8-29.7-50.4-48.8-34.9-16.1-82.6-12.4-116.2 13.2s-49 55.2-52.6 95.5c-21.2.4-164.6-6.6-167-10.9-7.6-8.8-21-37.4-14.4-45.1C26.9 193 46.5 186 46.5 186S18.6 75.6 40.8 32.8c.5-2.5-1.5-7.3.1-8.5 8.9-10 162 6 200.6 8.2C367.9 39.8 500 46.1 500 46.1" class="ff150-3rM9XB0Z_svg__st2"/><path d="M376.9 39.7s2.1-7.1 3.7-8.6c3.1-2.9 38.8-27.3 45.6-31M216.5 269.4c4.7 49.3 33.5 88.8 87.6 88.8 45.8 0 95.6-42.5 97.3-92.9 2.6-57.3-45.6-92.9-91.4-92.9-76 2.2-93.5 57.9-93.5 97zM32.5 70.5c4.6-3.1 17.8-3.7 18.5-3.7s42.4-.7 46.4 3.5 3.9 17.5 1.3 23.5c-2.6 6.1-17.3 15.5-20.6 22.5-1.9 7.9 3.5 37.4-.7 42.2-8.5 4.2-32.2 2.5-36.8.2M69 246c-6.1-9.5-18.8-49.3-22.5-59.9" class="ff150-3rM9XB0Z_svg__st2"/><path d="M449.3 198.5c13.1.4 28.4-1 30.5-2.2M58.5 0c7.8 4.3 32.2 16.4 32.2 16.4l-1.9-6.8M52.6.5s58.7 27.7 69.8 37" style="stroke-width:.5;fill:none;stroke:#fff;stroke-miterlimit:10" transform="matrix(-1 0 0 1 500 0)"/></g></svg>