<svg version="1.1" id="Layer_3" xmlns="http://www.w3.org/2000/svg" x="0" y="0" viewBox="0 0 2048 1536" style="enable-background:new 0 0 2048 1536" xml:space="preserve"><style>.st0,.st1{fill:none;stroke:#fff;stroke-width:4.6183;stroke-linecap:round;stroke-linejoin:round;stroke-miterlimit:10}.st1{stroke-width:2.4266}</style><path class="st0" d="M0 128.9c134.4-25 416.9-64 590-70.2 43.7-1.6 324 32.6 473.5 117.2 17.9 10.1 22.9 39.9 29.1 60.7s30.6 122.5 44.7 214.3l-286 88.6M1137.4 451l8.9-2.3s1-11.3 2.2-13.5 5.3-3.9 5.3-3.9 670.8 9.1 894.2 9.8"/><path class="st0" d="M1146.3 448.7h23.8v6.3l877.9 17.5M1170.1 448.7l-281.5 92.4M723.2 547.6c-2.6-115.2 11.4-245.3 11.4-400.2 0-17.9-31-74-87.9-84.6"/><path class="st0" d="M734.5 147.4c2.8-6.2 13.3-6.2 22.1-5.5 114.4 9.5 259.6 34.5 329 69.7M2048 588 779.2 536.6l-77.1 15.1v26.6l1345.9 64"/><path class="st0" d="M1175.7 455.1s1.3 70.9-2 97.5M702.1 578.3c-11.3 35.5-21.8 114-21.8 114 .6 103.4 16.4 326.1 27.8 396-6.4 35-4.8 64.7-4.8 64.7l11 103.4s-1 19 30.9 24.4 349.6 83.5 409.6 100.7c19.3-34.4 54.1-97.8 80.2-120.5 32.3-.4 61.1 4.3 61.1 4.3"/><path class="st0" d="M1153.2 1381.1c-17.3-33.1 30.2-153.1 58.4-186.7 28.1-33.6 130.4-146.2 360.4-149.7s401.3 86.6 476 135.8"/><path class="st0" d="M1258.9 1536c-32.9-55.7 8.1-258.3 77-333.4 79.2-86.4 205.4-132.4 367.8-100 138.7 27.7 273.5 119.1 344.2 278.5"/><path class="st0" d="M1356.5 1536c-14.8-53.5 17.9-238.5 282.7-211.8 227.9 23 304.1 211.8 304.1 211.8M714.9 1260.5c-21.7 3.8-41.1 8.4-53.3 6.1-12.2-2.3-661.6-149-661.6-149M0 186.6c128.1-19.3 410.3-47.4 484.1-52.1 30.8-1.9 50.1 10.3 50.1 38.6s-12.1 275-27.6 323.6c-15.5 48.6-128.1 60.3-171.7 61.7-58.8 1.9-240.2-3.2-335-7"/><path class="st1" d="M152 167.2c-21.3 57.7-51.9 272.4-61.9 387.3M292.5 151.9c-19.4 80.7-45 282.8-52.9 406.2M241.9 1172.3c-4.2-3.5-8.2-9.3-8.9-15.3.6-7.1 1.3-18.2 0-24.7s-20.5-46.2-26.6-58.4-10.8-45.1-10.2-64.9c-47.2-131.1-61.7-281.4-67.8-345 3-30.1 18.3-87.9 20.9-94 2.7-6.1 9.1-11 12-13.6 9.3-110.1 33.5-301.7 57.8-396.8 1.8-8 4.2-19.1 8.1-29.1"/><path class="st1" d="M0 973.3c45.2 9.5 155.1 29.6 196.2 35.8s384.7 64.3 403.1 69.7l39.1 10.1c26.1-2.4 68.1-11.1 68.1-11.1M708.1 1088.3s317.2 58.7 355.2 69.2c38 10.4 91 32.1 148.3 36.9"/><path class="st1" d="M0 159.7c127.9-17.7 337.6-46.2 558.9-57 20.6-1 42.8.8 47.3 49.3 4.5 48.4-12.5 383.8-37.5 535.6 4.9 100.2 18.9 303.4 30.6 391.3 1.2 22.1 1.2 60.5 1.2 60.5 9.6 35.7 14.6 62.5 14.2 74.1-.4 11.5 0 24.9 0 24.9 1.6 11.5 11 20.4 11 20.4M0 679.2c18.7 1.2 74.7 6.7 83.7 7.8 9 1.2 10.6 3.2 11.5 8.8.9 5.5 5.2 49.3 4.4 61.7-.2 3.7-.9 6.2-9.9 5.5S20 753.6 0 752"/><path class="st1" d="M0 731.5c16.6 3 61.1 8.6 91.5 7.4.7-9.4-1.2-22.1-4.4-25.3-6.4-3.2-19.6-5.1-19.6-5.1-22.3-.5-52.1-3.3-67.5-6.5"/><path class="st1" d="M0 686.1c11.6.5 40.2 2.5 45.8 3.7 5.6 1.2 9 7.2 9.3 18.2M57.4 738.1c.9 3 3.4 13.6-5.1 14.1s-36.5-3.7-52.3-6M1215.5 841.9c-13.7-44-61.3-73.9-108.7-53.6-51.1 21.8-49.6 102.2-8.6 129 39.1 25.6 94.5 20.8 117.3-27.3 4.6-11.5 5.3-34.8 0-48.1z"/><path class="st0" d="m0 1206.5 103.5 27.2 1.7 6.3 139.6 39.3 8.1-6 203.7 53 5.6 3.7 38.8 9.9 153.8-17.3 29.6-32.2-1.8-24.2M792.7 1291.4l-42.1 44.1 18.6 38.6 239.7 64.3 27.4-3.4 51.4-71.1"/></svg>