<svg xml:space="preserve" viewBox="0 0 500 375" xmlns="http://www.w3.org/2000/svg"><style>.ff150-tT8sqplK_svg__st1,.ff150-tT8sqplK_svg__st2{fill:none;stroke:#fff;stroke-miterlimit:10}.ff150-tT8sqplK_svg__st2{stroke-width:.5}</style><g id="ff150-tT8sqplK_svg__Calque_2"><path d="M235.6 292c.6 6 2.2 12 4.8 17.7 3.1 7.3 29.4 25.7 41.7 25.6 14.6-1.1 27.3-9.7 43.1-38.9 16.1-35.6 12.1-67.9-6.8-77.8-5.3-2.8-18.5-7.8-30.7-8.5m146.1-10.7c5.1 9.5 18.9 11.2 26.1 11.2 5.9-1.4 10.5-10.1 13.6-24 3.8-16 5.5-34.3-4.1-34.2" class="ff150-tT8sqplK_svg__st1"/><path d="M335.7 248.1c16-6.6 119.8-59.9 121-61.5 1-2.9 11.5-37.6 18.1-42s2.3 19.6 2.2 20.8M459.9 114c-.9-.3-1.6-.5-2.1-.5-4-6.5-21.8-37.1-30.8-43.9-13.7-10.4-55.7-14.2-62.4-14.4s-82.9 1.1-109.3 8.9c-11.1 2.8-20 43-22.8 48.1-9 .2-203.1 5.3-207.6 7.9-6.4 4.5-2.4 60.2 8.3 81-.9 1.1-12 2.3-13.5 5.7-2.1 9.8 1.2 11.1 4.2 17.1s12.6 26.3 17.8 33.5 24.3 26.9 29.3 30c4.9 3 24.6 12.7 24.6 12.7 6.6 4 21 19 33.6 22.2 20.9 2.3 106.5-30 119-35.6 10.4-38.6 30.3-73 50.2-85.9 18.7-12.1 41-12.1 46.2 15.3 2.5 13-3.7 27.5-9.5 30" class="ff150-tT8sqplK_svg__st1"/><path d="M476.7 168.5c3.7-9.6 3.9-25.2 2.3-31.3-1.6-6.2 0-9.7-1.8-12.4" class="ff150-tT8sqplK_svg__st1"/><path d="M455.9 125.5s20.3.2 21.4-.5 3.4-2.1 3.7-4.1 1.2-9.7 1-10.1c-.1-.4-4.6-4.9-5.1-5.1s-14.2-.7-14.7-.4c-.4.3-2.3 9.8-2.4 10.1 0 .3-5.9 0-5.9 0z" class="ff150-tT8sqplK_svg__st1"/><path d="M33.3 201.4c7.6 6.2 64.1 51.3 103.4 73.1 6.4 2.1 27 4.3 28.9 4.3.7 3.8-26 14.6-43.3 10.5-17.2-4.1-52.6-30.1-54-30.8-4 2.5-.7 14.8-.5 18.2 1 3.6-23.2-16.3-26-23.4-1.6-4.1-8.2-17.1-7.9-24.1-4.5-7.4-14.2-16.6-14.2-22.4M61 223.2l-27 5.9m62.1 19.5-27.7 9.9" class="ff150-tT8sqplK_svg__st2"/><path d="M79.2 254.4c-15.7-7.9-18-31.2-18-31.2" class="ff150-tT8sqplK_svg__st2"/><path d="M436.3 144s.1 2.3-.2 2.7-8.5 2.5-8.8 2.2c-.3-.2-.2-9.5.1-9.9.3-.3 8.4-1.9 8.6-1.8s.3 2.8.3 2.8" class="ff150-tT8sqplK_svg__st1"/><path d="M427.2 142.5s9.7-2.7 10.1-2.4.2 3.5-.1 3.8-10.1 2.2-10.1 2.2m-194.6-33.8 149.7 9.5s-225.5 20.4-240.6 21.3c-18.4-.8-114.6-14.1-117-22.6" class="ff150-tT8sqplK_svg__st1"/><path d="M136.1 274.1c-7.4-18.6-15-97.6-4.5-131.9" class="ff150-tT8sqplK_svg__st1"/><path d="M131.3 252.9s27.9 4.1 44.7-2.3c6.3-3.4 4.9-12.9 3.9-21.5-1-8.5 1.2-18.2 7.8-24.4 5.3-5 7-11.3 6.3-18.8-.4-4.9-2-8.3-10-7.6-6.6.6-29.6 7.3-57.5 3" class="ff150-tT8sqplK_svg__st1"/><path d="M39.3 127.3s-4.2 8.7-4.2 9.3 9.3 15.1 10 15.6c.8.5 14.3 5.8 15 5.4.6-.4-5.8-14.2-5.7-15.1s4.7-11 4.7-11" class="ff150-tT8sqplK_svg__st2"/><path d="m52.8 146.5-12.4-3.7s3 5.5 3.5 5.8c.6.3 11.2 4.9 11.5 3.9.5-1-2.6-6-2.6-6z" class="ff150-tT8sqplK_svg__st2"/><path d="m86.1 252.2-16.9-12.8-.8-9.4 19.3 14.1.3 7.4" class="ff150-tT8sqplK_svg__st1"/><path d="M460.9 125.6c.4 1.4-.1 2.5-1.1 2.6s-8.9 1.3-11.2 1.3-8.9-7-10.5-7.3c-1.3-.2-30.1 2.4-32.9 1.8s-9.6-4.9-10.8-8.7-11.6-44.8-9.8-47.7c1.9-2.8 43.4 7.3 44.6 8.4 3.8 3.5 20.8 27.1 28.4 39.2" class="ff150-tT8sqplK_svg__st2"/><path d="M459.4 125.2c-.2-1.4.5-8.6.8-9.8m-8.1 73.5c3-7 13.1-49.5 10.4-63.2m-48.4 83.5c3.1-10.5 12-64.7 10.8-73.1-1.2-8.6-4.1-10.8-5-12.5-2.9-22.6-13.5-53.3-13.5-53.3m-32.7 51c-4.3-17.1-10.9-53.5-12.6-54-9-3.9-110.5 2.5-112.1 5-1.6 2.6-14.3 40-14.3 40" class="ff150-tT8sqplK_svg__st2"/></g></svg>