<svg version="1.1" id="Calque_1" xmlns="http://www.w3.org/2000/svg" x="0" y="0" viewBox="0 0 500 375" style="enable-background:new 0 0 500 375" xml:space="preserve"><style>.st1,.st2{fill:none;stroke:#fff;stroke-miterlimit:10}.st2{stroke-width:.5}</style><g id="Calque_2_00000096741390628982785440000016611643298289776038_"><path class="st1" d="M344.5 110.2c-2.9-.7-28.5-1.7-31.8-1.6-5.9.1-47.2-1.4-53.7 0-4.8 4-3.3 120-.9 125 0 0 41.9 1.7 50.2.9 6.2-2.2 17.6-6.4 20.4-9.7s4.3-48.7 7-56.3c1.3-7.2 10.5-19.5 12.5-26.5 1-7.7 2.2-30.4-3.7-31.8zM431.1 201.5c.6.3 1.2.5 1.8.8-.5-.3-1.1-.6-1.8-.8zM340.2 314.3c.3 1.5 3 22.1 11.3 28.2 11.3 7.9 31.5 16.3 47 19.3 15.8 0 28.7-32.2 37.6-75.5 3.3-16.2 5.3-31.5 5.8-44.5v-.9c.5-15.1-1-27.1-4.7-33.6-1.2-2.2-2.6-3.8-4.2-4.8-.6-.3-1.2-.6-1.8-.8-6.1-2.7-11.5-4.2-15.6-5.1"/><path class="st1" d="M433.1 202.3c-.1 0-.1 0 0 0 1.5 1 2.9 2.6 4.1 4.8-.7-2.1-2-3.7-4.1-4.8z"/><path class="st1" d="M440.6 163.9c-4.1-.7-10.8 7.9-17.8 19.5-2.5 4.1-5 8.5-7.4 13.1 4.1.9 9.6 2.4 15.6 5.1.6.2 1.2.5 1.8.8h.1c2.2 1 3.5 2.6 4.2 4.7 3.8 6.7 5.3 18.7 4.8 33.8 4.4-6.1 7.5-16.9 9-28.5 3-22.5.2-48.1-10.3-48.5z"/><path class="st1" d="M499.6 96.8c-2.6-7.9-19.9-42.5-23.4-47.5-.1-.2-.2-.3-.3-.4-.1-.2-.3-.4-.5-.6-3.4-3.6-17.7-17.9-25.4-24.2-.4-.3-.8-.5-1.1-.8-.2-.1-.5-.3-.7-.5-.3-.2-.6-.4-.8-.6-.3-.1-.5-.3-.7-.4-.5-.3-.9-.5-1.2-.6-3.3-.8-82.4 8.2-92.7 9.7-9.8 1.4-45.3 7.8-52.2 11.2 4.4.7 10.9 2.2 18.7 4.3 37.1 10 105.6 33.6 136.5 43.1 6.6 2 11.5 3.4 14 3.9-.2 2.3-.7 3.6-.6 4.3.1.8 2 2.3 7 16.7 3.2 24-7.1 65.3-8.1 71.4 1 4.5.4 9.1.7 10.3.2 1.2-4.5 20.7-4.5 20.7s-1.3 1.4-3.2 3.6c.8-.2 1.9-.6 3.3-1.3 4.5-2.3 35.5-34.9 35.5-34.9"/><path class="st1" d="M499.9 97.8c-1.2-5.5-18.8-42.5-24-48.8-2.5-2.9-26.6-26.8-30.4-27.7"/><path class="st2" d="M455.8 89.5c-2.3-5.5-15.2-53-18.3-56.9-4.4-1.8-104.9 10.8-118.2 13.8"/><path class="st1" d="M468.1 185.8c1-6.1 11.3-47.4 8.1-71.4-5-14.5-6.9-16-7-16.7-.1-.7.4-2 .6-4.3-2.5-.5-7.4-1.9-14-3.9-30.9-9.5-99.4-33-136.7-42.9-7.9-2.1-14.3-3.7-18.7-4.3-1.5-.3-2.7-.4-3.7-.4-10-.1-22.1-.3-28.7 0-.2.1-.4.1-.8.1-10.2.7-101 8.3-101 8.3S42.5 71.2 36.3 74.7s-8.5 7-8.5 7l.5 4.6s-5.3 16.4-5 21.5c.2 2.3.5 4.3.5 4.3s-.3 1.6-.6 3.1c-.6 2.7 2.2 55.1 12.2 78 .5.4 2.6 1.5 2.6 1.5s.3.6.9 1.6c.9.8 1.8 1.5 2.7 2.3 76.6 26.9 153.2 53.7 229.8 80.6l5.5-2.9 27 7.9s6 13.2 5.4 15.4c-.5 1.9-6.9 28.9-10.5 36.3h.1c2.8.6 4.9.6 7.5-1 .5-.3 4.3-2.7 9.9-6.1 5.6-3.5 13-8 20.6-12.7 1-.7 2.1-1.3 3.2-2 17.6-10.8 35.5-22 35.9-22.6 9-8.9 15.7-39.5 22.4-58 2.8-7.7 9.6-22.9 17.1-37.1 2.4-4.5 4.9-9 7.4-13.1 7-11.6 13.7-20.2 17.8-19.5 10.4.6 13.2 26.1 10.2 48.6-1.6 11.6-4.6 22.4-9 28.5v.9c2.1-2.2 6.1-6.6 10.1-11.1 3.3-3.8 6.7-7.6 9.1-10.3 2-2.2 3.2-3.6 3.2-3.6s4.8-19.5 4.5-20.7c-.2-1.2.3-5.8-.7-10.3zm-120-43.8c-2 7-11.2 19.3-12.5 26.5-2.7 7.6-4.2 53-7 56.3-2.9 3.3-14.3 7.5-20.4 9.7-8.3.8-50.2-.9-50.2-.9-2.4-5.1-3.9-121 .9-125 6.5-1.4 47.8.1 53.7 0 3.4 0 28.9.9 31.8 1.6 6 1.4 4.8 24.1 3.7 31.8z"/><path class="st1" d="M344.5 110.2c-2.9-.7-28.5-1.7-31.8-1.6-5.9.1-47.2-1.4-53.7 0-4.8 4-3.3 120-.9 125 0 0 41.9 1.7 50.2.9 6.2-2.2 17.6-6.4 20.4-9.7s4.3-48.7 7-56.3c1.3-7.2 10.5-19.5 12.5-26.5 1-7.7 2.2-30.4-3.7-31.8zM499.9 211.7c-4 1.4-6.4 1-8.7.8M499.9 199.7 477.6 230l-12.8 1.9-12.8-1.2M499.9 195.1l-8.7-1.9M258 233.6l-2.3 6.4s1.6 16 3.6 29.7c-78.2-22.2-221.3-75-221.3-75"/><path class="st2" d="M307.7 334.2c1.8-2.1 8.1-31.7 8-35.8-.2-4.1-3.6-24.1-6.3-23.5-5.6 1.2-42.4-2.9-49.9-4.9"/><path class="st1" d="M259 108.7c-1.9-7.9 3.7-50.4 8.4-54.9V41.9"/><path class="st2" d="M17.1 199.8s.1 4.4.6 5.5c1.2 1.3 29.7 17.2 29.7 18.3 0 0 2.7-.5 6.6-1.3 11-2.1 32.1-6.1 33.2-5.9M122.1 256.8c2.1 4.1 118.5 42.4 120.2 42.4 1.6 0 1.6-4.4 2.9-5.7 2.9.2 6.8.9 20.8.9s38-10.2 38-10.2"/><path class="st1" d="M38 195.1c-1.5.1-20.8 4.5-20.8 4.5-.5-.3-1.7 8.9-1.7 10.4s9.9 23.6 11.1 24.7c1.2 1.1 11.8 10.9 14.9 13.8s7.4 8.7 12 14.7 58.8 36.6 64.3 39.7 43.8 15.9 45.7 15.6 70 32.5 90.5 33.5 42-13.5 45.1-15.9"/><path class="st2" d="m271.6 279.4-26.4 14.1M131.1 252.8l-33-14-1.2-14 45.5 16.8-.4 7"/><path class="st1" d="M59.2 83.6c1.2 3 13.2 20.8 15.9 22.8.7 0 28.4 0 31.8-2 .8-1.5-2.8-26.8-3.1-29.8-.3-3.1 3.1-5.9 1.9-6.3s-42.9 6.9-42.9 6.9c.1 1.2-3.9 6.2-3.6 8.4z"/><path class="st1" d="M65.4 82.4c0-.5 1.1-3.3 1.7-3.6s27-4.2 27.2-3.9-1.3 3-1.2 4.1 3.1 8.7 3.1 8.7l-27.3 2.7s-3.5-7.6-3.5-8z"/><path class="st2" d="M476.9 51.1S454.4 29 453 29.4c3.6 10.7 26.8 80.2 27.6 86.7.8 6.5-4.8 61.5-7.9 68.3 0 3.1.1 8.9 0 10.7s-4.8 13.8-4.7 14.6.4 3.8.4 3.8l-1.2 3.5"/><path class="st2" d="M468 42.5c4.6 6.8 20.2 58.1 19.2 60.6 3.6 3.6 6.8 12.5 7.5 15 1.7 7.2-5 51.8-8.1 57.2-.3 1.5.6 7.1 0 9.6s-4.3 13-4.3 13l1.3 3.1"/><path class="st2" d="M482.2 101c-3.2-2-4.8-6-5.8-7.8-1.4-2.4-17.6-54.4-18-56.5-.2-2 22.2 22.6 22.2 22.6L495 89.5l2.6 18c-1.3-.3-12.2-4.5-15.4-6.5z"/><path class="st1" d="m499.9 126.4-1.3.1-2.2.3v4.3l2.3-.3 1.2-.1"/></g><path class="st2" d="M99.2 250.9c2.8 2.5 19.2 9.6 19.2 9.6.9-1.6 2.1-3 3.7-3.7 0 0 37.4-14 37.4-14.7-.2-.6-70.4-25-71.9-25.3.5 1.5 7.9 30.3 11.6 34.1z"/><path class="st2" d="M118.4 260.5c-4.5 7.2-1.4 26.7-4.4 29.4-4.3 2.1-45.5-22.4-51.6-28-3-4-14.8-28.1-15.6-31.6-.7-2.2-.2-4.8.7-6.7"/></svg>
