<svg xml:space="preserve" id="ff150-18YVVN-G_svg__Calque_1" x="0" y="0" style="enable-background:new 0 0 500 375" version="1.1" viewBox="0 0 500 375" xmlns="http://www.w3.org/2000/svg"><style>.ff150-18YVVN-G_svg__st2,.ff150-18YVVN-G_svg__st3{fill:none;stroke:#fff;stroke-miterlimit:10}.ff150-18YVVN-G_svg__st3{stroke-width:.5}</style><g id="ff150-18YVVN-G_svg__Calque_2_00000065796814984098362650000009702676069826481852_"><path d="M500 197.7c-5 5.6-19 33-20.1 51.8-3 7.7-10.3 7.5-14.5 7.7s-428.3-8.8-428.3-8.8-5.5.6-8.2-5.6c-2.7-6.2-8-29.4-15.3-44.2-4.5-9-13.7-17.7-13.7-17.7M415 71c-21.9-12.9-47.7-27.6-56.8-31.7-5-2.3-20.2-6.9-25.2-7.8-10.1-1.8-130.4-7.8-156.9-6.8s-26.9 8.5-30 14c-3.1 5.4-17.4 55.5-17.4 56.9C120 95.6 0 94.2 0 94.2m500 11.2s-34.8-3.9-38.5-4.9c-2-1.4-4.2-2.6-12.8-8.7-1.8-1.3-5.4-3.6-10-6.4" class="ff150-18YVVN-G_svg__st2"/><path d="M128.7 95.9c-9 22.3-9.5 120.1-.5 154.5M17.5 208.9c-2-1.9-9.9-11.4-17.4-14.3m31.8 52.2c.2 5.5-1.1 17.8-6.9 28.4S11.1 296.3.1 301.7m499.9-.8c-3.9-2.1-24.4-14.5-30.2-43.7M416 114.3l.3 2.7s13.3.1 14.7-.9c1.4-1 4-3 4.7-3.8.7-1 4.3-6.8 4.9-9.4.7-2.6-2.1-22.3-5.1-25.7-2.9-3.4-13.9-9.9-14.4-9.9s-3.3-.5-3.9 0-4 7.5-4.1 8.6.1 37 .6 37.7 1.1 1 2.3.7z" class="ff150-18YVVN-G_svg__st2"/><path d="M416.2 114c2.6-3.8 3.5-8.8 3.7-12.5.2-3.8.2-22.1-.1-26.2-.2-2.3-1.1-7.6-2.4-8m20.7 41.2c-1.5 1.8-5.1 3.7-5.5 3.9s-15.2 1.8-16.3 1.8m28 143c4.3-3.7 7.5-6.2 9.6-17.1 2.1-10.8 12.4-83 8.2-106.7-7.1-33.9-10.7-36.2-22.8-44.2m-25.2-15.6S360.4 42.3 341 37.5c-14.9-4.3-78.1-6.8-91-7.1-12.9-.3-77-1.5-82.4 0-13.8 4.7-22.3 66.8-25.2 83.9-3.4 39.5-2.7 126.3 7.1 136.4" class="ff150-18YVVN-G_svg__st3"/><path d="M248.6 252.9s4.3-118.7 3.4-130.9-1.9-18.8-1.9-18.8l-.1-72.9" class="ff150-18YVVN-G_svg__st3"/><path d="M440.8 95.5c5.1 5.4 8.6 13.8 10.6 27.5 0 0-74.4.1-81.7-2.7-14.4-2.4-30.2-11.9-50.5-15-7.3-2.1-115.4-2.5-127.2-4.3-11.7-1.7-25.1-6.9-26.6-10.8s3-45 12.6-55.1c6.2-4.3 139.5 1.6 158.2 5.4 14.3 4.3 20.2 6.6 77.1 37.1m-108.8 50.8v15.5l-41.5-.4v-15.9z" class="ff150-18YVVN-G_svg__st3"/><path d="M303.3 133.3v5.1s-3.5.7-4.5.7-33.9.2-34.4-.7 0-5.5 0-5.5 4.1-1 5-1 30.3-.4 31 0c.8.4 2.6.9 2.9 1.4z" class="ff150-18YVVN-G_svg__st2"/></g></svg>