<svg xmlns="http://www.w3.org/2000/svg" viewBox="0 0 500 375" style="enable-background:new 0 0 500 375" xml:space="preserve"><style>.st1,.st2{fill:none;stroke:#fff;stroke-miterlimit:10}.st2{stroke-width:.5}</style><g id="Calque_2"><path class="st1" d="M264.4 292c-.6 6-2.2 12-4.8 17.7-3.1 7.3-29.4 25.7-41.7 25.6-14.6-1.1-27.3-9.7-43.1-38.9-16.1-35.6-12.1-67.9 6.8-77.8 5.3-2.8 18.5-7.8 30.7-8.5M66.2 199.4c-5.1 9.5-18.9 11.2-26.1 11.2-5.9-1.4-10.5-10.1-13.6-24-3.8-16-5.5-34.3 4.1-34.2" transform="matrix(-1 0 0 1 500 0)"/><path class="st1" d="M164.3 248.1c-16-6.6-119.8-59.9-121-61.5-1-2.9-11.5-37.6-18.1-42-6.6-4.4-2.3 19.6-2.2 20.8M40.1 114c.9-.3 1.6-.5 2.1-.5C46.2 107 64 76.4 73 69.6c13.7-10.4 55.7-14.2 62.4-14.4s82.9 1.1 109.3 8.9c11.1 2.8 20 43 22.8 48.1 9 .2 203.1 5.3 207.6 7.9 6.4 4.5 2.4 60.2-8.3 81 .9 1.1 12 2.3 13.5 5.7 2.1 9.8-1.2 11.1-4.2 17.1s-12.6 26.3-17.8 33.5-24.3 26.9-29.3 30c-4.9 3-24.6 12.7-24.6 12.7-6.6 4-21 19-33.6 22.2-20.9 2.3-106.5-30-119-35.6-10.4-38.6-30.3-73-50.2-85.9-18.7-12.1-41-12.1-46.2 15.3-2.5 13 3.7 27.5 9.5 30" transform="matrix(-1 0 0 1 500 0)"/><path class="st1" d="M23.3 168.5c-3.7-9.6-3.9-25.2-2.3-31.3 1.6-6.2 0-9.7 1.8-12.4" transform="matrix(-1 0 0 1 500 0)"/><path class="st1" d="M44.1 125.5s-20.3.2-21.4-.5c-1.1-.7-3.4-2.1-3.7-4.1s-1.2-9.7-1-10.1c.1-.4 4.6-4.9 5.1-5.1.5-.2 14.2-.7 14.7-.4.4.3 2.3 9.8 2.4 10.1 0 .3 5.9 0 5.9 0l-2 10.1z" transform="matrix(-1 0 0 1 500 0)"/><path class="st2" d="M466.7 201.4c-7.6 6.2-64.1 51.3-103.4 73.1-6.4 2.1-27 4.3-28.9 4.3-.7 3.8 26 14.6 43.3 10.5 17.2-4.1 52.6-30.1 54-30.8 4 2.5.7 14.8.5 18.2-1 3.6 23.2-16.3 26-23.4 1.6-4.1 8.2-17.1 7.9-24.1 4.5-7.4 14.2-16.6 14.2-22.4M439 223.2l27 5.9M403.9 248.6l27.7 9.9" transform="matrix(-1 0 0 1 500 0)"/><path class="st2" d="M420.8 254.4c15.7-7.9 18-31.2 18-31.2" transform="matrix(-1 0 0 1 500 0)"/><path class="st1" d="M63.7 144s-.1 2.3.2 2.7c.3.4 8.5 2.5 8.8 2.2.3-.2.2-9.5-.1-9.9-.3-.3-8.4-1.9-8.6-1.8-.2.1-.3 2.8-.3 2.8" transform="matrix(-1 0 0 1 500 0)"/><path class="st1" d="M72.8 142.5s-9.7-2.7-10.1-2.4c-.4.3-.2 3.5.1 3.8.3.3 10.1 2.2 10.1 2.2M267.5 112.3l-149.7 9.5s225.5 20.4 240.6 21.3c18.4-.8 114.6-14.1 117-22.6" transform="matrix(-1 0 0 1 500 0)"/><path class="st1" d="M363.9 274.1c7.4-18.6 15-97.6 4.5-131.9" transform="matrix(-1 0 0 1 500 0)"/><path class="st1" d="M368.7 252.9s-27.9 4.1-44.7-2.3c-6.3-3.4-4.9-12.9-3.9-21.5 1-8.5-1.2-18.2-7.8-24.4-5.3-5-7-11.3-6.3-18.8.4-4.9 2-8.3 10-7.6 6.6.6 29.6 7.3 57.5 3" transform="matrix(-1 0 0 1 500 0)"/><path class="st2" d="M460.7 127.3s4.2 8.7 4.2 9.3c0 .6-9.3 15.1-10 15.6-.8.5-14.3 5.8-15 5.4-.6-.4 5.8-14.2 5.7-15.1-.1-.9-4.7-11-4.7-11" transform="matrix(-1 0 0 1 500 0)"/><path class="st2" d="m447.2 146.5 12.4-3.7s-3 5.5-3.5 5.8c-.6.3-11.2 4.9-11.5 3.9-.5-1 2.6-6 2.6-6z" transform="matrix(-1 0 0 1 500 0)"/><path class="st1" d="m413.9 252.2 16.9-12.8.8-9.4-19.3 14.1-.3 7.4" transform="matrix(-1 0 0 1 500 0)"/><path class="st2" d="M39.1 125.6c-.4 1.4.1 2.5 1.1 2.6 1 .1 8.9 1.3 11.2 1.3s8.9-7 10.5-7.3c1.3-.2 30.1 2.4 32.9 1.8s9.6-4.9 10.8-8.7c1.2-3.8 11.6-44.8 9.8-47.7-1.9-2.8-43.4 7.3-44.6 8.4-3.8 3.5-20.8 27.1-28.4 39.2" transform="matrix(-1 0 0 1 500 0)"/><path class="st2" d="M40.6 125.2c.2-1.4-.5-8.6-.8-9.8M47.9 188.9c-3-7-13.1-49.5-10.4-63.2M85.9 209.2c-3.1-10.5-12-64.7-10.8-73.1 1.2-8.6 4.1-10.8 5-12.5C83 101 93.6 70.3 93.6 70.3M126.3 121.3c4.3-17.1 10.9-53.5 12.6-54 9-3.9 110.5 2.5 112.1 5 1.6 2.6 14.3 40 14.3 40" transform="matrix(-1 0 0 1 500 0)"/></g></svg>