<svg xml:space="preserve" id="ff150-7nvlys8r_svg__Calque_1" x="0" y="0" style="enable-background:new 0 0 500 375" version="1.1" viewBox="0 0 500 375" xmlns="http://www.w3.org/2000/svg"><style>.ff150-7nvlys8r_svg__st2,.ff150-7nvlys8r_svg__st3{fill:none;stroke:#fff;stroke-miterlimit:10}.ff150-7nvlys8r_svg__st3{stroke-width:.5}</style><g id="ff150-7nvlys8r_svg__Calque_2_00000183219226133025287270000017055866259811610501_"><path d="M215 270.2c2.5 51.4 49.5 89.6 96.3 89.6s89.7-30.1 91.2-84.7c0-52.8-45.8-98.6-92.7-98.6s-94.8 34-94.8 93.7z" class="ff150-7nvlys8r_svg__st2"/><path d="M.1 249.4s203 19.1 202.7 17.4c2.7-2.1 9.9-15.9 14.4-17.4m184.4 12.7c4.2 3.3 7.5 7.7 7.1 17.8.2 7 39.8-1.5 46-3.5s22.6-14.7 25.9-22.9c3.2-8.2 7-38.5 6.7-40.5s-13.9-11.1-14.2-13c-.3-1.9 5.2-55.1 5.5-62.3s-.3-29.5-1.3-31.9c-1.1-2.4-14.9-13.1-16.5-13.7-1.6-.5-35.6-10.3-70.8-15.8-8.9-1.4-148.9-16.5-162-16.3-4.4-3.5-62-51.8-77.3-59.9m-24 53.9 17.7 5s-.1 7.8-2 10.9-7.5 10.1-12.9 12.5-18.4 2.3-19.4 2.3-56-12.9-57.5-14.6S43.2 63 43 54.2 38.7 31 41.1 25.9s13.1-11 17.3-10.7 53.7 12.9 59.8 20.1c5.9 7.1 8.6 17.1 8.5 18.7z" class="ff150-7nvlys8r_svg__st2"/><path d="M417.4 282.2c3.1-10.4-2.6-52.7-6.1-67.5-2.2-9.4-14.4-25.8-24.2-34.9-5.9-5.4-30-22.3-75.1-26.7-36.2-3.5-86.6 22.4-104.1 56.7-13.6 33.5-9 53-5.1 57m260.1-82.5s2.3-20.4 1.5-21-9.3-1.1-9.3-1.1 0-17.6.4-18.1 9.7-1.9 9.7-1.9 1.3-22.7 0-25.9c-1.3-3.2-33.7-4.3-35-4.3s-9.6.6-10.4 4.2-.4 11.2 1 13.4c1.4 2.1 12.3 16.4 16 20.6 1.1 2.8 3.1 19.4 2.5 30.5.6 10.4 12.7 6.8 12.7 6.8l10.9-3.2z" class="ff150-7nvlys8r_svg__st2"/><path d="M473.1 200c-11.3 16.1-19.8 17.5-61.4 16.4m75.6-3.4c-7.4 9.9-35.1 23.5-72.9 18.7m69.1-8.6s-3.9 25.5-4.8 26.7-10.1 9.9-14.7 10.4.6-25.7 1.8-26.6c1.2-.8 15.4-7.7 17.7-10.5zm-5.4-106.8-13.4-.5m-14.8-2.7s-9.2-12-13.9-15.9c-6.5-5.5-118.8-16.8-177.7-20-7.8-.4-11.9-1.5-17.8-3.9-2-1.4-12.8-13.3-12.8-13.3m-.8-.6-32.4-1.7S180 43.8 175.7 40.2C157.2 23.9 123.2 0 123.2 0m-16.1 0c8.9 5.7 45.6 35.8 54.8 46.2 2.5 2.9 6 7.1 6.9 12 2.8 23-4.1 73.1-2.5 148.1-2.1 10.5-3.4 55.8 3.2 58.3" class="ff150-7nvlys8r_svg__st3"/><path d="M90.4 0c6.6 4.3 50.7 35.9 57.8 43 6.8 6.8 9 8.4 10.2 19.5 1.5 13.4-1.4 28.2-2.3 30.7-4.5-.2-91.8-.3-96.4-.8-21.6-3.5-43.8-18.6-51.3-20.3-4.2-.9-8.3-.8-8.3-.8" class="ff150-7nvlys8r_svg__st3"/><path d="M126.4 54.3c.7 3.5 1.8 10.9.5 11.6-1.3.7-36.7-7.2-52.4-9-6-.7-29.6-2.9-31.2-2.3" class="ff150-7nvlys8r_svg__st3"/></g></svg>