<svg version="1.1" id="Calque_1" xmlns="http://www.w3.org/2000/svg" x="0" y="0" viewBox="0 0 500 375" style="enable-background:new 0 0 500 375" xml:space="preserve"><style>.st1,.st2{fill:none;stroke:#fff;stroke-miterlimit:10}.st2{stroke-width:.5}</style><g id="Calque_2_00000096741390628982785440000016611643298289776038_"><path class="st1" d="M151.7 141.2c2 7 11.2 19.3 12.5 26.5 2.7 7.6 4.2 53 7 56.3s14.2 7.5 20.4 9.7c8.3.8 50.2-.9 50.2-.9 2.4-5 3.9-121-.9-125-6.5-1.4-47.8.1-53.7 0-3.3-.1-28.9.9-31.8 1.6-5.9 1.4-4.7 24.1-3.7 31.8zM67 201.5c.6-.3 1.2-.5 1.8-.8-.7.2-1.3.5-1.8.8zM84.3 195.8c-4.1.9-9.5 2.4-15.6 5.1-.6.2-1.2.5-1.8.8-1.6 1-3 2.6-4.2 4.8C59 213 57.5 225 58 240.1v.9c.5 13 2.5 28.3 5.8 44.5 8.9 43.3 21.8 75.5 37.6 75.5 15.5-3 35.7-11.4 47-19.3 8.3-6.1 11-26.7 11.3-28.2"/><path class="st1" d="M62.7 206.3c1.2-2.2 2.6-3.8 4.2-4.8h-.1c-2.1 1.1-3.4 2.7-4.1 4.8z"/><path class="st1" d="M49 211.6c1.5 11.6 4.6 22.4 9 28.5-.5-15.1 1-27.1 4.8-33.8.7-2.1 2-3.7 4.2-4.7h.1c.6-.3 1.2-.6 1.8-.8 6-2.7 11.5-4.2 15.6-5.1-2.4-4.6-4.9-9-7.4-13.1-7-11.6-13.7-20.2-17.8-19.5-10.5.4-13.3 26-10.3 48.5z"/><path class="st1" d="M0 183.4s31 32.6 35.5 34.9c1.4.7 2.5 1.1 3.3 1.3-1.9-2.2-3.2-3.6-3.2-3.6s-4.7-19.5-4.5-20.7c.3-1.2-.3-5.8.7-10.3-1-6.1-11.3-47.4-8.1-71.4 5-14.4 6.9-15.9 7-16.7.1-.7-.4-2-.6-4.3 2.5-.5 7.4-1.9 14-3.9 30.9-9.5 99.4-33.1 136.5-43.1 7.8-2.1 14.3-3.6 18.7-4.3-6.9-3.4-42.4-9.8-52.2-11.2-10.3-1.5-89.4-10.5-92.7-9.7-.3.1-.7.3-1.2.6-.2.1-.4.3-.7.4-.2.2-.5.4-.8.6-.2.2-.5.4-.7.5-.3.3-.7.5-1.1.8-7.7 6.3-22 20.6-25.4 24.2-.2.2-.4.4-.5.6-.1.1-.2.2-.3.4C20.2 53.5 2.9 88.1.3 96"/><path class="st1" d="M54.4 20.5c-3.8.9-27.9 24.8-30.4 27.7C18.8 54.5 1.2 91.5 0 97"/><path class="st2" d="M180.6 45.6C167.3 42.6 66.8 30 62.4 31.8c-3.1 3.9-16 51.4-18.3 56.9"/><path class="st1" d="M31.1 195.3c-.3 1.2 4.5 20.7 4.5 20.7s1.2 1.4 3.2 3.6c2.4 2.7 5.8 6.5 9.1 10.3 4 4.5 8 8.9 10.1 11.1v-.9c-4.4-6.1-7.4-16.9-9-28.5-3-22.5-.2-48 10.2-48.6 4.1-.7 10.8 7.9 17.8 19.5 2.5 4.1 5 8.6 7.4 13.1 7.5 14.2 14.3 29.4 17.1 37.1 6.7 18.5 13.4 49.1 22.4 58 .4.6 18.3 11.8 35.9 22.6 1.1.7 2.2 1.3 3.2 2 7.6 4.7 15 9.2 20.6 12.7 5.6 3.4 9.4 5.8 9.9 6.1 2.6 1.6 4.7 1.6 7.5 1h.1c-3.6-7.4-10-34.4-10.5-36.3-.6-2.2 5.4-15.4 5.4-15.4l27-7.9 5.5 2.9c76.6-26.9 153.2-53.7 229.8-80.6.9-.8 1.8-1.5 2.7-2.3.6-1 .9-1.6.9-1.6s2.1-1.1 2.6-1.5c10-22.9 12.8-75.3 12.2-78-.3-1.5-.6-3.1-.6-3.1s.3-2 .5-4.3c.3-5.1-5-21.5-5-21.5l.5-4.6s-2.3-3.5-8.5-7-129.9-24.4-129.9-24.4-90.8-7.6-101-8.3c-.4 0-.6 0-.8-.1-6.6-.3-18.7-.1-28.7 0-1 0-2.2.1-3.7.4-4.4.6-10.8 2.2-18.7 4.3C143.5 55.7 75 79.2 44.1 88.7c-6.6 2-11.5 3.4-14 3.9.2 2.3.7 3.6.6 4.3-.1.7-2 2.2-7 16.7-3.2 24 7.1 65.3 8.1 71.4-1 4.5-.5 9.1-.7 10.3zm124.4-85.9c2.9-.7 28.4-1.6 31.8-1.6 5.9.1 47.2-1.4 53.7 0 4.8 4 3.3 119.9.9 125 0 0-41.9 1.7-50.2.9-6.1-2.2-17.5-6.4-20.4-9.7-2.8-3.3-4.3-48.7-7-56.3-1.3-7.2-10.5-19.5-12.5-26.5-1.1-7.7-2.3-30.4 3.7-31.8z"/><path class="st1" d="M151.7 141.2c2 7 11.2 19.3 12.5 26.5 2.7 7.6 4.2 53 7 56.3s14.2 7.5 20.4 9.7c8.3.8 50.2-.9 50.2-.9 2.4-5 3.9-121-.9-125-6.5-1.4-47.8.1-53.7 0-3.3-.1-28.9.9-31.8 1.6-5.9 1.4-4.7 24.1-3.7 31.8zM8.7 211.7c-2.3.2-4.7.6-8.7-.8M47.9 229.9l-12.8 1.2-12.8-1.9L0 198.9M8.7 192.4 0 194.3M461.9 193.9s-143.1 52.8-221.3 75c2-13.7 3.6-29.7 3.6-29.7l-2.3-6.4"/><path class="st2" d="M240.4 269.2c-7.5 2-44.3 6.1-49.9 4.9-2.7-.6-6.1 19.4-6.3 23.5-.1 4.1 6.2 33.7 8 35.8"/><path class="st1" d="M232.5 41.1V53c4.7 4.5 10.3 47 8.4 54.9"/><path class="st2" d="M412.7 215.6c1.1-.2 22.2 3.8 33.2 5.9 3.9.8 6.6 1.3 6.6 1.3 0-1.1 28.5-17 29.7-18.3.5-1.1.6-5.5.6-5.5M195.9 283.4s24 10.2 38 10.2 17.9-.7 20.8-.9c1.3 1.3 1.3 5.7 2.9 5.7 1.7 0 118.1-38.3 120.2-42.4"/><path class="st1" d="M200.8 335.3c3.1 2.4 24.6 16.9 45.1 15.9s88.6-33.8 90.5-33.5 40.2-12.5 45.7-15.6 59.7-33.7 64.3-39.7 8.9-11.8 12-14.7 13.7-12.7 14.9-13.8c1.2-1.1 11.1-23.2 11.1-24.7s-1.2-10.7-1.7-10.4c0 0-19.3-4.4-20.8-4.5"/><path class="st2" d="m254.7 292.7-26.3-14.1M357.9 247.8l-.4-7L403 224l-1.2 14-33 14"/><path class="st1" d="M437.1 74.4s-41.7-7.3-42.9-6.9 2.2 3.2 1.9 6.3c-.3 3-3.9 28.3-3.1 29.8 3.4 2 31.1 2 31.8 2 2.7-2 14.7-19.8 15.9-22.8.3-2.2-3.7-7.2-3.6-8.4z"/><path class="st1" d="m431 89.6-27.3-2.7s3-7.6 3.1-8.7-1.4-3.8-1.2-4.1 26.6 3.6 27.2 3.9 1.7 3.1 1.7 3.6c0 .4-3.5 8-3.5 8z"/><path class="st2" d="m32.7 216.2-1.2-3.5s.3-3 .4-3.8-4.6-12.8-4.7-14.6c-.1-1.8 0-7.6 0-10.7-3.1-6.8-8.7-61.8-7.9-68.3.8-6.5 24-76 27.6-86.7C45.5 28.2 23 50.3 23 50.3"/><path class="st2" d="m16.3 200.2 1.3-3.1s-3.7-10.5-4.3-13 .3-8.1 0-9.6c-3.1-5.4-9.8-50-8.1-57.2.7-2.5 3.9-11.4 7.5-15-1-2.5 14.6-53.8 19.2-60.6"/><path class="st2" d="m2.3 106.7 2.6-18 14.4-30.2s22.4-24.6 22.2-22.6c-.4 2.1-16.6 54.1-18 56.5-1 1.8-2.6 5.8-5.8 7.8-3.2 2-14.1 6.2-15.4 6.5z"/><path class="st1" d="m0 129.9 1.2.1 2.3.3V126l-2.2-.3-1.3-.1"/></g><path class="st2" d="M412.3 216c-1.5.3-71.7 24.7-71.9 25.3 0 .7 37.4 14.7 37.4 14.7 1.6.7 2.8 2.1 3.7 3.7 0 0 16.4-7.1 19.2-9.6 3.7-3.8 11.1-32.6 11.6-34.1z"/><path class="st2" d="M381.5 259.7c4.5 7.2 1.4 26.7 4.4 29.4 4.3 2.1 45.5-22.4 51.6-28 3-4 14.8-28.1 15.6-31.6.7-2.2.2-4.8-.7-6.7"/></svg>
