<svg version="1.1" id="Calque_1" xmlns="http://www.w3.org/2000/svg" x="0" y="0" viewBox="0 0 500 375" style="enable-background:new 0 0 500 375" xml:space="preserve"><style>.st2,.st3{fill:none;stroke:#fff;stroke-miterlimit:10}.st3{stroke-width:.5}</style><g id="Calque_2_00000181801412991583530830000004996160467933655962_"><path class="st2" d="M170.9 286.9c-35.1-2.7-127.7-10-137.6-11.3-5.7-7.4-10.8-25.5-13.4-34.4-.7-6 1-12.8 3.1-15s8.2-2.5 8.2-2.5.5-19.1.1-28.9c0-7.6 1.9-80.3 2.6-86.8.7-6.7 12.5-28.4 12.5-31.2S47 70 47 70s2.4-1.9 7.4-2.3 60.9-6.2 69.1-7.4c12.9-1.8 245.5-1 253.4-.2 7.6.8 61.9 6.6 70.2 7.8 4.7.9 6.2 1.3 6.5 4.8-.1 1.5-.1 4-.1 4s10.2 22.9 12.3 28.6c2.4 6.4 2.6 81.4 2.9 89.5.4 8.1-1.5 23.8 0 29.4 2.8.3 5.9-.4 8 1.4 2.1 1.8 4.4 10.3 3.7 14.2-.7 3.9-8.2 31.3-14.7 35.7-9.7 1.1-98.1 7.5-128.9 11.3-21.3.5-137.3 3.2-165.9.1z"/><path class="st2" d="M85 279.9c-.1 6.4 4.6 34.1 15.5 38.1 10.8 4 35.8 1.8 38.6.8 2.9-1 15.1-12.6 16.9-32.6M343.7 286.1c.7 4.7 6.6 29 15.7 31.6 10.9 3 35 2.2 39.3.7 6.3-2.3 16.2-18.5 16-39M213.7 234v16.7h81.8v-16.5z"/><path class="st2" d="M23 226.2c1.6 7.1 20.9 6 28.2 6.2 6 .1 112.3-.3 114.1 1.5s19.5 39.7 23.9 41.4c4.4 1.8 119.8 3.1 121.8 0 8.9-9.6 20.2-38.8 22.4-41.4 2.2-2.6 116.7-1.2 120.5-1.5 6.2-.5 22.6-.2 22.7-6.8"/><path class="st2" d="M31.2 223.7c54.8 5.3 366.3 7 437.1.5M31.4 190.3c4-.1 15.7 0 15.7 0s-1.1-77.4-.2-82.9c-.3-2.5-10.8 1.5-13.1 3.4M468.5 190l-15.3.5s.3-78.8.2-83.1c1.6-2.1 12.4 1.9 13.1 3.2M221.2 69.3c-1.4 1-1.1 19.4.8 20.8 2 1.4 23.6 1.6 27 1.6 3.1 0 26.4 0 28-1s3.2-19.4 1.9-21.4c-.5-.8-57-.5-57.7 0zM220.4 81.1h58.2"/><path class="st3" d="M50.6 225c-.6-5.7-3.6-28.8-3.3-34.3M52.7 68.2c.1 2.2.2 5.1-.2 7-2.3 8.1-5.3 29.8-5.5 32.7M449.8 225.1c1.1-5.1 2.2-17.1 3.2-34.2M447.1 68c.1 2.9.1 5.5.1 6.6 0 1.3 6 29.1 6 32.8M333.4 234l-14.5-5.5s-16.4 33.5-20 36.9c-1.8 1.7-25.4 1.3-49.1 1.3-22.5 0-45.1.7-48.3-1-4.7-2.6-18.4-33-20.8-37.2l-15.4 5.5M207.3 59.4s-2.4 11.5-2.2 12.4c.3.9 9.5 26.9 13.2 26.9 2.8 0 61 1.2 64.1-.6 2.8-1.6 12.6-25.3 12.5-26.7-.1-1.4-2.3-12-2.3-12"/></g></svg>