<svg xml:space="preserve" id="ff150-Ttsc7q6V_svg__Calque_1" x="0" y="0" version="1.1" viewBox="0 0 500 375" xmlns="http://www.w3.org/2000/svg"><style>.ff150-Ttsc7q6V_svg__st1{stroke-width:.5}.ff150-Ttsc7q6V_svg__st1,.ff150-Ttsc7q6V_svg__st2{fill:none;stroke:#fff;stroke-miterlimit:10}</style><g id="ff150-Ttsc7q6V_svg__Calque_2_00000033361953408320311070000014659997899462898846_"><path d="M100.7 375s94.5-150.9 110.5-163.7" class="ff150-Ttsc7q6V_svg__st1"/><path d="M190.2 375s54.2-97.6 110.5-164.7C345.2 157.1 500 80.2 500 80.2" class="ff150-Ttsc7q6V_svg__st2"/><path d="M231.6 375s61.1-109 88.1-142.4c32-39.5 180.3-129.9 180.3-129.9" class="ff150-Ttsc7q6V_svg__st1"/><path d="m488.4 86.1 11.6 49.8m0 215.3L484.9 375M0 58.7s8.3-4.4 31.7-15.4C75.2 23.1 298 13.9 311 13.9c19.7-2.2 189 15.8 189 15.8" class="ff150-Ttsc7q6V_svg__st2"/><path d="M0 128.5c2.4 0 66.6 31.6 102.1 44.5 47.2 17.2 100.5 30.4 109.1 38.3" class="ff150-Ttsc7q6V_svg__st1"/></g></svg>