<svg width="500" height="375" fill="none" xmlns="http://www.w3.org/2000/svg"><path d="m7 93.32 81.8-3.66S234 10.57 255.08 4.86M7 246.19s61 17.43 78.89 77.5L92.73 365l5.51 4.39L493 282.42M245.51 77.44s-33.08-.32-80.32 15.88a287.698 287.698 0 0 1-40.36 3.14L118 109.53s83.92-2.07 98.59-7.57c0 0 22.7-6.95 24.31-8.64l2.06-3.51 5.51-26.37-1.38-3.9s-11-9.89-29.58-10.45c0 0-22.24-1.24-50.67 23.29l-.69 2.75 6 15.83" stroke="#fff" stroke-miterlimit="10"/><path d="M124.83 96.46S237.34 10 293.6 4.86M415.74 4.86S490.24 19.49 493 22.7M360.1 4.86s67.84 5.61 132.86 23M205.289 104.28s277.91-8 287.67-7.82" stroke="#fff" stroke-miterlimit="10"/><path d="m400 9.54 1.64 4.94s4.51 56.67 3.59 82l5.12 7.83 3.56 27.83s-1.38.92-1.38 4.59c0 0-2 51.71-12.53 120 0 0-2 16.51 0 30.42l.34 3.21-8.76 14.39" stroke="#fff" stroke-miterlimit="10"/><path d="M35.87 235.87S88.38 260 103.508 317.5l389.49-71.31" stroke="#fff" stroke-miterlimit="10"/><path d="m118 109.53-2.91 5.5-5.5 39.44s-3.35 63.29 11.41 159.82M366.06 144.73s3.9 2.92 7.56 3.15l19.09-.57.52-1-3.67-3.06 1-.58s11.41.4 12.56 1.55l1.6 2.18-.29 5.33-1.31 1.78s-41.22 3.61-47.3 2.92l-1.82-1.56.23-5.29s1.16-2.73 11.83-4.85ZM46 267s44.44 43 25 102.36" stroke="#fff" stroke-miterlimit="10"/></svg>
