<svg width="500" height="375" fill="none" xmlns="http://www.w3.org/2000/svg"><path d="M62.92 8 36.1 13.76l-4.13 7.34 1.38 10.09s-2.53 39.44-2.53 47.46l2.07 9.4L15 131.16l2.29 59.48 7.31 27.65 41.28 37.61 29.8 9.63-8.68-32.1s4.82-129.1 141.71-133.22c0 0 136.89-6.88 147.9 139.64l-7.8 33.71h114.72" stroke="#fff" stroke-miterlimit="10"/><path d="M231 367.8c66.357 0 120.15-53.793 120.15-120.15S297.357 127.5 231 127.5s-120.15 53.793-120.15 120.15S164.643 367.8 231 367.8ZM95.71 265.53l15.291-11.92" stroke="#fff" stroke-miterlimit="10"/><path d="m368.81 273.56-4.47-2.87v-2.52l-13.44-12.72M17.08 185.06s37.13 11.22 55.7 8.24c0 0 13.76-90.11 118.32-113M31.51 62.07s20.48-8.24 40.36-7.34c0 0 41.27-43.16 41.88-46.73M267.46 35.04l19.49 4.17h3a6.998 6.998 0 0 1 6.65-4.17s26.37-.87 31 1l1.6 5 19.26-1.84 1.38-1.27-1.67-8.1-4.35-3.21s-51.14-9.86-78-1.38l-1.83 3.44s1.35 5.9 3.47 6.36Z" stroke="#fff" stroke-miterlimit="10"/><path d="m240.949 8 21.24 69.83s26.79 5 41.73 12.54c0 0 74.75 29.35 87.59 109.14l92.95 1.84" stroke="#fff" stroke-miterlimit="10"/></svg>
