<svg width="500" height="375" fill="none" xmlns="http://www.w3.org/2000/svg"><path d="M7.68 90.115s17.73-2.59 23.85-3.21l91.87-58.39 13.3-6s85.3-18.35 200.86-8.72c0 0 90.2 9.33 100.59 16.06l3.36 4.58s1.84 9.79 1.53 10.7c-.31.91 29.35 34.55 29.35 34.55s20.55 12.58 20.55 13.49c0 .91 1.69 4.7 1.69 4.7l-3.21 21.779.689 18.11-7.169 35.36-7.34 12.69-6.741 6.84" stroke="#fff" stroke-miterlimit="10"/><path d="M471.09 193.154c6-19.38 4.73-35.68-4.46-41-13.09-7.56-37.41 10.06-54.32 39.35a120.129 120.129 0 0 0-13.14 32.26l-12.08 11.69-311.39 118s-8.71-50-69.7-61.91M123.4 28.515s53.35 5 59.46 9.32c0 0-127.18 90.199-140.63 108.849l-28.44 6.11H6.94M31.53 86.904S7.94 103.874 6 106.654" stroke="#fff" stroke-miterlimit="10"/><path d="M49.07 311.064s6.61 10 6.61 16.76l1.68 36.58M456.849 219.436c10.598-20.066 11.247-40.528 1.451-45.702-9.797-5.174-26.33 6.899-36.928 26.966-10.598 20.067-11.247 40.528-1.451 45.702 9.797 5.174 26.33-6.899 36.928-26.966Z" stroke="#fff" stroke-miterlimit="10"/><path d="m443.01 156.574 18.07 4.78 4.43 3.67s13.91 23.85-6.57 57.17c0 0-11.62 24.15-37.61 33.33h-9.17l-26.29-15.6-1.55-3.42M485.74 88.064l-5.09 7.4v6.4l7.79 16.08 2.98 1.72" stroke="#fff" stroke-miterlimit="10"/><path d="M6 277.994s47 .72 72 43.56c0 0 312.76-106 319.64-115.51 0 0 15.13-53.86 62.52-64.26 0 0 31.19-3.84 20.49 38.74M175.369 145.455s-15.07-.92-64.51 1.68c-2.9.16-41 5.66-41 5.66-.62.31-3.06 11.47-3.06 11.47a190.229 190.229 0 0 1 44.79-7.34c26 3 58.09 0 58.09 0l4.28-5.51c1.37-3.36 1.37-18.49 1.37-18.49-3.05-4-22.47-18-27.82-20.49-5.35-2.49-11.46-.91-11.46-.91l-31.11 17.73v4l8.87 13.76" stroke="#fff" stroke-miterlimit="10"/><path d="M69.94 152.794s102.53-103.14 146.1-114.65c0 0 63.74-19.72 180.22-9.63 0 0 36 47 38.76 57.1l-259.85 56.04" stroke="#fff" stroke-miterlimit="10"/><path d="m309.239 26.024 1.38 5.82 2.15 80.15 2.17 8.39 2.45 24.61-9.48 98.3v17.73l-3.46 5.74" stroke="#fff" stroke-miterlimit="10"/><path d="M277.94 161.654c.34-.05.91 2.18 6.3 2.41l15.48-3.33v-2.08l-2.78-2.88s11.35-1.72 11.35-1.15c.192.892.53 1.747 1 2.53a26.098 26.098 0 0 1 0 4.24s-13.76 10.55-39.32 10.89l-2.03-1.83s-3.41-6.88 10-8.8ZM436.621 120.004c-.14.16 3.1 2.92 3.1 2.92v1.27l-8.54 1.66c-.29.05-2.7.28-6.08-2.3a9.003 9.003 0 0 0-6.54 3.62v3.89l1.15.81s18.12-.69 22.82-4.59l2.58-3v-2.35s-1.32-2.81-1.84-2.63c-.52.18-4.07-2.22-6.65.7ZM396.26 28.515s32.11 5.73 38.76 11.69l8 5" stroke="#fff" stroke-miterlimit="10"/></svg>
