<svg width="500" height="375" fill="none" xmlns="http://www.w3.org/2000/svg"><path d="m163.201 16-87.75 61.78s-30.88 12.84-44.33 22v40.66l3.39 10.11-16.51 31.18 15.11 69.56 6.88 9.63s19.72 17 28.43 21.55l27.52 8.26 3.51-3.37-1.07-2.14 4.55-6.44M482.551 282.93l-182.54 7.8h-3.51l-1.84-1.99v-4.28l-6.11-11.31h-3.98" stroke="#fff" stroke-miterlimit="10"/><path d="M193.58 359.52c-50.252 0-90.99-39.627-90.99-88.51s40.738-88.51 90.99-88.51c50.253 0 90.99 39.627 90.99 88.51s-40.737 88.51-90.99 88.51Z" stroke="#fff" stroke-miterlimit="10"/><path d="M297.511 281.94s10.3-95.32-92.43-106.8c0 0-119.39-8.87-114.49 106.78M195.451 16s-10.55 4.15-16.28 9l-61.22 43.11s-4.59 5.27-16.74 6c0 0-20.42 1.46-25.76 3.74M44.72 91.97s43.88-2.93 53.74 0l3.001 3.85v3.9s-29.35 33.25-33 35.54c0 0-33.78.69-37.3-2.29M482.512 241.96h-171s-15-50.45-51.06-67M96.172 198.25a99.362 99.362 0 0 0-19.27 44.78s-45.77-.85-48.76-14.56M482.512 82.98s-241.7-11.62-270.43-10.39c0 0 42.8-52 49.83-56.59" stroke="#fff" stroke-miterlimit="10"/><path d="M426.74 16s18.68 41.48 22 65.39l8.85 7.09 12.23 26.6s4.31 58.06-4.86 95.39c0 0-1.53 7.34 1.52 11.92l7.34 14.37v5.2l-1 6.92s-3.1 14.56-3.1 15c0 .44.58 3.67.58 3.67l-15.79 11.94v4.65M265.771 127.77l.46 1.76s13-1.38 14.22-2.29l-.46-6.58-2.07-2.21s-11.38-2.76-12.15-2.37c0 0 1.76 2.6-2.52 2.75l-22.85-.46a5.506 5.506 0 0 1-3.52-3.59s-11.47-.77-17.27 2.06l-.85 1.68 1.15 5.81 2.06 1.3s13.84 2.37 15.37 2.52c0 0 1.6-1.68 2.83-1.68 0 0 26.34-1.15 25.6 1.3Z" stroke="#fff" stroke-miterlimit="10"/></svg>
