<svg width="500" height="375" fill="none" xmlns="http://www.w3.org/2000/svg"><path d="m7 40.26 22.21-17.12S61.31 8.57 74.46 5M7 289.36l261 58.93-2.07-6.65.23-16.28s.45-104.53 136.66-103.19c0 0 60.21 3.67 90.18 22.48M7 46.99S56.42 8.27 132.07 5M329.59 5s52.59 52.08 65.48 70.42c0 0-376.6 23.85-388 30.27" stroke="#fff" stroke-miterlimit="10"/><path d="M145.069 5s-32.93 77.51-32.74 90l-9 7.23-13.26 31.43v5.51s-6.75 50.9 3 96.76a26.84 26.84 0 0 1-2.83 11.7l-7.8 16.28 3 28.43-.68 2.29 14.35 15.53M395.071 75.42l6.11 6.27 10.86 32s-17.66 65.88-29.58 85.6" stroke="#fff" stroke-miterlimit="10"/><path d="M307.73 222.16c22.52-13.78 53.56-23.84 96-22.92M7 255.65s237.6 37.18 244.94 35.77M45.95 143.6l.76.54-3 2.06.77.84h16.91l1.53-.76 4.58-3.37 2.45-.3 11.12 2.22 1.15 2.22-.58 5.78-1.83 1.15s-36.38 1.22-42.27.53l-1.83-1.45-.64-4.87 1.6-1.76a25.559 25.559 0 0 1 9.28-2.83ZM315.219 136.76l1 .57.92 3.1 3.33 1.37s30.72 1.27 32.44 0l2.41-2.86.8-2.75 2.3-1.72s21.32.91 24 3.44l1.72 3s-.69 6.88-1.72 7.91l-3.1 2.06s-73 2.29-77.85 1.26l-4-1.72.58-7.91 3.55-2.41a34.9 34.9 0 0 1 13.62-3.34ZM267.99 348.29l3.67-4.36v-5.5l9.05-16.97 5.62.57M311.87 369.83a74.56 74.56 0 0 1 2.25-44.46c16.92-45 75.52-64.69 130.88-43.89a125.318 125.318 0 0 1 48.39 32.25" stroke="#fff" stroke-miterlimit="10"/><path d="M493.39 263.91s-50.68-58.93-149-25.69c0 0-24.24 12.16-34.82 30.27l-19.75 39.9s-10.55 32.57 0 61.11M442.48 201.77s36.37 6.42 50.52 13.75" stroke="#fff" stroke-miterlimit="10"/></svg>
