<svg version="1.1" id="Layer_1" xmlns="http://www.w3.org/2000/svg" x="0" y="0" viewBox="0 0 2048 1536" style="enable-background:new 0 0 2048 1536" xml:space="preserve"><style>.st0,.st1{fill:none;stroke:#fff;stroke-width:3.0028;stroke-miterlimit:10}.st1{stroke-width:1.5014}</style><path class="st0" d="M178.6 1100.7c-8.6-18.3-34.9-77.2-5.7-135s96.1-95.5 184.8-78.9 127 92.7 134.4 116.1c7.4 23.5 18.3 77.8 21.2 93.2v10.3l893.5-6.9-3.4-11.4c9.2-101.8 33.1-173.9 151-212.2 111-36 192.2 55.5 201.9 100.1 7.2 33.1 6.9 66.9 0 93.8 34.3-1.7 113.8-14.9 148.2-20.6 6.3-5.1 13-11 22.1-13.8s28.7-12.2 36.5-23.1c7.8-10.9-2.5-26.5 0-33.1s9.4-23.4 8.1-45.3c-1.2-21.8-12-45.3-14.7-59-3.7-19.4-5-53.1-.3-73 1.5-6.4 4.1-14 .3-20.9 7.5-10.3 20.1-29.4 21.7-34.1 1.6-4.7 2.8-20.1-.4-25.4-1.9-3.1-14.7-8.2-20-12.9s-11.2-13-11.2-13c-.2-4.7-4.9-19.1-9.5-22.3-4.7-3.2-18.2-10-23.3-17-5.1-7-64.6-81.5-69-124.3 5.3-2.2 10.2-5.5 10.2-5.5s1.9-5.5-1.3-6.4c-21.2-5.8-67.2-10.6-108.3-13.5-7.9-7.8-39.8-21.6-62.5-25.2-22.8-3.6-206.1-10.7-252.7-12s-206.9-1-236.2 0c-29.3 1-79.5 7.2-121.3 21.3-104.7 3.6-227.9 13.9-277 27.4-115.5 31.9-280.1 139.8-311 155.5-42.6 6.6-153 23.8-185.9 32.9s-104.5 29.9-132 47.9c-25.7 16.8-36.6 31.3-37.1 39-.6 7.7 2.4 21.6 0 25.6-8 13.4-45.9 38.2-55.6 47.3S69.3 895.4 71 908c1.7 12.5 15.1 66.9 14 73.5s-3.1 19.1-5.4 25.4c-2.3 6.3 6.6 17.9 6.6 17.9-10 5.7-19.8 15.1-19.7 30.8.2 15.7 5.4 31.9 20.8 37.6 15.4 5.6 56.4 10 91.3 7.5z" transform="matrix(-1 0 0 1 2048 0)"/><path class="st0" d="M498.1 1025c2.1 35.4-13.9 77.6-49.2 111.4-49.6 47.4-132.3 63.7-196 16.1-63.7-47.7-72-118.2-52.5-166 15.5-38 73.9-87.7 171.7-96.4M1426.7 1061c3.3 25.9 36 78.9 74.8 101.7 62.2 36.6 136.2 17.8 175.5-17 67.3-59.6 67.7-162.7-16.2-217.2-24.5-15.9-67.4-41.1-121.3-28.6-60.3 14-124.2 70.6-112.8 161.1zM554.3 765.4c0-5.3 11.3-27.2 11.3-27.2l-5.6-7.7c-.7-10.7 4.1-26.1 10.7-31.8 6.6-5.7 22.3-14.2 40.5-15.6 1.5 7.9 8.5 49.7 7.9 68.1-2.6 1.3-11.6 3.5-17.5 4.4 1.1 6.6 1.8 25.9 1.8 25.9-12.9 1.1-21.5 1.1-31.1-3.7-9.8-4.8-14-8.2-18-12.4z" transform="matrix(-1 0 0 1 2048 0)"/><path class="st0" d="M560.7 748c-9.1.8-26.5 3.4-38.5 0s-34-25.4-36.3-31.3c-2.3-5.8 10.8-17.7 20.4-24.6 35-25.3 165.4-105.1 234.5-128.6s157.8-35.2 246.5-39.6c88.7-4.3 348.6-4.8 428.6-3s170.4 7.4 198.2 17c27.8 9.6 152.3 70.5 184.5 96.2 32.2 25.6-1.3 49.9-20.6 50.3-244.5 5.9-652.9 25.1-814.4 36.6s-303.3 18.3-344.8 22M854.4 780.2c-16.2 0-15-10-4.9-12.2 14.9-3.2 71.7-8.4 84-8.4 13.4 0 14.7 16.2 1.5 17.8-13.1 1.5-58.7 2.8-80.6 2.8zM1079.2 765.6c16.1-1.9 13.7-11.8 3.4-12.7-15.2-1.4-72.2.3-84.4 1.8-13.3 1.6-12.6 17.9.6 17.8 13.2-.1 58.6-4.3 80.4-6.9zM134 783.8c45.8-9.7 110.4-12.9 153.1-20.6-18.4 24.3-111.3 71.5-179.9 77.8" transform="matrix(-1 0 0 1 2048 0)"/><path class="st1" d="M533 749.6c-2.7 3.4-7.3 9.3-9.7 14-9 17.6-17.7 64.2-17.8 77.6-.2 44.3 20.3 167.9 63.8 264.9M977.1 524.5l-9.6 196.2c.6 10.4-1.9 68.4-3.2 87.6s-5.7 149.3-6 161c-.4 13.6-1.3 39.3-.4 52 .9 12.7 8.2 71.5 9 81.7M1416 520.9l52.9 174c6.8 9 28.3 36.6 27.8 54.8s-2.6 42.7-9.9 57.9-73.3 155.5-86.4 189.5c-13.1 34-25.7 88.2-26.7 102.7" transform="matrix(-1 0 0 1 2048 0)"/><path class="st0" d="m1606.2 500.6 19.6-13.3c-55.9-2.6-319.8-12.3-401.9-9.8-12.3.5-19.1 9.1-22.3 13.1M1960 710.4c-16.5 2.8-60.2 4.2-87.7 7.7s-41.8 14.8-51.4 23.1-11.3 18.7 0 18.3 105-6.1 105-6.1l-39.4 156.9c9.8-7.4 15.9-31.4 24.2-51 8.3-19.6 29.3-56.2 45.8-78.2" transform="matrix(-1 0 0 1 2048 0)"/><path class="st0" d="M1072.7 490.7c153.9-3.4 553.6 9.3 672.7 15.9" transform="matrix(-1 0 0 1 2048 0)"/></svg>