<svg version="1.1" id="Calque_1" xmlns="http://www.w3.org/2000/svg" x="0" y="0" viewBox="0 0 500 375" style="enable-background:new 0 0 500 375" xml:space="preserve"><style>.st1,.st2{fill:none;stroke:#fff;stroke-miterlimit:10}.st2{stroke-width:.5}</style><g id="Calque_2_00000102528546196885323930000006432274767672164022_"><path class="st1" d="M0 87.2C56.4 66.3 74 61.1 131.9 53c50.1-8.7 165.4-18 205.3-16.3 36 0 128.3 1.5 146.1 4.8"/><path class="st1" d="M189.6 45.4c2-1.3 6.7-3.7 11.2-5.3 2.7-.9 26.4-6.6 41.6-8.5 16.9-3.1 103.6-4.7 118.3-4.1 6.6.2 16.9.4 20.3 1.9s7.9 4.9 10.2 8"/><path class="st1" d="M241.9 40.6c1.5-2.4 2.3-3.3 3.2-3.7 6.9-1.9 68.3-4.9 77-5.1 8.7-.2 38.8-.5 39.8.3 1 .7 2.2 3.3 2.6 4.8M500.3 48.4c-7.1.7-42.5 8.4-43 9.5s-4.4 8.7-6.2 9.9c-1.8 1.2-58.7 13.2-60.4 13.1-1.7-.1-8.5-.7-8.8-1.1-.2-.4 12.4-9.8 15.6-11.9 5.6-3.9 30.5-14 35.5-15.4s46.1-12.7 66.9-12.4M86.3 375c26.3-38.3 129.2-137.4 160.9-160.7 40.3-29.7 121.8-74.9 156.6-91.9 30.1-14.7 86-38 96.2-38M452.8 375c0-1.7 7.7-15.5 11.2-20.3s16.2-22.2 17.5-23.6c1.1-1.2 7.6-7.8 8.7-7.8 1.2 0 4.4 2 5.7 4.4.8 1.5 2.7 6.2-.7 14.5-4.2 10.1-12.4 23.6-20.2 32.8"/><path class="st2" d="M33.5 375c13.6-14.7 71.9-86.6 76.6-102.6 4.7-15.9 5.4-21.4 0-28S8.5 176.4 0 158.5M45.5 80.9c6.5 4.2 83.5 46.9 91.6 52.4 9.5 6.8 24.7 1.8 27.6 1.1 36.8-16.7 113.4-42 124.4-44s-9-7.3-16.3-9.5-112-24.1-119.4-24.7c-7.3-.6-111.7 19.6-107.9 24.7zM108.4 375c7.3-11 80.9-94.6 106.5-116.6 27.1-24.3 83.8-70.9 174.9-115.3 76.1-37.1 110.5-50 110.5-50M410.9 375c15.2-16.9 88-108.7 89.5-112.5"/><path class="st2" d="M391.8 142.2c15.9 38.2 35.7 208 38 210.2 1 1 8.1 19.4 9.2 22.6M445.1 38.9c.8-1.5 4.9-5.9 7.7-8 1.8-1.4 7.7-3.1 8.5-2s-.4 5.1-.2 6.3c.2 1.2 2.4 3 2.4 4.4"/></g></svg>
