<svg xml:space="preserve" id="tsienna20-cI285Gon_svg__Layer_1" x="0" y="0" version="1.1" viewBox="0 0 2048 1536" xmlns="http://www.w3.org/2000/svg"><style>.tsienna20-cI285Gon_svg__st0,.tsienna20-cI285Gon_svg__st1{fill:none;stroke:#fff;stroke-width:4.5537;stroke-miterlimit:10}.tsienna20-cI285Gon_svg__st1{stroke-width:2.2769}</style><path d="M543.3 0c73.9 33.5 341.3 172.3 472.5 260.2 140.1 24.2 485.5 54.8 670 132.4s199.8 142.6 190.9 219c30.5 37 97.3 64.4 114.4 93.9s-2.7 68.1-15.2 97.6-43 149.6-46.6 176.5c13.4 23.3 28.7 61.8 20.6 86.9 27.8 46.6 58.4 78.3 47.8 108.4-12.3 35-30.2 73.9-87 108.6-65.1 39.8-200 43.2-320.5 31 15.7-107.7 55.5-200.2-10.1-339.4S1363 647.5 1034.2 680C915.4 691.7 816 773.9 767 836.8c-92.8 118.9-92.6 269-70.8 373.1l6.8 1.4v17.7l-17 19.1-686-66.9" class="tsienna20-cI285Gon_svg__st0"/><path d="M1144.1 736.6c236.9 10.6 401 207.6 376.9 413.4-26.4 225.5-191.4 337.1-394.5 330.4-179.2-5.9-377.4-170.9-367.1-396.2 9.3-205.3 205.3-355.5 384.7-347.6zm732.5-124.9c-17-14.4-63.8-39.7-80.7-43.8 2.9 12.9 41.5 37.4 50.9 52-180.6-51.5-380.8-128.1-464.4-166.8s-128.2-97.4-128.2-97.4c171.8 16.9 302 32.7 425.9 67.9 66.6 18.9 133.2 53.6 172.6 77.6" class="tsienna20-cI285Gon_svg__st0"/><path d="M1254.1 355.7c-32.6-20.4-75.6-53.4-101.1-75.6m778 802.8c4.7 6.7 11.8 30.3-7.1 49.2s-70.4 51.9-70.4 51.9-7.5-18.9-8.7-27.5c10.2-16.5 25.1-34.1 35-40.4s33.1-21.4 51.2-33.2z" class="tsienna20-cI285Gon_svg__st1"/><path d="M1040.5 254.7c45.8.3 128.5-30.6 201.9-84.1C1315.7 117.1 1477.6 22.1 1523 0" style="fill:none" transform="matrix(-1 0 0 1 2048 0)"/><path d="m467.5 276.9 19-22.1s-9.5-41.4-29.5-61.3c-41.6-41.6-93.9-74.7-192.5-93.5S122.9 82.9 108.9 85.7c-14 2.7-31.7 76.5-29.4 103.1-2.7 7.9-4.8 15.7-3.1 18.8s24.9 36.5 51.5 46.4 123.7 42.1 208.3 61c31.4 7 55.3 86.2 55.3 86.2 30.9 4.7 55.3 5.6 81-8.9 25.8-14.5 50.6-27.6 50.6-27.6l2-18.7c-.1-.3-33.1-42.4-57.6-69.1z" class="tsienna20-cI285Gon_svg__st0"/><path d="M409.7 0c63.6 30.6 294.9 188.4 316.1 214.1 17.4 21.1 12.6 36.8-24.3 62.8-32.6 23-66.2 46.7-78.5 51.3s-28.5 6.9-55.3 5.6c-27.6-1.3-54.9-3.6-54.9-3.6m-168.6-12S57.1 302.7 0 297.6m599.2 36.6c5.5 7.5 10.2 41.3 11.4 58.6 10.5 144.6 4.9 353.7-6 467.5-13.9 146.4-28.7 267-48.8 374.9" class="tsienna20-cI285Gon_svg__st1"/></svg>