<svg xml:space="preserve" id="tsienna20-Rw0Gtt7O_svg__Layer_1" x="0" y="0" style="enable-background:new 0 0 2048 1536" version="1.1" viewBox="0 0 2048 1536" xmlns="http://www.w3.org/2000/svg"><style>.tsienna20-Rw0Gtt7O_svg__st0,.tsienna20-Rw0Gtt7O_svg__st1{fill:none;stroke:#fff;stroke-width:4.5537;stroke-miterlimit:10}.tsienna20-Rw0Gtt7O_svg__st1{stroke-width:2.2769}</style><path d="M2048 889.8c-26.8 18.6-74.4 88.9-88.8 146.8-14.4 57.9-28.2 156.4-39.3 195.7l9 13.8-.7 6.9-1790.1-15.8v-7.6l9.6-14.5c-3.9-42.7-10-120.6-33.1-188.8C88.6 949.3 43.3 882.5 0 854m0-706.8c222.1-15.3 619.6-19.1 718.3-5.1 172.1 6.1 433.5 13.6 557.3 41.1 176.4 39.1 329.3 98.1 425.1 140.5 112.1 49.7 319.2 166.8 347.3 175.5" class="tsienna20-Rw0Gtt7O_svg__st0"/><path d="M1803.3 567.7c-4.2-8.9-14.6-52.2-13.6-56.3 1-4.2 21.4-45.9 18.8-71.4-2.6-25.6-15.1-60-24.5-64.7-9.4-4.7-44.3-11-58.9-8.3s-35.5 26.6-38.6 38.1-10.4 111.6-5.2 119.4c5.2 7.8 32.3 4.7 32.3 4.7-1 9.9-7.3 39.6-1 61.5 14.1 4.2 30.2 6.8 48 2.6 17.6-4.2 42.7-25.6 42.7-25.6zm-595.1 20.9c13.9.2 36.3-2.1 46-4.5s6.6-15.7-11.2-21.5c-25.1-8.2-145-20.6-170.4-15.7-25.4 4.8-20.9 31.8-2.4 34.5 18.4 2.6 117.1 6.9 138 7.2zM819 561c-13.8-1.4-35.8-6.4-45.2-9.9-9.3-3.5-4.7-16.4 13.6-20 25.9-5.2 146.4-3.5 171.1 4.3s17 34-1.6 34.6-117.1-6.8-137.9-9zm1229 769.2c-51.6-19.7-106.5-99.1-119.9-134.2m-1785.5-33c-9.7 51.1-53.2 131.5-142.6 175.7" class="tsienna20-Rw0Gtt7O_svg__st0"/><path d="M1796.9 547.3c23.4 1.9 48.3 6.1 70-7.7 21.7-13.9 61.8-44.2 53.7-58.7-8.2-14.5-119.7-74.9-119.7-74.9m-117.1 120.7c16.7-17.8 32.6-46.2 38.3-68.4 5.7-22.2 6.4-72.6 2.8-91.5-88.4-47.1-272.6-117.3-370.7-140.1-109.5-25.4-274.6-43.9-375.6-46.8s-733.2-8.7-978.7 9.7M0 448c158.5 3.3 790.1 26.4 1014.3 41.1s622.1 43.4 697.7 51.7" class="tsienna20-Rw0Gtt7O_svg__st1"/><path d="M1844.6 548.1c15.3 8.9 37 52.3 46 74s28.7 86 28.7 86c3.7 128.4-43.6 398.2-112.8 543.7m-792.2-7c10.1-59.1 21.7-214.4 16.2-272.4s-16.6-410.2-16.2-483.3l-13.7-308.2M0 523c10.7-35.5 48.5-53.3 71.3-73.1 32.1-69.8 127.6-237.9 153.5-269.5M0 613.1c10.2 67.5 65.6 189.5 114.4 312.3 47.1 118.4 87.1 256.9 98.3 312.3" class="tsienna20-Rw0Gtt7O_svg__st1"/></svg>