<svg xml:space="preserve" id="tsienna20-1LNxhgCR_svg__Layer_1" x="0" y="0" version="1.1" viewBox="0 0 2048 1536" xmlns="http://www.w3.org/2000/svg"><style>.tsienna20-1LNxhgCR_svg__st0,.tsienna20-1LNxhgCR_svg__st1{fill:none;stroke:#fff;stroke-width:4.5537;stroke-miterlimit:10}.tsienna20-1LNxhgCR_svg__st1{stroke-width:2.2769}</style><path d="M0 889.8c26.8 18.6 74.4 88.9 88.8 146.8s28.2 156.4 39.3 195.7l-9 13.8.7 6.9 1790.1-15.8v-7.6l-9.6-14.5c3.9-42.7 10-120.6 33.1-188.8 26-77 71.3-143.8 114.6-172.3m0-706.8c-222.1-15.3-619.6-19.1-718.3-5.1-172.1 6.1-433.5 13.6-557.3 41.1-176.4 39.1-329.3 98.1-425.1 140.5C235.2 373.4 28.1 490.5 0 499.2" class="tsienna20-1LNxhgCR_svg__st0"/><path d="M244.7 567.7c4.2-8.9 14.6-52.2 13.6-56.3-1-4.2-21.4-45.9-18.8-71.4 2.6-25.6 15.1-60 24.5-64.7s44.3-11 58.9-8.3 35.5 26.6 38.6 38.1 10.4 111.6 5.2 119.4-32.3 4.7-32.3 4.7c1 9.9 7.3 39.6 1 61.5-14.1 4.2-30.2 6.8-48 2.6-17.6-4.2-42.7-25.6-42.7-25.6zm595.1 20.9c-13.9.2-36.3-2.1-46-4.5s-6.6-15.7 11.2-21.5c25.1-8.2 145-20.6 170.4-15.7 25.4 4.8 20.9 31.8 2.4 34.5-18.4 2.6-117.1 6.9-138 7.2zM1229 561c13.8-1.4 35.8-6.4 45.2-9.9 9.3-3.5 4.7-16.4-13.6-20-25.9-5.2-146.4-3.5-171.1 4.3s-17 34 1.6 34.6 117.1-6.8 137.9-9zM0 1330.2c51.6-19.7 106.5-99.1 119.9-134.2m1785.5-33c9.7 51.1 53.2 131.5 142.6 175.7" class="tsienna20-1LNxhgCR_svg__st0"/><path d="M251.1 547.3c-23.4 1.9-48.3 6.1-70-7.7-21.7-13.9-61.8-44.2-53.7-58.7 8.2-14.5 119.7-74.9 119.7-74.9m117.1 120.7c-16.7-17.8-32.6-46.2-38.3-68.4s-6.4-72.6-2.8-91.5c88.4-47.1 272.6-117.3 370.7-140.1 109.5-25.4 274.6-43.9 375.6-46.8s733.2-8.7 978.7 9.7M2048 448c-158.5 3.3-790.1 26.4-1014.3 41.1S411.6 532.5 336 540.8" class="tsienna20-1LNxhgCR_svg__st1"/><path d="M203.4 548.1c-15.3 8.9-37 52.3-46 74s-28.7 86-28.7 86c-3.7 128.4 43.6 398.2 112.8 543.7m792.2-7c-10.1-59.1-21.7-214.4-16.2-272.4s16.6-410.2 16.2-483.3l13.7-308.2M2048 523c-10.7-35.5-48.5-53.3-71.3-73.1-32.1-69.8-127.6-237.9-153.5-269.5M2048 613.1c-10.2 67.5-65.6 189.5-114.4 312.3-47.1 118.4-87.1 256.9-98.3 312.3" class="tsienna20-1LNxhgCR_svg__st1"/></svg>