<svg version="1.1" id="Layer_1" xmlns="http://www.w3.org/2000/svg" x="0" y="0" viewBox="0 0 500 375" style="enable-background:new 0 0 500 375" xml:space="preserve"><style>.st0{stroke-width:1.0006}.st0,.st1{fill:none;stroke:#fff;stroke-miterlimit:10}</style><path class="st0" d="M500 289c-21.4 1.2-44.9.2-67.1-2 6.4-43.7 22.5-81.3-4.1-137.8-26.6-56.5-88.1-133-221.7-119.8-48.2 4.7-88.5 38.1-108.4 63.6C61 141.3 61.1 202.2 69.9 244.5l2.8.6v7.2l-6.9 7.8-52.9-5.2L0 253.6"/><path class="st0" d="M251.8 52.3c96.2 4.3 162.8 84.3 153 167.8-10.7 91.6-77.7 136.9-160.2 134.1-72.8-2.4-153.2-69.4-149-160.9 3.8-83.2 83.4-144.2 156.2-141zM37.4 0c-.4 38.7-2.2 76.7-4.6 102.5C27.1 162 21.1 211 12.9 254.8"/><path class="st1" d="M72.7 245.1c3-6.8 18.2-14.1 25.8-15.1M432.9 287c.2-9.4-10.3-35-32.3-43.3"/></svg>
