<svg width="500" height="375" fill="none" xmlns="http://www.w3.org/2000/svg"><path d="M40.57 76.51s14.9-36.69 23.27-45.29L80 20s105.14-26.5 277.8 0l35.77 6.3 3.43 6.18-2 12.16 54.34 52.05 33 20.63 3.9 9.64-8.71 39 8.71 22.36-2.52 18-15.82 46.09s-63.32 75.41-106.9 94.67c0 0-71.08 16.05-87.13 17.43 0 0-41.73-10.09-52.28-17.89l-4.13-3.44S175 223 132.17 211.64c0 0-20-6.88-6.42 37.91l.31 2.6s-74.3-67.56-84.69-92.94c0 0-17.54-52-25.68-51.52L14 100.24l5-14.67" stroke="#fff" stroke-miterlimit="10"/><path d="M22.94 115.5a1.357 1.357 0 0 0-.67 0c-3.34 1.1-.85 17.84 5.56 37.4 6.41 19.56 14.3 34.52 17.64 33.43l12.24-3.42" stroke="#fff" stroke-miterlimit="10"/><path d="M21.84 130s-6.32-14.46-6.15-22.32M225.181 348.79l-29.22 18c-.21.09-.43.19-.65.27-14 5.35-37.9-23.05-53.29-63.43-15.39-40.38-16.48-77.46-2.44-82.81l.49-.17 6.14-1.68M9.73 73.07s10.5-9.45 23.61-9.86L39.25 65l.75 2.57.58 12.84 4-1.49s1.26 3.49-.4 5.33l-6.08.4s-20.69 2.87-22.64-.4c-.06 0-4.01-3.25-5.73-11.18Z" stroke="#fff" stroke-miterlimit="10"/><path d="M61.91 33.53s20.73-21.88 91.129 0l12.38 81.94-2.06 3.38-119.24-34.6M393.57 26.29s-112.51-2.06-157.75 15.06c0 0-21.1 15.29-26.3 23.24l40.57 78.87s119.51 10.84 204-43.8M209.52 174s6.73-7.34 27.82-2.45c0 0 39.44 11.31 100.59 5.51 0 0 32.41-6.14 41.27-2.77l8.87 2.77L368.81 208l-38.22 11-17.12 14.65s-52.58 9.17-82.55-7c0-.03-18.92-29.38-21.4-52.65ZM313.471 233.66v18.65s24.15 27.21 35.47 32.1l10.06 2.75s69.53-14.69 125.11-84.08" stroke="#fff" stroke-miterlimit="10"/><path d="m477.499 165.94-12.16 26.6s-39.11 53.53-133.56 78.66M476 113.4s7.31 14.36 5 20.09l-3.5 3.51 1.26 12.16 2.13 1.55M395 44.64s-8.71-8-19.95-7.8c0 0-46.33-1.73-154.21 16.33M250.09 143.46l25.89 34.2" stroke="#fff" stroke-miterlimit="10"/></svg>
