<svg fill="none" viewBox="0 0 500 375" xmlns="http://www.w3.org/2000/svg"><path stroke="#fff" stroke-miterlimit="10" d="M492.951 90.115s-17.73-2.59-23.85-3.21l-91.87-58.39-13.3-6s-85.3-18.35-200.86-8.72c0 0-90.2 9.33-100.59 16.06l-3.36 4.58s-1.84 9.79-1.53 10.7-29.35 34.55-29.35 34.55S7.69 92.264 7.69 93.174 6 97.874 6 97.874l3.21 21.779-.69 18.11 7.17 35.36 7.34 12.69 6.74 6.84"/><path stroke="#fff" stroke-miterlimit="10" d="M29.54 193.154c-6-19.38-4.73-35.68 4.46-41 13.09-7.56 37.41 10.06 54.32 39.35a120.1 120.1 0 0 1 13.141 32.26l12.08 11.69 311.39 118s8.71-50 69.7-61.91m-117.4-263.029s-53.35 5-59.46 9.32c0 0 127.18 90.199 140.63 108.849l28.44 6.11h6.85m-24.59-65.89s23.59 16.97 25.53 19.75"/><path stroke="#fff" stroke-miterlimit="10" d="M451.561 311.064s-6.61 10-6.61 16.76l-1.68 36.58M43.782 219.436c-10.598-20.066-11.247-40.528-1.451-45.702 9.797-5.174 26.33 6.899 36.928 26.966s11.247 40.528 1.45 45.702c-9.796 5.174-26.33-6.899-36.927-26.966Z"/><path stroke="#fff" stroke-miterlimit="10" d="m57.62 156.574-18.07 4.78-4.43 3.67s-13.91 23.85 6.57 57.17c0 0 11.62 24.15 37.61 33.33h9.17l26.291-15.6 1.55-3.42M14.89 88.064l5.09 7.4v6.4l-7.79 16.08-2.98 1.72"/><path stroke="#fff" stroke-miterlimit="10" d="M494.631 277.994s-47 .72-72 43.56c0 0-312.76-106-319.64-115.51 0 0-15.13-53.86-62.52-64.26 0 0-31.19-3.84-20.49 38.74m305.281-35.069s15.07-.92 64.51 1.68c2.9.16 41 5.66 41 5.66.62.31 3.06 11.47 3.06 11.47a190.2 190.2 0 0 0-44.79-7.34c-26 3-58.09 0-58.09 0l-4.28-5.51c-1.37-3.36-1.37-18.49-1.37-18.49 3.05-4 22.47-18 27.82-20.49s11.46-.91 11.46-.91l31.11 17.73v4l-8.87 13.76"/><path stroke="#fff" stroke-miterlimit="10" d="M430.691 152.794s-102.53-103.14-146.1-114.65c0 0-63.74-19.72-180.22-9.63 0 0-36 47-38.76 57.1l259.85 56.04"/><path stroke="#fff" stroke-miterlimit="10" d="m191.392 26.024-1.38 5.82-2.15 80.15-2.17 8.39-2.45 24.61 9.48 98.3v17.73l3.46 5.74"/><path stroke="#fff" stroke-miterlimit="10" d="M222.691 161.654c-.34-.05-.91 2.18-6.3 2.41l-15.48-3.33v-2.08l2.78-2.88s-11.35-1.72-11.35-1.15a8.3 8.3 0 0 1-1 2.53 26 26 0 0 0 0 4.24s13.76 10.55 39.32 10.89l2.03-1.83s3.41-6.88-10-8.8ZM64.01 120.004c.14.16-3.1 2.92-3.1 2.92v1.27l8.54 1.66c.29.05 2.7.28 6.08-2.3a9 9 0 0 1 6.54 3.62v3.89l-1.15.81s-18.12-.69-22.82-4.59l-2.58-3v-2.35s1.32-2.81 1.84-2.63 4.07-2.22 6.65.7Zm40.361-91.489s-32.11 5.73-38.76 11.69l-8 5"/></svg>