<svg width="500" height="375" fill="none" xmlns="http://www.w3.org/2000/svg"><path d="m166.611 5-27.52 35.88s-30.73 13.53-28.89 41.26c0 0-61.22 91.72-62.6 100 0 0-27.52 14.21-32.79 34.85l-7.77 18.79" stroke="#fff" stroke-miterlimit="10"/><path d="M14.81 216.98s14.23-19.49 2.52 63.52l-.46 5 3.17 24.12 443.24-155S400.04 25.08 409.21 5M119.72 80.32s-5.74-5.73-5.74-6.88v-3.1s8-12 10.78-13.18h2.75l5.28 3.32" stroke="#fff" stroke-miterlimit="10"/><path d="M19.41 264.65S201.92 72.77 292.72 5M20.04 309.62c1.37-.48 40.36 0 40.36 0" stroke="#fff" stroke-miterlimit="10"/><path d="M50.28 309.51s-2.24 31.63-23.78 59.99M7.81 249.69s7-10.54 6.08 2.76c0 0-2.68 18.65-6.08 29.35M21.82 226.01c0 .37-6.12 1.82-14.82 21.39M47.85 323.57l161.71 5.92M95.38 104.56v-6.42L84.86 87.66s-25.68-12.39-31.07-12c0 0-4.7 10.48-3.78 14.47 0 0 0 16.48 21 32.53 0 0 6.06 5.74 6.87 8.83" stroke="#fff" stroke-miterlimit="10"/><path d="M54.94 79.4s29.23 6.65 37.1 20.74c0 0-5.38 15.37-7.91 17.43 0 0-30.61-18.23-30.84-28.09.04.01-.25-8.24 1.65-10.08ZM154.331 21.01s-4.39 14.06-6.22 18.34c0 0-14.37 38.22-17.43 87.75 0 0 .31 13.75-20.79 37.6l-3.36 3.36-6.73 41.58-4.42 4.89s19.87 36.64 26 35.26M18.66 298.93 437.59 98.49M192.51 328.87s42.89-4.88 60.31-5.3l29.35.95 210-12.61" stroke="#fff" stroke-miterlimit="10"/><path d="M209.561 327.04s-.19 32.45 21.14 38h26s21.1-6.76 25.45-40.47" stroke="#fff" stroke-miterlimit="10"/><path d="M255.499 323.66c-.93 16.92-10.14 30.21-21.36 30.21-10.55 0-19.32-11.73-21.11-27.18" stroke="#fff" stroke-miterlimit="10"/></svg>
