<svg fill="none" viewBox="0 0 500 375" xmlns="http://www.w3.org/2000/svg"><path stroke="#fff" stroke-miterlimit="10" d="m185.701 5-62.06 74.55m-22.94 28.78s-29.35 43.45-34.17 55.72a32.93 32.93 0 0 1-11.16 7.3l-2.67 2.9m-11.76 16.28s-14.07 14.68-18.65 26.94c0 0-9.2 13.3-14.52 34.17"/><path stroke="#fff" stroke-miterlimit="10" d="M22.29 217.47s20.63-35.35 7.49 37.42l-1.56 4.58s-7.62 33.18 3.09 51.82c0 0 399.82-135 446.59-163.18 0 0-56.4-101.17-48.84-143.11m26.452 98.26L27.382 301.07"/><path stroke="#fff" stroke-miterlimit="10" d="M336.431 5v24l-3.06 5.81 8.87 52.59s16.12 52.15 22.12 58m129.41 165.89-207.33 15.9-2.06-3.44s-67 .23-71.32 3.44l-2.06 2.53s-132.31-7.5-154.62-9.21"/><path stroke="#fff" stroke-miterlimit="10" d="M58.951 301.91s.94 35.38-26.12 67.59M20.402 220.49s9.76-11.66 7.3 41.56"/><path stroke="#fff" stroke-miterlimit="10" d="m27.38 233.26-3.13 1.07S12.96 245.1 7 264.21m278.311 61.09s-4.83 37.36-27.15 40.26h-22.78s-20.15-1.91-23.22-37.26m-83.94-247.99-1.68 5.81-6.5 8.87s-5.65-4.59-8.1-2.45c0 0-7.56 6.5-7.95 11.7a8.751 8.751 0 0 0 4.44 4.74s-4.05 4.58-6 5a15.83 15.83 0 0 1-1.22-11.77s5.12-15.21 16-20.71c.01.04 5.36-3.4 11.01-1.19Z"/><path stroke="#fff" stroke-miterlimit="10" d="M106.622 98.34s3.72 1.16 5.09.47c0 0 2.37 2.75 1.68 5.12l-5 5.05M43.34 181.49s3.9.37 4.78 2l-6.92 7.34c-1.72-1.11-2.06-4.13-2.06-4.13 0-5.8 5.73-10.43 5.73-10.43 4.09-3.14 9.56-1.57 9.56-1.57.65.69-2 4.32-2 4.32-9.14-1.68-13.3 8-13.3 8m61.571-71.97s-15.28 60.51-21.47 88.71l-10.53 18.8"/><path stroke="#fff" stroke-miterlimit="10" d="m373.57 5-37.14 24S54.7 226.61 29.78 254.89"/></svg>