<svg fill="none" viewBox="0 0 500 375" xmlns="http://www.w3.org/2000/svg"><path stroke="#fff" stroke-miterlimit="10" d="M492.93 19.64c-126.74-21.09-234.49 4.9-234.49 4.9C234.59 34 179 77.43 179 77.43c-99.67 13.45-152.56 58.7-152.56 58.7l-6.78 30.57-11 31.8s2.67 49.3 15.28 65.12c0 0 5.74 33.93 16.28 51.13 0 0 64.44 38.14 119.47 29.58"/><path stroke="#fff" stroke-miterlimit="10" d="M159.94 344.52c-5.12-24 6.94-58.56 33.05-88.25 34.92-39.73 81.74-55.65 104.58-35.58 13.67 12 15.65 34.21 7.55 58.61"/><path stroke="#fff" stroke-miterlimit="10" d="m261.269 212.91 28.6 18.2 11.68 12.29c13.91 19.62 1.37 61.07-29 91.49-32.33 32.32-73.34 43.72-91.61 25.45l-21.4-34.34m145.58-46.7 187.81-89.5m-26.298 12.53s.66 4.13 3.47 6.14l22.83 8.83M309.9 256.74l183.03-82.09M258.439 24.54s82.62-4.21 129.86 6.34c0 0-30.68 23.39-78.4 84.61l-12.9 4.13h-29.54s-134.74-23.4-96.38-41.05M330 128.94s18.5-4.28 22.32-4.43l56.1-2.29 4.13-2.6s9.32-12.23 11.92-32.56c0 0-36.84-2.91-44 .91L356 101.9l-.12 3.62 1.32 9.86-25.56 3.78a32.4 32.4 0 0 0-1.64 10.15M22 156.24l2.75 14 12.23 22.32 8.1 9.78 73.371 10.59 52.55-1.75-2.14 5.2-22.78 26s-12.53 12.69-85.3 2.29l-22.32 6.58-2.59-1.38s-22.29-33.12-18.94-75.27"/><path stroke="#fff" stroke-miterlimit="10" d="m297 119.62 1.53 2.21-11.47 18-3.06 2.95s-134.67 41.89-167 70.13m-60.34 62.33 2.14 12.38 17.58 11.46 35.92 9.79 3.67-2.3s-2.75-22.16-3.06-22.77a49 49 0 0 0-4.28-4.13l-36.23-7.8zm274.949-156.08s48.89-74.75 79.85-82.78c0 0 36.36-13.3 81.47-1.37M420.43 103.9s72.51-19.14 73.12-20.21"/><path stroke="#fff" stroke-miterlimit="10" d="M455.829 30.05s3.17 37.95 1.17 63.75l4 4.49 1.37 21.33s-9 48.3-16.51 61.76l-.74 14.72M45.04 202.32l-1.23 4.74 16.97 37.6"/></svg>