<svg fill="none" viewBox="0 0 500 375" xmlns="http://www.w3.org/2000/svg"><path stroke="#fff" stroke-miterlimit="10" d="m337.35 16 87.75 61.78s30.88 12.84 44.33 22v40.66l-3.39 10.11 16.51 31.18-15.11 69.56-6.88 9.63s-19.72 17-28.43 21.55l-27.52 8.26-3.51-3.37 1.07-2.14-4.55-6.44M18 282.93l182.54 7.8h3.51l1.84-1.99v-4.28l6.11-11.31h3.98"/><path stroke="#fff" stroke-miterlimit="10" d="M306.97 359.52c50.253 0 90.99-39.627 90.99-88.51s-40.737-88.51-90.99-88.51-90.99 39.627-90.99 88.51 40.738 88.51 90.99 88.51Z"/><path stroke="#fff" stroke-miterlimit="10" d="M203.039 281.94s-10.3-95.32 92.43-106.8c0 0 119.39-8.87 114.49 106.78M305.1 16s10.55 4.15 16.28 9l61.22 43.11s4.59 5.27 16.74 6c0 0 20.42 1.46 25.76 3.74m30.73 14.12s-43.88-2.93-53.74 0l-3 3.85v3.9s29.35 33.25 33 35.54c0 0 33.78.69 37.3-2.29M18.04 241.96h170.999s15-50.45 51.06-67m164.28 23.29a99.4 99.4 0 0 1 19.27 44.78s45.77-.85 48.76-14.56M18.04 82.98s241.699-11.62 270.429-10.39c0 0-42.8-52-49.83-56.59"/><path stroke="#fff" stroke-miterlimit="10" d="M73.81 16s-18.68 41.48-22 65.39l-8.85 7.09-12.23 26.6s-4.31 58.06 4.86 95.39c0 0 1.53 7.34-1.52 11.92l-7.34 14.37v5.2l1 6.92s3.1 14.56 3.1 15-.58 3.67-.58 3.67l15.79 11.94v4.65m188.74-156.37-.46 1.76s-13-1.38-14.22-2.29l.46-6.58 2.07-2.21s11.38-2.76 12.15-2.37c0 0-1.76 2.6 2.52 2.75l22.85-.46a5.5 5.5 0 0 0 3.52-3.59s11.47-.77 17.27 2.06l.85 1.68-1.15 5.81-2.06 1.3s-13.84 2.37-15.37 2.52c0 0-1.6-1.68-2.83-1.68 0 0-26.34-1.15-25.6 1.3Z"/></svg>