<svg fill="none" viewBox="0 0 500 375" xmlns="http://www.w3.org/2000/svg"><path stroke="#fff" stroke-miterlimit="10" d="M493 155.75s-35-18.34-103.46-23.85l-17.81-14.15m-29.929-20.39s-78.53-51.83-101.92-60.54l-35.31-11.46S105.001 5 93.591 5M493 206.5s-61.58 17.73-72.89 103.64l-8.87 15.61-3.67 2.44-193.83 41.32"/><path stroke="#fff" stroke-miterlimit="10" d="M452.52 218.12s-25.38 18.95-40.36 71.24L7 350.96m445.52 18.54-36.08-22.67s-13.22-14.16-12.57-17.86m89.38-84.04c-19 .4-38.32 19.83-45.35 47.28-7.94 31.07 2.82 60.66 24 66.09 7 1.79 14.32.72 21.23-2.65m-126.52-217.9-21.33 1.91-3.48-1.45-2.56-33.94s1.53-7 4.44-7.41c0 0 9.47-2.14 28.66 11.69l-1.15 13.92z"/><path stroke="#fff" stroke-miterlimit="10" d="M344.821 139.62c4.05-1.22 9.63-8.41 9.63-8.41.92-3.51.38-26.82.38-26.82-1.29-2.91-7.55-7.57-7.55-7.57m20.528 36.93s9.11 2.24 13 1.94c0 0 3.36 6.34 5.73 8.86l-40.73-4.89m-6.569-36.65S256.16 46.45 233 40.03c0 0-83.92-27.41-210.5-35m357.871 130.64-10.3-9.51"/><path stroke="#fff" stroke-miterlimit="10" d="M345.279 139.62s-329.71-30.8-338.28-25.3"/><path stroke="#fff" stroke-miterlimit="10" d="M84.21 10.49s25.37 102.73 25.4 108.79l13.94 47.63s13.14 77.43 10.39 124.89l.38 7.34 12 27.51-1.52 38.1-.92 4.78M194 178.41a2.23 2.23 0 0 1 .29 2.213 2.23 2.23 0 0 1-1.78 1.347H164l-2.18-1.78-.91-3-1.5-.57s-19.83 1.6-20.52 3.44l-1 1.95 1.38 7.33s1.49 1.27 2.06 1.27 59.62 1 68.33 0l1.44-1.86v-5.85l-2-2.17s-10.27-2.78-15.1-2.32Zm192.55-33.9 7 5.24 10.51 26s6 85.77 0 114.81"/></svg>