<svg fill="none" viewBox="0 0 500 375" xmlns="http://www.w3.org/2000/svg"><path stroke="#fff" stroke-linejoin="round" d="M378.14 42.034c3.76-18-185.79-1.49-185.79-1.49-14.33 1-18.69 3.32-18.69 3.32-6 2.07-25.68 23.16-25.68 23.16l15.44 77.43s19.26 5.2 89.88 1.53c0 0 191.61-22.63 174.651-40.15m-301.24 63.921s7-6.65 28.84 3.67c0 0 19.26 7.33 38.06 7.56 0 0 51.13 2.53 64.2 0 0 0 26.83-2.83 33.25 6.38v4.17s-14 23.16-27.06 25.45c0 0-22.24 2.75-31.87 5 0 0-8 1.37-25.68 13.76 0 0-46.09 5.5-69.25-13.76zm324.88-46.13s5.73 4.35-1.15 11c0 0-8.71 5.85-5.84 11.58 0 0 .69 2.18-1.15 3l-2.64 2.52s3.33 11.46 6 12.49h2.06s9.51-5.23 10.83-7.26"/><path stroke="#fff" stroke-linejoin="round" d="m174.34 178.715-10.92-34.26s-9.71-2.68-12.35-6.12c0 0-10.66-72.23-12.95-78.42a33.17 33.17 0 0 0-12.73-16s-18.69-13.46-34.62-11.86c0 0-10 .92-13.76 14.91 0 0-7.68 22.93-7 33.7a184.8 184.8 0 0 0 45.74 35.32l3.1-75.21v-.65m95.191 220.139s19.24 17.95 33.45 15.19c0 0 120.62-24.91 193.3-71.38 0 0 10.63-20.95 11.55-28.59l3.82-2.75 2 32.25c.46 9.18-2 10.86-2 10.86-161.43 87.59-203 77.35-203 77.35-13-.31-44.26-39.06-44.26-39.06l-2.44-18.34m118.078 51.591v20.18l94.01-44.49v-16.28"/><path stroke="#fff" stroke-linejoin="round" d="M228.24 361.055s29.11-16.12 33.24-22.08l3.67-6s36-38.07 48.61-42.42c0 0 99.06-39.21 117.63-50.22 0 0 7.23-4 8.49 1.38l4.06 16.91M79.81 35.535s4.42-7.11 16.35-7.57c0 0 32.86.62 48 24.77l3.82 14.29c14.22-15.06 25.83-15.51 25.83-15.51 49.23-7.34 169.38-8.26 169.38-8.26 21.86-.46 27.82 2.14 27.82 2.14l6.12 6.12"/><path stroke="#fff" stroke-linejoin="round" d="M95.13 31.975s-12.34 40.51-14 59.51"/><path stroke="#fff" stroke-linejoin="round" d="m59.81 83.076-2.29 2.18-3.67 9.29.73 7.489s15.59 69.32 19.72 72.38c0 0 12.38 42.65 25.07 58.85 0 0-9.86-29.42-9.4-32.1 0 0 9.86 5.5 51.13 133.45 0 0 22 27.06 52.74 27.06 0 0 41.73.92 82.55-5 0 0 117.4-47.24 159.13-83 0 0 18.8-28.43 16.51-46.32 0 0 15.13-13.3 11.92-28.43l-7.79-26.14 8.24-37.16v-7.79l-12.81-4.21s-25.68-19.26-26.6-20.18l-47.84-52s1.83-10.09.61-15l-3.67-4.28s-118.34-32.78-269.22-12.6a37.48 37.48 0 0 0-24.08 14s-9.2 17.18-12.84 42.86"/><path stroke="#fff" stroke-linejoin="round" d="m70.88 81.626-2.16.39s-19.88 2.3-25.45 1.07c0 0-5-1.45-7.27-10.77 0 0 11.09-10.55 24.69-7.8l3.52 3.21.07 10.16c1.56-.317 3.06-.884 4.44-1.68l1.47-.82m29.62 143.96s.93 71.28 36.24 134.08l1.53.45 16-7.48"/></svg>