<svg fill="none" viewBox="0 0 500 375" xmlns="http://www.w3.org/2000/svg"><path stroke="#fff" stroke-miterlimit="10" d="M7.25 155.75s35-18.34 103.46-23.85l17.81-14.15m29.929-20.39s78.53-51.83 101.92-60.54l35.31-11.46S395.249 5 406.659 5M7.25 206.5s61.58 17.73 72.89 103.64l8.87 15.61 3.67 2.44 193.83 41.32"/><path stroke="#fff" stroke-miterlimit="10" d="M47.73 218.12s25.38 18.95 40.36 71.24l405.16 61.6M47.73 369.5l36.08-22.67s13.22-14.16 12.57-17.86M7 244.93c19 .4 38.32 19.83 45.35 47.28 7.94 31.07-2.82 60.66-24 66.09-7 1.79-14.32.72-21.23-2.65m126.52-217.9 21.33 1.91 3.48-1.45 2.56-33.94s-1.53-7-4.44-7.41c0 0-9.47-2.14-28.66 11.69l1.15 13.92z"/><path stroke="#fff" stroke-miterlimit="10" d="M155.429 139.62c-4.05-1.22-9.63-8.41-9.63-8.41-.92-3.51-.38-26.82-.38-26.82 1.29-2.91 7.55-7.57 7.55-7.57m-20.528 36.93s-9.11 2.24-13 1.94c0 0-3.36 6.34-5.73 8.86l40.73-4.89m6.569-36.65s83.08-56.56 106.24-62.98c0 0 83.92-27.41 210.5-35M119.879 135.67l10.3-9.51"/><path stroke="#fff" stroke-miterlimit="10" d="M154.971 139.62s329.71-30.8 338.28-25.3"/><path stroke="#fff" stroke-miterlimit="10" d="M416.04 10.49s-25.37 102.73-25.4 108.79l-13.94 47.63s-13.14 77.43-10.39 124.89l-.38 7.34-12 27.51 1.52 38.1.92 4.78m-50.12-191.12a2.23 2.23 0 0 0-.29 2.213 2.23 2.23 0 0 0 1.78 1.347h28.51l2.18-1.78.91-3 1.5-.57s19.83 1.6 20.52 3.44l1 1.95-1.38 7.33s-1.49 1.27-2.06 1.27-59.62 1-68.33 0l-1.44-1.86v-5.85l2-2.17s10.27-2.78 15.1-2.32Zm-192.55-33.9-7 5.24-10.51 26s-6 85.77 0 114.81"/></svg>