<svg fill="none" viewBox="0 0 500 375" xmlns="http://www.w3.org/2000/svg"><path stroke="#fff" stroke-miterlimit="10" d="M234.54 5S105.67 32.31 59.35 60.29c0 0-16.51 14.67-22 31.64l-6.38 21.1-17 15.59s-8.25 30.73 2.75 111c0 0 17.75 23.12 51.69 31.75m.09.38c0-.13-.06-.26-.08-.39"/><path stroke="#fff" stroke-miterlimit="10" d="m79.48 266.52-11.06 4.84a153.3 153.3 0 0 1-3.11-30.84c0-80.54 62.001-145.84 138.501-145.84s138.5 65.3 138.5 145.84a153.7 153.7 0 0 1-3.78 34l-16.86-20.17"/><path stroke="#fff" stroke-miterlimit="10" d="M199.852 369.51c67.279 0 121.82-54.541 121.82-121.82s-54.541-121.82-121.82-121.82-121.82 54.541-121.82 121.82 54.541 121.82 121.82 121.82Zm138.679-95.01h150.37M51.85 68.06s6.58-3.53 12.89-4.1l26.14-2.64 4.36.69-.58 4S68.52 91.63 62.1 96.52c0 0-24.76 15.74-31.18 16.51"/></svg>