<svg fill="none" viewBox="0 0 500 375" xmlns="http://www.w3.org/2000/svg"><path stroke="#fff" stroke-miterlimit="10" d="m428.85 136.484-46.93-89.51-2.6-5-20.18-12.15c-89-19-195.36-4.59-195.36-4.59-31.49 6.42-43.72 16.81-43.72 16.81l-2.39 4.59-42.55 83.12-6.12 11.92-29 27.83v5.5l2.75 7 3.67 29.35s-3.06 37 0 48.61l7 21.71.61 15.9s10.24 33.63 53.35 42.8l10.55 7.34 7.79 3.67s176.11 8.71 244 0l10.85-3.06 9.79-7.64s44.94-7.19 54.11-44.79v-13.73l9.63-20.64v-47.7l2.75-30.27 3.21-11.47-31.21-35.6Z"/><path stroke="#fff" stroke-miterlimit="10" d="M117.67 46.634s121.92-21.13 264.23.34m-274.121 19.01a40.351 40.351 0 0 1 26-12.2s134.52-8.11 236.33 0c0 0 12 1.58 22.73 14.09M59.56 151.694v3.78l1.49 8.83 5.51 2.29 52.58 13.3 4.13 2.29 8.41 8.41v2.6s-9 12.69-14.83 16.81l-4.59 2.6s-25.22-2-31.49-2.9c0 0-6.11.15-7.95 2.29l-7.79 4.13s-16.9-5.51-19.36-10.55m393.21-57.63 3.5 10.51-1 4.7-7.46 3.56-56.4 15-7.11 8.49v4.36l13.26 15.14 5 1.37s18.8-.68 30.73-2.29c0 0 5.5-.92 12.38 4.82l4.81 2.75s12.79-4.38 18.2-11m-379.669-75.6s-27.62 21.07 175.21 18.19c0 0 171.92 5 175-18.19m-252.181 60.23s78.88 3.67 148.89 0m-257.01 26.14 2 9.4s22.48 28.66 25.38 31c0 0 4.74 5.5 14.669 7.18 0 0 159 18.19 282.81 0a39.992 39.992 0 0 0 19.72-9.45l26.06-31.87 1-6m-259.749 84.58 3.22 22.78h140.78l3.37-22.78"/><path stroke="#fff" stroke-miterlimit="10" d="M89.82 334.684s13-1 23.17-10.33c0 0 26.37-23.73 37.14-24.08 0 0 133.5 3.29 195.86 0 0 0 12.54-.69 25.84 11.09 0 0 20.48 23.72 34.24 23.32l4.85-.76"/></svg>