<svg fill="none" viewBox="0 0 500 375" xmlns="http://www.w3.org/2000/svg"><path stroke="#fff" stroke-linejoin="round" d="M36.24 75.639s26.14-39.21 45.17-47c0 0 62.44-19.33 230.64-10.18 0 0 72.34 8.14 87 11.35l4.36 6-5.57 10.25 59.85 49.76s26.6 14 31 25.68l-3.22 8.25s-3.43 23.62-5.5 28.43l8.72 18.58s1.14 17.65-11.47 39l-1.38 12.84s-18.57 53.88-47.46 83.24c0 0-47.69 26.14-85.76 30.26l-36.23-5-9.63-9.17s-24.8-95.45-103.22-115.63c0 0-40.36-6.88-21.79 50.67 0 0-133.68-78-136.89-88.28 0 0-18.14-42.65-23.86-45.4"/><path stroke="#fff" stroke-linejoin="round" d="M11.04 78.27c3.2-4.12 17.9-7.79 17.9-7.79l6 1.83c1.53 5.39 2.1 19.49 2.1 19.49l-3.67 2s-16 2.07-18.23.8l-4.1-5.09m0 87.129s10.33 24 19.85 24.77l23.27-6.31s2.1-1.94 2.25-3.09m152.22 25.33-20.71 10.66s-31.53 29.08 6.69 87.47c0 0 33.63 50.14 67.56 42.81l9.18-3.67 25.37-26.75"/><path stroke="#fff" stroke-linejoin="round" d="M254.517 343.214c13.995-9.214 10.845-38.702-7.037-65.862-17.882-27.161-43.724-41.709-57.719-32.495s-10.845 38.702 7.037 65.862c17.882 27.161 43.723 41.709 57.719 32.495ZM30.73 165.289s126.42 74 136.24 75M36.44 82.72S62.53 42.16 84.7 36.66c0 0 38.369-7.65 111.129 4.89l28.43 79.179v6.73s.92 14.67-7.33 23.85c0 0-3.36 17.5-15.9 39.13l-1.23 11M37.04 91.799l187.219 28.93"/><path stroke="#fff" stroke-linejoin="round" d="M119.039 34.349s-17.91 54.59-16.54 64.22l-7.56 7.7-6.65 18.67v4.35s.92 40.59 9.17 57.79l-4.08 14.33 2.43 15.93M260.949 51.64l34.55-10.7s76.12-13.14 105.17-8.87"/><path stroke="#fff" stroke-linejoin="round" d="m273.789 67.54 26-21.71s4.89-4 17.43-5.81c0 0 80.66-9.81 85.12-5.67"/><path stroke="#fff" stroke-linejoin="round" d="M292.82 51.64s73-12.17 100.21-10.21l4.81 4.63m59.849 49.759 1.38 3.82s-33 44.94-128.26 38.52c0 0-56.71-67.87-59.77-75.21l-14.06-12.52s-48-22.64-135.44-21.43c0 0-41 .19-56.18 14.07 0 0-23.91 25.22-28.92 36m294.372 59.09 31.49 29.2m-67.41 0v5.27l25.45 42.65s33.71 12.61 77.27 0c0 0 13.76-15.36 20.41-17l17.2-8.25 13.53-27.52-2.75-3s-10.09-3.67-24.54 1.61c0 0-26.14 6.19-37.83 6.19 0 0-22.7 1.14-77.74-3.67zm-5.68 139.25 14.16 2s58.93 28.89 118.55-10.32l55.26-82.55"/><path stroke="#fff" stroke-linejoin="round" d="M397.611 215.279s1.38 12.84-3.89 17.2c0 0 24.76 28.43 34.62 26.83 0 0 36.51-8.26 60.33-79.57m-39.921-17.2s31-18.8 36.68-32.79"/><path stroke="#fff" stroke-linejoin="round" d="M408.689 247.739s48.08-24.66 63.67-72.13l1.61-7.22s4.73-6 6-10.21"/></svg>