<svg fill="none" viewBox="0 0 500 375" xmlns="http://www.w3.org/2000/svg"><path stroke="#fff" stroke-miterlimit="10" d="M368.689 5s62.37 42.52 67.31 45.88c0 0 37.29 18.65 42.8 24.77 0 0-2.14 38.83-4 42.49 0 0-5.19 4.29-3.36 5.51 1.83 1.22 15 31.79 15 31.79s.92 8.56-1.83 15l-4.28 4.58s-8 41-11.93 51.06l3.67 3.36-.61 4.28s-76.89 65.89-126 84.69c0 0-87.14 28.89-114.19 31.18 0 0-34.4 4.59-67.42-11.46l-29.35-24.32s-48.15-149.06-75.21-151.33c0 0-23.84 1.22 2.75 69.7 0 0-25-17.45-49-54.58M40 5S24.15 24 13 68.62"/><path stroke="#fff" stroke-miterlimit="10" d="M142.15 5s9.78 22.34 9.78 23.87c0 1.53 7.64 4.59 7.64 4.59S298.07 24.59 436 50.88M125.331 67.39s-2.44 4.59-2.44 5.51c0 .92 17.73 58.39 19.26 58.39 1.53 0 84.09 4.89 107.62 0 0 0 29-18.65 30-18 1 .65 15-3 15-3s33.63-2.14 34.54-2.76l4.59-3s15.59-22.32 18-26.91l2.1-10.23s-16.51-8.86-44-9.47c0 0-166.63-8.56-184.67 9.47Zm348.12 4.15 1.33 4.26-3.82 5.2 3.06 16.97 2.98 3.38"/><path stroke="#fff" stroke-miterlimit="10" d="m249.77 131.29 1.52 29.05a13.54 13.54 0 0 0 4.71 8.56l47 40.66s10.7 6.73 28.74 5.5c0 0 145.21-37.91 154.85-56.56"/><path stroke="#fff" stroke-miterlimit="10" d="m471.42 123.65-4.59 24.76s-3.05 7.65-7 8.56c0 0-96.92 40.11-166.17 44.51M354 67.39s114.8 3.82 120.76 8.41m3.061 111.45s.63-10.1-3.5-8c0 0-61.6 31-91.79 39.22 0 0-9.1.91-23.31 21.55 0 0-48.61 72-72.46 82.55 0 0-48.15 13.3-82.55 9.17"/><path stroke="#fff" stroke-miterlimit="10" d="M49.53 178.94s-6.14-42.45 13.74-34.81c0 0 30.88 9.63 73.07 141.71 0 0 56.4 40.58 188.76 0"/><path stroke="#fff" stroke-miterlimit="10" d="M107.359 353.38c7.818-2.042 5.288-37.641-5.65-79.513-10.938-41.872-26.142-74.161-33.96-72.118-7.817 2.042-5.288 37.641 5.65 79.513 10.939 41.872 26.143 74.161 33.96 72.118Z"/><path stroke="#fff" stroke-miterlimit="10" d="M173.09 342.09a334.441 334.441 0 0 1-51 27.41l-8.25-1.11s-23-9.1-41.4-90.84m4.05-99.95s-24-2.27-11.12 65M13 76.26s32.54-20.87 80-31.41c0 0-1.15-37.5 0-39.85"/><path stroke="#fff" stroke-miterlimit="10" d="M49.66 5S33 55.51 34 65.08m-21 98.31s21.58 31.08 40.13 41.91M13 198.48s10.3-.41 13.51-2M177.609 32.66s20.39 22.38 21.09 23.59m-56.549 75.04S104 179.67 104 182.2l-3.65 11.55m286.939 23.27v33.66l72-39.13.89-25.44"/></svg>