<svg fill="none" viewBox="0 0 500 375" xmlns="http://www.w3.org/2000/svg"><path stroke="#fff" stroke-miterlimit="10" d="M121.17 89.12s26.37-58.24 33-64.43c0 0 8.6-11.18 31.53-14.33 0 0 59.58-8.07 127.15 0a52.15 52.15 0 0 1 30.729 15S373.7 80 373.85 88.13c0 0 87.6 70.93 78.42 161.73l-16 61.91-68.33 44s-116 16.05-238.47 0L61.55 315l-19.26-64.2S29.9 160 121.17 89.12Z"/><path stroke="#fff" stroke-miterlimit="10" d="M125.55 79.59c0-.1-.54-14.2-.54-14.2l-6.08-2.64s-14.16.4-21.61 7.8L98.58 77l5 7.16a109 109 0 0 0 15.93 6.3m252.24-9.32.42-15.14 6-3.1S394.72 63 400 71l-1.6 6.42-5.05 7-16.49 6.23M171.15 304.66h152.03l-2.75 26.14H175.05zM90.9 251.39l31.56-29s158.21 14.22 249.29 0L400 248l-21.78 33.24-11.92 4.36s-142.35 11.92-240.74-1.83l-10.8-5.05zm280.85-29.05s68.41-30.84 71.33-38.27l3.84 25.93-3.05 7.34S429 237.48 400 248m-277.54-25.66s-65.28-30.54-71.2-38.27m39.64 67.32s-34.4-20.94-42-38.07l-3.19-9.16M158 26.68l4.58-2.6S284 12.92 334 24.08l6.72 3.92s23.88 39.94 31 64.4c0 0-97.21 19.56-246.2 0 .03.01 23.16-58.08 32.48-65.72Zm250.251 258.8 14.37-16.05 26.29-18.19-6.91 26.59s-24.46 20.49-25.37 20.64-11.16.92-11.16.92zm-320.101.15-14.37-16.05-26.3-18.19L54.36 278s24.46 20.48 25.38 20.63 11.16.92 11.16.92z"/></svg>