<svg fill="none" viewBox="0 0 500 375" xmlns="http://www.w3.org/2000/svg"><path stroke="#fff" stroke-miterlimit="10" d="M484.27 112.08s-.66-10.87-7.77 1.17c0 0-9.86 19.6-20.18 46.2l-92.41 95.85s20.18-44 0-52c0 0-48.84-11.92-90.11 144.23l-8.49 7.34s-42.19 15.13-69.25 6.88l-68.79-6.93s-73.83-42.65-101.8-91.72l-6.42-30.73L14 203.94l4.59-22.47 7.79-8.72 3.67-18.34s16-44.94 138-77.28c0 0 62.14-57.55 84.15-60.3 0 0 60.77-12.84 136-9.17 0 0 70.62 2.14 74 17.12l14.68 35.46 6.42 7.34 1.53 22s2.14 28.13-5.5 36.69"/><path stroke="#fff" stroke-miterlimit="10" d="M348.924 303.307c12.298-31.186 13.849-59.787 3.465-63.882-10.383-4.094-28.77 17.868-41.067 49.055s-13.849 59.788-3.465 63.882c10.383 4.095 28.77-17.868 41.067-49.055Z"/><path stroke="#fff" stroke-miterlimit="10" d="m337.58 213.91 12.24 4.35c16.49 8.93 17.36 47.06 1.58 87.08-13.9 35.24-36.22 60.59-53.74 62.93l-6.51-1.64-21.88-15.21m203.91-201.547c5.285-16.621 7.607-30.719 5.186-31.489s-8.668 12.08-13.953 28.701-7.608 30.719-5.187 31.489c2.422.77 8.669-12.08 13.954-28.701Z"/><path stroke="#fff" stroke-miterlimit="10" d="M471.499 154.94c-3.88 20-14.68 30.64-14.68 30.64h-3.67l-15-3.29a4.1 4.1 0 0 1-.79-3.15m39.18-65.89 2.52 1s2 3.68-.6 15.11M237.61 24.85s39.36-7.41 157.37 3.29c0 0-32.1 71.85-32.1 78.27 0 0-5.5 3.06-7.95 4.28 0 0-47.39 7.34-147.36-13.15 0 0-54.49-9.23-46.35-18.53M28.06 164.55s32.45 32.36 107.05 58c0 0 101.61 6.22 114.48-3.06 1.7-1.22 31.76-8.08 31.76-8.08l7.68-.29-.35 5.9s-15.53 32.32-25.41 37.13c0 0-34.4 11.24-98.6 13.07l-33.94 13.53-10.09.92s-78.67-41-96.53-71.31l-1.84-6.19s2.48-23.22 4.12-31.42"/><path stroke="#fff" stroke-miterlimit="10" d="m135.111 222.59-1.22 6.42 30.8 38.21M25.049 231.15s39.13 36.53 57.47 46l3.52 22s-51.06-38.83-56.25-47.08zm-5.149 5.1 7.83 6.73"/><path stroke="#fff" stroke-miterlimit="10" d="M84.98 292.55s39.43 24.2 55.33 37.35l43.11 30.53"/><path stroke="#fff" stroke-miterlimit="10" d="M154.77 340.14s97.05 14 117.46-8.71l8.13-7.07m74.57-213.67 2.83 1.83s-5.58 18.35-5.43 21.1c0 0-109.6 73.69-115.1 89.28M447.75 95.43l-1.25 3.49s-29.2 6.42-45.4 5.35c0 0-6.42-2-6.88-3.21l-15.59 7.79s-1.53 5.51.91 9c0 0 10.55-7.33 21.1-7.18 0 0 38.22-2.91 39.9-4.74l6-7 3.52-9.79-.92-1.83s-22.93-10.39-29.05-9.63c0 0-7.79-.39-7.95 0s-11.65 2.74-16.55 13.14l-.61 2.44 1.38 9"/><path stroke="#fff" stroke-miterlimit="10" d="M378.631 108.85s20.86-82.58 39.21-86.5c0 0 25.16-6.9 37 .9l14 38.29-30.67 21.17"/><path stroke="#fff" stroke-miterlimit="10" d="M433.66 19.54s7.85 37.07 8.47 60.43"/></svg>