<svg width="500" height="375" fill="none" xmlns="http://www.w3.org/2000/svg"><path d="M7 72.79s44.07-43.41 47.13-45.25l16.35-9.48 30-12.94M7 271.52l248.45 98.1 2.45-1.8-4.89-23.54s-9.33-92.18 94.31-100.43c0 0 72.29-6 145.75 26.14M7 110.09s342.16-43.26 392.15-44.14c0 0-39.9-51.87-51.83-60.79" stroke="#fff" stroke-miterlimit="10"/><path d="M132.47 4s-62.6 14.68-84.4 36L7 80.36M147.99 5.2s-25 55.51-34.3 91.67l-8.51 5.42-15.43 31s.61 7.64 0 9.93c0 0-6.58 38.22 3.51 90 0 0 3.44 13.76-9.29 28.78v5.5l-.57 2.06 2.75 23.16 12.66 15" stroke="#fff" stroke-miterlimit="10"/><path d="M7 244s207.45 61.1 228.89 62.52c0 0 20.17-93.4 137.57-92.48 0 0 56.41 2.29 94.93 12.84" stroke="#fff" stroke-miterlimit="10"/><path d="m399.149 65.95 7.56 9.17s16.28 26.6-13.53 90.35l-21.55 48.6M257.9 367.82l2.98-2.67 1.14-4.13 7.34-8.71" stroke="#fff" stroke-miterlimit="10"/><path d="M388.88 244.55s-33.61 4.19-47.82 12c0 0-31.11 15-53.58 50 0 0-18.58 26.46-18.12 63.18" stroke="#fff" stroke-miterlimit="10"/><path d="M289.619 370.21a72.67 72.67 0 0 1 4.9-16.46c20.55-47.65 87.67-64.52 149.9-37.68a152.808 152.808 0 0 1 48.94 33.28M303.179 138.95l-1.94 3.79 1 1.83h36.29l3.09-1.26 5.51-5.62h2.75s23.27 0 26.25 3.44l1.49 2.75-4.81 10.9-3.44 1.72s-78 2.29-87.94-1.61l-.8-2.06 1.37-7.23 2.53-3s15.33-4.57 18.65-3.65ZM55.5 143.41l1.15.39-5.27 2.29.53.84 13.3-.3 6.86-3.22 2.37-.91 8.94 2.21.84 1.92-.84 6.19-2.14 1.22s-30.65.23-33.32-.84l-1.84-1-.92-3.92 1.3-2.19s5.53-2.98 9.04-2.68Z" stroke="#fff" stroke-miterlimit="10"/></svg>
