<svg fill="none" viewBox="0 0 500 375" xmlns="http://www.w3.org/2000/svg"><path stroke="#fff" stroke-miterlimit="10" d="M86.02 5 72.94 44.16s280-11 342.58 0L405.94 5m-399 226.27s476.74-1.38 486 2.75m-486-97s386.62-7.56 486 0"/><path stroke="#fff" stroke-miterlimit="10" d="M6.94 39.11s59-8.62 70.28-7.75m335.251.39s75.34 6 80.47 9.2M85.03 294.86s-14.37 56.89-39.09 73.37m365.611-73.37s12.84 59.09 37.91 74.64M6.94 267.65l27.64 2.44L78 292.11l26.6 6.42"/><path stroke="#fff" stroke-miterlimit="10" d="m79.57 312.61 74.251 17.71s-2.75 28.44 4.58 31.65h18.65s6.88-2 9.64-29.81"/><path stroke="#fff" stroke-miterlimit="10" d="m153.82 330.32 23-.11 9.87 2.86 124.81.54 3.36-3.06 29.58-.84m41.281-28.97 33.47-7.79 36.92-22.25 36.83-1.37"/><path stroke="#fff" stroke-miterlimit="10" d="M176.83 330.21s-1.27 23.16 3.43 22.7c0 0 3.6 2.56 6.28-19.3m135.04-3.25s.93 19.84-2.13 23.28c0 0-4.82 3.89-7.11-21.18 0 0 .8 29.35 7.64 29.35.77 0 19 .62 19 .62l4-4.13s3.37-9.33 1.53-28.59l71.94-17.1M51.26 278.55S39.02 325.75 6 322.07m439.199-44.79s9.08 52.13 48.75 43.87"/><path stroke="#fff" stroke-miterlimit="10" stroke-width=".25" d="M6 151.47h18.34l4.29 6.42s24.83 59.62 37.9 69.94m64.66 1.6c-15.36-33.68-25.45-74.75-25.45-74.75l3-8h88.74l4.36 6.2 8.94 76.58m67.62-1.17 6.43-74.54s2.75-6.19 3-7.11l89.42 1.38a64.523 64.523 0 0 1 3.9 5.27c.23.69-13.07 63.52-22.93 76.13m134.72-77.95s-32.47-2.06-32.24-1.38c.23.68-3.9 7.34-3.9 7.34s-14 39-36.46 73.62m-39.209-77.75 76.31 3.09"/><path stroke="#fff" stroke-miterlimit="10" stroke-width=".25" d="M377.23 148.03s-18.57 67.87-24.07 78.88m-151.34-74.06 83.01.91m-87.371-7.11s6.42 68.11 10.09 79.34m-98.828-79.34s14.91 64.44 25.23 81.18M28.63 157.89c2.13 0 77.111-3.21 77.111-3.21"/></svg>