<svg fill="none" viewBox="0 0 500 375" xmlns="http://www.w3.org/2000/svg"><path stroke="#fff" stroke-miterlimit="10" d="M489.238 121.968s-2.189-13.21-11.929.55a197.4 197.4 0 0 0-23.12 47l-125.35 94.48s17.729-50-6.731-57.33c0 0-48.31-18.8-95.54 94.93 0 0-6.88 22-8 35.32l-3.92 5.25s-52.31 10.78-130.71-9.86c0 0-35.31-23.85-67.41-84.84 0 0-15.29-45-2.29-75.06l5.5-6.34s-3.44-10.07 2.52-17.9 34.78-43.34 141.48-66.88c0 0 48.92-42.19 75.21-53.19 0 0 53.66-20 183.44-8.57 0 0 31.41 3 40.82 10.78 0 0 19.261 38.75 19.261 39.44s9.079 7.14 9.079 7.14-.25 15.94-1.29 20.06l-.3 20.91s-2.75 17.73-6.42 22.77"/><path stroke="#fff" stroke-miterlimit="10" d="M415.028 105.308s-27.34 4.9-52 3.83c0 0-17.28 4-17.58 4.44s-.61 5.35 0 8.71c0 0 15.13-6.73 29.2-6.88 0 0 33.32-2 35.92-3.51a36.8 36.8 0 0 0 7.8-16l-1.53-2.14s-21.56-9.79-28.89-9.18c0 0-10.25-.15-15.6 5l-9 7.79.62 2.76 2.14 8.56m-128.989-77.2s98.75-2.14 137 4.89c0 0-42.5 63.29-45.86 75.21l-8.57 4s-117.4 3.06-163.72-25.83c0 0-4.59-5.22 7-8.23m-143.7 73.14s15.83 34.12 73.16 54.3l100.89 2.06 31.23-5.73 7.33.23v5.5s-20.63 29.81-25 32.1c0 0-31.64 8.94-91 8.49 0 0-28 11.23-28.89 11.69s-7.8 0-7.8 0-52.34-35.08-65.64-65.81c0 0 2.52-16.51 4.13-21.55l-1.57-5.67"/><path stroke="#fff" stroke-miterlimit="10" d="M92.429 208.968c0 1.6-2.06 8-2.06 8l25.45 34.63M12.4 217.988s20.15 30.11 36.39 40.05l.68 1.75 2.49 19.23-.58 1.72s-33.59-35.57-36.34-44.49l-3-16.91zm38.768 54.9s50.379 40.18 53.259 44.92c0 0 82.92 24.91 117.66 0m123.462-204.23s29.61-77.73 53.68-81.41c0 0 33-9.63 53.66 1.6 0 0 13.53 31.47 15.82 37.18l-53.28 22.1m-95.771 22.51-6.42 20.79s-116.18 53.47-132.07 74.43m130.281 94.225c14.703-28.943 15.628-57.99 2.068-64.879-13.561-6.888-36.473 10.99-51.175 39.933-14.703 28.943-15.629 57.991-2.068 64.879s36.472-10.99 51.175-39.933Zm167.099-184.175s9.54 5.28 4 25c0 0-7 30.27-22.78 49.23l-4.51 1.11-19.261-5.05-3.059-5.54"/><path stroke="#fff" stroke-miterlimit="10" d="m218.549 336.918 23.77 18.49s11 6.58 22.32 2.14c0 0 61.15-23.69 63.9-114.19 0 0-2.29-15.29-13.45-20.64l-24.59-10.38m43.771 28.83 124.37-83.66m-37.322-128.98s7.37 33.84 7.66 58.91l4 4.12 3.78 17.61s-6.57 44.95-10.55 56.72l-.4 13.73"/></svg>