<svg fill="none" viewBox="0 0 500 375" xmlns="http://www.w3.org/2000/svg"><path stroke="#fff" stroke-miterlimit="10" d="M450.21 95.16c-1.76 17.43-15.36 61.15-15.36 61.15-6.12 10.7-39.6 78.42-39.6 78.42"/><path stroke="#fff" stroke-miterlimit="10" d="m450.239 76.28-2.06-11.92-6.88-8.26-11.24-34.16-6.88-7.11c-12.15-6-61.68-9-61.68-9-61.45-3.89-118.5 7.85-118.5 7.85l-14.1 6.08c-8.25 3.78-63.52 57.9-63.52 57.9s-84 25.52-121.18 70.16l-2.8 24.46s-11 20.18-10.09 37c0 0 .61 13.15 15.59 60.23l.61 18s45.71 41 156.69 80.87c0 0 123.36 0 139.41-20.18 0 0 50.83-162.34 58.86-153.55 0 0 5.94 1.1-7 40.75"/><path stroke="#fff" stroke-miterlimit="10" d="M392.4 208.42c3.22 2.57 4.18 12.32 3.07 26.32-1.09 13.85-4.22 31.87-9.19 51.25-10.55 41.17-25.44 72.92-33.26 70.91l-13.51-5.9m87.42-179.59a4.67 4.67 0 0 0 4.25 0s5.75-9.46 11-40.18M58.11 250.09l4.13 22.93 90.909 42.3-2.29-24.87-92.75-40.36Zm158.441-21.94 105.63-11.61 11.62-2.3 24.2-10.55 4.28-.61 1.37 5.34-12.69 31.81s-38.82 20.94-104.4 26.29l-32-31.72 1.99-6.65Zm31.448 78.69 26.14-10.55s47.23-8 53.54-5.39c0 0 1.83 21.21-4.36 28.78 0 0-37.6 7.45-52.39 7.22 0 0-24.35 0-23.39-6.76.08-.8.46-13.3.46-13.3Z"/><path stroke="#fff" stroke-miterlimit="10" d="M247.48 266.52 212 288.38l-9.17 2C107.87 267.37 44 223 44 223l-3.5-30.39 7.14-18.42s52.12 32.56 168.91 54M44.12 147.13l3.52 27.06m-6.27-2.6-.87 21.02M170.25 72.16s-3.91-6.89-3.34-10.1c0 0 9.75-7 12.27-7.1a5.36 5.36 0 0 1 5.9 2.92m216.75 51.3s6.3-5.84 11.92-6.19c0 0 35.43-3.78 38.52-8.82l5.62-13.76s-8.94-7-30-10l-9.05 1.95-7 7.57-1.84 4.38 1.95 7.91-5.16 2.94-6.88 6.11s-.03 6.73 1.92 7.91Z"/><path stroke="#fff" stroke-miterlimit="10" d="M227.18 20.76s124.89-6.39 170.75 4.62c0 0-11 63.86-10.66 73.49 0 0-4.13 3.67-4 4 .13.33-202 8.94-222.86-23.62"/></svg>