<svg fill="none" viewBox="0 0 500 375" xmlns="http://www.w3.org/2000/svg"><path stroke="#fff" stroke-miterlimit="10" d="M143.069 5s-32.56 11-35 12.79l-6.88 8.41-.61 13.3-61.62 55.18-31.94 19.26m.011 145.61 20 19.26s-16-68.56 30-82.32c0 0 95.159-22.47 136.889 133.91l172.95 38.91m126.16-282.88s-346.29 1.83-374.72 3.21c0 0 71.54-82.22 76.13-84.45M21.63 105.14l7.02 6.97v6.65L9.39 150.4l-2.36 1.38"/><path stroke="#fff" stroke-miterlimit="10" d="m492.53 341.41-300.39-61.45s-35.31-92.18-96.3-100.44m-62.14 9.63S12.83 201.77 11 243.5l-4-1.61"/><path stroke="#fff" stroke-miterlimit="10" d="M380.17 5s10.08 66.1 11.92 82l13.3 50.83s1.57 106.59-3.89 136.17c0 0-1.3 14.82 2.36 23.08l6.81 21.86-7.57 42.65-7.68 7.91M147.659 135.61l-6.19 2.76-2.41.68-20.75-.91-1.15-.81 3.79-3-.69-1.26s-11.92.57-12.73 2.18l-2.4 2.75v6.42l1.72.69s47 3.21 50.56 3l3.55-1.49v-5.5l-2.75-2.53s-5.73-2.86-10.55-2.98Zm343.801 24.04-37-1.53-2-1.22-4.59-5.66-3.06-1.07-24.3 2.45-2 2.29 1.07 9.48 2.6 1.38s55.95 4.12 70.32 5.65M190.75 319l-5.18 11.1s-31.79 35.16-35.16 37.91m-47.452-166.18-29.92 5.69s-50.9 13.94-44.41 74.84c0 0 8.64 58.39 55.72 87.16"/></svg>