<svg fill="none" viewBox="0 0 500 375" xmlns="http://www.w3.org/2000/svg"><path stroke="#fff" stroke-miterlimit="10" d="M10.52 108.98s92.15-26.44 206.34-29.66c0 0 73.38-46.68 95.39-56.41L326.52 16m163.491 234.23-257.25 29.09-4.43-3.14-10.09-24.19-3.1.16"/><path stroke="#fff" stroke-miterlimit="10" d="M10 231.79c15.76-41 58.52-70.37 108.79-70.37 63.66 0 115.27 47.12 115.27 105.24a97 97 0 0 1-.86 12.92"/><path stroke="#fff" stroke-miterlimit="10" d="M119.871 358.84c53.566 0 96.99-40.192 96.99-89.77 0-49.579-43.424-89.77-96.99-89.77s-96.99 40.191-96.99 89.77 43.424 89.77 96.99 89.77ZM187.52 166s43.57 15.59 54.12 73.84l248.38-25.23M354.14 66.32s-24.16-.15-63.9 13.3c0 0-22 3.82-32.41 3.06l-3.31 8.42s73.37-1.53 89.43-10.09c0 0 8.56-2.3 10.24-14.68l2.29-12.53s-6.32-7.48-31.54-7.48c0 0-8.25 1.53-11.46 5.5 0 0-22.78 10.24-24.31 12.23l4.43 14.22"/><path stroke="#fff" stroke-miterlimit="10" d="M257.828 82.69s70.47-57.56 103.19-66.69m-68.19 73.29 197.18-5.07M461.909 16s6.88 51.89 3.67 68.85l4.94 4.47 3.21 24.43s-4.74 48.78-11.77 81.71c0 0-3.36 17.81-3.59 27.9l-.92 16.51-8 15"/><path stroke="#fff" stroke-miterlimit="10" d="M424.609 124.73v4.74l1.83.68 37.46-1.22 1.3-.92.61-4.81-1.91-1.45s-6.73-2.53-10.86-1.38l-.38 2.52-13.68.31-4.59-2.06s-8.18 1.18-9.78 3.59Z"/></svg>