<svg fill="none" viewBox="0 0 500 375" xmlns="http://www.w3.org/2000/svg"><path stroke="#fff" stroke-miterlimit="10" d="M8.121 117.78s59.85-7.1 63.52-6.19c0 0 29.59-16 34.41-17m28.869-15.33s68.33-30 83.47-30.95c0 0 103.85-17.66 274.57 6.19M7 204.46s26.38 22.24 26.61 72.23l5 21.09h421l5.73-27s3.44-46.32 28.67-62.14M40 297.78S29.73 326 7 337.61m452.609-39.83s8.56 27.6 34.4 41.35"/><path stroke="#fff" stroke-miterlimit="10" d="M7 187.5s31 20.17 36.51 66.33l411.29-8.56S465.42 199.11 494 186m-385.69-82.35s1.31 7.79-22.46 8.94l-7.1 7.6 45.25-2.41v-4l6.88-1.38c2.75-6.19 4-37.49 4-37.49l-2.75-.8-18.69 5.73s-8.59 9-7.33 17.32a47.5 47.5 0 0 0 2.26 6.76"/><path stroke="#fff" stroke-miterlimit="10" d="M132.169 87.23s-25.74-2-22.18 21.27c0 0-.75 9.39-20.35 11.11"/><path stroke="#fff" stroke-miterlimit="10" d="M85.85 112.59s16-10.7 21-12.54m28.07-14.71s64.44-33.14 91.72-35.2c0 0 104-9.71 211.26 2.52l56.1 42.5m-370 22.62s280.33-16.38 369-14.38"/><path stroke="#fff" stroke-miterlimit="10" d="M316.999 46.49v3.57l-8.49 58.25-3.59 25.37s-5.2 76.43-2.14 90.19l-6.11 20.49s-.31 22 0 30c0 0 2.14 19.72 3 23.46M78.75 120.19l-5.39 2.64-11.12 21.55s-11.93 67.42-6.88 103l.07 5.81m200.941-101.81s-10.18-.78-11.24-1.49c0 0-2.67-4.45 1.06-6 0 0 14.45-7.8 50.05-2.41l.76.9-.15 5.61-2.53 1.11-12.68 2.07s-.65-2.41-2.6-3l-19.89.57a4.2 4.2 0 0 0-2.78 2.64Z"/></svg>