<svg fill="none" viewBox="0 0 500 375" xmlns="http://www.w3.org/2000/svg"><path stroke="#fff" stroke-miterlimit="10" d="m493 87.35-62-2.3s-140.79-71.59-166-80m226.84 267.11S398.03 299 400.32 369.5M116.141 5S28.411 30.68 7.001 46.17M300.34 369.5l-274.47-101-9.09-10.24S9.46 227.38 7 223.71"/><path stroke="#fff" stroke-miterlimit="10" d="M40.8 273.98s-2.09 10-8.39 13.77L7 298.3m484.84-20.861s-51.93 16-66.3 66.72l-2.75 24.6m2.749-24.599-18.79-7.37M364.66 93.19s-50.56.35-75.32-8.6c0 0-49.07-11.69-69.94-10.08 0 0 .69 11.23 8.94 18.68 0 0 38.07 10 55.72 9.29l86.45 3.67-5.85-12.96Z"/><path stroke="#fff" stroke-miterlimit="10" d="m308.991 89.31 8.63-20.48-1.38-2.45-44.48-21.7s-12.23-3.06-23.24-.62c0 0-25.37 5.2-32.25 11.78 0 0 .91 14.52 3.13 18.65m145.259 18.7S263.43 15.07 221.93 5m-75.45 0S55.91 25 32.68 39.35c0 0-24.26 35.38-25.68 42.61m267.9 20.17L7 99.5m439.061 162.8s-51 28-65.69 84.15c0 0-363.29-106.85-369.1-115.72"/><path stroke="#fff" stroke-miterlimit="10" d="M112.34 13.15S99.93 66.02 99.48 99.5l-5.73 5-6 27.44 1.53 5.2s1.07 66.19 8.86 103.8l-.3 20 2.22 21.12-5.63 11.61m276.08-187.52 1.83 7.34 3 49.75s-2.21 123.33-15.21 177.24"/><path stroke="#fff" stroke-miterlimit="10" d="m126.459 144.98-7.11 3.13h-3.29l-13.37-.76v-1.76l4.74-2.52-1.15-1.23s-9 .69-11 2.68l-1.22 2.67s-.15 3.67.92 5.89c0 0 26.52 4.36 40 3.67l2.06-1.3-.38-6.12-1.68-1.37-8.52-2.98Z"/></svg>