<svg fill="none" viewBox="0 0 500 375" xmlns="http://www.w3.org/2000/svg"><path stroke="#fff" stroke-miterlimit="10" d="M468.4 74.481c-34.85-52-56.86-52.28-56.86-52.28-78.65-17.41-223.8-7.26-223.8-7.26L100 26.031l-4.9 6.58 6.12 10.09-58.09 49.53h-3.06c-35.16 21.09-30.88 27.82-30.88 27.82l2.45 8.1 5.73 28.2-8.34 20.18v11.24s10.41 38.29 12.47 41.71c0 0 24.53 61.45 48.84 84.84a222.072 222.072 0 0 0 35.28 16.07s23.39 11.47 48.61 15.59l41.28-6.42 9.17-8.71s21.55-105 107.77-119.69c0 0 25.22-2.53 25.22 30.49l-2.05 14.45-8.261 10.77s133.261-81.85 142.421-92.63c0 0 9.4-35.08 20.41-46.78"/><path stroke="#fff" stroke-miterlimit="10" d="M95.1 32.611s5.81-12.23 115.57 7.64l31 9.94s-69.7 78.72-70.68 87.29c0 0-78.64 4.9-116.55-24.76 0 0-23.86-15-14.37-20.48"/><path stroke="#fff" stroke-miterlimit="10" d="M170.99 33.752s24.09 3.14 40.83 17.58l15.59 14"/><path stroke="#fff" stroke-miterlimit="10" d="M101.221 42.7s2.83-4.44 16.13-4.44c0 0 69 4.44 92.27 11.28m93.959 262.405c17.873-28.12 20.713-58.32 6.343-67.454-14.37-9.133-40.508 6.258-58.381 34.378-17.873 28.12-20.713 58.32-6.343 67.454 14.37 9.133 40.508-6.258 58.381-34.378Z"/><path stroke="#fff" stroke-miterlimit="10" d="m291.001 217.071 23 11.69c18.92 12 15.82 50.79-6.93 86.58s-56.53 55-75.45 43c-.57-.36-1.11-.74-1.64-1.14l-25.27-26.36"/><path stroke="#fff" stroke-miterlimit="10" d="m14.62 207.612 63.72 92.21s52.889 41.58 120.459 11.31c0 0 25.07-87.44 104.86-110.68 0 0 37.91-9.47 39.75 34.86 0 0 118.07-59.6 130.27-73.67m-302.688-24.171-9.85 6.27-24.76 23.39"/><path stroke="#fff" stroke-miterlimit="10" d="M50.62 161.642s5.27-6 20.87-2.31c0 0 36.761 10.55 88.121 7.8 0 0 30.42-5.55 39.6-4.27l8.25 4.73v5.121s-22.24 38-27.29 43c0 0-34.62 13.53-78 0 0 0-14-13.071-15.36-13.761-1.36-.69-24.08-13.3-24.54-14-.46-.7-11.88-22.18-11.65-26.31Zm51.59 54.099s.23 12.38 3.21 18.12c0 0-21.09 21.09-28 23.84 0 0-7.8 6.19-20.64-5.5 0 0-35-34.61-47.78-72.22m41.62-18.34s-36.68-23-39-33.49"/><path stroke="#fff" stroke-miterlimit="10" d="m17.37 156.352 5.25 10.78s6.36 43.08 67.07 81.47m378.479-170.21c-10.54-19.72-34-40.13-34-40.13-30-24.61-129-4.51-129-4.51s-26.17 72.159-27.55 85.909c0 0 187.16-30.52 189.4-30l.9-.13"/><path stroke="#fff" stroke-miterlimit="10" d="m381.5 26.021 10.32 27.15s9 38.34 9.42 46l6.4 4.21 8.25 21.1-.91 6.19s-.92 35.08-8.95 53l.46 4.36 4.24 12.08-3.74 17m83.199-126.11c-5.16 3.33-22-.8-22-.8-2.06-4.7 1-19.49 1-19.49a17.556 17.556 0 0 1 7.68-1.49s12.15 4.13 13.3 5.73m-43.108 116.03 1.47 3.05 22.63 7.19s10.85-2.45 19-23.24"/></svg>