<svg fill="none" viewBox="0 0 500 375" xmlns="http://www.w3.org/2000/svg"><path stroke="#fff" stroke-miterlimit="10" d="m493 86.29-36.51-1.22S313.71 12.41 279.32 5.25m-116.49 0S68.36 32.48 42.22 54.5c0 0-1 2.75-1.83 4.35L7 104.94m486 173.12s-83 22.64-86.65 91.69m-86.22 0L56 258.57l-8.25-10.09S34.38 175.8 7 166.39"/><path stroke="#fff" stroke-miterlimit="10" d="M493 286.55s-44 24.3-55 59.16l-6 24m61-120.16s-84.82 15-105.3 97.23c0 0-340.89-118.93-341.81-122.14 0 0-10.7-43.26-27.82-57.18m212.66-91.19s36.89.24 96.74 14.46c0 0 43.57 3.89 48.15 1.83l4.82 14.44s-115.5-3.67-130.44-9.4l-12.87-5-2.52-3.44s-7.11-20.18-6.43-29.81c0 0 19.72-15.84 51.14-13.54l4.81.93s38.53 15.82 43.8 21.1l-7.8 21.32m55.49 3.4S279.17 14.09 230.86 5.25"/><path stroke="#fff" stroke-miterlimit="10" d="M192.64 5.25S98.78 25.51 67 45.77c0 0-33.63 48.17-35.16 55.2 0 0 199.79.67 271.41 2.48m153.24-18.38-44.64-1.22s-127.49-75.11-149-78.6M72.26 265.43s-1.76 9.5-8 13.17L31.7 290.37s-7.34 1.38-14.53-4.59c0 0-7.16-6.42-10.15-11.92"/><path stroke="#fff" stroke-miterlimit="10" d="M7 192c9.58 2.3 20.06 18.35 24.89 39.34 5.57 24.18 1.53 45.76-9 48.19-5.08 1.17-11.43-3.43-15.24-10.28M138.13 18.92s-11.37 54.84-11.83 78.84l-6.12 7.18-6.42 27.06s2.45 67.16 6.5 120.48M380.44 107v6.19s8.71 105-11.24 210.71l-2.2 15.66"/><path stroke="#fff" stroke-miterlimit="10" d="m157.1 154.93-6.19 1.72s-30-3.44-31.53-5.27l-.92-5.28 2.41-2.64s5.51-2.17 10.44-1.14l1.14 3.68a75 75 0 0 0 10.55.69l5.39-2.69s5.27.8 8.71 3.55c0 .04 1.26 5.09 0 7.38Z"/></svg>