<svg fill="none" viewBox="0 0 500 375" xmlns="http://www.w3.org/2000/svg"><path stroke="#fff" stroke-miterlimit="10" d="M7 52.36s189.19-23.77 283.43-3.82c0 0 46.32 15.74 75.36 30.72m28.7 13.15 35.47 18s56.63 3.66 61.79 6.72M7 210.65s25 29.81 25 60.53L40 298h426.5l2.29-23.08s-3-44.94 23-67"/><path stroke="#fff" stroke-miterlimit="10" d="M39.1 295S29.19 326 7 336.08M461.141 298s6.35 22.93 30.61 38.83M7 88.13S55.19 52.94 65 49.3c0 0 152.56-10.85 224.1 2.9 0 0 41.81 10.55 76.74 32.34m-.091-10.67 4.32-1 16.05 5.13s9.06 9.75 8.37 17.66l-1.49 5.5.23 2 13.07 7.34 8.94 1.49 6.88 7.1-51.59-3.32s-5.66-34.77-4.78-41.9Z"/><path stroke="#fff" stroke-miterlimit="10" d="m393.229 103.11-2.1 5s-18.73 7.8-20.6 7.57M7 104.33s327.61 2.3 362.15 11.39"/><path stroke="#fff" stroke-miterlimit="10" d="m181.471 45.23 8.5 61.7s9.77 54.57 6.71 116.64l5.81 22.62v9.48s-.89 8.28-1.94 17"/><path stroke="#fff" stroke-miterlimit="10" d="M7 187.11s30.51 25.37 34.18 57.48L457.32 253s2.95-40.26 35.64-65.49M31.969 271.18l436.81 3.75M217.389 150s-13.82-.31-14.14-2.29c-.22-1.45-1.45-3.36-.3-7 0 0 29-5.88 51 2.6 0 0 1.07 3.75 0 5.43a29.7 29.7 0 0 1-11.54 1.6s.46-2-3.82-3.13c0 0-19.65-.61-19.88.08a4 4 0 0 0-1.32 2.71ZM7 131.69s16 3.37 16.41 5.31a13.1 13.1 0 0 1-.38 4.35s-11.32 2.45-12.92 2.22c0 0-1.91-2.37-3.52-2.44"/></svg>