<svg fill="none" viewBox="0 0 500 375" xmlns="http://www.w3.org/2000/svg"><path stroke="#fff" stroke-miterlimit="10" d="M265.361 5s128.87 27.31 175.189 55.29c0 0 16.51 14.67 22 31.64l6.38 21.1 17 15.59s8.25 30.73-2.75 111c0 0-17.75 23.12-51.69 31.75m-.09.38c0-.13.06-.26.08-.39"/><path stroke="#fff" stroke-miterlimit="10" d="m420.42 266.52 11.06 4.84a153.3 153.3 0 0 0 3.11-30.84c0-80.54-62-145.84-138.5-145.84s-138.5 65.3-138.5 145.84a153.7 153.7 0 0 0 3.78 34l16.86-20.17"/><path stroke="#fff" stroke-miterlimit="10" d="M300.049 369.51c-67.279 0-121.82-54.541-121.82-121.82s54.541-121.82 121.82-121.82 121.82 54.541 121.82 121.82-54.541 121.82-121.82 121.82Zm-138.68-95.01H10.999M448.05 68.06s-6.58-3.53-12.89-4.1l-26.14-2.64-4.36.69.58 4s26.14 25.62 32.56 30.51c0 0 24.76 15.74 31.18 16.51"/></svg>