<svg version="1.1" id="Calque_1" xmlns="http://www.w3.org/2000/svg" x="0" y="0" viewBox="0 0 500 375" style="enable-background:new 0 0 500 375" xml:space="preserve"><style>.st1,.st2{fill:none;stroke:#fff;stroke-miterlimit:10}.st2{stroke-width:.5}</style><g id="Calque_2_00000014633645645098944460000001699140393292544173_"><path class="st1" d="M44.9 375c-4.4-11.7-5.1-16.8-5.1-21.1s3.3-16.4 1.1-21.1-12.8-41.8-12.7-56.4c.7-6.5 21.8-73.8 23.3-75.7 1.5-1.8 39.6-64.7 44.7-70.9 9.8-18.4 39.6-80.7 70.9-100.4 13-5.1 47.3-5.2 82.9-5.1 37.9.1 69.5-.8 80.7 5.1 20.4 6.2 60 67.3 73.4 101.8 14.5 18.2 41.4 61.5 47.2 76.4 5.8 14.9 17.5 56 18.2 65.1 4 16-12.7 57.8-11.6 63.3s.7 18.2.7 22.9c0 4.7-3.6 13.2-4 16"/><path class="st1" d="M188 25.5c.9-2.4 3-5.2 5-5.7s7.8-.1 9.6.4 8.4 3.1 9.8 4.5"/><path class="st1" d="M196 24.9s0-2.3.3-2.4 7.6 1.4 9.3 2.3M287.6 24.4c1-.8 5.1-3.1 8.2-3.8 3-.8 9.4-1.2 10.7-.9s4.7 3.1 5.3 5.5"/><path class="st1" d="M295 24.7c1.5-.6 7-2.4 8.6-2.2.4.7.4 2.5.4 2.5M98.2 125.3c-2.1-.4-16.1-3.6-18.7-5.3s-4.8-2.6-4.8-7 .1-9.9 1.6-11.6 9.5-3.3 17.4-3.3 12.3.8 13.3 1.9c1 1.2 2.2 4.1 2.3 5M391 103.7c.1-1.6 1.6-4.1 2.7-4.3s18.5-2.5 25.8 0c7.4 2.5 6 10.1 5.6 13.6s-1.6 5.6-3.2 6.4-14.6 5.2-20.3 5.8M52.9 198.6c-6.2 26 18.1 44.6 37.8 62.5 17.8 19.4 23.4 31.2 23.4 31.2s-46.8-33.6-47.5-30.4c-.7 3.2-.7 22.2-.7 23.9s-31.4-27.4-22.1-62.3M447.4 199.1c6.9 20.8-12.7 42.1-37.8 62.7-9.8 8-20.7 25.7-22.5 28.2s45-32.2 46.1-28.2 2.1 19.7 2.1 22.2c5.8-3.3 26.4-23.4 23.4-54.4M65.5 375c-.4-5.6 9.6-14.5 17.9-21.3 3.3-2.7 85.3 20.9 166.7 21.3 82.4.4 164.1-22.3 166-21.3 8.7 4.3 18.2 8.7 17.2 21.3"/><path class="st2" d="M90.9 260.9c8.8 3.9 84.8 46.5 157.2 46.7 82.6 0 151.4-44.2 161.5-45.8M192.3 33.2H308s-2.6-5.2-5.8-5.7c-1.6-.2-26.4-1.7-53-1.6-24.4 0-48.4.5-50.2 1.1-3.6 1.3-6.7 5.5-6.7 6.2zM96.2 142c-.3 2.3 78.1 10.1 154.8 10.1s151.5-8 152.9-10.1c2.8-4.1-43-90-57.8-96.5-7.3-3.2-50.8-1.5-95.5-1.4-45.7.2-92.6-1.1-96.9 2.3-13.3 6.2-48.1 63.5-57.5 95.6z"/></g></svg>
