<svg version="1.1" id="Calque_1" xmlns="http://www.w3.org/2000/svg" x="0" y="0" viewBox="0 0 500 375" style="enable-background:new 0 0 500 375" xml:space="preserve"><style>.st1,.st2{fill:none;stroke:#fff;stroke-miterlimit:10}.st2{stroke-width:.5}</style><g id="Calque_2_00000059997748264666544650000009180300384325745077_"><path class="st1" d="M.3 211.4c13.3 6.2 166.9 77.1 173.9 77.3 7 .3 2-8.1 1.1-13.7-.8-5.6-6.4-32.2 7.3-49.6s41.2-19.6 65-5.6 47.9 34.5 59.4 68.9c11.5 34.5 7.3 56 7.3 56 4.8 3.4 42 14 51.6 13.7 9.5-.3 49.3-1.4 71.5-19.9 22.1-18.5 34.2-56 33.6-63.9s-6.7-30-5.9-34.5c2.8-20.4 11-25 10.9-36.7-.2-10.5-2.2-15.7-2.5-18.3-.3-2.5 1.4-14.2.2-16-4.8-7-11.1-16.6-25.5-29.3-6.2-5.5-27.8-17.8-39-22-16.3-7.3-62.4-16-74.1-19.9-23.7-18.2-71.5-45.3-82.7-49.8-16.5-6.1-51.3-12.9-68.2-15.2-16.4-2.2-83.7-8.3-98.5-8.3-14.3 0-77.1 4.2-85.4 7.3"/><path class="st1" d="m151.2 136.6-1 3.1s-8.3 5.7-10 5.8-5.7.2-7.1-1c-1.4-1.1-8.7-10.7-8.7-10.7-1.6-1.2-15.6.2-26.7-1.4-11.1-1.7-19-5.5-19.9-7.8s.8-15.6 3-18.8c2.2-3.1 30.4-6.9 39.1-6.3s15.5 5.5 19.4 12.5 4 9 3.8 10.5-1.8 2.6-1.9 3.1c-.3.5 10 11 10 11zM435.6 200s-48.8.3-48.8 1.2 13.3 12.2 13.1 13.3c-.1 1.1-44.8-2.5-65.2-11.5-20.4-9-53.6-27.3-59.9-33.4-6.4-6.1-11.5-13-12.6-16.4S302.1 168 404 176.4c13.5 1.8 31.3 16.7 31.6 23.6zM466.2 249.8c.4 9.2-5.9 49.1-47.8 73.5-1.1-10.5-7.3-14.7-8-23.9 3.7-12.6 28.1-43.2 36.7-55.5 3.4-2.8 15.1-10.8 22.2-19.9M55 124.5l10.5 2.7s4.5 1.8 4.5 3.9c-.5 1.6-1.7 3-6.2 2.3s-11.3-2.3-11.3-2.3-6.8-1.6-7.4-4c-.3-1 .2-2.9 1.5-3.5 1.2-.7 6.2.3 8.4.9zM39.2 120.3c.3 1-.5 4.5-1.8 5.5-1.7 1.2-15.3-4.2-16.3-4.7-1.1-.6-2.3-1.3-2.2-3 .1-1.7 2.8-1.5 5.5-1.5 2.5.1 10.4.9 14.8 3.7zM38.5 27.5l-1.7-2.1s-12.5.9-19.3 1.8C11.9 28 2.4 29.7 0 30.6"/><path class="st1" d="M66.3 25.4c-2.6-2-4.5-2.5-8.3-3.1s-14.4-1.2-16.6-1.2C30.5 21.1 6.3 25 0 27.3"/><path class="st2" d="M418.2 323.7c-1.5 1.4-43.9 11.7-46 10.3-2.2-1.4-3.6-4.2-3.2-5.1s4.6-4 7.6-5.2 38.1-8.2 39.4-9.3M469.7 163.5c1.2 9.6-6.2 16.4-64.8 12.9M262.2 153.1c-7.3-10.4-9.8-20.1-23.5-27"/><path class="st2" d="M335.1 98.1c8.8 7.1 14.8 10.8-5.1 15.9-30.5 8-86.9 13.1-91.4 12-4.5-1-23.1-4.3-29.1-9.8-21.9-20.4-47.9-50.3-74-73-4.7-4.1 2.8-4.7 9-4.9 6.3-.2 88.1 4.5 110.2 11M0 39.3c2.6-.9 31.8-4 59.4-4.1 22.4-.1 37.2.3 55.9 9.5 22.2 11 67.8 64.2 68.5 73.5-1.9 5.3-13.2 14-19.9 16.5-2.8.6-15.7-2.8-18.2-3.9M78 115.7c-15.3-4.4-72.5-16-78-17.3M160.1 283.4c0-17.6-7.4-128 3.6-148.5"/><path class="st2" d="M67.1 242c-8.5-24.7-40.1-100.9-18-133.1 1.8-4.4 10.8-58.3 15.9-73.6"/><path class="st1" d="M311.9 306.3c-.7 3.6-4.3 11-5.6 13-2.7 4-16.6 23.6-23.9 27.9-12.4 7.2-27 6.5-36.3 4s-27.2-9.6-46.1-35.5c-6.3-8.7-22.4-34.2-15.2-63.4 7-25.9 35.1-33.4 49-38.8M5.7 213.9c-.6 1.2-3.1 3.7-5.4 3.6"/></g></svg>
