<svg version="1.1" id="Layer_1" xmlns="http://www.w3.org/2000/svg" x="0" y="0" viewBox="0 0 2047.9 1535.3" style="enable-background:new 0 0 2047.9 1535.3" xml:space="preserve"><style>.st0{fill:none;stroke:#fff;stroke-width:4.5537;stroke-miterlimit:10}</style><path class="st0" d="M0 905.6C13.7 841 60.1 685.7 87.6 612.2c-5.1-1.6-10.1-6.1-11.1-8.5 0 0 0-25.7 20.5-52.9 64.6-85.8 209.3-209.8 275.9-264s203-147.2 278.9-193.1c19.3-11.7 60.9-10.4 69.7 0 112-6.3 496.7-3.2 605 0 8.8-10.4 50.4-11.7 69.7 0 75.9 45.9 212.2 138.8 278.8 193.1s211.4 178.2 275.9 264c20.5 27.3 20.5 52.9 20.5 52.9-1 2.4-6.1 6.9-11.1 8.5 27.5 73.6 73.9 228.8 87.6 293.5"/><path class="st0" d="m1326.5 93.7-3.8 9.3 34.7 18.1 31.6 1v-5.8c31.4 15.5 129 98.5 182.4 152.8 0 0 6.1 40.1 8.6 50.6l95.1 102.2h27.8c-7.4-41.3-31.1-117.9-67.1-153.5s-128.2-103.2-155.6-121.2M1921.9 1535.3c39.8-7.9 108.2-50.7 126-65.1M87.6 612.2c201.2 54.3 664.8 77.4 936.5 77.4h-.1c271.7 0 735.3-23.1 936.5-77.4M.1 1126.5c60.1 110.3 281.3 211.9 511.9 267.2 193.9 46.6 394.6 55.9 511.9 55.9s318-9.3 511.9-55.9c230.7-55.4 451.8-156.9 511.9-267.2M721.5 93.7l3.8 9.3-34.7 18.1-31.6 1v-5.8c-31.4 15.5-129 98.5-182.4 152.8 0 0-6.1 40.1-8.6 50.6l-95.1 102.2h-27.8c7.4-41.3 31.1-117.9 67.1-153.5s128.2-103.2 155.6-121.2M1024.1 301.6c-9.7 0-15.5 2.5-16.2 18s-4.7 31-8.1 37.2c-6.4 11.8-21.9 22.1-22.1 34.3h46.4-.1 46.4c-.2-12.2-15.7-22.5-22.1-34.3-3.4-6.2-7.4-21.8-8.1-37.2-.7-15.5-6.5-18-16.1-18zM126.1 1535.3c-39.8-7.9-108.2-50.7-126-65.1"/><path class="st0" d="M1014.8 1343.8c-192-3.7-461.2-17.9-626.9-55.8-7.4 4.6-11.2 16-7.5 26 179.2 66.1 459 111.4 643.5 111.4 46.8 0 68.6-80.1-9.1-81.6z"/><path d="M1862.5 453.1c-226.9 4.2-629.7-2.3-838.4-2.3s-611.5 6.5-838.4 2.3" style="fill:none;stroke:#fff;stroke-width:2.2769;stroke-miterlimit:10"/></svg>