<svg width="262" height="200" viewBox="0 0 262 200" fill="none" xmlns="http://www.w3.org/2000/svg">
<g clip-path="url(#clip0_348_187)">
<path d="M235.326 18.6699H101.919C101.204 18.6699 100.624 19.2498 100.624 19.9651V198.705C100.624 199.42 101.204 200 101.919 200H235.326C236.041 200 236.621 199.42 236.621 198.705V19.9651C236.621 19.2498 236.041 18.6699 235.326 18.6699Z" fill="white"/>
<path d="M235.326 200H101.919C101.575 200 101.246 199.863 101.003 199.62C100.761 199.377 100.624 199.048 100.624 198.705V19.9651C100.624 19.6217 100.761 19.2925 101.003 19.0497C101.246 18.8069 101.575 18.6703 101.919 18.6699H235.326C235.669 18.6703 235.999 18.8069 236.241 19.0497C236.484 19.2925 236.621 19.6217 236.621 19.9651V198.705C236.621 199.048 236.484 199.377 236.241 199.62C235.999 199.863 235.669 200 235.326 200V200ZM101.919 19.3175C101.747 19.3177 101.583 19.386 101.461 19.5074C101.34 19.6288 101.271 19.7934 101.271 19.9651V198.705C101.271 198.877 101.34 199.041 101.461 199.163C101.583 199.284 101.747 199.352 101.919 199.352H235.326C235.498 199.352 235.662 199.284 235.784 199.163C235.905 199.041 235.973 198.877 235.974 198.705V19.9651C235.973 19.7934 235.905 19.6288 235.784 19.5074C235.662 19.386 235.498 19.3177 235.326 19.3175H101.919Z" fill="#CACACA"/>
<path d="M216.221 59.2657H121.022C120.378 59.2657 119.761 59.0099 119.305 58.5545C118.85 58.099 118.594 57.4813 118.594 56.8372C118.594 56.1931 118.85 55.5754 119.305 55.12C119.761 54.6646 120.378 54.4087 121.022 54.4087H216.221C216.865 54.4087 217.482 54.6646 217.938 55.12C218.393 55.5754 218.649 56.1931 218.649 56.8372C218.649 57.4813 218.393 58.099 217.938 58.5545C217.482 59.0099 216.865 59.2657 216.221 59.2657Z" fill="#E6E6E6"/>
<path d="M216.221 74.9698H121.022C120.378 74.9698 119.761 74.714 119.305 74.2586C118.85 73.8031 118.594 73.1854 118.594 72.5413C118.594 71.8972 118.85 71.2795 119.305 70.8241C119.761 70.3687 120.378 70.1128 121.022 70.1128H216.221C216.865 70.1128 217.482 70.3687 217.938 70.8241C218.393 71.2795 218.649 71.8972 218.649 72.5413C218.649 73.1854 218.393 73.8031 217.938 74.2586C217.482 74.714 216.865 74.9698 216.221 74.9698Z" fill="#E6E6E6"/>
<path d="M216.221 90.6744H121.022C120.378 90.6744 119.761 90.4186 119.305 89.9631C118.85 89.5077 118.594 88.89 118.594 88.2459C118.594 87.6018 118.85 86.9841 119.305 86.5287C119.761 86.0733 120.378 85.8174 121.022 85.8174H216.221C216.865 85.8174 217.482 86.0733 217.938 86.5287C218.393 86.9841 218.649 87.6018 218.649 88.2459C218.649 88.89 218.393 89.5077 217.938 89.9631C217.482 90.4186 216.865 90.6744 216.221 90.6744Z" fill="#E6E6E6"/>
<path d="M216.221 106.379H121.022C120.378 106.379 119.761 106.123 119.305 105.668C118.85 105.212 118.594 104.595 118.594 103.95C118.594 103.306 118.85 102.689 119.305 102.233C119.761 101.778 120.378 101.522 121.022 101.522H216.221C216.865 101.522 217.482 101.778 217.938 102.233C218.393 102.689 218.649 103.306 218.649 103.95C218.649 104.595 218.393 105.212 217.938 105.668C217.482 106.123 216.865 106.379 216.221 106.379Z" fill="#E6E6E6"/>
<path d="M216.221 122.084H121.022C120.378 122.084 119.761 121.828 119.305 121.372C118.85 120.917 118.594 120.299 118.594 119.655C118.594 119.011 118.85 118.393 119.305 117.938C119.761 117.482 120.378 117.227 121.022 117.227H216.221C216.865 117.227 217.482 117.482 217.938 117.938C218.393 118.393 218.649 119.011 218.649 119.655C218.649 120.299 218.393 120.917 217.938 121.372C217.482 121.828 216.865 122.084 216.221 122.084Z" fill="#E6E6E6"/>
<path d="M120.892 89.5329C120.834 89.7356 120.792 89.9426 120.766 90.1519L103.893 98.6688L100.047 96.1594L95.5017 101.468L101.878 106.572C102.393 106.984 103.028 107.218 103.687 107.239C104.347 107.26 104.995 107.066 105.535 106.687L123.134 94.3309C123.879 94.655 124.705 94.7446 125.502 94.5878C126.3 94.431 127.03 94.0352 127.597 93.4531C128.163 92.871 128.54 92.1302 128.675 91.3291C128.81 90.528 128.699 89.7047 128.355 88.9687C128.011 88.2327 127.451 87.6188 126.75 87.2087C126.048 86.7986 125.239 86.6118 124.429 86.673C123.619 86.7343 122.846 87.0407 122.215 87.5515C121.583 88.0624 121.122 88.7535 120.892 89.5329L120.892 89.5329Z" fill="#FFB6B6"/>
<path d="M103.34 98.9913L97.746 105.605C97.5868 105.793 97.389 105.945 97.1659 106.05C96.9429 106.155 96.6998 106.21 96.4534 106.213C96.2069 106.215 95.9629 106.164 95.7378 106.064C95.5127 105.963 95.3119 105.816 95.1491 105.631L89.4438 99.1479C88.4852 98.3283 87.8907 97.162 87.7909 95.9047C87.6911 94.6474 88.094 93.4019 88.9113 92.4413C89.7286 91.4807 90.8935 90.8834 92.1505 90.7805C93.4076 90.6777 94.6541 91.0775 95.6167 91.8925L102.934 96.4262C103.143 96.556 103.322 96.7295 103.459 96.9348C103.595 97.1401 103.686 97.3724 103.724 97.6158C103.763 97.8593 103.748 98.1081 103.682 98.3455C103.615 98.5828 103.499 98.8031 103.34 98.9913L103.34 98.9913Z" fill="#274B9F"/>
<path d="M82.2779 195.939H86.2477L88.1362 180.627H82.2773L82.2779 195.939Z" fill="#FFB6B6"/>
<path d="M81.2652 194.643L89.0831 194.643H89.0834C90.4048 194.643 91.672 195.168 92.6063 196.102C93.5406 197.037 94.0656 198.304 94.0657 199.625V199.787L81.2654 199.788L81.2652 194.643Z" fill="#2F2E41"/>
<path d="M81.3835 153.299L82.5123 157.105L97.7295 154.562L96.0632 148.945L81.3835 153.299Z" fill="#FFB6B6"/>
<path d="M82.3382 151.96L84.5613 159.455L84.5614 159.455C84.937 160.722 84.794 162.086 84.164 163.248C83.5339 164.409 82.4682 165.273 81.2015 165.649L81.0462 165.695L77.4064 153.423L82.3382 151.96Z" fill="#2F2E41"/>
<path d="M217.038 157.397H153.88C152.99 157.397 152.269 156.309 152.269 154.968C152.269 153.627 152.99 152.54 153.88 152.54H217.038C217.928 152.54 218.649 153.627 218.649 154.968C218.649 156.309 217.928 157.397 217.038 157.397Z" fill="#E6E6E6"/>
<path d="M217.038 171.32H153.88C152.99 171.32 152.269 170.233 152.269 168.891C152.269 167.55 152.99 166.463 153.88 166.463H217.038C217.928 166.463 218.649 167.55 218.649 168.891C218.649 170.233 217.928 171.32 217.038 171.32Z" fill="#E6E6E6"/>
<path d="M236.621 37.3404C246.932 37.3404 255.291 28.9815 255.291 18.6702C255.291 8.35893 246.932 0 236.621 0C226.31 0 217.951 8.35893 217.951 18.6702C217.951 28.9815 226.31 37.3404 236.621 37.3404Z" fill="#FA603D"/>
<path d="M230.251 23.299C230.019 23.53 229.89 23.8434 229.89 24.1702C229.89 24.4969 230.019 24.8103 230.251 25.0414C230.482 25.2724 230.795 25.4023 231.122 25.4023C231.449 25.4023 231.762 25.2724 231.993 25.0414L236.623 20.4117L241.252 25.0412C241.483 25.2713 241.796 25.4004 242.123 25.4C242.449 25.3996 242.762 25.2698 242.992 25.0392C243.223 24.8085 243.353 24.4957 243.353 24.1695C243.353 23.8432 243.224 23.5302 242.994 23.299L238.365 18.6696L242.994 14.0399C243.226 13.8088 243.355 13.4955 243.355 13.1687C243.355 12.8419 243.226 12.5285 242.994 12.2975C242.763 12.0664 242.45 11.9366 242.123 11.9366C241.796 11.9366 241.483 12.0664 241.252 12.2975L236.622 16.9271L231.993 12.2975C231.762 12.0665 231.448 11.9367 231.122 11.9367C230.795 11.9367 230.482 12.0665 230.251 12.2975C230.02 12.5285 229.89 12.8419 229.89 13.1686C229.89 13.4953 230.02 13.8087 230.251 14.0397L234.88 18.6693L230.251 23.299Z" fill="white"/>
<path d="M122.395 145.469C121.822 146.424 121.013 147.215 120.046 147.768C119.079 148.32 117.986 148.615 116.872 148.623L93.0133 156.261L91.9224 149.934L106.37 142.095L92.3725 132.014L102.627 120.014L121.253 137.374C122.342 138.388 123.049 139.746 123.257 141.219C123.464 142.693 123.16 144.193 122.395 145.469V145.469Z" fill="#2F2E41"/>
<path d="M87.7903 188.742H81.8994C76.61 152.486 71.2261 116.129 87.1359 102.558L105.9 105.613L103.5 121.54L93.0272 133.541L87.7903 188.742Z" fill="#2F2E41"/>
<path d="M104.753 112.182C96.8112 117.593 86.5524 116.321 82.2704 108.257C88.4227 97.8956 89.7179 90.4481 84.7654 87.0481C83.9717 84.2182 84.2679 81.1935 85.5954 78.5713C86.9229 75.9491 89.1854 73.9198 91.936 72.8843L101.318 76.8117C109.283 83.3053 110.852 90.3389 107.864 97.7576L104.753 112.182Z" fill="#274B9F"/>
<path d="M261.957 199.352H0V200H261.957V199.352Z" fill="#CACACA"/>
<path d="M49.6524 184.586C50.8571 185.01 52.1506 185.116 53.4082 184.894C54.6658 184.673 55.8452 184.131 56.8327 183.322C59.3477 181.211 60.1355 177.733 60.7776 174.514L62.6751 164.99L58.7027 167.724C55.8458 169.692 52.9241 171.722 50.946 174.571C48.9679 177.421 48.1043 181.311 49.6938 184.394" fill="#E6E6E6"/>
<path d="M50.266 196.78C49.7647 193.137 49.2515 189.447 49.6028 185.765C49.9143 182.494 50.912 179.301 52.9432 176.682C54.0213 175.294 55.3332 174.106 56.8198 173.169C57.2084 172.924 57.5645 173.539 57.1782 173.782C54.606 175.408 52.6164 177.808 51.4965 180.638C50.2595 183.784 50.0607 187.214 50.2741 190.556C50.4036 192.578 50.6763 194.586 50.9515 196.591C50.9732 196.682 50.9597 196.777 50.9136 196.859C50.8676 196.94 50.7925 197 50.7035 197.028C50.6127 197.053 50.5157 197.041 50.4339 196.994C50.352 196.948 50.2919 196.871 50.2666 196.78H50.266Z" fill="#F2F2F2"/>
<path d="M18.3995 191.338C19.0131 192.063 19.803 192.617 20.6931 192.948C21.5832 193.279 22.5436 193.375 23.4816 193.227C25.8888 192.818 27.7027 190.884 29.3253 189.06L34.1257 183.664L30.548 183.924C27.9754 184.112 25.3373 184.315 22.9965 185.399C20.6558 186.484 18.6388 188.654 18.4989 191.23" fill="#E6E6E6"/>
<path d="M14.2807 198.863C15.1242 196.833 15.9749 194.774 17.2691 192.982C18.3793 191.357 19.9293 190.082 21.7376 189.307C22.7132 188.917 23.7492 188.701 24.7992 188.667C25.0731 188.658 25.0715 189.083 24.7992 189.092C22.9808 189.153 21.2287 189.789 19.7954 190.91C18.2059 192.159 17.0664 193.867 16.1656 195.656C15.6209 196.737 15.1547 197.856 14.6903 198.973C14.6741 199.026 14.6384 199.071 14.5903 199.099C14.5423 199.127 14.4855 199.136 14.4313 199.123C14.377 199.109 14.3308 199.073 14.3026 199.024C14.2744 198.976 14.2665 198.918 14.2807 198.863V198.863Z" fill="#F2F2F2"/>
<path d="M53.8651 190.934C54.3817 191.719 55.092 192.358 55.9273 192.789C56.7627 193.22 57.695 193.429 58.6344 193.395C61.0487 193.28 63.0614 191.595 64.8731 189.995L70.2321 185.264L66.6855 185.094C64.1348 184.972 61.5185 184.858 59.089 185.644C56.6595 186.431 54.4191 188.324 53.9748 190.838" fill="#E6E6E6"/>
<path d="M48.8523 198.874C51.2594 194.614 54.0519 189.88 59.0411 188.367C60.4283 187.948 61.883 187.798 63.3266 187.925C63.7816 187.964 63.6679 188.665 63.2139 188.626C60.794 188.425 58.3788 189.064 56.3749 190.435C54.4466 191.748 52.9451 193.573 51.6742 195.508C50.8971 196.693 50.1986 197.929 49.5012 199.163C49.2784 199.558 48.6269 199.273 48.8523 198.874Z" fill="#F2F2F2"/>
<path d="M255.683 192.236C254.753 192.562 253.755 192.644 252.784 192.473C251.814 192.302 250.904 191.885 250.142 191.26C248.201 189.631 247.592 186.947 247.098 184.462L245.633 177.112L248.699 179.223C250.904 180.741 253.159 182.308 254.685 184.507C256.212 186.706 256.878 189.708 255.652 192.087" fill="#E6E6E6"/>
<path d="M254.836 199.212C255.106 197.247 255.383 195.257 255.194 193.272C255.071 191.502 254.446 189.803 253.393 188.374C252.811 187.626 252.104 186.985 251.302 186.48C251.093 186.348 250.901 186.68 251.108 186.811C252.495 187.687 253.568 188.982 254.172 190.508C254.839 192.204 254.946 194.054 254.831 195.856C254.761 196.946 254.614 198.029 254.466 199.11C254.454 199.159 254.461 199.21 254.486 199.254C254.511 199.297 254.551 199.33 254.599 199.345C254.648 199.358 254.7 199.351 254.744 199.326C254.788 199.301 254.821 199.26 254.835 199.211L254.836 199.212Z" fill="#F2F2F2"/>
<path d="M75.4365 118.576C75.9319 118.461 76.396 118.238 76.7962 117.925C77.1963 117.611 77.5228 117.213 77.7527 116.759C77.9825 116.306 78.11 115.807 78.1264 115.299C78.1427 114.791 78.0474 114.285 77.8471 113.818L90.6705 84.8462L83.3349 82.9985L73.0365 112.057C72.2736 112.446 71.6796 113.101 71.3672 113.898C71.0547 114.695 71.0455 115.579 71.3414 116.383C71.6372 117.186 72.2175 117.853 72.9722 118.257C73.727 118.661 74.6038 118.775 75.4365 118.576V118.576Z" fill="#FFB6B6"/>
<path d="M88.9346 90.0275L81.8001 86.6879C81.5971 86.5929 81.417 86.4552 81.272 86.2843C81.127 86.1134 81.0205 85.9133 80.9598 85.6975C80.8992 85.4817 80.8857 85.2554 80.9204 85.034C80.9551 84.8125 81.0371 84.6012 81.1608 84.4143L85.4967 77.8661C85.9892 76.831 86.8719 76.0333 87.9514 75.6478C89.0309 75.2623 90.2193 75.3204 91.256 75.8094C92.2928 76.2984 93.0934 77.1784 93.4826 78.2567C93.8717 79.3349 93.8176 80.5234 93.3321 81.5618L91.09 89.062C91.0258 89.2768 90.916 89.4751 90.7681 89.6436C90.6203 89.8121 90.4379 89.9467 90.2334 90.0383C90.0288 90.1299 89.8069 90.1764 89.5828 90.1745C89.3587 90.1727 89.1376 90.1225 88.9346 90.0275H88.9346Z" fill="#274B9F"/>
<path d="M104.76 70.7512H85.9795C85.5931 70.7508 85.2228 70.5971 84.9496 70.3239C84.6764 70.0508 84.5228 69.6804 84.5223 69.2941V61.199C84.5223 58.3221 85.6652 55.563 87.6995 53.5287C89.7338 51.4944 92.4928 50.3516 95.3698 50.3516C98.2467 50.3516 101.006 51.4944 103.04 53.5287C105.074 55.563 106.217 58.3221 106.217 61.199V69.2941C106.217 69.6804 106.063 70.0508 105.79 70.3239C105.517 70.5971 105.146 70.7508 104.76 70.7512V70.7512Z" fill="#2F2E41"/>
<path d="M98.0469 70.6281C102.439 70.6281 106 67.0674 106 62.6751C106 58.2828 102.439 54.7222 98.0469 54.7222C93.6546 54.7222 90.0939 58.2828 90.0939 62.6751C90.0939 67.0674 93.6546 70.6281 98.0469 70.6281Z" fill="#FFB6B6"/>
<path d="M108.783 62.0083H97.2995L97.1817 60.3596L96.593 62.0083H94.8247L94.5913 58.7406L93.4243 62.0083H90.0028V61.8464C90.0054 59.5715 90.9102 57.3904 92.5189 55.7817C94.1275 54.1731 96.3085 53.2682 98.5835 53.2656H100.203C102.478 53.2682 104.659 54.1731 106.267 55.7817C107.876 57.3904 108.781 59.5714 108.783 61.8464V62.0083Z" fill="#2F2E41"/>
</g>
<defs>
<clipPath id="clip0_348_187">
<rect width="261.957" height="200" fill="white"/>
</clipPath>
</defs>
</svg>
