<svg width="300" height="200" viewBox="0 0 300 200" fill="none" xmlns="http://www.w3.org/2000/svg">
<g clip-path="url(#clip0_349_253)">
<path d="M220.228 0.125H0.0939941V141.109H220.228V0.125Z" fill="#E6E6E6"/>
<path d="M213.934 17.8081H6.38867V71.5523H213.934V17.8081Z" fill="white"/>
<path d="M101.905 25.5703H58.0135V28.0898H101.905V25.5703Z" fill="#E6E6E6"/>
<path d="M125.791 34.7607H58.0135V37.2803H125.791V34.7607Z" fill="#274B9F"/>
<path d="M113.251 43.4199H58.0135V45.9394H113.251V43.4199Z" fill="#E6E6E6"/>
<path d="M90.26 52.0459H58.0135V54.5654H90.26V52.0459Z" fill="#E6E6E6"/>
<path d="M106.682 60.6724H58.0135V63.1919H106.682V60.6724Z" fill="#E6E6E6"/>
<path d="M43.3831 24.6748H38.0087V30.0492H43.3831V24.6748Z" fill="#E6E6E6"/>
<path d="M43.3831 33.3335H38.0087V38.7079H43.3831V33.3335Z" fill="#274B9F"/>
<path d="M43.3831 41.9927H38.0087V47.3671H43.3831V41.9927Z" fill="#E6E6E6"/>
<path d="M43.3831 50.6514H38.0087V56.0258H43.3831V50.6514Z" fill="#E6E6E6"/>
<path d="M43.3831 59.3101H38.0087V64.6845H43.3831V59.3101Z" fill="#E6E6E6"/>
<path d="M184.909 36.917H166.995V54.8317H184.909V36.917Z" fill="#E6E6E6"/>
<path d="M213.934 79.0161H6.38867V132.76H213.934V79.0161Z" fill="white"/>
<path d="M52.6391 83.7925H47.2647V89.1669H52.6391V83.7925Z" fill="#E6E6E6"/>
<path d="M43.3831 83.7925H38.0087V89.1669H43.3831V83.7925Z" fill="#274B9F"/>
<path d="M129.133 95.5452C127.495 92.772 125.222 90.4271 122.501 88.7035C119.78 86.9798 116.689 85.9266 113.482 85.6303C110.275 85.334 107.043 85.8032 104.052 86.9992C101.062 88.1953 98.3978 90.0841 96.2795 92.5103L94.9697 91.3658C97.2687 88.7318 100.16 86.6811 103.406 85.3825C106.652 84.0838 110.16 83.5743 113.642 83.8959C117.123 84.2174 120.478 85.3608 123.432 87.232C126.385 89.1032 128.852 91.6487 130.629 94.6593L129.133 95.5452Z" fill="#E6E6E6"/>
<path d="M129.952 118.204L128.509 117.233C130.647 114.045 131.84 110.317 131.95 106.479C132.06 102.642 131.084 98.8518 129.133 95.5456L130.629 94.6597C132.748 98.2487 133.809 102.364 133.689 106.529C133.569 110.695 132.274 114.743 129.952 118.204V118.204Z" fill="#274B9F"/>
<path d="M95.1509 120.627C91.5557 116.612 89.5527 111.42 89.5194 106.031C89.486 100.641 91.4245 95.4257 94.9697 91.3662L96.2795 92.5107C93.0136 96.2505 91.2279 101.055 91.2587 106.02C91.2894 110.985 93.1345 115.768 96.4464 119.467L95.1509 120.627Z" fill="#274B9F"/>
<path d="M111.608 127.984C108.502 127.982 105.432 127.325 102.596 126.058C99.7609 124.79 97.224 122.94 95.151 120.627L96.4465 119.467C98.5145 121.777 101.083 123.584 103.956 124.751C106.829 125.917 109.931 126.411 113.024 126.196C116.117 125.98 119.121 125.061 121.804 123.507C124.488 121.954 126.781 119.808 128.509 117.233L129.952 118.204C127.933 121.215 125.203 123.683 122.004 125.389C118.804 127.094 115.234 127.986 111.608 127.984V127.984Z" fill="#274B9F"/>
<path d="M184.909 95.438H166.995V113.353H184.909V95.438Z" fill="#E6E6E6"/>
<path d="M55.177 107.083H37.2623V124.998H55.177V107.083Z" fill="#E6E6E6"/>
<path d="M220.134 0H0V9.35211H220.134V0Z" fill="#274B9F"/>
<path d="M6.94973 6.51502C7.90702 6.51502 8.68307 5.73898 8.68307 4.78168C8.68307 3.82438 7.90702 3.04834 6.94973 3.04834C5.99243 3.04834 5.21638 3.82438 5.21638 4.78168C5.21638 5.73898 5.99243 6.51502 6.94973 6.51502Z" fill="white"/>
<path d="M13.5291 6.51502C14.4864 6.51502 15.2624 5.73898 15.2624 4.78168C15.2624 3.82438 14.4864 3.04834 13.5291 3.04834C12.5718 3.04834 11.7957 3.82438 11.7957 4.78168C11.7957 5.73898 12.5718 6.51502 13.5291 6.51502Z" fill="white"/>
<path d="M20.1084 6.51502C21.0657 6.51502 21.8417 5.73898 21.8417 4.78168C21.8417 3.82438 21.0657 3.04834 20.1084 3.04834C19.1511 3.04834 18.3751 3.82438 18.3751 4.78168C18.3751 5.73898 19.1511 6.51502 20.1084 6.51502Z" fill="white"/>
<path d="M255.675 195.144H260.131L262.252 177.955L255.674 177.955L255.675 195.144Z" fill="#FFB8B8"/>
<path d="M254.538 193.689L263.315 193.689H263.315C264.798 193.689 266.221 194.278 267.27 195.327C268.319 196.376 268.908 197.799 268.908 199.282V199.464L254.538 199.464L254.538 193.689Z" fill="#2F2E41"/>
<path d="M244.576 178.268L247.864 181.276L261.03 170.022L256.176 165.583L244.576 178.268Z" fill="#FFB8B8"/>
<path d="M244.719 176.427L251.196 182.35L251.196 182.35C252.29 183.352 252.942 184.747 253.008 186.228C253.075 187.71 252.549 189.158 251.548 190.252L251.426 190.386L240.822 180.689L244.719 176.427Z" fill="#2F2E41"/>
<path d="M262.679 134.78L261.416 160.041L264.574 187.514L255.101 188.777L249.101 154.042L247.206 130.359L262.679 134.78Z" fill="#2F2E41"/>
<path d="M277.521 125.622C277.521 125.622 281.31 150.568 273.416 158.778C265.521 166.988 254.785 181.513 254.785 181.513L247.207 172.04L266.469 151.515L262.679 137.621L247.207 130.358L249.733 112.991L272.468 112.675L277.521 125.622Z" fill="#2F2E41"/>
<path d="M260.133 67.8363C264.404 67.8363 267.866 64.3738 267.866 60.1027C267.866 55.8316 264.404 52.3691 260.133 52.3691C255.861 52.3691 252.399 55.8316 252.399 60.1027C252.399 64.3738 255.861 67.8363 260.133 67.8363Z" fill="#FFB8B8"/>
<path d="M266.547 71.0938L267.732 72.8884L270.89 81.7301L268.363 116.149L253.522 116.465L251.627 76.9934L255.596 72.0324L266.547 71.0938Z" fill="#CCCCCC"/>
<path d="M245.628 77.9408L243.102 77.625C243.102 77.625 242.47 77.9408 242.154 80.1512C241.838 82.3616 238.049 101.939 238.049 101.939L243.102 125.938L248.785 118.36L245.312 105.097L248.785 91.8347L245.628 77.9408Z" fill="#2F2E41"/>
<path d="M277.836 77.6255H279.731L284.468 103.203L280.047 123.097L275.626 115.834L276.889 107.939L276.258 100.993L274.047 96.8873L277.836 77.6255Z" fill="#2F2E41"/>
<path d="M264.702 60.1027L263.296 59.7511C263.296 59.7511 262.242 53.7752 259.781 54.4782C257.32 55.1813 250.993 55.8844 250.993 53.0721C250.993 50.2599 256.969 47.7992 260.484 48.1508C263.999 48.5023 268.489 49.6685 269.624 54.8298C271.443 63.1035 265.87 65.1934 265.87 65.1934L265.963 64.8921C266.22 64.0557 266.239 63.1639 266.016 62.3175C265.793 61.4712 265.338 60.704 264.702 60.1027V60.1027Z" fill="#2F2E41"/>
<path d="M243.417 77.625L253.522 73.52L255.89 71.7833L262.995 103.203L267.732 88.9928L266.311 70.8359L279.415 77.625L274.995 99.0975L274.363 107.308L276.258 113.939C276.258 113.939 282.889 118.675 280.678 123.728C278.468 128.78 275.942 129.096 275.942 129.096C275.942 129.096 265.206 118.991 264.574 116.465C263.943 113.939 262.995 109.518 262.995 109.518C262.995 109.518 257.627 129.727 251.312 129.412C244.996 129.096 244.996 122.465 244.996 122.465L246.575 115.518L249.101 108.255L247.838 96.2555L243.417 77.625Z" fill="#2F2E41"/>
<path d="M298.785 200H214.933C214.85 200 214.771 199.967 214.712 199.908C214.653 199.849 214.62 199.77 214.62 199.687C214.62 199.604 214.653 199.524 214.712 199.466C214.771 199.407 214.85 199.374 214.933 199.374H298.785C298.868 199.374 298.947 199.407 299.006 199.466C299.065 199.524 299.098 199.604 299.098 199.687C299.098 199.77 299.065 199.849 299.006 199.908C298.947 199.967 298.868 200 298.785 200Z" fill="#CCCCCC"/>
</g>
<defs>
<clipPath id="clip0_349_253">
<rect width="299.098" height="200" fill="white"/>
</clipPath>
</defs>
</svg>
