<svg width="255" height="200" viewBox="0 0 255 200" fill="none" xmlns="http://www.w3.org/2000/svg">
<g clip-path="url(#clip0_348_30)">
<path d="M82.9497 49.4048L52.7408 74.4573C53.9864 75.8251 54.9418 77.4313 55.549 79.1788C56.1563 80.9263 56.4028 82.7788 56.2736 84.6243C56.1445 86.4698 55.6424 88.2699 54.7977 89.9158C53.9531 91.5617 52.7834 93.0192 51.3593 94.2002C49.9353 95.3811 48.2866 96.261 46.5128 96.7866C44.739 97.3122 42.8771 97.4725 41.0395 97.258C39.202 97.0435 37.4271 96.4585 35.8221 95.5384C34.2171 94.6184 32.8154 93.3824 31.7017 91.9051L4.61816 114.366L48.0327 166.716L126.364 101.755L82.9497 49.4048Z" fill="#F2F2F2"/>
<path d="M254.912 125.255C254.912 156.197 236.517 167 213.827 167C191.136 167 172.741 156.197 172.741 125.255C172.741 94.3127 213.827 54.9497 213.827 54.9497C213.827 54.9497 254.912 94.3127 254.912 125.255Z" fill="#F2F2F2"/>
<path d="M212.33 162.268L212.751 136.372L230.262 104.336L212.817 132.31L213.006 120.666L225.075 97.488L213.056 117.585V117.585L213.396 96.6431L226.32 78.1905L213.45 93.3499L213.662 54.9502L212.326 105.785L212.436 103.687L199.296 83.5754L212.225 107.713L211.001 131.102L210.965 130.481L195.817 109.315L210.919 132.674L210.766 135.599L210.738 135.643L210.751 135.883L207.645 195.221H211.795L212.292 164.572L227.357 141.271L212.33 162.268Z" fill="#3F3D56"/>
<path d="M178.086 200C209.804 200 235.516 198.083 235.516 195.718C235.516 193.353 209.804 191.436 178.086 191.436C146.368 191.436 120.655 193.353 120.655 195.718C120.655 198.083 146.368 200 178.086 200Z" fill="#3F3D56"/>
<path d="M183.375 0H174.307V196.977H183.375V0Z" fill="white"/>
<path d="M230.346 188.693C230.346 194.352 226.982 196.329 222.831 196.329C222.735 196.329 222.639 196.328 222.543 196.325C222.351 196.321 222.16 196.312 221.972 196.299C218.226 196.034 215.316 193.956 215.316 188.693C215.316 183.246 222.277 176.372 222.8 175.864L222.801 175.863C222.821 175.843 222.831 175.833 222.831 175.833C222.831 175.833 230.346 183.033 230.346 188.693Z" fill="#274B9F"/>
<path d="M222.557 195.463L225.306 191.622L222.55 195.885L222.543 196.325C222.351 196.321 222.16 196.312 221.972 196.299L222.268 190.637L222.266 190.593L222.271 190.585L222.299 190.05L219.537 185.777L222.308 189.649L222.314 189.762L222.538 185.484L220.173 181.069L222.567 184.733L222.8 175.864L222.801 175.833V175.863L222.762 182.857L225.116 180.084L222.752 183.46L222.69 187.29L224.888 183.614L222.681 187.854L222.646 189.983L225.837 184.867L222.634 190.726L222.557 195.463Z" fill="#3F3D56"/>
<path d="M163.533 184.456L161.926 183.262C161.926 183.262 160.862 189.205 162.049 190.096C163.236 190.987 167.689 192.471 167.689 194.252C167.689 196.033 177.782 198.408 178.078 195.736C178.375 193.064 177.188 191.58 177.188 191.58C177.188 191.58 172.438 186.831 171.845 185.94C171.251 185.05 169.767 183.269 169.767 183.269L163.533 184.456Z" fill="#2F2E41"/>
<path d="M187.281 110.543C187.281 110.543 187.236 110.804 187.159 111.282C187.088 111.706 186.99 112.306 186.871 113.045C185.624 120.653 181.988 143.05 182.234 143.789C182.531 144.679 184.609 147.945 182.234 148.835C182.006 148.921 181.759 149.2 181.495 149.64C180.985 150.586 180.565 151.578 180.239 152.602C178.823 156.71 177.31 163.285 176.434 167.839C176.051 169.84 175.79 171.449 175.713 172.292C175.686 172.486 175.683 172.684 175.704 172.879C176.001 174.067 173.923 178.222 173.032 179.41C172.142 180.597 170.657 181.785 170.954 182.972C171.251 184.159 163.533 187.425 162.643 185.347C161.752 183.269 161.752 182.081 161.455 181.488C161.158 180.894 160.862 176.738 162.346 176.145C163.83 175.551 162.939 165.161 164.424 163.084C164.919 162.392 165.676 160.05 166.469 157.233C166.781 156.129 167.095 154.953 167.404 153.775C168.657 148.945 169.767 144.086 169.767 144.086L169.47 109.355L185.796 107.277L186.215 108.201L187.049 110.032L187.281 110.543Z" fill="#2F2E41"/>
<path d="M188.171 167.536C188.171 167.536 190.546 165.161 191.733 167.536C192.921 169.911 194.108 179.113 196.186 181.191C198.264 183.268 200.935 193.658 197.967 194.252C194.998 194.845 191.733 193.361 191.436 191.58C191.139 189.799 184.906 180.597 184.906 179.706C184.906 178.816 189.062 175.551 189.062 175.551L188.171 167.536Z" fill="#2F2E41"/>
<path d="M151.66 94.2162C151.66 94.2162 155.518 128.947 156.409 132.212C157.3 135.477 162.049 147.945 163.533 150.022C165.017 152.1 174.516 169.02 175.704 169.911C176.891 170.801 179.266 173.176 179.266 173.176C179.266 173.176 183.718 177.629 184.312 178.519C184.906 179.41 189.952 176.738 190.249 174.957C190.546 173.176 189.952 170.208 189.655 169.02C189.358 167.833 190.249 166.052 189.358 165.161C188.468 164.271 184.015 159.818 184.015 157.74C184.015 155.662 176.297 143.492 173.329 140.82C170.361 138.149 170.954 133.696 170.954 133.696V115.589L187.28 110.542C187.28 110.542 186.39 96.2941 184.312 96.2941C182.234 96.2941 154.925 91.5446 151.66 94.2162Z" fill="#2F2E41"/>
<path d="M175.704 44.6438C181.114 44.6438 185.499 40.2581 185.499 34.848C185.499 29.438 181.114 25.0522 175.704 25.0522C170.294 25.0522 165.908 29.438 165.908 34.848C165.908 40.2581 170.294 44.6438 175.704 44.6438Z" fill="#9F616A"/>
<path d="M172.438 42.5655C172.438 42.5655 171.251 47.0181 169.767 48.2055C168.283 49.3929 173.626 54.4392 173.626 54.4392L183.718 55.0328L185.499 49.3929C185.499 49.3929 182.234 42.8623 183.125 38.7066C184.015 34.5508 172.438 42.5655 172.438 42.5655Z" fill="#9F616A"/>
<path d="M168.283 47.6118C168.283 47.6118 170.954 47.9087 171.548 48.7992C172.142 49.6897 176.297 52.3613 179.563 51.7676C182.828 51.1739 184.906 50.2834 185.499 50.5802C186.093 50.8771 187.281 57.1107 187.281 57.1107L184.015 66.6097L184.609 92.7317L185.499 99.8559C185.499 99.8559 187.28 97.4812 180.156 98.9654C173.032 100.45 163.83 97.778 160.862 97.4812C157.893 97.1844 152.847 96.2938 152.55 94.5128C152.253 92.7317 153.441 86.2012 153.441 86.2012L158.19 66.3128L161.158 55.6265L168.283 47.6118Z" fill="#3F3D56"/>
<path d="M171.09 46.2719C171.09 46.2719 168.579 44.9401 167.689 46.1275C166.798 47.3148 155.518 49.0959 155.518 49.9864C155.518 50.8769 153.144 74.9211 153.737 76.999C154.331 79.0769 152.55 81.4516 152.55 81.4516L150.472 90.3569C150.472 90.3569 144.832 107.277 147.207 107.871C149.582 108.464 151.66 107.871 152.55 107.871C153.441 107.871 153.144 96.5905 155.518 93.6221C157.893 90.6537 161.158 83.2327 161.752 81.7485C162.346 80.2643 169.767 59.7822 169.47 57.4075C169.173 55.0327 171.09 46.2719 171.09 46.2719Z" fill="#D0CDE1"/>
<path d="M183.422 47.6118C183.422 47.6118 185.796 47.6118 186.093 48.2055C186.39 48.7992 189.358 52.6581 190.546 53.5486C191.733 54.4392 195.889 58.2981 195.889 59.1886C195.889 60.0792 187.281 66.6097 187.281 66.6097C187.281 66.6097 183.718 84.1233 185.499 90.0602C187.281 95.997 189.952 110.245 188.765 111.136C187.577 112.026 184.906 112.323 184.906 111.136C184.906 109.949 183.125 97.1844 181.641 94.5128C180.156 91.8412 175.704 74.9212 177.485 70.1718C179.266 65.4223 183.422 47.6118 183.422 47.6118Z" fill="#D0CDE1"/>
<path d="M144.238 76.9995C144.238 76.9995 143.942 86.2016 147.207 90.9511C150.472 95.7005 152.55 101.044 152.55 101.044C152.55 101.044 157.893 99.5595 158.784 97.7784C159.674 95.9974 165.314 97.4816 165.314 96.8879C165.314 96.2942 158.487 93.3258 157.893 92.7321C157.3 92.1384 155.222 92.1384 154.034 90.9511C152.847 89.7637 152.55 87.0921 152.55 87.0921L151.363 79.3742L144.238 76.9995Z" fill="#9F616A"/>
<path d="M168.957 28.808C168.203 28.7396 167.426 28.6643 166.76 28.3051C165.268 27.5003 164.872 25.2084 166.008 23.9497C166.321 23.6295 166.672 23.3478 167.052 23.1106L169.308 21.5748C170.306 20.8955 171.327 20.2051 172.491 19.8849C173.544 19.5953 174.656 19.6251 175.746 19.6928C177.861 19.8243 179.99 20.0959 181.98 20.8263C183.97 21.5567 185.826 22.7787 187.031 24.5224C188.941 27.2866 188.967 31.0148 187.915 34.206C186.863 37.3972 184.864 40.1761 182.895 42.8987L181.873 37.9126C181.782 37.4685 181.664 36.9817 181.295 36.7189C180.377 36.0656 179.254 37.4069 178.127 37.3982C177.403 37.3926 176.795 36.7972 176.521 36.1272C176.247 35.4572 176.229 34.7153 176.165 33.9941C176.031 32.4666 175.497 30.3412 174.05 29.4988C172.702 28.7138 170.472 28.9457 168.957 28.808Z" fill="#2F2E41"/>
<path opacity="0.1" d="M169.506 110.782C169.506 110.782 170.509 139.781 171.103 140.672C171.696 141.562 171.103 110.691 171.103 110.691L169.506 110.782Z" fill="black"/>
<path d="M157.893 49.9868H155.518C155.518 49.9868 145.426 63.6415 146.613 64.532C147.801 65.4226 146.613 67.7973 146.613 67.7973L144.238 72.2499C144.238 72.2499 141.27 74.9215 142.161 75.5152C143.051 76.1089 144.238 78.4836 144.238 78.4836C144.238 78.4836 150.175 77.5931 151.956 81.1552L155.806 76.2948L157.893 49.9868Z" fill="#D0CDE1"/>
<path d="M184.906 75.5151C184.906 75.5151 178.375 75.8119 170.954 71.0625L163.533 67.7972C163.533 67.7972 157.003 57.7046 156.409 59.4857C155.815 61.2667 157.3 64.8288 157.3 64.8288C157.3 64.8288 148.344 68.9736 148.111 69.5214C147.878 70.0692 153.144 68.6877 153.144 68.6877C153.144 68.6877 152.253 74.3277 157.3 74.6246C162.346 74.9214 163.83 73.7341 163.83 73.7341C163.83 73.7341 185.203 91.5446 188.765 85.9046C192.327 80.2646 184.906 75.5151 184.906 75.5151Z" fill="#9F616A"/>
<path d="M192.624 58.0015L195.889 59.1888V68.0941L197.076 69.8751C197.076 69.8751 196.779 73.4372 195.889 74.3278C194.998 75.2183 193.217 74.9214 193.811 76.9993C194.168 78.354 194.269 79.7635 194.108 81.1551C194.108 81.1551 188.765 87.9825 188.468 87.0919C188.171 86.2014 184.015 75.2183 183.422 75.2183C182.828 75.2183 189.358 58.0015 189.358 58.0015H192.624Z" fill="#D0CDE1"/>
<path d="M153.589 102.973C153.589 102.973 150.52 100.005 152.054 99.8561C153.589 99.7077 158.932 96.7393 159.823 98.2235C160.713 99.7077 153.589 102.973 153.589 102.973Z" fill="#2F2E41"/>
<path d="M106.73 190.176C112.066 181.273 114.877 171.085 114.861 160.705C114.861 128.987 89.1488 103.274 57.4307 103.274C25.7126 103.274 -1.20135e-05 128.987 -1.20135e-05 160.705C-0.0155763 171.085 2.79559 181.273 8.13181 190.176H106.73Z" fill="#3F3D56"/>
<path d="M57.4307 162.468C60.4912 162.468 62.9723 159.987 62.9723 156.927C62.9723 153.866 60.4912 151.385 57.4307 151.385C54.3702 151.385 51.8892 153.866 51.8892 156.927C51.8892 159.987 54.3702 162.468 57.4307 162.468Z" fill="#274B9F"/>
<path d="M13.3501 168.766C14.8804 168.766 16.1209 167.525 16.1209 165.995C16.1209 164.465 14.8804 163.224 13.3501 163.224C11.8199 163.224 10.5793 164.465 10.5793 165.995C10.5793 167.525 11.8199 168.766 13.3501 168.766Z" fill="#274B9F"/>
<path d="M14.9759 144.767C16.5062 144.767 17.7467 143.527 17.7467 141.996C17.7467 140.466 16.5062 139.226 14.9759 139.226C13.4456 139.226 12.2051 140.466 12.2051 141.996C12.2051 143.527 13.4456 144.767 14.9759 144.767Z" fill="#274B9F"/>
<path d="M28.7296 125.034C30.2598 125.034 31.5003 123.793 31.5003 122.263C31.5003 120.733 30.2598 119.492 28.7296 119.492C27.1993 119.492 25.9588 120.733 25.9588 122.263C25.9588 123.793 27.1993 125.034 28.7296 125.034Z" fill="#274B9F"/>
<path d="M50.6821 115.203C52.2124 115.203 53.4529 113.962 53.4529 112.432C53.4529 110.902 52.2124 109.661 50.6821 109.661C49.1519 109.661 47.9114 110.902 47.9114 112.432C47.9114 113.962 49.1519 115.203 50.6821 115.203Z" fill="#274B9F"/>
<path d="M74.5626 118.083C76.0928 118.083 77.3333 116.842 77.3333 115.312C77.3333 113.782 76.0928 112.541 74.5626 112.541C73.0323 112.541 71.7918 113.782 71.7918 115.312C71.7918 116.842 73.0323 118.083 74.5626 118.083Z" fill="#274B9F"/>
<path d="M93.549 132.85C95.0793 132.85 96.3198 131.61 96.3198 130.079C96.3198 128.549 95.0793 127.309 93.549 127.309C92.0188 127.309 90.7782 128.549 90.7782 130.079C90.7782 131.61 92.0188 132.85 93.549 132.85Z" fill="#274B9F"/>
<path d="M102.218 155.287C103.748 155.287 104.989 154.047 104.989 152.516C104.989 150.986 103.748 149.746 102.218 149.746C100.687 149.746 99.4469 150.986 99.4469 152.516C99.4469 154.047 100.687 155.287 102.218 155.287Z" fill="#274B9F"/>
<path d="M98.0923 178.984C99.6226 178.984 100.863 177.743 100.863 176.213C100.863 174.683 99.6226 173.442 98.0923 173.442C96.5621 173.442 95.3216 174.683 95.3216 176.213C95.3216 177.743 96.5621 178.984 98.0923 178.984Z" fill="#274B9F"/>
<path d="M57.4307 156.927L85.8942 135.265" stroke="#274B9F" stroke-width="4" stroke-miterlimit="10"/>
<path d="M83.7637 53.6791C85.8165 53.6791 87.4805 52.0151 87.4805 49.9624C87.4805 47.9097 85.8165 46.2456 83.7637 46.2456C81.711 46.2456 80.047 47.9097 80.047 49.9624C80.047 52.0151 81.711 53.6791 83.7637 53.6791Z" stroke="#3F3D56" stroke-width="2" stroke-miterlimit="10"/>
<path d="M104.922 97.0043C106.975 97.0043 108.639 95.3403 108.639 93.2876C108.639 91.2349 106.975 89.5708 104.922 89.5708C102.87 89.5708 101.206 91.2349 101.206 93.2876C101.206 95.3403 102.87 97.0043 104.922 97.0043Z" fill="#3F3D56"/>
<path d="M42.3735 94.1918C48.3245 94.1918 53.1486 89.3676 53.1486 83.4167C53.1486 77.4658 48.3245 72.6416 42.3735 72.6416C36.4226 72.6416 31.5984 77.4658 31.5984 83.4167C31.5984 89.3676 36.4226 94.1918 42.3735 94.1918Z" fill="#F2F2F2"/>
</g>
<defs>
<clipPath id="clip0_348_30">
<rect width="254.912" height="200" fill="white"/>
</clipPath>
</defs>
</svg>
