<svg width="214" height="200" viewBox="0 0 214 200" fill="none" xmlns="http://www.w3.org/2000/svg">
<g clip-path="url(#clip0_350_335)">
<path d="M197.672 153.006L207.265 154.505C210.512 150.574 212.751 145.909 213.786 140.916C206.771 146.658 196.104 143.607 187.599 146.741C184.953 147.739 182.567 149.32 180.615 151.366C178.664 153.412 177.198 155.87 176.326 158.56L171.637 163.604C175.881 165.284 180.439 166.024 184.996 165.773C189.553 165.522 194.002 164.286 198.036 162.15C200.287 160.93 202.375 159.431 204.251 157.688C200.895 155.575 197.672 153.006 197.672 153.006Z" fill="#F2F2F2"/>
<path d="M194.267 137.664L203.521 134.727C204.674 129.76 204.597 124.587 203.297 119.656C199.58 127.924 188.671 129.95 182.457 136.549C180.534 138.622 179.103 141.101 178.268 143.803C177.434 146.504 177.219 149.359 177.638 152.155L175.691 158.76C180.239 158.371 184.648 157.001 188.615 154.744C192.582 152.487 196.012 149.397 198.67 145.686C200.141 143.59 201.341 141.317 202.244 138.92C198.297 138.526 194.267 137.664 194.267 137.664Z" fill="#F2F2F2"/>
<path d="M213.838 166.659C213.838 166.708 213.828 166.757 213.809 166.803C213.79 166.849 213.763 166.891 213.728 166.926C213.693 166.961 213.651 166.988 213.605 167.007C213.559 167.026 213.51 167.036 213.461 167.035H0.376615C0.27673 167.035 0.180936 166.996 0.110307 166.925C0.0396783 166.855 0 166.759 0 166.659C0 166.559 0.0396783 166.463 0.110307 166.393C0.180936 166.322 0.27673 166.282 0.376615 166.282H213.461C213.51 166.282 213.559 166.292 213.605 166.311C213.651 166.329 213.693 166.357 213.728 166.392C213.763 166.427 213.79 166.469 213.809 166.515C213.828 166.56 213.838 166.609 213.838 166.659V166.659Z" fill="#CCCCCC"/>
<path d="M88.2979 150.603C125.877 150.603 156.342 120.139 156.342 82.5593C156.342 44.9798 125.877 14.5156 88.2979 14.5156C50.7184 14.5156 20.2542 44.9798 20.2542 82.5593C20.2542 120.139 50.7184 150.603 88.2979 150.603Z" fill="#E6E6E6"/>
<path d="M146.847 82.5595C146.854 91.6953 144.72 100.706 140.616 108.868C136.512 117.03 130.553 124.117 123.215 129.56C122.725 129.927 122.225 130.285 121.722 130.633C111.91 137.453 100.247 141.109 88.2979 141.109C76.3488 141.109 64.6857 137.453 54.8742 130.633C54.371 130.285 53.8709 129.927 53.3804 129.56C46.0483 124.112 40.0925 117.024 35.9891 108.863C31.8858 100.702 29.7487 91.6941 29.7487 82.5595C29.7487 73.4248 31.8858 64.4169 35.9891 56.2558C40.0925 48.0947 46.0483 41.0068 53.3804 35.5587C53.8709 35.1916 54.371 34.8339 54.8742 34.4858C64.6857 27.6657 76.3488 24.0103 88.2979 24.0103C100.247 24.0103 111.91 27.6657 121.722 34.4858C122.225 34.8339 122.725 35.1916 123.215 35.5587C130.553 41.002 136.512 48.0889 140.616 56.2511C144.72 64.4133 146.854 73.4236 146.847 82.5595V82.5595Z" fill="white"/>
<path d="M88.2979 136.045C117.837 136.045 141.783 112.099 141.783 82.5597C141.783 53.0205 117.837 29.0742 88.2979 29.0742C58.7587 29.0742 34.8124 53.0205 34.8124 82.5597C34.8124 112.099 58.7587 136.045 88.2979 136.045Z" fill="#274B9F"/>
<path opacity="0.2" d="M88.4374 29.2236C87.6266 29.2236 86.8208 29.2448 86.0188 29.2805C99.537 30.4684 112.098 36.7505 121.157 46.8539C130.217 56.9574 135.097 70.1268 134.809 83.694C134.521 97.2612 129.086 110.212 119.607 119.922C110.127 129.632 97.3103 135.375 83.7539 135.988C85.2976 136.122 86.859 136.195 88.4374 136.195C102.623 136.195 116.227 130.56 126.257 120.529C136.288 110.499 141.923 96.8944 141.923 82.7091C141.923 68.5239 136.288 54.9196 126.257 44.8892C116.227 34.8587 102.623 29.2236 88.4374 29.2236V29.2236Z" fill="black"/>
<path d="M88.456 25.2764C87.9946 25.2772 87.5523 25.4608 87.226 25.7871C86.8998 26.1133 86.7161 26.5556 86.7153 27.017V34.6126C86.7153 35.0743 86.8987 35.517 87.2252 35.8434C87.5516 36.1699 87.9943 36.3533 88.456 36.3533C88.9176 36.3533 89.3604 36.1699 89.6868 35.8434C90.0132 35.517 90.1966 35.0743 90.1966 34.6126V27.017C90.1958 26.5556 90.0122 26.1133 89.6859 25.7871C89.3596 25.4608 88.9174 25.2772 88.456 25.2764V25.2764Z" fill="white"/>
<path d="M123.215 35.559C122.725 35.1919 122.225 34.8342 121.722 34.4861C121.42 34.4664 121.118 34.5258 120.846 34.6585C120.574 34.7911 120.341 34.9924 120.171 35.2425L115.895 41.5183C115.635 41.8998 115.538 42.3689 115.624 42.8223C115.71 43.2758 115.973 43.6765 116.354 43.9363C116.736 44.196 117.205 44.2936 117.658 44.2076C118.111 44.1215 118.512 43.8589 118.772 43.4774L123.048 37.2015C123.21 36.9634 123.311 36.6884 123.34 36.4016C123.369 36.1147 123.327 35.825 123.215 35.559V35.559Z" fill="white"/>
<path d="M142.641 64.1749C142.555 63.9633 142.428 63.7707 142.268 63.6081C142.107 63.4456 141.917 63.3162 141.706 63.2275C141.496 63.1387 141.27 63.0923 141.041 63.0909C140.813 63.0894 140.587 63.133 140.375 63.2191L133.336 66.0769C132.909 66.251 132.569 66.5875 132.389 67.0126C132.21 67.4377 132.207 67.9165 132.381 68.3439C132.554 68.7713 132.89 69.1123 133.315 69.2919C133.74 69.4716 134.219 69.4751 134.647 69.3019L141.685 66.4441C142.112 66.2691 142.453 65.9322 142.632 65.5069C142.811 65.0816 142.814 64.6026 142.641 64.1749Z" fill="white"/>
<path d="M60.7006 41.5184L56.4249 35.2425C56.2545 34.9924 56.0219 34.7911 55.7499 34.6585C55.4779 34.5258 55.1761 34.4664 54.8741 34.4861C54.3709 34.8342 53.8709 35.1919 53.3803 35.559C53.2691 35.825 53.2262 36.1147 53.2555 36.4016C53.2848 36.6884 53.3854 36.9634 53.5481 37.2015L57.8237 43.4774C58.0835 43.8589 58.4842 44.1215 58.9377 44.2076C59.3911 44.2937 59.8602 44.1961 60.2417 43.9363C60.6232 43.6765 60.8858 43.2758 60.9719 42.8224C61.058 42.3689 60.9604 41.8998 60.7006 41.5184V41.5184Z" fill="white"/>
<path d="M43.2592 66.077L36.2206 63.2192C35.793 63.0455 35.3139 63.0489 34.8887 63.2284C34.4635 63.408 34.127 63.7491 33.9533 64.1767C33.7796 64.6043 33.7828 65.0834 33.9623 65.5086C34.1418 65.9338 34.4828 66.2703 34.9104 66.4441L41.9489 69.302C42.3765 69.4752 42.8554 69.4716 43.2803 69.292C43.7052 69.1124 44.0414 68.7714 44.2151 68.344C44.3887 67.9166 44.3856 67.4377 44.2063 67.0127C44.0271 66.5876 43.6864 66.251 43.2592 66.077V66.077Z" fill="white"/>
<path d="M88.456 128.766C87.9946 128.767 87.5523 128.951 87.226 129.277C86.8998 129.603 86.7161 130.045 86.7153 130.507V138.102C86.7153 138.564 86.8987 139.007 87.2252 139.333C87.5516 139.66 87.9943 139.843 88.456 139.843C88.9176 139.843 89.3604 139.66 89.6868 139.333C90.0132 139.007 90.1966 138.564 90.1966 138.102V130.507C90.1958 130.045 90.0122 129.603 89.6859 129.277C89.3596 128.951 88.9174 128.767 88.456 128.766V128.766Z" fill="white"/>
<path d="M123.048 127.917L118.772 121.642C118.643 121.453 118.479 121.291 118.288 121.166C118.096 121.04 117.883 120.954 117.658 120.911C117.433 120.869 117.203 120.871 116.979 120.917C116.755 120.964 116.543 121.054 116.354 121.183C116.165 121.311 116.003 121.476 115.878 121.667C115.753 121.858 115.666 122.072 115.624 122.297C115.581 122.521 115.583 122.752 115.63 122.976C115.676 123.199 115.766 123.412 115.895 123.601L120.171 129.876C120.341 130.127 120.574 130.328 120.846 130.46C121.118 130.593 121.42 130.653 121.722 130.633C122.225 130.285 122.725 129.927 123.215 129.56C123.327 129.294 123.369 129.004 123.34 128.717C123.311 128.431 123.21 128.156 123.048 127.917Z" fill="white"/>
<path d="M141.685 98.6747L134.647 95.8168C134.219 95.6432 133.74 95.6465 133.315 95.8261C132.89 96.0056 132.553 96.3467 132.379 96.7743C132.206 97.2019 132.209 97.681 132.388 98.1062C132.568 98.5315 132.909 98.868 133.336 99.0418L140.375 101.9C140.803 102.073 141.281 102.069 141.706 101.89C142.131 101.71 142.467 101.369 142.641 100.942C142.815 100.514 142.812 100.035 142.632 99.6103C142.453 99.1852 142.112 98.8487 141.685 98.6747V98.6747Z" fill="white"/>
<path d="M60.2417 121.183C59.8601 120.923 59.3911 120.826 58.9377 120.912C58.4843 120.998 58.0836 121.261 57.8238 121.642L53.5481 127.918C53.3854 128.156 53.2848 128.431 53.2555 128.718C53.2262 129.005 53.2691 129.294 53.3803 129.56C53.8709 129.927 54.3709 130.285 54.8741 130.633C55.1761 130.653 55.4779 130.593 55.7499 130.461C56.0219 130.328 56.2545 130.127 56.4249 129.877L60.7006 123.601C60.8292 123.412 60.9194 123.2 60.966 122.976C61.0125 122.752 61.0146 122.521 60.9719 122.297C60.9293 122.072 60.8429 121.858 60.7176 121.667C60.5923 121.476 60.4306 121.312 60.2417 121.183V121.183Z" fill="white"/>
<path d="M44.215 96.7726C44.129 96.561 44.0022 96.3684 43.8418 96.2058C43.6814 96.0432 43.4905 95.9139 43.28 95.8251C43.0696 95.7364 42.8437 95.6899 42.6153 95.6885C42.387 95.6871 42.1605 95.7307 41.949 95.8168L34.9104 98.6746C34.4832 98.8486 34.1425 99.1852 33.9633 99.6103C33.784 100.035 33.7809 100.514 33.9545 100.942C34.1282 101.369 34.4644 101.71 34.8893 101.89C35.3142 102.069 35.7931 102.073 36.2207 101.9L43.2592 99.0417C43.6863 98.8668 44.0266 98.5298 44.2057 98.1045C44.3849 97.6792 44.3882 97.2003 44.215 96.7726V96.7726Z" fill="white"/>
<path d="M90.7146 81.6956C90.8754 82.6471 90.6521 83.6234 90.0939 84.4105C89.5356 85.1975 88.688 85.731 87.7369 85.8939L56.8489 91.1479C56.3777 91.2281 55.8953 91.2146 55.4293 91.1084C54.9633 91.0021 54.5229 90.8051 54.133 90.5286C53.7431 90.2521 53.4116 89.9015 53.1572 89.4969C52.9029 89.0922 52.7307 88.6414 52.6505 88.1702C52.5704 87.6991 52.5838 87.2167 52.6901 86.7507C52.7964 86.2847 52.9934 85.8442 53.2699 85.4544C53.5464 85.0645 53.897 84.733 54.3016 84.4786C54.7063 84.2242 55.1571 84.0521 55.6282 83.9719L86.5163 78.7179C87.4678 78.5572 88.4441 78.7804 89.2312 79.3387C90.0182 79.8969 90.5517 80.7445 90.7146 81.6956V81.6956Z" fill="#3F3D56"/>
<path d="M123.223 115.917C122.78 116.363 122.177 116.615 121.548 116.618C120.918 116.62 120.314 116.373 119.867 115.93L86.6161 82.9404C86.1699 82.4969 85.918 81.8943 85.9158 81.2652C85.9136 80.636 86.1613 80.0318 86.6044 79.5851C87.0475 79.1385 87.6498 78.8861 88.279 78.8833C88.9081 78.8806 89.5126 79.1277 89.9596 79.5704L123.21 112.56C123.656 113.004 123.908 113.607 123.911 114.236C123.913 114.865 123.666 115.47 123.223 115.917V115.917Z" fill="#3F3D56"/>
<path d="M88.2979 86.6739C90.5701 86.6739 92.4121 84.8318 92.4121 82.5596C92.4121 80.2873 90.5701 78.4453 88.2979 78.4453C86.0256 78.4453 84.1836 80.2873 84.1836 82.5596C84.1836 84.8318 86.0256 86.6739 88.2979 86.6739Z" fill="#CCCCCC"/>
<path d="M59.9588 11.2176C53.6435 21.1464 44.0077 27.7356 32.1243 32.0644C31.8895 32.2403 31.6223 32.3682 31.3381 32.4408C31.0538 32.5134 30.7581 32.5293 30.4677 32.4876C30.1773 32.446 29.8979 32.3475 29.6456 32.1978C29.3932 32.0482 29.1728 31.8503 28.9969 31.6155V31.6155C22.542 22.9969 23.9995 10.6792 32.5187 4.0936C34.5783 2.50419 36.9332 1.33974 39.4465 0.667857C41.9599 -0.00402739 44.5816 -0.169968 47.1596 0.179675C49.7376 0.529318 52.2205 1.38758 54.4641 2.70462C56.7077 4.02167 58.6673 5.77127 60.2292 7.85186L60.4077 8.09024C60.5836 8.32505 60.7115 8.59221 60.7841 8.87646C60.8567 9.1607 60.8727 9.45647 60.831 9.74687C60.7893 10.0373 60.6908 10.3166 60.5412 10.569C60.3915 10.8213 60.1936 11.0417 59.9588 11.2176V11.2176Z" fill="#E6E6E6"/>
<path d="M116.367 7.85185C117.928 5.77127 119.888 4.02167 122.132 2.70462C124.375 1.38757 126.858 0.529319 129.436 0.179676C132.014 -0.169966 134.636 -0.00403086 137.149 0.667854C139.663 1.33974 142.017 2.50419 144.077 4.09359C152.596 10.6792 154.054 22.9969 147.599 31.6155C147.423 31.8503 147.202 32.0482 146.95 32.1978C146.698 32.3475 146.418 32.4459 146.128 32.4876C145.838 32.5293 145.542 32.5134 145.258 32.4408C144.973 32.3681 144.706 32.2403 144.471 32.0644C133.44 27.8408 124.393 20.5319 116.637 11.2176C116.163 10.8624 115.849 10.3333 115.765 9.74686C115.681 9.16037 115.833 8.56446 116.188 8.09022L116.367 7.85185Z" fill="#E6E6E6"/>
<path d="M113.598 141.51C113.196 141.736 112.9 142.112 112.774 142.556C112.649 143 112.705 143.476 112.929 143.879L122.975 161.831C123.201 162.234 123.577 162.53 124.021 162.656C124.465 162.781 124.941 162.725 125.344 162.499C125.747 162.274 126.044 161.898 126.169 161.454C126.295 161.009 126.238 160.534 126.013 160.131L115.967 142.179C115.741 141.777 115.365 141.481 114.921 141.355C114.477 141.23 114.001 141.286 113.598 141.51V141.51Z" fill="#E6E6E6"/>
<path d="M60.6282 142.179L50.5824 160.131C50.3571 160.534 50.301 161.009 50.4265 161.454C50.552 161.898 50.8488 162.274 51.2516 162.499C51.6544 162.725 52.1302 162.781 52.5745 162.656C53.0187 162.53 53.3949 162.234 53.6204 161.831L63.6662 143.879C63.7778 143.68 63.8491 143.46 63.876 143.233C63.9028 143.006 63.8847 142.776 63.8226 142.556C63.7605 142.336 63.6556 142.13 63.514 141.951C63.3725 141.771 63.1969 141.621 62.9974 141.51C62.7979 141.398 62.5783 141.327 62.3513 141.3C62.1242 141.273 61.8941 141.292 61.6741 141.354C61.4541 141.416 61.2485 141.521 61.0691 141.662C60.8896 141.804 60.7398 141.98 60.6282 142.179H60.6282Z" fill="#E6E6E6"/>
<path d="M125.01 166.427C127.981 166.427 130.39 164.019 130.39 161.047C130.39 158.076 127.981 155.667 125.01 155.667C122.038 155.667 119.63 158.076 119.63 161.047C119.63 164.019 122.038 166.427 125.01 166.427Z" fill="#E6E6E6"/>
<path d="M128.808 28.7575C131.779 28.7575 134.188 26.3487 134.188 23.3773C134.188 20.4059 131.779 17.9971 128.808 17.9971C125.836 17.9971 123.427 20.4059 123.427 23.3773C123.427 26.3487 125.836 28.7575 128.808 28.7575Z" fill="#E6E6E6"/>
<path d="M87.9813 16.0983C90.9527 16.0983 93.3615 13.6895 93.3615 10.7181C93.3615 7.74669 90.9527 5.33789 87.9813 5.33789C85.0099 5.33789 82.6011 7.74669 82.6011 10.7181C82.6011 13.6895 85.0099 16.0983 87.9813 16.0983Z" fill="#E6E6E6"/>
<path d="M49.054 28.1247C52.0254 28.1247 54.4342 25.7159 54.4342 22.7445C54.4342 19.7731 52.0254 17.3643 49.054 17.3643C46.0826 17.3643 43.6738 19.7731 43.6738 22.7445C43.6738 25.7159 46.0826 28.1247 49.054 28.1247Z" fill="#E6E6E6"/>
<path d="M52.5353 166.427C55.5068 166.427 57.9155 164.019 57.9155 161.047C57.9155 158.076 55.5068 155.667 52.5353 155.667C49.5639 155.667 47.1552 158.076 47.1552 161.047C47.1552 164.019 49.5639 166.427 52.5353 166.427Z" fill="#E6E6E6"/>
<path d="M120.79 112.891C121.002 113.223 121.284 113.505 121.617 113.716C121.949 113.927 122.324 114.063 122.715 114.113C123.106 114.164 123.503 114.128 123.878 114.009C124.254 113.889 124.598 113.689 124.888 113.422L133.33 117.945L132.878 112.989L124.93 109.453C124.449 108.996 123.817 108.732 123.154 108.71C122.491 108.687 121.843 108.909 121.333 109.333C120.822 109.757 120.485 110.353 120.385 111.009C120.285 111.665 120.429 112.334 120.79 112.891H120.79Z" fill="#FFB7B7"/>
<path d="M126.941 114.621L130.249 110.055L146.187 117.589L166.02 113.868C167 113.684 168.009 113.718 168.975 113.968C169.941 114.218 170.839 114.677 171.608 115.313C172.376 115.949 172.994 116.747 173.42 117.649C173.845 118.551 174.066 119.536 174.068 120.534V120.534C174.07 122.335 173.356 124.064 172.085 125.34C170.813 126.616 169.087 127.336 167.286 127.341L144.557 127.384L126.941 114.621Z" fill="#3F3D56"/>
<path d="M121.845 193.497L118.498 191.896L123.096 177.905L128.036 180.268L121.845 193.497Z" fill="#FFB7B7"/>
<path d="M144.286 191.242C144.042 191.394 143.799 191.544 143.553 191.694C143.064 191.994 142.57 192.289 142.075 192.579C141.827 192.724 141.576 192.869 141.328 193.012V193.019L141.313 193.022L141.308 193.024L140.93 193.118L140.386 191.682L140.136 191.02L139.781 190.084L139.132 188.37L135.715 179.347L141.028 178.036L141.227 178.85H141.23L141.328 179.253L143.184 186.782L143.563 188.321L143.575 188.367L143.804 189.287L144.001 190.084L144.219 190.974L144.286 191.242Z" fill="#FFB7B7"/>
<path d="M175.981 159.554C175.644 160.095 175.3 160.633 174.953 161.167C174.309 162.16 173.648 163.138 172.969 164.102C172.969 164.105 172.967 164.105 172.964 164.107C172.568 164.474 172.131 164.793 171.661 165.059C171.641 165.073 171.619 165.083 171.6 165.096C171.254 165.287 170.885 165.435 170.503 165.536C170.365 165.57 170.225 165.604 170.088 165.639C169.591 165.757 169.099 165.858 168.61 165.946C167.74 166.101 166.879 166.212 166.023 166.281C165.955 166.288 165.886 166.293 165.817 166.298C162.299 166.556 158.874 166.14 155.299 165.459C153.533 165.125 151.731 164.724 149.865 164.309C149.255 164.171 148.643 164.036 148.023 163.901C147.977 163.891 147.928 163.879 147.878 163.869C146.993 163.674 146.093 163.483 145.171 163.293C144.011 163.055 142.814 162.824 141.569 162.605L141.658 164.358C141.732 165.706 142.012 167.036 142.489 168.299C143.02 169.853 143.441 171.082 142.553 173.642L142.125 174.881C142.347 175.496 142.423 176.155 142.348 176.804C142.272 177.454 142.047 178.078 141.69 178.626L141.604 178.756L145.171 187.782L145.403 188.367H143.576L141.329 188.369H137.52L132.025 177.345L131.762 176.818V176.791L132.33 155.605C132.337 155.418 132.352 155.229 132.377 155.042C132.477 154.193 132.745 153.372 133.166 152.627C133.587 151.882 134.152 151.229 134.828 150.705C135.476 150.199 136.218 149.826 137.011 149.609C137.804 149.392 138.632 149.335 139.448 149.441L141.329 149.685L145.171 150.181L147.878 150.533L147.933 150.54L155.916 151.573L156.489 149.237L156.594 149.198L159.955 147.966L171.58 143.705L171.609 143.695L172.374 143.415L172.465 143.563C172.492 143.607 172.519 143.651 172.544 143.695C173.3 145.05 173.915 146.479 174.38 147.959C175.163 150.376 175.807 152.836 176.31 155.327C176.333 155.435 176.352 155.534 176.369 155.622L176.377 155.649C176.384 155.691 176.389 155.718 176.392 155.726C176.66 156.842 176.473 158.204 175.981 159.554Z" fill="#2F2E41"/>
<path d="M176.472 151.746C176.435 151.588 176.388 151.429 176.339 151.274C175.949 150.101 175.494 148.95 174.977 147.827C174.397 146.548 173.701 145.179 172.872 143.696C172.471 142.978 172.04 142.232 171.579 141.456C171.348 141.068 171.108 140.672 170.859 140.269C170.849 140.25 170.838 140.232 170.827 140.215L170.755 140.097L159.254 141.636L154.971 142.209L154.715 144.343L154.654 144.871C154.651 144.871 154.651 144.871 154.654 144.874L154.481 146.315V146.317L154.253 148.22L154.233 148.218L147.877 147.394L141.328 146.546L137.809 146.091C136.994 145.985 136.165 146.042 135.372 146.259C134.579 146.476 133.837 146.848 133.189 147.355C132.513 147.879 131.949 148.532 131.528 149.277C131.107 150.021 130.838 150.842 130.738 151.692C130.716 151.864 130.701 152.041 130.694 152.215L127.375 160.081C125.388 164.785 124.124 169.761 123.623 174.843L121.189 182.624L121.535 182.656L126.694 183.136L128.056 183.263L131.055 178.885C131.397 178.386 131.722 177.872 132.024 177.345C132.522 176.486 132.964 175.596 133.349 174.68L139.838 159.24C140.339 159.326 140.836 159.408 141.328 159.486C143.602 159.855 145.785 160.155 147.877 160.388C154.681 161.148 160.572 161.207 165.816 160.563C167.289 160.383 168.712 160.147 170.087 159.855C170.591 159.749 171.088 159.635 171.579 159.513C171.695 159.486 171.808 159.459 171.921 159.429C172.937 159.167 173.871 158.654 174.638 157.938C175.404 157.221 175.979 156.324 176.309 155.328C176.704 154.174 176.76 152.931 176.472 151.746V151.746Z" fill="#2F2E41"/>
<path d="M122.915 191.212L119.293 189.477L118.725 189.204L117.818 191.431L111.484 192.825C111.171 192.894 110.888 193.061 110.677 193.302C110.465 193.543 110.336 193.845 110.309 194.164C110.281 194.484 110.357 194.804 110.524 195.077C110.691 195.351 110.942 195.564 111.238 195.685L117.427 198.21L119.391 196.442L118.909 198.815L121.24 199.766L123.795 191.635L122.915 191.212Z" fill="#2F2E41"/>
<path d="M145.171 187.782L145.403 188.367H145.171V187.782Z" fill="#2F2E41"/>
<path d="M143.91 188.492L140.115 189.806L139.52 190.012L140.442 192.233L136.923 197.68C136.749 197.949 136.665 198.267 136.684 198.587C136.704 198.907 136.825 199.213 137.03 199.459C137.235 199.705 137.514 199.88 137.825 199.956C138.136 200.033 138.464 200.008 138.76 199.885L144.934 197.325L145.086 194.687L146.413 196.712L148.739 195.748L144.833 188.173L143.91 188.492Z" fill="#2F2E41"/>
<path d="M175.525 155.308C175.3 155.308 175.078 155.253 174.879 155.148L154.853 144.684L154.622 143.737L154.186 140.739L154.192 140.711L156.097 131.931C156.062 131.855 155.989 131.732 155.906 131.592C155.056 130.152 152.469 125.767 157.407 119.73L166.077 109.622L173.518 109.302L173.603 109.409C175.593 111.906 176.935 114.856 177.51 117.997C178.084 121.138 177.874 124.373 176.898 127.413L176.123 141.407L176.954 144.233C177.44 145.894 177.359 147.669 176.726 149.279L176.916 153.855C176.924 154.043 176.893 154.23 176.827 154.405C176.76 154.581 176.659 154.741 176.529 154.877C176.399 155.012 176.244 155.12 176.071 155.195C175.899 155.269 175.713 155.307 175.525 155.308L175.525 155.308Z" fill="#3F3D56"/>
<path d="M158.155 166.849C158.494 166.648 158.785 166.376 159.008 166.051C159.23 165.726 159.379 165.356 159.443 164.967C159.507 164.578 159.486 164.18 159.379 163.801C159.273 163.421 159.085 163.07 158.828 162.771L163.642 154.491L158.673 154.771L154.863 162.591C154.39 163.056 154.103 163.678 154.058 164.34C154.013 165.002 154.212 165.657 154.618 166.182C155.023 166.707 155.608 167.065 156.26 167.188C156.911 167.31 157.586 167.19 158.155 166.849L158.155 166.849Z" fill="#FFB7B7"/>
<path d="M160.098 160.761L155.649 157.296L163.733 141.63L160.704 121.679C160.554 120.693 160.623 119.686 160.906 118.73C161.19 117.773 161.68 116.891 162.343 116.146C163.005 115.4 163.824 114.809 164.74 114.416C165.657 114.022 166.649 113.835 167.646 113.868V113.868C169.446 113.929 171.149 114.702 172.38 116.017C173.611 117.333 174.271 119.083 174.213 120.883L173.465 143.6L160.098 160.761Z" fill="#3F3D56"/>
<path d="M161.304 105.421V98.0579C161.302 95.441 162.34 92.9306 164.189 91.079C166.039 89.2274 168.548 88.1863 171.164 88.1846C173.781 88.1829 176.292 89.2208 178.143 91.0701C179.995 92.9193 181.036 95.4283 181.038 98.0452V98.0579C182.777 101.682 181.689 103.405 181.038 105.421C181.037 105.773 180.897 106.109 180.649 106.358C180.401 106.606 180.064 106.746 179.713 106.746H162.629C162.278 106.746 161.941 106.606 161.693 106.358C161.444 106.109 161.304 105.773 161.304 105.421V105.421Z" fill="#2F2E41"/>
<path d="M167.936 106.268C172.015 106.268 175.321 102.961 175.321 98.8824C175.321 94.8033 172.015 91.4966 167.936 91.4966C163.857 91.4966 160.55 94.8033 160.55 98.8824C160.55 102.961 163.857 106.268 167.936 106.268Z" fill="#FFB7B7"/>
<path d="M175.665 100.819C175.598 100.808 175.531 100.794 175.464 100.783C174.312 100.579 173.16 100.378 172.012 100.17L171.906 97.5667L170.514 99.8989C167.34 100.952 164.37 100.357 161.576 99.0428C160.655 98.6054 159.76 98.1124 158.899 97.5667C159.133 96.1267 159.687 94.7574 160.519 93.559C161.351 92.3605 162.441 91.3633 163.708 90.6401C163.813 90.5802 163.916 90.5274 164.021 90.4745C164.022 90.4745 164.022 90.4744 164.023 90.4743C164.023 90.4741 164.023 90.4738 164.024 90.4735C164.024 90.4732 164.024 90.4728 164.024 90.4724C164.025 90.4719 164.025 90.4715 164.025 90.471C164.204 90.3864 164.388 90.3054 164.571 90.2314C166.005 89.6709 167.569 89.529 169.081 89.8221C170.593 90.1152 171.99 90.8314 173.111 91.8873C175.366 94.04 176.38 97.5948 175.665 100.819Z" fill="#2F2E41"/>
</g>
<defs>
<clipPath id="clip0_350_335">
<rect width="213.838" height="200" fill="white"/>
</clipPath>
</defs>
</svg>
