<svg width="364" height="200" viewBox="0 0 364 200" fill="none" xmlns="http://www.w3.org/2000/svg">
<g clip-path="url(#clip0_349_293)">
<path d="M135.385 137.441C141.079 137.441 145.695 132.825 145.695 127.131C145.695 121.437 141.079 116.82 135.385 116.82C129.69 116.82 125.074 121.437 125.074 127.131C125.074 132.825 129.69 137.441 135.385 137.441Z" fill="#274B9F"/>
<path d="M134.402 131.483L131.316 127.515L133.11 126.119L134.572 127.998L139.508 122.787L141.159 124.351L134.402 131.483Z" fill="white"/>
<path d="M332.409 32.7612H179.133V0H332.409V32.7612Z" fill="white"/>
<path d="M198.995 24.7027C203.591 24.7027 207.317 20.9767 207.317 16.3804C207.317 11.7841 203.591 8.05811 198.995 8.05811C194.398 8.05811 190.672 11.7841 190.672 16.3804C190.672 20.9767 194.398 24.7027 198.995 24.7027Z" fill="#274B9F"/>
<path d="M218.215 10.8325C217.847 10.8325 217.495 10.9787 217.234 11.2388C216.974 11.4989 216.828 11.8517 216.828 12.2196C216.828 12.5874 216.974 12.9402 217.234 13.2004C217.495 13.4605 217.847 13.6066 218.215 13.6066H319.486C319.854 13.6058 320.206 13.4592 320.465 13.1992C320.724 12.9392 320.87 12.5869 320.87 12.2196C320.87 11.8523 320.724 11.5 320.465 11.2399C320.206 10.9799 319.854 10.8334 319.486 10.8325H218.215Z" fill="#3F3D56"/>
<path d="M218.215 19.1548C217.847 19.154 217.494 19.2994 217.234 19.559C216.973 19.8186 216.826 20.171 216.825 20.5389C216.825 20.9068 216.97 21.2599 217.23 21.5206C217.489 21.7812 217.842 21.9281 218.209 21.9289H282.234C282.416 21.9292 282.597 21.8935 282.766 21.824C282.934 21.7544 283.087 21.6523 283.216 21.5235C283.345 21.3946 283.448 21.2416 283.518 21.0732C283.587 20.9047 283.623 20.7242 283.623 20.5418C283.623 20.3595 283.587 20.1789 283.518 20.0105C283.448 19.8421 283.345 19.6891 283.216 19.5602C283.087 19.4314 282.934 19.3293 282.766 19.2597C282.597 19.1901 282.416 19.1545 282.234 19.1548H218.215Z" fill="#3F3D56"/>
<path d="M332.409 32.7612H179.133V0H332.409V32.7612ZM181.474 30.4212H330.069V2.34009H181.474V30.4212Z" fill="#CCCCCC"/>
<path d="M332.409 73.7129H179.133V40.9517H332.409V73.7129Z" fill="white"/>
<path d="M198.995 65.6544C203.591 65.6544 207.317 61.9284 207.317 57.3321C207.317 52.7358 203.591 49.0098 198.995 49.0098C194.398 49.0098 190.672 52.7358 190.672 57.3321C190.672 61.9284 194.398 65.6544 198.995 65.6544Z" fill="#E6E6E6"/>
<path d="M218.215 51.7837C217.847 51.7837 217.495 51.9298 217.234 52.1899C216.974 52.4501 216.828 52.8029 216.828 53.1707C216.828 53.5386 216.974 53.8914 217.234 54.1515C217.495 54.4117 217.847 54.5578 218.215 54.5578H319.486C319.854 54.5569 320.206 54.4104 320.465 54.1504C320.724 53.8903 320.87 53.538 320.87 53.1707C320.87 52.8034 320.724 52.4511 320.465 52.1911C320.206 51.9311 319.854 51.7846 319.486 51.7837H218.215Z" fill="#E6E6E6"/>
<path d="M218.215 60.1064C217.847 60.1057 217.494 60.2511 217.234 60.5106C216.973 60.7702 216.826 61.1227 216.825 61.4906C216.825 61.8584 216.97 62.2116 217.23 62.4722C217.489 62.7329 217.842 62.8798 218.209 62.8806H282.234C282.416 62.8809 282.597 62.8452 282.766 62.7756C282.934 62.7061 283.087 62.6039 283.216 62.4751C283.345 62.3463 283.448 62.1933 283.518 62.0248C283.587 61.8564 283.623 61.6758 283.623 61.4935C283.623 61.3112 283.587 61.1306 283.518 60.9622C283.448 60.7937 283.345 60.6407 283.216 60.5119C283.087 60.3831 282.934 60.2809 282.766 60.2114C282.597 60.1418 282.416 60.1061 282.234 60.1064H218.215Z" fill="#E6E6E6"/>
<path d="M332.409 73.7129H179.133V40.9517H332.409V73.7129ZM181.474 71.3728H330.069V43.2917H181.474V71.3728Z" fill="#E6E6E6"/>
<path d="M332.409 114.665H179.133V81.9033H332.409V114.665Z" fill="white"/>
<path d="M198.995 106.606C203.591 106.606 207.317 102.88 207.317 98.2837C207.317 93.6875 203.591 89.9614 198.995 89.9614C194.398 89.9614 190.672 93.6875 190.672 98.2837C190.672 102.88 194.398 106.606 198.995 106.606Z" fill="#E6E6E6"/>
<path d="M218.215 92.7354C217.847 92.7354 217.495 92.8815 217.234 93.1416C216.974 93.4017 216.828 93.7545 216.828 94.1224C216.828 94.4903 216.974 94.8431 217.234 95.1032C217.495 95.3633 217.847 95.5095 218.215 95.5095H319.486C319.854 95.5086 320.206 95.3621 320.465 95.102C320.724 94.842 320.87 94.4897 320.87 94.1224C320.87 93.7551 320.724 93.4028 320.465 93.1428C320.206 92.8827 319.854 92.7362 319.486 92.7354H218.215Z" fill="#E6E6E6"/>
<path d="M218.215 101.058C217.847 101.057 217.494 101.202 217.234 101.462C216.973 101.721 216.826 102.074 216.825 102.442C216.825 102.81 216.97 103.163 217.23 103.423C217.489 103.684 217.842 103.831 218.209 103.832H282.234C282.416 103.832 282.597 103.796 282.766 103.727C282.934 103.657 283.087 103.555 283.216 103.426C283.345 103.297 283.448 103.144 283.518 102.976C283.587 102.808 283.623 102.627 283.623 102.445C283.623 102.262 283.587 102.082 283.518 101.913C283.448 101.745 283.345 101.592 283.216 101.463C283.087 101.334 282.934 101.232 282.766 101.163C282.597 101.093 282.416 101.057 282.234 101.058H218.215Z" fill="#E6E6E6"/>
<path d="M332.409 114.665H179.133V81.9033H332.409V114.665ZM181.474 112.324H330.069V84.2434H181.474V112.324Z" fill="#E6E6E6"/>
<path d="M78.2986 122.437C77.9492 121.988 77.7024 121.468 77.5758 120.913C77.4491 120.359 77.4457 119.783 77.5656 119.227C77.6855 118.671 77.926 118.147 78.2699 117.694C78.6139 117.241 79.0531 116.869 79.5566 116.603L78.7438 107.747L84.0056 105.94L84.9777 118.464C85.3671 119.339 85.4219 120.327 85.1317 121.24C84.8415 122.153 84.2265 122.927 83.4032 123.417C82.5799 123.907 81.6055 124.078 80.6647 123.897C79.7239 123.717 78.8821 123.197 78.2986 122.437V122.437Z" fill="#FFB8B8"/>
<path d="M83.9474 71.6041C83.9474 71.6041 87.5583 64.0262 90.7669 66.6918C93.9754 69.3574 86.3679 91.7637 86.3679 91.7637L85.2109 113.515L79.1129 112.906L77.3888 91.7138L83.9474 71.6041Z" fill="#CCCCCC"/>
<path d="M35.5132 183.716L40.0397 187.38L56.3271 171.664L49.6465 166.256L35.5132 183.716Z" fill="#FFB8B8"/>
<path d="M35.5548 181.303L44.4694 188.519L44.4698 188.519C45.9763 189.739 46.9367 191.507 47.1396 193.435C47.3425 195.363 46.7714 197.292 45.5518 198.799L45.4024 198.984L30.8066 187.169L35.5548 181.303Z" fill="#2F2E41"/>
<path d="M98.423 193.887H104.247L107.017 171.423L98.4218 171.424L98.423 193.887Z" fill="#FFB8B8"/>
<path d="M96.9373 191.985L108.407 191.985H108.407C110.345 191.985 112.204 192.755 113.575 194.126C114.946 195.496 115.716 197.355 115.716 199.294V199.531L96.9376 199.532L96.9373 191.985Z" fill="#2F2E41"/>
<path d="M108.642 88.5762C108.642 88.5762 119.568 101.877 117.193 115.178C114.818 128.479 112.917 138.455 112.917 138.455L109.117 168.382C109.117 168.382 110.542 176.533 108.642 178.633C108.642 178.633 111.492 183.583 106.267 185.483C101.041 187.384 98.222 184.827 98.222 184.827C98.222 184.827 94.391 179.308 96.7661 177.883L97.7667 119.151L59.7134 168.857C59.7134 168.857 59.0139 174.903 54.1383 174.968L48.3126 179.308L41.6621 175.508L44.9873 171.232C44.9873 171.232 43.0872 166.482 47.3625 165.532L72.0643 133.229L78.2398 116.603C78.2398 116.603 81.565 103.777 90.5907 98.5519V92.9918L108.642 88.5762Z" fill="#2F2E41"/>
<path d="M89.8782 65.5369C91.3165 63.837 93.3298 62.7256 95.5346 62.4143C97.7394 62.103 99.9817 62.6135 101.834 63.8487L102.229 64.1118C106.446 68.8868 109.28 74.7217 110.426 80.9879L112.205 90.7137L89.8782 95.5501L84.6441 77.4987C83.9797 75.2075 84.1396 72.7559 85.0959 70.5704C86.0522 68.3848 87.7444 66.6037 89.8782 65.5369V65.5369Z" fill="#CCCCCC"/>
<path d="M126.559 124.505C125.941 124.302 125.373 123.967 124.898 123.522C124.423 123.076 124.051 122.532 123.809 121.928C123.567 121.324 123.46 120.673 123.496 120.023C123.532 119.373 123.711 118.739 124.018 118.165L117.578 110.282L121.413 105.2L130.352 116.459C131.282 117.041 131.966 117.943 132.275 118.994C132.584 120.046 132.497 121.175 132.029 122.167C131.562 123.158 130.747 123.944 129.739 124.375C128.731 124.806 127.599 124.852 126.559 124.505H126.559Z" fill="#FFB8B8"/>
<path d="M99.3789 72.6625C99.3789 72.6625 97.9537 63.1618 102.704 63.6369C107.455 64.1119 114.58 90.2388 114.58 90.2388L127.406 111.615L121.23 114.941L106.029 95.9393L99.3789 72.6625Z" fill="#CCCCCC"/>
<path d="M108.078 58.7731H85.457C84.9917 58.7726 84.5456 58.5875 84.2166 58.2584C83.8875 57.9294 83.7024 57.4833 83.7019 57.018V47.2676C83.7019 43.8025 85.0785 40.4792 87.5287 38.0289C89.979 35.5787 93.3022 34.2021 96.7674 34.2021C100.233 34.2021 103.556 35.5787 106.006 38.0289C108.456 40.4792 109.833 43.8025 109.833 47.2676V57.018C109.832 57.4833 109.647 57.9294 109.318 58.2584C108.989 58.5875 108.543 58.7726 108.078 58.7731Z" fill="#2F2E41"/>
<path d="M99.4522 58.546C104.743 58.546 109.031 54.2573 109.031 48.9669C109.031 43.6764 104.743 39.3877 99.4522 39.3877C94.1618 39.3877 89.8731 43.6764 89.8731 48.9669C89.8731 54.2573 94.1618 58.546 99.4522 58.546Z" fill="#FFB8B8"/>
<path d="M112.924 48.2423H100.869L100.745 46.2564L100.127 48.2423H98.2707L98.0257 44.3064L96.8007 48.2423H93.209V48.0473C93.209 42.3483 97.2497 37.7119 102.217 37.7119H103.916C108.883 37.7119 112.924 42.3483 112.924 48.0473V48.2423Z" fill="#2F2E41"/>
<path d="M101.368 60.5933C101.22 60.5932 101.073 60.5819 100.928 60.5594L86.5787 58.3493V43.404C86.5787 41.8773 87.1852 40.4131 88.2647 39.3335C89.3443 38.254 90.8085 37.6475 92.3352 37.6475H102.374L101.983 38.0455C96.5421 43.5848 100.641 52.5669 103.569 57.428C103.784 57.7774 103.881 58.1866 103.846 58.5953C103.811 59.004 103.645 59.3907 103.374 59.6984C103.125 59.9846 102.816 60.213 102.47 60.3676C102.123 60.5222 101.747 60.5992 101.368 60.5933Z" fill="#2F2E41"/>
<path d="M353.013 26.6773C358.707 26.6773 363.323 22.0611 363.323 16.3667C363.323 10.6723 358.707 6.05615 353.013 6.05615C347.318 6.05615 342.702 10.6723 342.702 16.3667C342.702 22.0611 347.318 26.6773 353.013 26.6773Z" fill="#274B9F"/>
<path d="M352.03 20.7187L348.944 16.7511L350.739 15.3552L352.2 17.2339L357.136 12.0229L358.787 13.5869L352.03 20.7187Z" fill="white"/>
<path d="M148.986 200H0.390015C0.286576 200 0.187374 199.959 0.114232 199.886C0.0410904 199.813 0 199.714 0 199.61C0 199.507 0.0410904 199.408 0.114232 199.334C0.187374 199.261 0.286576 199.22 0.390015 199.22H148.986C149.089 199.22 149.188 199.261 149.261 199.334C149.335 199.408 149.376 199.507 149.376 199.61C149.376 199.714 149.335 199.813 149.261 199.886C149.188 199.959 149.089 200 148.986 200Z" fill="#CCCCCC"/>
</g>
<defs>
<clipPath id="clip0_349_293">
<rect width="363.323" height="200" fill="white"/>
</clipPath>
</defs>
</svg>
