<svg width="199" height="200" viewBox="0 0 199 200" fill="none" xmlns="http://www.w3.org/2000/svg">
<g clip-path="url(#clip0_349_222)">
<path d="M99.1715 200C153.942 200 198.343 197.392 198.343 194.175C198.343 190.958 153.942 188.35 99.1715 188.35C44.4006 188.35 0 190.958 0 194.175C0 197.392 44.4006 200 99.1715 200Z" fill="#E6E6E6"/>
<path d="M112.424 46.1434H111.357V16.916C111.357 12.4296 109.574 8.12692 106.402 4.95457C103.23 1.78221 98.9271 0 94.4407 0H32.5187C28.0323 0 23.7296 1.78221 20.5573 4.95457C17.3849 8.12692 15.6027 12.4296 15.6027 16.916V177.259C15.6027 181.746 17.3849 186.048 20.5573 189.221C23.7296 192.393 28.0323 194.175 32.5187 194.175H94.4407C98.9271 194.175 103.23 192.393 106.402 189.221C109.574 186.048 111.357 181.746 111.357 177.259V66.9479H112.424V46.1434Z" fill="#3F3D56"/>
<path d="M107.756 17.034V177.141C107.756 180.492 106.425 183.705 104.056 186.074C101.687 188.443 98.4736 189.774 95.1231 189.774H32.904C29.5536 189.774 26.3405 188.443 23.9714 186.074C21.6023 183.705 20.2713 180.492 20.2712 177.141V17.034C20.2713 13.6835 21.6023 10.4703 23.9714 8.10111C26.3406 5.73196 29.5538 4.40096 32.9043 4.40088H40.4524C40.0814 5.31227 39.9402 6.30085 40.041 7.27965C40.1418 8.25845 40.4816 9.19749 41.0305 10.0142C41.5794 10.8308 42.3205 11.5001 43.1888 11.963C44.0571 12.426 45.0258 12.6685 46.0098 12.6693H81.4843C82.4683 12.6686 83.4371 12.4261 84.3054 11.9631C85.1737 11.5002 85.9149 10.8309 86.4639 10.0143C87.0128 9.19761 87.3526 8.25855 87.4534 7.27973C87.5542 6.3009 87.413 5.31229 87.042 4.40088H95.1231C98.4736 4.40096 101.687 5.73196 104.056 8.10111C106.425 10.4703 107.756 13.6835 107.756 17.034V17.034Z" fill="white"/>
<path d="M49.0137 138.255H47.7051L48.142 112.696H48.5789L49.0137 138.255Z" fill="#E6E6E6"/>
<path d="M50.1039 96.6049L52.2161 93.3408C51.5897 91.6106 50.8662 89.9171 50.0492 88.2684L48.6835 89.3716L49.7649 87.7004C48.7341 85.6719 47.9233 84.3936 47.9233 84.3936C47.9233 84.3936 43.6879 91.0682 42.2721 98.1363L44.9825 102.325L41.9826 99.9016C41.8758 100.725 41.8208 101.554 41.8181 102.384C41.8181 110.755 44.5518 117.54 47.9239 117.54C51.296 117.54 54.0297 110.754 54.0297 102.384C54.0297 99.7895 53.4425 97.0747 52.6317 94.5632L50.1039 96.6049Z" fill="#CCCCCC"/>
<path d="M83.0784 138.255H81.7698L82.2067 112.696H82.6435L83.0784 138.255Z" fill="#E6E6E6"/>
<path d="M84.1685 96.6049L86.2807 93.3408C85.6543 91.6106 84.9309 89.9171 84.1138 88.2684L82.7481 89.3716L83.8295 87.7004C82.7988 85.6719 81.9879 84.3936 81.9879 84.3936C81.9879 84.3936 77.7519 91.0688 76.3376 98.1363L79.046 102.325L76.0461 99.901C75.9392 100.724 75.8843 101.553 75.8815 102.384C75.8815 110.754 78.6152 117.539 81.9873 117.539C85.3595 117.539 88.0932 110.753 88.0932 102.384C88.0932 99.7889 87.506 97.0741 86.6951 94.5626L84.1685 96.6049Z" fill="#CCCCCC"/>
<path d="M48.018 53.5317C54.658 53.5317 60.0409 48.1488 60.0409 41.5087C60.0409 34.8687 54.658 29.4858 48.018 29.4858C41.3779 29.4858 35.9951 34.8687 35.9951 41.5087C35.9951 48.1488 41.3779 53.5317 48.018 53.5317Z" fill="#E6E6E6"/>
<path d="M64.6706 134.535H61.9727L62.8721 81.834H63.7712L64.6706 134.535Z" fill="#E6E6E6"/>
<path d="M66.9188 48.6542L71.2739 41.9245C69.9824 38.3569 68.4906 34.8649 66.8058 31.4653L63.9897 33.7397L66.2195 30.2936C64.0933 26.1106 62.4224 23.4751 62.4224 23.4751C62.4224 23.4751 53.6883 37.2385 50.7703 51.8111L56.3574 60.4482L50.1706 55.4511C49.9503 57.1487 49.8369 58.8584 49.8313 60.5702C49.8313 77.829 55.4679 91.8199 62.421 91.8199C69.3741 91.8199 75.0107 77.829 75.0107 60.5702C75.0107 55.2199 73.8002 49.6223 72.1305 44.4441L66.9188 48.6542Z" fill="#CCCCCC"/>
<path d="M107.756 142.131V177.957C107.756 185.223 102.1 191.114 95.1231 191.114H32.904C25.927 191.114 20.2709 185.224 20.2706 177.957V145.623C31.058 132.435 46.6549 124.553 63.2776 123.889C79.9002 123.225 96.0309 129.841 107.756 142.131Z" fill="#E6E6E6"/>
<path opacity="0.2" d="M64.0814 177.471C74.2487 177.471 82.4909 169.229 82.4909 159.062C82.4909 148.895 74.2487 140.652 64.0814 140.652C53.9141 140.652 45.6719 148.895 45.6719 159.062C45.6719 169.229 53.9141 177.471 64.0814 177.471Z" fill="#274B9F"/>
<path d="M64.0814 173.885C72.2681 173.885 78.9047 167.248 78.9047 159.062C78.9047 150.875 72.2681 144.238 64.0814 144.238C55.8947 144.238 49.2581 150.875 49.2581 159.062C49.2581 167.248 55.8947 173.885 64.0814 173.885Z" fill="#274B9F"/>
<path d="M62.3525 165.4L57.1283 158.683L60.1664 156.32L62.6397 159.5L70.9955 150.68L73.7897 153.327L62.3525 165.4Z" fill="white"/>
<path d="M142.855 136.006C148.164 136.006 152.467 131.703 152.467 126.395C152.467 121.086 148.164 116.783 142.855 116.783C137.547 116.783 133.244 121.086 133.244 126.395C133.244 131.703 137.547 136.006 142.855 136.006Z" fill="#2F2E41"/>
<path d="M146.75 180.351L147.491 183.844L161.316 182.65L160.224 177.495L146.75 180.351Z" fill="#FFB8B8"/>
<path d="M145.674 191.267L143.347 180.289L147.589 179.39L149.017 186.127C149.135 186.684 149.142 187.258 149.038 187.818C148.934 188.378 148.72 188.912 148.41 189.389C148.099 189.866 147.698 190.278 147.229 190.6C146.759 190.922 146.231 191.149 145.674 191.267Z" fill="#2F2E41"/>
<path d="M138.089 180.164L136.533 183.378L123.397 178.906L125.694 174.163L138.089 180.164Z" fill="#FFB8B8"/>
<path d="M134.504 185.233L137.505 179.034L141.408 180.924L136.517 191.024C135.482 190.523 134.689 189.631 134.311 188.545C133.934 187.459 134.003 186.268 134.504 185.233V185.233Z" fill="#2F2E41"/>
<path d="M112.208 173.817C112.657 173.901 113.12 173.885 113.563 173.771C114.006 173.656 114.418 173.446 114.771 173.155C115.124 172.864 115.409 172.499 115.605 172.086C115.802 171.673 115.906 171.222 115.909 170.765L137.571 150.793L132.191 146.627L112.579 167.58C111.81 167.625 111.084 167.95 110.539 168.495C109.994 169.039 109.668 169.765 109.622 170.534C109.576 171.303 109.814 172.062 110.291 172.667C110.768 173.272 111.45 173.681 112.208 173.817L112.208 173.817Z" fill="#FFB8B8"/>
<path d="M141.649 136.44C145.6 136.44 148.802 133.237 148.802 129.286C148.802 125.336 145.6 122.133 141.649 122.133C137.698 122.133 134.496 125.336 134.496 129.286C134.496 133.237 137.698 136.44 141.649 136.44Z" fill="#FFB8B8"/>
<path d="M148.069 171.336C143.051 171.336 137.008 170.279 133.279 165.954L133.195 165.857L133.283 165.762C133.312 165.731 136.054 162.596 133.315 157.006L129.549 158.165L125.801 153.217L127.877 146.987L136.375 140.143C137.593 139.167 139.075 138.579 140.63 138.456C143.445 138.183 146.187 137.403 148.723 136.151C149.883 135.587 151.161 135.308 152.451 135.335L152.618 135.34C153.01 135.351 153.396 135.442 153.752 135.606C154.108 135.771 154.427 136.006 154.69 136.298C154.953 136.589 155.153 136.931 155.28 137.303C155.406 137.674 155.456 138.068 155.426 138.459C154.849 145.924 153.832 163.956 156.821 170.165L156.899 170.325L156.726 170.369C153.885 171.008 150.982 171.332 148.069 171.336L148.069 171.336Z" fill="#274B9F"/>
<path d="M134.263 165.859C134.263 165.859 115.332 164.112 113.293 169.645C111.254 175.179 113.584 177.8 117.08 178.965C120.575 180.13 129.021 181.587 129.021 181.587L132.807 176.927L142.71 177.509C142.71 177.509 153.744 183.909 156.795 190.754C157.449 192.235 158.493 193.511 159.815 194.446C161.137 195.381 162.688 195.941 164.302 196.065C166.749 196.235 168.922 195.311 168.922 191.489C168.922 182.751 156.69 170.227 156.69 170.227L134.263 165.859Z" fill="#2F2E41"/>
<path d="M119.846 174.452C119.846 174.452 124.798 172.995 132.661 176.782Z" fill="#2F2E41"/>
<path d="M134.513 124.724C137.307 126.429 140.456 127.467 143.717 127.756L142.746 126.594C143.453 126.855 144.196 127.003 144.949 127.031C145.325 127.042 145.7 126.964 146.041 126.805C146.382 126.645 146.682 126.407 146.915 126.111C147.105 125.803 147.218 125.454 147.244 125.093C147.27 124.732 147.209 124.371 147.065 124.039C146.769 123.377 146.309 122.801 145.728 122.367C144.699 121.553 143.484 121.005 142.191 120.775C140.899 120.544 139.569 120.636 138.321 121.043C137.465 121.299 136.698 121.791 136.108 122.462C135.818 122.801 135.617 123.205 135.522 123.641C135.427 124.076 135.442 124.528 135.565 124.956" fill="#2F2E41"/>
<path d="M142.804 119.006C144.075 116.055 145.977 113.418 148.377 111.281C149.919 109.912 151.719 108.735 153.75 108.38C155.781 108.024 158.07 108.633 159.316 110.276C160.335 111.619 160.525 113.419 160.413 115.102C160.301 116.784 159.925 118.451 159.961 120.136C159.998 121.856 160.463 123.539 161.316 125.034C162.168 126.528 163.38 127.786 164.842 128.693C166.304 129.6 167.969 130.127 169.687 130.228C171.404 130.328 173.12 129.998 174.677 129.267C172.923 130.236 171.557 131.771 169.93 132.939C168.303 134.106 166.154 134.908 164.305 134.136C162.348 133.32 161.451 131.101 160.75 129.1L157.624 120.176C157.093 118.659 156.535 117.097 155.451 115.911C154.367 114.724 152.607 114.001 151.114 114.597C149.983 115.05 149.247 116.129 148.601 117.16C147.955 118.192 147.274 119.292 146.184 119.834C145.093 120.375 143.475 120.042 143.119 118.877" fill="#2F2E41"/>
<path d="M145.258 171.36C145.135 171.36 145.012 171.354 144.889 171.34C144.075 171.248 143.327 170.848 142.799 170.222C142.27 169.596 142.002 168.792 142.049 167.974C142.095 167.156 142.453 166.387 143.049 165.825C143.645 165.263 144.434 164.951 145.253 164.953C145.396 164.953 145.539 164.964 145.68 164.984L155.46 154.573L154.439 151.17L159.565 148.872L161.002 152.384C161.484 153.574 161.569 154.887 161.245 156.13C160.922 157.372 160.206 158.476 159.205 159.279L148.44 167.842C148.451 167.947 148.457 168.052 148.457 168.157C148.457 168.607 148.362 169.053 148.178 169.464C147.994 169.876 147.725 170.244 147.39 170.545C146.805 171.072 146.045 171.363 145.258 171.36V171.36Z" fill="#FFB8B8"/>
<path d="M152.904 136.733C153.243 136.583 153.609 136.502 153.98 136.496C154.351 136.491 154.719 136.56 155.063 136.7C155.406 136.841 155.718 137.049 155.979 137.313C156.24 137.576 156.445 137.89 156.582 138.235L161.641 151.005L153.777 156.247L152.904 136.733Z" fill="#274B9F"/>
</g>
<defs>
<clipPath id="clip0_349_222">
<rect width="198.343" height="200" fill="white"/>
</clipPath>
</defs>
</svg>
