<svg version="1.2" xmlns="http://www.w3.org/2000/svg" width="2048" height="1536"><style>.s0{fill:none;stroke:#fff;stroke-linecap:round;stroke-linejoin:round;stroke-width:4.6}</style><path id="Layer" class="s0" d="M0 103.7s174.1-9 239.2-6.5 128 19.2 149 32.6c124.3 3.5 265.7 22.8 352.9 36.4 87.2 13.6 165 26.4 242.2 69.3 77.1 42.9 285.7 169.3 389.3 247.2 294.4 12.9 580.8 71.4 675.4 99.3"/><path class="s0" d="M0 138.9c91.4-5.1 258.6-7.9 336.4 0 77.8 7.9 198 35 264.3 82.7m846.4 265.3c45.2 29.6-52.1 98.7-134.3 145.2-38.7 21.8-94.6 31.1-128.7 38.6-27.8-2.4-50.4-3.8-89.4-7.6-190.2-190.9-439.8-386.5-489.4-425.2-15.4-12-12-15.4-4.6-16.2 107.5-11.1 307.4-1.1 375.5 10M868.9 605.9s30.3 1.8 47.8 14.6c17.5 12.9 9 26.5-17.2 26.5-14.7 0-93.5 6.2-143.1 13.4-24.8 3.6-55.8 9.3-84.8 10.4-29 1.1-56-2.4-67.8-3.2-23.7-1.7-38.5-4.4-45.7-20.4-7.1-16-19.3-44.6-17.6-87.6 1.6-43 35.2-53.5 71.6-66.7 36.4-13.3 95.3-17.1 161.4-5 66.1 12.2 109 63.8 107.4 99.2-.4 7.7-6.4 14.1-12 18.8z"/><path class="s0" d="M0 183.2s191-9.1 318.5 0 180.6 32.3 294.3 115c113.7 82.7 310.8 265.6 413.7 390.3 0 0-103.5-13-246.4-31.3m-229.9-29.7c-218.1-28.4-450-59.4-550.2-75.4"/><path class="s0" d="M0 207.4c146-5.4 321.4-16.2 441.8 22.5 136.6 43.9 292.4 198.4 358.7 265.6m-52.2-51.7-2.6 39.9m234.7 199.1c-37.6-39.2-100.4-107-100.4-107m1168 682.4c-88.9-52.2-411.5-116-505.9-130.1-94.4-14.1-153.2-24-237.7 41.4-84.5 65.5-172.4 219.3-199.1 294.1-157.8-53.2-897.4-250-1105.3-315.8"/><path class="s0" d="M1855.1 1193c49.6 30.5 154.7 147.6 192.9 273.3m-852.9 69.7c-18.7-76.9 29.4-206.3 58.9-269.1 29.5-62.8 112.5-141.1 198.6-149M1281.1 1536c-3.1-28.8-.7-147.3 171.5-198.5 172.2-51.2 413.4 65.2 478.5 198.5m-718.6-160.7-57.6-15.4M985 1409.9c.8-18.9 1.1-38.4 10.5-56.2 9.4-33 10.3-126.1 18.2-221.2 7.9-95 8.1-266.7 10.3-292 2.2-25.3.8-48.2 0-54.1 2.7-22.4 7.8-74.1 2.5-97.8 8.2-4.3 39.4-21 68.2-25.4"/><path class="s0" d="M0 1135.4c70.7 16.5 857 238.2 910.5 253.4 53.5 15.2 142.7 38.8 199.5 62.5m938-277.9c-54.5-31.3-249-67-369.9-89.6-120.9-22.6-300.1-55.4-366.4-13.1-66.3 42.3-130.4 124.6-167.6 189.4-37.2 64.8-58.6 102.9-63 109.4-4.4 6.5-10.2 9.4-22.2 5.9s-54.8-17.1-89.8-27.3S230 1143.3.1 1091.4M544.5 607.5C467.1 596.2 131 553.8 0 537.3"/><path class="s0" d="M250.3 1203.5c-2.6-12.4-7.3-24.4-8-34.1-.5-7.2 2.2-13.2 3.7-16.9 0 0-6.5-21.3-10.5-34.8 4.8-14.6 5.5-26.5 2.6-41.9-2.9-15.4-25.6-52.3-54.3-145.2-28.7-92.9-48.4-237.2-49.8-253.4-1.4-16.2-7.4-17.2-7.4-26.4 0-9.1 10.9-51.7 18-77.6-1.1-6.4.7-13.9 2.5-17.4-9-110.4-1.4-270.7 6.1-353.6-1.7-7.7-1.8-16.5-1.3-22.9m43 22.5c-3.6 55.5.2 286.7 13.1 361.8M119.2 203c-15.9 87.5-29.5 227.8-27.7 345.8"/><path class="s0" d="M350.1 678c13.1 2.2 14.3 8.4 16.2 15.3 1.9 6.9 1.3 23.1-27.7 24.1-60.4 2-114.8-9.1-137.8-15.5-23-6.4-29-20.5-30.9-31.5-1.9-11 5.7-16.2 12.9-17.4 7.1-1.2 35.3 4.5 51.5 8.8 8.2 10.2 71.4 18.1 88.1 13.1 0 0 14.5.9 27.7 3.1z"/><path class="s0" d="M234.4 661.7c8.3-9 20.7-14.8 30.5-17.4 9.7-2.6 30.7 2.2 39.1 6 8.4 3.8 15.1 11.2 18.4 24.6m-1.2 42.7c-2.6 8.6-7.4 21.3-29.1 23.4-21.7 2.1-42.7-2.7-57.8-31.6M2048 825c-180.3-35.5-586.9-95.9-654.7-106.8-67.8-10.8-163.8-23.7-209.2-47.5m188.5-188c23.8 14.6 38.3 30.5 27 51.5-11.2 21-58.6 80.9-253.8 133.4"/></svg>