<svg xmlns="http://www.w3.org/2000/svg" viewBox="0 0 500 375" style="enable-background:new 0 0 500 375" xml:space="preserve"><style>.st2,.st3{fill:none;stroke:#fff;stroke-miterlimit:10}.st3{stroke-width:.5}</style><g id="Calque_2"><path class="st2" d="M82.7 358.3c8.8.4 87.8 2.5 167.3 2.6 82.1.1 164.2-1.9 170.8-2.7 14.5-1.8 31.2-6 35.1-19 3.7-12.5 4.3-26.5 3.3-41-.1-9.1 4.8-57.6 4-61.6-.8-4.1-6.3-16.5-6.3-21s4.5-22.6 4.9-35.7c-.4-5.7-1.3-10.6-6.2-14.6-1-4.3-1.2-14.2-1.1-15.6 3.8-6.1-4-10.6-5.5-12.5.7-1.5.5-3.7.5-3.7S394.8 65.3 393.3 61c-1.5-4.3 1.5-12.6-15.2-29.6-18.6-9.8-67-10.5-128.1-9.8-64.3.7-106.2-1.1-129.1 10.9-8 8.9-15 18.8-13.2 27.2-9.6 10.9-40.8 55.9-57.3 73.9 0 1.4.7 3 1 3.9 0 1.3-10.3 4.4-5.8 12.4.3 4.6.1 11.4-.6 13.6-.8 2.3-6.3 8-6.4 17.3-.1 8.4 5.7 31.1 4.7 34.9-1 3.8-6.7 20.6-6.4 24.1.3 3.6 4.3 53.9 4.3 58.5 0 4.6-3.6 26.6 4.8 46.3 6.7 8 18.9 12.8 36.7 13.7z"/><path class="st3" d="M324.5 222.1h-149l1.8-29.6 145.1-.5z"/><path class="st2" d="M51.3 137.4c6.1-5 82.4-5.2 86.5-4.8 4.2.5 14.9 7.8 3.6 12.8-7.9 1.5-14.3-.2-19.9 3.5-5.2 5.8-4.9 10-10.8 12.2-9.7 1.7-63.8 1.7-66.4 3.4M449 137.1c-6.3-4.5-84.7-6.2-89.1-3.9s-10.7 6-2.4 11.7c11.2 2.7 15.3 1.3 18.8 3.4 3.5 2.1 7.1 9.7 12.5 12.4 5.6 2.8 63.5 1.4 66.7 4.5M107.6 59.4c11-1.8 7.6-7 19.6-10.8 16.1-5.6 61.8-4.8 123.5-5.7 60.7-.9 112 .5 125.4 7.4 7 3.1 12.1 10.9 17 10.3"/><path class="st3" d="M114.2 288.7c-21.5-.2-58.9-4.2-63.9-5.7-5-1.1-6.7 8.5-6.7 10.6.4 1.9 10.2 11 52.8 10.9 10.5-1.2 17.8-7.5 17.8-15.8zM385.2 289s45.1-1.9 65.4-5.9c3-.8 5.8 8.3 5.7 10.7-.2 4-18.6 11.6-52.2 10.7-5.5-1-16.6-2.5-18.9-15.5z"/><path class="st2" d="M111.7 58.4s-54.3 69.4-55 73.1c.8 2.9 1.5 4.3 4 3.6-.3 1.4-4.4 7.4-1.8 12 .2 6.4.1 15.1-.9 16.3-6.3 7.5 10 61.8 13.4 78.2 3.5 10.5 5.8 18.3 33.9 19.9 15 1.2 79 2.6 144.1 2.6 73.3-.1 147.5-2.7 154-3.6 18.2-2.5 20.1-5.7 25.8-21.9 3.4-18.9 20.2-68.7 12.1-75.3-.8-4.8-.4-14-.2-16.3 2.4-3.9-.3-10.5-2.2-12.2 3.1.7 4.4-.8 4.4-4-11.6-14.4-44.1-57.9-56-72.5"/><path class="st3" d="M70.8 111.5s81.8-5.8 170.8-5.4c96.4-2 186.7 5.6 186.7 5.6M65.4 218.3c-3.4 10.9-5.4 21-5.7 23s-.2 18.6 8.7 24.9c6.8 4.8 93 5.7 181.7 5.6 87.5-.1 168.5.3 178.6-4.5 9.6-4.6 12.3-15.2 11.9-25.5-1.4-7.6-6.3-24.1-6.3-24.1"/><path class="st3" d="M66 219.6s63.3 5 66.3 1c3-4.1 15.6-34.6 22.5-37.2 6.8-2.6 185.1-2.1 189.5-.4 11.3 5.5 19.7 36.7 24.4 38.4 4.7 1.7 64.9-1.6 64.9-1.6"/></g></svg>